<?xml version="1.0" encoding="UTF-8" standalone="no"?>
<!DOCTYPE svg PUBLIC "-//W3C//DTD SVG 1.1//EN"
 "http://www.w3.org/Graphics/SVG/1.1/DTD/svg11.dtd">
<!-- Generated by graphviz version 2.28.0 (20110622.2320)
 -->
<!-- Title: G Pages: 1 -->
<svg width="1705pt" height="764pt"
 viewBox="0.00 0.00 1705.26 764.00" xmlns="http://www.w3.org/2000/svg" xmlns:xlink="http://www.w3.org/1999/xlink">
<g id="graph1" class="graph" transform="scale(1 1) rotate(0) translate(4 760)">
<title>G</title>
<polygon fill="white" stroke="white" points="-4,5 -4,-760 1702.26,-760 1702.26,5 -4,5"/>
<!-- h0 -->
<g id="node1" class="node"><title>h0</title>
<a xlink:href="0044464" xlink:title="GO:0044464 (1)">
<ellipse fill="#e98576" stroke="#e98576" cx="712.263" cy="-594" rx="75.2018" ry="18"/>
<text text-anchor="middle" x="712.263" y="-589.8" font-family="Times,serif" font-size="14.00">GO:0044464 (1)</text>
</a>
</g>
<!-- j1 -->
<g id="node3" class="node"><title>j1</title>
<a xlink:href="0045177" xlink:title="GO:0045177 (1)">
<ellipse fill="#e98576" stroke="#e98576" cx="105.263" cy="-522" rx="75.2018" ry="18"/>
<text text-anchor="middle" x="105.263" y="-517.8" font-family="Times,serif" font-size="14.00">GO:0045177 (1)</text>
</a>
</g>
<!-- h0&#45;&gt;j1 -->
<g id="edge2" class="edge"><title>h0&#45;&gt;j1</title>
<path fill="none" stroke="black" d="M641.493,-587.986C540.868,-580.365 350.826,-564.15 190.263,-540 183.464,-538.977 176.384,-537.778 169.341,-536.498"/>
<polygon fill="black" stroke="black" points="169.558,-532.978 159.084,-534.576 168.268,-539.858 169.558,-532.978"/>
</g>
<!-- x0 -->
<g id="node16" class="node"><title>x0</title>
<a xlink:href="0042995" xlink:title="GO:0042995 (3)">
<ellipse fill="#e98576" stroke="#e98576" cx="798.263" cy="-522" rx="75.2018" ry="18"/>
<text text-anchor="middle" x="798.263" y="-517.8" font-family="Times,serif" font-size="14.00">GO:0042995 (3)</text>
</a>
</g>
<!-- h0&#45;&gt;x0 -->
<g id="edge72" class="edge"><title>h0&#45;&gt;x0</title>
<path fill="none" stroke="black" d="M732.644,-576.411C743.782,-567.345 757.752,-555.974 769.935,-546.057"/>
<polygon fill="black" stroke="black" points="772.482,-548.497 778.028,-539.47 768.063,-543.068 772.482,-548.497"/>
</g>
<!-- k0 -->
<g id="node24" class="node"><title>k0</title>
<a xlink:href="0044424" xlink:title="GO:0044424">
<ellipse fill="#dddddd" stroke="#dddddd" cx="396.263" cy="-450" rx="61.1934" ry="18"/>
<text text-anchor="middle" x="396.263" y="-445.8" font-family="Times,serif" font-size="14.00">GO:0044424</text>
</a>
</g>
<!-- h0&#45;&gt;k0 -->
<g id="edge48" class="edge"><title>h0&#45;&gt;k0</title>
<path fill="none" stroke="black" d="M637.174,-592.389C546.589,-589.871 402.194,-579.56 368.263,-540 352.808,-521.981 364.225,-495.425 376.811,-476.012"/>
<polygon fill="black" stroke="black" points="379.782,-477.869 382.584,-467.651 374.022,-473.891 379.782,-477.869"/>
</g>
<!-- l0 -->
<g id="node49" class="node"><title>l0</title>
<a xlink:href="0005622" xlink:title="GO:0005622">
<ellipse fill="#dddddd" stroke="#dddddd" cx="260.263" cy="-522" rx="61.1934" ry="18"/>
<text text-anchor="middle" x="260.263" y="-517.8" font-family="Times,serif" font-size="14.00">GO:0005622</text>
</a>
</g>
<!-- h0&#45;&gt;l0 -->
<g id="edge108" class="edge"><title>h0&#45;&gt;l0</title>
<path fill="none" stroke="black" d="M646.275,-585.412C570.805,-576.342 443.67,-559.871 335.263,-540 329.058,-538.863 322.588,-537.566 316.163,-536.208"/>
<polygon fill="black" stroke="black" points="316.663,-532.735 306.148,-534.036 315.18,-539.576 316.663,-532.735"/>
</g>
<!-- i1 -->
<g id="node53" class="node"><title>i1</title>
<a xlink:href="0030496" xlink:title="GO:0030496 (1)">
<ellipse fill="#e98576" stroke="#e98576" cx="452.263" cy="-522" rx="75.2018" ry="18"/>
<text text-anchor="middle" x="452.263" y="-517.8" font-family="Times,serif" font-size="14.00">GO:0030496 (1)</text>
</a>
</g>
<!-- h0&#45;&gt;i1 -->
<g id="edge50" class="edge"><title>h0&#45;&gt;i1</title>
<path fill="none" stroke="black" d="M664.272,-580.079C620.801,-568.376 556.653,-551.105 510.312,-538.629"/>
<polygon fill="black" stroke="black" points="510.98,-535.184 500.414,-535.964 509.16,-541.943 510.98,-535.184"/>
</g>
<!-- g0 -->
<g id="node59" class="node"><title>g0</title>
<a xlink:href="0016020" xlink:title="GO:0016020 (10)">
<ellipse fill="#e98576" stroke="#e98576" cx="625.263" cy="-522" rx="79.4447" ry="18"/>
<text text-anchor="middle" x="625.263" y="-517.8" font-family="Times,serif" font-size="14.00">GO:0016020 (10)</text>
</a>
</g>
<!-- h0&#45;&gt;g0 -->
<g id="edge58" class="edge"><title>h0&#45;&gt;g0</title>
<path fill="none" stroke="black" d="M691.645,-576.411C680.269,-567.257 665.973,-555.755 653.565,-545.772"/>
<polygon fill="black" stroke="black" points="655.718,-543.012 645.733,-539.47 651.33,-548.466 655.718,-543.012"/>
</g>
<!-- z0 -->
<g id="node65" class="node"><title>z0</title>
<a xlink:href="0031252" xlink:title="GO:0031252 (2)">
<ellipse fill="#e98576" stroke="#e98576" cx="966.263" cy="-522" rx="75.2018" ry="18"/>
<text text-anchor="middle" x="966.263" y="-517.8" font-family="Times,serif" font-size="14.00">GO:0031252 (2)</text>
</a>
</g>
<!-- h0&#45;&gt;z0 -->
<g id="edge64" class="edge"><title>h0&#45;&gt;z0</title>
<path fill="none" stroke="black" d="M759.443,-579.998C801.813,-568.321 864.116,-551.151 909.26,-538.71"/>
<polygon fill="black" stroke="black" points="910.194,-542.083 918.905,-536.051 908.335,-535.334 910.194,-542.083"/>
</g>
<!-- q1 -->
<g id="node71" class="node"><title>q1</title>
<a xlink:href="0009986" xlink:title="GO:0009986 (1)">
<ellipse fill="#e98576" stroke="#e98576" cx="1134.26" cy="-522" rx="75.2018" ry="18"/>
<text text-anchor="middle" x="1134.26" y="-517.8" font-family="Times,serif" font-size="14.00">GO:0009986 (1)</text>
</a>
</g>
<!-- h0&#45;&gt;q1 -->
<g id="edge70" class="edge"><title>h0&#45;&gt;q1</title>
<path fill="none" stroke="black" d="M775.008,-584.008C842.975,-574.07 954.529,-557.184 1050.26,-540 1056.51,-538.879 1063.01,-537.659 1069.5,-536.405"/>
<polygon fill="black" stroke="black" points="1070.52,-539.772 1079.66,-534.415 1069.17,-532.903 1070.52,-539.772"/>
</g>
<!-- n1 -->
<g id="node4" class="node"><title>n1</title>
<a xlink:href="0043233" xlink:title="GO:0043233">
<ellipse fill="#dddddd" stroke="#dddddd" cx="1230.26" cy="-306" rx="61.1934" ry="18"/>
<text text-anchor="middle" x="1230.26" y="-301.8" font-family="Times,serif" font-size="14.00">GO:0043233</text>
</a>
</g>
<!-- m1 -->
<g id="node6" class="node"><title>m1</title>
<a xlink:href="0031981" xlink:title="GO:0031981">
<ellipse fill="#dddddd" stroke="#dddddd" cx="1230.26" cy="-90" rx="61.1934" ry="18"/>
<text text-anchor="middle" x="1230.26" y="-85.8" font-family="Times,serif" font-size="14.00">GO:0031981</text>
</a>
</g>
<!-- n1&#45;&gt;m1 -->
<g id="edge4" class="edge"><title>n1&#45;&gt;m1</title>
<path fill="none" stroke="black" d="M1230.26,-287.849C1230.26,-250.832 1230.26,-163.181 1230.26,-118.386"/>
<polygon fill="black" stroke="black" points="1233.76,-118.232 1230.26,-108.232 1226.76,-118.232 1233.76,-118.232"/>
</g>
<!-- l1 -->
<g id="node41" class="node"><title>l1</title>
<a xlink:href="0005730" xlink:title="GO:0005730 (1)">
<ellipse fill="#e98576" stroke="#e98576" cx="1141.26" cy="-18" rx="75.2018" ry="18"/>
<text text-anchor="middle" x="1141.26" y="-13.8" font-family="Times,serif" font-size="14.00">GO:0005730 (1)</text>
</a>
</g>
<!-- m1&#45;&gt;l1 -->
<g id="edge36" class="edge"><title>m1&#45;&gt;l1</title>
<path fill="none" stroke="black" d="M1209.62,-72.7646C1197.91,-63.5543 1183.07,-51.8825 1170.21,-41.7691"/>
<polygon fill="black" stroke="black" points="1172.13,-38.8209 1162.1,-35.3898 1167.8,-44.323 1172.13,-38.8209"/>
</g>
<!-- p1 -->
<g id="node7" class="node"><title>p1</title>
<a xlink:href="0044428" xlink:title="GO:0044428">
<ellipse fill="#dddddd" stroke="#dddddd" cx="1052.26" cy="-162" rx="61.1934" ry="18"/>
<text text-anchor="middle" x="1052.26" y="-157.8" font-family="Times,serif" font-size="14.00">GO:0044428</text>
</a>
</g>
<!-- p1&#45;&gt;m1 -->
<g id="edge6" class="edge"><title>p1&#45;&gt;m1</title>
<path fill="none" stroke="black" d="M1087.43,-147.17C1115.59,-136.097 1155.26,-120.494 1185.65,-108.543"/>
<polygon fill="black" stroke="black" points="1187.14,-111.718 1195.17,-104.801 1184.58,-105.204 1187.14,-111.718"/>
</g>
<!-- p1&#45;&gt;l1 -->
<g id="edge40" class="edge"><title>p1&#45;&gt;l1</title>
<path fill="none" stroke="black" d="M1062.82,-144.153C1078.28,-119.493 1107.18,-73.3738 1125.26,-44.5327"/>
<polygon fill="black" stroke="black" points="1128.37,-46.157 1130.72,-35.825 1122.44,-42.4395 1128.37,-46.157"/>
</g>
<!-- e1 -->
<g id="node9" class="node"><title>e1</title>
<a xlink:href="0015629" xlink:title="GO:0015629">
<ellipse fill="#dddddd" stroke="#dddddd" cx="851.263" cy="-162" rx="61.1934" ry="18"/>
<text text-anchor="middle" x="851.263" y="-157.8" font-family="Times,serif" font-size="14.00">GO:0015629</text>
</a>
</g>
<!-- d1 -->
<g id="node11" class="node"><title>d1</title>
<a xlink:href="0008290" xlink:title="GO:0008290 (1)">
<ellipse fill="#e98576" stroke="#e98576" cx="710.263" cy="-90" rx="75.2018" ry="18"/>
<text text-anchor="middle" x="710.263" y="-85.8" font-family="Times,serif" font-size="14.00">GO:0008290 (1)</text>
</a>
</g>
<!-- e1&#45;&gt;d1 -->
<g id="edge8" class="edge"><title>e1&#45;&gt;d1</title>
<path fill="none" stroke="black" d="M821.36,-146.155C800.756,-135.926 773.134,-122.212 750.587,-111.019"/>
<polygon fill="black" stroke="black" points="752.101,-107.863 741.588,-106.552 748.989,-114.133 752.101,-107.863"/>
</g>
<!-- m0 -->
<g id="node12" class="node"><title>m0</title>
<a xlink:href="0043234" xlink:title="GO:0043234 (6)">
<ellipse fill="#e98576" stroke="#e98576" cx="230.263" cy="-594" rx="75.2018" ry="18"/>
<text text-anchor="middle" x="230.263" y="-589.8" font-family="Times,serif" font-size="14.00">GO:0043234 (6)</text>
</a>
</g>
<!-- m0&#45;&gt;d1 -->
<g id="edge10" class="edge"><title>m0&#45;&gt;d1</title>
<path fill="none" stroke="black" d="M166.685,-584.353C112.825,-575.727 41.253,-560.765 21.2628,-540 -6.7885,-510.861 2.26283,-491.447 2.26283,-451 2.26283,-451 2.26283,-451 2.26283,-233 2.26283,-107.284 436.815,-91.3935 625.03,-90.4067"/>
<polygon fill="black" stroke="black" points="625.179,-93.9062 635.165,-90.3668 625.151,-86.9063 625.179,-93.9062"/>
</g>
<!-- f1 -->
<g id="node14" class="node"><title>f1</title>
<a xlink:href="0044430" xlink:title="GO:0044430">
<ellipse fill="#dddddd" stroke="#dddddd" cx="710.263" cy="-162" rx="61.1934" ry="18"/>
<text text-anchor="middle" x="710.263" y="-157.8" font-family="Times,serif" font-size="14.00">GO:0044430</text>
</a>
</g>
<!-- f1&#45;&gt;d1 -->
<g id="edge12" class="edge"><title>f1&#45;&gt;d1</title>
<path fill="none" stroke="black" d="M710.263,-143.697C710.263,-135.983 710.263,-126.712 710.263,-118.112"/>
<polygon fill="black" stroke="black" points="713.763,-118.104 710.263,-108.104 706.763,-118.104 713.763,-118.104"/>
</g>
<!-- b1 -->
<g id="node18" class="node"><title>b1</title>
<a xlink:href="0043005" xlink:title="GO:0043005 (2)">
<ellipse fill="#e98576" stroke="#e98576" cx="798.263" cy="-450" rx="75.2018" ry="18"/>
<text text-anchor="middle" x="798.263" y="-445.8" font-family="Times,serif" font-size="14.00">GO:0043005 (2)</text>
</a>
</g>
<!-- x0&#45;&gt;b1 -->
<g id="edge14" class="edge"><title>x0&#45;&gt;b1</title>
<path fill="none" stroke="black" d="M798.263,-503.697C798.263,-495.983 798.263,-486.712 798.263,-478.112"/>
<polygon fill="black" stroke="black" points="801.763,-478.104 798.263,-468.104 794.763,-478.104 801.763,-478.104"/>
</g>
<!-- p0 -->
<g id="node19" class="node"><title>p0</title>
<a xlink:href="0043231" xlink:title="GO:0043231 (3)">
<ellipse fill="#e98576" stroke="#e98576" cx="575.263" cy="-306" rx="75.2018" ry="18"/>
<text text-anchor="middle" x="575.263" y="-301.8" font-family="Times,serif" font-size="14.00">GO:0043231 (3)</text>
</a>
</g>
<!-- c1 -->
<g id="node21" class="node"><title>c1</title>
<a xlink:href="0005773" xlink:title="GO:0005773 (1)">
<ellipse fill="#e98576" stroke="#e98576" cx="290.263" cy="-234" rx="75.2018" ry="18"/>
<text text-anchor="middle" x="290.263" y="-229.8" font-family="Times,serif" font-size="14.00">GO:0005773 (1)</text>
</a>
</g>
<!-- p0&#45;&gt;c1 -->
<g id="edge16" class="edge"><title>p0&#45;&gt;c1</title>
<path fill="none" stroke="black" d="M524.639,-292.566C475.951,-280.608 402.318,-262.522 350.607,-249.821"/>
<polygon fill="black" stroke="black" points="351.441,-246.422 340.894,-247.436 349.771,-253.22 351.441,-246.422"/>
</g>
<!-- a1 -->
<g id="node35" class="node"><title>a1</title>
<a xlink:href="0005783" xlink:title="GO:0005783 (2)">
<ellipse fill="#e98576" stroke="#e98576" cx="458.263" cy="-234" rx="75.2018" ry="18"/>
<text text-anchor="middle" x="458.263" y="-229.8" font-family="Times,serif" font-size="14.00">GO:0005783 (2)</text>
</a>
</g>
<!-- p0&#45;&gt;a1 -->
<g id="edge28" class="edge"><title>p0&#45;&gt;a1</title>
<path fill="none" stroke="black" d="M548.714,-289.116C532.523,-279.429 511.622,-266.924 493.991,-256.376"/>
<polygon fill="black" stroke="black" points="495.49,-253.194 485.112,-251.064 491.896,-259.201 495.49,-253.194"/>
</g>
<!-- k1 -->
<g id="node38" class="node"><title>k1</title>
<a xlink:href="0005739" xlink:title="GO:0005739 (1)">
<ellipse fill="#e98576" stroke="#e98576" cx="626.263" cy="-234" rx="75.2018" ry="18"/>
<text text-anchor="middle" x="626.263" y="-229.8" font-family="Times,serif" font-size="14.00">GO:0005739 (1)</text>
</a>
</g>
<!-- p0&#45;&gt;k1 -->
<g id="edge32" class="edge"><title>p0&#45;&gt;k1</title>
<path fill="none" stroke="black" d="M587.609,-288.055C593.748,-279.629 601.288,-269.28 608.073,-259.966"/>
<polygon fill="black" stroke="black" points="610.971,-261.932 614.031,-251.789 605.313,-257.81 610.971,-261.932"/>
</g>
<!-- y0 -->
<g id="node60" class="node"><title>y0</title>
<a xlink:href="0005634" xlink:title="GO:0005634 (2)">
<ellipse fill="#e98576" stroke="#e98576" cx="1000.26" cy="-234" rx="75.2018" ry="18"/>
<text text-anchor="middle" x="1000.26" y="-229.8" font-family="Times,serif" font-size="14.00">GO:0005634 (2)</text>
</a>
</g>
<!-- p0&#45;&gt;y0 -->
<g id="edge122" class="edge"><title>p0&#45;&gt;y0</title>
<path fill="none" stroke="black" d="M636.089,-295.395C651.479,-292.973 667.978,-290.384 683.263,-288 786.796,-271.853 813.106,-270.397 916.263,-252 922.511,-250.886 929.009,-249.671 935.501,-248.42"/>
<polygon fill="black" stroke="black" points="936.517,-251.787 945.659,-246.433 935.173,-244.917 936.517,-251.787"/>
</g>
<!-- o0 -->
<g id="node76" class="node"><title>o0</title>
<a xlink:href="0005768" xlink:title="GO:0005768 (5)">
<ellipse fill="#e98576" stroke="#e98576" cx="122.263" cy="-234" rx="75.2018" ry="18"/>
<text text-anchor="middle" x="122.263" y="-229.8" font-family="Times,serif" font-size="14.00">GO:0005768 (5)</text>
</a>
</g>
<!-- p0&#45;&gt;o0 -->
<g id="edge78" class="edge"><title>p0&#45;&gt;o0</title>
<path fill="none" stroke="black" d="M512.268,-296.152C414.842,-282.438 235.719,-257.092 206.263,-252 200.009,-250.919 193.507,-249.726 187.013,-248.489"/>
<polygon fill="black" stroke="black" points="187.336,-244.986 176.852,-246.518 186.002,-251.858 187.336,-244.986"/>
</g>
<!-- s0 -->
<g id="node22" class="node"><title>s0</title>
<a xlink:href="0044444" xlink:title="GO:0044444">
<ellipse fill="#dddddd" stroke="#dddddd" cx="382.263" cy="-306" rx="61.1934" ry="18"/>
<text text-anchor="middle" x="382.263" y="-301.8" font-family="Times,serif" font-size="14.00">GO:0044444</text>
</a>
</g>
<!-- s0&#45;&gt;c1 -->
<g id="edge18" class="edge"><title>s0&#45;&gt;c1</title>
<path fill="none" stroke="black" d="M360.925,-288.765C348.705,-279.467 333.187,-267.66 319.809,-257.481"/>
<polygon fill="black" stroke="black" points="321.881,-254.66 311.804,-251.39 317.643,-260.23 321.881,-254.66"/>
</g>
<!-- s0&#45;&gt;a1 -->
<g id="edge30" class="edge"><title>s0&#45;&gt;a1</title>
<path fill="none" stroke="black" d="M400.274,-288.411C409.952,-279.497 422.048,-268.355 432.686,-258.558"/>
<polygon fill="black" stroke="black" points="435.133,-261.062 440.118,-251.713 430.391,-255.913 435.133,-261.062"/>
</g>
<!-- s0&#45;&gt;k1 -->
<g id="edge34" class="edge"><title>s0&#45;&gt;k1</title>
<path fill="none" stroke="black" d="M424.486,-292.887C464.811,-281.318 525.843,-263.809 570.223,-251.077"/>
<polygon fill="black" stroke="black" points="571.343,-254.397 579.991,-248.275 569.413,-247.668 571.343,-254.397"/>
</g>
<!-- s0&#45;&gt;o0 -->
<g id="edge80" class="edge"><title>s0&#45;&gt;o0</title>
<path fill="none" stroke="black" d="M338.745,-293.284C295.287,-281.583 228.232,-263.53 180.271,-250.618"/>
<polygon fill="black" stroke="black" points="180.908,-247.164 170.342,-247.944 179.088,-253.924 180.908,-247.164"/>
</g>
<!-- k0&#45;&gt;s0 -->
<g id="edge56" class="edge"><title>k0&#45;&gt;s0</title>
<path fill="none" stroke="black" d="M409.827,-431.972C416.821,-422.09 424.63,-409.047 428.263,-396 432.555,-380.586 433.86,-374.989 428.263,-360 424.216,-349.164 416.845,-339.076 409.171,-330.671"/>
<polygon fill="black" stroke="black" points="411.615,-328.164 402.125,-323.453 406.605,-333.054 411.615,-328.164"/>
</g>
<!-- j0 -->
<g id="node26" class="node"><title>j0</title>
<a xlink:href="0005737" xlink:title="GO:0005737 (9)">
<ellipse fill="#e98576" stroke="#e98576" cx="344.263" cy="-378" rx="75.2018" ry="18"/>
<text text-anchor="middle" x="344.263" y="-373.8" font-family="Times,serif" font-size="14.00">GO:0005737 (9)</text>
</a>
</g>
<!-- k0&#45;&gt;j0 -->
<g id="edge20" class="edge"><title>k0&#45;&gt;j0</title>
<path fill="none" stroke="black" d="M383.675,-432.055C377.416,-423.629 369.728,-413.28 362.809,-403.966"/>
<polygon fill="black" stroke="black" points="365.508,-401.729 356.735,-395.789 359.888,-405.904 365.508,-401.729"/>
</g>
<!-- g1 -->
<g id="node62" class="node"><title>g1</title>
<a xlink:href="0044446" xlink:title="GO:0044446">
<ellipse fill="#dddddd" stroke="#dddddd" cx="753.263" cy="-306" rx="61.1934" ry="18"/>
<text text-anchor="middle" x="753.263" y="-301.8" font-family="Times,serif" font-size="14.00">GO:0044446</text>
</a>
</g>
<!-- k0&#45;&gt;g1 -->
<g id="edge128" class="edge"><title>k0&#45;&gt;g1</title>
<path fill="none" stroke="black" d="M455.685,-445.448C508.158,-440.254 585.409,-427.469 645.263,-396 665.855,-385.173 665.518,-375.045 683.263,-360 695.827,-349.348 710.257,-338.245 722.739,-328.97"/>
<polygon fill="black" stroke="black" points="725.046,-331.617 731.022,-322.868 720.895,-325.981 725.046,-331.617"/>
</g>
<!-- r0 -->
<g id="node68" class="node"><title>r0</title>
<a xlink:href="0043229" xlink:title="GO:0043229">
<ellipse fill="#dddddd" stroke="#dddddd" cx="753.263" cy="-378" rx="61.1934" ry="18"/>
<text text-anchor="middle" x="753.263" y="-373.8" font-family="Times,serif" font-size="14.00">GO:0043229</text>
</a>
</g>
<!-- k0&#45;&gt;r0 -->
<g id="edge90" class="edge"><title>k0&#45;&gt;r0</title>
<path fill="none" stroke="black" d="M447.319,-439.993C503.894,-429.875 597.777,-412.679 678.263,-396 684.354,-394.738 690.713,-393.372 697.039,-391.982"/>
<polygon fill="black" stroke="black" points="697.909,-395.374 706.912,-389.789 696.391,-388.54 697.909,-395.374"/>
</g>
<!-- j0&#45;&gt;s0 -->
<g id="edge54" class="edge"><title>j0&#45;&gt;s0</title>
<path fill="none" stroke="black" d="M353.462,-360.055C357.831,-352.007 363.152,-342.205 368.026,-333.226"/>
<polygon fill="black" stroke="black" points="371.19,-334.734 372.885,-324.275 365.038,-331.394 371.19,-334.734"/>
</g>
<!-- c0 -->
<g id="node27" class="node"><title>c0</title>
<a xlink:href="0005575" xlink:title="GO:0005575 (2)">
<ellipse fill="#e98576" stroke="#e98576" cx="1275.26" cy="-738" rx="75.2018" ry="18"/>
<text text-anchor="middle" x="1275.26" y="-733.8" font-family="Times,serif" font-size="14.00">GO:0005575 (2)</text>
</a>
</g>
<!-- c0&#45;&gt;h0 -->
<g id="edge102" class="edge"><title>c0&#45;&gt;h0</title>
<path fill="none" stroke="black" d="M1225.3,-724.398C1121.59,-698.241 883.355,-638.153 771.855,-610.03"/>
<polygon fill="black" stroke="black" points="772.666,-606.625 762.113,-607.573 770.954,-613.413 772.666,-606.625"/>
</g>
<!-- h1 -->
<g id="node29" class="node"><title>h1</title>
<a xlink:href="0044422" xlink:title="GO:0044422">
<ellipse fill="#dddddd" stroke="#dddddd" cx="1212.26" cy="-378" rx="61.1934" ry="18"/>
<text text-anchor="middle" x="1212.26" y="-373.8" font-family="Times,serif" font-size="14.00">GO:0044422</text>
</a>
</g>
<!-- c0&#45;&gt;h1 -->
<g id="edge22" class="edge"><title>c0&#45;&gt;h1</title>
<path fill="none" stroke="black" d="M1275.26,-719.951C1275.26,-693.292 1275.26,-640.115 1275.26,-595 1275.26,-595 1275.26,-595 1275.26,-521 1275.26,-477.142 1249.84,-431.705 1231.3,-404.392"/>
<polygon fill="black" stroke="black" points="1233.92,-402.037 1225.32,-395.853 1228.19,-406.052 1233.92,-402.037"/>
</g>
<!-- b0 -->
<g id="node30" class="node"><title>b0</title>
<a xlink:href="0043226" xlink:title="GO:0043226">
<ellipse fill="#dddddd" stroke="#dddddd" cx="1071.26" cy="-450" rx="61.1934" ry="18"/>
<text text-anchor="middle" x="1071.26" y="-445.8" font-family="Times,serif" font-size="14.00">GO:0043226</text>
</a>
</g>
<!-- c0&#45;&gt;b0 -->
<g id="edge86" class="edge"><title>c0&#45;&gt;b0</title>
<path fill="none" stroke="black" d="M1270.62,-719.841C1267.84,-709.478 1264.28,-695.998 1261.26,-684 1241.2,-604.233 1273.09,-565.312 1218.26,-504 1197.39,-480.664 1165.47,-467.597 1136.7,-460.283"/>
<polygon fill="black" stroke="black" points="1137.21,-456.809 1126.68,-457.929 1135.61,-463.623 1137.21,-456.809"/>
</g>
<!-- i0 -->
<g id="node46" class="node"><title>i0</title>
<a xlink:href="0005623" xlink:title="GO:0005623">
<ellipse fill="#dddddd" stroke="#dddddd" cx="838.263" cy="-666" rx="61.1934" ry="18"/>
<text text-anchor="middle" x="838.263" y="-661.8" font-family="Times,serif" font-size="14.00">GO:0005623</text>
</a>
</g>
<!-- c0&#45;&gt;i0 -->
<g id="edge42" class="edge"><title>c0&#45;&gt;i0</title>
<path fill="none" stroke="black" d="M1214.5,-727.267C1131.76,-714.014 984.418,-690.412 900.78,-677.014"/>
<polygon fill="black" stroke="black" points="901.084,-673.518 890.656,-675.393 899.977,-680.43 901.084,-673.518"/>
</g>
<!-- e0 -->
<g id="node55" class="node"><title>e0</title>
<a xlink:href="0005576" xlink:title="GO:0005576 (9)">
<ellipse fill="#e98576" stroke="#e98576" cx="1416.26" cy="-666" rx="75.2018" ry="18"/>
<text text-anchor="middle" x="1416.26" y="-661.8" font-family="Times,serif" font-size="14.00">GO:0005576 (9)</text>
</a>
</g>
<!-- c0&#45;&gt;e0 -->
<g id="edge52" class="edge"><title>c0&#45;&gt;e0</title>
<path fill="none" stroke="black" d="M1306.56,-721.465C1327,-711.315 1353.9,-697.962 1375.94,-687.018"/>
<polygon fill="black" stroke="black" points="1377.66,-690.074 1385.06,-682.492 1374.54,-683.804 1377.66,-690.074"/>
</g>
<!-- o1 -->
<g id="node79" class="node"><title>o1</title>
<a xlink:href="0031974" xlink:title="GO:0031974">
<ellipse fill="#dddddd" stroke="#dddddd" cx="1515.26" cy="-594" rx="61.1934" ry="18"/>
<text text-anchor="middle" x="1515.26" y="-589.8" font-family="Times,serif" font-size="14.00">GO:0031974</text>
</a>
</g>
<!-- c0&#45;&gt;o1 -->
<g id="edge82" class="edge"><title>c0&#45;&gt;o1</title>
<path fill="none" stroke="black" d="M1341.64,-729.51C1399.98,-721.521 1478.85,-706.835 1500.26,-684 1515.55,-667.701 1518.46,-641.946 1518.04,-622.327"/>
<polygon fill="black" stroke="black" points="1521.52,-621.966 1517.52,-612.157 1514.53,-622.322 1521.52,-621.966"/>
</g>
<!-- w0 -->
<g id="node81" class="node"><title>w0</title>
<a xlink:href="0031012" xlink:title="GO:0031012 (4)">
<ellipse fill="#e98576" stroke="#e98576" cx="1622.26" cy="-666" rx="75.2018" ry="18"/>
<text text-anchor="middle" x="1622.26" y="-661.8" font-family="Times,serif" font-size="14.00">GO:0031012 (4)</text>
</a>
</g>
<!-- c0&#45;&gt;w0 -->
<g id="edge84" class="edge"><title>c0&#45;&gt;w0</title>
<path fill="none" stroke="black" d="M1330.63,-725.831C1392.11,-713.428 1491.28,-693.423 1556.62,-680.242"/>
<polygon fill="black" stroke="black" points="1557.7,-683.596 1566.81,-678.187 1556.31,-676.734 1557.7,-683.596"/>
</g>
<!-- d0 -->
<g id="node90" class="node"><title>d0</title>
<a xlink:href="0044421" xlink:title="GO:0044421">
<ellipse fill="#dddddd" stroke="#dddddd" cx="1371.26" cy="-594" rx="61.1934" ry="18"/>
<text text-anchor="middle" x="1371.26" y="-589.8" font-family="Times,serif" font-size="14.00">GO:0044421</text>
</a>
</g>
<!-- c0&#45;&gt;d0 -->
<g id="edge118" class="edge"><title>c0&#45;&gt;d0</title>
<path fill="none" stroke="black" d="M1285.66,-720.057C1296.85,-701.992 1315.33,-672.65 1332.26,-648 1338.57,-638.82 1345.73,-628.944 1352.18,-620.235"/>
<polygon fill="black" stroke="black" points="1355.16,-622.092 1358.33,-611.983 1349.55,-617.908 1355.16,-622.092"/>
</g>
<!-- n0 -->
<g id="node100" class="node"><title>n0</title>
<a xlink:href="0032991" xlink:title="GO:0032991 (2)">
<ellipse fill="#e98576" stroke="#e98576" cx="321.263" cy="-666" rx="75.2018" ry="18"/>
<text text-anchor="middle" x="321.263" y="-661.8" font-family="Times,serif" font-size="14.00">GO:0032991 (2)</text>
</a>
</g>
<!-- c0&#45;&gt;n0 -->
<g id="edge114" class="edge"><title>c0&#45;&gt;n0</title>
<path fill="none" stroke="black" d="M1204.73,-731.824C1031.48,-719.112 585.855,-686.415 402.216,-672.94"/>
<polygon fill="black" stroke="black" points="402.314,-669.438 392.085,-672.197 401.802,-676.419 402.314,-669.438"/>
</g>
<!-- h1&#45;&gt;n1 -->
<g id="edge96" class="edge"><title>h1&#45;&gt;n1</title>
<path fill="none" stroke="black" d="M1216.71,-359.697C1218.72,-351.898 1221.13,-342.509 1223.36,-333.829"/>
<polygon fill="black" stroke="black" points="1226.76,-334.661 1225.86,-324.104 1219.98,-332.918 1226.76,-334.661"/>
</g>
<!-- h1&#45;&gt;g1 -->
<g id="edge126" class="edge"><title>h1&#45;&gt;g1</title>
<path fill="none" stroke="black" d="M1167.72,-365.62C1158.98,-363.59 1149.86,-361.612 1141.26,-360 1029.19,-338.982 897.427,-322.755 819.878,-314.063"/>
<polygon fill="black" stroke="black" points="820.093,-310.565 809.768,-312.938 819.319,-317.522 820.093,-310.565"/>
</g>
<!-- b0&#45;&gt;h1 -->
<g id="edge24" class="edge"><title>b0&#45;&gt;h1</title>
<path fill="none" stroke="black" d="M1101.17,-434.155C1122.2,-423.714 1150.54,-409.644 1173.33,-398.328"/>
<polygon fill="black" stroke="black" points="1175,-401.405 1182.4,-393.824 1171.89,-395.136 1175,-401.405"/>
</g>
<!-- f0 -->
<g id="node48" class="node"><title>f0</title>
<a xlink:href="0031982" xlink:title="GO:0031982 (14)">
<ellipse fill="#e98576" stroke="#e98576" cx="912.263" cy="-378" rx="79.4447" ry="18"/>
<text text-anchor="middle" x="912.263" y="-373.8" font-family="Times,serif" font-size="14.00">GO:0031982 (14)</text>
</a>
</g>
<!-- b0&#45;&gt;f0 -->
<g id="edge44" class="edge"><title>b0&#45;&gt;f0</title>
<path fill="none" stroke="black" d="M1038.7,-434.666C1014.91,-424.192 982.387,-409.872 956.282,-398.379"/>
<polygon fill="black" stroke="black" points="957.545,-395.111 946.983,-394.285 954.725,-401.518 957.545,-395.111"/>
</g>
<!-- v0 -->
<g id="node66" class="node"><title>v0</title>
<a xlink:href="0043228" xlink:title="GO:0043228">
<ellipse fill="#dddddd" stroke="#dddddd" cx="1071.26" cy="-378" rx="61.1934" ry="18"/>
<text text-anchor="middle" x="1071.26" y="-373.8" font-family="Times,serif" font-size="14.00">GO:0043228</text>
</a>
</g>
<!-- b0&#45;&gt;v0 -->
<g id="edge116" class="edge"><title>b0&#45;&gt;v0</title>
<path fill="none" stroke="black" d="M1071.26,-431.697C1071.26,-423.983 1071.26,-414.712 1071.26,-406.112"/>
<polygon fill="black" stroke="black" points="1074.76,-406.104 1071.26,-396.104 1067.76,-406.104 1074.76,-406.104"/>
</g>
<!-- b0&#45;&gt;r0 -->
<g id="edge88" class="edge"><title>b0&#45;&gt;r0</title>
<path fill="none" stroke="black" d="M1022.24,-438.941C972.145,-428.564 892.156,-411.724 823.263,-396 818.557,-394.926 813.68,-393.789 808.789,-392.634"/>
<polygon fill="black" stroke="black" points="809.321,-389.162 798.781,-390.248 807.697,-395.972 809.321,-389.162"/>
</g>
<!-- a0 -->
<g id="node89" class="node"><title>a0</title>
<a xlink:href="0043230" xlink:title="GO:0043230 (14)">
<ellipse fill="#e98576" stroke="#e98576" cx="1371.26" cy="-378" rx="79.4447" ry="18"/>
<text text-anchor="middle" x="1371.26" y="-373.8" font-family="Times,serif" font-size="14.00">GO:0043230 (14)</text>
</a>
</g>
<!-- b0&#45;&gt;a0 -->
<g id="edge98" class="edge"><title>b0&#45;&gt;a0</title>
<path fill="none" stroke="black" d="M1117.81,-438.139C1168.89,-426.221 1251.17,-407.021 1308.06,-393.747"/>
<polygon fill="black" stroke="black" points="1309.08,-397.103 1318.02,-391.422 1307.49,-390.286 1309.08,-397.103"/>
</g>
<!-- q0 -->
<g id="node95" class="node"><title>q0</title>
<a xlink:href="0043227" xlink:title="GO:0043227">
<ellipse fill="#dddddd" stroke="#dddddd" cx="575.263" cy="-378" rx="61.1934" ry="18"/>
<text text-anchor="middle" x="575.263" y="-373.8" font-family="Times,serif" font-size="14.00">GO:0043227</text>
</a>
</g>
<!-- b0&#45;&gt;q0 -->
<g id="edge106" class="edge"><title>b0&#45;&gt;q0</title>
<path fill="none" stroke="black" d="M1016.6,-441.889C941.434,-432.032 801.984,-413.45 683.263,-396 668.539,-393.836 652.703,-391.403 637.818,-389.068"/>
<polygon fill="black" stroke="black" points="638.113,-385.572 627.69,-387.472 637.023,-392.486 638.113,-385.572"/>
</g>
<!-- t0 -->
<g id="node32" class="node"><title>t0</title>
<a xlink:href="0005856" xlink:title="GO:0005856 (5)">
<ellipse fill="#e98576" stroke="#e98576" cx="832.263" cy="-234" rx="75.2018" ry="18"/>
<text text-anchor="middle" x="832.263" y="-229.8" font-family="Times,serif" font-size="14.00">GO:0005856 (5)</text>
</a>
</g>
<!-- t0&#45;&gt;e1 -->
<g id="edge26" class="edge"><title>t0&#45;&gt;e1</title>
<path fill="none" stroke="black" d="M836.959,-215.697C839.076,-207.898 841.625,-198.509 843.981,-189.829"/>
<polygon fill="black" stroke="black" points="847.378,-190.672 846.62,-180.104 840.623,-188.838 847.378,-190.672"/>
</g>
<!-- t0&#45;&gt;f1 -->
<g id="edge74" class="edge"><title>t0&#45;&gt;f1</title>
<path fill="none" stroke="black" d="M804.579,-217.116C787.179,-207.132 764.562,-194.155 745.838,-183.412"/>
<polygon fill="black" stroke="black" points="747.414,-180.281 736.999,-178.34 743.93,-186.353 747.414,-180.281"/>
</g>
<!-- u0 -->
<g id="node42" class="node"><title>u0</title>
<a xlink:href="0043232" xlink:title="GO:0043232">
<ellipse fill="#dddddd" stroke="#dddddd" cx="983.263" cy="-306" rx="61.1934" ry="18"/>
<text text-anchor="middle" x="983.263" y="-301.8" font-family="Times,serif" font-size="14.00">GO:0043232</text>
</a>
</g>
<!-- u0&#45;&gt;t0 -->
<g id="edge92" class="edge"><title>u0&#45;&gt;t0</title>
<path fill="none" stroke="black" d="M951.976,-290.496C929.456,-280.056 898.832,-265.86 874.196,-254.439"/>
<polygon fill="black" stroke="black" points="875.622,-251.242 865.077,-250.212 872.678,-257.593 875.622,-251.242"/>
</g>
<!-- u0&#45;&gt;l1 -->
<g id="edge38" class="edge"><title>u0&#45;&gt;l1</title>
<path fill="none" stroke="black" d="M1029.86,-294.203C1054.27,-286.307 1082.83,-273.175 1101.26,-252 1152.26,-193.409 1149.72,-94.1035 1144.92,-46.3061"/>
<polygon fill="black" stroke="black" points="1148.37,-45.6679 1143.79,-36.1177 1141.42,-46.4442 1148.37,-45.6679"/>
</g>
<!-- i0&#45;&gt;h0 -->
<g id="edge104" class="edge"><title>i0&#45;&gt;h0</title>
<path fill="none" stroke="black" d="M810.923,-649.811C793.053,-639.883 769.475,-626.785 749.85,-615.882"/>
<polygon fill="black" stroke="black" points="751.303,-612.685 740.862,-610.888 747.903,-618.804 751.303,-612.685"/>
</g>
<!-- l0&#45;&gt;k0 -->
<g id="edge46" class="edge"><title>l0&#45;&gt;k0</title>
<path fill="none" stroke="black" d="M289.438,-505.983C309.516,-495.649 336.386,-481.819 358.154,-470.615"/>
<polygon fill="black" stroke="black" points="359.846,-473.68 367.136,-465.992 356.643,-467.456 359.846,-473.68"/>
</g>
<!-- e0&#45;&gt;d0 -->
<g id="edge120" class="edge"><title>e0&#45;&gt;d0</title>
<path fill="none" stroke="black" d="M1405.37,-648.055C1400.01,-639.715 1393.44,-629.491 1387.5,-620.252"/>
<polygon fill="black" stroke="black" points="1390.41,-618.308 1382.06,-611.789 1384.52,-622.093 1390.41,-618.308"/>
</g>
<!-- y0&#45;&gt;p1 -->
<g id="edge60" class="edge"><title>y0&#45;&gt;p1</title>
<path fill="none" stroke="black" d="M1012.85,-216.055C1019.11,-207.629 1026.8,-197.28 1033.72,-187.966"/>
<polygon fill="black" stroke="black" points="1036.64,-189.904 1039.79,-179.789 1031.02,-185.729 1036.64,-189.904"/>
</g>
<!-- g1&#45;&gt;p1 -->
<g id="edge62" class="edge"><title>g1&#45;&gt;p1</title>
<path fill="none" stroke="black" d="M808.308,-298.065C900.11,-286.238 1075.37,-262.435 1084.26,-252 1099.95,-233.606 1087.01,-206.936 1073.18,-187.59"/>
<polygon fill="black" stroke="black" points="1075.91,-185.389 1067.08,-179.534 1070.33,-189.618 1075.91,-185.389"/>
</g>
<!-- g1&#45;&gt;f1 -->
<g id="edge76" class="edge"><title>g1&#45;&gt;f1</title>
<path fill="none" stroke="black" d="M748.076,-287.871C740.715,-263.564 727.166,-218.819 718.443,-190.013"/>
<polygon fill="black" stroke="black" points="721.716,-188.746 715.468,-180.189 715.017,-190.774 721.716,-188.746"/>
</g>
<!-- v0&#45;&gt;u0 -->
<g id="edge66" class="edge"><title>v0&#45;&gt;u0</title>
<path fill="none" stroke="black" d="M1050.85,-360.765C1039.19,-351.488 1024.39,-339.714 1011.61,-329.551"/>
<polygon fill="black" stroke="black" points="1013.57,-326.633 1003.56,-323.147 1009.21,-332.112 1013.57,-326.633"/>
</g>
<!-- r0&#45;&gt;p0 -->
<g id="edge112" class="edge"><title>r0&#45;&gt;p0</title>
<path fill="none" stroke="black" d="M718.096,-363.17C690.577,-352.348 652.06,-337.201 621.958,-325.363"/>
<polygon fill="black" stroke="black" points="623.092,-322.048 612.505,-321.646 620.53,-328.563 623.092,-322.048"/>
</g>
<!-- r0&#45;&gt;u0 -->
<g id="edge68" class="edge"><title>r0&#45;&gt;u0</title>
<path fill="none" stroke="black" d="M794.117,-364.566C832.837,-352.782 891.107,-335.047 932.731,-322.379"/>
<polygon fill="black" stroke="black" points="933.855,-325.696 942.402,-319.436 931.816,-318.999 933.855,-325.696"/>
</g>
<!-- r0&#45;&gt;g1 -->
<g id="edge124" class="edge"><title>r0&#45;&gt;g1</title>
<path fill="none" stroke="black" d="M753.263,-359.697C753.263,-351.983 753.263,-342.712 753.263,-334.112"/>
<polygon fill="black" stroke="black" points="756.763,-334.104 753.263,-324.104 749.763,-334.104 756.763,-334.104"/>
</g>
<!-- o1&#45;&gt;n1 -->
<g id="edge94" class="edge"><title>o1&#45;&gt;n1</title>
<path fill="none" stroke="black" d="M1516.71,-575.778C1519.3,-532.786 1519.68,-419.906 1459.26,-360 1436.56,-337.489 1355.86,-322.68 1296.67,-314.577"/>
<polygon fill="black" stroke="black" points="1297,-311.091 1286.62,-313.238 1296.07,-318.029 1297,-311.091"/>
</g>
<!-- d0&#45;&gt;a0 -->
<g id="edge100" class="edge"><title>d0&#45;&gt;a0</title>
<path fill="none" stroke="black" d="M1371.26,-575.849C1371.26,-538.832 1371.26,-451.181 1371.26,-406.386"/>
<polygon fill="black" stroke="black" points="1374.76,-406.232 1371.26,-396.232 1367.76,-406.232 1374.76,-406.232"/>
</g>
<!-- q0&#45;&gt;p0 -->
<g id="edge110" class="edge"><title>q0&#45;&gt;p0</title>
<path fill="none" stroke="black" d="M575.263,-359.697C575.263,-351.983 575.263,-342.712 575.263,-334.112"/>
<polygon fill="black" stroke="black" points="578.763,-334.104 575.263,-324.104 571.763,-334.104 578.763,-334.104"/>
</g>
<!-- n0&#45;&gt;m0 -->
<g id="edge130" class="edge"><title>n0&#45;&gt;m0</title>
<path fill="none" stroke="black" d="M299.697,-648.411C287.798,-639.257 272.845,-627.755 259.866,-617.772"/>
<polygon fill="black" stroke="black" points="261.734,-614.793 251.674,-611.47 257.466,-620.341 261.734,-614.793"/>
</g>
</g>
</svg>
