<?xml version="1.0" encoding="UTF-8" standalone="no"?>
<!DOCTYPE svg PUBLIC "-//W3C//DTD SVG 1.1//EN"
 "http://www.w3.org/Graphics/SVG/1.1/DTD/svg11.dtd">
<!-- Generated by graphviz version 2.28.0 (20110622.2320)
 -->
<!-- Title: G Pages: 1 -->
<svg width="1342pt" height="476pt"
 viewBox="0.00 0.00 1342.00 476.00" xmlns="http://www.w3.org/2000/svg" xmlns:xlink="http://www.w3.org/1999/xlink">
<g id="graph1" class="graph" transform="scale(1 1) rotate(0) translate(4 472)">
<title>G</title>
<polygon fill="white" stroke="white" points="-4,5 -4,-472 1339,-472 1339,5 -4,5"/>
<!-- n0 -->
<g id="node1" class="node"><title>n0</title>
<a xlink:href="0043170" xlink:title="GO:0043170">
<ellipse fill="#dddddd" stroke="#dddddd" cx="357" cy="-306" rx="61.1934" ry="18"/>
<text text-anchor="middle" x="357" y="-301.8" font-family="Times,serif" font-size="14.00">GO:0043170</text>
</a>
</g>
<!-- j1 -->
<g id="node3" class="node"><title>j1</title>
<a xlink:href="0019538" xlink:title="GO:0019538 (1)">
<ellipse fill="#e98576" stroke="#e98576" cx="357" cy="-234" rx="75.2018" ry="18"/>
<text text-anchor="middle" x="357" y="-229.8" font-family="Times,serif" font-size="14.00">GO:0019538 (1)</text>
</a>
</g>
<!-- n0&#45;&gt;j1 -->
<g id="edge2" class="edge"><title>n0&#45;&gt;j1</title>
<path fill="none" stroke="black" d="M357,-287.697C357,-279.983 357,-270.712 357,-262.112"/>
<polygon fill="black" stroke="black" points="360.5,-262.104 357,-252.104 353.5,-262.104 360.5,-262.104"/>
</g>
<!-- m0 -->
<g id="node16" class="node"><title>m0</title>
<a xlink:href="0043283" xlink:title="GO:0043283">
<ellipse fill="#dddddd" stroke="#dddddd" cx="202" cy="-234" rx="61.1934" ry="18"/>
<text text-anchor="middle" x="202" y="-229.8" font-family="Times,serif" font-size="14.00">GO:0043283</text>
</a>
</g>
<!-- n0&#45;&gt;m0 -->
<g id="edge62" class="edge"><title>n0&#45;&gt;m0</title>
<path fill="none" stroke="black" d="M324.884,-290.496C301.296,-279.843 269.047,-265.279 243.504,-253.744"/>
<polygon fill="black" stroke="black" points="244.629,-250.412 234.075,-249.485 241.748,-256.791 244.629,-250.412"/>
</g>
<!-- j0 -->
<g id="node4" class="node"><title>j0</title>
<a xlink:href="0044238" xlink:title="GO:0044238">
<ellipse fill="#dddddd" stroke="#dddddd" cx="512" cy="-306" rx="61.1934" ry="18"/>
<text text-anchor="middle" x="512" y="-301.8" font-family="Times,serif" font-size="14.00">GO:0044238</text>
</a>
</g>
<!-- j0&#45;&gt;j1 -->
<g id="edge4" class="edge"><title>j0&#45;&gt;j1</title>
<path fill="none" stroke="black" d="M479.884,-290.496C456.767,-280.056 425.333,-265.86 400.044,-254.439"/>
<polygon fill="black" stroke="black" points="401.238,-251.138 390.683,-250.212 398.357,-257.518 401.238,-251.138"/>
</g>
<!-- g0 -->
<g id="node13" class="node"><title>g0</title>
<a xlink:href="0006139" xlink:title="GO:0006139">
<ellipse fill="#dddddd" stroke="#dddddd" cx="512" cy="-234" rx="61.1934" ry="18"/>
<text text-anchor="middle" x="512" y="-229.8" font-family="Times,serif" font-size="14.00">GO:0006139</text>
</a>
</g>
<!-- j0&#45;&gt;g0 -->
<g id="edge52" class="edge"><title>j0&#45;&gt;g0</title>
<path fill="none" stroke="black" d="M512,-287.697C512,-279.983 512,-270.712 512,-262.112"/>
<polygon fill="black" stroke="black" points="515.5,-262.104 512,-252.104 508.5,-262.104 515.5,-262.104"/>
</g>
<!-- r0 -->
<g id="node21" class="node"><title>r0</title>
<a xlink:href="0006519" xlink:title="GO:0006519">
<ellipse fill="#dddddd" stroke="#dddddd" cx="653" cy="-234" rx="61.1934" ry="18"/>
<text text-anchor="middle" x="653" y="-229.8" font-family="Times,serif" font-size="14.00">GO:0006519</text>
</a>
</g>
<!-- j0&#45;&gt;r0 -->
<g id="edge56" class="edge"><title>j0&#45;&gt;r0</title>
<path fill="none" stroke="black" d="M541.902,-290.155C562.933,-279.714 591.275,-265.644 614.069,-254.328"/>
<polygon fill="black" stroke="black" points="615.74,-257.405 623.141,-249.824 612.627,-251.136 615.74,-257.405"/>
</g>
<!-- t0 -->
<g id="node6" class="node"><title>t0</title>
<a xlink:href="0006807" xlink:title="GO:0006807">
<ellipse fill="#dddddd" stroke="#dddddd" cx="794" cy="-306" rx="61.1934" ry="18"/>
<text text-anchor="middle" x="794" y="-301.8" font-family="Times,serif" font-size="14.00">GO:0006807</text>
</a>
</g>
<!-- s0 -->
<g id="node8" class="node"><title>s0</title>
<a xlink:href="0009308" xlink:title="GO:0009308">
<ellipse fill="#dddddd" stroke="#dddddd" cx="935" cy="-234" rx="61.1934" ry="18"/>
<text text-anchor="middle" x="935" y="-229.8" font-family="Times,serif" font-size="14.00">GO:0009308</text>
</a>
</g>
<!-- t0&#45;&gt;s0 -->
<g id="edge6" class="edge"><title>t0&#45;&gt;s0</title>
<path fill="none" stroke="black" d="M823.902,-290.155C844.933,-279.714 873.275,-265.644 896.069,-254.328"/>
<polygon fill="black" stroke="black" points="897.74,-257.405 905.141,-249.824 894.627,-251.136 897.74,-257.405"/>
</g>
<!-- q0 -->
<g id="node23" class="node"><title>q0</title>
<a xlink:href="0006520" xlink:title="GO:0006520 (1)">
<ellipse fill="#e98576" stroke="#e98576" cx="846" cy="-90" rx="75.2018" ry="18"/>
<text text-anchor="middle" x="846" y="-85.8" font-family="Times,serif" font-size="14.00">GO:0006520 (1)</text>
</a>
</g>
<!-- s0&#45;&gt;q0 -->
<g id="edge20" class="edge"><title>s0&#45;&gt;q0</title>
<path fill="none" stroke="black" d="M934.826,-215.94C933.886,-196.982 930.076,-166.13 916,-144 908.034,-131.477 896.002,-120.813 884.148,-112.406"/>
<polygon fill="black" stroke="black" points="885.866,-109.344 875.61,-106.688 881.972,-115.16 885.866,-109.344"/>
</g>
<!-- h0 -->
<g id="node9" class="node"><title>h0</title>
<a xlink:href="0044237" xlink:title="GO:0044237">
<ellipse fill="#dddddd" stroke="#dddddd" cx="653" cy="-306" rx="61.1934" ry="18"/>
<text text-anchor="middle" x="653" y="-301.8" font-family="Times,serif" font-size="14.00">GO:0044237</text>
</a>
</g>
<!-- h0&#45;&gt;s0 -->
<g id="edge8" class="edge"><title>h0&#45;&gt;s0</title>
<path fill="none" stroke="black" d="M698.308,-293.753C747.746,-281.481 826.902,-261.833 879.898,-248.678"/>
<polygon fill="black" stroke="black" points="880.942,-252.025 889.804,-246.219 879.256,-245.231 880.942,-252.025"/>
</g>
<!-- v0 -->
<g id="node12" class="node"><title>v0</title>
<a xlink:href="0006082" xlink:title="GO:0006082">
<ellipse fill="#dddddd" stroke="#dddddd" cx="794" cy="-234" rx="61.1934" ry="18"/>
<text text-anchor="middle" x="794" y="-229.8" font-family="Times,serif" font-size="14.00">GO:0006082</text>
</a>
</g>
<!-- h0&#45;&gt;v0 -->
<g id="edge10" class="edge"><title>h0&#45;&gt;v0</title>
<path fill="none" stroke="black" d="M682.902,-290.155C703.933,-279.714 732.275,-265.644 755.069,-254.328"/>
<polygon fill="black" stroke="black" points="756.74,-257.405 764.141,-249.824 753.627,-251.136 756.74,-257.405"/>
</g>
<!-- h0&#45;&gt;g0 -->
<g id="edge50" class="edge"><title>h0&#45;&gt;g0</title>
<path fill="none" stroke="black" d="M623.098,-290.155C602.067,-279.714 573.725,-265.644 550.931,-254.328"/>
<polygon fill="black" stroke="black" points="552.373,-251.136 541.859,-249.824 549.26,-257.405 552.373,-251.136"/>
</g>
<!-- h0&#45;&gt;r0 -->
<g id="edge54" class="edge"><title>h0&#45;&gt;r0</title>
<path fill="none" stroke="black" d="M653,-287.697C653,-279.983 653,-270.712 653,-262.112"/>
<polygon fill="black" stroke="black" points="656.5,-262.104 653,-252.104 649.5,-262.104 656.5,-262.104"/>
</g>
<!-- u0 -->
<g id="node25" class="node"><title>u0</title>
<a xlink:href="0019752" xlink:title="GO:0019752">
<ellipse fill="#dddddd" stroke="#dddddd" cx="846" cy="-162" rx="61.1934" ry="18"/>
<text text-anchor="middle" x="846" y="-157.8" font-family="Times,serif" font-size="14.00">GO:0019752</text>
</a>
</g>
<!-- v0&#45;&gt;u0 -->
<g id="edge58" class="edge"><title>v0&#45;&gt;u0</title>
<path fill="none" stroke="black" d="M806.588,-216.055C812.847,-207.629 820.535,-197.28 827.454,-187.966"/>
<polygon fill="black" stroke="black" points="830.375,-189.904 833.528,-179.789 824.755,-185.729 830.375,-189.904"/>
</g>
<!-- l0 -->
<g id="node15" class="node"><title>l0</title>
<a xlink:href="0016070" xlink:title="GO:0016070">
<ellipse fill="#dddddd" stroke="#dddddd" cx="293" cy="-162" rx="61.1934" ry="18"/>
<text text-anchor="middle" x="293" y="-157.8" font-family="Times,serif" font-size="14.00">GO:0016070</text>
</a>
</g>
<!-- g0&#45;&gt;l0 -->
<g id="edge12" class="edge"><title>g0&#45;&gt;l0</title>
<path fill="none" stroke="black" d="M472.087,-220.242C435.692,-208.609 381.784,-191.378 342.627,-178.862"/>
<polygon fill="black" stroke="black" points="343.6,-175.499 333.009,-175.788 341.468,-182.167 343.6,-175.499"/>
</g>
<!-- f0 -->
<g id="node47" class="node"><title>f0</title>
<a xlink:href="0006350" xlink:title="GO:0006350">
<ellipse fill="#dddddd" stroke="#dddddd" cx="408" cy="-90" rx="61.1934" ry="18"/>
<text text-anchor="middle" x="408" y="-85.8" font-family="Times,serif" font-size="14.00">GO:0006350</text>
</a>
</g>
<!-- g0&#45;&gt;f0 -->
<g id="edge82" class="edge"><title>g0&#45;&gt;f0</title>
<path fill="none" stroke="black" d="M464.444,-222.638C441.384,-214.963 415.757,-201.899 402,-180 390.462,-161.633 393.345,-136.722 398.323,-117.927"/>
<polygon fill="black" stroke="black" points="401.722,-118.777 401.226,-108.194 395.014,-116.777 401.722,-118.777"/>
</g>
<!-- c1 -->
<g id="node68" class="node"><title>c1</title>
<a xlink:href="0009117" xlink:title="GO:0009117 (1)">
<ellipse fill="#e98576" stroke="#e98576" cx="654" cy="-162" rx="75.2018" ry="18"/>
<text text-anchor="middle" x="654" y="-157.8" font-family="Times,serif" font-size="14.00">GO:0009117 (1)</text>
</a>
</g>
<!-- g0&#45;&gt;c1 -->
<g id="edge72" class="edge"><title>g0&#45;&gt;c1</title>
<path fill="none" stroke="black" d="M542.115,-218.155C562.865,-207.926 590.683,-194.212 613.39,-183.019"/>
<polygon fill="black" stroke="black" points="615.031,-186.112 622.453,-178.552 611.936,-179.834 615.031,-186.112"/>
</g>
<!-- x0 -->
<g id="node70" class="node"><title>x0</title>
<a xlink:href="0006259" xlink:title="GO:0006259">
<ellipse fill="#dddddd" stroke="#dddddd" cx="152" cy="-162" rx="61.1934" ry="18"/>
<text text-anchor="middle" x="152" y="-157.8" font-family="Times,serif" font-size="14.00">GO:0006259</text>
</a>
</g>
<!-- g0&#45;&gt;x0 -->
<g id="edge74" class="edge"><title>g0&#45;&gt;x0</title>
<path fill="none" stroke="black" d="M467.036,-221.722C458.418,-219.706 449.448,-217.707 441,-216 344.743,-196.554 319.257,-199.446 223,-180 217.72,-178.933 212.236,-177.752 206.762,-176.524"/>
<polygon fill="black" stroke="black" points="207.494,-173.101 196.964,-174.278 205.929,-179.924 207.494,-173.101"/>
</g>
<!-- i1 -->
<g id="node77" class="node"><title>i1</title>
<a xlink:href="0009116" xlink:title="GO:0009116 (1)">
<ellipse fill="#e98576" stroke="#e98576" cx="486" cy="-162" rx="75.2018" ry="18"/>
<text text-anchor="middle" x="486" y="-157.8" font-family="Times,serif" font-size="14.00">GO:0009116 (1)</text>
</a>
</g>
<!-- g0&#45;&gt;i1 -->
<g id="edge86" class="edge"><title>g0&#45;&gt;i1</title>
<path fill="none" stroke="black" d="M505.706,-216.055C502.78,-208.176 499.229,-198.617 495.952,-189.794"/>
<polygon fill="black" stroke="black" points="499.179,-188.431 492.417,-180.275 492.617,-190.868 499.179,-188.431"/>
</g>
<!-- k0 -->
<g id="node50" class="node"><title>k0</title>
<a xlink:href="0032774" xlink:title="GO:0032774">
<ellipse fill="#dddddd" stroke="#dddddd" cx="267" cy="-90" rx="61.1934" ry="18"/>
<text text-anchor="middle" x="267" y="-85.8" font-family="Times,serif" font-size="14.00">GO:0032774</text>
</a>
</g>
<!-- l0&#45;&gt;k0 -->
<g id="edge70" class="edge"><title>l0&#45;&gt;k0</title>
<path fill="none" stroke="black" d="M286.706,-144.055C283.78,-136.176 280.229,-126.617 276.952,-117.794"/>
<polygon fill="black" stroke="black" points="280.179,-116.431 273.417,-108.275 273.617,-118.868 280.179,-116.431"/>
</g>
<!-- m0&#45;&gt;l0 -->
<g id="edge14" class="edge"><title>m0&#45;&gt;l0</title>
<path fill="none" stroke="black" d="M223.106,-216.765C235.28,-207.4 250.763,-195.49 264.06,-185.261"/>
<polygon fill="black" stroke="black" points="266.216,-188.019 272.009,-179.147 261.948,-182.47 266.216,-188.019"/>
</g>
<!-- m0&#45;&gt;x0 -->
<g id="edge76" class="edge"><title>m0&#45;&gt;x0</title>
<path fill="none" stroke="black" d="M189.896,-216.055C183.878,-207.629 176.486,-197.28 169.833,-187.966"/>
<polygon fill="black" stroke="black" points="172.653,-185.892 163.992,-179.789 166.956,-189.961 172.653,-185.892"/>
</g>
<!-- c0 -->
<g id="node18" class="node"><title>c0</title>
<a xlink:href="0008150" xlink:title="GO:0008150">
<ellipse fill="#dddddd" stroke="#dddddd" cx="801" cy="-450" rx="61.1934" ry="18"/>
<text text-anchor="middle" x="801" y="-445.8" font-family="Times,serif" font-size="14.00">GO:0008150</text>
</a>
</g>
<!-- f1 -->
<g id="node20" class="node"><title>f1</title>
<a xlink:href="0051179" xlink:title="GO:0051179">
<ellipse fill="#dddddd" stroke="#dddddd" cx="935" cy="-378" rx="61.1934" ry="18"/>
<text text-anchor="middle" x="935" y="-373.8" font-family="Times,serif" font-size="14.00">GO:0051179</text>
</a>
</g>
<!-- c0&#45;&gt;f1 -->
<g id="edge16" class="edge"><title>c0&#45;&gt;f1</title>
<path fill="none" stroke="black" d="M829.746,-433.983C849.441,-423.695 875.767,-409.942 897.164,-398.765"/>
<polygon fill="black" stroke="black" points="899.058,-401.724 906.301,-393.992 895.817,-395.52 899.058,-401.724"/>
</g>
<!-- d0 -->
<g id="node27" class="node"><title>d0</title>
<a xlink:href="0008152" xlink:title="GO:0008152 (5)">
<ellipse fill="#e98576" stroke="#e98576" cx="602" cy="-378" rx="75.2018" ry="18"/>
<text text-anchor="middle" x="602" y="-373.8" font-family="Times,serif" font-size="14.00">GO:0008152 (5)</text>
</a>
</g>
<!-- c0&#45;&gt;d0 -->
<g id="edge26" class="edge"><title>c0&#45;&gt;d0</title>
<path fill="none" stroke="black" d="M763.101,-435.669C731.694,-424.621 686.787,-408.824 652.359,-396.714"/>
<polygon fill="black" stroke="black" points="653.088,-393.261 642.494,-393.244 650.766,-399.864 653.088,-393.261"/>
</g>
<!-- e1 -->
<g id="node31" class="node"><title>e1</title>
<a xlink:href="0051234" xlink:title="GO:0051234">
<ellipse fill="#dddddd" stroke="#dddddd" cx="935" cy="-306" rx="61.1934" ry="18"/>
<text text-anchor="middle" x="935" y="-301.8" font-family="Times,serif" font-size="14.00">GO:0051234</text>
</a>
</g>
<!-- c0&#45;&gt;e1 -->
<g id="edge28" class="edge"><title>c0&#45;&gt;e1</title>
<path fill="none" stroke="black" d="M810.988,-432.119C822.577,-413.321 842.937,-382.613 865,-360 876.244,-348.476 890.126,-337.439 902.555,-328.449"/>
<polygon fill="black" stroke="black" points="904.728,-331.199 910.877,-322.571 900.69,-325.481 904.728,-331.199"/>
</g>
<!-- a1 -->
<g id="node34" class="node"><title>a1</title>
<a xlink:href="0050896" xlink:title="GO:0050896 (1)">
<ellipse fill="#e98576" stroke="#e98576" cx="202" cy="-378" rx="75.2018" ry="18"/>
<text text-anchor="middle" x="202" y="-373.8" font-family="Times,serif" font-size="14.00">GO:0050896 (1)</text>
</a>
</g>
<!-- c0&#45;&gt;a1 -->
<g id="edge32" class="edge"><title>c0&#45;&gt;a1</title>
<path fill="none" stroke="black" d="M745.185,-442.477C637.274,-429.867 399.926,-402.13 277.833,-387.862"/>
<polygon fill="black" stroke="black" points="278.153,-384.376 267.815,-386.691 277.341,-391.328 278.153,-384.376"/>
</g>
<!-- b0 -->
<g id="node36" class="node"><title>b0</title>
<a xlink:href="0065007" xlink:title="GO:0065007">
<ellipse fill="#dddddd" stroke="#dddddd" cx="1090" cy="-378" rx="61.1934" ry="18"/>
<text text-anchor="middle" x="1090" y="-373.8" font-family="Times,serif" font-size="14.00">GO:0065007</text>
</a>
</g>
<!-- c0&#45;&gt;b0 -->
<g id="edge34" class="edge"><title>c0&#45;&gt;b0</title>
<path fill="none" stroke="black" d="M846.793,-437.908C897.737,-425.569 980.034,-405.635 1034.57,-392.425"/>
<polygon fill="black" stroke="black" points="1035.53,-395.796 1044.42,-390.04 1033.88,-388.992 1035.53,-395.796"/>
</g>
<!-- i0 -->
<g id="node38" class="node"><title>i0</title>
<a xlink:href="0009987" xlink:title="GO:0009987">
<ellipse fill="#dddddd" stroke="#dddddd" cx="757" cy="-378" rx="61.1934" ry="18"/>
<text text-anchor="middle" x="757" y="-373.8" font-family="Times,serif" font-size="14.00">GO:0009987</text>
</a>
</g>
<!-- c0&#45;&gt;i0 -->
<g id="edge68" class="edge"><title>c0&#45;&gt;i0</title>
<path fill="none" stroke="black" d="M790.349,-432.055C785.16,-423.801 778.812,-413.701 773.052,-404.538"/>
<polygon fill="black" stroke="black" points="775.838,-402.393 767.553,-395.789 769.912,-406.118 775.838,-402.393"/>
</g>
<!-- f1&#45;&gt;e1 -->
<g id="edge30" class="edge"><title>f1&#45;&gt;e1</title>
<path fill="none" stroke="black" d="M935,-359.697C935,-351.983 935,-342.712 935,-334.112"/>
<polygon fill="black" stroke="black" points="938.5,-334.104 935,-324.104 931.5,-334.104 938.5,-334.104"/>
</g>
<!-- r0&#45;&gt;q0 -->
<g id="edge18" class="edge"><title>r0&#45;&gt;q0</title>
<path fill="none" stroke="black" d="M680.337,-217.847C697.471,-207.897 719.699,-194.144 738,-180 756.408,-165.774 758.255,-159.045 776,-144 788.375,-133.508 802.561,-122.579 814.912,-113.389"/>
<polygon fill="black" stroke="black" points="817.154,-116.085 823.125,-107.332 812.999,-110.451 817.154,-116.085"/>
</g>
<!-- u0&#45;&gt;q0 -->
<g id="edge22" class="edge"><title>u0&#45;&gt;q0</title>
<path fill="none" stroke="black" d="M846,-143.697C846,-135.983 846,-126.712 846,-118.112"/>
<polygon fill="black" stroke="black" points="849.5,-118.104 846,-108.104 842.5,-118.104 849.5,-118.104"/>
</g>
<!-- d0&#45;&gt;n0 -->
<g id="edge84" class="edge"><title>d0&#45;&gt;n0</title>
<path fill="none" stroke="black" d="M555.629,-363.751C513.93,-351.837 452.732,-334.352 409.302,-321.943"/>
<polygon fill="black" stroke="black" points="410.071,-318.523 399.494,-319.141 408.148,-325.254 410.071,-318.523"/>
</g>
<!-- d0&#45;&gt;j0 -->
<g id="edge94" class="edge"><title>d0&#45;&gt;j0</title>
<path fill="none" stroke="black" d="M580.671,-360.411C568.732,-351.125 553.685,-339.421 540.721,-329.338"/>
<polygon fill="black" stroke="black" points="542.598,-326.365 532.556,-322.988 538.301,-331.89 542.598,-326.365"/>
</g>
<!-- d0&#45;&gt;t0 -->
<g id="edge24" class="edge"><title>d0&#45;&gt;t0</title>
<path fill="none" stroke="black" d="M641.317,-362.666C672.04,-351.465 714.829,-335.864 747.296,-324.028"/>
<polygon fill="black" stroke="black" points="748.819,-327.198 757.015,-320.484 746.421,-320.621 748.819,-327.198"/>
</g>
<!-- d0&#45;&gt;h0 -->
<g id="edge36" class="edge"><title>d0&#45;&gt;h0</title>
<path fill="none" stroke="black" d="M614.346,-360.055C620.485,-351.629 628.025,-341.28 634.81,-331.966"/>
<polygon fill="black" stroke="black" points="637.708,-333.932 640.768,-323.789 632.051,-329.81 637.708,-333.932"/>
</g>
<!-- d1 -->
<g id="node40" class="node"><title>d1</title>
<a xlink:href="0006810" xlink:title="GO:0006810 (1)">
<ellipse fill="#e98576" stroke="#e98576" cx="1090" cy="-234" rx="75.2018" ry="18"/>
<text text-anchor="middle" x="1090" y="-229.8" font-family="Times,serif" font-size="14.00">GO:0006810 (1)</text>
</a>
</g>
<!-- e1&#45;&gt;d1 -->
<g id="edge78" class="edge"><title>e1&#45;&gt;d1</title>
<path fill="none" stroke="black" d="M967.116,-290.496C990.233,-280.056 1021.67,-265.86 1046.96,-254.439"/>
<polygon fill="black" stroke="black" points="1048.64,-257.518 1056.32,-250.212 1045.76,-251.138 1048.64,-257.518"/>
</g>
<!-- z0 -->
<g id="node60" class="node"><title>z0</title>
<a xlink:href="0006950" xlink:title="GO:0006950">
<ellipse fill="#dddddd" stroke="#dddddd" cx="61" cy="-306" rx="61.1934" ry="18"/>
<text text-anchor="middle" x="61" y="-301.8" font-family="Times,serif" font-size="14.00">GO:0006950</text>
</a>
</g>
<!-- a1&#45;&gt;z0 -->
<g id="edge92" class="edge"><title>a1&#45;&gt;z0</title>
<path fill="none" stroke="black" d="M170.708,-361.465C149.836,-351.103 122.243,-337.404 99.951,-326.337"/>
<polygon fill="black" stroke="black" points="101.27,-323.085 90.7571,-321.773 98.1577,-329.355 101.27,-323.085"/>
</g>
<!-- b1 -->
<g id="node63" class="node"><title>b1</title>
<a xlink:href="0009719" xlink:title="GO:0009719">
<ellipse fill="#dddddd" stroke="#dddddd" cx="202" cy="-306" rx="61.1934" ry="18"/>
<text text-anchor="middle" x="202" y="-301.8" font-family="Times,serif" font-size="14.00">GO:0009719</text>
</a>
</g>
<!-- a1&#45;&gt;b1 -->
<g id="edge80" class="edge"><title>a1&#45;&gt;b1</title>
<path fill="none" stroke="black" d="M202,-359.697C202,-351.983 202,-342.712 202,-334.112"/>
<polygon fill="black" stroke="black" points="205.5,-334.104 202,-324.104 198.5,-334.104 205.5,-334.104"/>
</g>
<!-- p0 -->
<g id="node46" class="node"><title>p0</title>
<a xlink:href="0065008" xlink:title="GO:0065008 (1)">
<ellipse fill="#e98576" stroke="#e98576" cx="1258" cy="-306" rx="75.2018" ry="18"/>
<text text-anchor="middle" x="1258" y="-301.8" font-family="Times,serif" font-size="14.00">GO:0065008 (1)</text>
</a>
</g>
<!-- b0&#45;&gt;p0 -->
<g id="edge44" class="edge"><title>b0&#45;&gt;p0</title>
<path fill="none" stroke="black" d="M1124,-362.834C1149.56,-352.185 1184.82,-337.49 1212.76,-325.848"/>
<polygon fill="black" stroke="black" points="1214.43,-328.946 1222.31,-321.869 1211.74,-322.485 1214.43,-328.946"/>
</g>
<!-- a0 -->
<g id="node58" class="node"><title>a0</title>
<a xlink:href="0050789" xlink:title="GO:0050789 (5)">
<ellipse fill="#e98576" stroke="#e98576" cx="1090" cy="-306" rx="75.2018" ry="18"/>
<text text-anchor="middle" x="1090" y="-301.8" font-family="Times,serif" font-size="14.00">GO:0050789 (5)</text>
</a>
</g>
<!-- b0&#45;&gt;a0 -->
<g id="edge60" class="edge"><title>b0&#45;&gt;a0</title>
<path fill="none" stroke="black" d="M1090,-359.697C1090,-351.983 1090,-342.712 1090,-334.112"/>
<polygon fill="black" stroke="black" points="1093.5,-334.104 1090,-324.104 1086.5,-334.104 1093.5,-334.104"/>
</g>
<!-- i0&#45;&gt;h0 -->
<g id="edge38" class="edge"><title>i0&#45;&gt;h0</title>
<path fill="none" stroke="black" d="M733.66,-361.291C719.209,-351.564 700.462,-338.946 684.679,-328.322"/>
<polygon fill="black" stroke="black" points="686.512,-325.337 676.262,-322.657 682.603,-331.144 686.512,-325.337"/>
</g>
<!-- g1 -->
<g id="node42" class="node"><title>g1</title>
<a xlink:href="0006818" xlink:title="GO:0006818 (1)">
<ellipse fill="#e98576" stroke="#e98576" cx="1232" cy="-162" rx="75.2018" ry="18"/>
<text text-anchor="middle" x="1232" y="-157.8" font-family="Times,serif" font-size="14.00">GO:0006818 (1)</text>
</a>
</g>
<!-- d1&#45;&gt;g1 -->
<g id="edge40" class="edge"><title>d1&#45;&gt;g1</title>
<path fill="none" stroke="black" d="M1121.51,-217.465C1142.1,-207.315 1169.19,-193.962 1191.39,-183.018"/>
<polygon fill="black" stroke="black" points="1193.15,-186.053 1200.57,-178.492 1190.06,-179.774 1193.15,-186.053"/>
</g>
<!-- h1 -->
<g id="node44" class="node"><title>h1</title>
<a xlink:href="0006811" xlink:title="GO:0006811 (1)">
<ellipse fill="#e98576" stroke="#e98576" cx="1064" cy="-162" rx="75.2018" ry="18"/>
<text text-anchor="middle" x="1064" y="-157.8" font-family="Times,serif" font-size="14.00">GO:0006811 (1)</text>
</a>
</g>
<!-- d1&#45;&gt;h1 -->
<g id="edge42" class="edge"><title>d1&#45;&gt;h1</title>
<path fill="none" stroke="black" d="M1083.71,-216.055C1080.78,-208.176 1077.23,-198.617 1073.95,-189.794"/>
<polygon fill="black" stroke="black" points="1077.18,-188.431 1070.42,-180.275 1070.62,-190.868 1077.18,-188.431"/>
</g>
<!-- e0 -->
<g id="node49" class="node"><title>e0</title>
<a xlink:href="0006351" xlink:title="GO:0006351 (4)">
<ellipse fill="#e98576" stroke="#e98576" cx="337" cy="-18" rx="75.2018" ry="18"/>
<text text-anchor="middle" x="337" y="-13.8" font-family="Times,serif" font-size="14.00">GO:0006351 (4)</text>
</a>
</g>
<!-- f0&#45;&gt;e0 -->
<g id="edge46" class="edge"><title>f0&#45;&gt;e0</title>
<path fill="none" stroke="black" d="M391.174,-72.411C382.286,-63.6479 371.214,-52.7322 361.401,-43.0569"/>
<polygon fill="black" stroke="black" points="363.777,-40.4846 354.198,-35.9562 358.862,-45.4694 363.777,-40.4846"/>
</g>
<!-- k0&#45;&gt;e0 -->
<g id="edge48" class="edge"><title>k0&#45;&gt;e0</title>
<path fill="none" stroke="black" d="M283.589,-72.411C292.352,-63.6479 303.268,-52.7322 312.943,-43.0569"/>
<polygon fill="black" stroke="black" points="315.448,-45.5022 320.044,-35.9562 310.498,-40.5524 315.448,-45.5022"/>
</g>
<!-- y0 -->
<g id="node62" class="node"><title>y0</title>
<a xlink:href="0006974" xlink:title="GO:0006974">
<ellipse fill="#dddddd" stroke="#dddddd" cx="61" cy="-234" rx="61.1934" ry="18"/>
<text text-anchor="middle" x="61" y="-229.8" font-family="Times,serif" font-size="14.00">GO:0006974</text>
</a>
</g>
<!-- z0&#45;&gt;y0 -->
<g id="edge64" class="edge"><title>z0&#45;&gt;y0</title>
<path fill="none" stroke="black" d="M61,-287.697C61,-279.983 61,-270.712 61,-262.112"/>
<polygon fill="black" stroke="black" points="64.5001,-262.104 61,-252.104 57.5001,-262.104 64.5001,-262.104"/>
</g>
<!-- w0 -->
<g id="node79" class="node"><title>w0</title>
<a xlink:href="0006281" xlink:title="GO:0006281 (1)">
<ellipse fill="#e98576" stroke="#e98576" cx="100" cy="-90" rx="75.2018" ry="18"/>
<text text-anchor="middle" x="100" y="-85.8" font-family="Times,serif" font-size="14.00">GO:0006281 (1)</text>
</a>
</g>
<!-- y0&#45;&gt;w0 -->
<g id="edge90" class="edge"><title>y0&#45;&gt;w0</title>
<path fill="none" stroke="black" d="M64.5444,-215.812C68.379,-197.794 74.9034,-168.72 82,-144 84.4782,-135.368 87.5131,-126.06 90.3797,-117.69"/>
<polygon fill="black" stroke="black" points="93.7521,-118.649 93.7442,-108.055 87.1433,-116.342 93.7521,-118.649"/>
</g>
<!-- b1&#45;&gt;y0 -->
<g id="edge66" class="edge"><title>b1&#45;&gt;y0</title>
<path fill="none" stroke="black" d="M172.098,-290.155C151.067,-279.714 122.725,-265.644 99.9311,-254.328"/>
<polygon fill="black" stroke="black" points="101.373,-251.136 90.8594,-249.824 98.26,-257.405 101.373,-251.136"/>
</g>
<!-- x0&#45;&gt;w0 -->
<g id="edge88" class="edge"><title>x0&#45;&gt;w0</title>
<path fill="none" stroke="black" d="M139.412,-144.055C133.153,-135.629 125.465,-125.28 118.546,-115.966"/>
<polygon fill="black" stroke="black" points="121.245,-113.729 112.472,-107.789 115.625,-117.904 121.245,-113.729"/>
</g>
<!-- o0 -->
<g id="node83" class="node"><title>o0</title>
<a xlink:href="0055114" xlink:title="GO:0055114 (2)">
<ellipse fill="#e98576" stroke="#e98576" cx="956" cy="-450" rx="75.2018" ry="18"/>
<text text-anchor="middle" x="956" y="-445.8" font-family="Times,serif" font-size="14.00">GO:0055114 (2)</text>
</a>
</g>
</g>
</svg>
