<?xml version="1.0" encoding="UTF-8" standalone="no"?>
<!DOCTYPE svg PUBLIC "-//W3C//DTD SVG 1.1//EN"
 "http://www.w3.org/Graphics/SVG/1.1/DTD/svg11.dtd">
<!-- Generated by graphviz version 2.28.0 (20110622.2320)
 -->
<!-- Title: G Pages: 1 -->
<svg width="3651pt" height="260pt"
 viewBox="0.00 0.00 3651.00 260.00" xmlns="http://www.w3.org/2000/svg" xmlns:xlink="http://www.w3.org/1999/xlink">
<g id="graph1" class="graph" transform="scale(1 1) rotate(0) translate(4 256)">
<title>G</title>
<polygon fill="white" stroke="white" points="-4,5 -4,-256 3648,-256 3648,5 -4,5"/>
<!-- b0 -->
<g id="node1" class="node"><title>b0</title>
<a xlink:href="0005488" xlink:title="GO:0005488">
<ellipse fill="#dddddd" stroke="#dddddd" cx="1182" cy="-162" rx="61.1934" ry="18"/>
<text text-anchor="middle" x="1182" y="-157.8" font-family="Times,serif" font-size="14.00">GO:0005488</text>
</a>
</g>
<!-- b1 -->
<g id="node3" class="node"><title>b1</title>
<a xlink:href="0008289" xlink:title="GO:0008289 (1)">
<ellipse fill="#e98576" stroke="#e98576" cx="75" cy="-90" rx="75.2018" ry="18"/>
<text text-anchor="middle" x="75" y="-85.8" font-family="Times,serif" font-size="14.00">GO:0008289 (1)</text>
</a>
</g>
<!-- b0&#45;&gt;b1 -->
<g id="edge2" class="edge"><title>b0&#45;&gt;b1</title>
<path fill="none" stroke="black" d="M1120.61,-160.976C961.253,-160.232 521.582,-153.827 159,-108 152.157,-107.135 145.037,-106.026 137.966,-104.789"/>
<polygon fill="black" stroke="black" points="138.146,-101.264 127.678,-102.9 136.881,-108.149 138.146,-101.264"/>
</g>
<!-- u0 -->
<g id="node10" class="node"><title>u0</title>
<a xlink:href="0005515" xlink:title="GO:0005515 (6)">
<ellipse fill="#e98576" stroke="#e98576" cx="243" cy="-90" rx="75.2018" ry="18"/>
<text text-anchor="middle" x="243" y="-85.8" font-family="Times,serif" font-size="14.00">GO:0005515 (6)</text>
</a>
</g>
<!-- b0&#45;&gt;u0 -->
<g id="edge8" class="edge"><title>b0&#45;&gt;u0</title>
<path fill="none" stroke="black" d="M1121.08,-160.101C980.542,-157.4 623.01,-146.939 327,-108 320.26,-107.113 313.251,-106.002 306.282,-104.774"/>
<polygon fill="black" stroke="black" points="306.607,-101.275 296.138,-102.904 305.338,-108.159 306.607,-101.275"/>
</g>
<!-- i0 -->
<g id="node12" class="node"><title>i0</title>
<a xlink:href="0001882" xlink:title="GO:0001882 (75)">
<ellipse fill="#e98576" stroke="#e98576" cx="416" cy="-90" rx="79.4447" ry="18"/>
<text text-anchor="middle" x="416" y="-85.8" font-family="Times,serif" font-size="14.00">GO:0001882 (75)</text>
</a>
</g>
<!-- b0&#45;&gt;i0 -->
<g id="edge10" class="edge"><title>b0&#45;&gt;i0</title>
<path fill="none" stroke="black" d="M1121.54,-158.513C1002.89,-153.137 731.39,-138.388 505,-108 497.628,-107.011 489.944,-105.807 482.313,-104.501"/>
<polygon fill="black" stroke="black" points="482.802,-101.033 472.344,-102.736 481.581,-107.926 482.802,-101.033"/>
</g>
<!-- r0 -->
<g id="node14" class="node"><title>r0</title>
<a xlink:href="0019842" xlink:title="GO:0019842 (12)">
<ellipse fill="#e98576" stroke="#e98576" cx="594" cy="-90" rx="79.4447" ry="18"/>
<text text-anchor="middle" x="594" y="-85.8" font-family="Times,serif" font-size="14.00">GO:0019842 (12)</text>
</a>
</g>
<!-- b0&#45;&gt;r0 -->
<g id="edge12" class="edge"><title>b0&#45;&gt;r0</title>
<path fill="none" stroke="black" d="M1123.8,-156.395C1030.49,-148.658 841.779,-131.555 683,-108 675.832,-106.937 668.363,-105.706 660.932,-104.402"/>
<polygon fill="black" stroke="black" points="661.317,-100.915 650.855,-102.587 660.076,-107.804 661.317,-100.915"/>
</g>
<!-- x0 -->
<g id="node15" class="node"><title>x0</title>
<a xlink:href="0043176" xlink:title="GO:0043176">
<ellipse fill="#dddddd" stroke="#dddddd" cx="753" cy="-90" rx="61.1934" ry="18"/>
<text text-anchor="middle" x="753" y="-85.8" font-family="Times,serif" font-size="14.00">GO:0043176</text>
</a>
</g>
<!-- b0&#45;&gt;x0 -->
<g id="edge32" class="edge"><title>b0&#45;&gt;x0</title>
<path fill="none" stroke="black" d="M1126.38,-154.395C1055.59,-145.621 929.673,-128.782 823,-108 817.988,-107.024 812.795,-105.926 807.605,-104.771"/>
<polygon fill="black" stroke="black" points="808.206,-101.319 797.677,-102.496 806.642,-108.142 808.206,-101.319"/>
</g>
<!-- a0 -->
<g id="node34" class="node"><title>a0</title>
<a xlink:href="0043167" xlink:title="GO:0043167 (203)">
<ellipse fill="#e98576" stroke="#e98576" cx="917" cy="-90" rx="84.1886" ry="18"/>
<text text-anchor="middle" x="917" y="-85.8" font-family="Times,serif" font-size="14.00">GO:0043167 (203)</text>
</a>
</g>
<!-- b0&#45;&gt;a0 -->
<g id="edge30" class="edge"><title>b0&#45;&gt;a0</title>
<path fill="none" stroke="black" d="M1137.94,-149.362C1094.16,-137.796 1026.66,-119.966 977.788,-107.057"/>
<polygon fill="black" stroke="black" points="978.528,-103.633 967.966,-104.463 976.74,-110.401 978.528,-103.633"/>
</g>
<!-- y0 -->
<g id="node41" class="node"><title>y0</title>
<a xlink:href="0030246" xlink:title="GO:0030246 (3)">
<ellipse fill="#e98576" stroke="#e98576" cx="1095" cy="-90" rx="75.2018" ry="18"/>
<text text-anchor="middle" x="1095" y="-85.8" font-family="Times,serif" font-size="14.00">GO:0030246 (3)</text>
</a>
</g>
<!-- b0&#45;&gt;y0 -->
<g id="edge38" class="edge"><title>b0&#45;&gt;y0</title>
<path fill="none" stroke="black" d="M1161.82,-144.765C1150.37,-135.554 1135.87,-123.882 1123.3,-113.769"/>
<polygon fill="black" stroke="black" points="1125.36,-110.932 1115.37,-107.39 1120.97,-116.386 1125.36,-110.932"/>
</g>
<!-- j0 -->
<g id="node47" class="node"><title>j0</title>
<a xlink:href="0003676" xlink:title="GO:0003676 (63)">
<ellipse fill="#e98576" stroke="#e98576" cx="1268" cy="-90" rx="79.4447" ry="18"/>
<text text-anchor="middle" x="1268" y="-85.8" font-family="Times,serif" font-size="14.00">GO:0003676 (63)</text>
</a>
</g>
<!-- b0&#45;&gt;j0 -->
<g id="edge44" class="edge"><title>b0&#45;&gt;j0</title>
<path fill="none" stroke="black" d="M1201.95,-144.765C1213.18,-135.621 1227.4,-124.05 1239.76,-113.988"/>
<polygon fill="black" stroke="black" points="1242.02,-116.661 1247.56,-107.633 1237.6,-111.232 1242.02,-116.661"/>
</g>
<!-- v0 -->
<g id="node49" class="node"><title>v0</title>
<a xlink:href="0046906" xlink:title="GO:0046906 (5)">
<ellipse fill="#e98576" stroke="#e98576" cx="1441" cy="-90" rx="75.2018" ry="18"/>
<text text-anchor="middle" x="1441" y="-85.8" font-family="Times,serif" font-size="14.00">GO:0046906 (5)</text>
</a>
</g>
<!-- b0&#45;&gt;v0 -->
<g id="edge46" class="edge"><title>b0&#45;&gt;v0</title>
<path fill="none" stroke="black" d="M1225.35,-149.284C1268.64,-137.583 1335.44,-119.53 1383.22,-106.618"/>
<polygon fill="black" stroke="black" points="1384.37,-109.932 1393.11,-103.944 1382.54,-103.175 1384.37,-109.932"/>
</g>
<!-- f0 -->
<g id="node52" class="node"><title>f0</title>
<a xlink:href="0000166" xlink:title="GO:0000166 (108)">
<ellipse fill="#e98576" stroke="#e98576" cx="1619" cy="-90" rx="84.1886" ry="18"/>
<text text-anchor="middle" x="1619" y="-85.8" font-family="Times,serif" font-size="14.00">GO:0000166 (108)</text>
</a>
</g>
<!-- b0&#45;&gt;f0 -->
<g id="edge50" class="edge"><title>b0&#45;&gt;f0</title>
<path fill="none" stroke="black" d="M1235.54,-153.161C1303.09,-143.171 1422.79,-125.137 1525,-108 1532.28,-106.78 1539.87,-105.47 1547.44,-104.139"/>
<polygon fill="black" stroke="black" points="1548.12,-107.573 1557.35,-102.382 1546.89,-100.681 1548.12,-107.573"/>
</g>
<!-- c1 -->
<g id="node54" class="node"><title>c1</title>
<a xlink:href="0001871" xlink:title="GO:0001871 (1)">
<ellipse fill="#e98576" stroke="#e98576" cx="1797" cy="-90" rx="75.2018" ry="18"/>
<text text-anchor="middle" x="1797" y="-85.8" font-family="Times,serif" font-size="14.00">GO:0001871 (1)</text>
</a>
</g>
<!-- b0&#45;&gt;c1 -->
<g id="edge52" class="edge"><title>b0&#45;&gt;c1</title>
<path fill="none" stroke="black" d="M1241.05,-156.988C1339.19,-149.898 1541.89,-133.454 1712,-108 1718.8,-106.983 1725.88,-105.787 1732.92,-104.509"/>
<polygon fill="black" stroke="black" points="1734,-107.869 1743.18,-102.589 1732.71,-100.989 1734,-107.869"/>
</g>
<!-- k0 -->
<g id="node61" class="node"><title>k0</title>
<a xlink:href="0048037" xlink:title="GO:0048037 (52)">
<ellipse fill="#e98576" stroke="#e98576" cx="1970" cy="-90" rx="79.4447" ry="18"/>
<text text-anchor="middle" x="1970" y="-85.8" font-family="Times,serif" font-size="14.00">GO:0048037 (52)</text>
</a>
</g>
<!-- b0&#45;&gt;k0 -->
<g id="edge60" class="edge"><title>b0&#45;&gt;k0</title>
<path fill="none" stroke="black" d="M1242.55,-158.716C1364.04,-153.623 1646.05,-139.244 1881,-108 1888.37,-107.02 1896.06,-105.821 1903.69,-104.519"/>
<polygon fill="black" stroke="black" points="1904.42,-107.944 1913.66,-102.757 1903.2,-101.051 1904.42,-107.944"/>
</g>
<!-- p0 -->
<g id="node63" class="node"><title>p0</title>
<a xlink:href="0051540" xlink:title="GO:0051540 (25)">
<ellipse fill="#e98576" stroke="#e98576" cx="2148" cy="-90" rx="79.4447" ry="18"/>
<text text-anchor="middle" x="2148" y="-85.8" font-family="Times,serif" font-size="14.00">GO:0051540 (25)</text>
</a>
</g>
<!-- b0&#45;&gt;p0 -->
<g id="edge62" class="edge"><title>b0&#45;&gt;p0</title>
<path fill="none" stroke="black" d="M1243.04,-159.955C1386.02,-156.932 1753.52,-145.814 2058,-108 2065.66,-107.049 2073.64,-105.848 2081.56,-104.526"/>
<polygon fill="black" stroke="black" points="2082.27,-107.956 2091.52,-102.796 2081.07,-101.059 2082.27,-107.956"/>
</g>
<!-- e0 -->
<g id="node4" class="node"><title>e0</title>
<a xlink:href="0003824" xlink:title="GO:0003824 (95)">
<ellipse fill="#e98576" stroke="#e98576" cx="2855" cy="-162" rx="79.4447" ry="18"/>
<text text-anchor="middle" x="2855" y="-157.8" font-family="Times,serif" font-size="14.00">GO:0003824 (95)</text>
</a>
</g>
<!-- m0 -->
<g id="node6" class="node"><title>m0</title>
<a xlink:href="0016853" xlink:title="GO:0016853 (40)">
<ellipse fill="#e98576" stroke="#e98576" cx="2326" cy="-90" rx="79.4447" ry="18"/>
<text text-anchor="middle" x="2326" y="-85.8" font-family="Times,serif" font-size="14.00">GO:0016853 (40)</text>
</a>
</g>
<!-- e0&#45;&gt;m0 -->
<g id="edge4" class="edge"><title>e0&#45;&gt;m0</title>
<path fill="none" stroke="black" d="M2783.54,-153.921C2696.31,-144.928 2544.44,-128.133 2415,-108 2407.95,-106.903 2400.6,-105.661 2393.28,-104.359"/>
<polygon fill="black" stroke="black" points="2393.81,-100.899 2383.35,-102.556 2392.56,-107.787 2393.81,-100.899"/>
</g>
<!-- a1 -->
<g id="node23" class="node"><title>a1</title>
<a xlink:href="0004803" xlink:title="GO:0004803 (1)">
<ellipse fill="#e98576" stroke="#e98576" cx="2499" cy="-90" rx="75.2018" ry="18"/>
<text text-anchor="middle" x="2499" y="-85.8" font-family="Times,serif" font-size="14.00">GO:0004803 (1)</text>
</a>
</g>
<!-- e0&#45;&gt;a1 -->
<g id="edge20" class="edge"><title>e0&#45;&gt;a1</title>
<path fill="none" stroke="black" d="M2796.61,-149.75C2741.52,-139.103 2656.61,-122.621 2583,-108 2576.97,-106.802 2570.69,-105.547 2564.41,-104.285"/>
<polygon fill="black" stroke="black" points="2565.06,-100.846 2554.57,-102.304 2563.68,-107.709 2565.06,-100.846"/>
</g>
<!-- h0 -->
<g id="node24" class="node"><title>h0</title>
<a xlink:href="0016787" xlink:title="GO:0016787 (75)">
<ellipse fill="#e98576" stroke="#e98576" cx="2672" cy="-90" rx="79.4447" ry="18"/>
<text text-anchor="middle" x="2672" y="-85.8" font-family="Times,serif" font-size="14.00">GO:0016787 (75)</text>
</a>
</g>
<!-- e0&#45;&gt;h0 -->
<g id="edge34" class="edge"><title>e0&#45;&gt;h0</title>
<path fill="none" stroke="black" d="M2816.19,-146.155C2788.17,-135.436 2750.14,-120.891 2720.18,-109.428"/>
<polygon fill="black" stroke="black" points="2721.34,-106.128 2710.75,-105.824 2718.84,-112.666 2721.34,-106.128"/>
</g>
<!-- d0 -->
<g id="node37" class="node"><title>d0</title>
<a xlink:href="0016491" xlink:title="GO:0016491 (123)">
<ellipse fill="#e98576" stroke="#e98576" cx="2855" cy="-90" rx="84.1886" ry="18"/>
<text text-anchor="middle" x="2855" y="-85.8" font-family="Times,serif" font-size="14.00">GO:0016491 (123)</text>
</a>
</g>
<!-- e0&#45;&gt;d0 -->
<g id="edge48" class="edge"><title>e0&#45;&gt;d0</title>
<path fill="none" stroke="black" d="M2855,-143.697C2855,-135.983 2855,-126.712 2855,-118.112"/>
<polygon fill="black" stroke="black" points="2858.5,-118.104 2855,-108.104 2851.5,-118.104 2858.5,-118.104"/>
</g>
<!-- g0 -->
<g id="node43" class="node"><title>g0</title>
<a xlink:href="0016740" xlink:title="GO:0016740 (82)">
<ellipse fill="#e98576" stroke="#e98576" cx="3038" cy="-90" rx="79.4447" ry="18"/>
<text text-anchor="middle" x="3038" y="-85.8" font-family="Times,serif" font-size="14.00">GO:0016740 (82)</text>
</a>
</g>
<!-- e0&#45;&gt;g0 -->
<g id="edge40" class="edge"><title>e0&#45;&gt;g0</title>
<path fill="none" stroke="black" d="M2893.81,-146.155C2921.83,-135.436 2959.86,-120.891 2989.82,-109.428"/>
<polygon fill="black" stroke="black" points="2991.16,-112.666 2999.25,-105.824 2988.66,-106.128 2991.16,-112.666"/>
</g>
<!-- q0 -->
<g id="node45" class="node"><title>q0</title>
<a xlink:href="0016874" xlink:title="GO:0016874 (19)">
<ellipse fill="#e98576" stroke="#e98576" cx="3216" cy="-90" rx="79.4447" ry="18"/>
<text text-anchor="middle" x="3216" y="-85.8" font-family="Times,serif" font-size="14.00">GO:0016874 (19)</text>
</a>
</g>
<!-- e0&#45;&gt;q0 -->
<g id="edge42" class="edge"><title>e0&#45;&gt;q0</title>
<path fill="none" stroke="black" d="M2913.4,-149.675C2977.37,-137.272 3079.85,-117.401 3147.54,-104.275"/>
<polygon fill="black" stroke="black" points="3148.53,-107.648 3157.68,-102.308 3147.2,-100.776 3148.53,-107.648"/>
</g>
<!-- n0 -->
<g id="node56" class="node"><title>n0</title>
<a xlink:href="0016829" xlink:title="GO:0016829 (37)">
<ellipse fill="#e98576" stroke="#e98576" cx="3394" cy="-90" rx="79.4447" ry="18"/>
<text text-anchor="middle" x="3394" y="-85.8" font-family="Times,serif" font-size="14.00">GO:0016829 (37)</text>
</a>
</g>
<!-- e0&#45;&gt;n0 -->
<g id="edge54" class="edge"><title>e0&#45;&gt;n0</title>
<path fill="none" stroke="black" d="M2911.85,-149.36C2922.5,-147.401 2933.57,-145.515 2944,-144 3103.13,-120.893 3144.85,-130.944 3304,-108 3311.33,-106.943 3318.98,-105.708 3326.58,-104.394"/>
<polygon fill="black" stroke="black" points="3327.28,-107.825 3336.51,-102.63 3326.05,-100.932 3327.28,-107.825"/>
</g>
<!-- c0 -->
<g id="node7" class="node"><title>c0</title>
<a xlink:href="0003674" xlink:title="GO:0003674 (10)">
<ellipse fill="#e98576" stroke="#e98576" cx="3091" cy="-234" rx="79.4447" ry="18"/>
<text text-anchor="middle" x="3091" y="-229.8" font-family="Times,serif" font-size="14.00">GO:0003674 (10)</text>
</a>
</g>
<!-- c0&#45;&gt;b0 -->
<g id="edge16" class="edge"><title>c0&#45;&gt;b0</title>
<path fill="none" stroke="black" d="M3013.2,-230.147C2702.26,-218.745 1551.12,-176.535 1252.92,-165.6"/>
<polygon fill="black" stroke="black" points="1252.79,-162.094 1242.67,-165.225 1252.54,-169.089 1252.79,-162.094"/>
</g>
<!-- c0&#45;&gt;e0 -->
<g id="edge6" class="edge"><title>c0&#45;&gt;e0</title>
<path fill="none" stroke="black" d="M3044.66,-219.254C3006.34,-207.888 2951.79,-191.709 2911.02,-179.617"/>
<polygon fill="black" stroke="black" points="2911.82,-176.203 2901.24,-176.715 2909.83,-182.914 2911.82,-176.203"/>
</g>
<!-- f1 -->
<g id="node19" class="node"><title>f1</title>
<a xlink:href="0060089" xlink:title="GO:0060089">
<ellipse fill="#dddddd" stroke="#dddddd" cx="3014" cy="-162" rx="61.1934" ry="18"/>
<text text-anchor="middle" x="3014" y="-157.8" font-family="Times,serif" font-size="14.00">GO:0060089</text>
</a>
</g>
<!-- c0&#45;&gt;f1 -->
<g id="edge58" class="edge"><title>c0&#45;&gt;f1</title>
<path fill="none" stroke="black" d="M3072.75,-216.411C3062.8,-207.367 3050.33,-196.03 3039.44,-186.13"/>
<polygon fill="black" stroke="black" points="3041.61,-183.365 3031.85,-179.228 3036.9,-188.545 3041.61,-183.365"/>
</g>
<!-- z0 -->
<g id="node28" class="node"><title>z0</title>
<a xlink:href="0016209" xlink:title="GO:0016209 (2)">
<ellipse fill="#e98576" stroke="#e98576" cx="3169" cy="-162" rx="75.2018" ry="18"/>
<text text-anchor="middle" x="3169" y="-157.8" font-family="Times,serif" font-size="14.00">GO:0016209 (2)</text>
</a>
</g>
<!-- c0&#45;&gt;z0 -->
<g id="edge24" class="edge"><title>c0&#45;&gt;z0</title>
<path fill="none" stroke="black" d="M3109.48,-216.411C3119.49,-207.432 3132.01,-196.193 3142.99,-186.344"/>
<polygon fill="black" stroke="black" points="3145.54,-188.754 3150.65,-179.47 3140.87,-183.544 3145.54,-188.754"/>
</g>
<!-- l0 -->
<g id="node32" class="node"><title>l0</title>
<a xlink:href="0005215" xlink:title="GO:0005215 (41)">
<ellipse fill="#e98576" stroke="#e98576" cx="3342" cy="-162" rx="79.4447" ry="18"/>
<text text-anchor="middle" x="3342" y="-157.8" font-family="Times,serif" font-size="14.00">GO:0005215 (41)</text>
</a>
</g>
<!-- c0&#45;&gt;l0 -->
<g id="edge28" class="edge"><title>c0&#45;&gt;l0</title>
<path fill="none" stroke="black" d="M3139.1,-219.586C3180.52,-208.034 3240.4,-191.335 3284.37,-179.071"/>
<polygon fill="black" stroke="black" points="3285.37,-182.426 3294.06,-176.368 3283.49,-175.684 3285.37,-182.426"/>
</g>
<!-- o0 -->
<g id="node58" class="node"><title>o0</title>
<a xlink:href="0005198" xlink:title="GO:0005198 (31)">
<ellipse fill="#e98576" stroke="#e98576" cx="3520" cy="-162" rx="79.4447" ry="18"/>
<text text-anchor="middle" x="3520" y="-157.8" font-family="Times,serif" font-size="14.00">GO:0005198 (31)</text>
</a>
</g>
<!-- c0&#45;&gt;o0 -->
<g id="edge56" class="edge"><title>c0&#45;&gt;o0</title>
<path fill="none" stroke="black" d="M3155.77,-223.495C3224.07,-213.328 3334.76,-196.436 3430,-180 3437,-178.792 3444.3,-177.487 3451.58,-176.157"/>
<polygon fill="black" stroke="black" points="3452.27,-179.589 3461.47,-174.333 3451,-172.705 3452.27,-179.589"/>
</g>
<!-- w0 -->
<g id="node17" class="node"><title>w0</title>
<a xlink:href="0016597" xlink:title="GO:0016597 (3)">
<ellipse fill="#e98576" stroke="#e98576" cx="753" cy="-18" rx="75.2018" ry="18"/>
<text text-anchor="middle" x="753" y="-13.8" font-family="Times,serif" font-size="14.00">GO:0016597 (3)</text>
</a>
</g>
<!-- x0&#45;&gt;w0 -->
<g id="edge14" class="edge"><title>x0&#45;&gt;w0</title>
<path fill="none" stroke="black" d="M753,-71.6966C753,-63.9827 753,-54.7125 753,-46.1124"/>
<polygon fill="black" stroke="black" points="756.5,-46.1043 753,-36.1043 749.5,-46.1044 756.5,-46.1043"/>
</g>
<!-- e1 -->
<g id="node21" class="node"><title>e1</title>
<a xlink:href="0004871" xlink:title="GO:0004871 (1)">
<ellipse fill="#e98576" stroke="#e98576" cx="3567" cy="-90" rx="75.2018" ry="18"/>
<text text-anchor="middle" x="3567" y="-85.8" font-family="Times,serif" font-size="14.00">GO:0004871 (1)</text>
</a>
</g>
<!-- f1&#45;&gt;e1 -->
<g id="edge18" class="edge"><title>f1&#45;&gt;e1</title>
<path fill="none" stroke="black" d="M3058.11,-149.394C3066.97,-147.36 3076.24,-145.437 3085,-144 3259.83,-115.298 3306.66,-133.409 3482,-108 3488.8,-107.014 3495.89,-105.838 3502.93,-104.572"/>
<polygon fill="black" stroke="black" points="3504,-107.934 3513.19,-102.664 3502.72,-101.052 3504,-107.934"/>
</g>
<!-- s0 -->
<g id="node26" class="node"><title>s0</title>
<a xlink:href="0008233" xlink:title="GO:0008233 (10)">
<ellipse fill="#e98576" stroke="#e98576" cx="2506" cy="-18" rx="79.4447" ry="18"/>
<text text-anchor="middle" x="2506" y="-13.8" font-family="Times,serif" font-size="14.00">GO:0008233 (10)</text>
</a>
</g>
<!-- h0&#45;&gt;s0 -->
<g id="edge22" class="edge"><title>h0&#45;&gt;s0</title>
<path fill="none" stroke="black" d="M2635.98,-73.811C2611.18,-63.3539 2578.04,-49.3787 2551.43,-38.1573"/>
<polygon fill="black" stroke="black" points="2552.52,-34.8199 2541.95,-34.1593 2549.8,-41.2699 2552.52,-34.8199"/>
</g>
<!-- d1 -->
<g id="node30" class="node"><title>d1</title>
<a xlink:href="0019213" xlink:title="GO:0019213 (1)">
<ellipse fill="#e98576" stroke="#e98576" cx="2679" cy="-18" rx="75.2018" ry="18"/>
<text text-anchor="middle" x="2679" y="-13.8" font-family="Times,serif" font-size="14.00">GO:0019213 (1)</text>
</a>
</g>
<!-- h0&#45;&gt;d1 -->
<g id="edge26" class="edge"><title>h0&#45;&gt;d1</title>
<path fill="none" stroke="black" d="M2673.73,-71.6966C2674.5,-63.9827 2675.43,-54.7125 2676.29,-46.1124"/>
<polygon fill="black" stroke="black" points="2679.78,-46.403 2677.29,-36.1043 2672.81,-45.7064 2679.78,-46.403"/>
</g>
<!-- t0 -->
<g id="node39" class="node"><title>t0</title>
<a xlink:href="0009055" xlink:title="GO:0009055 (9)">
<ellipse fill="#e98576" stroke="#e98576" cx="2855" cy="-18" rx="75.2018" ry="18"/>
<text text-anchor="middle" x="2855" y="-13.8" font-family="Times,serif" font-size="14.00">GO:0009055 (9)</text>
</a>
</g>
<!-- d0&#45;&gt;t0 -->
<g id="edge36" class="edge"><title>d0&#45;&gt;t0</title>
<path fill="none" stroke="black" d="M2855,-71.6966C2855,-63.9827 2855,-54.7125 2855,-46.1124"/>
<polygon fill="black" stroke="black" points="2858.5,-46.1043 2855,-36.1043 2851.5,-46.1044 2858.5,-46.1043"/>
</g>
</g>
</svg>
