<?xml version="1.0" encoding="UTF-8" standalone="no"?> 
<!DOCTYPE svg PUBLIC "-//W3C//DTD SVG 1.1//EN" 
 "http://www.w3.org/Graphics/SVG/1.1/DTD/svg11.dtd"> 
<!-- Generated by graphviz version 2.28.0 (20110622.2320) 
 --> 
<!-- Title: G Pages: 1 --> 
<svg width="2000" height="1000"  
 viewBox="-30 -50 2000 1000" xmlns="http://www.w3.org/2000/svg" xmlns:xlink="http://www.w3.org/1999/xlink"> 
<g id="graph1" class="graph" transform="scale(1 1) rotate(0) translate(4 400)"> 
<title>G</title> 
<polygon fill="white" stroke="white" points="-4,5 -4,-400 3823,-400 3823,5 -4,5"/> 
<!-- f0 --> 
<g id="node1" class="node"><title>f0</title> 
<ellipse fill="#e98576" stroke="#e98576" cx="861" cy="-306" rx="75.2018" ry="18"/> 
<a xlink:href="http://pir.georgetown.edu/cgi-bin/pt_graphvizView.pl?togoid=0003824" ><text id="GO:0003824" onmousemove="changeToText('GO:0003824')" onmouseout="changeBackText('GO:0003824')"  text-anchor="middle" x="861" y="-306.8" font-family="Times,serif" font-size="14.00">GO:0003824</text></a>
<a xlink:href="http://pir.georgetown.edu/cgi-bin/pt_graphvizView.pl?tofile=769385" ><text id="r769385" onmousemove="changeToText2('r769385', 5)" onmouseout="changeBackText2('r769385', 5)"  text-anchor="middle" x="861" y="-293.8" font-family="Times,serif" font-size="14.00">(5)</text>
 
</a> 
</g> 
<!-- w0 --> 
<g id="node3" class="node"><title>w0</title> 
<ellipse fill="#e98576" stroke="#e98576" cx="75" cy="-234" rx="75.2018" ry="18"/> 
<a xlink:href="http://pir.georgetown.edu/cgi-bin/pt_graphvizView.pl?togoid=0016853" ><text id="GO:0016853" onmousemove="changeToText('GO:0016853')" onmouseout="changeBackText('GO:0016853')"  text-anchor="middle" x="75" y="-234.8" font-family="Times,serif" font-size="14.00">GO:0016853</text></a>
<a xlink:href="http://pir.georgetown.edu/cgi-bin/pt_graphvizView.pl?tofile=769377" ><text id="r769377" onmousemove="changeToText2('r769377', 8)" onmouseout="changeBackText2('r769377', 8)"  text-anchor="middle" x="75" y="-221.8" font-family="Times,serif" font-size="14.00">(8)</text>
 
</a> 
</g> 
<!-- f0&#45;&gt;w0 --> 
<g id="edge2" class="edge"><title>f0&#45;&gt;w0</title> 
<path fill="none" stroke="black" d="M787.155,-302.446C658.871,-297.336 386.759,-283.52 159,-252 152.266,-251.068 145.261,-249.927 138.295,-248.682"/> 
<polygon fill="black" stroke="black" points="138.625,-245.183 128.153,-246.795 137.344,-252.065 138.625,-245.183"/> 
</g> 
<!-- e0 --> 
<g id="node15" class="node"><title>e0</title> 
<ellipse fill="#e98576" stroke="#e98576" cx="248" cy="-234" rx="79.4447" ry="18"/> 
<a xlink:href="http://pir.georgetown.edu/cgi-bin/pt_graphvizView.pl?togoid=0016787" ><text id="GO:0016787" onmousemove="changeToText('GO:0016787')" onmouseout="changeBackText('GO:0016787')"  text-anchor="middle" x="248" y="-234.8" font-family="Times,serif" font-size="14.00">GO:0016787</text></a>
<a xlink:href="http://pir.georgetown.edu/cgi-bin/pt_graphvizView.pl?tofile=769345" ><text id="r769345" onmousemove="changeToText2('r769345', 98)" onmouseout="changeBackText2('r769345', 98)"  text-anchor="middle" x="248" y="-221.8" font-family="Times,serif" font-size="14.00">(98)</text>
 
</a> 
</g> 
<!-- f0&#45;&gt;e0 --> 
<g id="edge18" class="edge"><title>f0&#45;&gt;e0</title> 
<path fill="none" stroke="black" d="M790.411,-299.843C689.545,-292.024 498.507,-275.546 337,-252 329.83,-250.955 322.359,-249.735 314.927,-248.438"/> 
<polygon fill="black" stroke="black" points="315.309,-244.951 304.849,-246.63 314.073,-251.841 315.309,-244.951"/> 
</g> 
<!-- o0 --> 
<g id="node24" class="node"><title>o0</title> 
<ellipse fill="#e98576" stroke="#e98576" cx="426" cy="-234" rx="79.4447" ry="18"/> 
<a xlink:href="http://pir.georgetown.edu/cgi-bin/pt_graphvizView.pl?togoid=0016874" ><text id="GO:0016874" onmousemove="changeToText('GO:0016874')" onmouseout="changeBackText('GO:0016874')"  text-anchor="middle" x="426" y="-234.8" font-family="Times,serif" font-size="14.00">GO:0016874</text></a>
<a xlink:href="http://pir.georgetown.edu/cgi-bin/pt_graphvizView.pl?tofile=769363" ><text id="r769363" onmousemove="changeToText2('r769363', 20)" onmouseout="changeBackText2('r769363', 20)"  text-anchor="middle" x="426" y="-221.8" font-family="Times,serif" font-size="14.00">(20)</text>
 
</a> 
</g> 
<!-- f0&#45;&gt;o0 --> 
<g id="edge22" class="edge"><title>f0&#45;&gt;o0</title> 
<path fill="none" stroke="black" d="M798.066,-296.069C728.641,-286.052 613.669,-268.975 515,-252 508.23,-250.835 501.179,-249.573 494.141,-248.281"/> 
<polygon fill="black" stroke="black" points="494.343,-244.759 483.872,-246.374 493.065,-251.641 494.343,-244.759"/> 
</g> 
<!-- l0 --> 
<g id="node28" class="node"><title>l0</title> 
<ellipse fill="#e98576" stroke="#e98576" cx="604" cy="-234" rx="79.4447" ry="18"/> 
<a xlink:href="http://pir.georgetown.edu/cgi-bin/pt_graphvizView.pl?togoid=0016491" ><text id="GO:0016491" onmousemove="changeToText('GO:0016491')" onmouseout="changeBackText('GO:0016491')"  text-anchor="middle" x="604" y="-234.8" font-family="Times,serif" font-size="14.00">GO:0016491</text></a>
<a xlink:href="http://pir.georgetown.edu/cgi-bin/pt_graphvizView.pl?tofile=769357" ><text id="r769357" onmousemove="changeToText2('r769357', 37)" onmouseout="changeBackText2('r769357', 37)"  text-anchor="middle" x="604" y="-221.8" font-family="Times,serif" font-size="14.00">(37)</text>
 
</a> 
</g> 
<!-- f0&#45;&gt;l0 --> 
<g id="edge26" class="edge"><title>f0&#45;&gt;l0</title> 
<path fill="none" stroke="black" d="M813.263,-291.998C770.663,-280.394 708.148,-263.367 662.543,-250.946"/> 
<polygon fill="black" stroke="black" points="663.36,-247.541 652.792,-248.29 661.521,-254.295 663.36,-247.541"/> 
</g> 
<!-- x0 --> 
<g id="node30" class="node"><title>x0</title> 
<ellipse fill="#e98576" stroke="#e98576" cx="777" cy="-234" rx="75.2018" ry="18"/> 
<a xlink:href="http://pir.georgetown.edu/cgi-bin/pt_graphvizView.pl?togoid=0004386" ><text id="GO:0004386" onmousemove="changeToText('GO:0004386')" onmouseout="changeBackText('GO:0004386')"  text-anchor="middle" x="777" y="-234.8" font-family="Times,serif" font-size="14.00">GO:0004386</text></a>
<a xlink:href="http://pir.georgetown.edu/cgi-bin/pt_graphvizView.pl?tofile=769379" ><text id="r769379" onmousemove="changeToText2('r769379', 7)" onmouseout="changeBackText2('r769379', 7)"  text-anchor="middle" x="777" y="-221.8" font-family="Times,serif" font-size="14.00">(7)</text>
 
</a> 
</g> 
<!-- f0&#45;&gt;x0 --> 
<g id="edge28" class="edge"><title>f0&#45;&gt;x0</title> 
<path fill="none" stroke="black" d="M841.093,-288.411C830.214,-279.345 816.569,-267.974 804.669,-258.057"/> 
<polygon fill="black" stroke="black" points="806.687,-255.183 796.764,-251.47 802.206,-260.561 806.687,-255.183"/> 
</g> 
<!-- f1 --> 
<g id="node47" class="node"><title>f1</title> 
<ellipse fill="#e98576" stroke="#e98576" cx="945" cy="-234" rx="75.2018" ry="18"/> 
<a xlink:href="http://pir.georgetown.edu/cgi-bin/pt_graphvizView.pl?togoid=0008641" ><text id="GO:0008641" onmousemove="changeToText('GO:0008641')" onmouseout="changeBackText('GO:0008641')"  text-anchor="middle" x="945" y="-234.8" font-family="Times,serif" font-size="14.00">GO:0008641</text></a>
<a xlink:href="http://pir.georgetown.edu/cgi-bin/pt_graphvizView.pl?tofile=769399" ><text id="r769399" onmousemove="changeToText2('r769399', 1)" onmouseout="changeBackText2('r769399', 1)"  text-anchor="middle" x="945" y="-221.8" font-family="Times,serif" font-size="14.00">(1)</text>
 
</a> 
</g> 
<!-- f0&#45;&gt;f1 --> 
<g id="edge44" class="edge"><title>f0&#45;&gt;f1</title> 
<path fill="none" stroke="black" d="M880.907,-288.411C891.786,-279.345 905.431,-267.974 917.331,-258.057"/> 
<polygon fill="black" stroke="black" points="919.794,-260.561 925.236,-251.47 915.313,-255.183 919.794,-260.561"/> 
</g> 
<!-- h1 --> 
<g id="node61" class="node"><title>h1</title> 
<ellipse fill="#e98576" stroke="#e98576" cx="1113" cy="-234" rx="75.2018" ry="18"/> 
<a xlink:href="http://pir.georgetown.edu/cgi-bin/pt_graphvizView.pl?togoid=0009975" ><text id="GO:0009975" onmousemove="changeToText('GO:0009975')" onmouseout="changeBackText('GO:0009975')"  text-anchor="middle" x="1113" y="-234.8" font-family="Times,serif" font-size="14.00">GO:0009975</text></a>
<a xlink:href="http://pir.georgetown.edu/cgi-bin/pt_graphvizView.pl?tofile=769403" ><text id="r769403" onmousemove="changeToText2('r769403', 1)" onmouseout="changeBackText2('r769403', 1)"  text-anchor="middle" x="1113" y="-221.8" font-family="Times,serif" font-size="14.00">(1)</text>
 
</a> 
</g> 
<!-- f0&#45;&gt;h1 --> 
<g id="edge58" class="edge"><title>f0&#45;&gt;h1</title> 
<path fill="none" stroke="black" d="M908.104,-291.916C949.955,-280.29 1011.24,-263.267 1055.87,-250.868"/> 
<polygon fill="black" stroke="black" points="1057,-254.188 1065.7,-248.139 1055.13,-247.443 1057,-254.188"/> 
</g> 
<!-- k0 --> 
<g id="node66" class="node"><title>k0</title> 
<ellipse fill="#e98576" stroke="#e98576" cx="1286" cy="-234" rx="79.4447" ry="18"/> 
<a xlink:href="http://pir.georgetown.edu/cgi-bin/pt_graphvizView.pl?togoid=0016740" ><text id="GO:0016740" onmousemove="changeToText('GO:0016740')" onmouseout="changeBackText('GO:0016740')"  text-anchor="middle" x="1286" y="-234.8" font-family="Times,serif" font-size="14.00">GO:0016740</text></a>
<a xlink:href="http://pir.georgetown.edu/cgi-bin/pt_graphvizView.pl?tofile=769355" ><text id="r769355" onmousemove="changeToText2('r769355', 46)" onmouseout="changeBackText2('r769355', 46)"  text-anchor="middle" x="1286" y="-221.8" font-family="Times,serif" font-size="14.00">(46)</text>
 
</a> 
</g> 
<!-- f0&#45;&gt;k0 --> 
<g id="edge64" class="edge"><title>f0&#45;&gt;k0</title> 
<path fill="none" stroke="black" d="M923.027,-295.829C990.529,-285.706 1101.59,-268.633 1197,-252 1203.66,-250.838 1210.6,-249.587 1217.53,-248.31"/> 
<polygon fill="black" stroke="black" points="1218.45,-251.698 1227.64,-246.426 1217.17,-244.816 1218.45,-251.698"/> 
</g> 
<!-- t0 --> 
<g id="node72" class="node"><title>t0</title> 
<ellipse fill="#e98576" stroke="#e98576" cx="1464" cy="-234" rx="79.4447" ry="18"/> 
<a xlink:href="http://pir.georgetown.edu/cgi-bin/pt_graphvizView.pl?togoid=0016829" ><text id="GO:0016829" onmousemove="changeToText('GO:0016829')" onmouseout="changeBackText('GO:0016829')"  text-anchor="middle" x="1464" y="-234.8" font-family="Times,serif" font-size="14.00">GO:0016829</text></a>
<a xlink:href="http://pir.georgetown.edu/cgi-bin/pt_graphvizView.pl?tofile=769371" ><text id="r769371" onmousemove="changeToText2('r769371', 10)" onmouseout="changeBackText2('r769371', 10)"  text-anchor="middle" x="1464" y="-221.8" font-family="Times,serif" font-size="14.00">(10)</text>
 
</a> 
</g> 
<!-- f0&#45;&gt;t0 --> 
<g id="edge70" class="edge"><title>f0&#45;&gt;t0</title> 
<path fill="none" stroke="black" d="M931.347,-299.609C1030.41,-291.592 1216.51,-274.968 1374,-252 1381.33,-250.931 1388.97,-249.688 1396.57,-248.37"/> 
<polygon fill="black" stroke="black" points="1397.27,-251.8 1406.51,-246.602 1396.05,-244.908 1397.27,-251.8"/> 
</g> 
<!-- c0 --> 
<g id="node4" class="node"><title>c0</title> 
<ellipse fill="#e98576" stroke="#e98576" cx="2850" cy="-378" rx="75.2018" ry="18"/> 
<a xlink:href="http://pir.georgetown.edu/cgi-bin/pt_graphvizView.pl?togoid=0003674" ><text id="GO:0003674" onmousemove="changeToText('GO:0003674')" onmouseout="changeBackText('GO:0003674')"  text-anchor="middle" x="2850" y="-378.8" font-family="Times,serif" font-size="14.00">GO:0003674</text></a>
<a xlink:href="http://pir.georgetown.edu/cgi-bin/pt_graphvizView.pl?tofile=769407" ><text id="r769407" onmousemove="changeToText2('r769407', 1)" onmouseout="changeBackText2('r769407', 1)"  text-anchor="middle" x="2850" y="-365.8" font-family="Times,serif" font-size="14.00">(1)</text>
 
</a> 
</g> 
<!-- c0&#45;&gt;f0 --> 
<g id="edge42" class="edge"><title>c0&#45;&gt;f0</title> 
<path fill="none" stroke="black" d="M2776.26,-374.405C2466.76,-363.512 1273.6,-321.521 945.128,-309.961"/> 
<polygon fill="black" stroke="black" points="944.852,-306.449 934.736,-309.595 944.606,-313.445 944.852,-306.449"/> 
</g> 
<!-- u0 --> 
<g id="node6" class="node"><title>u0</title> 
<ellipse fill="#e98576" stroke="#e98576" cx="2420" cy="-306" rx="75.2018" ry="18"/> 
<a xlink:href="http://pir.georgetown.edu/cgi-bin/pt_graphvizView.pl?togoid=0030234" ><text id="GO:0030234" onmousemove="changeToText('GO:0030234')" onmouseout="changeBackText('GO:0030234')"  text-anchor="middle" x="2420" y="-306.8" font-family="Times,serif" font-size="14.00">GO:0030234</text></a>
<a xlink:href="http://pir.georgetown.edu/cgi-bin/pt_graphvizView.pl?tofile=769373" ><text id="r769373" onmousemove="changeToText2('r769373', 9)" onmouseout="changeBackText2('r769373', 9)"  text-anchor="middle" x="2420" y="-293.8" font-family="Times,serif" font-size="14.00">(9)</text>
 
</a> 
</g> 
<!-- c0&#45;&gt;u0 --> 
<g id="edge4" class="edge"><title>c0&#45;&gt;u0</title> 
<path fill="none" stroke="black" d="M2786.71,-368.23C2717.22,-358.385 2602.43,-341.488 2504,-324 2497.75,-322.89 2491.25,-321.677 2484.76,-320.428"/> 
<polygon fill="black" stroke="black" points="2485.09,-316.926 2474.6,-318.443 2483.75,-323.796 2485.09,-316.926"/> 
</g> 
<!-- b0 --> 
<g id="node7" class="node"><title>b0</title> 
<ellipse fill="#e98576" stroke="#e98576" cx="2588" cy="-306" rx="75.2018" ry="18"/> 
<a xlink:href="http://pir.georgetown.edu/cgi-bin/pt_graphvizView.pl?togoid=0005488" ><text id="GO:0005488" onmousemove="changeToText('GO:0005488')" onmouseout="changeBackText('GO:0005488')"  text-anchor="middle" x="2588" y="-306.8" font-family="Times,serif" font-size="14.00">GO:0005488</text></a>
<a xlink:href="http://pir.georgetown.edu/cgi-bin/pt_graphvizView.pl?tofile=769389" ><text id="r769389" onmousemove="changeToText2('r769389', 3)" onmouseout="changeBackText2('r769389', 3)"  text-anchor="middle" x="2588" y="-293.8" font-family="Times,serif" font-size="14.00">(3)</text>
 
</a> 
</g> 
<!-- c0&#45;&gt;b0 --> 
<g id="edge12" class="edge"><title>c0&#45;&gt;b0</title> 
<path fill="none" stroke="black" d="M2801.95,-364.161C2757.95,-352.406 2692.75,-334.986 2645.9,-322.469"/> 
<polygon fill="black" stroke="black" points="2646.76,-319.076 2636.19,-319.876 2644.95,-325.839 2646.76,-319.076"/> 
</g> 
<!-- n0 --> 
<g id="node19" class="node"><title>n0</title> 
<ellipse fill="#e98576" stroke="#e98576" cx="2761" cy="-306" rx="79.4447" ry="18"/> 
<a xlink:href="http://pir.georgetown.edu/cgi-bin/pt_graphvizView.pl?togoid=0005215" ><text id="GO:0005215" onmousemove="changeToText('GO:0005215')" onmouseout="changeBackText('GO:0005215')"  text-anchor="middle" x="2761" y="-306.8" font-family="Times,serif" font-size="14.00">GO:0005215</text></a>
<a xlink:href="http://pir.georgetown.edu/cgi-bin/pt_graphvizView.pl?tofile=769361" ><text id="r769361" onmousemove="changeToText2('r769361', 23)" onmouseout="changeBackText2('r769361', 23)"  text-anchor="middle" x="2761" y="-293.8" font-family="Times,serif" font-size="14.00">(23)</text>
 
</a> 
</g> 
<!-- c0&#45;&gt;n0 --> 
<g id="edge16" class="edge"><title>c0&#45;&gt;n0</title> 
<path fill="none" stroke="black" d="M2828.91,-360.411C2817.27,-351.257 2802.65,-339.755 2789.95,-329.772"/> 
<polygon fill="black" stroke="black" points="2791.96,-326.901 2781.94,-323.47 2787.64,-332.403 2791.96,-326.901"/> 
</g> 
<!-- j0 --> 
<g id="node32" class="node"><title>j0</title> 
<ellipse fill="#e98576" stroke="#e98576" cx="2939" cy="-306" rx="79.4447" ry="18"/> 
<a xlink:href="http://pir.georgetown.edu/cgi-bin/pt_graphvizView.pl?togoid=0005198" ><text id="GO:0005198" onmousemove="changeToText('GO:0005198')" onmouseout="changeBackText('GO:0005198')"  text-anchor="middle" x="2939" y="-306.8" font-family="Times,serif" font-size="14.00">GO:0005198</text></a>
<a xlink:href="http://pir.georgetown.edu/cgi-bin/pt_graphvizView.pl?tofile=769353" ><text id="r769353" onmousemove="changeToText2('r769353', 52)" onmouseout="changeBackText2('r769353', 52)"  text-anchor="middle" x="2939" y="-293.8" font-family="Times,serif" font-size="14.00">(52)</text>
 
</a> 
</g> 
<!-- c0&#45;&gt;j0 --> 
<g id="edge30" class="edge"><title>c0&#45;&gt;j0</title> 
<path fill="none" stroke="black" d="M2871.09,-360.411C2882.73,-351.257 2897.35,-339.755 2910.05,-329.772"/> 
<polygon fill="black" stroke="black" points="2912.36,-332.403 2918.06,-323.47 2908.04,-326.901 2912.36,-332.403"/> 
</g> 
<!-- q0 --> 
<g id="node55" class="node"><title>q0</title> 
<ellipse fill="#e98576" stroke="#e98576" cx="3117" cy="-306" rx="79.4447" ry="18"/> 
<a xlink:href="http://pir.georgetown.edu/cgi-bin/pt_graphvizView.pl?togoid=0003774" ><text id="GO:0003774" onmousemove="changeToText('GO:0003774')" onmouseout="changeBackText('GO:0003774')"  text-anchor="middle" x="3117" y="-306.8" font-family="Times,serif" font-size="14.00">GO:0003774</text></a>
<a xlink:href="http://pir.georgetown.edu/cgi-bin/pt_graphvizView.pl?tofile=769367" ><text id="r769367" onmousemove="changeToText2('r769367', 14)" onmouseout="changeBackText2('r769367', 14)"  text-anchor="middle" x="3117" y="-293.8" font-family="Times,serif" font-size="14.00">(14)</text>
 
</a> 
</g> 
<!-- c0&#45;&gt;q0 --> 
<g id="edge52" class="edge"><title>c0&#45;&gt;q0</title> 
<path fill="none" stroke="black" d="M2898.66,-364.242C2943.18,-352.572 3009.18,-335.268 3056.96,-322.742"/> 
<polygon fill="black" stroke="black" points="3058.08,-326.067 3066.86,-320.145 3056.3,-319.296 3058.08,-326.067"/> 
</g> 
<!-- s0 --> 
<g id="node56" class="node"><title>s0</title> 
<a xlink:href="http://pir.georgetown.edu/cgi-bin/pt_graphvizView.pl?togoid=0060089" > 
<ellipse fill="#dddddd" stroke="#dddddd" cx="3276" cy="-306" rx="61.1934" ry="18"/> 
<a xlink:href="http://pir.georgetown.edu/cgi-bin/pt_graphvizView.pl?togoid=0060089" ><text id="GO:0060089" onmousemove="changeToText('GO:0060089')" onmouseout="changeBackText('GO:0060089')"  text-anchor="middle" x="3276" y="-301.8" font-family="Times,serif" font-size="14.00">GO:0060089</text></a>
 
</a> 
</g> 
<!-- c0&#45;&gt;s0 --> 
<g id="edge72" class="edge"><title>c0&#45;&gt;s0</title> 
<path fill="none" stroke="black" d="M2915.07,-369.009C2986.48,-359.839 3104.37,-343.521 3205,-324 3210.29,-322.974 3215.78,-321.82 3221.26,-320.609"/> 
<polygon fill="black" stroke="black" points="3222.08,-324.011 3231.06,-318.383 3220.53,-317.185 3222.08,-324.011"/> 
</g> 
<!-- v0 --> 
<g id="node59" class="node"><title>v0</title> 
<ellipse fill="#e98576" stroke="#e98576" cx="3431" cy="-306" rx="75.2018" ry="18"/> 
<a xlink:href="http://pir.georgetown.edu/cgi-bin/pt_graphvizView.pl?togoid=0016209" ><text id="GO:0016209" onmousemove="changeToText('GO:0016209')" onmouseout="changeBackText('GO:0016209')"  text-anchor="middle" x="3431" y="-306.8" font-family="Times,serif" font-size="14.00">GO:0016209</text></a>
<a xlink:href="http://pir.georgetown.edu/cgi-bin/pt_graphvizView.pl?tofile=769375" ><text id="r769375" onmousemove="changeToText2('r769375', 8)" onmouseout="changeBackText2('r769375', 8)"  text-anchor="middle" x="3431" y="-293.8" font-family="Times,serif" font-size="14.00">(8)</text>
 
</a> 
</g> 
<!-- c0&#45;&gt;v0 --> 
<g id="edge56" class="edge"><title>c0&#45;&gt;v0</title> 
<path fill="none" stroke="black" d="M2920.08,-371.533C3016.39,-363.561 3194.91,-347.132 3346,-324 3352.7,-322.975 3359.67,-321.784 3366.61,-320.519"/> 
<polygon fill="black" stroke="black" points="3367.53,-323.906 3376.72,-318.621 3366.24,-317.026 3367.53,-323.906"/> 
</g> 
<!-- d1 --> 
<g id="node9" class="node"><title>d1</title> 
<ellipse fill="#e98576" stroke="#e98576" cx="1637" cy="-234" rx="75.2018" ry="18"/> 
<a xlink:href="http://pir.georgetown.edu/cgi-bin/pt_graphvizView.pl?togoid=0042277" ><text id="GO:0042277" onmousemove="changeToText('GO:0042277')" onmouseout="changeBackText('GO:0042277')"  text-anchor="middle" x="1637" y="-234.8" font-family="Times,serif" font-size="14.00">GO:0042277</text></a>
<a xlink:href="http://pir.georgetown.edu/cgi-bin/pt_graphvizView.pl?tofile=769395" ><text id="r769395" onmousemove="changeToText2('r769395', 3)" onmouseout="changeBackText2('r769395', 3)"  text-anchor="middle" x="1637" y="-221.8" font-family="Times,serif" font-size="14.00">(3)</text>
 
</a> 
</g> 
<!-- b0&#45;&gt;d1 --> 
<g id="edge6" class="edge"><title>b0&#45;&gt;d1</title> 
<path fill="none" stroke="black" d="M2535.33,-293.053C2524.99,-291.072 2514.19,-289.258 2504,-288 2158.26,-245.323 2066.74,-294.677 1721,-252 1714.15,-251.155 1707.03,-250.059 1699.96,-248.829"/> 
<polygon fill="black" stroke="black" points="1700.14,-245.304 1689.67,-246.947 1698.88,-252.19 1700.14,-245.304"/> 
</g> 
<!-- h0 --> 
<g id="node11" class="node"><title>h0</title> 
<ellipse fill="#e98576" stroke="#e98576" cx="1810" cy="-234" rx="79.4447" ry="18"/> 
<a xlink:href="http://pir.georgetown.edu/cgi-bin/pt_graphvizView.pl?togoid=0005515" ><text id="GO:0005515" onmousemove="changeToText('GO:0005515')" onmouseout="changeBackText('GO:0005515')"  text-anchor="middle" x="1810" y="-234.8" font-family="Times,serif" font-size="14.00">GO:0005515</text></a>
<a xlink:href="http://pir.georgetown.edu/cgi-bin/pt_graphvizView.pl?tofile=769349" ><text id="r769349" onmousemove="changeToText2('r769349', 65)" onmouseout="changeBackText2('r769349', 65)"  text-anchor="middle" x="1810" y="-221.8" font-family="Times,serif" font-size="14.00">(65)</text>
 
</a> 
</g> 
<!-- b0&#45;&gt;h0 --> 
<g id="edge8" class="edge"><title>b0&#45;&gt;h0</title> 
<path fill="none" stroke="black" d="M2535.31,-293.162C2524.98,-291.173 2514.18,-289.326 2504,-288 2236.89,-253.199 2166.29,-285.339 1899,-252 1891.43,-251.055 1883.53,-249.858 1875.7,-248.538"/> 
<polygon fill="black" stroke="black" points="1876.3,-245.091 1865.85,-246.81 1875.09,-251.986 1876.3,-245.091"/> 
</g> 
<!-- e1 --> 
<g id="node13" class="node"><title>e1</title> 
<ellipse fill="#e98576" stroke="#e98576" cx="1983" cy="-234" rx="75.2018" ry="18"/> 
<a xlink:href="http://pir.georgetown.edu/cgi-bin/pt_graphvizView.pl?togoid=0043021" ><text id="GO:0043021" onmousemove="changeToText('GO:0043021')" onmouseout="changeBackText('GO:0043021')"  text-anchor="middle" x="1983" y="-234.8" font-family="Times,serif" font-size="14.00">GO:0043021</text></a>
<a xlink:href="http://pir.georgetown.edu/cgi-bin/pt_graphvizView.pl?tofile=769397" ><text id="r769397" onmousemove="changeToText2('r769397', 2)" onmouseout="changeBackText2('r769397', 2)"  text-anchor="middle" x="1983" y="-221.8" font-family="Times,serif" font-size="14.00">(2)</text>
 
</a> 
</g> 
<!-- b0&#45;&gt;e1 --> 
<g id="edge10" class="edge"><title>b0&#45;&gt;e1</title> 
<path fill="none" stroke="black" d="M2534.84,-293.261C2524.64,-291.287 2514.02,-289.421 2504,-288 2311.05,-260.625 2259.95,-279.375 2067,-252 2060.27,-251.045 2053.27,-249.89 2046.3,-248.635"/> 
<polygon fill="black" stroke="black" points="2046.63,-245.137 2036.16,-246.739 2045.35,-252.018 2046.63,-245.137"/> 
</g> 
<!-- y0 --> 
<g id="node22" class="node"><title>y0</title> 
<ellipse fill="#e98576" stroke="#e98576" cx="2151" cy="-234" rx="75.2018" ry="18"/> 
<a xlink:href="http://pir.georgetown.edu/cgi-bin/pt_graphvizView.pl?togoid=0030246" ><text id="GO:0030246" onmousemove="changeToText('GO:0030246')" onmouseout="changeBackText('GO:0030246')"  text-anchor="middle" x="2151" y="-234.8" font-family="Times,serif" font-size="14.00">GO:0030246</text></a>
<a xlink:href="http://pir.georgetown.edu/cgi-bin/pt_graphvizView.pl?tofile=769381" ><text id="r769381" onmousemove="changeToText2('r769381', 6)" onmouseout="changeBackText2('r769381', 6)"  text-anchor="middle" x="2151" y="-221.8" font-family="Times,serif" font-size="14.00">(6)</text>
 
</a> 
</g> 
<!-- b0&#45;&gt;y0 --> 
<g id="edge20" class="edge"><title>b0&#45;&gt;y0</title> 
<path fill="none" stroke="black" d="M2533.87,-293.494C2523.96,-291.544 2513.68,-289.626 2504,-288 2385.04,-268.026 2353.96,-271.974 2235,-252 2228.49,-250.907 2221.72,-249.683 2214.97,-248.406"/> 
<polygon fill="black" stroke="black" points="2215.61,-244.965 2205.13,-246.506 2214.28,-251.838 2215.61,-244.965"/> 
</g> 
<!-- i0 --> 
<g id="node26" class="node"><title>i0</title> 
<ellipse fill="#e98576" stroke="#e98576" cx="2324" cy="-234" rx="79.4447" ry="18"/> 
<a xlink:href="http://pir.georgetown.edu/cgi-bin/pt_graphvizView.pl?togoid=0003676" ><text id="GO:0003676" onmousemove="changeToText('GO:0003676')" onmouseout="changeBackText('GO:0003676')"  text-anchor="middle" x="2324" y="-234.8" font-family="Times,serif" font-size="14.00">GO:0003676</text></a>
<a xlink:href="http://pir.georgetown.edu/cgi-bin/pt_graphvizView.pl?tofile=769351" ><text id="r769351" onmousemove="changeToText2('r769351', 53)" onmouseout="changeBackText2('r769351', 53)"  text-anchor="middle" x="2324" y="-221.8" font-family="Times,serif" font-size="14.00">(53)</text>
 
</a> 
</g> 
<!-- b0&#45;&gt;i0 --> 
<g id="edge24" class="edge"><title>b0&#45;&gt;i0</title> 
<path fill="none" stroke="black" d="M2539.58,-292.161C2495.52,-280.48 2430.37,-263.205 2383.23,-250.705"/> 
<polygon fill="black" stroke="black" points="2384.02,-247.294 2373.46,-248.114 2382.23,-254.06 2384.02,-247.294"/> 
</g> 
<!-- p0 --> 
<g id="node34" class="node"><title>p0</title> 
<ellipse fill="#e98576" stroke="#e98576" cx="2502" cy="-234" rx="79.4447" ry="18"/> 
<a xlink:href="http://pir.georgetown.edu/cgi-bin/pt_graphvizView.pl?togoid=0048037" ><text id="GO:0048037" onmousemove="changeToText('GO:0048037')" onmouseout="changeBackText('GO:0048037')"  text-anchor="middle" x="2502" y="-234.8" font-family="Times,serif" font-size="14.00">GO:0048037</text></a>
<a xlink:href="http://pir.georgetown.edu/cgi-bin/pt_graphvizView.pl?tofile=769365" ><text id="r769365" onmousemove="changeToText2('r769365', 18)" onmouseout="changeBackText2('r769365', 18)"  text-anchor="middle" x="2502" y="-221.8" font-family="Times,serif" font-size="14.00">(18)</text>
 
</a> 
</g> 
<!-- b0&#45;&gt;p0 --> 
<g id="edge32" class="edge"><title>b0&#45;&gt;p0</title> 
<path fill="none" stroke="black" d="M2567.62,-288.411C2556.48,-279.345 2542.51,-267.974 2530.33,-258.057"/> 
<polygon fill="black" stroke="black" points="2532.2,-255.068 2522.23,-251.47 2527.78,-260.497 2532.2,-255.068"/> 
</g> 
<!-- z0 --> 
<g id="node39" class="node"><title>z0</title> 
<ellipse fill="#e98576" stroke="#e98576" cx="2675" cy="-234" rx="75.2018" ry="18"/> 
<a xlink:href="http://pir.georgetown.edu/cgi-bin/pt_graphvizView.pl?togoid=0008289" ><text id="GO:0008289" onmousemove="changeToText('GO:0008289')" onmouseout="changeBackText('GO:0008289')"  text-anchor="middle" x="2675" y="-234.8" font-family="Times,serif" font-size="14.00">GO:0008289</text></a>
<a xlink:href="http://pir.georgetown.edu/cgi-bin/pt_graphvizView.pl?tofile=769383" ><text id="r769383" onmousemove="changeToText2('r769383', 5)" onmouseout="changeBackText2('r769383', 5)"  text-anchor="middle" x="2675" y="-221.8" font-family="Times,serif" font-size="14.00">(5)</text>
 
</a> 
</g> 
<!-- b0&#45;&gt;z0 --> 
<g id="edge36" class="edge"><title>b0&#45;&gt;z0</title> 
<path fill="none" stroke="black" d="M2608.62,-288.411C2619.99,-279.257 2634.29,-267.755 2646.7,-257.772"/> 
<polygon fill="black" stroke="black" points="2648.93,-260.466 2654.53,-251.47 2644.54,-255.012 2648.93,-260.466"/> 
</g> 
<!-- g0 --> 
<g id="node49" class="node"><title>g0</title> 
<ellipse fill="#e98576" stroke="#e98576" cx="2848" cy="-234" rx="79.4447" ry="18"/> 
<a xlink:href="http://pir.georgetown.edu/cgi-bin/pt_graphvizView.pl?togoid=0001882" ><text id="GO:0001882" onmousemove="changeToText('GO:0001882')" onmouseout="changeBackText('GO:0001882')"  text-anchor="middle" x="2848" y="-234.8" font-family="Times,serif" font-size="14.00">GO:0001882</text></a>
<a xlink:href="http://pir.georgetown.edu/cgi-bin/pt_graphvizView.pl?tofile=769347" ><text id="r769347" onmousemove="changeToText2('r769347', 66)" onmouseout="changeBackText2('r769347', 66)"  text-anchor="middle" x="2848" y="-221.8" font-family="Times,serif" font-size="14.00">(66)</text>
 
</a> 
</g> 
<!-- b0&#45;&gt;g0 --> 
<g id="edge46" class="edge"><title>b0&#45;&gt;g0</title> 
<path fill="none" stroke="black" d="M2635.99,-292.079C2679.19,-280.449 2742.8,-263.322 2789.07,-250.865"/> 
<polygon fill="black" stroke="black" points="2790.22,-254.181 2798.96,-248.202 2788.4,-247.422 2790.22,-254.181"/> 
</g> 
<!-- d0 --> 
<g id="node51" class="node"><title>d0</title> 
<ellipse fill="#e98576" stroke="#e98576" cx="3031" cy="-234" rx="84.1886" ry="18"/> 
<a xlink:href="http://pir.georgetown.edu/cgi-bin/pt_graphvizView.pl?togoid=0008144" ><text id="GO:0008144" onmousemove="changeToText('GO:0008144')" onmouseout="changeBackText('GO:0008144')"  text-anchor="middle" x="3031" y="-234.8" font-family="Times,serif" font-size="14.00">GO:0008144</text></a>
<a xlink:href="http://pir.georgetown.edu/cgi-bin/pt_graphvizView.pl?tofile=769343" ><text id="r769343" onmousemove="changeToText2('r769343', 122)" onmouseout="changeBackText2('r769343', 122)"  text-anchor="middle" x="3031" y="-221.8" font-family="Times,serif" font-size="14.00">(122)</text>
 
</a> 
</g> 
<!-- b0&#45;&gt;d0 --> 
<g id="edge48" class="edge"><title>b0&#45;&gt;d0</title> 
<path fill="none" stroke="black" d="M2642.13,-293.514C2652.04,-291.562 2662.32,-289.638 2672,-288 2788.76,-268.245 2819.02,-270.434 2936,-252 2943.62,-250.799 2951.58,-249.48 2959.5,-248.124"/> 
<polygon fill="black" stroke="black" points="2960.23,-251.549 2969.48,-246.393 2959.03,-244.652 2960.23,-251.549"/> 
</g> 
<!-- g1 --> 
<g id="node53" class="node"><title>g1</title> 
<ellipse fill="#e98576" stroke="#e98576" cx="3209" cy="-234" rx="75.2018" ry="18"/> 
<a xlink:href="http://pir.georgetown.edu/cgi-bin/pt_graphvizView.pl?togoid=0019842" ><text id="GO:0019842" onmousemove="changeToText('GO:0019842')" onmouseout="changeBackText('GO:0019842')"  text-anchor="middle" x="3209" y="-234.8" font-family="Times,serif" font-size="14.00">GO:0019842</text></a>
<a xlink:href="http://pir.georgetown.edu/cgi-bin/pt_graphvizView.pl?tofile=769401" ><text id="r769401" onmousemove="changeToText2('r769401', 1)" onmouseout="changeBackText2('r769401', 1)"  text-anchor="middle" x="3209" y="-221.8" font-family="Times,serif" font-size="14.00">(1)</text>
 
</a> 
</g> 
<!-- b0&#45;&gt;g1 --> 
<g id="edge50" class="edge"><title>b0&#45;&gt;g1</title> 
<path fill="none" stroke="black" d="M2641.16,-293.239C2651.36,-291.267 2661.98,-289.408 2672,-288 2871.57,-259.962 2924.4,-279.809 3124,-252 3131.07,-251.015 3138.44,-249.811 3145.75,-248.504"/> 
<polygon fill="black" stroke="black" points="3146.47,-251.931 3155.66,-246.667 3145.19,-245.049 3146.47,-251.931"/> 
</g> 
<!-- c1 --> 
<g id="node68" class="node"><title>c1</title> 
<ellipse fill="#e98576" stroke="#e98576" cx="3377" cy="-234" rx="75.2018" ry="18"/> 
<a xlink:href="http://pir.georgetown.edu/cgi-bin/pt_graphvizView.pl?togoid=0046906" ><text id="GO:0046906" onmousemove="changeToText('GO:0046906')" onmouseout="changeBackText('GO:0046906')"  text-anchor="middle" x="3377" y="-234.8" font-family="Times,serif" font-size="14.00">GO:0046906</text></a>
<a xlink:href="http://pir.georgetown.edu/cgi-bin/pt_graphvizView.pl?tofile=769393" ><text id="r769393" onmousemove="changeToText2('r769393', 3)" onmouseout="changeBackText2('r769393', 3)"  text-anchor="middle" x="3377" y="-221.8" font-family="Times,serif" font-size="14.00">(3)</text>
 
</a> 
</g> 
<!-- b0&#45;&gt;c1 --> 
<g id="edge66" class="edge"><title>b0&#45;&gt;c1</title> 
<path fill="none" stroke="black" d="M2640.68,-293.15C2651.02,-291.161 2661.82,-289.319 2672,-288 2946.17,-252.491 3018.83,-287.509 3293,-252 3299.84,-251.114 3306.96,-249.991 3314.03,-248.747"/> 
<polygon fill="black" stroke="black" points="3315.12,-252.106 3324.32,-246.85 3313.85,-245.222 3315.12,-252.106"/> 
</g> 
<!-- a0 --> 
<g id="node70" class="node"><title>a0</title> 
<ellipse fill="#e98576" stroke="#e98576" cx="3555" cy="-234" rx="84.1886" ry="18"/> 
<a xlink:href="http://pir.georgetown.edu/cgi-bin/pt_graphvizView.pl?togoid=0000166" ><text id="GO:0000166" onmousemove="changeToText('GO:0000166')" onmouseout="changeBackText('GO:0000166')"  text-anchor="middle" x="3555" y="-234.8" font-family="Times,serif" font-size="14.00">GO:0000166</text></a>
<a xlink:href="http://pir.georgetown.edu/cgi-bin/pt_graphvizView.pl?tofile=769341" ><text id="r769341" onmousemove="changeToText2('r769341', 201)" onmouseout="changeBackText2('r769341', 201)"  text-anchor="middle" x="3555" y="-221.8" font-family="Times,serif" font-size="14.00">(201)</text>
 
</a> 
</g> 
<!-- b0&#45;&gt;a0 --> 
<g id="edge68" class="edge"><title>b0&#45;&gt;a0</title> 
<path fill="none" stroke="black" d="M2640.67,-293.05C2651.01,-291.07 2661.81,-289.256 2672,-288 3020.39,-245.057 3112.18,-291.323 3461,-252 3469.08,-251.089 3477.52,-249.902 3485.88,-248.58"/> 
<polygon fill="black" stroke="black" points="3486.71,-251.99 3496.01,-246.909 3485.57,-245.084 3486.71,-251.99"/> 
</g> 
<!-- m0 --> 
<g id="node17" class="node"><title>m0</title> 
<ellipse fill="#e98576" stroke="#e98576" cx="248" cy="-162" rx="79.4447" ry="18"/> 
<a xlink:href="http://pir.georgetown.edu/cgi-bin/pt_graphvizView.pl?togoid=0008233" ><text id="GO:0008233" onmousemove="changeToText('GO:0008233')" onmouseout="changeBackText('GO:0008233')"  text-anchor="middle" x="248" y="-162.8" font-family="Times,serif" font-size="14.00">GO:0008233</text></a>
<a xlink:href="http://pir.georgetown.edu/cgi-bin/pt_graphvizView.pl?tofile=769359" ><text id="r769359" onmousemove="changeToText2('r769359', 29)" onmouseout="changeBackText2('r769359', 29)"  text-anchor="middle" x="248" y="-149.8" font-family="Times,serif" font-size="14.00">(29)</text>
 
</a> 
</g> 
<!-- e0&#45;&gt;m0 --> 
<g id="edge14" class="edge"><title>e0&#45;&gt;m0</title> 
<path fill="none" stroke="black" d="M248,-215.697C248,-207.983 248,-198.712 248,-190.112"/> 
<polygon fill="black" stroke="black" points="251.5,-190.104 248,-180.104 244.5,-190.104 251.5,-190.104"/> 
</g> 
<!-- k1 --> 
<g id="node41" class="node"><title>k1</title> 
<a xlink:href="http://pir.georgetown.edu/cgi-bin/pt_graphvizView.pl?togoid=0016879" > 
<ellipse fill="#dddddd" stroke="#dddddd" cx="426" cy="-162" rx="61.1934" ry="18"/> 
<a xlink:href="http://pir.georgetown.edu/cgi-bin/pt_graphvizView.pl?togoid=0016879" ><text id="GO:0016879" onmousemove="changeToText('GO:0016879')" onmouseout="changeBackText('GO:0016879')"  text-anchor="middle" x="426" y="-157.8" font-family="Times,serif" font-size="14.00">GO:0016879</text></a>
 
</a> 
</g> 
<!-- o0&#45;&gt;k1 --> 
<g id="edge38" class="edge"><title>o0&#45;&gt;k1</title> 
<path fill="none" stroke="black" d="M426,-215.697C426,-207.983 426,-198.712 426,-190.112"/> 
<polygon fill="black" stroke="black" points="429.5,-190.104 426,-180.104 422.5,-190.104 429.5,-190.104"/> 
</g> 
<!-- a1 --> 
<g id="node64" class="node"><title>a1</title> 
<ellipse fill="#e98576" stroke="#e98576" cx="604" cy="-162" rx="75.2018" ry="18"/> 
<a xlink:href="http://pir.georgetown.edu/cgi-bin/pt_graphvizView.pl?togoid=0009055" ><text id="GO:0009055" onmousemove="changeToText('GO:0009055')" onmouseout="changeBackText('GO:0009055')"  text-anchor="middle" x="604" y="-162.8" font-family="Times,serif" font-size="14.00">GO:0009055</text></a>
<a xlink:href="http://pir.georgetown.edu/cgi-bin/pt_graphvizView.pl?tofile=769387" ><text id="r769387" onmousemove="changeToText2('r769387', 3)" onmouseout="changeBackText2('r769387', 3)"  text-anchor="middle" x="604" y="-149.8" font-family="Times,serif" font-size="14.00">(3)</text>
 
</a> 
</g> 
<!-- l0&#45;&gt;a1 --> 
<g id="edge62" class="edge"><title>l0&#45;&gt;a1</title> 
<path fill="none" stroke="black" d="M604,-215.697C604,-207.983 604,-198.712 604,-190.112"/> 
<polygon fill="black" stroke="black" points="607.5,-190.104 604,-180.104 600.5,-190.104 607.5,-190.104"/> 
</g> 
<!-- r0 --> 
<g id="node35" class="node"><title>r0</title> 
<ellipse fill="#e98576" stroke="#e98576" cx="3738" cy="-234" rx="79.4447" ry="18"/> 
<a xlink:href="http://pir.georgetown.edu/cgi-bin/pt_graphvizView.pl?togoid=0004871" ><text id="GO:0004871" onmousemove="changeToText('GO:0004871')" onmouseout="changeBackText('GO:0004871')"  text-anchor="middle" x="3738" y="-234.8" font-family="Times,serif" font-size="14.00">GO:0004871</text></a>
<a xlink:href="http://pir.georgetown.edu/cgi-bin/pt_graphvizView.pl?tofile=769369" ><text id="r769369" onmousemove="changeToText2('r769369', 12)" onmouseout="changeBackText2('r769369', 12)"  text-anchor="middle" x="3738" y="-221.8" font-family="Times,serif" font-size="14.00">(12)</text>
 
</a> 
</g> 
<!-- b1 --> 
<g id="node37" class="node"><title>b1</title> 
<ellipse fill="#e98576" stroke="#e98576" cx="3738" cy="-162" rx="75.2018" ry="18"/> 
<a xlink:href="http://pir.georgetown.edu/cgi-bin/pt_graphvizView.pl?togoid=0004872" ><text id="GO:0004872" onmousemove="changeToText('GO:0004872')" onmouseout="changeBackText('GO:0004872')"  text-anchor="middle" x="3738" y="-162.8" font-family="Times,serif" font-size="14.00">GO:0004872</text></a>
<a xlink:href="http://pir.georgetown.edu/cgi-bin/pt_graphvizView.pl?tofile=769391" ><text id="r769391" onmousemove="changeToText2('r769391', 3)" onmouseout="changeBackText2('r769391', 3)"  text-anchor="middle" x="3738" y="-149.8" font-family="Times,serif" font-size="14.00">(3)</text>
 
</a> 
</g> 
<!-- r0&#45;&gt;b1 --> 
<g id="edge34" class="edge"><title>r0&#45;&gt;b1</title> 
<path fill="none" stroke="black" d="M3738,-215.697C3738,-207.983 3738,-198.712 3738,-190.112"/> 
<polygon fill="black" stroke="black" points="3741.5,-190.104 3738,-180.104 3734.5,-190.104 3741.5,-190.104"/> 
</g> 
<!-- j1 --> 
<g id="node42" class="node"><title>j1</title> 
<a xlink:href="http://pir.georgetown.edu/cgi-bin/pt_graphvizView.pl?togoid=0016881" > 
<ellipse fill="#dddddd" stroke="#dddddd" cx="426" cy="-90" rx="61.1934" ry="18"/> 
<a xlink:href="http://pir.georgetown.edu/cgi-bin/pt_graphvizView.pl?togoid=0016881" ><text id="GO:0016881" onmousemove="changeToText('GO:0016881')" onmouseout="changeBackText('GO:0016881')"  text-anchor="middle" x="426" y="-85.8" font-family="Times,serif" font-size="14.00">GO:0016881</text></a>
 
</a> 
</g> 
<!-- k1&#45;&gt;j1 --> 
<g id="edge60" class="edge"><title>k1&#45;&gt;j1</title> 
<path fill="none" stroke="black" d="M426,-143.697C426,-135.983 426,-126.712 426,-118.112"/> 
<polygon fill="black" stroke="black" points="429.5,-118.104 426,-108.104 422.5,-118.104 429.5,-118.104"/> 
</g> 
<!-- i1 --> 
<g id="node44" class="node"><title>i1</title> 
<ellipse fill="#e98576" stroke="#e98576" cx="426" cy="-18" rx="75.2018" ry="18"/> 
<a xlink:href="http://pir.georgetown.edu/cgi-bin/pt_graphvizView.pl?togoid=0019787" ><text id="GO:0019787" onmousemove="changeToText('GO:0019787')" onmouseout="changeBackText('GO:0019787')"  text-anchor="middle" x="426" y="-18.8" font-family="Times,serif" font-size="14.00">GO:0019787</text></a>
<a xlink:href="http://pir.georgetown.edu/cgi-bin/pt_graphvizView.pl?tofile=769405" ><text id="r769405" onmousemove="changeToText2('r769405', 1)" onmouseout="changeBackText2('r769405', 1)"  text-anchor="middle" x="426" y="-5.8" font-family="Times,serif" font-size="14.00">(1)</text>
 
</a> 
</g> 
<!-- j1&#45;&gt;i1 --> 
<g id="edge40" class="edge"><title>j1&#45;&gt;i1</title> 
<path fill="none" stroke="black" d="M426,-71.6966C426,-63.9827 426,-54.7125 426,-46.1124"/> 
<polygon fill="black" stroke="black" points="429.5,-46.1043 426,-36.1043 422.5,-46.1044 429.5,-46.1043"/> 
</g> 
<!-- s0&#45;&gt;r0 --> 
<g id="edge54" class="edge"><title>s0&#45;&gt;r0</title> 
<path fill="none" stroke="black" d="M3320.53,-293.505C3329.26,-291.485 3338.39,-289.54 3347,-288 3479.63,-264.274 3514.84,-272.515 3648,-252 3655.32,-250.872 3662.96,-249.592 3670.55,-248.252"/> 
<polygon fill="black" stroke="black" points="3671.26,-251.68 3680.49,-246.464 3670.02,-244.791 3671.26,-251.68"/> 
</g> 
</g> 
<text text-anchor="left" x="4" y="-20" style="font-family:Arial Narrow;font-size:20.00;font-weight:bold;">GO Hierarchical View:</text> 

<text text-anchor="left" x="4" y="0" style="font-family:Arial Narrow;font-size:20.00;font-style:italic;">molecular function</text> 

<script type="text/ecmascript"> 
<![CDATA[ 
var targetText; 
function changeToText(z) { 
		targetText = svgDocument.getElementById(z).firstChild; 
		targetText.nodeValue="link to "+z; 
} 
function changeBackText(z) { 
		targetText = svgDocument.getElementById(z).firstChild; 
		targetText.nodeValue=z; 
} 
function changeToText2(z,n) { 
		targetText = svgDocument.getElementById(z).firstChild; 
		if (n<=1) { 
			targetText.nodeValue="link to " + n + " protein record"; 
		} else { 
			targetText.nodeValue="link to " + n + " protein records"; 
		} 
} 
function changeBackText2(z,n) { 
		targetText = svgDocument.getElementById(z).firstChild; 
		targetText.nodeValue="(" + n + ")"; 
} 
// ]]> 
</script> 
</svg> 
