<?xml version="1.0" encoding="UTF-8" standalone="no"?>
<!DOCTYPE svg PUBLIC "-//W3C//DTD SVG 1.1//EN"
 "http://www.w3.org/Graphics/SVG/1.1/DTD/svg11.dtd">
<!-- Generated by graphviz version 2.28.0 (20110622.2320)
 -->
<!-- Title: G Pages: 1 -->
<svg width="3578pt" height="260pt"
 viewBox="0.00 0.00 3578.00 260.00" xmlns="http://www.w3.org/2000/svg" xmlns:xlink="http://www.w3.org/1999/xlink">
<g id="graph1" class="graph" transform="scale(1 1) rotate(0) translate(4 256)">
<title>G</title>
<polygon fill="white" stroke="white" points="-4,5 -4,-256 3575,-256 3575,5 -4,5"/>
<!-- g0 -->
<g id="node1" class="node"><title>g0</title>
<a xlink:href="0003824" xlink:title="GO:0003824 (4)">
<ellipse fill="#e98576" stroke="#e98576" cx="421" cy="-162" rx="75.2018" ry="18"/>
<text text-anchor="middle" x="421" y="-157.8" font-family="Times,serif" font-size="14.00">GO:0003824 (4)</text>
</a>
</g>
<!-- r0 -->
<g id="node3" class="node"><title>r0</title>
<a xlink:href="0016853" xlink:title="GO:0016853 (3)">
<ellipse fill="#e98576" stroke="#e98576" cx="75" cy="-90" rx="75.2018" ry="18"/>
<text text-anchor="middle" x="75" y="-85.8" font-family="Times,serif" font-size="14.00">GO:0016853 (3)</text>
</a>
</g>
<!-- g0&#45;&gt;r0 -->
<g id="edge2" class="edge"><title>g0&#45;&gt;r0</title>
<path fill="none" stroke="black" d="M365.409,-149.753C304.121,-137.354 205.608,-117.424 140.59,-104.27"/>
<polygon fill="black" stroke="black" points="140.948,-100.771 130.453,-102.219 139.56,-107.632 140.948,-100.771"/>
</g>
<!-- f0 -->
<g id="node15" class="node"><title>f0</title>
<a xlink:href="0016787" xlink:title="GO:0016787 (15)">
<ellipse fill="#e98576" stroke="#e98576" cx="248" cy="-90" rx="79.4447" ry="18"/>
<text text-anchor="middle" x="248" y="-85.8" font-family="Times,serif" font-size="14.00">GO:0016787 (15)</text>
</a>
</g>
<!-- g0&#45;&gt;f0 -->
<g id="edge20" class="edge"><title>g0&#45;&gt;f0</title>
<path fill="none" stroke="black" d="M384.311,-146.155C358.138,-135.564 322.734,-121.239 294.568,-109.842"/>
<polygon fill="black" stroke="black" points="295.517,-106.451 284.934,-105.944 292.891,-112.94 295.517,-106.451"/>
</g>
<!-- m0 -->
<g id="node30" class="node"><title>m0</title>
<a xlink:href="0016491" xlink:title="GO:0016491 (7)">
<ellipse fill="#e98576" stroke="#e98576" cx="421" cy="-90" rx="75.2018" ry="18"/>
<text text-anchor="middle" x="421" y="-85.8" font-family="Times,serif" font-size="14.00">GO:0016491 (7)</text>
</a>
</g>
<!-- g0&#45;&gt;m0 -->
<g id="edge28" class="edge"><title>g0&#45;&gt;m0</title>
<path fill="none" stroke="black" d="M421,-143.697C421,-135.983 421,-126.712 421,-118.112"/>
<polygon fill="black" stroke="black" points="424.5,-118.104 421,-108.104 417.5,-118.104 424.5,-118.104"/>
</g>
<!-- c1 -->
<g id="node60" class="node"><title>c1</title>
<a xlink:href="0016740" xlink:title="GO:0016740 (1)">
<ellipse fill="#e98576" stroke="#e98576" cx="589" cy="-90" rx="75.2018" ry="18"/>
<text text-anchor="middle" x="589" y="-85.8" font-family="Times,serif" font-size="14.00">GO:0016740 (1)</text>
</a>
</g>
<!-- g0&#45;&gt;c1 -->
<g id="edge58" class="edge"><title>g0&#45;&gt;c1</title>
<path fill="none" stroke="black" d="M456.628,-146.155C482.046,-135.564 516.426,-121.239 543.778,-109.842"/>
<polygon fill="black" stroke="black" points="545.249,-113.021 553.134,-105.944 542.557,-106.56 545.249,-113.021"/>
</g>
<!-- c0 -->
<g id="node4" class="node"><title>c0</title>
<a xlink:href="0003674" xlink:title="GO:0003674 (3)">
<ellipse fill="#e98576" stroke="#e98576" cx="2383" cy="-234" rx="75.2018" ry="18"/>
<text text-anchor="middle" x="2383" y="-229.8" font-family="Times,serif" font-size="14.00">GO:0003674 (3)</text>
</a>
</g>
<!-- c0&#45;&gt;g0 -->
<g id="edge42" class="edge"><title>c0&#45;&gt;g0</title>
<path fill="none" stroke="black" d="M2309.37,-230.373C2003,-219.442 830.006,-177.592 504.948,-165.995"/>
<polygon fill="black" stroke="black" points="504.78,-162.487 494.661,-165.628 504.53,-169.482 504.78,-162.487"/>
</g>
<!-- h0 -->
<g id="node6" class="node"><title>h0</title>
<a xlink:href="0030234" xlink:title="GO:0030234 (14)">
<ellipse fill="#e98576" stroke="#e98576" cx="1874" cy="-162" rx="79.4447" ry="18"/>
<text text-anchor="middle" x="1874" y="-157.8" font-family="Times,serif" font-size="14.00">GO:0030234 (14)</text>
</a>
</g>
<!-- c0&#45;&gt;h0 -->
<g id="edge4" class="edge"><title>c0&#45;&gt;h0</title>
<path fill="none" stroke="black" d="M2315.89,-225.856C2232.83,-216.708 2087.13,-199.667 1963,-180 1955.95,-178.883 1948.6,-177.628 1941.29,-176.319"/>
<polygon fill="black" stroke="black" points="1941.82,-172.859 1931.36,-174.508 1940.57,-179.746 1941.82,-172.859"/>
</g>
<!-- b0 -->
<g id="node7" class="node"><title>b0</title>
<a xlink:href="0005488" xlink:title="GO:0005488 (5)">
<ellipse fill="#e98576" stroke="#e98576" cx="2047" cy="-162" rx="75.2018" ry="18"/>
<text text-anchor="middle" x="2047" y="-157.8" font-family="Times,serif" font-size="14.00">GO:0005488 (5)</text>
</a>
</g>
<!-- c0&#45;&gt;b0 -->
<g id="edge12" class="edge"><title>c0&#45;&gt;b0</title>
<path fill="none" stroke="black" d="M2328.27,-221.597C2268.96,-209.242 2174.4,-189.541 2111.52,-176.441"/>
<polygon fill="black" stroke="black" points="2112.21,-173.011 2101.71,-174.398 2110.78,-179.864 2112.21,-173.011"/>
</g>
<!-- l0 -->
<g id="node19" class="node"><title>l0</title>
<a xlink:href="0005215" xlink:title="GO:0005215 (7)">
<ellipse fill="#e98576" stroke="#e98576" cx="2215" cy="-162" rx="75.2018" ry="18"/>
<text text-anchor="middle" x="2215" y="-157.8" font-family="Times,serif" font-size="14.00">GO:0005215 (7)</text>
</a>
</g>
<!-- c0&#45;&gt;l0 -->
<g id="edge16" class="edge"><title>c0&#45;&gt;l0</title>
<path fill="none" stroke="black" d="M2347.37,-218.155C2321.95,-207.564 2287.57,-193.239 2260.22,-181.842"/>
<polygon fill="black" stroke="black" points="2261.44,-178.56 2250.87,-177.944 2258.75,-185.021 2261.44,-178.56"/>
</g>
<!-- k0 -->
<g id="node32" class="node"><title>k0</title>
<a xlink:href="0005198" xlink:title="GO:0005198 (8)">
<ellipse fill="#e98576" stroke="#e98576" cx="2383" cy="-162" rx="75.2018" ry="18"/>
<text text-anchor="middle" x="2383" y="-157.8" font-family="Times,serif" font-size="14.00">GO:0005198 (8)</text>
</a>
</g>
<!-- c0&#45;&gt;k0 -->
<g id="edge30" class="edge"><title>c0&#45;&gt;k0</title>
<path fill="none" stroke="black" d="M2383,-215.697C2383,-207.983 2383,-198.712 2383,-190.112"/>
<polygon fill="black" stroke="black" points="2386.5,-190.104 2383,-180.104 2379.5,-190.104 2386.5,-190.104"/>
</g>
<!-- e1 -->
<g id="node36" class="node"><title>e1</title>
<a xlink:href="0042056" xlink:title="GO:0042056 (1)">
<ellipse fill="#e98576" stroke="#e98576" cx="2551" cy="-162" rx="75.2018" ry="18"/>
<text text-anchor="middle" x="2551" y="-157.8" font-family="Times,serif" font-size="14.00">GO:0042056 (1)</text>
</a>
</g>
<!-- c0&#45;&gt;e1 -->
<g id="edge34" class="edge"><title>c0&#45;&gt;e1</title>
<path fill="none" stroke="black" d="M2418.63,-218.155C2444.05,-207.564 2478.43,-193.239 2505.78,-181.842"/>
<polygon fill="black" stroke="black" points="2507.25,-185.021 2515.13,-177.944 2504.56,-178.56 2507.25,-185.021"/>
</g>
<!-- w0 -->
<g id="node47" class="node"><title>w0</title>
<a xlink:href="0003774" xlink:title="GO:0003774 (2)">
<ellipse fill="#e98576" stroke="#e98576" cx="2719" cy="-162" rx="75.2018" ry="18"/>
<text text-anchor="middle" x="2719" y="-157.8" font-family="Times,serif" font-size="14.00">GO:0003774 (2)</text>
</a>
</g>
<!-- c0&#45;&gt;w0 -->
<g id="edge46" class="edge"><title>c0&#45;&gt;w0</title>
<path fill="none" stroke="black" d="M2437.73,-221.597C2497.04,-209.242 2591.6,-189.541 2654.48,-176.441"/>
<polygon fill="black" stroke="black" points="2655.22,-179.864 2664.29,-174.398 2653.79,-173.011 2655.22,-179.864"/>
</g>
<!-- v0 -->
<g id="node48" class="node"><title>v0</title>
<a xlink:href="0060089" xlink:title="GO:0060089">
<ellipse fill="#dddddd" stroke="#dddddd" cx="2874" cy="-162" rx="61.1934" ry="18"/>
<text text-anchor="middle" x="2874" y="-157.8" font-family="Times,serif" font-size="14.00">GO:0060089</text>
</a>
</g>
<!-- c0&#45;&gt;v0 -->
<g id="edge64" class="edge"><title>c0&#45;&gt;v0</title>
<path fill="none" stroke="black" d="M2451.74,-226.659C2535.2,-218.423 2680.08,-202.401 2803,-180 2808.38,-179.02 2813.96,-177.888 2819.52,-176.682"/>
<polygon fill="black" stroke="black" points="2820.48,-180.055 2829.47,-174.451 2818.94,-173.225 2820.48,-180.055"/>
</g>
<!-- o0 -->
<g id="node52" class="node"><title>o0</title>
<a xlink:href="0016209" xlink:title="GO:0016209 (6)">
<ellipse fill="#e98576" stroke="#e98576" cx="3029" cy="-162" rx="75.2018" ry="18"/>
<text text-anchor="middle" x="3029" y="-157.8" font-family="Times,serif" font-size="14.00">GO:0016209 (6)</text>
</a>
</g>
<!-- c0&#45;&gt;o0 -->
<g id="edge50" class="edge"><title>c0&#45;&gt;o0</title>
<path fill="none" stroke="black" d="M2455.02,-228.583C2562.06,-221.48 2769.29,-205.654 2944,-180 2950.8,-179.001 2957.88,-177.817 2964.93,-176.546"/>
<polygon fill="black" stroke="black" points="2966,-179.907 2975.19,-174.633 2964.71,-173.026 2966,-179.907"/>
</g>
<!-- z0 -->
<g id="node9" class="node"><title>z0</title>
<a xlink:href="0042277" xlink:title="GO:0042277 (2)">
<ellipse fill="#e98576" stroke="#e98576" cx="757" cy="-90" rx="75.2018" ry="18"/>
<text text-anchor="middle" x="757" y="-85.8" font-family="Times,serif" font-size="14.00">GO:0042277 (2)</text>
</a>
</g>
<!-- b0&#45;&gt;z0 -->
<g id="edge6" class="edge"><title>b0&#45;&gt;z0</title>
<path fill="none" stroke="black" d="M1994.16,-149.028C1983.56,-147.024 1972.47,-145.206 1962,-144 1466.8,-86.9253 1336.14,-165.641 841,-108 833.888,-107.172 826.481,-106.055 819.141,-104.786"/>
<polygon fill="black" stroke="black" points="819.675,-101.325 809.209,-102.975 818.419,-108.212 819.675,-101.325"/>
</g>
<!-- y0 -->
<g id="node11" class="node"><title>y0</title>
<a xlink:href="0019825" xlink:title="GO:0019825 (2)">
<ellipse fill="#e98576" stroke="#e98576" cx="925" cy="-90" rx="75.2018" ry="18"/>
<text text-anchor="middle" x="925" y="-85.8" font-family="Times,serif" font-size="14.00">GO:0019825 (2)</text>
</a>
</g>
<!-- b0&#45;&gt;y0 -->
<g id="edge8" class="edge"><title>b0&#45;&gt;y0</title>
<path fill="none" stroke="black" d="M1994.16,-149.075C1983.56,-147.067 1972.46,-145.236 1962,-144 1541.07,-94.279 1429.87,-158.203 1009,-108 1002.15,-107.183 995.027,-106.104 987.954,-104.886"/>
<polygon fill="black" stroke="black" points="988.129,-101.36 977.664,-103.014 986.876,-108.247 988.129,-101.36"/>
</g>
<!-- a0 -->
<g id="node13" class="node"><title>a0</title>
<a xlink:href="0005515" xlink:title="GO:0005515 (60)">
<ellipse fill="#e98576" stroke="#e98576" cx="1098" cy="-90" rx="79.4447" ry="18"/>
<text text-anchor="middle" x="1098" y="-85.8" font-family="Times,serif" font-size="14.00">GO:0005515 (60)</text>
</a>
</g>
<!-- b0&#45;&gt;a0 -->
<g id="edge10" class="edge"><title>b0&#45;&gt;a0</title>
<path fill="none" stroke="black" d="M1994.15,-149.147C1983.55,-147.133 1972.46,-145.281 1962,-144 1619.74,-102.069 1529.44,-148.449 1187,-108 1179.42,-107.105 1171.52,-105.938 1163.69,-104.635"/>
<polygon fill="black" stroke="black" points="1164.29,-101.187 1153.83,-102.923 1163.09,-108.084 1164.29,-101.187"/>
</g>
<!-- d0 -->
<g id="node21" class="node"><title>d0</title>
<a xlink:href="0043167" xlink:title="GO:0043167 (39)">
<ellipse fill="#e98576" stroke="#e98576" cx="1276" cy="-90" rx="79.4447" ry="18"/>
<text text-anchor="middle" x="1276" y="-85.8" font-family="Times,serif" font-size="14.00">GO:0043167 (39)</text>
</a>
</g>
<!-- b0&#45;&gt;d0 -->
<g id="edge18" class="edge"><title>b0&#45;&gt;d0</title>
<path fill="none" stroke="black" d="M1993.68,-149.174C1983.22,-147.184 1972.3,-145.334 1962,-144 1698.39,-109.854 1628.76,-141.004 1365,-108 1357.62,-107.077 1349.93,-105.914 1342.3,-104.633"/>
<polygon fill="black" stroke="black" points="1342.78,-101.164 1332.32,-102.89 1341.57,-108.06 1342.78,-101.164"/>
</g>
<!-- g1 -->
<g id="node24" class="node"><title>g1</title>
<a xlink:href="0030246" xlink:title="GO:0030246 (1)">
<ellipse fill="#e98576" stroke="#e98576" cx="1449" cy="-90" rx="75.2018" ry="18"/>
<text text-anchor="middle" x="1449" y="-85.8" font-family="Times,serif" font-size="14.00">GO:0030246 (1)</text>
</a>
</g>
<!-- b0&#45;&gt;g1 -->
<g id="edge22" class="edge"><title>b0&#45;&gt;g1</title>
<path fill="none" stroke="black" d="M1993.2,-149.281C1982.88,-147.305 1972.13,-145.434 1962,-144 1772.55,-117.195 1722.42,-135.022 1533,-108 1526.27,-107.04 1519.27,-105.881 1512.3,-104.625"/>
<polygon fill="black" stroke="black" points="1512.64,-101.127 1502.16,-102.727 1511.35,-108.007 1512.64,-101.127"/>
</g>
<!-- f1 -->
<g id="node26" class="node"><title>f1</title>
<a xlink:href="0043178" xlink:title="GO:0043178 (1)">
<ellipse fill="#e98576" stroke="#e98576" cx="1617" cy="-90" rx="75.2018" ry="18"/>
<text text-anchor="middle" x="1617" y="-85.8" font-family="Times,serif" font-size="14.00">GO:0043178 (1)</text>
</a>
</g>
<!-- b0&#45;&gt;f1 -->
<g id="edge24" class="edge"><title>b0&#45;&gt;f1</title>
<path fill="none" stroke="black" d="M1992.22,-149.539C1982.19,-147.584 1971.79,-145.653 1962,-144 1846.54,-124.509 1816.44,-127.623 1701,-108 1694.5,-106.894 1687.72,-105.662 1680.97,-104.379"/>
<polygon fill="black" stroke="black" points="1681.61,-100.938 1671.13,-102.473 1680.28,-107.811 1681.61,-100.938"/>
</g>
<!-- e0 -->
<g id="node28" class="node"><title>e0</title>
<a xlink:href="0003676" xlink:title="GO:0003676 (24)">
<ellipse fill="#e98576" stroke="#e98576" cx="1790" cy="-90" rx="79.4447" ry="18"/>
<text text-anchor="middle" x="1790" y="-85.8" font-family="Times,serif" font-size="14.00">GO:0003676 (24)</text>
</a>
</g>
<!-- b0&#45;&gt;e0 -->
<g id="edge26" class="edge"><title>b0&#45;&gt;e0</title>
<path fill="none" stroke="black" d="M1999.26,-147.998C1956.66,-136.394 1894.15,-119.367 1848.54,-106.946"/>
<polygon fill="black" stroke="black" points="1849.36,-103.541 1838.79,-104.29 1847.52,-110.295 1849.36,-103.541"/>
</g>
<!-- t0 -->
<g id="node34" class="node"><title>t0</title>
<a xlink:href="0003682" xlink:title="GO:0003682 (3)">
<ellipse fill="#e98576" stroke="#e98576" cx="1963" cy="-90" rx="75.2018" ry="18"/>
<text text-anchor="middle" x="1963" y="-85.8" font-family="Times,serif" font-size="14.00">GO:0003682 (3)</text>
</a>
</g>
<!-- b0&#45;&gt;t0 -->
<g id="edge32" class="edge"><title>b0&#45;&gt;t0</title>
<path fill="none" stroke="black" d="M2027.09,-144.411C2016.21,-135.345 2002.57,-123.974 1990.67,-114.057"/>
<polygon fill="black" stroke="black" points="1992.69,-111.183 1982.76,-107.47 1988.21,-116.561 1992.69,-111.183"/>
</g>
<!-- d1 -->
<g id="node38" class="node"><title>d1</title>
<a xlink:href="0048037" xlink:title="GO:0048037 (1)">
<ellipse fill="#e98576" stroke="#e98576" cx="2131" cy="-90" rx="75.2018" ry="18"/>
<text text-anchor="middle" x="2131" y="-85.8" font-family="Times,serif" font-size="14.00">GO:0048037 (1)</text>
</a>
</g>
<!-- b0&#45;&gt;d1 -->
<g id="edge36" class="edge"><title>b0&#45;&gt;d1</title>
<path fill="none" stroke="black" d="M2066.91,-144.411C2077.79,-135.345 2091.43,-123.974 2103.33,-114.057"/>
<polygon fill="black" stroke="black" points="2105.79,-116.561 2111.24,-107.47 2101.31,-111.183 2105.79,-116.561"/>
</g>
<!-- s0 -->
<g id="node40" class="node"><title>s0</title>
<a xlink:href="0003823" xlink:title="GO:0003823 (3)">
<ellipse fill="#e98576" stroke="#e98576" cx="2299" cy="-90" rx="75.2018" ry="18"/>
<text text-anchor="middle" x="2299" y="-85.8" font-family="Times,serif" font-size="14.00">GO:0003823 (3)</text>
</a>
</g>
<!-- b0&#45;&gt;s0 -->
<g id="edge38" class="edge"><title>b0&#45;&gt;s0</title>
<path fill="none" stroke="black" d="M2094.1,-147.916C2135.95,-136.29 2197.24,-119.267 2241.87,-106.868"/>
<polygon fill="black" stroke="black" points="2243,-110.188 2251.7,-104.139 2241.13,-103.443 2243,-110.188"/>
</g>
<!-- n0 -->
<g id="node42" class="node"><title>n0</title>
<a xlink:href="0008289" xlink:title="GO:0008289 (6)">
<ellipse fill="#e98576" stroke="#e98576" cx="2467" cy="-90" rx="75.2018" ry="18"/>
<text text-anchor="middle" x="2467" y="-85.8" font-family="Times,serif" font-size="14.00">GO:0008289 (6)</text>
</a>
</g>
<!-- b0&#45;&gt;n0 -->
<g id="edge40" class="edge"><title>b0&#45;&gt;n0</title>
<path fill="none" stroke="black" d="M2101.59,-149.476C2111.36,-147.549 2121.47,-145.644 2131,-144 2242.49,-124.771 2271.51,-127.229 2383,-108 2389.25,-106.921 2395.76,-105.73 2402.25,-104.494"/>
<polygon fill="black" stroke="black" points="2403.26,-107.863 2412.41,-102.524 2401.93,-100.991 2403.26,-107.863"/>
</g>
<!-- j0 -->
<g id="node45" class="node"><title>j0</title>
<a xlink:href="0001882" xlink:title="GO:0001882 (11)">
<ellipse fill="#e98576" stroke="#e98576" cx="2640" cy="-90" rx="79.4447" ry="18"/>
<text text-anchor="middle" x="2640" y="-85.8" font-family="Times,serif" font-size="14.00">GO:0001882 (11)</text>
</a>
</g>
<!-- b0&#45;&gt;j0 -->
<g id="edge44" class="edge"><title>b0&#45;&gt;j0</title>
<path fill="none" stroke="black" d="M2100.16,-149.287C2110.36,-147.311 2120.98,-145.438 2131,-144 2316.45,-117.375 2365.41,-133.609 2551,-108 2558.18,-107.01 2565.65,-105.825 2573.09,-104.549"/>
<polygon fill="black" stroke="black" points="2573.94,-107.953 2583.17,-102.76 2572.71,-101.061 2573.94,-107.953"/>
</g>
<!-- x0 -->
<g id="node54" class="node"><title>x0</title>
<a xlink:href="0060090" xlink:title="GO:0060090 (2)">
<ellipse fill="#e98576" stroke="#e98576" cx="2813" cy="-90" rx="75.2018" ry="18"/>
<text text-anchor="middle" x="2813" y="-85.8" font-family="Times,serif" font-size="14.00">GO:0060090 (2)</text>
</a>
</g>
<!-- b0&#45;&gt;x0 -->
<g id="edge52" class="edge"><title>b0&#45;&gt;x0</title>
<path fill="none" stroke="black" d="M2099.69,-149.169C2110.03,-147.179 2120.82,-145.33 2131,-144 2394.57,-109.553 2464.39,-142.146 2728,-108 2735.08,-107.083 2742.45,-105.922 2749.77,-104.639"/>
<polygon fill="black" stroke="black" points="2750.47,-108.069 2759.68,-102.826 2749.21,-101.183 2750.47,-108.069"/>
</g>
<!-- a1 -->
<g id="node56" class="node"><title>a1</title>
<a xlink:href="0031406" xlink:title="GO:0031406 (1)">
<ellipse fill="#e98576" stroke="#e98576" cx="2981" cy="-90" rx="75.2018" ry="18"/>
<text text-anchor="middle" x="2981" y="-85.8" font-family="Times,serif" font-size="14.00">GO:0031406 (1)</text>
</a>
</g>
<!-- b0&#45;&gt;a1 -->
<g id="edge54" class="edge"><title>b0&#45;&gt;a1</title>
<path fill="none" stroke="black" d="M2099.67,-149.061C2110.01,-147.08 2120.81,-145.263 2131,-144 2469.23,-102.075 2558.77,-149.925 2897,-108 2903.85,-107.151 2910.97,-106.053 2918.04,-104.822"/>
<polygon fill="black" stroke="black" points="2919.12,-108.183 2928.33,-102.939 2917.86,-101.297 2919.12,-108.183"/>
</g>
<!-- p0 -->
<g id="node62" class="node"><title>p0</title>
<a xlink:href="0046906" xlink:title="GO:0046906 (6)">
<ellipse fill="#e98576" stroke="#e98576" cx="3149" cy="-90" rx="75.2018" ry="18"/>
<text text-anchor="middle" x="3149" y="-85.8" font-family="Times,serif" font-size="14.00">GO:0046906 (6)</text>
</a>
</g>
<!-- b0&#45;&gt;p0 -->
<g id="edge60" class="edge"><title>b0&#45;&gt;p0</title>
<path fill="none" stroke="black" d="M2099.66,-148.992C2110.01,-147.017 2120.81,-145.22 2131,-144 2543.48,-94.6386 2652.52,-157.361 3065,-108 3071.85,-107.18 3078.97,-106.1 3086.05,-104.88"/>
<polygon fill="black" stroke="black" points="3087.12,-108.242 3096.34,-103.008 3085.87,-101.355 3087.12,-108.242"/>
</g>
<!-- i0 -->
<g id="node64" class="node"><title>i0</title>
<a xlink:href="0000166" xlink:title="GO:0000166 (12)">
<ellipse fill="#e98576" stroke="#e98576" cx="3322" cy="-90" rx="79.4447" ry="18"/>
<text text-anchor="middle" x="3322" y="-85.8" font-family="Times,serif" font-size="14.00">GO:0000166 (12)</text>
</a>
</g>
<!-- b0&#45;&gt;i0 -->
<g id="edge62" class="edge"><title>b0&#45;&gt;i0</title>
<path fill="none" stroke="black" d="M2099.21,-149.03C2109.69,-147.025 2120.65,-145.207 2131,-144 2617.74,-87.2001 2745.96,-162.135 3233,-108 3240.7,-107.145 3248.72,-105.99 3256.67,-104.682"/>
<polygon fill="black" stroke="black" points="3257.4,-108.108 3266.66,-102.955 3256.21,-101.21 3257.4,-108.108"/>
</g>
<!-- q0 -->
<g id="node17" class="node"><title>q0</title>
<a xlink:href="0008233" xlink:title="GO:0008233 (5)">
<ellipse fill="#e98576" stroke="#e98576" cx="248" cy="-18" rx="75.2018" ry="18"/>
<text text-anchor="middle" x="248" y="-13.8" font-family="Times,serif" font-size="14.00">GO:0008233 (5)</text>
</a>
</g>
<!-- f0&#45;&gt;q0 -->
<g id="edge14" class="edge"><title>f0&#45;&gt;q0</title>
<path fill="none" stroke="black" d="M248,-71.6966C248,-63.9827 248,-54.7125 248,-46.1124"/>
<polygon fill="black" stroke="black" points="251.5,-46.1043 248,-36.1043 244.5,-46.1044 251.5,-46.1043"/>
</g>
<!-- b1 -->
<g id="node58" class="node"><title>b1</title>
<a xlink:href="0009055" xlink:title="GO:0009055 (1)">
<ellipse fill="#e98576" stroke="#e98576" cx="421" cy="-18" rx="75.2018" ry="18"/>
<text text-anchor="middle" x="421" y="-13.8" font-family="Times,serif" font-size="14.00">GO:0009055 (1)</text>
</a>
</g>
<!-- m0&#45;&gt;b1 -->
<g id="edge56" class="edge"><title>m0&#45;&gt;b1</title>
<path fill="none" stroke="black" d="M421,-71.6966C421,-63.9827 421,-54.7125 421,-46.1124"/>
<polygon fill="black" stroke="black" points="424.5,-46.1043 421,-36.1043 417.5,-46.1044 424.5,-46.1043"/>
</g>
<!-- u0 -->
<g id="node50" class="node"><title>u0</title>
<a xlink:href="0004871" xlink:title="GO:0004871 (3)">
<ellipse fill="#e98576" stroke="#e98576" cx="3495" cy="-90" rx="75.2018" ry="18"/>
<text text-anchor="middle" x="3495" y="-85.8" font-family="Times,serif" font-size="14.00">GO:0004871 (3)</text>
</a>
</g>
<!-- v0&#45;&gt;u0 -->
<g id="edge48" class="edge"><title>v0&#45;&gt;u0</title>
<path fill="none" stroke="black" d="M2917.72,-149.39C2926.69,-147.33 2936.11,-145.399 2945,-144 3149.76,-111.766 3204.67,-136.377 3410,-108 3417.07,-107.023 3424.44,-105.824 3431.76,-104.519"/>
<polygon fill="black" stroke="black" points="3432.47,-107.947 3441.66,-102.685 3431.19,-101.064 3432.47,-107.947"/>
</g>
</g>
</svg>
