<?xml version="1.0" encoding="UTF-8" standalone="no"?> 
<!DOCTYPE svg PUBLIC "-//W3C//DTD SVG 1.1//EN" 
 "http://www.w3.org/Graphics/SVG/1.1/DTD/svg11.dtd"> 
<!-- Generated by graphviz version 2.28.0 (20110622.2320) 
 --> 
<!-- Title: G Pages: 1 --> 
<svg width="2000" height="1000"  
 viewBox="-30 -50 2000 1000" xmlns="http://www.w3.org/2000/svg" xmlns:xlink="http://www.w3.org/1999/xlink"> 
<g id="graph1" class="graph" transform="scale(1 1) rotate(0) translate(4 688)"> 
<title>G</title> 
<polygon fill="white" stroke="white" points="-4,5 -4,-688 999,-688 999,5 -4,5"/> 
<!-- k0 --> 
<g id="node1" class="node"><title>k0</title> 
<ellipse fill="#e98576" stroke="#e98576" cx="712" cy="-162" rx="75.2018" ry="18"/> 
<a xlink:href="http://pir.georgetown.edu/cgi-bin/pt_graphvizView.pl?togoid=0005840" ><text id="GO:0005840" onmousemove="changeToText('GO:0005840')" onmouseout="changeBackText('GO:0005840')"  text-anchor="middle" x="712" y="-162.8" font-family="Times,serif" font-size="14.00">GO:0005840</text></a>
<a xlink:href="http://pir.georgetown.edu/cgi-bin/pt_graphvizView.pl?tofile=555328" ><text id="r555328" onmousemove="changeToText2('r555328', 2)" onmouseout="changeBackText2('r555328', 2)"  text-anchor="middle" x="712" y="-149.8" font-family="Times,serif" font-size="14.00">(2)</text>
 
</a> 
</g> 
<!-- x0 --> 
<g id="node3" class="node"><title>x0</title> 
<a xlink:href="http://pir.georgetown.edu/cgi-bin/pt_graphvizView.pl?togoid=0033279" > 
<ellipse fill="#dddddd" stroke="#dddddd" cx="712" cy="-90" rx="61.1934" ry="18"/> 
<a xlink:href="http://pir.georgetown.edu/cgi-bin/pt_graphvizView.pl?togoid=0033279" ><text id="GO:0033279" onmousemove="changeToText('GO:0033279')" onmouseout="changeBackText('GO:0033279')"  text-anchor="middle" x="712" y="-85.8" font-family="Times,serif" font-size="14.00">GO:0033279</text></a>
 
</a> 
</g> 
<!-- k0&#45;&gt;x0 --> 
<g id="edge2" class="edge"><title>k0&#45;&gt;x0</title> 
<path fill="none" stroke="black" d="M712,-143.697C712,-135.983 712,-126.712 712,-118.112"/> 
<polygon fill="black" stroke="black" points="715.5,-118.104 712,-108.104 708.5,-118.104 715.5,-118.104"/> 
</g> 
<!-- w0 --> 
<g id="node33" class="node"><title>w0</title> 
<ellipse fill="#e98576" stroke="#e98576" cx="785" cy="-18" rx="75.2018" ry="18"/> 
<a xlink:href="http://pir.georgetown.edu/cgi-bin/pt_graphvizView.pl?togoid=0015935" ><text id="GO:0015935" onmousemove="changeToText('GO:0015935')" onmouseout="changeBackText('GO:0015935')"  text-anchor="middle" x="785" y="-18.8" font-family="Times,serif" font-size="14.00">GO:0015935</text></a>
<a xlink:href="http://pir.georgetown.edu/cgi-bin/pt_graphvizView.pl?tofile=555344" ><text id="r555344" onmousemove="changeToText2('r555344', 1)" onmouseout="changeBackText2('r555344', 1)"  text-anchor="middle" x="785" y="-5.8" font-family="Times,serif" font-size="14.00">(1)</text>
 
</a> 
</g> 
<!-- x0&#45;&gt;w0 --> 
<g id="edge32" class="edge"><title>x0&#45;&gt;w0</title> 
<path fill="none" stroke="black" d="M729.3,-72.411C738.506,-63.5834 749.99,-52.5715 760.134,-42.8437"/> 
<polygon fill="black" stroke="black" points="762.776,-45.16 767.571,-35.7125 757.931,-40.1075 762.776,-45.16"/> 
</g> 
<!-- l0 --> 
<g id="node4" class="node"><title>l0</title> 
<a xlink:href="http://pir.georgetown.edu/cgi-bin/pt_graphvizView.pl?togoid=0030529" > 
<ellipse fill="#dddddd" stroke="#dddddd" cx="815" cy="-234" rx="61.1934" ry="18"/> 
<a xlink:href="http://pir.georgetown.edu/cgi-bin/pt_graphvizView.pl?togoid=0030529" ><text id="GO:0030529" onmousemove="changeToText('GO:0030529')" onmouseout="changeBackText('GO:0030529')"  text-anchor="middle" x="815" y="-229.8" font-family="Times,serif" font-size="14.00">GO:0030529</text></a>
 
</a> 
</g> 
<!-- l0&#45;&gt;k0 --> 
<g id="edge66" class="edge"><title>l0&#45;&gt;k0</title> 
<path fill="none" stroke="black" d="M791.885,-217.291C777.772,-207.7 759.524,-195.298 744.032,-184.769"/> 
<polygon fill="black" stroke="black" points="745.991,-181.869 735.753,-179.142 742.056,-187.658 745.991,-181.869"/> 
</g> 
<!-- l0&#45;&gt;x0 --> 
<g id="edge4" class="edge"><title>l0&#45;&gt;x0</title> 
<path fill="none" stroke="black" d="M815.17,-215.71C814.54,-196.546 811.006,-165.51 796,-144 785.951,-129.595 770.6,-118.262 755.757,-109.838"/> 
<polygon fill="black" stroke="black" points="757.103,-106.589 746.633,-104.967 753.807,-112.764 757.103,-106.589"/> 
</g> 
<!-- r0 --> 
<g id="node6" class="node"><title>r0</title> 
<a xlink:href="http://pir.georgetown.edu/cgi-bin/pt_graphvizView.pl?togoid=0044444" > 
<ellipse fill="#dddddd" stroke="#dddddd" cx="674" cy="-234" rx="61.1934" ry="18"/> 
<a xlink:href="http://pir.georgetown.edu/cgi-bin/pt_graphvizView.pl?togoid=0044444" ><text id="GO:0044444" onmousemove="changeToText('GO:0044444')" onmouseout="changeBackText('GO:0044444')"  text-anchor="middle" x="674" y="-229.8" font-family="Times,serif" font-size="14.00">GO:0044444</text></a>
 
</a> 
</g> 
<!-- r0&#45;&gt;k0 --> 
<g id="edge70" class="edge"><title>r0&#45;&gt;k0</title> 
<path fill="none" stroke="black" d="M683.199,-216.055C687.568,-208.007 692.889,-198.205 697.763,-189.226"/> 
<polygon fill="black" stroke="black" points="700.927,-190.734 702.622,-180.275 694.775,-187.394 700.927,-190.734"/> 
</g> 
<!-- r0&#45;&gt;x0 --> 
<g id="edge6" class="edge"><title>r0&#45;&gt;x0</title> 
<path fill="none" stroke="black" d="M654.138,-216.547C644.243,-207.03 633.285,-194.153 628,-180 622.403,-165.011 620.274,-158.011 628,-144 636.344,-128.87 651.025,-117.464 665.805,-109.185"/> 
<polygon fill="black" stroke="black" points="667.702,-112.144 674.964,-104.429 664.476,-105.931 667.702,-112.144"/> 
</g> 
<!-- y0 --> 
<g id="node8" class="node"><title>y0</title> 
<a xlink:href="http://pir.georgetown.edu/cgi-bin/pt_graphvizView.pl?togoid=0044446" > 
<ellipse fill="#dddddd" stroke="#dddddd" cx="533" cy="-234" rx="61.1934" ry="18"/> 
<a xlink:href="http://pir.georgetown.edu/cgi-bin/pt_graphvizView.pl?togoid=0044446" ><text id="GO:0044446" onmousemove="changeToText('GO:0044446')" onmouseout="changeBackText('GO:0044446')"  text-anchor="middle" x="533" y="-229.8" font-family="Times,serif" font-size="14.00">GO:0044446</text></a>
 
</a> 
</g> 
<!-- y0&#45;&gt;x0 --> 
<g id="edge8" class="edge"><title>y0&#45;&gt;x0</title> 
<path fill="none" stroke="black" d="M546.68,-216.188C562.697,-197.176 590.659,-166.008 619,-144 635.348,-131.306 655.074,-119.625 672.144,-110.479"/> 
<polygon fill="black" stroke="black" points="674.086,-113.413 681.316,-105.669 670.835,-107.214 674.086,-113.413"/> 
</g> 
<!-- c0 --> 
<g id="node10" class="node"><title>c0</title> 
<ellipse fill="#e98576" stroke="#e98576" cx="368" cy="-666" rx="75.2018" ry="18"/> 
<a xlink:href="http://pir.georgetown.edu/cgi-bin/pt_graphvizView.pl?togoid=0005575" ><text id="GO:0005575" onmousemove="changeToText('GO:0005575')" onmouseout="changeBackText('GO:0005575')"  text-anchor="middle" x="368" y="-666.8" font-family="Times,serif" font-size="14.00">GO:0005575</text></a>
<a xlink:href="http://pir.georgetown.edu/cgi-bin/pt_graphvizView.pl?tofile=555342" ><text id="r555342" onmousemove="changeToText2('r555342', 1)" onmouseout="changeBackText2('r555342', 1)"  text-anchor="middle" x="368" y="-653.8" font-family="Times,serif" font-size="14.00">(1)</text>
 
</a> 
</g> 
<!-- j0 --> 
<g id="node12" class="node"><title>j0</title> 
<a xlink:href="http://pir.georgetown.edu/cgi-bin/pt_graphvizView.pl?togoid=0031975" > 
<ellipse fill="#dddddd" stroke="#dddddd" cx="61" cy="-522" rx="61.1934" ry="18"/> 
<a xlink:href="http://pir.georgetown.edu/cgi-bin/pt_graphvizView.pl?togoid=0031975" ><text id="GO:0031975" onmousemove="changeToText('GO:0031975')" onmouseout="changeBackText('GO:0031975')"  text-anchor="middle" x="61" y="-517.8" font-family="Times,serif" font-size="14.00">GO:0031975</text></a>
 
</a> 
</g> 
<!-- c0&#45;&gt;j0 --> 
<g id="edge10" class="edge"><title>c0&#45;&gt;j0</title> 
<path fill="none" stroke="black" d="M296.331,-660.488C248.062,-654.718 184.591,-641.629 136,-612 110.302,-596.33 89.1173,-568.763 75.8938,-548.45"/> 
<polygon fill="black" stroke="black" points="78.846,-546.57 70.5575,-539.97 72.9215,-550.298 78.846,-546.57"/> 
</g> 
<!-- z0 --> 
<g id="node17" class="node"><title>z0</title> 
<a xlink:href="http://pir.georgetown.edu/cgi-bin/pt_graphvizView.pl?togoid=0044422" > 
<ellipse fill="#dddddd" stroke="#dddddd" cx="190" cy="-306" rx="61.1934" ry="18"/> 
<a xlink:href="http://pir.georgetown.edu/cgi-bin/pt_graphvizView.pl?togoid=0044422" ><text id="GO:0044422" onmousemove="changeToText('GO:0044422')" onmouseout="changeBackText('GO:0044422')"  text-anchor="middle" x="190" y="-301.8" font-family="Times,serif" font-size="14.00">GO:0044422</text></a>
 
</a> 
</g> 
<!-- c0&#45;&gt;z0 --> 
<g id="edge14" class="edge"><title>c0&#45;&gt;z0</title> 
<path fill="none" stroke="black" d="M296.766,-659.942C258.816,-653.794 213.755,-640.5 183,-612 152.057,-583.325 150,-565.187 150,-523 150,-523 150,-523 150,-449 150,-407.484 166.037,-361.612 177.802,-333.545"/> 
<polygon fill="black" stroke="black" points="181.15,-334.619 181.905,-324.051 174.725,-331.842 181.15,-334.619"/> 
</g> 
<!-- p0 --> 
<g id="node18" class="node"><title>p0</title> 
<a xlink:href="http://pir.georgetown.edu/cgi-bin/pt_graphvizView.pl?togoid=0043226" > 
<ellipse fill="#dddddd" stroke="#dddddd" cx="278" cy="-378" rx="61.1934" ry="18"/> 
<a xlink:href="http://pir.georgetown.edu/cgi-bin/pt_graphvizView.pl?togoid=0043226" ><text id="GO:0043226" onmousemove="changeToText('GO:0043226')" onmouseout="changeBackText('GO:0043226')"  text-anchor="middle" x="278" y="-373.8" font-family="Times,serif" font-size="14.00">GO:0043226</text></a>
 
</a> 
</g> 
<!-- c0&#45;&gt;p0 --> 
<g id="edge24" class="edge"><title>c0&#45;&gt;p0</title> 
<path fill="none" stroke="black" d="M296.661,-660.084C263.761,-653.817 227.528,-640.37 207,-612 160.102,-547.188 171.142,-503.514 207,-432 213.834,-418.37 226.021,-407.349 238.39,-398.96"/> 
<polygon fill="black" stroke="black" points="240.334,-401.872 246.92,-393.573 236.596,-395.954 240.334,-401.872"/> 
</g> 
<!-- t0 --> 
<g id="node21" class="node"><title>t0</title> 
<ellipse fill="#e98576" stroke="#e98576" cx="291" cy="-594" rx="75.2018" ry="18"/> 
<a xlink:href="http://pir.georgetown.edu/cgi-bin/pt_graphvizView.pl?togoid=0031012" ><text id="GO:0031012" onmousemove="changeToText('GO:0031012')" onmouseout="changeBackText('GO:0031012')"  text-anchor="middle" x="291" y="-594.8" font-family="Times,serif" font-size="14.00">GO:0031012</text></a>
<a xlink:href="http://pir.georgetown.edu/cgi-bin/pt_graphvizView.pl?tofile=555334" ><text id="r555334" onmousemove="changeToText2('r555334', 1)" onmouseout="changeBackText2('r555334', 1)"  text-anchor="middle" x="291" y="-581.8" font-family="Times,serif" font-size="14.00">(1)</text>
 
</a> 
</g> 
<!-- c0&#45;&gt;t0 --> 
<g id="edge18" class="edge"><title>c0&#45;&gt;t0</title> 
<path fill="none" stroke="black" d="M349.752,-648.411C339.875,-639.432 327.512,-628.193 316.678,-618.344"/> 
<polygon fill="black" stroke="black" points="318.871,-615.607 309.117,-611.47 314.162,-620.787 318.871,-615.607"/> 
</g> 
<!-- d0 --> 
<g id="node31" class="node"><title>d0</title> 
<a xlink:href="http://pir.georgetown.edu/cgi-bin/pt_graphvizView.pl?togoid=0005623" > 
<ellipse fill="#dddddd" stroke="#dddddd" cx="446" cy="-594" rx="61.1934" ry="18"/> 
<a xlink:href="http://pir.georgetown.edu/cgi-bin/pt_graphvizView.pl?togoid=0005623" ><text id="GO:0005623" onmousemove="changeToText('GO:0005623')" onmouseout="changeBackText('GO:0005623')"  text-anchor="middle" x="446" y="-589.8" font-family="Times,serif" font-size="14.00">GO:0005623</text></a>
 
</a> 
</g> 
<!-- c0&#45;&gt;d0 --> 
<g id="edge30" class="edge"><title>c0&#45;&gt;d0</title> 
<path fill="none" stroke="black" d="M386.485,-648.411C396.563,-639.367 409.196,-628.03 420.227,-618.13"/> 
<polygon fill="black" stroke="black" points="422.812,-620.512 427.917,-611.228 418.137,-615.303 422.812,-620.512"/> 
</g> 
<!-- b0 --> 
<g id="node37" class="node"><title>b0</title> 
<ellipse fill="#e98576" stroke="#e98576" cx="535" cy="-522" rx="79.4447" ry="18"/> 
<a xlink:href="http://pir.georgetown.edu/cgi-bin/pt_graphvizView.pl?togoid=0044464" ><text id="GO:0044464" onmousemove="changeToText('GO:0044464')" onmouseout="changeBackText('GO:0044464')"  text-anchor="middle" x="535" y="-522.8" font-family="Times,serif" font-size="14.00">GO:0044464</text></a>
<a xlink:href="http://pir.georgetown.edu/cgi-bin/pt_graphvizView.pl?tofile=555322" ><text id="r555322" onmousemove="changeToText2('r555322', 31)" onmouseout="changeBackText2('r555322', 31)"  text-anchor="middle" x="535" y="-509.8" font-family="Times,serif" font-size="14.00">(31)</text>
 
</a> 
</g> 
<!-- c0&#45;&gt;b0 --> 
<g id="edge36" class="edge"><title>c0&#45;&gt;b0</title> 
<path fill="none" stroke="black" d="M432.171,-656.533C461.697,-649.395 494.798,-636.241 516,-612 530.744,-595.142 534.986,-569.666 535.835,-550.284"/> 
<polygon fill="black" stroke="black" points="539.335,-550.294 536.003,-540.237 532.336,-550.177 539.335,-550.294"/> 
</g> 
<!-- v0 --> 
<g id="node44" class="node"><title>v0</title> 
<ellipse fill="#e98576" stroke="#e98576" cx="638" cy="-594" rx="75.2018" ry="18"/> 
<a xlink:href="http://pir.georgetown.edu/cgi-bin/pt_graphvizView.pl?togoid=0005576" ><text id="GO:0005576" onmousemove="changeToText('GO:0005576')" onmouseout="changeBackText('GO:0005576')"  text-anchor="middle" x="638" y="-594.8" font-family="Times,serif" font-size="14.00">GO:0005576</text></a>
<a xlink:href="http://pir.georgetown.edu/cgi-bin/pt_graphvizView.pl?tofile=555340" ><text id="r555340" onmousemove="changeToText2('r555340', 1)" onmouseout="changeBackText2('r555340', 1)"  text-anchor="middle" x="638" y="-581.8" font-family="Times,serif" font-size="14.00">(1)</text>
 
</a> 
</g> 
<!-- c0&#45;&gt;v0 --> 
<g id="edge46" class="edge"><title>c0&#45;&gt;v0</title> 
<path fill="none" stroke="black" d="M416.895,-652.324C462.532,-640.492 530.7,-622.818 579.268,-610.227"/> 
<polygon fill="black" stroke="black" points="580.212,-613.598 589.013,-607.7 578.455,-606.822 580.212,-613.598"/> 
</g> 
<!-- m0 --> 
<g id="node49" class="node"><title>m0</title> 
<ellipse fill="#e98576" stroke="#e98576" cx="918" cy="-306" rx="75.2018" ry="18"/> 
<a xlink:href="http://pir.georgetown.edu/cgi-bin/pt_graphvizView.pl?togoid=0032991" ><text id="GO:0032991" onmousemove="changeToText('GO:0032991')" onmouseout="changeBackText('GO:0032991')"  text-anchor="middle" x="918" y="-306.8" font-family="Times,serif" font-size="14.00">GO:0032991</text></a>
<a xlink:href="http://pir.georgetown.edu/cgi-bin/pt_graphvizView.pl?tofile=555338" ><text id="r555338" onmousemove="changeToText2('r555338', 1)" onmouseout="changeBackText2('r555338', 1)"  text-anchor="middle" x="918" y="-293.8" font-family="Times,serif" font-size="14.00">(1)</text>
 
</a> 
</g> 
<!-- c0&#45;&gt;m0 --> 
<g id="edge54" class="edge"><title>c0&#45;&gt;m0</title> 
<path fill="none" stroke="black" d="M440.752,-661.417C590.232,-652.065 918,-620.446 918,-523 918,-523 918,-523 918,-449 918,-408.996 918,-362.653 918,-334.08"/> 
<polygon fill="black" stroke="black" points="921.5,-334.049 918,-324.049 914.5,-334.049 921.5,-334.049"/> 
</g> 
<!-- h0 --> 
<g id="node28" class="node"><title>h0</title> 
<ellipse fill="#e98576" stroke="#e98576" cx="512" cy="-378" rx="75.2018" ry="18"/> 
<a xlink:href="http://pir.georgetown.edu/cgi-bin/pt_graphvizView.pl?togoid=0030313" ><text id="GO:0030313" onmousemove="changeToText('GO:0030313')" onmouseout="changeBackText('GO:0030313')"  text-anchor="middle" x="512" y="-378.8" font-family="Times,serif" font-size="14.00">GO:0030313</text></a>
<a xlink:href="http://pir.georgetown.edu/cgi-bin/pt_graphvizView.pl?tofile=555326" ><text id="r555326" onmousemove="changeToText2('r555326', 2)" onmouseout="changeBackText2('r555326', 2)"  text-anchor="middle" x="512" y="-365.8" font-family="Times,serif" font-size="14.00">(2)</text>
 
</a> 
</g> 
<!-- j0&#45;&gt;h0 --> 
<g id="edge28" class="edge"><title>j0&#45;&gt;h0</title> 
<path fill="none" stroke="black" d="M81.9314,-504.701C109.155,-484.368 158.932,-450.079 207,-432 248.162,-416.518 361.339,-399.171 437.636,-388.671"/> 
<polygon fill="black" stroke="black" points="438.246,-392.12 447.68,-387.299 437.298,-385.185 438.246,-392.12"/> 
</g> 
<!-- f0 --> 
<g id="node13" class="node"><title>f0</title> 
<a xlink:href="http://pir.georgetown.edu/cgi-bin/pt_graphvizView.pl?togoid=0044424" > 
<ellipse fill="#dddddd" stroke="#dddddd" cx="707" cy="-378" rx="61.1934" ry="18"/> 
<a xlink:href="http://pir.georgetown.edu/cgi-bin/pt_graphvizView.pl?togoid=0044424" ><text id="GO:0044424" onmousemove="changeToText('GO:0044424')" onmouseout="changeBackText('GO:0044424')"  text-anchor="middle" x="707" y="-373.8" font-family="Times,serif" font-size="14.00">GO:0044424</text></a>
 
</a> 
</g> 
<!-- f0&#45;&gt;l0 --> 
<g id="edge76" class="edge"><title>f0&#45;&gt;l0</title> 
<path fill="none" stroke="black" d="M743.186,-363.354C761.351,-354.721 782.167,-341.791 795,-324 807.994,-305.986 812.753,-280.996 814.4,-262.082"/> 
<polygon fill="black" stroke="black" points="817.899,-262.215 815.039,-252.014 810.913,-261.772 817.899,-262.215"/> 
</g> 
<!-- f0&#45;&gt;r0 --> 
<g id="edge50" class="edge"><title>f0&#45;&gt;r0</title> 
<path fill="none" stroke="black" d="M667.824,-364.111C649.224,-355.793 628.753,-342.918 618,-324 610.094,-310.09 611.674,-302.696 618,-288 623.127,-276.089 632.393,-265.603 641.931,-257.169"/> 
<polygon fill="black" stroke="black" points="644.432,-259.643 649.922,-250.581 639.98,-254.242 644.432,-259.643"/> 
</g> 
<!-- f0&#45;&gt;y0 --> 
<g id="edge64" class="edge"><title>f0&#45;&gt;y0</title> 
<path fill="none" stroke="black" d="M673.816,-362.826C653.905,-353.436 628.704,-339.931 609,-324 585.981,-305.389 564.548,-279.137 550.351,-259.968"/> 
<polygon fill="black" stroke="black" points="553.065,-257.748 544.357,-251.712 547.4,-261.861 553.065,-257.748"/> 
</g> 
<!-- e0 --> 
<g id="node15" class="node"><title>e0</title> 
<ellipse fill="#e98576" stroke="#e98576" cx="707" cy="-306" rx="79.4447" ry="18"/> 
<a xlink:href="http://pir.georgetown.edu/cgi-bin/pt_graphvizView.pl?togoid=0005737" ><text id="GO:0005737" onmousemove="changeToText('GO:0005737')" onmouseout="changeBackText('GO:0005737')"  text-anchor="middle" x="707" y="-306.8" font-family="Times,serif" font-size="14.00">GO:0005737</text></a>
<a xlink:href="http://pir.georgetown.edu/cgi-bin/pt_graphvizView.pl?tofile=555324" ><text id="r555324" onmousemove="changeToText2('r555324', 20)" onmouseout="changeBackText2('r555324', 20)"  text-anchor="middle" x="707" y="-293.8" font-family="Times,serif" font-size="14.00">(20)</text>
 
</a> 
</g> 
<!-- f0&#45;&gt;e0 --> 
<g id="edge12" class="edge"><title>f0&#45;&gt;e0</title> 
<path fill="none" stroke="black" d="M707,-359.697C707,-351.983 707,-342.712 707,-334.112"/> 
<polygon fill="black" stroke="black" points="710.5,-334.104 707,-324.104 703.5,-334.104 710.5,-334.104"/> 
</g> 
<!-- q0 --> 
<g id="node23" class="node"><title>q0</title> 
<a xlink:href="http://pir.georgetown.edu/cgi-bin/pt_graphvizView.pl?togoid=0043229" > 
<ellipse fill="#dddddd" stroke="#dddddd" cx="472" cy="-306" rx="61.1934" ry="18"/> 
<a xlink:href="http://pir.georgetown.edu/cgi-bin/pt_graphvizView.pl?togoid=0043229" ><text id="GO:0043229" onmousemove="changeToText('GO:0043229')" onmouseout="changeBackText('GO:0043229')"  text-anchor="middle" x="472" y="-301.8" font-family="Times,serif" font-size="14.00">GO:0043229</text></a>
 
</a> 
</g> 
<!-- f0&#45;&gt;q0 --> 
<g id="edge22" class="edge"><title>f0&#45;&gt;q0</title> 
<path fill="none" stroke="black" d="M665.528,-364.647C625.799,-352.812 565.747,-334.925 523.087,-322.217"/> 
<polygon fill="black" stroke="black" points="524.035,-318.848 513.452,-319.347 522.037,-325.557 524.035,-318.848"/> 
</g> 
<!-- e0&#45;&gt;r0 --> 
<g id="edge48" class="edge"><title>e0&#45;&gt;r0</title> 
<path fill="none" stroke="black" d="M699.012,-288.055C695.257,-280.091 690.694,-270.411 686.497,-261.51"/> 
<polygon fill="black" stroke="black" points="689.574,-259.828 682.144,-252.275 683.242,-262.813 689.574,-259.828"/> 
</g> 
<!-- z0&#45;&gt;y0 --> 
<g id="edge62" class="edge"><title>z0&#45;&gt;y0</title> 
<path fill="none" stroke="black" d="M235.364,-293.726C243.863,-291.731 252.688,-289.738 261,-288 349.834,-269.426 373.166,-270.574 462,-252 467.065,-250.941 472.321,-249.787 477.577,-248.596"/> 
<polygon fill="black" stroke="black" points="478.68,-251.934 487.636,-246.274 477.105,-245.113 478.68,-251.934"/> 
</g> 
<!-- p0&#45;&gt;z0 --> 
<g id="edge16" class="edge"><title>p0&#45;&gt;z0</title> 
<path fill="none" stroke="black" d="M257.59,-360.765C245.928,-351.488 231.127,-339.714 218.35,-329.551"/> 
<polygon fill="black" stroke="black" points="220.304,-326.633 210.299,-323.147 215.947,-332.112 220.304,-326.633"/> 
</g> 
<!-- p0&#45;&gt;q0 --> 
<g id="edge20" class="edge"><title>p0&#45;&gt;q0</title> 
<path fill="none" stroke="black" d="M315.405,-363.503C346.672,-352.222 391.426,-336.073 425.089,-323.927"/> 
<polygon fill="black" stroke="black" points="426.491,-327.142 434.71,-320.455 424.115,-320.557 426.491,-327.142"/> 
</g> 
<!-- o0 --> 
<g id="node51" class="node"><title>o0</title> 
<a xlink:href="http://pir.georgetown.edu/cgi-bin/pt_graphvizView.pl?togoid=0043228" > 
<ellipse fill="#dddddd" stroke="#dddddd" cx="331" cy="-306" rx="61.1934" ry="18"/> 
<a xlink:href="http://pir.georgetown.edu/cgi-bin/pt_graphvizView.pl?togoid=0043228" ><text id="GO:0043228" onmousemove="changeToText('GO:0043228')" onmouseout="changeBackText('GO:0043228')"  text-anchor="middle" x="331" y="-301.8" font-family="Times,serif" font-size="14.00">GO:0043228</text></a>
 
</a> 
</g> 
<!-- p0&#45;&gt;o0 --> 
<g id="edge56" class="edge"><title>p0&#45;&gt;o0</title> 
<path fill="none" stroke="black" d="M290.83,-360.055C297.21,-351.629 305.045,-341.28 312.097,-331.966"/> 
<polygon fill="black" stroke="black" points="315.042,-333.874 318.288,-323.789 309.461,-329.649 315.042,-333.874"/> 
</g> 
<!-- q0&#45;&gt;y0 --> 
<g id="edge60" class="edge"><title>q0&#45;&gt;y0</title> 
<path fill="none" stroke="black" d="M486.456,-288.411C493.943,-279.82 503.233,-269.159 511.539,-259.627"/> 
<polygon fill="black" stroke="black" points="514.293,-261.795 518.224,-251.956 509.015,-257.196 514.293,-261.795"/> 
</g> 
<!-- n0 --> 
<g id="node58" class="node"><title>n0</title> 
<a xlink:href="http://pir.georgetown.edu/cgi-bin/pt_graphvizView.pl?togoid=0043232" > 
<ellipse fill="#dddddd" stroke="#dddddd" cx="392" cy="-234" rx="61.1934" ry="18"/> 
<a xlink:href="http://pir.georgetown.edu/cgi-bin/pt_graphvizView.pl?togoid=0043232" ><text id="GO:0043232" onmousemove="changeToText('GO:0043232')" onmouseout="changeBackText('GO:0043232')"  text-anchor="middle" x="392" y="-229.8" font-family="Times,serif" font-size="14.00">GO:0043232</text></a>
 
</a> 
</g> 
<!-- q0&#45;&gt;n0 --> 
<g id="edge82" class="edge"><title>q0&#45;&gt;n0</title> 
<path fill="none" stroke="black" d="M453.445,-288.765C443.019,-279.642 429.834,-268.105 418.353,-258.059"/> 
<polygon fill="black" stroke="black" points="420.562,-255.341 410.731,-251.39 415.952,-260.609 420.562,-255.341"/> 
</g> 
<!-- i0 --> 
<g id="node26" class="node"><title>i0</title> 
<ellipse fill="#e98576" stroke="#e98576" cx="637" cy="-450" rx="75.2018" ry="18"/> 
<a xlink:href="http://pir.georgetown.edu/cgi-bin/pt_graphvizView.pl?togoid=0030312" ><text id="GO:0030312" onmousemove="changeToText('GO:0030312')" onmouseout="changeBackText('GO:0030312')"  text-anchor="middle" x="637" y="-450.8" font-family="Times,serif" font-size="14.00">GO:0030312</text></a>
<a xlink:href="http://pir.georgetown.edu/cgi-bin/pt_graphvizView.pl?tofile=555332" ><text id="r555332" onmousemove="changeToText2('r555332', 2)" onmouseout="changeBackText2('r555332', 2)"  text-anchor="middle" x="637" y="-437.8" font-family="Times,serif" font-size="14.00">(2)</text>
 
</a> 
</g> 
<!-- i0&#45;&gt;h0 --> 
<g id="edge26" class="edge"><title>i0&#45;&gt;h0</title> 
<path fill="none" stroke="black" d="M608.948,-433.291C591.3,-423.408 568.324,-410.541 549.168,-399.814"/> 
<polygon fill="black" stroke="black" points="550.827,-396.731 540.391,-394.899 547.406,-402.839 550.827,-396.731"/> 
</g> 
<!-- d0&#45;&gt;b0 --> 
<g id="edge38" class="edge"><title>d0&#45;&gt;b0</title> 
<path fill="none" stroke="black" d="M466.642,-576.765C478.352,-567.554 493.192,-555.882 506.051,-545.769"/> 
<polygon fill="black" stroke="black" points="508.465,-548.323 514.162,-539.39 504.138,-542.821 508.465,-548.323"/> 
</g> 
<!-- s0 --> 
<g id="node34" class="node"><title>s0</title> 
<ellipse fill="#e98576" stroke="#e98576" cx="918" cy="-162" rx="75.2018" ry="18"/> 
<a xlink:href="http://pir.georgetown.edu/cgi-bin/pt_graphvizView.pl?togoid=0043234" ><text id="GO:0043234" onmousemove="changeToText('GO:0043234')" onmouseout="changeBackText('GO:0043234')"  text-anchor="middle" x="918" y="-162.8" font-family="Times,serif" font-size="14.00">GO:0043234</text></a>
<a xlink:href="http://pir.georgetown.edu/cgi-bin/pt_graphvizView.pl?tofile=555330" ><text id="r555330" onmousemove="changeToText2('r555330', 2)" onmouseout="changeBackText2('r555330', 2)"  text-anchor="middle" x="918" y="-149.8" font-family="Times,serif" font-size="14.00">(2)</text>
 
</a> 
</g> 
<!-- s0&#45;&gt;w0 --> 
<g id="edge34" class="edge"><title>s0&#45;&gt;w0</title> 
<path fill="none" stroke="black" d="M902.221,-144.153C878.824,-119.173 834.802,-72.1723 807.87,-43.4179"/> 
<polygon fill="black" stroke="black" points="810.149,-40.731 800.759,-35.825 805.04,-45.5162 810.149,-40.731"/> 
</g> 
<!-- b0&#45;&gt;f0 --> 
<g id="edge42" class="edge"><title>b0&#45;&gt;f0</title> 
<path fill="none" stroke="black" d="M598.873,-511.16C646.606,-502.348 706.081,-487.764 721,-468 734.482,-450.14 728.523,-424.447 720.642,-405.254"/> 
<polygon fill="black" stroke="black" points="723.725,-403.576 716.438,-395.885 717.338,-406.441 723.725,-403.576"/> 
</g> 
<!-- b0&#45;&gt;i0 --> 
<g id="edge52" class="edge"><title>b0&#45;&gt;i0</title> 
<path fill="none" stroke="black" d="M558.657,-504.765C572.432,-495.311 589.985,-483.265 604.983,-472.972"/> 
<polygon fill="black" stroke="black" points="607.206,-475.692 613.471,-467.147 603.245,-469.92 607.206,-475.692"/> 
</g> 
<!-- g0 --> 
<g id="node39" class="node"><title>g0</title> 
<a xlink:href="http://pir.georgetown.edu/cgi-bin/pt_graphvizView.pl?togoid=0005622" > 
<ellipse fill="#dddddd" stroke="#dddddd" cx="829" cy="-450" rx="61.1934" ry="18"/> 
<a xlink:href="http://pir.georgetown.edu/cgi-bin/pt_graphvizView.pl?togoid=0005622" ><text id="GO:0005622" onmousemove="changeToText('GO:0005622')" onmouseout="changeBackText('GO:0005622')"  text-anchor="middle" x="829" y="-445.8" font-family="Times,serif" font-size="14.00">GO:0005622</text></a>
 
</a> 
</g> 
<!-- b0&#45;&gt;g0 --> 
<g id="edge44" class="edge"><title>b0&#45;&gt;g0</title> 
<path fill="none" stroke="black" d="M587.561,-508.485C639.697,-496.072 719.317,-477.115 772.715,-464.401"/> 
<polygon fill="black" stroke="black" points="773.781,-467.745 782.699,-462.024 772.16,-460.936 773.781,-467.745"/> 
</g> 
<!-- a0 --> 
<g id="node53" class="node"><title>a0</title> 
<ellipse fill="#e98576" stroke="#e98576" cx="296" cy="-450" rx="79.4447" ry="18"/> 
<a xlink:href="http://pir.georgetown.edu/cgi-bin/pt_graphvizView.pl?togoid=0016020" ><text id="GO:0016020" onmousemove="changeToText('GO:0016020')" onmouseout="changeBackText('GO:0016020')"  text-anchor="middle" x="296" y="-450.8" font-family="Times,serif" font-size="14.00">GO:0016020</text></a>
<a xlink:href="http://pir.georgetown.edu/cgi-bin/pt_graphvizView.pl?tofile=555320" ><text id="r555320" onmousemove="changeToText2('r555320', 51)" onmouseout="changeBackText2('r555320', 51)"  text-anchor="middle" x="296" y="-437.8" font-family="Times,serif" font-size="14.00">(51)</text>
 
</a> 
</g> 
<!-- b0&#45;&gt;a0 --> 
<g id="edge58" class="edge"><title>b0&#45;&gt;a0</title> 
<path fill="none" stroke="black" d="M488.351,-507.337C449.364,-495.918 393.648,-479.6 352.207,-467.462"/> 
<polygon fill="black" stroke="black" points="353.112,-464.08 342.531,-464.628 351.144,-470.798 353.112,-464.08"/> 
</g> 
<!-- u0 --> 
<g id="node62" class="node"><title>u0</title> 
<ellipse fill="#e98576" stroke="#e98576" cx="469" cy="-450" rx="75.2018" ry="18"/> 
<a xlink:href="http://pir.georgetown.edu/cgi-bin/pt_graphvizView.pl?togoid=0042597" ><text id="GO:0042597" onmousemove="changeToText('GO:0042597')" onmouseout="changeBackText('GO:0042597')"  text-anchor="middle" x="469" y="-450.8" font-family="Times,serif" font-size="14.00">GO:0042597</text></a>
<a xlink:href="http://pir.georgetown.edu/cgi-bin/pt_graphvizView.pl?tofile=555336" ><text id="r555336" onmousemove="changeToText2('r555336', 1)" onmouseout="changeBackText2('r555336', 1)"  text-anchor="middle" x="469" y="-437.8" font-family="Times,serif" font-size="14.00">(1)</text>
 
</a> 
</g> 
<!-- b0&#45;&gt;u0 --> 
<g id="edge72" class="edge"><title>b0&#45;&gt;u0</title> 
<path fill="none" stroke="black" d="M519.023,-504.055C510.835,-495.371 500.722,-484.644 491.736,-475.114"/> 
<polygon fill="black" stroke="black" points="494.236,-472.664 484.83,-467.789 489.143,-477.466 494.236,-472.664"/> 
</g> 
<!-- g0&#45;&gt;f0 --> 
<g id="edge40" class="edge"><title>g0&#45;&gt;f0</title> 
<path fill="none" stroke="black" d="M802.227,-433.638C784.666,-423.563 761.511,-410.277 742.431,-399.329"/> 
<polygon fill="black" stroke="black" points="744.127,-396.267 733.711,-394.326 740.643,-402.338 744.127,-396.267"/> 
</g> 
<!-- m0&#45;&gt;l0 --> 
<g id="edge74" class="edge"><title>m0&#45;&gt;l0</title> 
<path fill="none" stroke="black" d="M894.111,-288.765C880.102,-279.244 862.222,-267.093 847.006,-256.752"/> 
<polygon fill="black" stroke="black" points="848.643,-253.632 838.404,-250.906 844.708,-259.422 848.643,-253.632"/> 
</g> 
<!-- m0&#45;&gt;s0 --> 
<g id="edge78" class="edge"><title>m0&#45;&gt;s0</title> 
<path fill="none" stroke="black" d="M918,-287.871C918,-263.67 918,-219.211 918,-190.393"/> 
<polygon fill="black" stroke="black" points="921.5,-190.189 918,-180.189 914.5,-190.189 921.5,-190.189"/> 
</g> 
<!-- o0&#45;&gt;n0 --> 
<g id="edge80" class="edge"><title>o0&#45;&gt;n0</title> 
<path fill="none" stroke="black" d="M345.456,-288.411C352.943,-279.82 362.233,-269.159 370.539,-259.627"/> 
<polygon fill="black" stroke="black" points="373.293,-261.795 377.224,-251.956 368.015,-257.196 373.293,-261.795"/> 
</g> 
<!-- n0&#45;&gt;k0 --> 
<g id="edge68" class="edge"><title>n0&#45;&gt;k0</title> 
<path fill="none" stroke="black" d="M437.792,-221.856C446.169,-219.868 454.841,-217.845 463,-216 525.311,-201.911 596.638,-186.836 646.935,-176.38"/> 
<polygon fill="black" stroke="black" points="647.941,-179.745 657.021,-174.286 646.518,-172.891 647.941,-179.745"/> 
</g> 
</g> 
<text text-anchor="left" x="4" y="-20" style="font-family:Arial Narrow;font-size:20.00;font-weight:bold;">GO Hierarchical View:</text> 

<text text-anchor="left" x="4" y="0" style="font-family:Arial Narrow;font-size:20.00;font-style:italic;">cellular component</text> 

<script type="text/ecmascript"> 
<![CDATA[ 
var targetText; 
function changeToText(z) { 
		targetText = svgDocument.getElementById(z).firstChild; 
		targetText.nodeValue="link to "+z; 
} 
function changeBackText(z) { 
		targetText = svgDocument.getElementById(z).firstChild; 
		targetText.nodeValue=z; 
} 
function changeToText2(z,n) { 
		targetText = svgDocument.getElementById(z).firstChild; 
		if (n<=1) { 
			targetText.nodeValue="link to " + n + " protein record"; 
		} else { 
			targetText.nodeValue="link to " + n + " protein records"; 
		} 
} 
function changeBackText2(z,n) { 
		targetText = svgDocument.getElementById(z).firstChild; 
		targetText.nodeValue="(" + n + ")"; 
} 
// ]]> 
</script> 
</svg> 
