<?xml version="1.0" encoding="UTF-8" standalone="no"?> 
<!DOCTYPE svg PUBLIC "-//W3C//DTD SVG 1.1//EN" 
 "http://www.w3.org/Graphics/SVG/1.1/DTD/svg11.dtd"> 
<!-- Generated by graphviz version 2.28.0 (20110622.2320) 
 --> 
<!-- Title: G Pages: 1 --> 
<svg width="2000" height="1000"  
 viewBox="-30 -50 2000 1000" xmlns="http://www.w3.org/2000/svg" xmlns:xlink="http://www.w3.org/1999/xlink"> 
<g id="graph1" class="graph" transform="scale(1 1) rotate(0) translate(4 400)"> 
<title>G</title> 
<polygon fill="white" stroke="white" points="-4,5 -4,-400 4576,-400 4576,5 -4,5"/> 
<!-- g0 --> 
<g id="node1" class="node"><title>g0</title> 
<ellipse fill="#e98576" stroke="#e98576" cx="594" cy="-306" rx="79.4447" ry="18"/> 
<a xlink:href="http://pir.georgetown.edu/cgi-bin/pt_graphvizView.pl?togoid=0003824" ><text id="GO:0003824" onmousemove="changeToText('GO:0003824')" onmouseout="changeBackText('GO:0003824')"  text-anchor="middle" x="594" y="-306.8" font-family="Times,serif" font-size="14.00">GO:0003824</text></a>
<a xlink:href="http://pir.georgetown.edu/cgi-bin/pt_graphvizView.pl?tofile=432406" ><text id="r432406" onmousemove="changeToText2('r432406', 11)" onmouseout="changeBackText2('r432406', 11)"  text-anchor="middle" x="594" y="-293.8" font-family="Times,serif" font-size="14.00">(11)</text>
 
</a> 
</g> 
<!-- q0 --> 
<g id="node3" class="node"><title>q0</title> 
<ellipse fill="#e98576" stroke="#e98576" cx="75" cy="-234" rx="75.2018" ry="18"/> 
<a xlink:href="http://pir.georgetown.edu/cgi-bin/pt_graphvizView.pl?togoid=0016853" ><text id="GO:0016853" onmousemove="changeToText('GO:0016853')" onmouseout="changeBackText('GO:0016853')"  text-anchor="middle" x="75" y="-234.8" font-family="Times,serif" font-size="14.00">GO:0016853</text></a>
<a xlink:href="http://pir.georgetown.edu/cgi-bin/pt_graphvizView.pl?tofile=432416" ><text id="r432416" onmousemove="changeToText2('r432416', 4)" onmouseout="changeBackText2('r432416', 4)"  text-anchor="middle" x="75" y="-221.8" font-family="Times,serif" font-size="14.00">(4)</text>
 
</a> 
</g> 
<!-- g0&#45;&gt;q0 --> 
<g id="edge2" class="edge"><title>g0&#45;&gt;q0</title> 
<path fill="none" stroke="black" d="M522.553,-298.032C436.165,-289.207 286.486,-272.634 159,-252 152.487,-250.946 145.71,-249.747 138.955,-248.485"/> 
<polygon fill="black" stroke="black" points="139.589,-245.043 129.11,-246.6 138.273,-251.918 139.589,-245.043"/> 
</g> 
<!-- i0 --> 
<g id="node19" class="node"><title>i0</title> 
<ellipse fill="#e98576" stroke="#e98576" cx="248" cy="-234" rx="79.4447" ry="18"/> 
<a xlink:href="http://pir.georgetown.edu/cgi-bin/pt_graphvizView.pl?togoid=0016787" ><text id="GO:0016787" onmousemove="changeToText('GO:0016787')" onmouseout="changeBackText('GO:0016787')"  text-anchor="middle" x="248" y="-234.8" font-family="Times,serif" font-size="14.00">GO:0016787</text></a>
<a xlink:href="http://pir.georgetown.edu/cgi-bin/pt_graphvizView.pl?tofile=432398" ><text id="r432398" onmousemove="changeToText2('r432398', 16)" onmouseout="changeBackText2('r432398', 16)"  text-anchor="middle" x="248" y="-221.8" font-family="Times,serif" font-size="14.00">(16)</text>
 
</a> 
</g> 
<!-- g0&#45;&gt;i0 --> 
<g id="edge28" class="edge"><title>g0&#45;&gt;i0</title> 
<path fill="none" stroke="black" d="M536.865,-293.441C476.012,-281.13 379.762,-261.657 315.285,-248.613"/> 
<polygon fill="black" stroke="black" points="315.715,-245.129 305.22,-246.576 314.327,-251.99 315.715,-245.129"/> 
</g> 
<!-- s0 --> 
<g id="node34" class="node"><title>s0</title> 
<ellipse fill="#e98576" stroke="#e98576" cx="421" cy="-234" rx="75.2018" ry="18"/> 
<a xlink:href="http://pir.georgetown.edu/cgi-bin/pt_graphvizView.pl?togoid=0016874" ><text id="GO:0016874" onmousemove="changeToText('GO:0016874')" onmouseout="changeBackText('GO:0016874')"  text-anchor="middle" x="421" y="-234.8" font-family="Times,serif" font-size="14.00">GO:0016874</text></a>
<a xlink:href="http://pir.georgetown.edu/cgi-bin/pt_graphvizView.pl?tofile=432420" ><text id="r432420" onmousemove="changeToText2('r432420', 3)" onmouseout="changeBackText2('r432420', 3)"  text-anchor="middle" x="421" y="-221.8" font-family="Times,serif" font-size="14.00">(3)</text>
 
</a> 
</g> 
<!-- g0&#45;&gt;s0 --> 
<g id="edge32" class="edge"><title>g0&#45;&gt;s0</title> 
<path fill="none" stroke="black" d="M556.887,-289.983C530.599,-279.346 495.158,-265.006 467.062,-253.638"/> 
<polygon fill="black" stroke="black" points="468.04,-250.258 457.458,-249.752 465.415,-256.747 468.04,-250.258"/> 
</g> 
<!-- f0 --> 
<g id="node38" class="node"><title>f0</title> 
<ellipse fill="#e98576" stroke="#e98576" cx="594" cy="-234" rx="79.4447" ry="18"/> 
<a xlink:href="http://pir.georgetown.edu/cgi-bin/pt_graphvizView.pl?togoid=0016491" ><text id="GO:0016491" onmousemove="changeToText('GO:0016491')" onmouseout="changeBackText('GO:0016491')"  text-anchor="middle" x="594" y="-234.8" font-family="Times,serif" font-size="14.00">GO:0016491</text></a>
<a xlink:href="http://pir.georgetown.edu/cgi-bin/pt_graphvizView.pl?tofile=432394" ><text id="r432394" onmousemove="changeToText2('r432394', 36)" onmouseout="changeBackText2('r432394', 36)"  text-anchor="middle" x="594" y="-221.8" font-family="Times,serif" font-size="14.00">(36)</text>
 
</a> 
</g> 
<!-- g0&#45;&gt;f0 --> 
<g id="edge36" class="edge"><title>g0&#45;&gt;f0</title> 
<path fill="none" stroke="black" d="M594,-287.697C594,-279.983 594,-270.712 594,-262.112"/> 
<polygon fill="black" stroke="black" points="597.5,-262.104 594,-252.104 590.5,-262.104 597.5,-262.104"/> 
</g> 
<!-- j0 --> 
<g id="node71" class="node"><title>j0</title> 
<ellipse fill="#e98576" stroke="#e98576" cx="772" cy="-234" rx="79.4447" ry="18"/> 
<a xlink:href="http://pir.georgetown.edu/cgi-bin/pt_graphvizView.pl?togoid=0016740" ><text id="GO:0016740" onmousemove="changeToText('GO:0016740')" onmouseout="changeBackText('GO:0016740')"  text-anchor="middle" x="772" y="-234.8" font-family="Times,serif" font-size="14.00">GO:0016740</text></a>
<a xlink:href="http://pir.georgetown.edu/cgi-bin/pt_graphvizView.pl?tofile=432400" ><text id="r432400" onmousemove="changeToText2('r432400', 16)" onmouseout="changeBackText2('r432400', 16)"  text-anchor="middle" x="772" y="-221.8" font-family="Times,serif" font-size="14.00">(16)</text>
 
</a> 
</g> 
<!-- g0&#45;&gt;j0 --> 
<g id="edge70" class="edge"><title>g0&#45;&gt;j0</title> 
<path fill="none" stroke="black" d="M631.749,-290.155C658.797,-279.518 695.424,-265.114 724.466,-253.693"/> 
<polygon fill="black" stroke="black" points="725.973,-256.861 733.999,-249.944 723.412,-250.347 725.973,-256.861"/> 
</g> 
<!-- r0 --> 
<g id="node79" class="node"><title>r0</title> 
<ellipse fill="#e98576" stroke="#e98576" cx="945" cy="-234" rx="75.2018" ry="18"/> 
<a xlink:href="http://pir.georgetown.edu/cgi-bin/pt_graphvizView.pl?togoid=0016829" ><text id="GO:0016829" onmousemove="changeToText('GO:0016829')" onmouseout="changeBackText('GO:0016829')"  text-anchor="middle" x="945" y="-234.8" font-family="Times,serif" font-size="14.00">GO:0016829</text></a>
<a xlink:href="http://pir.georgetown.edu/cgi-bin/pt_graphvizView.pl?tofile=432418" ><text id="r432418" onmousemove="changeToText2('r432418', 4)" onmouseout="changeBackText2('r432418', 4)"  text-anchor="middle" x="945" y="-221.8" font-family="Times,serif" font-size="14.00">(4)</text>
 
</a> 
</g> 
<!-- g0&#45;&gt;r0 --> 
<g id="edge78" class="edge"><title>g0&#45;&gt;r0</title> 
<path fill="none" stroke="black" d="M651.599,-293.536C705.478,-282.809 788.194,-266.334 860,-252 866.198,-250.763 872.651,-249.474 879.107,-248.183"/> 
<polygon fill="black" stroke="black" points="880.1,-251.554 889.22,-246.162 878.728,-244.69 880.1,-251.554"/> 
</g> 
<!-- c0 --> 
<g id="node4" class="node"><title>c0</title> 
<ellipse fill="#e98576" stroke="#e98576" cx="2958" cy="-378" rx="75.2018" ry="18"/> 
<a xlink:href="http://pir.georgetown.edu/cgi-bin/pt_graphvizView.pl?togoid=0003674" ><text id="GO:0003674" onmousemove="changeToText('GO:0003674')" onmouseout="changeBackText('GO:0003674')"  text-anchor="middle" x="2958" y="-378.8" font-family="Times,serif" font-size="14.00">GO:0003674</text></a>
<a xlink:href="http://pir.georgetown.edu/cgi-bin/pt_graphvizView.pl?tofile=432458" ><text id="r432458" onmousemove="changeToText2('r432458', 1)" onmouseout="changeBackText2('r432458', 1)"  text-anchor="middle" x="2958" y="-365.8" font-family="Times,serif" font-size="14.00">(1)</text>
 
</a> 
</g> 
<!-- c0&#45;&gt;g0 --> 
<g id="edge48" class="edge"><title>c0&#45;&gt;g0</title> 
<path fill="none" stroke="black" d="M2884,-374.809C2535.63,-364.493 1060.13,-320.802 682.38,-309.617"/> 
<polygon fill="black" stroke="black" points="682.424,-306.117 672.325,-309.319 682.217,-313.114 682.424,-306.117"/> 
</g> 
<!-- m0 --> 
<g id="node6" class="node"><title>m0</title> 
<ellipse fill="#e98576" stroke="#e98576" cx="2531" cy="-306" rx="79.4447" ry="18"/> 
<a xlink:href="http://pir.georgetown.edu/cgi-bin/pt_graphvizView.pl?togoid=0030234" ><text id="GO:0030234" onmousemove="changeToText('GO:0030234')" onmouseout="changeBackText('GO:0030234')"  text-anchor="middle" x="2531" y="-306.8" font-family="Times,serif" font-size="14.00">GO:0030234</text></a>
<a xlink:href="http://pir.georgetown.edu/cgi-bin/pt_graphvizView.pl?tofile=432408" ><text id="r432408" onmousemove="changeToText2('r432408', 10)" onmouseout="changeBackText2('r432408', 10)"  text-anchor="middle" x="2531" y="-293.8" font-family="Times,serif" font-size="14.00">(10)</text>
 
</a> 
</g> 
<!-- c0&#45;&gt;m0 --> 
<g id="edge4" class="edge"><title>c0&#45;&gt;m0</title> 
<path fill="none" stroke="black" d="M2895.6,-367.85C2827.7,-357.744 2715.97,-340.686 2620,-324 2613.23,-322.823 2606.18,-321.553 2599.15,-320.256"/> 
<polygon fill="black" stroke="black" points="2599.35,-316.734 2588.88,-318.344 2598.07,-323.616 2599.35,-316.734"/> 
</g> 
<!-- b0 --> 
<g id="node7" class="node"><title>b0</title> 
<ellipse fill="#e98576" stroke="#e98576" cx="2704" cy="-306" rx="75.2018" ry="18"/> 
<a xlink:href="http://pir.georgetown.edu/cgi-bin/pt_graphvizView.pl?togoid=0005488" ><text id="GO:0005488" onmousemove="changeToText('GO:0005488')" onmouseout="changeBackText('GO:0005488')"  text-anchor="middle" x="2704" y="-306.8" font-family="Times,serif" font-size="14.00">GO:0005488</text></a>
<a xlink:href="http://pir.georgetown.edu/cgi-bin/pt_graphvizView.pl?tofile=432426" ><text id="r432426" onmousemove="changeToText2('r432426', 2)" onmouseout="changeBackText2('r432426', 2)"  text-anchor="middle" x="2704" y="-293.8" font-family="Times,serif" font-size="14.00">(2)</text>
 
</a> 
</g> 
<!-- c0&#45;&gt;b0 --> 
<g id="edge14" class="edge"><title>c0&#45;&gt;b0</title> 
<path fill="none" stroke="black" d="M2910.82,-363.998C2868.45,-352.321 2806.15,-335.151 2761,-322.71"/> 
<polygon fill="black" stroke="black" points="2761.93,-319.334 2751.36,-320.051 2760.07,-326.083 2761.93,-319.334"/> 
</g> 
<!-- u0 --> 
<g id="node25" class="node"><title>u0</title> 
<ellipse fill="#e98576" stroke="#e98576" cx="2872" cy="-306" rx="75.2018" ry="18"/> 
<a xlink:href="http://pir.georgetown.edu/cgi-bin/pt_graphvizView.pl?togoid=0005215" ><text id="GO:0005215" onmousemove="changeToText('GO:0005215')" onmouseout="changeBackText('GO:0005215')"  text-anchor="middle" x="2872" y="-306.8" font-family="Times,serif" font-size="14.00">GO:0005215</text></a>
<a xlink:href="http://pir.georgetown.edu/cgi-bin/pt_graphvizView.pl?tofile=432424" ><text id="r432424" onmousemove="changeToText2('r432424', 2)" onmouseout="changeBackText2('r432424', 2)"  text-anchor="middle" x="2872" y="-293.8" font-family="Times,serif" font-size="14.00">(2)</text>
 
</a> 
</g> 
<!-- c0&#45;&gt;u0 --> 
<g id="edge22" class="edge"><title>c0&#45;&gt;u0</title> 
<path fill="none" stroke="black" d="M2937.62,-360.411C2926.48,-351.345 2912.51,-339.974 2900.33,-330.057"/> 
<polygon fill="black" stroke="black" points="2902.2,-327.068 2892.23,-323.47 2897.78,-332.497 2902.2,-327.068"/> 
</g> 
<!-- l0 --> 
<g id="node40" class="node"><title>l0</title> 
<ellipse fill="#e98576" stroke="#e98576" cx="3045" cy="-306" rx="79.4447" ry="18"/> 
<a xlink:href="http://pir.georgetown.edu/cgi-bin/pt_graphvizView.pl?togoid=0005198" ><text id="GO:0005198" onmousemove="changeToText('GO:0005198')" onmouseout="changeBackText('GO:0005198')"  text-anchor="middle" x="3045" y="-306.8" font-family="Times,serif" font-size="14.00">GO:0005198</text></a>
<a xlink:href="http://pir.georgetown.edu/cgi-bin/pt_graphvizView.pl?tofile=432404" ><text id="r432404" onmousemove="changeToText2('r432404', 11)" onmouseout="changeBackText2('r432404', 11)"  text-anchor="middle" x="3045" y="-293.8" font-family="Times,serif" font-size="14.00">(11)</text>
 
</a> 
</g> 
<!-- c0&#45;&gt;l0 --> 
<g id="edge38" class="edge"><title>c0&#45;&gt;l0</title> 
<path fill="none" stroke="black" d="M2978.62,-360.411C2989.99,-351.257 3004.29,-339.755 3016.7,-329.772"/> 
<polygon fill="black" stroke="black" points="3018.93,-332.466 3024.53,-323.47 3014.54,-327.012 3018.93,-332.466"/> 
</g> 
<!-- m1 --> 
<g id="node56" class="node"><title>m1</title> 
<ellipse fill="#e98576" stroke="#e98576" cx="3218" cy="-306" rx="75.2018" ry="18"/> 
<a xlink:href="http://pir.georgetown.edu/cgi-bin/pt_graphvizView.pl?togoid=0016530" ><text id="GO:0016530" onmousemove="changeToText('GO:0016530')" onmouseout="changeBackText('GO:0016530')"  text-anchor="middle" x="3218" y="-306.8" font-family="Times,serif" font-size="14.00">GO:0016530</text></a>
<a xlink:href="http://pir.georgetown.edu/cgi-bin/pt_graphvizView.pl?tofile=432456" ><text id="r432456" onmousemove="changeToText2('r432456', 1)" onmouseout="changeBackText2('r432456', 1)"  text-anchor="middle" x="3218" y="-293.8" font-family="Times,serif" font-size="14.00">(1)</text>
 
</a> 
</g> 
<!-- c0&#45;&gt;m1 --> 
<g id="edge54" class="edge"><title>c0&#45;&gt;m1</title> 
<path fill="none" stroke="black" d="M3005.99,-364.079C3049.46,-352.376 3113.61,-335.105 3159.95,-322.629"/> 
<polygon fill="black" stroke="black" points="3161.1,-325.943 3169.85,-319.964 3159.28,-319.184 3161.1,-325.943"/> 
</g> 
<!-- k1 --> 
<g id="node60" class="node"><title>k1</title> 
<ellipse fill="#e98576" stroke="#e98576" cx="3386" cy="-306" rx="75.2018" ry="18"/> 
<a xlink:href="http://pir.georgetown.edu/cgi-bin/pt_graphvizView.pl?togoid=0003774" ><text id="GO:0003774" onmousemove="changeToText('GO:0003774')" onmouseout="changeBackText('GO:0003774')"  text-anchor="middle" x="3386" y="-306.8" font-family="Times,serif" font-size="14.00">GO:0003774</text></a>
<a xlink:href="http://pir.georgetown.edu/cgi-bin/pt_graphvizView.pl?tofile=432452" ><text id="r432452" onmousemove="changeToText2('r432452', 1)" onmouseout="changeBackText2('r432452', 1)"  text-anchor="middle" x="3386" y="-293.8" font-family="Times,serif" font-size="14.00">(1)</text>
 
</a> 
</g> 
<!-- c0&#45;&gt;k1 --> 
<g id="edge58" class="edge"><title>c0&#45;&gt;k1</title> 
<path fill="none" stroke="black" d="M3021.23,-368.163C3090.35,-358.294 3204.29,-341.405 3302,-324 3308.25,-322.887 3314.75,-321.673 3321.24,-320.422"/> 
<polygon fill="black" stroke="black" points="3322.25,-323.79 3331.4,-318.436 3320.91,-316.92 3322.25,-323.79"/> 
</g> 
<!-- n0 --> 
<g id="node64" class="node"><title>n0</title> 
<ellipse fill="#e98576" stroke="#e98576" cx="3554" cy="-306" rx="75.2018" ry="18"/> 
<a xlink:href="http://pir.georgetown.edu/cgi-bin/pt_graphvizView.pl?togoid=0016209" ><text id="GO:0016209" onmousemove="changeToText('GO:0016209')" onmouseout="changeBackText('GO:0016209')"  text-anchor="middle" x="3554" y="-306.8" font-family="Times,serif" font-size="14.00">GO:0016209</text></a>
<a xlink:href="http://pir.georgetown.edu/cgi-bin/pt_graphvizView.pl?tofile=432410" ><text id="r432410" onmousemove="changeToText2('r432410', 8)" onmouseout="changeBackText2('r432410', 8)"  text-anchor="middle" x="3554" y="-293.8" font-family="Times,serif" font-size="14.00">(8)</text>
 
</a> 
</g> 
<!-- c0&#45;&gt;n0 --> 
<g id="edge62" class="edge"><title>c0&#45;&gt;n0</title> 
<path fill="none" stroke="black" d="M3028.67,-371.855C3127.69,-364.153 3313.19,-347.926 3470,-324 3476.62,-322.99 3483.51,-321.809 3490.37,-320.549"/> 
<polygon fill="black" stroke="black" points="3491.19,-323.956 3500.36,-318.657 3489.89,-317.079 3491.19,-323.956"/> 
</g> 
<!-- z0 --> 
<g id="node9" class="node"><title>z0</title> 
<ellipse fill="#e98576" stroke="#e98576" cx="1113" cy="-234" rx="75.2018" ry="18"/> 
<a xlink:href="http://pir.georgetown.edu/cgi-bin/pt_graphvizView.pl?togoid=0042277" ><text id="GO:0042277" onmousemove="changeToText('GO:0042277')" onmouseout="changeBackText('GO:0042277')"  text-anchor="middle" x="1113" y="-234.8" font-family="Times,serif" font-size="14.00">GO:0042277</text></a>
<a xlink:href="http://pir.georgetown.edu/cgi-bin/pt_graphvizView.pl?tofile=432436" ><text id="r432436" onmousemove="changeToText2('r432436', 2)" onmouseout="changeBackText2('r432436', 2)"  text-anchor="middle" x="1113" y="-221.8" font-family="Times,serif" font-size="14.00">(2)</text>
 
</a> 
</g> 
<!-- b0&#45;&gt;z0 --> 
<g id="edge6" class="edge"><title>b0&#45;&gt;z0</title> 
<path fill="none" stroke="black" d="M2651.62,-293.058C2640.89,-291.024 2629.62,-289.187 2619,-288 1990.71,-217.748 1825.21,-322.971 1197,-252 1189.88,-251.196 1182.48,-250.094 1175.14,-248.833"/> 
<polygon fill="black" stroke="black" points="1175.67,-245.373 1165.2,-247.03 1174.42,-252.26 1175.67,-245.373"/> 
</g> 
<!-- t0 --> 
<g id="node11" class="node"><title>t0</title> 
<ellipse fill="#e98576" stroke="#e98576" cx="1281" cy="-234" rx="75.2018" ry="18"/> 
<a xlink:href="http://pir.georgetown.edu/cgi-bin/pt_graphvizView.pl?togoid=0019825" ><text id="GO:0019825" onmousemove="changeToText('GO:0019825')" onmouseout="changeBackText('GO:0019825')"  text-anchor="middle" x="1281" y="-234.8" font-family="Times,serif" font-size="14.00">GO:0019825</text></a>
<a xlink:href="http://pir.georgetown.edu/cgi-bin/pt_graphvizView.pl?tofile=432422" ><text id="r432422" onmousemove="changeToText2('r432422', 3)" onmouseout="changeBackText2('r432422', 3)"  text-anchor="middle" x="1281" y="-221.8" font-family="Times,serif" font-size="14.00">(3)</text>
 
</a> 
</g> 
<!-- b0&#45;&gt;t0 --> 
<g id="edge8" class="edge"><title>b0&#45;&gt;t0</title> 
<path fill="none" stroke="black" d="M2651.62,-293.086C2640.88,-291.05 2629.62,-289.205 2619,-288 2065,-225.103 1918.93,-315.531 1365,-252 1357.89,-251.184 1350.48,-250.074 1343.14,-248.81"/> 
<polygon fill="black" stroke="black" points="1343.67,-245.349 1333.21,-247.002 1342.42,-252.236 1343.67,-245.349"/> 
</g> 
<!-- a0 --> 
<g id="node13" class="node"><title>a0</title> 
<ellipse fill="#e98576" stroke="#e98576" cx="1454" cy="-234" rx="79.4447" ry="18"/> 
<a xlink:href="http://pir.georgetown.edu/cgi-bin/pt_graphvizView.pl?togoid=0005515" ><text id="GO:0005515" onmousemove="changeToText('GO:0005515')" onmouseout="changeBackText('GO:0005515')"  text-anchor="middle" x="1454" y="-234.8" font-family="Times,serif" font-size="14.00">GO:0005515</text></a>
<a xlink:href="http://pir.georgetown.edu/cgi-bin/pt_graphvizView.pl?tofile=432388" ><text id="r432388" onmousemove="changeToText2('r432388', 64)" onmouseout="changeBackText2('r432388', 64)"  text-anchor="middle" x="1454" y="-221.8" font-family="Times,serif" font-size="14.00">(64)</text>
 
</a> 
</g> 
<!-- b0&#45;&gt;a0 --> 
<g id="edge10" class="edge"><title>b0&#45;&gt;a0</title> 
<path fill="none" stroke="black" d="M2651.16,-293.039C2640.56,-291.034 2629.46,-289.213 2619,-288 2143.69,-232.895 2018.54,-305.047 1543,-252 1535.31,-251.142 1527.28,-249.985 1519.33,-248.676"/> 
<polygon fill="black" stroke="black" points="1519.8,-245.204 1509.34,-246.949 1518.6,-252.102 1519.8,-245.204"/> 
</g> 
<!-- x0 --> 
<g id="node15" class="node"><title>x0</title> 
<ellipse fill="#e98576" stroke="#e98576" cx="1627" cy="-234" rx="75.2018" ry="18"/> 
<a xlink:href="http://pir.georgetown.edu/cgi-bin/pt_graphvizView.pl?togoid=0043021" ><text id="GO:0043021" onmousemove="changeToText('GO:0043021')" onmouseout="changeBackText('GO:0043021')"  text-anchor="middle" x="1627" y="-234.8" font-family="Times,serif" font-size="14.00">GO:0043021</text></a>
<a xlink:href="http://pir.georgetown.edu/cgi-bin/pt_graphvizView.pl?tofile=432432" ><text id="r432432" onmousemove="changeToText2('r432432', 2)" onmouseout="changeBackText2('r432432', 2)"  text-anchor="middle" x="1627" y="-221.8" font-family="Times,serif" font-size="14.00">(2)</text>
 
</a> 
</g> 
<!-- b0&#45;&gt;x0 --> 
<g id="edge12" class="edge"><title>b0&#45;&gt;x0</title> 
<path fill="none" stroke="black" d="M2651.16,-293.091C2640.56,-291.081 2629.46,-289.246 2619,-288 2217.96,-240.249 2111.98,-300.21 1711,-252 1704.15,-251.177 1697.03,-250.094 1689.96,-248.873"/> 
<polygon fill="black" stroke="black" points="1690.13,-245.347 1679.67,-246.999 1688.88,-252.234 1690.13,-245.347"/> 
</g> 
<!-- l1 --> 
<g id="node18" class="node"><title>l1</title> 
<ellipse fill="#e98576" stroke="#e98576" cx="1795" cy="-234" rx="75.2018" ry="18"/> 
<a xlink:href="http://pir.georgetown.edu/cgi-bin/pt_graphvizView.pl?togoid=0042562" ><text id="GO:0042562" onmousemove="changeToText('GO:0042562')" onmouseout="changeBackText('GO:0042562')"  text-anchor="middle" x="1795" y="-234.8" font-family="Times,serif" font-size="14.00">GO:0042562</text></a>
<a xlink:href="http://pir.georgetown.edu/cgi-bin/pt_graphvizView.pl?tofile=432454" ><text id="r432454" onmousemove="changeToText2('r432454', 1)" onmouseout="changeBackText2('r432454', 1)"  text-anchor="middle" x="1795" y="-221.8" font-family="Times,serif" font-size="14.00">(1)</text>
 
</a> 
</g> 
<!-- b0&#45;&gt;l1 --> 
<g id="edge16" class="edge"><title>b0&#45;&gt;l1</title> 
<path fill="none" stroke="black" d="M2651.15,-293.165C2640.55,-291.149 2629.45,-289.293 2619,-288 2292.21,-247.6 2205.74,-292.774 1879,-252 1872.16,-251.146 1865.03,-250.044 1857.96,-248.811"/> 
<polygon fill="black" stroke="black" points="1858.14,-245.286 1847.67,-246.926 1856.88,-252.171 1858.14,-245.286"/> 
</g> 
<!-- f1 --> 
<g id="node23" class="node"><title>f1</title> 
<ellipse fill="#e98576" stroke="#e98576" cx="1963" cy="-234" rx="75.2018" ry="18"/> 
<a xlink:href="http://pir.georgetown.edu/cgi-bin/pt_graphvizView.pl?togoid=0005496" ><text id="GO:0005496" onmousemove="changeToText('GO:0005496')" onmouseout="changeBackText('GO:0005496')"  text-anchor="middle" x="1963" y="-234.8" font-family="Times,serif" font-size="14.00">GO:0005496</text></a>
<a xlink:href="http://pir.georgetown.edu/cgi-bin/pt_graphvizView.pl?tofile=432446" ><text id="r432446" onmousemove="changeToText2('r432446', 1)" onmouseout="changeBackText2('r432446', 1)"  text-anchor="middle" x="1963" y="-221.8" font-family="Times,serif" font-size="14.00">(1)</text>
 
</a> 
</g> 
<!-- b0&#45;&gt;f1 --> 
<g id="edge20" class="edge"><title>b0&#45;&gt;f1</title> 
<path fill="none" stroke="black" d="M2650.68,-293.196C2640.22,-291.203 2629.3,-289.347 2619,-288 2366.43,-254.947 2299.53,-285.342 2047,-252 2040.26,-251.11 2033.25,-249.997 2026.28,-248.767"/> 
<polygon fill="black" stroke="black" points="2026.61,-245.268 2016.14,-246.896 2025.34,-252.152 2026.61,-245.268"/> 
</g> 
<!-- d0 --> 
<g id="node27" class="node"><title>d0</title> 
<ellipse fill="#e98576" stroke="#e98576" cx="2136" cy="-234" rx="79.4447" ry="18"/> 
<a xlink:href="http://pir.georgetown.edu/cgi-bin/pt_graphvizView.pl?togoid=0043167" ><text id="GO:0043167" onmousemove="changeToText('GO:0043167')" onmouseout="changeBackText('GO:0043167')"  text-anchor="middle" x="2136" y="-234.8" font-family="Times,serif" font-size="14.00">GO:0043167</text></a>
<a xlink:href="http://pir.georgetown.edu/cgi-bin/pt_graphvizView.pl?tofile=432390" ><text id="r432390" onmousemove="changeToText2('r432390', 60)" onmouseout="changeBackText2('r432390', 60)"  text-anchor="middle" x="2136" y="-221.8" font-family="Times,serif" font-size="14.00">(60)</text>
 
</a> 
</g> 
<!-- b0&#45;&gt;d0 --> 
<g id="edge24" class="edge"><title>b0&#45;&gt;d0</title> 
<path fill="none" stroke="black" d="M2650.19,-293.341C2639.87,-291.36 2629.13,-289.471 2619,-288 2444.99,-262.722 2399.12,-276.525 2225,-252 2217.82,-250.989 2210.35,-249.792 2202.92,-248.508"/> 
<polygon fill="black" stroke="black" points="2203.3,-245.02 2192.84,-246.713 2202.07,-251.912 2203.3,-245.02"/> 
</g> 
<!-- c1 --> 
<g id="node29" class="node"><title>c1</title> 
<a xlink:href="http://pir.georgetown.edu/cgi-bin/pt_graphvizView.pl?togoid=0043176" > 
<ellipse fill="#dddddd" stroke="#dddddd" cx="2295" cy="-234" rx="61.1934" ry="18"/> 
<a xlink:href="http://pir.georgetown.edu/cgi-bin/pt_graphvizView.pl?togoid=0043176" ><text id="GO:0043176" onmousemove="changeToText('GO:0043176')" onmouseout="changeBackText('GO:0043176')"  text-anchor="middle" x="2295" y="-229.8" font-family="Times,serif" font-size="14.00">GO:0043176</text></a>
 
</a> 
</g> 
<!-- b0&#45;&gt;c1 --> 
<g id="edge26" class="edge"><title>b0&#45;&gt;c1</title> 
<path fill="none" stroke="black" d="M2649.21,-293.574C2639.18,-291.615 2628.79,-289.674 2619,-288 2507.05,-268.855 2477.57,-273.247 2366,-252 2360.71,-250.992 2355.22,-249.851 2349.74,-248.647"/> 
<polygon fill="black" stroke="black" points="2350.46,-245.222 2339.93,-246.43 2348.92,-252.05 2350.46,-245.222"/> 
</g> 
<!-- g1 --> 
<g id="node32" class="node"><title>g1</title> 
<ellipse fill="#e98576" stroke="#e98576" cx="2450" cy="-234" rx="75.2018" ry="18"/> 
<a xlink:href="http://pir.georgetown.edu/cgi-bin/pt_graphvizView.pl?togoid=0043178" ><text id="GO:0043178" onmousemove="changeToText('GO:0043178')" onmouseout="changeBackText('GO:0043178')"  text-anchor="middle" x="2450" y="-234.8" font-family="Times,serif" font-size="14.00">GO:0043178</text></a>
<a xlink:href="http://pir.georgetown.edu/cgi-bin/pt_graphvizView.pl?tofile=432448" ><text id="r432448" onmousemove="changeToText2('r432448', 1)" onmouseout="changeBackText2('r432448', 1)"  text-anchor="middle" x="2450" y="-221.8" font-family="Times,serif" font-size="14.00">(1)</text>
 
</a> 
</g> 
<!-- b0&#45;&gt;g1 --> 
<g id="edge30" class="edge"><title>b0&#45;&gt;g1</title> 
<path fill="none" stroke="black" d="M2656.82,-291.998C2614.45,-280.321 2552.15,-263.151 2507,-250.71"/> 
<polygon fill="black" stroke="black" points="2507.93,-247.334 2497.36,-248.051 2506.07,-254.083 2507.93,-247.334"/> 
</g> 
<!-- o0 --> 
<g id="node36" class="node"><title>o0</title> 
<ellipse fill="#e98576" stroke="#e98576" cx="2618" cy="-234" rx="75.2018" ry="18"/> 
<a xlink:href="http://pir.georgetown.edu/cgi-bin/pt_graphvizView.pl?togoid=0003676" ><text id="GO:0003676" onmousemove="changeToText('GO:0003676')" onmouseout="changeBackText('GO:0003676')"  text-anchor="middle" x="2618" y="-234.8" font-family="Times,serif" font-size="14.00">GO:0003676</text></a>
<a xlink:href="http://pir.georgetown.edu/cgi-bin/pt_graphvizView.pl?tofile=432412" ><text id="r432412" onmousemove="changeToText2('r432412', 7)" onmouseout="changeBackText2('r432412', 7)"  text-anchor="middle" x="2618" y="-221.8" font-family="Times,serif" font-size="14.00">(7)</text>
 
</a> 
</g> 
<!-- b0&#45;&gt;o0 --> 
<g id="edge34" class="edge"><title>b0&#45;&gt;o0</title> 
<path fill="none" stroke="black" d="M2683.62,-288.411C2672.48,-279.345 2658.51,-267.974 2646.33,-258.057"/> 
<polygon fill="black" stroke="black" points="2648.2,-255.068 2638.23,-251.47 2643.78,-260.497 2648.2,-255.068"/> 
</g> 
<!-- k0 --> 
<g id="node42" class="node"><title>k0</title> 
<ellipse fill="#e98576" stroke="#e98576" cx="2791" cy="-234" rx="79.4447" ry="18"/> 
<a xlink:href="http://pir.georgetown.edu/cgi-bin/pt_graphvizView.pl?togoid=0048037" ><text id="GO:0048037" onmousemove="changeToText('GO:0048037')" onmouseout="changeBackText('GO:0048037')"  text-anchor="middle" x="2791" y="-234.8" font-family="Times,serif" font-size="14.00">GO:0048037</text></a>
<a xlink:href="http://pir.georgetown.edu/cgi-bin/pt_graphvizView.pl?tofile=432402" ><text id="r432402" onmousemove="changeToText2('r432402', 14)" onmouseout="changeBackText2('r432402', 14)"  text-anchor="middle" x="2791" y="-221.8" font-family="Times,serif" font-size="14.00">(14)</text>
 
</a> 
</g> 
<!-- b0&#45;&gt;k0 --> 
<g id="edge40" class="edge"><title>b0&#45;&gt;k0</title> 
<path fill="none" stroke="black" d="M2724.62,-288.411C2735.99,-279.257 2750.29,-267.755 2762.7,-257.772"/> 
<polygon fill="black" stroke="black" points="2764.93,-260.466 2770.53,-251.47 2760.54,-255.012 2764.93,-260.466"/> 
</g> 
<!-- p0 --> 
<g id="node44" class="node"><title>p0</title> 
<ellipse fill="#e98576" stroke="#e98576" cx="2964" cy="-234" rx="75.2018" ry="18"/> 
<a xlink:href="http://pir.georgetown.edu/cgi-bin/pt_graphvizView.pl?togoid=0008289" ><text id="GO:0008289" onmousemove="changeToText('GO:0008289')" onmouseout="changeBackText('GO:0008289')"  text-anchor="middle" x="2964" y="-234.8" font-family="Times,serif" font-size="14.00">GO:0008289</text></a>
<a xlink:href="http://pir.georgetown.edu/cgi-bin/pt_graphvizView.pl?tofile=432414" ><text id="r432414" onmousemove="changeToText2('r432414', 4)" onmouseout="changeBackText2('r432414', 4)"  text-anchor="middle" x="2964" y="-221.8" font-family="Times,serif" font-size="14.00">(4)</text>
 
</a> 
</g> 
<!-- b0&#45;&gt;p0 --> 
<g id="edge42" class="edge"><title>b0&#45;&gt;p0</title> 
<path fill="none" stroke="black" d="M2751.99,-292.079C2795.46,-280.376 2859.61,-263.105 2905.95,-250.629"/> 
<polygon fill="black" stroke="black" points="2907.1,-253.943 2915.85,-247.964 2905.28,-247.184 2907.1,-253.943"/> 
</g> 
<!-- h0 --> 
<g id="node52" class="node"><title>h0</title> 
<ellipse fill="#e98576" stroke="#e98576" cx="3137" cy="-234" rx="79.4447" ry="18"/> 
<a xlink:href="http://pir.georgetown.edu/cgi-bin/pt_graphvizView.pl?togoid=0001882" ><text id="GO:0001882" onmousemove="changeToText('GO:0001882')" onmouseout="changeBackText('GO:0001882')"  text-anchor="middle" x="3137" y="-234.8" font-family="Times,serif" font-size="14.00">GO:0001882</text></a>
<a xlink:href="http://pir.georgetown.edu/cgi-bin/pt_graphvizView.pl?tofile=432396" ><text id="r432396" onmousemove="changeToText2('r432396', 34)" onmouseout="changeBackText2('r432396', 34)"  text-anchor="middle" x="3137" y="-221.8" font-family="Times,serif" font-size="14.00">(34)</text>
 
</a> 
</g> 
<!-- b0&#45;&gt;h0 --> 
<g id="edge50" class="edge"><title>b0&#45;&gt;h0</title> 
<path fill="none" stroke="black" d="M2758.58,-293.442C2768.36,-291.518 2778.47,-289.623 2788,-288 2903,-268.42 2932.89,-270.95 3048,-252 3054.78,-250.884 3061.83,-249.654 3068.88,-248.382"/> 
<polygon fill="black" stroke="black" points="3069.94,-251.744 3079.15,-246.495 3068.68,-244.859 3069.94,-251.744"/> 
</g> 
<!-- v0 --> 
<g id="node54" class="node"><title>v0</title> 
<ellipse fill="#e98576" stroke="#e98576" cx="3310" cy="-234" rx="75.2018" ry="18"/> 
<a xlink:href="http://pir.georgetown.edu/cgi-bin/pt_graphvizView.pl?togoid=0008144" ><text id="GO:0008144" onmousemove="changeToText('GO:0008144')" onmouseout="changeBackText('GO:0008144')"  text-anchor="middle" x="3310" y="-234.8" font-family="Times,serif" font-size="14.00">GO:0008144</text></a>
<a xlink:href="http://pir.georgetown.edu/cgi-bin/pt_graphvizView.pl?tofile=432428" ><text id="r432428" onmousemove="changeToText2('r432428', 2)" onmouseout="changeBackText2('r432428', 2)"  text-anchor="middle" x="3310" y="-221.8" font-family="Times,serif" font-size="14.00">(2)</text>
 
</a> 
</g> 
<!-- b0&#45;&gt;v0 --> 
<g id="edge52" class="edge"><title>b0&#45;&gt;v0</title> 
<path fill="none" stroke="black" d="M2757.16,-293.261C2767.36,-291.287 2777.98,-289.421 2788,-288 2980.95,-260.625 3032.02,-279.155 3225,-252 3231.81,-251.042 3238.89,-249.884 3245.94,-248.629"/> 
<polygon fill="black" stroke="black" points="3247,-251.992 3256.2,-246.732 3245.73,-245.109 3247,-251.992"/> 
</g> 
<!-- d1 --> 
<g id="node58" class="node"><title>d1</title> 
<ellipse fill="#e98576" stroke="#e98576" cx="3478" cy="-234" rx="75.2018" ry="18"/> 
<a xlink:href="http://pir.georgetown.edu/cgi-bin/pt_graphvizView.pl?togoid=0019842" ><text id="GO:0019842" onmousemove="changeToText('GO:0019842')" onmouseout="changeBackText('GO:0019842')"  text-anchor="middle" x="3478" y="-234.8" font-family="Times,serif" font-size="14.00">GO:0019842</text></a>
<a xlink:href="http://pir.georgetown.edu/cgi-bin/pt_graphvizView.pl?tofile=432442" ><text id="r432442" onmousemove="changeToText2('r432442', 1)" onmouseout="changeBackText2('r432442', 1)"  text-anchor="middle" x="3478" y="-221.8" font-family="Times,serif" font-size="14.00">(1)</text>
 
</a> 
</g> 
<!-- b0&#45;&gt;d1 --> 
<g id="edge56" class="edge"><title>b0&#45;&gt;d1</title> 
<path fill="none" stroke="black" d="M2756.69,-293.162C2767.02,-291.172 2777.82,-289.326 2788,-288 3055.55,-253.155 3126.45,-286.845 3394,-252 3400.84,-251.109 3407.96,-249.983 3415.03,-248.737"/> 
<polygon fill="black" stroke="black" points="3416.12,-252.096 3425.31,-246.838 3414.84,-245.212 3416.12,-252.096"/> 
</g> 
<!-- e1 --> 
<g id="node66" class="node"><title>e1</title> 
<ellipse fill="#e98576" stroke="#e98576" cx="3646" cy="-234" rx="75.2018" ry="18"/> 
<a xlink:href="http://pir.georgetown.edu/cgi-bin/pt_graphvizView.pl?togoid=0060090" ><text id="GO:0060090" onmousemove="changeToText('GO:0060090')" onmouseout="changeBackText('GO:0060090')"  text-anchor="middle" x="3646" y="-234.8" font-family="Times,serif" font-size="14.00">GO:0060090</text></a>
<a xlink:href="http://pir.georgetown.edu/cgi-bin/pt_graphvizView.pl?tofile=432444" ><text id="r432444" onmousemove="changeToText2('r432444', 1)" onmouseout="changeBackText2('r432444', 1)"  text-anchor="middle" x="3646" y="-221.8" font-family="Times,serif" font-size="14.00">(1)</text>
 
</a> 
</g> 
<!-- b0&#45;&gt;e1 --> 
<g id="edge64" class="edge"><title>b0&#45;&gt;e1</title> 
<path fill="none" stroke="black" d="M2756.67,-293.057C2767.01,-291.076 2777.81,-289.26 2788,-288 3129.77,-245.721 3220.23,-294.279 3562,-252 3568.85,-251.153 3575.97,-250.056 3583.04,-248.826"/> 
<polygon fill="black" stroke="black" points="3584.12,-252.186 3593.33,-246.943 3582.86,-245.3 3584.12,-252.186"/> 
</g> 
<!-- y0 --> 
<g id="node68" class="node"><title>y0</title> 
<ellipse fill="#e98576" stroke="#e98576" cx="3814" cy="-234" rx="75.2018" ry="18"/> 
<a xlink:href="http://pir.georgetown.edu/cgi-bin/pt_graphvizView.pl?togoid=0031406" ><text id="GO:0031406" onmousemove="changeToText('GO:0031406')" onmouseout="changeBackText('GO:0031406')"  text-anchor="middle" x="3814" y="-234.8" font-family="Times,serif" font-size="14.00">GO:0031406</text></a>
<a xlink:href="http://pir.georgetown.edu/cgi-bin/pt_graphvizView.pl?tofile=432434" ><text id="r432434" onmousemove="changeToText2('r432434', 2)" onmouseout="changeBackText2('r432434', 2)"  text-anchor="middle" x="3814" y="-221.8" font-family="Times,serif" font-size="14.00">(2)</text>
 
</a> 
</g> 
<!-- b0&#45;&gt;y0 --> 
<g id="edge66" class="edge"><title>b0&#45;&gt;y0</title> 
<path fill="none" stroke="black" d="M2756.66,-292.989C2767,-291.015 2777.81,-289.218 2788,-288 3204.01,-238.284 3313.99,-301.716 3730,-252 3736.85,-251.182 3743.97,-250.102 3751.05,-248.883"/> 
<polygon fill="black" stroke="black" points="3752.12,-252.244 3761.34,-247.011 3750.87,-245.357 3752.12,-252.244"/> 
</g> 
<!-- n1 --> 
<g id="node73" class="node"><title>n1</title> 
<ellipse fill="#e98576" stroke="#e98576" cx="3982" cy="-234" rx="75.2018" ry="18"/> 
<a xlink:href="http://pir.georgetown.edu/cgi-bin/pt_graphvizView.pl?togoid=0046906" ><text id="GO:0046906" onmousemove="changeToText('GO:0046906')" onmouseout="changeBackText('GO:0046906')"  text-anchor="middle" x="3982" y="-234.8" font-family="Times,serif" font-size="14.00">GO:0046906</text></a>
<a xlink:href="http://pir.georgetown.edu/cgi-bin/pt_graphvizView.pl?tofile=432460" ><text id="r432460" onmousemove="changeToText2('r432460', 1)" onmouseout="changeBackText2('r432460', 1)"  text-anchor="middle" x="3982" y="-221.8" font-family="Times,serif" font-size="14.00">(1)</text>
 
</a> 
</g> 
<!-- b0&#45;&gt;n1 --> 
<g id="edge72" class="edge"><title>b0&#45;&gt;n1</title> 
<path fill="none" stroke="black" d="M2756.21,-293.028C2766.69,-291.024 2777.65,-289.206 2788,-288 3278.27,-230.846 3407.73,-309.154 3898,-252 3905.11,-251.171 3912.52,-250.053 3919.86,-248.783"/> 
<polygon fill="black" stroke="black" points="3920.58,-252.21 3929.79,-246.972 3919.32,-245.323 3920.58,-252.21"/> 
</g> 
<!-- e0 --> 
<g id="node75" class="node"><title>e0</title> 
<ellipse fill="#e98576" stroke="#e98576" cx="4155" cy="-234" rx="79.4447" ry="18"/> 
<a xlink:href="http://pir.georgetown.edu/cgi-bin/pt_graphvizView.pl?togoid=0000166" ><text id="GO:0000166" onmousemove="changeToText('GO:0000166')" onmouseout="changeBackText('GO:0000166')"  text-anchor="middle" x="4155" y="-234.8" font-family="Times,serif" font-size="14.00">GO:0000166</text></a>
<a xlink:href="http://pir.georgetown.edu/cgi-bin/pt_graphvizView.pl?tofile=432392" ><text id="r432392" onmousemove="changeToText2('r432392', 45)" onmouseout="changeBackText2('r432392', 45)"  text-anchor="middle" x="4155" y="-221.8" font-family="Times,serif" font-size="14.00">(45)</text>
 
</a> 
</g> 
<!-- b0&#45;&gt;e0 --> 
<g id="edge74" class="edge"><title>b0&#45;&gt;e0</title> 
<path fill="none" stroke="black" d="M2756.21,-292.993C2766.68,-290.992 2777.65,-289.184 2788,-288 3352.54,-223.406 3501.11,-313.503 4066,-252 4073.7,-251.162 4081.72,-250.018 4089.67,-248.716"/> 
<polygon fill="black" stroke="black" points="4090.4,-252.142 4099.66,-246.994 4089.21,-245.244 4090.4,-252.142"/> 
</g> 
<!-- o1 --> 
<g id="node77" class="node"><title>o1</title> 
<ellipse fill="#e98576" stroke="#e98576" cx="4328" cy="-234" rx="75.2018" ry="18"/> 
<a xlink:href="http://pir.georgetown.edu/cgi-bin/pt_graphvizView.pl?togoid=0019840" ><text id="GO:0019840" onmousemove="changeToText('GO:0019840')" onmouseout="changeBackText('GO:0019840')"  text-anchor="middle" x="4328" y="-234.8" font-family="Times,serif" font-size="14.00">GO:0019840</text></a>
<a xlink:href="http://pir.georgetown.edu/cgi-bin/pt_graphvizView.pl?tofile=432462" ><text id="r432462" onmousemove="changeToText2('r432462', 1)" onmouseout="changeBackText2('r432462', 1)"  text-anchor="middle" x="4328" y="-221.8" font-family="Times,serif" font-size="14.00">(1)</text>
 
</a> 
</g> 
<!-- b0&#45;&gt;o1 --> 
<g id="edge76" class="edge"><title>b0&#45;&gt;o1</title> 
<path fill="none" stroke="black" d="M2756.2,-292.965C2766.68,-290.966 2777.65,-289.166 2788,-288 3430.8,-215.567 3600.12,-323.697 4243,-252 4250.38,-251.177 4258.08,-250.038 4265.7,-248.738"/> 
<polygon fill="black" stroke="black" points="4266.4,-252.166 4275.62,-246.947 4265.16,-245.277 4266.4,-252.166"/> 
</g> 
<!-- a1 --> 
<g id="node81" class="node"><title>a1</title> 
<ellipse fill="#e98576" stroke="#e98576" cx="4496" cy="-234" rx="75.2018" ry="18"/> 
<a xlink:href="http://pir.georgetown.edu/cgi-bin/pt_graphvizView.pl?togoid=0051540" ><text id="GO:0051540" onmousemove="changeToText('GO:0051540')" onmouseout="changeBackText('GO:0051540')"  text-anchor="middle" x="4496" y="-234.8" font-family="Times,serif" font-size="14.00">GO:0051540</text></a>
<a xlink:href="http://pir.georgetown.edu/cgi-bin/pt_graphvizView.pl?tofile=432438" ><text id="r432438" onmousemove="changeToText2('r432438', 1)" onmouseout="changeBackText2('r432438', 1)"  text-anchor="middle" x="4496" y="-221.8" font-family="Times,serif" font-size="14.00">(1)</text>
 
</a> 
</g> 
<!-- b0&#45;&gt;a1 --> 
<g id="edge80" class="edge"><title>b0&#45;&gt;a1</title> 
<path fill="none" stroke="black" d="M2756.2,-292.944C2766.68,-290.946 2777.65,-289.153 2788,-288 3505.52,-208.082 3694.48,-331.918 4412,-252 4419.12,-251.207 4426.53,-250.112 4433.87,-248.856"/> 
<polygon fill="black" stroke="black" points="4434.58,-252.283 4443.8,-247.056 4433.34,-245.395 4434.58,-252.283"/> 
</g> 
<!-- w0 --> 
<g id="node21" class="node"><title>w0</title> 
<ellipse fill="#e98576" stroke="#e98576" cx="248" cy="-162" rx="75.2018" ry="18"/> 
<a xlink:href="http://pir.georgetown.edu/cgi-bin/pt_graphvizView.pl?togoid=0008233" ><text id="GO:0008233" onmousemove="changeToText('GO:0008233')" onmouseout="changeBackText('GO:0008233')"  text-anchor="middle" x="248" y="-162.8" font-family="Times,serif" font-size="14.00">GO:0008233</text></a>
<a xlink:href="http://pir.georgetown.edu/cgi-bin/pt_graphvizView.pl?tofile=432430" ><text id="r432430" onmousemove="changeToText2('r432430', 2)" onmouseout="changeBackText2('r432430', 2)"  text-anchor="middle" x="248" y="-149.8" font-family="Times,serif" font-size="14.00">(2)</text>
 
</a> 
</g> 
<!-- i0&#45;&gt;w0 --> 
<g id="edge18" class="edge"><title>i0&#45;&gt;w0</title> 
<path fill="none" stroke="black" d="M248,-215.697C248,-207.983 248,-198.712 248,-190.112"/> 
<polygon fill="black" stroke="black" points="251.5,-190.104 248,-180.104 244.5,-190.104 251.5,-190.104"/> 
</g> 
<!-- b1 --> 
<g id="node62" class="node"><title>b1</title> 
<ellipse fill="#e98576" stroke="#e98576" cx="2295" cy="-162" rx="75.2018" ry="18"/> 
<a xlink:href="http://pir.georgetown.edu/cgi-bin/pt_graphvizView.pl?togoid=0016597" ><text id="GO:0016597" onmousemove="changeToText('GO:0016597')" onmouseout="changeBackText('GO:0016597')"  text-anchor="middle" x="2295" y="-162.8" font-family="Times,serif" font-size="14.00">GO:0016597</text></a>
<a xlink:href="http://pir.georgetown.edu/cgi-bin/pt_graphvizView.pl?tofile=432440" ><text id="r432440" onmousemove="changeToText2('r432440', 1)" onmouseout="changeBackText2('r432440', 1)"  text-anchor="middle" x="2295" y="-149.8" font-family="Times,serif" font-size="14.00">(1)</text>
 
</a> 
</g> 
<!-- c1&#45;&gt;b1 --> 
<g id="edge60" class="edge"><title>c1&#45;&gt;b1</title> 
<path fill="none" stroke="black" d="M2295,-215.697C2295,-207.983 2295,-198.712 2295,-190.112"/> 
<polygon fill="black" stroke="black" points="2298.5,-190.104 2295,-180.104 2291.5,-190.104 2298.5,-190.104"/> 
</g> 
<!-- j1 --> 
<g id="node46" class="node"><title>j1</title> 
<a xlink:href="http://pir.georgetown.edu/cgi-bin/pt_graphvizView.pl?togoid=0016879" > 
<ellipse fill="#dddddd" stroke="#dddddd" cx="421" cy="-162" rx="61.1934" ry="18"/> 
<a xlink:href="http://pir.georgetown.edu/cgi-bin/pt_graphvizView.pl?togoid=0016879" ><text id="GO:0016879" onmousemove="changeToText('GO:0016879')" onmouseout="changeBackText('GO:0016879')"  text-anchor="middle" x="421" y="-157.8" font-family="Times,serif" font-size="14.00">GO:0016879</text></a>
 
</a> 
</g> 
<!-- s0&#45;&gt;j1 --> 
<g id="edge44" class="edge"><title>s0&#45;&gt;j1</title> 
<path fill="none" stroke="black" d="M421,-215.697C421,-207.983 421,-198.712 421,-190.112"/> 
<polygon fill="black" stroke="black" points="424.5,-190.104 421,-180.104 417.5,-190.104 424.5,-190.104"/> 
</g> 
<!-- i1 --> 
<g id="node47" class="node"><title>i1</title> 
<a xlink:href="http://pir.georgetown.edu/cgi-bin/pt_graphvizView.pl?togoid=0016881" > 
<ellipse fill="#dddddd" stroke="#dddddd" cx="421" cy="-90" rx="61.1934" ry="18"/> 
<a xlink:href="http://pir.georgetown.edu/cgi-bin/pt_graphvizView.pl?togoid=0016881" ><text id="GO:0016881" onmousemove="changeToText('GO:0016881')" onmouseout="changeBackText('GO:0016881')"  text-anchor="middle" x="421" y="-85.8" font-family="Times,serif" font-size="14.00">GO:0016881</text></a>
 
</a> 
</g> 
<!-- j1&#45;&gt;i1 --> 
<g id="edge68" class="edge"><title>j1&#45;&gt;i1</title> 
<path fill="none" stroke="black" d="M421,-143.697C421,-135.983 421,-126.712 421,-118.112"/> 
<polygon fill="black" stroke="black" points="424.5,-118.104 421,-108.104 417.5,-118.104 424.5,-118.104"/> 
</g> 
<!-- h1 --> 
<g id="node49" class="node"><title>h1</title> 
<ellipse fill="#e98576" stroke="#e98576" cx="421" cy="-18" rx="75.2018" ry="18"/> 
<a xlink:href="http://pir.georgetown.edu/cgi-bin/pt_graphvizView.pl?togoid=0019787" ><text id="GO:0019787" onmousemove="changeToText('GO:0019787')" onmouseout="changeBackText('GO:0019787')"  text-anchor="middle" x="421" y="-18.8" font-family="Times,serif" font-size="14.00">GO:0019787</text></a>
<a xlink:href="http://pir.georgetown.edu/cgi-bin/pt_graphvizView.pl?tofile=432450" ><text id="r432450" onmousemove="changeToText2('r432450', 1)" onmouseout="changeBackText2('r432450', 1)"  text-anchor="middle" x="421" y="-5.8" font-family="Times,serif" font-size="14.00">(1)</text>
 
</a> 
</g> 
<!-- i1&#45;&gt;h1 --> 
<g id="edge46" class="edge"><title>i1&#45;&gt;h1</title> 
<path fill="none" stroke="black" d="M421,-71.6966C421,-63.9827 421,-54.7125 421,-46.1124"/> 
<polygon fill="black" stroke="black" points="424.5,-46.1043 421,-36.1043 417.5,-46.1044 424.5,-46.1043"/> 
</g> 
</g> 
<text text-anchor="left" x="4" y="-20" style="font-family:Arial Narrow;font-size:20.00;font-weight:bold;">GO Hierarchical View:</text> 

<text text-anchor="left" x="4" y="0" style="font-family:Arial Narrow;font-size:20.00;font-style:italic;">molecular function</text> 

<script type="text/ecmascript"> 
<![CDATA[ 
var targetText; 
function changeToText(z) { 
		targetText = svgDocument.getElementById(z).firstChild; 
		targetText.nodeValue="link to "+z; 
} 
function changeBackText(z) { 
		targetText = svgDocument.getElementById(z).firstChild; 
		targetText.nodeValue=z; 
} 
function changeToText2(z,n) { 
		targetText = svgDocument.getElementById(z).firstChild; 
		if (n<=1) { 
			targetText.nodeValue="link to " + n + " protein record"; 
		} else { 
			targetText.nodeValue="link to " + n + " protein records"; 
		} 
} 
function changeBackText2(z,n) { 
		targetText = svgDocument.getElementById(z).firstChild; 
		targetText.nodeValue="(" + n + ")"; 
} 
// ]]> 
</script> 
</svg> 
