<?xml version="1.0" encoding="UTF-8" standalone="no"?> 
<!DOCTYPE svg PUBLIC "-//W3C//DTD SVG 1.1//EN" 
 "http://www.w3.org/Graphics/SVG/1.1/DTD/svg11.dtd"> 
<!-- Generated by graphviz version 2.28.0 (20110622.2320) 
 --> 
<!-- Title: G Pages: 1 --> 
<svg width="2000" height="1000"  
 viewBox="-30 -50 2000 1000" xmlns="http://www.w3.org/2000/svg" xmlns:xlink="http://www.w3.org/1999/xlink"> 
<g id="graph1" class="graph" transform="scale(1 1) rotate(0) translate(4 256)"> 
<title>G</title> 
<polygon fill="white" stroke="white" points="-4,5 -4,-256 3094,-256 3094,5 -4,5"/> 
<!-- c0 --> 
<g id="node1" class="node"><title>c0</title> 
<ellipse fill="#e98576" stroke="#e98576" cx="2057" cy="-234" rx="75.2018" ry="18"/> 
<a xlink:href="http://pir.georgetown.edu/cgi-bin/pt_graphvizView.pl?togoid=0003674" ><text id="GO:0003674" onmousemove="changeToText('GO:0003674')" onmouseout="changeBackText('GO:0003674')"  text-anchor="middle" x="2057" y="-234.8" font-family="Times,serif" font-size="14.00">GO:0003674</text></a>
<a xlink:href="http://pir.georgetown.edu/cgi-bin/pt_graphvizView.pl?tofile=291132" ><text id="r291132" onmousemove="changeToText2('r291132', 4)" onmouseout="changeBackText2('r291132', 4)"  text-anchor="middle" x="2057" y="-221.8" font-family="Times,serif" font-size="14.00">(4)</text>
 
</a> 
</g> 
<!-- v0 --> 
<g id="node3" class="node"><title>v0</title> 
<ellipse fill="#e98576" stroke="#e98576" cx="609" cy="-162" rx="75.2018" ry="18"/> 
<a xlink:href="http://pir.georgetown.edu/cgi-bin/pt_graphvizView.pl?togoid=0030234" ><text id="GO:0030234" onmousemove="changeToText('GO:0030234')" onmouseout="changeBackText('GO:0030234')"  text-anchor="middle" x="609" y="-162.8" font-family="Times,serif" font-size="14.00">GO:0030234</text></a>
<a xlink:href="http://pir.georgetown.edu/cgi-bin/pt_graphvizView.pl?tofile=291140" ><text id="r291140" onmousemove="changeToText2('r291140', 2)" onmouseout="changeBackText2('r291140', 2)"  text-anchor="middle" x="609" y="-149.8" font-family="Times,serif" font-size="14.00">(2)</text>
 
</a> 
</g> 
<!-- c0&#45;&gt;v0 --> 
<g id="edge2" class="edge"><title>c0&#45;&gt;v0</title> 
<path fill="none" stroke="black" d="M1982.28,-231.681C1735.18,-227.072 945.801,-210.293 693,-180 686.151,-179.179 679.028,-178.098 671.955,-176.878"/> 
<polygon fill="black" stroke="black" points="672.13,-173.353 661.665,-175.005 670.877,-180.24 672.13,-173.353"/> 
</g> 
<!-- h0 --> 
<g id="node4" class="node"><title>h0</title> 
<ellipse fill="#e98576" stroke="#e98576" cx="782" cy="-162" rx="79.4447" ry="18"/> 
<a xlink:href="http://pir.georgetown.edu/cgi-bin/pt_graphvizView.pl?togoid=0003824" ><text id="GO:0003824" onmousemove="changeToText('GO:0003824')" onmouseout="changeBackText('GO:0003824')"  text-anchor="middle" x="782" y="-162.8" font-family="Times,serif" font-size="14.00">GO:0003824</text></a>
<a xlink:href="http://pir.georgetown.edu/cgi-bin/pt_graphvizView.pl?tofile=291110" ><text id="r291110" onmousemove="changeToText2('r291110', 33)" onmouseout="changeBackText2('r291110', 33)"  text-anchor="middle" x="782" y="-149.8" font-family="Times,serif" font-size="14.00">(33)</text>
 
</a> 
</g> 
<!-- c0&#45;&gt;h0 --> 
<g id="edge8" class="edge"><title>c0&#45;&gt;h0</title> 
<path fill="none" stroke="black" d="M1984.8,-229.036C1765.23,-216.981 1106.04,-180.791 868.508,-167.749"/> 
<polygon fill="black" stroke="black" points="868.374,-164.237 858.197,-167.183 867.99,-171.226 868.374,-164.237"/> 
</g> 
<!-- b0 --> 
<g id="node7" class="node"><title>b0</title> 
<a xlink:href="http://pir.georgetown.edu/cgi-bin/pt_graphvizView.pl?togoid=0005488" > 
<ellipse fill="#dddddd" stroke="#dddddd" cx="1980" cy="-162" rx="61.1934" ry="18"/> 
<a xlink:href="http://pir.georgetown.edu/cgi-bin/pt_graphvizView.pl?togoid=0005488" ><text id="GO:0005488" onmousemove="changeToText('GO:0005488')" onmouseout="changeBackText('GO:0005488')"  text-anchor="middle" x="1980" y="-157.8" font-family="Times,serif" font-size="14.00">GO:0005488</text></a>
 
</a> 
</g> 
<!-- c0&#45;&gt;b0 --> 
<g id="edge18" class="edge"><title>c0&#45;&gt;b0</title> 
<path fill="none" stroke="black" d="M2038.75,-216.411C2028.8,-207.367 2016.33,-196.03 2005.44,-186.13"/> 
<polygon fill="black" stroke="black" points="2007.61,-183.365 1997.85,-179.228 2002.9,-188.545 2007.61,-183.365"/> 
</g> 
<!-- w0 --> 
<g id="node25" class="node"><title>w0</title> 
<ellipse fill="#e98576" stroke="#e98576" cx="2135" cy="-162" rx="75.2018" ry="18"/> 
<a xlink:href="http://pir.georgetown.edu/cgi-bin/pt_graphvizView.pl?togoid=0016209" ><text id="GO:0016209" onmousemove="changeToText('GO:0016209')" onmouseout="changeBackText('GO:0016209')"  text-anchor="middle" x="2135" y="-162.8" font-family="Times,serif" font-size="14.00">GO:0016209</text></a>
<a xlink:href="http://pir.georgetown.edu/cgi-bin/pt_graphvizView.pl?tofile=291142" ><text id="r291142" onmousemove="changeToText2('r291142', 2)" onmouseout="changeBackText2('r291142', 2)"  text-anchor="middle" x="2135" y="-149.8" font-family="Times,serif" font-size="14.00">(2)</text>
 
</a> 
</g> 
<!-- c0&#45;&gt;w0 --> 
<g id="edge22" class="edge"><title>c0&#45;&gt;w0</title> 
<path fill="none" stroke="black" d="M2075.48,-216.411C2085.49,-207.432 2098.01,-196.193 2108.99,-186.344"/> 
<polygon fill="black" stroke="black" points="2111.54,-188.754 2116.65,-179.47 2106.87,-183.544 2111.54,-188.754"/> 
</g> 
<!-- r0 --> 
<g id="node27" class="node"><title>r0</title> 
<ellipse fill="#e98576" stroke="#e98576" cx="2303" cy="-162" rx="75.2018" ry="18"/> 
<a xlink:href="http://pir.georgetown.edu/cgi-bin/pt_graphvizView.pl?togoid=0005215" ><text id="GO:0005215" onmousemove="changeToText('GO:0005215')" onmouseout="changeBackText('GO:0005215')"  text-anchor="middle" x="2303" y="-162.8" font-family="Times,serif" font-size="14.00">GO:0005215</text></a>
<a xlink:href="http://pir.georgetown.edu/cgi-bin/pt_graphvizView.pl?tofile=291130" ><text id="r291130" onmousemove="changeToText2('r291130', 5)" onmouseout="changeBackText2('r291130', 5)"  text-anchor="middle" x="2303" y="-149.8" font-family="Times,serif" font-size="14.00">(5)</text>
 
</a> 
</g> 
<!-- c0&#45;&gt;r0 --> 
<g id="edge24" class="edge"><title>c0&#45;&gt;r0</title> 
<path fill="none" stroke="black" d="M2103.56,-219.751C2144.27,-208.168 2203.48,-191.319 2246.81,-178.989"/> 
<polygon fill="black" stroke="black" points="2247.97,-182.298 2256.63,-176.195 2246.05,-175.565 2247.97,-182.298"/> 
</g> 
<!-- j0 --> 
<g id="node47" class="node"><title>j0</title> 
<ellipse fill="#e98576" stroke="#e98576" cx="2476" cy="-162" rx="79.4447" ry="18"/> 
<a xlink:href="http://pir.georgetown.edu/cgi-bin/pt_graphvizView.pl?togoid=0005198" ><text id="GO:0005198" onmousemove="changeToText('GO:0005198')" onmouseout="changeBackText('GO:0005198')"  text-anchor="middle" x="2476" y="-162.8" font-family="Times,serif" font-size="14.00">GO:0005198</text></a>
<a xlink:href="http://pir.georgetown.edu/cgi-bin/pt_graphvizView.pl?tofile=291114" ><text id="r291114" onmousemove="changeToText2('r291114', 23)" onmouseout="changeBackText2('r291114', 23)"  text-anchor="middle" x="2476" y="-149.8" font-family="Times,serif" font-size="14.00">(23)</text>
 
</a> 
</g> 
<!-- c0&#45;&gt;j0 --> 
<g id="edge46" class="edge"><title>c0&#45;&gt;j0</title> 
<path fill="none" stroke="black" d="M2118.52,-223.675C2184.87,-213.488 2293.56,-196.424 2387,-180 2393.66,-178.829 2400.6,-177.572 2407.53,-176.29"/> 
<polygon fill="black" stroke="black" points="2408.45,-179.678 2417.64,-174.403 2407.17,-172.797 2408.45,-179.678"/> 
</g> 
<!-- q0 --> 
<g id="node6" class="node"><title>q0</title> 
<ellipse fill="#e98576" stroke="#e98576" cx="75" cy="-90" rx="75.2018" ry="18"/> 
<a xlink:href="http://pir.georgetown.edu/cgi-bin/pt_graphvizView.pl?togoid=0016853" ><text id="GO:0016853" onmousemove="changeToText('GO:0016853')" onmouseout="changeBackText('GO:0016853')"  text-anchor="middle" x="75" y="-90.8" font-family="Times,serif" font-size="14.00">GO:0016853</text></a>
<a xlink:href="http://pir.georgetown.edu/cgi-bin/pt_graphvizView.pl?tofile=291128" ><text id="r291128" onmousemove="changeToText2('r291128', 7)" onmouseout="changeBackText2('r291128', 7)"  text-anchor="middle" x="75" y="-77.8" font-family="Times,serif" font-size="14.00">(7)</text>
 
</a> 
</g> 
<!-- h0&#45;&gt;q0 --> 
<g id="edge4" class="edge"><title>h0&#45;&gt;q0</title> 
<path fill="none" stroke="black" d="M725.668,-149.171C714.862,-147.205 703.609,-145.366 693,-144 457.075,-113.629 394.756,-139.661 159,-108 152.263,-107.095 145.255,-105.972 138.287,-104.737"/> 
<polygon fill="black" stroke="black" points="138.614,-101.238 128.144,-102.86 137.341,-108.121 138.614,-101.238"/> 
</g> 
<!-- g0 --> 
<g id="node21" class="node"><title>g0</title> 
<ellipse fill="#e98576" stroke="#e98576" cx="248" cy="-90" rx="79.4447" ry="18"/> 
<a xlink:href="http://pir.georgetown.edu/cgi-bin/pt_graphvizView.pl?togoid=0016787" ><text id="GO:0016787" onmousemove="changeToText('GO:0016787')" onmouseout="changeBackText('GO:0016787')"  text-anchor="middle" x="248" y="-90.8" font-family="Times,serif" font-size="14.00">GO:0016787</text></a>
<a xlink:href="http://pir.georgetown.edu/cgi-bin/pt_graphvizView.pl?tofile=291108" ><text id="r291108" onmousemove="changeToText2('r291108', 41)" onmouseout="changeBackText2('r291108', 41)"  text-anchor="middle" x="248" y="-77.8" font-family="Times,serif" font-size="14.00">(41)</text>
 
</a> 
</g> 
<!-- h0&#45;&gt;g0 --> 
<g id="edge30" class="edge"><title>h0&#45;&gt;g0</title> 
<path fill="none" stroke="black" d="M725.151,-149.37C714.496,-147.409 703.429,-145.52 693,-144 535.634,-121.059 494.366,-130.941 337,-108 329.83,-106.955 322.359,-105.735 314.927,-104.438"/> 
<polygon fill="black" stroke="black" points="315.309,-100.951 304.849,-102.63 314.073,-107.841 315.309,-100.951"/> 
</g> 
<!-- i0 --> 
<g id="node35" class="node"><title>i0</title> 
<ellipse fill="#e98576" stroke="#e98576" cx="426" cy="-90" rx="79.4447" ry="18"/> 
<a xlink:href="http://pir.georgetown.edu/cgi-bin/pt_graphvizView.pl?togoid=0016740" ><text id="GO:0016740" onmousemove="changeToText('GO:0016740')" onmouseout="changeBackText('GO:0016740')"  text-anchor="middle" x="426" y="-90.8" font-family="Times,serif" font-size="14.00">GO:0016740</text></a>
<a xlink:href="http://pir.georgetown.edu/cgi-bin/pt_graphvizView.pl?tofile=291112" ><text id="r291112" onmousemove="changeToText2('r291112', 28)" onmouseout="changeBackText2('r291112', 28)"  text-anchor="middle" x="426" y="-77.8" font-family="Times,serif" font-size="14.00">(28)</text>
 
</a> 
</g> 
<!-- h0&#45;&gt;i0 --> 
<g id="edge34" class="edge"><title>h0&#45;&gt;i0</title> 
<path fill="none" stroke="black" d="M724.01,-149.597C661.042,-137.216 560.569,-117.46 493.948,-104.361"/> 
<polygon fill="black" stroke="black" points="494.452,-100.893 483.965,-102.398 493.102,-107.761 494.452,-100.893"/> 
</g> 
<!-- k0 --> 
<g id="node37" class="node"><title>k0</title> 
<ellipse fill="#e98576" stroke="#e98576" cx="604" cy="-90" rx="79.4447" ry="18"/> 
<a xlink:href="http://pir.georgetown.edu/cgi-bin/pt_graphvizView.pl?togoid=0016874" ><text id="GO:0016874" onmousemove="changeToText('GO:0016874')" onmouseout="changeBackText('GO:0016874')"  text-anchor="middle" x="604" y="-90.8" font-family="Times,serif" font-size="14.00">GO:0016874</text></a>
<a xlink:href="http://pir.georgetown.edu/cgi-bin/pt_graphvizView.pl?tofile=291116" ><text id="r291116" onmousemove="changeToText2('r291116', 20)" onmouseout="changeBackText2('r291116', 20)"  text-anchor="middle" x="604" y="-77.8" font-family="Times,serif" font-size="14.00">(20)</text>
 
</a> 
</g> 
<!-- h0&#45;&gt;k0 --> 
<g id="edge36" class="edge"><title>h0&#45;&gt;k0</title> 
<path fill="none" stroke="black" d="M744.251,-146.155C717.203,-135.518 680.576,-121.114 651.534,-109.693"/> 
<polygon fill="black" stroke="black" points="652.588,-106.347 642.001,-105.944 650.027,-112.861 652.588,-106.347"/> 
</g> 
<!-- m0 --> 
<g id="node41" class="node"><title>m0</title> 
<ellipse fill="#e98576" stroke="#e98576" cx="782" cy="-90" rx="79.4447" ry="18"/> 
<a xlink:href="http://pir.georgetown.edu/cgi-bin/pt_graphvizView.pl?togoid=0016491" ><text id="GO:0016491" onmousemove="changeToText('GO:0016491')" onmouseout="changeBackText('GO:0016491')"  text-anchor="middle" x="782" y="-90.8" font-family="Times,serif" font-size="14.00">GO:0016491</text></a>
<a xlink:href="http://pir.georgetown.edu/cgi-bin/pt_graphvizView.pl?tofile=291120" ><text id="r291120" onmousemove="changeToText2('r291120', 16)" onmouseout="changeBackText2('r291120', 16)"  text-anchor="middle" x="782" y="-77.8" font-family="Times,serif" font-size="14.00">(16)</text>
 
</a> 
</g> 
<!-- h0&#45;&gt;m0 --> 
<g id="edge40" class="edge"><title>h0&#45;&gt;m0</title> 
<path fill="none" stroke="black" d="M782,-143.697C782,-135.983 782,-126.712 782,-118.112"/> 
<polygon fill="black" stroke="black" points="785.5,-118.104 782,-108.104 778.5,-118.104 785.5,-118.104"/> 
</g> 
<!-- x0 --> 
<g id="node45" class="node"><title>x0</title> 
<ellipse fill="#e98576" stroke="#e98576" cx="955" cy="-90" rx="75.2018" ry="18"/> 
<a xlink:href="http://pir.georgetown.edu/cgi-bin/pt_graphvizView.pl?togoid=0004386" ><text id="GO:0004386" onmousemove="changeToText('GO:0004386')" onmouseout="changeBackText('GO:0004386')"  text-anchor="middle" x="955" y="-90.8" font-family="Times,serif" font-size="14.00">GO:0004386</text></a>
<a xlink:href="http://pir.georgetown.edu/cgi-bin/pt_graphvizView.pl?tofile=291144" ><text id="r291144" onmousemove="changeToText2('r291144', 1)" onmouseout="changeBackText2('r291144', 1)"  text-anchor="middle" x="955" y="-77.8" font-family="Times,serif" font-size="14.00">(1)</text>
 
</a> 
</g> 
<!-- h0&#45;&gt;x0 --> 
<g id="edge44" class="edge"><title>h0&#45;&gt;x0</title> 
<path fill="none" stroke="black" d="M819.113,-145.983C845.401,-135.346 880.842,-121.006 908.938,-109.638"/> 
<polygon fill="black" stroke="black" points="910.585,-112.747 918.542,-105.752 907.96,-106.258 910.585,-112.747"/> 
</g> 
<!-- l0 --> 
<g id="node49" class="node"><title>l0</title> 
<ellipse fill="#e98576" stroke="#e98576" cx="1128" cy="-90" rx="79.4447" ry="18"/> 
<a xlink:href="http://pir.georgetown.edu/cgi-bin/pt_graphvizView.pl?togoid=0016829" ><text id="GO:0016829" onmousemove="changeToText('GO:0016829')" onmouseout="changeBackText('GO:0016829')"  text-anchor="middle" x="1128" y="-90.8" font-family="Times,serif" font-size="14.00">GO:0016829</text></a>
<a xlink:href="http://pir.georgetown.edu/cgi-bin/pt_graphvizView.pl?tofile=291118" ><text id="r291118" onmousemove="changeToText2('r291118', 16)" onmouseout="changeBackText2('r291118', 16)"  text-anchor="middle" x="1128" y="-77.8" font-family="Times,serif" font-size="14.00">(16)</text>
 
</a> 
</g> 
<!-- h0&#45;&gt;l0 --> 
<g id="edge48" class="edge"><title>h0&#45;&gt;l0</title> 
<path fill="none" stroke="black" d="M839.135,-149.441C899.988,-137.13 996.238,-117.657 1060.72,-104.613"/> 
<polygon fill="black" stroke="black" points="1061.67,-107.99 1070.78,-102.576 1060.28,-101.129 1061.67,-107.99"/> 
</g> 
<!-- a1 --> 
<g id="node9" class="node"><title>a1</title> 
<ellipse fill="#e98576" stroke="#e98576" cx="1301" cy="-90" rx="75.2018" ry="18"/> 
<a xlink:href="http://pir.georgetown.edu/cgi-bin/pt_graphvizView.pl?togoid=0042277" ><text id="GO:0042277" onmousemove="changeToText('GO:0042277')" onmouseout="changeBackText('GO:0042277')"  text-anchor="middle" x="1301" y="-90.8" font-family="Times,serif" font-size="14.00">GO:0042277</text></a>
<a xlink:href="http://pir.georgetown.edu/cgi-bin/pt_graphvizView.pl?tofile=291148" ><text id="r291148" onmousemove="changeToText2('r291148', 1)" onmouseout="changeBackText2('r291148', 1)"  text-anchor="middle" x="1301" y="-77.8" font-family="Times,serif" font-size="14.00">(1)</text>
 
</a> 
</g> 
<!-- b0&#45;&gt;a1 --> 
<g id="edge6" class="edge"><title>b0&#45;&gt;a1</title> 
<path fill="none" stroke="black" d="M1920.21,-157.873C1812.68,-151.76 1579.74,-136.29 1385,-108 1378.37,-107.037 1371.48,-105.887 1364.61,-104.646"/> 
<polygon fill="black" stroke="black" points="1365.09,-101.174 1354.62,-102.773 1363.8,-108.055 1365.09,-101.174"/> 
</g> 
<!-- o0 --> 
<g id="node12" class="node"><title>o0</title> 
<ellipse fill="#e98576" stroke="#e98576" cx="1474" cy="-90" rx="79.4447" ry="18"/> 
<a xlink:href="http://pir.georgetown.edu/cgi-bin/pt_graphvizView.pl?togoid=0005515" ><text id="GO:0005515" onmousemove="changeToText('GO:0005515')" onmouseout="changeBackText('GO:0005515')"  text-anchor="middle" x="1474" y="-90.8" font-family="Times,serif" font-size="14.00">GO:0005515</text></a>
<a xlink:href="http://pir.georgetown.edu/cgi-bin/pt_graphvizView.pl?tofile=291124" ><text id="r291124" onmousemove="changeToText2('r291124', 12)" onmouseout="changeBackText2('r291124', 12)"  text-anchor="middle" x="1474" y="-77.8" font-family="Times,serif" font-size="14.00">(12)</text>
 
</a> 
</g> 
<!-- b0&#45;&gt;o0 --> 
<g id="edge10" class="edge"><title>b0&#45;&gt;o0</title> 
<path fill="none" stroke="black" d="M1923.52,-154.952C1843.21,-146.095 1691.47,-128.414 1563,-108 1555.95,-106.88 1548.6,-105.623 1541.29,-104.312"/> 
<polygon fill="black" stroke="black" points="1541.82,-100.853 1531.36,-102.5 1540.57,-107.739 1541.82,-100.853"/> 
</g> 
<!-- e0 --> 
<g id="node14" class="node"><title>e0</title> 
<ellipse fill="#e98576" stroke="#e98576" cx="1652" cy="-90" rx="79.4447" ry="18"/> 
<a xlink:href="http://pir.georgetown.edu/cgi-bin/pt_graphvizView.pl?togoid=0001882" ><text id="GO:0001882" onmousemove="changeToText('GO:0001882')" onmouseout="changeBackText('GO:0001882')"  text-anchor="middle" x="1652" y="-90.8" font-family="Times,serif" font-size="14.00">GO:0001882</text></a>
<a xlink:href="http://pir.georgetown.edu/cgi-bin/pt_graphvizView.pl?tofile=291104" ><text id="r291104" onmousemove="changeToText2('r291104', 46)" onmouseout="changeBackText2('r291104', 46)"  text-anchor="middle" x="1652" y="-77.8" font-family="Times,serif" font-size="14.00">(46)</text>
 
</a> 
</g> 
<!-- b0&#45;&gt;e0 --> 
<g id="edge12" class="edge"><title>b0&#45;&gt;e0</title> 
<path fill="none" stroke="black" d="M1931.95,-150.746C1875.37,-138.671 1781.09,-118.549 1717.76,-105.033"/> 
<polygon fill="black" stroke="black" points="1718.38,-101.587 1707.87,-102.923 1716.92,-108.433 1718.38,-101.587"/> 
</g> 
<!-- u0 --> 
<g id="node16" class="node"><title>u0</title> 
<ellipse fill="#e98576" stroke="#e98576" cx="1825" cy="-90" rx="75.2018" ry="18"/> 
<a xlink:href="http://pir.georgetown.edu/cgi-bin/pt_graphvizView.pl?togoid=0043021" ><text id="GO:0043021" onmousemove="changeToText('GO:0043021')" onmouseout="changeBackText('GO:0043021')"  text-anchor="middle" x="1825" y="-90.8" font-family="Times,serif" font-size="14.00">GO:0043021</text></a>
<a xlink:href="http://pir.georgetown.edu/cgi-bin/pt_graphvizView.pl?tofile=291138" ><text id="r291138" onmousemove="changeToText2('r291138', 2)" onmouseout="changeBackText2('r291138', 2)"  text-anchor="middle" x="1825" y="-77.8" font-family="Times,serif" font-size="14.00">(2)</text>
 
</a> 
</g> 
<!-- b0&#45;&gt;u0 --> 
<g id="edge14" class="edge"><title>b0&#45;&gt;u0</title> 
<path fill="none" stroke="black" d="M1947.88,-146.496C1924.77,-136.056 1893.33,-121.86 1868.04,-110.439"/> 
<polygon fill="black" stroke="black" points="1869.24,-107.138 1858.68,-106.212 1866.36,-113.518 1869.24,-107.138"/> 
</g> 
<!-- z0 --> 
<g id="node17" class="node"><title>z0</title> 
<a xlink:href="http://pir.georgetown.edu/cgi-bin/pt_graphvizView.pl?togoid=0043176" > 
<ellipse fill="#dddddd" stroke="#dddddd" cx="1980" cy="-90" rx="61.1934" ry="18"/> 
<a xlink:href="http://pir.georgetown.edu/cgi-bin/pt_graphvizView.pl?togoid=0043176" ><text id="GO:0043176" onmousemove="changeToText('GO:0043176')" onmouseout="changeBackText('GO:0043176')"  text-anchor="middle" x="1980" y="-85.8" font-family="Times,serif" font-size="14.00">GO:0043176</text></a>
 
</a> 
</g> 
<!-- b0&#45;&gt;z0 --> 
<g id="edge28" class="edge"><title>b0&#45;&gt;z0</title> 
<path fill="none" stroke="black" d="M1980,-143.697C1980,-135.983 1980,-126.712 1980,-118.112"/> 
<polygon fill="black" stroke="black" points="1983.5,-118.104 1980,-108.104 1976.5,-118.104 1983.5,-118.104"/> 
</g> 
<!-- f0 --> 
<g id="node29" class="node"><title>f0</title> 
<ellipse fill="#e98576" stroke="#e98576" cx="2139" cy="-90" rx="79.4447" ry="18"/> 
<a xlink:href="http://pir.georgetown.edu/cgi-bin/pt_graphvizView.pl?togoid=0043167" ><text id="GO:0043167" onmousemove="changeToText('GO:0043167')" onmouseout="changeBackText('GO:0043167')"  text-anchor="middle" x="2139" y="-90.8" font-family="Times,serif" font-size="14.00">GO:0043167</text></a>
<a xlink:href="http://pir.georgetown.edu/cgi-bin/pt_graphvizView.pl?tofile=291106" ><text id="r291106" onmousemove="changeToText2('r291106', 45)" onmouseout="changeBackText2('r291106', 45)"  text-anchor="middle" x="2139" y="-77.8" font-family="Times,serif" font-size="14.00">(45)</text>
 
</a> 
</g> 
<!-- b0&#45;&gt;f0 --> 
<g id="edge26" class="edge"><title>b0&#45;&gt;f0</title> 
<path fill="none" stroke="black" d="M2012.56,-146.666C2036.35,-136.192 2068.88,-121.872 2094.98,-110.379"/> 
<polygon fill="black" stroke="black" points="2096.54,-113.518 2104.28,-106.285 2093.72,-107.111 2096.54,-113.518"/> 
</g> 
<!-- t0 --> 
<g id="node33" class="node"><title>t0</title> 
<ellipse fill="#e98576" stroke="#e98576" cx="2312" cy="-90" rx="75.2018" ry="18"/> 
<a xlink:href="http://pir.georgetown.edu/cgi-bin/pt_graphvizView.pl?togoid=0030246" ><text id="GO:0030246" onmousemove="changeToText('GO:0030246')" onmouseout="changeBackText('GO:0030246')"  text-anchor="middle" x="2312" y="-90.8" font-family="Times,serif" font-size="14.00">GO:0030246</text></a>
<a xlink:href="http://pir.georgetown.edu/cgi-bin/pt_graphvizView.pl?tofile=291136" ><text id="r291136" onmousemove="changeToText2('r291136', 3)" onmouseout="changeBackText2('r291136', 3)"  text-anchor="middle" x="2312" y="-77.8" font-family="Times,serif" font-size="14.00">(3)</text>
 
</a> 
</g> 
<!-- b0&#45;&gt;t0 --> 
<g id="edge32" class="edge"><title>b0&#45;&gt;t0</title> 
<path fill="none" stroke="black" d="M2025.4,-149.883C2033.89,-147.872 2042.71,-145.834 2051,-144 2069.85,-139.83 2175.22,-118.538 2246.18,-104.243"/> 
<polygon fill="black" stroke="black" points="2247.27,-107.593 2256.38,-102.187 2245.89,-100.731 2247.27,-107.593"/> 
</g> 
<!-- d0 --> 
<g id="node39" class="node"><title>d0</title> 
<ellipse fill="#e98576" stroke="#e98576" cx="2485" cy="-90" rx="79.4447" ry="18"/> 
<a xlink:href="http://pir.georgetown.edu/cgi-bin/pt_graphvizView.pl?togoid=0003676" ><text id="GO:0003676" onmousemove="changeToText('GO:0003676')" onmouseout="changeBackText('GO:0003676')"  text-anchor="middle" x="2485" y="-90.8" font-family="Times,serif" font-size="14.00">GO:0003676</text></a>
<a xlink:href="http://pir.georgetown.edu/cgi-bin/pt_graphvizView.pl?tofile=291102" ><text id="r291102" onmousemove="changeToText2('r291102', 50)" onmouseout="changeBackText2('r291102', 50)"  text-anchor="middle" x="2485" y="-77.8" font-family="Times,serif" font-size="14.00">(50)</text>
 
</a> 
</g> 
<!-- b0&#45;&gt;d0 --> 
<g id="edge38" class="edge"><title>b0&#45;&gt;d0</title> 
<path fill="none" stroke="black" d="M2024.13,-149.488C2032.98,-147.446 2042.25,-145.497 2051,-144 2202.96,-117.995 2243.48,-130.482 2396,-108 2403.17,-106.943 2410.64,-105.716 2418.07,-104.415"/> 
<polygon fill="black" stroke="black" points="2418.92,-107.818 2428.15,-102.603 2417.69,-100.928 2418.92,-107.818"/> 
</g> 
<!-- a0 --> 
<g id="node43" class="node"><title>a0</title> 
<ellipse fill="#e98576" stroke="#e98576" cx="2663" cy="-90" rx="79.4447" ry="18"/> 
<a xlink:href="http://pir.georgetown.edu/cgi-bin/pt_graphvizView.pl?togoid=0000166" ><text id="GO:0000166" onmousemove="changeToText('GO:0000166')" onmouseout="changeBackText('GO:0000166')"  text-anchor="middle" x="2663" y="-90.8" font-family="Times,serif" font-size="14.00">GO:0000166</text></a>
<a xlink:href="http://pir.georgetown.edu/cgi-bin/pt_graphvizView.pl?tofile=291100" ><text id="r291100" onmousemove="changeToText2('r291100', 51)" onmouseout="changeBackText2('r291100', 51)"  text-anchor="middle" x="2663" y="-77.8" font-family="Times,serif" font-size="14.00">(51)</text>
 
</a> 
</g> 
<!-- b0&#45;&gt;a0 --> 
<g id="edge42" class="edge"><title>b0&#45;&gt;a0</title> 
<path fill="none" stroke="black" d="M2023.71,-149.331C2032.68,-147.276 2042.1,-145.362 2051,-144 2280.87,-108.803 2342.34,-137.633 2573,-108 2580.65,-107.017 2588.64,-105.796 2596.55,-104.462"/> 
<polygon fill="black" stroke="black" points="2597.26,-107.891 2606.51,-102.723 2596.06,-100.996 2597.26,-107.891"/> 
</g> 
<!-- n0 --> 
<g id="node51" class="node"><title>n0</title> 
<ellipse fill="#e98576" stroke="#e98576" cx="2841" cy="-90" rx="79.4447" ry="18"/> 
<a xlink:href="http://pir.georgetown.edu/cgi-bin/pt_graphvizView.pl?togoid=0048037" ><text id="GO:0048037" onmousemove="changeToText('GO:0048037')" onmouseout="changeBackText('GO:0048037')"  text-anchor="middle" x="2841" y="-90.8" font-family="Times,serif" font-size="14.00">GO:0048037</text></a>
<a xlink:href="http://pir.georgetown.edu/cgi-bin/pt_graphvizView.pl?tofile=291122" ><text id="r291122" onmousemove="changeToText2('r291122', 13)" onmouseout="changeBackText2('r291122', 13)"  text-anchor="middle" x="2841" y="-77.8" font-family="Times,serif" font-size="14.00">(13)</text>
 
</a> 
</g> 
<!-- b0&#45;&gt;n0 --> 
<g id="edge50" class="edge"><title>b0&#45;&gt;n0</title> 
<path fill="none" stroke="black" d="M2023.69,-149.21C2032.67,-147.164 2042.09,-145.284 2051,-144 2359.33,-99.543 2441.68,-144.995 2751,-108 2758.77,-107.071 2766.88,-105.87 2774.91,-104.537"/> 
<polygon fill="black" stroke="black" points="2775.75,-107.944 2785.01,-102.789 2774.56,-101.046 2775.75,-107.944"/> 
</g> 
<!-- s0 --> 
<g id="node53" class="node"><title>s0</title> 
<ellipse fill="#e98576" stroke="#e98576" cx="3014" cy="-90" rx="75.2018" ry="18"/> 
<a xlink:href="http://pir.georgetown.edu/cgi-bin/pt_graphvizView.pl?togoid=0051540" ><text id="GO:0051540" onmousemove="changeToText('GO:0051540')" onmouseout="changeBackText('GO:0051540')"  text-anchor="middle" x="3014" y="-90.8" font-family="Times,serif" font-size="14.00">GO:0051540</text></a>
<a xlink:href="http://pir.georgetown.edu/cgi-bin/pt_graphvizView.pl?tofile=291134" ><text id="r291134" onmousemove="changeToText2('r291134', 3)" onmouseout="changeBackText2('r291134', 3)"  text-anchor="middle" x="3014" y="-77.8" font-family="Times,serif" font-size="14.00">(3)</text>
 
</a> 
</g> 
<!-- b0&#45;&gt;s0 --> 
<g id="edge52" class="edge"><title>b0&#45;&gt;s0</title> 
<path fill="none" stroke="black" d="M2023.3,-149.223C2032.39,-147.149 2041.96,-145.255 2051,-144 2437.84,-90.2766 2541.22,-154.439 2929,-108 2936.19,-107.139 2943.68,-106.001 2951.11,-104.72"/> 
<polygon fill="black" stroke="black" points="2951.94,-108.126 2961.16,-102.898 2950.69,-101.238 2951.94,-108.126"/> 
</g> 
<!-- y0 --> 
<g id="node19" class="node"><title>y0</title> 
<ellipse fill="#e98576" stroke="#e98576" cx="1980" cy="-18" rx="75.2018" ry="18"/> 
<a xlink:href="http://pir.georgetown.edu/cgi-bin/pt_graphvizView.pl?togoid=0016597" ><text id="GO:0016597" onmousemove="changeToText('GO:0016597')" onmouseout="changeBackText('GO:0016597')"  text-anchor="middle" x="1980" y="-18.8" font-family="Times,serif" font-size="14.00">GO:0016597</text></a>
<a xlink:href="http://pir.georgetown.edu/cgi-bin/pt_graphvizView.pl?tofile=291146" ><text id="r291146" onmousemove="changeToText2('r291146', 1)" onmouseout="changeBackText2('r291146', 1)"  text-anchor="middle" x="1980" y="-5.8" font-family="Times,serif" font-size="14.00">(1)</text>
 
</a> 
</g> 
<!-- z0&#45;&gt;y0 --> 
<g id="edge16" class="edge"><title>z0&#45;&gt;y0</title> 
<path fill="none" stroke="black" d="M1980,-71.6966C1980,-63.9827 1980,-54.7125 1980,-46.1124"/> 
<polygon fill="black" stroke="black" points="1983.5,-46.1043 1980,-36.1043 1976.5,-46.1044 1983.5,-46.1043"/> 
</g> 
<!-- p0 --> 
<g id="node23" class="node"><title>p0</title> 
<ellipse fill="#e98576" stroke="#e98576" cx="248" cy="-18" rx="75.2018" ry="18"/> 
<a xlink:href="http://pir.georgetown.edu/cgi-bin/pt_graphvizView.pl?togoid=0008233" ><text id="GO:0008233" onmousemove="changeToText('GO:0008233')" onmouseout="changeBackText('GO:0008233')"  text-anchor="middle" x="248" y="-18.8" font-family="Times,serif" font-size="14.00">GO:0008233</text></a>
<a xlink:href="http://pir.georgetown.edu/cgi-bin/pt_graphvizView.pl?tofile=291126" ><text id="r291126" onmousemove="changeToText2('r291126', 9)" onmouseout="changeBackText2('r291126', 9)"  text-anchor="middle" x="248" y="-5.8" font-family="Times,serif" font-size="14.00">(9)</text>
 
</a> 
</g> 
<!-- g0&#45;&gt;p0 --> 
<g id="edge20" class="edge"><title>g0&#45;&gt;p0</title> 
<path fill="none" stroke="black" d="M248,-71.6966C248,-63.9827 248,-54.7125 248,-46.1124"/> 
<polygon fill="black" stroke="black" points="251.5,-46.1043 248,-36.1043 244.5,-46.1044 251.5,-46.1043"/> 
</g> 
</g> 
<text text-anchor="left" x="4" y="-20" style="font-family:Arial Narrow;font-size:20.00;font-weight:bold;">GO Hierarchical View:</text> 

<text text-anchor="left" x="4" y="0" style="font-family:Arial Narrow;font-size:20.00;font-style:italic;">molecular function</text> 

<script type="text/ecmascript"> 
<![CDATA[ 
var targetText; 
function changeToText(z) { 
		targetText = svgDocument.getElementById(z).firstChild; 
		targetText.nodeValue="link to "+z; 
} 
function changeBackText(z) { 
		targetText = svgDocument.getElementById(z).firstChild; 
		targetText.nodeValue=z; 
} 
function changeToText2(z,n) { 
		targetText = svgDocument.getElementById(z).firstChild; 
		if (n<=1) { 
			targetText.nodeValue="link to " + n + " protein record"; 
		} else { 
			targetText.nodeValue="link to " + n + " protein records"; 
		} 
} 
function changeBackText2(z,n) { 
		targetText = svgDocument.getElementById(z).firstChild; 
		targetText.nodeValue="(" + n + ")"; 
} 
// ]]> 
</script> 
</svg> 
