<?xml version="1.0" encoding="UTF-8" standalone="no"?> 
<!DOCTYPE svg PUBLIC "-//W3C//DTD SVG 1.1//EN" 
 "http://www.w3.org/Graphics/SVG/1.1/DTD/svg11.dtd"> 
<!-- Generated by graphviz version 2.28.0 (20110622.2320) 
 --> 
<!-- Title: G Pages: 1 --> 
<svg width="2000" height="1000"  
 viewBox="-30 -50 2000 1000" xmlns="http://www.w3.org/2000/svg" xmlns:xlink="http://www.w3.org/1999/xlink"> 
<g id="graph1" class="graph" transform="scale(1 1) rotate(0) translate(4 256)"> 
<title>G</title> 
<polygon fill="white" stroke="white" points="-4,5 -4,-256 4112,-256 4112,5 -4,5"/> 
<!-- c0 --> 
<g id="node1" class="node"><title>c0</title> 
<a xlink:href="http://pir.georgetown.edu/cgi-bin/pt_graphvizView.pl?togoid=0003674" > 
<ellipse fill="#dddddd" stroke="#dddddd" cx="2738" cy="-234" rx="61.1934" ry="18"/> 
<a xlink:href="http://pir.georgetown.edu/cgi-bin/pt_graphvizView.pl?togoid=0003674" ><text id="GO:0003674" onmousemove="changeToText('GO:0003674')" onmouseout="changeBackText('GO:0003674')"  text-anchor="middle" x="2738" y="-229.8" font-family="Times,serif" font-size="14.00">GO:0003674</text></a>
 
</a> 
</g> 
<!-- v0 --> 
<g id="node3" class="node"><title>v0</title> 
<ellipse fill="#e98576" stroke="#e98576" cx="594" cy="-162" rx="75.2018" ry="18"/> 
<a xlink:href="http://pir.georgetown.edu/cgi-bin/pt_graphvizView.pl?togoid=0030234" ><text id="GO:0030234" onmousemove="changeToText('GO:0030234')" onmouseout="changeBackText('GO:0030234')"  text-anchor="middle" x="594" y="-162.8" font-family="Times,serif" font-size="14.00">GO:0030234</text></a>
<a xlink:href="http://pir.georgetown.edu/cgi-bin/pt_graphvizView.pl?tofile=453032" ><text id="r453032" onmousemove="changeToText2('r453032', 6)" onmouseout="changeBackText2('r453032', 6)"  text-anchor="middle" x="594" y="-149.8" font-family="Times,serif" font-size="14.00">(6)</text>
 
</a> 
</g> 
<!-- c0&#45;&gt;v0 --> 
<g id="edge2" class="edge"><title>c0&#45;&gt;v0</title> 
<path fill="none" stroke="black" d="M2676.81,-232.862C2379.06,-231.969 1079.92,-225.491 678,-180 670.885,-179.195 663.476,-178.091 656.136,-176.831"/> 
<polygon fill="black" stroke="black" points="656.668,-173.37 646.203,-175.027 655.417,-180.257 656.668,-173.37"/> 
</g> 
<!-- f0 --> 
<g id="node4" class="node"><title>f0</title> 
<ellipse fill="#e98576" stroke="#e98576" cx="767" cy="-162" rx="79.4447" ry="18"/> 
<a xlink:href="http://pir.georgetown.edu/cgi-bin/pt_graphvizView.pl?togoid=0003824" ><text id="GO:0003824" onmousemove="changeToText('GO:0003824')" onmouseout="changeBackText('GO:0003824')"  text-anchor="middle" x="767" y="-162.8" font-family="Times,serif" font-size="14.00">GO:0003824</text></a>
<a xlink:href="http://pir.georgetown.edu/cgi-bin/pt_graphvizView.pl?tofile=453012" ><text id="r453012" onmousemove="changeToText2('r453012', 30)" onmouseout="changeBackText2('r453012', 30)"  text-anchor="middle" x="767" y="-149.8" font-family="Times,serif" font-size="14.00">(30)</text>
 
</a> 
</g> 
<!-- c0&#45;&gt;f0 --> 
<g id="edge42" class="edge"><title>c0&#45;&gt;f0</title> 
<path fill="none" stroke="black" d="M2677.67,-230.857C2393.88,-220.779 1191.67,-178.082 854.968,-166.124"/> 
<polygon fill="black" stroke="black" points="854.902,-162.62 844.784,-165.763 854.654,-169.615 854.902,-162.62"/> 
</g> 
<!-- b0 --> 
<g id="node7" class="node"><title>b0</title> 
<a xlink:href="http://pir.georgetown.edu/cgi-bin/pt_graphvizView.pl?togoid=0005488" > 
<ellipse fill="#dddddd" stroke="#dddddd" cx="2490" cy="-162" rx="61.1934" ry="18"/> 
<a xlink:href="http://pir.georgetown.edu/cgi-bin/pt_graphvizView.pl?togoid=0005488" ><text id="GO:0005488" onmousemove="changeToText('GO:0005488')" onmouseout="changeBackText('GO:0005488')"  text-anchor="middle" x="2490" y="-157.8" font-family="Times,serif" font-size="14.00">GO:0005488</text></a>
 
</a> 
</g> 
<!-- c0&#45;&gt;b0 --> 
<g id="edge8" class="edge"><title>c0&#45;&gt;b0</title> 
<path fill="none" stroke="black" d="M2695.37,-220.967C2652.92,-208.985 2587.69,-190.575 2542.18,-177.727"/> 
<polygon fill="black" stroke="black" points="2543.07,-174.341 2532.49,-174.993 2541.16,-181.078 2543.07,-174.341"/> 
</g> 
<!-- n0 --> 
<g id="node18" class="node"><title>n0</title> 
<ellipse fill="#e98576" stroke="#e98576" cx="2649" cy="-162" rx="79.4447" ry="18"/> 
<a xlink:href="http://pir.georgetown.edu/cgi-bin/pt_graphvizView.pl?togoid=0005215" ><text id="GO:0005215" onmousemove="changeToText('GO:0005215')" onmouseout="changeBackText('GO:0005215')"  text-anchor="middle" x="2649" y="-162.8" font-family="Times,serif" font-size="14.00">GO:0005215</text></a>
<a xlink:href="http://pir.georgetown.edu/cgi-bin/pt_graphvizView.pl?tofile=453016" ><text id="r453016" onmousemove="changeToText2('r453016', 18)" onmouseout="changeBackText2('r453016', 18)"  text-anchor="middle" x="2649" y="-149.8" font-family="Times,serif" font-size="14.00">(18)</text>
 
</a> 
</g> 
<!-- c0&#45;&gt;n0 --> 
<g id="edge14" class="edge"><title>c0&#45;&gt;n0</title> 
<path fill="none" stroke="black" d="M2717.36,-216.765C2705.65,-207.554 2690.81,-195.882 2677.95,-185.769"/> 
<polygon fill="black" stroke="black" points="2679.86,-182.821 2669.84,-179.39 2675.53,-188.323 2679.86,-182.821"/> 
</g> 
<!-- i0 --> 
<g id="node36" class="node"><title>i0</title> 
<ellipse fill="#e98576" stroke="#e98576" cx="2827" cy="-162" rx="79.4447" ry="18"/> 
<a xlink:href="http://pir.georgetown.edu/cgi-bin/pt_graphvizView.pl?togoid=0005198" ><text id="GO:0005198" onmousemove="changeToText('GO:0005198')" onmouseout="changeBackText('GO:0005198')"  text-anchor="middle" x="2827" y="-162.8" font-family="Times,serif" font-size="14.00">GO:0005198</text></a>
<a xlink:href="http://pir.georgetown.edu/cgi-bin/pt_graphvizView.pl?tofile=453004" ><text id="r453004" onmousemove="changeToText2('r453004', 38)" onmouseout="changeBackText2('r453004', 38)"  text-anchor="middle" x="2827" y="-149.8" font-family="Times,serif" font-size="14.00">(38)</text>
 
</a> 
</g> 
<!-- c0&#45;&gt;i0 --> 
<g id="edge34" class="edge"><title>c0&#45;&gt;i0</title> 
<path fill="none" stroke="black" d="M2758.64,-216.765C2770.35,-207.554 2785.19,-195.882 2798.05,-185.769"/> 
<polygon fill="black" stroke="black" points="2800.47,-188.323 2806.16,-179.39 2796.14,-182.821 2800.47,-188.323"/> 
</g> 
<!-- l1 --> 
<g id="node49" class="node"><title>l1</title> 
<ellipse fill="#e98576" stroke="#e98576" cx="3000" cy="-162" rx="75.2018" ry="18"/> 
<a xlink:href="http://pir.georgetown.edu/cgi-bin/pt_graphvizView.pl?togoid=0016530" ><text id="GO:0016530" onmousemove="changeToText('GO:0016530')" onmouseout="changeBackText('GO:0016530')"  text-anchor="middle" x="3000" y="-162.8" font-family="Times,serif" font-size="14.00">GO:0016530</text></a>
<a xlink:href="http://pir.georgetown.edu/cgi-bin/pt_graphvizView.pl?tofile=453060" ><text id="r453060" onmousemove="changeToText2('r453060', 1)" onmouseout="changeBackText2('r453060', 1)"  text-anchor="middle" x="3000" y="-149.8" font-family="Times,serif" font-size="14.00">(1)</text>
 
</a> 
</g> 
<!-- c0&#45;&gt;l1 --> 
<g id="edge48" class="edge"><title>c0&#45;&gt;l1</title> 
<path fill="none" stroke="black" d="M2781.85,-221.284C2825.74,-209.559 2893.5,-191.455 2941.85,-178.537"/> 
<polygon fill="black" stroke="black" points="2942.79,-181.907 2951.55,-175.944 2940.99,-175.144 2942.79,-181.907"/> 
</g> 
<!-- h1 --> 
<g id="node54" class="node"><title>h1</title> 
<a xlink:href="http://pir.georgetown.edu/cgi-bin/pt_graphvizView.pl?togoid=0060089" > 
<ellipse fill="#dddddd" stroke="#dddddd" cx="3155" cy="-162" rx="61.1934" ry="18"/> 
<a xlink:href="http://pir.georgetown.edu/cgi-bin/pt_graphvizView.pl?togoid=0060089" ><text id="GO:0060089" onmousemove="changeToText('GO:0060089')" onmouseout="changeBackText('GO:0060089')"  text-anchor="middle" x="3155" y="-157.8" font-family="Times,serif" font-size="14.00">GO:0060089</text></a>
 
</a> 
</g> 
<!-- c0&#45;&gt;h1 --> 
<g id="edge74" class="edge"><title>c0&#45;&gt;h1</title> 
<path fill="none" stroke="black" d="M2793.08,-226C2861.55,-216.967 2981.87,-200.012 3084,-180 3089.29,-178.964 3094.77,-177.804 3100.25,-176.588"/> 
<polygon fill="black" stroke="black" points="3101.08,-179.99 3110.05,-174.357 3099.52,-173.164 3101.08,-179.99"/> 
</g> 
<!-- p0 --> 
<g id="node58" class="node"><title>p0</title> 
<ellipse fill="#e98576" stroke="#e98576" cx="3314" cy="-162" rx="79.4447" ry="18"/> 
<a xlink:href="http://pir.georgetown.edu/cgi-bin/pt_graphvizView.pl?togoid=0016209" ><text id="GO:0016209" onmousemove="changeToText('GO:0016209')" onmouseout="changeBackText('GO:0016209')"  text-anchor="middle" x="3314" y="-162.8" font-family="Times,serif" font-size="14.00">GO:0016209</text></a>
<a xlink:href="http://pir.georgetown.edu/cgi-bin/pt_graphvizView.pl?tofile=453020" ><text id="r453020" onmousemove="changeToText2('r453020', 13)" onmouseout="changeBackText2('r453020', 13)"  text-anchor="middle" x="3314" y="-149.8" font-family="Times,serif" font-size="14.00">(13)</text>
 
</a> 
</g> 
<!-- c0&#45;&gt;p0 --> 
<g id="edge56" class="edge"><title>c0&#45;&gt;p0</title> 
<path fill="none" stroke="black" d="M2796.29,-228.181C2887.86,-220.269 3070.87,-203.07 3225,-180 3232.06,-178.943 3239.41,-177.727 3246.73,-176.441"/> 
<polygon fill="black" stroke="black" points="3247.44,-179.87 3256.66,-174.653 3246.2,-172.981 3247.44,-179.87"/> 
</g> 
<!-- s0 --> 
<g id="node6" class="node"><title>s0</title> 
<ellipse fill="#e98576" stroke="#e98576" cx="75" cy="-90" rx="75.2018" ry="18"/> 
<a xlink:href="http://pir.georgetown.edu/cgi-bin/pt_graphvizView.pl?togoid=0016853" ><text id="GO:0016853" onmousemove="changeToText('GO:0016853')" onmouseout="changeBackText('GO:0016853')"  text-anchor="middle" x="75" y="-90.8" font-family="Times,serif" font-size="14.00">GO:0016853</text></a>
<a xlink:href="http://pir.georgetown.edu/cgi-bin/pt_graphvizView.pl?tofile=453026" ><text id="r453026" onmousemove="changeToText2('r453026', 9)" onmouseout="changeBackText2('r453026', 9)"  text-anchor="middle" x="75" y="-77.8" font-family="Times,serif" font-size="14.00">(9)</text>
 
</a> 
</g> 
<!-- f0&#45;&gt;s0 --> 
<g id="edge4" class="edge"><title>f0&#45;&gt;s0</title> 
<path fill="none" stroke="black" d="M710.666,-149.187C699.86,-147.221 688.608,-145.376 678,-144 448.7,-114.256 388.134,-138.998 159,-108 152.264,-107.089 145.256,-105.961 138.289,-104.724"/> 
<polygon fill="black" stroke="black" points="138.617,-101.225 128.146,-102.844 137.341,-108.108 138.617,-101.225"/> 
</g> 
<!-- j0 --> 
<g id="node11" class="node"><title>j0</title> 
<ellipse fill="#e98576" stroke="#e98576" cx="248" cy="-90" rx="79.4447" ry="18"/> 
<a xlink:href="http://pir.georgetown.edu/cgi-bin/pt_graphvizView.pl?togoid=0016787" ><text id="GO:0016787" onmousemove="changeToText('GO:0016787')" onmouseout="changeBackText('GO:0016787')"  text-anchor="middle" x="248" y="-90.8" font-family="Times,serif" font-size="14.00">GO:0016787</text></a>
<a xlink:href="http://pir.georgetown.edu/cgi-bin/pt_graphvizView.pl?tofile=453006" ><text id="r453006" onmousemove="changeToText2('r453006', 37)" onmouseout="changeBackText2('r453006', 37)"  text-anchor="middle" x="248" y="-77.8" font-family="Times,serif" font-size="14.00">(37)</text>
 
</a> 
</g> 
<!-- f0&#45;&gt;j0 --> 
<g id="edge20" class="edge"><title>f0&#45;&gt;j0</title> 
<path fill="none" stroke="black" d="M710.146,-149.407C699.491,-147.443 688.426,-145.543 678,-144 527.245,-121.684 487.755,-130.316 337,-108 329.832,-106.939 322.362,-105.709 314.931,-104.406"/> 
<polygon fill="black" stroke="black" points="315.316,-100.919 304.854,-102.593 314.076,-107.809 315.316,-100.919"/> 
</g> 
<!-- e0 --> 
<g id="node14" class="node"><title>e0</title> 
<ellipse fill="#e98576" stroke="#e98576" cx="426" cy="-90" rx="79.4447" ry="18"/> 
<a xlink:href="http://pir.georgetown.edu/cgi-bin/pt_graphvizView.pl?togoid=0016491" ><text id="GO:0016491" onmousemove="changeToText('GO:0016491')" onmouseout="changeBackText('GO:0016491')"  text-anchor="middle" x="426" y="-90.8" font-family="Times,serif" font-size="14.00">GO:0016491</text></a>
<a xlink:href="http://pir.georgetown.edu/cgi-bin/pt_graphvizView.pl?tofile=452998" ><text id="r452998" onmousemove="changeToText2('r452998', 49)" onmouseout="changeBackText2('r452998', 49)"  text-anchor="middle" x="426" y="-77.8" font-family="Times,serif" font-size="14.00">(49)</text>
 
</a> 
</g> 
<!-- f0&#45;&gt;e0 --> 
<g id="edge28" class="edge"><title>f0&#45;&gt;e0</title> 
<path fill="none" stroke="black" d="M710.308,-149.362C650.446,-137.074 556.137,-117.714 492.729,-104.698"/> 
<polygon fill="black" stroke="black" points="493.327,-101.248 482.828,-102.665 491.919,-108.105 493.327,-101.248"/> 
</g> 
<!-- u0 --> 
<g id="node27" class="node"><title>u0</title> 
<ellipse fill="#e98576" stroke="#e98576" cx="599" cy="-90" rx="75.2018" ry="18"/> 
<a xlink:href="http://pir.georgetown.edu/cgi-bin/pt_graphvizView.pl?togoid=0016874" ><text id="GO:0016874" onmousemove="changeToText('GO:0016874')" onmouseout="changeBackText('GO:0016874')"  text-anchor="middle" x="599" y="-90.8" font-family="Times,serif" font-size="14.00">GO:0016874</text></a>
<a xlink:href="http://pir.georgetown.edu/cgi-bin/pt_graphvizView.pl?tofile=453030" ><text id="r453030" onmousemove="changeToText2('r453030', 7)" onmouseout="changeBackText2('r453030', 7)"  text-anchor="middle" x="599" y="-77.8" font-family="Times,serif" font-size="14.00">(7)</text>
 
</a> 
</g> 
<!-- f0&#45;&gt;u0 --> 
<g id="edge24" class="edge"><title>f0&#45;&gt;u0</title> 
<path fill="none" stroke="black" d="M730.547,-145.811C705.167,-135.236 671.152,-121.063 644.07,-109.779"/> 
<polygon fill="black" stroke="black" points="645.382,-106.534 634.805,-105.919 642.69,-112.996 645.382,-106.534"/> 
</g> 
<!-- y0 --> 
<g id="node34" class="node"><title>y0</title> 
<ellipse fill="#e98576" stroke="#e98576" cx="767" cy="-90" rx="75.2018" ry="18"/> 
<a xlink:href="http://pir.georgetown.edu/cgi-bin/pt_graphvizView.pl?togoid=0004386" ><text id="GO:0004386" onmousemove="changeToText('GO:0004386')" onmouseout="changeBackText('GO:0004386')"  text-anchor="middle" x="767" y="-90.8" font-family="Times,serif" font-size="14.00">GO:0004386</text></a>
<a xlink:href="http://pir.georgetown.edu/cgi-bin/pt_graphvizView.pl?tofile=453038" ><text id="r453038" onmousemove="changeToText2('r453038', 2)" onmouseout="changeBackText2('r453038', 2)"  text-anchor="middle" x="767" y="-77.8" font-family="Times,serif" font-size="14.00">(2)</text>
 
</a> 
</g> 
<!-- f0&#45;&gt;y0 --> 
<g id="edge32" class="edge"><title>f0&#45;&gt;y0</title> 
<path fill="none" stroke="black" d="M767,-143.697C767,-135.983 767,-126.712 767,-118.112"/> 
<polygon fill="black" stroke="black" points="770.5,-118.104 767,-108.104 763.5,-118.104 770.5,-118.104"/> 
</g> 
<!-- l0 --> 
<g id="node66" class="node"><title>l0</title> 
<ellipse fill="#e98576" stroke="#e98576" cx="940" cy="-90" rx="79.4447" ry="18"/> 
<a xlink:href="http://pir.georgetown.edu/cgi-bin/pt_graphvizView.pl?togoid=0016740" ><text id="GO:0016740" onmousemove="changeToText('GO:0016740')" onmouseout="changeBackText('GO:0016740')"  text-anchor="middle" x="940" y="-90.8" font-family="Times,serif" font-size="14.00">GO:0016740</text></a>
<a xlink:href="http://pir.georgetown.edu/cgi-bin/pt_graphvizView.pl?tofile=453010" ><text id="r453010" onmousemove="changeToText2('r453010', 32)" onmouseout="changeBackText2('r453010', 32)"  text-anchor="middle" x="940" y="-77.8" font-family="Times,serif" font-size="14.00">(32)</text>
 
</a> 
</g> 
<!-- f0&#45;&gt;l0 --> 
<g id="edge64" class="edge"><title>f0&#45;&gt;l0</title> 
<path fill="none" stroke="black" d="M804.113,-145.983C830.224,-135.418 865.363,-121.2 893.367,-109.869"/> 
<polygon fill="black" stroke="black" points="894.991,-112.987 902.949,-105.992 892.366,-106.498 894.991,-112.987"/> 
</g> 
<!-- q0 --> 
<g id="node72" class="node"><title>q0</title> 
<ellipse fill="#e98576" stroke="#e98576" cx="1118" cy="-90" rx="79.4447" ry="18"/> 
<a xlink:href="http://pir.georgetown.edu/cgi-bin/pt_graphvizView.pl?togoid=0016829" ><text id="GO:0016829" onmousemove="changeToText('GO:0016829')" onmouseout="changeBackText('GO:0016829')"  text-anchor="middle" x="1118" y="-90.8" font-family="Times,serif" font-size="14.00">GO:0016829</text></a>
<a xlink:href="http://pir.georgetown.edu/cgi-bin/pt_graphvizView.pl?tofile=453022" ><text id="r453022" onmousemove="changeToText2('r453022', 11)" onmouseout="changeBackText2('r453022', 11)"  text-anchor="middle" x="1118" y="-77.8" font-family="Times,serif" font-size="14.00">(11)</text>
 
</a> 
</g> 
<!-- f0&#45;&gt;q0 --> 
<g id="edge70" class="edge"><title>f0&#45;&gt;q0</title> 
<path fill="none" stroke="black" d="M824.567,-149.519C886.54,-137.16 985.027,-117.519 1050.58,-104.446"/> 
<polygon fill="black" stroke="black" points="1051.28,-107.875 1060.4,-102.487 1049.91,-101.01 1051.28,-107.875"/> 
</g> 
<!-- h0 --> 
<g id="node9" class="node"><title>h0</title> 
<ellipse fill="#e98576" stroke="#e98576" cx="1296" cy="-90" rx="79.4447" ry="18"/> 
<a xlink:href="http://pir.georgetown.edu/cgi-bin/pt_graphvizView.pl?togoid=0005515" ><text id="GO:0005515" onmousemove="changeToText('GO:0005515')" onmouseout="changeBackText('GO:0005515')"  text-anchor="middle" x="1296" y="-90.8" font-family="Times,serif" font-size="14.00">GO:0005515</text></a>
<a xlink:href="http://pir.georgetown.edu/cgi-bin/pt_graphvizView.pl?tofile=453002" ><text id="r453002" onmousemove="changeToText2('r453002', 39)" onmouseout="changeBackText2('r453002', 39)"  text-anchor="middle" x="1296" y="-77.8" font-family="Times,serif" font-size="14.00">(39)</text>
 
</a> 
</g> 
<!-- b0&#45;&gt;h0 --> 
<g id="edge6" class="edge"><title>b0&#45;&gt;h0</title> 
<path fill="none" stroke="black" d="M2428.66,-161.08C2260.92,-160.647 1780.74,-155.049 1385,-108 1377.42,-107.099 1369.52,-105.929 1361.69,-104.624"/> 
<polygon fill="black" stroke="black" points="1362.29,-101.176 1351.84,-102.91 1361.09,-108.072 1362.29,-101.176"/> 
</g> 
<!-- a0 --> 
<g id="node20" class="node"><title>a0</title> 
<ellipse fill="#e98576" stroke="#e98576" cx="1479" cy="-90" rx="84.1886" ry="18"/> 
<a xlink:href="http://pir.georgetown.edu/cgi-bin/pt_graphvizView.pl?togoid=0043167" ><text id="GO:0043167" onmousemove="changeToText('GO:0043167')" onmouseout="changeBackText('GO:0043167')"  text-anchor="middle" x="1479" y="-90.8" font-family="Times,serif" font-size="14.00">GO:0043167</text></a>
<a xlink:href="http://pir.georgetown.edu/cgi-bin/pt_graphvizView.pl?tofile=452994" ><text id="r452994" onmousemove="changeToText2('r452994', 105)" onmouseout="changeBackText2('r452994', 105)"  text-anchor="middle" x="1479" y="-77.8" font-family="Times,serif" font-size="14.00">(105)</text>
 
</a> 
</g> 
<!-- b0&#45;&gt;a0 --> 
<g id="edge16" class="edge"><title>b0&#45;&gt;a0</title> 
<path fill="none" stroke="black" d="M2428.88,-160.023C2281.28,-157.109 1893.86,-146.144 1573,-108 1564.98,-107.047 1556.61,-105.841 1548.31,-104.513"/> 
<polygon fill="black" stroke="black" points="1548.7,-101.029 1538.26,-102.842 1547.55,-107.934 1548.7,-101.029"/> 
</g> 
<!-- b1 --> 
<g id="node22" class="node"><title>b1</title> 
<a xlink:href="http://pir.georgetown.edu/cgi-bin/pt_graphvizView.pl?togoid=0043176" > 
<ellipse fill="#dddddd" stroke="#dddddd" cx="1643" cy="-90" rx="61.1934" ry="18"/> 
<a xlink:href="http://pir.georgetown.edu/cgi-bin/pt_graphvizView.pl?togoid=0043176" ><text id="GO:0043176" onmousemove="changeToText('GO:0043176')" onmouseout="changeBackText('GO:0043176')"  text-anchor="middle" x="1643" y="-85.8" font-family="Times,serif" font-size="14.00">GO:0043176</text></a>
 
</a> 
</g> 
<!-- b0&#45;&gt;b1 --> 
<g id="edge18" class="edge"><title>b0&#45;&gt;b1</title> 
<path fill="none" stroke="black" d="M2428.75,-160.281C2297.16,-157.977 1977.97,-148.328 1714,-108 1708.3,-107.129 1702.39,-106.031 1696.51,-104.814"/> 
<polygon fill="black" stroke="black" points="1697.22,-101.388 1686.71,-102.673 1695.73,-108.227 1697.22,-101.388"/> 
</g> 
<!-- x0 --> 
<g id="node25" class="node"><title>x0</title> 
<ellipse fill="#e98576" stroke="#e98576" cx="1798" cy="-90" rx="75.2018" ry="18"/> 
<a xlink:href="http://pir.georgetown.edu/cgi-bin/pt_graphvizView.pl?togoid=0030246" ><text id="GO:0030246" onmousemove="changeToText('GO:0030246')" onmouseout="changeBackText('GO:0030246')"  text-anchor="middle" x="1798" y="-90.8" font-family="Times,serif" font-size="14.00">GO:0030246</text></a>
<a xlink:href="http://pir.georgetown.edu/cgi-bin/pt_graphvizView.pl?tofile=453036" ><text id="r453036" onmousemove="changeToText2('r453036', 4)" onmouseout="changeBackText2('r453036', 4)"  text-anchor="middle" x="1798" y="-77.8" font-family="Times,serif" font-size="14.00">(4)</text>
 
</a> 
</g> 
<!-- b0&#45;&gt;x0 --> 
<g id="edge22" class="edge"><title>b0&#45;&gt;x0</title> 
<path fill="none" stroke="black" d="M2430.2,-158.028C2320.91,-152.101 2081.78,-136.829 1882,-108 1875.37,-107.043 1868.48,-105.898 1861.61,-104.659"/> 
<polygon fill="black" stroke="black" points="1862.09,-101.187 1851.62,-102.788 1860.8,-108.068 1862.09,-101.187"/> 
</g> 
<!-- g0 --> 
<g id="node29" class="node"><title>g0</title> 
<ellipse fill="#e98576" stroke="#e98576" cx="1971" cy="-90" rx="79.4447" ry="18"/> 
<a xlink:href="http://pir.georgetown.edu/cgi-bin/pt_graphvizView.pl?togoid=0003676" ><text id="GO:0003676" onmousemove="changeToText('GO:0003676')" onmouseout="changeBackText('GO:0003676')"  text-anchor="middle" x="1971" y="-90.8" font-family="Times,serif" font-size="14.00">GO:0003676</text></a>
<a xlink:href="http://pir.georgetown.edu/cgi-bin/pt_graphvizView.pl?tofile=453000" ><text id="r453000" onmousemove="changeToText2('r453000', 42)" onmouseout="changeBackText2('r453000', 42)"  text-anchor="middle" x="1971" y="-77.8" font-family="Times,serif" font-size="14.00">(42)</text>
 
</a> 
</g> 
<!-- b0&#45;&gt;g0 --> 
<g id="edge26" class="edge"><title>b0&#45;&gt;g0</title> 
<path fill="none" stroke="black" d="M2433.14,-155.202C2350.68,-146.52 2193.2,-128.906 2060,-108 2052.95,-106.893 2045.6,-105.645 2038.28,-104.339"/> 
<polygon fill="black" stroke="black" points="2038.82,-100.88 2028.35,-102.532 2037.57,-107.766 2038.82,-100.88"/> 
</g> 
<!-- j1 --> 
<g id="node32" class="node"><title>j1</title> 
<ellipse fill="#e98576" stroke="#e98576" cx="2144" cy="-90" rx="75.2018" ry="18"/> 
<a xlink:href="http://pir.georgetown.edu/cgi-bin/pt_graphvizView.pl?togoid=0001871" ><text id="GO:0001871" onmousemove="changeToText('GO:0001871')" onmouseout="changeBackText('GO:0001871')"  text-anchor="middle" x="2144" y="-90.8" font-family="Times,serif" font-size="14.00">GO:0001871</text></a>
<a xlink:href="http://pir.georgetown.edu/cgi-bin/pt_graphvizView.pl?tofile=453056" ><text id="r453056" onmousemove="changeToText2('r453056', 1)" onmouseout="changeBackText2('r453056', 1)"  text-anchor="middle" x="2144" y="-77.8" font-family="Times,serif" font-size="14.00">(1)</text>
 
</a> 
</g> 
<!-- b0&#45;&gt;j1 --> 
<g id="edge30" class="edge"><title>b0&#45;&gt;j1</title> 
<path fill="none" stroke="black" d="M2441.16,-151.119C2380.56,-138.86 2277.01,-117.91 2209.55,-104.261"/> 
<polygon fill="black" stroke="black" points="2209.95,-100.772 2199.46,-102.219 2208.56,-107.633 2209.95,-100.772"/> 
</g> 
<!-- o0 --> 
<g id="node38" class="node"><title>o0</title> 
<ellipse fill="#e98576" stroke="#e98576" cx="2317" cy="-90" rx="79.4447" ry="18"/> 
<a xlink:href="http://pir.georgetown.edu/cgi-bin/pt_graphvizView.pl?togoid=0048037" ><text id="GO:0048037" onmousemove="changeToText('GO:0048037')" onmouseout="changeBackText('GO:0048037')"  text-anchor="middle" x="2317" y="-90.8" font-family="Times,serif" font-size="14.00">GO:0048037</text></a>
<a xlink:href="http://pir.georgetown.edu/cgi-bin/pt_graphvizView.pl?tofile=453018" ><text id="r453018" onmousemove="changeToText2('r453018', 18)" onmouseout="changeBackText2('r453018', 18)"  text-anchor="middle" x="2317" y="-77.8" font-family="Times,serif" font-size="14.00">(18)</text>
 
</a> 
</g> 
<!-- b0&#45;&gt;o0 --> 
<g id="edge36" class="edge"><title>b0&#45;&gt;o0</title> 
<path fill="none" stroke="black" d="M2455.41,-147.003C2429.01,-136.321 2392.37,-121.497 2363.42,-109.784"/> 
<polygon fill="black" stroke="black" points="2364.51,-106.447 2353.93,-105.941 2361.88,-112.936 2364.51,-106.447"/> 
</g> 
<!-- z0 --> 
<g id="node40" class="node"><title>z0</title> 
<ellipse fill="#e98576" stroke="#e98576" cx="2490" cy="-90" rx="75.2018" ry="18"/> 
<a xlink:href="http://pir.georgetown.edu/cgi-bin/pt_graphvizView.pl?togoid=0008289" ><text id="GO:0008289" onmousemove="changeToText('GO:0008289')" onmouseout="changeBackText('GO:0008289')"  text-anchor="middle" x="2490" y="-90.8" font-family="Times,serif" font-size="14.00">GO:0008289</text></a>
<a xlink:href="http://pir.georgetown.edu/cgi-bin/pt_graphvizView.pl?tofile=453040" ><text id="r453040" onmousemove="changeToText2('r453040', 2)" onmouseout="changeBackText2('r453040', 2)"  text-anchor="middle" x="2490" y="-77.8" font-family="Times,serif" font-size="14.00">(2)</text>
 
</a> 
</g> 
<!-- b0&#45;&gt;z0 --> 
<g id="edge38" class="edge"><title>b0&#45;&gt;z0</title> 
<path fill="none" stroke="black" d="M2490,-143.697C2490,-135.983 2490,-126.712 2490,-118.112"/> 
<polygon fill="black" stroke="black" points="2493.5,-118.104 2490,-108.104 2486.5,-118.104 2493.5,-118.104"/> 
</g> 
<!-- k0 --> 
<g id="node45" class="node"><title>k0</title> 
<ellipse fill="#e98576" stroke="#e98576" cx="2663" cy="-90" rx="79.4447" ry="18"/> 
<a xlink:href="http://pir.georgetown.edu/cgi-bin/pt_graphvizView.pl?togoid=0001882" ><text id="GO:0001882" onmousemove="changeToText('GO:0001882')" onmouseout="changeBackText('GO:0001882')"  text-anchor="middle" x="2663" y="-90.8" font-family="Times,serif" font-size="14.00">GO:0001882</text></a>
<a xlink:href="http://pir.georgetown.edu/cgi-bin/pt_graphvizView.pl?tofile=453008" ><text id="r453008" onmousemove="changeToText2('r453008', 35)" onmouseout="changeBackText2('r453008', 35)"  text-anchor="middle" x="2663" y="-77.8" font-family="Times,serif" font-size="14.00">(35)</text>
 
</a> 
</g> 
<!-- b0&#45;&gt;k0 --> 
<g id="edge44" class="edge"><title>b0&#45;&gt;k0</title> 
<path fill="none" stroke="black" d="M2524.59,-147.003C2550.99,-136.321 2587.63,-121.497 2616.58,-109.784"/> 
<polygon fill="black" stroke="black" points="2618.12,-112.936 2626.07,-105.941 2615.49,-106.447 2618.12,-112.936"/> 
</g> 
<!-- d1 --> 
<g id="node47" class="node"><title>d1</title> 
<ellipse fill="#e98576" stroke="#e98576" cx="2836" cy="-90" rx="75.2018" ry="18"/> 
<a xlink:href="http://pir.georgetown.edu/cgi-bin/pt_graphvizView.pl?togoid=0008144" ><text id="GO:0008144" onmousemove="changeToText('GO:0008144')" onmouseout="changeBackText('GO:0008144')"  text-anchor="middle" x="2836" y="-90.8" font-family="Times,serif" font-size="14.00">GO:0008144</text></a>
<a xlink:href="http://pir.georgetown.edu/cgi-bin/pt_graphvizView.pl?tofile=453046" ><text id="r453046" onmousemove="changeToText2('r453046', 1)" onmouseout="changeBackText2('r453046', 1)"  text-anchor="middle" x="2836" y="-77.8" font-family="Times,serif" font-size="14.00">(1)</text>
 
</a> 
</g> 
<!-- b0&#45;&gt;d1 --> 
<g id="edge46" class="edge"><title>b0&#45;&gt;d1</title> 
<path fill="none" stroke="black" d="M2535.11,-149.681C2543.37,-147.711 2551.93,-145.739 2560,-144 2644.44,-125.801 2666.2,-124.471 2751,-108 2757.2,-106.795 2763.66,-105.528 2770.12,-104.251"/> 
<polygon fill="black" stroke="black" points="2771.11,-107.623 2780.24,-102.245 2769.75,-100.757 2771.11,-107.623"/> 
</g> 
<!-- c1 --> 
<g id="node51" class="node"><title>c1</title> 
<ellipse fill="#e98576" stroke="#e98576" cx="3004" cy="-90" rx="75.2018" ry="18"/> 
<a xlink:href="http://pir.georgetown.edu/cgi-bin/pt_graphvizView.pl?togoid=0019842" ><text id="GO:0019842" onmousemove="changeToText('GO:0019842')" onmouseout="changeBackText('GO:0019842')"  text-anchor="middle" x="3004" y="-90.8" font-family="Times,serif" font-size="14.00">GO:0019842</text></a>
<a xlink:href="http://pir.georgetown.edu/cgi-bin/pt_graphvizView.pl?tofile=453044" ><text id="r453044" onmousemove="changeToText2('r453044', 2)" onmouseout="changeBackText2('r453044', 2)"  text-anchor="middle" x="3004" y="-77.8" font-family="Times,serif" font-size="14.00">(2)</text>
 
</a> 
</g> 
<!-- b0&#45;&gt;c1 --> 
<g id="edge50" class="edge"><title>b0&#45;&gt;c1</title> 
<path fill="none" stroke="black" d="M2533.87,-149.362C2542.49,-147.355 2551.49,-145.451 2560,-144 2718.51,-116.961 2761,-131.978 2920,-108 2926.62,-107.001 2933.51,-105.828 2940.37,-104.573"/> 
<polygon fill="black" stroke="black" points="2941.19,-107.98 2950.37,-102.685 2939.89,-101.102 2941.19,-107.98"/> 
</g> 
<!-- f1 --> 
<g id="node60" class="node"><title>f1</title> 
<ellipse fill="#e98576" stroke="#e98576" cx="3172" cy="-90" rx="75.2018" ry="18"/> 
<a xlink:href="http://pir.georgetown.edu/cgi-bin/pt_graphvizView.pl?togoid=0060090" ><text id="GO:0060090" onmousemove="changeToText('GO:0060090')" onmouseout="changeBackText('GO:0060090')"  text-anchor="middle" x="3172" y="-90.8" font-family="Times,serif" font-size="14.00">GO:0060090</text></a>
<a xlink:href="http://pir.georgetown.edu/cgi-bin/pt_graphvizView.pl?tofile=453050" ><text id="r453050" onmousemove="changeToText2('r453050', 1)" onmouseout="changeBackText2('r453050', 1)"  text-anchor="middle" x="3172" y="-77.8" font-family="Times,serif" font-size="14.00">(1)</text>
 
</a> 
</g> 
<!-- b0&#45;&gt;f1 --> 
<g id="edge58" class="edge"><title>b0&#45;&gt;f1</title> 
<path fill="none" stroke="black" d="M2533.46,-149.233C2542.19,-147.212 2551.35,-145.336 2560,-144 2792.46,-108.116 2854.89,-139.396 3088,-108 3094.74,-107.093 3101.74,-105.968 3108.71,-104.732"/> 
<polygon fill="black" stroke="black" points="3109.66,-108.116 3118.85,-102.854 3108.38,-101.233 3109.66,-108.116"/> 
</g> 
<!-- i1 --> 
<g id="node62" class="node"><title>i1</title> 
<ellipse fill="#e98576" stroke="#e98576" cx="3340" cy="-90" rx="75.2018" ry="18"/> 
<a xlink:href="http://pir.georgetown.edu/cgi-bin/pt_graphvizView.pl?togoid=0031406" ><text id="GO:0031406" onmousemove="changeToText('GO:0031406')" onmouseout="changeBackText('GO:0031406')"  text-anchor="middle" x="3340" y="-90.8" font-family="Times,serif" font-size="14.00">GO:0031406</text></a>
<a xlink:href="http://pir.georgetown.edu/cgi-bin/pt_graphvizView.pl?tofile=453054" ><text id="r453054" onmousemove="changeToText2('r453054', 1)" onmouseout="changeBackText2('r453054', 1)"  text-anchor="middle" x="3340" y="-77.8" font-family="Times,serif" font-size="14.00">(1)</text>
 
</a> 
</g> 
<!-- b0&#45;&gt;i1 --> 
<g id="edge60" class="edge"><title>b0&#45;&gt;i1</title> 
<path fill="none" stroke="black" d="M2533.44,-149.121C2542.18,-147.109 2551.34,-145.265 2560,-144 2866.5,-99.2557 2948.7,-146.827 3256,-108 3262.84,-107.135 3269.96,-106.026 3277.03,-104.79"/> 
<polygon fill="black" stroke="black" points="3278.12,-108.149 3287.32,-102.901 3276.85,-101.264 3278.12,-108.149"/> 
</g> 
<!-- m0 --> 
<g id="node68" class="node"><title>m0</title> 
<ellipse fill="#e98576" stroke="#e98576" cx="3513" cy="-90" rx="79.4447" ry="18"/> 
<a xlink:href="http://pir.georgetown.edu/cgi-bin/pt_graphvizView.pl?togoid=0046906" ><text id="GO:0046906" onmousemove="changeToText('GO:0046906')" onmouseout="changeBackText('GO:0046906')"  text-anchor="middle" x="3513" y="-90.8" font-family="Times,serif" font-size="14.00">GO:0046906</text></a>
<a xlink:href="http://pir.georgetown.edu/cgi-bin/pt_graphvizView.pl?tofile=453014" ><text id="r453014" onmousemove="changeToText2('r453014', 23)" onmouseout="changeBackText2('r453014', 23)"  text-anchor="middle" x="3513" y="-77.8" font-family="Times,serif" font-size="14.00">(23)</text>
 
</a> 
</g> 
<!-- b0&#45;&gt;m0 --> 
<g id="edge66" class="edge"><title>b0&#45;&gt;m0</title> 
<path fill="none" stroke="black" d="M2533.06,-149.138C2541.91,-147.098 2551.21,-145.239 2560,-144 2940.58,-90.3904 3042.21,-152.174 3424,-108 3431.5,-107.133 3439.31,-105.993 3447.06,-104.714"/> 
<polygon fill="black" stroke="black" points="3447.91,-108.118 3457.17,-102.964 3446.72,-101.221 3447.91,-108.118"/> 
</g> 
<!-- d0 --> 
<g id="node70" class="node"><title>d0</title> 
<ellipse fill="#e98576" stroke="#e98576" cx="3691" cy="-90" rx="79.4447" ry="18"/> 
<a xlink:href="http://pir.georgetown.edu/cgi-bin/pt_graphvizView.pl?togoid=0000166" ><text id="GO:0000166" onmousemove="changeToText('GO:0000166')" onmouseout="changeBackText('GO:0000166')"  text-anchor="middle" x="3691" y="-90.8" font-family="Times,serif" font-size="14.00">GO:0000166</text></a>
<a xlink:href="http://pir.georgetown.edu/cgi-bin/pt_graphvizView.pl?tofile=452996" ><text id="r452996" onmousemove="changeToText2('r452996', 53)" onmouseout="changeBackText2('r452996', 53)"  text-anchor="middle" x="3691" y="-77.8" font-family="Times,serif" font-size="14.00">(53)</text>
 
</a> 
</g> 
<!-- b0&#45;&gt;d0 --> 
<g id="edge68" class="edge"><title>b0&#45;&gt;d0</title> 
<path fill="none" stroke="black" d="M2533.05,-149.089C2541.9,-147.053 2551.2,-145.207 2560,-144 3018.64,-81.0472 3140.89,-159.11 3601,-108 3608.78,-107.136 3616.89,-105.976 3624.93,-104.665"/> 
<polygon fill="black" stroke="black" points="3625.76,-108.073 3635.03,-102.936 3624.58,-101.174 3625.76,-108.073"/> 
</g> 
<!-- t0 --> 
<g id="node74" class="node"><title>t0</title> 
<ellipse fill="#e98576" stroke="#e98576" cx="3864" cy="-90" rx="75.2018" ry="18"/> 
<a xlink:href="http://pir.georgetown.edu/cgi-bin/pt_graphvizView.pl?togoid=0051540" ><text id="GO:0051540" onmousemove="changeToText('GO:0051540')" onmouseout="changeBackText('GO:0051540')"  text-anchor="middle" x="3864" y="-90.8" font-family="Times,serif" font-size="14.00">GO:0051540</text></a>
<a xlink:href="http://pir.georgetown.edu/cgi-bin/pt_graphvizView.pl?tofile=453028" ><text id="r453028" onmousemove="changeToText2('r453028', 8)" onmouseout="changeBackText2('r453028', 8)"  text-anchor="middle" x="3864" y="-77.8" font-family="Times,serif" font-size="14.00">(8)</text>
 
</a> 
</g> 
<!-- b0&#45;&gt;t0 --> 
<g id="edge72" class="edge"><title>b0&#45;&gt;t0</title> 
<path fill="none" stroke="black" d="M2533.05,-149.054C2541.9,-147.021 2551.2,-145.185 2560,-144 3097.16,-71.6494 3240.47,-169.365 3779,-108 3786.38,-107.159 3794.08,-106.01 3801.69,-104.703"/> 
<polygon fill="black" stroke="black" points="3802.4,-108.131 3811.62,-102.907 3801.16,-101.243 3802.4,-108.131"/> 
</g> 
<!-- w0 --> 
<g id="node13" class="node"><title>w0</title> 
<ellipse fill="#e98576" stroke="#e98576" cx="169" cy="-18" rx="75.2018" ry="18"/> 
<a xlink:href="http://pir.georgetown.edu/cgi-bin/pt_graphvizView.pl?togoid=0008233" ><text id="GO:0008233" onmousemove="changeToText('GO:0008233')" onmouseout="changeBackText('GO:0008233')"  text-anchor="middle" x="169" y="-18.8" font-family="Times,serif" font-size="14.00">GO:0008233</text></a>
<a xlink:href="http://pir.georgetown.edu/cgi-bin/pt_graphvizView.pl?tofile=453034" ><text id="r453034" onmousemove="changeToText2('r453034', 4)" onmouseout="changeBackText2('r453034', 4)"  text-anchor="middle" x="169" y="-5.8" font-family="Times,serif" font-size="14.00">(4)</text>
 
</a> 
</g> 
<!-- j0&#45;&gt;w0 --> 
<g id="edge10" class="edge"><title>j0&#45;&gt;w0</title> 
<path fill="none" stroke="black" d="M229.278,-72.411C219.144,-63.4318 206.46,-52.1926 195.345,-42.3436"/> 
<polygon fill="black" stroke="black" points="197.393,-39.4823 187.588,-35.4699 192.751,-44.7214 197.393,-39.4823"/> 
</g> 
<!-- k1 --> 
<g id="node16" class="node"><title>k1</title> 
<ellipse fill="#e98576" stroke="#e98576" cx="337" cy="-18" rx="75.2018" ry="18"/> 
<a xlink:href="http://pir.georgetown.edu/cgi-bin/pt_graphvizView.pl?togoid=0004497" ><text id="GO:0004497" onmousemove="changeToText('GO:0004497')" onmouseout="changeBackText('GO:0004497')"  text-anchor="middle" x="337" y="-18.8" font-family="Times,serif" font-size="14.00">GO:0004497</text></a>
<a xlink:href="http://pir.georgetown.edu/cgi-bin/pt_graphvizView.pl?tofile=453058" ><text id="r453058" onmousemove="changeToText2('r453058', 1)" onmouseout="changeBackText2('r453058', 1)"  text-anchor="middle" x="337" y="-5.8" font-family="Times,serif" font-size="14.00">(1)</text>
 
</a> 
</g> 
<!-- e0&#45;&gt;k1 --> 
<g id="edge12" class="edge"><title>e0&#45;&gt;k1</title> 
<path fill="none" stroke="black" d="M404.908,-72.411C393.27,-63.2575 378.646,-51.7553 365.952,-41.7715"/> 
<polygon fill="black" stroke="black" points="367.964,-38.9011 357.94,-35.4699 363.637,-44.4031 367.964,-38.9011"/> 
</g> 
<!-- e1 --> 
<g id="node42" class="node"><title>e1</title> 
<ellipse fill="#e98576" stroke="#e98576" cx="505" cy="-18" rx="75.2018" ry="18"/> 
<a xlink:href="http://pir.georgetown.edu/cgi-bin/pt_graphvizView.pl?togoid=0051213" ><text id="GO:0051213" onmousemove="changeToText('GO:0051213')" onmouseout="changeBackText('GO:0051213')"  text-anchor="middle" x="505" y="-18.8" font-family="Times,serif" font-size="14.00">GO:0051213</text></a>
<a xlink:href="http://pir.georgetown.edu/cgi-bin/pt_graphvizView.pl?tofile=453048" ><text id="r453048" onmousemove="changeToText2('r453048', 1)" onmouseout="changeBackText2('r453048', 1)"  text-anchor="middle" x="505" y="-5.8" font-family="Times,serif" font-size="14.00">(1)</text>
 
</a> 
</g> 
<!-- e0&#45;&gt;e1 --> 
<g id="edge40" class="edge"><title>e0&#45;&gt;e1</title> 
<path fill="none" stroke="black" d="M444.722,-72.411C454.856,-63.4318 467.54,-52.1926 478.655,-42.3436"/> 
<polygon fill="black" stroke="black" points="481.249,-44.7214 486.412,-35.4699 476.607,-39.4823 481.249,-44.7214"/> 
</g> 
<!-- r0 --> 
<g id="node64" class="node"><title>r0</title> 
<ellipse fill="#e98576" stroke="#e98576" cx="678" cy="-18" rx="79.4447" ry="18"/> 
<a xlink:href="http://pir.georgetown.edu/cgi-bin/pt_graphvizView.pl?togoid=0009055" ><text id="GO:0009055" onmousemove="changeToText('GO:0009055')" onmouseout="changeBackText('GO:0009055')"  text-anchor="middle" x="678" y="-18.8" font-family="Times,serif" font-size="14.00">GO:0009055</text></a>
<a xlink:href="http://pir.georgetown.edu/cgi-bin/pt_graphvizView.pl?tofile=453024" ><text id="r453024" onmousemove="changeToText2('r453024', 10)" onmouseout="changeBackText2('r453024', 10)"  text-anchor="middle" x="678" y="-5.8" font-family="Times,serif" font-size="14.00">(10)</text>
 
</a> 
</g> 
<!-- e0&#45;&gt;r0 --> 
<g id="edge62" class="edge"><title>e0&#45;&gt;r0</title> 
<path fill="none" stroke="black" d="M474.29,-75.5861C515.877,-64.0341 575.994,-47.335 620.145,-35.0709"/> 
<polygon fill="black" stroke="black" points="621.175,-38.4173 629.873,-32.3685 619.301,-31.6727 621.175,-38.4173"/> 
</g> 
<!-- a1 --> 
<g id="node53" class="node"><title>a1</title> 
<ellipse fill="#e98576" stroke="#e98576" cx="1643" cy="-18" rx="75.2018" ry="18"/> 
<a xlink:href="http://pir.georgetown.edu/cgi-bin/pt_graphvizView.pl?togoid=0016597" ><text id="GO:0016597" onmousemove="changeToText('GO:0016597')" onmouseout="changeBackText('GO:0016597')"  text-anchor="middle" x="1643" y="-18.8" font-family="Times,serif" font-size="14.00">GO:0016597</text></a>
<a xlink:href="http://pir.georgetown.edu/cgi-bin/pt_graphvizView.pl?tofile=453042" ><text id="r453042" onmousemove="changeToText2('r453042', 2)" onmouseout="changeBackText2('r453042', 2)"  text-anchor="middle" x="1643" y="-5.8" font-family="Times,serif" font-size="14.00">(2)</text>
 
</a> 
</g> 
<!-- b1&#45;&gt;a1 --> 
<g id="edge52" class="edge"><title>b1&#45;&gt;a1</title> 
<path fill="none" stroke="black" d="M1643,-71.6966C1643,-63.9827 1643,-54.7125 1643,-46.1124"/> 
<polygon fill="black" stroke="black" points="1646.5,-46.1043 1643,-36.1043 1639.5,-46.1044 1646.5,-46.1043"/> 
</g> 
<!-- g1 --> 
<g id="node56" class="node"><title>g1</title> 
<ellipse fill="#e98576" stroke="#e98576" cx="4032" cy="-90" rx="75.2018" ry="18"/> 
<a xlink:href="http://pir.georgetown.edu/cgi-bin/pt_graphvizView.pl?togoid=0004871" ><text id="GO:0004871" onmousemove="changeToText('GO:0004871')" onmouseout="changeBackText('GO:0004871')"  text-anchor="middle" x="4032" y="-90.8" font-family="Times,serif" font-size="14.00">GO:0004871</text></a>
<a xlink:href="http://pir.georgetown.edu/cgi-bin/pt_graphvizView.pl?tofile=453052" ><text id="r453052" onmousemove="changeToText2('r453052', 1)" onmouseout="changeBackText2('r453052', 1)"  text-anchor="middle" x="4032" y="-77.8" font-family="Times,serif" font-size="14.00">(1)</text>
 
</a> 
</g> 
<!-- h1&#45;&gt;g1 --> 
<g id="edge54" class="edge"><title>h1&#45;&gt;g1</title> 
<path fill="none" stroke="black" d="M3198.07,-149.194C3206.92,-147.149 3216.21,-145.274 3225,-144 3543.4,-97.8312 3628.77,-148.022 3948,-108 3954.84,-107.142 3961.96,-106.037 3969.04,-104.803"/> 
<polygon fill="black" stroke="black" points="3970.12,-108.163 3979.32,-102.916 3968.86,-101.278 3970.12,-108.163"/> 
</g> 
</g> 
<text text-anchor="left" x="4" y="-20" style="font-family:Arial Narrow;font-size:20.00;font-weight:bold;">GO Hierarchical View:</text> 

<text text-anchor="left" x="4" y="0" style="font-family:Arial Narrow;font-size:20.00;font-style:italic;">molecular function</text> 

<script type="text/ecmascript"> 
<![CDATA[ 
var targetText; 
function changeToText(z) { 
		targetText = svgDocument.getElementById(z).firstChild; 
		targetText.nodeValue="link to "+z; 
} 
function changeBackText(z) { 
		targetText = svgDocument.getElementById(z).firstChild; 
		targetText.nodeValue=z; 
} 
function changeToText2(z,n) { 
		targetText = svgDocument.getElementById(z).firstChild; 
		if (n<=1) { 
			targetText.nodeValue="link to " + n + " protein record"; 
		} else { 
			targetText.nodeValue="link to " + n + " protein records"; 
		} 
} 
function changeBackText2(z,n) { 
		targetText = svgDocument.getElementById(z).firstChild; 
		targetText.nodeValue="(" + n + ")"; 
} 
// ]]> 
</script> 
</svg> 
