<?xml version="1.0" encoding="UTF-8" standalone="no"?> 
<!DOCTYPE svg PUBLIC "-//W3C//DTD SVG 1.1//EN" 
 "http://www.w3.org/Graphics/SVG/1.1/DTD/svg11.dtd"> 
<!-- Generated by graphviz version 2.28.0 (20110622.2320) 
 --> 
<!-- Title: G Pages: 1 --> 
<svg width="2000" height="1000"  
 viewBox="-30 -50 2000 1000" xmlns="http://www.w3.org/2000/svg" xmlns:xlink="http://www.w3.org/1999/xlink"> 
<g id="graph1" class="graph" transform="scale(1 1) rotate(0) translate(4 400)"> 
<title>G</title> 
<polygon fill="white" stroke="white" points="-4,5 -4,-400 2218,-400 2218,5 -4,5"/> 
<!-- i0 --> 
<g id="node1" class="node"><title>i0</title> 
<ellipse fill="#e98576" stroke="#e98576" cx="243" cy="-234" rx="75.2018" ry="18"/> 
<a xlink:href="http://pir.georgetown.edu/cgi-bin/pt_graphvizView.pl?togoid=0043170" ><text id="GO:0043170" onmousemove="changeToText('GO:0043170')" onmouseout="changeBackText('GO:0043170')"  text-anchor="middle" x="243" y="-234.8" font-family="Times,serif" font-size="14.00">GO:0043170</text></a>
<a xlink:href="http://pir.georgetown.edu/cgi-bin/pt_graphvizView.pl?tofile=696444" ><text id="r696444" onmousemove="changeToText2('r696444', 1)" onmouseout="changeBackText2('r696444', 1)"  text-anchor="middle" x="243" y="-221.8" font-family="Times,serif" font-size="14.00">(1)</text>
 
</a> 
</g> 
<!-- h0 --> 
<g id="node3" class="node"><title>h0</title> 
<ellipse fill="#e98576" stroke="#e98576" cx="243" cy="-162" rx="75.2018" ry="18"/> 
<a xlink:href="http://pir.georgetown.edu/cgi-bin/pt_graphvizView.pl?togoid=0019538" ><text id="GO:0019538" onmousemove="changeToText('GO:0019538')" onmouseout="changeBackText('GO:0019538')"  text-anchor="middle" x="243" y="-162.8" font-family="Times,serif" font-size="14.00">GO:0019538</text></a>
<a xlink:href="http://pir.georgetown.edu/cgi-bin/pt_graphvizView.pl?tofile=696442" ><text id="r696442" onmousemove="changeToText2('r696442', 1)" onmouseout="changeBackText2('r696442', 1)"  text-anchor="middle" x="243" y="-149.8" font-family="Times,serif" font-size="14.00">(1)</text>
 
</a> 
</g> 
<!-- i0&#45;&gt;h0 --> 
<g id="edge2" class="edge"><title>i0&#45;&gt;h0</title> 
<path fill="none" stroke="black" d="M243,-215.697C243,-207.983 243,-198.712 243,-190.112"/> 
<polygon fill="black" stroke="black" points="246.5,-190.104 243,-180.104 239.5,-190.104 246.5,-190.104"/> 
</g> 
<!-- l0 --> 
<g id="node40" class="node"><title>l0</title> 
<a xlink:href="http://pir.georgetown.edu/cgi-bin/pt_graphvizView.pl?togoid=0044260" > 
<ellipse fill="#dddddd" stroke="#dddddd" cx="398" cy="-162" rx="61.1934" ry="18"/> 
<a xlink:href="http://pir.georgetown.edu/cgi-bin/pt_graphvizView.pl?togoid=0044260" ><text id="GO:0044260" onmousemove="changeToText('GO:0044260')" onmouseout="changeBackText('GO:0044260')"  text-anchor="middle" x="398" y="-157.8" font-family="Times,serif" font-size="14.00">GO:0044260</text></a>
 
</a> 
</g> 
<!-- i0&#45;&gt;l0 --> 
<g id="edge38" class="edge"><title>i0&#45;&gt;l0</title> 
<path fill="none" stroke="black" d="M276.633,-217.811C300.16,-207.186 331.729,-192.929 356.773,-181.618"/> 
<polygon fill="black" stroke="black" points="358.349,-184.747 366.022,-177.442 355.468,-178.368 358.349,-184.747"/> 
</g> 
<!-- g0 --> 
<g id="node31" class="node"><title>g0</title> 
<a xlink:href="http://pir.georgetown.edu/cgi-bin/pt_graphvizView.pl?togoid=0044267" > 
<ellipse fill="#dddddd" stroke="#dddddd" cx="321" cy="-90" rx="61.1934" ry="18"/> 
<a xlink:href="http://pir.georgetown.edu/cgi-bin/pt_graphvizView.pl?togoid=0044267" ><text id="GO:0044267" onmousemove="changeToText('GO:0044267')" onmouseout="changeBackText('GO:0044267')"  text-anchor="middle" x="321" y="-85.8" font-family="Times,serif" font-size="14.00">GO:0044267</text></a>
 
</a> 
</g> 
<!-- h0&#45;&gt;g0 --> 
<g id="edge64" class="edge"><title>h0&#45;&gt;g0</title> 
<path fill="none" stroke="black" d="M261.485,-144.411C271.563,-135.367 284.196,-124.03 295.227,-114.13"/> 
<polygon fill="black" stroke="black" points="297.812,-116.512 302.917,-107.228 293.137,-111.303 297.812,-116.512"/> 
</g> 
<!-- k0 --> 
<g id="node4" class="node"><title>k0</title> 
<a xlink:href="http://pir.georgetown.edu/cgi-bin/pt_graphvizView.pl?togoid=0044238" > 
<ellipse fill="#dddddd" stroke="#dddddd" cx="88" cy="-234" rx="61.1934" ry="18"/> 
<a xlink:href="http://pir.georgetown.edu/cgi-bin/pt_graphvizView.pl?togoid=0044238" ><text id="GO:0044238" onmousemove="changeToText('GO:0044238')" onmouseout="changeBackText('GO:0044238')"  text-anchor="middle" x="88" y="-229.8" font-family="Times,serif" font-size="14.00">GO:0044238</text></a>
 
</a> 
</g> 
<!-- k0&#45;&gt;h0 --> 
<g id="edge4" class="edge"><title>k0&#45;&gt;h0</title> 
<path fill="none" stroke="black" d="M120.116,-218.496C143.233,-208.056 174.667,-193.86 199.956,-182.439"/> 
<polygon fill="black" stroke="black" points="201.643,-185.518 209.317,-178.212 198.762,-179.138 201.643,-185.518"/> 
</g> 
<!-- c1 --> 
<g id="node43" class="node"><title>c1</title> 
<ellipse fill="#e98576" stroke="#e98576" cx="75" cy="-162" rx="75.2018" ry="18"/> 
<a xlink:href="http://pir.georgetown.edu/cgi-bin/pt_graphvizView.pl?togoid=0006629" ><text id="GO:0006629" onmousemove="changeToText('GO:0006629')" onmouseout="changeBackText('GO:0006629')"  text-anchor="middle" x="75" y="-162.8" font-family="Times,serif" font-size="14.00">GO:0006629</text></a>
<a xlink:href="http://pir.georgetown.edu/cgi-bin/pt_graphvizView.pl?tofile=696450" ><text id="r696450" onmousemove="changeToText2('r696450', 1)" onmouseout="changeBackText2('r696450', 1)"  text-anchor="middle" x="75" y="-149.8" font-family="Times,serif" font-size="14.00">(1)</text>
 
</a> 
</g> 
<!-- k0&#45;&gt;c1 --> 
<g id="edge42" class="edge"><title>k0&#45;&gt;c1</title> 
<path fill="none" stroke="black" d="M84.7865,-215.697C83.3539,-207.983 81.6323,-198.712 80.0352,-190.112"/> 
<polygon fill="black" stroke="black" points="83.4437,-189.297 78.1765,-180.104 76.5614,-190.575 83.4437,-189.297"/> 
</g> 
<!-- p0 --> 
<g id="node6" class="node"><title>p0</title> 
<a xlink:href="http://pir.georgetown.edu/cgi-bin/pt_graphvizView.pl?togoid=0016043" > 
<ellipse fill="#dddddd" stroke="#dddddd" cx="876" cy="-234" rx="61.1934" ry="18"/> 
<a xlink:href="http://pir.georgetown.edu/cgi-bin/pt_graphvizView.pl?togoid=0016043" ><text id="GO:0016043" onmousemove="changeToText('GO:0016043')" onmouseout="changeBackText('GO:0016043')"  text-anchor="middle" x="876" y="-229.8" font-family="Times,serif" font-size="14.00">GO:0016043</text></a>
 
</a> 
</g> 
<!-- b1 --> 
<g id="node8" class="node"><title>b1</title> 
<ellipse fill="#e98576" stroke="#e98576" cx="797" cy="-162" rx="75.2018" ry="18"/> 
<a xlink:href="http://pir.georgetown.edu/cgi-bin/pt_graphvizView.pl?togoid=0006996" ><text id="GO:0006996" onmousemove="changeToText('GO:0006996')" onmouseout="changeBackText('GO:0006996')"  text-anchor="middle" x="797" y="-162.8" font-family="Times,serif" font-size="14.00">GO:0006996</text></a>
<a xlink:href="http://pir.georgetown.edu/cgi-bin/pt_graphvizView.pl?tofile=696448" ><text id="r696448" onmousemove="changeToText2('r696448', 1)" onmouseout="changeBackText2('r696448', 1)"  text-anchor="middle" x="797" y="-149.8" font-family="Times,serif" font-size="14.00">(1)</text>
 
</a> 
</g> 
<!-- p0&#45;&gt;b1 --> 
<g id="edge6" class="edge"><title>p0&#45;&gt;b1</title> 
<path fill="none" stroke="black" d="M857.677,-216.765C847.456,-207.708 834.548,-196.27 823.268,-186.276"/> 
<polygon fill="black" stroke="black" points="825.578,-183.646 815.772,-179.633 820.935,-188.885 825.578,-183.646"/> 
</g> 
<!-- o0 --> 
<g id="node15" class="node"><title>o0</title> 
<ellipse fill="#e98576" stroke="#e98576" cx="629" cy="-162" rx="75.2018" ry="18"/> 
<a xlink:href="http://pir.georgetown.edu/cgi-bin/pt_graphvizView.pl?togoid=0043062" ><text id="GO:0043062" onmousemove="changeToText('GO:0043062')" onmouseout="changeBackText('GO:0043062')"  text-anchor="middle" x="629" y="-162.8" font-family="Times,serif" font-size="14.00">GO:0043062</text></a>
<a xlink:href="http://pir.georgetown.edu/cgi-bin/pt_graphvizView.pl?tofile=696428" ><text id="r696428" onmousemove="changeToText2('r696428', 2)" onmouseout="changeBackText2('r696428', 2)"  text-anchor="middle" x="629" y="-149.8" font-family="Times,serif" font-size="14.00">(2)</text>
 
</a> 
</g> 
<!-- p0&#45;&gt;o0 --> 
<g id="edge12" class="edge"><title>p0&#45;&gt;o0</title> 
<path fill="none" stroke="black" d="M833.539,-220.967C792.547,-209.349 730.228,-191.688 685.152,-178.914"/> 
<polygon fill="black" stroke="black" points="686.099,-175.544 675.523,-176.185 684.19,-182.279 686.099,-175.544"/> 
</g> 
<!-- e1 --> 
<g id="node35" class="node"><title>e1</title> 
<ellipse fill="#e98576" stroke="#e98576" cx="965" cy="-162" rx="75.2018" ry="18"/> 
<a xlink:href="http://pir.georgetown.edu/cgi-bin/pt_graphvizView.pl?togoid=0051641" ><text id="GO:0051641" onmousemove="changeToText('GO:0051641')" onmouseout="changeBackText('GO:0051641')"  text-anchor="middle" x="965" y="-162.8" font-family="Times,serif" font-size="14.00">GO:0051641</text></a>
<a xlink:href="http://pir.georgetown.edu/cgi-bin/pt_graphvizView.pl?tofile=696454" ><text id="r696454" onmousemove="changeToText2('r696454', 1)" onmouseout="changeBackText2('r696454', 1)"  text-anchor="middle" x="965" y="-149.8" font-family="Times,serif" font-size="14.00">(1)</text>
 
</a> 
</g> 
<!-- p0&#45;&gt;e1 --> 
<g id="edge32" class="edge"><title>p0&#45;&gt;e1</title> 
<path fill="none" stroke="black" d="M896.642,-216.765C908.352,-207.554 923.192,-195.882 936.051,-185.769"/> 
<polygon fill="black" stroke="black" points="938.465,-188.323 944.162,-179.39 934.138,-182.821 938.465,-188.323"/> 
</g> 
<!-- d1 --> 
<g id="node17" class="node"><title>d1</title> 
<ellipse fill="#e98576" stroke="#e98576" cx="797" cy="-90" rx="75.2018" ry="18"/> 
<a xlink:href="http://pir.georgetown.edu/cgi-bin/pt_graphvizView.pl?togoid=0007032" ><text id="GO:0007032" onmousemove="changeToText('GO:0007032')" onmouseout="changeBackText('GO:0007032')"  text-anchor="middle" x="797" y="-90.8" font-family="Times,serif" font-size="14.00">GO:0007032</text></a>
<a xlink:href="http://pir.georgetown.edu/cgi-bin/pt_graphvizView.pl?tofile=696452" ><text id="r696452" onmousemove="changeToText2('r696452', 1)" onmouseout="changeBackText2('r696452', 1)"  text-anchor="middle" x="797" y="-77.8" font-family="Times,serif" font-size="14.00">(1)</text>
 
</a> 
</g> 
<!-- b1&#45;&gt;d1 --> 
<g id="edge14" class="edge"><title>b1&#45;&gt;d1</title> 
<path fill="none" stroke="black" d="M797,-143.697C797,-135.983 797,-126.712 797,-118.112"/> 
<polygon fill="black" stroke="black" points="800.5,-118.104 797,-108.104 793.5,-118.104 800.5,-118.104"/> 
</g> 
<!-- c0 --> 
<g id="node9" class="node"><title>c0</title> 
<a xlink:href="http://pir.georgetown.edu/cgi-bin/pt_graphvizView.pl?togoid=0008150" > 
<ellipse fill="#dddddd" stroke="#dddddd" cx="1220" cy="-378" rx="61.1934" ry="18"/> 
<a xlink:href="http://pir.georgetown.edu/cgi-bin/pt_graphvizView.pl?togoid=0008150" ><text id="GO:0008150" onmousemove="changeToText('GO:0008150')" onmouseout="changeBackText('GO:0008150')"  text-anchor="middle" x="1220" y="-373.8" font-family="Times,serif" font-size="14.00">GO:0008150</text></a>
 
</a> 
</g> 
<!-- t0 --> 
<g id="node11" class="node"><title>t0</title> 
<a xlink:href="http://pir.georgetown.edu/cgi-bin/pt_graphvizView.pl?togoid=0022610" > 
<ellipse fill="#dddddd" stroke="#dddddd" cx="566" cy="-306" rx="61.1934" ry="18"/> 
<a xlink:href="http://pir.georgetown.edu/cgi-bin/pt_graphvizView.pl?togoid=0022610" ><text id="GO:0022610" onmousemove="changeToText('GO:0022610')" onmouseout="changeBackText('GO:0022610')"  text-anchor="middle" x="566" y="-301.8" font-family="Times,serif" font-size="14.00">GO:0022610</text></a>
 
</a> 
</g> 
<!-- c0&#45;&gt;t0 --> 
<g id="edge8" class="edge"><title>c0&#45;&gt;t0</title> 
<path fill="none" stroke="black" d="M1160.37,-373.504C1056.5,-366.957 835.804,-351.012 651,-324 642.033,-322.689 632.581,-321.055 623.369,-319.321"/> 
<polygon fill="black" stroke="black" points="623.984,-315.875 613.501,-317.411 622.654,-322.747 623.984,-315.875"/> 
</g> 
<!-- z0 --> 
<g id="node13" class="node"><title>z0</title> 
<a xlink:href="http://pir.georgetown.edu/cgi-bin/pt_graphvizView.pl?togoid=0051179" > 
<ellipse fill="#dddddd" stroke="#dddddd" cx="965" cy="-306" rx="61.1934" ry="18"/> 
<a xlink:href="http://pir.georgetown.edu/cgi-bin/pt_graphvizView.pl?togoid=0051179" ><text id="GO:0051179" onmousemove="changeToText('GO:0051179')" onmouseout="changeBackText('GO:0051179')"  text-anchor="middle" x="965" y="-301.8" font-family="Times,serif" font-size="14.00">GO:0051179</text></a>
 
</a> 
</g> 
<!-- c0&#45;&gt;z0 --> 
<g id="edge10" class="edge"><title>c0&#45;&gt;z0</title> 
<path fill="none" stroke="black" d="M1176.74,-365.125C1132.83,-353.072 1064.79,-334.394 1017.75,-321.48"/> 
<polygon fill="black" stroke="black" points="1018.61,-318.088 1008.04,-318.816 1016.76,-324.838 1018.61,-318.088"/> 
</g> 
<!-- j0 --> 
<g id="node19" class="node"><title>j0</title> 
<ellipse fill="#e98576" stroke="#e98576" cx="320" cy="-306" rx="75.2018" ry="18"/> 
<a xlink:href="http://pir.georgetown.edu/cgi-bin/pt_graphvizView.pl?togoid=0008152" ><text id="GO:0008152" onmousemove="changeToText('GO:0008152')" onmouseout="changeBackText('GO:0008152')"  text-anchor="middle" x="320" y="-306.8" font-family="Times,serif" font-size="14.00">GO:0008152</text></a>
<a xlink:href="http://pir.georgetown.edu/cgi-bin/pt_graphvizView.pl?tofile=696456" ><text id="r696456" onmousemove="changeToText2('r696456', 1)" onmouseout="changeBackText2('r696456', 1)"  text-anchor="middle" x="320" y="-293.8" font-family="Times,serif" font-size="14.00">(1)</text>
 
</a> 
</g> 
<!-- c0&#45;&gt;j0 --> 
<g id="edge16" class="edge"><title>c0&#45;&gt;j0</title> 
<path fill="none" stroke="black" d="M1160.84,-373.136C1037.27,-364.963 742.763,-344.947 496,-324 463.847,-321.271 428.425,-317.916 397.839,-314.911"/> 
<polygon fill="black" stroke="black" points="397.959,-311.406 387.664,-313.906 397.271,-318.372 397.959,-311.406"/> 
</g> 
<!-- y0 --> 
<g id="node21" class="node"><title>y0</title> 
<a xlink:href="http://pir.georgetown.edu/cgi-bin/pt_graphvizView.pl?togoid=0051234" > 
<ellipse fill="#dddddd" stroke="#dddddd" cx="1054" cy="-234" rx="61.1934" ry="18"/> 
<a xlink:href="http://pir.georgetown.edu/cgi-bin/pt_graphvizView.pl?togoid=0051234" ><text id="GO:0051234" onmousemove="changeToText('GO:0051234')" onmouseout="changeBackText('GO:0051234')"  text-anchor="middle" x="1054" y="-229.8" font-family="Times,serif" font-size="14.00">GO:0051234</text></a>
 
</a> 
</g> 
<!-- c0&#45;&gt;y0 --> 
<g id="edge18" class="edge"><title>c0&#45;&gt;y0</title> 
<path fill="none" stroke="black" d="M1164.35,-370.278C1133.16,-363.619 1096.01,-350.367 1073,-324 1058.27,-307.126 1054.03,-281.652 1053.18,-262.275"/> 
<polygon fill="black" stroke="black" points="1056.67,-262.169 1053,-252.23 1049.68,-262.289 1056.67,-262.169"/> 
</g> 
<!-- b0 --> 
<g id="node24" class="node"><title>b0</title> 
<a xlink:href="http://pir.georgetown.edu/cgi-bin/pt_graphvizView.pl?togoid=0065007" > 
<ellipse fill="#dddddd" stroke="#dddddd" cx="1143" cy="-306" rx="61.1934" ry="18"/> 
<a xlink:href="http://pir.georgetown.edu/cgi-bin/pt_graphvizView.pl?togoid=0065007" ><text id="GO:0065007" onmousemove="changeToText('GO:0065007')" onmouseout="changeBackText('GO:0065007')"  text-anchor="middle" x="1143" y="-301.8" font-family="Times,serif" font-size="14.00">GO:0065007</text></a>
 
</a> 
</g> 
<!-- c0&#45;&gt;b0 --> 
<g id="edge22" class="edge"><title>c0&#45;&gt;b0</title> 
<path fill="none" stroke="black" d="M1202.14,-360.765C1192.2,-351.73 1179.66,-340.326 1168.68,-330.349"/> 
<polygon fill="black" stroke="black" points="1170.78,-327.527 1161.03,-323.39 1166.07,-332.706 1170.78,-327.527"/> 
</g> 
<!-- e0 --> 
<g id="node26" class="node"><title>e0</title> 
<ellipse fill="#e98576" stroke="#e98576" cx="1298" cy="-306" rx="75.2018" ry="18"/> 
<a xlink:href="http://pir.georgetown.edu/cgi-bin/pt_graphvizView.pl?togoid=0050896" ><text id="GO:0050896" onmousemove="changeToText('GO:0050896')" onmouseout="changeBackText('GO:0050896')"  text-anchor="middle" x="1298" y="-306.8" font-family="Times,serif" font-size="14.00">GO:0050896</text></a>
<a xlink:href="http://pir.georgetown.edu/cgi-bin/pt_graphvizView.pl?tofile=696424" ><text id="r696424" onmousemove="changeToText2('r696424', 3)" onmouseout="changeBackText2('r696424', 3)"  text-anchor="middle" x="1298" y="-293.8" font-family="Times,serif" font-size="14.00">(3)</text>
 
</a> 
</g> 
<!-- c0&#45;&gt;e0 --> 
<g id="edge24" class="edge"><title>c0&#45;&gt;e0</title> 
<path fill="none" stroke="black" d="M1238.09,-360.765C1248.09,-351.795 1260.68,-340.49 1271.74,-330.564"/> 
<polygon fill="black" stroke="black" points="1274.36,-332.917 1279.47,-323.633 1269.69,-327.708 1274.36,-332.917"/> 
</g> 
<!-- n0 --> 
<g id="node29" class="node"><title>n0</title> 
<a xlink:href="http://pir.georgetown.edu/cgi-bin/pt_graphvizView.pl?togoid=0009987" > 
<ellipse fill="#dddddd" stroke="#dddddd" cx="721" cy="-306" rx="61.1934" ry="18"/> 
<a xlink:href="http://pir.georgetown.edu/cgi-bin/pt_graphvizView.pl?togoid=0009987" ><text id="GO:0009987" onmousemove="changeToText('GO:0009987')" onmouseout="changeBackText('GO:0009987')"  text-anchor="middle" x="721" y="-301.8" font-family="Times,serif" font-size="14.00">GO:0009987</text></a>
 
</a> 
</g> 
<!-- c0&#45;&gt;n0 --> 
<g id="edge48" class="edge"><title>c0&#45;&gt;n0</title> 
<path fill="none" stroke="black" d="M1166.12,-369.442C1073.51,-356.45 884.526,-329.939 785.226,-316.01"/> 
<polygon fill="black" stroke="black" points="785.418,-312.502 775.029,-314.579 784.445,-319.435 785.418,-312.502"/> 
</g> 
<!-- u0 --> 
<g id="node38" class="node"><title>u0</title> 
<ellipse fill="#e98576" stroke="#e98576" cx="1466" cy="-306" rx="75.2018" ry="18"/> 
<a xlink:href="http://pir.georgetown.edu/cgi-bin/pt_graphvizView.pl?togoid=0000003" ><text id="GO:0000003" onmousemove="changeToText('GO:0000003')" onmouseout="changeBackText('GO:0000003')"  text-anchor="middle" x="1466" y="-306.8" font-family="Times,serif" font-size="14.00">GO:0000003</text></a>
<a xlink:href="http://pir.georgetown.edu/cgi-bin/pt_graphvizView.pl?tofile=696436" ><text id="r696436" onmousemove="changeToText2('r696436', 1)" onmouseout="changeBackText2('r696436', 1)"  text-anchor="middle" x="1466" y="-293.8" font-family="Times,serif" font-size="14.00">(1)</text>
 
</a> 
</g> 
<!-- c0&#45;&gt;u0 --> 
<g id="edge36" class="edge"><title>c0&#45;&gt;u0</title> 
<path fill="none" stroke="black" d="M1262.29,-364.967C1303.03,-353.374 1364.92,-335.762 1409.79,-322.994"/> 
<polygon fill="black" stroke="black" points="1411,-326.288 1419.66,-320.185 1409.09,-319.555 1411,-326.288"/> 
</g> 
<!-- q0 --> 
<g id="node45" class="node"><title>q0</title> 
<ellipse fill="#e98576" stroke="#e98576" cx="1634" cy="-306" rx="75.2018" ry="18"/> 
<a xlink:href="http://pir.georgetown.edu/cgi-bin/pt_graphvizView.pl?togoid=0032501" ><text id="GO:0032501" onmousemove="changeToText('GO:0032501')" onmouseout="changeBackText('GO:0032501')"  text-anchor="middle" x="1634" y="-306.8" font-family="Times,serif" font-size="14.00">GO:0032501</text></a>
<a xlink:href="http://pir.georgetown.edu/cgi-bin/pt_graphvizView.pl?tofile=696430" ><text id="r696430" onmousemove="changeToText2('r696430', 2)" onmouseout="changeBackText2('r696430', 2)"  text-anchor="middle" x="1634" y="-293.8" font-family="Times,serif" font-size="14.00">(2)</text>
 
</a> 
</g> 
<!-- c0&#45;&gt;q0 --> 
<g id="edge44" class="edge"><title>c0&#45;&gt;q0</title> 
<path fill="none" stroke="black" d="M1273.55,-369.08C1338.93,-359.254 1452.8,-341.634 1550,-324 1556.24,-322.867 1562.74,-321.64 1569.23,-320.381"/> 
<polygon fill="black" stroke="black" points="1570.25,-323.748 1579.39,-318.386 1568.9,-316.879 1570.25,-323.748"/> 
</g> 
<!-- a1 --> 
<g id="node52" class="node"><title>a1</title> 
<ellipse fill="#e98576" stroke="#e98576" cx="1802" cy="-306" rx="75.2018" ry="18"/> 
<a xlink:href="http://pir.georgetown.edu/cgi-bin/pt_graphvizView.pl?togoid=0002376" ><text id="GO:0002376" onmousemove="changeToText('GO:0002376')" onmouseout="changeBackText('GO:0002376')"  text-anchor="middle" x="1802" y="-306.8" font-family="Times,serif" font-size="14.00">GO:0002376</text></a>
<a xlink:href="http://pir.georgetown.edu/cgi-bin/pt_graphvizView.pl?tofile=696446" ><text id="r696446" onmousemove="changeToText2('r696446', 1)" onmouseout="changeBackText2('r696446', 1)"  text-anchor="middle" x="1802" y="-293.8" font-family="Times,serif" font-size="14.00">(1)</text>
 
</a> 
</g> 
<!-- c0&#45;&gt;a1 --> 
<g id="edge52" class="edge"><title>c0&#45;&gt;a1</title> 
<path fill="none" stroke="black" d="M1278.5,-372.562C1371.79,-365.082 1559.88,-348.359 1718,-324 1724.62,-322.98 1731.51,-321.793 1738.37,-320.53"/> 
<polygon fill="black" stroke="black" points="1739.19,-323.937 1748.36,-318.634 1737.88,-317.059 1739.19,-323.937"/> 
</g> 
<!-- d0 --> 
<g id="node63" class="node"><title>d0</title> 
<ellipse fill="#e98576" stroke="#e98576" cx="1970" cy="-306" rx="75.2018" ry="18"/> 
<a xlink:href="http://pir.georgetown.edu/cgi-bin/pt_graphvizView.pl?togoid=0032502" ><text id="GO:0032502" onmousemove="changeToText('GO:0032502')" onmouseout="changeBackText('GO:0032502')"  text-anchor="middle" x="1970" y="-306.8" font-family="Times,serif" font-size="14.00">GO:0032502</text></a>
<a xlink:href="http://pir.georgetown.edu/cgi-bin/pt_graphvizView.pl?tofile=696422" ><text id="r696422" onmousemove="changeToText2('r696422', 3)" onmouseout="changeBackText2('r696422', 3)"  text-anchor="middle" x="1970" y="-293.8" font-family="Times,serif" font-size="14.00">(3)</text>
 
</a> 
</g> 
<!-- c0&#45;&gt;d0 --> 
<g id="edge68" class="edge"><title>c0&#45;&gt;d0</title> 
<path fill="none" stroke="black" d="M1280.42,-374.628C1397.66,-369.487 1664.03,-355.179 1886,-324 1892.73,-323.054 1899.74,-321.905 1906.7,-320.654"/> 
<polygon fill="black" stroke="black" points="1907.65,-324.037 1916.84,-318.762 1906.37,-317.156 1907.65,-324.037"/> 
</g> 
<!-- v0 --> 
<g id="node67" class="node"><title>v0</title> 
<ellipse fill="#e98576" stroke="#e98576" cx="2138" cy="-306" rx="75.2018" ry="18"/> 
<a xlink:href="http://pir.georgetown.edu/cgi-bin/pt_graphvizView.pl?togoid=0048511" ><text id="GO:0048511" onmousemove="changeToText('GO:0048511')" onmouseout="changeBackText('GO:0048511')"  text-anchor="middle" x="2138" y="-306.8" font-family="Times,serif" font-size="14.00">GO:0048511</text></a>
<a xlink:href="http://pir.georgetown.edu/cgi-bin/pt_graphvizView.pl?tofile=696438" ><text id="r696438" onmousemove="changeToText2('r696438', 1)" onmouseout="changeBackText2('r696438', 1)"  text-anchor="middle" x="2138" y="-293.8" font-family="Times,serif" font-size="14.00">(1)</text>
 
</a> 
</g> 
<!-- c0&#45;&gt;v0 --> 
<g id="edge72" class="edge"><title>c0&#45;&gt;v0</title> 
<path fill="none" stroke="black" d="M1280.97,-375.966C1419.12,-373.004 1766.34,-362.068 2054,-324 2060.74,-323.108 2067.75,-321.993 2074.72,-320.763"/> 
<polygon fill="black" stroke="black" points="2075.66,-324.148 2084.86,-318.891 2074.39,-317.264 2075.66,-324.148"/> 
</g> 
<!-- s0 --> 
<g id="node55" class="node"><title>s0</title> 
<ellipse fill="#e98576" stroke="#e98576" cx="553" cy="-234" rx="75.2018" ry="18"/> 
<a xlink:href="http://pir.georgetown.edu/cgi-bin/pt_graphvizView.pl?togoid=0007155" ><text id="GO:0007155" onmousemove="changeToText('GO:0007155')" onmouseout="changeBackText('GO:0007155')"  text-anchor="middle" x="553" y="-234.8" font-family="Times,serif" font-size="14.00">GO:0007155</text></a>
<a xlink:href="http://pir.georgetown.edu/cgi-bin/pt_graphvizView.pl?tofile=696434" ><text id="r696434" onmousemove="changeToText2('r696434', 2)" onmouseout="changeBackText2('r696434', 2)"  text-anchor="middle" x="553" y="-221.8" font-family="Times,serif" font-size="14.00">(2)</text>
 
</a> 
</g> 
<!-- t0&#45;&gt;s0 --> 
<g id="edge58" class="edge"><title>t0&#45;&gt;s0</title> 
<path fill="none" stroke="black" d="M562.787,-287.697C561.354,-279.983 559.632,-270.712 558.035,-262.112"/> 
<polygon fill="black" stroke="black" points="561.444,-261.297 556.177,-252.104 554.561,-262.575 561.444,-261.297"/> 
</g> 
<!-- z0&#45;&gt;y0 --> 
<g id="edge20" class="edge"><title>z0&#45;&gt;y0</title> 
<path fill="none" stroke="black" d="M985.642,-288.765C997.437,-279.488 1012.41,-267.714 1025.33,-257.551"/> 
<polygon fill="black" stroke="black" points="1027.77,-260.081 1033.47,-251.147 1023.45,-254.578 1027.77,-260.081"/> 
</g> 
<!-- z0&#45;&gt;e1 --> 
<g id="edge34" class="edge"><title>z0&#45;&gt;e1</title> 
<path fill="none" stroke="black" d="M965,-287.871C965,-263.67 965,-219.211 965,-190.393"/> 
<polygon fill="black" stroke="black" points="968.5,-190.189 965,-180.189 961.5,-190.189 968.5,-190.189"/> 
</g> 
<!-- j0&#45;&gt;i0 --> 
<g id="edge62" class="edge"><title>j0&#45;&gt;i0</title> 
<path fill="none" stroke="black" d="M301.752,-288.411C291.875,-279.432 279.512,-268.193 268.678,-258.344"/> 
<polygon fill="black" stroke="black" points="270.871,-255.607 261.117,-251.47 266.162,-260.787 270.871,-255.607"/> 
</g> 
<!-- j0&#45;&gt;k0 --> 
<g id="edge74" class="edge"><title>j0&#45;&gt;k0</title> 
<path fill="none" stroke="black" d="M275.268,-291.503C236.221,-279.722 179.583,-262.633 138.83,-250.337"/> 
<polygon fill="black" stroke="black" points="139.678,-246.937 129.093,-247.399 137.656,-253.638 139.678,-246.937"/> 
</g> 
<!-- m0 --> 
<g id="node28" class="node"><title>m0</title> 
<a xlink:href="http://pir.georgetown.edu/cgi-bin/pt_graphvizView.pl?togoid=0044237" > 
<ellipse fill="#dddddd" stroke="#dddddd" cx="398" cy="-234" rx="61.1934" ry="18"/> 
<a xlink:href="http://pir.georgetown.edu/cgi-bin/pt_graphvizView.pl?togoid=0044237" ><text id="GO:0044237" onmousemove="changeToText('GO:0044237')" onmouseout="changeBackText('GO:0044237')"  text-anchor="middle" x="398" y="-229.8" font-family="Times,serif" font-size="14.00">GO:0044237</text></a>
 
</a> 
</g> 
<!-- j0&#45;&gt;m0 --> 
<g id="edge26" class="edge"><title>j0&#45;&gt;m0</title> 
<path fill="none" stroke="black" d="M338.485,-288.411C348.563,-279.367 361.196,-268.03 372.227,-258.13"/> 
<polygon fill="black" stroke="black" points="374.812,-260.512 379.917,-251.228 370.137,-255.303 374.812,-260.512"/> 
</g> 
<!-- x0 --> 
<g id="node58" class="node"><title>x0</title> 
<a xlink:href="http://pir.georgetown.edu/cgi-bin/pt_graphvizView.pl?togoid=0006810" > 
<ellipse fill="#dddddd" stroke="#dddddd" cx="1120" cy="-162" rx="61.1934" ry="18"/> 
<a xlink:href="http://pir.georgetown.edu/cgi-bin/pt_graphvizView.pl?togoid=0006810" ><text id="GO:0006810" onmousemove="changeToText('GO:0006810')" onmouseout="changeBackText('GO:0006810')"  text-anchor="middle" x="1120" y="-157.8" font-family="Times,serif" font-size="14.00">GO:0006810</text></a>
 
</a> 
</g> 
<!-- y0&#45;&gt;x0 --> 
<g id="edge60" class="edge"><title>y0&#45;&gt;x0</title> 
<path fill="none" stroke="black" d="M1069.64,-216.411C1077.94,-207.606 1088.29,-196.628 1097.45,-186.919"/> 
<polygon fill="black" stroke="black" points="1100.16,-189.147 1104.47,-179.47 1095.06,-184.345 1100.16,-189.147"/> 
</g> 
<!-- a0 --> 
<g id="node47" class="node"><title>a0</title> 
<ellipse fill="#e98576" stroke="#e98576" cx="1209" cy="-234" rx="75.2018" ry="18"/> 
<a xlink:href="http://pir.georgetown.edu/cgi-bin/pt_graphvizView.pl?togoid=0050789" ><text id="GO:0050789" onmousemove="changeToText('GO:0050789')" onmouseout="changeBackText('GO:0050789')"  text-anchor="middle" x="1209" y="-234.8" font-family="Times,serif" font-size="14.00">GO:0050789</text></a>
<a xlink:href="http://pir.georgetown.edu/cgi-bin/pt_graphvizView.pl?tofile=696420" ><text id="r696420" onmousemove="changeToText2('r696420', 5)" onmouseout="changeBackText2('r696420', 5)"  text-anchor="middle" x="1209" y="-221.8" font-family="Times,serif" font-size="14.00">(5)</text>
 
</a> 
</g> 
<!-- b0&#45;&gt;a0 --> 
<g id="edge46" class="edge"><title>b0&#45;&gt;a0</title> 
<path fill="none" stroke="black" d="M1158.64,-288.411C1166.82,-279.734 1176.99,-268.946 1186.05,-259.342"/> 
<polygon fill="black" stroke="black" points="1188.7,-261.633 1193.01,-251.956 1183.61,-256.831 1188.7,-261.633"/> 
</g> 
<!-- m0&#45;&gt;l0 --> 
<g id="edge40" class="edge"><title>m0&#45;&gt;l0</title> 
<path fill="none" stroke="black" d="M398,-215.697C398,-207.983 398,-198.712 398,-190.112"/> 
<polygon fill="black" stroke="black" points="401.5,-190.104 398,-180.104 394.5,-190.104 401.5,-190.104"/> 
</g> 
<!-- n0&#45;&gt;p0 --> 
<g id="edge54" class="edge"><title>n0&#45;&gt;p0</title> 
<path fill="none" stroke="black" d="M753.116,-290.496C776.704,-279.843 808.953,-265.279 834.496,-253.744"/> 
<polygon fill="black" stroke="black" points="836.252,-256.791 843.925,-249.485 833.371,-250.412 836.252,-256.791"/> 
</g> 
<!-- n0&#45;&gt;m0 --> 
<g id="edge28" class="edge"><title>n0&#45;&gt;m0</title> 
<path fill="none" stroke="black" d="M672.132,-295.14C621.299,-284.786 539.444,-267.838 469,-252 464.027,-250.882 458.863,-249.695 453.693,-248.49"/> 
<polygon fill="black" stroke="black" points="454.324,-245.043 443.788,-246.16 452.722,-251.857 454.324,-245.043"/> 
</g> 
<!-- r0 --> 
<g id="node50" class="node"><title>r0</title> 
<ellipse fill="#e98576" stroke="#e98576" cx="721" cy="-234" rx="75.2018" ry="18"/> 
<a xlink:href="http://pir.georgetown.edu/cgi-bin/pt_graphvizView.pl?togoid=0007154" ><text id="GO:0007154" onmousemove="changeToText('GO:0007154')" onmouseout="changeBackText('GO:0007154')"  text-anchor="middle" x="721" y="-234.8" font-family="Times,serif" font-size="14.00">GO:0007154</text></a>
<a xlink:href="http://pir.georgetown.edu/cgi-bin/pt_graphvizView.pl?tofile=696432" ><text id="r696432" onmousemove="changeToText2('r696432', 2)" onmouseout="changeBackText2('r696432', 2)"  text-anchor="middle" x="721" y="-221.8" font-family="Times,serif" font-size="14.00">(2)</text>
 
</a> 
</g> 
<!-- n0&#45;&gt;r0 --> 
<g id="edge50" class="edge"><title>n0&#45;&gt;r0</title> 
<path fill="none" stroke="black" d="M721,-287.697C721,-279.983 721,-270.712 721,-262.112"/> 
<polygon fill="black" stroke="black" points="724.5,-262.104 721,-252.104 717.5,-262.104 724.5,-262.104"/> 
</g> 
<!-- n0&#45;&gt;s0 --> 
<g id="edge56" class="edge"><title>n0&#45;&gt;s0</title> 
<path fill="none" stroke="black" d="M687.003,-290.834C661.444,-280.185 626.175,-265.49 598.235,-253.848"/> 
<polygon fill="black" stroke="black" points="599.263,-250.485 588.686,-249.869 596.571,-256.946 599.263,-250.485"/> 
</g> 
<!-- f0 --> 
<g id="node33" class="node"><title>f0</title> 
<ellipse fill="#e98576" stroke="#e98576" cx="321" cy="-18" rx="75.2018" ry="18"/> 
<a xlink:href="http://pir.georgetown.edu/cgi-bin/pt_graphvizView.pl?togoid=0006508" ><text id="GO:0006508" onmousemove="changeToText('GO:0006508')" onmouseout="changeBackText('GO:0006508')"  text-anchor="middle" x="321" y="-18.8" font-family="Times,serif" font-size="14.00">GO:0006508</text></a>
<a xlink:href="http://pir.georgetown.edu/cgi-bin/pt_graphvizView.pl?tofile=696426" ><text id="r696426" onmousemove="changeToText2('r696426', 2)" onmouseout="changeBackText2('r696426', 2)"  text-anchor="middle" x="321" y="-5.8" font-family="Times,serif" font-size="14.00">(2)</text>
 
</a> 
</g> 
<!-- g0&#45;&gt;f0 --> 
<g id="edge30" class="edge"><title>g0&#45;&gt;f0</title> 
<path fill="none" stroke="black" d="M321,-71.6966C321,-63.9827 321,-54.7125 321,-46.1124"/> 
<polygon fill="black" stroke="black" points="324.5,-46.1043 321,-36.1043 317.5,-46.1044 324.5,-46.1043"/> 
</g> 
<!-- l0&#45;&gt;g0 --> 
<g id="edge66" class="edge"><title>l0&#45;&gt;g0</title> 
<path fill="none" stroke="black" d="M380.141,-144.765C370.203,-135.73 357.659,-124.326 346.684,-114.349"/> 
<polygon fill="black" stroke="black" points="348.783,-111.527 339.029,-107.39 344.074,-116.706 348.783,-111.527"/> 
</g> 
<!-- w0 --> 
<g id="node65" class="node"><title>w0</title> 
<ellipse fill="#e98576" stroke="#e98576" cx="1120" cy="-90" rx="75.2018" ry="18"/> 
<a xlink:href="http://pir.georgetown.edu/cgi-bin/pt_graphvizView.pl?togoid=0016192" ><text id="GO:0016192" onmousemove="changeToText('GO:0016192')" onmouseout="changeBackText('GO:0016192')"  text-anchor="middle" x="1120" y="-90.8" font-family="Times,serif" font-size="14.00">GO:0016192</text></a>
<a xlink:href="http://pir.georgetown.edu/cgi-bin/pt_graphvizView.pl?tofile=696440" ><text id="r696440" onmousemove="changeToText2('r696440', 1)" onmouseout="changeBackText2('r696440', 1)"  text-anchor="middle" x="1120" y="-77.8" font-family="Times,serif" font-size="14.00">(1)</text>
 
</a> 
</g> 
<!-- x0&#45;&gt;w0 --> 
<g id="edge70" class="edge"><title>x0&#45;&gt;w0</title> 
<path fill="none" stroke="black" d="M1120,-143.697C1120,-135.983 1120,-126.712 1120,-118.112"/> 
<polygon fill="black" stroke="black" points="1123.5,-118.104 1120,-108.104 1116.5,-118.104 1123.5,-118.104"/> 
</g> 
</g> 
<text text-anchor="left" x="4" y="-20" style="font-family:Arial Narrow;font-size:20.00;font-weight:bold;">GO Hierarchical View:</text> 

<text text-anchor="left" x="4" y="0" style="font-family:Arial Narrow;font-size:20.00;font-style:italic;">biological process</text> 

<script type="text/ecmascript"> 
<![CDATA[ 
var targetText; 
function changeToText(z) { 
		targetText = svgDocument.getElementById(z).firstChild; 
		targetText.nodeValue="link to "+z; 
} 
function changeBackText(z) { 
		targetText = svgDocument.getElementById(z).firstChild; 
		targetText.nodeValue=z; 
} 
function changeToText2(z,n) { 
		targetText = svgDocument.getElementById(z).firstChild; 
		if (n<=1) { 
			targetText.nodeValue="link to " + n + " protein record"; 
		} else { 
			targetText.nodeValue="link to " + n + " protein records"; 
		} 
} 
function changeBackText2(z,n) { 
		targetText = svgDocument.getElementById(z).firstChild; 
		targetText.nodeValue="(" + n + ")"; 
} 
// ]]> 
</script> 
</svg> 
