<?xml version="1.0" encoding="UTF-8" standalone="no"?>
<!DOCTYPE svg PUBLIC "-//W3C//DTD SVG 1.1//EN"
 "http://www.w3.org/Graphics/SVG/1.1/DTD/svg11.dtd">
<!-- Generated by graphviz version 2.28.0 (20110622.2320)
 -->
<!-- Title: G Pages: 1 -->
<svg width="1019pt" height="764pt"
 viewBox="0.00 0.00 1019.00 764.00" xmlns="http://www.w3.org/2000/svg" xmlns:xlink="http://www.w3.org/1999/xlink">
<g id="graph1" class="graph" transform="scale(1 1) rotate(0) translate(4 760)">
<title>G</title>
<polygon fill="white" stroke="white" points="-4,5 -4,-760 1016,-760 1016,5 -4,5"/>
<!-- p0 -->
<g id="node1" class="node"><title>p0</title>
<a xlink:href="0005856" xlink:title="GO:0005856 (1)">
<ellipse fill="#e98576" stroke="#e98576" cx="706" cy="-234" rx="75.2018" ry="18"/>
<text text-anchor="middle" x="706" y="-229.8" font-family="Times,serif" font-size="14.00">GO:0005856 (1)</text>
</a>
</g>
<!-- u0 -->
<g id="node3" class="node"><title>u0</title>
<a xlink:href="0015630" xlink:title="GO:0015630">
<ellipse fill="#dddddd" stroke="#dddddd" cx="713" cy="-162" rx="61.1934" ry="18"/>
<text text-anchor="middle" x="713" y="-157.8" font-family="Times,serif" font-size="14.00">GO:0015630</text>
</a>
</g>
<!-- p0&#45;&gt;u0 -->
<g id="edge2" class="edge"><title>p0&#45;&gt;u0</title>
<path fill="none" stroke="black" d="M707.73,-215.697C708.502,-207.983 709.429,-198.712 710.289,-190.112"/>
<polygon fill="black" stroke="black" points="713.777,-190.403 711.29,-180.104 706.812,-189.706 713.777,-190.403"/>
</g>
<!-- x0 -->
<g id="node8" class="node"><title>x0</title>
<a xlink:href="0044430" xlink:title="GO:0044430">
<ellipse fill="#dddddd" stroke="#dddddd" cx="572" cy="-162" rx="61.1934" ry="18"/>
<text text-anchor="middle" x="572" y="-157.8" font-family="Times,serif" font-size="14.00">GO:0044430</text>
</a>
</g>
<!-- p0&#45;&gt;x0 -->
<g id="edge6" class="edge"><title>p0&#45;&gt;x0</title>
<path fill="none" stroke="black" d="M676.261,-217.465C656.649,-207.22 630.791,-193.712 609.733,-182.711"/>
<polygon fill="black" stroke="black" points="611.22,-179.539 600.736,-178.011 607.979,-185.744 611.22,-179.539"/>
</g>
<!-- t0 -->
<g id="node14" class="node"><title>t0</title>
<a xlink:href="0005815" xlink:title="GO:0005815">
<ellipse fill="#dddddd" stroke="#dddddd" cx="583" cy="-90" rx="61.1934" ry="18"/>
<text text-anchor="middle" x="583" y="-85.8" font-family="Times,serif" font-size="14.00">GO:0005815</text>
</a>
</g>
<!-- u0&#45;&gt;t0 -->
<g id="edge12" class="edge"><title>u0&#45;&gt;t0</title>
<path fill="none" stroke="black" d="M684.792,-145.811C665.883,-135.629 640.779,-122.112 620.234,-111.049"/>
<polygon fill="black" stroke="black" points="621.617,-107.819 611.153,-106.159 618.298,-113.982 621.617,-107.819"/>
</g>
<!-- b0 -->
<g id="node4" class="node"><title>b0</title>
<a xlink:href="0042995" xlink:title="GO:0042995 (1)">
<ellipse fill="#e98576" stroke="#e98576" cx="208" cy="-522" rx="75.2018" ry="18"/>
<text text-anchor="middle" x="208" y="-517.8" font-family="Times,serif" font-size="14.00">GO:0042995 (1)</text>
</a>
</g>
<!-- a0 -->
<g id="node6" class="node"><title>a0</title>
<a xlink:href="0005929" xlink:title="GO:0005929 (1)">
<ellipse fill="#e98576" stroke="#e98576" cx="75" cy="-450" rx="75.2018" ry="18"/>
<text text-anchor="middle" x="75" y="-445.8" font-family="Times,serif" font-size="14.00">GO:0005929 (1)</text>
</a>
</g>
<!-- b0&#45;&gt;a0 -->
<g id="edge4" class="edge"><title>b0&#45;&gt;a0</title>
<path fill="none" stroke="black" d="M178.152,-505.291C159.157,-495.293 134.36,-482.242 113.84,-471.442"/>
<polygon fill="black" stroke="black" points="115.228,-468.217 104.748,-466.657 111.967,-474.412 115.228,-468.217"/>
</g>
<!-- o0 -->
<g id="node21" class="node"><title>o0</title>
<a xlink:href="0044463" xlink:title="GO:0044463">
<ellipse fill="#dddddd" stroke="#dddddd" cx="230" cy="-450" rx="61.1934" ry="18"/>
<text text-anchor="middle" x="230" y="-445.8" font-family="Times,serif" font-size="14.00">GO:0044463</text>
</a>
</g>
<!-- b0&#45;&gt;o0 -->
<g id="edge18" class="edge"><title>b0&#45;&gt;o0</title>
<path fill="none" stroke="black" d="M213.438,-503.697C215.889,-495.898 218.84,-486.509 221.568,-477.829"/>
<polygon fill="black" stroke="black" points="224.965,-478.694 224.624,-468.104 218.287,-476.595 224.965,-478.694"/>
</g>
<!-- s0 -->
<g id="node52" class="node"><title>s0</title>
<a xlink:href="0005813" xlink:title="GO:0005813 (1)">
<ellipse fill="#e98576" stroke="#e98576" cx="672" cy="-18" rx="75.2018" ry="18"/>
<text text-anchor="middle" x="672" y="-13.8" font-family="Times,serif" font-size="14.00">GO:0005813 (1)</text>
</a>
</g>
<!-- x0&#45;&gt;s0 -->
<g id="edge62" class="edge"><title>x0&#45;&gt;s0</title>
<path fill="none" stroke="black" d="M605.409,-146.754C622.159,-137.951 641.314,-125.05 653,-108 665.453,-89.8312 669.977,-65.0562 671.516,-46.2588"/>
<polygon fill="black" stroke="black" points="675.011,-46.4324 672.104,-36.2443 668.023,-46.0217 675.011,-46.4324"/>
</g>
<!-- m0 -->
<g id="node9" class="node"><title>m0</title>
<a xlink:href="0044446" xlink:title="GO:0044446">
<ellipse fill="#dddddd" stroke="#dddddd" cx="527" cy="-306" rx="61.1934" ry="18"/>
<text text-anchor="middle" x="527" y="-301.8" font-family="Times,serif" font-size="14.00">GO:0044446</text>
</a>
</g>
<!-- m0&#45;&gt;x0 -->
<g id="edge8" class="edge"><title>m0&#45;&gt;x0</title>
<path fill="none" stroke="black" d="M536.782,-287.798C542.209,-277.647 548.709,-264.397 553,-252 560.008,-231.751 564.923,-207.978 567.996,-190.098"/>
<polygon fill="black" stroke="black" points="571.477,-190.501 569.634,-180.067 564.568,-189.373 571.477,-190.501"/>
</g>
<!-- f0 -->
<g id="node59" class="node"><title>f0</title>
<a xlink:href="0005930" xlink:title="GO:0005930 (1)">
<ellipse fill="#e98576" stroke="#e98576" cx="469" cy="-234" rx="75.2018" ry="18"/>
<text text-anchor="middle" x="469" y="-229.8" font-family="Times,serif" font-size="14.00">GO:0005930 (1)</text>
</a>
</g>
<!-- m0&#45;&gt;f0 -->
<g id="edge72" class="edge"><title>m0&#45;&gt;f0</title>
<path fill="none" stroke="black" d="M513.255,-288.411C506.207,-279.906 497.48,-269.372 489.643,-259.914"/>
<polygon fill="black" stroke="black" points="492.125,-257.423 483.049,-251.956 486.735,-261.89 492.125,-257.423"/>
</g>
<!-- c0 -->
<g id="node11" class="node"><title>c0</title>
<a xlink:href="0044464" xlink:title="GO:0044464">
<ellipse fill="#dddddd" stroke="#dddddd" cx="349" cy="-594" rx="61.1934" ry="18"/>
<text text-anchor="middle" x="349" y="-589.8" font-family="Times,serif" font-size="14.00">GO:0044464</text>
</a>
</g>
<!-- c0&#45;&gt;b0 -->
<g id="edge10" class="edge"><title>c0&#45;&gt;b0</title>
<path fill="none" stroke="black" d="M319.098,-578.155C298.493,-567.926 270.871,-554.212 248.324,-543.019"/>
<polygon fill="black" stroke="black" points="249.839,-539.863 239.325,-538.552 246.726,-546.133 249.839,-539.863"/>
</g>
<!-- k0 -->
<g id="node17" class="node"><title>k0</title>
<a xlink:href="0044424" xlink:title="GO:0044424">
<ellipse fill="#dddddd" stroke="#dddddd" cx="415" cy="-450" rx="61.1934" ry="18"/>
<text text-anchor="middle" x="415" y="-445.8" font-family="Times,serif" font-size="14.00">GO:0044424</text>
</a>
</g>
<!-- c0&#45;&gt;k0 -->
<g id="edge44" class="edge"><title>c0&#45;&gt;k0</title>
<path fill="none" stroke="black" d="M350.07,-575.739C351.803,-557.148 356.314,-527.126 368,-504 373.351,-493.411 381.343,-483.277 389.226,-474.758"/>
<polygon fill="black" stroke="black" points="391.896,-477.032 396.356,-467.422 386.876,-472.153 391.896,-477.032"/>
</g>
<!-- c0&#45;&gt;o0 -->
<g id="edge20" class="edge"><title>c0&#45;&gt;o0</title>
<path fill="none" stroke="black" d="M340.051,-575.912C329.816,-557.203 311.885,-526.83 292,-504 282.439,-493.023 270.56,-482.316 259.765,-473.432"/>
<polygon fill="black" stroke="black" points="261.767,-470.551 251.778,-467.019 257.385,-476.009 261.767,-470.551"/>
</g>
<!-- l0 -->
<g id="node40" class="node"><title>l0</title>
<a xlink:href="0005622" xlink:title="GO:0005622">
<ellipse fill="#dddddd" stroke="#dddddd" cx="438" cy="-522" rx="61.1934" ry="18"/>
<text text-anchor="middle" x="438" y="-517.8" font-family="Times,serif" font-size="14.00">GO:0005622</text>
</a>
</g>
<!-- c0&#45;&gt;l0 -->
<g id="edge46" class="edge"><title>c0&#45;&gt;l0</title>
<path fill="none" stroke="black" d="M369.642,-576.765C381.437,-567.488 396.406,-555.714 409.328,-545.551"/>
<polygon fill="black" stroke="black" points="411.773,-548.081 417.47,-539.147 407.446,-542.578 411.773,-548.081"/>
</g>
<!-- t0&#45;&gt;s0 -->
<g id="edge58" class="edge"><title>t0&#45;&gt;s0</title>
<path fill="none" stroke="black" d="M603.642,-72.7646C615.352,-63.5543 630.192,-51.8825 643.051,-41.7691"/>
<polygon fill="black" stroke="black" points="645.465,-44.323 651.162,-35.3898 641.138,-38.8209 645.465,-44.323"/>
</g>
<!-- v0 -->
<g id="node15" class="node"><title>v0</title>
<a xlink:href="0044444" xlink:title="GO:0044444">
<ellipse fill="#dddddd" stroke="#dddddd" cx="335" cy="-306" rx="61.1934" ry="18"/>
<text text-anchor="middle" x="335" y="-301.8" font-family="Times,serif" font-size="14.00">GO:0044444</text>
</a>
</g>
<!-- v0&#45;&gt;t0 -->
<g id="edge14" class="edge"><title>v0&#45;&gt;t0</title>
<path fill="none" stroke="black" d="M341.536,-287.989C349.548,-268.794 364.615,-237.458 385,-216 430.518,-168.086 498.074,-130.617 541.321,-109.649"/>
<polygon fill="black" stroke="black" points="542.912,-112.768 550.43,-105.303 539.897,-106.451 542.912,-112.768"/>
</g>
<!-- k0&#45;&gt;m0 -->
<g id="edge68" class="edge"><title>k0&#45;&gt;m0</title>
<path fill="none" stroke="black" d="M420.296,-431.899C426.772,-412.905 439.126,-382.021 457,-360 466.913,-347.788 480.207,-336.809 492.547,-328.054"/>
<polygon fill="black" stroke="black" points="494.6,-330.891 500.884,-322.361 490.652,-325.11 494.6,-330.891"/>
</g>
<!-- k0&#45;&gt;v0 -->
<g id="edge54" class="edge"><title>k0&#45;&gt;v0</title>
<path fill="none" stroke="black" d="M364.932,-439.516C321.888,-430.224 264.645,-414.75 251,-396 241.585,-383.063 243.274,-374.011 251,-360 259.344,-344.87 274.025,-333.464 288.805,-325.185"/>
<polygon fill="black" stroke="black" points="290.702,-328.144 297.964,-320.429 287.476,-321.931 290.702,-328.144"/>
</g>
<!-- w0 -->
<g id="node19" class="node"><title>w0</title>
<a xlink:href="0005737" xlink:title="GO:0005737 (1)">
<ellipse fill="#e98576" stroke="#e98576" cx="335" cy="-378" rx="75.2018" ry="18"/>
<text text-anchor="middle" x="335" y="-373.8" font-family="Times,serif" font-size="14.00">GO:0005737 (1)</text>
</a>
</g>
<!-- k0&#45;&gt;w0 -->
<g id="edge16" class="edge"><title>k0&#45;&gt;w0</title>
<path fill="none" stroke="black" d="M396.445,-432.765C386.094,-423.708 373.023,-412.27 361.601,-402.276"/>
<polygon fill="black" stroke="black" points="363.84,-399.584 354.01,-395.633 359.231,-404.853 363.84,-399.584"/>
</g>
<!-- j0 -->
<g id="node31" class="node"><title>j0</title>
<a xlink:href="0043229" xlink:title="GO:0043229">
<ellipse fill="#dddddd" stroke="#dddddd" cx="668" cy="-378" rx="61.1934" ry="18"/>
<text text-anchor="middle" x="668" y="-373.8" font-family="Times,serif" font-size="14.00">GO:0043229</text>
</a>
</g>
<!-- k0&#45;&gt;j0 -->
<g id="edge30" class="edge"><title>k0&#45;&gt;j0</title>
<path fill="none" stroke="black" d="M457.918,-437.125C501.261,-425.133 568.3,-406.585 614.949,-393.678"/>
<polygon fill="black" stroke="black" points="616.167,-396.973 624.871,-390.933 614.3,-390.226 616.167,-396.973"/>
</g>
<!-- w0&#45;&gt;v0 -->
<g id="edge52" class="edge"><title>w0&#45;&gt;v0</title>
<path fill="none" stroke="black" d="M335,-359.697C335,-351.983 335,-342.712 335,-334.112"/>
<polygon fill="black" stroke="black" points="338.5,-334.104 335,-324.104 331.5,-334.104 338.5,-334.104"/>
</g>
<!-- o0&#45;&gt;f0 -->
<g id="edge74" class="edge"><title>o0&#45;&gt;f0</title>
<path fill="none" stroke="black" d="M228.03,-431.911C225.263,-398.813 224.458,-325.891 265,-288 297.107,-257.992 343.986,-244.475 384.711,-238.581"/>
<polygon fill="black" stroke="black" points="385.19,-242.048 394.648,-237.273 384.277,-235.108 385.19,-242.048"/>
</g>
<!-- d0 -->
<g id="node23" class="node"><title>d0</title>
<a xlink:href="0005575" xlink:title="GO:0005575">
<ellipse fill="#dddddd" stroke="#dddddd" cx="482" cy="-738" rx="61.1934" ry="18"/>
<text text-anchor="middle" x="482" y="-733.8" font-family="Times,serif" font-size="14.00">GO:0005575</text>
</a>
</g>
<!-- d0&#45;&gt;c0 -->
<g id="edge36" class="edge"><title>d0&#45;&gt;c0</title>
<path fill="none" stroke="black" d="M435.784,-726.138C412.143,-718.26 384.869,-705.164 368,-684 354.188,-666.672 349.807,-641.617 348.669,-622.502"/>
<polygon fill="black" stroke="black" points="352.161,-622.188 348.329,-612.31 345.165,-622.421 352.161,-622.188"/>
</g>
<!-- n0 -->
<g id="node25" class="node"><title>n0</title>
<a xlink:href="0044422" xlink:title="GO:0044422">
<ellipse fill="#dddddd" stroke="#dddddd" cx="527" cy="-378" rx="61.1934" ry="18"/>
<text text-anchor="middle" x="527" y="-373.8" font-family="Times,serif" font-size="14.00">GO:0044422</text>
</a>
</g>
<!-- d0&#45;&gt;n0 -->
<g id="edge22" class="edge"><title>d0&#45;&gt;n0</title>
<path fill="none" stroke="black" d="M491.782,-719.798C497.209,-709.647 503.709,-696.397 508,-684 521.229,-645.778 527,-635.447 527,-595 527,-595 527,-595 527,-521 527,-480.996 527,-434.653 527,-406.08"/>
<polygon fill="black" stroke="black" points="530.5,-406.049 527,-396.049 523.5,-406.049 530.5,-406.049"/>
</g>
<!-- i0 -->
<g id="node26" class="node"><title>i0</title>
<a xlink:href="0043226" xlink:title="GO:0043226">
<ellipse fill="#dddddd" stroke="#dddddd" cx="668" cy="-450" rx="61.1934" ry="18"/>
<text text-anchor="middle" x="668" y="-445.8" font-family="Times,serif" font-size="14.00">GO:0043226</text>
</a>
</g>
<!-- d0&#45;&gt;i0 -->
<g id="edge32" class="edge"><title>d0&#45;&gt;i0</title>
<path fill="none" stroke="black" d="M503.302,-720.869C515.32,-711.075 530.07,-697.825 541,-684 594.658,-616.13 637.935,-522.45 657.186,-477.35"/>
<polygon fill="black" stroke="black" points="660.475,-478.558 661.136,-467.983 654.025,-475.838 660.475,-478.558"/>
</g>
<!-- e0 -->
<g id="node35" class="node"><title>e0</title>
<a xlink:href="0005623" xlink:title="GO:0005623">
<ellipse fill="#dddddd" stroke="#dddddd" cx="438" cy="-666" rx="61.1934" ry="18"/>
<text text-anchor="middle" x="438" y="-661.8" font-family="Times,serif" font-size="14.00">GO:0005623</text>
</a>
</g>
<!-- d0&#45;&gt;e0 -->
<g id="edge34" class="edge"><title>d0&#45;&gt;e0</title>
<path fill="none" stroke="black" d="M471.349,-720.055C466.16,-711.801 459.812,-701.701 454.052,-692.538"/>
<polygon fill="black" stroke="black" points="456.838,-690.393 448.553,-683.789 450.912,-694.118 456.838,-690.393"/>
</g>
<!-- n0&#45;&gt;m0 -->
<g id="edge66" class="edge"><title>n0&#45;&gt;m0</title>
<path fill="none" stroke="black" d="M527,-359.697C527,-351.983 527,-342.712 527,-334.112"/>
<polygon fill="black" stroke="black" points="530.5,-334.104 527,-324.104 523.5,-334.104 530.5,-334.104"/>
</g>
<!-- i0&#45;&gt;n0 -->
<g id="edge24" class="edge"><title>i0&#45;&gt;n0</title>
<path fill="none" stroke="black" d="M638.098,-434.155C617.067,-423.714 588.725,-409.644 565.931,-398.328"/>
<polygon fill="black" stroke="black" points="567.373,-395.136 556.859,-393.824 564.26,-401.405 567.373,-395.136"/>
</g>
<!-- i0&#45;&gt;j0 -->
<g id="edge28" class="edge"><title>i0&#45;&gt;j0</title>
<path fill="none" stroke="black" d="M668,-431.697C668,-423.983 668,-414.712 668,-406.112"/>
<polygon fill="black" stroke="black" points="671.5,-406.104 668,-396.104 664.5,-406.104 671.5,-406.104"/>
</g>
<!-- h0 -->
<g id="node39" class="node"><title>h0</title>
<a xlink:href="0043227" xlink:title="GO:0043227">
<ellipse fill="#dddddd" stroke="#dddddd" cx="809" cy="-378" rx="61.1934" ry="18"/>
<text text-anchor="middle" x="809" y="-373.8" font-family="Times,serif" font-size="14.00">GO:0043227</text>
</a>
</g>
<!-- i0&#45;&gt;h0 -->
<g id="edge40" class="edge"><title>i0&#45;&gt;h0</title>
<path fill="none" stroke="black" d="M697.902,-434.155C718.933,-423.714 747.275,-409.644 770.069,-398.328"/>
<polygon fill="black" stroke="black" points="771.74,-401.405 779.141,-393.824 768.627,-395.136 771.74,-401.405"/>
</g>
<!-- r0 -->
<g id="node50" class="node"><title>r0</title>
<a xlink:href="0043228" xlink:title="GO:0043228">
<ellipse fill="#dddddd" stroke="#dddddd" cx="950" cy="-378" rx="61.1934" ry="18"/>
<text text-anchor="middle" x="950" y="-373.8" font-family="Times,serif" font-size="14.00">GO:0043228</text>
</a>
</g>
<!-- i0&#45;&gt;r0 -->
<g id="edge56" class="edge"><title>i0&#45;&gt;r0</title>
<path fill="none" stroke="black" d="M713.308,-437.753C762.746,-425.481 841.902,-405.833 894.898,-392.678"/>
<polygon fill="black" stroke="black" points="895.942,-396.025 904.804,-390.219 894.256,-389.231 895.942,-396.025"/>
</g>
<!-- q0 -->
<g id="node28" class="node"><title>q0</title>
<a xlink:href="0043232" xlink:title="GO:0043232">
<ellipse fill="#dddddd" stroke="#dddddd" cx="809" cy="-306" rx="61.1934" ry="18"/>
<text text-anchor="middle" x="809" y="-301.8" font-family="Times,serif" font-size="14.00">GO:0043232</text>
</a>
</g>
<!-- q0&#45;&gt;p0 -->
<g id="edge26" class="edge"><title>q0&#45;&gt;p0</title>
<path fill="none" stroke="black" d="M785.885,-289.291C771.772,-279.7 753.524,-267.298 738.032,-256.769"/>
<polygon fill="black" stroke="black" points="739.991,-253.869 729.753,-251.142 736.056,-259.658 739.991,-253.869"/>
</g>
<!-- q0&#45;&gt;s0 -->
<g id="edge60" class="edge"><title>q0&#45;&gt;s0</title>
<path fill="none" stroke="black" d="M809.304,-287.623C809.181,-257.06 805.944,-192.344 783,-144 763.49,-102.893 726.245,-65.2525 700.305,-42.2507"/>
<polygon fill="black" stroke="black" points="702.492,-39.5148 692.649,-35.5945 697.899,-44.7972 702.492,-39.5148"/>
</g>
<!-- j0&#45;&gt;m0 -->
<g id="edge64" class="edge"><title>j0&#45;&gt;m0</title>
<path fill="none" stroke="black" d="M638.098,-362.155C617.067,-351.714 588.725,-337.644 565.931,-326.328"/>
<polygon fill="black" stroke="black" points="567.373,-323.136 556.859,-321.824 564.26,-329.405 567.373,-323.136"/>
</g>
<!-- j0&#45;&gt;q0 -->
<g id="edge78" class="edge"><title>j0&#45;&gt;q0</title>
<path fill="none" stroke="black" d="M697.902,-362.155C718.933,-351.714 747.275,-337.644 770.069,-326.328"/>
<polygon fill="black" stroke="black" points="771.74,-329.405 779.141,-321.824 768.627,-323.136 771.74,-329.405"/>
</g>
<!-- g0 -->
<g id="node45" class="node"><title>g0</title>
<a xlink:href="0043231" xlink:title="GO:0043231">
<ellipse fill="#dddddd" stroke="#dddddd" cx="668" cy="-306" rx="61.1934" ry="18"/>
<text text-anchor="middle" x="668" y="-301.8" font-family="Times,serif" font-size="14.00">GO:0043231</text>
</a>
</g>
<!-- j0&#45;&gt;g0 -->
<g id="edge50" class="edge"><title>j0&#45;&gt;g0</title>
<path fill="none" stroke="black" d="M668,-359.697C668,-351.983 668,-342.712 668,-334.112"/>
<polygon fill="black" stroke="black" points="671.5,-334.104 668,-324.104 664.5,-334.104 671.5,-334.104"/>
</g>
<!-- e0&#45;&gt;c0 -->
<g id="edge38" class="edge"><title>e0&#45;&gt;c0</title>
<path fill="none" stroke="black" d="M417.358,-648.765C405.563,-639.488 390.594,-627.714 377.672,-617.551"/>
<polygon fill="black" stroke="black" points="379.554,-614.578 369.53,-611.147 375.227,-620.081 379.554,-614.578"/>
</g>
<!-- h0&#45;&gt;g0 -->
<g id="edge48" class="edge"><title>h0&#45;&gt;g0</title>
<path fill="none" stroke="black" d="M779.098,-362.155C758.067,-351.714 729.725,-337.644 706.931,-326.328"/>
<polygon fill="black" stroke="black" points="708.373,-323.136 697.859,-321.824 705.26,-329.405 708.373,-323.136"/>
</g>
<!-- l0&#45;&gt;k0 -->
<g id="edge42" class="edge"><title>l0&#45;&gt;k0</title>
<path fill="none" stroke="black" d="M432.432,-504.055C429.844,-496.176 426.703,-486.617 423.804,-477.794"/>
<polygon fill="black" stroke="black" points="427.123,-476.683 420.676,-468.275 420.473,-478.868 427.123,-476.683"/>
</g>
<!-- g0&#45;&gt;f0 -->
<g id="edge70" class="edge"><title>g0&#45;&gt;f0</title>
<path fill="none" stroke="black" d="M630.101,-291.669C598.694,-280.621 553.787,-264.824 519.359,-252.714"/>
<polygon fill="black" stroke="black" points="520.088,-249.261 509.494,-249.244 517.766,-255.864 520.088,-249.261"/>
</g>
<!-- r0&#45;&gt;q0 -->
<g id="edge76" class="edge"><title>r0&#45;&gt;q0</title>
<path fill="none" stroke="black" d="M920.098,-362.155C899.067,-351.714 870.725,-337.644 847.931,-326.328"/>
<polygon fill="black" stroke="black" points="849.373,-323.136 838.859,-321.824 846.26,-329.405 849.373,-323.136"/>
</g>
</g>
</svg>
