<?xml version="1.0" encoding="UTF-8" standalone="no"?>
<!DOCTYPE svg PUBLIC "-//W3C//DTD SVG 1.1//EN"
 "http://www.w3.org/Graphics/SVG/1.1/DTD/svg11.dtd">
<!-- Generated by graphviz version 2.28.0 (20110622.2320)
 -->
<!-- Title: G Pages: 1 -->
<svg width="1502pt" height="260pt"
 viewBox="0.00 0.00 1502.00 260.00" xmlns="http://www.w3.org/2000/svg" xmlns:xlink="http://www.w3.org/1999/xlink">
<g id="graph1" class="graph" transform="scale(1 1) rotate(0) translate(4 256)">
<title>G</title>
<polygon fill="white" stroke="white" points="-4,5 -4,-256 1499,-256 1499,5 -4,5"/>
<!-- f0 -->
<g id="node1" class="node"><title>f0</title>
<a xlink:href="0005488" xlink:title="GO:0005488">
<ellipse fill="#dddddd" stroke="#dddddd" cx="411" cy="-162" rx="61.1934" ry="18"/>
<text text-anchor="middle" x="411" y="-157.8" font-family="Times,serif" font-size="14.00">GO:0005488</text>
</a>
</g>
<!-- k0 -->
<g id="node3" class="node"><title>k0</title>
<a xlink:href="0043167" xlink:title="GO:0043167 (6)">
<ellipse fill="#e98576" stroke="#e98576" cx="75" cy="-90" rx="75.2018" ry="18"/>
<text text-anchor="middle" x="75" y="-85.8" font-family="Times,serif" font-size="14.00">GO:0043167 (6)</text>
</a>
</g>
<!-- f0&#45;&gt;k0 -->
<g id="edge2" class="edge"><title>f0&#45;&gt;k0</title>
<path fill="none" stroke="black" d="M362.502,-150.896C303.849,-138.677 204.906,-118.064 139.77,-104.494"/>
<polygon fill="black" stroke="black" points="140.122,-100.992 129.618,-102.379 138.694,-107.845 140.122,-100.992"/>
</g>
<!-- g0 -->
<g id="node12" class="node"><title>g0</title>
<a xlink:href="0001882" xlink:title="GO:0001882 (2)">
<ellipse fill="#e98576" stroke="#e98576" cx="243" cy="-90" rx="75.2018" ry="18"/>
<text text-anchor="middle" x="243" y="-85.8" font-family="Times,serif" font-size="14.00">GO:0001882 (2)</text>
</a>
</g>
<!-- f0&#45;&gt;g0 -->
<g id="edge10" class="edge"><title>f0&#45;&gt;g0</title>
<path fill="none" stroke="black" d="M377.003,-146.834C351.444,-136.185 316.175,-121.49 288.235,-109.848"/>
<polygon fill="black" stroke="black" points="289.263,-106.485 278.686,-105.869 286.571,-112.946 289.263,-106.485"/>
</g>
<!-- h0 -->
<g id="node16" class="node"><title>h0</title>
<a xlink:href="0003676" xlink:title="GO:0003676 (1)">
<ellipse fill="#e98576" stroke="#e98576" cx="411" cy="-90" rx="75.2018" ry="18"/>
<text text-anchor="middle" x="411" y="-85.8" font-family="Times,serif" font-size="14.00">GO:0003676 (1)</text>
</a>
</g>
<!-- f0&#45;&gt;h0 -->
<g id="edge14" class="edge"><title>f0&#45;&gt;h0</title>
<path fill="none" stroke="black" d="M411,-143.697C411,-135.983 411,-126.712 411,-118.112"/>
<polygon fill="black" stroke="black" points="414.5,-118.104 411,-108.104 407.5,-118.104 414.5,-118.104"/>
</g>
<!-- e0 -->
<g id="node21" class="node"><title>e0</title>
<a xlink:href="0000166" xlink:title="GO:0000166 (2)">
<ellipse fill="#e98576" stroke="#e98576" cx="579" cy="-90" rx="75.2018" ry="18"/>
<text text-anchor="middle" x="579" y="-85.8" font-family="Times,serif" font-size="14.00">GO:0000166 (2)</text>
</a>
</g>
<!-- f0&#45;&gt;e0 -->
<g id="edge20" class="edge"><title>f0&#45;&gt;e0</title>
<path fill="none" stroke="black" d="M444.997,-146.834C470.556,-136.185 505.825,-121.49 533.765,-109.848"/>
<polygon fill="black" stroke="black" points="535.429,-112.946 543.314,-105.869 532.737,-106.485 535.429,-112.946"/>
</g>
<!-- c0 -->
<g id="node4" class="node"><title>c0</title>
<a xlink:href="0003674" xlink:title="GO:0003674">
<ellipse fill="#dddddd" stroke="#dddddd" cx="663" cy="-234" rx="61.1934" ry="18"/>
<text text-anchor="middle" x="663" y="-229.8" font-family="Times,serif" font-size="14.00">GO:0003674</text>
</a>
</g>
<!-- c0&#45;&gt;f0 -->
<g id="edge18" class="edge"><title>c0&#45;&gt;f0</title>
<path fill="none" stroke="black" d="M619.966,-221.046C576.748,-209.041 510.086,-190.524 463.718,-177.644"/>
<polygon fill="black" stroke="black" points="464.428,-174.209 453.857,-174.905 462.555,-180.953 464.428,-174.209"/>
</g>
<!-- n0 -->
<g id="node6" class="node"><title>n0</title>
<a xlink:href="0030234" xlink:title="GO:0030234 (1)">
<ellipse fill="#e98576" stroke="#e98576" cx="663" cy="-162" rx="75.2018" ry="18"/>
<text text-anchor="middle" x="663" y="-157.8" font-family="Times,serif" font-size="14.00">GO:0030234 (1)</text>
</a>
</g>
<!-- c0&#45;&gt;n0 -->
<g id="edge4" class="edge"><title>c0&#45;&gt;n0</title>
<path fill="none" stroke="black" d="M663,-215.697C663,-207.983 663,-198.712 663,-190.112"/>
<polygon fill="black" stroke="black" points="666.5,-190.104 663,-180.104 659.5,-190.104 666.5,-190.104"/>
</g>
<!-- b0 -->
<g id="node7" class="node"><title>b0</title>
<a xlink:href="0003824" xlink:title="GO:0003824">
<ellipse fill="#dddddd" stroke="#dddddd" cx="999" cy="-162" rx="61.1934" ry="18"/>
<text text-anchor="middle" x="999" y="-157.8" font-family="Times,serif" font-size="14.00">GO:0003824</text>
</a>
</g>
<!-- c0&#45;&gt;b0 -->
<g id="edge8" class="edge"><title>c0&#45;&gt;b0</title>
<path fill="none" stroke="black" d="M711.498,-222.896C772.048,-210.282 875.538,-188.721 940.443,-175.199"/>
<polygon fill="black" stroke="black" points="941.44,-178.567 950.516,-173.101 940.013,-171.714 941.44,-178.567"/>
</g>
<!-- l0 -->
<g id="node9" class="node"><title>l0</title>
<a xlink:href="0016787" xlink:title="GO:0016787 (1)">
<ellipse fill="#e98576" stroke="#e98576" cx="747" cy="-90" rx="75.2018" ry="18"/>
<text text-anchor="middle" x="747" y="-85.8" font-family="Times,serif" font-size="14.00">GO:0016787 (1)</text>
</a>
</g>
<!-- b0&#45;&gt;l0 -->
<g id="edge6" class="edge"><title>b0&#45;&gt;l0</title>
<path fill="none" stroke="black" d="M955.966,-149.046C914.057,-137.405 850.105,-119.64 803.988,-106.83"/>
<polygon fill="black" stroke="black" points="804.713,-103.399 794.141,-104.095 802.839,-110.143 804.713,-103.399"/>
</g>
<!-- a0 -->
<g id="node14" class="node"><title>a0</title>
<a xlink:href="0016740" xlink:title="GO:0016740 (1)">
<ellipse fill="#e98576" stroke="#e98576" cx="915" cy="-90" rx="75.2018" ry="18"/>
<text text-anchor="middle" x="915" y="-85.8" font-family="Times,serif" font-size="14.00">GO:0016740 (1)</text>
</a>
</g>
<!-- b0&#45;&gt;a0 -->
<g id="edge12" class="edge"><title>b0&#45;&gt;a0</title>
<path fill="none" stroke="black" d="M979.518,-144.765C968.57,-135.642 954.725,-124.105 942.67,-114.059"/>
<polygon fill="black" stroke="black" points="944.591,-111.103 934.668,-107.39 940.109,-116.48 944.591,-111.103"/>
</g>
<!-- d0 -->
<g id="node18" class="node"><title>d0</title>
<a xlink:href="0016491" xlink:title="GO:0016491 (8)">
<ellipse fill="#e98576" stroke="#e98576" cx="1083" cy="-90" rx="75.2018" ry="18"/>
<text text-anchor="middle" x="1083" y="-85.8" font-family="Times,serif" font-size="14.00">GO:0016491 (8)</text>
</a>
</g>
<!-- b0&#45;&gt;d0 -->
<g id="edge16" class="edge"><title>b0&#45;&gt;d0</title>
<path fill="none" stroke="black" d="M1018.48,-144.765C1029.43,-135.642 1043.27,-124.105 1055.33,-114.059"/>
<polygon fill="black" stroke="black" points="1057.89,-116.48 1063.33,-107.39 1053.41,-111.103 1057.89,-116.48"/>
</g>
<!-- m0 -->
<g id="node23" class="node"><title>m0</title>
<a xlink:href="0004386" xlink:title="GO:0004386 (1)">
<ellipse fill="#e98576" stroke="#e98576" cx="1251" cy="-90" rx="75.2018" ry="18"/>
<text text-anchor="middle" x="1251" y="-85.8" font-family="Times,serif" font-size="14.00">GO:0004386 (1)</text>
</a>
</g>
<!-- b0&#45;&gt;m0 -->
<g id="edge22" class="edge"><title>b0&#45;&gt;m0</title>
<path fill="none" stroke="black" d="M1042.03,-149.046C1083.94,-137.405 1147.9,-119.64 1194.01,-106.83"/>
<polygon fill="black" stroke="black" points="1195.16,-110.143 1203.86,-104.095 1193.29,-103.399 1195.16,-110.143"/>
</g>
<!-- j0 -->
<g id="node25" class="node"><title>j0</title>
<a xlink:href="0016829" xlink:title="GO:0016829 (9)">
<ellipse fill="#e98576" stroke="#e98576" cx="1419" cy="-90" rx="75.2018" ry="18"/>
<text text-anchor="middle" x="1419" y="-85.8" font-family="Times,serif" font-size="14.00">GO:0016829 (9)</text>
</a>
</g>
<!-- b0&#45;&gt;j0 -->
<g id="edge24" class="edge"><title>b0&#45;&gt;j0</title>
<path fill="none" stroke="black" d="M1052.66,-153.267C1119.08,-143.526 1235.61,-125.887 1335,-108 1341.25,-106.876 1347.74,-105.654 1354.23,-104.399"/>
<polygon fill="black" stroke="black" points="1355.25,-107.766 1364.39,-102.408 1353.9,-100.897 1355.25,-107.766"/>
</g>
<!-- i0 -->
<g id="node27" class="node"><title>i0</title>
<a xlink:href="0004497" xlink:title="GO:0004497 (8)">
<ellipse fill="#e98576" stroke="#e98576" cx="1083" cy="-18" rx="75.2018" ry="18"/>
<text text-anchor="middle" x="1083" y="-13.8" font-family="Times,serif" font-size="14.00">GO:0004497 (8)</text>
</a>
</g>
<!-- d0&#45;&gt;i0 -->
<g id="edge26" class="edge"><title>d0&#45;&gt;i0</title>
<path fill="none" stroke="black" d="M1083,-71.6966C1083,-63.9827 1083,-54.7125 1083,-46.1124"/>
<polygon fill="black" stroke="black" points="1086.5,-46.1043 1083,-36.1043 1079.5,-46.1044 1086.5,-46.1043"/>
</g>
</g>
</svg>
