<?xml version="1.0" encoding="UTF-8" standalone="no"?> 
<!DOCTYPE svg PUBLIC "-//W3C//DTD SVG 1.1//EN" 
 "http://www.w3.org/Graphics/SVG/1.1/DTD/svg11.dtd"> 
<!-- Generated by graphviz version 2.28.0 (20110622.2320) 
 --> 
<!-- Title: G Pages: 1 --> 
<svg width="2000" height="1000"  
 viewBox="-30 -50 2000 1000" xmlns="http://www.w3.org/2000/svg" xmlns:xlink="http://www.w3.org/1999/xlink"> 
<g id="graph1" class="graph" transform="scale(1 1) rotate(0) translate(4 472)"> 
<title>G</title> 
<polygon fill="white" stroke="white" points="-4,5 -4,-472 299,-472 299,5 -4,5"/> 
<!-- d0 --> 
<g id="node1" class="node"><title>d0</title> 
<a xlink:href="http://pir.georgetown.edu/cgi-bin/pt_graphvizView.pl?togoid=0005575" > 
<ellipse fill="#dddddd" stroke="#dddddd" cx="144" cy="-450" rx="61.1934" ry="18"/> 
<a xlink:href="http://pir.georgetown.edu/cgi-bin/pt_graphvizView.pl?togoid=0005575" ><text id="GO:0005575" onmousemove="changeToText('GO:0005575')" onmouseout="changeBackText('GO:0005575')"  text-anchor="middle" x="144" y="-445.8" font-family="Times,serif" font-size="14.00">GO:0005575</text></a>
 
</a> 
</g> 
<!-- h0 --> 
<g id="node3" class="node"><title>h0</title> 
<a xlink:href="http://pir.georgetown.edu/cgi-bin/pt_graphvizView.pl?togoid=0044464" > 
<ellipse fill="#dddddd" stroke="#dddddd" cx="87" cy="-306" rx="61.1934" ry="18"/> 
<a xlink:href="http://pir.georgetown.edu/cgi-bin/pt_graphvizView.pl?togoid=0044464" ><text id="GO:0044464" onmousemove="changeToText('GO:0044464')" onmouseout="changeBackText('GO:0044464')"  text-anchor="middle" x="87" y="-301.8" font-family="Times,serif" font-size="14.00">GO:0044464</text></a>
 
</a> 
</g> 
<!-- d0&#45;&gt;h0 --> 
<g id="edge2" class="edge"><title>d0&#45;&gt;h0</title> 
<path fill="none" stroke="black" d="M113.346,-434.326C98.5647,-425.47 82.2788,-412.652 74,-396 64.3221,-376.534 69.015,-351.918 75.3105,-333.512"/> 
<polygon fill="black" stroke="black" points="78.6449,-334.589 78.8919,-323.997 72.0936,-332.123 78.6449,-334.589"/> 
</g> 
<!-- i0 --> 
<g id="node4" class="node"><title>i0</title> 
<a xlink:href="http://pir.georgetown.edu/cgi-bin/pt_graphvizView.pl?togoid=0005623" > 
<ellipse fill="#dddddd" stroke="#dddddd" cx="144" cy="-378" rx="61.1934" ry="18"/> 
<a xlink:href="http://pir.georgetown.edu/cgi-bin/pt_graphvizView.pl?togoid=0005623" ><text id="GO:0005623" onmousemove="changeToText('GO:0005623')" onmouseout="changeBackText('GO:0005623')"  text-anchor="middle" x="144" y="-373.8" font-family="Times,serif" font-size="14.00">GO:0005623</text></a>
 
</a> 
</g> 
<!-- d0&#45;&gt;i0 --> 
<g id="edge20" class="edge"><title>d0&#45;&gt;i0</title> 
<path fill="none" stroke="black" d="M144,-431.697C144,-423.983 144,-414.712 144,-406.112"/> 
<polygon fill="black" stroke="black" points="147.5,-406.104 144,-396.104 140.5,-406.104 147.5,-406.104"/> 
</g> 
<!-- c0 --> 
<g id="node11" class="node"><title>c0</title> 
<a xlink:href="http://pir.georgetown.edu/cgi-bin/pt_graphvizView.pl?togoid=0043226" > 
<ellipse fill="#dddddd" stroke="#dddddd" cx="233" cy="-162" rx="61.1934" ry="18"/> 
<a xlink:href="http://pir.georgetown.edu/cgi-bin/pt_graphvizView.pl?togoid=0043226" ><text id="GO:0043226" onmousemove="changeToText('GO:0043226')" onmouseout="changeBackText('GO:0043226')"  text-anchor="middle" x="233" y="-157.8" font-family="Times,serif" font-size="14.00">GO:0043226</text></a>
 
</a> 
</g> 
<!-- d0&#45;&gt;c0 --> 
<g id="edge14" class="edge"><title>d0&#45;&gt;c0</title> 
<path fill="none" stroke="black" d="M173.744,-434.256C188.465,-425.313 204.977,-412.435 214,-396 250.524,-329.468 243.826,-235.803 237.562,-190.15"/> 
<polygon fill="black" stroke="black" points="241.007,-189.518 236.087,-180.135 234.082,-190.538 241.007,-189.518"/> 
</g> 
<!-- g0 --> 
<g id="node7" class="node"><title>g0</title> 
<a xlink:href="http://pir.georgetown.edu/cgi-bin/pt_graphvizView.pl?togoid=0005622" > 
<ellipse fill="#dddddd" stroke="#dddddd" cx="61" cy="-234" rx="61.1934" ry="18"/> 
<a xlink:href="http://pir.georgetown.edu/cgi-bin/pt_graphvizView.pl?togoid=0005622" ><text id="GO:0005622" onmousemove="changeToText('GO:0005622')" onmouseout="changeBackText('GO:0005622')"  text-anchor="middle" x="61" y="-229.8" font-family="Times,serif" font-size="14.00">GO:0005622</text></a>
 
</a> 
</g> 
<!-- h0&#45;&gt;g0 --> 
<g id="edge6" class="edge"><title>h0&#45;&gt;g0</title> 
<path fill="none" stroke="black" d="M80.7061,-288.055C77.7797,-280.176 74.229,-270.617 70.9521,-261.794"/> 
<polygon fill="black" stroke="black" points="74.1795,-260.431 67.4165,-252.275 67.6175,-262.868 74.1795,-260.431"/> 
</g> 
<!-- f0 --> 
<g id="node9" class="node"><title>f0</title> 
<a xlink:href="http://pir.georgetown.edu/cgi-bin/pt_graphvizView.pl?togoid=0044424" > 
<ellipse fill="#dddddd" stroke="#dddddd" cx="92" cy="-162" rx="61.1934" ry="18"/> 
<a xlink:href="http://pir.georgetown.edu/cgi-bin/pt_graphvizView.pl?togoid=0044424" ><text id="GO:0044424" onmousemove="changeToText('GO:0044424')" onmouseout="changeBackText('GO:0044424')"  text-anchor="middle" x="92" y="-157.8" font-family="Times,serif" font-size="14.00">GO:0044424</text></a>
 
</a> 
</g> 
<!-- h0&#45;&gt;f0 --> 
<g id="edge10" class="edge"><title>h0&#45;&gt;f0</title> 
<path fill="none" stroke="black" d="M105.557,-288.844C115.145,-279.234 125.884,-266.173 131,-252 136.433,-236.951 135.99,-231.202 131,-216 127.633,-205.743 121.437,-195.836 114.96,-187.419"/> 
<polygon fill="black" stroke="black" points="117.538,-185.043 108.484,-179.541 112.13,-189.488 117.538,-185.043"/> 
</g> 
<!-- i0&#45;&gt;h0 --> 
<g id="edge4" class="edge"><title>i0&#45;&gt;h0</title> 
<path fill="none" stroke="black" d="M130.492,-360.411C123.566,-351.906 114.989,-341.372 107.287,-331.914"/> 
<polygon fill="black" stroke="black" points="109.836,-329.501 100.807,-323.956 104.407,-333.921 109.836,-329.501"/> 
</g> 
<!-- g0&#45;&gt;f0 --> 
<g id="edge8" class="edge"><title>g0&#45;&gt;f0</title> 
<path fill="none" stroke="black" d="M68.5042,-216.055C72.0309,-208.091 76.3181,-198.411 80.26,-189.51"/> 
<polygon fill="black" stroke="black" points="83.5004,-190.836 84.3495,-180.275 77.1,-188.002 83.5004,-190.836"/> 
</g> 
<!-- e0 --> 
<g id="node16" class="node"><title>e0</title> 
<a xlink:href="http://pir.georgetown.edu/cgi-bin/pt_graphvizView.pl?togoid=0043229" > 
<ellipse fill="#dddddd" stroke="#dddddd" cx="92" cy="-90" rx="61.1934" ry="18"/> 
<a xlink:href="http://pir.georgetown.edu/cgi-bin/pt_graphvizView.pl?togoid=0043229" ><text id="GO:0043229" onmousemove="changeToText('GO:0043229')" onmouseout="changeBackText('GO:0043229')"  text-anchor="middle" x="92" y="-85.8" font-family="Times,serif" font-size="14.00">GO:0043229</text></a>
 
</a> 
</g> 
<!-- f0&#45;&gt;e0 --> 
<g id="edge18" class="edge"><title>f0&#45;&gt;e0</title> 
<path fill="none" stroke="black" d="M92,-143.697C92,-135.983 92,-126.712 92,-118.112"/> 
<polygon fill="black" stroke="black" points="95.5001,-118.104 92,-108.104 88.5001,-118.104 95.5001,-118.104"/> 
</g> 
<!-- b0 --> 
<g id="node13" class="node"><title>b0</title> 
<a xlink:href="http://pir.georgetown.edu/cgi-bin/pt_graphvizView.pl?togoid=0043228" > 
<ellipse fill="#dddddd" stroke="#dddddd" cx="233" cy="-90" rx="61.1934" ry="18"/> 
<a xlink:href="http://pir.georgetown.edu/cgi-bin/pt_graphvizView.pl?togoid=0043228" ><text id="GO:0043228" onmousemove="changeToText('GO:0043228')" onmouseout="changeBackText('GO:0043228')"  text-anchor="middle" x="233" y="-85.8" font-family="Times,serif" font-size="14.00">GO:0043228</text></a>
 
</a> 
</g> 
<!-- c0&#45;&gt;b0 --> 
<g id="edge12" class="edge"><title>c0&#45;&gt;b0</title> 
<path fill="none" stroke="black" d="M233,-143.697C233,-135.983 233,-126.712 233,-118.112"/> 
<polygon fill="black" stroke="black" points="236.5,-118.104 233,-108.104 229.5,-118.104 236.5,-118.104"/> 
</g> 
<!-- c0&#45;&gt;e0 --> 
<g id="edge16" class="edge"><title>c0&#45;&gt;e0</title> 
<path fill="none" stroke="black" d="M203.098,-146.155C182.067,-135.714 153.725,-121.644 130.931,-110.328"/> 
<polygon fill="black" stroke="black" points="132.373,-107.136 121.859,-105.824 129.26,-113.405 132.373,-107.136"/> 
</g> 
<!-- a0 --> 
<g id="node20" class="node"><title>a0</title> 
<ellipse fill="#e98576" stroke="#e98576" cx="162" cy="-18" rx="75.2018" ry="18"/> 
<a xlink:href="http://pir.georgetown.edu/cgi-bin/pt_graphvizView.pl?togoid=0043232" ><text id="GO:0043232" onmousemove="changeToText('GO:0043232')" onmouseout="changeBackText('GO:0043232')"  text-anchor="middle" x="162" y="-18.8" font-family="Times,serif" font-size="14.00">GO:0043232</text></a>
<a xlink:href="http://pir.georgetown.edu/cgi-bin/pt_graphvizView.pl?tofile=700173" ><text id="r700173" onmousemove="changeToText2('r700173', 1)" onmouseout="changeBackText2('r700173', 1)"  text-anchor="middle" x="162" y="-5.8" font-family="Times,serif" font-size="14.00">(1)</text>
 
</a> 
</g> 
<!-- b0&#45;&gt;a0 --> 
<g id="edge22" class="edge"><title>b0&#45;&gt;a0</title> 
<path fill="none" stroke="black" d="M216.174,-72.411C207.286,-63.6479 196.214,-52.7322 186.401,-43.0569"/> 
<polygon fill="black" stroke="black" points="188.777,-40.4846 179.198,-35.9562 183.862,-45.4694 188.777,-40.4846"/> 
</g> 
<!-- e0&#45;&gt;a0 --> 
<g id="edge24" class="edge"><title>e0&#45;&gt;a0</title> 
<path fill="none" stroke="black" d="M108.589,-72.411C117.352,-63.6479 128.268,-52.7322 137.943,-43.0569"/> 
<polygon fill="black" stroke="black" points="140.448,-45.5022 145.044,-35.9562 135.498,-40.5524 140.448,-45.5022"/> 
</g> 
</g> 
<text text-anchor="left" x="4" y="-20" style="font-family:Arial Narrow;font-size:20.00;font-weight:bold;">GO Hierarchical View:</text> 

<text text-anchor="left" x="4" y="0" style="font-family:Arial Narrow;font-size:20.00;font-style:italic;">cellular component</text> 

<script type="text/ecmascript"> 
<![CDATA[ 
var targetText; 
function changeToText(z) { 
		targetText = svgDocument.getElementById(z).firstChild; 
		targetText.nodeValue="link to "+z; 
} 
function changeBackText(z) { 
		targetText = svgDocument.getElementById(z).firstChild; 
		targetText.nodeValue=z; 
} 
function changeToText2(z,n) { 
		targetText = svgDocument.getElementById(z).firstChild; 
		if (n<=1) { 
			targetText.nodeValue="link to " + n + " protein record"; 
		} else { 
			targetText.nodeValue="link to " + n + " protein records"; 
		} 
} 
function changeBackText2(z,n) { 
		targetText = svgDocument.getElementById(z).firstChild; 
		targetText.nodeValue="(" + n + ")"; 
} 
// ]]> 
</script> 
</svg> 
