<?xml version="1.0" encoding="UTF-8" standalone="no"?>
<!DOCTYPE svg PUBLIC "-//W3C//DTD SVG 1.1//EN"
 "http://www.w3.org/Graphics/SVG/1.1/DTD/svg11.dtd">
<!-- Generated by graphviz version 2.28.0 (20110622.2320)
 -->
<!-- Title: G Pages: 1 -->
<svg width="2772pt" height="260pt"
 viewBox="0.00 0.00 2772.00 260.00" xmlns="http://www.w3.org/2000/svg" xmlns:xlink="http://www.w3.org/1999/xlink">
<g id="graph1" class="graph" transform="scale(1 1) rotate(0) translate(4 256)">
<title>G</title>
<polygon fill="white" stroke="white" points="-4,5 -4,-256 2769,-256 2769,5 -4,5"/>
<!-- b0 -->
<g id="node1" class="node"><title>b0</title>
<a xlink:href="0005488" xlink:title="GO:0005488">
<ellipse fill="#dddddd" stroke="#dddddd" cx="1009" cy="-162" rx="61.1934" ry="18"/>
<text text-anchor="middle" x="1009" y="-157.8" font-family="Times,serif" font-size="14.00">GO:0005488</text>
</a>
</g>
<!-- r0 -->
<g id="node3" class="node"><title>r0</title>
<a xlink:href="0008289" xlink:title="GO:0008289 (1)">
<ellipse fill="#e98576" stroke="#e98576" cx="75" cy="-90" rx="75.2018" ry="18"/>
<text text-anchor="middle" x="75" y="-85.8" font-family="Times,serif" font-size="14.00">GO:0008289 (1)</text>
</a>
</g>
<!-- b0&#45;&gt;r0 -->
<g id="edge2" class="edge"><title>b0&#45;&gt;r0</title>
<path fill="none" stroke="black" d="M947.913,-160.066C807.835,-157.298 452.912,-146.718 159,-108 152.26,-107.112 145.251,-106 138.283,-104.771"/>
<polygon fill="black" stroke="black" points="138.608,-101.272 128.139,-102.901 137.338,-108.156 138.608,-101.272"/>
</g>
<!-- w0 -->
<g id="node8" class="node"><title>w0</title>
<a xlink:href="0019825" xlink:title="GO:0019825 (1)">
<ellipse fill="#e98576" stroke="#e98576" cx="243" cy="-90" rx="75.2018" ry="18"/>
<text text-anchor="middle" x="243" y="-85.8" font-family="Times,serif" font-size="14.00">GO:0019825 (1)</text>
</a>
</g>
<!-- b0&#45;&gt;w0 -->
<g id="edge6" class="edge"><title>b0&#45;&gt;w0</title>
<path fill="none" stroke="black" d="M948.521,-158.782C829.185,-153.857 555.184,-139.835 327,-108 320.267,-107.061 313.262,-105.915 306.297,-104.667"/>
<polygon fill="black" stroke="black" points="306.628,-101.169 296.156,-102.777 305.345,-108.05 306.628,-101.169"/>
</g>
<!-- k0 -->
<g id="node14" class="node"><title>k0</title>
<a xlink:href="0001882" xlink:title="GO:0001882 (3)">
<ellipse fill="#e98576" stroke="#e98576" cx="411" cy="-90" rx="75.2018" ry="18"/>
<text text-anchor="middle" x="411" y="-85.8" font-family="Times,serif" font-size="14.00">GO:0001882 (3)</text>
</a>
</g>
<!-- b0&#45;&gt;k0 -->
<g id="edge12" class="edge"><title>b0&#45;&gt;k0</title>
<path fill="none" stroke="black" d="M950.181,-156.8C854.434,-149.546 659.068,-133.001 495,-108 488.379,-106.991 481.488,-105.811 474.629,-104.552"/>
<polygon fill="black" stroke="black" points="475.112,-101.081 464.636,-102.661 473.81,-107.959 475.112,-101.081"/>
</g>
<!-- a0 -->
<g id="node16" class="node"><title>a0</title>
<a xlink:href="0005515" xlink:title="GO:0005515 (11)">
<ellipse fill="#e98576" stroke="#e98576" cx="584" cy="-90" rx="79.4447" ry="18"/>
<text text-anchor="middle" x="584" y="-85.8" font-family="Times,serif" font-size="14.00">GO:0005515 (11)</text>
</a>
</g>
<!-- b0&#45;&gt;a0 -->
<g id="edge14" class="edge"><title>b0&#45;&gt;a0</title>
<path fill="none" stroke="black" d="M955.665,-153.13C889.321,-143.216 772.628,-125.368 673,-108 666.336,-106.838 659.4,-105.587 652.471,-104.31"/>
<polygon fill="black" stroke="black" points="652.829,-100.816 642.357,-102.426 651.547,-107.698 652.829,-100.816"/>
</g>
<!-- d0 -->
<g id="node26" class="node"><title>d0</title>
<a xlink:href="0043167" xlink:title="GO:0043167 (7)">
<ellipse fill="#e98576" stroke="#e98576" cx="757" cy="-90" rx="75.2018" ry="18"/>
<text text-anchor="middle" x="757" y="-85.8" font-family="Times,serif" font-size="14.00">GO:0043167 (7)</text>
</a>
</g>
<!-- b0&#45;&gt;d0 -->
<g id="edge24" class="edge"><title>b0&#45;&gt;d0</title>
<path fill="none" stroke="black" d="M965.966,-149.046C924.057,-137.405 860.105,-119.64 813.988,-106.83"/>
<polygon fill="black" stroke="black" points="814.713,-103.399 804.141,-104.095 812.839,-110.143 814.713,-103.399"/>
</g>
<!-- x0 -->
<g id="node29" class="node"><title>x0</title>
<a xlink:href="0030246" xlink:title="GO:0030246 (1)">
<ellipse fill="#e98576" stroke="#e98576" cx="925" cy="-90" rx="75.2018" ry="18"/>
<text text-anchor="middle" x="925" y="-85.8" font-family="Times,serif" font-size="14.00">GO:0030246 (1)</text>
</a>
</g>
<!-- b0&#45;&gt;x0 -->
<g id="edge28" class="edge"><title>b0&#45;&gt;x0</title>
<path fill="none" stroke="black" d="M989.518,-144.765C978.57,-135.642 964.725,-124.105 952.67,-114.059"/>
<polygon fill="black" stroke="black" points="954.591,-111.103 944.668,-107.39 950.109,-116.48 954.591,-111.103"/>
</g>
<!-- g0 -->
<g id="node35" class="node"><title>g0</title>
<a xlink:href="0003676" xlink:title="GO:0003676 (6)">
<ellipse fill="#e98576" stroke="#e98576" cx="1093" cy="-90" rx="75.2018" ry="18"/>
<text text-anchor="middle" x="1093" y="-85.8" font-family="Times,serif" font-size="14.00">GO:0003676 (6)</text>
</a>
</g>
<!-- b0&#45;&gt;g0 -->
<g id="edge34" class="edge"><title>b0&#45;&gt;g0</title>
<path fill="none" stroke="black" d="M1028.48,-144.765C1039.43,-135.642 1053.27,-124.105 1065.33,-114.059"/>
<polygon fill="black" stroke="black" points="1067.89,-116.48 1073.33,-107.39 1063.41,-111.103 1067.89,-116.48"/>
</g>
<!-- o0 -->
<g id="node39" class="node"><title>o0</title>
<a xlink:href="0046906" xlink:title="GO:0046906 (2)">
<ellipse fill="#e98576" stroke="#e98576" cx="1261" cy="-90" rx="75.2018" ry="18"/>
<text text-anchor="middle" x="1261" y="-85.8" font-family="Times,serif" font-size="14.00">GO:0046906 (2)</text>
</a>
</g>
<!-- b0&#45;&gt;o0 -->
<g id="edge38" class="edge"><title>b0&#45;&gt;o0</title>
<path fill="none" stroke="black" d="M1052.03,-149.046C1093.94,-137.405 1157.9,-119.64 1204.01,-106.83"/>
<polygon fill="black" stroke="black" points="1205.16,-110.143 1213.86,-104.095 1203.29,-103.399 1205.16,-110.143"/>
</g>
<!-- j0 -->
<g id="node41" class="node"><title>j0</title>
<a xlink:href="0000166" xlink:title="GO:0000166 (4)">
<ellipse fill="#e98576" stroke="#e98576" cx="1429" cy="-90" rx="75.2018" ry="18"/>
<text text-anchor="middle" x="1429" y="-85.8" font-family="Times,serif" font-size="14.00">GO:0000166 (4)</text>
</a>
</g>
<!-- b0&#45;&gt;j0 -->
<g id="edge40" class="edge"><title>b0&#45;&gt;j0</title>
<path fill="none" stroke="black" d="M1062.66,-153.267C1129.08,-143.526 1245.61,-125.887 1345,-108 1351.25,-106.876 1357.74,-105.654 1364.23,-104.399"/>
<polygon fill="black" stroke="black" points="1365.25,-107.766 1374.39,-102.408 1363.9,-100.897 1365.25,-107.766"/>
</g>
<!-- v0 -->
<g id="node45" class="node"><title>v0</title>
<a xlink:href="0003682" xlink:title="GO:0003682 (1)">
<ellipse fill="#e98576" stroke="#e98576" cx="1597" cy="-90" rx="75.2018" ry="18"/>
<text text-anchor="middle" x="1597" y="-85.8" font-family="Times,serif" font-size="14.00">GO:0003682 (1)</text>
</a>
</g>
<!-- b0&#45;&gt;v0 -->
<g id="edge44" class="edge"><title>b0&#45;&gt;v0</title>
<path fill="none" stroke="black" d="M1067.82,-156.637C1162.11,-149.234 1352.77,-132.582 1513,-108 1519.62,-106.984 1526.51,-105.8 1533.37,-104.538"/>
<polygon fill="black" stroke="black" points="1534.19,-107.945 1543.36,-102.644 1532.89,-101.068 1534.19,-107.945"/>
</g>
<!-- s0 -->
<g id="node47" class="node"><title>s0</title>
<a xlink:href="0048037" xlink:title="GO:0048037 (1)">
<ellipse fill="#e98576" stroke="#e98576" cx="1765" cy="-90" rx="75.2018" ry="18"/>
<text text-anchor="middle" x="1765" y="-85.8" font-family="Times,serif" font-size="14.00">GO:0048037 (1)</text>
</a>
</g>
<!-- b0&#45;&gt;s0 -->
<g id="edge46" class="edge"><title>b0&#45;&gt;s0</title>
<path fill="none" stroke="black" d="M1069.5,-158.684C1187.57,-153.622 1456.74,-139.419 1681,-108 1687.73,-107.057 1694.74,-105.909 1701.7,-104.659"/>
<polygon fill="black" stroke="black" points="1702.65,-108.042 1711.84,-102.768 1701.37,-101.161 1702.65,-108.042"/>
</g>
<!-- c0 -->
<g id="node4" class="node"><title>c0</title>
<a xlink:href="0003674" xlink:title="GO:0003674 (1)">
<ellipse fill="#e98576" stroke="#e98576" cx="2269" cy="-234" rx="75.2018" ry="18"/>
<text text-anchor="middle" x="2269" y="-229.8" font-family="Times,serif" font-size="14.00">GO:0003674 (1)</text>
</a>
</g>
<!-- c0&#45;&gt;b0 -->
<g id="edge16" class="edge"><title>c0&#45;&gt;b0</title>
<path fill="none" stroke="black" d="M2196.73,-228.985C1973.72,-216.595 1298.14,-179.063 1078.67,-166.871"/>
<polygon fill="black" stroke="black" points="1078.75,-163.37 1068.57,-166.31 1078.36,-170.359 1078.75,-163.37"/>
</g>
<!-- p0 -->
<g id="node6" class="node"><title>p0</title>
<a xlink:href="0030234" xlink:title="GO:0030234 (1)">
<ellipse fill="#e98576" stroke="#e98576" cx="2017" cy="-162" rx="75.2018" ry="18"/>
<text text-anchor="middle" x="2017" y="-157.8" font-family="Times,serif" font-size="14.00">GO:0030234 (1)</text>
</a>
</g>
<!-- c0&#45;&gt;p0 -->
<g id="edge4" class="edge"><title>c0&#45;&gt;p0</title>
<path fill="none" stroke="black" d="M2221.9,-219.916C2180.05,-208.29 2118.76,-191.267 2074.13,-178.868"/>
<polygon fill="black" stroke="black" points="2074.87,-175.443 2064.3,-176.139 2073,-182.188 2074.87,-175.443"/>
</g>
<!-- f0 -->
<g id="node9" class="node"><title>f0</title>
<a xlink:href="0003824" xlink:title="GO:0003824 (4)">
<ellipse fill="#e98576" stroke="#e98576" cx="2185" cy="-162" rx="75.2018" ry="18"/>
<text text-anchor="middle" x="2185" y="-157.8" font-family="Times,serif" font-size="14.00">GO:0003824 (4)</text>
</a>
</g>
<!-- c0&#45;&gt;f0 -->
<g id="edge10" class="edge"><title>c0&#45;&gt;f0</title>
<path fill="none" stroke="black" d="M2249.09,-216.411C2238.21,-207.345 2224.57,-195.974 2212.67,-186.057"/>
<polygon fill="black" stroke="black" points="2214.69,-183.183 2204.76,-179.47 2210.21,-188.561 2214.69,-183.183"/>
</g>
<!-- t0 -->
<g id="node22" class="node"><title>t0</title>
<a xlink:href="0016209" xlink:title="GO:0016209 (1)">
<ellipse fill="#e98576" stroke="#e98576" cx="2353" cy="-162" rx="75.2018" ry="18"/>
<text text-anchor="middle" x="2353" y="-157.8" font-family="Times,serif" font-size="14.00">GO:0016209 (1)</text>
</a>
</g>
<!-- c0&#45;&gt;t0 -->
<g id="edge20" class="edge"><title>c0&#45;&gt;t0</title>
<path fill="none" stroke="black" d="M2288.91,-216.411C2299.79,-207.345 2313.43,-195.974 2325.33,-186.057"/>
<polygon fill="black" stroke="black" points="2327.79,-188.561 2333.24,-179.47 2323.31,-183.183 2327.79,-188.561"/>
</g>
<!-- l0 -->
<g id="node24" class="node"><title>l0</title>
<a xlink:href="0005215" xlink:title="GO:0005215 (2)">
<ellipse fill="#e98576" stroke="#e98576" cx="2521" cy="-162" rx="75.2018" ry="18"/>
<text text-anchor="middle" x="2521" y="-157.8" font-family="Times,serif" font-size="14.00">GO:0005215 (2)</text>
</a>
</g>
<!-- c0&#45;&gt;l0 -->
<g id="edge22" class="edge"><title>c0&#45;&gt;l0</title>
<path fill="none" stroke="black" d="M2316.1,-219.916C2357.95,-208.29 2419.24,-191.267 2463.87,-178.868"/>
<polygon fill="black" stroke="black" points="2465,-182.188 2473.7,-176.139 2463.13,-175.443 2465,-182.188"/>
</g>
<!-- h0 -->
<g id="node43" class="node"><title>h0</title>
<a xlink:href="0005198" xlink:title="GO:0005198 (5)">
<ellipse fill="#e98576" stroke="#e98576" cx="2689" cy="-162" rx="75.2018" ry="18"/>
<text text-anchor="middle" x="2689" y="-157.8" font-family="Times,serif" font-size="14.00">GO:0005198 (5)</text>
</a>
</g>
<!-- c0&#45;&gt;h0 -->
<g id="edge42" class="edge"><title>c0&#45;&gt;h0</title>
<path fill="none" stroke="black" d="M2331.68,-223.94C2399.27,-213.978 2509.97,-197.102 2605,-180 2611.25,-178.876 2617.74,-177.654 2624.23,-176.399"/>
<polygon fill="black" stroke="black" points="2625.25,-179.766 2634.39,-174.408 2623.9,-172.897 2625.25,-179.766"/>
</g>
<!-- u0 -->
<g id="node11" class="node"><title>u0</title>
<a xlink:href="0008641" xlink:title="GO:0008641 (1)">
<ellipse fill="#e98576" stroke="#e98576" cx="1933" cy="-90" rx="75.2018" ry="18"/>
<text text-anchor="middle" x="1933" y="-85.8" font-family="Times,serif" font-size="14.00">GO:0008641 (1)</text>
</a>
</g>
<!-- f0&#45;&gt;u0 -->
<g id="edge8" class="edge"><title>f0&#45;&gt;u0</title>
<path fill="none" stroke="black" d="M2137.9,-147.916C2096.05,-136.29 2034.76,-119.267 1990.13,-106.868"/>
<polygon fill="black" stroke="black" points="1990.87,-103.443 1980.3,-104.139 1989,-110.188 1990.87,-103.443"/>
</g>
<!-- e0 -->
<g id="node18" class="node"><title>e0</title>
<a xlink:href="0016787" xlink:title="GO:0016787 (7)">
<ellipse fill="#e98576" stroke="#e98576" cx="2101" cy="-90" rx="75.2018" ry="18"/>
<text text-anchor="middle" x="2101" y="-85.8" font-family="Times,serif" font-size="14.00">GO:0016787 (7)</text>
</a>
</g>
<!-- f0&#45;&gt;e0 -->
<g id="edge26" class="edge"><title>f0&#45;&gt;e0</title>
<path fill="none" stroke="black" d="M2165.09,-144.411C2154.21,-135.345 2140.57,-123.974 2128.67,-114.057"/>
<polygon fill="black" stroke="black" points="2130.69,-111.183 2120.76,-107.47 2126.21,-116.561 2130.69,-111.183"/>
</g>
<!-- m0 -->
<g id="node31" class="node"><title>m0</title>
<a xlink:href="0016740" xlink:title="GO:0016740 (2)">
<ellipse fill="#e98576" stroke="#e98576" cx="2269" cy="-90" rx="75.2018" ry="18"/>
<text text-anchor="middle" x="2269" y="-85.8" font-family="Times,serif" font-size="14.00">GO:0016740 (2)</text>
</a>
</g>
<!-- f0&#45;&gt;m0 -->
<g id="edge30" class="edge"><title>f0&#45;&gt;m0</title>
<path fill="none" stroke="black" d="M2204.91,-144.411C2215.79,-135.345 2229.43,-123.974 2241.33,-114.057"/>
<polygon fill="black" stroke="black" points="2243.79,-116.561 2249.24,-107.47 2239.31,-111.183 2243.79,-116.561"/>
</g>
<!-- q0 -->
<g id="node33" class="node"><title>q0</title>
<a xlink:href="0016874" xlink:title="GO:0016874 (1)">
<ellipse fill="#e98576" stroke="#e98576" cx="2437" cy="-90" rx="75.2018" ry="18"/>
<text text-anchor="middle" x="2437" y="-85.8" font-family="Times,serif" font-size="14.00">GO:0016874 (1)</text>
</a>
</g>
<!-- f0&#45;&gt;q0 -->
<g id="edge32" class="edge"><title>f0&#45;&gt;q0</title>
<path fill="none" stroke="black" d="M2232.1,-147.916C2273.95,-136.29 2335.24,-119.267 2379.87,-106.868"/>
<polygon fill="black" stroke="black" points="2381,-110.188 2389.7,-104.139 2379.13,-103.443 2381,-110.188"/>
</g>
<!-- n0 -->
<g id="node37" class="node"><title>n0</title>
<a xlink:href="0016491" xlink:title="GO:0016491 (2)">
<ellipse fill="#e98576" stroke="#e98576" cx="2605" cy="-90" rx="75.2018" ry="18"/>
<text text-anchor="middle" x="2605" y="-85.8" font-family="Times,serif" font-size="14.00">GO:0016491 (2)</text>
</a>
</g>
<!-- f0&#45;&gt;n0 -->
<g id="edge36" class="edge"><title>f0&#45;&gt;n0</title>
<path fill="none" stroke="black" d="M2239.59,-149.476C2249.36,-147.549 2259.47,-145.644 2269,-144 2380.49,-124.771 2409.51,-127.229 2521,-108 2527.25,-106.921 2533.76,-105.73 2540.25,-104.494"/>
<polygon fill="black" stroke="black" points="2541.26,-107.863 2550.41,-102.524 2539.93,-100.991 2541.26,-107.863"/>
</g>
<!-- i0 -->
<g id="node20" class="node"><title>i0</title>
<a xlink:href="0008233" xlink:title="GO:0008233 (4)">
<ellipse fill="#e98576" stroke="#e98576" cx="2101" cy="-18" rx="75.2018" ry="18"/>
<text text-anchor="middle" x="2101" y="-13.8" font-family="Times,serif" font-size="14.00">GO:0008233 (4)</text>
</a>
</g>
<!-- e0&#45;&gt;i0 -->
<g id="edge18" class="edge"><title>e0&#45;&gt;i0</title>
<path fill="none" stroke="black" d="M2101,-71.6966C2101,-63.9827 2101,-54.7125 2101,-46.1124"/>
<polygon fill="black" stroke="black" points="2104.5,-46.1043 2101,-36.1043 2097.5,-46.1044 2104.5,-46.1043"/>
</g>
</g>
</svg>
