<?xml version="1.0" encoding="UTF-8" standalone="no"?> 
<!DOCTYPE svg PUBLIC "-//W3C//DTD SVG 1.1//EN" 
 "http://www.w3.org/Graphics/SVG/1.1/DTD/svg11.dtd"> 
<!-- Generated by graphviz version 2.28.0 (20110622.2320) 
 --> 
<!-- Title: G Pages: 1 --> 
<svg width="2000" height="1000"  
 viewBox="-30 -50 2000 1000" xmlns="http://www.w3.org/2000/svg" xmlns:xlink="http://www.w3.org/1999/xlink"> 
<g id="graph1" class="graph" transform="scale(1 1) rotate(0) translate(4 688)"> 
<title>G</title> 
<polygon fill="white" stroke="white" points="-4,5 -4,-688 832,-688 832,5 -4,5"/> 
<!-- j0 --> 
<g id="node1" class="node"><title>j0</title> 
<a xlink:href="http://pir.georgetown.edu/cgi-bin/pt_graphvizView.pl?togoid=0005840" > 
<ellipse fill="#dddddd" stroke="#dddddd" cx="587" cy="-162" rx="61.1934" ry="18"/> 
<a xlink:href="http://pir.georgetown.edu/cgi-bin/pt_graphvizView.pl?togoid=0005840" ><text id="GO:0005840" onmousemove="changeToText('GO:0005840')" onmouseout="changeBackText('GO:0005840')"  text-anchor="middle" x="587" y="-157.8" font-family="Times,serif" font-size="14.00">GO:0005840</text></a>
 
</a> 
</g> 
<!-- i0 --> 
<g id="node3" class="node"><title>i0</title> 
<a xlink:href="http://pir.georgetown.edu/cgi-bin/pt_graphvizView.pl?togoid=0033279" > 
<ellipse fill="#dddddd" stroke="#dddddd" cx="587" cy="-90" rx="61.1934" ry="18"/> 
<a xlink:href="http://pir.georgetown.edu/cgi-bin/pt_graphvizView.pl?togoid=0033279" ><text id="GO:0033279" onmousemove="changeToText('GO:0033279')" onmouseout="changeBackText('GO:0033279')"  text-anchor="middle" x="587" y="-85.8" font-family="Times,serif" font-size="14.00">GO:0033279</text></a>
 
</a> 
</g> 
<!-- j0&#45;&gt;i0 --> 
<g id="edge2" class="edge"><title>j0&#45;&gt;i0</title> 
<path fill="none" stroke="black" d="M587,-143.697C587,-135.983 587,-126.712 587,-118.112"/> 
<polygon fill="black" stroke="black" points="590.5,-118.104 587,-108.104 583.5,-118.104 590.5,-118.104"/> 
</g> 
<!-- h0 --> 
<g id="node25" class="node"><title>h0</title> 
<ellipse fill="#e98576" stroke="#e98576" cx="653" cy="-18" rx="75.2018" ry="18"/> 
<a xlink:href="http://pir.georgetown.edu/cgi-bin/pt_graphvizView.pl?togoid=0015935" ><text id="GO:0015935" onmousemove="changeToText('GO:0015935')" onmouseout="changeBackText('GO:0015935')"  text-anchor="middle" x="653" y="-18.8" font-family="Times,serif" font-size="14.00">GO:0015935</text></a>
<a xlink:href="http://pir.georgetown.edu/cgi-bin/pt_graphvizView.pl?tofile=693535" ><text id="r693535" onmousemove="changeToText2('r693535', 1)" onmouseout="changeBackText2('r693535', 1)"  text-anchor="middle" x="653" y="-5.8" font-family="Times,serif" font-size="14.00">(1)</text>
 
</a> 
</g> 
<!-- i0&#45;&gt;h0 --> 
<g id="edge24" class="edge"><title>i0&#45;&gt;h0</title> 
<path fill="none" stroke="black" d="M602.641,-72.411C610.822,-63.7338 620.994,-52.946 630.049,-43.3418"/> 
<polygon fill="black" stroke="black" points="632.699,-45.6332 637.013,-35.9562 627.606,-40.8311 632.699,-45.6332"/> 
</g> 
<!-- k0 --> 
<g id="node4" class="node"><title>k0</title> 
<a xlink:href="http://pir.georgetown.edu/cgi-bin/pt_graphvizView.pl?togoid=0030529" > 
<ellipse fill="#dddddd" stroke="#dddddd" cx="676" cy="-234" rx="61.1934" ry="18"/> 
<a xlink:href="http://pir.georgetown.edu/cgi-bin/pt_graphvizView.pl?togoid=0030529" ><text id="GO:0030529" onmousemove="changeToText('GO:0030529')" onmouseout="changeBackText('GO:0030529')"  text-anchor="middle" x="676" y="-229.8" font-family="Times,serif" font-size="14.00">GO:0030529</text></a>
 
</a> 
</g> 
<!-- k0&#45;&gt;j0 --> 
<g id="edge54" class="edge"><title>k0&#45;&gt;j0</title> 
<path fill="none" stroke="black" d="M655.358,-216.765C643.563,-207.488 628.594,-195.714 615.672,-185.551"/> 
<polygon fill="black" stroke="black" points="617.554,-182.578 607.53,-179.147 613.227,-188.081 617.554,-182.578"/> 
</g> 
<!-- k0&#45;&gt;i0 --> 
<g id="edge4" class="edge"><title>k0&#45;&gt;i0</title> 
<path fill="none" stroke="black" d="M675.826,-215.94C674.886,-196.982 671.076,-166.13 657,-144 648.757,-131.042 636.161,-120.074 623.914,-111.537"/> 
<polygon fill="black" stroke="black" points="625.824,-108.604 615.549,-106.021 621.97,-114.448 625.824,-108.604"/> 
</g> 
<!-- q0 --> 
<g id="node6" class="node"><title>q0</title> 
<a xlink:href="http://pir.georgetown.edu/cgi-bin/pt_graphvizView.pl?togoid=0044444" > 
<ellipse fill="#dddddd" stroke="#dddddd" cx="535" cy="-234" rx="61.1934" ry="18"/> 
<a xlink:href="http://pir.georgetown.edu/cgi-bin/pt_graphvizView.pl?togoid=0044444" ><text id="GO:0044444" onmousemove="changeToText('GO:0044444')" onmouseout="changeBackText('GO:0044444')"  text-anchor="middle" x="535" y="-229.8" font-family="Times,serif" font-size="14.00">GO:0044444</text></a>
 
</a> 
</g> 
<!-- q0&#45;&gt;j0 --> 
<g id="edge58" class="edge"><title>q0&#45;&gt;j0</title> 
<path fill="none" stroke="black" d="M547.588,-216.055C553.847,-207.629 561.535,-197.28 568.454,-187.966"/> 
<polygon fill="black" stroke="black" points="571.375,-189.904 574.528,-179.789 565.755,-185.729 571.375,-189.904"/> 
</g> 
<!-- q0&#45;&gt;i0 --> 
<g id="edge6" class="edge"><title>q0&#45;&gt;i0</title> 
<path fill="none" stroke="black" d="M525.404,-216.087C516.245,-197.531 505.421,-167.291 517,-144 523.662,-130.6 535.508,-119.683 547.584,-111.316"/> 
<polygon fill="black" stroke="black" points="549.832,-114.031 556.346,-105.674 546.043,-108.145 549.832,-114.031"/> 
</g> 
<!-- r0 --> 
<g id="node8" class="node"><title>r0</title> 
<a xlink:href="http://pir.georgetown.edu/cgi-bin/pt_graphvizView.pl?togoid=0044446" > 
<ellipse fill="#dddddd" stroke="#dddddd" cx="394" cy="-234" rx="61.1934" ry="18"/> 
<a xlink:href="http://pir.georgetown.edu/cgi-bin/pt_graphvizView.pl?togoid=0044446" ><text id="GO:0044446" onmousemove="changeToText('GO:0044446')" onmouseout="changeBackText('GO:0044446')"  text-anchor="middle" x="394" y="-229.8" font-family="Times,serif" font-size="14.00">GO:0044446</text></a>
 
</a> 
</g> 
<!-- r0&#45;&gt;i0 --> 
<g id="edge8" class="edge"><title>r0&#45;&gt;i0</title> 
<path fill="none" stroke="black" d="M413.847,-216.8C436.332,-198.614 474.245,-168.451 508,-144 522.953,-133.168 539.913,-121.689 554.274,-112.194"/> 
<polygon fill="black" stroke="black" points="556.407,-114.981 562.839,-106.562 552.561,-109.132 556.407,-114.981"/> 
</g> 
<!-- b0 --> 
<g id="node10" class="node"><title>b0</title> 
<a xlink:href="http://pir.georgetown.edu/cgi-bin/pt_graphvizView.pl?togoid=0044424" > 
<ellipse fill="#dddddd" stroke="#dddddd" cx="451" cy="-378" rx="61.1934" ry="18"/> 
<a xlink:href="http://pir.georgetown.edu/cgi-bin/pt_graphvizView.pl?togoid=0044424" ><text id="GO:0044424" onmousemove="changeToText('GO:0044424')" onmouseout="changeBackText('GO:0044424')"  text-anchor="middle" x="451" y="-373.8" font-family="Times,serif" font-size="14.00">GO:0044424</text></a>
 
</a> 
</g> 
<!-- b0&#45;&gt;k0 --> 
<g id="edge62" class="edge"><title>b0&#45;&gt;k0</title> 
<path fill="none" stroke="black" d="M505.55,-369.541C559.3,-361.076 636.292,-345.585 657,-324 672.597,-307.742 676.713,-281.983 677.3,-262.351"/> 
<polygon fill="black" stroke="black" points="680.8,-262.179 677.313,-252.174 673.8,-262.17 680.8,-262.179"/> 
</g> 
<!-- b0&#45;&gt;q0 --> 
<g id="edge42" class="edge"><title>b0&#45;&gt;q0</title> 
<path fill="none" stroke="black" d="M456.532,-359.828C462.899,-341.313 474.383,-311.357 489,-288 495.334,-277.878 503.56,-267.739 511.3,-259.079"/> 
<polygon fill="black" stroke="black" points="514.003,-261.311 518.205,-251.585 508.855,-256.568 514.003,-261.311"/> 
</g> 
<!-- b0&#45;&gt;r0 --> 
<g id="edge52" class="edge"><title>b0&#45;&gt;r0</title> 
<path fill="none" stroke="black" d="M444.124,-359.871C434.324,-335.457 416.248,-290.426 404.692,-261.635"/> 
<polygon fill="black" stroke="black" points="407.873,-260.166 400.9,-252.189 401.377,-262.773 407.873,-260.166"/> 
</g> 
<!-- a0 --> 
<g id="node12" class="node"><title>a0</title> 
<ellipse fill="#e98576" stroke="#e98576" cx="573" cy="-306" rx="75.2018" ry="18"/> 
<a xlink:href="http://pir.georgetown.edu/cgi-bin/pt_graphvizView.pl?togoid=0005737" ><text id="GO:0005737" onmousemove="changeToText('GO:0005737')" onmouseout="changeBackText('GO:0005737')"  text-anchor="middle" x="573" y="-306.8" font-family="Times,serif" font-size="14.00">GO:0005737</text></a>
<a xlink:href="http://pir.georgetown.edu/cgi-bin/pt_graphvizView.pl?tofile=693531" ><text id="r693531" onmousemove="changeToText2('r693531', 4)" onmouseout="changeBackText2('r693531', 4)"  text-anchor="middle" x="573" y="-293.8" font-family="Times,serif" font-size="14.00">(4)</text>
 
</a> 
</g> 
<!-- b0&#45;&gt;a0 --> 
<g id="edge10" class="edge"><title>b0&#45;&gt;a0</title> 
<path fill="none" stroke="black" d="M477.773,-361.638C495.013,-351.747 517.645,-338.761 536.52,-327.931"/> 
<polygon fill="black" stroke="black" points="538.512,-330.824 545.444,-322.811 535.028,-324.752 538.512,-330.824"/> 
</g> 
<!-- p0 --> 
<g id="node19" class="node"><title>p0</title> 
<a xlink:href="http://pir.georgetown.edu/cgi-bin/pt_graphvizView.pl?togoid=0043229" > 
<ellipse fill="#dddddd" stroke="#dddddd" cx="343" cy="-306" rx="61.1934" ry="18"/> 
<a xlink:href="http://pir.georgetown.edu/cgi-bin/pt_graphvizView.pl?togoid=0043229" ><text id="GO:0043229" onmousemove="changeToText('GO:0043229')" onmouseout="changeBackText('GO:0043229')"  text-anchor="middle" x="343" y="-301.8" font-family="Times,serif" font-size="14.00">GO:0043229</text></a>
 
</a> 
</g> 
<!-- b0&#45;&gt;p0 --> 
<g id="edge18" class="edge"><title>b0&#45;&gt;p0</title> 
<path fill="none" stroke="black" d="M426.763,-361.291C411.755,-351.564 392.287,-338.946 375.897,-328.322"/> 
<polygon fill="black" stroke="black" points="377.452,-325.159 367.156,-322.657 373.644,-331.033 377.452,-325.159"/> 
</g> 
<!-- a0&#45;&gt;q0 --> 
<g id="edge40" class="edge"><title>a0&#45;&gt;q0</title> 
<path fill="none" stroke="black" d="M563.801,-288.055C559.432,-280.007 554.111,-270.205 549.237,-261.226"/> 
<polygon fill="black" stroke="black" points="552.225,-259.394 544.378,-252.275 546.073,-262.734 552.225,-259.394"/> 
</g> 
<!-- e0 --> 
<g id="node13" class="node"><title>e0</title> 
<a xlink:href="http://pir.georgetown.edu/cgi-bin/pt_graphvizView.pl?togoid=0005575" > 
<ellipse fill="#dddddd" stroke="#dddddd" cx="336" cy="-666" rx="61.1934" ry="18"/> 
<a xlink:href="http://pir.georgetown.edu/cgi-bin/pt_graphvizView.pl?togoid=0005575" ><text id="GO:0005575" onmousemove="changeToText('GO:0005575')" onmouseout="changeBackText('GO:0005575')"  text-anchor="middle" x="336" y="-661.8" font-family="Times,serif" font-size="14.00">GO:0005575</text></a>
 
</a> 
</g> 
<!-- s0 --> 
<g id="node15" class="node"><title>s0</title> 
<a xlink:href="http://pir.georgetown.edu/cgi-bin/pt_graphvizView.pl?togoid=0044422" > 
<ellipse fill="#dddddd" stroke="#dddddd" cx="61" cy="-306" rx="61.1934" ry="18"/> 
<a xlink:href="http://pir.georgetown.edu/cgi-bin/pt_graphvizView.pl?togoid=0044422" ><text id="GO:0044422" onmousemove="changeToText('GO:0044422')" onmouseout="changeBackText('GO:0044422')"  text-anchor="middle" x="61" y="-301.8" font-family="Times,serif" font-size="14.00">GO:0044422</text></a>
 
</a> 
</g> 
<!-- e0&#45;&gt;s0 --> 
<g id="edge12" class="edge"><title>e0&#45;&gt;s0</title> 
<path fill="none" stroke="black" d="M281.466,-657.598C209.822,-644.457 93,-609.731 93,-523 93,-523 93,-523 93,-449 93,-408.037 80.1707,-362.018 70.7586,-333.768"/> 
<polygon fill="black" stroke="black" points="74.0334,-332.528 67.4757,-324.207 67.4128,-334.801 74.0334,-332.528"/> 
</g> 
<!-- o0 --> 
<g id="node16" class="node"><title>o0</title> 
<a xlink:href="http://pir.georgetown.edu/cgi-bin/pt_graphvizView.pl?togoid=0043226" > 
<ellipse fill="#dddddd" stroke="#dddddd" cx="208" cy="-378" rx="61.1934" ry="18"/> 
<a xlink:href="http://pir.georgetown.edu/cgi-bin/pt_graphvizView.pl?togoid=0043226" ><text id="GO:0043226" onmousemove="changeToText('GO:0043226')" onmouseout="changeBackText('GO:0043226')"  text-anchor="middle" x="208" y="-373.8" font-family="Times,serif" font-size="14.00">GO:0043226</text></a>
 
</a> 
</g> 
<!-- e0&#45;&gt;o0 --> 
<g id="edge20" class="edge"><title>e0&#45;&gt;o0</title> 
<path fill="none" stroke="black" d="M307.664,-649.841C293.16,-640.703 276.411,-627.776 266,-612 222.954,-546.776 211.85,-452.128 208.99,-406.129"/> 
<polygon fill="black" stroke="black" points="212.479,-405.842 208.448,-396.044 205.489,-406.217 212.479,-405.842"/> 
</g> 
<!-- f0 --> 
<g id="node23" class="node"><title>f0</title> 
<a xlink:href="http://pir.georgetown.edu/cgi-bin/pt_graphvizView.pl?togoid=0005623" > 
<ellipse fill="#dddddd" stroke="#dddddd" cx="336" cy="-594" rx="61.1934" ry="18"/> 
<a xlink:href="http://pir.georgetown.edu/cgi-bin/pt_graphvizView.pl?togoid=0005623" ><text id="GO:0005623" onmousemove="changeToText('GO:0005623')" onmouseout="changeBackText('GO:0005623')"  text-anchor="middle" x="336" y="-589.8" font-family="Times,serif" font-size="14.00">GO:0005623</text></a>
 
</a> 
</g> 
<!-- e0&#45;&gt;f0 --> 
<g id="edge22" class="edge"><title>e0&#45;&gt;f0</title> 
<path fill="none" stroke="black" d="M336,-647.697C336,-639.983 336,-630.712 336,-622.112"/> 
<polygon fill="black" stroke="black" points="339.5,-622.104 336,-612.104 332.5,-622.104 339.5,-622.104"/> 
</g> 
<!-- d0 --> 
<g id="node29" class="node"><title>d0</title> 
<ellipse fill="#e98576" stroke="#e98576" cx="425" cy="-522" rx="75.2018" ry="18"/> 
<a xlink:href="http://pir.georgetown.edu/cgi-bin/pt_graphvizView.pl?togoid=0044464" ><text id="GO:0044464" onmousemove="changeToText('GO:0044464')" onmouseout="changeBackText('GO:0044464')"  text-anchor="middle" x="425" y="-522.8" font-family="Times,serif" font-size="14.00">GO:0044464</text></a>
<a xlink:href="http://pir.georgetown.edu/cgi-bin/pt_graphvizView.pl?tofile=693537" ><text id="r693537" onmousemove="changeToText2('r693537', 1)" onmouseout="changeBackText2('r693537', 1)"  text-anchor="middle" x="425" y="-509.8" font-family="Times,serif" font-size="14.00">(1)</text>
 
</a> 
</g> 
<!-- e0&#45;&gt;d0 --> 
<g id="edge28" class="edge"><title>e0&#45;&gt;d0</title> 
<path fill="none" stroke="black" d="M364.549,-649.979C379.115,-640.882 395.855,-627.949 406,-612 417.767,-593.501 422.36,-568.907 424.099,-550.261"/> 
<polygon fill="black" stroke="black" points="427.606,-550.284 424.826,-540.06 420.624,-549.786 427.606,-550.284"/> 
</g> 
<!-- l0 --> 
<g id="node36" class="node"><title>l0</title> 
<a xlink:href="http://pir.georgetown.edu/cgi-bin/pt_graphvizView.pl?togoid=0032991" > 
<ellipse fill="#dddddd" stroke="#dddddd" cx="765" cy="-306" rx="61.1934" ry="18"/> 
<a xlink:href="http://pir.georgetown.edu/cgi-bin/pt_graphvizView.pl?togoid=0032991" ><text id="GO:0032991" onmousemove="changeToText('GO:0032991')" onmouseout="changeBackText('GO:0032991')"  text-anchor="middle" x="765" y="-301.8" font-family="Times,serif" font-size="14.00">GO:0032991</text></a>
 
</a> 
</g> 
<!-- e0&#45;&gt;l0 --> 
<g id="edge38" class="edge"><title>e0&#45;&gt;l0</title> 
<path fill="none" stroke="black" d="M390.869,-657.735C502.59,-641.402 746,-597.293 746,-523 746,-523 746,-523 746,-449 746,-408.86 753.551,-362.897 759.132,-334.405"/> 
<polygon fill="black" stroke="black" points="762.606,-334.883 761.155,-324.388 755.745,-333.498 762.606,-334.883"/> 
</g> 
<!-- s0&#45;&gt;r0 --> 
<g id="edge50" class="edge"><title>s0&#45;&gt;r0</title> 
<path fill="none" stroke="black" d="M106.377,-293.787C114.875,-291.786 123.696,-289.776 132,-288 216.474,-269.937 238.526,-270.063 323,-252 328.06,-250.918 333.313,-249.749 338.567,-248.547"/> 
<polygon fill="black" stroke="black" points="339.674,-251.884 348.623,-246.213 338.091,-245.065 339.674,-251.884"/> 
</g> 
<!-- o0&#45;&gt;s0 --> 
<g id="edge14" class="edge"><title>o0&#45;&gt;s0</title> 
<path fill="none" stroke="black" d="M177.184,-362.326C155.036,-351.779 124.974,-337.464 100.978,-326.037"/> 
<polygon fill="black" stroke="black" points="102.309,-322.794 91.7754,-321.655 99.2993,-329.114 102.309,-322.794"/> 
</g> 
<!-- o0&#45;&gt;p0 --> 
<g id="edge16" class="edge"><title>o0&#45;&gt;p0</title> 
<path fill="none" stroke="black" d="M236.961,-361.983C256.891,-351.649 283.563,-337.819 305.171,-326.615"/> 
<polygon fill="black" stroke="black" points="306.821,-329.702 314.087,-321.992 303.598,-323.488 306.821,-329.702"/> 
</g> 
<!-- n0 --> 
<g id="node40" class="node"><title>n0</title> 
<a xlink:href="http://pir.georgetown.edu/cgi-bin/pt_graphvizView.pl?togoid=0043228" > 
<ellipse fill="#dddddd" stroke="#dddddd" cx="202" cy="-306" rx="61.1934" ry="18"/> 
<a xlink:href="http://pir.georgetown.edu/cgi-bin/pt_graphvizView.pl?togoid=0043228" ><text id="GO:0043228" onmousemove="changeToText('GO:0043228')" onmouseout="changeBackText('GO:0043228')"  text-anchor="middle" x="202" y="-301.8" font-family="Times,serif" font-size="14.00">GO:0043228</text></a>
 
</a> 
</g> 
<!-- o0&#45;&gt;n0 --> 
<g id="edge44" class="edge"><title>o0&#45;&gt;n0</title> 
<path fill="none" stroke="black" d="M206.517,-359.697C205.856,-351.983 205.061,-342.712 204.324,-334.112"/> 
<polygon fill="black" stroke="black" points="207.807,-333.769 203.466,-324.104 200.833,-334.367 207.807,-333.769"/> 
</g> 
<!-- p0&#45;&gt;r0 --> 
<g id="edge48" class="edge"><title>p0&#45;&gt;r0</title> 
<path fill="none" stroke="black" d="M355.346,-288.055C361.485,-279.629 369.025,-269.28 375.81,-259.966"/> 
<polygon fill="black" stroke="black" points="378.708,-261.932 381.768,-251.789 373.051,-257.81 378.708,-261.932"/> 
</g> 
<!-- m0 --> 
<g id="node47" class="node"><title>m0</title> 
<a xlink:href="http://pir.georgetown.edu/cgi-bin/pt_graphvizView.pl?togoid=0043232" > 
<ellipse fill="#dddddd" stroke="#dddddd" cx="253" cy="-234" rx="61.1934" ry="18"/> 
<a xlink:href="http://pir.georgetown.edu/cgi-bin/pt_graphvizView.pl?togoid=0043232" ><text id="GO:0043232" onmousemove="changeToText('GO:0043232')" onmouseout="changeBackText('GO:0043232')"  text-anchor="middle" x="253" y="-229.8" font-family="Times,serif" font-size="14.00">GO:0043232</text></a>
 
</a> 
</g> 
<!-- p0&#45;&gt;m0 --> 
<g id="edge68" class="edge"><title>p0&#45;&gt;m0</title> 
<path fill="none" stroke="black" d="M322.126,-288.765C310.199,-279.488 295.061,-267.714 281.994,-257.551"/> 
<polygon fill="black" stroke="black" points="283.803,-254.524 273.761,-251.147 279.506,-260.049 283.803,-254.524"/> 
</g> 
<!-- f0&#45;&gt;d0 --> 
<g id="edge30" class="edge"><title>f0&#45;&gt;d0</title> 
<path fill="none" stroke="black" d="M356.642,-576.765C368.352,-567.554 383.192,-555.882 396.051,-545.769"/> 
<polygon fill="black" stroke="black" points="398.465,-548.323 404.162,-539.39 394.138,-542.821 398.465,-548.323"/> 
</g> 
<!-- t0 --> 
<g id="node26" class="node"><title>t0</title> 
<a xlink:href="http://pir.georgetown.edu/cgi-bin/pt_graphvizView.pl?togoid=0043234" > 
<ellipse fill="#dddddd" stroke="#dddddd" cx="765" cy="-162" rx="61.1934" ry="18"/> 
<a xlink:href="http://pir.georgetown.edu/cgi-bin/pt_graphvizView.pl?togoid=0043234" ><text id="GO:0043234" onmousemove="changeToText('GO:0043234')" onmouseout="changeBackText('GO:0043234')"  text-anchor="middle" x="765" y="-157.8" font-family="Times,serif" font-size="14.00">GO:0043234</text></a>
 
</a> 
</g> 
<!-- t0&#45;&gt;h0 --> 
<g id="edge26" class="edge"><title>t0&#45;&gt;h0</title> 
<path fill="none" stroke="black" d="M751.712,-144.153C732.094,-119.279 695.255,-72.5736 672.551,-43.7875"/> 
<polygon fill="black" stroke="black" points="675.211,-41.5091 666.27,-35.825 669.715,-45.8442 675.211,-41.5091"/> 
</g> 
<!-- d0&#45;&gt;b0 --> 
<g id="edge34" class="edge"><title>d0&#45;&gt;b0</title> 
<path fill="none" stroke="black" d="M405.985,-504.383C396.516,-494.819 386.035,-481.948 381,-468 375.567,-452.951 373.877,-446.327 381,-432 387.662,-418.6 399.508,-407.683 411.584,-399.316"/> 
<polygon fill="black" stroke="black" points="413.832,-402.031 420.346,-393.674 410.043,-396.145 413.832,-402.031"/> 
</g> 
<!-- c0 --> 
<g id="node31" class="node"><title>c0</title> 
<a xlink:href="http://pir.georgetown.edu/cgi-bin/pt_graphvizView.pl?togoid=0005622" > 
<ellipse fill="#dddddd" stroke="#dddddd" cx="451" cy="-450" rx="61.1934" ry="18"/> 
<a xlink:href="http://pir.georgetown.edu/cgi-bin/pt_graphvizView.pl?togoid=0005622" ><text id="GO:0005622" onmousemove="changeToText('GO:0005622')" onmouseout="changeBackText('GO:0005622')"  text-anchor="middle" x="451" y="-445.8" font-family="Times,serif" font-size="14.00">GO:0005622</text></a>
 
</a> 
</g> 
<!-- d0&#45;&gt;c0 --> 
<g id="edge36" class="edge"><title>d0&#45;&gt;c0</title> 
<path fill="none" stroke="black" d="M431.294,-504.055C434.22,-496.176 437.771,-486.617 441.048,-477.794"/> 
<polygon fill="black" stroke="black" points="444.383,-478.868 444.583,-468.275 437.821,-476.431 444.383,-478.868"/> 
</g> 
<!-- g0 --> 
<g id="node42" class="node"><title>g0</title> 
<ellipse fill="#e98576" stroke="#e98576" cx="606" cy="-450" rx="75.2018" ry="18"/> 
<a xlink:href="http://pir.georgetown.edu/cgi-bin/pt_graphvizView.pl?togoid=0016020" ><text id="GO:0016020" onmousemove="changeToText('GO:0016020')" onmouseout="changeBackText('GO:0016020')"  text-anchor="middle" x="606" y="-450.8" font-family="Times,serif" font-size="14.00">GO:0016020</text></a>
<a xlink:href="http://pir.georgetown.edu/cgi-bin/pt_graphvizView.pl?tofile=693533" ><text id="r693533" onmousemove="changeToText2('r693533', 1)" onmouseout="changeBackText2('r693533', 1)"  text-anchor="middle" x="606" y="-437.8" font-family="Times,serif" font-size="14.00">(1)</text>
 
</a> 
</g> 
<!-- d0&#45;&gt;g0 --> 
<g id="edge46" class="edge"><title>d0&#45;&gt;g0</title> 
<path fill="none" stroke="black" d="M462.944,-506.326C490.818,-495.545 528.872,-480.828 558.725,-469.283"/> 
<polygon fill="black" stroke="black" points="560.042,-472.526 568.106,-465.655 557.517,-465.998 560.042,-472.526"/> 
</g> 
<!-- c0&#45;&gt;b0 --> 
<g id="edge32" class="edge"><title>c0&#45;&gt;b0</title> 
<path fill="none" stroke="black" d="M451,-431.697C451,-423.983 451,-414.712 451,-406.112"/> 
<polygon fill="black" stroke="black" points="454.5,-406.104 451,-396.104 447.5,-406.104 454.5,-406.104"/> 
</g> 
<!-- l0&#45;&gt;k0 --> 
<g id="edge60" class="edge"><title>l0&#45;&gt;k0</title> 
<path fill="none" stroke="black" d="M744.358,-288.765C732.563,-279.488 717.594,-267.714 704.672,-257.551"/> 
<polygon fill="black" stroke="black" points="706.554,-254.578 696.53,-251.147 702.227,-260.081 706.554,-254.578"/> 
</g> 
<!-- l0&#45;&gt;t0 --> 
<g id="edge64" class="edge"><title>l0&#45;&gt;t0</title> 
<path fill="none" stroke="black" d="M765,-287.871C765,-263.67 765,-219.211 765,-190.393"/> 
<polygon fill="black" stroke="black" points="768.5,-190.189 765,-180.189 761.5,-190.189 768.5,-190.189"/> 
</g> 
<!-- n0&#45;&gt;m0 --> 
<g id="edge66" class="edge"><title>n0&#45;&gt;m0</title> 
<path fill="none" stroke="black" d="M214.346,-288.055C220.485,-279.629 228.025,-269.28 234.81,-259.966"/> 
<polygon fill="black" stroke="black" points="237.708,-261.932 240.768,-251.789 232.051,-257.81 237.708,-261.932"/> 
</g> 
<!-- m0&#45;&gt;j0 --> 
<g id="edge56" class="edge"><title>m0&#45;&gt;j0</title> 
<path fill="none" stroke="black" d="M298.395,-221.873C306.891,-219.863 315.707,-217.828 324,-216 393.439,-200.695 473.587,-184.797 526.978,-174.455"/> 
<polygon fill="black" stroke="black" points="527.803,-177.86 536.957,-172.526 526.475,-170.987 527.803,-177.86"/> 
</g> 
</g> 
<text text-anchor="left" x="4" y="-20" style="font-family:Arial Narrow;font-size:20.00;font-weight:bold;">GO Hierarchical View:</text> 

<text text-anchor="left" x="4" y="0" style="font-family:Arial Narrow;font-size:20.00;font-style:italic;">cellular component</text> 

<script type="text/ecmascript"> 
<![CDATA[ 
var targetText; 
function changeToText(z) { 
		targetText = svgDocument.getElementById(z).firstChild; 
		targetText.nodeValue="link to "+z; 
} 
function changeBackText(z) { 
		targetText = svgDocument.getElementById(z).firstChild; 
		targetText.nodeValue=z; 
} 
function changeToText2(z,n) { 
		targetText = svgDocument.getElementById(z).firstChild; 
		if (n<=1) { 
			targetText.nodeValue="link to " + n + " protein record"; 
		} else { 
			targetText.nodeValue="link to " + n + " protein records"; 
		} 
} 
function changeBackText2(z,n) { 
		targetText = svgDocument.getElementById(z).firstChild; 
		targetText.nodeValue="(" + n + ")"; 
} 
// ]]> 
</script> 
</svg> 
