<?xml version="1.0" encoding="UTF-8" standalone="no"?> 
<!DOCTYPE svg PUBLIC "-//W3C//DTD SVG 1.1//EN" 
 "http://www.w3.org/Graphics/SVG/1.1/DTD/svg11.dtd"> 
<!-- Generated by graphviz version 2.28.0 (20110622.2320) 
 --> 
<!-- Title: G Pages: 1 --> 
<svg width="2000" height="1000"  
 viewBox="-30 -50 2000 1000" xmlns="http://www.w3.org/2000/svg" xmlns:xlink="http://www.w3.org/1999/xlink"> 
<g id="graph1" class="graph" transform="scale(1 1) rotate(0) translate(4 256)"> 
<title>G</title> 
<polygon fill="white" stroke="white" points="-4,5 -4,-256 2201,-256 2201,5 -4,5"/> 
<!-- c0 --> 
<g id="node1" class="node"><title>c0</title> 
<ellipse fill="#e98576" stroke="#e98576" cx="1088" cy="-234" rx="75.2018" ry="18"/> 
<a xlink:href="http://pir.georgetown.edu/cgi-bin/pt_graphvizView.pl?togoid=0003674" ><text id="GO:0003674" onmousemove="changeToText('GO:0003674')" onmouseout="changeBackText('GO:0003674')"  text-anchor="middle" x="1088" y="-234.8" font-family="Times,serif" font-size="14.00">GO:0003674</text></a>
<a xlink:href="http://pir.georgetown.edu/cgi-bin/pt_graphvizView.pl?tofile=390783" ><text id="r390783" onmousemove="changeToText2('r390783', 3)" onmouseout="changeBackText2('r390783', 3)"  text-anchor="middle" x="1088" y="-221.8" font-family="Times,serif" font-size="14.00">(3)</text>
 
</a> 
</g> 
<!-- q0 --> 
<g id="node3" class="node"><title>q0</title> 
<ellipse fill="#e98576" stroke="#e98576" cx="336" cy="-162" rx="75.2018" ry="18"/> 
<a xlink:href="http://pir.georgetown.edu/cgi-bin/pt_graphvizView.pl?togoid=0045182" ><text id="GO:0045182" onmousemove="changeToText('GO:0045182')" onmouseout="changeBackText('GO:0045182')"  text-anchor="middle" x="336" y="-162.8" font-family="Times,serif" font-size="14.00">GO:0045182</text></a>
<a xlink:href="http://pir.georgetown.edu/cgi-bin/pt_graphvizView.pl?tofile=390793" ><text id="r390793" onmousemove="changeToText2('r390793', 1)" onmouseout="changeBackText2('r390793', 1)"  text-anchor="middle" x="336" y="-149.8" font-family="Times,serif" font-size="14.00">(1)</text>
 
</a> 
</g> 
<!-- c0&#45;&gt;q0 --> 
<g id="edge2" class="edge"><title>c0&#45;&gt;q0</title> 
<path fill="none" stroke="black" d="M1014.54,-230.069C891.195,-224.502 634.862,-210.154 420,-180 413.268,-179.055 406.264,-177.906 399.298,-176.656"/> 
<polygon fill="black" stroke="black" points="399.63,-173.158 389.158,-174.764 398.346,-180.039 399.63,-173.158"/> 
</g> 
<!-- o0 --> 
<g id="node5" class="node"><title>o0</title> 
<ellipse fill="#e98576" stroke="#e98576" cx="504" cy="-162" rx="75.2018" ry="18"/> 
<a xlink:href="http://pir.georgetown.edu/cgi-bin/pt_graphvizView.pl?togoid=0030234" ><text id="GO:0030234" onmousemove="changeToText('GO:0030234')" onmouseout="changeBackText('GO:0030234')"  text-anchor="middle" x="504" y="-162.8" font-family="Times,serif" font-size="14.00">GO:0030234</text></a>
<a xlink:href="http://pir.georgetown.edu/cgi-bin/pt_graphvizView.pl?tofile=390789" ><text id="r390789" onmousemove="changeToText2('r390789', 1)" onmouseout="changeBackText2('r390789', 1)"  text-anchor="middle" x="504" y="-149.8" font-family="Times,serif" font-size="14.00">(1)</text>
 
</a> 
</g> 
<!-- c0&#45;&gt;o0 --> 
<g id="edge4" class="edge"><title>c0&#45;&gt;o0</title> 
<path fill="none" stroke="black" d="M1017.35,-227.619C920.252,-219.744 740.279,-203.427 588,-180 581.38,-178.982 574.491,-177.796 567.632,-176.533"/> 
<polygon fill="black" stroke="black" points="568.116,-173.062 557.639,-174.638 566.812,-179.94 568.116,-173.062"/> 
</g> 
<!-- h0 --> 
<g id="node6" class="node"><title>h0</title> 
<ellipse fill="#e98576" stroke="#e98576" cx="672" cy="-162" rx="75.2018" ry="18"/> 
<a xlink:href="http://pir.georgetown.edu/cgi-bin/pt_graphvizView.pl?togoid=0003824" ><text id="GO:0003824" onmousemove="changeToText('GO:0003824')" onmouseout="changeBackText('GO:0003824')"  text-anchor="middle" x="672" y="-162.8" font-family="Times,serif" font-size="14.00">GO:0003824</text></a>
<a xlink:href="http://pir.georgetown.edu/cgi-bin/pt_graphvizView.pl?tofile=390803" ><text id="r390803" onmousemove="changeToText2('r390803', 1)" onmouseout="changeBackText2('r390803', 1)"  text-anchor="middle" x="672" y="-149.8" font-family="Times,serif" font-size="14.00">(1)</text>
 
</a> 
</g> 
<!-- c0&#45;&gt;h0 --> 
<g id="edge12" class="edge"><title>c0&#45;&gt;h0</title> 
<path fill="none" stroke="black" d="M1028.4,-222.971C952.559,-210.21 821.803,-188.207 741.509,-174.696"/> 
<polygon fill="black" stroke="black" points="741.934,-171.219 731.492,-173.011 740.773,-178.122 741.934,-171.219"/> 
</g> 
<!-- b0 --> 
<g id="node9" class="node"><title>b0</title> 
<a xlink:href="http://pir.georgetown.edu/cgi-bin/pt_graphvizView.pl?togoid=0005488" > 
<ellipse fill="#dddddd" stroke="#dddddd" cx="1088" cy="-162" rx="61.1934" ry="18"/> 
<a xlink:href="http://pir.georgetown.edu/cgi-bin/pt_graphvizView.pl?togoid=0005488" ><text id="GO:0005488" onmousemove="changeToText('GO:0005488')" onmouseout="changeBackText('GO:0005488')"  text-anchor="middle" x="1088" y="-157.8" font-family="Times,serif" font-size="14.00">GO:0005488</text></a>
 
</a> 
</g> 
<!-- c0&#45;&gt;b0 --> 
<g id="edge18" class="edge"><title>c0&#45;&gt;b0</title> 
<path fill="none" stroke="black" d="M1088,-215.697C1088,-207.983 1088,-198.712 1088,-190.112"/> 
<polygon fill="black" stroke="black" points="1091.5,-190.104 1088,-180.104 1084.5,-190.104 1091.5,-190.104"/> 
</g> 
<!-- v0 --> 
<g id="node20" class="node"><title>v0</title> 
<a xlink:href="http://pir.georgetown.edu/cgi-bin/pt_graphvizView.pl?togoid=0060089" > 
<ellipse fill="#dddddd" stroke="#dddddd" cx="1229" cy="-162" rx="61.1934" ry="18"/> 
<a xlink:href="http://pir.georgetown.edu/cgi-bin/pt_graphvizView.pl?togoid=0060089" ><text id="GO:0060089" onmousemove="changeToText('GO:0060089')" onmouseout="changeBackText('GO:0060089')"  text-anchor="middle" x="1229" y="-157.8" font-family="Times,serif" font-size="14.00">GO:0060089</text></a>
 
</a> 
</g> 
<!-- c0&#45;&gt;v0 --> 
<g id="edge44" class="edge"><title>c0&#45;&gt;v0</title> 
<path fill="none" stroke="black" d="M1119.29,-217.465C1140.16,-207.103 1167.76,-193.404 1190.05,-182.337"/> 
<polygon fill="black" stroke="black" points="1191.84,-185.355 1199.24,-177.773 1188.73,-179.085 1191.84,-185.355"/> 
</g> 
<!-- p0 --> 
<g id="node31" class="node"><title>p0</title> 
<ellipse fill="#e98576" stroke="#e98576" cx="1384" cy="-162" rx="75.2018" ry="18"/> 
<a xlink:href="http://pir.georgetown.edu/cgi-bin/pt_graphvizView.pl?togoid=0005215" ><text id="GO:0005215" onmousemove="changeToText('GO:0005215')" onmouseout="changeBackText('GO:0005215')"  text-anchor="middle" x="1384" y="-162.8" font-family="Times,serif" font-size="14.00">GO:0005215</text></a>
<a xlink:href="http://pir.georgetown.edu/cgi-bin/pt_graphvizView.pl?tofile=390791" ><text id="r390791" onmousemove="changeToText2('r390791', 1)" onmouseout="changeBackText2('r390791', 1)"  text-anchor="middle" x="1384" y="-149.8" font-family="Times,serif" font-size="14.00">(1)</text>
 
</a> 
</g> 
<!-- c0&#45;&gt;p0 --> 
<g id="edge28" class="edge"><title>c0&#45;&gt;p0</title> 
<path fill="none" stroke="black" d="M1139.56,-220.807C1190.55,-208.749 1268.59,-190.293 1322.72,-177.492"/> 
<polygon fill="black" stroke="black" points="1323.61,-180.878 1332.54,-175.171 1322,-174.066 1323.61,-180.878"/> 
</g> 
<!-- l0 --> 
<g id="node42" class="node"><title>l0</title> 
<ellipse fill="#e98576" stroke="#e98576" cx="1552" cy="-162" rx="75.2018" ry="18"/> 
<a xlink:href="http://pir.georgetown.edu/cgi-bin/pt_graphvizView.pl?togoid=0005198" ><text id="GO:0005198" onmousemove="changeToText('GO:0005198')" onmouseout="changeBackText('GO:0005198')"  text-anchor="middle" x="1552" y="-162.8" font-family="Times,serif" font-size="14.00">GO:0005198</text></a>
<a xlink:href="http://pir.georgetown.edu/cgi-bin/pt_graphvizView.pl?tofile=390781" ><text id="r390781" onmousemove="changeToText2('r390781', 3)" onmouseout="changeBackText2('r390781', 3)"  text-anchor="middle" x="1552" y="-149.8" font-family="Times,serif" font-size="14.00">(3)</text>
 
</a> 
</g> 
<!-- c0&#45;&gt;l0 --> 
<g id="edge40" class="edge"><title>c0&#45;&gt;l0</title> 
<path fill="none" stroke="black" d="M1153.41,-225.111C1229.28,-215.675 1358.02,-198.781 1468,-180 1474.26,-178.932 1480.76,-177.747 1487.25,-176.515"/> 
<polygon fill="black" stroke="black" points="1488.26,-179.885 1497.42,-174.55 1486.93,-173.013 1488.26,-179.885"/> 
</g> 
<!-- n0 --> 
<g id="node8" class="node"><title>n0</title> 
<ellipse fill="#e98576" stroke="#e98576" cx="75" cy="-90" rx="75.2018" ry="18"/> 
<a xlink:href="http://pir.georgetown.edu/cgi-bin/pt_graphvizView.pl?togoid=0016853" ><text id="GO:0016853" onmousemove="changeToText('GO:0016853')" onmouseout="changeBackText('GO:0016853')"  text-anchor="middle" x="75" y="-90.8" font-family="Times,serif" font-size="14.00">GO:0016853</text></a>
<a xlink:href="http://pir.georgetown.edu/cgi-bin/pt_graphvizView.pl?tofile=390787" ><text id="r390787" onmousemove="changeToText2('r390787', 1)" onmouseout="changeBackText2('r390787', 1)"  text-anchor="middle" x="75" y="-77.8" font-family="Times,serif" font-size="14.00">(1)</text>
 
</a> 
</g> 
<!-- h0&#45;&gt;n0 --> 
<g id="edge6" class="edge"><title>h0&#45;&gt;n0</title> 
<path fill="none" stroke="black" d="M618.837,-149.273C608.638,-147.298 598.016,-145.429 588,-144 398.581,-116.978 348.419,-135.022 159,-108 152.27,-107.04 145.267,-105.881 138.303,-104.625"/> 
<polygon fill="black" stroke="black" points="138.636,-101.127 128.163,-102.727 137.348,-108.007 138.636,-101.127"/> 
</g> 
<!-- g0 --> 
<g id="node23" class="node"><title>g0</title> 
<ellipse fill="#e98576" stroke="#e98576" cx="243" cy="-90" rx="75.2018" ry="18"/> 
<a xlink:href="http://pir.georgetown.edu/cgi-bin/pt_graphvizView.pl?togoid=0016787" ><text id="GO:0016787" onmousemove="changeToText('GO:0016787')" onmouseout="changeBackText('GO:0016787')"  text-anchor="middle" x="243" y="-90.8" font-family="Times,serif" font-size="14.00">GO:0016787</text></a>
<a xlink:href="http://pir.georgetown.edu/cgi-bin/pt_graphvizView.pl?tofile=390773" ><text id="r390773" onmousemove="changeToText2('r390773', 5)" onmouseout="changeBackText2('r390773', 5)"  text-anchor="middle" x="243" y="-77.8" font-family="Times,serif" font-size="14.00">(5)</text>
 
</a> 
</g> 
<!-- h0&#45;&gt;g0 --> 
<g id="edge32" class="edge"><title>h0&#45;&gt;g0</title> 
<path fill="none" stroke="black" d="M617.869,-149.527C607.954,-147.573 597.681,-145.646 588,-144 472.558,-124.377 442.442,-127.623 327,-108 320.495,-106.894 313.724,-105.662 306.973,-104.379"/> 
<polygon fill="black" stroke="black" points="307.614,-100.938 297.131,-102.473 306.283,-107.811 307.614,-100.938"/> 
</g> 
<!-- i0 --> 
<g id="node36" class="node"><title>i0</title> 
<ellipse fill="#e98576" stroke="#e98576" cx="411" cy="-90" rx="75.2018" ry="18"/> 
<a xlink:href="http://pir.georgetown.edu/cgi-bin/pt_graphvizView.pl?togoid=0016740" ><text id="GO:0016740" onmousemove="changeToText('GO:0016740')" onmouseout="changeBackText('GO:0016740')"  text-anchor="middle" x="411" y="-90.8" font-family="Times,serif" font-size="14.00">GO:0016740</text></a>
<a xlink:href="http://pir.georgetown.edu/cgi-bin/pt_graphvizView.pl?tofile=390775" ><text id="r390775" onmousemove="changeToText2('r390775', 5)" onmouseout="changeBackText2('r390775', 5)"  text-anchor="middle" x="411" y="-77.8" font-family="Times,serif" font-size="14.00">(5)</text>
 
</a> 
</g> 
<!-- h0&#45;&gt;i0 --> 
<g id="edge34" class="edge"><title>h0&#45;&gt;i0</title> 
<path fill="none" stroke="black" d="M623.824,-148.079C580.187,-136.376 515.792,-119.105 469.272,-106.629"/> 
<polygon fill="black" stroke="black" points="469.902,-103.174 459.336,-103.964 468.088,-109.935 469.902,-103.174"/> 
</g> 
<!-- k0 --> 
<g id="node11" class="node"><title>k0</title> 
<ellipse fill="#e98576" stroke="#e98576" cx="579" cy="-90" rx="75.2018" ry="18"/> 
<a xlink:href="http://pir.georgetown.edu/cgi-bin/pt_graphvizView.pl?togoid=0008289" ><text id="GO:0008289" onmousemove="changeToText('GO:0008289')" onmouseout="changeBackText('GO:0008289')"  text-anchor="middle" x="579" y="-90.8" font-family="Times,serif" font-size="14.00">GO:0008289</text></a>
<a xlink:href="http://pir.georgetown.edu/cgi-bin/pt_graphvizView.pl?tofile=390779" ><text id="r390779" onmousemove="changeToText2('r390779', 3)" onmouseout="changeBackText2('r390779', 3)"  text-anchor="middle" x="579" y="-77.8" font-family="Times,serif" font-size="14.00">(3)</text>
 
</a> 
</g> 
<!-- b0&#45;&gt;k0 --> 
<g id="edge8" class="edge"><title>b0&#45;&gt;k0</title> 
<path fill="none" stroke="black" d="M1031.09,-155.286C949.371,-146.768 794.174,-129.421 663,-108 656.488,-106.937 649.712,-105.732 642.959,-104.466"/> 
<polygon fill="black" stroke="black" points="643.594,-101.024 633.113,-102.577 642.275,-107.899 643.594,-101.024"/> 
</g> 
<!-- w0 --> 
<g id="node13" class="node"><title>w0</title> 
<ellipse fill="#e98576" stroke="#e98576" cx="747" cy="-90" rx="75.2018" ry="18"/> 
<a xlink:href="http://pir.georgetown.edu/cgi-bin/pt_graphvizView.pl?togoid=0042277" ><text id="GO:0042277" onmousemove="changeToText('GO:0042277')" onmouseout="changeBackText('GO:0042277')"  text-anchor="middle" x="747" y="-90.8" font-family="Times,serif" font-size="14.00">GO:0042277</text></a>
<a xlink:href="http://pir.georgetown.edu/cgi-bin/pt_graphvizView.pl?tofile=390805" ><text id="r390805" onmousemove="changeToText2('r390805', 1)" onmouseout="changeBackText2('r390805', 1)"  text-anchor="middle" x="747" y="-77.8" font-family="Times,serif" font-size="14.00">(1)</text>
 
</a> 
</g> 
<!-- b0&#45;&gt;w0 --> 
<g id="edge10" class="edge"><title>b0&#45;&gt;w0</title> 
<path fill="none" stroke="black" d="M1039.14,-150.971C979.411,-138.709 878.117,-117.916 811.891,-104.321"/> 
<polygon fill="black" stroke="black" points="812.479,-100.869 801.98,-102.286 811.072,-107.726 812.479,-100.869"/> 
</g> 
<!-- j0 --> 
<g id="node16" class="node"><title>j0</title> 
<ellipse fill="#e98576" stroke="#e98576" cx="915" cy="-90" rx="75.2018" ry="18"/> 
<a xlink:href="http://pir.georgetown.edu/cgi-bin/pt_graphvizView.pl?togoid=0001882" ><text id="GO:0001882" onmousemove="changeToText('GO:0001882')" onmouseout="changeBackText('GO:0001882')"  text-anchor="middle" x="915" y="-90.8" font-family="Times,serif" font-size="14.00">GO:0001882</text></a>
<a xlink:href="http://pir.georgetown.edu/cgi-bin/pt_graphvizView.pl?tofile=390777" ><text id="r390777" onmousemove="changeToText2('r390777', 5)" onmouseout="changeBackText2('r390777', 5)"  text-anchor="middle" x="915" y="-77.8" font-family="Times,serif" font-size="14.00">(5)</text>
 
</a> 
</g> 
<!-- b0&#45;&gt;j0 --> 
<g id="edge14" class="edge"><title>b0&#45;&gt;j0</title> 
<path fill="none" stroke="black" d="M1053.41,-147.003C1026.92,-136.285 990.124,-121.397 961.131,-109.666"/> 
<polygon fill="black" stroke="black" points="962.206,-106.325 951.624,-105.819 959.581,-112.814 962.206,-106.325"/> 
</g> 
<!-- a0 --> 
<g id="node18" class="node"><title>a0</title> 
<ellipse fill="#e98576" stroke="#e98576" cx="1088" cy="-90" rx="79.4447" ry="18"/> 
<a xlink:href="http://pir.georgetown.edu/cgi-bin/pt_graphvizView.pl?togoid=0005515" ><text id="GO:0005515" onmousemove="changeToText('GO:0005515')" onmouseout="changeBackText('GO:0005515')"  text-anchor="middle" x="1088" y="-90.8" font-family="Times,serif" font-size="14.00">GO:0005515</text></a>
<a xlink:href="http://pir.georgetown.edu/cgi-bin/pt_graphvizView.pl?tofile=390765" ><text id="r390765" onmousemove="changeToText2('r390765', 29)" onmouseout="changeBackText2('r390765', 29)"  text-anchor="middle" x="1088" y="-77.8" font-family="Times,serif" font-size="14.00">(29)</text>
 
</a> 
</g> 
<!-- b0&#45;&gt;a0 --> 
<g id="edge16" class="edge"><title>b0&#45;&gt;a0</title> 
<path fill="none" stroke="black" d="M1088,-143.697C1088,-135.983 1088,-126.712 1088,-118.112"/> 
<polygon fill="black" stroke="black" points="1091.5,-118.104 1088,-108.104 1084.5,-118.104 1091.5,-118.104"/> 
</g> 
<!-- m0 --> 
<g id="node27" class="node"><title>m0</title> 
<ellipse fill="#e98576" stroke="#e98576" cx="1261" cy="-90" rx="75.2018" ry="18"/> 
<a xlink:href="http://pir.georgetown.edu/cgi-bin/pt_graphvizView.pl?togoid=0060090" ><text id="GO:0060090" onmousemove="changeToText('GO:0060090')" onmouseout="changeBackText('GO:0060090')"  text-anchor="middle" x="1261" y="-90.8" font-family="Times,serif" font-size="14.00">GO:0060090</text></a>
<a xlink:href="http://pir.georgetown.edu/cgi-bin/pt_graphvizView.pl?tofile=390785" ><text id="r390785" onmousemove="changeToText2('r390785', 2)" onmouseout="changeBackText2('r390785', 2)"  text-anchor="middle" x="1261" y="-77.8" font-family="Times,serif" font-size="14.00">(2)</text>
 
</a> 
</g> 
<!-- b0&#45;&gt;m0 --> 
<g id="edge24" class="edge"><title>b0&#45;&gt;m0</title> 
<path fill="none" stroke="black" d="M1122.59,-147.003C1149.08,-136.285 1185.88,-121.397 1214.87,-109.666"/> 
<polygon fill="black" stroke="black" points="1216.42,-112.814 1224.38,-105.819 1213.79,-106.325 1216.42,-112.814"/> 
</g> 
<!-- d0 --> 
<g id="node33" class="node"><title>d0</title> 
<ellipse fill="#e98576" stroke="#e98576" cx="1434" cy="-90" rx="79.4447" ry="18"/> 
<a xlink:href="http://pir.georgetown.edu/cgi-bin/pt_graphvizView.pl?togoid=0043167" ><text id="GO:0043167" onmousemove="changeToText('GO:0043167')" onmouseout="changeBackText('GO:0043167')"  text-anchor="middle" x="1434" y="-90.8" font-family="Times,serif" font-size="14.00">GO:0043167</text></a>
<a xlink:href="http://pir.georgetown.edu/cgi-bin/pt_graphvizView.pl?tofile=390767" ><text id="r390767" onmousemove="changeToText2('r390767', 16)" onmouseout="changeBackText2('r390767', 16)"  text-anchor="middle" x="1434" y="-77.8" font-family="Times,serif" font-size="14.00">(16)</text>
 
</a> 
</g> 
<!-- b0&#45;&gt;d0 --> 
<g id="edge30" class="edge"><title>b0&#45;&gt;d0</title> 
<path fill="none" stroke="black" d="M1133.38,-149.815C1141.88,-147.811 1150.7,-145.793 1159,-144 1169.09,-141.82 1286.88,-119.196 1364.99,-104.22"/> 
<polygon fill="black" stroke="black" points="1366.1,-107.572 1375.26,-102.252 1364.78,-100.697 1366.1,-107.572"/> 
</g> 
<!-- e0 --> 
<g id="node38" class="node"><title>e0</title> 
<ellipse fill="#e98576" stroke="#e98576" cx="1612" cy="-90" rx="79.4447" ry="18"/> 
<a xlink:href="http://pir.georgetown.edu/cgi-bin/pt_graphvizView.pl?togoid=0003676" ><text id="GO:0003676" onmousemove="changeToText('GO:0003676')" onmouseout="changeBackText('GO:0003676')"  text-anchor="middle" x="1612" y="-90.8" font-family="Times,serif" font-size="14.00">GO:0003676</text></a>
<a xlink:href="http://pir.georgetown.edu/cgi-bin/pt_graphvizView.pl?tofile=390769" ><text id="r390769" onmousemove="changeToText2('r390769', 13)" onmouseout="changeBackText2('r390769', 13)"  text-anchor="middle" x="1612" y="-77.8" font-family="Times,serif" font-size="14.00">(13)</text>
 
</a> 
</g> 
<!-- b0&#45;&gt;e0 --> 
<g id="edge36" class="edge"><title>b0&#45;&gt;e0</title> 
<path fill="none" stroke="black" d="M1132.12,-149.453C1140.98,-147.413 1150.25,-145.474 1159,-144 1318.87,-117.062 1361.52,-131.068 1522,-108 1529.44,-106.93 1537.2,-105.676 1544.92,-104.341"/> 
<polygon fill="black" stroke="black" points="1545.76,-107.746 1554.99,-102.55 1544.53,-100.854 1545.76,-107.746"/> 
</g> 
<!-- f0 --> 
<g id="node40" class="node"><title>f0</title> 
<ellipse fill="#e98576" stroke="#e98576" cx="1785" cy="-90" rx="75.2018" ry="18"/> 
<a xlink:href="http://pir.georgetown.edu/cgi-bin/pt_graphvizView.pl?togoid=0000166" ><text id="GO:0000166" onmousemove="changeToText('GO:0000166')" onmouseout="changeBackText('GO:0000166')"  text-anchor="middle" x="1785" y="-90.8" font-family="Times,serif" font-size="14.00">GO:0000166</text></a>
<a xlink:href="http://pir.georgetown.edu/cgi-bin/pt_graphvizView.pl?tofile=390771" ><text id="r390771" onmousemove="changeToText2('r390771', 6)" onmouseout="changeBackText2('r390771', 6)"  text-anchor="middle" x="1785" y="-77.8" font-family="Times,serif" font-size="14.00">(6)</text>
 
</a> 
</g> 
<!-- b0&#45;&gt;f0 --> 
<g id="edge38" class="edge"><title>b0&#45;&gt;f0</title> 
<path fill="none" stroke="black" d="M1131.71,-149.315C1140.68,-147.261 1150.1,-145.351 1159,-144 1397.24,-107.815 1461.12,-139.698 1700,-108 1707.08,-107.061 1714.45,-105.886 1721.77,-104.595"/> 
<polygon fill="black" stroke="black" points="1722.47,-108.024 1731.67,-102.774 1721.21,-101.14 1722.47,-108.024"/> 
</g> 
<!-- t0 --> 
<g id="node44" class="node"><title>t0</title> 
<ellipse fill="#e98576" stroke="#e98576" cx="1953" cy="-90" rx="75.2018" ry="18"/> 
<a xlink:href="http://pir.georgetown.edu/cgi-bin/pt_graphvizView.pl?togoid=0003682" ><text id="GO:0003682" onmousemove="changeToText('GO:0003682')" onmouseout="changeBackText('GO:0003682')"  text-anchor="middle" x="1953" y="-90.8" font-family="Times,serif" font-size="14.00">GO:0003682</text></a>
<a xlink:href="http://pir.georgetown.edu/cgi-bin/pt_graphvizView.pl?tofile=390799" ><text id="r390799" onmousemove="changeToText2('r390799', 1)" onmouseout="changeBackText2('r390799', 1)"  text-anchor="middle" x="1953" y="-77.8" font-family="Times,serif" font-size="14.00">(1)</text>
 
</a> 
</g> 
<!-- b0&#45;&gt;t0 --> 
<g id="edge42" class="edge"><title>b0&#45;&gt;t0</title> 
<path fill="none" stroke="black" d="M1131.69,-149.205C1140.66,-147.159 1150.09,-145.281 1159,-144 1471.74,-99.0225 1555.51,-147.446 1869,-108 1875.84,-107.139 1882.96,-106.032 1890.04,-104.797"/> 
<polygon fill="black" stroke="black" points="1891.12,-108.157 1900.32,-102.909 1889.86,-101.271 1891.12,-108.157"/> 
</g> 
<!-- u0 --> 
<g id="node22" class="node"><title>u0</title> 
<ellipse fill="#e98576" stroke="#e98576" cx="2121" cy="-90" rx="75.2018" ry="18"/> 
<a xlink:href="http://pir.georgetown.edu/cgi-bin/pt_graphvizView.pl?togoid=0004871" ><text id="GO:0004871" onmousemove="changeToText('GO:0004871')" onmouseout="changeBackText('GO:0004871')"  text-anchor="middle" x="2121" y="-90.8" font-family="Times,serif" font-size="14.00">GO:0004871</text></a>
<a xlink:href="http://pir.georgetown.edu/cgi-bin/pt_graphvizView.pl?tofile=390801" ><text id="r390801" onmousemove="changeToText2('r390801', 1)" onmouseout="changeBackText2('r390801', 1)"  text-anchor="middle" x="2121" y="-77.8" font-family="Times,serif" font-size="14.00">(1)</text>
 
</a> 
</g> 
<!-- v0&#45;&gt;u0 --> 
<g id="edge20" class="edge"><title>v0&#45;&gt;u0</title> 
<path fill="none" stroke="black" d="M1272.69,-149.192C1281.66,-147.147 1291.09,-145.273 1300,-144 1624.65,-97.6172 1711.58,-148.641 2037,-108 2043.84,-107.145 2050.96,-106.042 2058.04,-104.81"/> 
<polygon fill="black" stroke="black" points="2059.12,-108.17 2068.32,-102.924 2057.86,-101.284 2059.12,-108.17"/> 
</g> 
<!-- r0 --> 
<g id="node25" class="node"><title>r0</title> 
<ellipse fill="#e98576" stroke="#e98576" cx="159" cy="-18" rx="75.2018" ry="18"/> 
<a xlink:href="http://pir.georgetown.edu/cgi-bin/pt_graphvizView.pl?togoid=0008233" ><text id="GO:0008233" onmousemove="changeToText('GO:0008233')" onmouseout="changeBackText('GO:0008233')"  text-anchor="middle" x="159" y="-18.8" font-family="Times,serif" font-size="14.00">GO:0008233</text></a>
<a xlink:href="http://pir.georgetown.edu/cgi-bin/pt_graphvizView.pl?tofile=390795" ><text id="r390795" onmousemove="changeToText2('r390795', 1)" onmouseout="changeBackText2('r390795', 1)"  text-anchor="middle" x="159" y="-5.8" font-family="Times,serif" font-size="14.00">(1)</text>
 
</a> 
</g> 
<!-- g0&#45;&gt;r0 --> 
<g id="edge22" class="edge"><title>g0&#45;&gt;r0</title> 
<path fill="none" stroke="black" d="M223.093,-72.411C212.214,-63.3446 198.569,-51.9742 186.669,-42.0572"/> 
<polygon fill="black" stroke="black" points="188.687,-39.183 178.764,-35.4699 184.206,-44.5606 188.687,-39.183"/> 
</g> 
<!-- s0 --> 
<g id="node29" class="node"><title>s0</title> 
<ellipse fill="#e98576" stroke="#e98576" cx="327" cy="-18" rx="75.2018" ry="18"/> 
<a xlink:href="http://pir.georgetown.edu/cgi-bin/pt_graphvizView.pl?togoid=0019213" ><text id="GO:0019213" onmousemove="changeToText('GO:0019213')" onmouseout="changeBackText('GO:0019213')"  text-anchor="middle" x="327" y="-18.8" font-family="Times,serif" font-size="14.00">GO:0019213</text></a>
<a xlink:href="http://pir.georgetown.edu/cgi-bin/pt_graphvizView.pl?tofile=390797" ><text id="r390797" onmousemove="changeToText2('r390797', 1)" onmouseout="changeBackText2('r390797', 1)"  text-anchor="middle" x="327" y="-5.8" font-family="Times,serif" font-size="14.00">(1)</text>
 
</a> 
</g> 
<!-- g0&#45;&gt;s0 --> 
<g id="edge26" class="edge"><title>g0&#45;&gt;s0</title> 
<path fill="none" stroke="black" d="M262.907,-72.411C273.786,-63.3446 287.431,-51.9742 299.331,-42.0572"/> 
<polygon fill="black" stroke="black" points="301.794,-44.5606 307.236,-35.4699 297.313,-39.183 301.794,-44.5606"/> 
</g> 
</g> 
<text text-anchor="left" x="4" y="-20" style="font-family:Arial Narrow;font-size:20.00;font-weight:bold;">GO Hierarchical View:</text> 

<text text-anchor="left" x="4" y="0" style="font-family:Arial Narrow;font-size:20.00;font-style:italic;">molecular function</text> 

<script type="text/ecmascript"> 
<![CDATA[ 
var targetText; 
function changeToText(z) { 
		targetText = svgDocument.getElementById(z).firstChild; 
		targetText.nodeValue="link to "+z; 
} 
function changeBackText(z) { 
		targetText = svgDocument.getElementById(z).firstChild; 
		targetText.nodeValue=z; 
} 
function changeToText2(z,n) { 
		targetText = svgDocument.getElementById(z).firstChild; 
		if (n<=1) { 
			targetText.nodeValue="link to " + n + " protein record"; 
		} else { 
			targetText.nodeValue="link to " + n + " protein records"; 
		} 
} 
function changeBackText2(z,n) { 
		targetText = svgDocument.getElementById(z).firstChild; 
		targetText.nodeValue="(" + n + ")"; 
} 
// ]]> 
</script> 
</svg> 
