<?xml version="1.0" encoding="UTF-8" standalone="no"?> 
<!DOCTYPE svg PUBLIC "-//W3C//DTD SVG 1.1//EN" 
 "http://www.w3.org/Graphics/SVG/1.1/DTD/svg11.dtd"> 
<!-- Generated by graphviz version 2.28.0 (20110622.2320) 
 --> 
<!-- Title: G Pages: 1 --> 
<svg width="2000" height="1000"  
 viewBox="-30 -50 2000 1000" xmlns="http://www.w3.org/2000/svg" xmlns:xlink="http://www.w3.org/1999/xlink"> 
<g id="graph1" class="graph" transform="scale(1 1) rotate(0) translate(4 400)"> 
<title>G</title> 
<polygon fill="white" stroke="white" points="-4,5 -4,-400 2915,-400 2915,5 -4,5"/> 
<!-- c0 --> 
<g id="node1" class="node"><title>c0</title> 
<a xlink:href="http://pir.georgetown.edu/cgi-bin/pt_graphvizView.pl?togoid=0003674" > 
<ellipse fill="#dddddd" stroke="#dddddd" cx="1948" cy="-378" rx="61.1934" ry="18"/> 
<a xlink:href="http://pir.georgetown.edu/cgi-bin/pt_graphvizView.pl?togoid=0003674" ><text id="GO:0003674" onmousemove="changeToText('GO:0003674')" onmouseout="changeBackText('GO:0003674')"  text-anchor="middle" x="1948" y="-373.8" font-family="Times,serif" font-size="14.00">GO:0003674</text></a>
 
</a> 
</g> 
<!-- x0 --> 
<g id="node3" class="node"><title>x0</title> 
<ellipse fill="#e98576" stroke="#e98576" cx="604" cy="-306" rx="75.2018" ry="18"/> 
<a xlink:href="http://pir.georgetown.edu/cgi-bin/pt_graphvizView.pl?togoid=0030234" ><text id="GO:0030234" onmousemove="changeToText('GO:0030234')" onmouseout="changeBackText('GO:0030234')"  text-anchor="middle" x="604" y="-306.8" font-family="Times,serif" font-size="14.00">GO:0030234</text></a>
<a xlink:href="http://pir.georgetown.edu/cgi-bin/pt_graphvizView.pl?tofile=768443" ><text id="r768443" onmousemove="changeToText2('r768443', 1)" onmouseout="changeBackText2('r768443', 1)"  text-anchor="middle" x="604" y="-293.8" font-family="Times,serif" font-size="14.00">(1)</text>
 
</a> 
</g> 
<!-- c0&#45;&gt;x0 --> 
<g id="edge2" class="edge"><title>c0&#45;&gt;x0</title> 
<path fill="none" stroke="black" d="M1887.12,-375.712C1668.61,-370.892 924.364,-352.707 688,-324 681.153,-323.168 674.03,-322.08 666.958,-320.856"/> 
<polygon fill="black" stroke="black" points="667.134,-317.331 656.668,-318.979 665.878,-324.217 667.134,-317.331"/> 
</g> 
<!-- f0 --> 
<g id="node4" class="node"><title>f0</title> 
<ellipse fill="#e98576" stroke="#e98576" cx="772" cy="-306" rx="75.2018" ry="18"/> 
<a xlink:href="http://pir.georgetown.edu/cgi-bin/pt_graphvizView.pl?togoid=0003824" ><text id="GO:0003824" onmousemove="changeToText('GO:0003824')" onmouseout="changeBackText('GO:0003824')"  text-anchor="middle" x="772" y="-306.8" font-family="Times,serif" font-size="14.00">GO:0003824</text></a>
<a xlink:href="http://pir.georgetown.edu/cgi-bin/pt_graphvizView.pl?tofile=768441" ><text id="r768441" onmousemove="changeToText2('r768441', 2)" onmouseout="changeBackText2('r768441', 2)"  text-anchor="middle" x="772" y="-293.8" font-family="Times,serif" font-size="14.00">(2)</text>
 
</a> 
</g> 
<!-- c0&#45;&gt;f0 --> 
<g id="edge10" class="edge"><title>c0&#45;&gt;f0</title> 
<path fill="none" stroke="black" d="M1888.47,-373.457C1694.07,-361.885 1077.55,-325.187 853.982,-311.88"/> 
<polygon fill="black" stroke="black" points="854.145,-308.383 843.955,-311.283 853.729,-315.371 854.145,-308.383"/> 
</g> 
<!-- b0 --> 
<g id="node14" class="node"><title>b0</title> 
<a xlink:href="http://pir.georgetown.edu/cgi-bin/pt_graphvizView.pl?togoid=0005488" > 
<ellipse fill="#dddddd" stroke="#dddddd" cx="1871" cy="-306" rx="61.1934" ry="18"/> 
<a xlink:href="http://pir.georgetown.edu/cgi-bin/pt_graphvizView.pl?togoid=0005488" ><text id="GO:0005488" onmousemove="changeToText('GO:0005488')" onmouseout="changeBackText('GO:0005488')"  text-anchor="middle" x="1871" y="-301.8" font-family="Times,serif" font-size="14.00">GO:0005488</text></a>
 
</a> 
</g> 
<!-- c0&#45;&gt;b0 --> 
<g id="edge20" class="edge"><title>c0&#45;&gt;b0</title> 
<path fill="none" stroke="black" d="M1930.14,-360.765C1920.2,-351.73 1907.66,-340.326 1896.68,-330.349"/> 
<polygon fill="black" stroke="black" points="1898.78,-327.527 1889.03,-323.39 1894.07,-332.706 1898.78,-327.527"/> 
</g> 
<!-- c1 --> 
<g id="node29" class="node"><title>c1</title> 
<ellipse fill="#e98576" stroke="#e98576" cx="2026" cy="-306" rx="75.2018" ry="18"/> 
<a xlink:href="http://pir.georgetown.edu/cgi-bin/pt_graphvizView.pl?togoid=0016209" ><text id="GO:0016209" onmousemove="changeToText('GO:0016209')" onmouseout="changeBackText('GO:0016209')"  text-anchor="middle" x="2026" y="-306.8" font-family="Times,serif" font-size="14.00">GO:0016209</text></a>
<a xlink:href="http://pir.georgetown.edu/cgi-bin/pt_graphvizView.pl?tofile=768449" ><text id="r768449" onmousemove="changeToText2('r768449', 1)" onmouseout="changeBackText2('r768449', 1)"  text-anchor="middle" x="2026" y="-293.8" font-family="Times,serif" font-size="14.00">(1)</text>
 
</a> 
</g> 
<!-- c0&#45;&gt;c1 --> 
<g id="edge24" class="edge"><title>c0&#45;&gt;c1</title> 
<path fill="none" stroke="black" d="M1966.09,-360.765C1976.09,-351.795 1988.68,-340.49 1999.74,-330.564"/> 
<polygon fill="black" stroke="black" points="2002.36,-332.917 2007.47,-323.633 1997.69,-327.708 2002.36,-332.917"/> 
</g> 
<!-- n0 --> 
<g id="node34" class="node"><title>n0</title> 
<ellipse fill="#e98576" stroke="#e98576" cx="2199" cy="-306" rx="79.4447" ry="18"/> 
<a xlink:href="http://pir.georgetown.edu/cgi-bin/pt_graphvizView.pl?togoid=0005215" ><text id="GO:0005215" onmousemove="changeToText('GO:0005215')" onmouseout="changeBackText('GO:0005215')"  text-anchor="middle" x="2199" y="-306.8" font-family="Times,serif" font-size="14.00">GO:0005215</text></a>
<a xlink:href="http://pir.georgetown.edu/cgi-bin/pt_graphvizView.pl?tofile=768421" ><text id="r768421" onmousemove="changeToText2('r768421', 13)" onmouseout="changeBackText2('r768421', 13)"  text-anchor="middle" x="2199" y="-293.8" font-family="Times,serif" font-size="14.00">(13)</text>
 
</a> 
</g> 
<!-- c0&#45;&gt;n0 --> 
<g id="edge28" class="edge"><title>c0&#45;&gt;n0</title> 
<path fill="none" stroke="black" d="M1990.86,-365.046C2032.21,-353.514 2095.11,-335.973 2140.94,-323.192"/> 
<polygon fill="black" stroke="black" points="2142.05,-326.517 2150.74,-320.459 2140.17,-319.774 2142.05,-326.517"/> 
</g> 
<!-- j0 --> 
<g id="node55" class="node"><title>j0</title> 
<ellipse fill="#e98576" stroke="#e98576" cx="2377" cy="-306" rx="79.4447" ry="18"/> 
<a xlink:href="http://pir.georgetown.edu/cgi-bin/pt_graphvizView.pl?togoid=0005198" ><text id="GO:0005198" onmousemove="changeToText('GO:0005198')" onmouseout="changeBackText('GO:0005198')"  text-anchor="middle" x="2377" y="-306.8" font-family="Times,serif" font-size="14.00">GO:0005198</text></a>
<a xlink:href="http://pir.georgetown.edu/cgi-bin/pt_graphvizView.pl?tofile=768413" ><text id="r768413" onmousemove="changeToText2('r768413', 28)" onmouseout="changeBackText2('r768413', 28)"  text-anchor="middle" x="2377" y="-293.8" font-family="Times,serif" font-size="14.00">(28)</text>
 
</a> 
</g> 
<!-- c0&#45;&gt;j0 --> 
<g id="edge54" class="edge"><title>c0&#45;&gt;j0</title> 
<path fill="none" stroke="black" d="M2001.52,-369.167C2068.4,-359.255 2186.33,-341.373 2287,-324 2294,-322.792 2301.3,-321.487 2308.58,-320.157"/> 
<polygon fill="black" stroke="black" points="2309.27,-323.589 2318.47,-318.333 2308,-316.705 2309.27,-323.589"/> 
</g> 
<!-- p0 --> 
<g id="node6" class="node"><title>p0</title> 
<ellipse fill="#e98576" stroke="#e98576" cx="75" cy="-234" rx="75.2018" ry="18"/> 
<a xlink:href="http://pir.georgetown.edu/cgi-bin/pt_graphvizView.pl?togoid=0016853" ><text id="GO:0016853" onmousemove="changeToText('GO:0016853')" onmouseout="changeBackText('GO:0016853')"  text-anchor="middle" x="75" y="-234.8" font-family="Times,serif" font-size="14.00">GO:0016853</text></a>
<a xlink:href="http://pir.georgetown.edu/cgi-bin/pt_graphvizView.pl?tofile=768425" ><text id="r768425" onmousemove="changeToText2('r768425', 9)" onmouseout="changeBackText2('r768425', 9)"  text-anchor="middle" x="75" y="-221.8" font-family="Times,serif" font-size="14.00">(9)</text>
 
</a> 
</g> 
<!-- f0&#45;&gt;p0 --> 
<g id="edge4" class="edge"><title>f0&#45;&gt;p0</title> 
<path fill="none" stroke="black" d="M718.855,-293.145C708.654,-291.182 698.027,-289.35 688,-288 454.452,-256.56 392.548,-283.44 159,-252 152.263,-251.093 145.255,-249.968 138.288,-248.733"/> 
<polygon fill="black" stroke="black" points="138.615,-245.234 128.145,-246.855 137.341,-252.117 138.615,-245.234"/> 
</g> 
<!-- t0 --> 
<g id="node7" class="node"><title>t0</title> 
<ellipse fill="#e98576" stroke="#e98576" cx="243" cy="-234" rx="75.2018" ry="18"/> 
<a xlink:href="http://pir.georgetown.edu/cgi-bin/pt_graphvizView.pl?togoid=0016874" ><text id="GO:0016874" onmousemove="changeToText('GO:0016874')" onmouseout="changeBackText('GO:0016874')"  text-anchor="middle" x="243" y="-234.8" font-family="Times,serif" font-size="14.00">GO:0016874</text></a>
<a xlink:href="http://pir.georgetown.edu/cgi-bin/pt_graphvizView.pl?tofile=768433" ><text id="r768433" onmousemove="changeToText2('r768433', 3)" onmouseout="changeBackText2('r768433', 3)"  text-anchor="middle" x="243" y="-221.8" font-family="Times,serif" font-size="14.00">(3)</text>
 
</a> 
</g> 
<!-- f0&#45;&gt;t0 --> 
<g id="edge40" class="edge"><title>f0&#45;&gt;t0</title> 
<path fill="none" stroke="black" d="M718.368,-293.312C708.309,-291.357 697.858,-289.485 688,-288 528.559,-263.978 486.441,-276.022 327,-252 320.377,-251.002 313.486,-249.83 306.625,-248.575"/> 
<polygon fill="black" stroke="black" points="307.107,-245.104 296.632,-246.688 305.809,-251.982 307.107,-245.104"/> 
</g> 
<!-- e0 --> 
<g id="node25" class="node"><title>e0</title> 
<ellipse fill="#e98576" stroke="#e98576" cx="416" cy="-234" rx="79.4447" ry="18"/> 
<a xlink:href="http://pir.georgetown.edu/cgi-bin/pt_graphvizView.pl?togoid=0016787" ><text id="GO:0016787" onmousemove="changeToText('GO:0016787')" onmouseout="changeBackText('GO:0016787')"  text-anchor="middle" x="416" y="-234.8" font-family="Times,serif" font-size="14.00">GO:0016787</text></a>
<a xlink:href="http://pir.georgetown.edu/cgi-bin/pt_graphvizView.pl?tofile=768405" ><text id="r768405" onmousemove="changeToText2('r768405', 34)" onmouseout="changeBackText2('r768405', 34)"  text-anchor="middle" x="416" y="-221.8" font-family="Times,serif" font-size="14.00">(34)</text>
 
</a> 
</g> 
<!-- f0&#45;&gt;e0 --> 
<g id="edge34" class="edge"><title>f0&#45;&gt;e0</title> 
<path fill="none" stroke="black" d="M716.435,-293.696C706.95,-291.783 697.194,-289.826 688,-288 618.699,-274.236 539.396,-258.822 484.372,-248.18"/> 
<polygon fill="black" stroke="black" points="484.871,-244.712 474.389,-246.25 483.543,-251.585 484.871,-244.712"/> 
</g> 
<!-- h0 --> 
<g id="node30" class="node"><title>h0</title> 
<ellipse fill="#e98576" stroke="#e98576" cx="594" cy="-234" rx="79.4447" ry="18"/> 
<a xlink:href="http://pir.georgetown.edu/cgi-bin/pt_graphvizView.pl?togoid=0016491" ><text id="GO:0016491" onmousemove="changeToText('GO:0016491')" onmouseout="changeBackText('GO:0016491')"  text-anchor="middle" x="594" y="-234.8" font-family="Times,serif" font-size="14.00">GO:0016491</text></a>
<a xlink:href="http://pir.georgetown.edu/cgi-bin/pt_graphvizView.pl?tofile=768409" ><text id="r768409" onmousemove="changeToText2('r768409', 30)" onmouseout="changeBackText2('r768409', 30)"  text-anchor="middle" x="594" y="-221.8" font-family="Times,serif" font-size="14.00">(30)</text>
 
</a> 
</g> 
<!-- f0&#45;&gt;h0 --> 
<g id="edge46" class="edge"><title>f0&#45;&gt;h0</title> 
<path fill="none" stroke="black" d="M734.685,-290.326C707.575,-279.664 670.672,-265.152 641.464,-253.666"/> 
<polygon fill="black" stroke="black" points="642.466,-250.299 631.879,-249.896 639.904,-256.813 642.466,-250.299"/> 
</g> 
<!-- g0 --> 
<g id="node44" class="node"><title>g0</title> 
<ellipse fill="#e98576" stroke="#e98576" cx="772" cy="-234" rx="79.4447" ry="18"/> 
<a xlink:href="http://pir.georgetown.edu/cgi-bin/pt_graphvizView.pl?togoid=0016740" ><text id="GO:0016740" onmousemove="changeToText('GO:0016740')" onmouseout="changeBackText('GO:0016740')"  text-anchor="middle" x="772" y="-234.8" font-family="Times,serif" font-size="14.00">GO:0016740</text></a>
<a xlink:href="http://pir.georgetown.edu/cgi-bin/pt_graphvizView.pl?tofile=768407" ><text id="r768407" onmousemove="changeToText2('r768407', 31)" onmouseout="changeBackText2('r768407', 31)"  text-anchor="middle" x="772" y="-221.8" font-family="Times,serif" font-size="14.00">(31)</text>
 
</a> 
</g> 
<!-- f0&#45;&gt;g0 --> 
<g id="edge42" class="edge"><title>f0&#45;&gt;g0</title> 
<path fill="none" stroke="black" d="M772,-287.697C772,-279.983 772,-270.712 772,-262.112"/> 
<polygon fill="black" stroke="black" points="775.5,-262.104 772,-252.104 768.5,-262.104 775.5,-262.104"/> 
</g> 
<!-- u0 --> 
<g id="node53" class="node"><title>u0</title> 
<ellipse fill="#e98576" stroke="#e98576" cx="945" cy="-234" rx="75.2018" ry="18"/> 
<a xlink:href="http://pir.georgetown.edu/cgi-bin/pt_graphvizView.pl?togoid=0004386" ><text id="GO:0004386" onmousemove="changeToText('GO:0004386')" onmouseout="changeBackText('GO:0004386')"  text-anchor="middle" x="945" y="-234.8" font-family="Times,serif" font-size="14.00">GO:0004386</text></a>
<a xlink:href="http://pir.georgetown.edu/cgi-bin/pt_graphvizView.pl?tofile=768435" ><text id="r768435" onmousemove="changeToText2('r768435', 3)" onmouseout="changeBackText2('r768435', 3)"  text-anchor="middle" x="945" y="-221.8" font-family="Times,serif" font-size="14.00">(3)</text>
 
</a> 
</g> 
<!-- f0&#45;&gt;u0 --> 
<g id="edge52" class="edge"><title>f0&#45;&gt;u0</title> 
<path fill="none" stroke="black" d="M808.689,-290.155C835.066,-279.482 870.817,-265.016 899.088,-253.577"/> 
<polygon fill="black" stroke="black" points="900.407,-256.819 908.364,-249.824 897.781,-250.33 900.407,-256.819"/> 
</g> 
<!-- q0 --> 
<g id="node57" class="node"><title>q0</title> 
<ellipse fill="#e98576" stroke="#e98576" cx="1113" cy="-234" rx="75.2018" ry="18"/> 
<a xlink:href="http://pir.georgetown.edu/cgi-bin/pt_graphvizView.pl?togoid=0016829" ><text id="GO:0016829" onmousemove="changeToText('GO:0016829')" onmouseout="changeBackText('GO:0016829')"  text-anchor="middle" x="1113" y="-234.8" font-family="Times,serif" font-size="14.00">GO:0016829</text></a>
<a xlink:href="http://pir.georgetown.edu/cgi-bin/pt_graphvizView.pl?tofile=768427" ><text id="r768427" onmousemove="changeToText2('r768427', 9)" onmouseout="changeBackText2('r768427', 9)"  text-anchor="middle" x="1113" y="-221.8" font-family="Times,serif" font-size="14.00">(9)</text>
 
</a> 
</g> 
<!-- f0&#45;&gt;q0 --> 
<g id="edge56" class="edge"><title>f0&#45;&gt;q0</title> 
<path fill="none" stroke="black" d="M827.167,-293.675C887.464,-281.298 983.991,-261.483 1047.94,-248.355"/> 
<polygon fill="black" stroke="black" points="1048.82,-251.748 1057.91,-246.308 1047.41,-244.891 1048.82,-251.748"/> 
</g> 
<!-- a1 --> 
<g id="node9" class="node"><title>a1</title> 
<a xlink:href="http://pir.georgetown.edu/cgi-bin/pt_graphvizView.pl?togoid=0016879" > 
<ellipse fill="#dddddd" stroke="#dddddd" cx="243" cy="-162" rx="61.1934" ry="18"/> 
<a xlink:href="http://pir.georgetown.edu/cgi-bin/pt_graphvizView.pl?togoid=0016879" ><text id="GO:0016879" onmousemove="changeToText('GO:0016879')" onmouseout="changeBackText('GO:0016879')"  text-anchor="middle" x="243" y="-157.8" font-family="Times,serif" font-size="14.00">GO:0016879</text></a>
 
</a> 
</g> 
<!-- t0&#45;&gt;a1 --> 
<g id="edge6" class="edge"><title>t0&#45;&gt;a1</title> 
<path fill="none" stroke="black" d="M243,-215.697C243,-207.983 243,-198.712 243,-190.112"/> 
<polygon fill="black" stroke="black" points="246.5,-190.104 243,-180.104 239.5,-190.104 246.5,-190.104"/> 
</g> 
<!-- z0 --> 
<g id="node10" class="node"><title>z0</title> 
<a xlink:href="http://pir.georgetown.edu/cgi-bin/pt_graphvizView.pl?togoid=0016881" > 
<ellipse fill="#dddddd" stroke="#dddddd" cx="243" cy="-90" rx="61.1934" ry="18"/> 
<a xlink:href="http://pir.georgetown.edu/cgi-bin/pt_graphvizView.pl?togoid=0016881" ><text id="GO:0016881" onmousemove="changeToText('GO:0016881')" onmouseout="changeBackText('GO:0016881')"  text-anchor="middle" x="243" y="-85.8" font-family="Times,serif" font-size="14.00">GO:0016881</text></a>
 
</a> 
</g> 
<!-- a1&#45;&gt;z0 --> 
<g id="edge36" class="edge"><title>a1&#45;&gt;z0</title> 
<path fill="none" stroke="black" d="M243,-143.697C243,-135.983 243,-126.712 243,-118.112"/> 
<polygon fill="black" stroke="black" points="246.5,-118.104 243,-108.104 239.5,-118.104 246.5,-118.104"/> 
</g> 
<!-- y0 --> 
<g id="node12" class="node"><title>y0</title> 
<ellipse fill="#e98576" stroke="#e98576" cx="243" cy="-18" rx="75.2018" ry="18"/> 
<a xlink:href="http://pir.georgetown.edu/cgi-bin/pt_graphvizView.pl?togoid=0019787" ><text id="GO:0019787" onmousemove="changeToText('GO:0019787')" onmouseout="changeBackText('GO:0019787')"  text-anchor="middle" x="243" y="-18.8" font-family="Times,serif" font-size="14.00">GO:0019787</text></a>
<a xlink:href="http://pir.georgetown.edu/cgi-bin/pt_graphvizView.pl?tofile=768445" ><text id="r768445" onmousemove="changeToText2('r768445', 1)" onmouseout="changeBackText2('r768445', 1)"  text-anchor="middle" x="243" y="-5.8" font-family="Times,serif" font-size="14.00">(1)</text>
 
</a> 
</g> 
<!-- z0&#45;&gt;y0 --> 
<g id="edge8" class="edge"><title>z0&#45;&gt;y0</title> 
<path fill="none" stroke="black" d="M243,-71.6966C243,-63.9827 243,-54.7125 243,-46.1124"/> 
<polygon fill="black" stroke="black" points="246.5,-46.1043 243,-36.1043 239.5,-46.1044 246.5,-46.1043"/> 
</g> 
<!-- m0 --> 
<g id="node16" class="node"><title>m0</title> 
<ellipse fill="#e98576" stroke="#e98576" cx="1286" cy="-234" rx="79.4447" ry="18"/> 
<a xlink:href="http://pir.georgetown.edu/cgi-bin/pt_graphvizView.pl?togoid=0001882" ><text id="GO:0001882" onmousemove="changeToText('GO:0001882')" onmouseout="changeBackText('GO:0001882')"  text-anchor="middle" x="1286" y="-234.8" font-family="Times,serif" font-size="14.00">GO:0001882</text></a>
<a xlink:href="http://pir.georgetown.edu/cgi-bin/pt_graphvizView.pl?tofile=768419" ><text id="r768419" onmousemove="changeToText2('r768419', 16)" onmouseout="changeBackText2('r768419', 16)"  text-anchor="middle" x="1286" y="-221.8" font-family="Times,serif" font-size="14.00">(16)</text>
 
</a> 
</g> 
<!-- b0&#45;&gt;m0 --> 
<g id="edge12" class="edge"><title>b0&#45;&gt;m0</title> 
<path fill="none" stroke="black" d="M1812.77,-300.342C1719.89,-292.561 1532.61,-275.433 1375,-252 1367.83,-250.934 1360.36,-249.702 1352.93,-248.397"/> 
<polygon fill="black" stroke="black" points="1353.32,-244.91 1342.86,-246.582 1352.08,-251.799 1353.32,-244.91"/> 
</g> 
<!-- l0 --> 
<g id="node18" class="node"><title>l0</title> 
<ellipse fill="#e98576" stroke="#e98576" cx="1464" cy="-234" rx="79.4447" ry="18"/> 
<a xlink:href="http://pir.georgetown.edu/cgi-bin/pt_graphvizView.pl?togoid=0005515" ><text id="GO:0005515" onmousemove="changeToText('GO:0005515')" onmouseout="changeBackText('GO:0005515')"  text-anchor="middle" x="1464" y="-234.8" font-family="Times,serif" font-size="14.00">GO:0005515</text></a>
<a xlink:href="http://pir.georgetown.edu/cgi-bin/pt_graphvizView.pl?tofile=768417" ><text id="r768417" onmousemove="changeToText2('r768417', 17)" onmouseout="changeBackText2('r768417', 17)"  text-anchor="middle" x="1464" y="-221.8" font-family="Times,serif" font-size="14.00">(17)</text>
 
</a> 
</g> 
<!-- b0&#45;&gt;l0 --> 
<g id="edge14" class="edge"><title>b0&#45;&gt;l0</title> 
<path fill="none" stroke="black" d="M1818.6,-296.656C1755.52,-286.519 1646.39,-268.699 1553,-252 1546.34,-250.809 1539.41,-249.539 1532.48,-248.249"/> 
<polygon fill="black" stroke="black" points="1532.84,-244.756 1522.37,-246.353 1531.55,-251.636 1532.84,-244.756"/> 
</g> 
<!-- s0 --> 
<g id="node20" class="node"><title>s0</title> 
<ellipse fill="#e98576" stroke="#e98576" cx="1637" cy="-234" rx="75.2018" ry="18"/> 
<a xlink:href="http://pir.georgetown.edu/cgi-bin/pt_graphvizView.pl?togoid=0019842" ><text id="GO:0019842" onmousemove="changeToText('GO:0019842')" onmouseout="changeBackText('GO:0019842')"  text-anchor="middle" x="1637" y="-234.8" font-family="Times,serif" font-size="14.00">GO:0019842</text></a>
<a xlink:href="http://pir.georgetown.edu/cgi-bin/pt_graphvizView.pl?tofile=768431" ><text id="r768431" onmousemove="changeToText2('r768431', 6)" onmouseout="changeBackText2('r768431', 6)"  text-anchor="middle" x="1637" y="-221.8" font-family="Times,serif" font-size="14.00">(6)</text>
 
</a> 
</g> 
<!-- b0&#45;&gt;s0 --> 
<g id="edge16" class="edge"><title>b0&#45;&gt;s0</title> 
<path fill="none" stroke="black" d="M1829.7,-292.647C1791.44,-281.201 1734.25,-264.092 1692.11,-251.485"/> 
<polygon fill="black" stroke="black" points="1692.86,-248.057 1682.28,-248.544 1690.85,-254.764 1692.86,-248.057"/> 
</g> 
<!-- e1 --> 
<g id="node21" class="node"><title>e1</title> 
<a xlink:href="http://pir.georgetown.edu/cgi-bin/pt_graphvizView.pl?togoid=0043176" > 
<ellipse fill="#dddddd" stroke="#dddddd" cx="1792" cy="-234" rx="61.1934" ry="18"/> 
<a xlink:href="http://pir.georgetown.edu/cgi-bin/pt_graphvizView.pl?togoid=0043176" ><text id="GO:0043176" onmousemove="changeToText('GO:0043176')" onmouseout="changeBackText('GO:0043176')"  text-anchor="middle" x="1792" y="-229.8" font-family="Times,serif" font-size="14.00">GO:0043176</text></a>
 
</a> 
</g> 
<!-- b0&#45;&gt;e1 --> 
<g id="edge32" class="edge"><title>b0&#45;&gt;e1</title> 
<path fill="none" stroke="black" d="M1852.68,-288.765C1842.38,-279.642 1829.36,-268.105 1818.02,-258.059"/> 
<polygon fill="black" stroke="black" points="1820.3,-255.402 1810.5,-251.39 1815.66,-260.641 1820.3,-255.402"/> 
</g> 
<!-- a0 --> 
<g id="node36" class="node"><title>a0</title> 
<ellipse fill="#e98576" stroke="#e98576" cx="1951" cy="-234" rx="79.4447" ry="18"/> 
<a xlink:href="http://pir.georgetown.edu/cgi-bin/pt_graphvizView.pl?togoid=0043167" ><text id="GO:0043167" onmousemove="changeToText('GO:0043167')" onmouseout="changeBackText('GO:0043167')"  text-anchor="middle" x="1951" y="-234.8" font-family="Times,serif" font-size="14.00">GO:0043167</text></a>
<a xlink:href="http://pir.georgetown.edu/cgi-bin/pt_graphvizView.pl?tofile=768401" ><text id="r768401" onmousemove="changeToText2('r768401', 99)" onmouseout="changeBackText2('r768401', 99)"  text-anchor="middle" x="1951" y="-221.8" font-family="Times,serif" font-size="14.00">(99)</text>
 
</a> 
</g> 
<!-- b0&#45;&gt;a0 --> 
<g id="edge30" class="edge"><title>b0&#45;&gt;a0</title> 
<path fill="none" stroke="black" d="M1889.55,-288.765C1899.91,-279.708 1912.98,-268.27 1924.4,-258.276"/> 
<polygon fill="black" stroke="black" points="1926.77,-260.853 1931.99,-251.633 1922.16,-255.584 1926.77,-260.853"/> 
</g> 
<!-- i0 --> 
<g id="node46" class="node"><title>i0</title> 
<ellipse fill="#e98576" stroke="#e98576" cx="2129" cy="-234" rx="79.4447" ry="18"/> 
<a xlink:href="http://pir.georgetown.edu/cgi-bin/pt_graphvizView.pl?togoid=0003676" ><text id="GO:0003676" onmousemove="changeToText('GO:0003676')" onmouseout="changeBackText('GO:0003676')"  text-anchor="middle" x="2129" y="-234.8" font-family="Times,serif" font-size="14.00">GO:0003676</text></a>
<a xlink:href="http://pir.georgetown.edu/cgi-bin/pt_graphvizView.pl?tofile=768411" ><text id="r768411" onmousemove="changeToText2('r768411', 29)" onmouseout="changeBackText2('r768411', 29)"  text-anchor="middle" x="2129" y="-221.8" font-family="Times,serif" font-size="14.00">(29)</text>
 
</a> 
</g> 
<!-- b0&#45;&gt;i0 --> 
<g id="edge44" class="edge"><title>b0&#45;&gt;i0</title> 
<path fill="none" stroke="black" d="M1914.47,-293.205C1957.24,-281.601 2022.84,-263.803 2070.24,-250.943"/> 
<polygon fill="black" stroke="black" points="2071.33,-254.274 2080.06,-248.278 2069.49,-247.519 2071.33,-254.274"/> 
</g> 
<!-- o0 --> 
<g id="node49" class="node"><title>o0</title> 
<ellipse fill="#e98576" stroke="#e98576" cx="2307" cy="-234" rx="79.4447" ry="18"/> 
<a xlink:href="http://pir.georgetown.edu/cgi-bin/pt_graphvizView.pl?togoid=0046906" ><text id="GO:0046906" onmousemove="changeToText('GO:0046906')" onmouseout="changeBackText('GO:0046906')"  text-anchor="middle" x="2307" y="-234.8" font-family="Times,serif" font-size="14.00">GO:0046906</text></a>
<a xlink:href="http://pir.georgetown.edu/cgi-bin/pt_graphvizView.pl?tofile=768423" ><text id="r768423" onmousemove="changeToText2('r768423', 13)" onmouseout="changeBackText2('r768423', 13)"  text-anchor="middle" x="2307" y="-221.8" font-family="Times,serif" font-size="14.00">(13)</text>
 
</a> 
</g> 
<!-- b0&#45;&gt;o0 --> 
<g id="edge48" class="edge"><title>b0&#45;&gt;o0</title> 
<path fill="none" stroke="black" d="M1915.54,-293.581C1924.28,-291.555 1933.4,-289.588 1942,-288 2063.22,-265.618 2095.28,-271.447 2217,-252 2224.12,-250.862 2231.55,-249.593 2238.95,-248.275"/> 
<polygon fill="black" stroke="black" points="2239.77,-251.683 2248.99,-246.457 2238.52,-244.796 2239.77,-251.683"/> 
</g> 
<!-- d0 --> 
<g id="node51" class="node"><title>d0</title> 
<ellipse fill="#e98576" stroke="#e98576" cx="2485" cy="-234" rx="79.4447" ry="18"/> 
<a xlink:href="http://pir.georgetown.edu/cgi-bin/pt_graphvizView.pl?togoid=0000166" ><text id="GO:0000166" onmousemove="changeToText('GO:0000166')" onmouseout="changeBackText('GO:0000166')"  text-anchor="middle" x="2485" y="-234.8" font-family="Times,serif" font-size="14.00">GO:0000166</text></a>
<a xlink:href="http://pir.georgetown.edu/cgi-bin/pt_graphvizView.pl?tofile=768403" ><text id="r768403" onmousemove="changeToText2('r768403', 85)" onmouseout="changeBackText2('r768403', 85)"  text-anchor="middle" x="2485" y="-221.8" font-family="Times,serif" font-size="14.00">(85)</text>
 
</a> 
</g> 
<!-- b0&#45;&gt;d0 --> 
<g id="edge50" class="edge"><title>b0&#45;&gt;d0</title> 
<path fill="none" stroke="black" d="M1915.1,-293.317C1923.96,-291.289 1933.24,-289.389 1942,-288 2141.48,-256.39 2194.82,-278.782 2395,-252 2402.45,-251.003 2410.22,-249.794 2417.94,-248.486"/> 
<polygon fill="black" stroke="black" points="2418.77,-251.893 2428.02,-246.719 2417.56,-244.999 2418.77,-251.893"/> 
</g> 
<!-- w0 --> 
<g id="node59" class="node"><title>w0</title> 
<ellipse fill="#e98576" stroke="#e98576" cx="2658" cy="-234" rx="75.2018" ry="18"/> 
<a xlink:href="http://pir.georgetown.edu/cgi-bin/pt_graphvizView.pl?togoid=0051540" ><text id="GO:0051540" onmousemove="changeToText('GO:0051540')" onmouseout="changeBackText('GO:0051540')"  text-anchor="middle" x="2658" y="-234.8" font-family="Times,serif" font-size="14.00">GO:0051540</text></a>
<a xlink:href="http://pir.georgetown.edu/cgi-bin/pt_graphvizView.pl?tofile=768439" ><text id="r768439" onmousemove="changeToText2('r768439', 2)" onmouseout="changeBackText2('r768439', 2)"  text-anchor="middle" x="2658" y="-221.8" font-family="Times,serif" font-size="14.00">(2)</text>
 
</a> 
</g> 
<!-- b0&#45;&gt;w0 --> 
<g id="edge58" class="edge"><title>b0&#45;&gt;w0</title> 
<path fill="none" stroke="black" d="M1914.7,-293.249C1923.67,-291.2 1933.1,-289.309 1942,-288 2219.91,-247.134 2294.37,-287.632 2573,-252 2580.08,-251.094 2587.46,-249.941 2594.77,-248.662"/> 
<polygon fill="black" stroke="black" points="2595.48,-252.092 2604.68,-246.852 2594.22,-245.206 2595.48,-252.092"/> 
</g> 
<!-- k0 --> 
<g id="node61" class="node"><title>k0</title> 
<ellipse fill="#e98576" stroke="#e98576" cx="2831" cy="-234" rx="79.4447" ry="18"/> 
<a xlink:href="http://pir.georgetown.edu/cgi-bin/pt_graphvizView.pl?togoid=0048037" ><text id="GO:0048037" onmousemove="changeToText('GO:0048037')" onmouseout="changeBackText('GO:0048037')"  text-anchor="middle" x="2831" y="-234.8" font-family="Times,serif" font-size="14.00">GO:0048037</text></a>
<a xlink:href="http://pir.georgetown.edu/cgi-bin/pt_graphvizView.pl?tofile=768415" ><text id="r768415" onmousemove="changeToText2('r768415', 20)" onmouseout="changeBackText2('r768415', 20)"  text-anchor="middle" x="2831" y="-221.8" font-family="Times,serif" font-size="14.00">(20)</text>
 
</a> 
</g> 
<!-- b0&#45;&gt;k0 --> 
<g id="edge60" class="edge"><title>b0&#45;&gt;k0</title> 
<path fill="none" stroke="black" d="M1914.31,-293.251C1923.39,-291.175 1932.96,-289.273 1942,-288 2294.43,-238.338 2388.51,-293.495 2742,-252 2749.58,-251.11 2757.48,-249.947 2765.32,-248.646"/> 
<polygon fill="black" stroke="black" points="2765.91,-252.095 2775.17,-246.935 2764.72,-245.198 2765.91,-252.095"/> 
</g> 
<!-- d1 --> 
<g id="node23" class="node"><title>d1</title> 
<ellipse fill="#e98576" stroke="#e98576" cx="1792" cy="-162" rx="75.2018" ry="18"/> 
<a xlink:href="http://pir.georgetown.edu/cgi-bin/pt_graphvizView.pl?togoid=0016597" ><text id="GO:0016597" onmousemove="changeToText('GO:0016597')" onmouseout="changeBackText('GO:0016597')"  text-anchor="middle" x="1792" y="-162.8" font-family="Times,serif" font-size="14.00">GO:0016597</text></a>
<a xlink:href="http://pir.georgetown.edu/cgi-bin/pt_graphvizView.pl?tofile=768451" ><text id="r768451" onmousemove="changeToText2('r768451', 1)" onmouseout="changeBackText2('r768451', 1)"  text-anchor="middle" x="1792" y="-149.8" font-family="Times,serif" font-size="14.00">(1)</text>
 
</a> 
</g> 
<!-- e1&#45;&gt;d1 --> 
<g id="edge18" class="edge"><title>e1&#45;&gt;d1</title> 
<path fill="none" stroke="black" d="M1792,-215.697C1792,-207.983 1792,-198.712 1792,-190.112"/> 
<polygon fill="black" stroke="black" points="1795.5,-190.104 1792,-180.104 1788.5,-190.104 1795.5,-190.104"/> 
</g> 
<!-- v0 --> 
<g id="node27" class="node"><title>v0</title> 
<ellipse fill="#e98576" stroke="#e98576" cx="416" cy="-162" rx="75.2018" ry="18"/> 
<a xlink:href="http://pir.georgetown.edu/cgi-bin/pt_graphvizView.pl?togoid=0008233" ><text id="GO:0008233" onmousemove="changeToText('GO:0008233')" onmouseout="changeBackText('GO:0008233')"  text-anchor="middle" x="416" y="-162.8" font-family="Times,serif" font-size="14.00">GO:0008233</text></a>
<a xlink:href="http://pir.georgetown.edu/cgi-bin/pt_graphvizView.pl?tofile=768437" ><text id="r768437" onmousemove="changeToText2('r768437', 3)" onmouseout="changeBackText2('r768437', 3)"  text-anchor="middle" x="416" y="-149.8" font-family="Times,serif" font-size="14.00">(3)</text>
 
</a> 
</g> 
<!-- e0&#45;&gt;v0 --> 
<g id="edge22" class="edge"><title>e0&#45;&gt;v0</title> 
<path fill="none" stroke="black" d="M416,-215.697C416,-207.983 416,-198.712 416,-190.112"/> 
<polygon fill="black" stroke="black" points="419.5,-190.104 416,-180.104 412.5,-190.104 419.5,-190.104"/> 
</g> 
<!-- b1 --> 
<g id="node32" class="node"><title>b1</title> 
<ellipse fill="#e98576" stroke="#e98576" cx="589" cy="-162" rx="75.2018" ry="18"/> 
<a xlink:href="http://pir.georgetown.edu/cgi-bin/pt_graphvizView.pl?togoid=0004497" ><text id="GO:0004497" onmousemove="changeToText('GO:0004497')" onmouseout="changeBackText('GO:0004497')"  text-anchor="middle" x="589" y="-162.8" font-family="Times,serif" font-size="14.00">GO:0004497</text></a>
<a xlink:href="http://pir.georgetown.edu/cgi-bin/pt_graphvizView.pl?tofile=768447" ><text id="r768447" onmousemove="changeToText2('r768447', 1)" onmouseout="changeBackText2('r768447', 1)"  text-anchor="middle" x="589" y="-149.8" font-family="Times,serif" font-size="14.00">(1)</text>
 
</a> 
</g> 
<!-- h0&#45;&gt;b1 --> 
<g id="edge26" class="edge"><title>h0&#45;&gt;b1</title> 
<path fill="none" stroke="black" d="M592.764,-215.697C592.213,-207.983 591.551,-198.712 590.937,-190.112"/> 
<polygon fill="black" stroke="black" points="594.425,-189.83 590.222,-180.104 587.443,-190.328 594.425,-189.83"/> 
</g> 
<!-- r0 --> 
<g id="node41" class="node"><title>r0</title> 
<ellipse fill="#e98576" stroke="#e98576" cx="757" cy="-162" rx="75.2018" ry="18"/> 
<a xlink:href="http://pir.georgetown.edu/cgi-bin/pt_graphvizView.pl?togoid=0009055" ><text id="GO:0009055" onmousemove="changeToText('GO:0009055')" onmouseout="changeBackText('GO:0009055')"  text-anchor="middle" x="757" y="-162.8" font-family="Times,serif" font-size="14.00">GO:0009055</text></a>
<a xlink:href="http://pir.georgetown.edu/cgi-bin/pt_graphvizView.pl?tofile=768429" ><text id="r768429" onmousemove="changeToText2('r768429', 7)" onmouseout="changeBackText2('r768429', 7)"  text-anchor="middle" x="757" y="-149.8" font-family="Times,serif" font-size="14.00">(7)</text>
 
</a> 
</g> 
<!-- h0&#45;&gt;r0 --> 
<g id="edge38" class="edge"><title>h0&#45;&gt;r0</title> 
<path fill="none" stroke="black" d="M629.369,-217.811C653.802,-207.318 686.484,-193.283 712.659,-182.042"/> 
<polygon fill="black" stroke="black" points="714.173,-185.201 721.981,-178.039 711.411,-178.769 714.173,-185.201"/> 
</g> 
</g> 
<text text-anchor="left" x="4" y="-20" style="font-family:Arial Narrow;font-size:20.00;font-weight:bold;">GO Hierarchical View:</text> 

<text text-anchor="left" x="4" y="0" style="font-family:Arial Narrow;font-size:20.00;font-style:italic;">molecular function</text> 

<script type="text/ecmascript"> 
<![CDATA[ 
var targetText; 
function changeToText(z) { 
		targetText = svgDocument.getElementById(z).firstChild; 
		targetText.nodeValue="link to "+z; 
} 
function changeBackText(z) { 
		targetText = svgDocument.getElementById(z).firstChild; 
		targetText.nodeValue=z; 
} 
function changeToText2(z,n) { 
		targetText = svgDocument.getElementById(z).firstChild; 
		if (n<=1) { 
			targetText.nodeValue="link to " + n + " protein record"; 
		} else { 
			targetText.nodeValue="link to " + n + " protein records"; 
		} 
} 
function changeBackText2(z,n) { 
		targetText = svgDocument.getElementById(z).firstChild; 
		targetText.nodeValue="(" + n + ")"; 
} 
// ]]> 
</script> 
</svg> 
