<?xml version="1.0" encoding="UTF-8" standalone="no"?> 
<!DOCTYPE svg PUBLIC "-//W3C//DTD SVG 1.1//EN" 
 "http://www.w3.org/Graphics/SVG/1.1/DTD/svg11.dtd"> 
<!-- Generated by graphviz version 2.28.0 (20110622.2320) 
 --> 
<!-- Title: G Pages: 1 --> 
<svg width="2000" height="1000"  
 viewBox="-30 -50 2000 1000" xmlns="http://www.w3.org/2000/svg" xmlns:xlink="http://www.w3.org/1999/xlink"> 
<g id="graph1" class="graph" transform="scale(1 1) rotate(0) translate(4 472)"> 
<title>G</title> 
<polygon fill="white" stroke="white" points="-4,5 -4,-472 2236,-472 2236,5 -4,5"/> 
<!-- z0 --> 
<g id="node1" class="node"><title>z0</title> 
<ellipse fill="#e98576" stroke="#e98576" cx="216" cy="-378" rx="75.2018" ry="18"/> 
<a xlink:href="http://pir.georgetown.edu/cgi-bin/pt_graphvizView.pl?togoid=0051179" ><text id="GO:0051179" onmousemove="changeToText('GO:0051179')" onmouseout="changeBackText('GO:0051179')"  text-anchor="middle" x="216" y="-378.8" font-family="Times,serif" font-size="14.00">GO:0051179</text></a>
<a xlink:href="http://pir.georgetown.edu/cgi-bin/pt_graphvizView.pl?tofile=711954" ><text id="r711954" onmousemove="changeToText2('r711954', 1)" onmouseout="changeBackText2('r711954', 1)"  text-anchor="middle" x="216" y="-365.8" font-family="Times,serif" font-size="14.00">(1)</text>
 
</a> 
</g> 
<!-- b1 --> 
<g id="node3" class="node"><title>b1</title> 
<a xlink:href="http://pir.georgetown.edu/cgi-bin/pt_graphvizView.pl?togoid=0051674" > 
<ellipse fill="#dddddd" stroke="#dddddd" cx="216" cy="-306" rx="61.1934" ry="18"/> 
<a xlink:href="http://pir.georgetown.edu/cgi-bin/pt_graphvizView.pl?togoid=0051674" ><text id="GO:0051674" onmousemove="changeToText('GO:0051674')" onmouseout="changeBackText('GO:0051674')"  text-anchor="middle" x="216" y="-301.8" font-family="Times,serif" font-size="14.00">GO:0051674</text></a>
 
</a> 
</g> 
<!-- z0&#45;&gt;b1 --> 
<g id="edge2" class="edge"><title>z0&#45;&gt;b1</title> 
<path fill="none" stroke="black" d="M216,-359.697C216,-351.983 216,-342.712 216,-334.112"/> 
<polygon fill="black" stroke="black" points="219.5,-334.104 216,-324.104 212.5,-334.104 219.5,-334.104"/> 
</g> 
<!-- y0 --> 
<g id="node17" class="node"><title>y0</title> 
<a xlink:href="http://pir.georgetown.edu/cgi-bin/pt_graphvizView.pl?togoid=0051234" > 
<ellipse fill="#dddddd" stroke="#dddddd" cx="75" cy="-306" rx="61.1934" ry="18"/> 
<a xlink:href="http://pir.georgetown.edu/cgi-bin/pt_graphvizView.pl?togoid=0051234" ><text id="GO:0051234" onmousemove="changeToText('GO:0051234')" onmouseout="changeBackText('GO:0051234')"  text-anchor="middle" x="75" y="-301.8" font-family="Times,serif" font-size="14.00">GO:0051234</text></a>
 
</a> 
</g> 
<!-- z0&#45;&gt;y0 --> 
<g id="edge16" class="edge"><title>z0&#45;&gt;y0</title> 
<path fill="none" stroke="black" d="M184.708,-361.465C163.836,-351.103 136.243,-337.404 113.951,-326.337"/> 
<polygon fill="black" stroke="black" points="115.27,-323.085 104.757,-321.773 112.158,-329.355 115.27,-323.085"/> 
</g> 
<!-- a1 --> 
<g id="node11" class="node"><title>a1</title> 
<ellipse fill="#e98576" stroke="#e98576" cx="267" cy="-234" rx="75.2018" ry="18"/> 
<a xlink:href="http://pir.georgetown.edu/cgi-bin/pt_graphvizView.pl?togoid=0006928" ><text id="GO:0006928" onmousemove="changeToText('GO:0006928')" onmouseout="changeBackText('GO:0006928')"  text-anchor="middle" x="267" y="-234.8" font-family="Times,serif" font-size="14.00">GO:0006928</text></a>
<a xlink:href="http://pir.georgetown.edu/cgi-bin/pt_graphvizView.pl?tofile=711956" ><text id="r711956" onmousemove="changeToText2('r711956', 1)" onmouseout="changeBackText2('r711956', 1)"  text-anchor="middle" x="267" y="-221.8" font-family="Times,serif" font-size="14.00">(1)</text>
 
</a> 
</g> 
<!-- b1&#45;&gt;a1 --> 
<g id="edge10" class="edge"><title>b1&#45;&gt;a1</title> 
<path fill="none" stroke="black" d="M228.346,-288.055C234.485,-279.629 242.025,-269.28 248.81,-259.966"/> 
<polygon fill="black" stroke="black" points="251.708,-261.932 254.768,-251.789 246.051,-257.81 251.708,-261.932"/> 
</g> 
<!-- h1 --> 
<g id="node4" class="node"><title>h1</title> 
<a xlink:href="http://pir.georgetown.edu/cgi-bin/pt_graphvizView.pl?togoid=0006139" > 
<ellipse fill="#dddddd" stroke="#dddddd" cx="872" cy="-234" rx="61.1934" ry="18"/> 
<a xlink:href="http://pir.georgetown.edu/cgi-bin/pt_graphvizView.pl?togoid=0006139" ><text id="GO:0006139" onmousemove="changeToText('GO:0006139')" onmouseout="changeBackText('GO:0006139')"  text-anchor="middle" x="872" y="-229.8" font-family="Times,serif" font-size="14.00">GO:0006139</text></a>
 
</a> 
</g> 
<!-- j1 --> 
<g id="node6" class="node"><title>j1</title> 
<a xlink:href="http://pir.georgetown.edu/cgi-bin/pt_graphvizView.pl?togoid=0016070" > 
<ellipse fill="#dddddd" stroke="#dddddd" cx="1013" cy="-162" rx="61.1934" ry="18"/> 
<a xlink:href="http://pir.georgetown.edu/cgi-bin/pt_graphvizView.pl?togoid=0016070" ><text id="GO:0016070" onmousemove="changeToText('GO:0016070')" onmouseout="changeBackText('GO:0016070')"  text-anchor="middle" x="1013" y="-157.8" font-family="Times,serif" font-size="14.00">GO:0016070</text></a>
 
</a> 
</g> 
<!-- h1&#45;&gt;j1 --> 
<g id="edge4" class="edge"><title>h1&#45;&gt;j1</title> 
<path fill="none" stroke="black" d="M901.902,-218.155C922.933,-207.714 951.275,-193.644 974.069,-182.328"/> 
<polygon fill="black" stroke="black" points="975.74,-185.405 983.141,-177.824 972.627,-179.136 975.74,-185.405"/> 
</g> 
<!-- g1 --> 
<g id="node47" class="node"><title>g1</title> 
<a xlink:href="http://pir.georgetown.edu/cgi-bin/pt_graphvizView.pl?togoid=0006350" > 
<ellipse fill="#dddddd" stroke="#dddddd" cx="872" cy="-90" rx="61.1934" ry="18"/> 
<a xlink:href="http://pir.georgetown.edu/cgi-bin/pt_graphvizView.pl?togoid=0006350" ><text id="GO:0006350" onmousemove="changeToText('GO:0006350')" onmouseout="changeBackText('GO:0006350')"  text-anchor="middle" x="872" y="-85.8" font-family="Times,serif" font-size="14.00">GO:0006350</text></a>
 
</a> 
</g> 
<!-- h1&#45;&gt;g1 --> 
<g id="edge44" class="edge"><title>h1&#45;&gt;g1</title> 
<path fill="none" stroke="black" d="M872,-215.871C872,-191.67 872,-147.211 872,-118.393"/> 
<polygon fill="black" stroke="black" points="875.5,-118.189 872,-108.189 868.5,-118.189 875.5,-118.189"/> 
</g> 
<!-- i1 --> 
<g id="node63" class="node"><title>i1</title> 
<a xlink:href="http://pir.georgetown.edu/cgi-bin/pt_graphvizView.pl?togoid=0032774" > 
<ellipse fill="#dddddd" stroke="#dddddd" cx="1013" cy="-90" rx="61.1934" ry="18"/> 
<a xlink:href="http://pir.georgetown.edu/cgi-bin/pt_graphvizView.pl?togoid=0032774" ><text id="GO:0032774" onmousemove="changeToText('GO:0032774')" onmouseout="changeBackText('GO:0032774')"  text-anchor="middle" x="1013" y="-85.8" font-family="Times,serif" font-size="14.00">GO:0032774</text></a>
 
</a> 
</g> 
<!-- j1&#45;&gt;i1 --> 
<g id="edge80" class="edge"><title>j1&#45;&gt;i1</title> 
<path fill="none" stroke="black" d="M1013,-143.697C1013,-135.983 1013,-126.712 1013,-118.112"/> 
<polygon fill="black" stroke="black" points="1016.5,-118.104 1013,-108.104 1009.5,-118.104 1016.5,-118.104"/> 
</g> 
<!-- m0 --> 
<g id="node7" class="node"><title>m0</title> 
<a xlink:href="http://pir.georgetown.edu/cgi-bin/pt_graphvizView.pl?togoid=0043283" > 
<ellipse fill="#dddddd" stroke="#dddddd" cx="1295" cy="-234" rx="61.1934" ry="18"/> 
<a xlink:href="http://pir.georgetown.edu/cgi-bin/pt_graphvizView.pl?togoid=0043283" ><text id="GO:0043283" onmousemove="changeToText('GO:0043283')" onmouseout="changeBackText('GO:0043283')"  text-anchor="middle" x="1295" y="-229.8" font-family="Times,serif" font-size="14.00">GO:0043283</text></a>
 
</a> 
</g> 
<!-- m0&#45;&gt;j1 --> 
<g id="edge6" class="edge"><title>m0&#45;&gt;j1</title> 
<path fill="none" stroke="black" d="M1249.69,-221.753C1200.25,-209.481 1121.1,-189.833 1068.1,-176.678"/> 
<polygon fill="black" stroke="black" points="1068.74,-173.231 1058.2,-174.219 1067.06,-180.025 1068.74,-173.231"/> 
</g> 
<!-- l0 --> 
<g id="node23" class="node"><title>l0</title> 
<a xlink:href="http://pir.georgetown.edu/cgi-bin/pt_graphvizView.pl?togoid=0043412" > 
<ellipse fill="#dddddd" stroke="#dddddd" cx="1295" cy="-162" rx="61.1934" ry="18"/> 
<a xlink:href="http://pir.georgetown.edu/cgi-bin/pt_graphvizView.pl?togoid=0043412" ><text id="GO:0043412" onmousemove="changeToText('GO:0043412')" onmouseout="changeBackText('GO:0043412')"  text-anchor="middle" x="1295" y="-157.8" font-family="Times,serif" font-size="14.00">GO:0043412</text></a>
 
</a> 
</g> 
<!-- m0&#45;&gt;l0 --> 
<g id="edge20" class="edge"><title>m0&#45;&gt;l0</title> 
<path fill="none" stroke="black" d="M1295,-215.697C1295,-207.983 1295,-198.712 1295,-190.112"/> 
<polygon fill="black" stroke="black" points="1298.5,-190.104 1295,-180.104 1291.5,-190.104 1298.5,-190.104"/> 
</g> 
<!-- d0 --> 
<g id="node9" class="node"><title>d0</title> 
<a xlink:href="http://pir.georgetown.edu/cgi-bin/pt_graphvizView.pl?togoid=0009987" > 
<ellipse fill="#dddddd" stroke="#dddddd" cx="643" cy="-378" rx="61.1934" ry="18"/> 
<a xlink:href="http://pir.georgetown.edu/cgi-bin/pt_graphvizView.pl?togoid=0009987" ><text id="GO:0009987" onmousemove="changeToText('GO:0009987')" onmouseout="changeBackText('GO:0009987')"  text-anchor="middle" x="643" y="-373.8" font-family="Times,serif" font-size="14.00">GO:0009987</text></a>
 
</a> 
</g> 
<!-- d0&#45;&gt;a1 --> 
<g id="edge8" class="edge"><title>d0&#45;&gt;a1</title> 
<path fill="none" stroke="black" d="M584.159,-372.925C504.031,-366.425 365.773,-351.542 324,-324 301.489,-309.158 286.039,-282.028 276.962,-261.609"/> 
<polygon fill="black" stroke="black" points="280.114,-260.073 273.015,-252.208 273.659,-262.783 280.114,-260.073"/> 
</g> 
<!-- i0 --> 
<g id="node31" class="node"><title>i0</title> 
<a xlink:href="http://pir.georgetown.edu/cgi-bin/pt_graphvizView.pl?togoid=0044237" > 
<ellipse fill="#dddddd" stroke="#dddddd" cx="872" cy="-306" rx="61.1934" ry="18"/> 
<a xlink:href="http://pir.georgetown.edu/cgi-bin/pt_graphvizView.pl?togoid=0044237" ><text id="GO:0044237" onmousemove="changeToText('GO:0044237')" onmouseout="changeBackText('GO:0044237')"  text-anchor="middle" x="872" y="-301.8" font-family="Times,serif" font-size="14.00">GO:0044237</text></a>
 
</a> 
</g> 
<!-- d0&#45;&gt;i0 --> 
<g id="edge60" class="edge"><title>d0&#45;&gt;i0</title> 
<path fill="none" stroke="black" d="M683.941,-364.485C722.41,-352.726 780.092,-335.094 821.422,-322.461"/> 
<polygon fill="black" stroke="black" points="822.488,-325.794 831.028,-319.524 820.442,-319.1 822.488,-325.794"/> 
</g> 
<!-- d1 --> 
<g id="node34" class="node"><title>d1</title> 
<ellipse fill="#e98576" stroke="#e98576" cx="576" cy="-306" rx="75.2018" ry="18"/> 
<a xlink:href="http://pir.georgetown.edu/cgi-bin/pt_graphvizView.pl?togoid=0008283" ><text id="GO:0008283" onmousemove="changeToText('GO:0008283')" onmouseout="changeBackText('GO:0008283')"  text-anchor="middle" x="576" y="-306.8" font-family="Times,serif" font-size="14.00">GO:0008283</text></a>
<a xlink:href="http://pir.georgetown.edu/cgi-bin/pt_graphvizView.pl?tofile=711960" ><text id="r711960" onmousemove="changeToText2('r711960', 1)" onmouseout="changeBackText2('r711960', 1)"  text-anchor="middle" x="576" y="-293.8" font-family="Times,serif" font-size="14.00">(1)</text>
 
</a> 
</g> 
<!-- d0&#45;&gt;d1 --> 
<g id="edge30" class="edge"><title>d0&#45;&gt;d1</title> 
<path fill="none" stroke="black" d="M627.122,-360.411C618.817,-351.734 608.491,-340.946 599.299,-331.342"/> 
<polygon fill="black" stroke="black" points="601.673,-328.76 592.23,-323.956 596.616,-333.601 601.673,-328.76"/> 
</g> 
<!-- u0 --> 
<g id="node53" class="node"><title>u0</title> 
<a xlink:href="http://pir.georgetown.edu/cgi-bin/pt_graphvizView.pl?togoid=0016043" > 
<ellipse fill="#dddddd" stroke="#dddddd" cx="731" cy="-306" rx="61.1934" ry="18"/> 
<a xlink:href="http://pir.georgetown.edu/cgi-bin/pt_graphvizView.pl?togoid=0016043" ><text id="GO:0016043" onmousemove="changeToText('GO:0016043')" onmouseout="changeBackText('GO:0016043')"  text-anchor="middle" x="731" y="-301.8" font-family="Times,serif" font-size="14.00">GO:0016043</text></a>
 
</a> 
</g> 
<!-- d0&#45;&gt;u0 --> 
<g id="edge84" class="edge"><title>d0&#45;&gt;u0</title> 
<path fill="none" stroke="black" d="M663.41,-360.765C675.072,-351.488 689.873,-339.714 702.65,-329.551"/> 
<polygon fill="black" stroke="black" points="705.053,-332.112 710.701,-323.147 700.696,-326.633 705.053,-332.112"/> 
</g> 
<!-- c0 --> 
<g id="node78" class="node"><title>c0</title> 
<ellipse fill="#e98576" stroke="#e98576" cx="408" cy="-306" rx="75.2018" ry="18"/> 
<a xlink:href="http://pir.georgetown.edu/cgi-bin/pt_graphvizView.pl?togoid=0007154" ><text id="GO:0007154" onmousemove="changeToText('GO:0007154')" onmouseout="changeBackText('GO:0007154')"  text-anchor="middle" x="408" y="-306.8" font-family="Times,serif" font-size="14.00">GO:0007154</text></a>
<a xlink:href="http://pir.georgetown.edu/cgi-bin/pt_graphvizView.pl?tofile=711936" ><text id="r711936" onmousemove="changeToText2('r711936', 3)" onmouseout="changeBackText2('r711936', 3)"  text-anchor="middle" x="408" y="-293.8" font-family="Times,serif" font-size="14.00">(3)</text>
 
</a> 
</g> 
<!-- d0&#45;&gt;c0 --> 
<g id="edge82" class="edge"><title>d0&#45;&gt;c0</title> 
<path fill="none" stroke="black" d="M601.528,-364.647C562.899,-353.14 505.058,-335.911 462.67,-323.285"/> 
<polygon fill="black" stroke="black" points="463.646,-319.923 453.063,-320.423 461.647,-326.632 463.646,-319.923"/> 
</g> 
<!-- b0 --> 
<g id="node13" class="node"><title>b0</title> 
<a xlink:href="http://pir.georgetown.edu/cgi-bin/pt_graphvizView.pl?togoid=0008150" > 
<ellipse fill="#dddddd" stroke="#dddddd" cx="1251" cy="-450" rx="61.1934" ry="18"/> 
<a xlink:href="http://pir.georgetown.edu/cgi-bin/pt_graphvizView.pl?togoid=0008150" ><text id="GO:0008150" onmousemove="changeToText('GO:0008150')" onmouseout="changeBackText('GO:0008150')"  text-anchor="middle" x="1251" y="-445.8" font-family="Times,serif" font-size="14.00">GO:0008150</text></a>
 
</a> 
</g> 
<!-- b0&#45;&gt;z0 --> 
<g id="edge50" class="edge"><title>b0&#45;&gt;z0</title> 
<path fill="none" stroke="black" d="M1192.01,-445.011C1016.77,-433.158 498.943,-398.136 297.485,-384.511"/> 
<polygon fill="black" stroke="black" points="297.481,-381.003 287.267,-383.82 297.008,-387.987 297.481,-381.003"/> 
</g> 
<!-- b0&#45;&gt;d0 --> 
<g id="edge76" class="edge"><title>b0&#45;&gt;d0</title> 
<path fill="none" stroke="black" d="M1194.55,-442.824C1106.28,-433.124 930.234,-413.606 781,-396 757.194,-393.191 731.091,-390.004 708.056,-387.154"/> 
<polygon fill="black" stroke="black" points="708.404,-383.67 698.049,-385.913 707.542,-390.617 708.404,-383.67"/> 
</g> 
<!-- j0 --> 
<g id="node15" class="node"><title>j0</title> 
<a xlink:href="http://pir.georgetown.edu/cgi-bin/pt_graphvizView.pl?togoid=0008152" > 
<ellipse fill="#dddddd" stroke="#dddddd" cx="851" cy="-378" rx="61.1934" ry="18"/> 
<a xlink:href="http://pir.georgetown.edu/cgi-bin/pt_graphvizView.pl?togoid=0008152" ><text id="GO:0008152" onmousemove="changeToText('GO:0008152')" onmouseout="changeBackText('GO:0008152')"  text-anchor="middle" x="851" y="-373.8" font-family="Times,serif" font-size="14.00">GO:0008152</text></a>
 
</a> 
</g> 
<!-- b0&#45;&gt;j0 --> 
<g id="edge12" class="edge"><title>b0&#45;&gt;j0</title> 
<path fill="none" stroke="black" d="M1196.63,-441.522C1131.21,-432.229 1018.16,-415.229 922,-396 916.718,-394.944 911.233,-393.77 905.757,-392.546"/> 
<polygon fill="black" stroke="black" points="906.488,-389.123 895.959,-390.304 904.927,-395.946 906.488,-389.123"/> 
</g> 
<!-- b0&#45;&gt;y0 --> 
<g id="edge14" class="edge"><title>b0&#45;&gt;y0</title> 
<path fill="none" stroke="black" d="M1189.66,-449.353C968.982,-450.182 223.656,-448.997 132,-396 108.277,-382.283 92.8339,-354.28 84.0839,-333.328"/> 
<polygon fill="black" stroke="black" points="87.3314,-332.023 80.4239,-323.989 80.814,-334.577 87.3314,-332.023"/> 
</g> 
<!-- s0 --> 
<g id="node25" class="node"><title>s0</title> 
<ellipse fill="#e98576" stroke="#e98576" cx="1006" cy="-378" rx="75.2018" ry="18"/> 
<a xlink:href="http://pir.georgetown.edu/cgi-bin/pt_graphvizView.pl?togoid=0000003" ><text id="GO:0000003" onmousemove="changeToText('GO:0000003')" onmouseout="changeBackText('GO:0000003')"  text-anchor="middle" x="1006" y="-378.8" font-family="Times,serif" font-size="14.00">GO:0000003</text></a>
<a xlink:href="http://pir.georgetown.edu/cgi-bin/pt_graphvizView.pl?tofile=711946" ><text id="r711946" onmousemove="changeToText2('r711946', 1)" onmouseout="changeBackText2('r711946', 1)"  text-anchor="middle" x="1006" y="-365.8" font-family="Times,serif" font-size="14.00">(1)</text>
 
</a> 
</g> 
<!-- b0&#45;&gt;s0 --> 
<g id="edge22" class="edge"><title>b0&#45;&gt;s0</title> 
<path fill="none" stroke="black" d="M1208.6,-436.887C1168.11,-425.318 1106.83,-407.809 1062.27,-395.077"/> 
<polygon fill="black" stroke="black" points="1063.04,-391.657 1052.46,-392.275 1061.12,-398.387 1063.04,-391.657"/> 
</g> 
<!-- c1 --> 
<g id="node27" class="node"><title>c1</title> 
<ellipse fill="#e98576" stroke="#e98576" cx="1174" cy="-378" rx="75.2018" ry="18"/> 
<a xlink:href="http://pir.georgetown.edu/cgi-bin/pt_graphvizView.pl?togoid=0051704" ><text id="GO:0051704" onmousemove="changeToText('GO:0051704')" onmouseout="changeBackText('GO:0051704')"  text-anchor="middle" x="1174" y="-378.8" font-family="Times,serif" font-size="14.00">GO:0051704</text></a>
<a xlink:href="http://pir.georgetown.edu/cgi-bin/pt_graphvizView.pl?tofile=711958" ><text id="r711958" onmousemove="changeToText2('r711958', 1)" onmouseout="changeBackText2('r711958', 1)"  text-anchor="middle" x="1174" y="-365.8" font-family="Times,serif" font-size="14.00">(1)</text>
 
</a> 
</g> 
<!-- b0&#45;&gt;c1 --> 
<g id="edge24" class="edge"><title>b0&#45;&gt;c1</title> 
<path fill="none" stroke="black" d="M1233.14,-432.765C1223.27,-423.795 1210.84,-412.49 1199.92,-402.564"/> 
<polygon fill="black" stroke="black" points="1202.05,-399.77 1192.3,-395.633 1197.34,-404.95 1202.05,-399.77"/> 
</g> 
<!-- f0 --> 
<g id="node35" class="node"><title>f0</title> 
<a xlink:href="http://pir.georgetown.edu/cgi-bin/pt_graphvizView.pl?togoid=0065007" > 
<ellipse fill="#dddddd" stroke="#dddddd" cx="1329" cy="-378" rx="61.1934" ry="18"/> 
<a xlink:href="http://pir.georgetown.edu/cgi-bin/pt_graphvizView.pl?togoid=0065007" ><text id="GO:0065007" onmousemove="changeToText('GO:0065007')" onmouseout="changeBackText('GO:0065007')"  text-anchor="middle" x="1329" y="-373.8" font-family="Times,serif" font-size="14.00">GO:0065007</text></a>
 
</a> 
</g> 
<!-- b0&#45;&gt;f0 --> 
<g id="edge54" class="edge"><title>b0&#45;&gt;f0</title> 
<path fill="none" stroke="black" d="M1269.09,-432.765C1279.16,-423.73 1291.87,-412.326 1302.98,-402.349"/> 
<polygon fill="black" stroke="black" points="1305.63,-404.674 1310.74,-395.39 1300.96,-399.464 1305.63,-404.674"/> 
</g> 
<!-- l1 --> 
<g id="node42" class="node"><title>l1</title> 
<ellipse fill="#e98576" stroke="#e98576" cx="1484" cy="-378" rx="75.2018" ry="18"/> 
<a xlink:href="http://pir.georgetown.edu/cgi-bin/pt_graphvizView.pl?togoid=0040011" ><text id="GO:0040011" onmousemove="changeToText('GO:0040011')" onmouseout="changeBackText('GO:0040011')"  text-anchor="middle" x="1484" y="-378.8" font-family="Times,serif" font-size="14.00">GO:0040011</text></a>
<a xlink:href="http://pir.georgetown.edu/cgi-bin/pt_graphvizView.pl?tofile=711968" ><text id="r711968" onmousemove="changeToText2('r711968', 1)" onmouseout="changeBackText2('r711968', 1)"  text-anchor="middle" x="1484" y="-365.8" font-family="Times,serif" font-size="14.00">(1)</text>
 
</a> 
</g> 
<!-- b0&#45;&gt;l1 --> 
<g id="edge38" class="edge"><title>b0&#45;&gt;l1</title> 
<path fill="none" stroke="black" d="M1292.12,-436.647C1330.22,-425.201 1387.17,-408.092 1429.13,-395.485"/> 
<polygon fill="black" stroke="black" points="1430.35,-398.774 1438.92,-392.544 1428.33,-392.07 1430.35,-398.774"/> 
</g> 
<!-- e1 --> 
<g id="node44" class="node"><title>e1</title> 
<ellipse fill="#e98576" stroke="#e98576" cx="1652" cy="-378" rx="75.2018" ry="18"/> 
<a xlink:href="http://pir.georgetown.edu/cgi-bin/pt_graphvizView.pl?togoid=0002376" ><text id="GO:0002376" onmousemove="changeToText('GO:0002376')" onmouseout="changeBackText('GO:0002376')"  text-anchor="middle" x="1652" y="-378.8" font-family="Times,serif" font-size="14.00">GO:0002376</text></a>
<a xlink:href="http://pir.georgetown.edu/cgi-bin/pt_graphvizView.pl?tofile=711962" ><text id="r711962" onmousemove="changeToText2('r711962', 1)" onmouseout="changeBackText2('r711962', 1)"  text-anchor="middle" x="1652" y="-365.8" font-family="Times,serif" font-size="14.00">(1)</text>
 
</a> 
</g> 
<!-- b0&#45;&gt;e1 --> 
<g id="edge40" class="edge"><title>b0&#45;&gt;e1</title> 
<path fill="none" stroke="black" d="M1303.82,-440.732C1366.82,-430.741 1475.27,-413.13 1568,-396 1574.15,-394.865 1580.53,-393.644 1586.92,-392.398"/> 
<polygon fill="black" stroke="black" points="1587.79,-395.794 1596.93,-390.425 1586.44,-388.926 1587.79,-395.794"/> 
</g> 
<!-- a0 --> 
<g id="node58" class="node"><title>a0</title> 
<ellipse fill="#e98576" stroke="#e98576" cx="1820" cy="-378" rx="75.2018" ry="18"/> 
<a xlink:href="http://pir.georgetown.edu/cgi-bin/pt_graphvizView.pl?togoid=0050896" ><text id="GO:0050896" onmousemove="changeToText('GO:0050896')" onmouseout="changeBackText('GO:0050896')"  text-anchor="middle" x="1820" y="-378.8" font-family="Times,serif" font-size="14.00">GO:0050896</text></a>
<a xlink:href="http://pir.georgetown.edu/cgi-bin/pt_graphvizView.pl?tofile=711934" ><text id="r711934" onmousemove="changeToText2('r711934', 3)" onmouseout="changeBackText2('r711934', 3)"  text-anchor="middle" x="1820" y="-365.8" font-family="Times,serif" font-size="14.00">(3)</text>
 
</a> 
</g> 
<!-- b0&#45;&gt;a0 --> 
<g id="edge56" class="edge"><title>b0&#45;&gt;a0</title> 
<path fill="none" stroke="black" d="M1309.46,-444.339C1400.81,-436.666 1582.83,-419.817 1736,-396 1742.62,-394.971 1749.51,-393.778 1756.36,-392.511"/> 
<polygon fill="black" stroke="black" points="1757.19,-395.917 1766.36,-390.611 1755.88,-389.041 1757.19,-395.917"/> 
</g> 
<!-- v0 --> 
<g id="node72" class="node"><title>v0</title> 
<ellipse fill="#e98576" stroke="#e98576" cx="1988" cy="-378" rx="75.2018" ry="18"/> 
<a xlink:href="http://pir.georgetown.edu/cgi-bin/pt_graphvizView.pl?togoid=0032501" ><text id="GO:0032501" onmousemove="changeToText('GO:0032501')" onmouseout="changeBackText('GO:0032501')"  text-anchor="middle" x="1988" y="-378.8" font-family="Times,serif" font-size="14.00">GO:0032501</text></a>
<a xlink:href="http://pir.georgetown.edu/cgi-bin/pt_graphvizView.pl?tofile=711950" ><text id="r711950" onmousemove="changeToText2('r711950', 1)" onmouseout="changeBackText2('r711950', 1)"  text-anchor="middle" x="1988" y="-365.8" font-family="Times,serif" font-size="14.00">(1)</text>
 
</a> 
</g> 
<!-- b0&#45;&gt;v0 --> 
<g id="edge74" class="edge"><title>b0&#45;&gt;v0</title> 
<path fill="none" stroke="black" d="M1311.13,-446.509C1426.54,-441.199 1686.92,-426.666 1904,-396 1910.73,-395.049 1917.73,-393.896 1924.7,-392.644"/> 
<polygon fill="black" stroke="black" points="1925.65,-396.026 1934.84,-390.749 1924.37,-389.145 1925.65,-396.026"/> 
</g> 
<!-- g0 --> 
<g id="node84" class="node"><title>g0</title> 
<ellipse fill="#e98576" stroke="#e98576" cx="2156" cy="-378" rx="75.2018" ry="18"/> 
<a xlink:href="http://pir.georgetown.edu/cgi-bin/pt_graphvizView.pl?togoid=0032502" ><text id="GO:0032502" onmousemove="changeToText('GO:0032502')" onmouseout="changeBackText('GO:0032502')"  text-anchor="middle" x="2156" y="-378.8" font-family="Times,serif" font-size="14.00">GO:0032502</text></a>
<a xlink:href="http://pir.georgetown.edu/cgi-bin/pt_graphvizView.pl?tofile=711940" ><text id="r711940" onmousemove="changeToText2('r711940', 2)" onmouseout="changeBackText2('r711940', 2)"  text-anchor="middle" x="2156" y="-365.8" font-family="Times,serif" font-size="14.00">(2)</text>
 
</a> 
</g> 
<!-- b0&#45;&gt;g0 --> 
<g id="edge92" class="edge"><title>b0&#45;&gt;g0</title> 
<path fill="none" stroke="black" d="M1312.04,-447.878C1448.72,-444.751 1789.53,-433.525 2072,-396 2078.74,-395.105 2085.75,-393.988 2092.72,-392.756"/> 
<polygon fill="black" stroke="black" points="2093.66,-396.141 2102.86,-390.883 2092.39,-389.257 2093.66,-396.141"/> 
</g> 
<!-- n0 --> 
<g id="node28" class="node"><title>n0</title> 
<a xlink:href="http://pir.georgetown.edu/cgi-bin/pt_graphvizView.pl?togoid=0043170" > 
<ellipse fill="#dddddd" stroke="#dddddd" cx="1154" cy="-306" rx="61.1934" ry="18"/> 
<a xlink:href="http://pir.georgetown.edu/cgi-bin/pt_graphvizView.pl?togoid=0043170" ><text id="GO:0043170" onmousemove="changeToText('GO:0043170')" onmouseout="changeBackText('GO:0043170')"  text-anchor="middle" x="1154" y="-301.8" font-family="Times,serif" font-size="14.00">GO:0043170</text></a>
 
</a> 
</g> 
<!-- j0&#45;&gt;n0 --> 
<g id="edge86" class="edge"><title>j0&#45;&gt;n0</title> 
<path fill="none" stroke="black" d="M896.808,-365.925C905.183,-363.931 913.85,-361.887 922,-360 993.433,-343.463 1011.57,-340.537 1083,-324 1087.97,-322.85 1093.12,-321.642 1098.29,-320.423"/> 
<polygon fill="black" stroke="black" points="1099.27,-323.788 1108.19,-318.075 1097.65,-316.977 1099.27,-323.788"/> 
</g> 
<!-- j0&#45;&gt;i0 --> 
<g id="edge58" class="edge"><title>j0&#45;&gt;i0</title> 
<path fill="none" stroke="black" d="M856.084,-360.055C858.422,-352.261 861.253,-342.822 863.876,-334.079"/> 
<polygon fill="black" stroke="black" points="867.296,-334.859 866.817,-324.275 860.591,-332.848 867.296,-334.859"/> 
</g> 
<!-- q0 --> 
<g id="node50" class="node"><title>q0</title> 
<a xlink:href="http://pir.georgetown.edu/cgi-bin/pt_graphvizView.pl?togoid=0044238" > 
<ellipse fill="#dddddd" stroke="#dddddd" cx="1013" cy="-306" rx="61.1934" ry="18"/> 
<a xlink:href="http://pir.georgetown.edu/cgi-bin/pt_graphvizView.pl?togoid=0044238" ><text id="GO:0044238" onmousemove="changeToText('GO:0044238')" onmouseout="changeBackText('GO:0044238')"  text-anchor="middle" x="1013" y="-301.8" font-family="Times,serif" font-size="14.00">GO:0044238</text></a>
 
</a> 
</g> 
<!-- j0&#45;&gt;q0 --> 
<g id="edge94" class="edge"><title>j0&#45;&gt;q0</title> 
<path fill="none" stroke="black" d="M884.174,-362.666C909.264,-351.824 943.893,-336.861 970.929,-325.179"/> 
<polygon fill="black" stroke="black" points="972.356,-328.375 980.148,-321.196 969.58,-321.949 972.356,-328.375"/> 
</g> 
<!-- x0 --> 
<g id="node19" class="node"><title>x0</title> 
<a xlink:href="http://pir.georgetown.edu/cgi-bin/pt_graphvizView.pl?togoid=0006810" > 
<ellipse fill="#dddddd" stroke="#dddddd" cx="75" cy="-234" rx="61.1934" ry="18"/> 
<a xlink:href="http://pir.georgetown.edu/cgi-bin/pt_graphvizView.pl?togoid=0006810" ><text id="GO:0006810" onmousemove="changeToText('GO:0006810')" onmouseout="changeBackText('GO:0006810')"  text-anchor="middle" x="75" y="-229.8" font-family="Times,serif" font-size="14.00">GO:0006810</text></a>
 
</a> 
</g> 
<!-- y0&#45;&gt;x0 --> 
<g id="edge42" class="edge"><title>y0&#45;&gt;x0</title> 
<path fill="none" stroke="black" d="M75,-287.697C75,-279.983 75,-270.712 75,-262.112"/> 
<polygon fill="black" stroke="black" points="78.5001,-262.104 75,-252.104 71.5001,-262.104 78.5001,-262.104"/> 
</g> 
<!-- w0 --> 
<g id="node21" class="node"><title>w0</title> 
<ellipse fill="#e98576" stroke="#e98576" cx="75" cy="-162" rx="75.2018" ry="18"/> 
<a xlink:href="http://pir.georgetown.edu/cgi-bin/pt_graphvizView.pl?togoid=0006811" ><text id="GO:0006811" onmousemove="changeToText('GO:0006811')" onmouseout="changeBackText('GO:0006811')"  text-anchor="middle" x="75" y="-162.8" font-family="Times,serif" font-size="14.00">GO:0006811</text></a>
<a xlink:href="http://pir.georgetown.edu/cgi-bin/pt_graphvizView.pl?tofile=711952" ><text id="r711952" onmousemove="changeToText2('r711952', 1)" onmouseout="changeBackText2('r711952', 1)"  text-anchor="middle" x="75" y="-149.8" font-family="Times,serif" font-size="14.00">(1)</text>
 
</a> 
</g> 
<!-- x0&#45;&gt;w0 --> 
<g id="edge18" class="edge"><title>x0&#45;&gt;w0</title> 
<path fill="none" stroke="black" d="M75,-215.697C75,-207.983 75,-198.712 75,-190.112"/> 
<polygon fill="black" stroke="black" points="78.5001,-190.104 75,-180.104 71.5001,-190.104 78.5001,-190.104"/> 
</g> 
<!-- k0 --> 
<g id="node68" class="node"><title>k0</title> 
<ellipse fill="#e98576" stroke="#e98576" cx="1231" cy="-90" rx="75.2018" ry="18"/> 
<a xlink:href="http://pir.georgetown.edu/cgi-bin/pt_graphvizView.pl?togoid=0006464" ><text id="GO:0006464" onmousemove="changeToText('GO:0006464')" onmouseout="changeBackText('GO:0006464')"  text-anchor="middle" x="1231" y="-90.8" font-family="Times,serif" font-size="14.00">GO:0006464</text></a>
<a xlink:href="http://pir.georgetown.edu/cgi-bin/pt_graphvizView.pl?tofile=711944" ><text id="r711944" onmousemove="changeToText2('r711944', 2)" onmouseout="changeBackText2('r711944', 2)"  text-anchor="middle" x="1231" y="-77.8" font-family="Times,serif" font-size="14.00">(2)</text>
 
</a> 
</g> 
<!-- l0&#45;&gt;k0 --> 
<g id="edge70" class="edge"><title>l0&#45;&gt;k0</title> 
<path fill="none" stroke="black" d="M1279.83,-144.411C1271.9,-135.734 1262.04,-124.946 1253.26,-115.342"/> 
<polygon fill="black" stroke="black" points="1255.83,-112.975 1246.5,-107.956 1250.67,-117.698 1255.83,-112.975"/> 
</g> 
<!-- n0&#45;&gt;m0 --> 
<g id="edge34" class="edge"><title>n0&#45;&gt;m0</title> 
<path fill="none" stroke="black" d="M1183.9,-290.155C1204.93,-279.714 1233.28,-265.644 1256.07,-254.328"/> 
<polygon fill="black" stroke="black" points="1257.74,-257.405 1265.14,-249.824 1254.63,-251.136 1257.74,-257.405"/> 
</g> 
<!-- r0 --> 
<g id="node30" class="node"><title>r0</title> 
<a xlink:href="http://pir.georgetown.edu/cgi-bin/pt_graphvizView.pl?togoid=0044260" > 
<ellipse fill="#dddddd" stroke="#dddddd" cx="1013" cy="-234" rx="61.1934" ry="18"/> 
<a xlink:href="http://pir.georgetown.edu/cgi-bin/pt_graphvizView.pl?togoid=0044260" ><text id="GO:0044260" onmousemove="changeToText('GO:0044260')" onmouseout="changeBackText('GO:0044260')"  text-anchor="middle" x="1013" y="-229.8" font-family="Times,serif" font-size="14.00">GO:0044260</text></a>
 
</a> 
</g> 
<!-- n0&#45;&gt;r0 --> 
<g id="edge26" class="edge"><title>n0&#45;&gt;r0</title> 
<path fill="none" stroke="black" d="M1124.1,-290.155C1103.07,-279.714 1074.72,-265.644 1051.93,-254.328"/> 
<polygon fill="black" stroke="black" points="1053.37,-251.136 1042.86,-249.824 1050.26,-257.405 1053.37,-251.136"/> 
</g> 
<!-- p0 --> 
<g id="node49" class="node"><title>p0</title> 
<a xlink:href="http://pir.georgetown.edu/cgi-bin/pt_graphvizView.pl?togoid=0019538" > 
<ellipse fill="#dddddd" stroke="#dddddd" cx="1154" cy="-234" rx="61.1934" ry="18"/> 
<a xlink:href="http://pir.georgetown.edu/cgi-bin/pt_graphvizView.pl?togoid=0019538" ><text id="GO:0019538" onmousemove="changeToText('GO:0019538')" onmouseout="changeBackText('GO:0019538')"  text-anchor="middle" x="1154" y="-229.8" font-family="Times,serif" font-size="14.00">GO:0019538</text></a>
 
</a> 
</g> 
<!-- n0&#45;&gt;p0 --> 
<g id="edge46" class="edge"><title>n0&#45;&gt;p0</title> 
<path fill="none" stroke="black" d="M1154,-287.697C1154,-279.983 1154,-270.712 1154,-262.112"/> 
<polygon fill="black" stroke="black" points="1157.5,-262.104 1154,-252.104 1150.5,-262.104 1157.5,-262.104"/> 
</g> 
<!-- o0 --> 
<g id="node69" class="node"><title>o0</title> 
<a xlink:href="http://pir.georgetown.edu/cgi-bin/pt_graphvizView.pl?togoid=0044267" > 
<ellipse fill="#dddddd" stroke="#dddddd" cx="1154" cy="-162" rx="61.1934" ry="18"/> 
<a xlink:href="http://pir.georgetown.edu/cgi-bin/pt_graphvizView.pl?togoid=0044267" ><text id="GO:0044267" onmousemove="changeToText('GO:0044267')" onmouseout="changeBackText('GO:0044267')"  text-anchor="middle" x="1154" y="-157.8" font-family="Times,serif" font-size="14.00">GO:0044267</text></a>
 
</a> 
</g> 
<!-- r0&#45;&gt;o0 --> 
<g id="edge90" class="edge"><title>r0&#45;&gt;o0</title> 
<path fill="none" stroke="black" d="M1042.9,-218.155C1063.93,-207.714 1092.28,-193.644 1115.07,-182.328"/> 
<polygon fill="black" stroke="black" points="1116.74,-185.405 1124.14,-177.824 1113.63,-179.136 1116.74,-185.405"/> 
</g> 
<!-- i0&#45;&gt;h1 --> 
<g id="edge66" class="edge"><title>i0&#45;&gt;h1</title> 
<path fill="none" stroke="black" d="M872,-287.697C872,-279.983 872,-270.712 872,-262.112"/> 
<polygon fill="black" stroke="black" points="875.5,-262.104 872,-252.104 868.5,-262.104 875.5,-262.104"/> 
</g> 
<!-- i0&#45;&gt;r0 --> 
<g id="edge28" class="edge"><title>i0&#45;&gt;r0</title> 
<path fill="none" stroke="black" d="M901.902,-290.155C922.933,-279.714 951.275,-265.644 974.069,-254.328"/> 
<polygon fill="black" stroke="black" points="975.74,-257.405 983.141,-249.824 972.627,-251.136 975.74,-257.405"/> 
</g> 
<!-- h0 --> 
<g id="node40" class="node"><title>h0</title> 
<ellipse fill="#e98576" stroke="#e98576" cx="717" cy="-234" rx="75.2018" ry="18"/> 
<a xlink:href="http://pir.georgetown.edu/cgi-bin/pt_graphvizView.pl?togoid=0006793" ><text id="GO:0006793" onmousemove="changeToText('GO:0006793')" onmouseout="changeBackText('GO:0006793')"  text-anchor="middle" x="717" y="-234.8" font-family="Times,serif" font-size="14.00">GO:0006793</text></a>
<a xlink:href="http://pir.georgetown.edu/cgi-bin/pt_graphvizView.pl?tofile=711942" ><text id="r711942" onmousemove="changeToText2('r711942', 2)" onmouseout="changeBackText2('r711942', 2)"  text-anchor="middle" x="717" y="-221.8" font-family="Times,serif" font-size="14.00">(2)</text>
 
</a> 
</g> 
<!-- i0&#45;&gt;h0 --> 
<g id="edge36" class="edge"><title>i0&#45;&gt;h0</title> 
<path fill="none" stroke="black" d="M839.884,-290.496C816.767,-280.056 785.333,-265.86 760.044,-254.439"/> 
<polygon fill="black" stroke="black" points="761.238,-251.138 750.683,-250.212 758.357,-257.518 761.238,-251.138"/> 
</g> 
<!-- e0 --> 
<g id="node37" class="node"><title>e0</title> 
<ellipse fill="#e98576" stroke="#e98576" cx="1329" cy="-306" rx="75.2018" ry="18"/> 
<a xlink:href="http://pir.georgetown.edu/cgi-bin/pt_graphvizView.pl?togoid=0050789" ><text id="GO:0050789" onmousemove="changeToText('GO:0050789')" onmouseout="changeBackText('GO:0050789')"  text-anchor="middle" x="1329" y="-306.8" font-family="Times,serif" font-size="14.00">GO:0050789</text></a>
<a xlink:href="http://pir.georgetown.edu/cgi-bin/pt_graphvizView.pl?tofile=711938" ><text id="r711938" onmousemove="changeToText2('r711938', 3)" onmouseout="changeBackText2('r711938', 3)"  text-anchor="middle" x="1329" y="-293.8" font-family="Times,serif" font-size="14.00">(3)</text>
 
</a> 
</g> 
<!-- f0&#45;&gt;e0 --> 
<g id="edge32" class="edge"><title>f0&#45;&gt;e0</title> 
<path fill="none" stroke="black" d="M1329,-359.697C1329,-351.983 1329,-342.712 1329,-334.112"/> 
<polygon fill="black" stroke="black" points="1332.5,-334.104 1329,-324.104 1325.5,-334.104 1332.5,-334.104"/> 
</g> 
<!-- f1 --> 
<g id="node62" class="node"><title>f1</title> 
<ellipse fill="#e98576" stroke="#e98576" cx="942" cy="-18" rx="75.2018" ry="18"/> 
<a xlink:href="http://pir.georgetown.edu/cgi-bin/pt_graphvizView.pl?togoid=0006351" ><text id="GO:0006351" onmousemove="changeToText('GO:0006351')" onmouseout="changeBackText('GO:0006351')"  text-anchor="middle" x="942" y="-18.8" font-family="Times,serif" font-size="14.00">GO:0006351</text></a>
<a xlink:href="http://pir.georgetown.edu/cgi-bin/pt_graphvizView.pl?tofile=711964" ><text id="r711964" onmousemove="changeToText2('r711964', 1)" onmouseout="changeBackText2('r711964', 1)"  text-anchor="middle" x="942" y="-5.8" font-family="Times,serif" font-size="14.00">(1)</text>
 
</a> 
</g> 
<!-- g1&#45;&gt;f1 --> 
<g id="edge62" class="edge"><title>g1&#45;&gt;f1</title> 
<path fill="none" stroke="black" d="M888.589,-72.411C897.352,-63.6479 908.268,-52.7322 917.943,-43.0569"/> 
<polygon fill="black" stroke="black" points="920.448,-45.5022 925.044,-35.9562 915.498,-40.5524 920.448,-45.5022"/> 
</g> 
<!-- p0&#45;&gt;o0 --> 
<g id="edge88" class="edge"><title>p0&#45;&gt;o0</title> 
<path fill="none" stroke="black" d="M1154,-215.697C1154,-207.983 1154,-198.712 1154,-190.112"/> 
<polygon fill="black" stroke="black" points="1157.5,-190.104 1154,-180.104 1150.5,-190.104 1157.5,-190.104"/> 
</g> 
<!-- q0&#45;&gt;h1 --> 
<g id="edge68" class="edge"><title>q0&#45;&gt;h1</title> 
<path fill="none" stroke="black" d="M983.098,-290.155C962.067,-279.714 933.725,-265.644 910.931,-254.328"/> 
<polygon fill="black" stroke="black" points="912.373,-251.136 901.859,-249.824 909.26,-257.405 912.373,-251.136"/> 
</g> 
<!-- q0&#45;&gt;p0 --> 
<g id="edge48" class="edge"><title>q0&#45;&gt;p0</title> 
<path fill="none" stroke="black" d="M1042.9,-290.155C1063.93,-279.714 1092.28,-265.644 1115.07,-254.328"/> 
<polygon fill="black" stroke="black" points="1116.74,-257.405 1124.14,-249.824 1113.63,-251.136 1116.74,-257.405"/> 
</g> 
<!-- t0 --> 
<g id="node55" class="node"><title>t0</title> 
<ellipse fill="#e98576" stroke="#e98576" cx="549" cy="-234" rx="75.2018" ry="18"/> 
<a xlink:href="http://pir.georgetown.edu/cgi-bin/pt_graphvizView.pl?togoid=0043062" ><text id="GO:0043062" onmousemove="changeToText('GO:0043062')" onmouseout="changeBackText('GO:0043062')"  text-anchor="middle" x="549" y="-234.8" font-family="Times,serif" font-size="14.00">GO:0043062</text></a>
<a xlink:href="http://pir.georgetown.edu/cgi-bin/pt_graphvizView.pl?tofile=711948" ><text id="r711948" onmousemove="changeToText2('r711948', 1)" onmouseout="changeBackText2('r711948', 1)"  text-anchor="middle" x="549" y="-221.8" font-family="Times,serif" font-size="14.00">(1)</text>
 
</a> 
</g> 
<!-- u0&#45;&gt;t0 --> 
<g id="edge52" class="edge"><title>u0&#45;&gt;t0</title> 
<path fill="none" stroke="black" d="M695.477,-291.337C667.286,-280.495 627.61,-265.235 596.66,-253.331"/> 
<polygon fill="black" stroke="black" points="597.534,-249.917 586.944,-249.594 595.021,-256.45 597.534,-249.917"/> 
</g> 
<!-- i1&#45;&gt;f1 --> 
<g id="edge64" class="edge"><title>i1&#45;&gt;f1</title> 
<path fill="none" stroke="black" d="M996.174,-72.411C987.286,-63.6479 976.214,-52.7322 966.401,-43.0569"/> 
<polygon fill="black" stroke="black" points="968.777,-40.4846 959.198,-35.9562 963.862,-45.4694 968.777,-40.4846"/> 
</g> 
<!-- o0&#45;&gt;k0 --> 
<g id="edge72" class="edge"><title>o0&#45;&gt;k0</title> 
<path fill="none" stroke="black" d="M1171.86,-144.765C1181.73,-135.795 1194.16,-124.49 1205.08,-114.564"/> 
<polygon fill="black" stroke="black" points="1207.66,-116.95 1212.7,-107.633 1202.95,-111.77 1207.66,-116.95"/> 
</g> 
<!-- k1 --> 
<g id="node75" class="node"><title>k1</title> 
<ellipse fill="#e98576" stroke="#e98576" cx="1988" cy="-306" rx="75.2018" ry="18"/> 
<a xlink:href="http://pir.georgetown.edu/cgi-bin/pt_graphvizView.pl?togoid=0001816" ><text id="GO:0001816" onmousemove="changeToText('GO:0001816')" onmouseout="changeBackText('GO:0001816')"  text-anchor="middle" x="1988" y="-306.8" font-family="Times,serif" font-size="14.00">GO:0001816</text></a>
<a xlink:href="http://pir.georgetown.edu/cgi-bin/pt_graphvizView.pl?tofile=711966" ><text id="r711966" onmousemove="changeToText2('r711966', 1)" onmouseout="changeBackText2('r711966', 1)"  text-anchor="middle" x="1988" y="-293.8" font-family="Times,serif" font-size="14.00">(1)</text>
 
</a> 
</g> 
<!-- v0&#45;&gt;k1 --> 
<g id="edge78" class="edge"><title>v0&#45;&gt;k1</title> 
<path fill="none" stroke="black" d="M1988,-359.697C1988,-351.983 1988,-342.712 1988,-334.112"/> 
<polygon fill="black" stroke="black" points="1991.5,-334.104 1988,-324.104 1984.5,-334.104 1991.5,-334.104"/> 
</g> 
</g> 
<text text-anchor="left" x="4" y="-20" style="font-family:Arial Narrow;font-size:20.00;font-weight:bold;">GO Hierarchical View:</text> 

<text text-anchor="left" x="4" y="0" style="font-family:Arial Narrow;font-size:20.00;font-style:italic;">biological process</text> 

<script type="text/ecmascript"> 
<![CDATA[ 
var targetText; 
function changeToText(z) { 
		targetText = svgDocument.getElementById(z).firstChild; 
		targetText.nodeValue="link to "+z; 
} 
function changeBackText(z) { 
		targetText = svgDocument.getElementById(z).firstChild; 
		targetText.nodeValue=z; 
} 
function changeToText2(z,n) { 
		targetText = svgDocument.getElementById(z).firstChild; 
		if (n<=1) { 
			targetText.nodeValue="link to " + n + " protein record"; 
		} else { 
			targetText.nodeValue="link to " + n + " protein records"; 
		} 
} 
function changeBackText2(z,n) { 
		targetText = svgDocument.getElementById(z).firstChild; 
		targetText.nodeValue="(" + n + ")"; 
} 
// ]]> 
</script> 
</svg> 
