<?xml version="1.0" encoding="UTF-8" standalone="no"?> 
<!DOCTYPE svg PUBLIC "-//W3C//DTD SVG 1.1//EN" 
 "http://www.w3.org/Graphics/SVG/1.1/DTD/svg11.dtd"> 
<!-- Generated by graphviz version 2.28.0 (20110622.2320) 
 --> 
<!-- Title: G Pages: 1 --> 
<svg width="2000" height="1000"  
 viewBox="-30 -50 2000 1000" xmlns="http://www.w3.org/2000/svg" xmlns:xlink="http://www.w3.org/1999/xlink"> 
<g id="graph1" class="graph" transform="scale(1 1) rotate(0) translate(4 544)"> 
<title>G</title> 
<polygon fill="white" stroke="white" points="-4,5 -4,-544 876,-544 876,5 -4,5"/> 
<!-- c0 --> 
<g id="node1" class="node"><title>c0</title> 
<a xlink:href="http://pir.georgetown.edu/cgi-bin/pt_graphvizView.pl?togoid=0005575" > 
<ellipse fill="#dddddd" stroke="#dddddd" cx="525" cy="-522" rx="61.1934" ry="18"/> 
<a xlink:href="http://pir.georgetown.edu/cgi-bin/pt_graphvizView.pl?togoid=0005575" ><text id="GO:0005575" onmousemove="changeToText('GO:0005575')" onmouseout="changeBackText('GO:0005575')"  text-anchor="middle" x="525" y="-517.8" font-family="Times,serif" font-size="14.00">GO:0005575</text></a>
 
</a> 
</g> 
<!-- b0 --> 
<g id="node3" class="node"><title>b0</title> 
<ellipse fill="#e98576" stroke="#e98576" cx="322" cy="-378" rx="75.2018" ry="18"/> 
<a xlink:href="http://pir.georgetown.edu/cgi-bin/pt_graphvizView.pl?togoid=0044464" ><text id="GO:0044464" onmousemove="changeToText('GO:0044464')" onmouseout="changeBackText('GO:0044464')"  text-anchor="middle" x="322" y="-378.8" font-family="Times,serif" font-size="14.00">GO:0044464</text></a>
<a xlink:href="http://pir.georgetown.edu/cgi-bin/pt_graphvizView.pl?tofile=839351" ><text id="r839351" onmousemove="changeToText2('r839351', 1)" onmouseout="changeBackText2('r839351', 1)"  text-anchor="middle" x="322" y="-365.8" font-family="Times,serif" font-size="14.00">(1)</text>
 
</a> 
</g> 
<!-- c0&#45;&gt;b0 --> 
<g id="edge2" class="edge"><title>c0&#45;&gt;b0</title> 
<path fill="none" stroke="black" d="M468.174,-515.046C432.939,-508.658 388.856,-495.422 359,-468 341.345,-451.785 331.863,-425.848 326.935,-406.147"/> 
<polygon fill="black" stroke="black" points="330.312,-405.208 324.699,-396.222 323.483,-406.747 330.312,-405.208"/> 
</g> 
<!-- d0 --> 
<g id="node4" class="node"><title>d0</title> 
<a xlink:href="http://pir.georgetown.edu/cgi-bin/pt_graphvizView.pl?togoid=0005623" > 
<ellipse fill="#dddddd" stroke="#dddddd" cx="429" cy="-450" rx="61.1934" ry="18"/> 
<a xlink:href="http://pir.georgetown.edu/cgi-bin/pt_graphvizView.pl?togoid=0005623" ><text id="GO:0005623" onmousemove="changeToText('GO:0005623')" onmouseout="changeBackText('GO:0005623')"  text-anchor="middle" x="429" y="-445.8" font-family="Times,serif" font-size="14.00">GO:0005623</text></a>
 
</a> 
</g> 
<!-- c0&#45;&gt;d0 --> 
<g id="edge36" class="edge"><title>c0&#45;&gt;d0</title> 
<path fill="none" stroke="black" d="M503.216,-505.116C490.175,-495.607 473.41,-483.382 459.115,-472.959"/> 
<polygon fill="black" stroke="black" points="461.172,-470.127 451.03,-467.064 457.048,-475.783 461.172,-470.127"/> 
</g> 
<!-- m0 --> 
<g id="node6" class="node"><title>m0</title> 
<a xlink:href="http://pir.georgetown.edu/cgi-bin/pt_graphvizView.pl?togoid=0043226" > 
<ellipse fill="#dddddd" stroke="#dddddd" cx="525" cy="-234" rx="61.1934" ry="18"/> 
<a xlink:href="http://pir.georgetown.edu/cgi-bin/pt_graphvizView.pl?togoid=0043226" ><text id="GO:0043226" onmousemove="changeToText('GO:0043226')" onmouseout="changeBackText('GO:0043226')"  text-anchor="middle" x="525" y="-229.8" font-family="Times,serif" font-size="14.00">GO:0043226</text></a>
 
</a> 
</g> 
<!-- c0&#45;&gt;m0 --> 
<g id="edge34" class="edge"><title>c0&#45;&gt;m0</title> 
<path fill="none" stroke="black" d="M525,-503.966C525,-456.291 525,-321.185 525,-262.63"/> 
<polygon fill="black" stroke="black" points="528.5,-262.306 525,-252.306 521.5,-262.306 528.5,-262.306"/> 
</g> 
<!-- o0 --> 
<g id="node21" class="node"><title>o0</title> 
<ellipse fill="#e98576" stroke="#e98576" cx="628" cy="-450" rx="75.2018" ry="18"/> 
<a xlink:href="http://pir.georgetown.edu/cgi-bin/pt_graphvizView.pl?togoid=0032991" ><text id="GO:0032991" onmousemove="changeToText('GO:0032991')" onmouseout="changeBackText('GO:0032991')"  text-anchor="middle" x="628" y="-450.8" font-family="Times,serif" font-size="14.00">GO:0032991</text></a>
<a xlink:href="http://pir.georgetown.edu/cgi-bin/pt_graphvizView.pl?tofile=839355" ><text id="r839355" onmousemove="changeToText2('r839355', 1)" onmouseout="changeBackText2('r839355', 1)"  text-anchor="middle" x="628" y="-437.8" font-family="Times,serif" font-size="14.00">(1)</text>
 
</a> 
</g> 
<!-- c0&#45;&gt;o0 --> 
<g id="edge20" class="edge"><title>c0&#45;&gt;o0</title> 
<path fill="none" stroke="black" d="M548.115,-505.291C562.228,-495.7 580.476,-483.298 595.968,-472.769"/> 
<polygon fill="black" stroke="black" points="597.944,-475.658 604.247,-467.142 594.009,-469.869 597.944,-475.658"/> 
</g> 
<!-- h0 --> 
<g id="node29" class="node"><title>h0</title> 
<ellipse fill="#e98576" stroke="#e98576" cx="796" cy="-450" rx="75.2018" ry="18"/> 
<a xlink:href="http://pir.georgetown.edu/cgi-bin/pt_graphvizView.pl?togoid=0031012" ><text id="GO:0031012" onmousemove="changeToText('GO:0031012')" onmouseout="changeBackText('GO:0031012')"  text-anchor="middle" x="796" y="-450.8" font-family="Times,serif" font-size="14.00">GO:0031012</text></a>
<a xlink:href="http://pir.georgetown.edu/cgi-bin/pt_graphvizView.pl?tofile=839347" ><text id="r839347" onmousemove="changeToText2('r839347', 1)" onmouseout="changeBackText2('r839347', 1)"  text-anchor="middle" x="796" y="-437.8" font-family="Times,serif" font-size="14.00">(1)</text>
 
</a> 
</g> 
<!-- c0&#45;&gt;h0 --> 
<g id="edge28" class="edge"><title>c0&#45;&gt;h0</title> 
<path fill="none" stroke="black" d="M569.447,-509.519C615.199,-497.701 686.728,-479.225 737.152,-466.201"/> 
<polygon fill="black" stroke="black" points="738.135,-469.562 746.942,-463.672 736.384,-462.784 738.135,-469.562"/> 
</g> 
<!-- i0 --> 
<g id="node10" class="node"><title>i0</title> 
<ellipse fill="#e98576" stroke="#e98576" cx="75" cy="-306" rx="75.2018" ry="18"/> 
<a xlink:href="http://pir.georgetown.edu/cgi-bin/pt_graphvizView.pl?togoid=0045177" ><text id="GO:0045177" onmousemove="changeToText('GO:0045177')" onmouseout="changeBackText('GO:0045177')"  text-anchor="middle" x="75" y="-306.8" font-family="Times,serif" font-size="14.00">GO:0045177</text></a>
<a xlink:href="http://pir.georgetown.edu/cgi-bin/pt_graphvizView.pl?tofile=839349" ><text id="r839349" onmousemove="changeToText2('r839349', 1)" onmouseout="changeBackText2('r839349', 1)"  text-anchor="middle" x="75" y="-293.8" font-family="Times,serif" font-size="14.00">(1)</text>
 
</a> 
</g> 
<!-- b0&#45;&gt;i0 --> 
<g id="edge8" class="edge"><title>b0&#45;&gt;i0</title> 
<path fill="none" stroke="black" d="M275.541,-363.834C234.702,-352.26 175.15,-335.383 131.551,-323.027"/> 
<polygon fill="black" stroke="black" points="132.245,-319.586 121.67,-320.226 130.336,-326.32 132.245,-319.586"/> 
</g> 
<!-- g0 --> 
<g id="node12" class="node"><title>g0</title> 
<a xlink:href="http://pir.georgetown.edu/cgi-bin/pt_graphvizView.pl?togoid=0005622" > 
<ellipse fill="#dddddd" stroke="#dddddd" cx="230" cy="-306" rx="61.1934" ry="18"/> 
<a xlink:href="http://pir.georgetown.edu/cgi-bin/pt_graphvizView.pl?togoid=0005622" ><text id="GO:0005622" onmousemove="changeToText('GO:0005622')" onmouseout="changeBackText('GO:0005622')"  text-anchor="middle" x="230" y="-301.8" font-family="Times,serif" font-size="14.00">GO:0005622</text></a>
 
</a> 
</g> 
<!-- b0&#45;&gt;g0 --> 
<g id="edge10" class="edge"><title>b0&#45;&gt;g0</title> 
<path fill="none" stroke="black" d="M300.197,-360.411C287.876,-351.036 272.318,-339.198 258.981,-329.051"/> 
<polygon fill="black" stroke="black" points="261.091,-326.258 251.013,-322.988 256.852,-331.829 261.091,-326.258"/> 
</g> 
<!-- f0 --> 
<g id="node14" class="node"><title>f0</title> 
<a xlink:href="http://pir.georgetown.edu/cgi-bin/pt_graphvizView.pl?togoid=0044424" > 
<ellipse fill="#dddddd" stroke="#dddddd" cx="275" cy="-234" rx="61.1934" ry="18"/> 
<a xlink:href="http://pir.georgetown.edu/cgi-bin/pt_graphvizView.pl?togoid=0044424" ><text id="GO:0044424" onmousemove="changeToText('GO:0044424')" onmouseout="changeBackText('GO:0044424')"  text-anchor="middle" x="275" y="-229.8" font-family="Times,serif" font-size="14.00">GO:0044424</text></a>
 
</a> 
</g> 
<!-- b0&#45;&gt;f0 --> 
<g id="edge14" class="edge"><title>b0&#45;&gt;f0</title> 
<path fill="none" stroke="black" d="M318.84,-359.975C315.233,-341.843 308.69,-312.445 300,-288 296.781,-278.946 292.535,-269.358 288.457,-260.863"/> 
<polygon fill="black" stroke="black" points="291.557,-259.236 283.988,-251.822 285.282,-262.338 291.557,-259.236"/> 
</g> 
<!-- a0 --> 
<g id="node27" class="node"><title>a0</title> 
<ellipse fill="#e98576" stroke="#e98576" cx="422" cy="-306" rx="75.2018" ry="18"/> 
<a xlink:href="http://pir.georgetown.edu/cgi-bin/pt_graphvizView.pl?togoid=0016020" ><text id="GO:0016020" onmousemove="changeToText('GO:0016020')" onmouseout="changeBackText('GO:0016020')"  text-anchor="middle" x="422" y="-306.8" font-family="Times,serif" font-size="14.00">GO:0016020</text></a>
<a xlink:href="http://pir.georgetown.edu/cgi-bin/pt_graphvizView.pl?tofile=839343" ><text id="r839343" onmousemove="changeToText2('r839343', 6)" onmouseout="changeBackText2('r839343', 6)"  text-anchor="middle" x="422" y="-293.8" font-family="Times,serif" font-size="14.00">(6)</text>
 
</a> 
</g> 
<!-- b0&#45;&gt;a0 --> 
<g id="edge26" class="edge"><title>b0&#45;&gt;a0</title> 
<path fill="none" stroke="black" d="M345.193,-360.765C358.698,-351.311 375.907,-339.265 390.611,-328.972"/> 
<polygon fill="black" stroke="black" points="392.747,-331.749 398.932,-323.147 388.733,-326.015 392.747,-331.749"/> 
</g> 
<!-- d0&#45;&gt;b0 --> 
<g id="edge4" class="edge"><title>d0&#45;&gt;b0</title> 
<path fill="none" stroke="black" d="M404.987,-433.291C390.326,-423.7 371.37,-411.298 355.276,-400.769"/> 
<polygon fill="black" stroke="black" points="356.959,-397.688 346.675,-395.142 353.127,-403.546 356.959,-397.688"/> 
</g> 
<!-- l0 --> 
<g id="node8" class="node"><title>l0</title> 
<a xlink:href="http://pir.georgetown.edu/cgi-bin/pt_graphvizView.pl?togoid=0043227" > 
<ellipse fill="#dddddd" stroke="#dddddd" cx="548" cy="-162" rx="61.1934" ry="18"/> 
<a xlink:href="http://pir.georgetown.edu/cgi-bin/pt_graphvizView.pl?togoid=0043227" ><text id="GO:0043227" onmousemove="changeToText('GO:0043227')" onmouseout="changeBackText('GO:0043227')"  text-anchor="middle" x="548" y="-157.8" font-family="Times,serif" font-size="14.00">GO:0043227</text></a>
 
</a> 
</g> 
<!-- m0&#45;&gt;l0 --> 
<g id="edge6" class="edge"><title>m0&#45;&gt;l0</title> 
<path fill="none" stroke="black" d="M530.568,-216.055C533.156,-208.176 536.297,-198.617 539.196,-189.794"/> 
<polygon fill="black" stroke="black" points="542.527,-190.868 542.324,-180.275 535.877,-188.683 542.527,-190.868"/> 
</g> 
<!-- n0 --> 
<g id="node18" class="node"><title>n0</title> 
<a xlink:href="http://pir.georgetown.edu/cgi-bin/pt_graphvizView.pl?togoid=0043229" > 
<ellipse fill="#dddddd" stroke="#dddddd" cx="407" cy="-162" rx="61.1934" ry="18"/> 
<a xlink:href="http://pir.georgetown.edu/cgi-bin/pt_graphvizView.pl?togoid=0043229" ><text id="GO:0043229" onmousemove="changeToText('GO:0043229')" onmouseout="changeBackText('GO:0043229')"  text-anchor="middle" x="407" y="-157.8" font-family="Times,serif" font-size="14.00">GO:0043229</text></a>
 
</a> 
</g> 
<!-- m0&#45;&gt;n0 --> 
<g id="edge30" class="edge"><title>m0&#45;&gt;n0</title> 
<path fill="none" stroke="black" d="M499.104,-217.638C482.197,-207.608 459.927,-194.397 441.52,-183.478"/> 
<polygon fill="black" stroke="black" points="443.221,-180.418 432.835,-178.326 439.65,-186.438 443.221,-180.418"/> 
</g> 
<!-- k0 --> 
<g id="node17" class="node"><title>k0</title> 
<a xlink:href="http://pir.georgetown.edu/cgi-bin/pt_graphvizView.pl?togoid=0043231" > 
<ellipse fill="#dddddd" stroke="#dddddd" cx="477" cy="-90" rx="61.1934" ry="18"/> 
<a xlink:href="http://pir.georgetown.edu/cgi-bin/pt_graphvizView.pl?togoid=0043231" ><text id="GO:0043231" onmousemove="changeToText('GO:0043231')" onmouseout="changeBackText('GO:0043231')"  text-anchor="middle" x="477" y="-85.8" font-family="Times,serif" font-size="14.00">GO:0043231</text></a>
 
</a> 
</g> 
<!-- l0&#45;&gt;k0 --> 
<g id="edge16" class="edge"><title>l0&#45;&gt;k0</title> 
<path fill="none" stroke="black" d="M531.174,-144.411C522.155,-135.519 510.888,-124.411 500.968,-114.631"/> 
<polygon fill="black" stroke="black" points="503.284,-111.998 493.705,-107.47 498.369,-116.983 503.284,-111.998"/> 
</g> 
<!-- g0&#45;&gt;f0 --> 
<g id="edge12" class="edge"><title>g0&#45;&gt;f0</title> 
<path fill="none" stroke="black" d="M240.893,-288.055C246.255,-279.715 252.827,-269.491 258.767,-260.252"/> 
<polygon fill="black" stroke="black" points="261.744,-262.093 264.207,-251.789 255.855,-258.308 261.744,-262.093"/> 
</g> 
<!-- f0&#45;&gt;n0 --> 
<g id="edge32" class="edge"><title>f0&#45;&gt;n0</title> 
<path fill="none" stroke="black" d="M303.317,-217.983C322.718,-207.695 348.652,-193.942 369.728,-182.765"/> 
<polygon fill="black" stroke="black" points="371.535,-185.769 378.73,-177.992 368.255,-179.585 371.535,-185.769"/> 
</g> 
<!-- e0 --> 
<g id="node23" class="node"><title>e0</title> 
<ellipse fill="#e98576" stroke="#e98576" cx="252" cy="-162" rx="75.2018" ry="18"/> 
<a xlink:href="http://pir.georgetown.edu/cgi-bin/pt_graphvizView.pl?togoid=0005737" ><text id="GO:0005737" onmousemove="changeToText('GO:0005737')" onmouseout="changeBackText('GO:0005737')"  text-anchor="middle" x="252" y="-162.8" font-family="Times,serif" font-size="14.00">GO:0005737</text></a>
<a xlink:href="http://pir.georgetown.edu/cgi-bin/pt_graphvizView.pl?tofile=839345" ><text id="r839345" onmousemove="changeToText2('r839345', 2)" onmouseout="changeBackText2('r839345', 2)"  text-anchor="middle" x="252" y="-149.8" font-family="Times,serif" font-size="14.00">(2)</text>
 
</a> 
</g> 
<!-- f0&#45;&gt;e0 --> 
<g id="edge22" class="edge"><title>f0&#45;&gt;e0</title> 
<path fill="none" stroke="black" d="M269.432,-216.055C266.844,-208.176 263.703,-198.617 260.804,-189.794"/> 
<polygon fill="black" stroke="black" points="264.123,-188.683 257.676,-180.275 257.473,-190.868 264.123,-188.683"/> 
</g> 
<!-- j0 --> 
<g id="node25" class="node"><title>j0</title> 
<ellipse fill="#e98576" stroke="#e98576" cx="477" cy="-18" rx="75.2018" ry="18"/> 
<a xlink:href="http://pir.georgetown.edu/cgi-bin/pt_graphvizView.pl?togoid=0005634" ><text id="GO:0005634" onmousemove="changeToText('GO:0005634')" onmouseout="changeBackText('GO:0005634')"  text-anchor="middle" x="477" y="-18.8" font-family="Times,serif" font-size="14.00">GO:0005634</text></a>
<a xlink:href="http://pir.georgetown.edu/cgi-bin/pt_graphvizView.pl?tofile=839353" ><text id="r839353" onmousemove="changeToText2('r839353', 1)" onmouseout="changeBackText2('r839353', 1)"  text-anchor="middle" x="477" y="-5.8" font-family="Times,serif" font-size="14.00">(1)</text>
 
</a> 
</g> 
<!-- k0&#45;&gt;j0 --> 
<g id="edge24" class="edge"><title>k0&#45;&gt;j0</title> 
<path fill="none" stroke="black" d="M477,-71.6966C477,-63.9827 477,-54.7125 477,-46.1124"/> 
<polygon fill="black" stroke="black" points="480.5,-46.1043 477,-36.1043 473.5,-46.1044 480.5,-46.1043"/> 
</g> 
<!-- n0&#45;&gt;k0 --> 
<g id="edge18" class="edge"><title>n0&#45;&gt;k0</title> 
<path fill="none" stroke="black" d="M423.589,-144.411C432.481,-135.519 443.589,-124.411 453.369,-114.631"/> 
<polygon fill="black" stroke="black" points="455.934,-117.016 460.53,-107.47 450.984,-112.066 455.934,-117.016"/> 
</g> 
</g> 
<text text-anchor="left" x="4" y="-20" style="font-family:Arial Narrow;font-size:20.00;font-weight:bold;">GO Hierarchical View:</text> 

<text text-anchor="left" x="4" y="0" style="font-family:Arial Narrow;font-size:20.00;font-style:italic;">cellular component</text> 

<script type="text/ecmascript"> 
<![CDATA[ 
var targetText; 
function changeToText(z) { 
		targetText = svgDocument.getElementById(z).firstChild; 
		targetText.nodeValue="link to "+z; 
} 
function changeBackText(z) { 
		targetText = svgDocument.getElementById(z).firstChild; 
		targetText.nodeValue=z; 
} 
function changeToText2(z,n) { 
		targetText = svgDocument.getElementById(z).firstChild; 
		if (n<=1) { 
			targetText.nodeValue="link to " + n + " protein record"; 
		} else { 
			targetText.nodeValue="link to " + n + " protein records"; 
		} 
} 
function changeBackText2(z,n) { 
		targetText = svgDocument.getElementById(z).firstChild; 
		targetText.nodeValue="(" + n + ")"; 
} 
// ]]> 
</script> 
</svg> 
