<?xml version="1.0" encoding="UTF-8" standalone="no"?> 
<!DOCTYPE svg PUBLIC "-//W3C//DTD SVG 1.1//EN" 
 "http://www.w3.org/Graphics/SVG/1.1/DTD/svg11.dtd"> 
<!-- Generated by graphviz version 2.28.0 (20110622.2320) 
 --> 
<!-- Title: G Pages: 1 --> 
<svg width="2000" height="1000"  
 viewBox="-30 -50 2000 1000" xmlns="http://www.w3.org/2000/svg" xmlns:xlink="http://www.w3.org/1999/xlink"> 
<g id="graph1" class="graph" transform="scale(1 1) rotate(0) translate(4 400)"> 
<title>G</title> 
<polygon fill="white" stroke="white" points="-4,5 -4,-400 3963,-400 3963,5 -4,5"/> 
<!-- c0 --> 
<g id="node1" class="node"><title>c0</title> 
<ellipse fill="#e98576" stroke="#e98576" cx="2766" cy="-378" rx="75.2018" ry="18"/> 
<a xlink:href="http://pir.georgetown.edu/cgi-bin/pt_graphvizView.pl?togoid=0003674" ><text id="GO:0003674" onmousemove="changeToText('GO:0003674')" onmouseout="changeBackText('GO:0003674')"  text-anchor="middle" x="2766" y="-378.8" font-family="Times,serif" font-size="14.00">GO:0003674</text></a>
<a xlink:href="http://pir.georgetown.edu/cgi-bin/pt_graphvizView.pl?tofile=678071" ><text id="r678071" onmousemove="changeToText2('r678071', 2)" onmouseout="changeBackText2('r678071', 2)"  text-anchor="middle" x="2766" y="-365.8" font-family="Times,serif" font-size="14.00">(2)</text>
 
</a> 
</g> 
<!-- y0 --> 
<g id="node3" class="node"><title>y0</title> 
<ellipse fill="#e98576" stroke="#e98576" cx="697" cy="-306" rx="75.2018" ry="18"/> 
<a xlink:href="http://pir.georgetown.edu/cgi-bin/pt_graphvizView.pl?togoid=0030234" ><text id="GO:0030234" onmousemove="changeToText('GO:0030234')" onmouseout="changeBackText('GO:0030234')"  text-anchor="middle" x="697" y="-306.8" font-family="Times,serif" font-size="14.00">GO:0030234</text></a>
<a xlink:href="http://pir.georgetown.edu/cgi-bin/pt_graphvizView.pl?tofile=678059" ><text id="r678059" onmousemove="changeToText2('r678059', 4)" onmouseout="changeBackText2('r678059', 4)"  text-anchor="middle" x="697" y="-293.8" font-family="Times,serif" font-size="14.00">(4)</text>
 
</a> 
</g> 
<!-- c0&#45;&gt;y0 --> 
<g id="edge2" class="edge"><title>c0&#45;&gt;y0</title> 
<path fill="none" stroke="black" d="M2690.91,-376.733C2376.11,-375.346 1161.43,-367.245 781,-324 773.885,-323.191 766.477,-322.086 759.137,-320.824"/> 
<polygon fill="black" stroke="black" points="759.669,-317.363 749.204,-319.019 758.417,-324.25 759.669,-317.363"/> 
</g> 
<!-- f0 --> 
<g id="node4" class="node"><title>f0</title> 
<ellipse fill="#e98576" stroke="#e98576" cx="870" cy="-306" rx="79.4447" ry="18"/> 
<a xlink:href="http://pir.georgetown.edu/cgi-bin/pt_graphvizView.pl?togoid=0003824" ><text id="GO:0003824" onmousemove="changeToText('GO:0003824')" onmouseout="changeBackText('GO:0003824')"  text-anchor="middle" x="870" y="-306.8" font-family="Times,serif" font-size="14.00">GO:0003824</text></a>
<a xlink:href="http://pir.georgetown.edu/cgi-bin/pt_graphvizView.pl?tofile=678029" ><text id="r678029" onmousemove="changeToText2('r678029', 43)" onmouseout="changeBackText2('r678029', 43)"  text-anchor="middle" x="870" y="-293.8" font-family="Times,serif" font-size="14.00">(43)</text>
 
</a> 
</g> 
<!-- c0&#45;&gt;f0 --> 
<g id="edge46" class="edge"><title>c0&#45;&gt;f0</title> 
<path fill="none" stroke="black" d="M2692.26,-374.277C2394.38,-363.28 1280.51,-322.156 958.002,-310.249"/> 
<polygon fill="black" stroke="black" points="957.9,-306.743 947.778,-309.872 957.642,-313.738 957.9,-306.743"/> 
</g> 
<!-- b0 --> 
<g id="node7" class="node"><title>b0</title> 
<ellipse fill="#e98576" stroke="#e98576" cx="2504" cy="-306" rx="75.2018" ry="18"/> 
<a xlink:href="http://pir.georgetown.edu/cgi-bin/pt_graphvizView.pl?togoid=0005488" ><text id="GO:0005488" onmousemove="changeToText('GO:0005488')" onmouseout="changeBackText('GO:0005488')"  text-anchor="middle" x="2504" y="-306.8" font-family="Times,serif" font-size="14.00">GO:0005488</text></a>
<a xlink:href="http://pir.georgetown.edu/cgi-bin/pt_graphvizView.pl?tofile=678067" ><text id="r678067" onmousemove="changeToText2('r678067', 2)" onmouseout="changeBackText2('r678067', 2)"  text-anchor="middle" x="2504" y="-293.8" font-family="Times,serif" font-size="14.00">(2)</text>
 
</a> 
</g> 
<!-- c0&#45;&gt;b0 --> 
<g id="edge10" class="edge"><title>c0&#45;&gt;b0</title> 
<path fill="none" stroke="black" d="M2717.95,-364.161C2673.95,-352.406 2608.75,-334.986 2561.9,-322.469"/> 
<polygon fill="black" stroke="black" points="2562.76,-319.076 2552.19,-319.876 2560.95,-325.839 2562.76,-319.076"/> 
</g> 
<!-- p0 --> 
<g id="node20" class="node"><title>p0</title> 
<ellipse fill="#e98576" stroke="#e98576" cx="2677" cy="-306" rx="79.4447" ry="18"/> 
<a xlink:href="http://pir.georgetown.edu/cgi-bin/pt_graphvizView.pl?togoid=0005215" ><text id="GO:0005215" onmousemove="changeToText('GO:0005215')" onmouseout="changeBackText('GO:0005215')"  text-anchor="middle" x="2677" y="-306.8" font-family="Times,serif" font-size="14.00">GO:0005215</text></a>
<a xlink:href="http://pir.georgetown.edu/cgi-bin/pt_graphvizView.pl?tofile=678041" ><text id="r678041" onmousemove="changeToText2('r678041', 15)" onmouseout="changeBackText2('r678041', 15)"  text-anchor="middle" x="2677" y="-293.8" font-family="Times,serif" font-size="14.00">(15)</text>
 
</a> 
</g> 
<!-- c0&#45;&gt;p0 --> 
<g id="edge16" class="edge"><title>c0&#45;&gt;p0</title> 
<path fill="none" stroke="black" d="M2744.91,-360.411C2733.27,-351.257 2718.65,-339.755 2705.95,-329.772"/> 
<polygon fill="black" stroke="black" points="2707.96,-326.901 2697.94,-323.47 2703.64,-332.403 2707.96,-326.901"/> 
</g> 
<!-- k0 --> 
<g id="node36" class="node"><title>k0</title> 
<ellipse fill="#e98576" stroke="#e98576" cx="2855" cy="-306" rx="79.4447" ry="18"/> 
<a xlink:href="http://pir.georgetown.edu/cgi-bin/pt_graphvizView.pl?togoid=0005198" ><text id="GO:0005198" onmousemove="changeToText('GO:0005198')" onmouseout="changeBackText('GO:0005198')"  text-anchor="middle" x="2855" y="-306.8" font-family="Times,serif" font-size="14.00">GO:0005198</text></a>
<a xlink:href="http://pir.georgetown.edu/cgi-bin/pt_graphvizView.pl?tofile=678031" ><text id="r678031" onmousemove="changeToText2('r678031', 38)" onmouseout="changeBackText2('r678031', 38)"  text-anchor="middle" x="2855" y="-293.8" font-family="Times,serif" font-size="14.00">(38)</text>
 
</a> 
</g> 
<!-- c0&#45;&gt;k0 --> 
<g id="edge34" class="edge"><title>c0&#45;&gt;k0</title> 
<path fill="none" stroke="black" d="M2787.09,-360.411C2798.73,-351.257 2813.35,-339.755 2826.05,-329.772"/> 
<polygon fill="black" stroke="black" points="2828.36,-332.403 2834.06,-323.47 2824.04,-326.901 2828.36,-332.403"/> 
</g> 
<!-- c1 --> 
<g id="node55" class="node"><title>c1</title> 
<a xlink:href="http://pir.georgetown.edu/cgi-bin/pt_graphvizView.pl?togoid=0060089" > 
<ellipse fill="#dddddd" stroke="#dddddd" cx="3014" cy="-306" rx="61.1934" ry="18"/> 
<a xlink:href="http://pir.georgetown.edu/cgi-bin/pt_graphvizView.pl?togoid=0060089" ><text id="GO:0060089" onmousemove="changeToText('GO:0060089')" onmouseout="changeBackText('GO:0060089')"  text-anchor="middle" x="3014" y="-301.8" font-family="Times,serif" font-size="14.00">GO:0060089</text></a>
 
</a> 
</g> 
<!-- c0&#45;&gt;c1 --> 
<g id="edge76" class="edge"><title>c0&#45;&gt;c1</title> 
<path fill="none" stroke="black" d="M2812.65,-363.834C2855.04,-351.867 2917.52,-334.232 2961.62,-321.785"/> 
<polygon fill="black" stroke="black" points="2962.62,-325.14 2971.29,-319.055 2960.72,-318.403 2962.62,-325.14"/> 
</g> 
<!-- t0 --> 
<g id="node59" class="node"><title>t0</title> 
<ellipse fill="#e98576" stroke="#e98576" cx="3173" cy="-306" rx="79.4447" ry="18"/> 
<a xlink:href="http://pir.georgetown.edu/cgi-bin/pt_graphvizView.pl?togoid=0016209" ><text id="GO:0016209" onmousemove="changeToText('GO:0016209')" onmouseout="changeBackText('GO:0016209')"  text-anchor="middle" x="3173" y="-306.8" font-family="Times,serif" font-size="14.00">GO:0016209</text></a>
<a xlink:href="http://pir.georgetown.edu/cgi-bin/pt_graphvizView.pl?tofile=678049" ><text id="r678049" onmousemove="changeToText2('r678049', 11)" onmouseout="changeBackText2('r678049', 11)"  text-anchor="middle" x="3173" y="-293.8" font-family="Times,serif" font-size="14.00">(11)</text>
 
</a> 
</g> 
<!-- c0&#45;&gt;t0 --> 
<g id="edge56" class="edge"><title>c0&#45;&gt;t0</title> 
<path fill="none" stroke="black" d="M2826.74,-367.314C2890.79,-356.997 2994.61,-339.985 3084,-324 3090.66,-322.809 3097.59,-321.539 3104.52,-320.249"/> 
<polygon fill="black" stroke="black" points="3105.45,-323.636 3114.63,-318.353 3104.16,-316.756 3105.45,-323.636"/> 
</g> 
<!-- m1 --> 
<g id="node61" class="node"><title>m1</title> 
<ellipse fill="#e98576" stroke="#e98576" cx="3346" cy="-306" rx="75.2018" ry="18"/> 
<a xlink:href="http://pir.georgetown.edu/cgi-bin/pt_graphvizView.pl?togoid=0045735" ><text id="GO:0045735" onmousemove="changeToText('GO:0045735')" onmouseout="changeBackText('GO:0045735')"  text-anchor="middle" x="3346" y="-306.8" font-family="Times,serif" font-size="14.00">GO:0045735</text></a>
<a xlink:href="http://pir.georgetown.edu/cgi-bin/pt_graphvizView.pl?tofile=678083" ><text id="r678083" onmousemove="changeToText2('r678083', 1)" onmouseout="changeBackText2('r678083', 1)"  text-anchor="middle" x="3346" y="-293.8" font-family="Times,serif" font-size="14.00">(1)</text>
 
</a> 
</g> 
<!-- c0&#45;&gt;m1 --> 
<g id="edge58" class="edge"><title>c0&#45;&gt;m1</title> 
<path fill="none" stroke="black" d="M2836.35,-371.491C2932.56,-363.496 3110.43,-347.07 3261,-324 3267.7,-322.974 3274.67,-321.783 3281.61,-320.517"/> 
<polygon fill="black" stroke="black" points="3282.53,-323.904 3291.72,-318.619 3281.24,-317.024 3282.53,-323.904"/> 
</g> 
<!-- u0 --> 
<g id="node6" class="node"><title>u0</title> 
<ellipse fill="#e98576" stroke="#e98576" cx="79" cy="-234" rx="79.4447" ry="18"/> 
<a xlink:href="http://pir.georgetown.edu/cgi-bin/pt_graphvizView.pl?togoid=0016853" ><text id="GO:0016853" onmousemove="changeToText('GO:0016853')" onmouseout="changeBackText('GO:0016853')"  text-anchor="middle" x="79" y="-234.8" font-family="Times,serif" font-size="14.00">GO:0016853</text></a>
<a xlink:href="http://pir.georgetown.edu/cgi-bin/pt_graphvizView.pl?tofile=678051" ><text id="r678051" onmousemove="changeToText2('r678051', 11)" onmouseout="changeBackText2('r678051', 11)"  text-anchor="middle" x="79" y="-221.8" font-family="Times,serif" font-size="14.00">(11)</text>
 
</a> 
</g> 
<!-- f0&#45;&gt;u0 --> 
<g id="edge4" class="edge"><title>f0&#45;&gt;u0</title> 
<path fill="none" stroke="black" d="M814.154,-293.183C803.202,-291.192 791.771,-289.339 781,-288 510.171,-254.327 438.829,-285.673 168,-252 160.426,-251.058 152.527,-249.863 144.697,-248.544"/> 
<polygon fill="black" stroke="black" points="145.301,-245.097 134.846,-246.817 144.092,-251.991 145.301,-245.097"/> 
</g> 
<!-- h0 --> 
<g id="node13" class="node"><title>h0</title> 
<ellipse fill="#e98576" stroke="#e98576" cx="257" cy="-234" rx="79.4447" ry="18"/> 
<a xlink:href="http://pir.georgetown.edu/cgi-bin/pt_graphvizView.pl?togoid=0016787" ><text id="GO:0016787" onmousemove="changeToText('GO:0016787')" onmouseout="changeBackText('GO:0016787')"  text-anchor="middle" x="257" y="-234.8" font-family="Times,serif" font-size="14.00">GO:0016787</text></a>
<a xlink:href="http://pir.georgetown.edu/cgi-bin/pt_graphvizView.pl?tofile=678023" ><text id="r678023" onmousemove="changeToText2('r678023', 57)" onmouseout="changeBackText2('r678023', 57)"  text-anchor="middle" x="257" y="-221.8" font-family="Times,serif" font-size="14.00">(57)</text>
 
</a> 
</g> 
<!-- f0&#45;&gt;h0 --> 
<g id="edge22" class="edge"><title>f0&#45;&gt;h0</title> 
<path fill="none" stroke="black" d="M813.65,-293.302C802.846,-291.324 791.599,-289.447 781,-288 588.788,-261.765 538.212,-278.235 346,-252 338.631,-250.994 330.948,-249.78 323.318,-248.469"/> 
<polygon fill="black" stroke="black" points="323.808,-245.001 313.35,-246.698 322.584,-251.893 323.808,-245.001"/> 
</g> 
<!-- e0 --> 
<g id="node16" class="node"><title>e0</title> 
<ellipse fill="#e98576" stroke="#e98576" cx="435" cy="-234" rx="79.4447" ry="18"/> 
<a xlink:href="http://pir.georgetown.edu/cgi-bin/pt_graphvizView.pl?togoid=0016491" ><text id="GO:0016491" onmousemove="changeToText('GO:0016491')" onmouseout="changeBackText('GO:0016491')"  text-anchor="middle" x="435" y="-234.8" font-family="Times,serif" font-size="14.00">GO:0016491</text></a>
<a xlink:href="http://pir.georgetown.edu/cgi-bin/pt_graphvizView.pl?tofile=678019" ><text id="r678019" onmousemove="changeToText2('r678019', 63)" onmouseout="changeBackText2('r678019', 63)"  text-anchor="middle" x="435" y="-221.8" font-family="Times,serif" font-size="14.00">(63)</text>
 
</a> 
</g> 
<!-- f0&#45;&gt;e0 --> 
<g id="edge30" class="edge"><title>f0&#45;&gt;e0</title> 
<path fill="none" stroke="black" d="M812.146,-293.518C801.791,-291.586 791.088,-289.669 781,-288 667.209,-269.174 637.791,-270.826 524,-252 517.222,-250.879 510.167,-249.645 503.126,-248.37"/> 
<polygon fill="black" stroke="black" points="503.322,-244.848 492.854,-246.482 502.056,-251.733 503.322,-244.848"/> 
</g> 
<!-- o0 --> 
<g id="node29" class="node"><title>o0</title> 
<ellipse fill="#e98576" stroke="#e98576" cx="613" cy="-234" rx="79.4447" ry="18"/> 
<a xlink:href="http://pir.georgetown.edu/cgi-bin/pt_graphvizView.pl?togoid=0016874" ><text id="GO:0016874" onmousemove="changeToText('GO:0016874')" onmouseout="changeBackText('GO:0016874')"  text-anchor="middle" x="613" y="-234.8" font-family="Times,serif" font-size="14.00">GO:0016874</text></a>
<a xlink:href="http://pir.georgetown.edu/cgi-bin/pt_graphvizView.pl?tofile=678039" ><text id="r678039" onmousemove="changeToText2('r678039', 15)" onmouseout="changeBackText2('r678039', 15)"  text-anchor="middle" x="613" y="-221.8" font-family="Times,serif" font-size="14.00">(15)</text>
 
</a> 
</g> 
<!-- f0&#45;&gt;o0 --> 
<g id="edge26" class="edge"><title>f0&#45;&gt;o0</title> 
<path fill="none" stroke="black" d="M821.358,-291.751C778.788,-280.156 716.845,-263.285 671.564,-250.951"/> 
<polygon fill="black" stroke="black" points="672.448,-247.565 661.88,-248.313 670.608,-254.319 672.448,-247.565"/> 
</g> 
<!-- x0 --> 
<g id="node34" class="node"><title>x0</title> 
<ellipse fill="#e98576" stroke="#e98576" cx="786" cy="-234" rx="75.2018" ry="18"/> 
<a xlink:href="http://pir.georgetown.edu/cgi-bin/pt_graphvizView.pl?togoid=0004386" ><text id="GO:0004386" onmousemove="changeToText('GO:0004386')" onmouseout="changeBackText('GO:0004386')"  text-anchor="middle" x="786" y="-234.8" font-family="Times,serif" font-size="14.00">GO:0004386</text></a>
<a xlink:href="http://pir.georgetown.edu/cgi-bin/pt_graphvizView.pl?tofile=678057" ><text id="r678057" onmousemove="changeToText2('r678057', 4)" onmouseout="changeBackText2('r678057', 4)"  text-anchor="middle" x="786" y="-221.8" font-family="Times,serif" font-size="14.00">(4)</text>
 
</a> 
</g> 
<!-- f0&#45;&gt;x0 --> 
<g id="edge32" class="edge"><title>f0&#45;&gt;x0</title> 
<path fill="none" stroke="black" d="M850.093,-288.411C839.214,-279.345 825.569,-267.974 813.669,-258.057"/> 
<polygon fill="black" stroke="black" points="815.687,-255.183 805.764,-251.47 811.206,-260.561 815.687,-255.183"/> 
</g> 
<!-- h1 --> 
<g id="node47" class="node"><title>h1</title> 
<ellipse fill="#e98576" stroke="#e98576" cx="954" cy="-234" rx="75.2018" ry="18"/> 
<a xlink:href="http://pir.georgetown.edu/cgi-bin/pt_graphvizView.pl?togoid=0008641" ><text id="GO:0008641" onmousemove="changeToText('GO:0008641')" onmouseout="changeBackText('GO:0008641')"  text-anchor="middle" x="954" y="-234.8" font-family="Times,serif" font-size="14.00">GO:0008641</text></a>
<a xlink:href="http://pir.georgetown.edu/cgi-bin/pt_graphvizView.pl?tofile=678077" ><text id="r678077" onmousemove="changeToText2('r678077', 1)" onmouseout="changeBackText2('r678077', 1)"  text-anchor="middle" x="954" y="-221.8" font-family="Times,serif" font-size="14.00">(1)</text>
 
</a> 
</g> 
<!-- f0&#45;&gt;h1 --> 
<g id="edge44" class="edge"><title>f0&#45;&gt;h1</title> 
<path fill="none" stroke="black" d="M889.907,-288.411C900.786,-279.345 914.431,-267.974 926.331,-258.057"/> 
<polygon fill="black" stroke="black" points="928.794,-260.561 934.236,-251.47 924.313,-255.183 928.794,-260.561"/> 
</g> 
<!-- j0 --> 
<g id="node66" class="node"><title>j0</title> 
<ellipse fill="#e98576" stroke="#e98576" cx="1127" cy="-234" rx="79.4447" ry="18"/> 
<a xlink:href="http://pir.georgetown.edu/cgi-bin/pt_graphvizView.pl?togoid=0016740" ><text id="GO:0016740" onmousemove="changeToText('GO:0016740')" onmouseout="changeBackText('GO:0016740')"  text-anchor="middle" x="1127" y="-234.8" font-family="Times,serif" font-size="14.00">GO:0016740</text></a>
<a xlink:href="http://pir.georgetown.edu/cgi-bin/pt_graphvizView.pl?tofile=678027" ><text id="r678027" onmousemove="changeToText2('r678027', 46)" onmouseout="changeBackText2('r678027', 46)"  text-anchor="middle" x="1127" y="-221.8" font-family="Times,serif" font-size="14.00">(46)</text>
 
</a> 
</g> 
<!-- f0&#45;&gt;j0 --> 
<g id="edge64" class="edge"><title>f0&#45;&gt;j0</title> 
<path fill="none" stroke="black" d="M918.642,-291.751C961.212,-280.156 1023.16,-263.285 1068.44,-250.951"/> 
<polygon fill="black" stroke="black" points="1069.39,-254.319 1078.12,-248.313 1067.55,-247.565 1069.39,-254.319"/> 
</g> 
<!-- q0 --> 
<g id="node74" class="node"><title>q0</title> 
<ellipse fill="#e98576" stroke="#e98576" cx="1305" cy="-234" rx="79.4447" ry="18"/> 
<a xlink:href="http://pir.georgetown.edu/cgi-bin/pt_graphvizView.pl?togoid=0016829" ><text id="GO:0016829" onmousemove="changeToText('GO:0016829')" onmouseout="changeBackText('GO:0016829')"  text-anchor="middle" x="1305" y="-234.8" font-family="Times,serif" font-size="14.00">GO:0016829</text></a>
<a xlink:href="http://pir.georgetown.edu/cgi-bin/pt_graphvizView.pl?tofile=678043" ><text id="r678043" onmousemove="changeToText2('r678043', 14)" onmouseout="changeBackText2('r678043', 14)"  text-anchor="middle" x="1305" y="-221.8" font-family="Times,serif" font-size="14.00">(14)</text>
 
</a> 
</g> 
<!-- f0&#45;&gt;q0 --> 
<g id="edge72" class="edge"><title>f0&#45;&gt;q0</title> 
<path fill="none" stroke="black" d="M935.285,-295.651C1004.74,-285.545 1117.79,-268.643 1215,-252 1222,-250.801 1229.31,-249.502 1236.59,-248.176"/> 
<polygon fill="black" stroke="black" points="1237.27,-251.608 1246.47,-246.356 1236,-244.724 1237.27,-251.608"/> 
</g> 
<!-- n0 --> 
<g id="node9" class="node"><title>n0</title> 
<ellipse fill="#e98576" stroke="#e98576" cx="1483" cy="-234" rx="79.4447" ry="18"/> 
<a xlink:href="http://pir.georgetown.edu/cgi-bin/pt_graphvizView.pl?togoid=0005515" ><text id="GO:0005515" onmousemove="changeToText('GO:0005515')" onmouseout="changeBackText('GO:0005515')"  text-anchor="middle" x="1483" y="-234.8" font-family="Times,serif" font-size="14.00">GO:0005515</text></a>
<a xlink:href="http://pir.georgetown.edu/cgi-bin/pt_graphvizView.pl?tofile=678037" ><text id="r678037" onmousemove="changeToText2('r678037', 17)" onmouseout="changeBackText2('r678037', 17)"  text-anchor="middle" x="1483" y="-221.8" font-family="Times,serif" font-size="14.00">(17)</text>
 
</a> 
</g> 
<!-- b0&#45;&gt;n0 --> 
<g id="edge6" class="edge"><title>b0&#45;&gt;n0</title> 
<path fill="none" stroke="black" d="M2429.1,-304.088C2270.45,-301.421 1889.07,-291.124 1572,-252 1564.43,-251.065 1556.53,-249.874 1548.7,-248.558"/> 
<polygon fill="black" stroke="black" points="1549.3,-245.11 1538.84,-246.833 1548.09,-252.005 1549.3,-245.11"/> 
</g> 
<!-- d1 --> 
<g id="node11" class="node"><title>d1</title> 
<ellipse fill="#e98576" stroke="#e98576" cx="1656" cy="-234" rx="75.2018" ry="18"/> 
<a xlink:href="http://pir.georgetown.edu/cgi-bin/pt_graphvizView.pl?togoid=0043021" ><text id="GO:0043021" onmousemove="changeToText('GO:0043021')" onmouseout="changeBackText('GO:0043021')"  text-anchor="middle" x="1656" y="-234.8" font-family="Times,serif" font-size="14.00">GO:0043021</text></a>
<a xlink:href="http://pir.georgetown.edu/cgi-bin/pt_graphvizView.pl?tofile=678065" ><text id="r678065" onmousemove="changeToText2('r678065', 3)" onmouseout="changeBackText2('r678065', 3)"  text-anchor="middle" x="1656" y="-221.8" font-family="Times,serif" font-size="14.00">(3)</text>
 
</a> 
</g> 
<!-- b0&#45;&gt;d1 --> 
<g id="edge8" class="edge"><title>b0&#45;&gt;d1</title> 
<path fill="none" stroke="black" d="M2429.92,-303.069C2293.08,-298.792 1991.66,-286.046 1740,-252 1733.26,-251.089 1726.26,-249.961 1719.29,-248.724"/> 
<polygon fill="black" stroke="black" points="1719.62,-245.225 1709.15,-246.844 1718.34,-252.108 1719.62,-245.225"/> 
</g> 
<!-- a0 --> 
<g id="node22" class="node"><title>a0</title> 
<ellipse fill="#e98576" stroke="#e98576" cx="1834" cy="-234" rx="84.1886" ry="18"/> 
<a xlink:href="http://pir.georgetown.edu/cgi-bin/pt_graphvizView.pl?togoid=0043167" ><text id="GO:0043167" onmousemove="changeToText('GO:0043167')" onmouseout="changeBackText('GO:0043167')"  text-anchor="middle" x="1834" y="-234.8" font-family="Times,serif" font-size="14.00">GO:0043167</text></a>
<a xlink:href="http://pir.georgetown.edu/cgi-bin/pt_graphvizView.pl?tofile=678015" ><text id="r678015" onmousemove="changeToText2('r678015', 126)" onmouseout="changeBackText2('r678015', 126)"  text-anchor="middle" x="1834" y="-221.8" font-family="Times,serif" font-size="14.00">(126)</text>
 
</a> 
</g> 
<!-- b0&#45;&gt;a0 --> 
<g id="edge18" class="edge"><title>b0&#45;&gt;a0</title> 
<path fill="none" stroke="black" d="M2432.38,-300.426C2323.24,-292.999 2108.85,-276.626 1928,-252 1920.26,-250.946 1912.18,-249.704 1904.16,-248.379"/> 
<polygon fill="black" stroke="black" points="1904.5,-244.886 1894.05,-246.665 1903.33,-251.788 1904.5,-244.886"/> 
</g> 
<!-- a1 --> 
<g id="node24" class="node"><title>a1</title> 
<a xlink:href="http://pir.georgetown.edu/cgi-bin/pt_graphvizView.pl?togoid=0043176" > 
<ellipse fill="#dddddd" stroke="#dddddd" cx="1998" cy="-234" rx="61.1934" ry="18"/> 
<a xlink:href="http://pir.georgetown.edu/cgi-bin/pt_graphvizView.pl?togoid=0043176" ><text id="GO:0043176" onmousemove="changeToText('GO:0043176')" onmouseout="changeBackText('GO:0043176')"  text-anchor="middle" x="1998" y="-229.8" font-family="Times,serif" font-size="14.00">GO:0043176</text></a>
 
</a> 
</g> 
<!-- b0&#45;&gt;a1 --> 
<g id="edge20" class="edge"><title>b0&#45;&gt;a1</title> 
<path fill="none" stroke="black" d="M2434.7,-299.01C2348.56,-291.002 2197.22,-275.085 2069,-252 2063.62,-251.031 2058.04,-249.907 2052.48,-248.706"/> 
<polygon fill="black" stroke="black" points="2053.05,-245.249 2042.53,-246.48 2051.52,-252.08 2053.05,-245.249"/> 
</g> 
<!-- f1 --> 
<g id="node27" class="node"><title>f1</title> 
<ellipse fill="#e98576" stroke="#e98576" cx="2153" cy="-234" rx="75.2018" ry="18"/> 
<a xlink:href="http://pir.georgetown.edu/cgi-bin/pt_graphvizView.pl?togoid=0030246" ><text id="GO:0030246" onmousemove="changeToText('GO:0030246')" onmouseout="changeBackText('GO:0030246')"  text-anchor="middle" x="2153" y="-234.8" font-family="Times,serif" font-size="14.00">GO:0030246</text></a>
<a xlink:href="http://pir.georgetown.edu/cgi-bin/pt_graphvizView.pl?tofile=678073" ><text id="r678073" onmousemove="changeToText2('r678073', 2)" onmouseout="changeBackText2('r678073', 2)"  text-anchor="middle" x="2153" y="-221.8" font-family="Times,serif" font-size="14.00">(2)</text>
 
</a> 
</g> 
<!-- b0&#45;&gt;f1 --> 
<g id="edge24" class="edge"><title>b0&#45;&gt;f1</title> 
<path fill="none" stroke="black" d="M2447.99,-293.945C2393.96,-283.265 2309.86,-266.605 2237,-252 2230.97,-250.791 2224.69,-249.529 2218.41,-248.263"/> 
<polygon fill="black" stroke="black" points="2219.07,-244.824 2208.57,-246.277 2217.68,-251.686 2219.07,-244.824"/> 
</g> 
<!-- g0 --> 
<g id="node31" class="node"><title>g0</title> 
<ellipse fill="#e98576" stroke="#e98576" cx="2326" cy="-234" rx="79.4447" ry="18"/> 
<a xlink:href="http://pir.georgetown.edu/cgi-bin/pt_graphvizView.pl?togoid=0003676" ><text id="GO:0003676" onmousemove="changeToText('GO:0003676')" onmouseout="changeBackText('GO:0003676')"  text-anchor="middle" x="2326" y="-234.8" font-family="Times,serif" font-size="14.00">GO:0003676</text></a>
<a xlink:href="http://pir.georgetown.edu/cgi-bin/pt_graphvizView.pl?tofile=678021" ><text id="r678021" onmousemove="changeToText2('r678021', 60)" onmouseout="changeBackText2('r678021', 60)"  text-anchor="middle" x="2326" y="-221.8" font-family="Times,serif" font-size="14.00">(60)</text>
 
</a> 
</g> 
<!-- b0&#45;&gt;g0 --> 
<g id="edge28" class="edge"><title>b0&#45;&gt;g0</title> 
<path fill="none" stroke="black" d="M2466.69,-290.326C2439.57,-279.664 2402.67,-265.152 2373.46,-253.666"/> 
<polygon fill="black" stroke="black" points="2374.47,-250.299 2363.88,-249.896 2371.9,-256.813 2374.47,-250.299"/> 
</g> 
<!-- l0 --> 
<g id="node38" class="node"><title>l0</title> 
<ellipse fill="#e98576" stroke="#e98576" cx="2504" cy="-234" rx="79.4447" ry="18"/> 
<a xlink:href="http://pir.georgetown.edu/cgi-bin/pt_graphvizView.pl?togoid=0048037" ><text id="GO:0048037" onmousemove="changeToText('GO:0048037')" onmouseout="changeBackText('GO:0048037')"  text-anchor="middle" x="2504" y="-234.8" font-family="Times,serif" font-size="14.00">GO:0048037</text></a>
<a xlink:href="http://pir.georgetown.edu/cgi-bin/pt_graphvizView.pl?tofile=678033" ><text id="r678033" onmousemove="changeToText2('r678033', 28)" onmouseout="changeBackText2('r678033', 28)"  text-anchor="middle" x="2504" y="-221.8" font-family="Times,serif" font-size="14.00">(28)</text>
 
</a> 
</g> 
<!-- b0&#45;&gt;l0 --> 
<g id="edge36" class="edge"><title>b0&#45;&gt;l0</title> 
<path fill="none" stroke="black" d="M2504,-287.697C2504,-279.983 2504,-270.712 2504,-262.112"/> 
<polygon fill="black" stroke="black" points="2507.5,-262.104 2504,-252.104 2500.5,-262.104 2507.5,-262.104"/> 
</g> 
<!-- g1 --> 
<g id="node40" class="node"><title>g1</title> 
<ellipse fill="#e98576" stroke="#e98576" cx="2677" cy="-234" rx="75.2018" ry="18"/> 
<a xlink:href="http://pir.georgetown.edu/cgi-bin/pt_graphvizView.pl?togoid=0008289" ><text id="GO:0008289" onmousemove="changeToText('GO:0008289')" onmouseout="changeBackText('GO:0008289')"  text-anchor="middle" x="2677" y="-234.8" font-family="Times,serif" font-size="14.00">GO:0008289</text></a>
<a xlink:href="http://pir.georgetown.edu/cgi-bin/pt_graphvizView.pl?tofile=678075" ><text id="r678075" onmousemove="changeToText2('r678075', 1)" onmouseout="changeBackText2('r678075', 1)"  text-anchor="middle" x="2677" y="-221.8" font-family="Times,serif" font-size="14.00">(1)</text>
 
</a> 
</g> 
<!-- b0&#45;&gt;g1 --> 
<g id="edge38" class="edge"><title>b0&#45;&gt;g1</title> 
<path fill="none" stroke="black" d="M2540.69,-290.155C2567.07,-279.482 2602.82,-265.016 2631.09,-253.577"/> 
<polygon fill="black" stroke="black" points="2632.41,-256.819 2640.36,-249.824 2629.78,-250.33 2632.41,-256.819"/> 
</g> 
<!-- i0 --> 
<g id="node50" class="node"><title>i0</title> 
<ellipse fill="#e98576" stroke="#e98576" cx="2850" cy="-234" rx="79.4447" ry="18"/> 
<a xlink:href="http://pir.georgetown.edu/cgi-bin/pt_graphvizView.pl?togoid=0001882" ><text id="GO:0001882" onmousemove="changeToText('GO:0001882')" onmouseout="changeBackText('GO:0001882')"  text-anchor="middle" x="2850" y="-234.8" font-family="Times,serif" font-size="14.00">GO:0001882</text></a>
<a xlink:href="http://pir.georgetown.edu/cgi-bin/pt_graphvizView.pl?tofile=678025" ><text id="r678025" onmousemove="changeToText2('r678025', 48)" onmouseout="changeBackText2('r678025', 48)"  text-anchor="middle" x="2850" y="-221.8" font-family="Times,serif" font-size="14.00">(48)</text>
 
</a> 
</g> 
<!-- b0&#45;&gt;i0 --> 
<g id="edge48" class="edge"><title>b0&#45;&gt;i0</title> 
<path fill="none" stroke="black" d="M2559.59,-293.753C2620.34,-281.464 2717.65,-261.777 2782.67,-248.621"/> 
<polygon fill="black" stroke="black" points="2783.71,-251.982 2792.82,-246.568 2782.32,-245.121 2783.71,-251.982"/> 
</g> 
<!-- i1 --> 
<g id="node52" class="node"><title>i1</title> 
<ellipse fill="#e98576" stroke="#e98576" cx="3023" cy="-234" rx="75.2018" ry="18"/> 
<a xlink:href="http://pir.georgetown.edu/cgi-bin/pt_graphvizView.pl?togoid=0019842" ><text id="GO:0019842" onmousemove="changeToText('GO:0019842')" onmouseout="changeBackText('GO:0019842')"  text-anchor="middle" x="3023" y="-234.8" font-family="Times,serif" font-size="14.00">GO:0019842</text></a>
<a xlink:href="http://pir.georgetown.edu/cgi-bin/pt_graphvizView.pl?tofile=678079" ><text id="r678079" onmousemove="changeToText2('r678079', 1)" onmouseout="changeBackText2('r678079', 1)"  text-anchor="middle" x="3023" y="-221.8" font-family="Times,serif" font-size="14.00">(1)</text>
 
</a> 
</g> 
<!-- b0&#45;&gt;i1 --> 
<g id="edge50" class="edge"><title>b0&#45;&gt;i1</title> 
<path fill="none" stroke="black" d="M2557.64,-293.337C2567.69,-291.38 2578.14,-289.5 2588,-288 2742.59,-264.463 2783.38,-275.36 2938,-252 2944.8,-250.973 2951.88,-249.771 2958.92,-248.489"/> 
<polygon fill="black" stroke="black" points="2959.99,-251.849 2969.18,-246.565 2958.7,-244.969 2959.99,-251.849"/> 
</g> 
<!-- m0 --> 
<g id="node68" class="node"><title>m0</title> 
<ellipse fill="#e98576" stroke="#e98576" cx="3196" cy="-234" rx="79.4447" ry="18"/> 
<a xlink:href="http://pir.georgetown.edu/cgi-bin/pt_graphvizView.pl?togoid=0046906" ><text id="GO:0046906" onmousemove="changeToText('GO:0046906')" onmouseout="changeBackText('GO:0046906')"  text-anchor="middle" x="3196" y="-234.8" font-family="Times,serif" font-size="14.00">GO:0046906</text></a>
<a xlink:href="http://pir.georgetown.edu/cgi-bin/pt_graphvizView.pl?tofile=678035" ><text id="r678035" onmousemove="changeToText2('r678035', 28)" onmouseout="changeBackText2('r678035', 28)"  text-anchor="middle" x="3196" y="-221.8" font-family="Times,serif" font-size="14.00">(28)</text>
 
</a> 
</g> 
<!-- b0&#45;&gt;m0 --> 
<g id="edge66" class="edge"><title>b0&#45;&gt;m0</title> 
<path fill="none" stroke="black" d="M2557.15,-293.156C2567.35,-291.192 2577.97,-289.356 2588,-288 2817.13,-257.002 2877.7,-281.744 3107,-252 3114.38,-251.043 3122.06,-249.86 3129.7,-248.567"/> 
<polygon fill="black" stroke="black" points="3130.42,-251.992 3139.67,-246.813 3129.21,-245.098 3130.42,-251.992"/> 
</g> 
<!-- d0 --> 
<g id="node70" class="node"><title>d0</title> 
<ellipse fill="#e98576" stroke="#e98576" cx="3374" cy="-234" rx="79.4447" ry="18"/> 
<a xlink:href="http://pir.georgetown.edu/cgi-bin/pt_graphvizView.pl?togoid=0000166" ><text id="GO:0000166" onmousemove="changeToText('GO:0000166')" onmouseout="changeBackText('GO:0000166')"  text-anchor="middle" x="3374" y="-234.8" font-family="Times,serif" font-size="14.00">GO:0000166</text></a>
<a xlink:href="http://pir.georgetown.edu/cgi-bin/pt_graphvizView.pl?tofile=678017" ><text id="r678017" onmousemove="changeToText2('r678017', 75)" onmouseout="changeBackText2('r678017', 75)"  text-anchor="middle" x="3374" y="-221.8" font-family="Times,serif" font-size="14.00">(75)</text>
 
</a> 
</g> 
<!-- b0&#45;&gt;d0 --> 
<g id="edge68" class="edge"><title>b0&#45;&gt;d0</title> 
<path fill="none" stroke="black" d="M2556.68,-293.099C2567.02,-291.115 2577.81,-289.287 2588,-288 2895.3,-249.173 2976.45,-288.829 3284,-252 3291.77,-251.069 3299.88,-249.868 3307.91,-248.535"/> 
<polygon fill="black" stroke="black" points="3308.75,-251.941 3318.01,-246.786 3307.56,-245.044 3308.75,-251.941"/> 
</g> 
<!-- v0 --> 
<g id="node72" class="node"><title>v0</title> 
<ellipse fill="#e98576" stroke="#e98576" cx="3547" cy="-234" rx="75.2018" ry="18"/> 
<a xlink:href="http://pir.georgetown.edu/cgi-bin/pt_graphvizView.pl?togoid=0031409" ><text id="GO:0031409" onmousemove="changeToText('GO:0031409')" onmouseout="changeBackText('GO:0031409')"  text-anchor="middle" x="3547" y="-234.8" font-family="Times,serif" font-size="14.00">GO:0031409</text></a>
<a xlink:href="http://pir.georgetown.edu/cgi-bin/pt_graphvizView.pl?tofile=678053" ><text id="r678053" onmousemove="changeToText2('r678053', 7)" onmouseout="changeBackText2('r678053', 7)"  text-anchor="middle" x="3547" y="-221.8" font-family="Times,serif" font-size="14.00">(7)</text>
 
</a> 
</g> 
<!-- b0&#45;&gt;v0 --> 
<g id="edge70" class="edge"><title>b0&#45;&gt;v0</title> 
<path fill="none" stroke="black" d="M2556.67,-293.014C2567.01,-291.037 2577.81,-289.233 2588,-288 2973.96,-241.295 3075.99,-298.263 3462,-252 3469.19,-251.138 3476.68,-250 3484.11,-248.719"/> 
<polygon fill="black" stroke="black" points="3484.94,-252.125 3494.15,-246.897 3483.69,-245.237 3484.94,-252.125"/> 
</g> 
<!-- w0 --> 
<g id="node76" class="node"><title>w0</title> 
<ellipse fill="#e98576" stroke="#e98576" cx="3715" cy="-234" rx="75.2018" ry="18"/> 
<a xlink:href="http://pir.georgetown.edu/cgi-bin/pt_graphvizView.pl?togoid=0051540" ><text id="GO:0051540" onmousemove="changeToText('GO:0051540')" onmouseout="changeBackText('GO:0051540')"  text-anchor="middle" x="3715" y="-234.8" font-family="Times,serif" font-size="14.00">GO:0051540</text></a>
<a xlink:href="http://pir.georgetown.edu/cgi-bin/pt_graphvizView.pl?tofile=678055" ><text id="r678055" onmousemove="changeToText2('r678055', 6)" onmouseout="changeBackText2('r678055', 6)"  text-anchor="middle" x="3715" y="-221.8" font-family="Times,serif" font-size="14.00">(6)</text>
 
</a> 
</g> 
<!-- b0&#45;&gt;w0 --> 
<g id="edge74" class="edge"><title>b0&#45;&gt;w0</title> 
<path fill="none" stroke="black" d="M2556.21,-293.045C2566.69,-291.039 2577.66,-289.217 2588,-288 3048.66,-233.813 3170.34,-306.187 3631,-252 3638.11,-251.163 3645.52,-250.041 3652.86,-248.769"/> 
<polygon fill="black" stroke="black" points="3653.58,-252.195 3662.79,-246.955 3652.32,-245.309 3653.58,-252.195"/> 
</g> 
<!-- s0 --> 
<g id="node15" class="node"><title>s0</title> 
<ellipse fill="#e98576" stroke="#e98576" cx="182" cy="-162" rx="79.4447" ry="18"/> 
<a xlink:href="http://pir.georgetown.edu/cgi-bin/pt_graphvizView.pl?togoid=0008233" ><text id="GO:0008233" onmousemove="changeToText('GO:0008233')" onmouseout="changeBackText('GO:0008233')"  text-anchor="middle" x="182" y="-162.8" font-family="Times,serif" font-size="14.00">GO:0008233</text></a>
<a xlink:href="http://pir.georgetown.edu/cgi-bin/pt_graphvizView.pl?tofile=678047" ><text id="r678047" onmousemove="changeToText2('r678047', 11)" onmouseout="changeBackText2('r678047', 11)"  text-anchor="middle" x="182" y="-149.8" font-family="Times,serif" font-size="14.00">(11)</text>
 
</a> 
</g> 
<!-- h0&#45;&gt;s0 --> 
<g id="edge12" class="edge"><title>h0&#45;&gt;s0</title> 
<path fill="none" stroke="black" d="M239.226,-216.411C229.675,-207.497 217.738,-196.355 207.241,-186.558"/> 
<polygon fill="black" stroke="black" points="209.605,-183.977 199.906,-179.713 204.829,-189.094 209.605,-183.977"/> 
</g> 
<!-- e1 --> 
<g id="node18" class="node"><title>e1</title> 
<ellipse fill="#e98576" stroke="#e98576" cx="355" cy="-162" rx="75.2018" ry="18"/> 
<a xlink:href="http://pir.georgetown.edu/cgi-bin/pt_graphvizView.pl?togoid=0004497" ><text id="GO:0004497" onmousemove="changeToText('GO:0004497')" onmouseout="changeBackText('GO:0004497')"  text-anchor="middle" x="355" y="-162.8" font-family="Times,serif" font-size="14.00">GO:0004497</text></a>
<a xlink:href="http://pir.georgetown.edu/cgi-bin/pt_graphvizView.pl?tofile=678069" ><text id="r678069" onmousemove="changeToText2('r678069', 2)" onmouseout="changeBackText2('r678069', 2)"  text-anchor="middle" x="355" y="-149.8" font-family="Times,serif" font-size="14.00">(2)</text>
 
</a> 
</g> 
<!-- e0&#45;&gt;e1 --> 
<g id="edge14" class="edge"><title>e0&#45;&gt;e1</title> 
<path fill="none" stroke="black" d="M416.041,-216.411C405.68,-207.345 392.685,-195.974 381.351,-186.057"/> 
<polygon fill="black" stroke="black" points="383.653,-183.421 373.823,-179.47 379.044,-188.689 383.653,-183.421"/> 
</g> 
<!-- r0 --> 
<g id="node64" class="node"><title>r0</title> 
<ellipse fill="#e98576" stroke="#e98576" cx="528" cy="-162" rx="79.4447" ry="18"/> 
<a xlink:href="http://pir.georgetown.edu/cgi-bin/pt_graphvizView.pl?togoid=0009055" ><text id="GO:0009055" onmousemove="changeToText('GO:0009055')" onmouseout="changeBackText('GO:0009055')"  text-anchor="middle" x="528" y="-162.8" font-family="Times,serif" font-size="14.00">GO:0009055</text></a>
<a xlink:href="http://pir.georgetown.edu/cgi-bin/pt_graphvizView.pl?tofile=678045" ><text id="r678045" onmousemove="changeToText2('r678045', 13)" onmouseout="changeBackText2('r678045', 13)"  text-anchor="middle" x="528" y="-149.8" font-family="Times,serif" font-size="14.00">(13)</text>
 
</a> 
</g> 
<!-- e0&#45;&gt;r0 --> 
<g id="edge62" class="edge"><title>e0&#45;&gt;r0</title> 
<path fill="none" stroke="black" d="M457.04,-216.411C469.317,-207.17 484.774,-195.536 498.125,-185.487"/> 
<polygon fill="black" stroke="black" points="500.234,-188.28 506.118,-179.47 496.024,-182.687 500.234,-188.28"/> 
</g> 
<!-- z0 --> 
<g id="node54" class="node"><title>z0</title> 
<ellipse fill="#e98576" stroke="#e98576" cx="1998" cy="-162" rx="75.2018" ry="18"/> 
<a xlink:href="http://pir.georgetown.edu/cgi-bin/pt_graphvizView.pl?togoid=0016597" ><text id="GO:0016597" onmousemove="changeToText('GO:0016597')" onmouseout="changeBackText('GO:0016597')"  text-anchor="middle" x="1998" y="-162.8" font-family="Times,serif" font-size="14.00">GO:0016597</text></a>
<a xlink:href="http://pir.georgetown.edu/cgi-bin/pt_graphvizView.pl?tofile=678061" ><text id="r678061" onmousemove="changeToText2('r678061', 3)" onmouseout="changeBackText2('r678061', 3)"  text-anchor="middle" x="1998" y="-149.8" font-family="Times,serif" font-size="14.00">(3)</text>
 
</a> 
</g> 
<!-- a1&#45;&gt;z0 --> 
<g id="edge52" class="edge"><title>a1&#45;&gt;z0</title> 
<path fill="none" stroke="black" d="M1998,-215.697C1998,-207.983 1998,-198.712 1998,-190.112"/> 
<polygon fill="black" stroke="black" points="2001.5,-190.104 1998,-180.104 1994.5,-190.104 2001.5,-190.104"/> 
</g> 
<!-- l1 --> 
<g id="node42" class="node"><title>l1</title> 
<a xlink:href="http://pir.georgetown.edu/cgi-bin/pt_graphvizView.pl?togoid=0016879" > 
<ellipse fill="#dddddd" stroke="#dddddd" cx="687" cy="-162" rx="61.1934" ry="18"/> 
<a xlink:href="http://pir.georgetown.edu/cgi-bin/pt_graphvizView.pl?togoid=0016879" ><text id="GO:0016879" onmousemove="changeToText('GO:0016879')" onmouseout="changeBackText('GO:0016879')"  text-anchor="middle" x="687" y="-157.8" font-family="Times,serif" font-size="14.00">GO:0016879</text></a>
 
</a> 
</g> 
<!-- o0&#45;&gt;l1 --> 
<g id="edge40" class="edge"><title>o0&#45;&gt;l1</title> 
<path fill="none" stroke="black" d="M630.537,-216.411C640.029,-207.432 651.911,-196.193 662.322,-186.344"/> 
<polygon fill="black" stroke="black" points="664.729,-188.885 669.589,-179.47 659.919,-183.799 664.729,-188.885"/> 
</g> 
<!-- k1 --> 
<g id="node43" class="node"><title>k1</title> 
<a xlink:href="http://pir.georgetown.edu/cgi-bin/pt_graphvizView.pl?togoid=0016881" > 
<ellipse fill="#dddddd" stroke="#dddddd" cx="687" cy="-90" rx="61.1934" ry="18"/> 
<a xlink:href="http://pir.georgetown.edu/cgi-bin/pt_graphvizView.pl?togoid=0016881" ><text id="GO:0016881" onmousemove="changeToText('GO:0016881')" onmouseout="changeBackText('GO:0016881')"  text-anchor="middle" x="687" y="-85.8" font-family="Times,serif" font-size="14.00">GO:0016881</text></a>
 
</a> 
</g> 
<!-- l1&#45;&gt;k1 --> 
<g id="edge60" class="edge"><title>l1&#45;&gt;k1</title> 
<path fill="none" stroke="black" d="M687,-143.697C687,-135.983 687,-126.712 687,-118.112"/> 
<polygon fill="black" stroke="black" points="690.5,-118.104 687,-108.104 683.5,-118.104 690.5,-118.104"/> 
</g> 
<!-- j1 --> 
<g id="node45" class="node"><title>j1</title> 
<ellipse fill="#e98576" stroke="#e98576" cx="687" cy="-18" rx="75.2018" ry="18"/> 
<a xlink:href="http://pir.georgetown.edu/cgi-bin/pt_graphvizView.pl?togoid=0019787" ><text id="GO:0019787" onmousemove="changeToText('GO:0019787')" onmouseout="changeBackText('GO:0019787')"  text-anchor="middle" x="687" y="-18.8" font-family="Times,serif" font-size="14.00">GO:0019787</text></a>
<a xlink:href="http://pir.georgetown.edu/cgi-bin/pt_graphvizView.pl?tofile=678081" ><text id="r678081" onmousemove="changeToText2('r678081', 1)" onmouseout="changeBackText2('r678081', 1)"  text-anchor="middle" x="687" y="-5.8" font-family="Times,serif" font-size="14.00">(1)</text>
 
</a> 
</g> 
<!-- k1&#45;&gt;j1 --> 
<g id="edge42" class="edge"><title>k1&#45;&gt;j1</title> 
<path fill="none" stroke="black" d="M687,-71.6966C687,-63.9827 687,-54.7125 687,-46.1124"/> 
<polygon fill="black" stroke="black" points="690.5,-46.1043 687,-36.1043 683.5,-46.1044 690.5,-46.1043"/> 
</g> 
<!-- b1 --> 
<g id="node57" class="node"><title>b1</title> 
<ellipse fill="#e98576" stroke="#e98576" cx="3883" cy="-234" rx="75.2018" ry="18"/> 
<a xlink:href="http://pir.georgetown.edu/cgi-bin/pt_graphvizView.pl?togoid=0004871" ><text id="GO:0004871" onmousemove="changeToText('GO:0004871')" onmouseout="changeBackText('GO:0004871')"  text-anchor="middle" x="3883" y="-234.8" font-family="Times,serif" font-size="14.00">GO:0004871</text></a>
<a xlink:href="http://pir.georgetown.edu/cgi-bin/pt_graphvizView.pl?tofile=678063" ><text id="r678063" onmousemove="changeToText2('r678063', 3)" onmouseout="changeBackText2('r678063', 3)"  text-anchor="middle" x="3883" y="-221.8" font-family="Times,serif" font-size="14.00">(3)</text>
 
</a> 
</g> 
<!-- c1&#45;&gt;b1 --> 
<g id="edge54" class="edge"><title>c1&#45;&gt;b1</title> 
<path fill="none" stroke="black" d="M3057.07,-293.198C3065.92,-291.153 3075.21,-289.277 3084,-288 3398.87,-242.253 3483.3,-291.668 3799,-252 3805.84,-251.14 3812.96,-250.034 3820.04,-248.799"/> 
<polygon fill="black" stroke="black" points="3821.12,-252.159 3830.32,-246.912 3819.86,-245.274 3821.12,-252.159"/> 
</g> 
</g> 
<text text-anchor="left" x="4" y="-20" style="font-family:Arial Narrow;font-size:20.00;font-weight:bold;">GO Hierarchical View:</text> 

<text text-anchor="left" x="4" y="0" style="font-family:Arial Narrow;font-size:20.00;font-style:italic;">molecular function</text> 

<script type="text/ecmascript"> 
<![CDATA[ 
var targetText; 
function changeToText(z) { 
		targetText = svgDocument.getElementById(z).firstChild; 
		targetText.nodeValue="link to "+z; 
} 
function changeBackText(z) { 
		targetText = svgDocument.getElementById(z).firstChild; 
		targetText.nodeValue=z; 
} 
function changeToText2(z,n) { 
		targetText = svgDocument.getElementById(z).firstChild; 
		if (n<=1) { 
			targetText.nodeValue="link to " + n + " protein record"; 
		} else { 
			targetText.nodeValue="link to " + n + " protein records"; 
		} 
} 
function changeBackText2(z,n) { 
		targetText = svgDocument.getElementById(z).firstChild; 
		targetText.nodeValue="(" + n + ")"; 
} 
// ]]> 
</script> 
</svg> 
