<?xml version="1.0" encoding="UTF-8" standalone="no"?> 
<!DOCTYPE svg PUBLIC "-//W3C//DTD SVG 1.1//EN" 
 "http://www.w3.org/Graphics/SVG/1.1/DTD/svg11.dtd"> 
<!-- Generated by graphviz version 2.28.0 (20110622.2320) 
 --> 
<!-- Title: G Pages: 1 --> 
<svg width="2000" height="1000"  
 viewBox="-30 -50 2000 1000" xmlns="http://www.w3.org/2000/svg" xmlns:xlink="http://www.w3.org/1999/xlink"> 
<g id="graph1" class="graph" transform="scale(1 1) rotate(0) translate(4 544)"> 
<title>G</title> 
<polygon fill="white" stroke="white" points="-4,5 -4,-544 746.923,-544 746.923,5 -4,5"/> 
<!-- b0 --> 
<g id="node1" class="node"><title>b0</title> 
<a xlink:href="http://pir.georgetown.edu/cgi-bin/pt_graphvizView.pl?togoid=0044424" > 
<ellipse fill="#dddddd" stroke="#dddddd" cx="496" cy="-234" rx="61.1934" ry="18"/> 
<a xlink:href="http://pir.georgetown.edu/cgi-bin/pt_graphvizView.pl?togoid=0044424" ><text id="GO:0044424" onmousemove="changeToText('GO:0044424')" onmouseout="changeBackText('GO:0044424')"  text-anchor="middle" x="496" y="-229.8" font-family="Times,serif" font-size="14.00">GO:0044424</text></a>
 
</a> 
</g> 
<!-- a0 --> 
<g id="node3" class="node"><title>a0</title> 
<ellipse fill="#e98576" stroke="#e98576" cx="395" cy="-162" rx="75.2018" ry="18"/> 
<a xlink:href="http://pir.georgetown.edu/cgi-bin/pt_graphvizView.pl?togoid=0005737" ><text id="GO:0005737" onmousemove="changeToText('GO:0005737')" onmouseout="changeBackText('GO:0005737')"  text-anchor="middle" x="395" y="-162.8" font-family="Times,serif" font-size="14.00">GO:0005737</text></a>
<a xlink:href="http://pir.georgetown.edu/cgi-bin/pt_graphvizView.pl?tofile=500516" ><text id="r500516" onmousemove="changeToText2('r500516', 3)" onmouseout="changeBackText2('r500516', 3)"  text-anchor="middle" x="395" y="-149.8" font-family="Times,serif" font-size="14.00">(3)</text>
 
</a> 
</g> 
<!-- b0&#45;&gt;a0 --> 
<g id="edge2" class="edge"><title>b0&#45;&gt;a0</title> 
<path fill="none" stroke="black" d="M473.082,-217.116C459.459,-207.674 441.973,-195.556 427.004,-185.181"/> 
<polygon fill="black" stroke="black" points="428.741,-182.127 418.529,-179.307 424.754,-187.88 428.741,-182.127"/> 
</g> 
<!-- l0 --> 
<g id="node6" class="node"><title>l0</title> 
<a xlink:href="http://pir.georgetown.edu/cgi-bin/pt_graphvizView.pl?togoid=0043229" > 
<ellipse fill="#dddddd" stroke="#dddddd" cx="238" cy="-162" rx="61.1934" ry="18"/> 
<a xlink:href="http://pir.georgetown.edu/cgi-bin/pt_graphvizView.pl?togoid=0043229" ><text id="GO:0043229" onmousemove="changeToText('GO:0043229')" onmouseout="changeBackText('GO:0043229')"  text-anchor="middle" x="238" y="-157.8" font-family="Times,serif" font-size="14.00">GO:0043229</text></a>
 
</a> 
</g> 
<!-- b0&#45;&gt;l0 --> 
<g id="edge6" class="edge"><title>b0&#45;&gt;l0</title> 
<path fill="none" stroke="black" d="M452.526,-221.205C408.147,-209.164 339.192,-190.455 291.492,-177.513"/> 
<polygon fill="black" stroke="black" points="292.22,-174.084 281.653,-174.844 290.387,-180.84 292.22,-174.084"/> 
</g> 
<!-- m0 --> 
<g id="node13" class="node"><title>m0</title> 
<a xlink:href="http://pir.georgetown.edu/cgi-bin/pt_graphvizView.pl?togoid=0044444" > 
<ellipse fill="#dddddd" stroke="#dddddd" cx="397" cy="-90" rx="61.1934" ry="18"/> 
<a xlink:href="http://pir.georgetown.edu/cgi-bin/pt_graphvizView.pl?togoid=0044444" ><text id="GO:0044444" onmousemove="changeToText('GO:0044444')" onmouseout="changeBackText('GO:0044444')"  text-anchor="middle" x="397" y="-85.8" font-family="Times,serif" font-size="14.00">GO:0044444</text></a>
 
</a> 
</g> 
<!-- b0&#45;&gt;m0 --> 
<g id="edge42" class="edge"><title>b0&#45;&gt;m0</title> 
<path fill="none" stroke="black" d="M496.584,-215.764C496.407,-196.649 493.59,-165.657 479,-144 469.353,-129.681 454.401,-118.365 439.893,-109.931"/> 
<polygon fill="black" stroke="black" points="441.421,-106.778 430.968,-105.05 438.062,-112.919 441.421,-106.778"/> 
</g> 
<!-- a0&#45;&gt;m0 --> 
<g id="edge40" class="edge"><title>a0&#45;&gt;m0</title> 
<path fill="none" stroke="black" d="M395.494,-143.697C395.715,-135.983 395.98,-126.712 396.225,-118.112"/> 
<polygon fill="black" stroke="black" points="399.724,-118.2 396.511,-108.104 392.727,-118 399.724,-118.2"/> 
</g> 
<!-- k0 --> 
<g id="node4" class="node"><title>k0</title> 
<a xlink:href="http://pir.georgetown.edu/cgi-bin/pt_graphvizView.pl?togoid=0043226" > 
<ellipse fill="#dddddd" stroke="#dddddd" cx="219" cy="-378" rx="61.1934" ry="18"/> 
<a xlink:href="http://pir.georgetown.edu/cgi-bin/pt_graphvizView.pl?togoid=0043226" ><text id="GO:0043226" onmousemove="changeToText('GO:0043226')" onmouseout="changeBackText('GO:0043226')"  text-anchor="middle" x="219" y="-373.8" font-family="Times,serif" font-size="14.00">GO:0043226</text></a>
 
</a> 
</g> 
<!-- k0&#45;&gt;l0 --> 
<g id="edge4" class="edge"><title>k0&#45;&gt;l0</title> 
<path fill="none" stroke="black" d="M220.523,-359.849C223.809,-322.832 231.591,-235.181 235.569,-190.386"/> 
<polygon fill="black" stroke="black" points="239.072,-190.503 236.47,-180.232 232.099,-189.884 239.072,-190.503"/> 
</g> 
<!-- p0 --> 
<g id="node16" class="node"><title>p0</title> 
<ellipse fill="#e98576" stroke="#e98576" cx="341" cy="-306" rx="75.2018" ry="18"/> 
<a xlink:href="http://pir.georgetown.edu/cgi-bin/pt_graphvizView.pl?togoid=0043230" ><text id="GO:0043230" onmousemove="changeToText('GO:0043230')" onmouseout="changeBackText('GO:0043230')"  text-anchor="middle" x="341" y="-306.8" font-family="Times,serif" font-size="14.00">GO:0043230</text></a>
<a xlink:href="http://pir.georgetown.edu/cgi-bin/pt_graphvizView.pl?tofile=500526" ><text id="r500526" onmousemove="changeToText2('r500526', 1)" onmouseout="changeBackText2('r500526', 1)"  text-anchor="middle" x="341" y="-293.8" font-family="Times,serif" font-size="14.00">(1)</text>
 
</a> 
</g> 
<!-- k0&#45;&gt;p0 --> 
<g id="edge14" class="edge"><title>k0&#45;&gt;p0</title> 
<path fill="none" stroke="black" d="M245.773,-361.638C263.013,-351.747 285.645,-338.761 304.52,-327.931"/> 
<polygon fill="black" stroke="black" points="306.512,-330.824 313.444,-322.811 303.028,-324.752 306.512,-330.824"/> 
</g> 
<!-- j0 --> 
<g id="node25" class="node"><title>j0</title> 
<a xlink:href="http://pir.georgetown.edu/cgi-bin/pt_graphvizView.pl?togoid=0043227" > 
<ellipse fill="#dddddd" stroke="#dddddd" cx="61" cy="-234" rx="61.1934" ry="18"/> 
<a xlink:href="http://pir.georgetown.edu/cgi-bin/pt_graphvizView.pl?togoid=0043227" ><text id="GO:0043227" onmousemove="changeToText('GO:0043227')" onmouseout="changeBackText('GO:0043227')"  text-anchor="middle" x="61" y="-229.8" font-family="Times,serif" font-size="14.00">GO:0043227</text></a>
 
</a> 
</g> 
<!-- k0&#45;&gt;j0 --> 
<g id="edge24" class="edge"><title>k0&#45;&gt;j0</title> 
<path fill="none" stroke="black" d="M158.244,-374.989C120.796,-370.216 75.4113,-357.298 51,-324 37.8482,-306.06 42.5189,-280.377 49.1995,-261.207"/> 
<polygon fill="black" stroke="black" points="52.4745,-262.442 52.7926,-251.852 45.9399,-259.932 52.4745,-262.442"/> 
</g> 
<!-- n0 --> 
<g id="node27" class="node"><title>n0</title> 
<ellipse fill="#e98576" stroke="#e98576" cx="135" cy="-306" rx="75.2018" ry="18"/> 
<a xlink:href="http://pir.georgetown.edu/cgi-bin/pt_graphvizView.pl?togoid=0031982" ><text id="GO:0031982" onmousemove="changeToText('GO:0031982')" onmouseout="changeBackText('GO:0031982')"  text-anchor="middle" x="135" y="-306.8" font-family="Times,serif" font-size="14.00">GO:0031982</text></a>
<a xlink:href="http://pir.georgetown.edu/cgi-bin/pt_graphvizView.pl?tofile=500522" ><text id="r500522" onmousemove="changeToText2('r500522', 1)" onmouseout="changeBackText2('r500522', 1)"  text-anchor="middle" x="135" y="-293.8" font-family="Times,serif" font-size="14.00">(1)</text>
 
</a> 
</g> 
<!-- k0&#45;&gt;n0 --> 
<g id="edge26" class="edge"><title>k0&#45;&gt;n0</title> 
<path fill="none" stroke="black" d="M199.518,-360.765C188.57,-351.642 174.725,-340.105 162.67,-330.059"/> 
<polygon fill="black" stroke="black" points="164.591,-327.103 154.668,-323.39 160.109,-332.48 164.591,-327.103"/> 
</g> 
<!-- i0 --> 
<g id="node10" class="node"><title>i0</title> 
<a xlink:href="http://pir.georgetown.edu/cgi-bin/pt_graphvizView.pl?togoid=0043231" > 
<ellipse fill="#dddddd" stroke="#dddddd" cx="235" cy="-90" rx="61.1934" ry="18"/> 
<a xlink:href="http://pir.georgetown.edu/cgi-bin/pt_graphvizView.pl?togoid=0043231" ><text id="GO:0043231" onmousemove="changeToText('GO:0043231')" onmouseout="changeBackText('GO:0043231')"  text-anchor="middle" x="235" y="-85.8" font-family="Times,serif" font-size="14.00">GO:0043231</text></a>
 
</a> 
</g> 
<!-- l0&#45;&gt;i0 --> 
<g id="edge36" class="edge"><title>l0&#45;&gt;i0</title> 
<path fill="none" stroke="black" d="M237.258,-143.697C236.928,-135.983 236.531,-126.712 236.162,-118.112"/> 
<polygon fill="black" stroke="black" points="239.658,-117.945 235.733,-108.104 232.665,-118.245 239.658,-117.945"/> 
</g> 
<!-- e0 --> 
<g id="node8" class="node"><title>e0</title> 
<a xlink:href="http://pir.georgetown.edu/cgi-bin/pt_graphvizView.pl?togoid=0005575" > 
<ellipse fill="#dddddd" stroke="#dddddd" cx="395" cy="-522" rx="61.1934" ry="18"/> 
<a xlink:href="http://pir.georgetown.edu/cgi-bin/pt_graphvizView.pl?togoid=0005575" ><text id="GO:0005575" onmousemove="changeToText('GO:0005575')" onmouseout="changeBackText('GO:0005575')"  text-anchor="middle" x="395" y="-517.8" font-family="Times,serif" font-size="14.00">GO:0005575</text></a>
 
</a> 
</g> 
<!-- e0&#45;&gt;k0 --> 
<g id="edge8" class="edge"><title>e0&#45;&gt;k0</title> 
<path fill="none" stroke="black" d="M363.792,-506.233C345,-496.625 321.095,-483.101 302,-468 277.892,-448.935 254.382,-422.798 238.574,-403.783"/> 
<polygon fill="black" stroke="black" points="241.128,-401.377 232.085,-395.856 235.711,-405.811 241.128,-401.377"/> 
</g> 
<!-- q0 --> 
<g id="node17" class="node"><title>q0</title> 
<a xlink:href="http://pir.georgetown.edu/cgi-bin/pt_graphvizView.pl?togoid=0044421" > 
<ellipse fill="#dddddd" stroke="#dddddd" cx="360" cy="-378" rx="61.1934" ry="18"/> 
<a xlink:href="http://pir.georgetown.edu/cgi-bin/pt_graphvizView.pl?togoid=0044421" ><text id="GO:0044421" onmousemove="changeToText('GO:0044421')" onmouseout="changeBackText('GO:0044421')"  text-anchor="middle" x="360" y="-373.8" font-family="Times,serif" font-size="14.00">GO:0044421</text></a>
 
</a> 
</g> 
<!-- e0&#45;&gt;q0 --> 
<g id="edge44" class="edge"><title>e0&#45;&gt;q0</title> 
<path fill="none" stroke="black" d="M357.964,-507.571C340.392,-499.11 321.076,-486.271 311,-468 303.274,-453.989 305.168,-446.899 311,-432 315.416,-420.718 323.485,-410.399 331.818,-401.924"/> 
<polygon fill="black" stroke="black" points="334.292,-404.401 339.124,-394.973 329.467,-399.33 334.292,-404.401"/> 
</g> 
<!-- f0 --> 
<g id="node20" class="node"><title>f0</title> 
<a xlink:href="http://pir.georgetown.edu/cgi-bin/pt_graphvizView.pl?togoid=0005623" > 
<ellipse fill="#dddddd" stroke="#dddddd" cx="550" cy="-450" rx="61.1934" ry="18"/> 
<a xlink:href="http://pir.georgetown.edu/cgi-bin/pt_graphvizView.pl?togoid=0005623" ><text id="GO:0005623" onmousemove="changeToText('GO:0005623')" onmouseout="changeBackText('GO:0005623')"  text-anchor="middle" x="550" y="-445.8" font-family="Times,serif" font-size="14.00">GO:0005623</text></a>
 
</a> 
</g> 
<!-- e0&#45;&gt;f0 --> 
<g id="edge18" class="edge"><title>e0&#45;&gt;f0</title> 
<path fill="none" stroke="black" d="M427.116,-506.496C450.704,-495.843 482.953,-481.279 508.496,-469.744"/> 
<polygon fill="black" stroke="black" points="510.252,-472.791 517.925,-465.485 507.371,-466.412 510.252,-472.791"/> 
</g> 
<!-- d0 --> 
<g id="node22" class="node"><title>d0</title> 
<a xlink:href="http://pir.georgetown.edu/cgi-bin/pt_graphvizView.pl?togoid=0044464" > 
<ellipse fill="#dddddd" stroke="#dddddd" cx="639" cy="-378" rx="61.1934" ry="18"/> 
<a xlink:href="http://pir.georgetown.edu/cgi-bin/pt_graphvizView.pl?togoid=0044464" ><text id="GO:0044464" onmousemove="changeToText('GO:0044464')" onmouseout="changeBackText('GO:0044464')"  text-anchor="middle" x="639" y="-373.8" font-family="Times,serif" font-size="14.00">GO:0044464</text></a>
 
</a> 
</g> 
<!-- e0&#45;&gt;d0 --> 
<g id="edge20" class="edge"><title>e0&#45;&gt;d0</title> 
<path fill="none" stroke="black" d="M451.032,-514.673C509.799,-506.881 596.801,-491.692 620,-468 635.762,-451.903 639.86,-426.125 640.397,-406.446"/> 
<polygon fill="black" stroke="black" points="643.897,-406.235 640.381,-396.24 636.897,-406.246 643.897,-406.235"/> 
</g> 
<!-- o0 --> 
<g id="node35" class="node"><title>o0</title> 
<ellipse fill="#e98576" stroke="#e98576" cx="395" cy="-450" rx="75.2018" ry="18"/> 
<a xlink:href="http://pir.georgetown.edu/cgi-bin/pt_graphvizView.pl?togoid=0005576" ><text id="GO:0005576" onmousemove="changeToText('GO:0005576')" onmouseout="changeBackText('GO:0005576')"  text-anchor="middle" x="395" y="-450.8" font-family="Times,serif" font-size="14.00">GO:0005576</text></a>
<a xlink:href="http://pir.georgetown.edu/cgi-bin/pt_graphvizView.pl?tofile=500524" ><text id="r500524" onmousemove="changeToText2('r500524', 1)" onmouseout="changeBackText2('r500524', 1)"  text-anchor="middle" x="395" y="-437.8" font-family="Times,serif" font-size="14.00">(1)</text>
 
</a> 
</g> 
<!-- e0&#45;&gt;o0 --> 
<g id="edge38" class="edge"><title>e0&#45;&gt;o0</title> 
<path fill="none" stroke="black" d="M395,-503.697C395,-495.983 395,-486.712 395,-478.112"/> 
<polygon fill="black" stroke="black" points="398.5,-478.104 395,-468.104 391.5,-478.104 398.5,-478.104"/> 
</g> 
<!-- h0 --> 
<g id="node12" class="node"><title>h0</title> 
<ellipse fill="#e98576" stroke="#e98576" cx="397" cy="-18" rx="75.2018" ry="18"/> 
<a xlink:href="http://pir.georgetown.edu/cgi-bin/pt_graphvizView.pl?togoid=0005783" ><text id="GO:0005783" onmousemove="changeToText('GO:0005783')" onmouseout="changeBackText('GO:0005783')"  text-anchor="middle" x="397" y="-18.8" font-family="Times,serif" font-size="14.00">GO:0005783</text></a>
<a xlink:href="http://pir.georgetown.edu/cgi-bin/pt_graphvizView.pl?tofile=500520" ><text id="r500520" onmousemove="changeToText2('r500520', 1)" onmouseout="changeBackText2('r500520', 1)"  text-anchor="middle" x="397" y="-5.8" font-family="Times,serif" font-size="14.00">(1)</text>
 
</a> 
</g> 
<!-- i0&#45;&gt;h0 --> 
<g id="edge10" class="edge"><title>i0&#45;&gt;h0</title> 
<path fill="none" stroke="black" d="M268.174,-74.6655C292.577,-64.1208 326.004,-49.6772 352.693,-38.1452"/> 
<polygon fill="black" stroke="black" points="354.4,-41.2204 362.191,-34.0409 351.623,-34.7946 354.4,-41.2204"/> 
</g> 
<!-- r0 --> 
<g id="node41" class="node"><title>r0</title> 
<ellipse fill="#e98576" stroke="#e98576" cx="229" cy="-18" rx="75.2018" ry="18"/> 
<a xlink:href="http://pir.georgetown.edu/cgi-bin/pt_graphvizView.pl?togoid=0005634" ><text id="GO:0005634" onmousemove="changeToText('GO:0005634')" onmouseout="changeBackText('GO:0005634')"  text-anchor="middle" x="229" y="-18.8" font-family="Times,serif" font-size="14.00">GO:0005634</text></a>
<a xlink:href="http://pir.georgetown.edu/cgi-bin/pt_graphvizView.pl?tofile=500528" ><text id="r500528" onmousemove="changeToText2('r500528', 1)" onmouseout="changeBackText2('r500528', 1)"  text-anchor="middle" x="229" y="-5.8" font-family="Times,serif" font-size="14.00">(1)</text>
 
</a> 
</g> 
<!-- i0&#45;&gt;r0 --> 
<g id="edge48" class="edge"><title>i0&#45;&gt;r0</title> 
<path fill="none" stroke="black" d="M233.517,-71.6966C232.856,-63.9827 232.061,-54.7125 231.324,-46.1124"/> 
<polygon fill="black" stroke="black" points="234.807,-45.7689 230.466,-36.1043 227.833,-46.3667 234.807,-45.7689"/> 
</g> 
<!-- m0&#45;&gt;h0 --> 
<g id="edge12" class="edge"><title>m0&#45;&gt;h0</title> 
<path fill="none" stroke="black" d="M397,-71.6966C397,-63.9827 397,-54.7125 397,-46.1124"/> 
<polygon fill="black" stroke="black" points="400.5,-46.1043 397,-36.1043 393.5,-46.1044 400.5,-46.1043"/> 
</g> 
<!-- q0&#45;&gt;p0 --> 
<g id="edge16" class="edge"><title>q0&#45;&gt;p0</title> 
<path fill="none" stroke="black" d="M355.303,-359.697C353.187,-351.898 350.638,-342.509 348.282,-333.829"/> 
<polygon fill="black" stroke="black" points="351.64,-332.838 345.643,-324.104 344.884,-334.672 351.64,-332.838"/> 
</g> 
<!-- f0&#45;&gt;d0 --> 
<g id="edge22" class="edge"><title>f0&#45;&gt;d0</title> 
<path fill="none" stroke="black" d="M570.642,-432.765C582.437,-423.488 597.406,-411.714 610.328,-401.551"/> 
<polygon fill="black" stroke="black" points="612.773,-404.081 618.47,-395.147 608.446,-398.578 612.773,-404.081"/> 
</g> 
<!-- d0&#45;&gt;b0 --> 
<g id="edge30" class="edge"><title>d0&#45;&gt;b0</title> 
<path fill="none" stroke="black" d="M681.165,-364.879C701.204,-356.764 723.291,-343.838 735,-324 743.132,-310.221 745.014,-300.478 735,-288 713.928,-261.743 627.401,-247.686 564.506,-240.786"/> 
<polygon fill="black" stroke="black" points="564.549,-237.271 554.237,-239.699 563.813,-244.232 564.549,-237.271"/> 
</g> 
<!-- c0 --> 
<g id="node28" class="node"><title>c0</title> 
<a xlink:href="http://pir.georgetown.edu/cgi-bin/pt_graphvizView.pl?togoid=0005622" > 
<ellipse fill="#dddddd" stroke="#dddddd" cx="496" cy="-306" rx="61.1934" ry="18"/> 
<a xlink:href="http://pir.georgetown.edu/cgi-bin/pt_graphvizView.pl?togoid=0005622" ><text id="GO:0005622" onmousemove="changeToText('GO:0005622')" onmouseout="changeBackText('GO:0005622')"  text-anchor="middle" x="496" y="-301.8" font-family="Times,serif" font-size="14.00">GO:0005622</text></a>
 
</a> 
</g> 
<!-- d0&#45;&gt;c0 --> 
<g id="edge32" class="edge"><title>d0&#45;&gt;c0</title> 
<path fill="none" stroke="black" d="M608.673,-362.155C587.344,-351.714 558.6,-337.644 535.483,-326.328"/> 
<polygon fill="black" stroke="black" points="536.803,-323.077 526.283,-321.824 533.726,-329.364 536.803,-323.077"/> 
</g> 
<!-- g0 --> 
<g id="node43" class="node"><title>g0</title> 
<ellipse fill="#e98576" stroke="#e98576" cx="651" cy="-306" rx="75.2018" ry="18"/> 
<a xlink:href="http://pir.georgetown.edu/cgi-bin/pt_graphvizView.pl?togoid=0016020" ><text id="GO:0016020" onmousemove="changeToText('GO:0016020')" onmouseout="changeBackText('GO:0016020')"  text-anchor="middle" x="651" y="-306.8" font-family="Times,serif" font-size="14.00">GO:0016020</text></a>
<a xlink:href="http://pir.georgetown.edu/cgi-bin/pt_graphvizView.pl?tofile=500518" ><text id="r500518" onmousemove="changeToText2('r500518', 2)" onmouseout="changeBackText2('r500518', 2)"  text-anchor="middle" x="651" y="-293.8" font-family="Times,serif" font-size="14.00">(2)</text>
 
</a> 
</g> 
<!-- d0&#45;&gt;g0 --> 
<g id="edge50" class="edge"><title>d0&#45;&gt;g0</title> 
<path fill="none" stroke="black" d="M641.966,-359.697C643.289,-351.983 644.878,-342.712 646.352,-334.112"/> 
<polygon fill="black" stroke="black" points="649.828,-334.552 648.068,-324.104 642.928,-333.369 649.828,-334.552"/> 
</g> 
<!-- j0&#45;&gt;i0 --> 
<g id="edge34" class="edge"><title>j0&#45;&gt;i0</title> 
<path fill="none" stroke="black" d="M80.212,-216.779C101.538,-198.829 137.038,-169.116 168,-144 180.54,-133.827 194.533,-122.721 206.474,-113.315"/> 
<polygon fill="black" stroke="black" points="208.671,-116.04 214.37,-107.108 204.345,-110.536 208.671,-116.04"/> 
</g> 
<!-- c0&#45;&gt;b0 --> 
<g id="edge28" class="edge"><title>c0&#45;&gt;b0</title> 
<path fill="none" stroke="black" d="M496,-287.697C496,-279.983 496,-270.712 496,-262.112"/> 
<polygon fill="black" stroke="black" points="499.5,-262.104 496,-252.104 492.5,-262.104 499.5,-262.104"/> 
</g> 
<!-- o0&#45;&gt;q0 --> 
<g id="edge46" class="edge"><title>o0&#45;&gt;q0</title> 
<path fill="none" stroke="black" d="M386.527,-432.055C382.503,-424.007 377.602,-414.205 373.113,-405.226"/> 
<polygon fill="black" stroke="black" points="376.24,-403.654 368.638,-396.275 369.979,-406.785 376.24,-403.654"/> 
</g> 
</g> 
<text text-anchor="left" x="4" y="-20" style="font-family:Arial Narrow;font-size:20.00;font-weight:bold;">GO Hierarchical View:</text> 

<text text-anchor="left" x="4" y="0" style="font-family:Arial Narrow;font-size:20.00;font-style:italic;">cellular component</text> 

<script type="text/ecmascript"> 
<![CDATA[ 
var targetText; 
function changeToText(z) { 
		targetText = svgDocument.getElementById(z).firstChild; 
		targetText.nodeValue="link to "+z; 
} 
function changeBackText(z) { 
		targetText = svgDocument.getElementById(z).firstChild; 
		targetText.nodeValue=z; 
} 
function changeToText2(z,n) { 
		targetText = svgDocument.getElementById(z).firstChild; 
		if (n<=1) { 
			targetText.nodeValue="link to " + n + " protein record"; 
		} else { 
			targetText.nodeValue="link to " + n + " protein records"; 
		} 
} 
function changeBackText2(z,n) { 
		targetText = svgDocument.getElementById(z).firstChild; 
		targetText.nodeValue="(" + n + ")"; 
} 
// ]]> 
</script> 
</svg> 
