<?xml version="1.0" encoding="UTF-8" standalone="no"?>
<!DOCTYPE svg PUBLIC "-//W3C//DTD SVG 1.1//EN"
 "http://www.w3.org/Graphics/SVG/1.1/DTD/svg11.dtd">
<!-- Generated by graphviz version 2.28.0 (20110622.2320)
 -->
<!-- Title: G Pages: 1 -->
<svg width="1669pt" height="404pt"
 viewBox="0.00 0.00 1668.66 404.00" xmlns="http://www.w3.org/2000/svg" xmlns:xlink="http://www.w3.org/1999/xlink">
<g id="graph1" class="graph" transform="scale(1 1) rotate(0) translate(4 400)">
<title>G</title>
<polygon fill="white" stroke="white" points="-4,5 -4,-400 1665.66,-400 1665.66,5 -4,5"/>
<!-- l0 -->
<g id="node1" class="node"><title>l0</title>
<a xlink:href="0051179" xlink:title="GO:0051179">
<ellipse fill="#dddddd" stroke="#dddddd" cx="436.662" cy="-306" rx="61.1934" ry="18"/>
<text text-anchor="middle" x="436.662" y="-301.8" font-family="Times,serif" font-size="14.00">GO:0051179</text>
</a>
</g>
<!-- t0 -->
<g id="node3" class="node"><title>t0</title>
<a xlink:href="0033036" xlink:title="GO:0033036">
<ellipse fill="#dddddd" stroke="#dddddd" cx="411.662" cy="-234" rx="61.1934" ry="18"/>
<text text-anchor="middle" x="411.662" y="-229.8" font-family="Times,serif" font-size="14.00">GO:0033036</text>
</a>
</g>
<!-- l0&#45;&gt;t0 -->
<g id="edge2" class="edge"><title>l0&#45;&gt;t0</title>
<path fill="none" stroke="black" d="M430.61,-288.055C427.797,-280.176 424.382,-270.617 421.232,-261.794"/>
<polygon fill="black" stroke="black" points="424.492,-260.516 417.832,-252.275 417.899,-262.87 424.492,-260.516"/>
</g>
<!-- k0 -->
<g id="node7" class="node"><title>k0</title>
<a xlink:href="0051234" xlink:title="GO:0051234">
<ellipse fill="#dddddd" stroke="#dddddd" cx="270.662" cy="-234" rx="61.1934" ry="18"/>
<text text-anchor="middle" x="270.662" y="-229.8" font-family="Times,serif" font-size="14.00">GO:0051234</text>
</a>
</g>
<!-- l0&#45;&gt;k0 -->
<g id="edge8" class="edge"><title>l0&#45;&gt;k0</title>
<path fill="none" stroke="black" d="M403.07,-290.834C377.307,-279.971 341.559,-264.896 313.7,-253.149"/>
<polygon fill="black" stroke="black" points="314.779,-249.805 304.205,-249.144 312.059,-256.255 314.779,-249.805"/>
</g>
<!-- o0 -->
<g id="node23" class="node"><title>o0</title>
<a xlink:href="0051641" xlink:title="GO:0051641 (2)">
<ellipse fill="#e98576" stroke="#e98576" cx="914.662" cy="-162" rx="75.2018" ry="18"/>
<text text-anchor="middle" x="914.662" y="-157.8" font-family="Times,serif" font-size="14.00">GO:0051641 (2)</text>
</a>
</g>
<!-- l0&#45;&gt;o0 -->
<g id="edge24" class="edge"><title>l0&#45;&gt;o0</title>
<path fill="none" stroke="black" d="M451.318,-288.095C472.774,-263.534 511.121,-220.412 519.662,-216 572.557,-188.676 732.833,-174.138 832.219,-167.543"/>
<polygon fill="black" stroke="black" points="832.484,-171.033 842.236,-166.891 832.03,-164.048 832.484,-171.033"/>
</g>
<!-- s0 -->
<g id="node13" class="node"><title>s0</title>
<a xlink:href="0008104" xlink:title="GO:0008104">
<ellipse fill="#dddddd" stroke="#dddddd" cx="437.662" cy="-162" rx="61.1934" ry="18"/>
<text text-anchor="middle" x="437.662" y="-157.8" font-family="Times,serif" font-size="14.00">GO:0008104</text>
</a>
</g>
<!-- t0&#45;&gt;s0 -->
<g id="edge30" class="edge"><title>t0&#45;&gt;s0</title>
<path fill="none" stroke="black" d="M417.956,-216.055C420.883,-208.176 424.433,-198.617 427.71,-189.794"/>
<polygon fill="black" stroke="black" points="431.045,-190.868 431.246,-180.275 424.483,-188.431 431.045,-190.868"/>
</g>
<!-- c0 -->
<g id="node4" class="node"><title>c0</title>
<a xlink:href="0008150" xlink:title="GO:0008150">
<ellipse fill="#dddddd" stroke="#dddddd" cx="854.662" cy="-378" rx="61.1934" ry="18"/>
<text text-anchor="middle" x="854.662" y="-373.8" font-family="Times,serif" font-size="14.00">GO:0008150</text>
</a>
</g>
<!-- c0&#45;&gt;l0 -->
<g id="edge4" class="edge"><title>c0&#45;&gt;l0</title>
<path fill="none" stroke="black" d="M802.567,-368.276C725.36,-355.346 580.829,-331.143 498.407,-317.34"/>
<polygon fill="black" stroke="black" points="498.868,-313.869 488.428,-315.669 497.712,-320.772 498.868,-313.869"/>
</g>
<!-- c0&#45;&gt;k0 -->
<g id="edge6" class="edge"><title>c0&#45;&gt;k0</title>
<path fill="none" stroke="black" d="M794.14,-375.15C680.856,-370.919 441.486,-358.124 366.662,-324 335.081,-309.597 307.014,-280.703 289.508,-259.734"/>
<polygon fill="black" stroke="black" points="292.132,-257.413 283.111,-251.855 286.697,-261.825 292.132,-257.413"/>
</g>
<!-- f0 -->
<g id="node10" class="node"><title>f0</title>
<a xlink:href="0065007" xlink:title="GO:0065007">
<ellipse fill="#dddddd" stroke="#dddddd" cx="609.662" cy="-306" rx="61.1934" ry="18"/>
<text text-anchor="middle" x="609.662" y="-301.8" font-family="Times,serif" font-size="14.00">GO:0065007</text>
</a>
</g>
<!-- c0&#45;&gt;f0 -->
<g id="edge10" class="edge"><title>c0&#45;&gt;f0</title>
<path fill="none" stroke="black" d="M812.266,-364.887C770.503,-352.954 706.619,-334.702 661.779,-321.89"/>
<polygon fill="black" stroke="black" points="662.526,-318.464 651.949,-319.082 660.603,-325.195 662.526,-318.464"/>
</g>
<!-- g0 -->
<g id="node12" class="node"><title>g0</title>
<a xlink:href="0050896" xlink:title="GO:0050896 (4)">
<ellipse fill="#e98576" stroke="#e98576" cx="774.662" cy="-306" rx="75.2018" ry="18"/>
<text text-anchor="middle" x="774.662" y="-301.8" font-family="Times,serif" font-size="14.00">GO:0050896 (4)</text>
</a>
</g>
<!-- c0&#45;&gt;g0 -->
<g id="edge12" class="edge"><title>c0&#45;&gt;g0</title>
<path fill="none" stroke="black" d="M836.108,-360.765C825.757,-351.708 812.686,-340.27 801.263,-330.276"/>
<polygon fill="black" stroke="black" points="803.502,-327.584 793.672,-323.633 798.893,-332.853 803.502,-327.584"/>
</g>
<!-- v0 -->
<g id="node31" class="node"><title>v0</title>
<a xlink:href="0051704" xlink:title="GO:0051704 (2)">
<ellipse fill="#e98576" stroke="#e98576" cx="1090.66" cy="-306" rx="75.2018" ry="18"/>
<text text-anchor="middle" x="1090.66" y="-301.8" font-family="Times,serif" font-size="14.00">GO:0051704 (2)</text>
</a>
</g>
<!-- c0&#45;&gt;v0 -->
<g id="edge32" class="edge"><title>c0&#45;&gt;v0</title>
<path fill="none" stroke="black" d="M896.04,-364.727C934.795,-353.232 992.977,-335.975 1035.63,-323.322"/>
<polygon fill="black" stroke="black" points="1036.71,-326.654 1045.3,-320.455 1034.72,-319.943 1036.71,-326.654"/>
</g>
<!-- x0 -->
<g id="node33" class="node"><title>x0</title>
<a xlink:href="0032501" xlink:title="GO:0032501">
<ellipse fill="#dddddd" stroke="#dddddd" cx="1245.66" cy="-306" rx="61.1934" ry="18"/>
<text text-anchor="middle" x="1245.66" y="-301.8" font-family="Times,serif" font-size="14.00">GO:0032501</text>
</a>
</g>
<!-- c0&#45;&gt;x0 -->
<g id="edge34" class="edge"><title>c0&#45;&gt;x0</title>
<path fill="none" stroke="black" d="M908.38,-369.292C972.128,-359.871 1081.52,-342.839 1174.66,-324 1179.94,-322.932 1185.43,-321.75 1190.9,-320.522"/>
<polygon fill="black" stroke="black" points="1191.73,-323.921 1200.7,-318.274 1190.17,-317.099 1191.73,-323.921"/>
</g>
<!-- b0 -->
<g id="node34" class="node"><title>b0</title>
<a xlink:href="0009987" xlink:title="GO:0009987">
<ellipse fill="#dddddd" stroke="#dddddd" cx="935.662" cy="-306" rx="61.1934" ry="18"/>
<text text-anchor="middle" x="935.662" y="-301.8" font-family="Times,serif" font-size="14.00">GO:0009987</text>
</a>
</g>
<!-- c0&#45;&gt;b0 -->
<g id="edge44" class="edge"><title>c0&#45;&gt;b0</title>
<path fill="none" stroke="black" d="M873.449,-360.765C884.081,-351.576 897.548,-339.938 909.231,-329.842"/>
<polygon fill="black" stroke="black" points="911.7,-332.334 916.978,-323.147 907.123,-327.038 911.7,-332.334"/>
</g>
<!-- d0 -->
<g id="node50" class="node"><title>d0</title>
<a xlink:href="0002376" xlink:title="GO:0002376 (4)">
<ellipse fill="#e98576" stroke="#e98576" cx="1400.66" cy="-306" rx="75.2018" ry="18"/>
<text text-anchor="middle" x="1400.66" y="-301.8" font-family="Times,serif" font-size="14.00">GO:0002376 (4)</text>
</a>
</g>
<!-- c0&#45;&gt;d0 -->
<g id="edge52" class="edge"><title>c0&#45;&gt;d0</title>
<path fill="none" stroke="black" d="M912.366,-371.916C999.865,-363.858 1171.22,-346.708 1315.66,-324 1322.35,-322.948 1329.32,-321.74 1336.26,-320.464"/>
<polygon fill="black" stroke="black" points="1337.19,-323.85 1346.37,-318.556 1335.89,-316.972 1337.19,-323.85"/>
</g>
<!-- r0 -->
<g id="node15" class="node"><title>r0</title>
<a xlink:href="0045184" xlink:title="GO:0045184">
<ellipse fill="#dddddd" stroke="#dddddd" cx="413.662" cy="-90" rx="61.1934" ry="18"/>
<text text-anchor="middle" x="413.662" y="-85.8" font-family="Times,serif" font-size="14.00">GO:0045184</text>
</a>
</g>
<!-- k0&#45;&gt;r0 -->
<g id="edge16" class="edge"><title>k0&#45;&gt;r0</title>
<path fill="none" stroke="black" d="M289.623,-216.676C301.373,-206.387 316.653,-192.693 329.662,-180 351.29,-158.898 374.812,-133.775 391.449,-115.61"/>
<polygon fill="black" stroke="black" points="394.425,-117.541 398.577,-107.794 389.253,-112.824 394.425,-117.541"/>
</g>
<!-- j0 -->
<g id="node17" class="node"><title>j0</title>
<a xlink:href="0006810" xlink:title="GO:0006810">
<ellipse fill="#dddddd" stroke="#dddddd" cx="90.6622" cy="-162" rx="61.1934" ry="18"/>
<text text-anchor="middle" x="90.6622" y="-157.8" font-family="Times,serif" font-size="14.00">GO:0006810</text>
</a>
</g>
<!-- k0&#45;&gt;j0 -->
<g id="edge56" class="edge"><title>k0&#45;&gt;j0</title>
<path fill="none" stroke="black" d="M235.1,-219.17C206.625,-208.097 166.505,-192.494 135.772,-180.543"/>
<polygon fill="black" stroke="black" points="136.739,-177.164 126.151,-176.801 134.202,-183.688 136.739,-177.164"/>
</g>
<!-- m0 -->
<g id="node48" class="node"><title>m0</title>
<a xlink:href="0046903" xlink:title="GO:0046903 (2)">
<ellipse fill="#e98576" stroke="#e98576" cx="245.662" cy="-162" rx="75.2018" ry="18"/>
<text text-anchor="middle" x="245.662" y="-157.8" font-family="Times,serif" font-size="14.00">GO:0046903 (2)</text>
</a>
</g>
<!-- k0&#45;&gt;m0 -->
<g id="edge50" class="edge"><title>k0&#45;&gt;m0</title>
<path fill="none" stroke="black" d="M264.61,-216.055C261.797,-208.176 258.382,-198.617 255.232,-189.794"/>
<polygon fill="black" stroke="black" points="258.492,-188.516 251.832,-180.275 251.899,-190.87 258.492,-188.516"/>
</g>
<!-- e0 -->
<g id="node41" class="node"><title>e0</title>
<a xlink:href="0050789" xlink:title="GO:0050789 (4)">
<ellipse fill="#e98576" stroke="#e98576" cx="603.662" cy="-234" rx="75.2018" ry="18"/>
<text text-anchor="middle" x="603.662" y="-229.8" font-family="Times,serif" font-size="14.00">GO:0050789 (4)</text>
</a>
</g>
<!-- f0&#45;&gt;e0 -->
<g id="edge42" class="edge"><title>f0&#45;&gt;e0</title>
<path fill="none" stroke="black" d="M608.179,-287.697C607.518,-279.983 606.723,-270.712 605.986,-262.112"/>
<polygon fill="black" stroke="black" points="609.47,-261.769 605.128,-252.104 602.495,-262.367 609.47,-261.769"/>
</g>
<!-- u0 -->
<g id="node36" class="node"><title>u0</title>
<a xlink:href="0051606" xlink:title="GO:0051606 (2)">
<ellipse fill="#e98576" stroke="#e98576" cx="771.662" cy="-234" rx="75.2018" ry="18"/>
<text text-anchor="middle" x="771.662" y="-229.8" font-family="Times,serif" font-size="14.00">GO:0051606 (2)</text>
</a>
</g>
<!-- g0&#45;&gt;u0 -->
<g id="edge38" class="edge"><title>g0&#45;&gt;u0</title>
<path fill="none" stroke="black" d="M773.921,-287.697C773.59,-279.983 773.193,-270.712 772.824,-262.112"/>
<polygon fill="black" stroke="black" points="776.32,-261.945 772.395,-252.104 769.327,-262.245 776.32,-261.945"/>
</g>
<!-- s0&#45;&gt;r0 -->
<g id="edge14" class="edge"><title>s0&#45;&gt;r0</title>
<path fill="none" stroke="black" d="M431.853,-144.055C429.151,-136.176 425.874,-126.617 422.849,-117.794"/>
<polygon fill="black" stroke="black" points="426.139,-116.6 419.585,-108.275 419.518,-118.87 426.139,-116.6"/>
</g>
<!-- q0 -->
<g id="node19" class="node"><title>q0</title>
<a xlink:href="0015031" xlink:title="GO:0015031 (2)">
<ellipse fill="#e98576" stroke="#e98576" cx="200.662" cy="-18" rx="75.2018" ry="18"/>
<text text-anchor="middle" x="200.662" y="-13.8" font-family="Times,serif" font-size="14.00">GO:0015031 (2)</text>
</a>
</g>
<!-- r0&#45;&gt;q0 -->
<g id="edge20" class="edge"><title>r0&#45;&gt;q0</title>
<path fill="none" stroke="black" d="M374.098,-75.9976C339.862,-64.7462 290.106,-48.3945 252.658,-36.0877"/>
<polygon fill="black" stroke="black" points="253.526,-32.689 242.933,-32.8918 251.341,-39.3391 253.526,-32.689"/>
</g>
<!-- j0&#45;&gt;q0 -->
<g id="edge18" class="edge"><title>j0&#45;&gt;q0</title>
<path fill="none" stroke="black" d="M53.6261,-147.571C36.0547,-139.11 16.7378,-126.271 6.66225,-108 -1.06416,-93.9892 -3.04688,-84.7174 6.66225,-72 21.6274,-52.3979 79.1517,-38.2906 127.707,-29.5828"/>
<polygon fill="black" stroke="black" points="128.347,-33.0241 137.598,-27.8599 127.146,-26.1279 128.347,-33.0241"/>
</g>
<!-- n0 -->
<g id="node26" class="node"><title>n0</title>
<a xlink:href="0009914" xlink:title="GO:0009914 (2)">
<ellipse fill="#e98576" stroke="#e98576" cx="90.6622" cy="-90" rx="75.2018" ry="18"/>
<text text-anchor="middle" x="90.6622" y="-85.8" font-family="Times,serif" font-size="14.00">GO:0009914 (2)</text>
</a>
</g>
<!-- j0&#45;&gt;n0 -->
<g id="edge26" class="edge"><title>j0&#45;&gt;n0</title>
<path fill="none" stroke="black" d="M90.6622,-143.697C90.6622,-135.983 90.6622,-126.712 90.6622,-118.112"/>
<polygon fill="black" stroke="black" points="94.1623,-118.104 90.6622,-108.104 87.1623,-118.104 94.1623,-118.104"/>
</g>
<!-- i0 -->
<g id="node28" class="node"><title>i0</title>
<a xlink:href="0015833" xlink:title="GO:0015833 (2)">
<ellipse fill="#e98576" stroke="#e98576" cx="258.662" cy="-90" rx="75.2018" ry="18"/>
<text text-anchor="middle" x="258.662" y="-85.8" font-family="Times,serif" font-size="14.00">GO:0015833 (2)</text>
</a>
</g>
<!-- j0&#45;&gt;i0 -->
<g id="edge28" class="edge"><title>j0&#45;&gt;i0</title>
<path fill="none" stroke="black" d="M124.66,-146.834C150.218,-136.185 185.487,-121.49 213.427,-109.848"/>
<polygon fill="black" stroke="black" points="215.091,-112.946 222.976,-105.869 212.399,-106.485 215.091,-112.946"/>
</g>
<!-- p0 -->
<g id="node21" class="node"><title>p0</title>
<a xlink:href="0016043" xlink:title="GO:0016043">
<ellipse fill="#dddddd" stroke="#dddddd" cx="1262.66" cy="-234" rx="61.1934" ry="18"/>
<text text-anchor="middle" x="1262.66" y="-229.8" font-family="Times,serif" font-size="14.00">GO:0016043</text>
</a>
</g>
<!-- p0&#45;&gt;o0 -->
<g id="edge22" class="edge"><title>p0&#45;&gt;o0</title>
<path fill="none" stroke="black" d="M1217.28,-221.806C1208.78,-219.803 1199.96,-217.787 1191.66,-216 1120.92,-200.771 1039.53,-185.46 983.367,-175.238"/>
<polygon fill="black" stroke="black" points="983.647,-171.732 973.183,-173.39 982.397,-178.62 983.647,-171.732"/>
</g>
<!-- w0 -->
<g id="node44" class="node"><title>w0</title>
<a xlink:href="0001816" xlink:title="GO:0001816 (2)">
<ellipse fill="#e98576" stroke="#e98576" cx="1585.66" cy="-234" rx="75.2018" ry="18"/>
<text text-anchor="middle" x="1585.66" y="-229.8" font-family="Times,serif" font-size="14.00">GO:0001816 (2)</text>
</a>
</g>
<!-- x0&#45;&gt;w0 -->
<g id="edge46" class="edge"><title>x0&#45;&gt;w0</title>
<path fill="none" stroke="black" d="M1291.05,-293.827C1299.54,-291.823 1308.36,-289.8 1316.66,-288 1398.52,-270.243 1419.5,-268.308 1501.66,-252 1507.7,-250.802 1513.97,-249.548 1520.25,-248.287"/>
<polygon fill="black" stroke="black" points="1520.98,-251.71 1530.1,-246.306 1519.6,-244.848 1520.98,-251.71"/>
</g>
<!-- b0&#45;&gt;p0 -->
<g id="edge54" class="edge"><title>b0&#45;&gt;p0</title>
<path fill="none" stroke="black" d="M981.048,-293.827C989.545,-291.823 998.363,-289.8 1006.66,-288 1088.52,-270.243 1109.8,-269.757 1191.66,-252 1196.72,-250.903 1201.97,-249.724 1207.22,-248.516"/>
<polygon fill="black" stroke="black" points="1208.33,-251.851 1217.28,-246.173 1206.74,-245.034 1208.33,-251.851"/>
</g>
<!-- b0&#45;&gt;u0 -->
<g id="edge36" class="edge"><title>b0&#45;&gt;u0</title>
<path fill="none" stroke="black" d="M902.474,-290.834C877.608,-280.221 843.326,-265.588 816.095,-253.965"/>
<polygon fill="black" stroke="black" points="817.356,-250.698 806.785,-249.991 814.608,-257.136 817.356,-250.698"/>
</g>
<!-- y0 -->
<g id="node39" class="node"><title>y0</title>
<a xlink:href="0008283" xlink:title="GO:0008283 (1)">
<ellipse fill="#e98576" stroke="#e98576" cx="1417.66" cy="-234" rx="75.2018" ry="18"/>
<text text-anchor="middle" x="1417.66" y="-229.8" font-family="Times,serif" font-size="14.00">GO:0008283 (1)</text>
</a>
</g>
<!-- b0&#45;&gt;y0 -->
<g id="edge40" class="edge"><title>b0&#45;&gt;y0</title>
<path fill="none" stroke="black" d="M980.177,-293.442C988.917,-291.428 998.046,-289.501 1006.66,-288 1150.27,-262.98 1188.61,-274.315 1332.66,-252 1339.36,-250.963 1346.33,-249.765 1353.26,-248.495"/>
<polygon fill="black" stroke="black" points="1354.19,-251.881 1363.37,-246.592 1352.9,-245.002 1354.19,-251.881"/>
</g>
<!-- a0 -->
<g id="node46" class="node"><title>a0</title>
<a xlink:href="0007154" xlink:title="GO:0007154 (4)">
<ellipse fill="#e98576" stroke="#e98576" cx="939.662" cy="-234" rx="75.2018" ry="18"/>
<text text-anchor="middle" x="939.662" y="-229.8" font-family="Times,serif" font-size="14.00">GO:0007154 (4)</text>
</a>
</g>
<!-- b0&#45;&gt;a0 -->
<g id="edge48" class="edge"><title>b0&#45;&gt;a0</title>
<path fill="none" stroke="black" d="M936.651,-287.697C937.092,-279.983 937.622,-270.712 938.113,-262.112"/>
<polygon fill="black" stroke="black" points="941.609,-262.288 938.685,-252.104 934.62,-261.888 941.609,-262.288"/>
</g>
<!-- h0 -->
<g id="node54" class="node"><title>h0</title>
<a xlink:href="0001775" xlink:title="GO:0001775 (3)">
<ellipse fill="#e98576" stroke="#e98576" cx="1107.66" cy="-234" rx="75.2018" ry="18"/>
<text text-anchor="middle" x="1107.66" y="-229.8" font-family="Times,serif" font-size="14.00">GO:0001775 (3)</text>
</a>
</g>
<!-- b0&#45;&gt;h0 -->
<g id="edge58" class="edge"><title>b0&#45;&gt;h0</title>
<path fill="none" stroke="black" d="M970.056,-291.003C996.391,-280.285 1032.97,-265.397 1061.8,-253.666"/>
<polygon fill="black" stroke="black" points="1063.31,-256.83 1071.25,-249.819 1060.67,-250.347 1063.31,-256.83"/>
</g>
</g>
</svg>
