<?xml version="1.0" encoding="UTF-8" standalone="no"?> 
<!DOCTYPE svg PUBLIC "-//W3C//DTD SVG 1.1//EN" 
 "http://www.w3.org/Graphics/SVG/1.1/DTD/svg11.dtd"> 
<!-- Generated by graphviz version 2.28.0 (20110622.2320) 
 --> 
<!-- Title: G Pages: 1 --> 
<svg width="2000" height="1000"  
 viewBox="-30 -50 2000 1000" xmlns="http://www.w3.org/2000/svg" xmlns:xlink="http://www.w3.org/1999/xlink"> 
<g id="graph1" class="graph" transform="scale(1 1) rotate(0) translate(4 256)"> 
<title>G</title> 
<polygon fill="white" stroke="white" points="-4,5 -4,-256 3454,-256 3454,5 -4,5"/> 
<!-- m0 --> 
<g id="node1" class="node"><title>m0</title> 
<ellipse fill="#e98576" stroke="#e98576" cx="2447" cy="-90" rx="75.2018" ry="18"/> 
<a xlink:href="http://pir.georgetown.edu/cgi-bin/pt_graphvizView.pl?togoid=0016491" ><text id="GO:0016491" onmousemove="changeToText('GO:0016491')" onmouseout="changeBackText('GO:0016491')"  text-anchor="middle" x="2447" y="-90.8" font-family="Times,serif" font-size="14.00">GO:0016491</text></a>
<a xlink:href="http://pir.georgetown.edu/cgi-bin/pt_graphvizView.pl?tofile=361771" ><text id="r361771" onmousemove="changeToText2('r361771', 4)" onmouseout="changeBackText2('r361771', 4)"  text-anchor="middle" x="2447" y="-77.8" font-family="Times,serif" font-size="14.00">(4)</text>
 
</a> 
</g> 
<!-- c1 --> 
<g id="node3" class="node"><title>c1</title> 
<ellipse fill="#e98576" stroke="#e98576" cx="2279" cy="-18" rx="75.2018" ry="18"/> 
<a xlink:href="http://pir.georgetown.edu/cgi-bin/pt_graphvizView.pl?togoid=0051213" ><text id="GO:0051213" onmousemove="changeToText('GO:0051213')" onmouseout="changeBackText('GO:0051213')"  text-anchor="middle" x="2279" y="-18.8" font-family="Times,serif" font-size="14.00">GO:0051213</text></a>
<a xlink:href="http://pir.georgetown.edu/cgi-bin/pt_graphvizView.pl?tofile=361807" ><text id="r361807" onmousemove="changeToText2('r361807', 1)" onmouseout="changeBackText2('r361807', 1)"  text-anchor="middle" x="2279" y="-5.8" font-family="Times,serif" font-size="14.00">(1)</text>
 
</a> 
</g> 
<!-- m0&#45;&gt;c1 --> 
<g id="edge2" class="edge"><title>m0&#45;&gt;c1</title> 
<path fill="none" stroke="black" d="M2411.37,-74.1548C2385.95,-63.5644 2351.57,-49.2392 2324.22,-37.8424"/> 
<polygon fill="black" stroke="black" points="2325.44,-34.5597 2314.87,-33.9443 2322.75,-41.0213 2325.44,-34.5597"/> 
</g> 
<!-- x0 --> 
<g id="node37" class="node"><title>x0</title> 
<ellipse fill="#e98576" stroke="#e98576" cx="2447" cy="-18" rx="75.2018" ry="18"/> 
<a xlink:href="http://pir.georgetown.edu/cgi-bin/pt_graphvizView.pl?togoid=0009055" ><text id="GO:0009055" onmousemove="changeToText('GO:0009055')" onmouseout="changeBackText('GO:0009055')"  text-anchor="middle" x="2447" y="-18.8" font-family="Times,serif" font-size="14.00">GO:0009055</text></a>
<a xlink:href="http://pir.georgetown.edu/cgi-bin/pt_graphvizView.pl?tofile=361795" ><text id="r361795" onmousemove="changeToText2('r361795', 1)" onmouseout="changeBackText2('r361795', 1)"  text-anchor="middle" x="2447" y="-5.8" font-family="Times,serif" font-size="14.00">(1)</text>
 
</a> 
</g> 
<!-- m0&#45;&gt;x0 --> 
<g id="edge34" class="edge"><title>m0&#45;&gt;x0</title> 
<path fill="none" stroke="black" d="M2447,-71.6966C2447,-63.9827 2447,-54.7125 2447,-46.1124"/> 
<polygon fill="black" stroke="black" points="2450.5,-46.1043 2447,-36.1043 2443.5,-46.1044 2450.5,-46.1043"/> 
</g> 
<!-- c0 --> 
<g id="node4" class="node"><title>c0</title> 
<ellipse fill="#e98576" stroke="#e98576" cx="2869" cy="-234" rx="75.2018" ry="18"/> 
<a xlink:href="http://pir.georgetown.edu/cgi-bin/pt_graphvizView.pl?togoid=0003674" ><text id="GO:0003674" onmousemove="changeToText('GO:0003674')" onmouseout="changeBackText('GO:0003674')"  text-anchor="middle" x="2869" y="-234.8" font-family="Times,serif" font-size="14.00">GO:0003674</text></a>
<a xlink:href="http://pir.georgetown.edu/cgi-bin/pt_graphvizView.pl?tofile=361779" ><text id="r361779" onmousemove="changeToText2('r361779', 3)" onmouseout="changeBackText2('r361779', 3)"  text-anchor="middle" x="2869" y="-221.8" font-family="Times,serif" font-size="14.00">(3)</text>
 
</a> 
</g> 
<!-- j0 --> 
<g id="node6" class="node"><title>j0</title> 
<ellipse fill="#e98576" stroke="#e98576" cx="1200" cy="-162" rx="75.2018" ry="18"/> 
<a xlink:href="http://pir.georgetown.edu/cgi-bin/pt_graphvizView.pl?togoid=0030234" ><text id="GO:0030234" onmousemove="changeToText('GO:0030234')" onmouseout="changeBackText('GO:0030234')"  text-anchor="middle" x="1200" y="-162.8" font-family="Times,serif" font-size="14.00">GO:0030234</text></a>
<a xlink:href="http://pir.georgetown.edu/cgi-bin/pt_graphvizView.pl?tofile=361765" ><text id="r361765" onmousemove="changeToText2('r361765', 6)" onmouseout="changeBackText2('r361765', 6)"  text-anchor="middle" x="1200" y="-149.8" font-family="Times,serif" font-size="14.00">(6)</text>
 
</a> 
</g> 
<!-- c0&#45;&gt;j0 --> 
<g id="edge4" class="edge"><title>c0&#45;&gt;j0</title> 
<path fill="none" stroke="black" d="M2793.88,-232.121C2521.02,-228.671 1582.75,-214.52 1285,-180 1277.81,-179.166 1270.31,-178.045 1262.89,-176.774"/> 
<polygon fill="black" stroke="black" points="1263.3,-173.292 1252.84,-174.961 1262.06,-180.181 1263.3,-173.292"/> 
</g> 
<!-- b0 --> 
<g id="node7" class="node"><title>b0</title> 
<a xlink:href="http://pir.georgetown.edu/cgi-bin/pt_graphvizView.pl?togoid=0005488" > 
<ellipse fill="#dddddd" stroke="#dddddd" cx="1355" cy="-162" rx="61.1934" ry="18"/> 
<a xlink:href="http://pir.georgetown.edu/cgi-bin/pt_graphvizView.pl?togoid=0005488" ><text id="GO:0005488" onmousemove="changeToText('GO:0005488')" onmouseout="changeBackText('GO:0005488')"  text-anchor="middle" x="1355" y="-157.8" font-family="Times,serif" font-size="14.00">GO:0005488</text></a>
 
</a> 
</g> 
<!-- c0&#45;&gt;b0 --> 
<g id="edge16" class="edge"><title>c0&#45;&gt;b0</title> 
<path fill="none" stroke="black" d="M2795.98,-229.624C2538.9,-217.738 1677.68,-177.919 1425.16,-166.244"/> 
<polygon fill="black" stroke="black" points="1425.16,-162.74 1415.01,-165.775 1424.84,-169.733 1425.16,-162.74"/> 
</g> 
<!-- f0 --> 
<g id="node11" class="node"><title>f0</title> 
<ellipse fill="#e98576" stroke="#e98576" cx="2701" cy="-162" rx="75.2018" ry="18"/> 
<a xlink:href="http://pir.georgetown.edu/cgi-bin/pt_graphvizView.pl?togoid=0003824" ><text id="GO:0003824" onmousemove="changeToText('GO:0003824')" onmouseout="changeBackText('GO:0003824')"  text-anchor="middle" x="2701" y="-162.8" font-family="Times,serif" font-size="14.00">GO:0003824</text></a>
<a xlink:href="http://pir.georgetown.edu/cgi-bin/pt_graphvizView.pl?tofile=361773" ><text id="r361773" onmousemove="changeToText2('r361773', 4)" onmouseout="changeBackText2('r361773', 4)"  text-anchor="middle" x="2701" y="-149.8" font-family="Times,serif" font-size="14.00">(4)</text>
 
</a> 
</g> 
<!-- c0&#45;&gt;f0 --> 
<g id="edge8" class="edge"><title>c0&#45;&gt;f0</title> 
<path fill="none" stroke="black" d="M2833.37,-218.155C2807.95,-207.564 2773.57,-193.239 2746.22,-181.842"/> 
<polygon fill="black" stroke="black" points="2747.44,-178.56 2736.87,-177.944 2744.75,-185.021 2747.44,-178.56"/> 
</g> 
<!-- t0 --> 
<g id="node19" class="node"><title>t0</title> 
<ellipse fill="#e98576" stroke="#e98576" cx="2869" cy="-162" rx="75.2018" ry="18"/> 
<a xlink:href="http://pir.georgetown.edu/cgi-bin/pt_graphvizView.pl?togoid=0060089" ><text id="GO:0060089" onmousemove="changeToText('GO:0060089')" onmouseout="changeBackText('GO:0060089')"  text-anchor="middle" x="2869" y="-162.8" font-family="Times,serif" font-size="14.00">GO:0060089</text></a>
<a xlink:href="http://pir.georgetown.edu/cgi-bin/pt_graphvizView.pl?tofile=361805" ><text id="r361805" onmousemove="changeToText2('r361805', 1)" onmouseout="changeBackText2('r361805', 1)"  text-anchor="middle" x="2869" y="-149.8" font-family="Times,serif" font-size="14.00">(1)</text>
 
</a> 
</g> 
<!-- c0&#45;&gt;t0 --> 
<g id="edge58" class="edge"><title>c0&#45;&gt;t0</title> 
<path fill="none" stroke="black" d="M2869,-215.697C2869,-207.983 2869,-198.712 2869,-190.112"/> 
<polygon fill="black" stroke="black" points="2872.5,-190.104 2869,-180.104 2865.5,-190.104 2872.5,-190.104"/> 
</g> 
<!-- b1 --> 
<g id="node28" class="node"><title>b1</title> 
<ellipse fill="#e98576" stroke="#e98576" cx="3037" cy="-162" rx="75.2018" ry="18"/> 
<a xlink:href="http://pir.georgetown.edu/cgi-bin/pt_graphvizView.pl?togoid=0016209" ><text id="GO:0016209" onmousemove="changeToText('GO:0016209')" onmouseout="changeBackText('GO:0016209')"  text-anchor="middle" x="3037" y="-162.8" font-family="Times,serif" font-size="14.00">GO:0016209</text></a>
<a xlink:href="http://pir.georgetown.edu/cgi-bin/pt_graphvizView.pl?tofile=361803" ><text id="r361803" onmousemove="changeToText2('r361803', 1)" onmouseout="changeBackText2('r361803', 1)"  text-anchor="middle" x="3037" y="-149.8" font-family="Times,serif" font-size="14.00">(1)</text>
 
</a> 
</g> 
<!-- c0&#45;&gt;b1 --> 
<g id="edge24" class="edge"><title>c0&#45;&gt;b1</title> 
<path fill="none" stroke="black" d="M2904.63,-218.155C2930.05,-207.564 2964.43,-193.239 2991.78,-181.842"/> 
<polygon fill="black" stroke="black" points="2993.25,-185.021 3001.13,-177.944 2990.56,-178.56 2993.25,-185.021"/> 
</g> 
<!-- n0 --> 
<g id="node30" class="node"><title>n0</title> 
<ellipse fill="#e98576" stroke="#e98576" cx="3205" cy="-162" rx="75.2018" ry="18"/> 
<a xlink:href="http://pir.georgetown.edu/cgi-bin/pt_graphvizView.pl?togoid=0005215" ><text id="GO:0005215" onmousemove="changeToText('GO:0005215')" onmouseout="changeBackText('GO:0005215')"  text-anchor="middle" x="3205" y="-162.8" font-family="Times,serif" font-size="14.00">GO:0005215</text></a>
<a xlink:href="http://pir.georgetown.edu/cgi-bin/pt_graphvizView.pl?tofile=361775" ><text id="r361775" onmousemove="changeToText2('r361775', 3)" onmouseout="changeBackText2('r361775', 3)"  text-anchor="middle" x="3205" y="-149.8" font-family="Times,serif" font-size="14.00">(3)</text>
 
</a> 
</g> 
<!-- c0&#45;&gt;n0 --> 
<g id="edge26" class="edge"><title>c0&#45;&gt;n0</title> 
<path fill="none" stroke="black" d="M2923.73,-221.597C2983.04,-209.242 3077.6,-189.541 3140.48,-176.441"/> 
<polygon fill="black" stroke="black" points="3141.22,-179.864 3150.29,-174.398 3139.79,-173.011 3141.22,-179.864"/> 
</g> 
<!-- p0 --> 
<g id="node56" class="node"><title>p0</title> 
<ellipse fill="#e98576" stroke="#e98576" cx="3373" cy="-162" rx="75.2018" ry="18"/> 
<a xlink:href="http://pir.georgetown.edu/cgi-bin/pt_graphvizView.pl?togoid=0005198" ><text id="GO:0005198" onmousemove="changeToText('GO:0005198')" onmouseout="changeBackText('GO:0005198')"  text-anchor="middle" x="3373" y="-162.8" font-family="Times,serif" font-size="14.00">GO:0005198</text></a>
<a xlink:href="http://pir.georgetown.edu/cgi-bin/pt_graphvizView.pl?tofile=361781" ><text id="r361781" onmousemove="changeToText2('r361781', 2)" onmouseout="changeBackText2('r361781', 2)"  text-anchor="middle" x="3373" y="-149.8" font-family="Times,serif" font-size="14.00">(2)</text>
 
</a> 
</g> 
<!-- c0&#45;&gt;p0 --> 
<g id="edge54" class="edge"><title>c0&#45;&gt;p0</title> 
<path fill="none" stroke="black" d="M2936.51,-226.041C3019.67,-217.109 3165.16,-200.316 3289,-180 3295.51,-178.932 3302.29,-177.724 3309.04,-176.456"/> 
<polygon fill="black" stroke="black" points="3309.72,-179.889 3318.88,-174.566 3308.4,-173.014 3309.72,-179.889"/> 
</g> 
<!-- u0 --> 
<g id="node9" class="node"><title>u0</title> 
<ellipse fill="#e98576" stroke="#e98576" cx="75" cy="-90" rx="75.2018" ry="18"/> 
<a xlink:href="http://pir.georgetown.edu/cgi-bin/pt_graphvizView.pl?togoid=0019825" ><text id="GO:0019825" onmousemove="changeToText('GO:0019825')" onmouseout="changeBackText('GO:0019825')"  text-anchor="middle" x="75" y="-90.8" font-family="Times,serif" font-size="14.00">GO:0019825</text></a>
<a xlink:href="http://pir.georgetown.edu/cgi-bin/pt_graphvizView.pl?tofile=361789" ><text id="r361789" onmousemove="changeToText2('r361789', 2)" onmouseout="changeBackText2('r361789', 2)"  text-anchor="middle" x="75" y="-77.8" font-family="Times,serif" font-size="14.00">(2)</text>
 
</a> 
</g> 
<!-- b0&#45;&gt;u0 --> 
<g id="edge6" class="edge"><title>b0&#45;&gt;u0</title> 
<path fill="none" stroke="black" d="M1311.71,-149.16C1302.62,-147.091 1293.04,-145.215 1284,-144 788.195,-77.4137 655.903,-165.818 159,-108 151.887,-107.172 144.481,-106.055 137.141,-104.787"/> 
<polygon fill="black" stroke="black" points="137.675,-101.326 127.209,-102.976 136.419,-108.213 137.675,-101.326"/> 
</g> 
<!-- k0 --> 
<g id="node13" class="node"><title>k0</title> 
<ellipse fill="#e98576" stroke="#e98576" cx="243" cy="-90" rx="75.2018" ry="18"/> 
<a xlink:href="http://pir.georgetown.edu/cgi-bin/pt_graphvizView.pl?togoid=0001882" ><text id="GO:0001882" onmousemove="changeToText('GO:0001882')" onmouseout="changeBackText('GO:0001882')"  text-anchor="middle" x="243" y="-90.8" font-family="Times,serif" font-size="14.00">GO:0001882</text></a>
<a xlink:href="http://pir.georgetown.edu/cgi-bin/pt_graphvizView.pl?tofile=361767" ><text id="r361767" onmousemove="changeToText2('r361767', 4)" onmouseout="changeBackText2('r361767', 4)"  text-anchor="middle" x="243" y="-77.8" font-family="Times,serif" font-size="14.00">(4)</text>
 
</a> 
</g> 
<!-- b0&#45;&gt;k0 --> 
<g id="edge10" class="edge"><title>b0&#45;&gt;k0</title> 
<path fill="none" stroke="black" d="M1311.7,-149.2C1302.61,-147.127 1293.04,-145.24 1284,-144 862.314,-86.163 749.642,-158.38 327,-108 320.151,-107.184 313.027,-106.105 305.954,-104.887"/> 
<polygon fill="black" stroke="black" points="306.129,-101.361 295.664,-103.016 304.876,-108.248 306.129,-101.361"/> 
</g> 
<!-- a0 --> 
<g id="node15" class="node"><title>a0</title> 
<ellipse fill="#e98576" stroke="#e98576" cx="416" cy="-90" rx="79.4447" ry="18"/> 
<a xlink:href="http://pir.georgetown.edu/cgi-bin/pt_graphvizView.pl?togoid=0005515" ><text id="GO:0005515" onmousemove="changeToText('GO:0005515')" onmouseout="changeBackText('GO:0005515')"  text-anchor="middle" x="416" y="-90.8" font-family="Times,serif" font-size="14.00">GO:0005515</text></a>
<a xlink:href="http://pir.georgetown.edu/cgi-bin/pt_graphvizView.pl?tofile=361753" ><text id="r361753" onmousemove="changeToText2('r361753', 27)" onmouseout="changeBackText2('r361753', 27)"  text-anchor="middle" x="416" y="-77.8" font-family="Times,serif" font-size="14.00">(27)</text>
 
</a> 
</g> 
<!-- b0&#45;&gt;a0 --> 
<g id="edge12" class="edge"><title>b0&#45;&gt;a0</title> 
<path fill="none" stroke="black" d="M1311.69,-149.26C1302.61,-147.183 1293.04,-145.279 1284,-144 940.828,-95.4309 849.204,-148.617 505,-108 497.421,-107.106 489.518,-105.94 481.686,-104.637"/> 
<polygon fill="black" stroke="black" points="482.285,-101.189 471.833,-102.925 481.086,-108.086 482.285,-101.189"/> 
</g> 
<!-- d1 --> 
<g id="node17" class="node"><title>d1</title> 
<ellipse fill="#e98576" stroke="#e98576" cx="589" cy="-90" rx="75.2018" ry="18"/> 
<a xlink:href="http://pir.georgetown.edu/cgi-bin/pt_graphvizView.pl?togoid=0019842" ><text id="GO:0019842" onmousemove="changeToText('GO:0019842')" onmouseout="changeBackText('GO:0019842')"  text-anchor="middle" x="589" y="-90.8" font-family="Times,serif" font-size="14.00">GO:0019842</text></a>
<a xlink:href="http://pir.georgetown.edu/cgi-bin/pt_graphvizView.pl?tofile=361809" ><text id="r361809" onmousemove="changeToText2('r361809', 1)" onmouseout="changeBackText2('r361809', 1)"  text-anchor="middle" x="589" y="-77.8" font-family="Times,serif" font-size="14.00">(1)</text>
 
</a> 
</g> 
<!-- b0&#45;&gt;d1 --> 
<g id="edge14" class="edge"><title>b0&#45;&gt;d1</title> 
<path fill="none" stroke="black" d="M1311.3,-149.262C1302.33,-147.212 1292.9,-145.318 1284,-144 1014.9,-104.174 942.757,-143.066 673,-108 666.16,-107.111 659.042,-105.986 651.972,-104.741"/> 
<polygon fill="black" stroke="black" points="652.155,-101.215 641.685,-102.842 650.884,-108.099 652.155,-101.215"/> 
</g> 
<!-- e1 --> 
<g id="node26" class="node"><title>e1</title> 
<ellipse fill="#e98576" stroke="#e98576" cx="757" cy="-90" rx="75.2018" ry="18"/> 
<a xlink:href="http://pir.georgetown.edu/cgi-bin/pt_graphvizView.pl?togoid=0060090" ><text id="GO:0060090" onmousemove="changeToText('GO:0060090')" onmouseout="changeBackText('GO:0060090')"  text-anchor="middle" x="757" y="-90.8" font-family="Times,serif" font-size="14.00">GO:0060090</text></a>
<a xlink:href="http://pir.georgetown.edu/cgi-bin/pt_graphvizView.pl?tofile=361811" ><text id="r361811" onmousemove="changeToText2('r361811', 1)" onmouseout="changeBackText2('r361811', 1)"  text-anchor="middle" x="757" y="-77.8" font-family="Times,serif" font-size="14.00">(1)</text>
 
</a> 
</g> 
<!-- b0&#45;&gt;e1 --> 
<g id="edge22" class="edge"><title>b0&#45;&gt;e1</title> 
<path fill="none" stroke="black" d="M1310.9,-149.33C1302.04,-147.3 1292.76,-145.396 1284,-144 1088.92,-112.909 1036.59,-135.64 841,-108 834.269,-107.049 827.265,-105.896 820.3,-104.643"/> 
<polygon fill="black" stroke="black" points="820.632,-101.145 810.16,-102.748 819.347,-108.026 820.632,-101.145"/> 
</g> 
<!-- d0 --> 
<g id="node32" class="node"><title>d0</title> 
<ellipse fill="#e98576" stroke="#e98576" cx="930" cy="-90" rx="79.4447" ry="18"/> 
<a xlink:href="http://pir.georgetown.edu/cgi-bin/pt_graphvizView.pl?togoid=0043167" ><text id="GO:0043167" onmousemove="changeToText('GO:0043167')" onmouseout="changeBackText('GO:0043167')"  text-anchor="middle" x="930" y="-90.8" font-family="Times,serif" font-size="14.00">GO:0043167</text></a>
<a xlink:href="http://pir.georgetown.edu/cgi-bin/pt_graphvizView.pl?tofile=361755" ><text id="r361755" onmousemove="changeToText2('r361755', 20)" onmouseout="changeBackText2('r361755', 20)"  text-anchor="middle" x="930" y="-77.8" font-family="Times,serif" font-size="14.00">(20)</text>
 
</a> 
</g> 
<!-- b0&#45;&gt;d0 --> 
<g id="edge28" class="edge"><title>b0&#45;&gt;d0</title> 
<path fill="none" stroke="black" d="M1310.45,-149.615C1301.72,-147.585 1292.6,-145.609 1284,-144 1167.17,-122.134 1136.31,-127.157 1019,-108 1012.22,-106.893 1005.16,-105.669 998.121,-104.4"/> 
<polygon fill="black" stroke="black" points="998.316,-100.877 987.848,-102.517 997.054,-107.762 998.316,-100.877"/> 
</g> 
<!-- w0 --> 
<g id="node34" class="node"><title>w0</title> 
<ellipse fill="#e98576" stroke="#e98576" cx="1103" cy="-90" rx="75.2018" ry="18"/> 
<a xlink:href="http://pir.georgetown.edu/cgi-bin/pt_graphvizView.pl?togoid=0031406" ><text id="GO:0031406" onmousemove="changeToText('GO:0031406')" onmouseout="changeBackText('GO:0031406')"  text-anchor="middle" x="1103" y="-90.8" font-family="Times,serif" font-size="14.00">GO:0031406</text></a>
<a xlink:href="http://pir.georgetown.edu/cgi-bin/pt_graphvizView.pl?tofile=361793" ><text id="r361793" onmousemove="changeToText2('r361793', 1)" onmouseout="changeBackText2('r361793', 1)"  text-anchor="middle" x="1103" y="-77.8" font-family="Times,serif" font-size="14.00">(1)</text>
 
</a> 
</g> 
<!-- b0&#45;&gt;w0 --> 
<g id="edge30" class="edge"><title>b0&#45;&gt;w0</title> 
<path fill="none" stroke="black" d="M1311.97,-149.046C1270.06,-137.405 1206.1,-119.64 1159.99,-106.83"/> 
<polygon fill="black" stroke="black" points="1160.71,-103.399 1150.14,-104.095 1158.84,-110.143 1160.71,-103.399"/> 
</g> 
<!-- v0 --> 
<g id="node39" class="node"><title>v0</title> 
<ellipse fill="#e98576" stroke="#e98576" cx="1271" cy="-90" rx="75.2018" ry="18"/> 
<a xlink:href="http://pir.georgetown.edu/cgi-bin/pt_graphvizView.pl?togoid=0030246" ><text id="GO:0030246" onmousemove="changeToText('GO:0030246')" onmouseout="changeBackText('GO:0030246')"  text-anchor="middle" x="1271" y="-90.8" font-family="Times,serif" font-size="14.00">GO:0030246</text></a>
<a xlink:href="http://pir.georgetown.edu/cgi-bin/pt_graphvizView.pl?tofile=361791" ><text id="r361791" onmousemove="changeToText2('r361791', 2)" onmouseout="changeBackText2('r361791', 2)"  text-anchor="middle" x="1271" y="-77.8" font-family="Times,serif" font-size="14.00">(2)</text>
 
</a> 
</g> 
<!-- b0&#45;&gt;v0 --> 
<g id="edge36" class="edge"><title>b0&#45;&gt;v0</title> 
<path fill="none" stroke="black" d="M1335.52,-144.765C1324.57,-135.642 1310.73,-124.105 1298.67,-114.059"/> 
<polygon fill="black" stroke="black" points="1300.59,-111.103 1290.67,-107.39 1296.11,-116.48 1300.59,-111.103"/> 
</g> 
<!-- g0 --> 
<g id="node43" class="node"><title>g0</title> 
<ellipse fill="#e98576" stroke="#e98576" cx="1439" cy="-90" rx="75.2018" ry="18"/> 
<a xlink:href="http://pir.georgetown.edu/cgi-bin/pt_graphvizView.pl?togoid=0003676" ><text id="GO:0003676" onmousemove="changeToText('GO:0003676')" onmouseout="changeBackText('GO:0003676')"  text-anchor="middle" x="1439" y="-90.8" font-family="Times,serif" font-size="14.00">GO:0003676</text></a>
<a xlink:href="http://pir.georgetown.edu/cgi-bin/pt_graphvizView.pl?tofile=361759" ><text id="r361759" onmousemove="changeToText2('r361759', 9)" onmouseout="changeBackText2('r361759', 9)"  text-anchor="middle" x="1439" y="-77.8" font-family="Times,serif" font-size="14.00">(9)</text>
 
</a> 
</g> 
<!-- b0&#45;&gt;g0 --> 
<g id="edge40" class="edge"><title>b0&#45;&gt;g0</title> 
<path fill="none" stroke="black" d="M1374.48,-144.765C1385.43,-135.642 1399.27,-124.105 1411.33,-114.059"/> 
<polygon fill="black" stroke="black" points="1413.89,-116.48 1419.33,-107.39 1409.41,-111.103 1413.89,-116.48"/> 
</g> 
<!-- q0 --> 
<g id="node46" class="node"><title>q0</title> 
<ellipse fill="#e98576" stroke="#e98576" cx="1607" cy="-90" rx="75.2018" ry="18"/> 
<a xlink:href="http://pir.georgetown.edu/cgi-bin/pt_graphvizView.pl?togoid=0046906" ><text id="GO:0046906" onmousemove="changeToText('GO:0046906')" onmouseout="changeBackText('GO:0046906')"  text-anchor="middle" x="1607" y="-90.8" font-family="Times,serif" font-size="14.00">GO:0046906</text></a>
<a xlink:href="http://pir.georgetown.edu/cgi-bin/pt_graphvizView.pl?tofile=361783" ><text id="r361783" onmousemove="changeToText2('r361783', 2)" onmouseout="changeBackText2('r361783', 2)"  text-anchor="middle" x="1607" y="-77.8" font-family="Times,serif" font-size="14.00">(2)</text>
 
</a> 
</g> 
<!-- b0&#45;&gt;q0 --> 
<g id="edge44" class="edge"><title>b0&#45;&gt;q0</title> 
<path fill="none" stroke="black" d="M1398.03,-149.046C1439.94,-137.405 1503.9,-119.64 1550.01,-106.83"/> 
<polygon fill="black" stroke="black" points="1551.16,-110.143 1559.86,-104.095 1549.29,-103.399 1551.16,-110.143"/> 
</g> 
<!-- h0 --> 
<g id="node48" class="node"><title>h0</title> 
<ellipse fill="#e98576" stroke="#e98576" cx="1775" cy="-90" rx="75.2018" ry="18"/> 
<a xlink:href="http://pir.georgetown.edu/cgi-bin/pt_graphvizView.pl?togoid=0000166" ><text id="GO:0000166" onmousemove="changeToText('GO:0000166')" onmouseout="changeBackText('GO:0000166')"  text-anchor="middle" x="1775" y="-90.8" font-family="Times,serif" font-size="14.00">GO:0000166</text></a>
<a xlink:href="http://pir.georgetown.edu/cgi-bin/pt_graphvizView.pl?tofile=361761" ><text id="r361761" onmousemove="changeToText2('r361761', 8)" onmouseout="changeBackText2('r361761', 8)"  text-anchor="middle" x="1775" y="-77.8" font-family="Times,serif" font-size="14.00">(8)</text>
 
</a> 
</g> 
<!-- b0&#45;&gt;h0 --> 
<g id="edge46" class="edge"><title>b0&#45;&gt;h0</title> 
<path fill="none" stroke="black" d="M1408.66,-153.267C1475.08,-143.526 1591.61,-125.887 1691,-108 1697.25,-106.876 1703.74,-105.654 1710.23,-104.399"/> 
<polygon fill="black" stroke="black" points="1711.25,-107.766 1720.39,-102.408 1709.9,-100.897 1711.25,-107.766"/> 
</g> 
<!-- a1 --> 
<g id="node50" class="node"><title>a1</title> 
<ellipse fill="#e98576" stroke="#e98576" cx="1943" cy="-90" rx="75.2018" ry="18"/> 
<a xlink:href="http://pir.georgetown.edu/cgi-bin/pt_graphvizView.pl?togoid=0001871" ><text id="GO:0001871" onmousemove="changeToText('GO:0001871')" onmouseout="changeBackText('GO:0001871')"  text-anchor="middle" x="1943" y="-90.8" font-family="Times,serif" font-size="14.00">GO:0001871</text></a>
<a xlink:href="http://pir.georgetown.edu/cgi-bin/pt_graphvizView.pl?tofile=361801" ><text id="r361801" onmousemove="changeToText2('r361801', 1)" onmouseout="changeBackText2('r361801', 1)"  text-anchor="middle" x="1943" y="-77.8" font-family="Times,serif" font-size="14.00">(1)</text>
 
</a> 
</g> 
<!-- b0&#45;&gt;a1 --> 
<g id="edge48" class="edge"><title>b0&#45;&gt;a1</title> 
<path fill="none" stroke="black" d="M1413.82,-156.637C1508.11,-149.234 1698.77,-132.582 1859,-108 1865.62,-106.984 1872.51,-105.8 1879.37,-104.538"/> 
<polygon fill="black" stroke="black" points="1880.19,-107.945 1889.36,-102.644 1878.89,-101.068 1880.19,-107.945"/> 
</g> 
<!-- r0 --> 
<g id="node58" class="node"><title>r0</title> 
<ellipse fill="#e98576" stroke="#e98576" cx="2111" cy="-90" rx="75.2018" ry="18"/> 
<a xlink:href="http://pir.georgetown.edu/cgi-bin/pt_graphvizView.pl?togoid=0003682" ><text id="GO:0003682" onmousemove="changeToText('GO:0003682')" onmouseout="changeBackText('GO:0003682')"  text-anchor="middle" x="2111" y="-90.8" font-family="Times,serif" font-size="14.00">GO:0003682</text></a>
<a xlink:href="http://pir.georgetown.edu/cgi-bin/pt_graphvizView.pl?tofile=361785" ><text id="r361785" onmousemove="changeToText2('r361785', 2)" onmouseout="changeBackText2('r361785', 2)"  text-anchor="middle" x="2111" y="-77.8" font-family="Times,serif" font-size="14.00">(2)</text>
 
</a> 
</g> 
<!-- b0&#45;&gt;r0 --> 
<g id="edge56" class="edge"><title>b0&#45;&gt;r0</title> 
<path fill="none" stroke="black" d="M1415.5,-158.684C1533.57,-153.622 1802.74,-139.419 2027,-108 2033.73,-107.057 2040.74,-105.909 2047.7,-104.659"/> 
<polygon fill="black" stroke="black" points="2048.65,-108.042 2057.84,-102.768 2047.37,-101.161 2048.65,-108.042"/> 
</g> 
<!-- o0 --> 
<g id="node61" class="node"><title>o0</title> 
<ellipse fill="#e98576" stroke="#e98576" cx="2279" cy="-90" rx="75.2018" ry="18"/> 
<a xlink:href="http://pir.georgetown.edu/cgi-bin/pt_graphvizView.pl?togoid=0048037" ><text id="GO:0048037" onmousemove="changeToText('GO:0048037')" onmouseout="changeBackText('GO:0048037')"  text-anchor="middle" x="2279" y="-90.8" font-family="Times,serif" font-size="14.00">GO:0048037</text></a>
<a xlink:href="http://pir.georgetown.edu/cgi-bin/pt_graphvizView.pl?tofile=361777" ><text id="r361777" onmousemove="changeToText2('r361777', 3)" onmouseout="changeBackText2('r361777', 3)"  text-anchor="middle" x="2279" y="-77.8" font-family="Times,serif" font-size="14.00">(3)</text>
 
</a> 
</g> 
<!-- b0&#45;&gt;o0 --> 
<g id="edge60" class="edge"><title>b0&#45;&gt;o0</title> 
<path fill="none" stroke="black" d="M1415.89,-160.007C1554.67,-157.121 1904.91,-146.324 2195,-108 2201.74,-107.11 2208.75,-105.996 2215.72,-104.766"/> 
<polygon fill="black" stroke="black" points="2216.66,-108.151 2225.86,-102.895 2215.39,-101.267 2216.66,-108.151"/> 
</g> 
<!-- f0&#45;&gt;m0 --> 
<g id="edge42" class="edge"><title>f0&#45;&gt;m0</title> 
<path fill="none" stroke="black" d="M2653.82,-147.998C2611.45,-136.321 2549.15,-119.151 2504,-106.71"/> 
<polygon fill="black" stroke="black" points="2504.93,-103.334 2494.36,-104.051 2503.07,-110.083 2504.93,-103.334"/> 
</g> 
<!-- i0 --> 
<g id="node22" class="node"><title>i0</title> 
<ellipse fill="#e98576" stroke="#e98576" cx="2615" cy="-90" rx="75.2018" ry="18"/> 
<a xlink:href="http://pir.georgetown.edu/cgi-bin/pt_graphvizView.pl?togoid=0016787" ><text id="GO:0016787" onmousemove="changeToText('GO:0016787')" onmouseout="changeBackText('GO:0016787')"  text-anchor="middle" x="2615" y="-90.8" font-family="Times,serif" font-size="14.00">GO:0016787</text></a>
<a xlink:href="http://pir.georgetown.edu/cgi-bin/pt_graphvizView.pl?tofile=361763" ><text id="r361763" onmousemove="changeToText2('r361763', 7)" onmouseout="changeBackText2('r361763', 7)"  text-anchor="middle" x="2615" y="-77.8" font-family="Times,serif" font-size="14.00">(7)</text>
 
</a> 
</g> 
<!-- f0&#45;&gt;i0 --> 
<g id="edge32" class="edge"><title>f0&#45;&gt;i0</title> 
<path fill="none" stroke="black" d="M2680.62,-144.411C2669.48,-135.345 2655.51,-123.974 2643.33,-114.057"/> 
<polygon fill="black" stroke="black" points="2645.2,-111.068 2635.23,-107.47 2640.78,-116.497 2645.2,-111.068"/> 
</g> 
<!-- e0 --> 
<g id="node41" class="node"><title>e0</title> 
<ellipse fill="#e98576" stroke="#e98576" cx="2788" cy="-90" rx="79.4447" ry="18"/> 
<a xlink:href="http://pir.georgetown.edu/cgi-bin/pt_graphvizView.pl?togoid=0016740" ><text id="GO:0016740" onmousemove="changeToText('GO:0016740')" onmouseout="changeBackText('GO:0016740')"  text-anchor="middle" x="2788" y="-90.8" font-family="Times,serif" font-size="14.00">GO:0016740</text></a>
<a xlink:href="http://pir.georgetown.edu/cgi-bin/pt_graphvizView.pl?tofile=361757" ><text id="r361757" onmousemove="changeToText2('r361757', 12)" onmouseout="changeBackText2('r361757', 12)"  text-anchor="middle" x="2788" y="-77.8" font-family="Times,serif" font-size="14.00">(12)</text>
 
</a> 
</g> 
<!-- f0&#45;&gt;e0 --> 
<g id="edge38" class="edge"><title>f0&#45;&gt;e0</title> 
<path fill="none" stroke="black" d="M2721.62,-144.411C2732.99,-135.257 2747.29,-123.755 2759.7,-113.772"/> 
<polygon fill="black" stroke="black" points="2761.93,-116.466 2767.53,-107.47 2757.54,-111.012 2761.93,-116.466"/> 
</g> 
<!-- z0 --> 
<g id="node52" class="node"><title>z0</title> 
<ellipse fill="#e98576" stroke="#e98576" cx="2961" cy="-90" rx="75.2018" ry="18"/> 
<a xlink:href="http://pir.georgetown.edu/cgi-bin/pt_graphvizView.pl?togoid=0004386" ><text id="GO:0004386" onmousemove="changeToText('GO:0004386')" onmouseout="changeBackText('GO:0004386')"  text-anchor="middle" x="2961" y="-90.8" font-family="Times,serif" font-size="14.00">GO:0004386</text></a>
<a xlink:href="http://pir.georgetown.edu/cgi-bin/pt_graphvizView.pl?tofile=361799" ><text id="r361799" onmousemove="changeToText2('r361799', 1)" onmouseout="changeBackText2('r361799', 1)"  text-anchor="middle" x="2961" y="-77.8" font-family="Times,serif" font-size="14.00">(1)</text>
 
</a> 
</g> 
<!-- f0&#45;&gt;z0 --> 
<g id="edge50" class="edge"><title>f0&#45;&gt;z0</title> 
<path fill="none" stroke="black" d="M2748.99,-148.079C2792.46,-136.376 2856.61,-119.105 2902.95,-106.629"/> 
<polygon fill="black" stroke="black" points="2904.1,-109.943 2912.85,-103.964 2902.28,-103.184 2904.1,-109.943"/> 
</g> 
<!-- y0 --> 
<g id="node54" class="node"><title>y0</title> 
<ellipse fill="#e98576" stroke="#e98576" cx="3129" cy="-90" rx="75.2018" ry="18"/> 
<a xlink:href="http://pir.georgetown.edu/cgi-bin/pt_graphvizView.pl?togoid=0016829" ><text id="GO:0016829" onmousemove="changeToText('GO:0016829')" onmouseout="changeBackText('GO:0016829')"  text-anchor="middle" x="3129" y="-90.8" font-family="Times,serif" font-size="14.00">GO:0016829</text></a>
<a xlink:href="http://pir.georgetown.edu/cgi-bin/pt_graphvizView.pl?tofile=361797" ><text id="r361797" onmousemove="changeToText2('r361797', 1)" onmouseout="changeBackText2('r361797', 1)"  text-anchor="middle" x="3129" y="-77.8" font-family="Times,serif" font-size="14.00">(1)</text>
 
</a> 
</g> 
<!-- f0&#45;&gt;y0 --> 
<g id="edge52" class="edge"><title>f0&#45;&gt;y0</title> 
<path fill="none" stroke="black" d="M2755.58,-149.442C2765.36,-147.518 2775.47,-145.623 2785,-144 2900,-124.42 2930,-127.58 3045,-108 3051.26,-106.935 3057.76,-105.753 3064.26,-104.522"/> 
<polygon fill="black" stroke="black" points="3065.26,-107.892 3074.42,-102.558 3063.94,-101.019 3065.26,-107.892"/> 
</g> 
<!-- s0 --> 
<g id="node21" class="node"><title>s0</title> 
<ellipse fill="#e98576" stroke="#e98576" cx="3297" cy="-90" rx="75.2018" ry="18"/> 
<a xlink:href="http://pir.georgetown.edu/cgi-bin/pt_graphvizView.pl?togoid=0004871" ><text id="GO:0004871" onmousemove="changeToText('GO:0004871')" onmouseout="changeBackText('GO:0004871')"  text-anchor="middle" x="3297" y="-90.8" font-family="Times,serif" font-size="14.00">GO:0004871</text></a>
<a xlink:href="http://pir.georgetown.edu/cgi-bin/pt_graphvizView.pl?tofile=361787" ><text id="r361787" onmousemove="changeToText2('r361787', 2)" onmouseout="changeBackText2('r361787', 2)"  text-anchor="middle" x="3297" y="-77.8" font-family="Times,serif" font-size="14.00">(2)</text>
 
</a> 
</g> 
<!-- t0&#45;&gt;s0 --> 
<g id="edge18" class="edge"><title>t0&#45;&gt;s0</title> 
<path fill="none" stroke="black" d="M2923.58,-149.442C2933.36,-147.518 2943.47,-145.623 2953,-144 3068,-124.42 3098,-127.58 3213,-108 3219.26,-106.935 3225.76,-105.753 3232.26,-104.522"/> 
<polygon fill="black" stroke="black" points="3233.26,-107.892 3242.42,-102.558 3231.94,-101.019 3233.26,-107.892"/> 
</g> 
<!-- l0 --> 
<g id="node24" class="node"><title>l0</title> 
<ellipse fill="#e98576" stroke="#e98576" cx="2615" cy="-18" rx="75.2018" ry="18"/> 
<a xlink:href="http://pir.georgetown.edu/cgi-bin/pt_graphvizView.pl?togoid=0008233" ><text id="GO:0008233" onmousemove="changeToText('GO:0008233')" onmouseout="changeBackText('GO:0008233')"  text-anchor="middle" x="2615" y="-18.8" font-family="Times,serif" font-size="14.00">GO:0008233</text></a>
<a xlink:href="http://pir.georgetown.edu/cgi-bin/pt_graphvizView.pl?tofile=361769" ><text id="r361769" onmousemove="changeToText2('r361769', 4)" onmouseout="changeBackText2('r361769', 4)"  text-anchor="middle" x="2615" y="-5.8" font-family="Times,serif" font-size="14.00">(4)</text>
 
</a> 
</g> 
<!-- i0&#45;&gt;l0 --> 
<g id="edge20" class="edge"><title>i0&#45;&gt;l0</title> 
<path fill="none" stroke="black" d="M2615,-71.6966C2615,-63.9827 2615,-54.7125 2615,-46.1124"/> 
<polygon fill="black" stroke="black" points="2618.5,-46.1043 2615,-36.1043 2611.5,-46.1044 2618.5,-46.1043"/> 
</g> 
</g> 
<text text-anchor="left" x="4" y="-20" style="font-family:Arial Narrow;font-size:20.00;font-weight:bold;">GO Hierarchical View:</text> 

<text text-anchor="left" x="4" y="0" style="font-family:Arial Narrow;font-size:20.00;font-style:italic;">molecular function</text> 

<script type="text/ecmascript"> 
<![CDATA[ 
var targetText; 
function changeToText(z) { 
		targetText = svgDocument.getElementById(z).firstChild; 
		targetText.nodeValue="link to "+z; 
} 
function changeBackText(z) { 
		targetText = svgDocument.getElementById(z).firstChild; 
		targetText.nodeValue=z; 
} 
function changeToText2(z,n) { 
		targetText = svgDocument.getElementById(z).firstChild; 
		if (n<=1) { 
			targetText.nodeValue="link to " + n + " protein record"; 
		} else { 
			targetText.nodeValue="link to " + n + " protein records"; 
		} 
} 
function changeBackText2(z,n) { 
		targetText = svgDocument.getElementById(z).firstChild; 
		targetText.nodeValue="(" + n + ")"; 
} 
// ]]> 
</script> 
</svg> 
