<?xml version="1.0" encoding="UTF-8" standalone="no"?> 
<!DOCTYPE svg PUBLIC "-//W3C//DTD SVG 1.1//EN" 
 "http://www.w3.org/Graphics/SVG/1.1/DTD/svg11.dtd"> 
<!-- Generated by graphviz version 2.28.0 (20110622.2320) 
 --> 
<!-- Title: G Pages: 1 --> 
<svg width="2000" height="1000"  
 viewBox="-30 -50 2000 1000" xmlns="http://www.w3.org/2000/svg" xmlns:xlink="http://www.w3.org/1999/xlink"> 
<g id="graph1" class="graph" transform="scale(1 1) rotate(0) translate(4 688)"> 
<title>G</title> 
<polygon fill="white" stroke="white" points="-4,5 -4,-688 1690,-688 1690,5 -4,5"/> 
<!-- g0 --> 
<g id="node1" class="node"><title>g0</title> 
<ellipse fill="#e98576" stroke="#e98576" cx="268" cy="-450" rx="84.1886" ry="18"/> 
<a xlink:href="http://pir.georgetown.edu/cgi-bin/pt_graphvizView.pl?togoid=0016020" ><text id="GO:0016020" onmousemove="changeToText('GO:0016020')" onmouseout="changeBackText('GO:0016020')"  text-anchor="middle" x="268" y="-450.8" font-family="Times,serif" font-size="14.00">GO:0016020</text></a>
<a xlink:href="http://pir.georgetown.edu/cgi-bin/pt_graphvizView.pl?tofile=336242" ><text id="r336242" onmousemove="changeToText2('r336242', 143)" onmouseout="changeBackText2('r336242', 143)"  text-anchor="middle" x="268" y="-437.8" font-family="Times,serif" font-size="14.00">(143)</text>
 
</a> 
</g> 
<!-- c1 --> 
<g id="node3" class="node"><title>c1</title> 
<a xlink:href="http://pir.georgetown.edu/cgi-bin/pt_graphvizView.pl?togoid=0044425" > 
<ellipse fill="#dddddd" stroke="#dddddd" cx="372" cy="-378" rx="61.1934" ry="18"/> 
<a xlink:href="http://pir.georgetown.edu/cgi-bin/pt_graphvizView.pl?togoid=0044425" ><text id="GO:0044425" onmousemove="changeToText('GO:0044425')" onmouseout="changeBackText('GO:0044425')"  text-anchor="middle" x="372" y="-373.8" font-family="Times,serif" font-size="14.00">GO:0044425</text></a>
 
</a> 
</g> 
<!-- g0&#45;&gt;c1 --> 
<g id="edge2" class="edge"><title>g0&#45;&gt;c1</title> 
<path fill="none" stroke="black" d="M292.383,-432.588C306.536,-423.062 324.534,-410.948 339.836,-400.649"/> 
<polygon fill="black" stroke="black" points="342.143,-403.315 348.485,-394.827 338.235,-397.508 342.143,-403.315"/> 
</g> 
<!-- i1 --> 
<g id="node44" class="node"><title>i1</title> 
<ellipse fill="#e98576" stroke="#e98576" cx="357" cy="-306" rx="75.2018" ry="18"/> 
<a xlink:href="http://pir.georgetown.edu/cgi-bin/pt_graphvizView.pl?togoid=0016469" ><text id="GO:0016469" onmousemove="changeToText('GO:0016469')" onmouseout="changeBackText('GO:0016469')"  text-anchor="middle" x="357" y="-306.8" font-family="Times,serif" font-size="14.00">GO:0016469</text></a>
<a xlink:href="http://pir.georgetown.edu/cgi-bin/pt_graphvizView.pl?tofile=336270" ><text id="r336270" onmousemove="changeToText2('r336270', 3)" onmouseout="changeBackText2('r336270', 3)"  text-anchor="middle" x="357" y="-293.8" font-family="Times,serif" font-size="14.00">(3)</text>
 
</a> 
</g> 
<!-- c1&#45;&gt;i1 --> 
<g id="edge46" class="edge"><title>c1&#45;&gt;i1</title> 
<path fill="none" stroke="black" d="M368.292,-359.697C366.639,-351.983 364.653,-342.712 362.81,-334.112"/> 
<polygon fill="black" stroke="black" points="366.183,-333.149 360.665,-324.104 359.338,-334.616 366.183,-333.149"/> 
</g> 
<!-- b1 --> 
<g id="node51" class="node"><title>b1</title> 
<ellipse fill="#e98576" stroke="#e98576" cx="184" cy="-306" rx="79.4447" ry="18"/> 
<a xlink:href="http://pir.georgetown.edu/cgi-bin/pt_graphvizView.pl?togoid=0043190" ><text id="GO:0043190" onmousemove="changeToText('GO:0043190')" onmouseout="changeBackText('GO:0043190')"  text-anchor="middle" x="184" y="-306.8" font-family="Times,serif" font-size="14.00">GO:0043190</text></a>
<a xlink:href="http://pir.georgetown.edu/cgi-bin/pt_graphvizView.pl?tofile=336258" ><text id="r336258" onmousemove="changeToText2('r336258', 11)" onmouseout="changeBackText2('r336258', 11)"  text-anchor="middle" x="184" y="-293.8" font-family="Times,serif" font-size="14.00">(11)</text>
 
</a> 
</g> 
<!-- c1&#45;&gt;b1 --> 
<g id="edge56" class="edge"><title>c1&#45;&gt;b1</title> 
<path fill="none" stroke="black" d="M335.305,-363.337C306.156,-352.484 265.119,-337.204 233.135,-325.295"/> 
<polygon fill="black" stroke="black" points="234.116,-321.925 223.523,-321.716 231.673,-328.485 234.116,-321.925"/> 
</g> 
<!-- d0 --> 
<g id="node4" class="node"><title>d0</title> 
<ellipse fill="#e98576" stroke="#e98576" cx="971" cy="-522" rx="75.2018" ry="18"/> 
<a xlink:href="http://pir.georgetown.edu/cgi-bin/pt_graphvizView.pl?togoid=0044464" ><text id="GO:0044464" onmousemove="changeToText('GO:0044464')" onmouseout="changeBackText('GO:0044464')"  text-anchor="middle" x="971" y="-522.8" font-family="Times,serif" font-size="14.00">GO:0044464</text></a>
<a xlink:href="http://pir.georgetown.edu/cgi-bin/pt_graphvizView.pl?tofile=336278" ><text id="r336278" onmousemove="changeToText2('r336278', 2)" onmouseout="changeBackText2('r336278', 2)"  text-anchor="middle" x="971" y="-509.8" font-family="Times,serif" font-size="14.00">(2)</text>
 
</a> 
</g> 
<!-- d0&#45;&gt;g0 --> 
<g id="edge42" class="edge"><title>d0&#45;&gt;g0</title> 
<path fill="none" stroke="black" d="M898.578,-516.863C784.236,-509.844 555.03,-493.799 362,-468 354.256,-466.965 346.179,-465.735 338.154,-464.418"/> 
<polygon fill="black" stroke="black" points="338.489,-460.925 328.045,-462.709 337.322,-467.827 338.489,-460.925"/> 
</g> 
<!-- d0&#45;&gt;c1 --> 
<g id="edge4" class="edge"><title>d0&#45;&gt;c1</title> 
<path fill="none" stroke="black" d="M902.722,-514.363C856.313,-507.648 794.738,-494.301 746,-468 725.526,-456.952 728.873,-442.274 708,-432 662.05,-409.382 524.123,-393.083 439.948,-384.923"/> 
<polygon fill="black" stroke="black" points="440.247,-381.436 429.959,-383.969 439.581,-388.404 440.247,-381.436"/> 
</g> 
<!-- b0 --> 
<g id="node21" class="node"><title>b0</title> 
<a xlink:href="http://pir.georgetown.edu/cgi-bin/pt_graphvizView.pl?togoid=0044424" > 
<ellipse fill="#dddddd" stroke="#dddddd" cx="1022" cy="-378" rx="61.1934" ry="18"/> 
<a xlink:href="http://pir.georgetown.edu/cgi-bin/pt_graphvizView.pl?togoid=0044424" ><text id="GO:0044424" onmousemove="changeToText('GO:0044424')" onmouseout="changeBackText('GO:0044424')"  text-anchor="middle" x="1022" y="-373.8" font-family="Times,serif" font-size="14.00">GO:0044424</text></a>
 
</a> 
</g> 
<!-- d0&#45;&gt;b0 --> 
<g id="edge30" class="edge"><title>d0&#45;&gt;b0</title> 
<path fill="none" stroke="black" d="M1010.22,-506.5C1027.19,-498.04 1045.34,-485.516 1055,-468 1066.28,-447.538 1054.94,-422.438 1042.58,-404.117"/> 
<polygon fill="black" stroke="black" points="1045.21,-401.781 1036.52,-395.717 1039.53,-405.875 1045.21,-401.781"/> 
</g> 
<!-- c0 --> 
<g id="node32" class="node"><title>c0</title> 
<a xlink:href="http://pir.georgetown.edu/cgi-bin/pt_graphvizView.pl?togoid=0005622" > 
<ellipse fill="#dddddd" stroke="#dddddd" cx="1163" cy="-450" rx="61.1934" ry="18"/> 
<a xlink:href="http://pir.georgetown.edu/cgi-bin/pt_graphvizView.pl?togoid=0005622" ><text id="GO:0005622" onmousemove="changeToText('GO:0005622')" onmouseout="changeBackText('GO:0005622')"  text-anchor="middle" x="1163" y="-445.8" font-family="Times,serif" font-size="14.00">GO:0005622</text></a>
 
</a> 
</g> 
<!-- d0&#45;&gt;c0 --> 
<g id="edge100" class="edge"><title>d0&#45;&gt;c0</title> 
<path fill="none" stroke="black" d="M1010.32,-506.666C1041.04,-495.465 1083.83,-479.864 1116.3,-468.028"/> 
<polygon fill="black" stroke="black" points="1117.82,-471.198 1126.02,-464.484 1115.42,-464.621 1117.82,-471.198"/> 
</g> 
<!-- k0 --> 
<g id="node54" class="node"><title>k0</title> 
<ellipse fill="#e98576" stroke="#e98576" cx="451" cy="-450" rx="79.4447" ry="18"/> 
<a xlink:href="http://pir.georgetown.edu/cgi-bin/pt_graphvizView.pl?togoid=0042597" ><text id="GO:0042597" onmousemove="changeToText('GO:0042597')" onmouseout="changeBackText('GO:0042597')"  text-anchor="middle" x="451" y="-450.8" font-family="Times,serif" font-size="14.00">GO:0042597</text></a>
<a xlink:href="http://pir.georgetown.edu/cgi-bin/pt_graphvizView.pl?tofile=336246" ><text id="r336246" onmousemove="changeToText2('r336246', 98)" onmouseout="changeBackText2('r336246', 98)"  text-anchor="middle" x="451" y="-437.8" font-family="Times,serif" font-size="14.00">(98)</text>
 
</a> 
</g> 
<!-- d0&#45;&gt;k0 --> 
<g id="edge58" class="edge"><title>d0&#45;&gt;k0</title> 
<path fill="none" stroke="black" d="M903.247,-514.075C818.192,-505.059 667.919,-488.059 540,-468 532.948,-466.894 525.6,-465.646 518.283,-464.341"/> 
<polygon fill="black" stroke="black" points="518.819,-460.882 508.354,-462.535 517.565,-467.769 518.819,-460.882"/> 
</g> 
<!-- g1 --> 
<g id="node60" class="node"><title>g1</title> 
<ellipse fill="#e98576" stroke="#e98576" cx="624" cy="-450" rx="75.2018" ry="18"/> 
<a xlink:href="http://pir.georgetown.edu/cgi-bin/pt_graphvizView.pl?togoid=0009986" ><text id="GO:0009986" onmousemove="changeToText('GO:0009986')" onmouseout="changeBackText('GO:0009986')"  text-anchor="middle" x="624" y="-450.8" font-family="Times,serif" font-size="14.00">GO:0009986</text></a>
<a xlink:href="http://pir.georgetown.edu/cgi-bin/pt_graphvizView.pl?tofile=336266" ><text id="r336266" onmousemove="changeToText2('r336266', 5)" onmouseout="changeBackText2('r336266', 5)"  text-anchor="middle" x="624" y="-437.8" font-family="Times,serif" font-size="14.00">(5)</text>
 
</a> 
</g> 
<!-- d0&#45;&gt;g1 --> 
<g id="edge64" class="edge"><title>d0&#45;&gt;g1</title> 
<path fill="none" stroke="black" d="M915.633,-509.831C854.153,-497.428 754.983,-477.423 689.642,-464.242"/> 
<polygon fill="black" stroke="black" points="689.951,-460.734 679.457,-462.187 688.567,-467.596 689.951,-460.734"/> 
</g> 
<!-- a1 --> 
<g id="node61" class="node"><title>a1</title> 
<a xlink:href="http://pir.georgetown.edu/cgi-bin/pt_graphvizView.pl?togoid=0042995" > 
<ellipse fill="#dddddd" stroke="#dddddd" cx="816" cy="-450" rx="61.1934" ry="18"/> 
<a xlink:href="http://pir.georgetown.edu/cgi-bin/pt_graphvizView.pl?togoid=0042995" ><text id="GO:0042995" onmousemove="changeToText('GO:0042995')" onmouseout="changeBackText('GO:0042995')"  text-anchor="middle" x="816" y="-445.8" font-family="Times,serif" font-size="14.00">GO:0042995</text></a>
 
</a> 
</g> 
<!-- d0&#45;&gt;a1 --> 
<g id="edge68" class="edge"><title>d0&#45;&gt;a1</title> 
<path fill="none" stroke="black" d="M937.367,-505.811C913.84,-495.186 882.271,-480.929 857.227,-469.618"/> 
<polygon fill="black" stroke="black" points="858.532,-466.368 847.978,-465.442 855.651,-472.747 858.532,-466.368"/> 
</g> 
<!-- e1 --> 
<g id="node78" class="node"><title>e1</title> 
<ellipse fill="#e98576" stroke="#e98576" cx="971" cy="-450" rx="75.2018" ry="18"/> 
<a xlink:href="http://pir.georgetown.edu/cgi-bin/pt_graphvizView.pl?togoid=0032153" ><text id="GO:0032153" onmousemove="changeToText('GO:0032153')" onmouseout="changeBackText('GO:0032153')"  text-anchor="middle" x="971" y="-450.8" font-family="Times,serif" font-size="14.00">GO:0032153</text></a>
<a xlink:href="http://pir.georgetown.edu/cgi-bin/pt_graphvizView.pl?tofile=336262" ><text id="r336262" onmousemove="changeToText2('r336262', 5)" onmouseout="changeBackText2('r336262', 5)"  text-anchor="middle" x="971" y="-437.8" font-family="Times,serif" font-size="14.00">(5)</text>
 
</a> 
</g> 
<!-- d0&#45;&gt;e1 --> 
<g id="edge86" class="edge"><title>d0&#45;&gt;e1</title> 
<path fill="none" stroke="black" d="M971,-503.697C971,-495.983 971,-486.712 971,-478.112"/> 
<polygon fill="black" stroke="black" points="974.5,-478.104 971,-468.104 967.5,-478.104 974.5,-478.104"/> 
</g> 
<!-- i0 --> 
<g id="node79" class="node"><title>i0</title> 
<ellipse fill="#e98576" stroke="#e98576" cx="1322" cy="-450" rx="79.4447" ry="18"/> 
<a xlink:href="http://pir.georgetown.edu/cgi-bin/pt_graphvizView.pl?togoid=0030312" ><text id="GO:0030312" onmousemove="changeToText('GO:0030312')" onmouseout="changeBackText('GO:0030312')"  text-anchor="middle" x="1322" y="-450.8" font-family="Times,serif" font-size="14.00">GO:0030312</text></a>
<a xlink:href="http://pir.georgetown.edu/cgi-bin/pt_graphvizView.pl?tofile=336248" ><text id="r336248" onmousemove="changeToText2('r336248', 57)" onmouseout="changeBackText2('r336248', 57)"  text-anchor="middle" x="1322" y="-437.8" font-family="Times,serif" font-size="14.00">(57)</text>
 
</a> 
</g> 
<!-- d0&#45;&gt;i0 --> 
<g id="edge104" class="edge"><title>d0&#45;&gt;i0</title> 
<path fill="none" stroke="black" d="M1026.62,-509.908C1088.4,-497.588 1188.14,-477.696 1254.38,-464.485"/> 
<polygon fill="black" stroke="black" points="1255.19,-467.893 1264.31,-462.505 1253.82,-461.029 1255.19,-467.893"/> 
</g> 
<!-- m0 --> 
<g id="node6" class="node"><title>m0</title> 
<ellipse fill="#e98576" stroke="#e98576" cx="959" cy="-162" rx="79.4447" ry="18"/> 
<a xlink:href="http://pir.georgetown.edu/cgi-bin/pt_graphvizView.pl?togoid=0005840" ><text id="GO:0005840" onmousemove="changeToText('GO:0005840')" onmouseout="changeBackText('GO:0005840')"  text-anchor="middle" x="959" y="-162.8" font-family="Times,serif" font-size="14.00">GO:0005840</text></a>
<a xlink:href="http://pir.georgetown.edu/cgi-bin/pt_graphvizView.pl?tofile=336252" ><text id="r336252" onmousemove="changeToText2('r336252', 24)" onmouseout="changeBackText2('r336252', 24)"  text-anchor="middle" x="959" y="-149.8" font-family="Times,serif" font-size="14.00">(24)</text>
 
</a> 
</g> 
<!-- u0 --> 
<g id="node8" class="node"><title>u0</title> 
<a xlink:href="http://pir.georgetown.edu/cgi-bin/pt_graphvizView.pl?togoid=0033279" > 
<ellipse fill="#dddddd" stroke="#dddddd" cx="851" cy="-90" rx="61.1934" ry="18"/> 
<a xlink:href="http://pir.georgetown.edu/cgi-bin/pt_graphvizView.pl?togoid=0033279" ><text id="GO:0033279" onmousemove="changeToText('GO:0033279')" onmouseout="changeBackText('GO:0033279')"  text-anchor="middle" x="851" y="-85.8" font-family="Times,serif" font-size="14.00">GO:0033279</text></a>
 
</a> 
</g> 
<!-- m0&#45;&gt;u0 --> 
<g id="edge6" class="edge"><title>m0&#45;&gt;u0</title> 
<path fill="none" stroke="black" d="M933.951,-144.765C919.019,-135.087 899.895,-122.691 883.772,-112.241"/> 
<polygon fill="black" stroke="black" points="885.465,-109.168 875.17,-106.666 881.658,-115.042 885.465,-109.168"/> 
</g> 
<!-- t0 --> 
<g id="node84" class="node"><title>t0</title> 
<ellipse fill="#e98576" stroke="#e98576" cx="408" cy="-18" rx="79.4447" ry="18"/> 
<a xlink:href="http://pir.georgetown.edu/cgi-bin/pt_graphvizView.pl?togoid=0015935" ><text id="GO:0015935" onmousemove="changeToText('GO:0015935')" onmouseout="changeBackText('GO:0015935')"  text-anchor="middle" x="408" y="-18.8" font-family="Times,serif" font-size="14.00">GO:0015935</text></a>
<a xlink:href="http://pir.georgetown.edu/cgi-bin/pt_graphvizView.pl?tofile=336254" ><text id="r336254" onmousemove="changeToText2('r336254', 18)" onmouseout="changeBackText2('r336254', 18)"  text-anchor="middle" x="408" y="-5.8" font-family="Times,serif" font-size="14.00">(18)</text>
 
</a> 
</g> 
<!-- u0&#45;&gt;t0 --> 
<g id="edge92" class="edge"><title>u0&#45;&gt;t0</title> 
<path fill="none" stroke="black" d="M798.442,-80.6952C719.657,-68.2461 570.666,-44.7034 481.253,-30.5749"/> 
<polygon fill="black" stroke="black" points="481.612,-27.0883 471.188,-28.9845 480.519,-34.0025 481.612,-27.0883"/> 
</g> 
<!-- n0 --> 
<g id="node9" class="node"><title>n0</title> 
<a xlink:href="http://pir.georgetown.edu/cgi-bin/pt_graphvizView.pl?togoid=0030529" > 
<ellipse fill="#dddddd" stroke="#dddddd" cx="680" cy="-306" rx="61.1934" ry="18"/> 
<a xlink:href="http://pir.georgetown.edu/cgi-bin/pt_graphvizView.pl?togoid=0030529" ><text id="GO:0030529" onmousemove="changeToText('GO:0030529')" onmouseout="changeBackText('GO:0030529')"  text-anchor="middle" x="680" y="-301.8" font-family="Times,serif" font-size="14.00">GO:0030529</text></a>
 
</a> 
</g> 
<!-- n0&#45;&gt;m0 --> 
<g id="edge48" class="edge"><title>n0&#45;&gt;m0</title> 
<path fill="none" stroke="black" d="M725.109,-293.687C733.372,-291.717 741.932,-289.743 750,-288 834.009,-269.852 878.529,-312.069 940,-252 956.209,-236.161 960.219,-210.131 960.611,-190.302"/> 
<polygon fill="black" stroke="black" points="964.109,-189.994 960.512,-180.028 957.109,-190.062 964.109,-189.994"/> 
</g> 
<!-- n0&#45;&gt;u0 --> 
<g id="edge8" class="edge"><title>n0&#45;&gt;u0</title> 
<path fill="none" stroke="black" d="M659.124,-289.027C648.526,-279.565 636.71,-266.586 631,-252 625.168,-237.101 622.952,-229.829 631,-216 666.258,-155.416 743.037,-121.792 795.877,-105.058"/> 
<polygon fill="black" stroke="black" points="796.912,-108.402 805.449,-102.127 794.863,-101.708 796.912,-108.402"/> 
</g> 
<!-- j1 --> 
<g id="node71" class="node"><title>j1</title> 
<ellipse fill="#e98576" stroke="#e98576" cx="715" cy="-234" rx="75.2018" ry="18"/> 
<a xlink:href="http://pir.georgetown.edu/cgi-bin/pt_graphvizView.pl?togoid=0005844" ><text id="GO:0005844" onmousemove="changeToText('GO:0005844')" onmouseout="changeBackText('GO:0005844')"  text-anchor="middle" x="715" y="-234.8" font-family="Times,serif" font-size="14.00">GO:0005844</text></a>
<a xlink:href="http://pir.georgetown.edu/cgi-bin/pt_graphvizView.pl?tofile=336272" ><text id="r336272" onmousemove="changeToText2('r336272', 2)" onmouseout="changeBackText2('r336272', 2)"  text-anchor="middle" x="715" y="-221.8" font-family="Times,serif" font-size="14.00">(2)</text>
 
</a> 
</g> 
<!-- n0&#45;&gt;j1 --> 
<g id="edge76" class="edge"><title>n0&#45;&gt;j1</title> 
<path fill="none" stroke="black" d="M688.473,-288.055C692.497,-280.007 697.398,-270.205 701.887,-261.226"/> 
<polygon fill="black" stroke="black" points="705.021,-262.785 706.362,-252.275 698.76,-259.654 705.021,-262.785"/> 
</g> 
<!-- s0 --> 
<g id="node11" class="node"><title>s0</title> 
<a xlink:href="http://pir.georgetown.edu/cgi-bin/pt_graphvizView.pl?togoid=0044444" > 
<ellipse fill="#dddddd" stroke="#dddddd" cx="870" cy="-234" rx="61.1934" ry="18"/> 
<a xlink:href="http://pir.georgetown.edu/cgi-bin/pt_graphvizView.pl?togoid=0044444" ><text id="GO:0044444" onmousemove="changeToText('GO:0044444')" onmouseout="changeBackText('GO:0044444')"  text-anchor="middle" x="870" y="-229.8" font-family="Times,serif" font-size="14.00">GO:0044444</text></a>
 
</a> 
</g> 
<!-- s0&#45;&gt;m0 --> 
<g id="edge52" class="edge"><title>s0&#45;&gt;m0</title> 
<path fill="none" stroke="black" d="M890.642,-216.765C902.352,-207.554 917.192,-195.882 930.051,-185.769"/> 
<polygon fill="black" stroke="black" points="932.465,-188.323 938.162,-179.39 928.138,-182.821 932.465,-188.323"/> 
</g> 
<!-- s0&#45;&gt;u0 --> 
<g id="edge10" class="edge"><title>s0&#45;&gt;u0</title> 
<path fill="none" stroke="black" d="M867.708,-215.871C864.47,-191.67 858.521,-147.211 854.665,-118.393"/> 
<polygon fill="black" stroke="black" points="858.095,-117.637 853.3,-108.189 851.157,-118.565 858.095,-117.637"/> 
</g> 
<!-- m1 --> 
<g id="node36" class="node"><title>m1</title> 
<ellipse fill="#e98576" stroke="#e98576" cx="189" cy="-162" rx="75.2018" ry="18"/> 
<a xlink:href="http://pir.georgetown.edu/cgi-bin/pt_graphvizView.pl?togoid=0045254" ><text id="GO:0045254" onmousemove="changeToText('GO:0045254')" onmouseout="changeBackText('GO:0045254')"  text-anchor="middle" x="189" y="-162.8" font-family="Times,serif" font-size="14.00">GO:0045254</text></a>
<a xlink:href="http://pir.georgetown.edu/cgi-bin/pt_graphvizView.pl?tofile=336282" ><text id="r336282" onmousemove="changeToText2('r336282', 1)" onmouseout="changeBackText2('r336282', 1)"  text-anchor="middle" x="189" y="-149.8" font-family="Times,serif" font-size="14.00">(1)</text>
 
</a> 
</g> 
<!-- s0&#45;&gt;m1 --> 
<g id="edge34" class="edge"><title>s0&#45;&gt;m1</title> 
<path fill="none" stroke="black" d="M825.895,-221.353C817.037,-219.322 807.759,-217.411 799,-216 611.849,-185.844 562.831,-196.673 374,-180 339.06,-176.915 300.421,-173.383 267.53,-170.341"/> 
<polygon fill="black" stroke="black" points="267.798,-166.851 257.518,-169.414 267.152,-173.821 267.798,-166.851"/> 
</g> 
<!-- l1 --> 
<g id="node68" class="node"><title>l1</title> 
<ellipse fill="#e98576" stroke="#e98576" cx="458" cy="-162" rx="75.2018" ry="18"/> 
<a xlink:href="http://pir.georgetown.edu/cgi-bin/pt_graphvizView.pl?togoid=0045239" ><text id="GO:0045239" onmousemove="changeToText('GO:0045239')" onmouseout="changeBackText('GO:0045239')"  text-anchor="middle" x="458" y="-162.8" font-family="Times,serif" font-size="14.00">GO:0045239</text></a>
<a xlink:href="http://pir.georgetown.edu/cgi-bin/pt_graphvizView.pl?tofile=336280" ><text id="r336280" onmousemove="changeToText2('r336280', 1)" onmouseout="changeBackText2('r336280', 1)"  text-anchor="middle" x="458" y="-149.8" font-family="Times,serif" font-size="14.00">(1)</text>
 
</a> 
</g> 
<!-- s0&#45;&gt;l1 --> 
<g id="edge74" class="edge"><title>s0&#45;&gt;l1</title> 
<path fill="none" stroke="black" d="M825.049,-221.658C816.43,-219.647 807.456,-217.667 799,-216 707.678,-198.001 601.609,-182.328 532.326,-172.788"/> 
<polygon fill="black" stroke="black" points="532.759,-169.314 522.377,-171.425 531.809,-176.25 532.759,-169.314"/> 
</g> 
<!-- v0 --> 
<g id="node13" class="node"><title>v0</title> 
<a xlink:href="http://pir.georgetown.edu/cgi-bin/pt_graphvizView.pl?togoid=0044446" > 
<ellipse fill="#dddddd" stroke="#dddddd" cx="1173" cy="-234" rx="61.1934" ry="18"/> 
<a xlink:href="http://pir.georgetown.edu/cgi-bin/pt_graphvizView.pl?togoid=0044446" ><text id="GO:0044446" onmousemove="changeToText('GO:0044446')" onmouseout="changeBackText('GO:0044446')"  text-anchor="middle" x="1173" y="-229.8" font-family="Times,serif" font-size="14.00">GO:0044446</text></a>
 
</a> 
</g> 
<!-- v0&#45;&gt;u0 --> 
<g id="edge12" class="edge"><title>v0&#45;&gt;u0</title> 
<path fill="none" stroke="black" d="M1154.26,-216.525C1130.74,-196.651 1088.44,-163.487 1047,-144 1004.07,-123.812 952.099,-110.201 912.465,-101.833"/> 
<polygon fill="black" stroke="black" points="913.168,-98.404 902.668,-99.8172 911.757,-105.26 913.168,-98.404"/> 
</g> 
<!-- l0 --> 
<g id="node15" class="node"><title>l0</title> 
<ellipse fill="#e98576" stroke="#e98576" cx="85" cy="-450" rx="79.4447" ry="18"/> 
<a xlink:href="http://pir.georgetown.edu/cgi-bin/pt_graphvizView.pl?togoid=0032991" ><text id="GO:0032991" onmousemove="changeToText('GO:0032991')" onmouseout="changeBackText('GO:0032991')"  text-anchor="middle" x="85" y="-450.8" font-family="Times,serif" font-size="14.00">GO:0032991</text></a>
<a xlink:href="http://pir.georgetown.edu/cgi-bin/pt_graphvizView.pl?tofile=336250" ><text id="r336250" onmousemove="changeToText2('r336250', 27)" onmouseout="changeBackText2('r336250', 27)"  text-anchor="middle" x="85" y="-437.8" font-family="Times,serif" font-size="14.00">(27)</text>
 
</a> 
</g> 
<!-- l0&#45;&gt;n0 --> 
<g id="edge116" class="edge"><title>l0&#45;&gt;n0</title> 
<path fill="none" stroke="black" d="M142.846,-437.471C153.202,-435.544 163.907,-433.64 174,-432 292.624,-412.719 325.428,-425.231 442,-396 513.256,-378.132 592.517,-345.85 639.217,-325.468"/> 
<polygon fill="black" stroke="black" points="640.647,-328.662 648.392,-321.433 637.829,-322.254 640.647,-328.662"/> 
</g> 
<!-- f1 --> 
<g id="node17" class="node"><title>f1</title> 
<ellipse fill="#e98576" stroke="#e98576" cx="217" cy="-378" rx="75.2018" ry="18"/> 
<a xlink:href="http://pir.georgetown.edu/cgi-bin/pt_graphvizView.pl?togoid=0032993" ><text id="GO:0032993" onmousemove="changeToText('GO:0032993')" onmouseout="changeBackText('GO:0032993')"  text-anchor="middle" x="217" y="-378.8" font-family="Times,serif" font-size="14.00">GO:0032993</text></a>
<a xlink:href="http://pir.georgetown.edu/cgi-bin/pt_graphvizView.pl?tofile=336264" ><text id="r336264" onmousemove="changeToText2('r336264', 5)" onmouseout="changeBackText2('r336264', 5)"  text-anchor="middle" x="217" y="-365.8" font-family="Times,serif" font-size="14.00">(5)</text>
 
</a> 
</g> 
<!-- l0&#45;&gt;f1 --> 
<g id="edge14" class="edge"><title>l0&#45;&gt;f1</title> 
<path fill="none" stroke="black" d="M114.623,-433.291C133.475,-423.293 158.086,-410.242 178.452,-399.442"/> 
<polygon fill="black" stroke="black" points="180.281,-402.434 187.475,-394.657 177.001,-396.25 180.281,-402.434"/> 
</g> 
<!-- x0 --> 
<g id="node18" class="node"><title>x0</title> 
<a xlink:href="http://pir.georgetown.edu/cgi-bin/pt_graphvizView.pl?togoid=0043234" > 
<ellipse fill="#dddddd" stroke="#dddddd" cx="62" cy="-378" rx="61.1934" ry="18"/> 
<a xlink:href="http://pir.georgetown.edu/cgi-bin/pt_graphvizView.pl?togoid=0043234" ><text id="GO:0043234" onmousemove="changeToText('GO:0043234')" onmouseout="changeBackText('GO:0043234')"  text-anchor="middle" x="62" y="-373.8" font-family="Times,serif" font-size="14.00">GO:0043234</text></a>
 
</a> 
</g> 
<!-- l0&#45;&gt;x0 --> 
<g id="edge120" class="edge"><title>l0&#45;&gt;x0</title> 
<path fill="none" stroke="black" d="M79.3146,-431.697C76.7522,-423.898 73.6671,-414.509 70.8153,-405.829"/> 
<polygon fill="black" stroke="black" points="74.0667,-404.512 67.62,-396.104 67.4165,-406.697 74.0667,-404.512"/> 
</g> 
<!-- k1 --> 
<g id="node20" class="node"><title>k1</title> 
<ellipse fill="#e98576" stroke="#e98576" cx="525" cy="-306" rx="75.2018" ry="18"/> 
<a xlink:href="http://pir.georgetown.edu/cgi-bin/pt_graphvizView.pl?togoid=0030880" ><text id="GO:0030880" onmousemove="changeToText('GO:0030880')" onmouseout="changeBackText('GO:0030880')"  text-anchor="middle" x="525" y="-306.8" font-family="Times,serif" font-size="14.00">GO:0030880</text></a>
<a xlink:href="http://pir.georgetown.edu/cgi-bin/pt_graphvizView.pl?tofile=336274" ><text id="r336274" onmousemove="changeToText2('r336274', 2)" onmouseout="changeBackText2('r336274', 2)"  text-anchor="middle" x="525" y="-293.8" font-family="Times,serif" font-size="14.00">(2)</text>
 
</a> 
</g> 
<!-- x0&#45;&gt;k1 --> 
<g id="edge16" class="edge"><title>x0&#45;&gt;k1</title> 
<path fill="none" stroke="black" d="M106.523,-365.486C115.262,-363.468 124.389,-361.529 133,-360 268.699,-335.911 304.896,-345.688 441,-324 447.516,-322.962 454.294,-321.773 461.05,-320.517"/> 
<polygon fill="black" stroke="black" points="461.73,-323.951 470.897,-318.639 460.418,-317.075 461.73,-323.951"/> 
</g> 
<!-- x0&#45;&gt;m1 --> 
<g id="edge32" class="edge"><title>x0&#45;&gt;m1</title> 
<path fill="none" stroke="black" d="M56.2749,-359.725C46.968,-328.183 32.3986,-260.429 62,-216 75.155,-196.256 97.2142,-183.854 119.29,-176.07"/> 
<polygon fill="black" stroke="black" points="120.626,-179.317 129.063,-172.909 118.471,-172.656 120.626,-179.317"/> 
</g> 
<!-- x0&#45;&gt;i1 --> 
<g id="edge44" class="edge"><title>x0&#45;&gt;i1</title> 
<path fill="none" stroke="black" d="M107.828,-366.008C116.201,-364.005 124.862,-361.937 133,-360 187.937,-346.924 250.478,-332.134 295.488,-321.507"/> 
<polygon fill="black" stroke="black" points="296.46,-324.874 305.388,-319.17 294.852,-318.061 296.46,-324.874"/> 
</g> 
<!-- x0&#45;&gt;b1 --> 
<g id="edge54" class="edge"><title>x0&#45;&gt;b1</title> 
<path fill="none" stroke="black" d="M88.7734,-361.638C105.892,-351.816 128.329,-338.942 147.123,-328.159"/> 
<polygon fill="black" stroke="black" points="149.086,-331.068 156.018,-323.055 145.602,-324.996 149.086,-331.068"/> 
</g> 
<!-- x0&#45;&gt;l1 --> 
<g id="edge72" class="edge"><title>x0&#45;&gt;l1</title> 
<path fill="none" stroke="black" d="M63.9407,-359.892C67.0774,-340.014 75.0776,-307.461 95,-288 172.388,-212.405 297.563,-182.42 378.821,-170.597"/> 
<polygon fill="black" stroke="black" points="379.579,-174.026 388.999,-169.178 378.612,-167.093 379.579,-174.026"/> 
</g> 
<!-- x0&#45;&gt;t0 --> 
<g id="edge94" class="edge"><title>x0&#45;&gt;t0</title> 
<path fill="none" stroke="black" d="M49.1536,-360.115C30.9934,-334.514 0,-283.689 0,-235 0,-235 0,-235 0,-161 0,-91.4938 213.873,-48.1986 331.924,-29.595"/> 
<polygon fill="black" stroke="black" points="332.65,-33.0244 341.994,-28.0313 331.576,-26.1073 332.65,-33.0244"/> 
</g> 
<!-- b0&#45;&gt;n0 --> 
<g id="edge118" class="edge"><title>b0&#45;&gt;n0</title> 
<path fill="none" stroke="black" d="M971.225,-367.825C916.481,-357.765 826.844,-340.808 750,-324 745.086,-322.925 739.989,-321.769 734.887,-320.582"/> 
<polygon fill="black" stroke="black" points="735.652,-317.167 725.116,-318.278 734.046,-323.98 735.652,-317.167"/> 
</g> 
<!-- b0&#45;&gt;s0 --> 
<g id="edge40" class="edge"><title>b0&#45;&gt;s0</title> 
<path fill="none" stroke="black" d="M1062.89,-364.548C1082.31,-356.346 1103.7,-343.442 1115,-324 1123.04,-310.166 1125.05,-300.452 1115,-288 1093.18,-260.954 1003.23,-247.026 938.653,-240.375"/> 
<polygon fill="black" stroke="black" points="938.818,-236.874 928.521,-239.369 938.126,-243.84 938.818,-236.874"/> 
</g> 
<!-- b0&#45;&gt;v0 --> 
<g id="edge114" class="edge"><title>b0&#45;&gt;v0</title> 
<path fill="none" stroke="black" d="M1062.57,-364.413C1095.06,-353.57 1137.11,-337.568 1149,-324 1163.95,-306.937 1169.7,-281.483 1171.86,-262.162"/> 
<polygon fill="black" stroke="black" points="1175.35,-262.415 1172.72,-252.151 1168.37,-261.813 1175.35,-262.415"/> 
</g> 
<!-- b0&#45;&gt;k1 --> 
<g id="edge18" class="edge"><title>b0&#45;&gt;k1</title> 
<path fill="none" stroke="black" d="M967.872,-369.514C945.886,-366.506 920.237,-363.037 897,-360 769.529,-343.338 736.891,-344.619 610,-324 603.313,-322.913 596.35,-321.683 589.414,-320.394"/> 
<polygon fill="black" stroke="black" points="589.785,-316.902 579.307,-318.472 588.477,-323.778 589.785,-316.902"/> 
</g> 
<!-- a0 --> 
<g id="node24" class="node"><title>a0</title> 
<ellipse fill="#e98576" stroke="#e98576" cx="1022" cy="-306" rx="84.1886" ry="18"/> 
<a xlink:href="http://pir.georgetown.edu/cgi-bin/pt_graphvizView.pl?togoid=0005737" ><text id="GO:0005737" onmousemove="changeToText('GO:0005737')" onmouseout="changeBackText('GO:0005737')"  text-anchor="middle" x="1022" y="-306.8" font-family="Times,serif" font-size="14.00">GO:0005737</text></a>
<a xlink:href="http://pir.georgetown.edu/cgi-bin/pt_graphvizView.pl?tofile=336240" ><text id="r336240" onmousemove="changeToText2('r336240', 172)" onmouseout="changeBackText2('r336240', 172)"  text-anchor="middle" x="1022" y="-293.8" font-family="Times,serif" font-size="14.00">(172)</text>
 
</a> 
</g> 
<!-- b0&#45;&gt;a0 --> 
<g id="edge20" class="edge"><title>b0&#45;&gt;a0</title> 
<path fill="none" stroke="black" d="M1022,-359.697C1022,-351.983 1022,-342.712 1022,-334.112"/> 
<polygon fill="black" stroke="black" points="1025.5,-334.104 1022,-324.104 1018.5,-334.104 1025.5,-334.104"/> 
</g> 
<!-- r0 --> 
<g id="node57" class="node"><title>r0</title> 
<a xlink:href="http://pir.georgetown.edu/cgi-bin/pt_graphvizView.pl?togoid=0043229" > 
<ellipse fill="#dddddd" stroke="#dddddd" cx="1269" cy="-306" rx="61.1934" ry="18"/> 
<a xlink:href="http://pir.georgetown.edu/cgi-bin/pt_graphvizView.pl?togoid=0043229" ><text id="GO:0043229" onmousemove="changeToText('GO:0043229')" onmouseout="changeBackText('GO:0043229')"  text-anchor="middle" x="1269" y="-301.8" font-family="Times,serif" font-size="14.00">GO:0043229</text></a>
 
</a> 
</g> 
<!-- b0&#45;&gt;r0 --> 
<g id="edge84" class="edge"><title>b0&#45;&gt;r0</title> 
<path fill="none" stroke="black" d="M1064.46,-364.967C1106.61,-353.022 1171.31,-334.687 1216.62,-321.844"/> 
<polygon fill="black" stroke="black" points="1217.6,-325.205 1226.27,-319.111 1215.69,-318.47 1217.6,-325.205"/> 
</g> 
<!-- a0&#45;&gt;s0 --> 
<g id="edge38" class="edge"><title>a0&#45;&gt;s0</title> 
<path fill="none" stroke="black" d="M988.266,-289.465C965.411,-278.939 935.079,-264.971 910.856,-253.815"/> 
<polygon fill="black" stroke="black" points="912.111,-250.54 901.564,-249.536 909.183,-256.898 912.111,-250.54"/> 
</g> 
<!-- e0 --> 
<g id="node25" class="node"><title>e0</title> 
<ellipse fill="#e98576" stroke="#e98576" cx="1379" cy="-666" rx="75.2018" ry="18"/> 
<a xlink:href="http://pir.georgetown.edu/cgi-bin/pt_graphvizView.pl?togoid=0005575" ><text id="GO:0005575" onmousemove="changeToText('GO:0005575')" onmouseout="changeBackText('GO:0005575')"  text-anchor="middle" x="1379" y="-666.8" font-family="Times,serif" font-size="14.00">GO:0005575</text></a>
<a xlink:href="http://pir.georgetown.edu/cgi-bin/pt_graphvizView.pl?tofile=336276" ><text id="r336276" onmousemove="changeToText2('r336276', 2)" onmouseout="changeBackText2('r336276', 2)"  text-anchor="middle" x="1379" y="-653.8" font-family="Times,serif" font-size="14.00">(2)</text>
 
</a> 
</g> 
<!-- e0&#45;&gt;d0 --> 
<g id="edge96" class="edge"><title>e0&#45;&gt;d0</title> 
<path fill="none" stroke="black" d="M1338.01,-650.734C1262.77,-624.546 1102.85,-568.888 1021.21,-540.477"/> 
<polygon fill="black" stroke="black" points="1022.25,-537.132 1011.66,-537.151 1019.95,-543.743 1022.25,-537.132"/> 
</g> 
<!-- e0&#45;&gt;l0 --> 
<g id="edge102" class="edge"><title>e0&#45;&gt;l0</title> 
<path fill="none" stroke="black" d="M1312.95,-657.408C1232.32,-647.908 1091.88,-630.61 972,-612 664.721,-564.298 300.123,-493.662 152.268,-464.424"/> 
<polygon fill="black" stroke="black" points="152.912,-460.983 142.423,-462.475 151.552,-467.85 152.912,-460.983"/> 
</g> 
<!-- w0 --> 
<g id="node27" class="node"><title>w0</title> 
<a xlink:href="http://pir.georgetown.edu/cgi-bin/pt_graphvizView.pl?togoid=0044422" > 
<ellipse fill="#dddddd" stroke="#dddddd" cx="1416" cy="-306" rx="61.1934" ry="18"/> 
<a xlink:href="http://pir.georgetown.edu/cgi-bin/pt_graphvizView.pl?togoid=0044422" ><text id="GO:0044422" onmousemove="changeToText('GO:0044422')" onmouseout="changeBackText('GO:0044422')"  text-anchor="middle" x="1416" y="-301.8" font-family="Times,serif" font-size="14.00">GO:0044422</text></a>
 
</a> 
</g> 
<!-- e0&#45;&gt;w0 --> 
<g id="edge22" class="edge"><title>e0&#45;&gt;w0</title> 
<path fill="none" stroke="black" d="M1398.31,-648.323C1424.49,-623.754 1468,-575.08 1468,-523 1468,-523 1468,-523 1468,-449 1468,-408.458 1463.12,-397.618 1448,-360 1444.23,-350.625 1438.92,-340.989 1433.7,-332.548"/> 
<polygon fill="black" stroke="black" points="1436.51,-330.442 1428.15,-323.926 1430.62,-334.229 1436.51,-330.442"/> 
</g> 
<!-- q0 --> 
<g id="node28" class="node"><title>q0</title> 
<a xlink:href="http://pir.georgetown.edu/cgi-bin/pt_graphvizView.pl?togoid=0043226" > 
<ellipse fill="#dddddd" stroke="#dddddd" cx="1557" cy="-378" rx="61.1934" ry="18"/> 
<a xlink:href="http://pir.georgetown.edu/cgi-bin/pt_graphvizView.pl?togoid=0043226" ><text id="GO:0043226" onmousemove="changeToText('GO:0043226')" onmouseout="changeBackText('GO:0043226')"  text-anchor="middle" x="1557" y="-373.8" font-family="Times,serif" font-size="14.00">GO:0043226</text></a>
 
</a> 
</g> 
<!-- e0&#45;&gt;q0 --> 
<g id="edge80" class="edge"><title>e0&#45;&gt;q0</title> 
<path fill="none" stroke="black" d="M1422.88,-651.283C1443.37,-642.878 1466.58,-630.173 1482,-612 1533.9,-550.818 1550.04,-453.155 1554.94,-406.093"/> 
<polygon fill="black" stroke="black" points="1558.43,-406.344 1555.89,-396.058 1551.46,-405.683 1558.43,-406.344"/> 
</g> 
<!-- f0 --> 
<g id="node31" class="node"><title>f0</title> 
<a xlink:href="http://pir.georgetown.edu/cgi-bin/pt_graphvizView.pl?togoid=0005623" > 
<ellipse fill="#dddddd" stroke="#dddddd" cx="1042" cy="-594" rx="61.1934" ry="18"/> 
<a xlink:href="http://pir.georgetown.edu/cgi-bin/pt_graphvizView.pl?togoid=0005623" ><text id="GO:0005623" onmousemove="changeToText('GO:0005623')" onmouseout="changeBackText('GO:0005623')"  text-anchor="middle" x="1042" y="-589.8" font-family="Times,serif" font-size="14.00">GO:0005623</text></a>
 
</a> 
</g> 
<!-- e0&#45;&gt;f0 --> 
<g id="edge26" class="edge"><title>e0&#45;&gt;f0</title> 
<path fill="none" stroke="black" d="M1324.11,-653.597C1262.71,-640.845 1163.65,-620.269 1100.74,-607.201"/> 
<polygon fill="black" stroke="black" points="1101.08,-603.698 1090.58,-605.091 1099.66,-610.551 1101.08,-603.698"/> 
</g> 
<!-- d1 --> 
<g id="node39" class="node"><title>d1</title> 
<ellipse fill="#e98576" stroke="#e98576" cx="1609" cy="-594" rx="75.2018" ry="18"/> 
<a xlink:href="http://pir.georgetown.edu/cgi-bin/pt_graphvizView.pl?togoid=0005576" ><text id="GO:0005576" onmousemove="changeToText('GO:0005576')" onmouseout="changeBackText('GO:0005576')"  text-anchor="middle" x="1609" y="-594.8" font-family="Times,serif" font-size="14.00">GO:0005576</text></a>
<a xlink:href="http://pir.georgetown.edu/cgi-bin/pt_graphvizView.pl?tofile=336260" ><text id="r336260" onmousemove="changeToText2('r336260', 9)" onmouseout="changeBackText2('r336260', 9)"  text-anchor="middle" x="1609" y="-581.8" font-family="Times,serif" font-size="14.00">(9)</text>
 
</a> 
</g> 
<!-- e0&#45;&gt;d1 --> 
<g id="edge36" class="edge"><title>e0&#45;&gt;d1</title> 
<path fill="none" stroke="black" d="M1423.62,-651.42C1461.15,-639.997 1514.94,-623.628 1554.91,-611.461"/> 
<polygon fill="black" stroke="black" points="1555.96,-614.802 1564.51,-608.542 1553.92,-608.105 1555.96,-614.802"/> 
</g> 
<!-- j0 --> 
<g id="node66" class="node"><title>j0</title> 
<a xlink:href="http://pir.georgetown.edu/cgi-bin/pt_graphvizView.pl?togoid=0031975" > 
<ellipse fill="#dddddd" stroke="#dddddd" cx="1379" cy="-522" rx="61.1934" ry="18"/> 
<a xlink:href="http://pir.georgetown.edu/cgi-bin/pt_graphvizView.pl?togoid=0031975" ><text id="GO:0031975" onmousemove="changeToText('GO:0031975')" onmouseout="changeBackText('GO:0031975')"  text-anchor="middle" x="1379" y="-517.8" font-family="Times,serif" font-size="14.00">GO:0031975</text></a>
 
</a> 
</g> 
<!-- e0&#45;&gt;j0 --> 
<g id="edge70" class="edge"><title>e0&#45;&gt;j0</title> 
<path fill="none" stroke="black" d="M1379,-647.871C1379,-623.67 1379,-579.211 1379,-550.393"/> 
<polygon fill="black" stroke="black" points="1382.5,-550.189 1379,-540.189 1375.5,-550.189 1382.5,-550.189"/> 
</g> 
<!-- w0&#45;&gt;v0 --> 
<g id="edge112" class="edge"><title>w0&#45;&gt;v0</title> 
<path fill="none" stroke="black" d="M1373.95,-292.887C1332.65,-280.991 1269.55,-262.813 1225.1,-250.008"/> 
<polygon fill="black" stroke="black" points="1225.93,-246.604 1215.35,-247.199 1223.99,-253.331 1225.93,-246.604"/> 
</g> 
<!-- q0&#45;&gt;w0 --> 
<g id="edge24" class="edge"><title>q0&#45;&gt;w0</title> 
<path fill="none" stroke="black" d="M1527.1,-362.155C1506.07,-351.714 1477.72,-337.644 1454.93,-326.328"/> 
<polygon fill="black" stroke="black" points="1456.37,-323.136 1445.86,-321.824 1453.26,-329.405 1456.37,-323.136"/> 
</g> 
<!-- p0 --> 
<g id="node55" class="node"><title>p0</title> 
<a xlink:href="http://pir.georgetown.edu/cgi-bin/pt_graphvizView.pl?togoid=0043228" > 
<ellipse fill="#dddddd" stroke="#dddddd" cx="1557" cy="-306" rx="61.1934" ry="18"/> 
<a xlink:href="http://pir.georgetown.edu/cgi-bin/pt_graphvizView.pl?togoid=0043228" ><text id="GO:0043228" onmousemove="changeToText('GO:0043228')" onmouseout="changeBackText('GO:0043228')"  text-anchor="middle" x="1557" y="-301.8" font-family="Times,serif" font-size="14.00">GO:0043228</text></a>
 
</a> 
</g> 
<!-- q0&#45;&gt;p0 --> 
<g id="edge106" class="edge"><title>q0&#45;&gt;p0</title> 
<path fill="none" stroke="black" d="M1557,-359.697C1557,-351.983 1557,-342.712 1557,-334.112"/> 
<polygon fill="black" stroke="black" points="1560.5,-334.104 1557,-324.104 1553.5,-334.104 1560.5,-334.104"/> 
</g> 
<!-- q0&#45;&gt;r0 --> 
<g id="edge82" class="edge"><title>q0&#45;&gt;r0</title> 
<path fill="none" stroke="black" d="M1511.37,-365.908C1460.75,-353.605 1379.07,-333.752 1324.71,-320.542"/> 
<polygon fill="black" stroke="black" points="1325.44,-317.116 1314.9,-318.155 1323.79,-323.918 1325.44,-317.116"/> 
</g> 
<!-- f0&#45;&gt;d0 --> 
<g id="edge98" class="edge"><title>f0&#45;&gt;d0</title> 
<path fill="none" stroke="black" d="M1025.17,-576.411C1016.29,-567.648 1005.21,-556.732 995.401,-547.057"/> 
<polygon fill="black" stroke="black" points="997.777,-544.485 988.198,-539.956 992.862,-549.469 997.777,-544.485"/> 
</g> 
<!-- c0&#45;&gt;b0 --> 
<g id="edge28" class="edge"><title>c0&#45;&gt;b0</title> 
<path fill="none" stroke="black" d="M1133.1,-434.155C1112.07,-423.714 1083.72,-409.644 1060.93,-398.328"/> 
<polygon fill="black" stroke="black" points="1062.37,-395.136 1051.86,-393.824 1059.26,-401.405 1062.37,-395.136"/> 
</g> 
<!-- o0 --> 
<g id="node47" class="node"><title>o0</title> 
<ellipse fill="#e98576" stroke="#e98576" cx="1328" cy="-234" rx="75.2018" ry="18"/> 
<a xlink:href="http://pir.georgetown.edu/cgi-bin/pt_graphvizView.pl?togoid=0043232" ><text id="GO:0043232" onmousemove="changeToText('GO:0043232')" onmouseout="changeBackText('GO:0043232')"  text-anchor="middle" x="1328" y="-234.8" font-family="Times,serif" font-size="14.00">GO:0043232</text></a>
<a xlink:href="http://pir.georgetown.edu/cgi-bin/pt_graphvizView.pl?tofile=336286" ><text id="r336286" onmousemove="changeToText2('r336286', 1)" onmouseout="changeBackText2('r336286', 1)"  text-anchor="middle" x="1328" y="-221.8" font-family="Times,serif" font-size="14.00">(1)</text>
 
</a> 
</g> 
<!-- o0&#45;&gt;m0 --> 
<g id="edge50" class="edge"><title>o0&#45;&gt;m0</title> 
<path fill="none" stroke="black" d="M1272.24,-221.741C1262.5,-219.804 1252.46,-217.828 1243,-216 1170.06,-201.901 1086.46,-186.376 1028.95,-175.794"/> 
<polygon fill="black" stroke="black" points="1029.35,-172.309 1018.88,-173.943 1028.08,-179.194 1029.35,-172.309"/> 
</g> 
<!-- n1 --> 
<g id="node73" class="node"><title>n1</title> 
<ellipse fill="#e98576" stroke="#e98576" cx="1328" cy="-162" rx="75.2018" ry="18"/> 
<a xlink:href="http://pir.georgetown.edu/cgi-bin/pt_graphvizView.pl?togoid=0005856" ><text id="GO:0005856" onmousemove="changeToText('GO:0005856')" onmouseout="changeBackText('GO:0005856')"  text-anchor="middle" x="1328" y="-162.8" font-family="Times,serif" font-size="14.00">GO:0005856</text></a>
<a xlink:href="http://pir.georgetown.edu/cgi-bin/pt_graphvizView.pl?tofile=336284" ><text id="r336284" onmousemove="changeToText2('r336284', 1)" onmouseout="changeBackText2('r336284', 1)"  text-anchor="middle" x="1328" y="-149.8" font-family="Times,serif" font-size="14.00">(1)</text>
 
</a> 
</g> 
<!-- o0&#45;&gt;n1 --> 
<g id="edge78" class="edge"><title>o0&#45;&gt;n1</title> 
<path fill="none" stroke="black" d="M1328,-215.697C1328,-207.983 1328,-198.712 1328,-190.112"/> 
<polygon fill="black" stroke="black" points="1331.5,-190.104 1328,-180.104 1324.5,-190.104 1331.5,-190.104"/> 
</g> 
<!-- p0&#45;&gt;o0 --> 
<g id="edge60" class="edge"><title>p0&#45;&gt;o0</title> 
<path fill="none" stroke="black" d="M1516.06,-292.485C1478.66,-281.054 1423.11,-264.072 1382.07,-251.528"/> 
<polygon fill="black" stroke="black" points="1383.08,-248.178 1372.5,-248.602 1381.04,-254.872 1383.08,-248.178"/> 
</g> 
<!-- r0&#45;&gt;v0 --> 
<g id="edge110" class="edge"><title>r0&#45;&gt;v0</title> 
<path fill="none" stroke="black" d="M1247.22,-289.116C1234.18,-279.607 1217.41,-267.382 1203.11,-256.959"/> 
<polygon fill="black" stroke="black" points="1205.17,-254.127 1195.03,-251.064 1201.05,-259.783 1205.17,-254.127"/> 
</g> 
<!-- r0&#45;&gt;o0 --> 
<g id="edge62" class="edge"><title>r0&#45;&gt;o0</title> 
<path fill="none" stroke="black" d="M1282.98,-288.411C1290.22,-279.82 1299.21,-269.159 1307.24,-259.627"/> 
<polygon fill="black" stroke="black" points="1309.94,-261.858 1313.71,-251.956 1304.59,-257.347 1309.94,-261.858"/> 
</g> 
<!-- z0 --> 
<g id="node63" class="node"><title>z0</title> 
<a xlink:href="http://pir.georgetown.edu/cgi-bin/pt_graphvizView.pl?togoid=0019861" > 
<ellipse fill="#dddddd" stroke="#dddddd" cx="827" cy="-378" rx="61.1934" ry="18"/> 
<a xlink:href="http://pir.georgetown.edu/cgi-bin/pt_graphvizView.pl?togoid=0019861" ><text id="GO:0019861" onmousemove="changeToText('GO:0019861')" onmouseout="changeBackText('GO:0019861')"  text-anchor="middle" x="827" y="-373.8" font-family="Times,serif" font-size="14.00">GO:0019861</text></a>
 
</a> 
</g> 
<!-- a1&#45;&gt;z0 --> 
<g id="edge66" class="edge"><title>a1&#45;&gt;z0</title> 
<path fill="none" stroke="black" d="M818.719,-431.697C819.931,-423.983 821.388,-414.712 822.739,-406.112"/> 
<polygon fill="black" stroke="black" points="826.217,-406.526 824.312,-396.104 819.302,-405.44 826.217,-406.526"/> 
</g> 
<!-- y0 --> 
<g id="node101" class="node"><title>y0</title> 
<ellipse fill="#e98576" stroke="#e98576" cx="839" cy="-306" rx="79.4447" ry="18"/> 
<a xlink:href="http://pir.georgetown.edu/cgi-bin/pt_graphvizView.pl?togoid=0009288" ><text id="GO:0009288" onmousemove="changeToText('GO:0009288')" onmouseout="changeBackText('GO:0009288')"  text-anchor="middle" x="839" y="-306.8" font-family="Times,serif" font-size="14.00">GO:0009288</text></a>
<a xlink:href="http://pir.georgetown.edu/cgi-bin/pt_graphvizView.pl?tofile=336256" ><text id="r336256" onmousemove="changeToText2('r336256', 14)" onmouseout="changeBackText2('r336256', 14)"  text-anchor="middle" x="839" y="-293.8" font-family="Times,serif" font-size="14.00">(14)</text>
 
</a> 
</g> 
<!-- z0&#45;&gt;y0 --> 
<g id="edge122" class="edge"><title>z0&#45;&gt;y0</title> 
<path fill="none" stroke="black" d="M829.966,-359.697C831.289,-351.983 832.878,-342.712 834.352,-334.112"/> 
<polygon fill="black" stroke="black" points="837.828,-334.552 836.068,-324.104 830.928,-333.369 837.828,-334.552"/> 
</g> 
<!-- h0 --> 
<g id="node81" class="node"><title>h0</title> 
<ellipse fill="#e98576" stroke="#e98576" cx="1355" cy="-378" rx="84.1886" ry="18"/> 
<a xlink:href="http://pir.georgetown.edu/cgi-bin/pt_graphvizView.pl?togoid=0030313" ><text id="GO:0030313" onmousemove="changeToText('GO:0030313')" onmouseout="changeBackText('GO:0030313')"  text-anchor="middle" x="1355" y="-378.8" font-family="Times,serif" font-size="14.00">GO:0030313</text></a>
<a xlink:href="http://pir.georgetown.edu/cgi-bin/pt_graphvizView.pl?tofile=336244" ><text id="r336244" onmousemove="changeToText2('r336244', 131)" onmouseout="changeBackText2('r336244', 131)"  text-anchor="middle" x="1355" y="-365.8" font-family="Times,serif" font-size="14.00">(131)</text>
 
</a> 
</g> 
<!-- j0&#45;&gt;h0 --> 
<g id="edge90" class="edge"><title>j0&#45;&gt;h0</title> 
<path fill="none" stroke="black" d="M1392.2,-504.346C1404.82,-486.275 1420.5,-456.695 1410,-432 1405.1,-420.464 1396.31,-410.221 1387.19,-401.888"/> 
<polygon fill="black" stroke="black" points="1389.4,-399.174 1379.52,-395.352 1384.86,-404.502 1389.4,-399.174"/> 
</g> 
<!-- i0&#45;&gt;h0 --> 
<g id="edge88" class="edge"><title>i0&#45;&gt;h0</title> 
<path fill="none" stroke="black" d="M1329.99,-432.055C1333.74,-424.091 1338.31,-414.411 1342.5,-405.51"/> 
<polygon fill="black" stroke="black" points="1345.76,-406.813 1346.86,-396.275 1339.43,-403.828 1345.76,-406.813"/> 
</g> 
<!-- h1 --> 
<g id="node93" class="node"><title>h1</title> 
<ellipse fill="#e98576" stroke="#e98576" cx="1177" cy="-378" rx="75.2018" ry="18"/> 
<a xlink:href="http://pir.georgetown.edu/cgi-bin/pt_graphvizView.pl?togoid=0005618" ><text id="GO:0005618" onmousemove="changeToText('GO:0005618')" onmouseout="changeBackText('GO:0005618')"  text-anchor="middle" x="1177" y="-378.8" font-family="Times,serif" font-size="14.00">GO:0005618</text></a>
<a xlink:href="http://pir.georgetown.edu/cgi-bin/pt_graphvizView.pl?tofile=336268" ><text id="r336268" onmousemove="changeToText2('r336268', 3)" onmouseout="changeBackText2('r336268', 3)"  text-anchor="middle" x="1177" y="-365.8" font-family="Times,serif" font-size="14.00">(3)</text>
 
</a> 
</g> 
<!-- i0&#45;&gt;h1 --> 
<g id="edge108" class="edge"><title>i0&#45;&gt;h1</title> 
<path fill="none" stroke="black" d="M1289.82,-433.465C1268.7,-423.269 1240.89,-409.843 1218.16,-398.872"/> 
<polygon fill="black" stroke="black" points="1219.62,-395.687 1209.09,-394.492 1216.57,-401.991 1219.62,-395.687"/> 
</g> 
</g> 
<text text-anchor="left" x="4" y="-20" style="font-family:Arial Narrow;font-size:20.00;font-weight:bold;">GO Hierarchical View:</text> 

<text text-anchor="left" x="4" y="0" style="font-family:Arial Narrow;font-size:20.00;font-style:italic;">cellular component</text> 

<script type="text/ecmascript"> 
<![CDATA[ 
var targetText; 
function changeToText(z) { 
		targetText = svgDocument.getElementById(z).firstChild; 
		targetText.nodeValue="link to "+z; 
} 
function changeBackText(z) { 
		targetText = svgDocument.getElementById(z).firstChild; 
		targetText.nodeValue=z; 
} 
function changeToText2(z,n) { 
		targetText = svgDocument.getElementById(z).firstChild; 
		if (n<=1) { 
			targetText.nodeValue="link to " + n + " protein record"; 
		} else { 
			targetText.nodeValue="link to " + n + " protein records"; 
		} 
} 
function changeBackText2(z,n) { 
		targetText = svgDocument.getElementById(z).firstChild; 
		targetText.nodeValue="(" + n + ")"; 
} 
// ]]> 
</script> 
</svg> 
