<?xml version="1.0" encoding="UTF-8" standalone="no"?> 
<!DOCTYPE svg PUBLIC "-//W3C//DTD SVG 1.1//EN" 
 "http://www.w3.org/Graphics/SVG/1.1/DTD/svg11.dtd"> 
<!-- Generated by graphviz version 2.28.0 (20110622.2320) 
 --> 
<!-- Title: G Pages: 1 --> 
<svg width="2000" height="1000"  
 viewBox="-30 -50 2000 1000" xmlns="http://www.w3.org/2000/svg" xmlns:xlink="http://www.w3.org/1999/xlink"> 
<g id="graph1" class="graph" transform="scale(1 1) rotate(0) translate(4 400)"> 
<title>G</title> 
<polygon fill="white" stroke="white" points="-4,5 -4,-400 4011,-400 4011,5 -4,5"/> 
<!-- g0 --> 
<g id="node1" class="node"><title>g0</title> 
<ellipse fill="#e98576" stroke="#e98576" cx="861" cy="-306" rx="75.2018" ry="18"/> 
<a xlink:href="http://pir.georgetown.edu/cgi-bin/pt_graphvizView.pl?togoid=0003824" ><text id="GO:0003824" onmousemove="changeToText('GO:0003824')" onmouseout="changeBackText('GO:0003824')"  text-anchor="middle" x="861" y="-306.8" font-family="Times,serif" font-size="14.00">GO:0003824</text></a>
<a xlink:href="http://pir.georgetown.edu/cgi-bin/pt_graphvizView.pl?tofile=304471" ><text id="r304471" onmousemove="changeToText2('r304471', 5)" onmouseout="changeBackText2('r304471', 5)"  text-anchor="middle" x="861" y="-293.8" font-family="Times,serif" font-size="14.00">(5)</text>
 
</a> 
</g> 
<!-- x0 --> 
<g id="node3" class="node"><title>x0</title> 
<ellipse fill="#e98576" stroke="#e98576" cx="75" cy="-234" rx="75.2018" ry="18"/> 
<a xlink:href="http://pir.georgetown.edu/cgi-bin/pt_graphvizView.pl?togoid=0016853" ><text id="GO:0016853" onmousemove="changeToText('GO:0016853')" onmouseout="changeBackText('GO:0016853')"  text-anchor="middle" x="75" y="-234.8" font-family="Times,serif" font-size="14.00">GO:0016853</text></a>
<a xlink:href="http://pir.georgetown.edu/cgi-bin/pt_graphvizView.pl?tofile=304463" ><text id="r304463" onmousemove="changeToText2('r304463', 8)" onmouseout="changeBackText2('r304463', 8)"  text-anchor="middle" x="75" y="-221.8" font-family="Times,serif" font-size="14.00">(8)</text>
 
</a> 
</g> 
<!-- g0&#45;&gt;x0 --> 
<g id="edge2" class="edge"><title>g0&#45;&gt;x0</title> 
<path fill="none" stroke="black" d="M787.155,-302.446C658.871,-297.336 386.759,-283.52 159,-252 152.266,-251.068 145.261,-249.927 138.295,-248.682"/> 
<polygon fill="black" stroke="black" points="138.625,-245.183 128.153,-246.795 137.344,-252.065 138.625,-245.183"/> 
</g> 
<!-- f0 --> 
<g id="node15" class="node"><title>f0</title> 
<ellipse fill="#e98576" stroke="#e98576" cx="248" cy="-234" rx="79.4447" ry="18"/> 
<a xlink:href="http://pir.georgetown.edu/cgi-bin/pt_graphvizView.pl?togoid=0016787" ><text id="GO:0016787" onmousemove="changeToText('GO:0016787')" onmouseout="changeBackText('GO:0016787')"  text-anchor="middle" x="248" y="-234.8" font-family="Times,serif" font-size="14.00">GO:0016787</text></a>
<a xlink:href="http://pir.georgetown.edu/cgi-bin/pt_graphvizView.pl?tofile=304431" ><text id="r304431" onmousemove="changeToText2('r304431', 98)" onmouseout="changeBackText2('r304431', 98)"  text-anchor="middle" x="248" y="-221.8" font-family="Times,serif" font-size="14.00">(98)</text>
 
</a> 
</g> 
<!-- g0&#45;&gt;f0 --> 
<g id="edge20" class="edge"><title>g0&#45;&gt;f0</title> 
<path fill="none" stroke="black" d="M790.411,-299.843C689.545,-292.024 498.507,-275.546 337,-252 329.83,-250.955 322.359,-249.735 314.927,-248.438"/> 
<polygon fill="black" stroke="black" points="315.309,-244.951 304.849,-246.63 314.073,-251.841 315.309,-244.951"/> 
</g> 
<!-- p0 --> 
<g id="node26" class="node"><title>p0</title> 
<ellipse fill="#e98576" stroke="#e98576" cx="426" cy="-234" rx="79.4447" ry="18"/> 
<a xlink:href="http://pir.georgetown.edu/cgi-bin/pt_graphvizView.pl?togoid=0016874" ><text id="GO:0016874" onmousemove="changeToText('GO:0016874')" onmouseout="changeBackText('GO:0016874')"  text-anchor="middle" x="426" y="-234.8" font-family="Times,serif" font-size="14.00">GO:0016874</text></a>
<a xlink:href="http://pir.georgetown.edu/cgi-bin/pt_graphvizView.pl?tofile=304449" ><text id="r304449" onmousemove="changeToText2('r304449', 20)" onmouseout="changeBackText2('r304449', 20)"  text-anchor="middle" x="426" y="-221.8" font-family="Times,serif" font-size="14.00">(20)</text>
 
</a> 
</g> 
<!-- g0&#45;&gt;p0 --> 
<g id="edge24" class="edge"><title>g0&#45;&gt;p0</title> 
<path fill="none" stroke="black" d="M798.066,-296.069C728.641,-286.052 613.669,-268.975 515,-252 508.23,-250.835 501.179,-249.573 494.141,-248.281"/> 
<polygon fill="black" stroke="black" points="494.343,-244.759 483.872,-246.374 493.065,-251.641 494.343,-244.759"/> 
</g> 
<!-- m0 --> 
<g id="node30" class="node"><title>m0</title> 
<ellipse fill="#e98576" stroke="#e98576" cx="604" cy="-234" rx="79.4447" ry="18"/> 
<a xlink:href="http://pir.georgetown.edu/cgi-bin/pt_graphvizView.pl?togoid=0016491" ><text id="GO:0016491" onmousemove="changeToText('GO:0016491')" onmouseout="changeBackText('GO:0016491')"  text-anchor="middle" x="604" y="-234.8" font-family="Times,serif" font-size="14.00">GO:0016491</text></a>
<a xlink:href="http://pir.georgetown.edu/cgi-bin/pt_graphvizView.pl?tofile=304443" ><text id="r304443" onmousemove="changeToText2('r304443', 37)" onmouseout="changeBackText2('r304443', 37)"  text-anchor="middle" x="604" y="-221.8" font-family="Times,serif" font-size="14.00">(37)</text>
 
</a> 
</g> 
<!-- g0&#45;&gt;m0 --> 
<g id="edge28" class="edge"><title>g0&#45;&gt;m0</title> 
<path fill="none" stroke="black" d="M813.263,-291.998C770.663,-280.394 708.148,-263.367 662.543,-250.946"/> 
<polygon fill="black" stroke="black" points="663.36,-247.541 652.792,-248.29 661.521,-254.295 663.36,-247.541"/> 
</g> 
<!-- y0 --> 
<g id="node32" class="node"><title>y0</title> 
<ellipse fill="#e98576" stroke="#e98576" cx="777" cy="-234" rx="75.2018" ry="18"/> 
<a xlink:href="http://pir.georgetown.edu/cgi-bin/pt_graphvizView.pl?togoid=0004386" ><text id="GO:0004386" onmousemove="changeToText('GO:0004386')" onmouseout="changeBackText('GO:0004386')"  text-anchor="middle" x="777" y="-234.8" font-family="Times,serif" font-size="14.00">GO:0004386</text></a>
<a xlink:href="http://pir.georgetown.edu/cgi-bin/pt_graphvizView.pl?tofile=304465" ><text id="r304465" onmousemove="changeToText2('r304465', 7)" onmouseout="changeBackText2('r304465', 7)"  text-anchor="middle" x="777" y="-221.8" font-family="Times,serif" font-size="14.00">(7)</text>
 
</a> 
</g> 
<!-- g0&#45;&gt;y0 --> 
<g id="edge30" class="edge"><title>g0&#45;&gt;y0</title> 
<path fill="none" stroke="black" d="M841.093,-288.411C830.214,-279.345 816.569,-267.974 804.669,-258.057"/> 
<polygon fill="black" stroke="black" points="806.687,-255.183 796.764,-251.47 802.206,-260.561 806.687,-255.183"/> 
</g> 
<!-- g1 --> 
<g id="node49" class="node"><title>g1</title> 
<ellipse fill="#e98576" stroke="#e98576" cx="945" cy="-234" rx="75.2018" ry="18"/> 
<a xlink:href="http://pir.georgetown.edu/cgi-bin/pt_graphvizView.pl?togoid=0008641" ><text id="GO:0008641" onmousemove="changeToText('GO:0008641')" onmouseout="changeBackText('GO:0008641')"  text-anchor="middle" x="945" y="-234.8" font-family="Times,serif" font-size="14.00">GO:0008641</text></a>
<a xlink:href="http://pir.georgetown.edu/cgi-bin/pt_graphvizView.pl?tofile=304485" ><text id="r304485" onmousemove="changeToText2('r304485', 1)" onmouseout="changeBackText2('r304485', 1)"  text-anchor="middle" x="945" y="-221.8" font-family="Times,serif" font-size="14.00">(1)</text>
 
</a> 
</g> 
<!-- g0&#45;&gt;g1 --> 
<g id="edge46" class="edge"><title>g0&#45;&gt;g1</title> 
<path fill="none" stroke="black" d="M880.907,-288.411C891.786,-279.345 905.431,-267.974 917.331,-258.057"/> 
<polygon fill="black" stroke="black" points="919.794,-260.561 925.236,-251.47 915.313,-255.183 919.794,-260.561"/> 
</g> 
<!-- i1 --> 
<g id="node63" class="node"><title>i1</title> 
<ellipse fill="#e98576" stroke="#e98576" cx="1113" cy="-234" rx="75.2018" ry="18"/> 
<a xlink:href="http://pir.georgetown.edu/cgi-bin/pt_graphvizView.pl?togoid=0009975" ><text id="GO:0009975" onmousemove="changeToText('GO:0009975')" onmouseout="changeBackText('GO:0009975')"  text-anchor="middle" x="1113" y="-234.8" font-family="Times,serif" font-size="14.00">GO:0009975</text></a>
<a xlink:href="http://pir.georgetown.edu/cgi-bin/pt_graphvizView.pl?tofile=304489" ><text id="r304489" onmousemove="changeToText2('r304489', 1)" onmouseout="changeBackText2('r304489', 1)"  text-anchor="middle" x="1113" y="-221.8" font-family="Times,serif" font-size="14.00">(1)</text>
 
</a> 
</g> 
<!-- g0&#45;&gt;i1 --> 
<g id="edge60" class="edge"><title>g0&#45;&gt;i1</title> 
<path fill="none" stroke="black" d="M908.104,-291.916C949.955,-280.29 1011.24,-263.267 1055.87,-250.868"/> 
<polygon fill="black" stroke="black" points="1057,-254.188 1065.7,-248.139 1055.13,-247.443 1057,-254.188"/> 
</g> 
<!-- l0 --> 
<g id="node68" class="node"><title>l0</title> 
<ellipse fill="#e98576" stroke="#e98576" cx="1286" cy="-234" rx="79.4447" ry="18"/> 
<a xlink:href="http://pir.georgetown.edu/cgi-bin/pt_graphvizView.pl?togoid=0016740" ><text id="GO:0016740" onmousemove="changeToText('GO:0016740')" onmouseout="changeBackText('GO:0016740')"  text-anchor="middle" x="1286" y="-234.8" font-family="Times,serif" font-size="14.00">GO:0016740</text></a>
<a xlink:href="http://pir.georgetown.edu/cgi-bin/pt_graphvizView.pl?tofile=304441" ><text id="r304441" onmousemove="changeToText2('r304441', 46)" onmouseout="changeBackText2('r304441', 46)"  text-anchor="middle" x="1286" y="-221.8" font-family="Times,serif" font-size="14.00">(46)</text>
 
</a> 
</g> 
<!-- g0&#45;&gt;l0 --> 
<g id="edge66" class="edge"><title>g0&#45;&gt;l0</title> 
<path fill="none" stroke="black" d="M923.027,-295.829C990.529,-285.706 1101.59,-268.633 1197,-252 1203.66,-250.838 1210.6,-249.587 1217.53,-248.31"/> 
<polygon fill="black" stroke="black" points="1218.45,-251.698 1227.64,-246.426 1217.17,-244.816 1218.45,-251.698"/> 
</g> 
<!-- u0 --> 
<g id="node74" class="node"><title>u0</title> 
<ellipse fill="#e98576" stroke="#e98576" cx="1464" cy="-234" rx="79.4447" ry="18"/> 
<a xlink:href="http://pir.georgetown.edu/cgi-bin/pt_graphvizView.pl?togoid=0016829" ><text id="GO:0016829" onmousemove="changeToText('GO:0016829')" onmouseout="changeBackText('GO:0016829')"  text-anchor="middle" x="1464" y="-234.8" font-family="Times,serif" font-size="14.00">GO:0016829</text></a>
<a xlink:href="http://pir.georgetown.edu/cgi-bin/pt_graphvizView.pl?tofile=304457" ><text id="r304457" onmousemove="changeToText2('r304457', 10)" onmouseout="changeBackText2('r304457', 10)"  text-anchor="middle" x="1464" y="-221.8" font-family="Times,serif" font-size="14.00">(10)</text>
 
</a> 
</g> 
<!-- g0&#45;&gt;u0 --> 
<g id="edge72" class="edge"><title>g0&#45;&gt;u0</title> 
<path fill="none" stroke="black" d="M931.347,-299.609C1030.41,-291.592 1216.51,-274.968 1374,-252 1381.33,-250.931 1388.97,-249.688 1396.57,-248.37"/> 
<polygon fill="black" stroke="black" points="1397.27,-251.8 1406.51,-246.602 1396.05,-244.908 1397.27,-251.8"/> 
</g> 
<!-- c0 --> 
<g id="node4" class="node"><title>c0</title> 
<ellipse fill="#e98576" stroke="#e98576" cx="2952" cy="-378" rx="75.2018" ry="18"/> 
<a xlink:href="http://pir.georgetown.edu/cgi-bin/pt_graphvizView.pl?togoid=0003674" ><text id="GO:0003674" onmousemove="changeToText('GO:0003674')" onmouseout="changeBackText('GO:0003674')"  text-anchor="middle" x="2952" y="-378.8" font-family="Times,serif" font-size="14.00">GO:0003674</text></a>
<a xlink:href="http://pir.georgetown.edu/cgi-bin/pt_graphvizView.pl?tofile=304493" ><text id="r304493" onmousemove="changeToText2('r304493', 1)" onmouseout="changeBackText2('r304493', 1)"  text-anchor="middle" x="2952" y="-365.8" font-family="Times,serif" font-size="14.00">(1)</text>
 
</a> 
</g> 
<!-- c0&#45;&gt;g0 --> 
<g id="edge44" class="edge"><title>c0&#45;&gt;g0</title> 
<path fill="none" stroke="black" d="M2878.19,-374.529C2557.37,-363.789 1284.92,-321.191 944.903,-309.809"/> 
<polygon fill="black" stroke="black" points="944.989,-306.31 934.878,-309.473 944.755,-313.306 944.989,-306.31"/> 
</g> 
<!-- v0 --> 
<g id="node6" class="node"><title>v0</title> 
<ellipse fill="#e98576" stroke="#e98576" cx="2522" cy="-306" rx="75.2018" ry="18"/> 
<a xlink:href="http://pir.georgetown.edu/cgi-bin/pt_graphvizView.pl?togoid=0030234" ><text id="GO:0030234" onmousemove="changeToText('GO:0030234')" onmouseout="changeBackText('GO:0030234')"  text-anchor="middle" x="2522" y="-306.8" font-family="Times,serif" font-size="14.00">GO:0030234</text></a>
<a xlink:href="http://pir.georgetown.edu/cgi-bin/pt_graphvizView.pl?tofile=304459" ><text id="r304459" onmousemove="changeToText2('r304459', 9)" onmouseout="changeBackText2('r304459', 9)"  text-anchor="middle" x="2522" y="-293.8" font-family="Times,serif" font-size="14.00">(9)</text>
 
</a> 
</g> 
<!-- c0&#45;&gt;v0 --> 
<g id="edge4" class="edge"><title>c0&#45;&gt;v0</title> 
<path fill="none" stroke="black" d="M2888.71,-368.23C2819.22,-358.385 2704.43,-341.488 2606,-324 2599.75,-322.89 2593.25,-321.677 2586.76,-320.428"/> 
<polygon fill="black" stroke="black" points="2587.09,-316.926 2576.6,-318.443 2585.75,-323.796 2587.09,-316.926"/> 
</g> 
<!-- b0 --> 
<g id="node7" class="node"><title>b0</title> 
<ellipse fill="#e98576" stroke="#e98576" cx="2690" cy="-306" rx="75.2018" ry="18"/> 
<a xlink:href="http://pir.georgetown.edu/cgi-bin/pt_graphvizView.pl?togoid=0005488" ><text id="GO:0005488" onmousemove="changeToText('GO:0005488')" onmouseout="changeBackText('GO:0005488')"  text-anchor="middle" x="2690" y="-306.8" font-family="Times,serif" font-size="14.00">GO:0005488</text></a>
<a xlink:href="http://pir.georgetown.edu/cgi-bin/pt_graphvizView.pl?tofile=304475" ><text id="r304475" onmousemove="changeToText2('r304475', 3)" onmouseout="changeBackText2('r304475', 3)"  text-anchor="middle" x="2690" y="-293.8" font-family="Times,serif" font-size="14.00">(3)</text>
 
</a> 
</g> 
<!-- c0&#45;&gt;b0 --> 
<g id="edge12" class="edge"><title>c0&#45;&gt;b0</title> 
<path fill="none" stroke="black" d="M2903.95,-364.161C2859.95,-352.406 2794.75,-334.986 2747.9,-322.469"/> 
<polygon fill="black" stroke="black" points="2748.76,-319.076 2738.19,-319.876 2746.95,-325.839 2748.76,-319.076"/> 
</g> 
<!-- o0 --> 
<g id="node19" class="node"><title>o0</title> 
<ellipse fill="#e98576" stroke="#e98576" cx="2863" cy="-306" rx="79.4447" ry="18"/> 
<a xlink:href="http://pir.georgetown.edu/cgi-bin/pt_graphvizView.pl?togoid=0005215" ><text id="GO:0005215" onmousemove="changeToText('GO:0005215')" onmouseout="changeBackText('GO:0005215')"  text-anchor="middle" x="2863" y="-306.8" font-family="Times,serif" font-size="14.00">GO:0005215</text></a>
<a xlink:href="http://pir.georgetown.edu/cgi-bin/pt_graphvizView.pl?tofile=304447" ><text id="r304447" onmousemove="changeToText2('r304447', 23)" onmouseout="changeBackText2('r304447', 23)"  text-anchor="middle" x="2863" y="-293.8" font-family="Times,serif" font-size="14.00">(23)</text>
 
</a> 
</g> 
<!-- c0&#45;&gt;o0 --> 
<g id="edge16" class="edge"><title>c0&#45;&gt;o0</title> 
<path fill="none" stroke="black" d="M2930.91,-360.411C2919.27,-351.257 2904.65,-339.755 2891.95,-329.772"/> 
<polygon fill="black" stroke="black" points="2893.96,-326.901 2883.94,-323.47 2889.64,-332.403 2893.96,-326.901"/> 
</g> 
<!-- k0 --> 
<g id="node34" class="node"><title>k0</title> 
<ellipse fill="#e98576" stroke="#e98576" cx="3041" cy="-306" rx="79.4447" ry="18"/> 
<a xlink:href="http://pir.georgetown.edu/cgi-bin/pt_graphvizView.pl?togoid=0005198" ><text id="GO:0005198" onmousemove="changeToText('GO:0005198')" onmouseout="changeBackText('GO:0005198')"  text-anchor="middle" x="3041" y="-306.8" font-family="Times,serif" font-size="14.00">GO:0005198</text></a>
<a xlink:href="http://pir.georgetown.edu/cgi-bin/pt_graphvizView.pl?tofile=304439" ><text id="r304439" onmousemove="changeToText2('r304439', 52)" onmouseout="changeBackText2('r304439', 52)"  text-anchor="middle" x="3041" y="-293.8" font-family="Times,serif" font-size="14.00">(52)</text>
 
</a> 
</g> 
<!-- c0&#45;&gt;k0 --> 
<g id="edge32" class="edge"><title>c0&#45;&gt;k0</title> 
<path fill="none" stroke="black" d="M2973.09,-360.411C2984.73,-351.257 2999.35,-339.755 3012.05,-329.772"/> 
<polygon fill="black" stroke="black" points="3014.36,-332.403 3020.06,-323.47 3010.04,-326.901 3014.36,-332.403"/> 
</g> 
<!-- r0 --> 
<g id="node57" class="node"><title>r0</title> 
<ellipse fill="#e98576" stroke="#e98576" cx="3219" cy="-306" rx="79.4447" ry="18"/> 
<a xlink:href="http://pir.georgetown.edu/cgi-bin/pt_graphvizView.pl?togoid=0003774" ><text id="GO:0003774" onmousemove="changeToText('GO:0003774')" onmouseout="changeBackText('GO:0003774')"  text-anchor="middle" x="3219" y="-306.8" font-family="Times,serif" font-size="14.00">GO:0003774</text></a>
<a xlink:href="http://pir.georgetown.edu/cgi-bin/pt_graphvizView.pl?tofile=304453" ><text id="r304453" onmousemove="changeToText2('r304453', 14)" onmouseout="changeBackText2('r304453', 14)"  text-anchor="middle" x="3219" y="-293.8" font-family="Times,serif" font-size="14.00">(14)</text>
 
</a> 
</g> 
<!-- c0&#45;&gt;r0 --> 
<g id="edge54" class="edge"><title>c0&#45;&gt;r0</title> 
<path fill="none" stroke="black" d="M3000.66,-364.242C3045.18,-352.572 3111.18,-335.268 3158.96,-322.742"/> 
<polygon fill="black" stroke="black" points="3160.08,-326.067 3168.86,-320.145 3158.3,-319.296 3160.08,-326.067"/> 
</g> 
<!-- t0 --> 
<g id="node58" class="node"><title>t0</title> 
<a xlink:href="http://pir.georgetown.edu/cgi-bin/pt_graphvizView.pl?togoid=0060089" > 
<ellipse fill="#dddddd" stroke="#dddddd" cx="3378" cy="-306" rx="61.1934" ry="18"/> 
<a xlink:href="http://pir.georgetown.edu/cgi-bin/pt_graphvizView.pl?togoid=0060089" ><text id="GO:0060089" onmousemove="changeToText('GO:0060089')" onmouseout="changeBackText('GO:0060089')"  text-anchor="middle" x="3378" y="-301.8" font-family="Times,serif" font-size="14.00">GO:0060089</text></a>
 
</a> 
</g> 
<!-- c0&#45;&gt;t0 --> 
<g id="edge74" class="edge"><title>c0&#45;&gt;t0</title> 
<path fill="none" stroke="black" d="M3017.07,-369.009C3088.48,-359.839 3206.37,-343.521 3307,-324 3312.29,-322.974 3317.78,-321.82 3323.26,-320.609"/> 
<polygon fill="black" stroke="black" points="3324.08,-324.011 3333.06,-318.383 3322.53,-317.185 3324.08,-324.011"/> 
</g> 
<!-- w0 --> 
<g id="node61" class="node"><title>w0</title> 
<ellipse fill="#e98576" stroke="#e98576" cx="3533" cy="-306" rx="75.2018" ry="18"/> 
<a xlink:href="http://pir.georgetown.edu/cgi-bin/pt_graphvizView.pl?togoid=0016209" ><text id="GO:0016209" onmousemove="changeToText('GO:0016209')" onmouseout="changeBackText('GO:0016209')"  text-anchor="middle" x="3533" y="-306.8" font-family="Times,serif" font-size="14.00">GO:0016209</text></a>
<a xlink:href="http://pir.georgetown.edu/cgi-bin/pt_graphvizView.pl?tofile=304461" ><text id="r304461" onmousemove="changeToText2('r304461', 8)" onmouseout="changeBackText2('r304461', 8)"  text-anchor="middle" x="3533" y="-293.8" font-family="Times,serif" font-size="14.00">(8)</text>
 
</a> 
</g> 
<!-- c0&#45;&gt;w0 --> 
<g id="edge58" class="edge"><title>c0&#45;&gt;w0</title> 
<path fill="none" stroke="black" d="M3022.08,-371.533C3118.39,-363.561 3296.91,-347.132 3448,-324 3454.7,-322.975 3461.67,-321.784 3468.61,-320.519"/> 
<polygon fill="black" stroke="black" points="3469.53,-323.906 3478.72,-318.621 3468.24,-317.026 3469.53,-323.906"/> 
</g> 
<!-- e1 --> 
<g id="node9" class="node"><title>e1</title> 
<ellipse fill="#e98576" stroke="#e98576" cx="1637" cy="-234" rx="75.2018" ry="18"/> 
<a xlink:href="http://pir.georgetown.edu/cgi-bin/pt_graphvizView.pl?togoid=0042277" ><text id="GO:0042277" onmousemove="changeToText('GO:0042277')" onmouseout="changeBackText('GO:0042277')"  text-anchor="middle" x="1637" y="-234.8" font-family="Times,serif" font-size="14.00">GO:0042277</text></a>
<a xlink:href="http://pir.georgetown.edu/cgi-bin/pt_graphvizView.pl?tofile=304481" ><text id="r304481" onmousemove="changeToText2('r304481', 3)" onmouseout="changeBackText2('r304481', 3)"  text-anchor="middle" x="1637" y="-221.8" font-family="Times,serif" font-size="14.00">(3)</text>
 
</a> 
</g> 
<!-- b0&#45;&gt;e1 --> 
<g id="edge6" class="edge"><title>b0&#45;&gt;e1</title> 
<path fill="none" stroke="black" d="M2637.33,-293.009C2626.99,-291.033 2616.19,-289.231 2606,-288 2215.18,-240.808 2111.82,-299.192 1721,-252 1714.15,-251.173 1707.03,-250.088 1699.96,-248.866"/> 
<polygon fill="black" stroke="black" points="1700.13,-245.34 1689.67,-246.991 1698.88,-252.227 1700.13,-245.34"/> 
</g> 
<!-- i0 --> 
<g id="node11" class="node"><title>i0</title> 
<ellipse fill="#e98576" stroke="#e98576" cx="1810" cy="-234" rx="79.4447" ry="18"/> 
<a xlink:href="http://pir.georgetown.edu/cgi-bin/pt_graphvizView.pl?togoid=0005515" ><text id="GO:0005515" onmousemove="changeToText('GO:0005515')" onmouseout="changeBackText('GO:0005515')"  text-anchor="middle" x="1810" y="-234.8" font-family="Times,serif" font-size="14.00">GO:0005515</text></a>
<a xlink:href="http://pir.georgetown.edu/cgi-bin/pt_graphvizView.pl?tofile=304435" ><text id="r304435" onmousemove="changeToText2('r304435', 65)" onmouseout="changeBackText2('r304435', 65)"  text-anchor="middle" x="1810" y="-221.8" font-family="Times,serif" font-size="14.00">(65)</text>
 
</a> 
</g> 
<!-- b0&#45;&gt;i0 --> 
<g id="edge8" class="edge"><title>b0&#45;&gt;i0</title> 
<path fill="none" stroke="black" d="M2637.32,-293.093C2626.98,-291.109 2616.19,-289.283 2606,-288 2293.84,-248.686 2211.37,-289.605 1899,-252 1891.42,-251.088 1883.52,-249.911 1875.69,-248.602"/> 
<polygon fill="black" stroke="black" points="1876.29,-245.154 1865.84,-246.884 1875.09,-252.05 1876.29,-245.154"/> 
</g> 
<!-- f1 --> 
<g id="node13" class="node"><title>f1</title> 
<ellipse fill="#e98576" stroke="#e98576" cx="1983" cy="-234" rx="75.2018" ry="18"/> 
<a xlink:href="http://pir.georgetown.edu/cgi-bin/pt_graphvizView.pl?togoid=0043021" ><text id="GO:0043021" onmousemove="changeToText('GO:0043021')" onmouseout="changeBackText('GO:0043021')"  text-anchor="middle" x="1983" y="-234.8" font-family="Times,serif" font-size="14.00">GO:0043021</text></a>
<a xlink:href="http://pir.georgetown.edu/cgi-bin/pt_graphvizView.pl?tofile=304483" ><text id="r304483" onmousemove="changeToText2('r304483', 2)" onmouseout="changeBackText2('r304483', 2)"  text-anchor="middle" x="1983" y="-221.8" font-family="Times,serif" font-size="14.00">(2)</text>
 
</a> 
</g> 
<!-- b0&#45;&gt;f1 --> 
<g id="edge10" class="edge"><title>b0&#45;&gt;f1</title> 
<path fill="none" stroke="black" d="M2636.86,-293.135C2626.66,-291.173 2616.03,-289.344 2606,-288 2368.04,-256.118 2304.96,-283.882 2067,-252 2060.26,-251.097 2053.25,-249.975 2046.29,-248.741"/> 
<polygon fill="black" stroke="black" points="2046.61,-245.242 2036.14,-246.865 2045.34,-252.126 2046.61,-245.242"/> 
</g> 
<!-- a0 --> 
<g id="node21" class="node"><title>a0</title> 
<ellipse fill="#e98576" stroke="#e98576" cx="2161" cy="-234" rx="84.1886" ry="18"/> 
<a xlink:href="http://pir.georgetown.edu/cgi-bin/pt_graphvizView.pl?togoid=0043167" ><text id="GO:0043167" onmousemove="changeToText('GO:0043167')" onmouseout="changeBackText('GO:0043167')"  text-anchor="middle" x="2161" y="-234.8" font-family="Times,serif" font-size="14.00">GO:0043167</text></a>
<a xlink:href="http://pir.georgetown.edu/cgi-bin/pt_graphvizView.pl?tofile=304425" ><text id="r304425" onmousemove="changeToText2('r304425', 241)" onmouseout="changeBackText2('r304425', 241)"  text-anchor="middle" x="2161" y="-221.8" font-family="Times,serif" font-size="14.00">(241)</text>
 
</a> 
</g> 
<!-- b0&#45;&gt;a0 --> 
<g id="edge18" class="edge"><title>b0&#45;&gt;a0</title> 
<path fill="none" stroke="black" d="M2636.37,-293.335C2626.31,-291.378 2615.86,-289.499 2606,-288 2450.96,-264.419 2410.27,-273.97 2255,-252 2247.32,-250.914 2239.31,-249.657 2231.35,-248.328"/> 
<polygon fill="black" stroke="black" points="2231.76,-244.848 2221.32,-246.615 2230.58,-251.748 2231.76,-244.848"/> 
</g> 
<!-- z0 --> 
<g id="node24" class="node"><title>z0</title> 
<ellipse fill="#e98576" stroke="#e98576" cx="2339" cy="-234" rx="75.2018" ry="18"/> 
<a xlink:href="http://pir.georgetown.edu/cgi-bin/pt_graphvizView.pl?togoid=0030246" ><text id="GO:0030246" onmousemove="changeToText('GO:0030246')" onmouseout="changeBackText('GO:0030246')"  text-anchor="middle" x="2339" y="-234.8" font-family="Times,serif" font-size="14.00">GO:0030246</text></a>
<a xlink:href="http://pir.georgetown.edu/cgi-bin/pt_graphvizView.pl?tofile=304467" ><text id="r304467" onmousemove="changeToText2('r304467', 6)" onmouseout="changeBackText2('r304467', 6)"  text-anchor="middle" x="2339" y="-221.8" font-family="Times,serif" font-size="14.00">(6)</text>
 
</a> 
</g> 
<!-- b0&#45;&gt;z0 --> 
<g id="edge22" class="edge"><title>b0&#45;&gt;z0</title> 
<path fill="none" stroke="black" d="M2634.43,-293.71C2624.95,-291.795 2615.19,-289.834 2606,-288 2524.71,-271.779 2504.29,-268.221 2423,-252 2416.97,-250.796 2410.69,-249.538 2404.41,-248.274"/> 
<polygon fill="black" stroke="black" points="2405.06,-244.835 2394.57,-246.29 2403.68,-251.697 2405.06,-244.835"/> 
</g> 
<!-- j0 --> 
<g id="node28" class="node"><title>j0</title> 
<ellipse fill="#e98576" stroke="#e98576" cx="2512" cy="-234" rx="79.4447" ry="18"/> 
<a xlink:href="http://pir.georgetown.edu/cgi-bin/pt_graphvizView.pl?togoid=0003676" ><text id="GO:0003676" onmousemove="changeToText('GO:0003676')" onmouseout="changeBackText('GO:0003676')"  text-anchor="middle" x="2512" y="-234.8" font-family="Times,serif" font-size="14.00">GO:0003676</text></a>
<a xlink:href="http://pir.georgetown.edu/cgi-bin/pt_graphvizView.pl?tofile=304437" ><text id="r304437" onmousemove="changeToText2('r304437', 53)" onmouseout="changeBackText2('r304437', 53)"  text-anchor="middle" x="2512" y="-221.8" font-family="Times,serif" font-size="14.00">(53)</text>
 
</a> 
</g> 
<!-- b0&#45;&gt;j0 --> 
<g id="edge26" class="edge"><title>b0&#45;&gt;j0</title> 
<path fill="none" stroke="black" d="M2652.69,-290.326C2625.57,-279.664 2588.67,-265.152 2559.46,-253.666"/> 
<polygon fill="black" stroke="black" points="2560.47,-250.299 2549.88,-249.896 2557.9,-256.813 2560.47,-250.299"/> 
</g> 
<!-- q0 --> 
<g id="node36" class="node"><title>q0</title> 
<ellipse fill="#e98576" stroke="#e98576" cx="2690" cy="-234" rx="79.4447" ry="18"/> 
<a xlink:href="http://pir.georgetown.edu/cgi-bin/pt_graphvizView.pl?togoid=0048037" ><text id="GO:0048037" onmousemove="changeToText('GO:0048037')" onmouseout="changeBackText('GO:0048037')"  text-anchor="middle" x="2690" y="-234.8" font-family="Times,serif" font-size="14.00">GO:0048037</text></a>
<a xlink:href="http://pir.georgetown.edu/cgi-bin/pt_graphvizView.pl?tofile=304451" ><text id="r304451" onmousemove="changeToText2('r304451', 18)" onmouseout="changeBackText2('r304451', 18)"  text-anchor="middle" x="2690" y="-221.8" font-family="Times,serif" font-size="14.00">(18)</text>
 
</a> 
</g> 
<!-- b0&#45;&gt;q0 --> 
<g id="edge34" class="edge"><title>b0&#45;&gt;q0</title> 
<path fill="none" stroke="black" d="M2690,-287.697C2690,-279.983 2690,-270.712 2690,-262.112"/> 
<polygon fill="black" stroke="black" points="2693.5,-262.104 2690,-252.104 2686.5,-262.104 2693.5,-262.104"/> 
</g> 
<!-- a1 --> 
<g id="node41" class="node"><title>a1</title> 
<ellipse fill="#e98576" stroke="#e98576" cx="2863" cy="-234" rx="75.2018" ry="18"/> 
<a xlink:href="http://pir.georgetown.edu/cgi-bin/pt_graphvizView.pl?togoid=0008289" ><text id="GO:0008289" onmousemove="changeToText('GO:0008289')" onmouseout="changeBackText('GO:0008289')"  text-anchor="middle" x="2863" y="-234.8" font-family="Times,serif" font-size="14.00">GO:0008289</text></a>
<a xlink:href="http://pir.georgetown.edu/cgi-bin/pt_graphvizView.pl?tofile=304469" ><text id="r304469" onmousemove="changeToText2('r304469', 5)" onmouseout="changeBackText2('r304469', 5)"  text-anchor="middle" x="2863" y="-221.8" font-family="Times,serif" font-size="14.00">(5)</text>
 
</a> 
</g> 
<!-- b0&#45;&gt;a1 --> 
<g id="edge38" class="edge"><title>b0&#45;&gt;a1</title> 
<path fill="none" stroke="black" d="M2726.69,-290.155C2753.07,-279.482 2788.82,-265.016 2817.09,-253.577"/> 
<polygon fill="black" stroke="black" points="2818.41,-256.819 2826.36,-249.824 2815.78,-250.33 2818.41,-256.819"/> 
</g> 
<!-- h0 --> 
<g id="node51" class="node"><title>h0</title> 
<ellipse fill="#e98576" stroke="#e98576" cx="3036" cy="-234" rx="79.4447" ry="18"/> 
<a xlink:href="http://pir.georgetown.edu/cgi-bin/pt_graphvizView.pl?togoid=0001882" ><text id="GO:0001882" onmousemove="changeToText('GO:0001882')" onmouseout="changeBackText('GO:0001882')"  text-anchor="middle" x="3036" y="-234.8" font-family="Times,serif" font-size="14.00">GO:0001882</text></a>
<a xlink:href="http://pir.georgetown.edu/cgi-bin/pt_graphvizView.pl?tofile=304433" ><text id="r304433" onmousemove="changeToText2('r304433', 66)" onmouseout="changeBackText2('r304433', 66)"  text-anchor="middle" x="3036" y="-221.8" font-family="Times,serif" font-size="14.00">(66)</text>
 
</a> 
</g> 
<!-- b0&#45;&gt;h0 --> 
<g id="edge48" class="edge"><title>b0&#45;&gt;h0</title> 
<path fill="none" stroke="black" d="M2745.59,-293.753C2806.34,-281.464 2903.65,-261.777 2968.67,-248.621"/> 
<polygon fill="black" stroke="black" points="2969.71,-251.982 2978.82,-246.568 2968.32,-245.121 2969.71,-251.982"/> 
</g> 
<!-- e0 --> 
<g id="node53" class="node"><title>e0</title> 
<ellipse fill="#e98576" stroke="#e98576" cx="3219" cy="-234" rx="84.1886" ry="18"/> 
<a xlink:href="http://pir.georgetown.edu/cgi-bin/pt_graphvizView.pl?togoid=0008144" ><text id="GO:0008144" onmousemove="changeToText('GO:0008144')" onmouseout="changeBackText('GO:0008144')"  text-anchor="middle" x="3219" y="-234.8" font-family="Times,serif" font-size="14.00">GO:0008144</text></a>
<a xlink:href="http://pir.georgetown.edu/cgi-bin/pt_graphvizView.pl?tofile=304429" ><text id="r304429" onmousemove="changeToText2('r304429', 122)" onmouseout="changeBackText2('r304429', 122)"  text-anchor="middle" x="3219" y="-221.8" font-family="Times,serif" font-size="14.00">(122)</text>
 
</a> 
</g> 
<!-- b0&#45;&gt;e0 --> 
<g id="edge50" class="edge"><title>b0&#45;&gt;e0</title> 
<path fill="none" stroke="black" d="M2743.64,-293.337C2753.69,-291.38 2764.14,-289.5 2774,-288 2928.59,-264.463 2969.15,-273.788 3124,-252 3131.9,-250.888 3140.15,-249.601 3148.35,-248.243"/> 
<polygon fill="black" stroke="black" points="3149.02,-251.68 3158.29,-246.559 3147.85,-244.779 3149.02,-251.68"/> 
</g> 
<!-- h1 --> 
<g id="node55" class="node"><title>h1</title> 
<ellipse fill="#e98576" stroke="#e98576" cx="3397" cy="-234" rx="75.2018" ry="18"/> 
<a xlink:href="http://pir.georgetown.edu/cgi-bin/pt_graphvizView.pl?togoid=0019842" ><text id="GO:0019842" onmousemove="changeToText('GO:0019842')" onmouseout="changeBackText('GO:0019842')"  text-anchor="middle" x="3397" y="-234.8" font-family="Times,serif" font-size="14.00">GO:0019842</text></a>
<a xlink:href="http://pir.georgetown.edu/cgi-bin/pt_graphvizView.pl?tofile=304487" ><text id="r304487" onmousemove="changeToText2('r304487', 1)" onmouseout="changeBackText2('r304487', 1)"  text-anchor="middle" x="3397" y="-221.8" font-family="Times,serif" font-size="14.00">(1)</text>
 
</a> 
</g> 
<!-- b0&#45;&gt;h1 --> 
<g id="edge52" class="edge"><title>b0&#45;&gt;h1</title> 
<path fill="none" stroke="black" d="M2743.14,-293.136C2753.34,-291.174 2763.97,-289.344 2774,-288 3011.52,-256.162 3074.44,-283.566 3312,-252 3319.08,-251.06 3326.45,-249.884 3333.77,-248.593"/> 
<polygon fill="black" stroke="black" points="3334.47,-252.022 3343.67,-246.771 3333.21,-245.137 3334.47,-252.022"/> 
</g> 
<!-- d1 --> 
<g id="node70" class="node"><title>d1</title> 
<ellipse fill="#e98576" stroke="#e98576" cx="3565" cy="-234" rx="75.2018" ry="18"/> 
<a xlink:href="http://pir.georgetown.edu/cgi-bin/pt_graphvizView.pl?togoid=0046906" ><text id="GO:0046906" onmousemove="changeToText('GO:0046906')" onmouseout="changeBackText('GO:0046906')"  text-anchor="middle" x="3565" y="-234.8" font-family="Times,serif" font-size="14.00">GO:0046906</text></a>
<a xlink:href="http://pir.georgetown.edu/cgi-bin/pt_graphvizView.pl?tofile=304479" ><text id="r304479" onmousemove="changeToText2('r304479', 3)" onmouseout="changeBackText2('r304479', 3)"  text-anchor="middle" x="3565" y="-221.8" font-family="Times,serif" font-size="14.00">(3)</text>
 
</a> 
</g> 
<!-- b0&#45;&gt;d1 --> 
<g id="edge68" class="edge"><title>b0&#45;&gt;d1</title> 
<path fill="none" stroke="black" d="M2742.68,-293.093C2753.02,-291.109 2763.81,-289.283 2774,-288 3086.16,-248.686 3168.84,-291.314 3481,-252 3487.84,-251.138 3494.96,-250.031 3502.03,-248.795"/> 
<polygon fill="black" stroke="black" points="3503.12,-252.155 3512.32,-246.907 3501.86,-245.27 3503.12,-252.155"/> 
</g> 
<!-- d0 --> 
<g id="node72" class="node"><title>d0</title> 
<ellipse fill="#e98576" stroke="#e98576" cx="3743" cy="-234" rx="84.1886" ry="18"/> 
<a xlink:href="http://pir.georgetown.edu/cgi-bin/pt_graphvizView.pl?togoid=0000166" ><text id="GO:0000166" onmousemove="changeToText('GO:0000166')" onmouseout="changeBackText('GO:0000166')"  text-anchor="middle" x="3743" y="-234.8" font-family="Times,serif" font-size="14.00">GO:0000166</text></a>
<a xlink:href="http://pir.georgetown.edu/cgi-bin/pt_graphvizView.pl?tofile=304427" ><text id="r304427" onmousemove="changeToText2('r304427', 201)" onmouseout="changeBackText2('r304427', 201)"  text-anchor="middle" x="3743" y="-221.8" font-family="Times,serif" font-size="14.00">(201)</text>
 
</a> 
</g> 
<!-- b0&#45;&gt;d0 --> 
<g id="edge70" class="edge"><title>b0&#45;&gt;d0</title> 
<path fill="none" stroke="black" d="M2742.67,-293.013C2753.01,-291.037 2763.81,-289.233 2774,-288 3160.4,-241.251 3262.14,-294.735 3649,-252 3657.09,-251.107 3665.52,-249.932 3673.88,-248.615"/> 
<polygon fill="black" stroke="black" points="3674.71,-252.026 3684.01,-246.95 3673.58,-245.119 3674.71,-252.026"/> 
</g> 
<!-- n0 --> 
<g id="node17" class="node"><title>n0</title> 
<ellipse fill="#e98576" stroke="#e98576" cx="248" cy="-162" rx="79.4447" ry="18"/> 
<a xlink:href="http://pir.georgetown.edu/cgi-bin/pt_graphvizView.pl?togoid=0008233" ><text id="GO:0008233" onmousemove="changeToText('GO:0008233')" onmouseout="changeBackText('GO:0008233')"  text-anchor="middle" x="248" y="-162.8" font-family="Times,serif" font-size="14.00">GO:0008233</text></a>
<a xlink:href="http://pir.georgetown.edu/cgi-bin/pt_graphvizView.pl?tofile=304445" ><text id="r304445" onmousemove="changeToText2('r304445', 29)" onmouseout="changeBackText2('r304445', 29)"  text-anchor="middle" x="248" y="-149.8" font-family="Times,serif" font-size="14.00">(29)</text>
 
</a> 
</g> 
<!-- f0&#45;&gt;n0 --> 
<g id="edge14" class="edge"><title>f0&#45;&gt;n0</title> 
<path fill="none" stroke="black" d="M248,-215.697C248,-207.983 248,-198.712 248,-190.112"/> 
<polygon fill="black" stroke="black" points="251.5,-190.104 248,-180.104 244.5,-190.104 251.5,-190.104"/> 
</g> 
<!-- l1 --> 
<g id="node43" class="node"><title>l1</title> 
<a xlink:href="http://pir.georgetown.edu/cgi-bin/pt_graphvizView.pl?togoid=0016879" > 
<ellipse fill="#dddddd" stroke="#dddddd" cx="426" cy="-162" rx="61.1934" ry="18"/> 
<a xlink:href="http://pir.georgetown.edu/cgi-bin/pt_graphvizView.pl?togoid=0016879" ><text id="GO:0016879" onmousemove="changeToText('GO:0016879')" onmouseout="changeBackText('GO:0016879')"  text-anchor="middle" x="426" y="-157.8" font-family="Times,serif" font-size="14.00">GO:0016879</text></a>
 
</a> 
</g> 
<!-- p0&#45;&gt;l1 --> 
<g id="edge40" class="edge"><title>p0&#45;&gt;l1</title> 
<path fill="none" stroke="black" d="M426,-215.697C426,-207.983 426,-198.712 426,-190.112"/> 
<polygon fill="black" stroke="black" points="429.5,-190.104 426,-180.104 422.5,-190.104 429.5,-190.104"/> 
</g> 
<!-- b1 --> 
<g id="node66" class="node"><title>b1</title> 
<ellipse fill="#e98576" stroke="#e98576" cx="604" cy="-162" rx="75.2018" ry="18"/> 
<a xlink:href="http://pir.georgetown.edu/cgi-bin/pt_graphvizView.pl?togoid=0009055" ><text id="GO:0009055" onmousemove="changeToText('GO:0009055')" onmouseout="changeBackText('GO:0009055')"  text-anchor="middle" x="604" y="-162.8" font-family="Times,serif" font-size="14.00">GO:0009055</text></a>
<a xlink:href="http://pir.georgetown.edu/cgi-bin/pt_graphvizView.pl?tofile=304473" ><text id="r304473" onmousemove="changeToText2('r304473', 3)" onmouseout="changeBackText2('r304473', 3)"  text-anchor="middle" x="604" y="-149.8" font-family="Times,serif" font-size="14.00">(3)</text>
 
</a> 
</g> 
<!-- m0&#45;&gt;b1 --> 
<g id="edge64" class="edge"><title>m0&#45;&gt;b1</title> 
<path fill="none" stroke="black" d="M604,-215.697C604,-207.983 604,-198.712 604,-190.112"/> 
<polygon fill="black" stroke="black" points="607.5,-190.104 604,-180.104 600.5,-190.104 607.5,-190.104"/> 
</g> 
<!-- s0 --> 
<g id="node37" class="node"><title>s0</title> 
<ellipse fill="#e98576" stroke="#e98576" cx="3926" cy="-234" rx="79.4447" ry="18"/> 
<a xlink:href="http://pir.georgetown.edu/cgi-bin/pt_graphvizView.pl?togoid=0004871" ><text id="GO:0004871" onmousemove="changeToText('GO:0004871')" onmouseout="changeBackText('GO:0004871')"  text-anchor="middle" x="3926" y="-234.8" font-family="Times,serif" font-size="14.00">GO:0004871</text></a>
<a xlink:href="http://pir.georgetown.edu/cgi-bin/pt_graphvizView.pl?tofile=304455" ><text id="r304455" onmousemove="changeToText2('r304455', 12)" onmouseout="changeBackText2('r304455', 12)"  text-anchor="middle" x="3926" y="-221.8" font-family="Times,serif" font-size="14.00">(12)</text>
 
</a> 
</g> 
<!-- c1 --> 
<g id="node39" class="node"><title>c1</title> 
<ellipse fill="#e98576" stroke="#e98576" cx="3926" cy="-162" rx="75.2018" ry="18"/> 
<a xlink:href="http://pir.georgetown.edu/cgi-bin/pt_graphvizView.pl?togoid=0004872" ><text id="GO:0004872" onmousemove="changeToText('GO:0004872')" onmouseout="changeBackText('GO:0004872')"  text-anchor="middle" x="3926" y="-162.8" font-family="Times,serif" font-size="14.00">GO:0004872</text></a>
<a xlink:href="http://pir.georgetown.edu/cgi-bin/pt_graphvizView.pl?tofile=304477" ><text id="r304477" onmousemove="changeToText2('r304477', 3)" onmouseout="changeBackText2('r304477', 3)"  text-anchor="middle" x="3926" y="-149.8" font-family="Times,serif" font-size="14.00">(3)</text>
 
</a> 
</g> 
<!-- s0&#45;&gt;c1 --> 
<g id="edge36" class="edge"><title>s0&#45;&gt;c1</title> 
<path fill="none" stroke="black" d="M3926,-215.697C3926,-207.983 3926,-198.712 3926,-190.112"/> 
<polygon fill="black" stroke="black" points="3929.5,-190.104 3926,-180.104 3922.5,-190.104 3929.5,-190.104"/> 
</g> 
<!-- k1 --> 
<g id="node44" class="node"><title>k1</title> 
<a xlink:href="http://pir.georgetown.edu/cgi-bin/pt_graphvizView.pl?togoid=0016881" > 
<ellipse fill="#dddddd" stroke="#dddddd" cx="426" cy="-90" rx="61.1934" ry="18"/> 
<a xlink:href="http://pir.georgetown.edu/cgi-bin/pt_graphvizView.pl?togoid=0016881" ><text id="GO:0016881" onmousemove="changeToText('GO:0016881')" onmouseout="changeBackText('GO:0016881')"  text-anchor="middle" x="426" y="-85.8" font-family="Times,serif" font-size="14.00">GO:0016881</text></a>
 
</a> 
</g> 
<!-- l1&#45;&gt;k1 --> 
<g id="edge62" class="edge"><title>l1&#45;&gt;k1</title> 
<path fill="none" stroke="black" d="M426,-143.697C426,-135.983 426,-126.712 426,-118.112"/> 
<polygon fill="black" stroke="black" points="429.5,-118.104 426,-108.104 422.5,-118.104 429.5,-118.104"/> 
</g> 
<!-- j1 --> 
<g id="node46" class="node"><title>j1</title> 
<ellipse fill="#e98576" stroke="#e98576" cx="426" cy="-18" rx="75.2018" ry="18"/> 
<a xlink:href="http://pir.georgetown.edu/cgi-bin/pt_graphvizView.pl?togoid=0019787" ><text id="GO:0019787" onmousemove="changeToText('GO:0019787')" onmouseout="changeBackText('GO:0019787')"  text-anchor="middle" x="426" y="-18.8" font-family="Times,serif" font-size="14.00">GO:0019787</text></a>
<a xlink:href="http://pir.georgetown.edu/cgi-bin/pt_graphvizView.pl?tofile=304491" ><text id="r304491" onmousemove="changeToText2('r304491', 1)" onmouseout="changeBackText2('r304491', 1)"  text-anchor="middle" x="426" y="-5.8" font-family="Times,serif" font-size="14.00">(1)</text>
 
</a> 
</g> 
<!-- k1&#45;&gt;j1 --> 
<g id="edge42" class="edge"><title>k1&#45;&gt;j1</title> 
<path fill="none" stroke="black" d="M426,-71.6966C426,-63.9827 426,-54.7125 426,-46.1124"/> 
<polygon fill="black" stroke="black" points="429.5,-46.1043 426,-36.1043 422.5,-46.1044 429.5,-46.1043"/> 
</g> 
<!-- t0&#45;&gt;s0 --> 
<g id="edge56" class="edge"><title>t0&#45;&gt;s0</title> 
<path fill="none" stroke="black" d="M3422.11,-293.411C3430.97,-291.375 3440.25,-289.448 3449,-288 3619.43,-259.817 3664.94,-276.058 3836,-252 3843.45,-250.953 3851.21,-249.713 3858.92,-248.386"/> 
<polygon fill="black" stroke="black" points="3859.76,-251.792 3869,-246.602 3858.54,-244.899 3859.76,-251.792"/> 
</g> 
</g> 
<text text-anchor="left" x="4" y="-20" style="font-family:Arial Narrow;font-size:20.00;font-weight:bold;">GO Hierarchical View:</text> 

<text text-anchor="left" x="4" y="0" style="font-family:Arial Narrow;font-size:20.00;font-style:italic;">molecular function</text> 

<script type="text/ecmascript"> 
<![CDATA[ 
var targetText; 
function changeToText(z) { 
		targetText = svgDocument.getElementById(z).firstChild; 
		targetText.nodeValue="link to "+z; 
} 
function changeBackText(z) { 
		targetText = svgDocument.getElementById(z).firstChild; 
		targetText.nodeValue=z; 
} 
function changeToText2(z,n) { 
		targetText = svgDocument.getElementById(z).firstChild; 
		if (n<=1) { 
			targetText.nodeValue="link to " + n + " protein record"; 
		} else { 
			targetText.nodeValue="link to " + n + " protein records"; 
		} 
} 
function changeBackText2(z,n) { 
		targetText = svgDocument.getElementById(z).firstChild; 
		targetText.nodeValue="(" + n + ")"; 
} 
// ]]> 
</script> 
</svg> 
