<?xml version="1.0" encoding="UTF-8" standalone="no"?> 
<!DOCTYPE svg PUBLIC "-//W3C//DTD SVG 1.1//EN" 
 "http://www.w3.org/Graphics/SVG/1.1/DTD/svg11.dtd"> 
<!-- Generated by graphviz version 2.28.0 (20110622.2320) 
 --> 
<!-- Title: G Pages: 1 --> 
<svg width="2000" height="1000"  
 viewBox="-30 -50 2000 1000" xmlns="http://www.w3.org/2000/svg" xmlns:xlink="http://www.w3.org/1999/xlink"> 
<g id="graph1" class="graph" transform="scale(1 1) rotate(0) translate(4 904)"> 
<title>G</title> 
<polygon fill="white" stroke="white" points="-4,5 -4,-904 1060.78,-904 1060.78,5 -4,5"/> 
<!-- u0 --> 
<g id="node1" class="node"><title>u0</title> 
<a xlink:href="http://pir.georgetown.edu/cgi-bin/pt_graphvizView.pl?togoid=0005654" > 
<ellipse fill="#dddddd" stroke="#dddddd" cx="722.776" cy="-162" rx="61.1934" ry="18"/> 
<a xlink:href="http://pir.georgetown.edu/cgi-bin/pt_graphvizView.pl?togoid=0005654" ><text id="GO:0005654" onmousemove="changeToText('GO:0005654')" onmouseout="changeBackText('GO:0005654')"  text-anchor="middle" x="722.776" y="-157.8" font-family="Times,serif" font-size="14.00">GO:0005654</text></a>
 
</a> 
</g> 
<!-- t0 --> 
<g id="node3" class="node"><title>t0</title> 
<a xlink:href="http://pir.georgetown.edu/cgi-bin/pt_graphvizView.pl?togoid=0044451" > 
<ellipse fill="#dddddd" stroke="#dddddd" cx="722.776" cy="-90" rx="61.1934" ry="18"/> 
<a xlink:href="http://pir.georgetown.edu/cgi-bin/pt_graphvizView.pl?togoid=0044451" ><text id="GO:0044451" onmousemove="changeToText('GO:0044451')" onmouseout="changeBackText('GO:0044451')"  text-anchor="middle" x="722.776" y="-85.8" font-family="Times,serif" font-size="14.00">GO:0044451</text></a>
 
</a> 
</g> 
<!-- u0&#45;&gt;t0 --> 
<g id="edge2" class="edge"><title>u0&#45;&gt;t0</title> 
<path fill="none" stroke="black" d="M722.776,-143.697C722.776,-135.983 722.776,-126.712 722.776,-118.112"/> 
<polygon fill="black" stroke="black" points="726.276,-118.104 722.776,-108.104 719.276,-118.104 726.276,-118.104"/> 
</g> 
<!-- s0 --> 
<g id="node8" class="node"><title>s0</title> 
<ellipse fill="#e98576" stroke="#e98576" cx="825.776" cy="-18" rx="75.2018" ry="18"/> 
<a xlink:href="http://pir.georgetown.edu/cgi-bin/pt_graphvizView.pl?togoid=0017053" ><text id="GO:0017053" onmousemove="changeToText('GO:0017053')" onmouseout="changeBackText('GO:0017053')"  text-anchor="middle" x="825.776" y="-18.8" font-family="Times,serif" font-size="14.00">GO:0017053</text></a>
<a xlink:href="http://pir.georgetown.edu/cgi-bin/pt_graphvizView.pl?tofile=25799" ><text id="r25799" onmousemove="changeToText2('r25799', 1)" onmouseout="changeBackText2('r25799', 1)"  text-anchor="middle" x="825.776" y="-5.8" font-family="Times,serif" font-size="14.00">(1)</text>
 
</a> 
</g> 
<!-- t0&#45;&gt;s0 --> 
<g id="edge8" class="edge"><title>t0&#45;&gt;s0</title> 
<path fill="none" stroke="black" d="M745.891,-73.2906C760.004,-63.6996 778.252,-51.2979 793.744,-40.7693"/> 
<polygon fill="black" stroke="black" points="795.72,-43.6582 802.023,-35.1425 791.785,-37.8687 795.72,-43.6582"/> 
</g> 
<!-- z0 --> 
<g id="node4" class="node"><title>z0</title> 
<a xlink:href="http://pir.georgetown.edu/cgi-bin/pt_graphvizView.pl?togoid=0044428" > 
<ellipse fill="#dddddd" stroke="#dddddd" cx="614.776" cy="-306" rx="61.1934" ry="18"/> 
<a xlink:href="http://pir.georgetown.edu/cgi-bin/pt_graphvizView.pl?togoid=0044428" ><text id="GO:0044428" onmousemove="changeToText('GO:0044428')" onmouseout="changeBackText('GO:0044428')"  text-anchor="middle" x="614.776" y="-301.8" font-family="Times,serif" font-size="14.00">GO:0044428</text></a>
 
</a> 
</g> 
<!-- z0&#45;&gt;u0 --> 
<g id="edge70" class="edge"><title>z0&#45;&gt;u0</title> 
<path fill="none" stroke="black" d="M624.348,-287.932C634.988,-269.507 653.139,-239.626 671.776,-216 679.808,-205.818 689.494,-195.373 698.258,-186.476"/> 
<polygon fill="black" stroke="black" points="700.737,-188.947 705.345,-179.407 695.793,-183.991 700.737,-188.947"/> 
</g> 
<!-- z0&#45;&gt;t0 --> 
<g id="edge4" class="edge"><title>z0&#45;&gt;t0</title> 
<path fill="none" stroke="black" d="M615.113,-287.532C616.489,-256.262 622.997,-189.725 652.776,-144 661.157,-131.131 673.783,-120.182 686.015,-111.636"/> 
<polygon fill="black" stroke="black" points="687.957,-114.548 694.363,-106.109 684.093,-108.711 687.957,-114.548"/> 
</g> 
<!-- v0 --> 
<g id="node12" class="node"><title>v0</title> 
<a xlink:href="http://pir.georgetown.edu/cgi-bin/pt_graphvizView.pl?togoid=0031981" > 
<ellipse fill="#dddddd" stroke="#dddddd" cx="741.776" cy="-234" rx="61.1934" ry="18"/> 
<a xlink:href="http://pir.georgetown.edu/cgi-bin/pt_graphvizView.pl?togoid=0031981" ><text id="GO:0031981" onmousemove="changeToText('GO:0031981')" onmouseout="changeBackText('GO:0031981')"  text-anchor="middle" x="741.776" y="-229.8" font-family="Times,serif" font-size="14.00">GO:0031981</text></a>
 
</a> 
</g> 
<!-- z0&#45;&gt;v0 --> 
<g id="edge12" class="edge"><title>z0&#45;&gt;v0</title> 
<path fill="none" stroke="black" d="M642.333,-289.811C660.806,-279.629 685.33,-266.112 705.402,-255.049"/> 
<polygon fill="black" stroke="black" points="707.204,-258.052 714.272,-250.159 703.825,-251.921 707.204,-258.052"/> 
</g> 
<!-- n0 --> 
<g id="node6" class="node"><title>n0</title> 
<ellipse fill="#e98576" stroke="#e98576" cx="979.776" cy="-306" rx="75.2018" ry="18"/> 
<a xlink:href="http://pir.georgetown.edu/cgi-bin/pt_graphvizView.pl?togoid=0043234" ><text id="GO:0043234" onmousemove="changeToText('GO:0043234')" onmouseout="changeBackText('GO:0043234')"  text-anchor="middle" x="979.776" y="-306.8" font-family="Times,serif" font-size="14.00">GO:0043234</text></a>
<a xlink:href="http://pir.georgetown.edu/cgi-bin/pt_graphvizView.pl?tofile=25793" ><text id="r25793" onmousemove="changeToText2('r25793', 2)" onmouseout="changeBackText2('r25793', 2)"  text-anchor="middle" x="979.776" y="-293.8" font-family="Times,serif" font-size="14.00">(2)</text>
 
</a> 
</g> 
<!-- n0&#45;&gt;s0 --> 
<g id="edge6" class="edge"><title>n0&#45;&gt;s0</title> 
<path fill="none" stroke="black" d="M970.604,-287.966C944.658,-239.781 870.62,-102.282 839.655,-44.776"/> 
<polygon fill="black" stroke="black" points="842.723,-43.0902 834.9,-35.9448 836.559,-46.4089 842.723,-43.0902"/> 
</g> 
<!-- w0 --> 
<g id="node10" class="node"><title>w0</title> 
<a xlink:href="http://pir.georgetown.edu/cgi-bin/pt_graphvizView.pl?togoid=0043233" > 
<ellipse fill="#dddddd" stroke="#dddddd" cx="874.776" cy="-450" rx="61.1934" ry="18"/> 
<a xlink:href="http://pir.georgetown.edu/cgi-bin/pt_graphvizView.pl?togoid=0043233" ><text id="GO:0043233" onmousemove="changeToText('GO:0043233')" onmouseout="changeBackText('GO:0043233')"  text-anchor="middle" x="874.776" y="-445.8" font-family="Times,serif" font-size="14.00">GO:0043233</text></a>
 
</a> 
</g> 
<!-- w0&#45;&gt;v0 --> 
<g id="edge10" class="edge"><title>w0&#45;&gt;v0</title> 
<path fill="none" stroke="black" d="M864.34,-432.208C841.185,-394.952 785.388,-305.172 757.787,-260.763"/> 
<polygon fill="black" stroke="black" points="760.599,-258.656 752.348,-252.01 754.654,-262.351 760.599,-258.656"/> 
</g> 
<!-- v0&#45;&gt;u0 --> 
<g id="edge68" class="edge"><title>v0&#45;&gt;u0</title> 
<path fill="none" stroke="black" d="M737.079,-215.697C734.962,-207.898 732.414,-198.509 730.058,-189.829"/> 
<polygon fill="black" stroke="black" points="733.416,-188.838 727.418,-180.104 726.66,-190.672 733.416,-188.838"/> 
</g> 
<!-- h0 --> 
<g id="node14" class="node"><title>h0</title> 
<a xlink:href="http://pir.georgetown.edu/cgi-bin/pt_graphvizView.pl?togoid=0044424" > 
<ellipse fill="#dddddd" stroke="#dddddd" cx="237.776" cy="-594" rx="61.1934" ry="18"/> 
<a xlink:href="http://pir.georgetown.edu/cgi-bin/pt_graphvizView.pl?togoid=0044424" ><text id="GO:0044424" onmousemove="changeToText('GO:0044424')" onmouseout="changeBackText('GO:0044424')"  text-anchor="middle" x="237.776" y="-589.8" font-family="Times,serif" font-size="14.00">GO:0044424</text></a>
 
</a> 
</g> 
<!-- g0 --> 
<g id="node16" class="node"><title>g0</title> 
<ellipse fill="#e98576" stroke="#e98576" cx="90.7758" cy="-522" rx="75.2018" ry="18"/> 
<a xlink:href="http://pir.georgetown.edu/cgi-bin/pt_graphvizView.pl?togoid=0005737" ><text id="GO:0005737" onmousemove="changeToText('GO:0005737')" onmouseout="changeBackText('GO:0005737')"  text-anchor="middle" x="90.7758" y="-522.8" font-family="Times,serif" font-size="14.00">GO:0005737</text></a>
<a xlink:href="http://pir.georgetown.edu/cgi-bin/pt_graphvizView.pl?tofile=25787" ><text id="r25787" onmousemove="changeToText2('r25787', 5)" onmouseout="changeBackText2('r25787', 5)"  text-anchor="middle" x="90.7758" y="-509.8" font-family="Times,serif" font-size="14.00">(5)</text>
 
</a> 
</g> 
<!-- h0&#45;&gt;g0 --> 
<g id="edge14" class="edge"><title>h0&#45;&gt;g0</title> 
<path fill="none" stroke="black" d="M206.96,-578.326C185.257,-567.991 155.957,-554.039 132.21,-542.731"/> 
<polygon fill="black" stroke="black" points="133.612,-539.521 123.078,-538.382 130.602,-545.842 133.612,-539.521"/> 
</g> 
<!-- l0 --> 
<g id="node28" class="node"><title>l0</title> 
<a xlink:href="http://pir.georgetown.edu/cgi-bin/pt_graphvizView.pl?togoid=0043229" > 
<ellipse fill="#dddddd" stroke="#dddddd" cx="282.776" cy="-522" rx="61.1934" ry="18"/> 
<a xlink:href="http://pir.georgetown.edu/cgi-bin/pt_graphvizView.pl?togoid=0043229" ><text id="GO:0043229" onmousemove="changeToText('GO:0043229')" onmouseout="changeBackText('GO:0043229')"  text-anchor="middle" x="282.776" y="-517.8" font-family="Times,serif" font-size="14.00">GO:0043229</text></a>
 
</a> 
</g> 
<!-- h0&#45;&gt;l0 --> 
<g id="edge26" class="edge"><title>h0&#45;&gt;l0</title> 
<path fill="none" stroke="black" d="M248.669,-576.055C254.031,-567.715 260.603,-557.491 266.543,-548.252"/> 
<polygon fill="black" stroke="black" points="269.519,-550.093 271.983,-539.789 263.631,-546.308 269.519,-550.093"/> 
</g> 
<!-- q0 --> 
<g id="node36" class="node"><title>q0</title> 
<a xlink:href="http://pir.georgetown.edu/cgi-bin/pt_graphvizView.pl?togoid=0044444" > 
<ellipse fill="#dddddd" stroke="#dddddd" cx="90.7758" cy="-450" rx="61.1934" ry="18"/> 
<a xlink:href="http://pir.georgetown.edu/cgi-bin/pt_graphvizView.pl?togoid=0044444" ><text id="GO:0044444" onmousemove="changeToText('GO:0044444')" onmouseout="changeBackText('GO:0044444')"  text-anchor="middle" x="90.7758" y="-445.8" font-family="Times,serif" font-size="14.00">GO:0044444</text></a>
 
</a> 
</g> 
<!-- h0&#45;&gt;q0 --> 
<g id="edge64" class="edge"><title>h0&#45;&gt;q0</title> 
<path fill="none" stroke="black" d="M180.088,-587.859C118.866,-581.067 28.0537,-566.713 6.77583,-540 -3.19291,-527.485 -0.950582,-518.011 6.77583,-504 15.1196,-488.87 29.8011,-477.464 44.5806,-469.185"/> 
<polygon fill="black" stroke="black" points="46.4778,-472.144 53.7397,-464.429 43.2519,-465.931 46.4778,-472.144"/> 
</g> 
<!-- a1 --> 
<g id="node68" class="node"><title>a1</title> 
<a xlink:href="http://pir.georgetown.edu/cgi-bin/pt_graphvizView.pl?togoid=0044446" > 
<ellipse fill="#dddddd" stroke="#dddddd" cx="288.776" cy="-450" rx="61.1934" ry="18"/> 
<a xlink:href="http://pir.georgetown.edu/cgi-bin/pt_graphvizView.pl?togoid=0044446" ><text id="GO:0044446" onmousemove="changeToText('GO:0044446')" onmouseout="changeBackText('GO:0044446')"  text-anchor="middle" x="288.776" y="-445.8" font-family="Times,serif" font-size="14.00">GO:0044446</text></a>
 
</a> 
</g> 
<!-- h0&#45;&gt;a1 --> 
<g id="edge80" class="edge"><title>h0&#45;&gt;a1</title> 
<path fill="none" stroke="black" d="M225.901,-576.157C214.452,-557.664 200.526,-527.478 212.776,-504 220.162,-489.844 233.246,-478.698 246.498,-470.356"/> 
<polygon fill="black" stroke="black" points="248.313,-473.349 255.174,-465.275 244.776,-467.309 248.313,-473.349"/> 
</g> 
<!-- g0&#45;&gt;q0 --> 
<g id="edge62" class="edge"><title>g0&#45;&gt;q0</title> 
<path fill="none" stroke="black" d="M90.7758,-503.697C90.7758,-495.983 90.7758,-486.712 90.7758,-478.112"/> 
<polygon fill="black" stroke="black" points="94.2759,-478.104 90.7758,-468.104 87.2759,-478.104 94.2759,-478.104"/> 
</g> 
<!-- c0 --> 
<g id="node17" class="node"><title>c0</title> 
<a xlink:href="http://pir.georgetown.edu/cgi-bin/pt_graphvizView.pl?togoid=0005575" > 
<ellipse fill="#dddddd" stroke="#dddddd" cx="698.776" cy="-882" rx="61.1934" ry="18"/> 
<a xlink:href="http://pir.georgetown.edu/cgi-bin/pt_graphvizView.pl?togoid=0005575" ><text id="GO:0005575" onmousemove="changeToText('GO:0005575')" onmouseout="changeBackText('GO:0005575')"  text-anchor="middle" x="698.776" y="-877.8" font-family="Times,serif" font-size="14.00">GO:0005575</text></a>
 
</a> 
</g> 
<!-- y0 --> 
<g id="node19" class="node"><title>y0</title> 
<a xlink:href="http://pir.georgetown.edu/cgi-bin/pt_graphvizView.pl?togoid=0044422" > 
<ellipse fill="#dddddd" stroke="#dddddd" cx="874.776" cy="-522" rx="61.1934" ry="18"/> 
<a xlink:href="http://pir.georgetown.edu/cgi-bin/pt_graphvizView.pl?togoid=0044422" ><text id="GO:0044422" onmousemove="changeToText('GO:0044422')" onmouseout="changeBackText('GO:0044422')"  text-anchor="middle" x="874.776" y="-517.8" font-family="Times,serif" font-size="14.00">GO:0044422</text></a>
 
</a> 
</g> 
<!-- c0&#45;&gt;y0 --> 
<g id="edge16" class="edge"><title>c0&#45;&gt;y0</title> 
<path fill="none" stroke="black" d="M698.776,-863.951C698.776,-837.292 698.776,-784.115 698.776,-739 698.776,-739 698.776,-739 698.776,-665 698.776,-599.95 772.5,-559.621 824.518,-539.261"/> 
<polygon fill="black" stroke="black" points="825.841,-542.503 833.956,-535.691 823.364,-535.956 825.841,-542.503"/> 
</g> 
<!-- f0 --> 
<g id="node20" class="node"><title>f0</title> 
<a xlink:href="http://pir.georgetown.edu/cgi-bin/pt_graphvizView.pl?togoid=0043226" > 
<ellipse fill="#dddddd" stroke="#dddddd" cx="598.776" cy="-594" rx="61.1934" ry="18"/> 
<a xlink:href="http://pir.georgetown.edu/cgi-bin/pt_graphvizView.pl?togoid=0043226" ><text id="GO:0043226" onmousemove="changeToText('GO:0043226')" onmouseout="changeBackText('GO:0043226')"  text-anchor="middle" x="598.776" y="-589.8" font-family="Times,serif" font-size="14.00">GO:0043226</text></a>
 
</a> 
</g> 
<!-- c0&#45;&gt;f0 --> 
<g id="edge28" class="edge"><title>c0&#45;&gt;f0</title> 
<path fill="none" stroke="black" d="M692.82,-863.966C676.041,-815.979 628.291,-679.414 608.039,-621.491"/> 
<polygon fill="black" stroke="black" points="611.305,-620.229 604.701,-611.945 604.697,-622.54 611.305,-620.229"/> 
</g> 
<!-- x0 --> 
<g id="node23" class="node"><title>x0</title> 
<a xlink:href="http://pir.georgetown.edu/cgi-bin/pt_graphvizView.pl?togoid=0031974" > 
<ellipse fill="#dddddd" stroke="#dddddd" cx="832.776" cy="-738" rx="61.1934" ry="18"/> 
<a xlink:href="http://pir.georgetown.edu/cgi-bin/pt_graphvizView.pl?togoid=0031974" ><text id="GO:0031974" onmousemove="changeToText('GO:0031974')" onmouseout="changeBackText('GO:0031974')"  text-anchor="middle" x="832.776" y="-733.8" font-family="Times,serif" font-size="14.00">GO:0031974</text></a>
 
</a> 
</g> 
<!-- c0&#45;&gt;x0 --> 
<g id="edge20" class="edge"><title>c0&#45;&gt;x0</title> 
<path fill="none" stroke="black" d="M708.288,-864.036C719.369,-845.165 738.962,-814.39 760.776,-792 772.128,-780.347 786.254,-769.352 798.979,-760.429"/> 
<polygon fill="black" stroke="black" points="801.23,-763.131 807.514,-754.601 797.282,-757.35 801.23,-763.131"/> 
</g> 
<!-- d0 --> 
<g id="node39" class="node"><title>d0</title> 
<a xlink:href="http://pir.georgetown.edu/cgi-bin/pt_graphvizView.pl?togoid=0005623" > 
<ellipse fill="#dddddd" stroke="#dddddd" cx="530.776" cy="-810" rx="61.1934" ry="18"/> 
<a xlink:href="http://pir.georgetown.edu/cgi-bin/pt_graphvizView.pl?togoid=0005623" ><text id="GO:0005623" onmousemove="changeToText('GO:0005623')" onmouseout="changeBackText('GO:0005623')"  text-anchor="middle" x="530.776" y="-805.8" font-family="Times,serif" font-size="14.00">GO:0005623</text></a>
 
</a> 
</g> 
<!-- c0&#45;&gt;d0 --> 
<g id="edge38" class="edge"><title>c0&#45;&gt;d0</title> 
<path fill="none" stroke="black" d="M664.779,-866.834C638.592,-855.923 602.211,-840.765 573.964,-828.995"/> 
<polygon fill="black" stroke="black" points="575.3,-825.76 564.723,-825.144 572.607,-832.221 575.3,-825.76"/> 
</g> 
<!-- b0 --> 
<g id="node41" class="node"><title>b0</title> 
<a xlink:href="http://pir.georgetown.edu/cgi-bin/pt_graphvizView.pl?togoid=0044464" > 
<ellipse fill="#dddddd" stroke="#dddddd" cx="343.776" cy="-738" rx="61.1934" ry="18"/> 
<a xlink:href="http://pir.georgetown.edu/cgi-bin/pt_graphvizView.pl?togoid=0044464" ><text id="GO:0044464" onmousemove="changeToText('GO:0044464')" onmouseout="changeBackText('GO:0044464')"  text-anchor="middle" x="343.776" y="-733.8" font-family="Times,serif" font-size="14.00">GO:0044464</text></a>
 
</a> 
</g> 
<!-- c0&#45;&gt;b0 --> 
<g id="edge40" class="edge"><title>c0&#45;&gt;b0</title> 
<path fill="none" stroke="black" d="M641.747,-875.283C592.097,-868.702 519.135,-855.098 460.776,-828 425.161,-811.463 390.094,-782.655 367.781,-762.301"/> 
<polygon fill="black" stroke="black" points="370.15,-759.725 360.44,-755.487 365.388,-764.855 370.15,-759.725"/> 
</g> 
<!-- r0 --> 
<g id="node54" class="node"><title>r0</title> 
<ellipse fill="#e98576" stroke="#e98576" cx="877.776" cy="-810" rx="75.2018" ry="18"/> 
<a xlink:href="http://pir.georgetown.edu/cgi-bin/pt_graphvizView.pl?togoid=0005576" ><text id="GO:0005576" onmousemove="changeToText('GO:0005576')" onmouseout="changeBackText('GO:0005576')"  text-anchor="middle" x="877.776" y="-810.8" font-family="Times,serif" font-size="14.00">GO:0005576</text></a>
<a xlink:href="http://pir.georgetown.edu/cgi-bin/pt_graphvizView.pl?tofile=25797" ><text id="r25797" onmousemove="changeToText2('r25797', 1)" onmouseout="changeBackText2('r25797', 1)"  text-anchor="middle" x="877.776" y="-797.8" font-family="Times,serif" font-size="14.00">(1)</text>
 
</a> 
</g> 
<!-- c0&#45;&gt;r0 --> 
<g id="edge58" class="edge"><title>c0&#45;&gt;r0</title> 
<path fill="none" stroke="black" d="M734.14,-867.17C761.813,-856.348 800.547,-841.201 830.818,-829.363"/> 
<polygon fill="black" stroke="black" points="832.286,-832.547 840.325,-825.646 829.737,-826.028 832.286,-832.547"/> 
</g> 
<!-- o0 --> 
<g id="node56" class="node"><title>o0</title> 
<a xlink:href="http://pir.georgetown.edu/cgi-bin/pt_graphvizView.pl?togoid=0032991" > 
<ellipse fill="#dddddd" stroke="#dddddd" cx="979.776" cy="-738" rx="61.1934" ry="18"/> 
<a xlink:href="http://pir.georgetown.edu/cgi-bin/pt_graphvizView.pl?togoid=0032991" ><text id="GO:0032991" onmousemove="changeToText('GO:0032991')" onmouseout="changeBackText('GO:0032991')"  text-anchor="middle" x="979.776" y="-733.8" font-family="Times,serif" font-size="14.00">GO:0032991</text></a>
 
</a> 
</g> 
<!-- c0&#45;&gt;o0 --> 
<g id="edge60" class="edge"><title>c0&#45;&gt;o0</title> 
<path fill="none" stroke="black" d="M718.86,-864.882C731.268,-854.672 747.331,-840.986 760.776,-828 776.387,-812.92 775.308,-803.404 793.776,-792 815.335,-778.687 876.122,-762.65 922.39,-751.728"/> 
<polygon fill="black" stroke="black" points="923.377,-755.092 932.319,-749.41 921.785,-748.275 923.377,-755.092"/> 
</g> 
<!-- y0&#45;&gt;w0 --> 
<g id="edge32" class="edge"><title>y0&#45;&gt;w0</title> 
<path fill="none" stroke="black" d="M874.776,-503.697C874.776,-495.983 874.776,-486.712 874.776,-478.112"/> 
<polygon fill="black" stroke="black" points="878.276,-478.104 874.776,-468.104 871.276,-478.104 878.276,-478.104"/> 
</g> 
<!-- y0&#45;&gt;a1 --> 
<g id="edge78" class="edge"><title>y0&#45;&gt;a1</title> 
<path fill="none" stroke="black" d="M830.659,-509.421C821.803,-507.384 812.528,-505.454 803.776,-504 635.987,-476.128 591.832,-486.706 422.776,-468 400.037,-465.484 375.168,-462.417 353.096,-459.584"/> 
<polygon fill="black" stroke="black" points="353.535,-456.111 343.169,-458.301 352.638,-463.054 353.535,-456.111"/> 
</g> 
<!-- f0&#45;&gt;y0 --> 
<g id="edge18" class="edge"><title>f0&#45;&gt;y0</title> 
<path fill="none" stroke="black" d="M643.427,-581.675C691.485,-569.487 767.978,-550.086 819.727,-536.962"/> 
<polygon fill="black" stroke="black" points="820.898,-540.276 829.731,-534.424 819.177,-533.49 820.898,-540.276"/> 
</g> 
<!-- f0&#45;&gt;l0 --> 
<g id="edge24" class="edge"><title>f0&#45;&gt;l0</title> 
<path fill="none" stroke="black" d="M550.36,-582.854C500.888,-572.41 421.878,-555.517 353.776,-540 348.806,-538.868 343.645,-537.671 338.476,-536.459"/> 
<polygon fill="black" stroke="black" points="339.11,-533.013 328.573,-534.122 337.501,-539.826 339.11,-533.013"/> 
</g> 
<!-- e0 --> 
<g id="node44" class="node"><title>e0</title> 
<ellipse fill="#e98576" stroke="#e98576" cx="437.776" cy="-522" rx="75.2018" ry="18"/> 
<a xlink:href="http://pir.georgetown.edu/cgi-bin/pt_graphvizView.pl?togoid=0031982" ><text id="GO:0031982" onmousemove="changeToText('GO:0031982')" onmouseout="changeBackText('GO:0031982')"  text-anchor="middle" x="437.776" y="-522.8" font-family="Times,serif" font-size="14.00">GO:0031982</text></a>
<a xlink:href="http://pir.georgetown.edu/cgi-bin/pt_graphvizView.pl?tofile=25785" ><text id="r25785" onmousemove="changeToText2('r25785', 5)" onmouseout="changeBackText2('r25785', 5)"  text-anchor="middle" x="437.776" y="-509.8" font-family="Times,serif" font-size="14.00">(5)</text>
 
</a> 
</g> 
<!-- f0&#45;&gt;e0 --> 
<g id="edge44" class="edge"><title>f0&#45;&gt;e0</title> 
<path fill="none" stroke="black" d="M565.807,-578.666C541.554,-568.121 508.333,-553.677 481.81,-542.145"/> 
<polygon fill="black" stroke="black" points="482.936,-538.819 472.37,-538.041 480.145,-545.238 482.936,-538.819"/> 
</g> 
<!-- k0 --> 
<g id="node46" class="node"><title>k0</title> 
<a xlink:href="http://pir.georgetown.edu/cgi-bin/pt_graphvizView.pl?togoid=0043227" > 
<ellipse fill="#dddddd" stroke="#dddddd" cx="592.776" cy="-522" rx="61.1934" ry="18"/> 
<a xlink:href="http://pir.georgetown.edu/cgi-bin/pt_graphvizView.pl?togoid=0043227" ><text id="GO:0043227" onmousemove="changeToText('GO:0043227')" onmouseout="changeBackText('GO:0043227')"  text-anchor="middle" x="592.776" y="-517.8" font-family="Times,serif" font-size="14.00">GO:0043227</text></a>
 
</a> 
</g> 
<!-- f0&#45;&gt;k0 --> 
<g id="edge46" class="edge"><title>f0&#45;&gt;k0</title> 
<path fill="none" stroke="black" d="M597.293,-575.697C596.631,-567.983 595.837,-558.712 595.1,-550.112"/> 
<polygon fill="black" stroke="black" points="598.583,-549.769 594.242,-540.104 591.609,-550.367 598.583,-549.769"/> 
</g> 
<!-- d1 --> 
<g id="node60" class="node"><title>d1</title> 
<a xlink:href="http://pir.georgetown.edu/cgi-bin/pt_graphvizView.pl?togoid=0043228" > 
<ellipse fill="#dddddd" stroke="#dddddd" cx="733.776" cy="-522" rx="61.1934" ry="18"/> 
<a xlink:href="http://pir.georgetown.edu/cgi-bin/pt_graphvizView.pl?togoid=0043228" ><text id="GO:0043228" onmousemove="changeToText('GO:0043228')" onmouseout="changeBackText('GO:0043228')"  text-anchor="middle" x="733.776" y="-517.8" font-family="Times,serif" font-size="14.00">GO:0043228</text></a>
 
</a> 
</g> 
<!-- f0&#45;&gt;d1 --> 
<g id="edge66" class="edge"><title>f0&#45;&gt;d1</title> 
<path fill="none" stroke="black" d="M627.737,-577.983C647.667,-567.649 674.339,-553.819 695.947,-542.615"/> 
<polygon fill="black" stroke="black" points="697.596,-545.702 704.863,-537.992 694.374,-539.488 697.596,-545.702"/> 
</g> 
<!-- x0&#45;&gt;w0 --> 
<g id="edge30" class="edge"><title>x0&#45;&gt;w0</title> 
<path fill="none" stroke="black" d="M846.26,-720.417C871.565,-688.1 925.367,-613.408 944.776,-540 948.866,-524.532 951.899,-518.327 944.776,-504 938.114,-490.6 926.267,-479.683 914.192,-471.316"/> 
<polygon fill="black" stroke="black" points="915.733,-468.145 905.43,-465.674 911.943,-474.031 915.733,-468.145"/> 
</g> 
<!-- c1 --> 
<g id="node24" class="node"><title>c1</title> 
<a xlink:href="http://pir.georgetown.edu/cgi-bin/pt_graphvizView.pl?togoid=0043232" > 
<ellipse fill="#dddddd" stroke="#dddddd" cx="732.776" cy="-450" rx="61.1934" ry="18"/> 
<a xlink:href="http://pir.georgetown.edu/cgi-bin/pt_graphvizView.pl?togoid=0043232" ><text id="GO:0043232" onmousemove="changeToText('GO:0043232')" onmouseout="changeBackText('GO:0043232')"  text-anchor="middle" x="732.776" y="-445.8" font-family="Times,serif" font-size="14.00">GO:0043232</text></a>
 
</a> 
</g> 
<!-- b1 --> 
<g id="node26" class="node"><title>b1</title> 
<ellipse fill="#e98576" stroke="#e98576" cx="732.776" cy="-378" rx="75.2018" ry="18"/> 
<a xlink:href="http://pir.georgetown.edu/cgi-bin/pt_graphvizView.pl?togoid=0005856" ><text id="GO:0005856" onmousemove="changeToText('GO:0005856')" onmouseout="changeBackText('GO:0005856')"  text-anchor="middle" x="732.776" y="-378.8" font-family="Times,serif" font-size="14.00">GO:0005856</text></a>
<a xlink:href="http://pir.georgetown.edu/cgi-bin/pt_graphvizView.pl?tofile=25801" ><text id="r25801" onmousemove="changeToText2('r25801', 1)" onmouseout="changeBackText2('r25801', 1)"  text-anchor="middle" x="732.776" y="-365.8" font-family="Times,serif" font-size="14.00">(1)</text>
 
</a> 
</g> 
<!-- c1&#45;&gt;b1 --> 
<g id="edge22" class="edge"><title>c1&#45;&gt;b1</title> 
<path fill="none" stroke="black" d="M732.776,-431.697C732.776,-423.983 732.776,-414.712 732.776,-406.112"/> 
<polygon fill="black" stroke="black" points="736.276,-406.104 732.776,-396.104 729.276,-406.104 736.276,-406.104"/> 
</g> 
<!-- l0&#45;&gt;c1 --> 
<g id="edge90" class="edge"><title>l0&#45;&gt;c1</title> 
<path fill="none" stroke="black" d="M327.327,-509.642C336.064,-507.61 345.183,-505.626 353.776,-504 412.451,-492.9 575.599,-471.255 667.568,-459.348"/> 
<polygon fill="black" stroke="black" points="668.133,-462.805 677.602,-458.051 667.236,-455.862 668.133,-462.805"/> 
</g> 
<!-- j0 --> 
<g id="node33" class="node"><title>j0</title> 
<ellipse fill="#e98576" stroke="#e98576" cx="506.776" cy="-450" rx="75.2018" ry="18"/> 
<a xlink:href="http://pir.georgetown.edu/cgi-bin/pt_graphvizView.pl?togoid=0043231" ><text id="GO:0043231" onmousemove="changeToText('GO:0043231')" onmouseout="changeBackText('GO:0043231')"  text-anchor="middle" x="506.776" y="-450.8" font-family="Times,serif" font-size="14.00">GO:0043231</text></a>
<a xlink:href="http://pir.georgetown.edu/cgi-bin/pt_graphvizView.pl?tofile=25789" ><text id="r25789" onmousemove="changeToText2('r25789', 5)" onmouseout="changeBackText2('r25789', 5)"  text-anchor="middle" x="506.776" y="-437.8" font-family="Times,serif" font-size="14.00">(5)</text>
 
</a> 
</g> 
<!-- l0&#45;&gt;j0 --> 
<g id="edge56" class="edge"><title>l0&#45;&gt;j0</title> 
<path fill="none" stroke="black" d="M323.081,-508.405C359.503,-497.023 413.376,-480.187 453.372,-467.689"/> 
<polygon fill="black" stroke="black" points="454.464,-471.015 462.965,-464.691 452.376,-464.333 454.464,-471.015"/> 
</g> 
<!-- l0&#45;&gt;a1 --> 
<g id="edge76" class="edge"><title>l0&#45;&gt;a1</title> 
<path fill="none" stroke="black" d="M284.259,-503.697C284.92,-495.983 285.715,-486.712 286.452,-478.112"/> 
<polygon fill="black" stroke="black" points="289.943,-478.367 287.31,-468.104 282.968,-477.769 289.943,-478.367"/> 
</g> 
<!-- p0 --> 
<g id="node35" class="node"><title>p0</title> 
<ellipse fill="#e98576" stroke="#e98576" cx="395.776" cy="-378" rx="75.2018" ry="18"/> 
<a xlink:href="http://pir.georgetown.edu/cgi-bin/pt_graphvizView.pl?togoid=0005739" ><text id="GO:0005739" onmousemove="changeToText('GO:0005739')" onmouseout="changeBackText('GO:0005739')"  text-anchor="middle" x="395.776" y="-378.8" font-family="Times,serif" font-size="14.00">GO:0005739</text></a>
<a xlink:href="http://pir.georgetown.edu/cgi-bin/pt_graphvizView.pl?tofile=25795" ><text id="r25795" onmousemove="changeToText2('r25795', 1)" onmouseout="changeBackText2('r25795', 1)"  text-anchor="middle" x="395.776" y="-365.8" font-family="Times,serif" font-size="14.00">(1)</text>
 
</a> 
</g> 
<!-- j0&#45;&gt;p0 --> 
<g id="edge34" class="edge"><title>j0&#45;&gt;p0</title> 
<path fill="none" stroke="black" d="M481.31,-432.941C466.081,-423.336 446.534,-411.009 429.971,-400.565"/> 
<polygon fill="black" stroke="black" points="431.448,-397.358 421.123,-394.985 427.715,-403.279 431.448,-397.358"/> 
</g> 
<!-- m0 --> 
<g id="node66" class="node"><title>m0</title> 
<ellipse fill="#e98576" stroke="#e98576" cx="564.776" cy="-378" rx="75.2018" ry="18"/> 
<a xlink:href="http://pir.georgetown.edu/cgi-bin/pt_graphvizView.pl?togoid=0005634" ><text id="GO:0005634" onmousemove="changeToText('GO:0005634')" onmouseout="changeBackText('GO:0005634')"  text-anchor="middle" x="564.776" y="-378.8" font-family="Times,serif" font-size="14.00">GO:0005634</text></a>
<a xlink:href="http://pir.georgetown.edu/cgi-bin/pt_graphvizView.pl?tofile=25791" ><text id="r25791" onmousemove="changeToText2('r25791', 2)" onmouseout="changeBackText2('r25791', 2)"  text-anchor="middle" x="564.776" y="-365.8" font-family="Times,serif" font-size="14.00">(2)</text>
 
</a> 
</g> 
<!-- j0&#45;&gt;m0 --> 
<g id="edge74" class="edge"><title>j0&#45;&gt;m0</title> 
<path fill="none" stroke="black" d="M520.816,-432.055C527.869,-423.543 536.548,-413.068 544.325,-403.681"/> 
<polygon fill="black" stroke="black" points="547.18,-405.722 550.865,-395.789 541.79,-401.256 547.18,-405.722"/> 
</g> 
<!-- q0&#45;&gt;p0 --> 
<g id="edge36" class="edge"><title>q0&#45;&gt;p0</title> 
<path fill="none" stroke="black" d="M137.431,-438.292C189.961,-426.236 275.554,-406.592 333.697,-393.248"/> 
<polygon fill="black" stroke="black" points="334.537,-396.646 343.501,-390.998 332.971,-389.823 334.537,-396.646"/> 
</g> 
<!-- d0&#45;&gt;b0 --> 
<g id="edge42" class="edge"><title>d0&#45;&gt;b0</title> 
<path fill="none" stroke="black" d="M494.276,-795.337C464.416,-784.159 422.012,-768.286 389.821,-756.236"/> 
<polygon fill="black" stroke="black" points="390.776,-752.856 380.183,-752.628 388.321,-759.412 390.776,-752.856"/> 
</g> 
<!-- b0&#45;&gt;h0 --> 
<g id="edge50" class="edge"><title>b0&#45;&gt;h0</title> 
<path fill="none" stroke="black" d="M316.99,-721.676C302.593,-712.326 285.454,-699.249 273.776,-684 259.582,-665.466 250.143,-640.571 244.505,-621.824"/> 
<polygon fill="black" stroke="black" points="247.85,-620.789 241.758,-612.121 241.115,-622.696 247.85,-620.789"/> 
</g> 
<!-- i0 --> 
<g id="node47" class="node"><title>i0</title> 
<a xlink:href="http://pir.georgetown.edu/cgi-bin/pt_graphvizView.pl?togoid=0005622" > 
<ellipse fill="#dddddd" stroke="#dddddd" cx="343.776" cy="-666" rx="61.1934" ry="18"/> 
<a xlink:href="http://pir.georgetown.edu/cgi-bin/pt_graphvizView.pl?togoid=0005622" ><text id="GO:0005622" onmousemove="changeToText('GO:0005622')" onmouseout="changeBackText('GO:0005622')"  text-anchor="middle" x="343.776" y="-661.8" font-family="Times,serif" font-size="14.00">GO:0005622</text></a>
 
</a> 
</g> 
<!-- b0&#45;&gt;i0 --> 
<g id="edge52" class="edge"><title>b0&#45;&gt;i0</title> 
<path fill="none" stroke="black" d="M343.776,-719.697C343.776,-711.983 343.776,-702.712 343.776,-694.112"/> 
<polygon fill="black" stroke="black" points="347.276,-694.104 343.776,-684.104 340.276,-694.104 347.276,-694.104"/> 
</g> 
<!-- a0 --> 
<g id="node64" class="node"><title>a0</title> 
<ellipse fill="#e98576" stroke="#e98576" cx="151.776" cy="-666" rx="75.2018" ry="18"/> 
<a xlink:href="http://pir.georgetown.edu/cgi-bin/pt_graphvizView.pl?togoid=0016020" ><text id="GO:0016020" onmousemove="changeToText('GO:0016020')" onmouseout="changeBackText('GO:0016020')"  text-anchor="middle" x="151.776" y="-666.8" font-family="Times,serif" font-size="14.00">GO:0016020</text></a>
<a xlink:href="http://pir.georgetown.edu/cgi-bin/pt_graphvizView.pl?tofile=25783" ><text id="r25783" onmousemove="changeToText2('r25783', 5)" onmouseout="changeBackText2('r25783', 5)"  text-anchor="middle" x="151.776" y="-653.8" font-family="Times,serif" font-size="14.00">(5)</text>
 
</a> 
</g> 
<!-- b0&#45;&gt;a0 --> 
<g id="edge72" class="edge"><title>b0&#45;&gt;a0</title> 
<path fill="none" stroke="black" d="M306.756,-723.503C276.605,-712.511 233.782,-696.898 200.787,-684.869"/> 
<polygon fill="black" stroke="black" points="201.92,-681.556 191.326,-681.419 199.522,-688.133 201.92,-681.556"/> 
</g> 
<!-- k0&#45;&gt;j0 --> 
<g id="edge54" class="edge"><title>k0&#45;&gt;j0</title> 
<path fill="none" stroke="black" d="M572.83,-504.765C561.514,-495.554 547.174,-483.882 534.749,-473.769"/> 
<polygon fill="black" stroke="black" points="536.877,-470.988 526.912,-467.39 532.458,-476.417 536.877,-470.988"/> 
</g> 
<!-- i0&#45;&gt;h0 --> 
<g id="edge48" class="edge"><title>i0&#45;&gt;h0</title> 
<path fill="none" stroke="black" d="M319.987,-649.291C305.258,-639.564 286.15,-626.946 270.064,-616.322"/> 
<polygon fill="black" stroke="black" points="271.758,-613.247 261.485,-610.657 267.901,-619.088 271.758,-613.247"/> 
</g> 
<!-- o0&#45;&gt;n0 --> 
<g id="edge86" class="edge"><title>o0&#45;&gt;n0</title> 
<path fill="none" stroke="black" d="M984.228,-719.646C990.656,-693.02 1001.78,-640.403 1001.78,-595 1001.78,-595 1001.78,-595 1001.78,-449 1001.78,-408.74 993.033,-362.808 986.57,-334.355"/> 
<polygon fill="black" stroke="black" points="989.916,-333.293 984.228,-324.354 983.101,-334.889 989.916,-333.293"/> 
</g> 
<!-- d1&#45;&gt;c1 --> 
<g id="edge88" class="edge"><title>d1&#45;&gt;c1</title> 
<path fill="none" stroke="black" d="M733.529,-503.697C733.418,-495.983 733.286,-486.712 733.163,-478.112"/> 
<polygon fill="black" stroke="black" points="736.663,-478.053 733.02,-468.104 729.663,-478.153 736.663,-478.053"/> 
</g> 
<!-- m0&#45;&gt;z0 --> 
<g id="edge82" class="edge"><title>m0&#45;&gt;z0</title> 
<path fill="none" stroke="black" d="M576.879,-360.055C582.898,-351.629 590.29,-341.28 596.943,-331.966"/> 
<polygon fill="black" stroke="black" points="599.819,-333.961 602.784,-323.789 594.123,-329.892 599.819,-333.961"/> 
</g> 
<!-- a1&#45;&gt;z0 --> 
<g id="edge84" class="edge"><title>a1&#45;&gt;z0</title> 
<path fill="none" stroke="black" d="M288.07,-431.847C288.241,-411.612 291.842,-378.404 311.776,-360 344.867,-329.447 465.896,-316.147 544.613,-310.628"/> 
<polygon fill="black" stroke="black" points="545.206,-314.096 554.948,-309.931 544.735,-307.112 545.206,-314.096"/> 
</g> 
</g> 
<text text-anchor="left" x="4" y="-20" style="font-family:Arial Narrow;font-size:20.00;font-weight:bold;">GO Hierarchical View:</text> 

<text text-anchor="left" x="4" y="0" style="font-family:Arial Narrow;font-size:20.00;font-style:italic;">cellular component</text> 

<script type="text/ecmascript"> 
<![CDATA[ 
var targetText; 
function changeToText(z) { 
		targetText = svgDocument.getElementById(z).firstChild; 
		targetText.nodeValue="link to "+z; 
} 
function changeBackText(z) { 
		targetText = svgDocument.getElementById(z).firstChild; 
		targetText.nodeValue=z; 
} 
function changeToText2(z,n) { 
		targetText = svgDocument.getElementById(z).firstChild; 
		if (n<=1) { 
			targetText.nodeValue="link to " + n + " protein record"; 
		} else { 
			targetText.nodeValue="link to " + n + " protein records"; 
		} 
} 
function changeBackText2(z,n) { 
		targetText = svgDocument.getElementById(z).firstChild; 
		targetText.nodeValue="(" + n + ")"; 
} 
// ]]> 
</script> 
</svg> 
