<?xml version="1.0" encoding="UTF-8" standalone="no"?>
<!DOCTYPE svg PUBLIC "-//W3C//DTD SVG 1.1//EN"
 "http://www.w3.org/Graphics/SVG/1.1/DTD/svg11.dtd">
<!-- Generated by graphviz version 2.28.0 (20110622.2320)
 -->
<!-- Title: G Pages: 1 -->
<svg width="998pt" height="188pt"
 viewBox="0.00 0.00 998.00 188.00" xmlns="http://www.w3.org/2000/svg" xmlns:xlink="http://www.w3.org/1999/xlink">
<g id="graph1" class="graph" transform="scale(1 1) rotate(0) translate(4 184)">
<title>G</title>
<polygon fill="white" stroke="white" points="-4,5 -4,-184 995,-184 995,5 -4,5"/>
<!-- d0 -->
<g id="node1" class="node"><title>d0</title>
<a xlink:href="0005488" xlink:title="GO:0005488">
<ellipse fill="#dddddd" stroke="#dddddd" cx="435" cy="-90" rx="61.1934" ry="18"/>
<text text-anchor="middle" x="435" y="-85.8" font-family="Times,serif" font-size="14.00">GO:0005488</text>
</a>
</g>
<!-- c0 -->
<g id="node3" class="node"><title>c0</title>
<a xlink:href="0043167" xlink:title="GO:0043167 (2)">
<ellipse fill="#e98576" stroke="#e98576" cx="75" cy="-18" rx="75.2018" ry="18"/>
<text text-anchor="middle" x="75" y="-13.8" font-family="Times,serif" font-size="14.00">GO:0043167 (2)</text>
</a>
</g>
<!-- d0&#45;&gt;c0 -->
<g id="edge2" class="edge"><title>d0&#45;&gt;c0</title>
<path fill="none" stroke="black" d="M384.859,-79.527C329.532,-69.0378 237.866,-51.5524 159,-36 152.869,-34.7909 146.489,-33.521 140.106,-32.2428"/>
<polygon fill="black" stroke="black" points="140.603,-28.7728 130.109,-30.2348 139.224,-35.6357 140.603,-28.7728"/>
</g>
<!-- f0 -->
<g id="node5" class="node"><title>f0</title>
<a xlink:href="0008289" xlink:title="GO:0008289 (1)">
<ellipse fill="#e98576" stroke="#e98576" cx="243" cy="-18" rx="75.2018" ry="18"/>
<text text-anchor="middle" x="243" y="-13.8" font-family="Times,serif" font-size="14.00">GO:0008289 (1)</text>
</a>
</g>
<!-- d0&#45;&gt;f0 -->
<g id="edge4" class="edge"><title>d0&#45;&gt;f0</title>
<path fill="none" stroke="black" d="M397.98,-75.5033C367.83,-64.5108 325.006,-48.898 292.012,-36.8688"/>
<polygon fill="black" stroke="black" points="293.144,-33.5562 282.55,-33.4192 290.746,-40.1328 293.144,-33.5562"/>
</g>
<!-- j0 -->
<g id="node14" class="node"><title>j0</title>
<a xlink:href="0001882" xlink:title="GO:0001882 (1)">
<ellipse fill="#e98576" stroke="#e98576" cx="411" cy="-18" rx="75.2018" ry="18"/>
<text text-anchor="middle" x="411" y="-13.8" font-family="Times,serif" font-size="14.00">GO:0001882 (1)</text>
</a>
</g>
<!-- d0&#45;&gt;j0 -->
<g id="edge12" class="edge"><title>d0&#45;&gt;j0</title>
<path fill="none" stroke="black" d="M429.19,-72.055C426.489,-64.1762 423.211,-54.6165 420.187,-45.794"/>
<polygon fill="black" stroke="black" points="423.477,-44.5996 416.923,-36.2753 416.855,-46.8699 423.477,-44.5996"/>
</g>
<!-- e0 -->
<g id="node16" class="node"><title>e0</title>
<a xlink:href="0005515" xlink:title="GO:0005515 (2)">
<ellipse fill="#e98576" stroke="#e98576" cx="579" cy="-18" rx="75.2018" ry="18"/>
<text text-anchor="middle" x="579" y="-13.8" font-family="Times,serif" font-size="14.00">GO:0005515 (2)</text>
</a>
</g>
<!-- d0&#45;&gt;e0 -->
<g id="edge14" class="edge"><title>d0&#45;&gt;e0</title>
<path fill="none" stroke="black" d="M465.187,-74.3257C486.353,-64.0369 514.895,-50.1619 538.102,-38.881"/>
<polygon fill="black" stroke="black" points="539.893,-41.9019 547.357,-34.3821 536.833,-35.6063 539.893,-41.9019"/>
</g>
<!-- i0 -->
<g id="node19" class="node"><title>i0</title>
<a xlink:href="0000166" xlink:title="GO:0000166 (1)">
<ellipse fill="#e98576" stroke="#e98576" cx="747" cy="-18" rx="75.2018" ry="18"/>
<text text-anchor="middle" x="747" y="-13.8" font-family="Times,serif" font-size="14.00">GO:0000166 (1)</text>
</a>
</g>
<!-- d0&#45;&gt;i0 -->
<g id="edge18" class="edge"><title>d0&#45;&gt;i0</title>
<path fill="none" stroke="black" d="M482.047,-78.4445C535.877,-66.3674 624.275,-46.5344 684.012,-33.132"/>
<polygon fill="black" stroke="black" points="685.088,-36.4776 694.079,-30.8732 683.556,-29.6474 685.088,-36.4776"/>
</g>
<!-- b0 -->
<g id="node6" class="node"><title>b0</title>
<a xlink:href="0003674" xlink:title="GO:0003674">
<ellipse fill="#dddddd" stroke="#dddddd" cx="638" cy="-162" rx="61.1934" ry="18"/>
<text text-anchor="middle" x="638" y="-157.8" font-family="Times,serif" font-size="14.00">GO:0003674</text>
</a>
</g>
<!-- b0&#45;&gt;d0 -->
<g id="edge16" class="edge"><title>b0&#45;&gt;d0</title>
<path fill="none" stroke="black" d="M599.817,-147.834C566.748,-136.43 518.749,-119.879 483.07,-107.576"/>
<polygon fill="black" stroke="black" points="483.951,-104.177 473.356,-104.226 481.669,-110.795 483.951,-104.177"/>
</g>
<!-- a0 -->
<g id="node8" class="node"><title>a0</title>
<a xlink:href="0030234" xlink:title="GO:0030234 (3)">
<ellipse fill="#e98576" stroke="#e98576" cx="638" cy="-90" rx="75.2018" ry="18"/>
<text text-anchor="middle" x="638" y="-85.8" font-family="Times,serif" font-size="14.00">GO:0030234 (3)</text>
</a>
</g>
<!-- b0&#45;&gt;a0 -->
<g id="edge6" class="edge"><title>b0&#45;&gt;a0</title>
<path fill="none" stroke="black" d="M638,-143.697C638,-135.983 638,-126.712 638,-118.112"/>
<polygon fill="black" stroke="black" points="641.5,-118.104 638,-108.104 634.5,-118.104 641.5,-118.104"/>
</g>
<!-- h0 -->
<g id="node9" class="node"><title>h0</title>
<a xlink:href="0003824" xlink:title="GO:0003824">
<ellipse fill="#dddddd" stroke="#dddddd" cx="890" cy="-90" rx="61.1934" ry="18"/>
<text text-anchor="middle" x="890" y="-85.8" font-family="Times,serif" font-size="14.00">GO:0003824</text>
</a>
</g>
<!-- b0&#45;&gt;h0 -->
<g id="edge10" class="edge"><title>b0&#45;&gt;h0</title>
<path fill="none" stroke="black" d="M681.034,-149.046C724.252,-137.041 790.914,-118.524 837.282,-105.644"/>
<polygon fill="black" stroke="black" points="838.445,-108.953 847.143,-102.905 836.572,-102.209 838.445,-108.953"/>
</g>
<!-- g0 -->
<g id="node11" class="node"><title>g0</title>
<a xlink:href="0016787" xlink:title="GO:0016787 (1)">
<ellipse fill="#e98576" stroke="#e98576" cx="915" cy="-18" rx="75.2018" ry="18"/>
<text text-anchor="middle" x="915" y="-13.8" font-family="Times,serif" font-size="14.00">GO:0016787 (1)</text>
</a>
</g>
<!-- h0&#45;&gt;g0 -->
<g id="edge8" class="edge"><title>h0&#45;&gt;g0</title>
<path fill="none" stroke="black" d="M896.052,-72.055C898.866,-64.1762 902.28,-54.6165 905.431,-45.794"/>
<polygon fill="black" stroke="black" points="908.763,-46.8699 908.83,-36.2753 902.171,-44.5155 908.763,-46.8699"/>
</g>
</g>
</svg>
