<?xml version="1.0" encoding="UTF-8" standalone="no"?>
<!DOCTYPE svg PUBLIC "-//W3C//DTD SVG 1.1//EN"
 "http://www.w3.org/Graphics/SVG/1.1/DTD/svg11.dtd">
<!-- Generated by graphviz version 2.28.0 (20110622.2320)
 -->
<!-- Title: G Pages: 1 -->
<svg width="1838pt" height="260pt"
 viewBox="0.00 0.00 1838.00 260.00" xmlns="http://www.w3.org/2000/svg" xmlns:xlink="http://www.w3.org/1999/xlink">
<g id="graph1" class="graph" transform="scale(1 1) rotate(0) translate(4 256)">
<title>G</title>
<polygon fill="white" stroke="white" points="-4,5 -4,-256 1835,-256 1835,5 -4,5"/>
<!-- e0 -->
<g id="node1" class="node"><title>e0</title>
<a xlink:href="0003824" xlink:title="GO:0003824 (1)">
<ellipse fill="#e98576" stroke="#e98576" cx="411" cy="-162" rx="75.2018" ry="18"/>
<text text-anchor="middle" x="411" y="-157.8" font-family="Times,serif" font-size="14.00">GO:0003824 (1)</text>
</a>
</g>
<!-- n0 -->
<g id="node3" class="node"><title>n0</title>
<a xlink:href="0016853" xlink:title="GO:0016853 (1)">
<ellipse fill="#e98576" stroke="#e98576" cx="75" cy="-90" rx="75.2018" ry="18"/>
<text text-anchor="middle" x="75" y="-85.8" font-family="Times,serif" font-size="14.00">GO:0016853 (1)</text>
</a>
</g>
<!-- e0&#45;&gt;n0 -->
<g id="edge2" class="edge"><title>e0&#45;&gt;n0</title>
<path fill="none" stroke="black" d="M356.268,-149.597C296.96,-137.242 202.399,-117.541 139.518,-104.441"/>
<polygon fill="black" stroke="black" points="140.212,-101.011 129.709,-102.398 138.785,-107.864 140.212,-101.011"/>
</g>
<!-- m0 -->
<g id="node17" class="node"><title>m0</title>
<a xlink:href="0016787" xlink:title="GO:0016787 (1)">
<ellipse fill="#e98576" stroke="#e98576" cx="243" cy="-90" rx="75.2018" ry="18"/>
<text text-anchor="middle" x="243" y="-85.8" font-family="Times,serif" font-size="14.00">GO:0016787 (1)</text>
</a>
</g>
<!-- e0&#45;&gt;m0 -->
<g id="edge16" class="edge"><title>e0&#45;&gt;m0</title>
<path fill="none" stroke="black" d="M375.372,-146.155C349.954,-135.564 315.574,-121.239 288.222,-109.842"/>
<polygon fill="black" stroke="black" points="289.443,-106.56 278.866,-105.944 286.751,-113.021 289.443,-106.56"/>
</g>
<!-- d0 -->
<g id="node18" class="node"><title>d0</title>
<a xlink:href="0016491" xlink:title="GO:0016491 (3)">
<ellipse fill="#e98576" stroke="#e98576" cx="411" cy="-90" rx="75.2018" ry="18"/>
<text text-anchor="middle" x="411" y="-85.8" font-family="Times,serif" font-size="14.00">GO:0016491 (3)</text>
</a>
</g>
<!-- e0&#45;&gt;d0 -->
<g id="edge26" class="edge"><title>e0&#45;&gt;d0</title>
<path fill="none" stroke="black" d="M411,-143.697C411,-135.983 411,-126.712 411,-118.112"/>
<polygon fill="black" stroke="black" points="414.5,-118.104 411,-108.104 407.5,-118.104 414.5,-118.104"/>
</g>
<!-- g0 -->
<g id="node22" class="node"><title>g0</title>
<a xlink:href="0016740" xlink:title="GO:0016740 (2)">
<ellipse fill="#e98576" stroke="#e98576" cx="579" cy="-90" rx="75.2018" ry="18"/>
<text text-anchor="middle" x="579" y="-85.8" font-family="Times,serif" font-size="14.00">GO:0016740 (2)</text>
</a>
</g>
<!-- e0&#45;&gt;g0 -->
<g id="edge20" class="edge"><title>e0&#45;&gt;g0</title>
<path fill="none" stroke="black" d="M446.628,-146.155C472.046,-135.564 506.426,-121.239 533.778,-109.842"/>
<polygon fill="black" stroke="black" points="535.249,-113.021 543.134,-105.944 532.557,-106.56 535.249,-113.021"/>
</g>
<!-- c0 -->
<g id="node4" class="node"><title>c0</title>
<a xlink:href="0003674" xlink:title="GO:0003674">
<ellipse fill="#dddddd" stroke="#dddddd" cx="1167" cy="-234" rx="61.1934" ry="18"/>
<text text-anchor="middle" x="1167" y="-229.8" font-family="Times,serif" font-size="14.00">GO:0003674</text>
</a>
</g>
<!-- c0&#45;&gt;e0 -->
<g id="edge6" class="edge"><title>c0&#45;&gt;e0</title>
<path fill="none" stroke="black" d="M1109.56,-227.681C975.663,-215.284 642.651,-184.449 489.873,-170.303"/>
<polygon fill="black" stroke="black" points="489.912,-166.792 479.632,-169.355 489.267,-173.762 489.912,-166.792"/>
</g>
<!-- l0 -->
<g id="node6" class="node"><title>l0</title>
<a xlink:href="0030234" xlink:title="GO:0030234 (1)">
<ellipse fill="#e98576" stroke="#e98576" cx="1012" cy="-162" rx="75.2018" ry="18"/>
<text text-anchor="middle" x="1012" y="-157.8" font-family="Times,serif" font-size="14.00">GO:0030234 (1)</text>
</a>
</g>
<!-- c0&#45;&gt;l0 -->
<g id="edge4" class="edge"><title>c0&#45;&gt;l0</title>
<path fill="none" stroke="black" d="M1134.88,-218.496C1111.77,-208.056 1080.33,-193.86 1055.04,-182.439"/>
<polygon fill="black" stroke="black" points="1056.24,-179.138 1045.68,-178.212 1053.36,-185.518 1056.24,-179.138"/>
</g>
<!-- b0 -->
<g id="node8" class="node"><title>b0</title>
<a xlink:href="0005488" xlink:title="GO:0005488">
<ellipse fill="#dddddd" stroke="#dddddd" cx="1167" cy="-162" rx="61.1934" ry="18"/>
<text text-anchor="middle" x="1167" y="-157.8" font-family="Times,serif" font-size="14.00">GO:0005488</text>
</a>
</g>
<!-- c0&#45;&gt;b0 -->
<g id="edge10" class="edge"><title>c0&#45;&gt;b0</title>
<path fill="none" stroke="black" d="M1167,-215.697C1167,-207.983 1167,-198.712 1167,-190.112"/>
<polygon fill="black" stroke="black" points="1170.5,-190.104 1167,-180.104 1163.5,-190.104 1170.5,-190.104"/>
</g>
<!-- p0 -->
<g id="node13" class="node"><title>p0</title>
<a xlink:href="0005215" xlink:title="GO:0005215 (1)">
<ellipse fill="#e98576" stroke="#e98576" cx="1322" cy="-162" rx="75.2018" ry="18"/>
<text text-anchor="middle" x="1322" y="-157.8" font-family="Times,serif" font-size="14.00">GO:0005215 (1)</text>
</a>
</g>
<!-- c0&#45;&gt;p0 -->
<g id="edge12" class="edge"><title>c0&#45;&gt;p0</title>
<path fill="none" stroke="black" d="M1199.12,-218.496C1222.23,-208.056 1253.67,-193.86 1278.96,-182.439"/>
<polygon fill="black" stroke="black" points="1280.64,-185.518 1288.32,-178.212 1277.76,-179.138 1280.64,-185.518"/>
</g>
<!-- q0 -->
<g id="node31" class="node"><title>q0</title>
<a xlink:href="0005198" xlink:title="GO:0005198 (1)">
<ellipse fill="#e98576" stroke="#e98576" cx="1490" cy="-162" rx="75.2018" ry="18"/>
<text text-anchor="middle" x="1490" y="-157.8" font-family="Times,serif" font-size="14.00">GO:0005198 (1)</text>
</a>
</g>
<!-- c0&#45;&gt;q0 -->
<g id="edge30" class="edge"><title>c0&#45;&gt;q0</title>
<path fill="none" stroke="black" d="M1214.66,-222.671C1270.68,-210.531 1363.88,-190.333 1426.12,-176.844"/>
<polygon fill="black" stroke="black" points="1427.18,-180.195 1436.22,-174.656 1425.7,-173.354 1427.18,-180.195"/>
</g>
<!-- f0 -->
<g id="node10" class="node"><title>f0</title>
<a xlink:href="0001882" xlink:title="GO:0001882 (2)">
<ellipse fill="#e98576" stroke="#e98576" cx="747" cy="-90" rx="75.2018" ry="18"/>
<text text-anchor="middle" x="747" y="-85.8" font-family="Times,serif" font-size="14.00">GO:0001882 (2)</text>
</a>
</g>
<!-- b0&#45;&gt;f0 -->
<g id="edge8" class="edge"><title>b0&#45;&gt;f0</title>
<path fill="none" stroke="black" d="M1122.45,-149.615C1113.72,-147.585 1104.6,-145.609 1096,-144 979.169,-122.134 948.199,-127.799 831,-108 824.494,-106.901 817.722,-105.673 810.971,-104.393"/>
<polygon fill="black" stroke="black" points="811.61,-100.952 801.128,-102.49 810.282,-107.824 811.61,-100.952"/>
</g>
<!-- a0 -->
<g id="node15" class="node"><title>a0</title>
<a xlink:href="0043167" xlink:title="GO:0043167 (5)">
<ellipse fill="#e98576" stroke="#e98576" cx="915" cy="-90" rx="75.2018" ry="18"/>
<text text-anchor="middle" x="915" y="-85.8" font-family="Times,serif" font-size="14.00">GO:0043167 (5)</text>
</a>
</g>
<!-- b0&#45;&gt;a0 -->
<g id="edge14" class="edge"><title>b0&#45;&gt;a0</title>
<path fill="none" stroke="black" d="M1123.97,-149.046C1082.06,-137.405 1018.1,-119.64 971.988,-106.83"/>
<polygon fill="black" stroke="black" points="972.713,-103.399 962.141,-104.095 970.839,-110.143 972.713,-103.399"/>
</g>
<!-- k0 -->
<g id="node24" class="node"><title>k0</title>
<a xlink:href="0003676" xlink:title="GO:0003676 (1)">
<ellipse fill="#e98576" stroke="#e98576" cx="1083" cy="-90" rx="75.2018" ry="18"/>
<text text-anchor="middle" x="1083" y="-85.8" font-family="Times,serif" font-size="14.00">GO:0003676 (1)</text>
</a>
</g>
<!-- b0&#45;&gt;k0 -->
<g id="edge22" class="edge"><title>b0&#45;&gt;k0</title>
<path fill="none" stroke="black" d="M1147.52,-144.765C1136.57,-135.642 1122.73,-124.105 1110.67,-114.059"/>
<polygon fill="black" stroke="black" points="1112.59,-111.103 1102.67,-107.39 1108.11,-116.48 1112.59,-111.103"/>
</g>
<!-- i0 -->
<g id="node26" class="node"><title>i0</title>
<a xlink:href="0046906" xlink:title="GO:0046906 (2)">
<ellipse fill="#e98576" stroke="#e98576" cx="1251" cy="-90" rx="75.2018" ry="18"/>
<text text-anchor="middle" x="1251" y="-85.8" font-family="Times,serif" font-size="14.00">GO:0046906 (2)</text>
</a>
</g>
<!-- b0&#45;&gt;i0 -->
<g id="edge24" class="edge"><title>b0&#45;&gt;i0</title>
<path fill="none" stroke="black" d="M1186.48,-144.765C1197.43,-135.642 1211.27,-124.105 1223.33,-114.059"/>
<polygon fill="black" stroke="black" points="1225.89,-116.48 1231.33,-107.39 1221.41,-111.103 1225.89,-116.48"/>
</g>
<!-- j0 -->
<g id="node29" class="node"><title>j0</title>
<a xlink:href="0000166" xlink:title="GO:0000166 (2)">
<ellipse fill="#e98576" stroke="#e98576" cx="1419" cy="-90" rx="75.2018" ry="18"/>
<text text-anchor="middle" x="1419" y="-85.8" font-family="Times,serif" font-size="14.00">GO:0000166 (2)</text>
</a>
</g>
<!-- b0&#45;&gt;j0 -->
<g id="edge28" class="edge"><title>b0&#45;&gt;j0</title>
<path fill="none" stroke="black" d="M1210.03,-149.046C1251.94,-137.405 1315.9,-119.64 1362.01,-106.83"/>
<polygon fill="black" stroke="black" points="1363.16,-110.143 1371.86,-104.095 1361.29,-103.399 1363.16,-110.143"/>
</g>
<!-- h0 -->
<g id="node33" class="node"><title>h0</title>
<a xlink:href="0051540" xlink:title="GO:0051540 (2)">
<ellipse fill="#e98576" stroke="#e98576" cx="1587" cy="-90" rx="75.2018" ry="18"/>
<text text-anchor="middle" x="1587" y="-85.8" font-family="Times,serif" font-size="14.00">GO:0051540 (2)</text>
</a>
</g>
<!-- b0&#45;&gt;h0 -->
<g id="edge32" class="edge"><title>b0&#45;&gt;h0</title>
<path fill="none" stroke="black" d="M1211.55,-149.615C1220.28,-147.585 1229.4,-145.609 1238,-144 1354.83,-122.134 1385.8,-127.799 1503,-108 1509.51,-106.901 1516.28,-105.673 1523.03,-104.393"/>
<polygon fill="black" stroke="black" points="1523.72,-107.824 1532.87,-102.49 1522.39,-100.952 1523.72,-107.824"/>
</g>
<!-- r0 -->
<g id="node35" class="node"><title>r0</title>
<a xlink:href="0048037" xlink:title="GO:0048037 (1)">
<ellipse fill="#e98576" stroke="#e98576" cx="1755" cy="-90" rx="75.2018" ry="18"/>
<text text-anchor="middle" x="1755" y="-85.8" font-family="Times,serif" font-size="14.00">GO:0048037 (1)</text>
</a>
</g>
<!-- b0&#45;&gt;r0 -->
<g id="edge34" class="edge"><title>b0&#45;&gt;r0</title>
<path fill="none" stroke="black" d="M1211.1,-149.343C1219.96,-147.312 1229.24,-145.405 1238,-144 1428.67,-113.429 1479.82,-135.199 1671,-108 1677.73,-107.043 1684.73,-105.885 1691.7,-104.63"/>
<polygon fill="black" stroke="black" points="1692.65,-108.013 1701.84,-102.733 1691.37,-101.132 1692.65,-108.013"/>
</g>
<!-- o0 -->
<g id="node20" class="node"><title>o0</title>
<a xlink:href="0009055" xlink:title="GO:0009055 (1)">
<ellipse fill="#e98576" stroke="#e98576" cx="411" cy="-18" rx="75.2018" ry="18"/>
<text text-anchor="middle" x="411" y="-13.8" font-family="Times,serif" font-size="14.00">GO:0009055 (1)</text>
</a>
</g>
<!-- d0&#45;&gt;o0 -->
<g id="edge18" class="edge"><title>d0&#45;&gt;o0</title>
<path fill="none" stroke="black" d="M411,-71.6966C411,-63.9827 411,-54.7125 411,-46.1124"/>
<polygon fill="black" stroke="black" points="414.5,-46.1043 411,-36.1043 407.5,-46.1044 414.5,-46.1043"/>
</g>
</g>
</svg>
