<?xml version="1.0" encoding="UTF-8" standalone="no"?>
<!DOCTYPE svg PUBLIC "-//W3C//DTD SVG 1.1//EN"
 "http://www.w3.org/Graphics/SVG/1.1/DTD/svg11.dtd">
<!-- Generated by graphviz version 2.28.0 (20110622.2320)
 -->
<!-- Title: G Pages: 1 -->
<svg width="1659pt" height="548pt"
 viewBox="0.00 0.00 1659.00 548.00" xmlns="http://www.w3.org/2000/svg" xmlns:xlink="http://www.w3.org/1999/xlink">
<g id="graph1" class="graph" transform="scale(1 1) rotate(0) translate(4 544)">
<title>G</title>
<polygon fill="white" stroke="white" points="-4,5 -4,-544 1656,-544 1656,5 -4,5"/>
<!-- d0 -->
<g id="node1" class="node"><title>d0</title>
<a xlink:href="0044464" xlink:title="GO:0044464 (1)">
<ellipse fill="#e98576" stroke="#e98576" cx="660" cy="-378" rx="75.2018" ry="18"/>
<text text-anchor="middle" x="660" y="-373.8" font-family="Times,serif" font-size="14.00">GO:0044464 (1)</text>
</a>
</g>
<!-- b1 -->
<g id="node3" class="node"><title>b1</title>
<a xlink:href="0009986" xlink:title="GO:0009986 (1)">
<ellipse fill="#e98576" stroke="#e98576" cx="996" cy="-306" rx="75.2018" ry="18"/>
<text text-anchor="middle" x="996" y="-301.8" font-family="Times,serif" font-size="14.00">GO:0009986 (1)</text>
</a>
</g>
<!-- d0&#45;&gt;b1 -->
<g id="edge2" class="edge"><title>d0&#45;&gt;b1</title>
<path fill="none" stroke="black" d="M714.732,-365.597C774.04,-353.242 868.601,-333.541 931.482,-320.441"/>
<polygon fill="black" stroke="black" points="932.215,-323.864 941.291,-318.398 930.788,-317.011 932.215,-323.864"/>
</g>
<!-- v0 -->
<g id="node8" class="node"><title>v0</title>
<a xlink:href="0042995" xlink:title="GO:0042995">
<ellipse fill="#dddddd" stroke="#dddddd" cx="159" cy="-306" rx="61.1934" ry="18"/>
<text text-anchor="middle" x="159" y="-301.8" font-family="Times,serif" font-size="14.00">GO:0042995</text>
</a>
</g>
<!-- d0&#45;&gt;v0 -->
<g id="edge6" class="edge"><title>d0&#45;&gt;v0</title>
<path fill="none" stroke="black" d="M591.442,-370.584C507.004,-362.197 359.35,-345.948 234,-324 227.7,-322.897 221.131,-321.611 214.615,-320.25"/>
<polygon fill="black" stroke="black" points="214.978,-316.748 204.465,-318.064 213.504,-323.591 214.978,-316.748"/>
</g>
<!-- g0 -->
<g id="node19" class="node"><title>g0</title>
<a xlink:href="0044424" xlink:title="GO:0044424">
<ellipse fill="#dddddd" stroke="#dddddd" cx="466" cy="-234" rx="61.1934" ry="18"/>
<text text-anchor="middle" x="466" y="-229.8" font-family="Times,serif" font-size="14.00">GO:0044424</text>
</a>
</g>
<!-- d0&#45;&gt;g0 -->
<g id="edge46" class="edge"><title>d0&#45;&gt;g0</title>
<path fill="none" stroke="black" d="M588.294,-372.377C480.696,-364.7 287.787,-347.779 267,-324 224.773,-275.696 325.739,-252.338 398.767,-242.07"/>
<polygon fill="black" stroke="black" points="399.427,-245.513 408.869,-240.706 398.49,-238.575 399.427,-245.513"/>
</g>
<!-- h0 -->
<g id="node43" class="node"><title>h0</title>
<a xlink:href="0005622" xlink:title="GO:0005622">
<ellipse fill="#dddddd" stroke="#dddddd" cx="337" cy="-306" rx="61.1934" ry="18"/>
<text text-anchor="middle" x="337" y="-301.8" font-family="Times,serif" font-size="14.00">GO:0005622</text>
</a>
</g>
<!-- d0&#45;&gt;h0 -->
<g id="edge48" class="edge"><title>d0&#45;&gt;h0</title>
<path fill="none" stroke="black" d="M604.351,-365.757C553.225,-355.319 475.39,-339.151 408,-324 403.027,-322.882 397.863,-321.695 392.693,-320.49"/>
<polygon fill="black" stroke="black" points="393.324,-317.043 382.788,-318.16 391.722,-323.857 393.324,-317.043"/>
</g>
<!-- o0 -->
<g id="node52" class="node"><title>o0</title>
<a xlink:href="0030496" xlink:title="GO:0030496 (1)">
<ellipse fill="#e98576" stroke="#e98576" cx="492" cy="-306" rx="75.2018" ry="18"/>
<text text-anchor="middle" x="492" y="-301.8" font-family="Times,serif" font-size="14.00">GO:0030496 (1)</text>
</a>
</g>
<!-- d0&#45;&gt;o0 -->
<g id="edge56" class="edge"><title>d0&#45;&gt;o0</title>
<path fill="none" stroke="black" d="M624.372,-362.155C598.954,-351.564 564.574,-337.239 537.222,-325.842"/>
<polygon fill="black" stroke="black" points="538.443,-322.56 527.866,-321.944 535.751,-329.021 538.443,-322.56"/>
</g>
<!-- c0 -->
<g id="node60" class="node"><title>c0</title>
<a xlink:href="0016020" xlink:title="GO:0016020 (4)">
<ellipse fill="#e98576" stroke="#e98576" cx="660" cy="-306" rx="75.2018" ry="18"/>
<text text-anchor="middle" x="660" y="-301.8" font-family="Times,serif" font-size="14.00">GO:0016020 (4)</text>
</a>
</g>
<!-- d0&#45;&gt;c0 -->
<g id="edge68" class="edge"><title>d0&#45;&gt;c0</title>
<path fill="none" stroke="black" d="M660,-359.697C660,-351.983 660,-342.712 660,-334.112"/>
<polygon fill="black" stroke="black" points="663.5,-334.104 660,-324.104 656.5,-334.104 663.5,-334.104"/>
</g>
<!-- z0 -->
<g id="node62" class="node"><title>z0</title>
<a xlink:href="0043025" xlink:title="GO:0043025 (1)">
<ellipse fill="#e98576" stroke="#e98576" cx="828" cy="-306" rx="75.2018" ry="18"/>
<text text-anchor="middle" x="828" y="-301.8" font-family="Times,serif" font-size="14.00">GO:0043025 (1)</text>
</a>
</g>
<!-- d0&#45;&gt;z0 -->
<g id="edge70" class="edge"><title>d0&#45;&gt;z0</title>
<path fill="none" stroke="black" d="M695.628,-362.155C721.046,-351.564 755.426,-337.239 782.778,-325.842"/>
<polygon fill="black" stroke="black" points="784.249,-329.021 792.134,-321.944 781.557,-322.56 784.249,-329.021"/>
</g>
<!-- s0 -->
<g id="node4" class="node"><title>s0</title>
<a xlink:href="0043234" xlink:title="GO:0043234 (1)">
<ellipse fill="#e98576" stroke="#e98576" cx="1540" cy="-378" rx="75.2018" ry="18"/>
<text text-anchor="middle" x="1540" y="-373.8" font-family="Times,serif" font-size="14.00">GO:0043234 (1)</text>
</a>
</g>
<!-- y0 -->
<g id="node6" class="node"><title>y0</title>
<a xlink:href="0019814" xlink:title="GO:0019814 (1)">
<ellipse fill="#e98576" stroke="#e98576" cx="1576" cy="-306" rx="75.2018" ry="18"/>
<text text-anchor="middle" x="1576" y="-301.8" font-family="Times,serif" font-size="14.00">GO:0019814 (1)</text>
</a>
</g>
<!-- s0&#45;&gt;y0 -->
<g id="edge4" class="edge"><title>s0&#45;&gt;y0</title>
<path fill="none" stroke="black" d="M1548.71,-360.055C1552.85,-352.007 1557.89,-342.205 1562.51,-333.226"/>
<polygon fill="black" stroke="black" points="1565.65,-334.769 1567.12,-324.275 1559.43,-331.567 1565.65,-334.769"/>
</g>
<!-- x0 -->
<g id="node18" class="node"><title>x0</title>
<a xlink:href="0043005" xlink:title="GO:0043005 (1)">
<ellipse fill="#e98576" stroke="#e98576" cx="243" cy="-234" rx="75.2018" ry="18"/>
<text text-anchor="middle" x="243" y="-229.8" font-family="Times,serif" font-size="14.00">GO:0043005 (1)</text>
</a>
</g>
<!-- v0&#45;&gt;x0 -->
<g id="edge16" class="edge"><title>v0&#45;&gt;x0</title>
<path fill="none" stroke="black" d="M178.482,-288.765C189.43,-279.642 203.275,-268.105 215.33,-258.059"/>
<polygon fill="black" stroke="black" points="217.891,-260.48 223.332,-251.39 213.409,-255.103 217.891,-260.48"/>
</g>
<!-- u0 -->
<g id="node64" class="node"><title>u0</title>
<a xlink:href="0005902" xlink:title="GO:0005902 (1)">
<ellipse fill="#e98576" stroke="#e98576" cx="75" cy="-234" rx="75.2018" ry="18"/>
<text text-anchor="middle" x="75" y="-229.8" font-family="Times,serif" font-size="14.00">GO:0005902 (1)</text>
</a>
</g>
<!-- v0&#45;&gt;u0 -->
<g id="edge72" class="edge"><title>v0&#45;&gt;u0</title>
<path fill="none" stroke="black" d="M139.518,-288.765C128.57,-279.642 114.725,-268.105 102.67,-258.059"/>
<polygon fill="black" stroke="black" points="104.591,-255.103 94.6677,-251.39 100.109,-260.48 104.591,-255.103"/>
</g>
<!-- j0 -->
<g id="node9" class="node"><title>j0</title>
<a xlink:href="0043231" xlink:title="GO:0043231">
<ellipse fill="#dddddd" stroke="#dddddd" cx="751" cy="-90" rx="61.1934" ry="18"/>
<text text-anchor="middle" x="751" y="-85.8" font-family="Times,serif" font-size="14.00">GO:0043231</text>
</a>
</g>
<!-- r0 -->
<g id="node11" class="node"><title>r0</title>
<a xlink:href="0005768" xlink:title="GO:0005768 (1)">
<ellipse fill="#e98576" stroke="#e98576" cx="878" cy="-18" rx="75.2018" ry="18"/>
<text text-anchor="middle" x="878" y="-13.8" font-family="Times,serif" font-size="14.00">GO:0005768 (1)</text>
</a>
</g>
<!-- j0&#45;&gt;r0 -->
<g id="edge8" class="edge"><title>j0&#45;&gt;r0</title>
<path fill="none" stroke="black" d="M778.557,-73.811C796.65,-63.8383 820.549,-50.6659 840.383,-39.7338"/>
<polygon fill="black" stroke="black" points="842.106,-42.7806 849.174,-34.8882 838.727,-36.6501 842.106,-42.7806"/>
</g>
<!-- i0 -->
<g id="node15" class="node"><title>i0</title>
<a xlink:href="0005794" xlink:title="GO:0005794 (2)">
<ellipse fill="#e98576" stroke="#e98576" cx="542" cy="-18" rx="75.2018" ry="18"/>
<text text-anchor="middle" x="542" y="-13.8" font-family="Times,serif" font-size="14.00">GO:0005794 (2)</text>
</a>
</g>
<!-- j0&#45;&gt;i0 -->
<g id="edge12" class="edge"><title>j0&#45;&gt;i0</title>
<path fill="none" stroke="black" d="M712.179,-75.9976C678.694,-64.7825 630.078,-48.4999 593.375,-36.2069"/>
<polygon fill="black" stroke="black" points="594.434,-32.8705 583.84,-33.0134 592.211,-39.5081 594.434,-32.8705"/>
</g>
<!-- w0 -->
<g id="node29" class="node"><title>w0</title>
<a xlink:href="0005783" xlink:title="GO:0005783 (1)">
<ellipse fill="#e98576" stroke="#e98576" cx="710" cy="-18" rx="75.2018" ry="18"/>
<text text-anchor="middle" x="710" y="-13.8" font-family="Times,serif" font-size="14.00">GO:0005783 (1)</text>
</a>
</g>
<!-- j0&#45;&gt;w0 -->
<g id="edge26" class="edge"><title>j0&#45;&gt;w0</title>
<path fill="none" stroke="black" d="M741.075,-72.055C736.311,-63.922 730.499,-53.998 725.195,-44.9426"/>
<polygon fill="black" stroke="black" points="728.193,-43.1352 720.118,-36.2753 722.152,-46.6731 728.193,-43.1352"/>
</g>
<!-- n0 -->
<g id="node12" class="node"><title>n0</title>
<a xlink:href="0044444" xlink:title="GO:0044444">
<ellipse fill="#dddddd" stroke="#dddddd" cx="569" cy="-90" rx="61.1934" ry="18"/>
<text text-anchor="middle" x="569" y="-85.8" font-family="Times,serif" font-size="14.00">GO:0044444</text>
</a>
</g>
<!-- n0&#45;&gt;r0 -->
<g id="edge10" class="edge"><title>n0&#45;&gt;r0</title>
<path fill="none" stroke="black" d="M615.93,-78.3685C669.236,-66.2927 756.458,-46.5338 815.495,-33.1598"/>
<polygon fill="black" stroke="black" points="816.466,-36.5285 825.446,-30.9055 814.919,-29.7015 816.466,-36.5285"/>
</g>
<!-- n0&#45;&gt;i0 -->
<g id="edge14" class="edge"><title>n0&#45;&gt;i0</title>
<path fill="none" stroke="black" d="M562.464,-72.055C559.425,-64.1762 555.738,-54.6165 552.335,-45.794"/>
<polygon fill="black" stroke="black" points="555.528,-44.3457 548.663,-36.2753 548.997,-46.8649 555.528,-44.3457"/>
</g>
<!-- n0&#45;&gt;w0 -->
<g id="edge28" class="edge"><title>n0&#45;&gt;w0</title>
<path fill="none" stroke="black" d="M598.902,-74.1548C619.507,-63.9257 647.129,-50.2124 669.676,-39.019"/>
<polygon fill="black" stroke="black" points="671.274,-42.1333 678.675,-34.5516 668.161,-35.8634 671.274,-42.1333"/>
</g>
<!-- g0&#45;&gt;n0 -->
<g id="edge62" class="edge"><title>g0&#45;&gt;n0</title>
<path fill="none" stroke="black" d="M465.83,-215.71C466.46,-196.546 469.994,-165.51 485,-144 495.049,-129.595 510.4,-118.262 525.243,-109.838"/>
<polygon fill="black" stroke="black" points="527.193,-112.764 534.367,-104.967 523.897,-106.589 527.193,-112.764"/>
</g>
<!-- f0 -->
<g id="node21" class="node"><title>f0</title>
<a xlink:href="0005737" xlink:title="GO:0005737 (2)">
<ellipse fill="#e98576" stroke="#e98576" cx="569" cy="-162" rx="75.2018" ry="18"/>
<text text-anchor="middle" x="569" y="-157.8" font-family="Times,serif" font-size="14.00">GO:0005737 (2)</text>
</a>
</g>
<!-- g0&#45;&gt;f0 -->
<g id="edge18" class="edge"><title>g0&#45;&gt;f0</title>
<path fill="none" stroke="black" d="M489.115,-217.291C503.228,-207.7 521.476,-195.298 536.968,-184.769"/>
<polygon fill="black" stroke="black" points="538.944,-187.658 545.247,-179.142 535.009,-181.869 538.944,-187.658"/>
</g>
<!-- m0 -->
<g id="node24" class="node"><title>m0</title>
<a xlink:href="0043229" xlink:title="GO:0043229">
<ellipse fill="#dddddd" stroke="#dddddd" cx="751" cy="-162" rx="61.1934" ry="18"/>
<text text-anchor="middle" x="751" y="-157.8" font-family="Times,serif" font-size="14.00">GO:0043229</text>
</a>
</g>
<!-- g0&#45;&gt;m0 -->
<g id="edge22" class="edge"><title>g0&#45;&gt;m0</title>
<path fill="none" stroke="black" d="M511.474,-221.831C561.524,-209.538 641.985,-189.776 695.659,-176.593"/>
<polygon fill="black" stroke="black" points="696.811,-179.914 705.688,-174.129 695.142,-173.116 696.811,-179.914"/>
</g>
<!-- f0&#45;&gt;n0 -->
<g id="edge60" class="edge"><title>f0&#45;&gt;n0</title>
<path fill="none" stroke="black" d="M569,-143.697C569,-135.983 569,-126.712 569,-118.112"/>
<polygon fill="black" stroke="black" points="572.5,-118.104 569,-108.104 565.5,-118.104 572.5,-118.104"/>
</g>
<!-- l0 -->
<g id="node22" class="node"><title>l0</title>
<a xlink:href="0043226" xlink:title="GO:0043226">
<ellipse fill="#dddddd" stroke="#dddddd" cx="1173" cy="-378" rx="61.1934" ry="18"/>
<text text-anchor="middle" x="1173" y="-373.8" font-family="Times,serif" font-size="14.00">GO:0043226</text>
</a>
</g>
<!-- l0&#45;&gt;m0 -->
<g id="edge20" class="edge"><title>l0&#45;&gt;m0</title>
<path fill="none" stroke="black" d="M1159.14,-360.137C1142.23,-340.493 1111.93,-308.166 1080,-288 991.612,-232.183 874.423,-195.143 806.405,-176.712"/>
<polygon fill="black" stroke="black" points="807.3,-173.328 796.736,-174.127 805.493,-180.091 807.3,-173.328"/>
</g>
<!-- p0 -->
<g id="node32" class="node"><title>p0</title>
<a xlink:href="0043230" xlink:title="GO:0043230 (1)">
<ellipse fill="#e98576" stroke="#e98576" cx="1408" cy="-306" rx="75.2018" ry="18"/>
<text text-anchor="middle" x="1408" y="-301.8" font-family="Times,serif" font-size="14.00">GO:0043230 (1)</text>
</a>
</g>
<!-- l0&#45;&gt;p0 -->
<g id="edge30" class="edge"><title>l0&#45;&gt;p0</title>
<path fill="none" stroke="black" d="M1214.47,-364.647C1253.1,-353.14 1310.94,-335.911 1353.33,-323.285"/>
<polygon fill="black" stroke="black" points="1354.35,-326.632 1362.94,-320.423 1352.35,-319.923 1354.35,-326.632"/>
</g>
<!-- a1 -->
<g id="node40" class="node"><title>a1</title>
<a xlink:href="0031982" xlink:title="GO:0031982 (1)">
<ellipse fill="#e98576" stroke="#e98576" cx="1240" cy="-306" rx="75.2018" ry="18"/>
<text text-anchor="middle" x="1240" y="-301.8" font-family="Times,serif" font-size="14.00">GO:0031982 (1)</text>
</a>
</g>
<!-- l0&#45;&gt;a1 -->
<g id="edge40" class="edge"><title>l0&#45;&gt;a1</title>
<path fill="none" stroke="black" d="M1188.88,-360.411C1197.18,-351.734 1207.51,-340.946 1216.7,-331.342"/>
<polygon fill="black" stroke="black" points="1219.38,-333.601 1223.77,-323.956 1214.33,-328.76 1219.38,-333.601"/>
</g>
<!-- k0 -->
<g id="node42" class="node"><title>k0</title>
<a xlink:href="0043227" xlink:title="GO:0043227">
<ellipse fill="#dddddd" stroke="#dddddd" cx="974" cy="-162" rx="61.1934" ry="18"/>
<text text-anchor="middle" x="974" y="-157.8" font-family="Times,serif" font-size="14.00">GO:0043227</text>
</a>
</g>
<!-- l0&#45;&gt;k0 -->
<g id="edge42" class="edge"><title>l0&#45;&gt;k0</title>
<path fill="none" stroke="black" d="M1167.53,-359.958C1154.83,-320.752 1123.61,-226.692 1113,-216 1092.18,-195.021 1062.19,-182.207 1035.4,-174.451"/>
<polygon fill="black" stroke="black" points="1036.26,-171.058 1025.7,-171.816 1034.43,-177.814 1036.26,-171.058"/>
</g>
<!-- m0&#45;&gt;j0 -->
<g id="edge52" class="edge"><title>m0&#45;&gt;j0</title>
<path fill="none" stroke="black" d="M751,-143.697C751,-135.983 751,-126.712 751,-118.112"/>
<polygon fill="black" stroke="black" points="754.5,-118.104 751,-108.104 747.5,-118.104 754.5,-118.104"/>
</g>
<!-- b0 -->
<g id="node26" class="node"><title>b0</title>
<a xlink:href="0005575" xlink:title="GO:0005575">
<ellipse fill="#dddddd" stroke="#dddddd" cx="1192" cy="-522" rx="61.1934" ry="18"/>
<text text-anchor="middle" x="1192" y="-517.8" font-family="Times,serif" font-size="14.00">GO:0005575</text>
</a>
</g>
<!-- b0&#45;&gt;d0 -->
<g id="edge36" class="edge"><title>b0&#45;&gt;d0</title>
<path fill="none" stroke="black" d="M1139.88,-512.34C1086.7,-503.066 1002,-487.077 930,-468 851.4,-447.174 762.146,-416.294 708.502,-396.925"/>
<polygon fill="black" stroke="black" points="709.505,-393.566 698.91,-393.448 707.118,-400.147 709.505,-393.566"/>
</g>
<!-- b0&#45;&gt;l0 -->
<g id="edge24" class="edge"><title>b0&#45;&gt;l0</title>
<path fill="none" stroke="black" d="M1189.71,-503.871C1186.47,-479.67 1180.52,-435.211 1176.67,-406.393"/>
<polygon fill="black" stroke="black" points="1180.1,-405.637 1175.3,-396.189 1173.16,-406.565 1180.1,-405.637"/>
</g>
<!-- q0 -->
<g id="node33" class="node"><title>q0</title>
<a xlink:href="0044421" xlink:title="GO:0044421">
<ellipse fill="#dddddd" stroke="#dddddd" cx="1314" cy="-378" rx="61.1934" ry="18"/>
<text text-anchor="middle" x="1314" y="-373.8" font-family="Times,serif" font-size="14.00">GO:0044421</text>
</a>
</g>
<!-- b0&#45;&gt;q0 -->
<g id="edge64" class="edge"><title>b0&#45;&gt;q0</title>
<path fill="none" stroke="black" d="M1195.99,-503.952C1201.18,-484.723 1211.8,-453.356 1230,-432 1241.58,-418.414 1257.53,-407.149 1272.42,-398.55"/>
<polygon fill="black" stroke="black" points="1274.44,-401.435 1281.51,-393.544 1271.06,-395.304 1274.44,-401.435"/>
</g>
<!-- e0 -->
<g id="node36" class="node"><title>e0</title>
<a xlink:href="0005623" xlink:title="GO:0005623">
<ellipse fill="#dddddd" stroke="#dddddd" cx="1000" cy="-450" rx="61.1934" ry="18"/>
<text text-anchor="middle" x="1000" y="-445.8" font-family="Times,serif" font-size="14.00">GO:0005623</text>
</a>
</g>
<!-- b0&#45;&gt;e0 -->
<g id="edge34" class="edge"><title>b0&#45;&gt;e0</title>
<path fill="none" stroke="black" d="M1154.98,-507.503C1124.04,-496.222 1079.74,-480.073 1046.43,-467.927"/>
<polygon fill="black" stroke="black" points="1047.5,-464.592 1036.91,-464.455 1045.1,-471.169 1047.5,-464.592"/>
</g>
<!-- a0 -->
<g id="node50" class="node"><title>a0</title>
<a xlink:href="0005576" xlink:title="GO:0005576 (6)">
<ellipse fill="#e98576" stroke="#e98576" cx="1314" cy="-450" rx="75.2018" ry="18"/>
<text text-anchor="middle" x="1314" y="-445.8" font-family="Times,serif" font-size="14.00">GO:0005576 (6)</text>
</a>
</g>
<!-- b0&#45;&gt;a0 -->
<g id="edge54" class="edge"><title>b0&#45;&gt;a0</title>
<path fill="none" stroke="black" d="M1218.77,-505.638C1236.01,-495.747 1258.65,-482.761 1277.52,-471.931"/>
<polygon fill="black" stroke="black" points="1279.51,-474.824 1286.44,-466.811 1276.03,-468.752 1279.51,-474.824"/>
</g>
<!-- t0 -->
<g id="node54" class="node"><title>t0</title>
<a xlink:href="0032991" xlink:title="GO:0032991">
<ellipse fill="#dddddd" stroke="#dddddd" cx="1504" cy="-450" rx="61.1934" ry="18"/>
<text text-anchor="middle" x="1504" y="-445.8" font-family="Times,serif" font-size="14.00">GO:0032991</text>
</a>
</g>
<!-- b0&#45;&gt;t0 -->
<g id="edge58" class="edge"><title>b0&#45;&gt;t0</title>
<path fill="none" stroke="black" d="M1239.05,-510.445C1294.65,-497.97 1387.13,-477.222 1446.81,-463.831"/>
<polygon fill="black" stroke="black" points="1447.83,-467.188 1456.83,-461.584 1446.3,-460.358 1447.83,-467.188"/>
</g>
<!-- q0&#45;&gt;p0 -->
<g id="edge32" class="edge"><title>q0&#45;&gt;p0</title>
<path fill="none" stroke="black" d="M1335.33,-361.116C1347.89,-351.763 1363.98,-339.782 1377.82,-329.472"/>
<polygon fill="black" stroke="black" points="1380.17,-332.087 1386.1,-323.307 1375.99,-326.473 1380.17,-332.087"/>
</g>
<!-- e0&#45;&gt;d0 -->
<g id="edge38" class="edge"><title>e0&#45;&gt;d0</title>
<path fill="none" stroke="black" d="M951.286,-438.971C891.817,-426.727 791.029,-405.977 724.992,-392.381"/>
<polygon fill="black" stroke="black" points="725.607,-388.934 715.107,-390.346 724.196,-395.79 725.607,-388.934"/>
</g>
<!-- k0&#45;&gt;j0 -->
<g id="edge50" class="edge"><title>k0&#45;&gt;j0</title>
<path fill="none" stroke="black" d="M933.616,-148.324C896.396,-136.64 841.029,-119.26 801.023,-106.702"/>
<polygon fill="black" stroke="black" points="802.049,-103.356 791.459,-103.7 799.952,-110.035 802.049,-103.356"/>
</g>
<!-- h0&#45;&gt;g0 -->
<g id="edge44" class="edge"><title>h0&#45;&gt;g0</title>
<path fill="none" stroke="black" d="M364.991,-289.811C383.755,-279.629 408.665,-266.112 429.053,-255.049"/>
<polygon fill="black" stroke="black" points="430.943,-258.005 438.064,-250.159 427.605,-251.853 430.943,-258.005"/>
</g>
<!-- a0&#45;&gt;q0 -->
<g id="edge66" class="edge"><title>a0&#45;&gt;q0</title>
<path fill="none" stroke="black" d="M1314,-431.697C1314,-423.983 1314,-414.712 1314,-406.112"/>
<polygon fill="black" stroke="black" points="1317.5,-406.104 1314,-396.104 1310.5,-406.104 1317.5,-406.104"/>
</g>
<!-- t0&#45;&gt;s0 -->
<g id="edge74" class="edge"><title>t0&#45;&gt;s0</title>
<path fill="none" stroke="black" d="M1512.71,-432.055C1516.85,-424.007 1521.89,-414.205 1526.51,-405.226"/>
<polygon fill="black" stroke="black" points="1529.65,-406.769 1531.12,-396.275 1523.43,-403.567 1529.65,-406.769"/>
</g>
</g>
</svg>
