<?xml version="1.0" encoding="UTF-8" standalone="no"?>
<!DOCTYPE svg PUBLIC "-//W3C//DTD SVG 1.1//EN"
 "http://www.w3.org/Graphics/SVG/1.1/DTD/svg11.dtd">
<!-- Generated by graphviz version 2.28.0 (20110622.2320)
 -->
<!-- Title: G Pages: 1 -->
<svg width="4011pt" height="404pt"
 viewBox="0.00 0.00 4011.00 404.00" xmlns="http://www.w3.org/2000/svg" xmlns:xlink="http://www.w3.org/1999/xlink">
<g id="graph1" class="graph" transform="scale(1 1) rotate(0) translate(4 400)">
<title>G</title>
<polygon fill="white" stroke="white" points="-4,5 -4,-400 4008,-400 4008,5 -4,5"/>
<!-- j0 -->
<g id="node1" class="node"><title>j0</title>
<a xlink:href="0044237" xlink:title="GO:0044237">
<ellipse fill="#dddddd" stroke="#dddddd" cx="1737" cy="-234" rx="61.1934" ry="18"/>
<text text-anchor="middle" x="1737" y="-229.8" font-family="Times,serif" font-size="14.00">GO:0044237</text>
</a>
</g>
<!-- u1 -->
<g id="node3" class="node"><title>u1</title>
<a xlink:href="0006790" xlink:title="GO:0006790 (1)">
<ellipse fill="#e98576" stroke="#e98576" cx="2228" cy="-162" rx="75.2018" ry="18"/>
<text text-anchor="middle" x="2228" y="-157.8" font-family="Times,serif" font-size="14.00">GO:0006790 (1)</text>
</a>
</g>
<!-- j0&#45;&gt;u1 -->
<g id="edge2" class="edge"><title>j0&#45;&gt;u1</title>
<path fill="none" stroke="black" d="M1793.48,-226.914C1872.23,-218.14 2019.41,-200.694 2144,-180 2150.51,-178.919 2157.28,-177.702 2164.04,-176.43"/>
<polygon fill="black" stroke="black" points="2164.72,-179.862 2173.88,-174.534 2163.4,-172.988 2164.72,-179.862"/>
</g>
<!-- s0 -->
<g id="node7" class="node"><title>s0</title>
<a xlink:href="0006139" xlink:title="GO:0006139">
<ellipse fill="#dddddd" stroke="#dddddd" cx="1145" cy="-162" rx="61.1934" ry="18"/>
<text text-anchor="middle" x="1145" y="-157.8" font-family="Times,serif" font-size="14.00">GO:0006139</text>
</a>
</g>
<!-- j0&#45;&gt;s0 -->
<g id="edge138" class="edge"><title>j0&#45;&gt;s0</title>
<path fill="none" stroke="black" d="M1680.4,-226.996C1649.3,-223.713 1610.02,-219.594 1575,-216 1415.48,-199.632 1374.11,-206.731 1216,-180 1210.53,-179.076 1204.86,-177.971 1199.21,-176.774"/>
<polygon fill="black" stroke="black" points="1199.64,-173.285 1189.12,-174.54 1198.13,-180.119 1199.64,-173.285"/>
</g>
<!-- y0 -->
<g id="node13" class="node"><title>y0</title>
<a xlink:href="0006082" xlink:title="GO:0006082 (3)">
<ellipse fill="#e98576" stroke="#e98576" cx="1892" cy="-162" rx="75.2018" ry="18"/>
<text text-anchor="middle" x="1892" y="-157.8" font-family="Times,serif" font-size="14.00">GO:0006082 (3)</text>
</a>
</g>
<!-- j0&#45;&gt;y0 -->
<g id="edge10" class="edge"><title>j0&#45;&gt;y0</title>
<path fill="none" stroke="black" d="M1769.12,-218.496C1792.23,-208.056 1823.67,-193.86 1848.96,-182.439"/>
<polygon fill="black" stroke="black" points="1850.64,-185.518 1858.32,-178.212 1847.76,-179.138 1850.64,-185.518"/>
</g>
<!-- i2 -->
<g id="node14" class="node"><title>i2</title>
<a xlink:href="0006519" xlink:title="GO:0006519">
<ellipse fill="#dddddd" stroke="#dddddd" cx="1286" cy="-162" rx="61.1934" ry="18"/>
<text text-anchor="middle" x="1286" y="-157.8" font-family="Times,serif" font-size="14.00">GO:0006519</text>
</a>
</g>
<!-- j0&#45;&gt;i2 -->
<g id="edge56" class="edge"><title>j0&#45;&gt;i2</title>
<path fill="none" stroke="black" d="M1680.71,-226.869C1606.28,-218.37 1471.21,-201.586 1357,-180 1351.63,-178.985 1346.05,-177.829 1340.49,-176.61"/>
<polygon fill="black" stroke="black" points="1341.08,-173.153 1330.55,-174.361 1339.53,-179.981 1341.08,-173.153"/>
</g>
<!-- j2 -->
<g id="node17" class="node"><title>j2</title>
<a xlink:href="0009308" xlink:title="GO:0009308">
<ellipse fill="#dddddd" stroke="#dddddd" cx="2551" cy="-162" rx="61.1934" ry="18"/>
<text text-anchor="middle" x="2551" y="-157.8" font-family="Times,serif" font-size="14.00">GO:0009308</text>
</a>
</g>
<!-- j0&#45;&gt;j2 -->
<g id="edge102" class="edge"><title>j0&#45;&gt;j2</title>
<path fill="none" stroke="black" d="M1796.72,-230.007C1948.93,-222.174 2348.6,-200.278 2480,-180 2485.7,-179.121 2491.61,-178.017 2497.49,-176.797"/>
<polygon fill="black" stroke="black" points="2498.27,-180.209 2507.29,-174.652 2496.77,-173.371 2498.27,-180.209"/>
</g>
<!-- c2 -->
<g id="node39" class="node"><title>c2</title>
<a xlink:href="0042440" xlink:title="GO:0042440 (1)">
<ellipse fill="#e98576" stroke="#e98576" cx="1582" cy="-162" rx="75.2018" ry="18"/>
<text text-anchor="middle" x="1582" y="-157.8" font-family="Times,serif" font-size="14.00">GO:0042440 (1)</text>
</a>
</g>
<!-- j0&#45;&gt;c2 -->
<g id="edge34" class="edge"><title>j0&#45;&gt;c2</title>
<path fill="none" stroke="black" d="M1704.88,-218.496C1681.77,-208.056 1650.33,-193.86 1625.04,-182.439"/>
<polygon fill="black" stroke="black" points="1626.24,-179.138 1615.68,-178.212 1623.36,-185.518 1626.24,-179.138"/>
</g>
<!-- o1 -->
<g id="node45" class="node"><title>o1</title>
<a xlink:href="0044249" xlink:title="GO:0044249">
<ellipse fill="#dddddd" stroke="#dddddd" cx="1427" cy="-162" rx="61.1934" ry="18"/>
<text text-anchor="middle" x="1427" y="-157.8" font-family="Times,serif" font-size="14.00">GO:0044249</text>
</a>
</g>
<!-- j0&#45;&gt;o1 -->
<g id="edge40" class="edge"><title>j0&#45;&gt;o1</title>
<path fill="none" stroke="black" d="M1689.33,-222.676C1641.06,-212.162 1564.26,-195.279 1498,-180 1493.03,-178.855 1487.87,-177.65 1482.71,-176.432"/>
<polygon fill="black" stroke="black" points="1483.34,-172.986 1472.81,-174.087 1481.73,-179.797 1483.34,-172.986"/>
</g>
<!-- i0 -->
<g id="node59" class="node"><title>i0</title>
<a xlink:href="0044260" xlink:title="GO:0044260">
<ellipse fill="#dddddd" stroke="#dddddd" cx="863" cy="-162" rx="61.1934" ry="18"/>
<text text-anchor="middle" x="863" y="-157.8" font-family="Times,serif" font-size="14.00">GO:0044260</text>
</a>
</g>
<!-- j0&#45;&gt;i0 -->
<g id="edge54" class="edge"><title>j0&#45;&gt;i0</title>
<path fill="none" stroke="black" d="M1681.21,-226.471C1650,-222.989 1610.38,-218.848 1575,-216 1290.58,-193.104 1216.32,-221.387 934,-180 928.296,-179.164 922.377,-178.088 916.501,-176.884"/>
<polygon fill="black" stroke="black" points="917.21,-173.457 906.696,-174.757 915.726,-180.298 917.21,-173.457"/>
</g>
<!-- z1 -->
<g id="node73" class="node"><title>z1</title>
<a xlink:href="0006793" xlink:title="GO:0006793 (1)">
<ellipse fill="#e98576" stroke="#e98576" cx="2396" cy="-162" rx="75.2018" ry="18"/>
<text text-anchor="middle" x="2396" y="-157.8" font-family="Times,serif" font-size="14.00">GO:0006793 (1)</text>
</a>
</g>
<!-- j0&#45;&gt;z1 -->
<g id="edge68" class="edge"><title>j0&#45;&gt;z1</title>
<path fill="none" stroke="black" d="M1796.43,-229.64C1901.06,-223.255 2124.79,-207.491 2312,-180 2318.63,-179.027 2325.52,-177.87 2332.38,-176.625"/>
<polygon fill="black" stroke="black" points="2333.2,-180.034 2342.38,-174.748 2331.9,-173.154 2333.2,-180.034"/>
</g>
<!-- z0 -->
<g id="node75" class="node"><title>z0</title>
<a xlink:href="0051186" xlink:title="GO:0051186 (2)">
<ellipse fill="#e98576" stroke="#e98576" cx="2060" cy="-162" rx="75.2018" ry="18"/>
<text text-anchor="middle" x="2060" y="-157.8" font-family="Times,serif" font-size="14.00">GO:0051186 (2)</text>
</a>
</g>
<!-- j0&#45;&gt;z0 -->
<g id="edge70" class="edge"><title>j0&#45;&gt;z0</title>
<path fill="none" stroke="black" d="M1784.66,-222.671C1840.68,-210.531 1933.88,-190.333 1996.12,-176.844"/>
<polygon fill="black" stroke="black" points="1997.18,-180.195 2006.22,-174.656 1995.7,-173.354 1997.18,-180.195"/>
</g>
<!-- b2 -->
<g id="node82" class="node"><title>b2</title>
<a xlink:href="0043094" xlink:title="GO:0043094">
<ellipse fill="#dddddd" stroke="#dddddd" cx="1737" cy="-162" rx="61.1934" ry="18"/>
<text text-anchor="middle" x="1737" y="-157.8" font-family="Times,serif" font-size="14.00">GO:0043094</text>
</a>
</g>
<!-- j0&#45;&gt;b2 -->
<g id="edge78" class="edge"><title>j0&#45;&gt;b2</title>
<path fill="none" stroke="black" d="M1737,-215.697C1737,-207.983 1737,-198.712 1737,-190.112"/>
<polygon fill="black" stroke="black" points="1740.5,-190.104 1737,-180.104 1733.5,-190.104 1740.5,-190.104"/>
</g>
<!-- e0 -->
<g id="node4" class="node"><title>e0</title>
<a xlink:href="0044267" xlink:title="GO:0044267">
<ellipse fill="#dddddd" stroke="#dddddd" cx="712" cy="-90" rx="61.1934" ry="18"/>
<text text-anchor="middle" x="712" y="-85.8" font-family="Times,serif" font-size="14.00">GO:0044267</text>
</a>
</g>
<!-- d0 -->
<g id="node6" class="node"><title>d0</title>
<a xlink:href="0006457" xlink:title="GO:0006457 (5)">
<ellipse fill="#e98576" stroke="#e98576" cx="712" cy="-18" rx="75.2018" ry="18"/>
<text text-anchor="middle" x="712" y="-13.8" font-family="Times,serif" font-size="14.00">GO:0006457 (5)</text>
</a>
</g>
<!-- e0&#45;&gt;d0 -->
<g id="edge4" class="edge"><title>e0&#45;&gt;d0</title>
<path fill="none" stroke="black" d="M712,-71.6966C712,-63.9827 712,-54.7125 712,-46.1124"/>
<polygon fill="black" stroke="black" points="715.5,-46.1043 712,-36.1043 708.5,-46.1044 715.5,-46.1043"/>
</g>
<!-- l1 -->
<g id="node78" class="node"><title>l1</title>
<a xlink:href="0006412" xlink:title="GO:0006412 (1)">
<ellipse fill="#e98576" stroke="#e98576" cx="1216" cy="-18" rx="75.2018" ry="18"/>
<text text-anchor="middle" x="1216" y="-13.8" font-family="Times,serif" font-size="14.00">GO:0006412 (1)</text>
</a>
</g>
<!-- e0&#45;&gt;l1 -->
<g id="edge76" class="edge"><title>e0&#45;&gt;l1</title>
<path fill="none" stroke="black" d="M766.999,-81.9407C790.957,-78.8731 819.366,-75.246 845,-72 972.537,-55.8504 1005.13,-56.7646 1132,-36 1138.51,-34.9343 1145.29,-33.7277 1152.04,-32.461"/>
<polygon fill="black" stroke="black" points="1152.72,-35.8937 1161.89,-30.5716 1151.41,-29.0191 1152.72,-35.8937"/>
</g>
<!-- m0 -->
<g id="node116" class="node"><title>m0</title>
<a xlink:href="0006508" xlink:title="GO:0006508 (5)">
<ellipse fill="#e98576" stroke="#e98576" cx="880" cy="-18" rx="75.2018" ry="18"/>
<text text-anchor="middle" x="880" y="-13.8" font-family="Times,serif" font-size="14.00">GO:0006508 (5)</text>
</a>
</g>
<!-- e0&#45;&gt;m0 -->
<g id="edge124" class="edge"><title>e0&#45;&gt;m0</title>
<path fill="none" stroke="black" d="M745.997,-74.8345C771.556,-64.1851 806.825,-49.4897 834.765,-37.8481"/>
<polygon fill="black" stroke="black" points="836.429,-40.9463 844.314,-33.8693 833.737,-34.4847 836.429,-40.9463"/>
</g>
<!-- g1 -->
<g id="node129" class="node"><title>g1</title>
<a xlink:href="0006464" xlink:title="GO:0006464 (2)">
<ellipse fill="#e98576" stroke="#e98576" cx="376" cy="-18" rx="75.2018" ry="18"/>
<text text-anchor="middle" x="376" y="-13.8" font-family="Times,serif" font-size="14.00">GO:0006464 (2)</text>
</a>
</g>
<!-- e0&#45;&gt;g1 -->
<g id="edge144" class="edge"><title>e0&#45;&gt;g1</title>
<path fill="none" stroke="black" d="M663.502,-78.8962C604.849,-66.6769 505.906,-46.0637 440.77,-32.4938"/>
<polygon fill="black" stroke="black" points="441.122,-28.9919 430.618,-30.3787 439.694,-35.8448 441.122,-28.9919"/>
</g>
<!-- v1 -->
<g id="node133" class="node"><title>v1</title>
<a xlink:href="0051261" xlink:title="GO:0051261 (1)">
<ellipse fill="#e98576" stroke="#e98576" cx="544" cy="-18" rx="75.2018" ry="18"/>
<text text-anchor="middle" x="544" y="-13.8" font-family="Times,serif" font-size="14.00">GO:0051261 (1)</text>
</a>
</g>
<!-- e0&#45;&gt;v1 -->
<g id="edge148" class="edge"><title>e0&#45;&gt;v1</title>
<path fill="none" stroke="black" d="M678.003,-74.8345C652.444,-64.1851 617.175,-49.4897 589.235,-37.8481"/>
<polygon fill="black" stroke="black" points="590.263,-34.4847 579.686,-33.8693 587.571,-40.9463 590.263,-34.4847"/>
</g>
<!-- n2 -->
<g id="node9" class="node"><title>n2</title>
<a xlink:href="0016070" xlink:title="GO:0016070">
<ellipse fill="#dddddd" stroke="#dddddd" cx="915" cy="-90" rx="61.1934" ry="18"/>
<text text-anchor="middle" x="915" y="-85.8" font-family="Times,serif" font-size="14.00">GO:0016070</text>
</a>
</g>
<!-- s0&#45;&gt;n2 -->
<g id="edge6" class="edge"><title>s0&#45;&gt;n2</title>
<path fill="none" stroke="black" d="M1104.15,-148.566C1065.43,-136.782 1007.16,-119.047 965.532,-106.379"/>
<polygon fill="black" stroke="black" points="966.446,-102.999 955.861,-103.436 964.408,-109.696 966.446,-102.999"/>
</g>
<!-- a2 -->
<g id="node85" class="node"><title>a2</title>
<a xlink:href="0043101" xlink:title="GO:0043101 (1)">
<ellipse fill="#e98576" stroke="#e98576" cx="1481" cy="-90" rx="75.2018" ry="18"/>
<text text-anchor="middle" x="1481" y="-85.8" font-family="Times,serif" font-size="14.00">GO:0043101 (1)</text>
</a>
</g>
<!-- s0&#45;&gt;a2 -->
<g id="edge82" class="edge"><title>s0&#45;&gt;a2</title>
<path fill="none" stroke="black" d="M1190.39,-149.863C1198.89,-147.854 1207.71,-145.822 1216,-144 1283.16,-129.249 1360.27,-114.018 1413.93,-103.69"/>
<polygon fill="black" stroke="black" points="1414.85,-107.079 1424.01,-101.756 1413.53,-100.204 1414.85,-107.079"/>
</g>
<!-- r0 -->
<g id="node136" class="node"><title>r0</title>
<a xlink:href="0009117" xlink:title="GO:0009117 (4)">
<ellipse fill="#e98576" stroke="#e98576" cx="1275" cy="-90" rx="75.2018" ry="18"/>
<text text-anchor="middle" x="1275" y="-85.8" font-family="Times,serif" font-size="14.00">GO:0009117 (4)</text>
</a>
</g>
<!-- s0&#45;&gt;r0 -->
<g id="edge152" class="edge"><title>s0&#45;&gt;r0</title>
<path fill="none" stroke="black" d="M1173.21,-145.811C1191.86,-135.769 1216.53,-122.482 1236.92,-111.505"/>
<polygon fill="black" stroke="black" points="1238.8,-114.467 1245.95,-106.644 1235.48,-108.303 1238.8,-114.467"/>
</g>
<!-- t0 -->
<g id="node147" class="node"><title>t0</title>
<a xlink:href="0009116" xlink:title="GO:0009116 (4)">
<ellipse fill="#e98576" stroke="#e98576" cx="1107" cy="-90" rx="75.2018" ry="18"/>
<text text-anchor="middle" x="1107" y="-85.8" font-family="Times,serif" font-size="14.00">GO:0009116 (4)</text>
</a>
</g>
<!-- s0&#45;&gt;t0 -->
<g id="edge168" class="edge"><title>s0&#45;&gt;t0</title>
<path fill="none" stroke="black" d="M1135.8,-144.055C1131.43,-136.007 1126.11,-126.205 1121.24,-117.226"/>
<polygon fill="black" stroke="black" points="1124.22,-115.394 1116.38,-108.275 1118.07,-118.734 1124.22,-115.394"/>
</g>
<!-- m2 -->
<g id="node48" class="node"><title>m2</title>
<a xlink:href="0006396" xlink:title="GO:0006396 (1)">
<ellipse fill="#e98576" stroke="#e98576" cx="1048" cy="-18" rx="75.2018" ry="18"/>
<text text-anchor="middle" x="1048" y="-13.8" font-family="Times,serif" font-size="14.00">GO:0006396 (1)</text>
</a>
</g>
<!-- n2&#45;&gt;m2 -->
<g id="edge42" class="edge"><title>n2&#45;&gt;m2</title>
<path fill="none" stroke="black" d="M943.532,-73.9832C962.681,-63.905 988.146,-50.5023 1009.14,-39.4527"/>
<polygon fill="black" stroke="black" points="1010.91,-42.475 1018.13,-34.7203 1007.65,-36.2806 1010.91,-42.475"/>
</g>
<!-- i1 -->
<g id="node10" class="node"><title>i1</title>
<a xlink:href="0043283" xlink:title="GO:0043283">
<ellipse fill="#dddddd" stroke="#dddddd" cx="385" cy="-162" rx="61.1934" ry="18"/>
<text text-anchor="middle" x="385" y="-157.8" font-family="Times,serif" font-size="14.00">GO:0043283</text>
</a>
</g>
<!-- i1&#45;&gt;n2 -->
<g id="edge8" class="edge"><title>i1&#45;&gt;n2</title>
<path fill="none" stroke="black" d="M429.515,-149.442C438.255,-147.428 447.384,-145.501 456,-144 599.606,-118.98 637.254,-125.242 782,-108 804.249,-105.35 828.57,-102.289 850.259,-99.5014"/>
<polygon fill="black" stroke="black" points="850.877,-102.951 860.347,-98.2001 849.982,-96.0083 850.877,-102.951"/>
</g>
<!-- h1 -->
<g id="node50" class="node"><title>h1</title>
<a xlink:href="0043412" xlink:title="GO:0043412">
<ellipse fill="#dddddd" stroke="#dddddd" cx="382" cy="-90" rx="61.1934" ry="18"/>
<text text-anchor="middle" x="382" y="-85.8" font-family="Times,serif" font-size="14.00">GO:0043412</text>
</a>
</g>
<!-- i1&#45;&gt;h1 -->
<g id="edge44" class="edge"><title>i1&#45;&gt;h1</title>
<path fill="none" stroke="black" d="M384.258,-143.697C383.928,-135.983 383.531,-126.712 383.162,-118.112"/>
<polygon fill="black" stroke="black" points="386.658,-117.945 382.733,-108.104 379.665,-118.245 386.658,-117.945"/>
</g>
<!-- k2 -->
<g id="node19" class="node"><title>k2</title>
<a xlink:href="0019752" xlink:title="GO:0019752">
<ellipse fill="#dddddd" stroke="#dddddd" cx="1892" cy="-90" rx="61.1934" ry="18"/>
<text text-anchor="middle" x="1892" y="-85.8" font-family="Times,serif" font-size="14.00">GO:0019752</text>
</a>
</g>
<!-- y0&#45;&gt;k2 -->
<g id="edge146" class="edge"><title>y0&#45;&gt;k2</title>
<path fill="none" stroke="black" d="M1892,-143.697C1892,-135.983 1892,-126.712 1892,-118.112"/>
<polygon fill="black" stroke="black" points="1895.5,-118.104 1892,-108.104 1888.5,-118.104 1895.5,-118.104"/>
</g>
<!-- h2 -->
<g id="node16" class="node"><title>h2</title>
<a xlink:href="0006520" xlink:title="GO:0006520 (1)">
<ellipse fill="#e98576" stroke="#e98576" cx="1892" cy="-18" rx="75.2018" ry="18"/>
<text text-anchor="middle" x="1892" y="-13.8" font-family="Times,serif" font-size="14.00">GO:0006520 (1)</text>
</a>
</g>
<!-- i2&#45;&gt;h2 -->
<g id="edge12" class="edge"><title>i2&#45;&gt;h2</title>
<path fill="none" stroke="black" d="M1309.27,-145.27C1323.9,-135.095 1342.98,-121.31 1359,-108 1376.9,-93.1343 1375.88,-81.7515 1397,-72 1468.08,-39.1856 1686.44,-26.2727 1808.04,-21.5271"/>
<polygon fill="black" stroke="black" points="1808.2,-25.0236 1818.06,-21.146 1807.93,-18.0287 1808.2,-25.0236"/>
</g>
<!-- j2&#45;&gt;h2 -->
<g id="edge14" class="edge"><title>j2&#45;&gt;h2</title>
<path fill="none" stroke="black" d="M2505.21,-149.854C2496.83,-147.867 2488.16,-145.844 2480,-144 2290.47,-101.17 2065.6,-54.5206 1957.05,-32.2624"/>
<polygon fill="black" stroke="black" points="1957.73,-28.8286 1947.23,-30.25 1956.32,-35.6861 1957.73,-28.8286"/>
</g>
<!-- k2&#45;&gt;h2 -->
<g id="edge16" class="edge"><title>k2&#45;&gt;h2</title>
<path fill="none" stroke="black" d="M1892,-71.6966C1892,-63.9827 1892,-54.7125 1892,-46.1124"/>
<polygon fill="black" stroke="black" points="1895.5,-46.1043 1892,-36.1043 1888.5,-46.1044 1895.5,-46.1043"/>
</g>
<!-- b0 -->
<g id="node21" class="node"><title>b0</title>
<a xlink:href="0008152" xlink:title="GO:0008152 (7)">
<ellipse fill="#e98576" stroke="#e98576" cx="1114" cy="-306" rx="75.2018" ry="18"/>
<text text-anchor="middle" x="1114" y="-301.8" font-family="Times,serif" font-size="14.00">GO:0008152 (7)</text>
</a>
</g>
<!-- b0&#45;&gt;j0 -->
<g id="edge120" class="edge"><title>b0&#45;&gt;j0</title>
<path fill="none" stroke="black" d="M1180.38,-297.542C1300.1,-284.089 1550.87,-255.913 1670.61,-242.459"/>
<polygon fill="black" stroke="black" points="1671.19,-245.916 1680.74,-241.321 1670.41,-238.96 1671.19,-245.916"/>
</g>
<!-- j1 -->
<g id="node23" class="node"><title>j1</title>
<a xlink:href="0006807" xlink:title="GO:0006807 (1)">
<ellipse fill="#e98576" stroke="#e98576" cx="2222" cy="-234" rx="75.2018" ry="18"/>
<text text-anchor="middle" x="2222" y="-229.8" font-family="Times,serif" font-size="14.00">GO:0006807 (1)</text>
</a>
</g>
<!-- b0&#45;&gt;j1 -->
<g id="edge18" class="edge"><title>b0&#45;&gt;j1</title>
<path fill="none" stroke="black" d="M1185.85,-300.461C1382.97,-288.007 1931.45,-253.356 2140.05,-240.178"/>
<polygon fill="black" stroke="black" points="2140.56,-243.652 2150.32,-239.529 2140.12,-236.666 2140.56,-243.652"/>
</g>
<!-- d2 -->
<g id="node37" class="node"><title>d2</title>
<a xlink:href="0019748" xlink:title="GO:0019748">
<ellipse fill="#dddddd" stroke="#dddddd" cx="1505" cy="-234" rx="61.1934" ry="18"/>
<text text-anchor="middle" x="1505" y="-229.8" font-family="Times,serif" font-size="14.00">GO:0019748</text>
</a>
</g>
<!-- b0&#45;&gt;d2 -->
<g id="edge114" class="edge"><title>b0&#45;&gt;d2</title>
<path fill="none" stroke="black" d="M1172.11,-294.596C1245.06,-281.537 1369.59,-259.242 1443.91,-245.938"/>
<polygon fill="black" stroke="black" points="1444.82,-249.33 1454.05,-244.122 1443.59,-242.439 1444.82,-249.33"/>
</g>
<!-- n1 -->
<g id="node43" class="node"><title>n1</title>
<a xlink:href="0009058" xlink:title="GO:0009058">
<ellipse fill="#dddddd" stroke="#dddddd" cx="1184" cy="-234" rx="61.1934" ry="18"/>
<text text-anchor="middle" x="1184" y="-229.8" font-family="Times,serif" font-size="14.00">GO:0009058</text>
</a>
</g>
<!-- b0&#45;&gt;n1 -->
<g id="edge86" class="edge"><title>b0&#45;&gt;n1</title>
<path fill="none" stroke="black" d="M1130.59,-288.411C1139.48,-279.519 1150.59,-268.411 1160.37,-258.631"/>
<polygon fill="black" stroke="black" points="1162.93,-261.016 1167.53,-251.47 1157.98,-256.066 1162.93,-261.016"/>
</g>
<!-- g0 -->
<g id="node51" class="node"><title>g0</title>
<a xlink:href="0043170" xlink:title="GO:0043170 (1)">
<ellipse fill="#e98576" stroke="#e98576" cx="786" cy="-234" rx="75.2018" ry="18"/>
<text text-anchor="middle" x="786" y="-229.8" font-family="Times,serif" font-size="14.00">GO:0043170 (1)</text>
</a>
</g>
<!-- b0&#45;&gt;g0 -->
<g id="edge162" class="edge"><title>b0&#45;&gt;g0</title>
<path fill="none" stroke="black" d="M1059.84,-293.441C1002.18,-281.137 911.01,-261.679 849.888,-248.635"/>
<polygon fill="black" stroke="black" points="850.48,-245.182 839.97,-246.518 849.019,-252.028 850.48,-245.182"/>
</g>
<!-- h0 -->
<g id="node54" class="node"><title>h0</title>
<a xlink:href="0044238" xlink:title="GO:0044238">
<ellipse fill="#dddddd" stroke="#dddddd" cx="1043" cy="-234" rx="61.1934" ry="18"/>
<text text-anchor="middle" x="1043" y="-229.8" font-family="Times,serif" font-size="14.00">GO:0044238</text>
</a>
</g>
<!-- b0&#45;&gt;h0 -->
<g id="edge174" class="edge"><title>b0&#45;&gt;h0</title>
<path fill="none" stroke="black" d="M1097.17,-288.411C1088.15,-279.519 1076.89,-268.411 1066.97,-258.631"/>
<polygon fill="black" stroke="black" points="1069.28,-255.998 1059.71,-251.47 1064.37,-260.983 1069.28,-255.998"/>
</g>
<!-- c1 -->
<g id="node94" class="node"><title>c1</title>
<a xlink:href="0009056" xlink:title="GO:0009056">
<ellipse fill="#dddddd" stroke="#dddddd" cx="631" cy="-234" rx="61.1934" ry="18"/>
<text text-anchor="middle" x="631" y="-229.8" font-family="Times,serif" font-size="14.00">GO:0009056</text>
</a>
</g>
<!-- b0&#45;&gt;c1 -->
<g id="edge96" class="edge"><title>b0&#45;&gt;c1</title>
<path fill="none" stroke="black" d="M1045.49,-298.455C963.448,-290.096 822.054,-274.029 702,-252 696.624,-251.013 691.044,-249.877 685.482,-248.669"/>
<polygon fill="black" stroke="black" points="686.061,-245.212 675.537,-246.434 684.526,-252.041 686.061,-245.212"/>
</g>
<!-- p1 -->
<g id="node96" class="node"><title>p1</title>
<a xlink:href="0015979" xlink:title="GO:0015979 (1)">
<ellipse fill="#e98576" stroke="#e98576" cx="308" cy="-234" rx="75.2018" ry="18"/>
<text text-anchor="middle" x="308" y="-229.8" font-family="Times,serif" font-size="14.00">GO:0015979 (1)</text>
</a>
</g>
<!-- b0&#45;&gt;p1 -->
<g id="edge98" class="edge"><title>b0&#45;&gt;p1</title>
<path fill="none" stroke="black" d="M1040.14,-302.66C909.088,-297.823 627.49,-284.341 392,-252 385.265,-251.075 378.259,-249.939 371.293,-248.696"/>
<polygon fill="black" stroke="black" points="371.622,-245.198 361.151,-246.812 370.343,-252.08 371.622,-245.198"/>
</g>
<!-- d1 -->
<g id="node107" class="node"><title>d1</title>
<a xlink:href="0006091" xlink:title="GO:0006091 (2)">
<ellipse fill="#e98576" stroke="#e98576" cx="476" cy="-234" rx="75.2018" ry="18"/>
<text text-anchor="middle" x="476" y="-229.8" font-family="Times,serif" font-size="14.00">GO:0006091 (2)</text>
</a>
</g>
<!-- b0&#45;&gt;d1 -->
<g id="edge112" class="edge"><title>b0&#45;&gt;d1</title>
<path fill="none" stroke="black" d="M1042.13,-300.459C936.369,-293.246 732.745,-277.337 561,-252 554.198,-250.997 547.117,-249.81 540.072,-248.537"/>
<polygon fill="black" stroke="black" points="540.287,-245.017 529.815,-246.622 539.002,-251.898 540.287,-245.017"/>
</g>
<!-- j1&#45;&gt;j2 -->
<g id="edge100" class="edge"><title>j1&#45;&gt;j2</title>
<path fill="none" stroke="black" d="M2278.23,-221.995C2330.57,-211.621 2410.7,-195.41 2480,-180 2485.05,-178.877 2490.3,-177.679 2495.55,-176.46"/>
<polygon fill="black" stroke="black" points="2496.66,-179.793 2505.6,-174.102 2495.06,-172.979 2496.66,-179.793"/>
</g>
<!-- c0 -->
<g id="node24" class="node"><title>c0</title>
<a xlink:href="0008150" xlink:title="GO:0008150">
<ellipse fill="#dddddd" stroke="#dddddd" cx="3515" cy="-378" rx="61.1934" ry="18"/>
<text text-anchor="middle" x="3515" y="-373.8" font-family="Times,serif" font-size="14.00">GO:0008150</text>
</a>
</g>
<!-- c0&#45;&gt;b0 -->
<g id="edge20" class="edge"><title>c0&#45;&gt;b0</title>
<path fill="none" stroke="black" d="M3454.45,-375.235C3127.96,-365.716 1578.15,-320.532 1198.22,-309.456"/>
<polygon fill="black" stroke="black" points="1198.23,-305.954 1188.13,-309.161 1198.02,-312.951 1198.23,-305.954"/>
</g>
<!-- p0 -->
<g id="node27" class="node"><title>p0</title>
<a xlink:href="0051234" xlink:title="GO:0051234">
<ellipse fill="#dddddd" stroke="#dddddd" cx="3594" cy="-234" rx="61.1934" ry="18"/>
<text text-anchor="middle" x="3594" y="-229.8" font-family="Times,serif" font-size="14.00">GO:0051234</text>
</a>
</g>
<!-- c0&#45;&gt;p0 -->
<g id="edge22" class="edge"><title>c0&#45;&gt;p0</title>
<path fill="none" stroke="black" d="M3515.51,-359.79C3516.76,-340.975 3520.85,-310.509 3534,-288 3540.92,-276.164 3551.41,-265.581 3561.7,-257.042"/>
<polygon fill="black" stroke="black" points="3564.13,-259.579 3569.83,-250.648 3559.81,-254.076 3564.13,-259.579"/>
</g>
<!-- q0 -->
<g id="node28" class="node"><title>q0</title>
<a xlink:href="0051179" xlink:title="GO:0051179">
<ellipse fill="#dddddd" stroke="#dddddd" cx="3426" cy="-306" rx="61.1934" ry="18"/>
<text text-anchor="middle" x="3426" y="-301.8" font-family="Times,serif" font-size="14.00">GO:0051179</text>
</a>
</g>
<!-- c0&#45;&gt;q0 -->
<g id="edge110" class="edge"><title>c0&#45;&gt;q0</title>
<path fill="none" stroke="black" d="M3494.36,-360.765C3482.56,-351.488 3467.59,-339.714 3454.67,-329.551"/>
<polygon fill="black" stroke="black" points="3456.55,-326.578 3446.53,-323.147 3452.23,-332.081 3456.55,-326.578"/>
</g>
<!-- e2 -->
<g id="node57" class="node"><title>e2</title>
<a xlink:href="0051704" xlink:title="GO:0051704 (1)">
<ellipse fill="#e98576" stroke="#e98576" cx="3618" cy="-306" rx="75.2018" ry="18"/>
<text text-anchor="middle" x="3618" y="-301.8" font-family="Times,serif" font-size="14.00">GO:0051704 (1)</text>
</a>
</g>
<!-- c0&#45;&gt;e2 -->
<g id="edge50" class="edge"><title>c0&#45;&gt;e2</title>
<path fill="none" stroke="black" d="M3538.12,-361.291C3552.23,-351.7 3570.48,-339.298 3585.97,-328.769"/>
<polygon fill="black" stroke="black" points="3587.94,-331.658 3594.25,-323.142 3584.01,-325.869 3587.94,-331.658"/>
</g>
<!-- f1 -->
<g id="node64" class="node"><title>f1</title>
<a xlink:href="0065007" xlink:title="GO:0065007">
<ellipse fill="#dddddd" stroke="#dddddd" cx="3773" cy="-306" rx="61.1934" ry="18"/>
<text text-anchor="middle" x="3773" y="-301.8" font-family="Times,serif" font-size="14.00">GO:0065007</text>
</a>
</g>
<!-- c0&#45;&gt;f1 -->
<g id="edge118" class="edge"><title>c0&#45;&gt;f1</title>
<path fill="none" stroke="black" d="M3558.47,-365.205C3602.85,-353.164 3671.81,-334.455 3719.51,-321.513"/>
<polygon fill="black" stroke="black" points="3720.61,-324.84 3729.35,-318.844 3718.78,-318.084 3720.61,-324.84"/>
</g>
<!-- l0 -->
<g id="node110" class="node"><title>l0</title>
<a xlink:href="0050896" xlink:title="GO:0050896 (5)">
<ellipse fill="#e98576" stroke="#e98576" cx="3928" cy="-306" rx="75.2018" ry="18"/>
<text text-anchor="middle" x="3928" y="-301.8" font-family="Times,serif" font-size="14.00">GO:0050896 (5)</text>
</a>
</g>
<!-- c0&#45;&gt;l0 -->
<g id="edge116" class="edge"><title>c0&#45;&gt;l0</title>
<path fill="none" stroke="black" d="M3559.29,-365.539C3567.79,-363.539 3576.65,-361.593 3585,-360 3698.73,-338.312 3728.85,-343.361 3843,-324 3849.58,-322.884 3856.43,-321.645 3863.26,-320.358"/>
<polygon fill="black" stroke="black" points="3864.06,-323.769 3873.22,-318.448 3862.74,-316.894 3864.06,-323.769"/>
</g>
<!-- k0 -->
<g id="node113" class="node"><title>k0</title>
<a xlink:href="0009987" xlink:title="GO:0009987">
<ellipse fill="#dddddd" stroke="#dddddd" cx="3042" cy="-306" rx="61.1934" ry="18"/>
<text text-anchor="middle" x="3042" y="-301.8" font-family="Times,serif" font-size="14.00">GO:0009987</text>
</a>
</g>
<!-- c0&#45;&gt;k0 -->
<g id="edge150" class="edge"><title>c0&#45;&gt;k0</title>
<path fill="none" stroke="black" d="M3461.66,-369.106C3373.89,-356.118 3199.42,-330.296 3105.45,-316.39"/>
<polygon fill="black" stroke="black" points="3105.91,-312.92 3095.51,-314.919 3104.89,-319.845 3105.91,-312.92"/>
</g>
<!-- o0 -->
<g id="node30" class="node"><title>o0</title>
<a xlink:href="0006810" xlink:title="GO:0006810 (4)">
<ellipse fill="#e98576" stroke="#e98576" cx="3765" cy="-162" rx="75.2018" ry="18"/>
<text text-anchor="middle" x="3765" y="-157.8" font-family="Times,serif" font-size="14.00">GO:0006810 (4)</text>
</a>
</g>
<!-- p0&#45;&gt;o0 -->
<g id="edge80" class="edge"><title>p0&#45;&gt;o0</title>
<path fill="none" stroke="black" d="M3628.19,-219.003C3654.38,-208.285 3690.74,-193.397 3719.4,-181.666"/>
<polygon fill="black" stroke="black" points="3720.87,-184.846 3728.8,-177.819 3718.22,-178.368 3720.87,-184.846"/>
</g>
<!-- r1 -->
<g id="node119" class="node"><title>r1</title>
<a xlink:href="0045184" xlink:title="GO:0045184">
<ellipse fill="#dddddd" stroke="#dddddd" cx="3507" cy="-90" rx="61.1934" ry="18"/>
<text text-anchor="middle" x="3507" y="-85.8" font-family="Times,serif" font-size="14.00">GO:0045184</text>
</a>
</g>
<!-- p0&#45;&gt;r1 -->
<g id="edge128" class="edge"><title>p0&#45;&gt;r1</title>
<path fill="none" stroke="black" d="M3594.28,-215.96C3593.83,-197.02 3590.78,-166.183 3577,-144 3568.9,-130.954 3556.33,-119.967 3544.07,-111.44"/>
<polygon fill="black" stroke="black" points="3545.97,-108.499 3535.69,-105.935 3542.12,-114.35 3545.97,-108.499"/>
</g>
<!-- q0&#45;&gt;p0 -->
<g id="edge24" class="edge"><title>q0&#45;&gt;p0</title>
<path fill="none" stroke="black" d="M3460,-290.834C3486.18,-279.923 3522.57,-264.765 3550.81,-252.995"/>
<polygon fill="black" stroke="black" points="3552.17,-256.221 3560.05,-249.144 3549.48,-249.76 3552.17,-256.221"/>
</g>
<!-- u0 -->
<g id="node35" class="node"><title>u0</title>
<a xlink:href="0051641" xlink:title="GO:0051641 (3)">
<ellipse fill="#e98576" stroke="#e98576" cx="3352" cy="-162" rx="75.2018" ry="18"/>
<text text-anchor="middle" x="3352" y="-157.8" font-family="Times,serif" font-size="14.00">GO:0051641 (3)</text>
</a>
</g>
<!-- q0&#45;&gt;u0 -->
<g id="edge30" class="edge"><title>q0&#45;&gt;u0</title>
<path fill="none" stroke="black" d="M3408.71,-288.709C3399.11,-278.862 3387.61,-265.612 3380,-252 3369.16,-232.617 3361.9,-208.471 3357.5,-190.221"/>
<polygon fill="black" stroke="black" points="3360.86,-189.213 3355.23,-180.238 3354.03,-190.765 3360.86,-189.213"/>
</g>
<!-- t1 -->
<g id="node104" class="node"><title>t1</title>
<a xlink:href="0033036" xlink:title="GO:0033036">
<ellipse fill="#dddddd" stroke="#dddddd" cx="3450" cy="-234" rx="61.1934" ry="18"/>
<text text-anchor="middle" x="3450" y="-229.8" font-family="Times,serif" font-size="14.00">GO:0033036</text>
</a>
</g>
<!-- q0&#45;&gt;t1 -->
<g id="edge108" class="edge"><title>q0&#45;&gt;t1</title>
<path fill="none" stroke="black" d="M3431.81,-288.055C3434.51,-280.176 3437.79,-270.617 3440.81,-261.794"/>
<polygon fill="black" stroke="black" points="3444.14,-262.87 3444.08,-252.275 3437.52,-260.6 3444.14,-262.87"/>
</g>
<!-- w0 -->
<g id="node32" class="node"><title>w0</title>
<a xlink:href="0006818" xlink:title="GO:0006818 (3)">
<ellipse fill="#e98576" stroke="#e98576" cx="3662" cy="-90" rx="75.2018" ry="18"/>
<text text-anchor="middle" x="3662" y="-85.8" font-family="Times,serif" font-size="14.00">GO:0006818 (3)</text>
</a>
</g>
<!-- o0&#45;&gt;w0 -->
<g id="edge26" class="edge"><title>o0&#45;&gt;w0</title>
<path fill="none" stroke="black" d="M3741.11,-144.765C3727.2,-135.311 3709.48,-123.265 3694.33,-112.972"/>
<polygon fill="black" stroke="black" points="3696,-109.873 3685.76,-107.147 3692.06,-115.663 3696,-109.873"/>
</g>
<!-- x0 -->
<g id="node42" class="node"><title>x0</title>
<a xlink:href="0006811" xlink:title="GO:0006811 (3)">
<ellipse fill="#e98576" stroke="#e98576" cx="3830" cy="-90" rx="75.2018" ry="18"/>
<text text-anchor="middle" x="3830" y="-85.8" font-family="Times,serif" font-size="14.00">GO:0006811 (3)</text>
</a>
</g>
<!-- o0&#45;&gt;x0 -->
<g id="edge36" class="edge"><title>o0&#45;&gt;x0</title>
<path fill="none" stroke="black" d="M3780.73,-144.055C3788.72,-135.457 3798.56,-124.857 3807.35,-115.397"/>
<polygon fill="black" stroke="black" points="3810.17,-117.499 3814.41,-107.789 3805.04,-112.735 3810.17,-117.499"/>
</g>
<!-- q1 -->
<g id="node122" class="node"><title>q1</title>
<a xlink:href="0015031" xlink:title="GO:0015031 (1)">
<ellipse fill="#e98576" stroke="#e98576" cx="3720" cy="-18" rx="75.2018" ry="18"/>
<text text-anchor="middle" x="3720" y="-13.8" font-family="Times,serif" font-size="14.00">GO:0015031 (1)</text>
</a>
</g>
<!-- o0&#45;&gt;q1 -->
<g id="edge130" class="edge"><title>o0&#45;&gt;q1</title>
<path fill="none" stroke="black" d="M3821.01,-149.875C3874.83,-136.601 3943.89,-111.158 3914,-72 3899.03,-52.3979 3841.51,-38.2906 3792.95,-29.5828"/>
<polygon fill="black" stroke="black" points="3793.52,-26.1279 3783.06,-27.8599 3792.31,-33.0241 3793.52,-26.1279"/>
</g>
<!-- v0 -->
<g id="node33" class="node"><title>v0</title>
<a xlink:href="0016043" xlink:title="GO:0016043">
<ellipse fill="#dddddd" stroke="#dddddd" cx="3042" cy="-234" rx="61.1934" ry="18"/>
<text text-anchor="middle" x="3042" y="-229.8" font-family="Times,serif" font-size="14.00">GO:0016043</text>
</a>
</g>
<!-- v0&#45;&gt;u0 -->
<g id="edge28" class="edge"><title>v0&#45;&gt;u0</title>
<path fill="none" stroke="black" d="M3089.08,-222.369C3142.56,-210.293 3230.06,-190.534 3289.29,-177.16"/>
<polygon fill="black" stroke="black" points="3290.29,-180.522 3299.28,-174.906 3288.75,-173.694 3290.29,-180.522"/>
</g>
<!-- a1 -->
<g id="node67" class="node"><title>a1</title>
<a xlink:href="0006996" xlink:title="GO:0006996 (2)">
<ellipse fill="#e98576" stroke="#e98576" cx="2706" cy="-162" rx="75.2018" ry="18"/>
<text text-anchor="middle" x="2706" y="-157.8" font-family="Times,serif" font-size="14.00">GO:0006996 (2)</text>
</a>
</g>
<!-- v0&#45;&gt;a1 -->
<g id="edge104" class="edge"><title>v0&#45;&gt;a1</title>
<path fill="none" stroke="black" d="M2993.5,-222.896C2934.85,-210.677 2835.91,-190.064 2770.77,-176.494"/>
<polygon fill="black" stroke="black" points="2771.12,-172.992 2760.62,-174.379 2769.69,-179.845 2771.12,-172.992"/>
</g>
<!-- x1 -->
<g id="node70" class="node"><title>x1</title>
<a xlink:href="0022613" xlink:title="GO:0022613">
<ellipse fill="#dddddd" stroke="#dddddd" cx="3197" cy="-162" rx="61.1934" ry="18"/>
<text text-anchor="middle" x="3197" y="-157.8" font-family="Times,serif" font-size="14.00">GO:0022613</text>
</a>
</g>
<!-- v0&#45;&gt;x1 -->
<g id="edge172" class="edge"><title>v0&#45;&gt;x1</title>
<path fill="none" stroke="black" d="M3074.12,-218.496C3097.7,-207.843 3129.95,-193.279 3155.5,-181.744"/>
<polygon fill="black" stroke="black" points="3157.25,-184.791 3164.93,-177.485 3154.37,-178.412 3157.25,-184.791"/>
</g>
<!-- k1 -->
<g id="node142" class="node"><title>k1</title>
<a xlink:href="0022411" xlink:title="GO:0022411 (1)">
<ellipse fill="#e98576" stroke="#e98576" cx="2874" cy="-162" rx="75.2018" ry="18"/>
<text text-anchor="middle" x="2874" y="-157.8" font-family="Times,serif" font-size="14.00">GO:0022411 (1)</text>
</a>
</g>
<!-- v0&#45;&gt;k1 -->
<g id="edge160" class="edge"><title>v0&#45;&gt;k1</title>
<path fill="none" stroke="black" d="M3008,-218.834C2982.44,-208.185 2947.18,-193.49 2919.24,-181.848"/>
<polygon fill="black" stroke="black" points="2920.26,-178.485 2909.69,-177.869 2917.57,-184.946 2920.26,-178.485"/>
</g>
<!-- y1 -->
<g id="node149" class="node"><title>y1</title>
<a xlink:href="0045229" xlink:title="GO:0045229 (1)">
<ellipse fill="#e98576" stroke="#e98576" cx="3042" cy="-162" rx="75.2018" ry="18"/>
<text text-anchor="middle" x="3042" y="-157.8" font-family="Times,serif" font-size="14.00">GO:0045229 (1)</text>
</a>
</g>
<!-- v0&#45;&gt;y1 -->
<g id="edge170" class="edge"><title>v0&#45;&gt;y1</title>
<path fill="none" stroke="black" d="M3042,-215.697C3042,-207.983 3042,-198.712 3042,-190.112"/>
<polygon fill="black" stroke="black" points="3045.5,-190.104 3042,-180.104 3038.5,-190.104 3045.5,-190.104"/>
</g>
<!-- d2&#45;&gt;c2 -->
<g id="edge32" class="edge"><title>d2&#45;&gt;c2</title>
<path fill="none" stroke="black" d="M1522.86,-216.765C1532.73,-207.795 1545.16,-196.49 1556.08,-186.564"/>
<polygon fill="black" stroke="black" points="1558.66,-188.95 1563.7,-179.633 1553.95,-183.77 1558.66,-188.95"/>
</g>
<!-- n1&#45;&gt;o1 -->
<g id="edge38" class="edge"><title>n1&#45;&gt;o1</title>
<path fill="none" stroke="black" d="M1226.05,-220.887C1267.35,-208.991 1330.45,-190.813 1374.9,-178.008"/>
<polygon fill="black" stroke="black" points="1376.01,-181.331 1384.65,-175.199 1374.07,-174.604 1376.01,-181.331"/>
</g>
<!-- m1 -->
<g id="node76" class="node"><title>m1</title>
<a xlink:href="0009059" xlink:title="GO:0009059">
<ellipse fill="#dddddd" stroke="#dddddd" cx="1004" cy="-162" rx="61.1934" ry="18"/>
<text text-anchor="middle" x="1004" y="-157.8" font-family="Times,serif" font-size="14.00">GO:0009059</text>
</a>
</g>
<!-- n1&#45;&gt;m1 -->
<g id="edge92" class="edge"><title>n1&#45;&gt;m1</title>
<path fill="none" stroke="black" d="M1148.44,-219.17C1119.96,-208.097 1079.84,-192.494 1049.11,-180.543"/>
<polygon fill="black" stroke="black" points="1050.08,-177.164 1039.49,-176.801 1047.54,-183.688 1050.08,-177.164"/>
</g>
<!-- o1&#45;&gt;l1 -->
<g id="edge74" class="edge"><title>o1&#45;&gt;l1</title>
<path fill="none" stroke="black" d="M1472.06,-149.625C1507.99,-139.54 1554.03,-123.97 1565,-108 1574.06,-94.8132 1575.43,-84.1333 1565,-72 1531.64,-33.1961 1393.3,-22.4646 1301.14,-19.693"/>
<polygon fill="black" stroke="black" points="1301.07,-16.1899 1290.97,-19.4138 1300.87,-23.1872 1301.07,-16.1899"/>
</g>
<!-- h1&#45;&gt;g1 -->
<g id="edge142" class="edge"><title>h1&#45;&gt;g1</title>
<path fill="none" stroke="black" d="M380.517,-71.6966C379.856,-63.9827 379.061,-54.7125 378.324,-46.1124"/>
<polygon fill="black" stroke="black" points="381.807,-45.7689 377.466,-36.1043 374.833,-46.3667 381.807,-45.7689"/>
</g>
<!-- g0&#45;&gt;i1 -->
<g id="edge60" class="edge"><title>g0&#45;&gt;i1</title>
<path fill="none" stroke="black" d="M731.208,-221.611C721.177,-219.648 710.787,-217.697 701,-216 592.559,-197.202 564.068,-200.834 456,-180 450.711,-178.98 445.221,-177.831 439.742,-176.622"/>
<polygon fill="black" stroke="black" points="440.467,-173.198 429.94,-174.399 438.918,-180.024 440.467,-173.198"/>
</g>
<!-- n0 -->
<g id="node53" class="node"><title>n0</title>
<a xlink:href="0005975" xlink:title="GO:0005975 (4)">
<ellipse fill="#e98576" stroke="#e98576" cx="540" cy="-162" rx="75.2018" ry="18"/>
<text text-anchor="middle" x="540" y="-157.8" font-family="Times,serif" font-size="14.00">GO:0005975 (4)</text>
</a>
</g>
<!-- g0&#45;&gt;n0 -->
<g id="edge46" class="edge"><title>g0&#45;&gt;n0</title>
<path fill="none" stroke="black" d="M739.44,-219.751C698.734,-208.168 639.521,-191.319 596.19,-178.989"/>
<polygon fill="black" stroke="black" points="596.946,-175.565 586.369,-176.195 595.03,-182.298 596.946,-175.565"/>
</g>
<!-- g0&#45;&gt;i0 -->
<g id="edge52" class="edge"><title>g0&#45;&gt;i0</title>
<path fill="none" stroke="black" d="M804.248,-216.411C814.197,-207.367 826.667,-196.03 837.557,-186.13"/>
<polygon fill="black" stroke="black" points="840.104,-188.545 845.149,-179.228 835.395,-183.365 840.104,-188.545"/>
</g>
<!-- g0&#45;&gt;m1 -->
<g id="edge94" class="edge"><title>g0&#45;&gt;m1</title>
<path fill="none" stroke="black" d="M829.07,-219.17C865.178,-207.576 916.749,-191.016 954.542,-178.881"/>
<polygon fill="black" stroke="black" points="955.871,-182.13 964.322,-175.741 953.731,-175.465 955.871,-182.13"/>
</g>
<!-- f0 -->
<g id="node89" class="node"><title>f0</title>
<a xlink:href="0019538" xlink:title="GO:0019538 (1)">
<ellipse fill="#e98576" stroke="#e98576" cx="708" cy="-162" rx="75.2018" ry="18"/>
<text text-anchor="middle" x="708" y="-157.8" font-family="Times,serif" font-size="14.00">GO:0019538 (1)</text>
</a>
</g>
<!-- g0&#45;&gt;f0 -->
<g id="edge88" class="edge"><title>g0&#45;&gt;f0</title>
<path fill="none" stroke="black" d="M767.515,-216.411C757.51,-207.432 744.986,-196.193 734.011,-186.344"/>
<polygon fill="black" stroke="black" points="736.132,-183.544 726.352,-179.47 731.457,-188.754 736.132,-183.544"/>
</g>
<!-- b1 -->
<g id="node139" class="node"><title>b1</title>
<a xlink:href="0009057" xlink:title="GO:0009057 (2)">
<ellipse fill="#e98576" stroke="#e98576" cx="230" cy="-162" rx="75.2018" ry="18"/>
<text text-anchor="middle" x="230" y="-157.8" font-family="Times,serif" font-size="14.00">GO:0009057 (2)</text>
</a>
</g>
<!-- g0&#45;&gt;b1 -->
<g id="edge158" class="edge"><title>g0&#45;&gt;b1</title>
<path fill="none" stroke="black" d="M732.189,-221.357C721.87,-219.374 711.126,-217.481 701,-216 530.513,-191.071 485.487,-204.929 315,-180 308.197,-179.005 301.115,-177.824 294.07,-176.555"/>
<polygon fill="black" stroke="black" points="294.283,-173.034 283.811,-174.643 293.001,-179.916 294.283,-173.034"/>
</g>
<!-- h0&#45;&gt;s0 -->
<g id="edge140" class="edge"><title>h0&#45;&gt;s0</title>
<path fill="none" stroke="black" d="M1065.89,-217.291C1079.84,-207.721 1097.86,-195.353 1113.18,-184.84"/>
<polygon fill="black" stroke="black" points="1115.57,-187.443 1121.83,-178.899 1111.61,-181.672 1115.57,-187.443"/>
</g>
<!-- h0&#45;&gt;i2 -->
<g id="edge58" class="edge"><title>h0&#45;&gt;i2</title>
<path fill="none" stroke="black" d="M1085.05,-220.887C1126.35,-208.991 1189.45,-190.813 1233.9,-178.008"/>
<polygon fill="black" stroke="black" points="1235.01,-181.331 1243.65,-175.199 1233.07,-174.604 1235.01,-181.331"/>
</g>
<!-- h0&#45;&gt;n0 -->
<g id="edge48" class="edge"><title>h0&#45;&gt;n0</title>
<path fill="none" stroke="black" d="M986.219,-227.164C905.478,-218.559 752.971,-201.178 624,-180 617.489,-178.931 610.714,-177.722 603.96,-176.454"/>
<polygon fill="black" stroke="black" points="604.596,-173.012 594.116,-174.563 603.276,-179.887 604.596,-173.012"/>
</g>
<!-- h0&#45;&gt;f0 -->
<g id="edge90" class="edge"><title>h0&#45;&gt;f0</title>
<path fill="none" stroke="black" d="M994.646,-222.896C936.254,-210.695 837.809,-190.124 772.864,-176.554"/>
<polygon fill="black" stroke="black" points="773.244,-173.058 762.74,-174.438 771.812,-179.91 773.244,-173.058"/>
</g>
<!-- i0&#45;&gt;e0 -->
<g id="edge166" class="edge"><title>i0&#45;&gt;e0</title>
<path fill="none" stroke="black" d="M831.713,-146.496C808.733,-135.843 777.316,-121.279 752.433,-109.744"/>
<polygon fill="black" stroke="black" points="753.792,-106.516 743.247,-105.485 750.848,-112.867 753.792,-106.516"/>
</g>
<!-- e1 -->
<g id="node66" class="node"><title>e1</title>
<a xlink:href="0050789" xlink:title="GO:0050789 (2)">
<ellipse fill="#e98576" stroke="#e98576" cx="3773" cy="-234" rx="75.2018" ry="18"/>
<text text-anchor="middle" x="3773" y="-229.8" font-family="Times,serif" font-size="14.00">GO:0050789 (2)</text>
</a>
</g>
<!-- f1&#45;&gt;e1 -->
<g id="edge62" class="edge"><title>f1&#45;&gt;e1</title>
<path fill="none" stroke="black" d="M3773,-287.697C3773,-279.983 3773,-270.712 3773,-262.112"/>
<polygon fill="black" stroke="black" points="3776.5,-262.104 3773,-252.104 3769.5,-262.104 3776.5,-262.104"/>
</g>
<!-- w1 -->
<g id="node69" class="node"><title>w1</title>
<a xlink:href="0042254" xlink:title="GO:0042254 (1)">
<ellipse fill="#e98576" stroke="#e98576" cx="2951" cy="-90" rx="75.2018" ry="18"/>
<text text-anchor="middle" x="2951" y="-85.8" font-family="Times,serif" font-size="14.00">GO:0042254 (1)</text>
</a>
</g>
<!-- a1&#45;&gt;w1 -->
<g id="edge64" class="edge"><title>a1&#45;&gt;w1</title>
<path fill="none" stroke="black" d="M2752.37,-147.751C2792.91,-136.168 2851.88,-119.319 2895.04,-106.989"/>
<polygon fill="black" stroke="black" points="2896.17,-110.307 2904.82,-104.195 2894.24,-103.577 2896.17,-110.307"/>
</g>
<!-- x1&#45;&gt;w1 -->
<g id="edge66" class="edge"><title>x1&#45;&gt;w1</title>
<path fill="none" stroke="black" d="M3154.71,-148.967C3113.97,-137.374 3052.08,-119.762 3007.21,-106.994"/>
<polygon fill="black" stroke="black" points="3007.91,-103.555 2997.34,-104.185 3006,-110.288 3007.91,-103.555"/>
</g>
<!-- m1&#45;&gt;l1 -->
<g id="edge72" class="edge"><title>m1&#45;&gt;l1</title>
<path fill="none" stroke="black" d="M1002.74,-143.877C1002.26,-123.984 1004.67,-91.4172 1023,-72 1032.16,-62.2969 1099.81,-45.1574 1152.46,-32.9984"/>
<polygon fill="black" stroke="black" points="1153.47,-36.3581 1162.43,-30.7129 1151.91,-29.535 1153.47,-36.3581"/>
</g>
<!-- b2&#45;&gt;a2 -->
<g id="edge84" class="edge"><title>b2&#45;&gt;a2</title>
<path fill="none" stroke="black" d="M1693.86,-149.205C1651.16,-137.528 1585.52,-119.579 1538.42,-106.702"/>
<polygon fill="black" stroke="black" points="1539.24,-103.296 1528.67,-104.035 1537.39,-110.049 1539.24,-103.296"/>
</g>
<!-- f0&#45;&gt;e0 -->
<g id="edge164" class="edge"><title>f0&#45;&gt;e0</title>
<path fill="none" stroke="black" d="M708.989,-143.697C709.43,-135.983 709.959,-126.712 710.451,-118.112"/>
<polygon fill="black" stroke="black" points="713.946,-118.288 711.023,-108.104 706.958,-117.888 713.946,-118.288"/>
</g>
<!-- c1&#45;&gt;b1 -->
<g id="edge156" class="edge"><title>c1&#45;&gt;b1</title>
<path fill="none" stroke="black" d="M586.06,-221.601C577.44,-219.596 568.463,-217.632 560,-216 451.932,-195.166 423.441,-198.798 315,-180 308.425,-178.86 301.577,-177.605 294.748,-176.309"/>
<polygon fill="black" stroke="black" points="295.273,-172.846 284.792,-174.389 293.948,-179.719 295.273,-172.846"/>
</g>
<!-- g2 -->
<g id="node100" class="node"><title>g2</title>
<a xlink:href="0015980" xlink:title="GO:0015980">
<ellipse fill="#dddddd" stroke="#dddddd" cx="75" cy="-162" rx="61.1934" ry="18"/>
<text text-anchor="middle" x="75" y="-157.8" font-family="Times,serif" font-size="14.00">GO:0015980</text>
</a>
</g>
<!-- f2 -->
<g id="node102" class="node"><title>f2</title>
<a xlink:href="0045333" xlink:title="GO:0045333 (1)">
<ellipse fill="#e98576" stroke="#e98576" cx="75" cy="-90" rx="75.2018" ry="18"/>
<text text-anchor="middle" x="75" y="-85.8" font-family="Times,serif" font-size="14.00">GO:0045333 (1)</text>
</a>
</g>
<!-- g2&#45;&gt;f2 -->
<g id="edge106" class="edge"><title>g2&#45;&gt;f2</title>
<path fill="none" stroke="black" d="M75,-143.697C75,-135.983 75,-126.712 75,-118.112"/>
<polygon fill="black" stroke="black" points="78.5001,-118.104 75,-108.104 71.5001,-118.104 78.5001,-118.104"/>
</g>
<!-- s1 -->
<g id="node117" class="node"><title>s1</title>
<a xlink:href="0008104" xlink:title="GO:0008104">
<ellipse fill="#dddddd" stroke="#dddddd" cx="3507" cy="-162" rx="61.1934" ry="18"/>
<text text-anchor="middle" x="3507" y="-157.8" font-family="Times,serif" font-size="14.00">GO:0008104</text>
</a>
</g>
<!-- t1&#45;&gt;s1 -->
<g id="edge134" class="edge"><title>t1&#45;&gt;s1</title>
<path fill="none" stroke="black" d="M3463.51,-216.411C3470.43,-207.906 3479.01,-197.372 3486.71,-187.914"/>
<polygon fill="black" stroke="black" points="3489.59,-189.921 3493.19,-179.956 3484.16,-185.501 3489.59,-189.921"/>
</g>
<!-- d1&#45;&gt;g2 -->
<g id="edge136" class="edge"><title>d1&#45;&gt;g2</title>
<path fill="none" stroke="black" d="M421.407,-221.504C411.633,-219.573 401.528,-217.66 392,-216 283.142,-197.034 254.506,-200.886 146,-180 140.71,-178.982 135.22,-177.833 129.742,-176.625"/>
<polygon fill="black" stroke="black" points="130.466,-173.201 119.939,-174.403 128.918,-180.028 130.466,-173.201"/>
</g>
<!-- k0&#45;&gt;j0 -->
<g id="edge122" class="edge"><title>k0&#45;&gt;j0</title>
<path fill="none" stroke="black" d="M2982.11,-301.787C2767.43,-290.272 2037.07,-251.095 1807,-238.755"/>
<polygon fill="black" stroke="black" points="1806.92,-235.246 1796.75,-238.205 1806.55,-242.236 1806.92,-235.246"/>
</g>
<!-- k0&#45;&gt;v0 -->
<g id="edge154" class="edge"><title>k0&#45;&gt;v0</title>
<path fill="none" stroke="black" d="M3042,-287.697C3042,-279.983 3042,-270.712 3042,-262.112"/>
<polygon fill="black" stroke="black" points="3045.5,-262.104 3042,-252.104 3038.5,-262.104 3045.5,-262.104"/>
</g>
<!-- s1&#45;&gt;r1 -->
<g id="edge126" class="edge"><title>s1&#45;&gt;r1</title>
<path fill="none" stroke="black" d="M3507,-143.697C3507,-135.983 3507,-126.712 3507,-118.112"/>
<polygon fill="black" stroke="black" points="3510.5,-118.104 3507,-108.104 3503.5,-118.104 3510.5,-118.104"/>
</g>
<!-- r1&#45;&gt;q1 -->
<g id="edge132" class="edge"><title>r1&#45;&gt;q1</title>
<path fill="none" stroke="black" d="M3546.56,-75.9976C3580.8,-64.7462 3630.56,-48.3945 3668,-36.0877"/>
<polygon fill="black" stroke="black" points="3669.32,-39.3391 3677.73,-32.8918 3667.14,-32.689 3669.32,-39.3391"/>
</g>
<!-- a0 -->
<g id="node152" class="node"><title>a0</title>
<a xlink:href="0055114" xlink:title="GO:0055114 (10)">
<ellipse fill="#e98576" stroke="#e98576" cx="3674" cy="-378" rx="79.4447" ry="18"/>
<text text-anchor="middle" x="3674" y="-373.8" font-family="Times,serif" font-size="14.00">GO:0055114 (10)</text>
</a>
</g>
<!-- l2 -->
<g id="node153" class="node"><title>l2</title>
<a xlink:href="0022900" xlink:title="GO:0022900 (1)">
<ellipse fill="#e98576" stroke="#e98576" cx="3847" cy="-378" rx="75.2018" ry="18"/>
<text text-anchor="middle" x="3847" y="-373.8" font-family="Times,serif" font-size="14.00">GO:0022900 (1)</text>
</a>
</g>
</g>
</svg>
