<?xml version="1.0" encoding="UTF-8" standalone="no"?>
<!DOCTYPE svg PUBLIC "-//W3C//DTD SVG 1.1//EN"
 "http://www.w3.org/Graphics/SVG/1.1/DTD/svg11.dtd">
<!-- Generated by graphviz version 2.28.0 (20110622.2320)
 -->
<!-- Title: G Pages: 1 -->
<svg width="2060pt" height="404pt"
 viewBox="0.00 0.00 2060.00 404.00" xmlns="http://www.w3.org/2000/svg" xmlns:xlink="http://www.w3.org/1999/xlink">
<g id="graph1" class="graph" transform="scale(1 1) rotate(0) translate(4 400)">
<title>G</title>
<polygon fill="white" stroke="white" points="-4,5 -4,-400 2057,-400 2057,5 -4,5"/>
<!-- b0 -->
<g id="node1" class="node"><title>b0</title>
<a xlink:href="0005488" xlink:title="GO:0005488">
<ellipse fill="#dddddd" stroke="#dddddd" cx="841" cy="-306" rx="61.1934" ry="18"/>
<text text-anchor="middle" x="841" y="-301.8" font-family="Times,serif" font-size="14.00">GO:0005488</text>
</a>
</g>
<!-- n0 -->
<g id="node3" class="node"><title>n0</title>
<a xlink:href="0008289" xlink:title="GO:0008289 (1)">
<ellipse fill="#e98576" stroke="#e98576" cx="75" cy="-234" rx="75.2018" ry="18"/>
<text text-anchor="middle" x="75" y="-229.8" font-family="Times,serif" font-size="14.00">GO:0008289 (1)</text>
</a>
</g>
<!-- b0&#45;&gt;n0 -->
<g id="edge2" class="edge"><title>b0&#45;&gt;n0</title>
<path fill="none" stroke="black" d="M780.521,-302.782C661.185,-297.857 387.184,-283.835 159,-252 152.267,-251.061 145.262,-249.915 138.297,-248.667"/>
<polygon fill="black" stroke="black" points="138.628,-245.169 128.156,-246.777 137.345,-252.05 138.628,-245.169"/>
</g>
<!-- h0 -->
<g id="node16" class="node"><title>h0</title>
<a xlink:href="0001882" xlink:title="GO:0001882 (4)">
<ellipse fill="#e98576" stroke="#e98576" cx="243" cy="-234" rx="75.2018" ry="18"/>
<text text-anchor="middle" x="243" y="-229.8" font-family="Times,serif" font-size="14.00">GO:0001882 (4)</text>
</a>
</g>
<!-- b0&#45;&gt;h0 -->
<g id="edge12" class="edge"><title>b0&#45;&gt;h0</title>
<path fill="none" stroke="black" d="M782.181,-300.8C686.434,-293.546 491.068,-277.001 327,-252 320.379,-250.991 313.488,-249.811 306.629,-248.552"/>
<polygon fill="black" stroke="black" points="307.112,-245.081 296.636,-246.661 305.81,-251.959 307.112,-245.081"/>
</g>
<!-- a0 -->
<g id="node18" class="node"><title>a0</title>
<a xlink:href="0005515" xlink:title="GO:0005515 (11)">
<ellipse fill="#e98576" stroke="#e98576" cx="416" cy="-234" rx="79.4447" ry="18"/>
<text text-anchor="middle" x="416" y="-229.8" font-family="Times,serif" font-size="14.00">GO:0005515 (11)</text>
</a>
</g>
<!-- b0&#45;&gt;a0 -->
<g id="edge14" class="edge"><title>b0&#45;&gt;a0</title>
<path fill="none" stroke="black" d="M787.665,-297.13C721.321,-287.216 604.628,-269.368 505,-252 498.336,-250.838 491.4,-249.587 484.471,-248.31"/>
<polygon fill="black" stroke="black" points="484.829,-244.816 474.357,-246.426 483.547,-251.698 484.829,-244.816"/>
</g>
<!-- u0 -->
<g id="node24" class="node"><title>u0</title>
<a xlink:href="0042562" xlink:title="GO:0042562 (1)">
<ellipse fill="#e98576" stroke="#e98576" cx="589" cy="-234" rx="75.2018" ry="18"/>
<text text-anchor="middle" x="589" y="-229.8" font-family="Times,serif" font-size="14.00">GO:0042562 (1)</text>
</a>
</g>
<!-- b0&#45;&gt;u0 -->
<g id="edge20" class="edge"><title>b0&#45;&gt;u0</title>
<path fill="none" stroke="black" d="M797.966,-293.046C756.057,-281.405 692.105,-263.64 645.988,-250.83"/>
<polygon fill="black" stroke="black" points="646.713,-247.399 636.141,-248.095 644.839,-254.143 646.713,-247.399"/>
</g>
<!-- q0 -->
<g id="node26" class="node"><title>q0</title>
<a xlink:href="0005496" xlink:title="GO:0005496 (1)">
<ellipse fill="#e98576" stroke="#e98576" cx="757" cy="-234" rx="75.2018" ry="18"/>
<text text-anchor="middle" x="757" y="-229.8" font-family="Times,serif" font-size="14.00">GO:0005496 (1)</text>
</a>
</g>
<!-- b0&#45;&gt;q0 -->
<g id="edge22" class="edge"><title>b0&#45;&gt;q0</title>
<path fill="none" stroke="black" d="M821.518,-288.765C810.57,-279.642 796.725,-268.105 784.67,-258.059"/>
<polygon fill="black" stroke="black" points="786.591,-255.103 776.668,-251.39 782.109,-260.48 786.591,-255.103"/>
</g>
<!-- e0 -->
<g id="node30" class="node"><title>e0</title>
<a xlink:href="0043167" xlink:title="GO:0043167 (6)">
<ellipse fill="#e98576" stroke="#e98576" cx="925" cy="-234" rx="75.2018" ry="18"/>
<text text-anchor="middle" x="925" y="-229.8" font-family="Times,serif" font-size="14.00">GO:0043167 (6)</text>
</a>
</g>
<!-- b0&#45;&gt;e0 -->
<g id="edge26" class="edge"><title>b0&#45;&gt;e0</title>
<path fill="none" stroke="black" d="M860.482,-288.765C871.43,-279.642 885.275,-268.105 897.33,-258.059"/>
<polygon fill="black" stroke="black" points="899.891,-260.48 905.332,-251.39 895.409,-255.103 899.891,-260.48"/>
</g>
<!-- d0 -->
<g id="node36" class="node"><title>d0</title>
<a xlink:href="0003676" xlink:title="GO:0003676 (7)">
<ellipse fill="#e98576" stroke="#e98576" cx="1093" cy="-234" rx="75.2018" ry="18"/>
<text text-anchor="middle" x="1093" y="-229.8" font-family="Times,serif" font-size="14.00">GO:0003676 (7)</text>
</a>
</g>
<!-- b0&#45;&gt;d0 -->
<g id="edge34" class="edge"><title>b0&#45;&gt;d0</title>
<path fill="none" stroke="black" d="M884.034,-293.046C925.943,-281.405 989.895,-263.64 1036.01,-250.83"/>
<polygon fill="black" stroke="black" points="1037.16,-254.143 1045.86,-248.095 1035.29,-247.399 1037.16,-254.143"/>
</g>
<!-- i0 -->
<g id="node38" class="node"><title>i0</title>
<a xlink:href="0000166" xlink:title="GO:0000166 (4)">
<ellipse fill="#e98576" stroke="#e98576" cx="1261" cy="-234" rx="75.2018" ry="18"/>
<text text-anchor="middle" x="1261" y="-229.8" font-family="Times,serif" font-size="14.00">GO:0000166 (4)</text>
</a>
</g>
<!-- b0&#45;&gt;i0 -->
<g id="edge36" class="edge"><title>b0&#45;&gt;i0</title>
<path fill="none" stroke="black" d="M894.658,-297.267C961.084,-287.526 1077.61,-269.887 1177,-252 1183.25,-250.876 1189.74,-249.654 1196.23,-248.399"/>
<polygon fill="black" stroke="black" points="1197.25,-251.766 1206.39,-246.408 1195.9,-244.897 1197.25,-251.766"/>
</g>
<!-- k0 -->
<g id="node40" class="node"><title>k0</title>
<a xlink:href="0003682" xlink:title="GO:0003682 (2)">
<ellipse fill="#e98576" stroke="#e98576" cx="1429" cy="-234" rx="75.2018" ry="18"/>
<text text-anchor="middle" x="1429" y="-229.8" font-family="Times,serif" font-size="14.00">GO:0003682 (2)</text>
</a>
</g>
<!-- b0&#45;&gt;k0 -->
<g id="edge38" class="edge"><title>b0&#45;&gt;k0</title>
<path fill="none" stroke="black" d="M899.819,-300.637C994.107,-293.234 1184.77,-276.582 1345,-252 1351.62,-250.984 1358.51,-249.8 1365.37,-248.538"/>
<polygon fill="black" stroke="black" points="1366.19,-251.945 1375.36,-246.644 1364.89,-245.068 1366.19,-251.945"/>
</g>
<!-- c0 -->
<g id="node4" class="node"><title>c0</title>
<a xlink:href="0003674" xlink:title="GO:0003674 (3)">
<ellipse fill="#e98576" stroke="#e98576" cx="1681" cy="-378" rx="75.2018" ry="18"/>
<text text-anchor="middle" x="1681" y="-373.8" font-family="Times,serif" font-size="14.00">GO:0003674 (3)</text>
</a>
</g>
<!-- c0&#45;&gt;b0 -->
<g id="edge16" class="edge"><title>c0&#45;&gt;b0</title>
<path fill="none" stroke="black" d="M1611.19,-371.182C1452.47,-357.956 1066.19,-325.766 909.112,-312.676"/>
<polygon fill="black" stroke="black" points="909.358,-309.184 899.102,-311.842 908.776,-316.16 909.358,-309.184"/>
</g>
<!-- j0 -->
<g id="node6" class="node"><title>j0</title>
<a xlink:href="0030234" xlink:title="GO:0030234 (2)">
<ellipse fill="#e98576" stroke="#e98576" cx="1526" cy="-306" rx="75.2018" ry="18"/>
<text text-anchor="middle" x="1526" y="-301.8" font-family="Times,serif" font-size="14.00">GO:0030234 (2)</text>
</a>
</g>
<!-- c0&#45;&gt;j0 -->
<g id="edge4" class="edge"><title>c0&#45;&gt;j0</title>
<path fill="none" stroke="black" d="M1647.37,-361.811C1624.31,-351.4 1593.54,-337.501 1568.75,-326.305"/>
<polygon fill="black" stroke="black" points="1570.12,-323.085 1559.57,-322.159 1567.24,-329.465 1570.12,-323.085"/>
</g>
<!-- g0 -->
<g id="node14" class="node"><title>g0</title>
<a xlink:href="0003824" xlink:title="GO:0003824">
<ellipse fill="#dddddd" stroke="#dddddd" cx="1681" cy="-306" rx="61.1934" ry="18"/>
<text text-anchor="middle" x="1681" y="-301.8" font-family="Times,serif" font-size="14.00">GO:0003824</text>
</a>
</g>
<!-- c0&#45;&gt;g0 -->
<g id="edge10" class="edge"><title>c0&#45;&gt;g0</title>
<path fill="none" stroke="black" d="M1681,-359.697C1681,-351.983 1681,-342.712 1681,-334.112"/>
<polygon fill="black" stroke="black" points="1684.5,-334.104 1681,-324.104 1677.5,-334.104 1684.5,-334.104"/>
</g>
<!-- p0 -->
<g id="node20" class="node"><title>p0</title>
<a xlink:href="0060089" xlink:title="GO:0060089">
<ellipse fill="#dddddd" stroke="#dddddd" cx="1822" cy="-306" rx="61.1934" ry="18"/>
<text text-anchor="middle" x="1822" y="-301.8" font-family="Times,serif" font-size="14.00">GO:0060089</text>
</a>
</g>
<!-- c0&#45;&gt;p0 -->
<g id="edge40" class="edge"><title>c0&#45;&gt;p0</title>
<path fill="none" stroke="black" d="M1712.29,-361.465C1733.16,-351.103 1760.76,-337.404 1783.05,-326.337"/>
<polygon fill="black" stroke="black" points="1784.84,-329.355 1792.24,-321.773 1781.73,-323.085 1784.84,-329.355"/>
</g>
<!-- m0 -->
<g id="node28" class="node"><title>m0</title>
<a xlink:href="0005215" xlink:title="GO:0005215 (1)">
<ellipse fill="#e98576" stroke="#e98576" cx="1977" cy="-306" rx="75.2018" ry="18"/>
<text text-anchor="middle" x="1977" y="-301.8" font-family="Times,serif" font-size="14.00">GO:0005215 (1)</text>
</a>
</g>
<!-- c0&#45;&gt;m0 -->
<g id="edge24" class="edge"><title>c0&#45;&gt;m0</title>
<path fill="none" stroke="black" d="M1732.56,-364.807C1783.55,-352.749 1861.59,-334.293 1915.72,-321.492"/>
<polygon fill="black" stroke="black" points="1916.61,-324.878 1925.54,-319.171 1915,-318.066 1916.61,-324.878"/>
</g>
<!-- l0 -->
<g id="node7" class="node"><title>l0</title>
<a xlink:href="0016874" xlink:title="GO:0016874 (1)">
<ellipse fill="#e98576" stroke="#e98576" cx="1597" cy="-234" rx="75.2018" ry="18"/>
<text text-anchor="middle" x="1597" y="-229.8" font-family="Times,serif" font-size="14.00">GO:0016874 (1)</text>
</a>
</g>
<!-- t0 -->
<g id="node9" class="node"><title>t0</title>
<a xlink:href="0016879" xlink:title="GO:0016879">
<ellipse fill="#dddddd" stroke="#dddddd" cx="1597" cy="-162" rx="61.1934" ry="18"/>
<text text-anchor="middle" x="1597" y="-157.8" font-family="Times,serif" font-size="14.00">GO:0016879</text>
</a>
</g>
<!-- l0&#45;&gt;t0 -->
<g id="edge6" class="edge"><title>l0&#45;&gt;t0</title>
<path fill="none" stroke="black" d="M1597,-215.697C1597,-207.983 1597,-198.712 1597,-190.112"/>
<polygon fill="black" stroke="black" points="1600.5,-190.104 1597,-180.104 1593.5,-190.104 1600.5,-190.104"/>
</g>
<!-- s0 -->
<g id="node10" class="node"><title>s0</title>
<a xlink:href="0016881" xlink:title="GO:0016881">
<ellipse fill="#dddddd" stroke="#dddddd" cx="1597" cy="-90" rx="61.1934" ry="18"/>
<text text-anchor="middle" x="1597" y="-85.8" font-family="Times,serif" font-size="14.00">GO:0016881</text>
</a>
</g>
<!-- t0&#45;&gt;s0 -->
<g id="edge28" class="edge"><title>t0&#45;&gt;s0</title>
<path fill="none" stroke="black" d="M1597,-143.697C1597,-135.983 1597,-126.712 1597,-118.112"/>
<polygon fill="black" stroke="black" points="1600.5,-118.104 1597,-108.104 1593.5,-118.104 1600.5,-118.104"/>
</g>
<!-- r0 -->
<g id="node12" class="node"><title>r0</title>
<a xlink:href="0019787" xlink:title="GO:0019787 (1)">
<ellipse fill="#e98576" stroke="#e98576" cx="1597" cy="-18" rx="75.2018" ry="18"/>
<text text-anchor="middle" x="1597" y="-13.8" font-family="Times,serif" font-size="14.00">GO:0019787 (1)</text>
</a>
</g>
<!-- s0&#45;&gt;r0 -->
<g id="edge8" class="edge"><title>s0&#45;&gt;r0</title>
<path fill="none" stroke="black" d="M1597,-71.6966C1597,-63.9827 1597,-54.7125 1597,-46.1124"/>
<polygon fill="black" stroke="black" points="1600.5,-46.1043 1597,-36.1043 1593.5,-46.1044 1600.5,-46.1043"/>
</g>
<!-- g0&#45;&gt;l0 -->
<g id="edge32" class="edge"><title>g0&#45;&gt;l0</title>
<path fill="none" stroke="black" d="M1661.52,-288.765C1650.57,-279.642 1636.73,-268.105 1624.67,-258.059"/>
<polygon fill="black" stroke="black" points="1626.59,-255.103 1616.67,-251.39 1622.11,-260.48 1626.59,-255.103"/>
</g>
<!-- f0 -->
<g id="node33" class="node"><title>f0</title>
<a xlink:href="0016740" xlink:title="GO:0016740 (5)">
<ellipse fill="#e98576" stroke="#e98576" cx="1765" cy="-234" rx="75.2018" ry="18"/>
<text text-anchor="middle" x="1765" y="-229.8" font-family="Times,serif" font-size="14.00">GO:0016740 (5)</text>
</a>
</g>
<!-- g0&#45;&gt;f0 -->
<g id="edge30" class="edge"><title>g0&#45;&gt;f0</title>
<path fill="none" stroke="black" d="M1700.48,-288.765C1711.43,-279.642 1725.27,-268.105 1737.33,-258.059"/>
<polygon fill="black" stroke="black" points="1739.89,-260.48 1745.33,-251.39 1735.41,-255.103 1739.89,-260.48"/>
</g>
<!-- o0 -->
<g id="node22" class="node"><title>o0</title>
<a xlink:href="0004871" xlink:title="GO:0004871 (1)">
<ellipse fill="#e98576" stroke="#e98576" cx="1933" cy="-234" rx="75.2018" ry="18"/>
<text text-anchor="middle" x="1933" y="-229.8" font-family="Times,serif" font-size="14.00">GO:0004871 (1)</text>
</a>
</g>
<!-- p0&#45;&gt;o0 -->
<g id="edge18" class="edge"><title>p0&#45;&gt;o0</title>
<path fill="none" stroke="black" d="M1846.63,-289.465C1862.08,-279.724 1882.2,-267.033 1899.14,-256.353"/>
<polygon fill="black" stroke="black" points="1901.07,-259.272 1907.66,-250.977 1897.34,-253.351 1901.07,-259.272"/>
</g>
</g>
</svg>
