<?xml version="1.0" encoding="UTF-8" standalone="no"?>
<!DOCTYPE svg PUBLIC "-//W3C//DTD SVG 1.1//EN"
 "http://www.w3.org/Graphics/SVG/1.1/DTD/svg11.dtd">
<!-- Generated by graphviz version 2.28.0 (20110622.2320)
 -->
<!-- Title: G Pages: 1 -->
<svg width="2521pt" height="764pt"
 viewBox="0.00 0.00 2521.00 764.00" xmlns="http://www.w3.org/2000/svg" xmlns:xlink="http://www.w3.org/1999/xlink">
<g id="graph1" class="graph" transform="scale(1 1) rotate(0) translate(4 760)">
<title>G</title>
<polygon fill="white" stroke="white" points="-4,5 -4,-760 2518,-760 2518,5 -4,5"/>
<!-- b0 -->
<g id="node1" class="node"><title>b0</title>
<a xlink:href="0044464" xlink:title="GO:0044464 (5)">
<ellipse fill="#e98576" stroke="#e98576" cx="1073" cy="-594" rx="75.2018" ry="18"/>
<text text-anchor="middle" x="1073" y="-589.8" font-family="Times,serif" font-size="14.00">GO:0044464 (5)</text>
</a>
</g>
<!-- x1 -->
<g id="node3" class="node"><title>x1</title>
<a xlink:href="0045177" xlink:title="GO:0045177 (1)">
<ellipse fill="#e98576" stroke="#e98576" cx="1241" cy="-522" rx="75.2018" ry="18"/>
<text text-anchor="middle" x="1241" y="-517.8" font-family="Times,serif" font-size="14.00">GO:0045177 (1)</text>
</a>
</g>
<!-- b0&#45;&gt;x1 -->
<g id="edge2" class="edge"><title>b0&#45;&gt;x1</title>
<path fill="none" stroke="black" d="M1108.63,-578.155C1134.05,-567.564 1168.43,-553.239 1195.78,-541.842"/>
<polygon fill="black" stroke="black" points="1197.25,-545.021 1205.13,-537.944 1194.56,-538.56 1197.25,-545.021"/>
</g>
<!-- f0 -->
<g id="node12" class="node"><title>f0</title>
<a xlink:href="0044424" xlink:title="GO:0044424">
<ellipse fill="#dddddd" stroke="#dddddd" cx="734" cy="-450" rx="61.1934" ry="18"/>
<text text-anchor="middle" x="734" y="-445.8" font-family="Times,serif" font-size="14.00">GO:0044424</text>
</a>
</g>
<!-- b0&#45;&gt;f0 -->
<g id="edge54" class="edge"><title>b0&#45;&gt;f0</title>
<path fill="none" stroke="black" d="M1000.27,-589.211C883.83,-582.394 666.232,-566.271 643,-540 632.401,-528.014 635.026,-517.872 643,-504 652.216,-487.967 668.356,-476.33 684.509,-468.118"/>
<polygon fill="black" stroke="black" points="686.408,-471.092 693.969,-463.671 683.43,-464.757 686.408,-471.092"/>
</g>
<!-- y0 -->
<g id="node14" class="node"><title>y0</title>
<a xlink:href="0042995" xlink:title="GO:0042995 (4)">
<ellipse fill="#e98576" stroke="#e98576" cx="411" cy="-522" rx="75.2018" ry="18"/>
<text text-anchor="middle" x="411" y="-517.8" font-family="Times,serif" font-size="14.00">GO:0042995 (4)</text>
</a>
</g>
<!-- b0&#45;&gt;y0 -->
<g id="edge90" class="edge"><title>b0&#45;&gt;y0</title>
<path fill="none" stroke="black" d="M1005.88,-585.903C882.22,-572.827 619.119,-545.007 488.251,-531.169"/>
<polygon fill="black" stroke="black" points="488.609,-527.687 478.297,-530.116 487.873,-534.648 488.609,-527.687"/>
</g>
<!-- g0 -->
<g id="node52" class="node"><title>g0</title>
<a xlink:href="0005622" xlink:title="GO:0005622">
<ellipse fill="#dddddd" stroke="#dddddd" cx="1396" cy="-522" rx="61.1934" ry="18"/>
<text text-anchor="middle" x="1396" y="-517.8" font-family="Times,serif" font-size="14.00">GO:0005622</text>
</a>
</g>
<!-- b0&#45;&gt;g0 -->
<g id="edge134" class="edge"><title>b0&#45;&gt;g0</title>
<path fill="none" stroke="black" d="M1128.65,-581.757C1179.78,-571.319 1257.61,-555.151 1325,-540 1329.97,-538.882 1335.14,-537.695 1340.31,-536.49"/>
<polygon fill="black" stroke="black" points="1341.28,-539.857 1350.21,-534.16 1339.68,-533.043 1341.28,-539.857"/>
</g>
<!-- a0 -->
<g id="node67" class="node"><title>a0</title>
<a xlink:href="0016020" xlink:title="GO:0016020 (20)">
<ellipse fill="#e98576" stroke="#e98576" cx="732" cy="-522" rx="79.4447" ry="18"/>
<text text-anchor="middle" x="732" y="-517.8" font-family="Times,serif" font-size="14.00">GO:0016020 (20)</text>
</a>
</g>
<!-- b0&#45;&gt;a0 -->
<g id="edge68" class="edge"><title>b0&#45;&gt;a0</title>
<path fill="none" stroke="black" d="M1017.83,-581.675C958.073,-569.408 862.725,-549.835 798.776,-536.708"/>
<polygon fill="black" stroke="black" points="799.292,-533.241 788.792,-534.658 797.884,-540.098 799.292,-533.241"/>
</g>
<!-- c1 -->
<g id="node80" class="node"><title>c1</title>
<a xlink:href="0031252" xlink:title="GO:0031252 (2)">
<ellipse fill="#e98576" stroke="#e98576" cx="905" cy="-522" rx="75.2018" ry="18"/>
<text text-anchor="middle" x="905" y="-517.8" font-family="Times,serif" font-size="14.00">GO:0031252 (2)</text>
</a>
</g>
<!-- b0&#45;&gt;c1 -->
<g id="edge82" class="edge"><title>b0&#45;&gt;c1</title>
<path fill="none" stroke="black" d="M1037.37,-578.155C1011.95,-567.564 977.574,-553.239 950.222,-541.842"/>
<polygon fill="black" stroke="black" points="951.443,-538.56 940.866,-537.944 948.751,-545.021 951.443,-538.56"/>
</g>
<!-- z1 -->
<g id="node86" class="node"><title>z1</title>
<a xlink:href="0009986" xlink:title="GO:0009986 (1)">
<ellipse fill="#e98576" stroke="#e98576" cx="1073" cy="-522" rx="75.2018" ry="18"/>
<text text-anchor="middle" x="1073" y="-517.8" font-family="Times,serif" font-size="14.00">GO:0009986 (1)</text>
</a>
</g>
<!-- b0&#45;&gt;z1 -->
<g id="edge88" class="edge"><title>b0&#45;&gt;z1</title>
<path fill="none" stroke="black" d="M1073,-575.697C1073,-567.983 1073,-558.712 1073,-550.112"/>
<polygon fill="black" stroke="black" points="1076.5,-550.104 1073,-540.104 1069.5,-550.104 1076.5,-550.104"/>
</g>
<!-- l1 -->
<g id="node4" class="node"><title>l1</title>
<a xlink:href="0043233" xlink:title="GO:0043233">
<ellipse fill="#dddddd" stroke="#dddddd" cx="1874" cy="-306" rx="61.1934" ry="18"/>
<text text-anchor="middle" x="1874" y="-301.8" font-family="Times,serif" font-size="14.00">GO:0043233</text>
</a>
</g>
<!-- k1 -->
<g id="node6" class="node"><title>k1</title>
<a xlink:href="0031981" xlink:title="GO:0031981">
<ellipse fill="#dddddd" stroke="#dddddd" cx="1401" cy="-90" rx="61.1934" ry="18"/>
<text text-anchor="middle" x="1401" y="-85.8" font-family="Times,serif" font-size="14.00">GO:0031981</text>
</a>
</g>
<!-- l1&#45;&gt;k1 -->
<g id="edge4" class="edge"><title>l1&#45;&gt;k1</title>
<path fill="none" stroke="black" d="M1875.04,-287.863C1875.27,-267.956 1872.46,-235.376 1854,-216 1800.44,-159.799 1576.17,-118.078 1464.6,-100.366"/>
<polygon fill="black" stroke="black" points="1464.91,-96.8724 1454.49,-98.7782 1463.82,-103.788 1464.91,-96.8724"/>
</g>
<!-- j1 -->
<g id="node42" class="node"><title>j1</title>
<a xlink:href="0005730" xlink:title="GO:0005730 (1)">
<ellipse fill="#e98576" stroke="#e98576" cx="1401" cy="-18" rx="75.2018" ry="18"/>
<text text-anchor="middle" x="1401" y="-13.8" font-family="Times,serif" font-size="14.00">GO:0005730 (1)</text>
</a>
</g>
<!-- k1&#45;&gt;j1 -->
<g id="edge40" class="edge"><title>k1&#45;&gt;j1</title>
<path fill="none" stroke="black" d="M1401,-71.6966C1401,-63.9827 1401,-54.7125 1401,-46.1124"/>
<polygon fill="black" stroke="black" points="1404.5,-46.1043 1401,-36.1043 1397.5,-46.1044 1404.5,-46.1043"/>
</g>
<!-- o1 -->
<g id="node7" class="node"><title>o1</title>
<a xlink:href="0044428" xlink:title="GO:0044428">
<ellipse fill="#dddddd" stroke="#dddddd" cx="1328" cy="-162" rx="61.1934" ry="18"/>
<text text-anchor="middle" x="1328" y="-157.8" font-family="Times,serif" font-size="14.00">GO:0044428</text>
</a>
</g>
<!-- o1&#45;&gt;k1 -->
<g id="edge6" class="edge"><title>o1&#45;&gt;k1</title>
<path fill="none" stroke="black" d="M1345.3,-144.411C1354.57,-135.519 1366.16,-124.411 1376.36,-114.631"/>
<polygon fill="black" stroke="black" points="1379.03,-116.917 1383.82,-107.47 1374.18,-111.865 1379.03,-116.917"/>
</g>
<!-- o1&#45;&gt;j1 -->
<g id="edge44" class="edge"><title>o1&#45;&gt;j1</title>
<path fill="none" stroke="black" d="M1324.42,-143.843C1321.41,-125.073 1319.26,-94.6476 1331,-72 1337.72,-59.0409 1349.2,-48.3611 1360.95,-40.0685"/>
<polygon fill="black" stroke="black" points="1363.06,-42.8734 1369.49,-34.4537 1359.21,-37.0252 1363.06,-42.8734"/>
</g>
<!-- q0 -->
<g id="node9" class="node"><title>q0</title>
<a xlink:href="0043234" xlink:title="GO:0043234 (11)">
<ellipse fill="#e98576" stroke="#e98576" cx="914" cy="-450" rx="79.4447" ry="18"/>
<text text-anchor="middle" x="914" y="-445.8" font-family="Times,serif" font-size="14.00">GO:0043234 (11)</text>
</a>
</g>
<!-- y1 -->
<g id="node11" class="node"><title>y1</title>
<a xlink:href="0031248" xlink:title="GO:0031248 (1)">
<ellipse fill="#e98576" stroke="#e98576" cx="713" cy="-378" rx="75.2018" ry="18"/>
<text text-anchor="middle" x="713" y="-373.8" font-family="Times,serif" font-size="14.00">GO:0031248 (1)</text>
</a>
</g>
<!-- q0&#45;&gt;y1 -->
<g id="edge8" class="edge"><title>q0&#45;&gt;y1</title>
<path fill="none" stroke="black" d="M872.353,-434.496C840.746,-423.489 797.149,-408.306 763.544,-396.603"/>
<polygon fill="black" stroke="black" points="764.501,-393.23 753.906,-393.246 762.199,-399.84 764.501,-393.23"/>
</g>
<!-- w1 -->
<g id="node36" class="node"><title>w1</title>
<a xlink:href="0000502" xlink:title="GO:0000502 (1)">
<ellipse fill="#e98576" stroke="#e98576" cx="881" cy="-378" rx="75.2018" ry="18"/>
<text text-anchor="middle" x="881" y="-373.8" font-family="Times,serif" font-size="14.00">GO:0000502 (1)</text>
</a>
</g>
<!-- q0&#45;&gt;w1 -->
<g id="edge32" class="edge"><title>q0&#45;&gt;w1</title>
<path fill="none" stroke="black" d="M906.012,-432.055C902.257,-424.091 897.694,-414.411 893.497,-405.51"/>
<polygon fill="black" stroke="black" points="896.574,-403.828 889.144,-396.275 890.242,-406.813 896.574,-403.828"/>
</g>
<!-- q1 -->
<g id="node112" class="node"><title>q1</title>
<a xlink:href="0043256" xlink:title="GO:0043256 (1)">
<ellipse fill="#e98576" stroke="#e98576" cx="2191" cy="-306" rx="75.2018" ry="18"/>
<text text-anchor="middle" x="2191" y="-301.8" font-family="Times,serif" font-size="14.00">GO:0043256 (1)</text>
</a>
</g>
<!-- q0&#45;&gt;q1 -->
<g id="edge128" class="edge"><title>q0&#45;&gt;q1</title>
<path fill="none" stroke="black" d="M992.265,-446.81C1113.84,-442.395 1341.72,-429.774 1415,-396 1436.13,-386.262 1431.71,-369.381 1453,-360 1456.73,-358.356 1919.12,-325.956 2110.01,-312.64"/>
<polygon fill="black" stroke="black" points="2110.26,-316.132 2119.99,-311.944 2109.77,-309.149 2110.26,-316.132"/>
</g>
<!-- f0&#45;&gt;y1 -->
<g id="edge10" class="edge"><title>f0&#45;&gt;y1</title>
<path fill="none" stroke="black" d="M728.916,-432.055C726.578,-424.261 723.747,-414.822 721.124,-406.079"/>
<polygon fill="black" stroke="black" points="724.409,-404.848 718.183,-396.275 717.704,-406.859 724.409,-404.848"/>
</g>
<!-- x0 -->
<g id="node20" class="node"><title>x0</title>
<a xlink:href="0044444" xlink:title="GO:0044444">
<ellipse fill="#dddddd" stroke="#dddddd" cx="655" cy="-306" rx="61.1934" ry="18"/>
<text text-anchor="middle" x="655" y="-301.8" font-family="Times,serif" font-size="14.00">GO:0044444</text>
</a>
</g>
<!-- f0&#45;&gt;x0 -->
<g id="edge66" class="edge"><title>f0&#45;&gt;x0</title>
<path fill="none" stroke="black" d="M688.936,-437.625C653.014,-427.54 606.974,-411.97 596,-396 586.939,-382.813 589.484,-374.613 596,-360 601.442,-347.795 611.238,-337.227 621.305,-328.808"/>
<polygon fill="black" stroke="black" points="623.625,-331.437 629.357,-322.527 619.32,-325.917 623.625,-331.437"/>
</g>
<!-- e0 -->
<g id="node23" class="node"><title>e0</title>
<a xlink:href="0005737" xlink:title="GO:0005737 (18)">
<ellipse fill="#e98576" stroke="#e98576" cx="464" cy="-378" rx="79.4447" ry="18"/>
<text text-anchor="middle" x="464" y="-373.8" font-family="Times,serif" font-size="14.00">GO:0005737 (18)</text>
</a>
</g>
<!-- f0&#45;&gt;e0 -->
<g id="edge18" class="edge"><title>f0&#45;&gt;e0</title>
<path fill="none" stroke="black" d="M689.717,-437.519C644.555,-425.811 574.182,-407.566 524.027,-394.563"/>
<polygon fill="black" stroke="black" points="524.838,-391.157 514.279,-392.035 523.081,-397.933 524.838,-391.157"/>
</g>
<!-- f0&#45;&gt;w1 -->
<g id="edge34" class="edge"><title>f0&#45;&gt;w1</title>
<path fill="none" stroke="black" d="M764.816,-434.326C786.519,-423.991 815.819,-410.039 839.565,-398.731"/>
<polygon fill="black" stroke="black" points="841.174,-401.842 848.698,-394.382 838.164,-395.521 841.174,-401.842"/>
</g>
<!-- p1 -->
<g id="node70" class="node"><title>p1</title>
<a xlink:href="0044446" xlink:title="GO:0044446">
<ellipse fill="#dddddd" stroke="#dddddd" cx="1345" cy="-306" rx="61.1934" ry="18"/>
<text text-anchor="middle" x="1345" y="-301.8" font-family="Times,serif" font-size="14.00">GO:0044446</text>
</a>
</g>
<!-- f0&#45;&gt;p1 -->
<g id="edge156" class="edge"><title>f0&#45;&gt;p1</title>
<path fill="none" stroke="black" d="M688.272,-437.981C666.315,-430.141 642.003,-417.129 629,-396 620.614,-382.374 618.077,-371.691 629,-360 669.219,-316.951 1099.27,-328.667 1158,-324 1197.63,-320.85 1241.95,-316.843 1277.48,-313.511"/>
<polygon fill="black" stroke="black" points="1278.11,-316.967 1287.74,-312.545 1277.45,-309.998 1278.11,-316.967"/>
</g>
<!-- p0 -->
<g id="node83" class="node"><title>p0</title>
<a xlink:href="0043229" xlink:title="GO:0043229">
<ellipse fill="#dddddd" stroke="#dddddd" cx="1345" cy="-378" rx="61.1934" ry="18"/>
<text text-anchor="middle" x="1345" y="-373.8" font-family="Times,serif" font-size="14.00">GO:0043229</text>
</a>
</g>
<!-- f0&#45;&gt;p0 -->
<g id="edge102" class="edge"><title>f0&#45;&gt;p0</title>
<path fill="none" stroke="black" d="M782.492,-438.968C796.19,-436.4 811.14,-433.845 825,-432 1023.45,-405.582 1076.28,-427.403 1274,-396 1279.48,-395.13 1285.15,-394.061 1290.81,-392.886"/>
<polygon fill="black" stroke="black" points="1291.88,-396.235 1300.9,-390.678 1290.38,-389.396 1291.88,-396.235"/>
</g>
<!-- h1 -->
<g id="node133" class="node"><title>h1</title>
<a xlink:href="0030529" xlink:title="GO:0030529 (1)">
<ellipse fill="#e98576" stroke="#e98576" cx="1049" cy="-378" rx="75.2018" ry="18"/>
<text text-anchor="middle" x="1049" y="-373.8" font-family="Times,serif" font-size="14.00">GO:0030529 (1)</text>
</a>
</g>
<!-- f0&#45;&gt;h1 -->
<g id="edge164" class="edge"><title>f0&#45;&gt;h1</title>
<path fill="none" stroke="black" d="M781.5,-438.445C836.04,-426.324 925.732,-406.393 986.05,-392.989"/>
<polygon fill="black" stroke="black" points="986.837,-396.399 995.839,-390.813 985.318,-389.566 986.837,-396.399"/>
</g>
<!-- d1 -->
<g id="node16" class="node"><title>d1</title>
<a xlink:href="0043005" xlink:title="GO:0043005 (2)">
<ellipse fill="#e98576" stroke="#e98576" cx="411" cy="-450" rx="75.2018" ry="18"/>
<text text-anchor="middle" x="411" y="-445.8" font-family="Times,serif" font-size="14.00">GO:0043005 (2)</text>
</a>
</g>
<!-- y0&#45;&gt;d1 -->
<g id="edge12" class="edge"><title>y0&#45;&gt;d1</title>
<path fill="none" stroke="black" d="M411,-503.697C411,-495.983 411,-486.712 411,-478.112"/>
<polygon fill="black" stroke="black" points="414.5,-478.104 411,-468.104 407.5,-478.104 414.5,-478.104"/>
</g>
<!-- e1 -->
<g id="node49" class="node"><title>e1</title>
<a xlink:href="0030175" xlink:title="GO:0030175 (2)">
<ellipse fill="#e98576" stroke="#e98576" cx="579" cy="-450" rx="75.2018" ry="18"/>
<text text-anchor="middle" x="579" y="-445.8" font-family="Times,serif" font-size="14.00">GO:0030175 (2)</text>
</a>
</g>
<!-- y0&#45;&gt;e1 -->
<g id="edge48" class="edge"><title>y0&#45;&gt;e1</title>
<path fill="none" stroke="black" d="M446.628,-506.155C472.046,-495.564 506.426,-481.239 533.778,-469.842"/>
<polygon fill="black" stroke="black" points="535.249,-473.021 543.134,-465.944 532.557,-466.56 535.249,-473.021"/>
</g>
<!-- z0 -->
<g id="node63" class="node"><title>z0</title>
<a xlink:href="0005903" xlink:title="GO:0005903 (3)">
<ellipse fill="#e98576" stroke="#e98576" cx="75" cy="-450" rx="75.2018" ry="18"/>
<text text-anchor="middle" x="75" y="-445.8" font-family="Times,serif" font-size="14.00">GO:0005903 (3)</text>
</a>
</g>
<!-- y0&#45;&gt;z0 -->
<g id="edge62" class="edge"><title>y0&#45;&gt;z0</title>
<path fill="none" stroke="black" d="M356.268,-509.597C296.96,-497.242 202.399,-477.541 139.518,-464.441"/>
<polygon fill="black" stroke="black" points="140.212,-461.011 129.709,-462.398 138.785,-467.864 140.212,-461.011"/>
</g>
<!-- b1 -->
<g id="node97" class="node"><title>b1</title>
<a xlink:href="0031143" xlink:title="GO:0031143 (2)">
<ellipse fill="#e98576" stroke="#e98576" cx="243" cy="-450" rx="75.2018" ry="18"/>
<text text-anchor="middle" x="243" y="-445.8" font-family="Times,serif" font-size="14.00">GO:0031143 (2)</text>
</a>
</g>
<!-- y0&#45;&gt;b1 -->
<g id="edge104" class="edge"><title>y0&#45;&gt;b1</title>
<path fill="none" stroke="black" d="M375.372,-506.155C349.954,-495.564 315.574,-481.239 288.222,-469.842"/>
<polygon fill="black" stroke="black" points="289.443,-466.56 278.866,-465.944 286.751,-473.021 289.443,-466.56"/>
</g>
<!-- u0 -->
<g id="node17" class="node"><title>u0</title>
<a xlink:href="0043231" xlink:title="GO:0043231 (2)">
<ellipse fill="#e98576" stroke="#e98576" cx="1074" cy="-306" rx="75.2018" ry="18"/>
<text text-anchor="middle" x="1074" y="-301.8" font-family="Times,serif" font-size="14.00">GO:0043231 (2)</text>
</a>
</g>
<!-- v1 -->
<g id="node19" class="node"><title>v1</title>
<a xlink:href="0005773" xlink:title="GO:0005773 (1)">
<ellipse fill="#e98576" stroke="#e98576" cx="738" cy="-234" rx="75.2018" ry="18"/>
<text text-anchor="middle" x="738" y="-229.8" font-family="Times,serif" font-size="14.00">GO:0005773 (1)</text>
</a>
</g>
<!-- u0&#45;&gt;v1 -->
<g id="edge14" class="edge"><title>u0&#45;&gt;v1</title>
<path fill="none" stroke="black" d="M1019.27,-293.597C959.96,-281.242 865.399,-261.541 802.518,-248.441"/>
<polygon fill="black" stroke="black" points="803.212,-245.011 792.709,-246.398 801.785,-251.864 803.212,-245.011"/>
</g>
<!-- f1 -->
<g id="node25" class="node"><title>f1</title>
<a xlink:href="0042579" xlink:title="GO:0042579 (1)">
<ellipse fill="#e98576" stroke="#e98576" cx="906" cy="-234" rx="75.2018" ry="18"/>
<text text-anchor="middle" x="906" y="-229.8" font-family="Times,serif" font-size="14.00">GO:0042579 (1)</text>
</a>
</g>
<!-- u0&#45;&gt;f1 -->
<g id="edge20" class="edge"><title>u0&#45;&gt;f1</title>
<path fill="none" stroke="black" d="M1038.37,-290.155C1012.95,-279.564 978.574,-265.239 951.222,-253.842"/>
<polygon fill="black" stroke="black" points="952.443,-250.56 941.866,-249.944 949.751,-257.021 952.443,-250.56"/>
</g>
<!-- w0 -->
<g id="node33" class="node"><title>w0</title>
<a xlink:href="0005783" xlink:title="GO:0005783 (4)">
<ellipse fill="#e98576" stroke="#e98576" cx="1074" cy="-234" rx="75.2018" ry="18"/>
<text text-anchor="middle" x="1074" y="-229.8" font-family="Times,serif" font-size="14.00">GO:0005783 (4)</text>
</a>
</g>
<!-- u0&#45;&gt;w0 -->
<g id="edge28" class="edge"><title>u0&#45;&gt;w0</title>
<path fill="none" stroke="black" d="M1074,-287.697C1074,-279.983 1074,-270.712 1074,-262.112"/>
<polygon fill="black" stroke="black" points="1077.5,-262.104 1074,-252.104 1070.5,-262.104 1077.5,-262.104"/>
</g>
<!-- a1 -->
<g id="node39" class="node"><title>a1</title>
<a xlink:href="0005739" xlink:title="GO:0005739 (3)">
<ellipse fill="#e98576" stroke="#e98576" cx="570" cy="-234" rx="75.2018" ry="18"/>
<text text-anchor="middle" x="570" y="-229.8" font-family="Times,serif" font-size="14.00">GO:0005739 (3)</text>
</a>
</g>
<!-- u0&#45;&gt;a1 -->
<g id="edge36" class="edge"><title>u0&#45;&gt;a1</title>
<path fill="none" stroke="black" d="M1006.49,-298.041C923.327,-289.109 777.837,-272.316 654,-252 647.489,-250.932 640.713,-249.724 633.96,-248.456"/>
<polygon fill="black" stroke="black" points="634.596,-245.014 624.115,-246.566 633.276,-251.889 634.596,-245.014"/>
</g>
<!-- t0 -->
<g id="node68" class="node"><title>t0</title>
<a xlink:href="0005634" xlink:title="GO:0005634 (5)">
<ellipse fill="#e98576" stroke="#e98576" cx="1242" cy="-234" rx="75.2018" ry="18"/>
<text text-anchor="middle" x="1242" y="-229.8" font-family="Times,serif" font-size="14.00">GO:0005634 (5)</text>
</a>
</g>
<!-- u0&#45;&gt;t0 -->
<g id="edge150" class="edge"><title>u0&#45;&gt;t0</title>
<path fill="none" stroke="black" d="M1109.63,-290.155C1135.05,-279.564 1169.43,-265.239 1196.78,-253.842"/>
<polygon fill="black" stroke="black" points="1198.25,-257.021 1206.13,-249.944 1195.56,-250.56 1198.25,-257.021"/>
</g>
<!-- x0&#45;&gt;v1 -->
<g id="edge16" class="edge"><title>x0&#45;&gt;v1</title>
<path fill="none" stroke="black" d="M674.25,-288.765C685.067,-279.642 698.747,-268.105 710.659,-258.059"/>
<polygon fill="black" stroke="black" points="713.179,-260.512 718.566,-251.39 708.666,-255.161 713.179,-260.512"/>
</g>
<!-- x0&#45;&gt;f1 -->
<g id="edge22" class="edge"><title>x0&#45;&gt;f1</title>
<path fill="none" stroke="black" d="M697.863,-293.046C739.606,-281.405 803.305,-263.64 849.238,-250.83"/>
<polygon fill="black" stroke="black" points="850.354,-254.152 859.046,-248.095 848.474,-247.41 850.354,-254.152"/>
</g>
<!-- x0&#45;&gt;w0 -->
<g id="edge30" class="edge"><title>x0&#45;&gt;w0</title>
<path fill="none" stroke="black" d="M708.788,-297.215C775.064,-287.455 891.051,-269.832 990,-252 996.246,-250.874 1002.74,-249.652 1009.23,-248.396"/>
<polygon fill="black" stroke="black" points="1010.25,-251.763 1019.39,-246.404 1008.9,-244.894 1010.25,-251.763"/>
</g>
<!-- x0&#45;&gt;a1 -->
<g id="edge38" class="edge"><title>x0&#45;&gt;a1</title>
<path fill="none" stroke="black" d="M635.286,-288.765C624.102,-279.554 609.929,-267.882 597.648,-257.769"/>
<polygon fill="black" stroke="black" points="599.846,-255.045 589.902,-251.39 595.396,-260.449 599.846,-255.045"/>
</g>
<!-- e0&#45;&gt;x0 -->
<g id="edge64" class="edge"><title>e0&#45;&gt;x0</title>
<path fill="none" stroke="black" d="M504.04,-362.326C534.573,-351.135 576.681,-335.703 608.669,-323.98"/>
<polygon fill="black" stroke="black" points="610.063,-327.197 618.247,-320.47 607.654,-320.624 610.063,-327.197"/>
</g>
<!-- c0 -->
<g id="node27" class="node"><title>c0</title>
<a xlink:href="0005575" xlink:title="GO:0005575 (6)">
<ellipse fill="#e98576" stroke="#e98576" cx="1928" cy="-738" rx="75.2018" ry="18"/>
<text text-anchor="middle" x="1928" y="-733.8" font-family="Times,serif" font-size="14.00">GO:0005575 (6)</text>
</a>
</g>
<!-- c0&#45;&gt;b0 -->
<g id="edge120" class="edge"><title>c0&#45;&gt;b0</title>
<path fill="none" stroke="black" d="M1868.22,-727.071C1714.64,-701.565 1306.87,-633.842 1142.82,-606.595"/>
<polygon fill="black" stroke="black" points="1143.27,-603.123 1132.84,-604.938 1142.13,-610.029 1143.27,-603.123"/>
</g>
<!-- n1 -->
<g id="node29" class="node"><title>n1</title>
<a xlink:href="0044422" xlink:title="GO:0044422">
<ellipse fill="#dddddd" stroke="#dddddd" cx="1842" cy="-378" rx="61.1934" ry="18"/>
<text text-anchor="middle" x="1842" y="-373.8" font-family="Times,serif" font-size="14.00">GO:0044422</text>
</a>
</g>
<!-- c0&#45;&gt;n1 -->
<g id="edge24" class="edge"><title>c0&#45;&gt;n1</title>
<path fill="none" stroke="black" d="M1909.34,-720.19C1884.05,-695.46 1842,-646.591 1842,-595 1842,-595 1842,-595 1842,-521 1842,-480.996 1842,-434.653 1842,-406.08"/>
<polygon fill="black" stroke="black" points="1845.5,-406.049 1842,-396.049 1838.5,-406.049 1845.5,-406.049"/>
</g>
<!-- i0 -->
<g id="node30" class="node"><title>i0</title>
<a xlink:href="0043226" xlink:title="GO:0043226">
<ellipse fill="#dddddd" stroke="#dddddd" cx="1701" cy="-450" rx="61.1934" ry="18"/>
<text text-anchor="middle" x="1701" y="-445.8" font-family="Times,serif" font-size="14.00">GO:0043226</text>
</a>
</g>
<!-- c0&#45;&gt;i0 -->
<g id="edge96" class="edge"><title>c0&#45;&gt;i0</title>
<path fill="none" stroke="black" d="M1888.5,-722.489C1868.56,-713.678 1845.05,-700.851 1828,-684 1766.01,-622.729 1726.28,-524.764 1709.77,-477.805"/>
<polygon fill="black" stroke="black" points="1712.98,-476.383 1706.42,-468.063 1706.36,-478.658 1712.98,-476.383"/>
</g>
<!-- d0 -->
<g id="node47" class="node"><title>d0</title>
<a xlink:href="0005623" xlink:title="GO:0005623">
<ellipse fill="#dddddd" stroke="#dddddd" cx="1127" cy="-666" rx="61.1934" ry="18"/>
<text text-anchor="middle" x="1127" y="-661.8" font-family="Times,serif" font-size="14.00">GO:0005623</text>
</a>
</g>
<!-- c0&#45;&gt;d0 -->
<g id="edge46" class="edge"><title>c0&#45;&gt;d0</title>
<path fill="none" stroke="black" d="M1858.67,-730.941C1706.62,-717.654 1345.48,-686.093 1194.83,-672.928"/>
<polygon fill="black" stroke="black" points="1195.05,-669.434 1184.78,-672.05 1194.44,-676.407 1195.05,-669.434"/>
</g>
<!-- l0 -->
<g id="node56" class="node"><title>l0</title>
<a xlink:href="0005576" xlink:title="GO:0005576 (10)">
<ellipse fill="#e98576" stroke="#e98576" cx="2074" cy="-666" rx="79.4447" ry="18"/>
<text text-anchor="middle" x="2074" y="-661.8" font-family="Times,serif" font-size="14.00">GO:0005576 (10)</text>
</a>
</g>
<!-- c0&#45;&gt;l0 -->
<g id="edge56" class="edge"><title>c0&#45;&gt;l0</title>
<path fill="none" stroke="black" d="M1960.04,-721.638C1981.29,-711.451 2009.38,-697.982 2032.36,-686.966"/>
<polygon fill="black" stroke="black" points="2034.03,-690.047 2041.53,-682.568 2031,-683.735 2034.03,-690.047"/>
</g>
<!-- s0 -->
<g id="node57" class="node"><title>s0</title>
<a xlink:href="0031012" xlink:title="GO:0031012 (7)">
<ellipse fill="#e98576" stroke="#e98576" cx="2232" cy="-594" rx="75.2018" ry="18"/>
<text text-anchor="middle" x="2232" y="-589.8" font-family="Times,serif" font-size="14.00">GO:0031012 (7)</text>
</a>
</g>
<!-- c0&#45;&gt;s0 -->
<g id="edge94" class="edge"><title>c0&#45;&gt;s0</title>
<path fill="none" stroke="black" d="M2000.34,-733.171C2049.2,-727.708 2113.41,-714.706 2162,-684 2186.64,-668.428 2206.22,-641.034 2218.34,-620.738"/>
<polygon fill="black" stroke="black" points="2221.42,-622.395 2223.37,-611.981 2215.35,-618.908 2221.42,-622.395"/>
</g>
<!-- k0 -->
<g id="node60" class="node"><title>k0</title>
<a xlink:href="0044421" xlink:title="GO:0044421">
<ellipse fill="#dddddd" stroke="#dddddd" cx="2074" cy="-594" rx="61.1934" ry="18"/>
<text text-anchor="middle" x="2074" y="-589.8" font-family="Times,serif" font-size="14.00">GO:0044421</text>
</a>
</g>
<!-- c0&#45;&gt;k0 -->
<g id="edge144" class="edge"><title>c0&#45;&gt;k0</title>
<path fill="none" stroke="black" d="M1935.89,-719.936C1945.43,-700.693 1962.98,-669.312 1985,-648 1998.83,-634.617 2016.64,-623.162 2032.7,-614.362"/>
<polygon fill="black" stroke="black" points="2034.7,-617.262 2041.9,-609.492 2031.43,-611.074 2034.7,-617.262"/>
</g>
<!-- u1 -->
<g id="node74" class="node"><title>u1</title>
<a xlink:href="0044420" xlink:title="GO:0044420">
<ellipse fill="#dddddd" stroke="#dddddd" cx="2377" cy="-522" rx="61.1934" ry="18"/>
<text text-anchor="middle" x="2377" y="-517.8" font-family="Times,serif" font-size="14.00">GO:0044420</text>
</a>
</g>
<!-- c0&#45;&gt;u1 -->
<g id="edge158" class="edge"><title>c0&#45;&gt;u1</title>
<path fill="none" stroke="black" d="M1995.32,-729.94C2050.17,-722.699 2128.9,-708.87 2194,-684 2252.82,-661.531 2270,-654.988 2316,-612 2335.64,-593.645 2352.43,-567.898 2363.4,-548.817"/>
<polygon fill="black" stroke="black" points="2366.47,-550.484 2368.3,-540.047 2360.36,-547.069 2366.47,-550.484"/>
</g>
<!-- m1 -->
<g id="node89" class="node"><title>m1</title>
<a xlink:href="0031974" xlink:title="GO:0031974">
<ellipse fill="#dddddd" stroke="#dddddd" cx="1931" cy="-594" rx="61.1934" ry="18"/>
<text text-anchor="middle" x="1931" y="-589.8" font-family="Times,serif" font-size="14.00">GO:0031974</text>
</a>
</g>
<!-- c0&#45;&gt;m1 -->
<g id="edge92" class="edge"><title>c0&#45;&gt;m1</title>
<path fill="none" stroke="black" d="M1928.36,-719.871C1928.87,-695.67 1929.81,-651.211 1930.42,-622.393"/>
<polygon fill="black" stroke="black" points="1933.92,-622.261 1930.64,-612.189 1926.93,-622.113 1933.92,-622.261"/>
</g>
<!-- r0 -->
<g id="node120" class="node"><title>r0</title>
<a xlink:href="0032991" xlink:title="GO:0032991">
<ellipse fill="#dddddd" stroke="#dddddd" cx="1537" cy="-522" rx="61.1934" ry="18"/>
<text text-anchor="middle" x="1537" y="-517.8" font-family="Times,serif" font-size="14.00">GO:0032991</text>
</a>
</g>
<!-- c0&#45;&gt;r0 -->
<g id="edge140" class="edge"><title>c0&#45;&gt;r0</title>
<path fill="none" stroke="black" d="M1869.12,-726.813C1830.64,-718.658 1780.1,-705.043 1739,-684 1666.82,-647.046 1595.82,-581.97 1560.35,-546.937"/>
<polygon fill="black" stroke="black" points="1562.48,-544.115 1552.93,-539.529 1557.54,-549.07 1562.48,-544.115"/>
</g>
<!-- g1 -->
<g id="node125" class="node"><title>g1</title>
<a xlink:href="0045202" xlink:title="GO:0045202 (1)">
<ellipse fill="#e98576" stroke="#e98576" cx="2438" cy="-666" rx="75.2018" ry="18"/>
<text text-anchor="middle" x="2438" y="-661.8" font-family="Times,serif" font-size="14.00">GO:0045202 (1)</text>
</a>
</g>
<!-- c0&#45;&gt;g1 -->
<g id="edge148" class="edge"><title>c0&#45;&gt;g1</title>
<path fill="none" stroke="black" d="M1995.27,-729.865C2078.53,-720.726 2224.58,-703.694 2349,-684 2356.65,-682.79 2364.64,-681.416 2372.57,-679.987"/>
<polygon fill="black" stroke="black" points="2373.34,-683.404 2382.55,-678.156 2372.08,-676.519 2373.34,-683.404"/>
</g>
<!-- n1&#45;&gt;l1 -->
<g id="edge114" class="edge"><title>n1&#45;&gt;l1</title>
<path fill="none" stroke="black" d="M1849.75,-360.055C1853.39,-352.091 1857.81,-342.411 1861.88,-333.51"/>
<polygon fill="black" stroke="black" points="1865.13,-334.825 1866.1,-324.275 1858.76,-331.915 1865.13,-334.825"/>
</g>
<!-- n1&#45;&gt;p1 -->
<g id="edge154" class="edge"><title>n1&#45;&gt;p1</title>
<path fill="none" stroke="black" d="M1797.47,-365.537C1788.73,-363.515 1779.61,-361.561 1771,-360 1703.65,-347.786 1513.62,-325.812 1411.64,-314.373"/>
<polygon fill="black" stroke="black" points="1411.78,-310.867 1401.45,-313.233 1411,-317.824 1411.78,-310.867"/>
</g>
<!-- i0&#45;&gt;n1 -->
<g id="edge26" class="edge"><title>i0&#45;&gt;n1</title>
<path fill="none" stroke="black" d="M1730.9,-434.155C1751.93,-423.714 1780.28,-409.644 1803.07,-398.328"/>
<polygon fill="black" stroke="black" points="1804.74,-401.405 1812.14,-393.824 1801.63,-395.136 1804.74,-401.405"/>
</g>
<!-- h0 -->
<g id="node51" class="node"><title>h0</title>
<a xlink:href="0031982" xlink:title="GO:0031982 (18)">
<ellipse fill="#e98576" stroke="#e98576" cx="1542" cy="-378" rx="79.4447" ry="18"/>
<text text-anchor="middle" x="1542" y="-373.8" font-family="Times,serif" font-size="14.00">GO:0031982 (18)</text>
</a>
</g>
<!-- i0&#45;&gt;h0 -->
<g id="edge50" class="edge"><title>i0&#45;&gt;h0</title>
<path fill="none" stroke="black" d="M1668.44,-434.666C1644.65,-424.192 1612.12,-409.872 1586.02,-398.379"/>
<polygon fill="black" stroke="black" points="1587.28,-395.111 1576.72,-394.285 1584.46,-401.518 1587.28,-395.111"/>
</g>
<!-- o0 -->
<g id="node81" class="node"><title>o0</title>
<a xlink:href="0043228" xlink:title="GO:0043228">
<ellipse fill="#dddddd" stroke="#dddddd" cx="1701" cy="-378" rx="61.1934" ry="18"/>
<text text-anchor="middle" x="1701" y="-373.8" font-family="Times,serif" font-size="14.00">GO:0043228</text>
</a>
</g>
<!-- i0&#45;&gt;o0 -->
<g id="edge142" class="edge"><title>i0&#45;&gt;o0</title>
<path fill="none" stroke="black" d="M1701,-431.697C1701,-423.983 1701,-414.712 1701,-406.112"/>
<polygon fill="black" stroke="black" points="1704.5,-406.104 1701,-396.104 1697.5,-406.104 1704.5,-406.104"/>
</g>
<!-- i0&#45;&gt;p0 -->
<g id="edge100" class="edge"><title>i0&#45;&gt;p0</title>
<path fill="none" stroke="black" d="M1651.5,-439.267C1586.76,-426.538 1473.48,-404.262 1404.25,-390.65"/>
<polygon fill="black" stroke="black" points="1404.85,-387.202 1394.37,-388.707 1403.5,-394.07 1404.85,-387.202"/>
</g>
<!-- j0 -->
<g id="node105" class="node"><title>j0</title>
<a xlink:href="0043230" xlink:title="GO:0043230 (18)">
<ellipse fill="#e98576" stroke="#e98576" cx="2039" cy="-378" rx="79.4447" ry="18"/>
<text text-anchor="middle" x="2039" y="-373.8" font-family="Times,serif" font-size="14.00">GO:0043230 (18)</text>
</a>
</g>
<!-- i0&#45;&gt;j0 -->
<g id="edge116" class="edge"><title>i0&#45;&gt;j0</title>
<path fill="none" stroke="black" d="M1749.43,-438.971C1808.03,-426.835 1906.98,-406.341 1972.65,-392.742"/>
<polygon fill="black" stroke="black" points="1973.4,-396.159 1982.49,-390.704 1971.99,-389.305 1973.4,-396.159"/>
</g>
<!-- v0 -->
<g id="node110" class="node"><title>v0</title>
<a xlink:href="0043227" xlink:title="GO:0043227">
<ellipse fill="#dddddd" stroke="#dddddd" cx="1204" cy="-378" rx="61.1934" ry="18"/>
<text text-anchor="middle" x="1204" y="-373.8" font-family="Times,serif" font-size="14.00">GO:0043227</text>
</a>
</g>
<!-- i0&#45;&gt;v0 -->
<g id="edge124" class="edge"><title>i0&#45;&gt;v0</title>
<path fill="none" stroke="black" d="M1643.16,-443.863C1560.93,-436.094 1405.72,-419.704 1275,-396 1269.62,-395.025 1264.04,-393.896 1258.48,-392.692"/>
<polygon fill="black" stroke="black" points="1259.06,-389.235 1248.53,-390.463 1257.52,-396.065 1259.06,-389.235"/>
</g>
<!-- n0 -->
<g id="node43" class="node"><title>n0</title>
<a xlink:href="0043232" xlink:title="GO:0043232 (5)">
<ellipse fill="#e98576" stroke="#e98576" cx="1593" cy="-306" rx="75.2018" ry="18"/>
<text text-anchor="middle" x="1593" y="-301.8" font-family="Times,serif" font-size="14.00">GO:0043232 (5)</text>
</a>
</g>
<!-- n0&#45;&gt;j1 -->
<g id="edge42" class="edge"><title>n0&#45;&gt;j1</title>
<path fill="none" stroke="black" d="M1556.65,-290.18C1539.7,-281.479 1520.72,-268.843 1509,-252 1462.3,-184.889 1514.8,-141.039 1471,-72 1463.05,-59.4679 1451.02,-48.8018 1439.16,-40.3951"/>
<polygon fill="black" stroke="black" points="1440.88,-37.3325 1430.62,-34.6788 1436.99,-43.1497 1440.88,-37.3325"/>
</g>
<!-- i1 -->
<g id="node78" class="node"><title>i1</title>
<a xlink:href="0005694" xlink:title="GO:0005694 (1)">
<ellipse fill="#e98576" stroke="#e98576" cx="1593" cy="-234" rx="75.2018" ry="18"/>
<text text-anchor="middle" x="1593" y="-229.8" font-family="Times,serif" font-size="14.00">GO:0005694 (1)</text>
</a>
</g>
<!-- n0&#45;&gt;i1 -->
<g id="edge80" class="edge"><title>n0&#45;&gt;i1</title>
<path fill="none" stroke="black" d="M1593,-287.697C1593,-279.983 1593,-270.712 1593,-262.112"/>
<polygon fill="black" stroke="black" points="1596.5,-262.104 1593,-252.104 1589.5,-262.104 1596.5,-262.104"/>
</g>
<!-- m0 -->
<g id="node93" class="node"><title>m0</title>
<a xlink:href="0005856" xlink:title="GO:0005856 (14)">
<ellipse fill="#e98576" stroke="#e98576" cx="1766" cy="-234" rx="79.4447" ry="18"/>
<text text-anchor="middle" x="1766" y="-229.8" font-family="Times,serif" font-size="14.00">GO:0005856 (14)</text>
</a>
</g>
<!-- n0&#45;&gt;m0 -->
<g id="edge98" class="edge"><title>n0&#45;&gt;m0</title>
<path fill="none" stroke="black" d="M1629.69,-290.155C1655.86,-279.564 1691.27,-265.239 1719.43,-253.842"/>
<polygon fill="black" stroke="black" points="1721.11,-256.94 1729.07,-249.944 1718.48,-250.451 1721.11,-256.94"/>
</g>
<!-- d0&#45;&gt;b0 -->
<g id="edge122" class="edge"><title>d0&#45;&gt;b0</title>
<path fill="none" stroke="black" d="M1113.93,-648.055C1107.43,-639.629 1099.44,-629.28 1092.26,-619.966"/>
<polygon fill="black" stroke="black" points="1094.83,-617.569 1085.95,-611.789 1089.29,-621.845 1094.83,-617.569"/>
</g>
<!-- g0&#45;&gt;f0 -->
<g id="edge52" class="edge"><title>g0&#45;&gt;f0</title>
<path fill="none" stroke="black" d="M1352.29,-509.352C1343.31,-507.296 1333.89,-505.375 1325,-504 1104.82,-469.947 1045.97,-496.502 825,-468 814.491,-466.644 803.359,-464.86 792.622,-462.956"/>
<polygon fill="black" stroke="black" points="792.949,-459.458 782.483,-461.106 791.692,-466.344 792.949,-459.458"/>
</g>
<!-- l0&#45;&gt;k0 -->
<g id="edge146" class="edge"><title>l0&#45;&gt;k0</title>
<path fill="none" stroke="black" d="M2074,-647.697C2074,-639.983 2074,-630.712 2074,-622.112"/>
<polygon fill="black" stroke="black" points="2077.5,-622.104 2074,-612.104 2070.5,-622.104 2077.5,-622.104"/>
</g>
<!-- t1 -->
<g id="node59" class="node"><title>t1</title>
<a xlink:href="0005578" xlink:title="GO:0005578">
<ellipse fill="#dddddd" stroke="#dddddd" cx="2236" cy="-522" rx="61.1934" ry="18"/>
<text text-anchor="middle" x="2236" y="-517.8" font-family="Times,serif" font-size="14.00">GO:0005578</text>
</a>
</g>
<!-- s0&#45;&gt;t1 -->
<g id="edge58" class="edge"><title>s0&#45;&gt;t1</title>
<path fill="none" stroke="black" d="M2232.99,-575.697C2233.43,-567.983 2233.96,-558.712 2234.45,-550.112"/>
<polygon fill="black" stroke="black" points="2237.95,-550.288 2235.02,-540.104 2230.96,-549.888 2237.95,-550.288"/>
</g>
<!-- s0&#45;&gt;u1 -->
<g id="edge160" class="edge"><title>s0&#45;&gt;u1</title>
<path fill="none" stroke="black" d="M2263.82,-577.638C2285.36,-567.239 2313.99,-553.42 2337.06,-542.281"/>
<polygon fill="black" stroke="black" points="2338.76,-545.345 2346.25,-537.846 2335.72,-539.041 2338.76,-545.345"/>
</g>
<!-- s1 -->
<g id="node73" class="node"><title>s1</title>
<a xlink:href="0005604" xlink:title="GO:0005604">
<ellipse fill="#dddddd" stroke="#dddddd" cx="2236" cy="-450" rx="61.1934" ry="18"/>
<text text-anchor="middle" x="2236" y="-445.8" font-family="Times,serif" font-size="14.00">GO:0005604</text>
</a>
</g>
<!-- t1&#45;&gt;s1 -->
<g id="edge74" class="edge"><title>t1&#45;&gt;s1</title>
<path fill="none" stroke="black" d="M2236,-503.697C2236,-495.983 2236,-486.712 2236,-478.112"/>
<polygon fill="black" stroke="black" points="2239.5,-478.104 2236,-468.104 2232.5,-478.104 2239.5,-478.104"/>
</g>
<!-- k0&#45;&gt;t1 -->
<g id="edge60" class="edge"><title>k0&#45;&gt;t1</title>
<path fill="none" stroke="black" d="M2107.17,-578.666C2132.26,-567.824 2166.89,-552.861 2193.93,-541.179"/>
<polygon fill="black" stroke="black" points="2195.36,-544.375 2203.15,-537.196 2192.58,-537.949 2195.36,-544.375"/>
</g>
<!-- k0&#45;&gt;s1 -->
<g id="edge78" class="edge"><title>k0&#45;&gt;s1</title>
<path fill="none" stroke="black" d="M2090.06,-576.301C2107.99,-557.934 2138.16,-527.858 2166,-504 2178.51,-493.282 2192.93,-482.169 2205.42,-472.904"/>
<polygon fill="black" stroke="black" points="2207.72,-475.554 2213.71,-466.813 2203.58,-469.913 2207.72,-475.554"/>
</g>
<!-- r1 -->
<g id="node99" class="node"><title>r1</title>
<a xlink:href="0005605" xlink:title="GO:0005605">
<ellipse fill="#dddddd" stroke="#dddddd" cx="2236" cy="-378" rx="61.1934" ry="18"/>
<text text-anchor="middle" x="2236" y="-373.8" font-family="Times,serif" font-size="14.00">GO:0005605</text>
</a>
</g>
<!-- k0&#45;&gt;r1 -->
<g id="edge110" class="edge"><title>k0&#45;&gt;r1</title>
<path fill="none" stroke="black" d="M2080.85,-575.99C2093.95,-544.878 2124.97,-477.797 2166,-432 2176.58,-420.193 2190.11,-409.232 2202.46,-400.378"/>
<polygon fill="black" stroke="black" points="2204.55,-403.185 2210.76,-394.601 2200.56,-397.438 2204.55,-403.185"/>
</g>
<!-- k0&#45;&gt;j0 -->
<g id="edge118" class="edge"><title>k0&#45;&gt;j0</title>
<path fill="none" stroke="black" d="M2067.61,-576.048C2063.97,-565.759 2059.63,-552.284 2057,-540 2047.06,-493.546 2042.4,-438.305 2040.38,-406.094"/>
<polygon fill="black" stroke="black" points="2043.87,-405.877 2039.79,-396.1 2036.89,-406.288 2043.87,-405.877"/>
</g>
<!-- k0&#45;&gt;q1 -->
<g id="edge132" class="edge"><title>k0&#45;&gt;q1</title>
<path fill="none" stroke="black" d="M2076.6,-575.935C2079.65,-557.768 2085.41,-528.342 2094,-504 2116.54,-440.145 2154.5,-370.059 2175.63,-333.132"/>
<polygon fill="black" stroke="black" points="2178.9,-334.465 2180.87,-324.054 2172.84,-330.966 2178.9,-334.465"/>
</g>
<!-- t0&#45;&gt;o1 -->
<g id="edge70" class="edge"><title>t0&#45;&gt;o1</title>
<path fill="none" stroke="black" d="M1262.38,-216.411C1273.71,-207.191 1287.96,-195.588 1300.29,-185.555"/>
<polygon fill="black" stroke="black" points="1302.52,-188.256 1308.06,-179.228 1298.1,-182.827 1302.52,-188.256"/>
</g>
<!-- p1&#45;&gt;o1 -->
<g id="edge72" class="edge"><title>p1&#45;&gt;o1</title>
<path fill="none" stroke="black" d="M1342.95,-287.871C1340.05,-263.67 1334.73,-219.211 1331.28,-190.393"/>
<polygon fill="black" stroke="black" points="1334.72,-189.702 1330.06,-180.189 1327.77,-190.534 1334.72,-189.702"/>
</g>
<!-- s1&#45;&gt;r1 -->
<g id="edge106" class="edge"><title>s1&#45;&gt;r1</title>
<path fill="none" stroke="black" d="M2236,-431.697C2236,-423.983 2236,-414.712 2236,-406.112"/>
<polygon fill="black" stroke="black" points="2239.5,-406.104 2236,-396.104 2232.5,-406.104 2239.5,-406.104"/>
</g>
<!-- u1&#45;&gt;s1 -->
<g id="edge76" class="edge"><title>u1&#45;&gt;s1</title>
<path fill="none" stroke="black" d="M2347.1,-506.155C2326.07,-495.714 2297.72,-481.644 2274.93,-470.328"/>
<polygon fill="black" stroke="black" points="2276.37,-467.136 2265.86,-465.824 2273.26,-473.405 2276.37,-467.136"/>
</g>
<!-- u1&#45;&gt;r1 -->
<g id="edge108" class="edge"><title>u1&#45;&gt;r1</title>
<path fill="none" stroke="black" d="M2365.56,-504.227C2352.37,-485.527 2329.49,-454.906 2306,-432 2294.47,-420.76 2280.54,-409.773 2268.15,-400.743"/>
<polygon fill="black" stroke="black" points="2270.04,-397.791 2259.87,-394.825 2265.97,-403.487 2270.04,-397.791"/>
</g>
<!-- u1&#45;&gt;q1 -->
<g id="edge130" class="edge"><title>u1&#45;&gt;q1</title>
<path fill="none" stroke="black" d="M2373.62,-503.684C2366.5,-471.47 2347.13,-401.815 2306,-360 2290.03,-343.764 2268.15,-331.99 2247.77,-323.724"/>
<polygon fill="black" stroke="black" points="2248.81,-320.376 2238.22,-320.058 2246.3,-326.911 2248.81,-320.376"/>
</g>
<!-- o0&#45;&gt;n0 -->
<g id="edge84" class="edge"><title>o0&#45;&gt;n0</title>
<path fill="none" stroke="black" d="M1676.76,-361.291C1661.97,-351.7 1642.83,-339.298 1626.59,-328.769"/>
<polygon fill="black" stroke="black" points="1628.2,-325.644 1617.91,-323.142 1624.39,-331.519 1628.2,-325.644"/>
</g>
<!-- p0&#45;&gt;u0 -->
<g id="edge138" class="edge"><title>p0&#45;&gt;u0</title>
<path fill="none" stroke="black" d="M1300.55,-365.519C1254.8,-353.701 1183.27,-335.225 1132.85,-322.201"/>
<polygon fill="black" stroke="black" points="1133.62,-318.784 1123.06,-319.672 1131.87,-325.562 1133.62,-318.784"/>
</g>
<!-- p0&#45;&gt;n0 -->
<g id="edge86" class="edge"><title>p0&#45;&gt;n0</title>
<path fill="none" stroke="black" d="M1387.63,-364.967C1428.79,-353.349 1491.36,-335.688 1536.62,-322.914"/>
<polygon fill="black" stroke="black" points="1537.62,-326.27 1546.29,-320.185 1535.71,-319.533 1537.62,-326.27"/>
</g>
<!-- p0&#45;&gt;p1 -->
<g id="edge152" class="edge"><title>p0&#45;&gt;p1</title>
<path fill="none" stroke="black" d="M1345,-359.697C1345,-351.983 1345,-342.712 1345,-334.112"/>
<polygon fill="black" stroke="black" points="1348.5,-334.104 1345,-324.104 1341.5,-334.104 1348.5,-334.104"/>
</g>
<!-- m1&#45;&gt;l1 -->
<g id="edge112" class="edge"><title>m1&#45;&gt;l1</title>
<path fill="none" stroke="black" d="M1932.64,-575.962C1935.79,-536.545 1940.1,-436.584 1912,-360 1908.31,-349.956 1902.17,-340.105 1895.89,-331.673"/>
<polygon fill="black" stroke="black" points="1898.59,-329.442 1889.64,-323.76 1893.09,-333.779 1898.59,-329.442"/>
</g>
<!-- r1&#45;&gt;q1 -->
<g id="edge126" class="edge"><title>r1&#45;&gt;q1</title>
<path fill="none" stroke="black" d="M2225.11,-360.055C2219.88,-351.922 2213.5,-341.998 2207.68,-332.943"/>
<polygon fill="black" stroke="black" points="2210.46,-330.794 2202.11,-324.275 2204.57,-334.58 2210.46,-330.794"/>
</g>
<!-- v0&#45;&gt;u0 -->
<g id="edge136" class="edge"><title>v0&#45;&gt;u0</title>
<path fill="none" stroke="black" d="M1175.79,-361.811C1157.14,-351.769 1132.47,-338.482 1112.08,-327.505"/>
<polygon fill="black" stroke="black" points="1113.52,-324.303 1103.05,-322.644 1110.2,-330.467 1113.52,-324.303"/>
</g>
<!-- r0&#45;&gt;q0 -->
<g id="edge166" class="edge"><title>r0&#45;&gt;q0</title>
<path fill="none" stroke="black" d="M1492.88,-509.431C1484.03,-507.393 1474.75,-505.461 1466,-504 1302.94,-476.787 1110.28,-462.235 1001.09,-455.603"/>
<polygon fill="black" stroke="black" points="1000.98,-452.09 990.785,-454.986 1000.56,-459.078 1000.98,-452.09"/>
</g>
<!-- r0&#45;&gt;h1 -->
<g id="edge162" class="edge"><title>r0&#45;&gt;h1</title>
<path fill="none" stroke="black" d="M1494.97,-508.77C1407.02,-483.177 1203.55,-423.971 1104.79,-395.233"/>
<polygon fill="black" stroke="black" points="1105.57,-391.816 1094.99,-392.382 1103.61,-398.537 1105.57,-391.816"/>
</g>
</g>
</svg>
