<?xml version="1.0" encoding="UTF-8" standalone="no"?>
<!DOCTYPE svg PUBLIC "-//W3C//DTD SVG 1.1//EN"
 "http://www.w3.org/Graphics/SVG/1.1/DTD/svg11.dtd">
<!-- Generated by graphviz version 2.28.0 (20110622.2320)
 -->
<!-- Title: G Pages: 1 -->
<svg width="3457pt" height="260pt"
 viewBox="0.00 0.00 3457.00 260.00" xmlns="http://www.w3.org/2000/svg" xmlns:xlink="http://www.w3.org/1999/xlink">
<g id="graph1" class="graph" transform="scale(1 1) rotate(0) translate(4 256)">
<title>G</title>
<polygon fill="white" stroke="white" points="-4,5 -4,-256 3454,-256 3454,5 -4,5"/>
<!-- m0 -->
<g id="node1" class="node"><title>m0</title>
<a xlink:href="0016491" xlink:title="GO:0016491 (4)">
<ellipse fill="#e98576" stroke="#e98576" cx="2447" cy="-90" rx="75.2018" ry="18"/>
<text text-anchor="middle" x="2447" y="-85.8" font-family="Times,serif" font-size="14.00">GO:0016491 (4)</text>
</a>
</g>
<!-- c1 -->
<g id="node3" class="node"><title>c1</title>
<a xlink:href="0051213" xlink:title="GO:0051213 (1)">
<ellipse fill="#e98576" stroke="#e98576" cx="2279" cy="-18" rx="75.2018" ry="18"/>
<text text-anchor="middle" x="2279" y="-13.8" font-family="Times,serif" font-size="14.00">GO:0051213 (1)</text>
</a>
</g>
<!-- m0&#45;&gt;c1 -->
<g id="edge2" class="edge"><title>m0&#45;&gt;c1</title>
<path fill="none" stroke="black" d="M2411.37,-74.1548C2385.95,-63.5644 2351.57,-49.2392 2324.22,-37.8424"/>
<polygon fill="black" stroke="black" points="2325.44,-34.5597 2314.87,-33.9443 2322.75,-41.0213 2325.44,-34.5597"/>
</g>
<!-- x0 -->
<g id="node37" class="node"><title>x0</title>
<a xlink:href="0009055" xlink:title="GO:0009055 (1)">
<ellipse fill="#e98576" stroke="#e98576" cx="2447" cy="-18" rx="75.2018" ry="18"/>
<text text-anchor="middle" x="2447" y="-13.8" font-family="Times,serif" font-size="14.00">GO:0009055 (1)</text>
</a>
</g>
<!-- m0&#45;&gt;x0 -->
<g id="edge34" class="edge"><title>m0&#45;&gt;x0</title>
<path fill="none" stroke="black" d="M2447,-71.6966C2447,-63.9827 2447,-54.7125 2447,-46.1124"/>
<polygon fill="black" stroke="black" points="2450.5,-46.1043 2447,-36.1043 2443.5,-46.1044 2450.5,-46.1043"/>
</g>
<!-- c0 -->
<g id="node4" class="node"><title>c0</title>
<a xlink:href="0003674" xlink:title="GO:0003674 (3)">
<ellipse fill="#e98576" stroke="#e98576" cx="2869" cy="-234" rx="75.2018" ry="18"/>
<text text-anchor="middle" x="2869" y="-229.8" font-family="Times,serif" font-size="14.00">GO:0003674 (3)</text>
</a>
</g>
<!-- j0 -->
<g id="node6" class="node"><title>j0</title>
<a xlink:href="0030234" xlink:title="GO:0030234 (6)">
<ellipse fill="#e98576" stroke="#e98576" cx="1200" cy="-162" rx="75.2018" ry="18"/>
<text text-anchor="middle" x="1200" y="-157.8" font-family="Times,serif" font-size="14.00">GO:0030234 (6)</text>
</a>
</g>
<!-- c0&#45;&gt;j0 -->
<g id="edge4" class="edge"><title>c0&#45;&gt;j0</title>
<path fill="none" stroke="black" d="M2793.88,-232.121C2521.02,-228.671 1582.75,-214.52 1285,-180 1277.81,-179.166 1270.31,-178.045 1262.89,-176.774"/>
<polygon fill="black" stroke="black" points="1263.3,-173.292 1252.84,-174.961 1262.06,-180.181 1263.3,-173.292"/>
</g>
<!-- b0 -->
<g id="node7" class="node"><title>b0</title>
<a xlink:href="0005488" xlink:title="GO:0005488">
<ellipse fill="#dddddd" stroke="#dddddd" cx="1355" cy="-162" rx="61.1934" ry="18"/>
<text text-anchor="middle" x="1355" y="-157.8" font-family="Times,serif" font-size="14.00">GO:0005488</text>
</a>
</g>
<!-- c0&#45;&gt;b0 -->
<g id="edge16" class="edge"><title>c0&#45;&gt;b0</title>
<path fill="none" stroke="black" d="M2795.98,-229.624C2538.9,-217.738 1677.68,-177.919 1425.16,-166.244"/>
<polygon fill="black" stroke="black" points="1425.16,-162.74 1415.01,-165.775 1424.84,-169.733 1425.16,-162.74"/>
</g>
<!-- f0 -->
<g id="node11" class="node"><title>f0</title>
<a xlink:href="0003824" xlink:title="GO:0003824 (4)">
<ellipse fill="#e98576" stroke="#e98576" cx="2701" cy="-162" rx="75.2018" ry="18"/>
<text text-anchor="middle" x="2701" y="-157.8" font-family="Times,serif" font-size="14.00">GO:0003824 (4)</text>
</a>
</g>
<!-- c0&#45;&gt;f0 -->
<g id="edge8" class="edge"><title>c0&#45;&gt;f0</title>
<path fill="none" stroke="black" d="M2833.37,-218.155C2807.95,-207.564 2773.57,-193.239 2746.22,-181.842"/>
<polygon fill="black" stroke="black" points="2747.44,-178.56 2736.87,-177.944 2744.75,-185.021 2747.44,-178.56"/>
</g>
<!-- t0 -->
<g id="node19" class="node"><title>t0</title>
<a xlink:href="0060089" xlink:title="GO:0060089 (1)">
<ellipse fill="#e98576" stroke="#e98576" cx="2869" cy="-162" rx="75.2018" ry="18"/>
<text text-anchor="middle" x="2869" y="-157.8" font-family="Times,serif" font-size="14.00">GO:0060089 (1)</text>
</a>
</g>
<!-- c0&#45;&gt;t0 -->
<g id="edge58" class="edge"><title>c0&#45;&gt;t0</title>
<path fill="none" stroke="black" d="M2869,-215.697C2869,-207.983 2869,-198.712 2869,-190.112"/>
<polygon fill="black" stroke="black" points="2872.5,-190.104 2869,-180.104 2865.5,-190.104 2872.5,-190.104"/>
</g>
<!-- b1 -->
<g id="node28" class="node"><title>b1</title>
<a xlink:href="0016209" xlink:title="GO:0016209 (1)">
<ellipse fill="#e98576" stroke="#e98576" cx="3037" cy="-162" rx="75.2018" ry="18"/>
<text text-anchor="middle" x="3037" y="-157.8" font-family="Times,serif" font-size="14.00">GO:0016209 (1)</text>
</a>
</g>
<!-- c0&#45;&gt;b1 -->
<g id="edge24" class="edge"><title>c0&#45;&gt;b1</title>
<path fill="none" stroke="black" d="M2904.63,-218.155C2930.05,-207.564 2964.43,-193.239 2991.78,-181.842"/>
<polygon fill="black" stroke="black" points="2993.25,-185.021 3001.13,-177.944 2990.56,-178.56 2993.25,-185.021"/>
</g>
<!-- n0 -->
<g id="node30" class="node"><title>n0</title>
<a xlink:href="0005215" xlink:title="GO:0005215 (3)">
<ellipse fill="#e98576" stroke="#e98576" cx="3205" cy="-162" rx="75.2018" ry="18"/>
<text text-anchor="middle" x="3205" y="-157.8" font-family="Times,serif" font-size="14.00">GO:0005215 (3)</text>
</a>
</g>
<!-- c0&#45;&gt;n0 -->
<g id="edge26" class="edge"><title>c0&#45;&gt;n0</title>
<path fill="none" stroke="black" d="M2923.73,-221.597C2983.04,-209.242 3077.6,-189.541 3140.48,-176.441"/>
<polygon fill="black" stroke="black" points="3141.22,-179.864 3150.29,-174.398 3139.79,-173.011 3141.22,-179.864"/>
</g>
<!-- p0 -->
<g id="node56" class="node"><title>p0</title>
<a xlink:href="0005198" xlink:title="GO:0005198 (2)">
<ellipse fill="#e98576" stroke="#e98576" cx="3373" cy="-162" rx="75.2018" ry="18"/>
<text text-anchor="middle" x="3373" y="-157.8" font-family="Times,serif" font-size="14.00">GO:0005198 (2)</text>
</a>
</g>
<!-- c0&#45;&gt;p0 -->
<g id="edge54" class="edge"><title>c0&#45;&gt;p0</title>
<path fill="none" stroke="black" d="M2936.51,-226.041C3019.67,-217.109 3165.16,-200.316 3289,-180 3295.51,-178.932 3302.29,-177.724 3309.04,-176.456"/>
<polygon fill="black" stroke="black" points="3309.72,-179.889 3318.88,-174.566 3308.4,-173.014 3309.72,-179.889"/>
</g>
<!-- u0 -->
<g id="node9" class="node"><title>u0</title>
<a xlink:href="0019825" xlink:title="GO:0019825 (2)">
<ellipse fill="#e98576" stroke="#e98576" cx="75" cy="-90" rx="75.2018" ry="18"/>
<text text-anchor="middle" x="75" y="-85.8" font-family="Times,serif" font-size="14.00">GO:0019825 (2)</text>
</a>
</g>
<!-- b0&#45;&gt;u0 -->
<g id="edge6" class="edge"><title>b0&#45;&gt;u0</title>
<path fill="none" stroke="black" d="M1311.71,-149.16C1302.62,-147.091 1293.04,-145.215 1284,-144 788.195,-77.4137 655.903,-165.818 159,-108 151.887,-107.172 144.481,-106.055 137.141,-104.787"/>
<polygon fill="black" stroke="black" points="137.675,-101.326 127.209,-102.976 136.419,-108.213 137.675,-101.326"/>
</g>
<!-- k0 -->
<g id="node13" class="node"><title>k0</title>
<a xlink:href="0001882" xlink:title="GO:0001882 (4)">
<ellipse fill="#e98576" stroke="#e98576" cx="243" cy="-90" rx="75.2018" ry="18"/>
<text text-anchor="middle" x="243" y="-85.8" font-family="Times,serif" font-size="14.00">GO:0001882 (4)</text>
</a>
</g>
<!-- b0&#45;&gt;k0 -->
<g id="edge10" class="edge"><title>b0&#45;&gt;k0</title>
<path fill="none" stroke="black" d="M1311.7,-149.2C1302.61,-147.127 1293.04,-145.24 1284,-144 862.314,-86.163 749.642,-158.38 327,-108 320.151,-107.184 313.027,-106.105 305.954,-104.887"/>
<polygon fill="black" stroke="black" points="306.129,-101.361 295.664,-103.016 304.876,-108.248 306.129,-101.361"/>
</g>
<!-- a0 -->
<g id="node15" class="node"><title>a0</title>
<a xlink:href="0005515" xlink:title="GO:0005515 (27)">
<ellipse fill="#e98576" stroke="#e98576" cx="416" cy="-90" rx="79.4447" ry="18"/>
<text text-anchor="middle" x="416" y="-85.8" font-family="Times,serif" font-size="14.00">GO:0005515 (27)</text>
</a>
</g>
<!-- b0&#45;&gt;a0 -->
<g id="edge12" class="edge"><title>b0&#45;&gt;a0</title>
<path fill="none" stroke="black" d="M1311.69,-149.26C1302.61,-147.183 1293.04,-145.279 1284,-144 940.828,-95.4309 849.204,-148.617 505,-108 497.421,-107.106 489.518,-105.94 481.686,-104.637"/>
<polygon fill="black" stroke="black" points="482.285,-101.189 471.833,-102.925 481.086,-108.086 482.285,-101.189"/>
</g>
<!-- d1 -->
<g id="node17" class="node"><title>d1</title>
<a xlink:href="0019842" xlink:title="GO:0019842 (1)">
<ellipse fill="#e98576" stroke="#e98576" cx="589" cy="-90" rx="75.2018" ry="18"/>
<text text-anchor="middle" x="589" y="-85.8" font-family="Times,serif" font-size="14.00">GO:0019842 (1)</text>
</a>
</g>
<!-- b0&#45;&gt;d1 -->
<g id="edge14" class="edge"><title>b0&#45;&gt;d1</title>
<path fill="none" stroke="black" d="M1311.3,-149.262C1302.33,-147.212 1292.9,-145.318 1284,-144 1014.9,-104.174 942.757,-143.066 673,-108 666.16,-107.111 659.042,-105.986 651.972,-104.741"/>
<polygon fill="black" stroke="black" points="652.155,-101.215 641.685,-102.842 650.884,-108.099 652.155,-101.215"/>
</g>
<!-- e1 -->
<g id="node26" class="node"><title>e1</title>
<a xlink:href="0060090" xlink:title="GO:0060090 (1)">
<ellipse fill="#e98576" stroke="#e98576" cx="757" cy="-90" rx="75.2018" ry="18"/>
<text text-anchor="middle" x="757" y="-85.8" font-family="Times,serif" font-size="14.00">GO:0060090 (1)</text>
</a>
</g>
<!-- b0&#45;&gt;e1 -->
<g id="edge22" class="edge"><title>b0&#45;&gt;e1</title>
<path fill="none" stroke="black" d="M1310.9,-149.33C1302.04,-147.3 1292.76,-145.396 1284,-144 1088.92,-112.909 1036.59,-135.64 841,-108 834.269,-107.049 827.265,-105.896 820.3,-104.643"/>
<polygon fill="black" stroke="black" points="820.632,-101.145 810.16,-102.748 819.347,-108.026 820.632,-101.145"/>
</g>
<!-- d0 -->
<g id="node32" class="node"><title>d0</title>
<a xlink:href="0043167" xlink:title="GO:0043167 (20)">
<ellipse fill="#e98576" stroke="#e98576" cx="930" cy="-90" rx="79.4447" ry="18"/>
<text text-anchor="middle" x="930" y="-85.8" font-family="Times,serif" font-size="14.00">GO:0043167 (20)</text>
</a>
</g>
<!-- b0&#45;&gt;d0 -->
<g id="edge28" class="edge"><title>b0&#45;&gt;d0</title>
<path fill="none" stroke="black" d="M1310.45,-149.615C1301.72,-147.585 1292.6,-145.609 1284,-144 1167.17,-122.134 1136.31,-127.157 1019,-108 1012.22,-106.893 1005.16,-105.669 998.121,-104.4"/>
<polygon fill="black" stroke="black" points="998.316,-100.877 987.848,-102.517 997.054,-107.762 998.316,-100.877"/>
</g>
<!-- w0 -->
<g id="node34" class="node"><title>w0</title>
<a xlink:href="0031406" xlink:title="GO:0031406 (1)">
<ellipse fill="#e98576" stroke="#e98576" cx="1103" cy="-90" rx="75.2018" ry="18"/>
<text text-anchor="middle" x="1103" y="-85.8" font-family="Times,serif" font-size="14.00">GO:0031406 (1)</text>
</a>
</g>
<!-- b0&#45;&gt;w0 -->
<g id="edge30" class="edge"><title>b0&#45;&gt;w0</title>
<path fill="none" stroke="black" d="M1311.97,-149.046C1270.06,-137.405 1206.1,-119.64 1159.99,-106.83"/>
<polygon fill="black" stroke="black" points="1160.71,-103.399 1150.14,-104.095 1158.84,-110.143 1160.71,-103.399"/>
</g>
<!-- v0 -->
<g id="node39" class="node"><title>v0</title>
<a xlink:href="0030246" xlink:title="GO:0030246 (2)">
<ellipse fill="#e98576" stroke="#e98576" cx="1271" cy="-90" rx="75.2018" ry="18"/>
<text text-anchor="middle" x="1271" y="-85.8" font-family="Times,serif" font-size="14.00">GO:0030246 (2)</text>
</a>
</g>
<!-- b0&#45;&gt;v0 -->
<g id="edge36" class="edge"><title>b0&#45;&gt;v0</title>
<path fill="none" stroke="black" d="M1335.52,-144.765C1324.57,-135.642 1310.73,-124.105 1298.67,-114.059"/>
<polygon fill="black" stroke="black" points="1300.59,-111.103 1290.67,-107.39 1296.11,-116.48 1300.59,-111.103"/>
</g>
<!-- g0 -->
<g id="node43" class="node"><title>g0</title>
<a xlink:href="0003676" xlink:title="GO:0003676 (9)">
<ellipse fill="#e98576" stroke="#e98576" cx="1439" cy="-90" rx="75.2018" ry="18"/>
<text text-anchor="middle" x="1439" y="-85.8" font-family="Times,serif" font-size="14.00">GO:0003676 (9)</text>
</a>
</g>
<!-- b0&#45;&gt;g0 -->
<g id="edge40" class="edge"><title>b0&#45;&gt;g0</title>
<path fill="none" stroke="black" d="M1374.48,-144.765C1385.43,-135.642 1399.27,-124.105 1411.33,-114.059"/>
<polygon fill="black" stroke="black" points="1413.89,-116.48 1419.33,-107.39 1409.41,-111.103 1413.89,-116.48"/>
</g>
<!-- q0 -->
<g id="node46" class="node"><title>q0</title>
<a xlink:href="0046906" xlink:title="GO:0046906 (2)">
<ellipse fill="#e98576" stroke="#e98576" cx="1607" cy="-90" rx="75.2018" ry="18"/>
<text text-anchor="middle" x="1607" y="-85.8" font-family="Times,serif" font-size="14.00">GO:0046906 (2)</text>
</a>
</g>
<!-- b0&#45;&gt;q0 -->
<g id="edge44" class="edge"><title>b0&#45;&gt;q0</title>
<path fill="none" stroke="black" d="M1398.03,-149.046C1439.94,-137.405 1503.9,-119.64 1550.01,-106.83"/>
<polygon fill="black" stroke="black" points="1551.16,-110.143 1559.86,-104.095 1549.29,-103.399 1551.16,-110.143"/>
</g>
<!-- h0 -->
<g id="node48" class="node"><title>h0</title>
<a xlink:href="0000166" xlink:title="GO:0000166 (8)">
<ellipse fill="#e98576" stroke="#e98576" cx="1775" cy="-90" rx="75.2018" ry="18"/>
<text text-anchor="middle" x="1775" y="-85.8" font-family="Times,serif" font-size="14.00">GO:0000166 (8)</text>
</a>
</g>
<!-- b0&#45;&gt;h0 -->
<g id="edge46" class="edge"><title>b0&#45;&gt;h0</title>
<path fill="none" stroke="black" d="M1408.66,-153.267C1475.08,-143.526 1591.61,-125.887 1691,-108 1697.25,-106.876 1703.74,-105.654 1710.23,-104.399"/>
<polygon fill="black" stroke="black" points="1711.25,-107.766 1720.39,-102.408 1709.9,-100.897 1711.25,-107.766"/>
</g>
<!-- a1 -->
<g id="node50" class="node"><title>a1</title>
<a xlink:href="0001871" xlink:title="GO:0001871 (1)">
<ellipse fill="#e98576" stroke="#e98576" cx="1943" cy="-90" rx="75.2018" ry="18"/>
<text text-anchor="middle" x="1943" y="-85.8" font-family="Times,serif" font-size="14.00">GO:0001871 (1)</text>
</a>
</g>
<!-- b0&#45;&gt;a1 -->
<g id="edge48" class="edge"><title>b0&#45;&gt;a1</title>
<path fill="none" stroke="black" d="M1413.82,-156.637C1508.11,-149.234 1698.77,-132.582 1859,-108 1865.62,-106.984 1872.51,-105.8 1879.37,-104.538"/>
<polygon fill="black" stroke="black" points="1880.19,-107.945 1889.36,-102.644 1878.89,-101.068 1880.19,-107.945"/>
</g>
<!-- r0 -->
<g id="node58" class="node"><title>r0</title>
<a xlink:href="0003682" xlink:title="GO:0003682 (2)">
<ellipse fill="#e98576" stroke="#e98576" cx="2111" cy="-90" rx="75.2018" ry="18"/>
<text text-anchor="middle" x="2111" y="-85.8" font-family="Times,serif" font-size="14.00">GO:0003682 (2)</text>
</a>
</g>
<!-- b0&#45;&gt;r0 -->
<g id="edge56" class="edge"><title>b0&#45;&gt;r0</title>
<path fill="none" stroke="black" d="M1415.5,-158.684C1533.57,-153.622 1802.74,-139.419 2027,-108 2033.73,-107.057 2040.74,-105.909 2047.7,-104.659"/>
<polygon fill="black" stroke="black" points="2048.65,-108.042 2057.84,-102.768 2047.37,-101.161 2048.65,-108.042"/>
</g>
<!-- o0 -->
<g id="node61" class="node"><title>o0</title>
<a xlink:href="0048037" xlink:title="GO:0048037 (3)">
<ellipse fill="#e98576" stroke="#e98576" cx="2279" cy="-90" rx="75.2018" ry="18"/>
<text text-anchor="middle" x="2279" y="-85.8" font-family="Times,serif" font-size="14.00">GO:0048037 (3)</text>
</a>
</g>
<!-- b0&#45;&gt;o0 -->
<g id="edge60" class="edge"><title>b0&#45;&gt;o0</title>
<path fill="none" stroke="black" d="M1415.89,-160.007C1554.67,-157.121 1904.91,-146.324 2195,-108 2201.74,-107.11 2208.75,-105.996 2215.72,-104.766"/>
<polygon fill="black" stroke="black" points="2216.66,-108.151 2225.86,-102.895 2215.39,-101.267 2216.66,-108.151"/>
</g>
<!-- f0&#45;&gt;m0 -->
<g id="edge42" class="edge"><title>f0&#45;&gt;m0</title>
<path fill="none" stroke="black" d="M2653.82,-147.998C2611.45,-136.321 2549.15,-119.151 2504,-106.71"/>
<polygon fill="black" stroke="black" points="2504.93,-103.334 2494.36,-104.051 2503.07,-110.083 2504.93,-103.334"/>
</g>
<!-- i0 -->
<g id="node22" class="node"><title>i0</title>
<a xlink:href="0016787" xlink:title="GO:0016787 (7)">
<ellipse fill="#e98576" stroke="#e98576" cx="2615" cy="-90" rx="75.2018" ry="18"/>
<text text-anchor="middle" x="2615" y="-85.8" font-family="Times,serif" font-size="14.00">GO:0016787 (7)</text>
</a>
</g>
<!-- f0&#45;&gt;i0 -->
<g id="edge32" class="edge"><title>f0&#45;&gt;i0</title>
<path fill="none" stroke="black" d="M2680.62,-144.411C2669.48,-135.345 2655.51,-123.974 2643.33,-114.057"/>
<polygon fill="black" stroke="black" points="2645.2,-111.068 2635.23,-107.47 2640.78,-116.497 2645.2,-111.068"/>
</g>
<!-- e0 -->
<g id="node41" class="node"><title>e0</title>
<a xlink:href="0016740" xlink:title="GO:0016740 (12)">
<ellipse fill="#e98576" stroke="#e98576" cx="2788" cy="-90" rx="79.4447" ry="18"/>
<text text-anchor="middle" x="2788" y="-85.8" font-family="Times,serif" font-size="14.00">GO:0016740 (12)</text>
</a>
</g>
<!-- f0&#45;&gt;e0 -->
<g id="edge38" class="edge"><title>f0&#45;&gt;e0</title>
<path fill="none" stroke="black" d="M2721.62,-144.411C2732.99,-135.257 2747.29,-123.755 2759.7,-113.772"/>
<polygon fill="black" stroke="black" points="2761.93,-116.466 2767.53,-107.47 2757.54,-111.012 2761.93,-116.466"/>
</g>
<!-- z0 -->
<g id="node52" class="node"><title>z0</title>
<a xlink:href="0004386" xlink:title="GO:0004386 (1)">
<ellipse fill="#e98576" stroke="#e98576" cx="2961" cy="-90" rx="75.2018" ry="18"/>
<text text-anchor="middle" x="2961" y="-85.8" font-family="Times,serif" font-size="14.00">GO:0004386 (1)</text>
</a>
</g>
<!-- f0&#45;&gt;z0 -->
<g id="edge50" class="edge"><title>f0&#45;&gt;z0</title>
<path fill="none" stroke="black" d="M2748.99,-148.079C2792.46,-136.376 2856.61,-119.105 2902.95,-106.629"/>
<polygon fill="black" stroke="black" points="2904.1,-109.943 2912.85,-103.964 2902.28,-103.184 2904.1,-109.943"/>
</g>
<!-- y0 -->
<g id="node54" class="node"><title>y0</title>
<a xlink:href="0016829" xlink:title="GO:0016829 (1)">
<ellipse fill="#e98576" stroke="#e98576" cx="3129" cy="-90" rx="75.2018" ry="18"/>
<text text-anchor="middle" x="3129" y="-85.8" font-family="Times,serif" font-size="14.00">GO:0016829 (1)</text>
</a>
</g>
<!-- f0&#45;&gt;y0 -->
<g id="edge52" class="edge"><title>f0&#45;&gt;y0</title>
<path fill="none" stroke="black" d="M2755.58,-149.442C2765.36,-147.518 2775.47,-145.623 2785,-144 2900,-124.42 2930,-127.58 3045,-108 3051.26,-106.935 3057.76,-105.753 3064.26,-104.522"/>
<polygon fill="black" stroke="black" points="3065.26,-107.892 3074.42,-102.558 3063.94,-101.019 3065.26,-107.892"/>
</g>
<!-- s0 -->
<g id="node21" class="node"><title>s0</title>
<a xlink:href="0004871" xlink:title="GO:0004871 (2)">
<ellipse fill="#e98576" stroke="#e98576" cx="3297" cy="-90" rx="75.2018" ry="18"/>
<text text-anchor="middle" x="3297" y="-85.8" font-family="Times,serif" font-size="14.00">GO:0004871 (2)</text>
</a>
</g>
<!-- t0&#45;&gt;s0 -->
<g id="edge18" class="edge"><title>t0&#45;&gt;s0</title>
<path fill="none" stroke="black" d="M2923.58,-149.442C2933.36,-147.518 2943.47,-145.623 2953,-144 3068,-124.42 3098,-127.58 3213,-108 3219.26,-106.935 3225.76,-105.753 3232.26,-104.522"/>
<polygon fill="black" stroke="black" points="3233.26,-107.892 3242.42,-102.558 3231.94,-101.019 3233.26,-107.892"/>
</g>
<!-- l0 -->
<g id="node24" class="node"><title>l0</title>
<a xlink:href="0008233" xlink:title="GO:0008233 (4)">
<ellipse fill="#e98576" stroke="#e98576" cx="2615" cy="-18" rx="75.2018" ry="18"/>
<text text-anchor="middle" x="2615" y="-13.8" font-family="Times,serif" font-size="14.00">GO:0008233 (4)</text>
</a>
</g>
<!-- i0&#45;&gt;l0 -->
<g id="edge20" class="edge"><title>i0&#45;&gt;l0</title>
<path fill="none" stroke="black" d="M2615,-71.6966C2615,-63.9827 2615,-54.7125 2615,-46.1124"/>
<polygon fill="black" stroke="black" points="2618.5,-46.1043 2615,-36.1043 2611.5,-46.1044 2618.5,-46.1043"/>
</g>
</g>
</svg>
