<?xml version="1.0" encoding="UTF-8" standalone="no"?>
<!DOCTYPE svg PUBLIC "-//W3C//DTD SVG 1.1//EN"
 "http://www.w3.org/Graphics/SVG/1.1/DTD/svg11.dtd">
<!-- Generated by graphviz version 2.28.0 (20110622.2320)
 -->
<!-- Title: G Pages: 1 -->
<svg width="2699pt" height="476pt"
 viewBox="0.00 0.00 2699.00 476.00" xmlns="http://www.w3.org/2000/svg" xmlns:xlink="http://www.w3.org/1999/xlink">
<g id="graph1" class="graph" transform="scale(1 1) rotate(0) translate(4 472)">
<title>G</title>
<polygon fill="white" stroke="white" points="-4,5 -4,-472 2696,-472 2696,5 -4,5"/>
<!-- m0 -->
<g id="node1" class="node"><title>m0</title>
<a xlink:href="0051179" xlink:title="GO:0051179 (1)">
<ellipse fill="#e98576" stroke="#e98576" cx="268" cy="-378" rx="75.2018" ry="18"/>
<text text-anchor="middle" x="268" y="-373.8" font-family="Times,serif" font-size="14.00">GO:0051179 (1)</text>
</a>
</g>
<!-- d1 -->
<g id="node3" class="node"><title>d1</title>
<a xlink:href="0051674" xlink:title="GO:0051674">
<ellipse fill="#dddddd" stroke="#dddddd" cx="268" cy="-306" rx="61.1934" ry="18"/>
<text text-anchor="middle" x="268" y="-301.8" font-family="Times,serif" font-size="14.00">GO:0051674</text>
</a>
</g>
<!-- m0&#45;&gt;d1 -->
<g id="edge2" class="edge"><title>m0&#45;&gt;d1</title>
<path fill="none" stroke="black" d="M268,-359.697C268,-351.983 268,-342.712 268,-334.112"/>
<polygon fill="black" stroke="black" points="271.5,-334.104 268,-324.104 264.5,-334.104 271.5,-334.104"/>
</g>
<!-- l0 -->
<g id="node29" class="node"><title>l0</title>
<a xlink:href="0051234" xlink:title="GO:0051234">
<ellipse fill="#dddddd" stroke="#dddddd" cx="127" cy="-306" rx="61.1934" ry="18"/>
<text text-anchor="middle" x="127" y="-301.8" font-family="Times,serif" font-size="14.00">GO:0051234</text>
</a>
</g>
<!-- m0&#45;&gt;l0 -->
<g id="edge26" class="edge"><title>m0&#45;&gt;l0</title>
<path fill="none" stroke="black" d="M236.708,-361.465C215.836,-351.103 188.243,-337.404 165.951,-326.337"/>
<polygon fill="black" stroke="black" points="167.27,-323.085 156.757,-321.773 164.158,-329.355 167.27,-323.085"/>
</g>
<!-- c1 -->
<g id="node21" class="node"><title>c1</title>
<a xlink:href="0006928" xlink:title="GO:0006928 (1)">
<ellipse fill="#e98576" stroke="#e98576" cx="243" cy="-234" rx="75.2018" ry="18"/>
<text text-anchor="middle" x="243" y="-229.8" font-family="Times,serif" font-size="14.00">GO:0006928 (1)</text>
</a>
</g>
<!-- d1&#45;&gt;c1 -->
<g id="edge18" class="edge"><title>d1&#45;&gt;c1</title>
<path fill="none" stroke="black" d="M261.948,-288.055C259.134,-280.176 255.72,-270.617 252.569,-261.794"/>
<polygon fill="black" stroke="black" points="255.829,-260.516 249.17,-252.275 249.237,-262.87 255.829,-260.516"/>
</g>
<!-- q0 -->
<g id="node4" class="node"><title>q0</title>
<a xlink:href="0006139" xlink:title="GO:0006139">
<ellipse fill="#dddddd" stroke="#dddddd" cx="2011" cy="-234" rx="61.1934" ry="18"/>
<text text-anchor="middle" x="2011" y="-229.8" font-family="Times,serif" font-size="14.00">GO:0006139</text>
</a>
</g>
<!-- s1 -->
<g id="node6" class="node"><title>s1</title>
<a xlink:href="0016070" xlink:title="GO:0016070">
<ellipse fill="#dddddd" stroke="#dddddd" cx="2152" cy="-162" rx="61.1934" ry="18"/>
<text text-anchor="middle" x="2152" y="-157.8" font-family="Times,serif" font-size="14.00">GO:0016070</text>
</a>
</g>
<!-- q0&#45;&gt;s1 -->
<g id="edge4" class="edge"><title>q0&#45;&gt;s1</title>
<path fill="none" stroke="black" d="M2040.9,-218.155C2061.93,-207.714 2090.28,-193.644 2113.07,-182.328"/>
<polygon fill="black" stroke="black" points="2114.74,-185.405 2122.14,-177.824 2111.63,-179.136 2114.74,-185.405"/>
</g>
<!-- q1 -->
<g id="node58" class="node"><title>q1</title>
<a xlink:href="0006350" xlink:title="GO:0006350">
<ellipse fill="#dddddd" stroke="#dddddd" cx="2024" cy="-90" rx="61.1934" ry="18"/>
<text text-anchor="middle" x="2024" y="-85.8" font-family="Times,serif" font-size="14.00">GO:0006350</text>
</a>
</g>
<!-- q0&#45;&gt;q1 -->
<g id="edge54" class="edge"><title>q0&#45;&gt;q1</title>
<path fill="none" stroke="black" d="M2019.31,-215.788C2023.74,-205.634 2028.74,-192.384 2031,-180 2034.73,-159.544 2032.63,-136.087 2029.78,-118.391"/>
<polygon fill="black" stroke="black" points="2033.17,-117.423 2027.96,-108.195 2026.28,-118.655 2033.17,-117.423"/>
</g>
<!-- p0 -->
<g id="node102" class="node"><title>p0</title>
<a xlink:href="0009117" xlink:title="GO:0009117 (2)">
<ellipse fill="#e98576" stroke="#e98576" cx="1947" cy="-162" rx="75.2018" ry="18"/>
<text text-anchor="middle" x="1947" y="-157.8" font-family="Times,serif" font-size="14.00">GO:0009117 (2)</text>
</a>
</g>
<!-- q0&#45;&gt;p0 -->
<g id="edge112" class="edge"><title>q0&#45;&gt;p0</title>
<path fill="none" stroke="black" d="M1995.83,-216.411C1987.9,-207.734 1978.04,-196.946 1969.26,-187.342"/>
<polygon fill="black" stroke="black" points="1971.83,-184.975 1962.5,-179.956 1966.67,-189.698 1971.83,-184.975"/>
</g>
<!-- t0 -->
<g id="node108" class="node"><title>t0</title>
<a xlink:href="0009116" xlink:title="GO:0009116 (2)">
<ellipse fill="#e98576" stroke="#e98576" cx="1779" cy="-162" rx="75.2018" ry="18"/>
<text text-anchor="middle" x="1779" y="-157.8" font-family="Times,serif" font-size="14.00">GO:0009116 (2)</text>
</a>
</g>
<!-- q0&#45;&gt;t0 -->
<g id="edge122" class="edge"><title>q0&#45;&gt;t0</title>
<path fill="none" stroke="black" d="M1969.79,-220.566C1931.82,-209.109 1875.21,-192.028 1833.51,-179.446"/>
<polygon fill="black" stroke="black" points="1834.37,-176.05 1823.78,-176.512 1832.35,-182.752 1834.37,-176.05"/>
</g>
<!-- r1 -->
<g id="node93" class="node"><title>r1</title>
<a xlink:href="0032774" xlink:title="GO:0032774">
<ellipse fill="#dddddd" stroke="#dddddd" cx="2165" cy="-90" rx="61.1934" ry="18"/>
<text text-anchor="middle" x="2165" y="-85.8" font-family="Times,serif" font-size="14.00">GO:0032774</text>
</a>
</g>
<!-- s1&#45;&gt;r1 -->
<g id="edge110" class="edge"><title>s1&#45;&gt;r1</title>
<path fill="none" stroke="black" d="M2155.21,-143.697C2156.65,-135.983 2158.37,-126.712 2159.96,-118.112"/>
<polygon fill="black" stroke="black" points="2163.44,-118.575 2161.82,-108.104 2156.56,-117.297 2163.44,-118.575"/>
</g>
<!-- t1 -->
<g id="node7" class="node"><title>t1</title>
<a xlink:href="0043283" xlink:title="GO:0043283">
<ellipse fill="#dddddd" stroke="#dddddd" cx="2152" cy="-234" rx="61.1934" ry="18"/>
<text text-anchor="middle" x="2152" y="-229.8" font-family="Times,serif" font-size="14.00">GO:0043283</text>
</a>
</g>
<!-- t1&#45;&gt;s1 -->
<g id="edge6" class="edge"><title>t1&#45;&gt;s1</title>
<path fill="none" stroke="black" d="M2152,-215.697C2152,-207.983 2152,-198.712 2152,-190.112"/>
<polygon fill="black" stroke="black" points="2155.5,-190.104 2152,-180.104 2148.5,-190.104 2155.5,-190.104"/>
</g>
<!-- i0 -->
<g id="node9" class="node"><title>i0</title>
<a xlink:href="0044237" xlink:title="GO:0044237">
<ellipse fill="#dddddd" stroke="#dddddd" cx="1560" cy="-306" rx="61.1934" ry="18"/>
<text text-anchor="middle" x="1560" y="-301.8" font-family="Times,serif" font-size="14.00">GO:0044237</text>
</a>
</g>
<!-- i0&#45;&gt;q0 -->
<g id="edge102" class="edge"><title>i0&#45;&gt;q0</title>
<path fill="none" stroke="black" d="M1604.52,-293.484C1613.26,-291.466 1622.39,-289.527 1631,-288 1767.14,-263.86 1803.86,-276.14 1940,-252 1945.38,-251.046 1950.97,-249.93 1956.53,-248.736"/>
<polygon fill="black" stroke="black" points="1957.48,-252.11 1966.48,-246.516 1955.96,-245.278 1957.48,-252.11"/>
</g>
<!-- j1 -->
<g id="node11" class="node"><title>j1</title>
<a xlink:href="0006082" xlink:title="GO:0006082">
<ellipse fill="#dddddd" stroke="#dddddd" cx="1250" cy="-234" rx="61.1934" ry="18"/>
<text text-anchor="middle" x="1250" y="-229.8" font-family="Times,serif" font-size="14.00">GO:0006082</text>
</a>
</g>
<!-- i0&#45;&gt;j1 -->
<g id="edge8" class="edge"><title>i0&#45;&gt;j1</title>
<path fill="none" stroke="black" d="M1512.33,-294.676C1464.06,-284.162 1387.26,-267.279 1321,-252 1316.03,-250.855 1310.87,-249.65 1305.71,-248.432"/>
<polygon fill="black" stroke="black" points="1306.34,-244.986 1295.81,-246.087 1304.73,-251.797 1306.34,-244.986"/>
</g>
<!-- g1 -->
<g id="node12" class="node"><title>g1</title>
<a xlink:href="0006519" xlink:title="GO:0006519">
<ellipse fill="#dddddd" stroke="#dddddd" cx="1870" cy="-234" rx="61.1934" ry="18"/>
<text text-anchor="middle" x="1870" y="-229.8" font-family="Times,serif" font-size="14.00">GO:0006519</text>
</a>
</g>
<!-- i0&#45;&gt;g1 -->
<g id="edge34" class="edge"><title>i0&#45;&gt;g1</title>
<path fill="none" stroke="black" d="M1605.79,-293.865C1614.17,-291.877 1622.84,-289.85 1631,-288 1705.47,-271.108 1724.53,-268.892 1799,-252 1803.97,-250.872 1809.13,-249.679 1814.3,-248.47"/>
<polygon fill="black" stroke="black" points="1815.28,-251.836 1824.21,-246.135 1813.67,-245.023 1815.28,-251.836"/>
</g>
<!-- h1 -->
<g id="node15" class="node"><title>h1</title>
<a xlink:href="0009308" xlink:title="GO:0009308">
<ellipse fill="#dddddd" stroke="#dddddd" cx="1560" cy="-234" rx="61.1934" ry="18"/>
<text text-anchor="middle" x="1560" y="-229.8" font-family="Times,serif" font-size="14.00">GO:0009308</text>
</a>
</g>
<!-- i0&#45;&gt;h1 -->
<g id="edge74" class="edge"><title>i0&#45;&gt;h1</title>
<path fill="none" stroke="black" d="M1560,-287.697C1560,-279.983 1560,-270.712 1560,-262.112"/>
<polygon fill="black" stroke="black" points="1563.5,-262.104 1560,-252.104 1556.5,-262.104 1563.5,-262.104"/>
</g>
<!-- h0 -->
<g id="node36" class="node"><title>h0</title>
<a xlink:href="0044260" xlink:title="GO:0044260">
<ellipse fill="#dddddd" stroke="#dddddd" cx="2293" cy="-234" rx="61.1934" ry="18"/>
<text text-anchor="middle" x="2293" y="-229.8" font-family="Times,serif" font-size="14.00">GO:0044260</text>
</a>
</g>
<!-- i0&#45;&gt;h0 -->
<g id="edge32" class="edge"><title>i0&#45;&gt;h0</title>
<path fill="none" stroke="black" d="M1603.7,-293.276C1612.67,-291.225 1622.1,-289.326 1631,-288 1891.28,-249.215 1961.72,-290.785 2222,-252 2227.7,-251.15 2233.62,-250.066 2239.5,-248.857"/>
<polygon fill="black" stroke="black" points="2240.27,-252.27 2249.3,-246.724 2238.78,-245.43 2240.27,-252.27"/>
</g>
<!-- z0 -->
<g id="node46" class="node"><title>z0</title>
<a xlink:href="0051186" xlink:title="GO:0051186 (1)">
<ellipse fill="#e98576" stroke="#e98576" cx="1405" cy="-234" rx="75.2018" ry="18"/>
<text text-anchor="middle" x="1405" y="-229.8" font-family="Times,serif" font-size="14.00">GO:0051186 (1)</text>
</a>
</g>
<!-- i0&#45;&gt;z0 -->
<g id="edge42" class="edge"><title>i0&#45;&gt;z0</title>
<path fill="none" stroke="black" d="M1527.88,-290.496C1504.77,-280.056 1473.33,-265.86 1448.04,-254.439"/>
<polygon fill="black" stroke="black" points="1449.24,-251.138 1438.68,-250.212 1446.36,-257.518 1449.24,-251.138"/>
</g>
<!-- n0 -->
<g id="node48" class="node"><title>n0</title>
<a xlink:href="0006793" xlink:title="GO:0006793 (2)">
<ellipse fill="#e98576" stroke="#e98576" cx="927" cy="-234" rx="75.2018" ry="18"/>
<text text-anchor="middle" x="927" y="-229.8" font-family="Times,serif" font-size="14.00">GO:0006793 (2)</text>
</a>
</g>
<!-- i0&#45;&gt;n0 -->
<g id="edge44" class="edge"><title>i0&#45;&gt;n0</title>
<path fill="none" stroke="black" d="M1500.85,-301.305C1399.97,-294.553 1188.34,-278.433 1011,-252 1004.38,-251.013 997.483,-249.847 990.622,-248.596"/>
<polygon fill="black" stroke="black" points="991.103,-245.125 980.628,-246.713 989.807,-252.004 991.103,-245.125"/>
</g>
<!-- u0 -->
<g id="node60" class="node"><title>u0</title>
<a xlink:href="0043603" xlink:title="GO:0043603 (1)">
<ellipse fill="#e98576" stroke="#e98576" cx="1715" cy="-234" rx="75.2018" ry="18"/>
<text text-anchor="middle" x="1715" y="-229.8" font-family="Times,serif" font-size="14.00">GO:0043603 (1)</text>
</a>
</g>
<!-- i0&#45;&gt;u0 -->
<g id="edge58" class="edge"><title>i0&#45;&gt;u0</title>
<path fill="none" stroke="black" d="M1592.12,-290.496C1615.23,-280.056 1646.67,-265.86 1671.96,-254.439"/>
<polygon fill="black" stroke="black" points="1673.64,-257.518 1681.32,-250.212 1670.76,-251.138 1673.64,-257.518"/>
</g>
<!-- b1 -->
<g id="node71" class="node"><title>b1</title>
<a xlink:href="0006766" xlink:title="GO:0006766 (1)">
<ellipse fill="#e98576" stroke="#e98576" cx="1095" cy="-234" rx="75.2018" ry="18"/>
<text text-anchor="middle" x="1095" y="-229.8" font-family="Times,serif" font-size="14.00">GO:0006766 (1)</text>
</a>
</g>
<!-- i0&#45;&gt;b1 -->
<g id="edge70" class="edge"><title>i0&#45;&gt;b1</title>
<path fill="none" stroke="black" d="M1504.46,-298.293C1430.3,-289.101 1294.93,-271.49 1180,-252 1173.42,-250.884 1166.57,-249.645 1159.74,-248.358"/>
<polygon fill="black" stroke="black" points="1160.26,-244.895 1149.78,-246.448 1158.94,-251.769 1160.26,-244.895"/>
</g>
<!-- i1 -->
<g id="node17" class="node"><title>i1</title>
<a xlink:href="0019752" xlink:title="GO:0019752">
<ellipse fill="#dddddd" stroke="#dddddd" cx="1361" cy="-162" rx="61.1934" ry="18"/>
<text text-anchor="middle" x="1361" y="-157.8" font-family="Times,serif" font-size="14.00">GO:0019752</text>
</a>
</g>
<!-- j1&#45;&gt;i1 -->
<g id="edge106" class="edge"><title>j1&#45;&gt;i1</title>
<path fill="none" stroke="black" d="M1274.63,-217.465C1290.3,-207.586 1310.77,-194.675 1327.85,-183.903"/>
<polygon fill="black" stroke="black" points="1329.84,-186.787 1336.43,-178.492 1326.11,-180.866 1329.84,-186.787"/>
</g>
<!-- f1 -->
<g id="node14" class="node"><title>f1</title>
<a xlink:href="0006520" xlink:title="GO:0006520 (1)">
<ellipse fill="#e98576" stroke="#e98576" cx="1560" cy="-90" rx="75.2018" ry="18"/>
<text text-anchor="middle" x="1560" y="-85.8" font-family="Times,serif" font-size="14.00">GO:0006520 (1)</text>
</a>
</g>
<!-- g1&#45;&gt;f1 -->
<g id="edge10" class="edge"><title>g1&#45;&gt;f1</title>
<path fill="none" stroke="black" d="M1826.36,-221.337C1782.57,-209.354 1718.35,-190.95 1695,-180 1656.01,-161.718 1615.27,-133.389 1588.88,-113.619"/>
<polygon fill="black" stroke="black" points="1590.93,-110.774 1580.84,-107.524 1586.7,-116.353 1590.93,-110.774"/>
</g>
<!-- h1&#45;&gt;f1 -->
<g id="edge12" class="edge"><title>h1&#45;&gt;f1</title>
<path fill="none" stroke="black" d="M1560,-215.871C1560,-191.67 1560,-147.211 1560,-118.393"/>
<polygon fill="black" stroke="black" points="1563.5,-118.189 1560,-108.189 1556.5,-118.189 1563.5,-118.189"/>
</g>
<!-- i1&#45;&gt;f1 -->
<g id="edge14" class="edge"><title>i1&#45;&gt;f1</title>
<path fill="none" stroke="black" d="M1398.9,-147.669C1430.31,-136.621 1475.21,-120.824 1509.64,-108.714"/>
<polygon fill="black" stroke="black" points="1511.23,-111.864 1519.51,-105.244 1508.91,-105.261 1511.23,-111.864"/>
</g>
<!-- j0 -->
<g id="node19" class="node"><title>j0</title>
<a xlink:href="0009987" xlink:title="GO:0009987">
<ellipse fill="#dddddd" stroke="#dddddd" cx="656" cy="-378" rx="61.1934" ry="18"/>
<text text-anchor="middle" x="656" y="-373.8" font-family="Times,serif" font-size="14.00">GO:0009987</text>
</a>
</g>
<!-- j0&#45;&gt;i0 -->
<g id="edge90" class="edge"><title>j0&#45;&gt;i0</title>
<path fill="none" stroke="black" d="M710.115,-369.477C734.755,-366.234 764.314,-362.598 791,-360 1048.03,-334.98 1354.52,-317.565 1489.85,-310.506"/>
<polygon fill="black" stroke="black" points="1490.27,-313.989 1500.08,-309.976 1489.91,-306.998 1490.27,-313.989"/>
</g>
<!-- j0&#45;&gt;c1 -->
<g id="edge16" class="edge"><title>j0&#45;&gt;c1</title>
<path fill="none" stroke="black" d="M617.886,-363.896C543.165,-338.204 377.43,-281.22 293.621,-252.405"/>
<polygon fill="black" stroke="black" points="294.657,-249.06 284.062,-249.118 292.381,-255.68 294.657,-249.06"/>
</g>
<!-- y0 -->
<g id="node54" class="node"><title>y0</title>
<a xlink:href="0016043" xlink:title="GO:0016043">
<ellipse fill="#dddddd" stroke="#dddddd" cx="593" cy="-306" rx="61.1934" ry="18"/>
<text text-anchor="middle" x="593" y="-301.8" font-family="Times,serif" font-size="14.00">GO:0016043</text>
</a>
</g>
<!-- j0&#45;&gt;y0 -->
<g id="edge114" class="edge"><title>j0&#45;&gt;y0</title>
<path fill="none" stroke="black" d="M641.07,-360.411C633.146,-351.606 623.265,-340.628 614.527,-330.919"/>
<polygon fill="black" stroke="black" points="617.114,-328.562 607.823,-323.47 611.911,-333.244 617.114,-328.562"/>
</g>
<!-- e0 -->
<g id="node23" class="node"><title>e0</title>
<a xlink:href="0008152" xlink:title="GO:0008152 (2)">
<ellipse fill="#e98576" stroke="#e98576" cx="1715" cy="-378" rx="75.2018" ry="18"/>
<text text-anchor="middle" x="1715" y="-373.8" font-family="Times,serif" font-size="14.00">GO:0008152 (2)</text>
</a>
</g>
<!-- e0&#45;&gt;i0 -->
<g id="edge88" class="edge"><title>e0&#45;&gt;i0</title>
<path fill="none" stroke="black" d="M1681.37,-361.811C1657.84,-351.186 1626.27,-336.929 1601.23,-325.618"/>
<polygon fill="black" stroke="black" points="1602.53,-322.368 1591.98,-321.442 1599.65,-328.747 1602.53,-322.368"/>
</g>
<!-- v0 -->
<g id="node25" class="node"><title>v0</title>
<a xlink:href="0006807" xlink:title="GO:0006807 (1)">
<ellipse fill="#e98576" stroke="#e98576" cx="1715" cy="-306" rx="75.2018" ry="18"/>
<text text-anchor="middle" x="1715" y="-301.8" font-family="Times,serif" font-size="14.00">GO:0006807 (1)</text>
</a>
</g>
<!-- e0&#45;&gt;v0 -->
<g id="edge20" class="edge"><title>e0&#45;&gt;v0</title>
<path fill="none" stroke="black" d="M1715,-359.697C1715,-351.983 1715,-342.712 1715,-334.112"/>
<polygon fill="black" stroke="black" points="1718.5,-334.104 1715,-324.104 1711.5,-334.104 1718.5,-334.104"/>
</g>
<!-- d0 -->
<g id="node34" class="node"><title>d0</title>
<a xlink:href="0043170" xlink:title="GO:0043170">
<ellipse fill="#dddddd" stroke="#dddddd" cx="2152" cy="-306" rx="61.1934" ry="18"/>
<text text-anchor="middle" x="2152" y="-301.8" font-family="Times,serif" font-size="14.00">GO:0043170</text>
</a>
</g>
<!-- e0&#45;&gt;d0 -->
<g id="edge116" class="edge"><title>e0&#45;&gt;d0</title>
<path fill="none" stroke="black" d="M1769.6,-365.533C1779.37,-363.599 1789.48,-361.678 1799,-360 1899.35,-342.325 2016.4,-325.492 2087.32,-315.71"/>
<polygon fill="black" stroke="black" points="2088.01,-319.148 2097.44,-314.319 2087.05,-312.213 2088.01,-319.148"/>
</g>
<!-- g0 -->
<g id="node39" class="node"><title>g0</title>
<a xlink:href="0044238" xlink:title="GO:0044238">
<ellipse fill="#dddddd" stroke="#dddddd" cx="1940" cy="-306" rx="61.1934" ry="18"/>
<text text-anchor="middle" x="1940" y="-301.8" font-family="Times,serif" font-size="14.00">GO:0044238</text>
</a>
</g>
<!-- e0&#45;&gt;g0 -->
<g id="edge128" class="edge"><title>e0&#45;&gt;g0</title>
<path fill="none" stroke="black" d="M1758.92,-363.337C1796.53,-351.636 1850.67,-334.791 1889.95,-322.571"/>
<polygon fill="black" stroke="black" points="1891.09,-325.883 1899.6,-319.57 1889.01,-319.199 1891.09,-325.883"/>
</g>
<!-- v1 -->
<g id="node63" class="node"><title>v1</title>
<a xlink:href="0009058" xlink:title="GO:0009058">
<ellipse fill="#dddddd" stroke="#dddddd" cx="2293" cy="-306" rx="61.1934" ry="18"/>
<text text-anchor="middle" x="2293" y="-301.8" font-family="Times,serif" font-size="14.00">GO:0009058</text>
</a>
</g>
<!-- e0&#45;&gt;v1 -->
<g id="edge60" class="edge"><title>e0&#45;&gt;v1</title>
<path fill="none" stroke="black" d="M1768.16,-365.283C1778.36,-363.307 1788.98,-361.435 1799,-360 1985.77,-333.243 2035.73,-354.052 2222,-324 2227.47,-323.117 2233.15,-322.039 2238.8,-320.859"/>
<polygon fill="black" stroke="black" points="2239.88,-324.206 2248.89,-318.644 2238.38,-317.369 2239.88,-324.206"/>
</g>
<!-- v0&#45;&gt;h1 -->
<g id="edge72" class="edge"><title>v0&#45;&gt;h1</title>
<path fill="none" stroke="black" d="M1681.37,-289.811C1657.84,-279.186 1626.27,-264.929 1601.23,-253.618"/>
<polygon fill="black" stroke="black" points="1602.53,-250.368 1591.98,-249.442 1599.65,-256.747 1602.53,-250.368"/>
</g>
<!-- v0&#45;&gt;u0 -->
<g id="edge56" class="edge"><title>v0&#45;&gt;u0</title>
<path fill="none" stroke="black" d="M1715,-287.697C1715,-279.983 1715,-270.712 1715,-262.112"/>
<polygon fill="black" stroke="black" points="1718.5,-262.104 1715,-252.104 1711.5,-262.104 1718.5,-262.104"/>
</g>
<!-- f0 -->
<g id="node26" class="node"><title>f0</title>
<a xlink:href="0008150" xlink:title="GO:0008150">
<ellipse fill="#dddddd" stroke="#dddddd" cx="1288" cy="-450" rx="61.1934" ry="18"/>
<text text-anchor="middle" x="1288" y="-445.8" font-family="Times,serif" font-size="14.00">GO:0008150</text>
</a>
</g>
<!-- f0&#45;&gt;m0 -->
<g id="edge82" class="edge"><title>f0&#45;&gt;m0</title>
<path fill="none" stroke="black" d="M1229.12,-444.96C1055.97,-433.076 548.1,-398.223 349.207,-384.573"/>
<polygon fill="black" stroke="black" points="349.333,-381.074 339.116,-383.881 348.853,-388.057 349.333,-381.074"/>
</g>
<!-- f0&#45;&gt;j0 -->
<g id="edge108" class="edge"><title>f0&#45;&gt;j0</title>
<path fill="none" stroke="black" d="M1230.94,-443.272C1138.49,-433.91 950.242,-414.515 791,-396 768.108,-393.338 743.058,-390.236 720.82,-387.416"/>
<polygon fill="black" stroke="black" points="721.179,-383.934 710.817,-386.143 720.295,-390.878 721.179,-383.934"/>
</g>
<!-- f0&#45;&gt;e0 -->
<g id="edge22" class="edge"><title>f0&#45;&gt;e0</title>
<path fill="none" stroke="black" d="M1332.94,-437.614C1341.56,-435.608 1350.54,-433.64 1359,-432 1455.38,-413.324 1567.55,-397.609 1639.82,-388.255"/>
<polygon fill="black" stroke="black" points="1640.28,-391.726 1649.75,-386.978 1639.38,-384.783 1640.28,-391.726"/>
</g>
<!-- f0&#45;&gt;l0 -->
<g id="edge24" class="edge"><title>f0&#45;&gt;l0</title>
<path fill="none" stroke="black" d="M1226.73,-449.31C1008.07,-449.975 274.309,-448.257 184,-396 160.281,-382.275 144.838,-354.274 136.086,-333.324"/>
<polygon fill="black" stroke="black" points="139.334,-332.019 132.426,-323.986 132.817,-334.574 139.334,-332.019"/>
</g>
<!-- s0 -->
<g id="node42" class="node"><title>s0</title>
<a xlink:href="0065007" xlink:title="GO:0065007">
<ellipse fill="#dddddd" stroke="#dddddd" cx="2243" cy="-378" rx="61.1934" ry="18"/>
<text text-anchor="middle" x="2243" y="-373.8" font-family="Times,serif" font-size="14.00">GO:0065007</text>
</a>
</g>
<!-- f0&#45;&gt;s0 -->
<g id="edge84" class="edge"><title>f0&#45;&gt;s0</title>
<path fill="none" stroke="black" d="M1331.7,-437.264C1340.67,-435.214 1350.1,-433.319 1359,-432 1626.77,-392.33 1696.8,-412.321 1967,-396 2037.38,-391.749 2117.84,-386.781 2173.65,-383.317"/>
<polygon fill="black" stroke="black" points="2174.02,-386.801 2183.78,-382.688 2173.58,-379.815 2174.02,-386.801"/>
</g>
<!-- w1 -->
<g id="node50" class="node"><title>w1</title>
<a xlink:href="0040011" xlink:title="GO:0040011 (1)">
<ellipse fill="#e98576" stroke="#e98576" cx="1883" cy="-378" rx="75.2018" ry="18"/>
<text text-anchor="middle" x="1883" y="-373.8" font-family="Times,serif" font-size="14.00">GO:0040011 (1)</text>
</a>
</g>
<!-- f0&#45;&gt;w1 -->
<g id="edge46" class="edge"><title>f0&#45;&gt;w1</title>
<path fill="none" stroke="black" d="M1332.1,-437.333C1340.96,-435.304 1350.24,-433.399 1359,-432 1552.75,-401.065 1604.73,-423.508 1799,-396 1805.73,-395.047 1812.73,-393.893 1819.7,-392.639"/>
<polygon fill="black" stroke="black" points="1820.65,-396.022 1829.84,-390.744 1819.37,-389.141 1820.65,-396.022"/>
</g>
<!-- m1 -->
<g id="node76" class="node"><title>m1</title>
<a xlink:href="0032502" xlink:title="GO:0032502">
<ellipse fill="#dddddd" stroke="#dddddd" cx="861" cy="-378" rx="61.1934" ry="18"/>
<text text-anchor="middle" x="861" y="-373.8" font-family="Times,serif" font-size="14.00">GO:0032502</text>
</a>
</g>
<!-- f0&#45;&gt;m1 -->
<g id="edge124" class="edge"><title>f0&#45;&gt;m1</title>
<path fill="none" stroke="black" d="M1235.64,-440.417C1156.68,-427.471 1007.4,-403 923.071,-389.176"/>
<polygon fill="black" stroke="black" points="923.553,-385.708 913.118,-387.544 922.42,-392.616 923.553,-385.708"/>
</g>
<!-- a1 -->
<g id="node83" class="node"><title>a1</title>
<a xlink:href="0050896" xlink:title="GO:0050896 (1)">
<ellipse fill="#e98576" stroke="#e98576" cx="2398" cy="-378" rx="75.2018" ry="18"/>
<text text-anchor="middle" x="2398" y="-373.8" font-family="Times,serif" font-size="14.00">GO:0050896 (1)</text>
</a>
</g>
<!-- f0&#45;&gt;a1 -->
<g id="edge86" class="edge"><title>f0&#45;&gt;a1</title>
<path fill="none" stroke="black" d="M1331.3,-437.2C1340.39,-435.128 1349.96,-433.241 1359,-432 1779.36,-374.319 1891.63,-445.765 2313,-396 2320.19,-395.151 2327.68,-394.02 2335.11,-392.743"/>
<polygon fill="black" stroke="black" points="2335.94,-396.15 2345.16,-390.925 2334.69,-389.262 2335.94,-396.15"/>
</g>
<!-- k0 -->
<g id="node31" class="node"><title>k0</title>
<a xlink:href="0006810" xlink:title="GO:0006810 (2)">
<ellipse fill="#e98576" stroke="#e98576" cx="75" cy="-234" rx="75.2018" ry="18"/>
<text text-anchor="middle" x="75" y="-229.8" font-family="Times,serif" font-size="14.00">GO:0006810 (2)</text>
</a>
</g>
<!-- l0&#45;&gt;k0 -->
<g id="edge52" class="edge"><title>l0&#45;&gt;k0</title>
<path fill="none" stroke="black" d="M114.412,-288.055C108.153,-279.629 100.465,-269.28 93.5464,-259.966"/>
<polygon fill="black" stroke="black" points="96.2447,-257.729 87.4718,-251.789 90.6255,-261.904 96.2447,-257.729"/>
</g>
<!-- o0 -->
<g id="node33" class="node"><title>o0</title>
<a xlink:href="0008643" xlink:title="GO:0008643 (2)">
<ellipse fill="#e98576" stroke="#e98576" cx="75" cy="-162" rx="75.2018" ry="18"/>
<text text-anchor="middle" x="75" y="-157.8" font-family="Times,serif" font-size="14.00">GO:0008643 (2)</text>
</a>
</g>
<!-- k0&#45;&gt;o0 -->
<g id="edge28" class="edge"><title>k0&#45;&gt;o0</title>
<path fill="none" stroke="black" d="M75,-215.697C75,-207.983 75,-198.712 75,-190.112"/>
<polygon fill="black" stroke="black" points="78.5001,-190.104 75,-180.104 71.5001,-190.104 78.5001,-190.104"/>
</g>
<!-- d0&#45;&gt;t1 -->
<g id="edge38" class="edge"><title>d0&#45;&gt;t1</title>
<path fill="none" stroke="black" d="M2152,-287.697C2152,-279.983 2152,-270.712 2152,-262.112"/>
<polygon fill="black" stroke="black" points="2155.5,-262.104 2152,-252.104 2148.5,-262.104 2155.5,-262.104"/>
</g>
<!-- d0&#45;&gt;h0 -->
<g id="edge30" class="edge"><title>d0&#45;&gt;h0</title>
<path fill="none" stroke="black" d="M2181.9,-290.155C2202.93,-279.714 2231.28,-265.644 2254.07,-254.328"/>
<polygon fill="black" stroke="black" points="2255.74,-257.405 2263.14,-249.824 2252.63,-251.136 2255.74,-257.405"/>
</g>
<!-- c0 -->
<g id="node65" class="node"><title>c0</title>
<a xlink:href="0019538" xlink:title="GO:0019538">
<ellipse fill="#dddddd" stroke="#dddddd" cx="2434" cy="-234" rx="61.1934" ry="18"/>
<text text-anchor="middle" x="2434" y="-229.8" font-family="Times,serif" font-size="14.00">GO:0019538</text>
</a>
</g>
<!-- d0&#45;&gt;c0 -->
<g id="edge62" class="edge"><title>d0&#45;&gt;c0</title>
<path fill="none" stroke="black" d="M2197.31,-293.753C2246.75,-281.481 2325.9,-261.833 2378.9,-248.678"/>
<polygon fill="black" stroke="black" points="2379.94,-252.025 2388.8,-246.219 2378.26,-245.231 2379.94,-252.025"/>
</g>
<!-- u1 -->
<g id="node68" class="node"><title>u1</title>
<a xlink:href="0009059" xlink:title="GO:0009059 (1)">
<ellipse fill="#e98576" stroke="#e98576" cx="2589" cy="-234" rx="75.2018" ry="18"/>
<text text-anchor="middle" x="2589" y="-229.8" font-family="Times,serif" font-size="14.00">GO:0009059 (1)</text>
</a>
</g>
<!-- d0&#45;&gt;u1 -->
<g id="edge68" class="edge"><title>d0&#45;&gt;u1</title>
<path fill="none" stroke="black" d="M2196.54,-293.562C2205.27,-291.538 2214.4,-289.576 2223,-288 2346.85,-265.308 2379.75,-272.359 2504,-252 2510.69,-250.905 2517.65,-249.669 2524.58,-248.376"/>
<polygon fill="black" stroke="black" points="2525.52,-251.76 2534.69,-246.45 2524.21,-244.884 2525.52,-251.76"/>
</g>
<!-- b0 -->
<g id="node86" class="node"><title>b0</title>
<a xlink:href="0044267" xlink:title="GO:0044267">
<ellipse fill="#dddddd" stroke="#dddddd" cx="2383" cy="-162" rx="61.1934" ry="18"/>
<text text-anchor="middle" x="2383" y="-157.8" font-family="Times,serif" font-size="14.00">GO:0044267</text>
</a>
</g>
<!-- h0&#45;&gt;b0 -->
<g id="edge120" class="edge"><title>h0&#45;&gt;b0</title>
<path fill="none" stroke="black" d="M2313.87,-216.765C2325.8,-207.488 2340.94,-195.714 2354.01,-185.551"/>
<polygon fill="black" stroke="black" points="2356.49,-188.049 2362.24,-179.147 2352.2,-182.524 2356.49,-188.049"/>
</g>
<!-- g0&#45;&gt;q0 -->
<g id="edge104" class="edge"><title>g0&#45;&gt;q0</title>
<path fill="none" stroke="black" d="M1956.83,-288.411C1965.85,-279.519 1977.11,-268.411 1987.03,-258.631"/>
<polygon fill="black" stroke="black" points="1989.63,-260.983 1994.29,-251.47 1984.72,-255.998 1989.63,-260.983"/>
</g>
<!-- g0&#45;&gt;g1 -->
<g id="edge36" class="edge"><title>g0&#45;&gt;g1</title>
<path fill="none" stroke="black" d="M1923.41,-288.411C1914.52,-279.519 1903.41,-268.411 1893.63,-258.631"/>
<polygon fill="black" stroke="black" points="1896.02,-256.066 1886.47,-251.47 1891.07,-261.016 1896.02,-256.066"/>
</g>
<!-- g0&#45;&gt;c0 -->
<g id="edge64" class="edge"><title>g0&#45;&gt;c0</title>
<path fill="none" stroke="black" d="M1995.79,-298.359C2102.39,-285.617 2327.64,-258.429 2363,-252 2368.38,-251.022 2373.96,-249.892 2379.52,-248.687"/>
<polygon fill="black" stroke="black" points="2380.48,-252.06 2389.47,-246.457 2378.94,-245.23 2380.48,-252.06"/>
</g>
<!-- r0 -->
<g id="node44" class="node"><title>r0</title>
<a xlink:href="0050789" xlink:title="GO:0050789 (2)">
<ellipse fill="#e98576" stroke="#e98576" cx="2616" cy="-306" rx="75.2018" ry="18"/>
<text text-anchor="middle" x="2616" y="-301.8" font-family="Times,serif" font-size="14.00">GO:0050789 (2)</text>
</a>
</g>
<!-- s0&#45;&gt;r0 -->
<g id="edge40" class="edge"><title>s0&#45;&gt;r0</title>
<path fill="none" stroke="black" d="M2287.96,-365.722C2296.58,-363.706 2305.55,-361.707 2314,-360 2410.26,-340.554 2435.41,-341.742 2532,-324 2538.24,-322.853 2544.74,-321.617 2551.23,-320.352"/>
<polygon fill="black" stroke="black" points="2552.25,-323.718 2561.38,-318.351 2550.89,-316.85 2552.25,-323.718"/>
</g>
<!-- e1 -->
<g id="node90" class="node"><title>e1</title>
<a xlink:href="0065008" xlink:title="GO:0065008 (1)">
<ellipse fill="#e98576" stroke="#e98576" cx="2448" cy="-306" rx="75.2018" ry="18"/>
<text text-anchor="middle" x="2448" y="-301.8" font-family="Times,serif" font-size="14.00">GO:0065008 (1)</text>
</a>
</g>
<!-- s0&#45;&gt;e1 -->
<g id="edge94" class="edge"><title>s0&#45;&gt;e1</title>
<path fill="none" stroke="black" d="M2281.56,-363.834C2314.21,-352.684 2361.28,-336.612 2397.04,-324.402"/>
<polygon fill="black" stroke="black" points="2398.47,-327.612 2406.8,-321.068 2396.21,-320.987 2398.47,-327.612"/>
</g>
<!-- l1 -->
<g id="node51" class="node"><title>l1</title>
<a xlink:href="0009653" xlink:title="GO:0009653">
<ellipse fill="#dddddd" stroke="#dddddd" cx="772" cy="-234" rx="61.1934" ry="18"/>
<text text-anchor="middle" x="772" y="-229.8" font-family="Times,serif" font-size="14.00">GO:0009653</text>
</a>
</g>
<!-- k1 -->
<g id="node53" class="node"><title>k1</title>
<a xlink:href="0032989" xlink:title="GO:0032989 (1)">
<ellipse fill="#e98576" stroke="#e98576" cx="643" cy="-162" rx="75.2018" ry="18"/>
<text text-anchor="middle" x="643" y="-157.8" font-family="Times,serif" font-size="14.00">GO:0032989 (1)</text>
</a>
</g>
<!-- l1&#45;&gt;k1 -->
<g id="edge48" class="edge"><title>l1&#45;&gt;k1</title>
<path fill="none" stroke="black" d="M744.009,-217.811C725.502,-207.769 701.016,-194.482 680.787,-183.505"/>
<polygon fill="black" stroke="black" points="682.288,-180.337 671.83,-178.644 678.95,-186.49 682.288,-180.337"/>
</g>
<!-- y0&#45;&gt;k1 -->
<g id="edge50" class="edge"><title>y0&#45;&gt;k1</title>
<path fill="none" stroke="black" d="M566.933,-289.567C554.153,-280.428 540.027,-267.584 533,-252 526.423,-237.414 524.489,-229.548 533,-216 543.949,-198.571 562.416,-186.739 581.124,-178.765"/>
<polygon fill="black" stroke="black" points="582.564,-181.96 590.591,-175.046 580.004,-175.445 582.564,-181.96"/>
</g>
<!-- o1 -->
<g id="node75" class="node"><title>o1</title>
<a xlink:href="0006996" xlink:title="GO:0006996 (1)">
<ellipse fill="#e98576" stroke="#e98576" cx="617" cy="-234" rx="75.2018" ry="18"/>
<text text-anchor="middle" x="617" y="-229.8" font-family="Times,serif" font-size="14.00">GO:0006996 (1)</text>
</a>
</g>
<!-- y0&#45;&gt;o1 -->
<g id="edge76" class="edge"><title>y0&#45;&gt;o1</title>
<path fill="none" stroke="black" d="M598.81,-288.055C601.511,-280.176 604.789,-270.617 607.813,-261.794"/>
<polygon fill="black" stroke="black" points="611.145,-262.87 611.077,-252.275 604.523,-260.6 611.145,-262.87"/>
</g>
<!-- x0 -->
<g id="node111" class="node"><title>x0</title>
<a xlink:href="0045229" xlink:title="GO:0045229 (1)">
<ellipse fill="#e98576" stroke="#e98576" cx="411" cy="-234" rx="75.2018" ry="18"/>
<text text-anchor="middle" x="411" y="-229.8" font-family="Times,serif" font-size="14.00">GO:0045229 (1)</text>
</a>
</g>
<!-- y0&#45;&gt;x0 -->
<g id="edge126" class="edge"><title>y0&#45;&gt;x0</title>
<path fill="none" stroke="black" d="M557.477,-291.337C529.286,-280.495 489.61,-265.235 458.66,-253.331"/>
<polygon fill="black" stroke="black" points="459.534,-249.917 448.944,-249.594 457.021,-256.45 459.534,-249.917"/>
</g>
<!-- p1 -->
<g id="node92" class="node"><title>p1</title>
<a xlink:href="0006351" xlink:title="GO:0006351 (1)">
<ellipse fill="#e98576" stroke="#e98576" cx="2094" cy="-18" rx="75.2018" ry="18"/>
<text text-anchor="middle" x="2094" y="-13.8" font-family="Times,serif" font-size="14.00">GO:0006351 (1)</text>
</a>
</g>
<!-- q1&#45;&gt;p1 -->
<g id="edge96" class="edge"><title>q1&#45;&gt;p1</title>
<path fill="none" stroke="black" d="M2040.59,-72.411C2049.35,-63.6479 2060.27,-52.7322 2069.94,-43.0569"/>
<polygon fill="black" stroke="black" points="2072.45,-45.5022 2077.04,-35.9562 2067.5,-40.5524 2072.45,-45.5022"/>
</g>
<!-- v1&#45;&gt;u1 -->
<g id="edge66" class="edge"><title>v1&#45;&gt;u1</title>
<path fill="none" stroke="black" d="M2338.83,-294.001C2347.2,-291.999 2355.86,-289.933 2364,-288 2419.18,-274.896 2482,-260.109 2527.21,-249.491"/>
<polygon fill="black" stroke="black" points="2528.22,-252.849 2537.15,-247.155 2526.62,-246.034 2528.22,-252.849"/>
</g>
<!-- c0&#45;&gt;b0 -->
<g id="edge118" class="edge"><title>c0&#45;&gt;b0</title>
<path fill="none" stroke="black" d="M2421.65,-216.055C2415.52,-207.629 2407.98,-197.28 2401.19,-187.966"/>
<polygon fill="black" stroke="black" points="2403.95,-185.81 2395.23,-179.789 2398.29,-189.932 2403.95,-185.81"/>
</g>
<!-- m1&#45;&gt;l1 -->
<g id="edge78" class="edge"><title>m1&#45;&gt;l1</title>
<path fill="none" stroke="black" d="M832.451,-361.979C817.885,-352.882 801.145,-339.949 791,-324 779.233,-305.501 774.64,-280.907 772.901,-262.261"/>
<polygon fill="black" stroke="black" points="776.376,-261.786 772.174,-252.06 769.394,-262.284 776.376,-261.786"/>
</g>
<!-- n1 -->
<g id="node78" class="node"><title>n1</title>
<a xlink:href="0048856" xlink:title="GO:0048856">
<ellipse fill="#dddddd" stroke="#dddddd" cx="861" cy="-306" rx="61.1934" ry="18"/>
<text text-anchor="middle" x="861" y="-301.8" font-family="Times,serif" font-size="14.00">GO:0048856</text>
</a>
</g>
<!-- m1&#45;&gt;n1 -->
<g id="edge100" class="edge"><title>m1&#45;&gt;n1</title>
<path fill="none" stroke="black" d="M861,-359.697C861,-351.983 861,-342.712 861,-334.112"/>
<polygon fill="black" stroke="black" points="864.5,-334.104 861,-324.104 857.5,-334.104 864.5,-334.104"/>
</g>
<!-- n1&#45;&gt;l1 -->
<g id="edge80" class="edge"><title>n1&#45;&gt;l1</title>
<path fill="none" stroke="black" d="M840.358,-288.765C828.563,-279.488 813.594,-267.714 800.672,-257.551"/>
<polygon fill="black" stroke="black" points="802.554,-254.578 792.53,-251.147 798.227,-260.081 802.554,-254.578"/>
</g>
<!-- a0 -->
<g id="node88" class="node"><title>a0</title>
<a xlink:href="0006508" xlink:title="GO:0006508 (2)">
<ellipse fill="#e98576" stroke="#e98576" cx="2383" cy="-90" rx="75.2018" ry="18"/>
<text text-anchor="middle" x="2383" y="-85.8" font-family="Times,serif" font-size="14.00">GO:0006508 (2)</text>
</a>
</g>
<!-- b0&#45;&gt;a0 -->
<g id="edge92" class="edge"><title>b0&#45;&gt;a0</title>
<path fill="none" stroke="black" d="M2383,-143.697C2383,-135.983 2383,-126.712 2383,-118.112"/>
<polygon fill="black" stroke="black" points="2386.5,-118.104 2383,-108.104 2379.5,-118.104 2386.5,-118.104"/>
</g>
<!-- r1&#45;&gt;p1 -->
<g id="edge98" class="edge"><title>r1&#45;&gt;p1</title>
<path fill="none" stroke="black" d="M2148.17,-72.411C2139.29,-63.6479 2128.21,-52.7322 2118.4,-43.0569"/>
<polygon fill="black" stroke="black" points="2120.78,-40.4846 2111.2,-35.9562 2115.86,-45.4694 2120.78,-40.4846"/>
</g>
<!-- w0 -->
<g id="node113" class="node"><title>w0</title>
<a xlink:href="0044085" xlink:title="GO:0044085 (1)">
<ellipse fill="#e98576" stroke="#e98576" cx="1443" cy="-450" rx="75.2018" ry="18"/>
<text text-anchor="middle" x="1443" y="-445.8" font-family="Times,serif" font-size="14.00">GO:0044085 (1)</text>
</a>
</g>
</g>
</svg>
