<?xml version="1.0" encoding="UTF-8" standalone="no"?>
<!DOCTYPE svg PUBLIC "-//W3C//DTD SVG 1.1//EN"
 "http://www.w3.org/Graphics/SVG/1.1/DTD/svg11.dtd">
<!-- Generated by graphviz version 2.28.0 (20110622.2320)
 -->
<!-- Title: G Pages: 1 -->
<svg width="2793pt" height="548pt"
 viewBox="0.00 0.00 2793.00 548.00" xmlns="http://www.w3.org/2000/svg" xmlns:xlink="http://www.w3.org/1999/xlink">
<g id="graph1" class="graph" transform="scale(1 1) rotate(0) translate(4 544)">
<title>G</title>
<polygon fill="white" stroke="white" points="-4,5 -4,-544 2790,-544 2790,5 -4,5"/>
<!-- m1 -->
<g id="node1" class="node"><title>m1</title>
<a xlink:href="0008361" xlink:title="GO:0008361">
<ellipse fill="#dddddd" stroke="#dddddd" cx="1427" cy="-90" rx="61.1934" ry="18"/>
<text text-anchor="middle" x="1427" y="-85.8" font-family="Times,serif" font-size="14.00">GO:0008361</text>
</a>
</g>
<!-- l1 -->
<g id="node3" class="node"><title>l1</title>
<a xlink:href="0016049" xlink:title="GO:0016049 (1)">
<ellipse fill="#e98576" stroke="#e98576" cx="1286" cy="-18" rx="75.2018" ry="18"/>
<text text-anchor="middle" x="1286" y="-13.8" font-family="Times,serif" font-size="14.00">GO:0016049 (1)</text>
</a>
</g>
<!-- m1&#45;&gt;l1 -->
<g id="edge2" class="edge"><title>m1&#45;&gt;l1</title>
<path fill="none" stroke="black" d="M1397.1,-74.1548C1376.49,-63.9257 1348.87,-50.2124 1326.32,-39.019"/>
<polygon fill="black" stroke="black" points="1327.84,-35.8634 1317.33,-34.5516 1324.73,-42.1333 1327.84,-35.8634"/>
</g>
<!-- f0 -->
<g id="node4" class="node"><title>f0</title>
<a xlink:href="0009987" xlink:title="GO:0009987">
<ellipse fill="#dddddd" stroke="#dddddd" cx="1010" cy="-450" rx="61.1934" ry="18"/>
<text text-anchor="middle" x="1010" y="-445.8" font-family="Times,serif" font-size="14.00">GO:0009987</text>
</a>
</g>
<!-- f0&#45;&gt;l1 -->
<g id="edge4" class="edge"><title>f0&#45;&gt;l1</title>
<path fill="none" stroke="black" d="M1068.91,-445.086C1105.36,-439.523 1150.33,-426.439 1178,-396 1205.21,-366.07 1197,-347.447 1197,-307 1197,-307 1197,-307 1197,-161 1197,-120.553 1194.29,-106.128 1216,-72 1223.97,-59.4769 1236,-48.813 1247.85,-40.4055"/>
<polygon fill="black" stroke="black" points="1250.03,-43.1602 1256.39,-34.6881 1246.13,-37.3437 1250.03,-43.1602"/>
</g>
<!-- n0 -->
<g id="node34" class="node"><title>n0</title>
<a xlink:href="0044237" xlink:title="GO:0044237">
<ellipse fill="#dddddd" stroke="#dddddd" cx="1465" cy="-378" rx="61.1934" ry="18"/>
<text text-anchor="middle" x="1465" y="-373.8" font-family="Times,serif" font-size="14.00">GO:0044237</text>
</a>
</g>
<!-- f0&#45;&gt;n0 -->
<g id="edge82" class="edge"><title>f0&#45;&gt;n0</title>
<path fill="none" stroke="black" d="M1066.56,-442.948C1141.71,-434.508 1278.43,-417.758 1394,-396 1399.37,-394.989 1404.95,-393.836 1410.51,-392.617"/>
<polygon fill="black" stroke="black" points="1411.47,-395.989 1420.45,-390.371 1409.93,-389.161 1411.47,-395.989"/>
</g>
<!-- i0 -->
<g id="node43" class="node"><title>i0</title>
<a xlink:href="0008283" xlink:title="GO:0008283 (3)">
<ellipse fill="#e98576" stroke="#e98576" cx="926" cy="-378" rx="75.2018" ry="18"/>
<text text-anchor="middle" x="926" y="-373.8" font-family="Times,serif" font-size="14.00">GO:0008283 (3)</text>
</a>
</g>
<!-- f0&#45;&gt;i0 -->
<g id="edge36" class="edge"><title>f0&#45;&gt;i0</title>
<path fill="none" stroke="black" d="M990.518,-432.765C979.57,-423.642 965.725,-412.105 953.67,-402.059"/>
<polygon fill="black" stroke="black" points="955.591,-399.103 945.668,-395.39 951.109,-404.48 955.591,-399.103"/>
</g>
<!-- k1 -->
<g id="node47" class="node"><title>k1</title>
<a xlink:href="0016043" xlink:title="GO:0016043 (1)">
<ellipse fill="#e98576" stroke="#e98576" cx="590" cy="-378" rx="75.2018" ry="18"/>
<text text-anchor="middle" x="590" y="-373.8" font-family="Times,serif" font-size="14.00">GO:0016043 (1)</text>
</a>
</g>
<!-- f0&#45;&gt;k1 -->
<g id="edge116" class="edge"><title>f0&#45;&gt;k1</title>
<path fill="none" stroke="black" d="M956.342,-441.267C889.916,-431.526 773.387,-413.887 674,-396 667.754,-394.876 661.257,-393.654 654.766,-392.399"/>
<polygon fill="black" stroke="black" points="655.095,-388.897 644.608,-390.408 653.748,-395.766 655.095,-388.897"/>
</g>
<!-- j0 -->
<g id="node65" class="node"><title>j0</title>
<a xlink:href="0001775" xlink:title="GO:0001775 (3)">
<ellipse fill="#e98576" stroke="#e98576" cx="1094" cy="-378" rx="75.2018" ry="18"/>
<text text-anchor="middle" x="1094" y="-373.8" font-family="Times,serif" font-size="14.00">GO:0001775 (3)</text>
</a>
</g>
<!-- f0&#45;&gt;j0 -->
<g id="edge58" class="edge"><title>f0&#45;&gt;j0</title>
<path fill="none" stroke="black" d="M1029.48,-432.765C1040.43,-423.642 1054.27,-412.105 1066.33,-402.059"/>
<polygon fill="black" stroke="black" points="1068.89,-404.48 1074.33,-395.39 1064.41,-399.103 1068.89,-404.48"/>
</g>
<!-- e0 -->
<g id="node106" class="node"><title>e0</title>
<a xlink:href="0007154" xlink:title="GO:0007154 (4)">
<ellipse fill="#e98576" stroke="#e98576" cx="758" cy="-378" rx="75.2018" ry="18"/>
<text text-anchor="middle" x="758" y="-373.8" font-family="Times,serif" font-size="14.00">GO:0007154 (4)</text>
</a>
</g>
<!-- f0&#45;&gt;e0 -->
<g id="edge114" class="edge"><title>f0&#45;&gt;e0</title>
<path fill="none" stroke="black" d="M966.966,-437.046C925.057,-425.405 861.105,-407.64 814.988,-394.83"/>
<polygon fill="black" stroke="black" points="815.713,-391.399 805.141,-392.095 813.839,-398.143 815.713,-391.399"/>
</g>
<!-- u0 -->
<g id="node109" class="node"><title>u0</title>
<a xlink:href="0007155" xlink:title="GO:0007155 (3)">
<ellipse fill="#e98576" stroke="#e98576" cx="422" cy="-378" rx="75.2018" ry="18"/>
<text text-anchor="middle" x="422" y="-373.8" font-family="Times,serif" font-size="14.00">GO:0007155 (3)</text>
</a>
</g>
<!-- f0&#45;&gt;u0 -->
<g id="edge118" class="edge"><title>f0&#45;&gt;u0</title>
<path fill="none" stroke="black" d="M951.181,-444.637C856.893,-437.234 666.233,-420.582 506,-396 499.38,-394.984 492.49,-393.8 485.631,-392.538"/>
<polygon fill="black" stroke="black" points="486.115,-389.068 475.638,-390.644 484.811,-395.945 486.115,-389.068"/>
</g>
<!-- r1 -->
<g id="node6" class="node"><title>r1</title>
<a xlink:href="0040007" xlink:title="GO:0040007">
<ellipse fill="#dddddd" stroke="#dddddd" cx="1286" cy="-90" rx="61.1934" ry="18"/>
<text text-anchor="middle" x="1286" y="-85.8" font-family="Times,serif" font-size="14.00">GO:0040007</text>
</a>
</g>
<!-- r1&#45;&gt;l1 -->
<g id="edge6" class="edge"><title>r1&#45;&gt;l1</title>
<path fill="none" stroke="black" d="M1286,-71.6966C1286,-63.9827 1286,-54.7125 1286,-46.1124"/>
<polygon fill="black" stroke="black" points="1289.5,-46.1043 1286,-36.1043 1282.5,-46.1044 1289.5,-46.1043"/>
</g>
<!-- m0 -->
<g id="node8" class="node"><title>m0</title>
<a xlink:href="0006139" xlink:title="GO:0006139">
<ellipse fill="#dddddd" stroke="#dddddd" cx="1813" cy="-306" rx="61.1934" ry="18"/>
<text text-anchor="middle" x="1813" y="-301.8" font-family="Times,serif" font-size="14.00">GO:0006139</text>
</a>
</g>
<!-- r0 -->
<g id="node10" class="node"><title>r0</title>
<a xlink:href="0016070" xlink:title="GO:0016070">
<ellipse fill="#dddddd" stroke="#dddddd" cx="1690" cy="-234" rx="61.1934" ry="18"/>
<text text-anchor="middle" x="1690" y="-229.8" font-family="Times,serif" font-size="14.00">GO:0016070</text>
</a>
</g>
<!-- m0&#45;&gt;r0 -->
<g id="edge8" class="edge"><title>m0&#45;&gt;r0</title>
<path fill="none" stroke="black" d="M1786.01,-289.638C1768.3,-279.563 1744.96,-266.277 1725.72,-255.329"/>
<polygon fill="black" stroke="black" points="1727.35,-252.23 1716.93,-250.326 1723.89,-258.314 1727.35,-252.23"/>
</g>
<!-- l0 -->
<g id="node59" class="node"><title>l0</title>
<a xlink:href="0006350" xlink:title="GO:0006350">
<ellipse fill="#dddddd" stroke="#dddddd" cx="1887" cy="-162" rx="61.1934" ry="18"/>
<text text-anchor="middle" x="1887" y="-157.8" font-family="Times,serif" font-size="14.00">GO:0006350</text>
</a>
</g>
<!-- m0&#45;&gt;l0 -->
<g id="edge52" class="edge"><title>m0&#45;&gt;l0</title>
<path fill="none" stroke="black" d="M1821.78,-288.153C1834.57,-263.6 1858.46,-217.773 1873.5,-188.908"/>
<polygon fill="black" stroke="black" points="1876.71,-190.311 1878.23,-179.825 1870.51,-187.076 1876.71,-190.311"/>
</g>
<!-- q0 -->
<g id="node92" class="node"><title>q0</title>
<a xlink:href="0032774" xlink:title="GO:0032774">
<ellipse fill="#dddddd" stroke="#dddddd" cx="1577" cy="-162" rx="61.1934" ry="18"/>
<text text-anchor="middle" x="1577" y="-157.8" font-family="Times,serif" font-size="14.00">GO:0032774</text>
</a>
</g>
<!-- r0&#45;&gt;q0 -->
<g id="edge112" class="edge"><title>r0&#45;&gt;q0</title>
<path fill="none" stroke="black" d="M1664.92,-217.465C1648.98,-207.586 1628.13,-194.675 1610.74,-183.903"/>
<polygon fill="black" stroke="black" points="1612.35,-180.783 1602.01,-178.492 1608.67,-186.733 1612.35,-180.783"/>
</g>
<!-- s0 -->
<g id="node11" class="node"><title>s0</title>
<a xlink:href="0043283" xlink:title="GO:0043283">
<ellipse fill="#dddddd" stroke="#dddddd" cx="1672" cy="-306" rx="61.1934" ry="18"/>
<text text-anchor="middle" x="1672" y="-301.8" font-family="Times,serif" font-size="14.00">GO:0043283</text>
</a>
</g>
<!-- s0&#45;&gt;r0 -->
<g id="edge10" class="edge"><title>s0&#45;&gt;r0</title>
<path fill="none" stroke="black" d="M1676.45,-287.697C1678.45,-279.898 1680.87,-270.509 1683.1,-261.829"/>
<polygon fill="black" stroke="black" points="1686.5,-262.661 1685.6,-252.104 1679.72,-260.918 1686.5,-262.661"/>
</g>
<!-- w1 -->
<g id="node30" class="node"><title>w1</title>
<a xlink:href="0043412" xlink:title="GO:0043412">
<ellipse fill="#dddddd" stroke="#dddddd" cx="1549" cy="-234" rx="61.1934" ry="18"/>
<text text-anchor="middle" x="1549" y="-229.8" font-family="Times,serif" font-size="14.00">GO:0043412</text>
</a>
</g>
<!-- s0&#45;&gt;w1 -->
<g id="edge24" class="edge"><title>s0&#45;&gt;w1</title>
<path fill="none" stroke="black" d="M1645.01,-289.638C1627.3,-279.563 1603.96,-266.277 1584.72,-255.329"/>
<polygon fill="black" stroke="black" points="1586.35,-252.23 1575.93,-250.326 1582.89,-258.314 1586.35,-252.23"/>
</g>
<!-- c0 -->
<g id="node13" class="node"><title>c0</title>
<a xlink:href="0008150" xlink:title="GO:0008150">
<ellipse fill="#dddddd" stroke="#dddddd" cx="1929" cy="-522" rx="61.1934" ry="18"/>
<text text-anchor="middle" x="1929" y="-517.8" font-family="Times,serif" font-size="14.00">GO:0008150</text>
</a>
</g>
<!-- c0&#45;&gt;f0 -->
<g id="edge110" class="edge"><title>c0&#45;&gt;f0</title>
<path fill="none" stroke="black" d="M1870.25,-516.715C1748.92,-507.842 1461.86,-486.718 1221,-468 1173.37,-464.299 1119.71,-459.973 1078.43,-456.612"/>
<polygon fill="black" stroke="black" points="1078.46,-453.103 1068.21,-455.779 1077.89,-460.08 1078.46,-453.103"/>
</g>
<!-- c0&#45;&gt;r1 -->
<g id="edge100" class="edge"><title>c0&#45;&gt;r1</title>
<path fill="none" stroke="black" d="M1867.72,-521.395C1698.12,-520.851 1235,-507.593 1235,-379 1235,-379 1235,-379 1235,-233 1235,-190.354 1255.63,-144.519 1270.64,-116.8"/>
<polygon fill="black" stroke="black" points="1273.86,-118.222 1275.68,-107.785 1267.75,-114.809 1273.86,-118.222"/>
</g>
<!-- o0 -->
<g id="node15" class="node"><title>o0</title>
<a xlink:href="0008152" xlink:title="GO:0008152 (1)">
<ellipse fill="#e98576" stroke="#e98576" cx="1536" cy="-450" rx="75.2018" ry="18"/>
<text text-anchor="middle" x="1536" y="-445.8" font-family="Times,serif" font-size="14.00">GO:0008152 (1)</text>
</a>
</g>
<!-- c0&#45;&gt;o0 -->
<g id="edge12" class="edge"><title>c0&#45;&gt;o0</title>
<path fill="none" stroke="black" d="M1878.03,-511.92C1808.16,-499.476 1682.45,-477.086 1604.45,-463.191"/>
<polygon fill="black" stroke="black" points="1604.7,-459.681 1594.24,-461.373 1603.47,-466.572 1604.7,-459.681"/>
</g>
<!-- w0 -->
<g id="node16" class="node"><title>w0</title>
<a xlink:href="0032502" xlink:title="GO:0032502 (2)">
<ellipse fill="#e98576" stroke="#e98576" cx="223" cy="-450" rx="75.2018" ry="18"/>
<text text-anchor="middle" x="223" y="-445.8" font-family="Times,serif" font-size="14.00">GO:0032502 (2)</text>
</a>
</g>
<!-- c0&#45;&gt;w0 -->
<g id="edge128" class="edge"><title>c0&#45;&gt;w0</title>
<path fill="none" stroke="black" d="M1868.48,-519.061C1674.42,-512.765 1050.28,-491.917 534,-468 456.354,-464.403 367.849,-459.486 305.161,-455.865"/>
<polygon fill="black" stroke="black" points="305.124,-452.357 294.938,-455.272 304.719,-459.345 305.124,-452.357"/>
</g>
<!-- y0 -->
<g id="node20" class="node"><title>y0</title>
<a xlink:href="0051234" xlink:title="GO:0051234">
<ellipse fill="#dddddd" stroke="#dddddd" cx="2626" cy="-378" rx="61.1934" ry="18"/>
<text text-anchor="middle" x="2626" y="-373.8" font-family="Times,serif" font-size="14.00">GO:0051234</text>
</a>
</g>
<!-- c0&#45;&gt;y0 -->
<g id="edge16" class="edge"><title>c0&#45;&gt;y0</title>
<path fill="none" stroke="black" d="M1989.89,-519.478C2049.47,-515.78 2141.31,-504.062 2212,-468 2232.72,-457.427 2228.93,-441.866 2250,-432 2373.62,-374.116 2420.62,-419.933 2555,-396 2560.38,-395.042 2565.96,-393.924 2571.53,-392.727"/>
<polygon fill="black" stroke="black" points="2572.48,-396.101 2581.48,-390.506 2570.95,-389.269 2572.48,-396.101"/>
</g>
<!-- z0 -->
<g id="node21" class="node"><title>z0</title>
<a xlink:href="0051179" xlink:title="GO:0051179">
<ellipse fill="#dddddd" stroke="#dddddd" cx="2489" cy="-450" rx="61.1934" ry="18"/>
<text text-anchor="middle" x="2489" y="-445.8" font-family="Times,serif" font-size="14.00">GO:0051179</text>
</a>
</g>
<!-- c0&#45;&gt;z0 -->
<g id="edge72" class="edge"><title>c0&#45;&gt;z0</title>
<path fill="none" stroke="black" d="M1988.05,-517.034C2080.31,-510.292 2264.02,-494.667 2418,-468 2423.46,-467.054 2429.13,-465.934 2434.78,-464.729"/>
<polygon fill="black" stroke="black" points="2435.87,-468.073 2444.87,-462.484 2434.35,-461.24 2435.87,-468.073"/>
</g>
<!-- g0 -->
<g id="node26" class="node"><title>g0</title>
<a xlink:href="0032501" xlink:title="GO:0032501 (3)">
<ellipse fill="#e98576" stroke="#e98576" cx="1929" cy="-450" rx="75.2018" ry="18"/>
<text text-anchor="middle" x="1929" y="-445.8" font-family="Times,serif" font-size="14.00">GO:0032501 (3)</text>
</a>
</g>
<!-- c0&#45;&gt;g0 -->
<g id="edge108" class="edge"><title>c0&#45;&gt;g0</title>
<path fill="none" stroke="black" d="M1929,-503.697C1929,-495.983 1929,-486.712 1929,-478.112"/>
<polygon fill="black" stroke="black" points="1932.5,-478.104 1929,-468.104 1925.5,-478.104 1932.5,-478.104"/>
</g>
<!-- b0 -->
<g id="node36" class="node"><title>b0</title>
<a xlink:href="0065007" xlink:title="GO:0065007">
<ellipse fill="#dddddd" stroke="#dddddd" cx="2142" cy="-450" rx="61.1934" ry="18"/>
<text text-anchor="middle" x="2142" y="-445.8" font-family="Times,serif" font-size="14.00">GO:0065007</text>
</a>
</g>
<!-- c0&#45;&gt;b0 -->
<g id="edge78" class="edge"><title>c0&#45;&gt;b0</title>
<path fill="none" stroke="black" d="M1968.56,-507.998C2003.68,-496.456 2055.14,-479.547 2092.88,-467.143"/>
<polygon fill="black" stroke="black" points="2094.24,-470.38 2102.65,-463.933 2092.05,-463.73 2094.24,-470.38"/>
</g>
<!-- h0 -->
<g id="node56" class="node"><title>h0</title>
<a xlink:href="0002376" xlink:title="GO:0002376 (3)">
<ellipse fill="#e98576" stroke="#e98576" cx="2334" cy="-450" rx="75.2018" ry="18"/>
<text text-anchor="middle" x="2334" y="-445.8" font-family="Times,serif" font-size="14.00">GO:0002376 (3)</text>
</a>
</g>
<!-- c0&#45;&gt;h0 -->
<g id="edge48" class="edge"><title>c0&#45;&gt;h0</title>
<path fill="none" stroke="black" d="M1981.34,-512.592C2044.07,-502.43 2152.33,-484.62 2245,-468 2252.32,-466.687 2259.97,-465.279 2267.59,-463.856"/>
<polygon fill="black" stroke="black" points="2268.36,-467.273 2277.54,-461.984 2267.06,-460.393 2268.36,-467.273"/>
</g>
<!-- v0 -->
<g id="node76" class="node"><title>v0</title>
<a xlink:href="0022610" xlink:title="GO:0022610">
<ellipse fill="#dddddd" stroke="#dddddd" cx="604" cy="-450" rx="61.1934" ry="18"/>
<text text-anchor="middle" x="604" y="-445.8" font-family="Times,serif" font-size="14.00">GO:0022610</text>
</a>
</g>
<!-- c0&#45;&gt;v0 -->
<g id="edge70" class="edge"><title>c0&#45;&gt;v0</title>
<path fill="none" stroke="black" d="M1869.06,-517.833C1651.77,-506.354 906.001,-466.955 673.674,-454.681"/>
<polygon fill="black" stroke="black" points="673.827,-451.184 663.657,-454.152 673.458,-458.174 673.827,-451.184"/>
</g>
<!-- d0 -->
<g id="node81" class="node"><title>d0</title>
<a xlink:href="0050896" xlink:title="GO:0050896 (6)">
<ellipse fill="#e98576" stroke="#e98576" cx="2644" cy="-450" rx="75.2018" ry="18"/>
<text text-anchor="middle" x="2644" y="-445.8" font-family="Times,serif" font-size="14.00">GO:0050896 (6)</text>
</a>
</g>
<!-- c0&#45;&gt;d0 -->
<g id="edge76" class="edge"><title>c0&#45;&gt;d0</title>
<path fill="none" stroke="black" d="M1989.19,-518.214C2101.6,-512.507 2350.88,-497.469 2559,-468 2565.81,-467.036 2572.89,-465.875 2579.94,-464.617"/>
<polygon fill="black" stroke="black" points="2581,-467.98 2590.2,-462.718 2579.73,-461.097 2581,-467.98"/>
</g>
<!-- t0 -->
<g id="node31" class="node"><title>t0</title>
<a xlink:href="0043170" xlink:title="GO:0043170">
<ellipse fill="#dddddd" stroke="#dddddd" cx="1324" cy="-378" rx="61.1934" ry="18"/>
<text text-anchor="middle" x="1324" y="-373.8" font-family="Times,serif" font-size="14.00">GO:0043170</text>
</a>
</g>
<!-- o0&#45;&gt;t0 -->
<g id="edge122" class="edge"><title>o0&#45;&gt;t0</title>
<path fill="none" stroke="black" d="M1493.86,-435.087C1459.09,-423.606 1409.71,-407.301 1373.15,-395.228"/>
<polygon fill="black" stroke="black" points="1373.79,-391.754 1363.2,-391.942 1371.59,-398.401 1373.79,-391.754"/>
</g>
<!-- o0&#45;&gt;n0 -->
<g id="edge80" class="edge"><title>o0&#45;&gt;n0</title>
<path fill="none" stroke="black" d="M1519.17,-432.411C1510.15,-423.519 1498.89,-412.411 1488.97,-402.631"/>
<polygon fill="black" stroke="black" points="1491.28,-399.998 1481.71,-395.47 1486.37,-404.983 1491.28,-399.998"/>
</g>
<!-- p0 -->
<g id="node68" class="node"><title>p0</title>
<a xlink:href="0044238" xlink:title="GO:0044238">
<ellipse fill="#dddddd" stroke="#dddddd" cx="1606" cy="-378" rx="61.1934" ry="18"/>
<text text-anchor="middle" x="1606" y="-373.8" font-family="Times,serif" font-size="14.00">GO:0044238</text>
</a>
</g>
<!-- o0&#45;&gt;p0 -->
<g id="edge130" class="edge"><title>o0&#45;&gt;p0</title>
<path fill="none" stroke="black" d="M1552.59,-432.411C1561.48,-423.519 1572.59,-412.411 1582.37,-402.631"/>
<polygon fill="black" stroke="black" points="1584.93,-405.016 1589.53,-395.47 1579.98,-400.066 1584.93,-405.016"/>
</g>
<!-- e1 -->
<g id="node18" class="node"><title>e1</title>
<a xlink:href="0016265" xlink:title="GO:0016265 (1)">
<ellipse fill="#e98576" stroke="#e98576" cx="75" cy="-378" rx="75.2018" ry="18"/>
<text text-anchor="middle" x="75" y="-373.8" font-family="Times,serif" font-size="14.00">GO:0016265 (1)</text>
</a>
</g>
<!-- w0&#45;&gt;e1 -->
<g id="edge14" class="edge"><title>w0&#45;&gt;e1</title>
<path fill="none" stroke="black" d="M190.521,-433.638C168.833,-423.38 140.109,-409.795 116.73,-398.737"/>
<polygon fill="black" stroke="black" points="117.94,-395.438 107.403,-394.326 114.947,-401.766 117.94,-395.438"/>
</g>
<!-- p1 -->
<g id="node44" class="node"><title>p1</title>
<a xlink:href="0009653" xlink:title="GO:0009653">
<ellipse fill="#dddddd" stroke="#dddddd" cx="267" cy="-306" rx="61.1934" ry="18"/>
<text text-anchor="middle" x="267" y="-301.8" font-family="Times,serif" font-size="14.00">GO:0009653</text>
</a>
</g>
<!-- w0&#45;&gt;p1 -->
<g id="edge64" class="edge"><title>w0&#45;&gt;p1</title>
<path fill="none" stroke="black" d="M210.786,-431.937C199.223,-413.516 185.248,-383.639 197,-360 203.662,-346.6 215.508,-335.683 227.584,-327.316"/>
<polygon fill="black" stroke="black" points="229.832,-330.031 236.346,-321.674 226.043,-324.145 229.832,-330.031"/>
</g>
<!-- q1 -->
<g id="node71" class="node"><title>q1</title>
<a xlink:href="0048856" xlink:title="GO:0048856">
<ellipse fill="#dddddd" stroke="#dddddd" cx="267" cy="-378" rx="61.1934" ry="18"/>
<text text-anchor="middle" x="267" y="-373.8" font-family="Times,serif" font-size="14.00">GO:0048856</text>
</a>
</g>
<!-- w0&#45;&gt;q1 -->
<g id="edge102" class="edge"><title>w0&#45;&gt;q1</title>
<path fill="none" stroke="black" d="M233.651,-432.055C238.84,-423.801 245.188,-413.701 250.948,-404.538"/>
<polygon fill="black" stroke="black" points="254.088,-406.118 256.447,-395.789 248.162,-402.393 254.088,-406.118"/>
</g>
<!-- x0 -->
<g id="node23" class="node"><title>x0</title>
<a xlink:href="0006810" xlink:title="GO:0006810 (2)">
<ellipse fill="#e98576" stroke="#e98576" cx="2626" cy="-306" rx="75.2018" ry="18"/>
<text text-anchor="middle" x="2626" y="-301.8" font-family="Times,serif" font-size="14.00">GO:0006810 (2)</text>
</a>
</g>
<!-- y0&#45;&gt;x0 -->
<g id="edge50" class="edge"><title>y0&#45;&gt;x0</title>
<path fill="none" stroke="black" d="M2626,-359.697C2626,-351.983 2626,-342.712 2626,-334.112"/>
<polygon fill="black" stroke="black" points="2629.5,-334.104 2626,-324.104 2622.5,-334.104 2629.5,-334.104"/>
</g>
<!-- z0&#45;&gt;y0 -->
<g id="edge18" class="edge"><title>z0&#45;&gt;y0</title>
<path fill="none" stroke="black" d="M2518.05,-434.155C2538.26,-423.831 2565.41,-409.957 2587.43,-398.708"/>
<polygon fill="black" stroke="black" points="2589.2,-401.732 2596.52,-394.065 2586.02,-395.498 2589.2,-401.732"/>
</g>
<!-- f1 -->
<g id="node25" class="node"><title>f1</title>
<a xlink:href="0006811" xlink:title="GO:0006811 (1)">
<ellipse fill="#e98576" stroke="#e98576" cx="2542" cy="-234" rx="75.2018" ry="18"/>
<text text-anchor="middle" x="2542" y="-229.8" font-family="Times,serif" font-size="14.00">GO:0006811 (1)</text>
</a>
</g>
<!-- x0&#45;&gt;f1 -->
<g id="edge20" class="edge"><title>x0&#45;&gt;f1</title>
<path fill="none" stroke="black" d="M2606.09,-288.411C2595.21,-279.345 2581.57,-267.974 2569.67,-258.057"/>
<polygon fill="black" stroke="black" points="2571.69,-255.183 2561.76,-251.47 2567.21,-260.561 2571.69,-255.183"/>
</g>
<!-- h1 -->
<g id="node117" class="node"><title>h1</title>
<a xlink:href="0016192" xlink:title="GO:0016192 (1)">
<ellipse fill="#e98576" stroke="#e98576" cx="2710" cy="-234" rx="75.2018" ry="18"/>
<text text-anchor="middle" x="2710" y="-229.8" font-family="Times,serif" font-size="14.00">GO:0016192 (1)</text>
</a>
</g>
<!-- x0&#45;&gt;h1 -->
<g id="edge132" class="edge"><title>x0&#45;&gt;h1</title>
<path fill="none" stroke="black" d="M2645.91,-288.411C2656.79,-279.345 2670.43,-267.974 2682.33,-258.057"/>
<polygon fill="black" stroke="black" points="2684.79,-260.561 2690.24,-251.47 2680.31,-255.183 2684.79,-260.561"/>
</g>
<!-- u1 -->
<g id="node28" class="node"><title>u1</title>
<a xlink:href="0008015" xlink:title="GO:0008015 (1)">
<ellipse fill="#e98576" stroke="#e98576" cx="2097" cy="-378" rx="75.2018" ry="18"/>
<text text-anchor="middle" x="2097" y="-373.8" font-family="Times,serif" font-size="14.00">GO:0008015 (1)</text>
</a>
</g>
<!-- g0&#45;&gt;u1 -->
<g id="edge22" class="edge"><title>g0&#45;&gt;u1</title>
<path fill="none" stroke="black" d="M1964.63,-434.155C1990.05,-423.564 2024.43,-409.239 2051.78,-397.842"/>
<polygon fill="black" stroke="black" points="2053.25,-401.021 2061.13,-393.944 2050.56,-394.56 2053.25,-401.021"/>
</g>
<!-- c1 -->
<g id="node54" class="node"><title>c1</title>
<a xlink:href="0050878" xlink:title="GO:0050878 (2)">
<ellipse fill="#e98576" stroke="#e98576" cx="1761" cy="-378" rx="75.2018" ry="18"/>
<text text-anchor="middle" x="1761" y="-373.8" font-family="Times,serif" font-size="14.00">GO:0050878 (2)</text>
</a>
</g>
<!-- g0&#45;&gt;c1 -->
<g id="edge46" class="edge"><title>g0&#45;&gt;c1</title>
<path fill="none" stroke="black" d="M1893.37,-434.155C1867.95,-423.564 1833.57,-409.239 1806.22,-397.842"/>
<polygon fill="black" stroke="black" points="1807.44,-394.56 1796.87,-393.944 1804.75,-401.021 1807.44,-394.56"/>
</g>
<!-- a1 -->
<g id="node87" class="node"><title>a1</title>
<a xlink:href="0050817" xlink:title="GO:0050817 (2)">
<ellipse fill="#e98576" stroke="#e98576" cx="1929" cy="-378" rx="75.2018" ry="18"/>
<text text-anchor="middle" x="1929" y="-373.8" font-family="Times,serif" font-size="14.00">GO:0050817 (2)</text>
</a>
</g>
<!-- g0&#45;&gt;a1 -->
<g id="edge86" class="edge"><title>g0&#45;&gt;a1</title>
<path fill="none" stroke="black" d="M1929,-431.697C1929,-423.983 1929,-414.712 1929,-406.112"/>
<polygon fill="black" stroke="black" points="1932.5,-406.104 1929,-396.104 1925.5,-406.104 1932.5,-406.104"/>
</g>
<!-- v1 -->
<g id="node95" class="node"><title>v1</title>
<a xlink:href="0006464" xlink:title="GO:0006464 (1)">
<ellipse fill="#e98576" stroke="#e98576" cx="1413" cy="-162" rx="75.2018" ry="18"/>
<text text-anchor="middle" x="1413" y="-157.8" font-family="Times,serif" font-size="14.00">GO:0006464 (1)</text>
</a>
</g>
<!-- w1&#45;&gt;v1 -->
<g id="edge96" class="edge"><title>w1&#45;&gt;v1</title>
<path fill="none" stroke="black" d="M1519.82,-217.983C1500.16,-207.86 1473.97,-194.382 1452.45,-183.304"/>
<polygon fill="black" stroke="black" points="1454.04,-180.185 1443.54,-178.72 1450.83,-186.409 1454.04,-180.185"/>
</g>
<!-- t0&#45;&gt;s0 -->
<g id="edge32" class="edge"><title>t0&#45;&gt;s0</title>
<path fill="none" stroke="black" d="M1369.36,-365.697C1377.86,-363.705 1386.68,-361.72 1395,-360 1486.02,-341.17 1509.98,-342.83 1601,-324 1606.07,-322.952 1611.32,-321.805 1616.58,-320.619"/>
<polygon fill="black" stroke="black" points="1617.68,-323.957 1626.64,-318.303 1616.11,-317.135 1617.68,-323.957"/>
</g>
<!-- y1 -->
<g id="node33" class="node"><title>y1</title>
<a xlink:href="0044260" xlink:title="GO:0044260">
<ellipse fill="#dddddd" stroke="#dddddd" cx="1362" cy="-306" rx="61.1934" ry="18"/>
<text text-anchor="middle" x="1362" y="-301.8" font-family="Times,serif" font-size="14.00">GO:0044260</text>
</a>
</g>
<!-- t0&#45;&gt;y1 -->
<g id="edge26" class="edge"><title>t0&#45;&gt;y1</title>
<path fill="none" stroke="black" d="M1333.2,-360.055C1337.57,-352.007 1342.89,-342.205 1347.76,-333.226"/>
<polygon fill="black" stroke="black" points="1350.93,-334.734 1352.62,-324.275 1344.78,-331.394 1350.93,-334.734"/>
</g>
<!-- s1 -->
<g id="node62" class="node"><title>s1</title>
<a xlink:href="0065003" xlink:title="GO:0065003 (1)">
<ellipse fill="#e98576" stroke="#e98576" cx="959" cy="-234" rx="75.2018" ry="18"/>
<text text-anchor="middle" x="959" y="-229.8" font-family="Times,serif" font-size="14.00">GO:0065003 (1)</text>
</a>
</g>
<!-- t0&#45;&gt;s1 -->
<g id="edge56" class="edge"><title>t0&#45;&gt;s1</title>
<path fill="none" stroke="black" d="M1288.67,-363.255C1222.58,-337.543 1080.24,-282.167 1006.09,-253.318"/>
<polygon fill="black" stroke="black" points="1007.11,-249.962 996.523,-249.598 1004.57,-256.486 1007.11,-249.962"/>
</g>
<!-- g1 -->
<g id="node67" class="node"><title>g1</title>
<a xlink:href="0019538" xlink:title="GO:0019538 (1)">
<ellipse fill="#e98576" stroke="#e98576" cx="1517" cy="-306" rx="75.2018" ry="18"/>
<text text-anchor="middle" x="1517" y="-301.8" font-family="Times,serif" font-size="14.00">GO:0019538 (1)</text>
</a>
</g>
<!-- t0&#45;&gt;g1 -->
<g id="edge60" class="edge"><title>t0&#45;&gt;g1</title>
<path fill="none" stroke="black" d="M1361.21,-363.503C1391.52,-352.511 1434.57,-336.898 1467.73,-324.869"/>
<polygon fill="black" stroke="black" points="1469.04,-328.119 1477.24,-321.419 1466.65,-321.539 1469.04,-328.119"/>
</g>
<!-- x1 -->
<g id="node96" class="node"><title>x1</title>
<a xlink:href="0044267" xlink:title="GO:0044267">
<ellipse fill="#dddddd" stroke="#dddddd" cx="1408" cy="-234" rx="61.1934" ry="18"/>
<text text-anchor="middle" x="1408" y="-229.8" font-family="Times,serif" font-size="14.00">GO:0044267</text>
</a>
</g>
<!-- y1&#45;&gt;x1 -->
<g id="edge126" class="edge"><title>y1&#45;&gt;x1</title>
<path fill="none" stroke="black" d="M1373.14,-288.055C1378.62,-279.715 1385.33,-269.491 1391.41,-260.252"/>
<polygon fill="black" stroke="black" points="1394.4,-262.068 1396.97,-251.789 1388.55,-258.224 1394.4,-262.068"/>
</g>
<!-- n0&#45;&gt;m0 -->
<g id="edge104" class="edge"><title>n0&#45;&gt;m0</title>
<path fill="none" stroke="black" d="M1510.36,-365.697C1518.86,-363.705 1527.68,-361.72 1536,-360 1627.02,-341.17 1650.98,-342.83 1742,-324 1747.07,-322.952 1752.32,-321.805 1757.58,-320.619"/>
<polygon fill="black" stroke="black" points="1758.68,-323.957 1767.64,-318.303 1757.11,-317.135 1758.68,-323.957"/>
</g>
<!-- n0&#45;&gt;y1 -->
<g id="edge28" class="edge"><title>n0&#45;&gt;y1</title>
<path fill="none" stroke="black" d="M1441.88,-361.291C1427.67,-351.632 1409.27,-339.122 1393.7,-328.546"/>
<polygon fill="black" stroke="black" points="1395.63,-325.625 1385.39,-322.899 1391.7,-331.415 1395.63,-325.625"/>
</g>
<!-- d1 -->
<g id="node38" class="node"><title>d1</title>
<a xlink:href="0065009" xlink:title="GO:0065009 (1)">
<ellipse fill="#e98576" stroke="#e98576" cx="2303" cy="-378" rx="75.2018" ry="18"/>
<text text-anchor="middle" x="2303" y="-373.8" font-family="Times,serif" font-size="14.00">GO:0065009 (1)</text>
</a>
</g>
<!-- b0&#45;&gt;d1 -->
<g id="edge30" class="edge"><title>b0&#45;&gt;d1</title>
<path fill="none" stroke="black" d="M2174.97,-434.666C2199.22,-424.121 2232.44,-409.677 2258.97,-398.145"/>
<polygon fill="black" stroke="black" points="2260.63,-401.238 2268.41,-394.041 2257.84,-394.819 2260.63,-401.238"/>
</g>
<!-- a0 -->
<g id="node41" class="node"><title>a0</title>
<a xlink:href="0050789" xlink:title="GO:0050789 (7)">
<ellipse fill="#e98576" stroke="#e98576" cx="2471" cy="-378" rx="75.2018" ry="18"/>
<text text-anchor="middle" x="2471" y="-373.8" font-family="Times,serif" font-size="14.00">GO:0050789 (7)</text>
</a>
</g>
<!-- b0&#45;&gt;a0 -->
<g id="edge34" class="edge"><title>b0&#45;&gt;a0</title>
<path fill="none" stroke="black" d="M2188.78,-438.266C2198.12,-436.159 2207.87,-433.988 2217,-432 2280.96,-418.079 2354.15,-402.885 2405.48,-392.349"/>
<polygon fill="black" stroke="black" points="2406.35,-395.743 2415.45,-390.306 2404.95,-388.886 2406.35,-395.743"/>
</g>
<!-- b1 -->
<g id="node51" class="node"><title>b1</title>
<a xlink:href="0065008" xlink:title="GO:0065008 (2)">
<ellipse fill="#e98576" stroke="#e98576" cx="1732" cy="-162" rx="75.2018" ry="18"/>
<text text-anchor="middle" x="1732" y="-157.8" font-family="Times,serif" font-size="14.00">GO:0065008 (2)</text>
</a>
</g>
<!-- b0&#45;&gt;b1 -->
<g id="edge90" class="edge"><title>b0&#45;&gt;b1</title>
<path fill="none" stroke="black" d="M2158.75,-432.427C2175.37,-413.906 2196.32,-383.445 2181,-360 2135.53,-290.39 1897.99,-212.301 1788,-179.21"/>
<polygon fill="black" stroke="black" points="1788.98,-175.85 1778.4,-176.338 1786.98,-182.557 1788.98,-175.85"/>
</g>
<!-- o1 -->
<g id="node46" class="node"><title>o1</title>
<a xlink:href="0032989" xlink:title="GO:0032989">
<ellipse fill="#dddddd" stroke="#dddddd" cx="509" cy="-234" rx="61.1934" ry="18"/>
<text text-anchor="middle" x="509" y="-229.8" font-family="Times,serif" font-size="14.00">GO:0032989</text>
</a>
</g>
<!-- p1&#45;&gt;o1 -->
<g id="edge38" class="edge"><title>p1&#45;&gt;o1</title>
<path fill="none" stroke="black" d="M309.153,-292.807C350.322,-280.899 413.059,-262.752 457.237,-249.973"/>
<polygon fill="black" stroke="black" points="458.291,-253.311 466.925,-247.171 456.346,-246.587 458.291,-253.311"/>
</g>
<!-- n1 -->
<g id="node49" class="node"><title>n1</title>
<a xlink:href="0000902" xlink:title="GO:0000902">
<ellipse fill="#dddddd" stroke="#dddddd" cx="805" cy="-162" rx="61.1934" ry="18"/>
<text text-anchor="middle" x="805" y="-157.8" font-family="Times,serif" font-size="14.00">GO:0000902</text>
</a>
</g>
<!-- o1&#45;&gt;n1 -->
<g id="edge84" class="edge"><title>o1&#45;&gt;n1</title>
<path fill="none" stroke="black" d="M554.826,-222.001C563.2,-219.999 571.861,-217.933 580,-216 637.354,-202.379 702.968,-186.939 748.48,-176.253"/>
<polygon fill="black" stroke="black" points="749.513,-179.606 758.449,-173.913 747.913,-172.791 749.513,-179.606"/>
</g>
<!-- k1&#45;&gt;o1 -->
<g id="edge40" class="edge"><title>k1&#45;&gt;o1</title>
<path fill="none" stroke="black" d="M580.23,-359.871C566.181,-335.244 540.167,-289.638 523.765,-260.885"/>
<polygon fill="black" stroke="black" points="526.8,-259.141 518.805,-252.189 520.72,-262.61 526.8,-259.141"/>
</g>
<!-- t1 -->
<g id="node60" class="node"><title>t1</title>
<a xlink:href="0022607" xlink:title="GO:0022607">
<ellipse fill="#dddddd" stroke="#dddddd" cx="845" cy="-306" rx="61.1934" ry="18"/>
<text text-anchor="middle" x="845" y="-301.8" font-family="Times,serif" font-size="14.00">GO:0022607</text>
</a>
</g>
<!-- k1&#45;&gt;t1 -->
<g id="edge88" class="edge"><title>k1&#45;&gt;t1</title>
<path fill="none" stroke="black" d="M637.366,-363.998C681.245,-351.952 746.417,-334.062 792.009,-321.547"/>
<polygon fill="black" stroke="black" points="792.996,-324.905 801.712,-318.883 791.142,-318.155 792.996,-324.905"/>
</g>
<!-- j1 -->
<g id="node74" class="node"><title>j1</title>
<a xlink:href="0006996" xlink:title="GO:0006996">
<ellipse fill="#dddddd" stroke="#dddddd" cx="647" cy="-306" rx="61.1934" ry="18"/>
<text text-anchor="middle" x="647" y="-301.8" font-family="Times,serif" font-size="14.00">GO:0006996</text>
</a>
</g>
<!-- k1&#45;&gt;j1 -->
<g id="edge68" class="edge"><title>k1&#45;&gt;j1</title>
<path fill="none" stroke="black" d="M603.798,-360.055C610.73,-351.543 619.259,-341.068 626.902,-331.681"/>
<polygon fill="black" stroke="black" points="629.729,-333.753 633.329,-323.789 624.301,-329.333 629.729,-333.753"/>
</g>
<!-- n1&#45;&gt;m1 -->
<g id="edge42" class="edge"><title>n1&#45;&gt;m1</title>
<path fill="none" stroke="black" d="M864.877,-157.975C966.443,-152.235 1178.74,-137.598 1356,-108 1361.47,-107.087 1367.14,-105.989 1372.79,-104.797"/>
<polygon fill="black" stroke="black" points="1373.87,-108.143 1382.88,-102.568 1372.36,-101.307 1373.87,-108.143"/>
</g>
<!-- b1&#45;&gt;m1 -->
<g id="edge44" class="edge"><title>b1&#45;&gt;m1</title>
<path fill="none" stroke="black" d="M1679.57,-148.967C1624.94,-136.429 1539.64,-116.851 1483.53,-103.974"/>
<polygon fill="black" stroke="black" points="1484.28,-100.556 1473.75,-101.73 1482.72,-107.379 1484.28,-100.556"/>
</g>
<!-- k0 -->
<g id="node91" class="node"><title>k0</title>
<a xlink:href="0006351" xlink:title="GO:0006351 (3)">
<ellipse fill="#e98576" stroke="#e98576" cx="1734" cy="-90" rx="75.2018" ry="18"/>
<text text-anchor="middle" x="1734" y="-85.8" font-family="Times,serif" font-size="14.00">GO:0006351 (3)</text>
</a>
</g>
<!-- l0&#45;&gt;k0 -->
<g id="edge92" class="edge"><title>l0&#45;&gt;k0</title>
<path fill="none" stroke="black" d="M1855.3,-146.496C1832.48,-136.056 1801.45,-121.86 1776.49,-110.439"/>
<polygon fill="black" stroke="black" points="1777.8,-107.19 1767.25,-106.212 1774.89,-113.555 1777.8,-107.19"/>
</g>
<!-- t1&#45;&gt;s1 -->
<g id="edge54" class="edge"><title>t1&#45;&gt;s1</title>
<path fill="none" stroke="black" d="M870.3,-289.465C886.164,-279.724 906.832,-267.033 924.226,-256.353"/>
<polygon fill="black" stroke="black" points="926.29,-259.192 932.98,-250.977 922.627,-253.227 926.29,-259.192"/>
</g>
<!-- g1&#45;&gt;x1 -->
<g id="edge124" class="edge"><title>g1&#45;&gt;x1</title>
<path fill="none" stroke="black" d="M1491.99,-288.941C1476.93,-279.268 1457.57,-266.834 1441.23,-256.343"/>
<polygon fill="black" stroke="black" points="1442.82,-253.202 1432.51,-250.743 1439.04,-259.092 1442.82,-253.202"/>
</g>
<!-- p0&#45;&gt;m0 -->
<g id="edge106" class="edge"><title>p0&#45;&gt;m0</title>
<path fill="none" stroke="black" d="M1644.94,-363.834C1678.76,-352.394 1727.91,-335.774 1764.33,-323.459"/>
<polygon fill="black" stroke="black" points="1765.89,-326.626 1774.24,-320.107 1763.65,-319.995 1765.89,-326.626"/>
</g>
<!-- p0&#45;&gt;g1 -->
<g id="edge62" class="edge"><title>p0&#45;&gt;g1</title>
<path fill="none" stroke="black" d="M1585.36,-360.765C1573.65,-351.554 1558.81,-339.882 1545.95,-329.769"/>
<polygon fill="black" stroke="black" points="1547.86,-326.821 1537.84,-323.39 1543.53,-332.323 1547.86,-326.821"/>
</g>
<!-- q1&#45;&gt;p1 -->
<g id="edge66" class="edge"><title>q1&#45;&gt;p1</title>
<path fill="none" stroke="black" d="M267,-359.697C267,-351.983 267,-342.712 267,-334.112"/>
<polygon fill="black" stroke="black" points="270.5,-334.104 267,-324.104 263.5,-334.104 270.5,-334.104"/>
</g>
<!-- i1 -->
<g id="node79" class="node"><title>i1</title>
<a xlink:href="0051276" xlink:title="GO:0051276 (1)">
<ellipse fill="#e98576" stroke="#e98576" cx="664" cy="-234" rx="75.2018" ry="18"/>
<text text-anchor="middle" x="664" y="-229.8" font-family="Times,serif" font-size="14.00">GO:0051276 (1)</text>
</a>
</g>
<!-- j1&#45;&gt;i1 -->
<g id="edge74" class="edge"><title>j1&#45;&gt;i1</title>
<path fill="none" stroke="black" d="M651.202,-287.697C653.096,-279.898 655.377,-270.509 657.484,-261.829"/>
<polygon fill="black" stroke="black" points="660.887,-262.648 659.846,-252.104 654.085,-260.996 660.887,-262.648"/>
</g>
<!-- v0&#45;&gt;u0 -->
<g id="edge120" class="edge"><title>v0&#45;&gt;u0</title>
<path fill="none" stroke="black" d="M568.477,-435.337C540.286,-424.495 500.61,-409.235 469.66,-397.331"/>
<polygon fill="black" stroke="black" points="470.534,-393.917 459.944,-393.594 468.021,-400.45 470.534,-393.917"/>
</g>
<!-- q0&#45;&gt;k0 -->
<g id="edge94" class="edge"><title>q0&#45;&gt;k0</title>
<path fill="none" stroke="black" d="M1609.15,-146.666C1632.72,-136.156 1664.98,-121.775 1690.8,-110.262"/>
<polygon fill="black" stroke="black" points="1692.28,-113.432 1699.99,-106.163 1689.43,-107.039 1692.28,-113.432"/>
</g>
<!-- x1&#45;&gt;v1 -->
<g id="edge98" class="edge"><title>x1&#45;&gt;v1</title>
<path fill="none" stroke="black" d="M1409.24,-215.697C1409.79,-207.983 1410.45,-198.712 1411.06,-190.112"/>
<polygon fill="black" stroke="black" points="1414.56,-190.328 1411.78,-180.104 1407.57,-189.83 1414.56,-190.328"/>
</g>
</g>
</svg>
