<?xml version="1.0" encoding="UTF-8" standalone="no"?>
<!DOCTYPE svg PUBLIC "-//W3C//DTD SVG 1.1//EN"
 "http://www.w3.org/Graphics/SVG/1.1/DTD/svg11.dtd">
<!-- Generated by graphviz version 2.28.0 (20110622.2320)
 -->
<!-- Title: G Pages: 1 -->
<svg width="4085pt" height="260pt"
 viewBox="0.00 0.00 4085.00 260.00" xmlns="http://www.w3.org/2000/svg" xmlns:xlink="http://www.w3.org/1999/xlink">
<g id="graph1" class="graph" transform="scale(1 1) rotate(0) translate(4 256)">
<title>G</title>
<polygon fill="white" stroke="white" points="-4,5 -4,-256 4082,-256 4082,5 -4,5"/>
<!-- e0 -->
<g id="node1" class="node"><title>e0</title>
<a xlink:href="0003824" xlink:title="GO:0003824 (25)">
<ellipse fill="#e98576" stroke="#e98576" cx="683" cy="-162" rx="79.4447" ry="18"/>
<text text-anchor="middle" x="683" y="-157.8" font-family="Times,serif" font-size="14.00">GO:0003824 (25)</text>
</a>
</g>
<!-- b1 -->
<g id="node3" class="node"><title>b1</title>
<a xlink:href="0016853" xlink:title="GO:0016853 (3)">
<ellipse fill="#e98576" stroke="#e98576" cx="75" cy="-90" rx="75.2018" ry="18"/>
<text text-anchor="middle" x="75" y="-85.8" font-family="Times,serif" font-size="14.00">GO:0016853 (3)</text>
</a>
</g>
<!-- e0&#45;&gt;b1 -->
<g id="edge2" class="edge"><title>e0&#45;&gt;b1</title>
<path fill="none" stroke="black" d="M608.083,-155.764C506.119,-148.105 318.115,-132.087 159,-108 152.378,-106.997 145.487,-105.822 138.627,-104.565"/>
<polygon fill="black" stroke="black" points="139.109,-101.094 128.633,-102.676 137.809,-107.973 139.109,-101.094"/>
</g>
<!-- l0 -->
<g id="node15" class="node"><title>l0</title>
<a xlink:href="0016787" xlink:title="GO:0016787 (14)">
<ellipse fill="#e98576" stroke="#e98576" cx="248" cy="-90" rx="79.4447" ry="18"/>
<text text-anchor="middle" x="248" y="-85.8" font-family="Times,serif" font-size="14.00">GO:0016787 (14)</text>
</a>
</g>
<!-- e0&#45;&gt;l0 -->
<g id="edge26" class="edge"><title>e0&#45;&gt;l0</title>
<path fill="none" stroke="black" d="M617.518,-151.701C547.852,-141.637 434.471,-124.769 337,-108 330.23,-106.835 323.179,-105.573 316.141,-104.281"/>
<polygon fill="black" stroke="black" points="316.343,-100.759 305.872,-102.374 315.065,-107.641 316.343,-100.759"/>
</g>
<!-- d0 -->
<g id="node20" class="node"><title>d0</title>
<a xlink:href="0016491" xlink:title="GO:0016491 (37)">
<ellipse fill="#e98576" stroke="#e98576" cx="426" cy="-90" rx="79.4447" ry="18"/>
<text text-anchor="middle" x="426" y="-85.8" font-family="Times,serif" font-size="14.00">GO:0016491 (37)</text>
</a>
</g>
<!-- e0&#45;&gt;d0 -->
<g id="edge34" class="edge"><title>e0&#45;&gt;d0</title>
<path fill="none" stroke="black" d="M634.358,-147.751C591.788,-136.156 529.845,-119.285 484.564,-106.951"/>
<polygon fill="black" stroke="black" points="485.448,-103.565 474.88,-104.313 483.608,-110.319 485.448,-103.565"/>
</g>
<!-- o0 -->
<g id="node33" class="node"><title>o0</title>
<a xlink:href="0016874" xlink:title="GO:0016874 (6)">
<ellipse fill="#e98576" stroke="#e98576" cx="599" cy="-90" rx="75.2018" ry="18"/>
<text text-anchor="middle" x="599" y="-85.8" font-family="Times,serif" font-size="14.00">GO:0016874 (6)</text>
</a>
</g>
<!-- e0&#45;&gt;o0 -->
<g id="edge30" class="edge"><title>e0&#45;&gt;o0</title>
<path fill="none" stroke="black" d="M663.093,-144.411C652.214,-135.345 638.569,-123.974 626.669,-114.057"/>
<polygon fill="black" stroke="black" points="628.687,-111.183 618.764,-107.47 624.206,-116.561 628.687,-111.183"/>
</g>
<!-- j1 -->
<g id="node60" class="node"><title>j1</title>
<a xlink:href="0009975" xlink:title="GO:0009975 (1)">
<ellipse fill="#e98576" stroke="#e98576" cx="767" cy="-90" rx="75.2018" ry="18"/>
<text text-anchor="middle" x="767" y="-85.8" font-family="Times,serif" font-size="14.00">GO:0009975 (1)</text>
</a>
</g>
<!-- e0&#45;&gt;j1 -->
<g id="edge58" class="edge"><title>e0&#45;&gt;j1</title>
<path fill="none" stroke="black" d="M702.907,-144.411C713.786,-135.345 727.431,-123.974 739.331,-114.057"/>
<polygon fill="black" stroke="black" points="741.794,-116.561 747.236,-107.47 737.313,-111.183 741.794,-116.561"/>
</g>
<!-- i0 -->
<g id="node64" class="node"><title>i0</title>
<a xlink:href="0016740" xlink:title="GO:0016740 (24)">
<ellipse fill="#e98576" stroke="#e98576" cx="940" cy="-90" rx="79.4447" ry="18"/>
<text text-anchor="middle" x="940" y="-85.8" font-family="Times,serif" font-size="14.00">GO:0016740 (24)</text>
</a>
</g>
<!-- e0&#45;&gt;i0 -->
<g id="edge62" class="edge"><title>e0&#45;&gt;i0</title>
<path fill="none" stroke="black" d="M731.642,-147.751C774.212,-136.156 836.155,-119.285 881.436,-106.951"/>
<polygon fill="black" stroke="black" points="882.392,-110.319 891.12,-104.313 880.552,-103.565 882.392,-110.319"/>
</g>
<!-- k0 -->
<g id="node70" class="node"><title>k0</title>
<a xlink:href="0016829" xlink:title="GO:0016829 (16)">
<ellipse fill="#e98576" stroke="#e98576" cx="1118" cy="-90" rx="79.4447" ry="18"/>
<text text-anchor="middle" x="1118" y="-85.8" font-family="Times,serif" font-size="14.00">GO:0016829 (16)</text>
</a>
</g>
<!-- e0&#45;&gt;k0 -->
<g id="edge68" class="edge"><title>e0&#45;&gt;k0</title>
<path fill="none" stroke="black" d="M748.285,-151.651C817.743,-141.545 930.79,-124.643 1028,-108 1035,-106.801 1042.31,-105.502 1049.59,-104.176"/>
<polygon fill="black" stroke="black" points="1050.27,-107.608 1059.47,-102.356 1049,-100.724 1050.27,-107.608"/>
</g>
<!-- c0 -->
<g id="node4" class="node"><title>c0</title>
<a xlink:href="0003674" xlink:title="GO:0003674 (1)">
<ellipse fill="#e98576" stroke="#e98576" cx="2714" cy="-234" rx="75.2018" ry="18"/>
<text text-anchor="middle" x="2714" y="-229.8" font-family="Times,serif" font-size="14.00">GO:0003674 (1)</text>
</a>
</g>
<!-- c0&#45;&gt;e0 -->
<g id="edge44" class="edge"><title>c0&#45;&gt;e0</title>
<path fill="none" stroke="black" d="M2640.21,-230.457C2327.21,-219.669 1109.77,-177.709 770.945,-166.031"/>
<polygon fill="black" stroke="black" points="771.053,-162.533 760.939,-165.686 770.812,-169.529 771.053,-162.533"/>
</g>
<!-- a1 -->
<g id="node6" class="node"><title>a1</title>
<a xlink:href="0030234" xlink:title="GO:0030234 (3)">
<ellipse fill="#e98576" stroke="#e98576" cx="2378" cy="-162" rx="75.2018" ry="18"/>
<text text-anchor="middle" x="2378" y="-157.8" font-family="Times,serif" font-size="14.00">GO:0030234 (3)</text>
</a>
</g>
<!-- c0&#45;&gt;a1 -->
<g id="edge4" class="edge"><title>c0&#45;&gt;a1</title>
<path fill="none" stroke="black" d="M2659.27,-221.597C2599.96,-209.242 2505.4,-189.541 2442.52,-176.441"/>
<polygon fill="black" stroke="black" points="2443.21,-173.011 2432.71,-174.398 2441.78,-179.864 2443.21,-173.011"/>
</g>
<!-- b0 -->
<g id="node7" class="node"><title>b0</title>
<a xlink:href="0005488" xlink:title="GO:0005488 (3)">
<ellipse fill="#e98576" stroke="#e98576" cx="2546" cy="-162" rx="75.2018" ry="18"/>
<text text-anchor="middle" x="2546" y="-157.8" font-family="Times,serif" font-size="14.00">GO:0005488 (3)</text>
</a>
</g>
<!-- c0&#45;&gt;b0 -->
<g id="edge12" class="edge"><title>c0&#45;&gt;b0</title>
<path fill="none" stroke="black" d="M2678.37,-218.155C2652.95,-207.564 2618.57,-193.239 2591.22,-181.842"/>
<polygon fill="black" stroke="black" points="2592.44,-178.56 2581.87,-177.944 2589.75,-185.021 2592.44,-178.56"/>
</g>
<!-- q0 -->
<g id="node24" class="node"><title>q0</title>
<a xlink:href="0005215" xlink:title="GO:0005215 (5)">
<ellipse fill="#e98576" stroke="#e98576" cx="2714" cy="-162" rx="75.2018" ry="18"/>
<text text-anchor="middle" x="2714" y="-157.8" font-family="Times,serif" font-size="14.00">GO:0005215 (5)</text>
</a>
</g>
<!-- c0&#45;&gt;q0 -->
<g id="edge20" class="edge"><title>c0&#45;&gt;q0</title>
<path fill="none" stroke="black" d="M2714,-215.697C2714,-207.983 2714,-198.712 2714,-190.112"/>
<polygon fill="black" stroke="black" points="2717.5,-190.104 2714,-180.104 2710.5,-190.104 2717.5,-190.104"/>
</g>
<!-- z0 -->
<g id="node38" class="node"><title>z0</title>
<a xlink:href="0005198" xlink:title="GO:0005198 (3)">
<ellipse fill="#e98576" stroke="#e98576" cx="2882" cy="-162" rx="75.2018" ry="18"/>
<text text-anchor="middle" x="2882" y="-157.8" font-family="Times,serif" font-size="14.00">GO:0005198 (3)</text>
</a>
</g>
<!-- c0&#45;&gt;z0 -->
<g id="edge36" class="edge"><title>c0&#45;&gt;z0</title>
<path fill="none" stroke="black" d="M2749.63,-218.155C2775.05,-207.564 2809.43,-193.239 2836.78,-181.842"/>
<polygon fill="black" stroke="black" points="2838.25,-185.021 2846.13,-177.944 2835.56,-178.56 2838.25,-185.021"/>
</g>
<!-- g1 -->
<g id="node52" class="node"><title>g1</title>
<a xlink:href="0060089" xlink:title="GO:0060089">
<ellipse fill="#dddddd" stroke="#dddddd" cx="3037" cy="-162" rx="61.1934" ry="18"/>
<text text-anchor="middle" x="3037" y="-157.8" font-family="Times,serif" font-size="14.00">GO:0060089</text>
</a>
</g>
<!-- c0&#45;&gt;g1 -->
<g id="edge72" class="edge"><title>c0&#45;&gt;g1</title>
<path fill="none" stroke="black" d="M2769.65,-221.757C2820.78,-211.319 2898.61,-195.151 2966,-180 2970.97,-178.882 2976.14,-177.695 2981.31,-176.49"/>
<polygon fill="black" stroke="black" points="2982.28,-179.857 2991.21,-174.16 2980.68,-173.043 2982.28,-179.857"/>
</g>
<!-- x0 -->
<g id="node56" class="node"><title>x0</title>
<a xlink:href="0016209" xlink:title="GO:0016209 (4)">
<ellipse fill="#e98576" stroke="#e98576" cx="3192" cy="-162" rx="75.2018" ry="18"/>
<text text-anchor="middle" x="3192" y="-157.8" font-family="Times,serif" font-size="14.00">GO:0016209 (4)</text>
</a>
</g>
<!-- c0&#45;&gt;x0 -->
<g id="edge54" class="edge"><title>c0&#45;&gt;x0</title>
<path fill="none" stroke="black" d="M2780.25,-225.365C2858.52,-216.043 2992.58,-199.137 3107,-180 3113.58,-178.899 3120.43,-177.67 3127.27,-176.389"/>
<polygon fill="black" stroke="black" points="3128.06,-179.8 3137.22,-174.485 3126.75,-172.925 3128.06,-179.8"/>
</g>
<!-- c1 -->
<g id="node9" class="node"><title>c1</title>
<a xlink:href="0042277" xlink:title="GO:0042277 (3)">
<ellipse fill="#e98576" stroke="#e98576" cx="1291" cy="-90" rx="75.2018" ry="18"/>
<text text-anchor="middle" x="1291" y="-85.8" font-family="Times,serif" font-size="14.00">GO:0042277 (3)</text>
</a>
</g>
<!-- b0&#45;&gt;c1 -->
<g id="edge6" class="edge"><title>b0&#45;&gt;c1</title>
<path fill="none" stroke="black" d="M2493.79,-149.034C2483.31,-147.029 2472.34,-145.21 2462,-144 1981.89,-87.8643 1855.11,-164.136 1375,-108 1367.89,-107.168 1360.48,-106.049 1353.14,-104.779"/>
<polygon fill="black" stroke="black" points="1353.68,-101.318 1343.21,-102.966 1352.42,-108.205 1353.68,-101.318"/>
</g>
<!-- k1 -->
<g id="node11" class="node"><title>k1</title>
<a xlink:href="0019825" xlink:title="GO:0019825 (1)">
<ellipse fill="#e98576" stroke="#e98576" cx="1459" cy="-90" rx="75.2018" ry="18"/>
<text text-anchor="middle" x="1459" y="-85.8" font-family="Times,serif" font-size="14.00">GO:0019825 (1)</text>
</a>
</g>
<!-- b0&#45;&gt;k1 -->
<g id="edge8" class="edge"><title>b0&#45;&gt;k1</title>
<path fill="none" stroke="black" d="M2493.33,-148.997C2482.99,-147.022 2472.19,-145.223 2462,-144 2056.15,-95.3027 1948.85,-156.697 1543,-108 1536.15,-107.178 1529.03,-106.097 1521.96,-104.876"/>
<polygon fill="black" stroke="black" points="1522.13,-101.351 1511.67,-103.003 1520.88,-108.237 1522.13,-101.351"/>
</g>
<!-- g0 -->
<g id="node13" class="node"><title>g0</title>
<a xlink:href="0005515" xlink:title="GO:0005515 (27)">
<ellipse fill="#e98576" stroke="#e98576" cx="1632" cy="-90" rx="79.4447" ry="18"/>
<text text-anchor="middle" x="1632" y="-85.8" font-family="Times,serif" font-size="14.00">GO:0005515 (27)</text>
</a>
</g>
<!-- b0&#45;&gt;g0 -->
<g id="edge10" class="edge"><title>b0&#45;&gt;g0</title>
<path fill="none" stroke="black" d="M2493.33,-149.074C2482.99,-147.092 2472.19,-145.271 2462,-144 2134.81,-103.182 2048.4,-147.027 1721,-108 1713.42,-107.097 1705.52,-105.925 1697.69,-104.62"/>
<polygon fill="black" stroke="black" points="1698.29,-101.171 1687.84,-102.904 1697.09,-108.068 1698.29,-101.171"/>
</g>
<!-- h1 -->
<g id="node19" class="node"><title>h1</title>
<a xlink:href="0005496" xlink:title="GO:0005496 (1)">
<ellipse fill="#e98576" stroke="#e98576" cx="1805" cy="-90" rx="75.2018" ry="18"/>
<text text-anchor="middle" x="1805" y="-85.8" font-family="Times,serif" font-size="14.00">GO:0005496 (1)</text>
</a>
</g>
<!-- b0&#45;&gt;h1 -->
<g id="edge16" class="edge"><title>b0&#45;&gt;h1</title>
<path fill="none" stroke="black" d="M2492.86,-149.103C2482.66,-147.144 2472.03,-145.324 2462,-144 2209.02,-110.614 2141.98,-141.386 1889,-108 1882.26,-107.111 1875.25,-105.997 1868.28,-104.768"/>
<polygon fill="black" stroke="black" points="1868.61,-101.269 1858.14,-102.897 1867.34,-108.153 1868.61,-101.269"/>
</g>
<!-- a0 -->
<g id="node26" class="node"><title>a0</title>
<a xlink:href="0043167" xlink:title="GO:0043167 (67)">
<ellipse fill="#e98576" stroke="#e98576" cx="1978" cy="-90" rx="79.4447" ry="18"/>
<text text-anchor="middle" x="1978" y="-85.8" font-family="Times,serif" font-size="14.00">GO:0043167 (67)</text>
</a>
</g>
<!-- b0&#45;&gt;a0 -->
<g id="edge22" class="edge"><title>b0&#45;&gt;a0</title>
<path fill="none" stroke="black" d="M2492.38,-149.244C2482.32,-147.296 2471.86,-145.443 2462,-144 2287.57,-118.479 2241.56,-132.566 2067,-108 2059.82,-106.99 2052.35,-105.793 2044.92,-104.51"/>
<polygon fill="black" stroke="black" points="2045.3,-101.022 2034.84,-102.714 2044.07,-107.914 2045.3,-101.022"/>
</g>
<!-- e1 -->
<g id="node28" class="node"><title>e1</title>
<a xlink:href="0043176" xlink:title="GO:0043176">
<ellipse fill="#dddddd" stroke="#dddddd" cx="2137" cy="-90" rx="61.1934" ry="18"/>
<text text-anchor="middle" x="2137" y="-85.8" font-family="Times,serif" font-size="14.00">GO:0043176</text>
</a>
</g>
<!-- b0&#45;&gt;e1 -->
<g id="edge24" class="edge"><title>b0&#45;&gt;e1</title>
<path fill="none" stroke="black" d="M2491.41,-149.468C2481.64,-147.541 2471.53,-145.639 2462,-144 2349.63,-124.683 2320.01,-129.298 2208,-108 2202.71,-106.994 2197.22,-105.853 2191.74,-104.65"/>
<polygon fill="black" stroke="black" points="2192.46,-101.225 2181.93,-102.434 2190.92,-108.053 2192.46,-101.225"/>
</g>
<!-- n0 -->
<g id="node31" class="node"><title>n0</title>
<a xlink:href="0030246" xlink:title="GO:0030246 (8)">
<ellipse fill="#e98576" stroke="#e98576" cx="2292" cy="-90" rx="75.2018" ry="18"/>
<text text-anchor="middle" x="2292" y="-85.8" font-family="Times,serif" font-size="14.00">GO:0030246 (8)</text>
</a>
</g>
<!-- b0&#45;&gt;n0 -->
<g id="edge28" class="edge"><title>b0&#45;&gt;n0</title>
<path fill="none" stroke="black" d="M2498.82,-147.998C2456.45,-136.321 2394.15,-119.151 2349,-106.71"/>
<polygon fill="black" stroke="black" points="2349.93,-103.334 2339.36,-104.051 2348.07,-110.083 2349.93,-103.334"/>
</g>
<!-- p0 -->
<g id="node35" class="node"><title>p0</title>
<a xlink:href="0003676" xlink:title="GO:0003676 (6)">
<ellipse fill="#e98576" stroke="#e98576" cx="2460" cy="-90" rx="75.2018" ry="18"/>
<text text-anchor="middle" x="2460" y="-85.8" font-family="Times,serif" font-size="14.00">GO:0003676 (6)</text>
</a>
</g>
<!-- b0&#45;&gt;p0 -->
<g id="edge32" class="edge"><title>b0&#45;&gt;p0</title>
<path fill="none" stroke="black" d="M2525.62,-144.411C2514.48,-135.345 2500.51,-123.974 2488.33,-114.057"/>
<polygon fill="black" stroke="black" points="2490.2,-111.068 2480.23,-107.47 2485.78,-116.497 2490.2,-111.068"/>
</g>
<!-- h0 -->
<g id="node40" class="node"><title>h0</title>
<a xlink:href="0048037" xlink:title="GO:0048037 (25)">
<ellipse fill="#e98576" stroke="#e98576" cx="2633" cy="-90" rx="79.4447" ry="18"/>
<text text-anchor="middle" x="2633" y="-85.8" font-family="Times,serif" font-size="14.00">GO:0048037 (25)</text>
</a>
</g>
<!-- b0&#45;&gt;h0 -->
<g id="edge38" class="edge"><title>b0&#45;&gt;h0</title>
<path fill="none" stroke="black" d="M2566.62,-144.411C2577.99,-135.257 2592.29,-123.755 2604.7,-113.772"/>
<polygon fill="black" stroke="black" points="2606.93,-116.466 2612.53,-107.47 2602.54,-111.012 2606.93,-116.466"/>
</g>
<!-- v0 -->
<g id="node44" class="node"><title>v0</title>
<a xlink:href="0008289" xlink:title="GO:0008289 (4)">
<ellipse fill="#e98576" stroke="#e98576" cx="2806" cy="-90" rx="75.2018" ry="18"/>
<text text-anchor="middle" x="2806" y="-85.8" font-family="Times,serif" font-size="14.00">GO:0008289 (4)</text>
</a>
</g>
<!-- b0&#45;&gt;v0 -->
<g id="edge42" class="edge"><title>b0&#45;&gt;v0</title>
<path fill="none" stroke="black" d="M2593.99,-148.079C2637.46,-136.376 2701.61,-119.105 2747.95,-106.629"/>
<polygon fill="black" stroke="black" points="2749.1,-109.943 2757.85,-103.964 2747.28,-103.184 2749.1,-109.943"/>
</g>
<!-- j0 -->
<g id="node47" class="node"><title>j0</title>
<a xlink:href="0001882" xlink:title="GO:0001882 (18)">
<ellipse fill="#e98576" stroke="#e98576" cx="2979" cy="-90" rx="79.4447" ry="18"/>
<text text-anchor="middle" x="2979" y="-85.8" font-family="Times,serif" font-size="14.00">GO:0001882 (18)</text>
</a>
</g>
<!-- b0&#45;&gt;j0 -->
<g id="edge46" class="edge"><title>b0&#45;&gt;j0</title>
<path fill="none" stroke="black" d="M2600.58,-149.442C2610.36,-147.518 2620.47,-145.623 2630,-144 2745,-124.42 2774.89,-126.95 2890,-108 2896.78,-106.884 2903.83,-105.654 2910.88,-104.382"/>
<polygon fill="black" stroke="black" points="2911.94,-107.744 2921.15,-102.495 2910.68,-100.859 2911.94,-107.744"/>
</g>
<!-- y0 -->
<g id="node49" class="node"><title>y0</title>
<a xlink:href="0019842" xlink:title="GO:0019842 (4)">
<ellipse fill="#e98576" stroke="#e98576" cx="3152" cy="-90" rx="75.2018" ry="18"/>
<text text-anchor="middle" x="3152" y="-85.8" font-family="Times,serif" font-size="14.00">GO:0019842 (4)</text>
</a>
</g>
<!-- b0&#45;&gt;y0 -->
<g id="edge48" class="edge"><title>b0&#45;&gt;y0</title>
<path fill="none" stroke="black" d="M2599.16,-149.261C2609.36,-147.287 2619.98,-145.421 2630,-144 2822.95,-116.625 2874.02,-135.155 3067,-108 3073.81,-107.042 3080.89,-105.884 3087.94,-104.629"/>
<polygon fill="black" stroke="black" points="3089,-107.992 3098.2,-102.732 3087.73,-101.109 3089,-107.992"/>
</g>
<!-- i1 -->
<g id="node58" class="node"><title>i1</title>
<a xlink:href="0031406" xlink:title="GO:0031406 (1)">
<ellipse fill="#e98576" stroke="#e98576" cx="3320" cy="-90" rx="75.2018" ry="18"/>
<text text-anchor="middle" x="3320" y="-85.8" font-family="Times,serif" font-size="14.00">GO:0031406 (1)</text>
</a>
</g>
<!-- b0&#45;&gt;i1 -->
<g id="edge56" class="edge"><title>b0&#45;&gt;i1</title>
<path fill="none" stroke="black" d="M2598.69,-149.162C2609.02,-147.172 2619.82,-145.326 2630,-144 2897.55,-109.155 2968.45,-142.845 3236,-108 3242.84,-107.109 3249.96,-105.983 3257.03,-104.737"/>
<polygon fill="black" stroke="black" points="3258.12,-108.096 3267.31,-102.838 3256.84,-101.212 3258.12,-108.096"/>
</g>
<!-- m0 -->
<g id="node66" class="node"><title>m0</title>
<a xlink:href="0046906" xlink:title="GO:0046906 (9)">
<ellipse fill="#e98576" stroke="#e98576" cx="3488" cy="-90" rx="75.2018" ry="18"/>
<text text-anchor="middle" x="3488" y="-85.8" font-family="Times,serif" font-size="14.00">GO:0046906 (9)</text>
</a>
</g>
<!-- b0&#45;&gt;m0 -->
<g id="edge64" class="edge"><title>b0&#45;&gt;m0</title>
<path fill="none" stroke="black" d="M2598.67,-149.057C2609.01,-147.076 2619.81,-145.26 2630,-144 2971.77,-101.721 3062.23,-150.279 3404,-108 3410.85,-107.153 3417.97,-106.056 3425.04,-104.826"/>
<polygon fill="black" stroke="black" points="3426.12,-108.186 3435.33,-102.943 3424.86,-101.3 3426.12,-108.186"/>
</g>
<!-- f0 -->
<g id="node68" class="node"><title>f0</title>
<a xlink:href="0000166" xlink:title="GO:0000166 (31)">
<ellipse fill="#e98576" stroke="#e98576" cx="3661" cy="-90" rx="79.4447" ry="18"/>
<text text-anchor="middle" x="3661" y="-85.8" font-family="Times,serif" font-size="14.00">GO:0000166 (31)</text>
</a>
</g>
<!-- b0&#45;&gt;f0 -->
<g id="edge66" class="edge"><title>b0&#45;&gt;f0</title>
<path fill="none" stroke="black" d="M2598.66,-148.989C2609,-147.015 2619.81,-145.218 2630,-144 3046.01,-94.2845 3155.72,-155.438 3572,-108 3579.5,-107.145 3587.31,-106.014 3595.06,-104.74"/>
<polygon fill="black" stroke="black" points="3595.92,-108.144 3605.17,-102.993 3594.72,-101.246 3595.92,-108.144"/>
</g>
<!-- w0 -->
<g id="node72" class="node"><title>w0</title>
<a xlink:href="0051540" xlink:title="GO:0051540 (4)">
<ellipse fill="#e98576" stroke="#e98576" cx="3834" cy="-90" rx="75.2018" ry="18"/>
<text text-anchor="middle" x="3834" y="-85.8" font-family="Times,serif" font-size="14.00">GO:0051540 (4)</text>
</a>
</g>
<!-- b0&#45;&gt;w0 -->
<g id="edge70" class="edge"><title>b0&#45;&gt;w0</title>
<path fill="none" stroke="black" d="M2598.21,-149.026C2608.69,-147.022 2619.65,-145.205 2630,-144 3124.25,-86.4473 3254.68,-164.987 3749,-108 3756.19,-107.171 3763.69,-106.052 3771.11,-104.783"/>
<polygon fill="black" stroke="black" points="3771.94,-108.19 3781.16,-102.971 3770.7,-101.301 3771.94,-108.19"/>
</g>
<!-- r0 -->
<g id="node17" class="node"><title>r0</title>
<a xlink:href="0008233" xlink:title="GO:0008233 (5)">
<ellipse fill="#e98576" stroke="#e98576" cx="169" cy="-18" rx="75.2018" ry="18"/>
<text text-anchor="middle" x="169" y="-13.8" font-family="Times,serif" font-size="14.00">GO:0008233 (5)</text>
</a>
</g>
<!-- l0&#45;&gt;r0 -->
<g id="edge14" class="edge"><title>l0&#45;&gt;r0</title>
<path fill="none" stroke="black" d="M229.278,-72.411C219.144,-63.4318 206.46,-52.1926 195.345,-42.3436"/>
<polygon fill="black" stroke="black" points="197.393,-39.4823 187.588,-35.4699 192.751,-44.7214 197.393,-39.4823"/>
</g>
<!-- t0 -->
<g id="node22" class="node"><title>t0</title>
<a xlink:href="0004497" xlink:title="GO:0004497 (5)">
<ellipse fill="#e98576" stroke="#e98576" cx="337" cy="-18" rx="75.2018" ry="18"/>
<text text-anchor="middle" x="337" y="-13.8" font-family="Times,serif" font-size="14.00">GO:0004497 (5)</text>
</a>
</g>
<!-- d0&#45;&gt;t0 -->
<g id="edge18" class="edge"><title>d0&#45;&gt;t0</title>
<path fill="none" stroke="black" d="M404.908,-72.411C393.27,-63.2575 378.646,-51.7553 365.952,-41.7715"/>
<polygon fill="black" stroke="black" points="367.964,-38.9011 357.94,-35.4699 363.637,-44.4031 367.964,-38.9011"/>
</g>
<!-- s0 -->
<g id="node42" class="node"><title>s0</title>
<a xlink:href="0051213" xlink:title="GO:0051213 (5)">
<ellipse fill="#e98576" stroke="#e98576" cx="505" cy="-18" rx="75.2018" ry="18"/>
<text text-anchor="middle" x="505" y="-13.8" font-family="Times,serif" font-size="14.00">GO:0051213 (5)</text>
</a>
</g>
<!-- d0&#45;&gt;s0 -->
<g id="edge40" class="edge"><title>d0&#45;&gt;s0</title>
<path fill="none" stroke="black" d="M444.722,-72.411C454.856,-63.4318 467.54,-52.1926 478.655,-42.3436"/>
<polygon fill="black" stroke="black" points="481.249,-44.7214 486.412,-35.4699 476.607,-39.4823 481.249,-44.7214"/>
</g>
<!-- u0 -->
<g id="node62" class="node"><title>u0</title>
<a xlink:href="0009055" xlink:title="GO:0009055 (4)">
<ellipse fill="#e98576" stroke="#e98576" cx="673" cy="-18" rx="75.2018" ry="18"/>
<text text-anchor="middle" x="673" y="-13.8" font-family="Times,serif" font-size="14.00">GO:0009055 (4)</text>
</a>
</g>
<!-- d0&#45;&gt;u0 -->
<g id="edge60" class="edge"><title>d0&#45;&gt;u0</title>
<path fill="none" stroke="black" d="M473.624,-75.5033C514.462,-63.9299 573.371,-47.2351 616.567,-34.9931"/>
<polygon fill="black" stroke="black" points="617.693,-38.312 626.36,-32.2179 615.784,-31.5772 617.693,-38.312"/>
</g>
<!-- d1 -->
<g id="node51" class="node"><title>d1</title>
<a xlink:href="0016597" xlink:title="GO:0016597 (1)">
<ellipse fill="#e98576" stroke="#e98576" cx="2137" cy="-18" rx="75.2018" ry="18"/>
<text text-anchor="middle" x="2137" y="-13.8" font-family="Times,serif" font-size="14.00">GO:0016597 (1)</text>
</a>
</g>
<!-- e1&#45;&gt;d1 -->
<g id="edge50" class="edge"><title>e1&#45;&gt;d1</title>
<path fill="none" stroke="black" d="M2137,-71.6966C2137,-63.9827 2137,-54.7125 2137,-46.1124"/>
<polygon fill="black" stroke="black" points="2140.5,-46.1043 2137,-36.1043 2133.5,-46.1044 2140.5,-46.1043"/>
</g>
<!-- f1 -->
<g id="node54" class="node"><title>f1</title>
<a xlink:href="0004871" xlink:title="GO:0004871 (1)">
<ellipse fill="#e98576" stroke="#e98576" cx="4002" cy="-90" rx="75.2018" ry="18"/>
<text text-anchor="middle" x="4002" y="-85.8" font-family="Times,serif" font-size="14.00">GO:0004871 (1)</text>
</a>
</g>
<!-- g1&#45;&gt;f1 -->
<g id="edge52" class="edge"><title>g1&#45;&gt;f1</title>
<path fill="none" stroke="black" d="M3080.31,-149.247C3089.39,-147.172 3098.96,-145.271 3108,-144 3464.84,-93.817 3560.33,-151.872 3918,-108 3924.85,-107.16 3931.97,-106.067 3939.04,-104.84"/>
<polygon fill="black" stroke="black" points="3940.12,-108.2 3949.33,-102.96 3938.86,-101.314 3940.12,-108.2"/>
</g>
</g>
</svg>
