<?xml version="1.0" encoding="UTF-8" standalone="no"?>
<!DOCTYPE svg PUBLIC "-//W3C//DTD SVG 1.1//EN"
 "http://www.w3.org/Graphics/SVG/1.1/DTD/svg11.dtd">
<!-- Generated by graphviz version 2.28.0 (20110622.2320)
 -->
<!-- Title: G Pages: 1 -->
<svg width="4372pt" height="404pt"
 viewBox="0.00 0.00 4372.00 404.00" xmlns="http://www.w3.org/2000/svg" xmlns:xlink="http://www.w3.org/1999/xlink">
<g id="graph1" class="graph" transform="scale(1 1) rotate(0) translate(4 400)">
<title>G</title>
<polygon fill="white" stroke="white" points="-4,5 -4,-400 4369,-400 4369,5 -4,5"/>
<!-- c0 -->
<g id="node1" class="node"><title>c0</title>
<a xlink:href="0003674" xlink:title="GO:0003674 (1)">
<ellipse fill="#e98576" stroke="#e98576" cx="3532" cy="-378" rx="75.2018" ry="18"/>
<text text-anchor="middle" x="3532" y="-373.8" font-family="Times,serif" font-size="14.00">GO:0003674 (1)</text>
</a>
</g>
<!-- e1 -->
<g id="node3" class="node"><title>e1</title>
<a xlink:href="0045182" xlink:title="GO:0045182 (1)">
<ellipse fill="#e98576" stroke="#e98576" cx="1506" cy="-306" rx="75.2018" ry="18"/>
<text text-anchor="middle" x="1506" y="-301.8" font-family="Times,serif" font-size="14.00">GO:0045182 (1)</text>
</a>
</g>
<!-- c0&#45;&gt;e1 -->
<g id="edge2" class="edge"><title>c0&#45;&gt;e1</title>
<path fill="none" stroke="black" d="M3456.97,-376.682C3146.54,-375.098 1961.55,-366.347 1590,-324 1582.89,-323.189 1575.48,-322.082 1568.14,-320.82"/>
<polygon fill="black" stroke="black" points="1568.67,-317.359 1558.2,-319.014 1567.42,-324.246 1568.67,-317.359"/>
</g>
<!-- q0 -->
<g id="node5" class="node"><title>q0</title>
<a xlink:href="0030234" xlink:title="GO:0030234 (3)">
<ellipse fill="#e98576" stroke="#e98576" cx="1674" cy="-306" rx="75.2018" ry="18"/>
<text text-anchor="middle" x="1674" y="-301.8" font-family="Times,serif" font-size="14.00">GO:0030234 (3)</text>
</a>
</g>
<!-- c0&#45;&gt;q0 -->
<g id="edge4" class="edge"><title>c0&#45;&gt;q0</title>
<path fill="none" stroke="black" d="M3457.1,-376.457C3164.06,-374.072 2094.9,-362.838 1758,-324 1750.89,-323.18 1743.48,-322.067 1736.14,-320.801"/>
<polygon fill="black" stroke="black" points="1736.67,-317.341 1726.21,-318.993 1735.42,-324.228 1736.67,-317.341"/>
</g>
<!-- b0 -->
<g id="node6" class="node"><title>b0</title>
<a xlink:href="0005488" xlink:title="GO:0005488 (2)">
<ellipse fill="#e98576" stroke="#e98576" cx="1842" cy="-306" rx="75.2018" ry="18"/>
<text text-anchor="middle" x="1842" y="-301.8" font-family="Times,serif" font-size="14.00">GO:0005488 (2)</text>
</a>
</g>
<!-- c0&#45;&gt;b0 -->
<g id="edge12" class="edge"><title>c0&#45;&gt;b0</title>
<path fill="none" stroke="black" d="M3458.57,-373.958C3183.63,-362.571 2215.99,-322.491 1925.23,-310.448"/>
<polygon fill="black" stroke="black" points="1925.31,-306.948 1915.18,-310.031 1925.03,-313.942 1925.31,-306.948"/>
</g>
<!-- t0 -->
<g id="node18" class="node"><title>t0</title>
<a xlink:href="0005215" xlink:title="GO:0005215 (2)">
<ellipse fill="#e98576" stroke="#e98576" cx="3364" cy="-306" rx="75.2018" ry="18"/>
<text text-anchor="middle" x="3364" y="-301.8" font-family="Times,serif" font-size="14.00">GO:0005215 (2)</text>
</a>
</g>
<!-- c0&#45;&gt;t0 -->
<g id="edge16" class="edge"><title>c0&#45;&gt;t0</title>
<path fill="none" stroke="black" d="M3496.37,-362.155C3470.95,-351.564 3436.57,-337.239 3409.22,-325.842"/>
<polygon fill="black" stroke="black" points="3410.44,-322.56 3399.87,-321.944 3407.75,-329.021 3410.44,-322.56"/>
</g>
<!-- h0 -->
<g id="node23" class="node"><title>h0</title>
<a xlink:href="0003824" xlink:title="GO:0003824 (3)">
<ellipse fill="#e98576" stroke="#e98576" cx="3532" cy="-306" rx="75.2018" ry="18"/>
<text text-anchor="middle" x="3532" y="-301.8" font-family="Times,serif" font-size="14.00">GO:0003824 (3)</text>
</a>
</g>
<!-- c0&#45;&gt;h0 -->
<g id="edge52" class="edge"><title>c0&#45;&gt;h0</title>
<path fill="none" stroke="black" d="M3532,-359.697C3532,-351.983 3532,-342.712 3532,-334.112"/>
<polygon fill="black" stroke="black" points="3535.5,-334.104 3532,-324.104 3528.5,-334.104 3535.5,-334.104"/>
</g>
<!-- k0 -->
<g id="node36" class="node"><title>k0</title>
<a xlink:href="0005198" xlink:title="GO:0005198 (6)">
<ellipse fill="#e98576" stroke="#e98576" cx="3700" cy="-306" rx="75.2018" ry="18"/>
<text text-anchor="middle" x="3700" y="-301.8" font-family="Times,serif" font-size="14.00">GO:0005198 (6)</text>
</a>
</g>
<!-- c0&#45;&gt;k0 -->
<g id="edge34" class="edge"><title>c0&#45;&gt;k0</title>
<path fill="none" stroke="black" d="M3567.63,-362.155C3593.05,-351.564 3627.43,-337.239 3654.78,-325.842"/>
<polygon fill="black" stroke="black" points="3656.25,-329.021 3664.13,-321.944 3653.56,-322.56 3656.25,-329.021"/>
</g>
<!-- m1 -->
<g id="node63" class="node"><title>m1</title>
<a xlink:href="0003774" xlink:title="GO:0003774 (1)">
<ellipse fill="#e98576" stroke="#e98576" cx="3868" cy="-306" rx="75.2018" ry="18"/>
<text text-anchor="middle" x="3868" y="-301.8" font-family="Times,serif" font-size="14.00">GO:0003774 (1)</text>
</a>
</g>
<!-- c0&#45;&gt;m1 -->
<g id="edge60" class="edge"><title>c0&#45;&gt;m1</title>
<path fill="none" stroke="black" d="M3586.73,-365.597C3646.04,-353.242 3740.6,-333.541 3803.48,-320.441"/>
<polygon fill="black" stroke="black" points="3804.22,-323.864 3813.29,-318.398 3802.79,-317.011 3804.22,-323.864"/>
</g>
<!-- x0 -->
<g id="node66" class="node"><title>x0</title>
<a xlink:href="0060089" xlink:title="GO:0060089">
<ellipse fill="#dddddd" stroke="#dddddd" cx="4023" cy="-306" rx="61.1934" ry="18"/>
<text text-anchor="middle" x="4023" y="-301.8" font-family="Times,serif" font-size="14.00">GO:0060089</text>
</a>
</g>
<!-- c0&#45;&gt;x0 -->
<g id="edge82" class="edge"><title>c0&#45;&gt;x0</title>
<path fill="none" stroke="black" d="M3600.74,-370.659C3684.2,-362.423 3829.08,-346.401 3952,-324 3957.38,-323.02 3962.96,-321.888 3968.52,-320.682"/>
<polygon fill="black" stroke="black" points="3969.48,-324.055 3978.47,-318.451 3967.94,-317.225 3969.48,-324.055"/>
</g>
<!-- o0 -->
<g id="node69" class="node"><title>o0</title>
<a xlink:href="0016209" xlink:title="GO:0016209 (3)">
<ellipse fill="#e98576" stroke="#e98576" cx="4178" cy="-306" rx="75.2018" ry="18"/>
<text text-anchor="middle" x="4178" y="-301.8" font-family="Times,serif" font-size="14.00">GO:0016209 (3)</text>
</a>
</g>
<!-- c0&#45;&gt;o0 -->
<g id="edge66" class="edge"><title>c0&#45;&gt;o0</title>
<path fill="none" stroke="black" d="M3604.02,-372.583C3711.06,-365.48 3918.29,-349.654 4093,-324 4099.8,-323.001 4106.88,-321.817 4113.93,-320.546"/>
<polygon fill="black" stroke="black" points="4115,-323.907 4124.19,-318.633 4113.71,-317.026 4115,-323.907"/>
</g>
<!-- p1 -->
<g id="node8" class="node"><title>p1</title>
<a xlink:href="0019825" xlink:title="GO:0019825 (1)">
<ellipse fill="#e98576" stroke="#e98576" cx="75" cy="-234" rx="75.2018" ry="18"/>
<text text-anchor="middle" x="75" y="-229.8" font-family="Times,serif" font-size="14.00">GO:0019825 (1)</text>
</a>
</g>
<!-- b0&#45;&gt;p1 -->
<g id="edge6" class="edge"><title>b0&#45;&gt;p1</title>
<path fill="none" stroke="black" d="M1789.8,-292.947C1779.32,-290.949 1768.35,-289.155 1758,-288 1051.54,-209.189 865.464,-330.811 159,-252 151.884,-251.206 144.474,-250.11 137.134,-248.853"/>
<polygon fill="black" stroke="black" points="137.664,-245.392 127.2,-247.053 136.416,-252.28 137.664,-245.392"/>
</g>
<!-- a0 -->
<g id="node10" class="node"><title>a0</title>
<a xlink:href="0005515" xlink:title="GO:0005515 (30)">
<ellipse fill="#e98576" stroke="#e98576" cx="248" cy="-234" rx="79.4447" ry="18"/>
<text text-anchor="middle" x="248" y="-229.8" font-family="Times,serif" font-size="14.00">GO:0005515 (30)</text>
</a>
</g>
<!-- b0&#45;&gt;a0 -->
<g id="edge8" class="edge"><title>b0&#45;&gt;a0</title>
<path fill="none" stroke="black" d="M1789.8,-292.97C1779.32,-290.97 1768.35,-289.169 1758,-288 1130.24,-217.073 965.143,-319.49 337,-252 329.302,-251.173 321.274,-250.035 313.328,-248.738"/>
<polygon fill="black" stroke="black" points="313.786,-245.265 303.337,-247.019 312.599,-252.164 313.786,-245.265"/>
</g>
<!-- p0 -->
<g id="node12" class="node"><title>p0</title>
<a xlink:href="0043021" xlink:title="GO:0043021 (3)">
<ellipse fill="#e98576" stroke="#e98576" cx="421" cy="-234" rx="75.2018" ry="18"/>
<text text-anchor="middle" x="421" y="-229.8" font-family="Times,serif" font-size="14.00">GO:0043021 (3)</text>
</a>
</g>
<!-- b0&#45;&gt;p0 -->
<g id="edge10" class="edge"><title>b0&#45;&gt;p0</title>
<path fill="none" stroke="black" d="M1789.79,-292.998C1779.32,-290.996 1768.35,-289.187 1758,-288 1204.51,-224.513 1058.49,-315.487 505,-252 497.886,-251.184 490.478,-250.074 483.139,-248.809"/>
<polygon fill="black" stroke="black" points="483.671,-245.349 473.206,-247.002 482.418,-252.236 483.671,-245.349"/>
</g>
<!-- d0 -->
<g id="node20" class="node"><title>d0</title>
<a xlink:href="0043167" xlink:title="GO:0043167 (13)">
<ellipse fill="#e98576" stroke="#e98576" cx="594" cy="-234" rx="79.4447" ry="18"/>
<text text-anchor="middle" x="594" y="-229.8" font-family="Times,serif" font-size="14.00">GO:0043167 (13)</text>
</a>
</g>
<!-- b0&#45;&gt;d0 -->
<g id="edge18" class="edge"><title>b0&#45;&gt;d0</title>
<path fill="none" stroke="black" d="M1789.79,-293.037C1779.31,-291.031 1768.34,-289.211 1758,-288 1283.2,-232.396 1158.1,-305.005 683,-252 675.305,-251.142 667.28,-249.985 659.334,-248.676"/>
<polygon fill="black" stroke="black" points="659.795,-245.204 649.345,-246.948 658.602,-252.102 659.795,-245.204"/>
</g>
<!-- h1 -->
<g id="node22" class="node"><title>h1</title>
<a xlink:href="0043176" xlink:title="GO:0043176">
<ellipse fill="#dddddd" stroke="#dddddd" cx="753" cy="-234" rx="61.1934" ry="18"/>
<text text-anchor="middle" x="753" y="-229.8" font-family="Times,serif" font-size="14.00">GO:0043176</text>
</a>
</g>
<!-- b0&#45;&gt;h1 -->
<g id="edge20" class="edge"><title>b0&#45;&gt;h1</title>
<path fill="none" stroke="black" d="M1789.34,-292.992C1778.99,-291.017 1768.19,-289.22 1758,-288 1345.52,-238.639 1235.54,-308.639 824,-252 818.208,-251.203 812.199,-250.141 806.238,-248.936"/>
<polygon fill="black" stroke="black" points="806.812,-245.48 796.299,-246.794 805.337,-252.322 806.812,-245.48"/>
</g>
<!-- k1 -->
<g id="node26" class="node"><title>k1</title>
<a xlink:href="0043178" xlink:title="GO:0043178 (1)">
<ellipse fill="#e98576" stroke="#e98576" cx="908" cy="-234" rx="75.2018" ry="18"/>
<text text-anchor="middle" x="908" y="-229.8" font-family="Times,serif" font-size="14.00">GO:0043178 (1)</text>
</a>
</g>
<!-- b0&#45;&gt;k1 -->
<g id="edge24" class="edge"><title>b0&#45;&gt;k1</title>
<path fill="none" stroke="black" d="M1789.33,-293.061C1778.99,-291.08 1768.19,-289.263 1758,-288 1419.77,-246.075 1330.23,-293.925 992,-252 985.155,-251.151 978.034,-250.053 970.962,-248.822"/>
<polygon fill="black" stroke="black" points="971.14,-245.297 960.673,-246.939 969.88,-252.183 971.14,-245.297"/>
</g>
<!-- e0 -->
<g id="node30" class="node"><title>e0</title>
<a xlink:href="0003676" xlink:title="GO:0003676 (13)">
<ellipse fill="#e98576" stroke="#e98576" cx="1081" cy="-234" rx="79.4447" ry="18"/>
<text text-anchor="middle" x="1081" y="-229.8" font-family="Times,serif" font-size="14.00">GO:0003676 (13)</text>
</a>
</g>
<!-- b0&#45;&gt;e0 -->
<g id="edge28" class="edge"><title>b0&#45;&gt;e0</title>
<path fill="none" stroke="black" d="M1789.31,-293.176C1778.97,-291.186 1768.18,-289.335 1758,-288 1498.4,-253.951 1429.78,-284.628 1170,-252 1162.62,-251.073 1154.93,-249.909 1147.3,-248.626"/>
<polygon fill="black" stroke="black" points="1147.78,-245.157 1137.33,-246.882 1146.57,-252.053 1147.78,-245.157"/>
</g>
<!-- o1 -->
<g id="node38" class="node"><title>o1</title>
<a xlink:href="0003682" xlink:title="GO:0003682 (1)">
<ellipse fill="#e98576" stroke="#e98576" cx="1254" cy="-234" rx="75.2018" ry="18"/>
<text text-anchor="middle" x="1254" y="-229.8" font-family="Times,serif" font-size="14.00">GO:0003682 (1)</text>
</a>
</g>
<!-- b0&#45;&gt;o1 -->
<g id="edge36" class="edge"><title>b0&#45;&gt;o1</title>
<path fill="none" stroke="black" d="M1788.84,-293.287C1778.64,-291.311 1768.02,-289.438 1758,-288 1572.55,-261.375 1523.45,-278.625 1338,-252 1331.27,-251.034 1324.27,-249.871 1317.3,-248.613"/>
<polygon fill="black" stroke="black" points="1317.64,-245.115 1307.16,-246.713 1316.35,-251.995 1317.64,-245.115"/>
</g>
<!-- l0 -->
<g id="node40" class="node"><title>l0</title>
<a xlink:href="0048037" xlink:title="GO:0048037 (5)">
<ellipse fill="#e98576" stroke="#e98576" cx="1422" cy="-234" rx="75.2018" ry="18"/>
<text text-anchor="middle" x="1422" y="-229.8" font-family="Times,serif" font-size="14.00">GO:0048037 (5)</text>
</a>
</g>
<!-- b0&#45;&gt;l0 -->
<g id="edge38" class="edge"><title>b0&#45;&gt;l0</title>
<path fill="none" stroke="black" d="M1787.41,-293.476C1777.64,-291.549 1767.53,-289.644 1758,-288 1646.51,-268.771 1617.49,-271.229 1506,-252 1499.75,-250.921 1493.24,-249.73 1486.75,-248.494"/>
<polygon fill="black" stroke="black" points="1487.07,-244.991 1476.59,-246.524 1485.74,-251.863 1487.07,-244.991"/>
</g>
<!-- l1 -->
<g id="node42" class="node"><title>l1</title>
<a xlink:href="0003823" xlink:title="GO:0003823 (1)">
<ellipse fill="#e98576" stroke="#e98576" cx="1590" cy="-234" rx="75.2018" ry="18"/>
<text text-anchor="middle" x="1590" y="-229.8" font-family="Times,serif" font-size="14.00">GO:0003823 (1)</text>
</a>
</g>
<!-- b0&#45;&gt;l1 -->
<g id="edge40" class="edge"><title>b0&#45;&gt;l1</title>
<path fill="none" stroke="black" d="M1794.9,-291.916C1753.05,-280.29 1691.76,-263.267 1647.13,-250.868"/>
<polygon fill="black" stroke="black" points="1647.87,-247.443 1637.3,-248.139 1646,-254.188 1647.87,-247.443"/>
</g>
<!-- j1 -->
<g id="node44" class="node"><title>j1</title>
<a xlink:href="0050840" xlink:title="GO:0050840 (1)">
<ellipse fill="#e98576" stroke="#e98576" cx="1758" cy="-234" rx="75.2018" ry="18"/>
<text text-anchor="middle" x="1758" y="-229.8" font-family="Times,serif" font-size="14.00">GO:0050840 (1)</text>
</a>
</g>
<!-- b0&#45;&gt;j1 -->
<g id="edge42" class="edge"><title>b0&#45;&gt;j1</title>
<path fill="none" stroke="black" d="M1822.09,-288.411C1811.21,-279.345 1797.57,-267.974 1785.67,-258.057"/>
<polygon fill="black" stroke="black" points="1787.69,-255.183 1777.76,-251.47 1783.21,-260.561 1787.69,-255.183"/>
</g>
<!-- n0 -->
<g id="node49" class="node"><title>n0</title>
<a xlink:href="0008289" xlink:title="GO:0008289 (3)">
<ellipse fill="#e98576" stroke="#e98576" cx="1926" cy="-234" rx="75.2018" ry="18"/>
<text text-anchor="middle" x="1926" y="-229.8" font-family="Times,serif" font-size="14.00">GO:0008289 (3)</text>
</a>
</g>
<!-- b0&#45;&gt;n0 -->
<g id="edge46" class="edge"><title>b0&#45;&gt;n0</title>
<path fill="none" stroke="black" d="M1861.91,-288.411C1872.79,-279.345 1886.43,-267.974 1898.33,-258.057"/>
<polygon fill="black" stroke="black" points="1900.79,-260.561 1906.24,-251.47 1896.31,-255.183 1900.79,-260.561"/>
</g>
<!-- j0 -->
<g id="node57" class="node"><title>j0</title>
<a xlink:href="0001882" xlink:title="GO:0001882 (7)">
<ellipse fill="#e98576" stroke="#e98576" cx="2094" cy="-234" rx="75.2018" ry="18"/>
<text text-anchor="middle" x="2094" y="-229.8" font-family="Times,serif" font-size="14.00">GO:0001882 (7)</text>
</a>
</g>
<!-- b0&#45;&gt;j0 -->
<g id="edge54" class="edge"><title>b0&#45;&gt;j0</title>
<path fill="none" stroke="black" d="M1889.1,-291.916C1930.95,-280.29 1992.24,-263.267 2036.87,-250.868"/>
<polygon fill="black" stroke="black" points="2038,-254.188 2046.7,-248.139 2036.13,-247.443 2038,-254.188"/>
</g>
<!-- f1 -->
<g id="node59" class="node"><title>f1</title>
<a xlink:href="0008144" xlink:title="GO:0008144 (1)">
<ellipse fill="#e98576" stroke="#e98576" cx="2262" cy="-234" rx="75.2018" ry="18"/>
<text text-anchor="middle" x="2262" y="-229.8" font-family="Times,serif" font-size="14.00">GO:0008144 (1)</text>
</a>
</g>
<!-- b0&#45;&gt;f1 -->
<g id="edge56" class="edge"><title>b0&#45;&gt;f1</title>
<path fill="none" stroke="black" d="M1904.68,-295.94C1972.27,-285.978 2082.97,-269.102 2178,-252 2184.25,-250.876 2190.74,-249.654 2197.23,-248.399"/>
<polygon fill="black" stroke="black" points="2198.25,-251.766 2207.39,-246.408 2196.9,-244.897 2198.25,-251.766"/>
</g>
<!-- i1 -->
<g id="node61" class="node"><title>i1</title>
<a xlink:href="0019842" xlink:title="GO:0019842 (1)">
<ellipse fill="#e98576" stroke="#e98576" cx="2430" cy="-234" rx="75.2018" ry="18"/>
<text text-anchor="middle" x="2430" y="-229.8" font-family="Times,serif" font-size="14.00">GO:0019842 (1)</text>
</a>
</g>
<!-- b0&#45;&gt;i1 -->
<g id="edge58" class="edge"><title>b0&#45;&gt;i1</title>
<path fill="none" stroke="black" d="M1912.39,-299.72C2010.06,-291.911 2192.07,-275.615 2346,-252 2352.62,-250.984 2359.51,-249.8 2366.37,-248.538"/>
<polygon fill="black" stroke="black" points="2367.19,-251.945 2376.36,-246.644 2365.89,-245.068 2367.19,-251.945"/>
</g>
<!-- z0 -->
<g id="node71" class="node"><title>z0</title>
<a xlink:href="0060090" xlink:title="GO:0060090 (2)">
<ellipse fill="#e98576" stroke="#e98576" cx="2598" cy="-234" rx="75.2018" ry="18"/>
<text text-anchor="middle" x="2598" y="-229.8" font-family="Times,serif" font-size="14.00">GO:0060090 (2)</text>
</a>
</g>
<!-- b0&#45;&gt;z0 -->
<g id="edge68" class="edge"><title>b0&#45;&gt;z0</title>
<path fill="none" stroke="black" d="M1915.4,-302.12C2039.29,-296.61 2297.56,-282.323 2514,-252 2520.73,-251.057 2527.74,-249.909 2534.7,-248.659"/>
<polygon fill="black" stroke="black" points="2535.65,-252.042 2544.84,-246.768 2534.37,-245.161 2535.65,-252.042"/>
</g>
<!-- a1 -->
<g id="node73" class="node"><title>a1</title>
<a xlink:href="0031406" xlink:title="GO:0031406 (2)">
<ellipse fill="#e98576" stroke="#e98576" cx="2766" cy="-234" rx="75.2018" ry="18"/>
<text text-anchor="middle" x="2766" y="-229.8" font-family="Times,serif" font-size="14.00">GO:0031406 (2)</text>
</a>
</g>
<!-- b0&#45;&gt;a1 -->
<g id="edge70" class="edge"><title>b0&#45;&gt;a1</title>
<path fill="none" stroke="black" d="M1916.49,-303.713C2063.48,-300.42 2400.96,-289.127 2682,-252 2688.74,-251.11 2695.75,-249.996 2702.72,-248.766"/>
<polygon fill="black" stroke="black" points="2703.66,-252.151 2712.86,-246.895 2702.39,-245.267 2703.66,-252.151"/>
</g>
<!-- f0 -->
<g id="node78" class="node"><title>f0</title>
<a xlink:href="0000166" xlink:title="GO:0000166 (12)">
<ellipse fill="#e98576" stroke="#e98576" cx="2939" cy="-234" rx="79.4447" ry="18"/>
<text text-anchor="middle" x="2939" y="-229.8" font-family="Times,serif" font-size="14.00">GO:0000166 (12)</text>
</a>
</g>
<!-- b0&#45;&gt;f0 -->
<g id="edge76" class="edge"><title>b0&#45;&gt;f0</title>
<path fill="none" stroke="black" d="M1916.91,-304.543C2084.64,-302.758 2502.93,-294.072 2850,-252 2857.58,-251.082 2865.48,-249.901 2873.31,-248.59"/>
<polygon fill="black" stroke="black" points="2873.91,-252.038 2883.16,-246.87 2872.71,-245.142 2873.91,-252.038"/>
</g>
<!-- n1 -->
<g id="node80" class="node"><title>n1</title>
<a xlink:href="0019840" xlink:title="GO:0019840 (1)">
<ellipse fill="#e98576" stroke="#e98576" cx="3112" cy="-234" rx="75.2018" ry="18"/>
<text text-anchor="middle" x="3112" y="-229.8" font-family="Times,serif" font-size="14.00">GO:0019840 (1)</text>
</a>
</g>
<!-- b0&#45;&gt;n1 -->
<g id="edge78" class="edge"><title>b0&#45;&gt;n1</title>
<path fill="none" stroke="black" d="M1917.2,-305.607C2105.09,-306.264 2609.97,-302.728 3027,-252 3034.19,-251.125 3041.68,-249.979 3049.1,-248.694"/>
<polygon fill="black" stroke="black" points="3049.94,-252.099 3059.15,-246.867 3048.69,-245.212 3049.94,-252.099"/>
</g>
<!-- i0 -->
<g id="node14" class="node"><title>i0</title>
<a xlink:href="0016787" xlink:title="GO:0016787 (8)">
<ellipse fill="#e98576" stroke="#e98576" cx="3280" cy="-234" rx="75.2018" ry="18"/>
<text text-anchor="middle" x="3280" y="-229.8" font-family="Times,serif" font-size="14.00">GO:0016787 (8)</text>
</a>
</g>
<!-- y0 -->
<g id="node16" class="node"><title>y0</title>
<a xlink:href="0008233" xlink:title="GO:0008233 (2)">
<ellipse fill="#e98576" stroke="#e98576" cx="3280" cy="-162" rx="75.2018" ry="18"/>
<text text-anchor="middle" x="3280" y="-157.8" font-family="Times,serif" font-size="14.00">GO:0008233 (2)</text>
</a>
</g>
<!-- i0&#45;&gt;y0 -->
<g id="edge14" class="edge"><title>i0&#45;&gt;y0</title>
<path fill="none" stroke="black" d="M3280,-215.697C3280,-207.983 3280,-198.712 3280,-190.112"/>
<polygon fill="black" stroke="black" points="3283.5,-190.104 3280,-180.104 3276.5,-190.104 3283.5,-190.104"/>
</g>
<!-- g1 -->
<g id="node65" class="node"><title>g1</title>
<a xlink:href="0016597" xlink:title="GO:0016597 (1)">
<ellipse fill="#e98576" stroke="#e98576" cx="753" cy="-162" rx="75.2018" ry="18"/>
<text text-anchor="middle" x="753" y="-157.8" font-family="Times,serif" font-size="14.00">GO:0016597 (1)</text>
</a>
</g>
<!-- h1&#45;&gt;g1 -->
<g id="edge62" class="edge"><title>h1&#45;&gt;g1</title>
<path fill="none" stroke="black" d="M753,-215.697C753,-207.983 753,-198.712 753,-190.112"/>
<polygon fill="black" stroke="black" points="756.5,-190.104 753,-180.104 749.5,-190.104 756.5,-190.104"/>
</g>
<!-- h0&#45;&gt;i0 -->
<g id="edge22" class="edge"><title>h0&#45;&gt;i0</title>
<path fill="none" stroke="black" d="M3484.9,-291.916C3443.05,-280.29 3381.76,-263.267 3337.13,-250.868"/>
<polygon fill="black" stroke="black" points="3337.87,-247.443 3327.3,-248.139 3336,-254.188 3337.87,-247.443"/>
</g>
<!-- s0 -->
<g id="node28" class="node"><title>s0</title>
<a xlink:href="0016874" xlink:title="GO:0016874 (2)">
<ellipse fill="#e98576" stroke="#e98576" cx="3448" cy="-234" rx="75.2018" ry="18"/>
<text text-anchor="middle" x="3448" y="-229.8" font-family="Times,serif" font-size="14.00">GO:0016874 (2)</text>
</a>
</g>
<!-- h0&#45;&gt;s0 -->
<g id="edge26" class="edge"><title>h0&#45;&gt;s0</title>
<path fill="none" stroke="black" d="M3512.09,-288.411C3501.21,-279.345 3487.57,-267.974 3475.67,-258.057"/>
<polygon fill="black" stroke="black" points="3477.69,-255.183 3467.76,-251.47 3473.21,-260.561 3477.69,-255.183"/>
</g>
<!-- g0 -->
<g id="node32" class="node"><title>g0</title>
<a xlink:href="0016491" xlink:title="GO:0016491 (8)">
<ellipse fill="#e98576" stroke="#e98576" cx="3616" cy="-234" rx="75.2018" ry="18"/>
<text text-anchor="middle" x="3616" y="-229.8" font-family="Times,serif" font-size="14.00">GO:0016491 (8)</text>
</a>
</g>
<!-- h0&#45;&gt;g0 -->
<g id="edge30" class="edge"><title>h0&#45;&gt;g0</title>
<path fill="none" stroke="black" d="M3551.91,-288.411C3562.79,-279.345 3576.43,-267.974 3588.33,-258.057"/>
<polygon fill="black" stroke="black" points="3590.79,-260.561 3596.24,-251.47 3586.31,-255.183 3590.79,-260.561"/>
</g>
<!-- u0 -->
<g id="node34" class="node"><title>u0</title>
<a xlink:href="0004386" xlink:title="GO:0004386 (2)">
<ellipse fill="#e98576" stroke="#e98576" cx="3784" cy="-234" rx="75.2018" ry="18"/>
<text text-anchor="middle" x="3784" y="-229.8" font-family="Times,serif" font-size="14.00">GO:0004386 (2)</text>
</a>
</g>
<!-- h0&#45;&gt;u0 -->
<g id="edge32" class="edge"><title>h0&#45;&gt;u0</title>
<path fill="none" stroke="black" d="M3579.1,-291.916C3620.95,-280.29 3682.24,-263.267 3726.87,-250.868"/>
<polygon fill="black" stroke="black" points="3728,-254.188 3736.7,-248.139 3726.13,-247.443 3728,-254.188"/>
</g>
<!-- r0 -->
<g id="node76" class="node"><title>r0</title>
<a xlink:href="0016740" xlink:title="GO:0016740 (3)">
<ellipse fill="#e98576" stroke="#e98576" cx="3952" cy="-234" rx="75.2018" ry="18"/>
<text text-anchor="middle" x="3952" y="-229.8" font-family="Times,serif" font-size="14.00">GO:0016740 (3)</text>
</a>
</g>
<!-- h0&#45;&gt;r0 -->
<g id="edge74" class="edge"><title>h0&#45;&gt;r0</title>
<path fill="none" stroke="black" d="M3586.59,-293.476C3596.36,-291.549 3606.47,-289.644 3616,-288 3727.49,-268.771 3756.51,-271.229 3868,-252 3874.25,-250.921 3880.76,-249.73 3887.25,-248.494"/>
<polygon fill="black" stroke="black" points="3888.26,-251.863 3897.41,-246.524 3886.93,-244.991 3888.26,-251.863"/>
</g>
<!-- m0 -->
<g id="node82" class="node"><title>m0</title>
<a xlink:href="0016829" xlink:title="GO:0016829 (4)">
<ellipse fill="#e98576" stroke="#e98576" cx="4120" cy="-234" rx="75.2018" ry="18"/>
<text text-anchor="middle" x="4120" y="-229.8" font-family="Times,serif" font-size="14.00">GO:0016829 (4)</text>
</a>
</g>
<!-- h0&#45;&gt;m0 -->
<g id="edge80" class="edge"><title>h0&#45;&gt;m0</title>
<path fill="none" stroke="black" d="M3585.16,-293.287C3595.36,-291.311 3605.98,-289.438 3616,-288 3801.45,-261.375 3850.55,-278.625 4036,-252 4042.73,-251.034 4049.73,-249.871 4056.7,-248.613"/>
<polygon fill="black" stroke="black" points="4057.65,-251.995 4066.84,-246.713 4056.36,-245.115 4057.65,-251.995"/>
</g>
<!-- d1 -->
<g id="node51" class="node"><title>d1</title>
<a xlink:href="0016879" xlink:title="GO:0016879">
<ellipse fill="#dddddd" stroke="#dddddd" cx="3448" cy="-162" rx="61.1934" ry="18"/>
<text text-anchor="middle" x="3448" y="-157.8" font-family="Times,serif" font-size="14.00">GO:0016879</text>
</a>
</g>
<!-- s0&#45;&gt;d1 -->
<g id="edge48" class="edge"><title>s0&#45;&gt;d1</title>
<path fill="none" stroke="black" d="M3448,-215.697C3448,-207.983 3448,-198.712 3448,-190.112"/>
<polygon fill="black" stroke="black" points="3451.5,-190.104 3448,-180.104 3444.5,-190.104 3451.5,-190.104"/>
</g>
<!-- w0 -->
<g id="node45" class="node"><title>w0</title>
<a xlink:href="0004871" xlink:title="GO:0004871 (2)">
<ellipse fill="#e98576" stroke="#e98576" cx="4288" cy="-234" rx="75.2018" ry="18"/>
<text text-anchor="middle" x="4288" y="-229.8" font-family="Times,serif" font-size="14.00">GO:0004871 (2)</text>
</a>
</g>
<!-- v0 -->
<g id="node47" class="node"><title>v0</title>
<a xlink:href="0004872" xlink:title="GO:0004872 (2)">
<ellipse fill="#e98576" stroke="#e98576" cx="4288" cy="-162" rx="75.2018" ry="18"/>
<text text-anchor="middle" x="4288" y="-157.8" font-family="Times,serif" font-size="14.00">GO:0004872 (2)</text>
</a>
</g>
<!-- w0&#45;&gt;v0 -->
<g id="edge44" class="edge"><title>w0&#45;&gt;v0</title>
<path fill="none" stroke="black" d="M4288,-215.697C4288,-207.983 4288,-198.712 4288,-190.112"/>
<polygon fill="black" stroke="black" points="4291.5,-190.104 4288,-180.104 4284.5,-190.104 4291.5,-190.104"/>
</g>
<!-- c1 -->
<g id="node52" class="node"><title>c1</title>
<a xlink:href="0016881" xlink:title="GO:0016881">
<ellipse fill="#dddddd" stroke="#dddddd" cx="3448" cy="-90" rx="61.1934" ry="18"/>
<text text-anchor="middle" x="3448" y="-85.8" font-family="Times,serif" font-size="14.00">GO:0016881</text>
</a>
</g>
<!-- d1&#45;&gt;c1 -->
<g id="edge72" class="edge"><title>d1&#45;&gt;c1</title>
<path fill="none" stroke="black" d="M3448,-143.697C3448,-135.983 3448,-126.712 3448,-118.112"/>
<polygon fill="black" stroke="black" points="3451.5,-118.104 3448,-108.104 3444.5,-118.104 3451.5,-118.104"/>
</g>
<!-- b1 -->
<g id="node54" class="node"><title>b1</title>
<a xlink:href="0019787" xlink:title="GO:0019787 (2)">
<ellipse fill="#e98576" stroke="#e98576" cx="3448" cy="-18" rx="75.2018" ry="18"/>
<text text-anchor="middle" x="3448" y="-13.8" font-family="Times,serif" font-size="14.00">GO:0019787 (2)</text>
</a>
</g>
<!-- c1&#45;&gt;b1 -->
<g id="edge50" class="edge"><title>c1&#45;&gt;b1</title>
<path fill="none" stroke="black" d="M3448,-71.6966C3448,-63.9827 3448,-54.7125 3448,-46.1124"/>
<polygon fill="black" stroke="black" points="3451.5,-46.1043 3448,-36.1043 3444.5,-46.1044 3451.5,-46.1043"/>
</g>
<!-- x0&#45;&gt;w0 -->
<g id="edge64" class="edge"><title>x0&#45;&gt;w0</title>
<path fill="none" stroke="black" d="M4067.06,-293.362C4111.53,-281.615 4180.47,-263.404 4229.5,-250.452"/>
<polygon fill="black" stroke="black" points="4230.57,-253.791 4239.34,-247.854 4228.78,-247.024 4230.57,-253.791"/>
</g>
</g>
</svg>
