<?xml version="1.0" encoding="UTF-8" standalone="no"?>
<!DOCTYPE svg PUBLIC "-//W3C//DTD SVG 1.1//EN"
 "http://www.w3.org/Graphics/SVG/1.1/DTD/svg11.dtd">
<!-- Generated by graphviz version 2.28.0 (20110622.2320)
 -->
<!-- Title: G Pages: 1 -->
<svg width="2688pt" height="260pt"
 viewBox="0.00 0.00 2688.00 260.00" xmlns="http://www.w3.org/2000/svg" xmlns:xlink="http://www.w3.org/1999/xlink">
<g id="graph1" class="graph" transform="scale(1 1) rotate(0) translate(4 256)">
<title>G</title>
<polygon fill="white" stroke="white" points="-4,5 -4,-256 2685,-256 2685,5 -4,5"/>
<!-- b0 -->
<g id="node1" class="node"><title>b0</title>
<a xlink:href="0005488" xlink:title="GO:0005488 (2)">
<ellipse fill="#e98576" stroke="#e98576" cx="1088" cy="-162" rx="75.2018" ry="18"/>
<text text-anchor="middle" x="1088" y="-157.8" font-family="Times,serif" font-size="14.00">GO:0005488 (2)</text>
</a>
</g>
<!-- t0 -->
<g id="node3" class="node"><title>t0</title>
<a xlink:href="0003823" xlink:title="GO:0003823 (1)">
<ellipse fill="#e98576" stroke="#e98576" cx="75" cy="-90" rx="75.2018" ry="18"/>
<text text-anchor="middle" x="75" y="-85.8" font-family="Times,serif" font-size="14.00">GO:0003823 (1)</text>
</a>
</g>
<!-- b0&#45;&gt;t0 -->
<g id="edge2" class="edge"><title>b0&#45;&gt;t0</title>
<path fill="none" stroke="black" d="M1013.01,-160.343C854.62,-158.16 474.63,-148.731 159,-108 152.159,-107.117 145.041,-105.997 137.97,-104.753"/>
<polygon fill="black" stroke="black" points="138.152,-101.228 127.683,-102.857 136.883,-108.112 138.152,-101.228"/>
</g>
<!-- u0 -->
<g id="node5" class="node"><title>u0</title>
<a xlink:href="0008289" xlink:title="GO:0008289 (1)">
<ellipse fill="#e98576" stroke="#e98576" cx="243" cy="-90" rx="75.2018" ry="18"/>
<text text-anchor="middle" x="243" y="-85.8" font-family="Times,serif" font-size="14.00">GO:0008289 (1)</text>
</a>
</g>
<!-- b0&#45;&gt;u0 -->
<g id="edge4" class="edge"><title>b0&#45;&gt;u0</title>
<path fill="none" stroke="black" d="M1013.94,-159.042C877.515,-154.725 577.504,-141.925 327,-108 320.264,-107.088 313.256,-105.96 306.289,-104.722"/>
<polygon fill="black" stroke="black" points="306.617,-101.223 296.147,-102.842 305.341,-108.106 306.617,-101.223"/>
</g>
<!-- z0 -->
<g id="node10" class="node"><title>z0</title>
<a xlink:href="0019825" xlink:title="GO:0019825 (1)">
<ellipse fill="#e98576" stroke="#e98576" cx="411" cy="-90" rx="75.2018" ry="18"/>
<text text-anchor="middle" x="411" y="-85.8" font-family="Times,serif" font-size="14.00">GO:0019825 (1)</text>
</a>
</g>
<!-- b0&#45;&gt;z0 -->
<g id="edge8" class="edge"><title>b0&#45;&gt;z0</title>
<path fill="none" stroke="black" d="M1015.59,-157.115C903.561,-150.523 681.672,-135.147 495,-108 488.372,-107.036 481.477,-105.886 474.615,-104.644"/>
<polygon fill="black" stroke="black" points="475.093,-101.172 464.619,-102.77 473.803,-108.053 475.093,-101.172"/>
</g>
<!-- d0 -->
<g id="node14" class="node"><title>d0</title>
<a xlink:href="0005515" xlink:title="GO:0005515 (9)">
<ellipse fill="#e98576" stroke="#e98576" cx="579" cy="-90" rx="75.2018" ry="18"/>
<text text-anchor="middle" x="579" y="-85.8" font-family="Times,serif" font-size="14.00">GO:0005515 (9)</text>
</a>
</g>
<!-- b0&#45;&gt;d0 -->
<g id="edge12" class="edge"><title>b0&#45;&gt;d0</title>
<path fill="none" stroke="black" d="M1020.05,-154.129C935.959,-145.256 788.487,-128.492 663,-108 656.488,-106.937 649.712,-105.732 642.959,-104.466"/>
<polygon fill="black" stroke="black" points="643.594,-101.024 633.113,-102.577 642.275,-107.899 643.594,-101.024"/>
</g>
<!-- w0 -->
<g id="node16" class="node"><title>w0</title>
<a xlink:href="0008144" xlink:title="GO:0008144 (1)">
<ellipse fill="#e98576" stroke="#e98576" cx="747" cy="-90" rx="75.2018" ry="18"/>
<text text-anchor="middle" x="747" y="-85.8" font-family="Times,serif" font-size="14.00">GO:0008144 (1)</text>
</a>
</g>
<!-- b0&#45;&gt;w0 -->
<g id="edge14" class="edge"><title>b0&#45;&gt;w0</title>
<path fill="none" stroke="black" d="M1032.83,-149.675C972.536,-137.298 876.009,-117.483 812.06,-104.355"/>
<polygon fill="black" stroke="black" points="812.587,-100.891 802.087,-102.308 811.179,-107.748 812.587,-100.891"/>
</g>
<!-- x0 -->
<g id="node18" class="node"><title>x0</title>
<a xlink:href="0019842" xlink:title="GO:0019842 (1)">
<ellipse fill="#e98576" stroke="#e98576" cx="915" cy="-90" rx="75.2018" ry="18"/>
<text text-anchor="middle" x="915" y="-85.8" font-family="Times,serif" font-size="14.00">GO:0019842 (1)</text>
</a>
</g>
<!-- b0&#45;&gt;x0 -->
<g id="edge16" class="edge"><title>b0&#45;&gt;x0</title>
<path fill="none" stroke="black" d="M1051.31,-146.155C1024.93,-135.482 989.183,-121.016 960.912,-109.577"/>
<polygon fill="black" stroke="black" points="962.219,-106.33 951.636,-105.824 959.593,-112.819 962.219,-106.33"/>
</g>
<!-- a0 -->
<g id="node29" class="node"><title>a0</title>
<a xlink:href="0043167" xlink:title="GO:0043167 (12)">
<ellipse fill="#e98576" stroke="#e98576" cx="1088" cy="-90" rx="79.4447" ry="18"/>
<text text-anchor="middle" x="1088" y="-85.8" font-family="Times,serif" font-size="14.00">GO:0043167 (12)</text>
</a>
</g>
<!-- b0&#45;&gt;a0 -->
<g id="edge26" class="edge"><title>b0&#45;&gt;a0</title>
<path fill="none" stroke="black" d="M1088,-143.697C1088,-135.983 1088,-126.712 1088,-118.112"/>
<polygon fill="black" stroke="black" points="1091.5,-118.104 1088,-108.104 1084.5,-118.104 1091.5,-118.104"/>
</g>
<!-- q0 -->
<g id="node31" class="node"><title>q0</title>
<a xlink:href="0031406" xlink:title="GO:0031406 (1)">
<ellipse fill="#e98576" stroke="#e98576" cx="1261" cy="-90" rx="75.2018" ry="18"/>
<text text-anchor="middle" x="1261" y="-85.8" font-family="Times,serif" font-size="14.00">GO:0031406 (1)</text>
</a>
</g>
<!-- b0&#45;&gt;q0 -->
<g id="edge28" class="edge"><title>b0&#45;&gt;q0</title>
<path fill="none" stroke="black" d="M1124.69,-146.155C1151.07,-135.482 1186.82,-121.016 1215.09,-109.577"/>
<polygon fill="black" stroke="black" points="1216.41,-112.819 1224.36,-105.824 1213.78,-106.33 1216.41,-112.819"/>
</g>
<!-- l0 -->
<g id="node39" class="node"><title>l0</title>
<a xlink:href="0046906" xlink:title="GO:0046906 (3)">
<ellipse fill="#e98576" stroke="#e98576" cx="1429" cy="-90" rx="75.2018" ry="18"/>
<text text-anchor="middle" x="1429" y="-85.8" font-family="Times,serif" font-size="14.00">GO:0046906 (3)</text>
</a>
</g>
<!-- b0&#45;&gt;l0 -->
<g id="edge38" class="edge"><title>b0&#45;&gt;l0</title>
<path fill="none" stroke="black" d="M1143.17,-149.675C1203.46,-137.298 1299.99,-117.483 1363.94,-104.355"/>
<polygon fill="black" stroke="black" points="1364.82,-107.748 1373.91,-102.308 1363.41,-100.891 1364.82,-107.748"/>
</g>
<!-- p0 -->
<g id="node41" class="node"><title>p0</title>
<a xlink:href="0000166" xlink:title="GO:0000166 (2)">
<ellipse fill="#e98576" stroke="#e98576" cx="1597" cy="-90" rx="75.2018" ry="18"/>
<text text-anchor="middle" x="1597" y="-85.8" font-family="Times,serif" font-size="14.00">GO:0000166 (2)</text>
</a>
</g>
<!-- b0&#45;&gt;p0 -->
<g id="edge40" class="edge"><title>b0&#45;&gt;p0</title>
<path fill="none" stroke="black" d="M1155.95,-154.129C1240.04,-145.256 1387.51,-128.492 1513,-108 1519.51,-106.937 1526.29,-105.732 1533.04,-104.466"/>
<polygon fill="black" stroke="black" points="1533.73,-107.899 1542.89,-102.577 1532.41,-101.024 1533.73,-107.899"/>
</g>
<!-- y0 -->
<g id="node43" class="node"><title>y0</title>
<a xlink:href="0019840" xlink:title="GO:0019840 (1)">
<ellipse fill="#e98576" stroke="#e98576" cx="1765" cy="-90" rx="75.2018" ry="18"/>
<text text-anchor="middle" x="1765" y="-85.8" font-family="Times,serif" font-size="14.00">GO:0019840 (1)</text>
</a>
</g>
<!-- b0&#45;&gt;y0 -->
<g id="edge42" class="edge"><title>b0&#45;&gt;y0</title>
<path fill="none" stroke="black" d="M1160.41,-157.115C1272.44,-150.523 1494.33,-135.147 1681,-108 1687.63,-107.036 1694.52,-105.886 1701.38,-104.644"/>
<polygon fill="black" stroke="black" points="1702.2,-108.053 1711.38,-102.77 1700.91,-101.172 1702.2,-108.053"/>
</g>
<!-- g0 -->
<g id="node49" class="node"><title>g0</title>
<a xlink:href="0048037" xlink:title="GO:0048037 (4)">
<ellipse fill="#e98576" stroke="#e98576" cx="1933" cy="-90" rx="75.2018" ry="18"/>
<text text-anchor="middle" x="1933" y="-85.8" font-family="Times,serif" font-size="14.00">GO:0048037 (4)</text>
</a>
</g>
<!-- b0&#45;&gt;g0 -->
<g id="edge48" class="edge"><title>b0&#45;&gt;g0</title>
<path fill="none" stroke="black" d="M1162.06,-159.042C1298.49,-154.725 1598.5,-141.925 1849,-108 1855.74,-107.088 1862.74,-105.96 1869.71,-104.722"/>
<polygon fill="black" stroke="black" points="1870.66,-108.106 1879.85,-102.842 1869.38,-101.223 1870.66,-108.106"/>
</g>
<!-- c0 -->
<g id="node6" class="node"><title>c0</title>
<a xlink:href="0003674" xlink:title="GO:0003674 (1)">
<ellipse fill="#e98576" stroke="#e98576" cx="2269" cy="-234" rx="75.2018" ry="18"/>
<text text-anchor="middle" x="2269" y="-229.8" font-family="Times,serif" font-size="14.00">GO:0003674 (1)</text>
</a>
</g>
<!-- c0&#45;&gt;b0 -->
<g id="edge18" class="edge"><title>c0&#45;&gt;b0</title>
<path fill="none" stroke="black" d="M2196.9,-228.727C1989.11,-216.41 1389.87,-180.892 1170.08,-167.865"/>
<polygon fill="black" stroke="black" points="1170.09,-164.36 1159.9,-167.262 1169.68,-171.348 1170.09,-164.36"/>
</g>
<!-- j0 -->
<g id="node8" class="node"><title>j0</title>
<a xlink:href="0030234" xlink:title="GO:0030234 (3)">
<ellipse fill="#e98576" stroke="#e98576" cx="2114" cy="-162" rx="75.2018" ry="18"/>
<text text-anchor="middle" x="2114" y="-157.8" font-family="Times,serif" font-size="14.00">GO:0030234 (3)</text>
</a>
</g>
<!-- c0&#45;&gt;j0 -->
<g id="edge6" class="edge"><title>c0&#45;&gt;j0</title>
<path fill="none" stroke="black" d="M2235.37,-217.811C2212.31,-207.4 2181.54,-193.501 2156.75,-182.305"/>
<polygon fill="black" stroke="black" points="2158.12,-179.085 2147.57,-178.159 2155.24,-185.465 2158.12,-179.085"/>
</g>
<!-- i0 -->
<g id="node12" class="node"><title>i0</title>
<a xlink:href="0003824" xlink:title="GO:0003824">
<ellipse fill="#dddddd" stroke="#dddddd" cx="2269" cy="-162" rx="61.1934" ry="18"/>
<text text-anchor="middle" x="2269" y="-157.8" font-family="Times,serif" font-size="14.00">GO:0003824</text>
</a>
</g>
<!-- c0&#45;&gt;i0 -->
<g id="edge10" class="edge"><title>c0&#45;&gt;i0</title>
<path fill="none" stroke="black" d="M2269,-215.697C2269,-207.983 2269,-198.712 2269,-190.112"/>
<polygon fill="black" stroke="black" points="2272.5,-190.104 2269,-180.104 2265.5,-190.104 2272.5,-190.104"/>
</g>
<!-- f0 -->
<g id="node27" class="node"><title>f0</title>
<a xlink:href="0005215" xlink:title="GO:0005215 (5)">
<ellipse fill="#e98576" stroke="#e98576" cx="2424" cy="-162" rx="75.2018" ry="18"/>
<text text-anchor="middle" x="2424" y="-157.8" font-family="Times,serif" font-size="14.00">GO:0005215 (5)</text>
</a>
</g>
<!-- c0&#45;&gt;f0 -->
<g id="edge24" class="edge"><title>c0&#45;&gt;f0</title>
<path fill="none" stroke="black" d="M2302.63,-217.811C2325.69,-207.4 2356.46,-193.501 2381.25,-182.305"/>
<polygon fill="black" stroke="black" points="2382.76,-185.465 2390.43,-178.159 2379.88,-179.085 2382.76,-185.465"/>
</g>
<!-- v0 -->
<g id="node45" class="node"><title>v0</title>
<a xlink:href="0005198" xlink:title="GO:0005198 (1)">
<ellipse fill="#e98576" stroke="#e98576" cx="2592" cy="-162" rx="75.2018" ry="18"/>
<text text-anchor="middle" x="2592" y="-157.8" font-family="Times,serif" font-size="14.00">GO:0005198 (1)</text>
</a>
</g>
<!-- c0&#45;&gt;v0 -->
<g id="edge44" class="edge"><title>c0&#45;&gt;v0</title>
<path fill="none" stroke="black" d="M2322.7,-221.362C2379.17,-209.124 2468,-189.873 2528.05,-176.859"/>
<polygon fill="black" stroke="black" points="2529.14,-180.204 2538.17,-174.665 2527.66,-173.363 2529.14,-180.204"/>
</g>
<!-- m0 -->
<g id="node20" class="node"><title>m0</title>
<a xlink:href="0016787" xlink:title="GO:0016787 (2)">
<ellipse fill="#e98576" stroke="#e98576" cx="2101" cy="-90" rx="75.2018" ry="18"/>
<text text-anchor="middle" x="2101" y="-85.8" font-family="Times,serif" font-size="14.00">GO:0016787 (2)</text>
</a>
</g>
<!-- i0&#45;&gt;m0 -->
<g id="edge30" class="edge"><title>i0&#45;&gt;m0</title>
<path fill="none" stroke="black" d="M2235,-146.834C2209.44,-136.185 2174.18,-121.49 2146.24,-109.848"/>
<polygon fill="black" stroke="black" points="2147.26,-106.485 2136.69,-105.869 2144.57,-112.946 2147.26,-106.485"/>
</g>
<!-- h0 -->
<g id="node23" class="node"><title>h0</title>
<a xlink:href="0016491" xlink:title="GO:0016491 (4)">
<ellipse fill="#e98576" stroke="#e98576" cx="2269" cy="-90" rx="75.2018" ry="18"/>
<text text-anchor="middle" x="2269" y="-85.8" font-family="Times,serif" font-size="14.00">GO:0016491 (4)</text>
</a>
</g>
<!-- i0&#45;&gt;h0 -->
<g id="edge36" class="edge"><title>i0&#45;&gt;h0</title>
<path fill="none" stroke="black" d="M2269,-143.697C2269,-135.983 2269,-126.712 2269,-118.112"/>
<polygon fill="black" stroke="black" points="2272.5,-118.104 2269,-108.104 2265.5,-118.104 2272.5,-118.104"/>
</g>
<!-- s0 -->
<g id="node36" class="node"><title>s0</title>
<a xlink:href="0016740" xlink:title="GO:0016740 (1)">
<ellipse fill="#e98576" stroke="#e98576" cx="2437" cy="-90" rx="75.2018" ry="18"/>
<text text-anchor="middle" x="2437" y="-85.8" font-family="Times,serif" font-size="14.00">GO:0016740 (1)</text>
</a>
</g>
<!-- i0&#45;&gt;s0 -->
<g id="edge34" class="edge"><title>i0&#45;&gt;s0</title>
<path fill="none" stroke="black" d="M2303,-146.834C2328.56,-136.185 2363.82,-121.49 2391.76,-109.848"/>
<polygon fill="black" stroke="black" points="2393.43,-112.946 2401.31,-105.869 2390.74,-106.485 2393.43,-112.946"/>
</g>
<!-- r0 -->
<g id="node47" class="node"><title>r0</title>
<a xlink:href="0016829" xlink:title="GO:0016829 (1)">
<ellipse fill="#e98576" stroke="#e98576" cx="2605" cy="-90" rx="75.2018" ry="18"/>
<text text-anchor="middle" x="2605" y="-85.8" font-family="Times,serif" font-size="14.00">GO:0016829 (1)</text>
</a>
</g>
<!-- i0&#45;&gt;r0 -->
<g id="edge46" class="edge"><title>i0&#45;&gt;r0</title>
<path fill="none" stroke="black" d="M2314.39,-149.856C2322.89,-147.848 2331.7,-145.817 2340,-144 2420.12,-126.447 2440.58,-124.135 2521,-108 2527.03,-106.79 2533.31,-105.527 2539.59,-104.261"/>
<polygon fill="black" stroke="black" points="2540.32,-107.683 2549.43,-102.274 2538.93,-100.822 2540.32,-107.683"/>
</g>
<!-- n0 -->
<g id="node22" class="node"><title>n0</title>
<a xlink:href="0008233" xlink:title="GO:0008233 (2)">
<ellipse fill="#e98576" stroke="#e98576" cx="2101" cy="-18" rx="75.2018" ry="18"/>
<text text-anchor="middle" x="2101" y="-13.8" font-family="Times,serif" font-size="14.00">GO:0008233 (2)</text>
</a>
</g>
<!-- m0&#45;&gt;n0 -->
<g id="edge20" class="edge"><title>m0&#45;&gt;n0</title>
<path fill="none" stroke="black" d="M2101,-71.6966C2101,-63.9827 2101,-54.7125 2101,-46.1124"/>
<polygon fill="black" stroke="black" points="2104.5,-46.1043 2101,-36.1043 2097.5,-46.1044 2104.5,-46.1043"/>
</g>
<!-- o0 -->
<g id="node25" class="node"><title>o0</title>
<a xlink:href="0004497" xlink:title="GO:0004497 (2)">
<ellipse fill="#e98576" stroke="#e98576" cx="2269" cy="-18" rx="75.2018" ry="18"/>
<text text-anchor="middle" x="2269" y="-13.8" font-family="Times,serif" font-size="14.00">GO:0004497 (2)</text>
</a>
</g>
<!-- h0&#45;&gt;o0 -->
<g id="edge22" class="edge"><title>h0&#45;&gt;o0</title>
<path fill="none" stroke="black" d="M2269,-71.6966C2269,-63.9827 2269,-54.7125 2269,-46.1124"/>
<polygon fill="black" stroke="black" points="2272.5,-46.1043 2269,-36.1043 2265.5,-46.1044 2272.5,-46.1043"/>
</g>
<!-- k0 -->
<g id="node34" class="node"><title>k0</title>
<a xlink:href="0009055" xlink:title="GO:0009055 (3)">
<ellipse fill="#e98576" stroke="#e98576" cx="2437" cy="-18" rx="75.2018" ry="18"/>
<text text-anchor="middle" x="2437" y="-13.8" font-family="Times,serif" font-size="14.00">GO:0009055 (3)</text>
</a>
</g>
<!-- h0&#45;&gt;k0 -->
<g id="edge32" class="edge"><title>h0&#45;&gt;k0</title>
<path fill="none" stroke="black" d="M2304.63,-74.1548C2330.05,-63.5644 2364.43,-49.2392 2391.78,-37.8424"/>
<polygon fill="black" stroke="black" points="2393.25,-41.0213 2401.13,-33.9443 2390.56,-34.5597 2393.25,-41.0213"/>
</g>
<!-- e0 -->
<g id="node50" class="node"><title>e0</title>
<a xlink:href="0038023" xlink:title="GO:0038023 (6)">
<ellipse fill="#e98576" stroke="#e98576" cx="2437" cy="-234" rx="75.2018" ry="18"/>
<text text-anchor="middle" x="2437" y="-229.8" font-family="Times,serif" font-size="14.00">GO:0038023 (6)</text>
</a>
</g>
</g>
</svg>
