<?xml version="1.0" encoding="UTF-8" standalone="no"?>
<!DOCTYPE svg PUBLIC "-//W3C//DTD SVG 1.1//EN"
 "http://www.w3.org/Graphics/SVG/1.1/DTD/svg11.dtd">
<!-- Generated by graphviz version 2.28.0 (20110622.2320)
 -->
<!-- Title: G Pages: 1 -->
<svg width="1621pt" height="692pt"
 viewBox="0.00 0.00 1621.00 692.00" xmlns="http://www.w3.org/2000/svg" xmlns:xlink="http://www.w3.org/1999/xlink">
<g id="graph1" class="graph" transform="scale(1 1) rotate(0) translate(4 688)">
<title>G</title>
<polygon fill="white" stroke="white" points="-4,5 -4,-688 1618,-688 1618,5 -4,5"/>
<!-- o0 -->
<g id="node1" class="node"><title>o0</title>
<a xlink:href="0016020" xlink:title="GO:0016020 (8)">
<ellipse fill="#e98576" stroke="#e98576" cx="269" cy="-450" rx="75.2018" ry="18"/>
<text text-anchor="middle" x="269" y="-445.8" font-family="Times,serif" font-size="14.00">GO:0016020 (8)</text>
</a>
</g>
<!-- r0 -->
<g id="node3" class="node"><title>r0</title>
<a xlink:href="0044425" xlink:title="GO:0044425">
<ellipse fill="#dddddd" stroke="#dddddd" cx="256" cy="-378" rx="61.1934" ry="18"/>
<text text-anchor="middle" x="256" y="-373.8" font-family="Times,serif" font-size="14.00">GO:0044425</text>
</a>
</g>
<!-- o0&#45;&gt;r0 -->
<g id="edge2" class="edge"><title>o0&#45;&gt;r0</title>
<path fill="none" stroke="black" d="M265.787,-431.697C264.354,-423.983 262.632,-414.712 261.035,-406.112"/>
<polygon fill="black" stroke="black" points="264.444,-405.297 259.177,-396.104 257.561,-406.575 264.444,-405.297"/>
</g>
<!-- p0 -->
<g id="node64" class="node"><title>p0</title>
<a xlink:href="0016469" xlink:title="GO:0016469 (5)">
<ellipse fill="#e98576" stroke="#e98576" cx="243" cy="-306" rx="75.2018" ry="18"/>
<text text-anchor="middle" x="243" y="-301.8" font-family="Times,serif" font-size="14.00">GO:0016469 (5)</text>
</a>
</g>
<!-- r0&#45;&gt;p0 -->
<g id="edge78" class="edge"><title>r0&#45;&gt;p0</title>
<path fill="none" stroke="black" d="M252.787,-359.697C251.354,-351.983 249.632,-342.712 248.035,-334.112"/>
<polygon fill="black" stroke="black" points="251.444,-333.297 246.177,-324.104 244.561,-334.575 251.444,-333.297"/>
</g>
<!-- t0 -->
<g id="node69" class="node"><title>t0</title>
<a xlink:href="0043190" xlink:title="GO:0043190 (1)">
<ellipse fill="#e98576" stroke="#e98576" cx="75" cy="-306" rx="75.2018" ry="18"/>
<text text-anchor="middle" x="75" y="-301.8" font-family="Times,serif" font-size="14.00">GO:0043190 (1)</text>
</a>
</g>
<!-- r0&#45;&gt;t0 -->
<g id="edge84" class="edge"><title>r0&#45;&gt;t0</title>
<path fill="none" stroke="black" d="M220.24,-363.17C192.258,-352.348 153.092,-337.201 122.482,-325.363"/>
<polygon fill="black" stroke="black" points="123.459,-321.988 112.869,-321.646 120.934,-328.517 123.459,-321.988"/>
</g>
<!-- f0 -->
<g id="node4" class="node"><title>f0</title>
<a xlink:href="0044464" xlink:title="GO:0044464 (14)">
<ellipse fill="#e98576" stroke="#e98576" cx="738" cy="-522" rx="79.4447" ry="18"/>
<text text-anchor="middle" x="738" y="-517.8" font-family="Times,serif" font-size="14.00">GO:0044464 (14)</text>
</a>
</g>
<!-- f0&#45;&gt;o0 -->
<g id="edge62" class="edge"><title>f0&#45;&gt;o0</title>
<path fill="none" stroke="black" d="M673.28,-511.34C586.085,-498.326 431.391,-475.237 340.737,-461.707"/>
<polygon fill="black" stroke="black" points="341.226,-458.241 330.818,-460.227 340.192,-465.165 341.226,-458.241"/>
</g>
<!-- f0&#45;&gt;r0 -->
<g id="edge4" class="edge"><title>f0&#45;&gt;r0</title>
<path fill="none" stroke="black" d="M672.142,-511.819C617.118,-503.25 536.97,-488.666 469,-468 406.437,-448.978 337.1,-418.051 295.038,-398.121"/>
<polygon fill="black" stroke="black" points="296.509,-394.945 285.977,-393.797 293.495,-401.262 296.509,-394.945"/>
</g>
<!-- d0 -->
<g id="node15" class="node"><title>d0</title>
<a xlink:href="0044424" xlink:title="GO:0044424">
<ellipse fill="#dddddd" stroke="#dddddd" cx="796" cy="-378" rx="61.1934" ry="18"/>
<text text-anchor="middle" x="796" y="-373.8" font-family="Times,serif" font-size="14.00">GO:0044424</text>
</a>
</g>
<!-- f0&#45;&gt;d0 -->
<g id="edge50" class="edge"><title>f0&#45;&gt;d0</title>
<path fill="none" stroke="black" d="M767.093,-505.057C780.352,-496.08 794.694,-483.535 802,-468 811.132,-448.58 808.62,-424.106 804.393,-405.74"/>
<polygon fill="black" stroke="black" points="807.759,-404.776 801.857,-395.977 800.984,-406.536 807.759,-404.776"/>
</g>
<!-- e0 -->
<g id="node45" class="node"><title>e0</title>
<a xlink:href="0005622" xlink:title="GO:0005622">
<ellipse fill="#dddddd" stroke="#dddddd" cx="732" cy="-450" rx="61.1934" ry="18"/>
<text text-anchor="middle" x="732" y="-445.8" font-family="Times,serif" font-size="14.00">GO:0005622</text>
</a>
</g>
<!-- f0&#45;&gt;e0 -->
<g id="edge52" class="edge"><title>f0&#45;&gt;e0</title>
<path fill="none" stroke="black" d="M736.517,-503.697C735.856,-495.983 735.061,-486.712 734.324,-478.112"/>
<polygon fill="black" stroke="black" points="737.807,-477.769 733.466,-468.104 730.833,-478.367 737.807,-477.769"/>
</g>
<!-- h0 -->
<g id="node6" class="node"><title>h0</title>
<a xlink:href="0005840" xlink:title="GO:0005840 (17)">
<ellipse fill="#e98576" stroke="#e98576" cx="836" cy="-162" rx="79.4447" ry="18"/>
<text text-anchor="middle" x="836" y="-157.8" font-family="Times,serif" font-size="14.00">GO:0005840 (17)</text>
</a>
</g>
<!-- z0 -->
<g id="node8" class="node"><title>z0</title>
<a xlink:href="0033279" xlink:title="GO:0033279">
<ellipse fill="#dddddd" stroke="#dddddd" cx="836" cy="-90" rx="61.1934" ry="18"/>
<text text-anchor="middle" x="836" y="-85.8" font-family="Times,serif" font-size="14.00">GO:0033279</text>
</a>
</g>
<!-- h0&#45;&gt;z0 -->
<g id="edge6" class="edge"><title>h0&#45;&gt;z0</title>
<path fill="none" stroke="black" d="M836,-143.697C836,-135.983 836,-126.712 836,-118.112"/>
<polygon fill="black" stroke="black" points="839.5,-118.104 836,-108.104 832.5,-118.104 839.5,-118.104"/>
</g>
<!-- y0 -->
<g id="node36" class="node"><title>y0</title>
<a xlink:href="0015935" xlink:title="GO:0015935 (1)">
<ellipse fill="#e98576" stroke="#e98576" cx="591" cy="-18" rx="75.2018" ry="18"/>
<text text-anchor="middle" x="591" y="-13.8" font-family="Times,serif" font-size="14.00">GO:0015935 (1)</text>
</a>
</g>
<!-- z0&#45;&gt;y0 -->
<g id="edge34" class="edge"><title>z0&#45;&gt;y0</title>
<path fill="none" stroke="black" d="M793.604,-76.8868C753.114,-65.3182 691.832,-47.8091 647.27,-35.077"/>
<polygon fill="black" stroke="black" points="648.039,-31.6568 637.462,-32.2748 646.116,-38.3875 648.039,-31.6568"/>
</g>
<!-- a0 -->
<g id="node9" class="node"><title>a0</title>
<a xlink:href="0030529" xlink:title="GO:0030529 (18)">
<ellipse fill="#e98576" stroke="#e98576" cx="728" cy="-234" rx="79.4447" ry="18"/>
<text text-anchor="middle" x="728" y="-229.8" font-family="Times,serif" font-size="14.00">GO:0030529 (18)</text>
</a>
</g>
<!-- a0&#45;&gt;h0 -->
<g id="edge70" class="edge"><title>a0&#45;&gt;h0</title>
<path fill="none" stroke="black" d="M753.049,-216.765C767.77,-207.223 786.567,-195.04 802.545,-184.684"/>
<polygon fill="black" stroke="black" points="804.599,-187.523 811.087,-179.147 800.792,-181.649 804.599,-187.523"/>
</g>
<!-- a0&#45;&gt;z0 -->
<g id="edge8" class="edge"><title>a0&#45;&gt;z0</title>
<path fill="none" stroke="black" d="M727.718,-215.984C728.225,-196.784 731.626,-165.444 747,-144 757.774,-128.972 774.251,-117.466 790.111,-109.077"/>
<polygon fill="black" stroke="black" points="791.933,-112.08 799.33,-104.495 788.818,-105.812 791.933,-112.08"/>
</g>
<!-- m0 -->
<g id="node11" class="node"><title>m0</title>
<a xlink:href="0044444" xlink:title="GO:0044444">
<ellipse fill="#dddddd" stroke="#dddddd" cx="887" cy="-234" rx="61.1934" ry="18"/>
<text text-anchor="middle" x="887" y="-229.8" font-family="Times,serif" font-size="14.00">GO:0044444</text>
</a>
</g>
<!-- m0&#45;&gt;h0 -->
<g id="edge74" class="edge"><title>m0&#45;&gt;h0</title>
<path fill="none" stroke="black" d="M874.654,-216.055C868.515,-207.629 860.975,-197.28 854.19,-187.966"/>
<polygon fill="black" stroke="black" points="856.949,-185.81 848.232,-179.789 851.292,-189.932 856.949,-185.81"/>
</g>
<!-- m0&#45;&gt;z0 -->
<g id="edge10" class="edge"><title>m0&#45;&gt;z0</title>
<path fill="none" stroke="black" d="M902.851,-216.37C918.286,-198.062 937.583,-168.038 924,-144 915.125,-128.295 899.525,-116.726 883.9,-108.477"/>
<polygon fill="black" stroke="black" points="885.269,-105.25 874.748,-103.998 882.192,-111.537 885.269,-105.25"/>
</g>
<!-- a1 -->
<g id="node13" class="node"><title>a1</title>
<a xlink:href="0044446" xlink:title="GO:0044446">
<ellipse fill="#dddddd" stroke="#dddddd" cx="1028" cy="-234" rx="61.1934" ry="18"/>
<text text-anchor="middle" x="1028" y="-229.8" font-family="Times,serif" font-size="14.00">GO:0044446</text>
</a>
</g>
<!-- a1&#45;&gt;z0 -->
<g id="edge12" class="edge"><title>a1&#45;&gt;z0</title>
<path fill="none" stroke="black" d="M1014.61,-216.283C998.602,-197.075 970.287,-165.448 941,-144 922.312,-130.314 899.569,-118.35 880.034,-109.27"/>
<polygon fill="black" stroke="black" points="881.286,-105.995 870.734,-105.049 878.393,-112.369 881.286,-105.995"/>
</g>
<!-- d0&#45;&gt;a0 -->
<g id="edge88" class="edge"><title>d0&#45;&gt;a0</title>
<path fill="none" stroke="black" d="M787.932,-360.153C776.238,-335.732 754.465,-290.265 740.63,-261.375"/>
<polygon fill="black" stroke="black" points="743.745,-259.775 736.269,-252.268 737.431,-262.799 743.745,-259.775"/>
</g>
<!-- d0&#45;&gt;m0 -->
<g id="edge58" class="edge"><title>d0&#45;&gt;m0</title>
<path fill="none" stroke="black" d="M796.119,-359.904C797.009,-340.915 800.774,-310.034 815,-288 823.482,-274.862 836.439,-263.856 849.036,-255.339"/>
<polygon fill="black" stroke="black" points="851.095,-258.177 857.639,-249.845 847.328,-252.277 851.095,-258.177"/>
</g>
<!-- d0&#45;&gt;a1 -->
<g id="edge68" class="edge"><title>d0&#45;&gt;a1</title>
<path fill="none" stroke="black" d="M856.153,-374.533C898.73,-369.789 954.674,-357.086 992,-324 1009.97,-308.068 1019.12,-281.872 1023.68,-262.016"/>
<polygon fill="black" stroke="black" points="1027.15,-262.518 1025.72,-252.02 1020.29,-261.119 1027.15,-262.518"/>
</g>
<!-- n0 -->
<g id="node17" class="node"><title>n0</title>
<a xlink:href="0005737" xlink:title="GO:0005737 (15)">
<ellipse fill="#e98576" stroke="#e98576" cx="904" cy="-306" rx="79.4447" ry="18"/>
<text text-anchor="middle" x="904" y="-301.8" font-family="Times,serif" font-size="14.00">GO:0005737 (15)</text>
</a>
</g>
<!-- d0&#45;&gt;n0 -->
<g id="edge14" class="edge"><title>d0&#45;&gt;n0</title>
<path fill="none" stroke="black" d="M820.237,-361.291C835.035,-351.7 854.169,-339.298 870.413,-328.769"/>
<polygon fill="black" stroke="black" points="872.607,-331.519 879.094,-323.142 868.799,-325.644 872.607,-331.519"/>
</g>
<!-- l0 -->
<g id="node26" class="node"><title>l0</title>
<a xlink:href="0043229" xlink:title="GO:0043229">
<ellipse fill="#dddddd" stroke="#dddddd" cx="1101" cy="-306" rx="61.1934" ry="18"/>
<text text-anchor="middle" x="1101" y="-301.8" font-family="Times,serif" font-size="14.00">GO:0043229</text>
</a>
</g>
<!-- d0&#45;&gt;l0 -->
<g id="edge24" class="edge"><title>d0&#45;&gt;l0</title>
<path fill="none" stroke="black" d="M842.655,-366.292C896.92,-353.838 986.469,-333.286 1044.59,-319.946"/>
<polygon fill="black" stroke="black" points="1045.39,-323.355 1054.35,-317.706 1043.82,-316.532 1045.39,-323.355"/>
</g>
<!-- s0 -->
<g id="node31" class="node"><title>s0</title>
<a xlink:href="0000502" xlink:title="GO:0000502 (1)">
<ellipse fill="#e98576" stroke="#e98576" cx="449" cy="-306" rx="75.2018" ry="18"/>
<text text-anchor="middle" x="449" y="-301.8" font-family="Times,serif" font-size="14.00">GO:0000502 (1)</text>
</a>
</g>
<!-- d0&#45;&gt;s0 -->
<g id="edge30" class="edge"><title>d0&#45;&gt;s0</title>
<path fill="none" stroke="black" d="M747.019,-367.119C686.247,-354.86 582.396,-333.91 514.739,-320.261"/>
<polygon fill="black" stroke="black" points="515.111,-316.766 504.616,-318.219 513.727,-323.628 515.111,-316.766"/>
</g>
<!-- u0 -->
<g id="node39" class="node"><title>u0</title>
<a xlink:href="0000178" xlink:title="GO:0000178 (1)">
<ellipse fill="#e98576" stroke="#e98576" cx="655" cy="-306" rx="75.2018" ry="18"/>
<text text-anchor="middle" x="655" y="-301.8" font-family="Times,serif" font-size="14.00">GO:0000178 (1)</text>
</a>
</g>
<!-- d0&#45;&gt;u0 -->
<g id="edge40" class="edge"><title>d0&#45;&gt;u0</title>
<path fill="none" stroke="black" d="M766.098,-362.155C745.493,-351.926 717.871,-338.212 695.324,-327.019"/>
<polygon fill="black" stroke="black" points="696.839,-323.863 686.325,-322.552 693.726,-330.133 696.839,-323.863"/>
</g>
<!-- n0&#45;&gt;m0 -->
<g id="edge56" class="edge"><title>n0&#45;&gt;m0</title>
<path fill="none" stroke="black" d="M899.798,-287.697C897.904,-279.898 895.623,-270.509 893.516,-261.829"/>
<polygon fill="black" stroke="black" points="896.915,-260.996 891.154,-252.104 890.113,-262.648 896.915,-260.996"/>
</g>
<!-- c0 -->
<g id="node18" class="node"><title>c0</title>
<a xlink:href="0005575" xlink:title="GO:0005575">
<ellipse fill="#dddddd" stroke="#dddddd" cx="789" cy="-666" rx="61.1934" ry="18"/>
<text text-anchor="middle" x="789" y="-661.8" font-family="Times,serif" font-size="14.00">GO:0005575</text>
</a>
</g>
<!-- c0&#45;&gt;f0 -->
<g id="edge42" class="edge"><title>c0&#45;&gt;f0</title>
<path fill="none" stroke="black" d="M780.201,-648.108C775.063,-637.84 768.69,-624.366 764,-612 756.222,-591.492 749.358,-567.601 744.639,-549.739"/>
<polygon fill="black" stroke="black" points="748.01,-548.795 742.117,-539.99 741.233,-550.548 748.01,-548.795"/>
</g>
<!-- v0 -->
<g id="node20" class="node"><title>v0</title>
<a xlink:href="0019012" xlink:title="GO:0019012 (1)">
<ellipse fill="#e98576" stroke="#e98576" cx="642" cy="-594" rx="75.2018" ry="18"/>
<text text-anchor="middle" x="642" y="-589.8" font-family="Times,serif" font-size="14.00">GO:0019012 (1)</text>
</a>
</g>
<!-- c0&#45;&gt;v0 -->
<g id="edge16" class="edge"><title>c0&#45;&gt;v0</title>
<path fill="none" stroke="black" d="M758.184,-650.326C736.481,-639.991 707.181,-626.039 683.435,-614.731"/>
<polygon fill="black" stroke="black" points="684.836,-611.521 674.302,-610.382 681.826,-617.842 684.836,-611.521"/>
</g>
<!-- b1 -->
<g id="node22" class="node"><title>b1</title>
<a xlink:href="0044422" xlink:title="GO:0044422">
<ellipse fill="#dddddd" stroke="#dddddd" cx="1242" cy="-306" rx="61.1934" ry="18"/>
<text text-anchor="middle" x="1242" y="-301.8" font-family="Times,serif" font-size="14.00">GO:0044422</text>
</a>
</g>
<!-- c0&#45;&gt;b1 -->
<g id="edge18" class="edge"><title>c0&#45;&gt;b1</title>
<path fill="none" stroke="black" d="M836.058,-654.387C896.304,-637.694 993,-599.055 993,-523 993,-523 993,-523 993,-449 993,-403.253 1121.43,-349.975 1193.82,-323.578"/>
<polygon fill="black" stroke="black" points="1195.42,-326.72 1203.64,-320.035 1193.05,-320.135 1195.42,-326.72"/>
</g>
<!-- k0 -->
<g id="node23" class="node"><title>k0</title>
<a xlink:href="0043226" xlink:title="GO:0043226">
<ellipse fill="#dddddd" stroke="#dddddd" cx="1242" cy="-378" rx="61.1934" ry="18"/>
<text text-anchor="middle" x="1242" y="-373.8" font-family="Times,serif" font-size="14.00">GO:0043226</text>
</a>
</g>
<!-- c0&#45;&gt;k0 -->
<g id="edge26" class="edge"><title>c0&#45;&gt;k0</title>
<path fill="none" stroke="black" d="M846.262,-659.617C892.124,-653.36 956.855,-640.037 1007,-612 1104.01,-557.759 1188.61,-452.436 1224.15,-404.212"/>
<polygon fill="black" stroke="black" points="1227.14,-406.041 1230.2,-395.897 1221.49,-401.919 1227.14,-406.041"/>
</g>
<!-- g0 -->
<g id="node34" class="node"><title>g0</title>
<a xlink:href="0005623" xlink:title="GO:0005623">
<ellipse fill="#dddddd" stroke="#dddddd" cx="834" cy="-594" rx="61.1934" ry="18"/>
<text text-anchor="middle" x="834" y="-589.8" font-family="Times,serif" font-size="14.00">GO:0005623</text>
</a>
</g>
<!-- c0&#45;&gt;g0 -->
<g id="edge32" class="edge"><title>c0&#45;&gt;g0</title>
<path fill="none" stroke="black" d="M799.893,-648.055C805.255,-639.715 811.827,-629.491 817.767,-620.252"/>
<polygon fill="black" stroke="black" points="820.744,-622.093 823.207,-611.789 814.855,-618.308 820.744,-622.093"/>
</g>
<!-- b0 -->
<g id="node50" class="node"><title>b0</title>
<a xlink:href="0032991" xlink:title="GO:0032991">
<ellipse fill="#dddddd" stroke="#dddddd" cx="539" cy="-450" rx="61.1934" ry="18"/>
<text text-anchor="middle" x="539" y="-445.8" font-family="Times,serif" font-size="14.00">GO:0032991</text>
</a>
</g>
<!-- c0&#45;&gt;b0 -->
<g id="edge54" class="edge"><title>c0&#45;&gt;b0</title>
<path fill="none" stroke="black" d="M731.88,-659.379C671.167,-652.157 580.809,-637.418 558,-612 525.121,-575.361 528.301,-513.633 533.614,-478.202"/>
<polygon fill="black" stroke="black" points="537.105,-478.546 535.294,-468.107 530.2,-477.397 537.105,-478.546"/>
</g>
<!-- b1&#45;&gt;a1 -->
<g id="edge66" class="edge"><title>b1&#45;&gt;a1</title>
<path fill="none" stroke="black" d="M1202.75,-292.161C1167.41,-280.603 1115.34,-263.568 1077.22,-251.101"/>
<polygon fill="black" stroke="black" points="1077.96,-247.658 1067.36,-247.876 1075.78,-254.312 1077.96,-247.658"/>
</g>
<!-- k0&#45;&gt;b1 -->
<g id="edge20" class="edge"><title>k0&#45;&gt;b1</title>
<path fill="none" stroke="black" d="M1242,-359.697C1242,-351.983 1242,-342.712 1242,-334.112"/>
<polygon fill="black" stroke="black" points="1245.5,-334.104 1242,-324.104 1238.5,-334.104 1245.5,-334.104"/>
</g>
<!-- k0&#45;&gt;l0 -->
<g id="edge22" class="edge"><title>k0&#45;&gt;l0</title>
<path fill="none" stroke="black" d="M1212.1,-362.155C1191.07,-351.714 1162.72,-337.644 1139.93,-326.328"/>
<polygon fill="black" stroke="black" points="1141.37,-323.136 1130.86,-321.824 1138.26,-329.405 1141.37,-323.136"/>
</g>
<!-- x0 -->
<g id="node44" class="node"><title>x0</title>
<a xlink:href="0031982" xlink:title="GO:0031982 (1)">
<ellipse fill="#e98576" stroke="#e98576" cx="1397" cy="-306" rx="75.2018" ry="18"/>
<text text-anchor="middle" x="1397" y="-301.8" font-family="Times,serif" font-size="14.00">GO:0031982 (1)</text>
</a>
</g>
<!-- k0&#45;&gt;x0 -->
<g id="edge46" class="edge"><title>k0&#45;&gt;x0</title>
<path fill="none" stroke="black" d="M1274.12,-362.496C1297.23,-352.056 1328.67,-337.86 1353.96,-326.439"/>
<polygon fill="black" stroke="black" points="1355.64,-329.518 1363.32,-322.212 1352.76,-323.138 1355.64,-329.518"/>
</g>
<!-- j0 -->
<g id="node54" class="node"><title>j0</title>
<a xlink:href="0043228" xlink:title="GO:0043228">
<ellipse fill="#dddddd" stroke="#dddddd" cx="1552" cy="-306" rx="61.1934" ry="18"/>
<text text-anchor="middle" x="1552" y="-301.8" font-family="Times,serif" font-size="14.00">GO:0043228</text>
</a>
</g>
<!-- k0&#45;&gt;j0 -->
<g id="edge60" class="edge"><title>k0&#45;&gt;j0</title>
<path fill="none" stroke="black" d="M1289.67,-366.676C1337.94,-356.162 1414.74,-339.279 1481,-324 1485.97,-322.855 1491.13,-321.65 1496.29,-320.432"/>
<polygon fill="black" stroke="black" points="1497.27,-323.797 1506.19,-318.087 1495.66,-316.986 1497.27,-323.797"/>
</g>
<!-- l0&#45;&gt;a1 -->
<g id="edge64" class="edge"><title>l0&#45;&gt;a1</title>
<path fill="none" stroke="black" d="M1083.7,-288.411C1074.43,-279.519 1062.84,-268.411 1052.64,-258.631"/>
<polygon fill="black" stroke="black" points="1054.82,-255.865 1045.18,-251.47 1049.97,-260.917 1054.82,-255.865"/>
</g>
<!-- i0 -->
<g id="node60" class="node"><title>i0</title>
<a xlink:href="0043232" xlink:title="GO:0043232">
<ellipse fill="#dddddd" stroke="#dddddd" cx="1169" cy="-234" rx="61.1934" ry="18"/>
<text text-anchor="middle" x="1169" y="-229.8" font-family="Times,serif" font-size="14.00">GO:0043232</text>
</a>
</g>
<!-- l0&#45;&gt;i0 -->
<g id="edge94" class="edge"><title>l0&#45;&gt;i0</title>
<path fill="none" stroke="black" d="M1117.12,-288.411C1125.67,-279.606 1136.33,-268.628 1145.76,-258.919"/>
<polygon fill="black" stroke="black" points="1148.54,-261.082 1153,-251.47 1143.52,-256.204 1148.54,-261.082"/>
</g>
<!-- q0 -->
<g id="node29" class="node"><title>q0</title>
<a xlink:href="0043234" xlink:title="GO:0043234 (3)">
<ellipse fill="#e98576" stroke="#e98576" cx="436" cy="-378" rx="75.2018" ry="18"/>
<text text-anchor="middle" x="436" y="-373.8" font-family="Times,serif" font-size="14.00">GO:0043234 (3)</text>
</a>
</g>
<!-- q0&#45;&gt;s0 -->
<g id="edge28" class="edge"><title>q0&#45;&gt;s0</title>
<path fill="none" stroke="black" d="M439.213,-359.697C440.646,-351.983 442.368,-342.712 443.965,-334.112"/>
<polygon fill="black" stroke="black" points="447.439,-334.575 445.823,-324.104 440.556,-333.297 447.439,-334.575"/>
</g>
<!-- q0&#45;&gt;y0 -->
<g id="edge36" class="edge"><title>q0&#45;&gt;y0</title>
<path fill="none" stroke="black" d="M405.969,-361.402C391.454,-352.368 375.043,-339.67 365,-324 343.176,-289.946 346,-275.447 346,-235 346,-235 346,-235 346,-161 346,-80.7084 445.714,-45.0694 517.914,-29.788"/>
<polygon fill="black" stroke="black" points="518.8,-33.1798 527.906,-27.7643 517.411,-26.3191 518.8,-33.1798"/>
</g>
<!-- q0&#45;&gt;u0 -->
<g id="edge38" class="edge"><title>q0&#45;&gt;u0</title>
<path fill="none" stroke="black" d="M479.267,-363.17C514.512,-351.905 564.419,-335.953 602.048,-323.925"/>
<polygon fill="black" stroke="black" points="603.363,-327.18 611.823,-320.801 601.232,-320.512 603.363,-327.18"/>
</g>
<!-- q0&#45;&gt;p0 -->
<g id="edge76" class="edge"><title>q0&#45;&gt;p0</title>
<path fill="none" stroke="black" d="M396.478,-362.666C366.295,-351.718 324.526,-336.569 292.181,-324.838"/>
<polygon fill="black" stroke="black" points="293.063,-321.435 282.469,-321.315 290.677,-328.015 293.063,-321.435"/>
</g>
<!-- q0&#45;&gt;t0 -->
<g id="edge82" class="edge"><title>q0&#45;&gt;t0</title>
<path fill="none" stroke="black" d="M378.936,-366.265C322.907,-355.682 235.024,-338.966 159,-324 152.868,-322.793 146.488,-321.524 140.105,-320.247"/>
<polygon fill="black" stroke="black" points="140.602,-316.777 130.108,-318.24 139.224,-323.64 140.602,-316.777"/>
</g>
<!-- g0&#45;&gt;f0 -->
<g id="edge44" class="edge"><title>g0&#45;&gt;f0</title>
<path fill="none" stroke="black" d="M812.216,-577.116C799.389,-567.763 782.958,-555.782 768.819,-545.472"/>
<polygon fill="black" stroke="black" points="770.506,-542.371 760.364,-539.307 766.382,-548.027 770.506,-542.371"/>
</g>
<!-- e0&#45;&gt;d0 -->
<g id="edge48" class="edge"><title>e0&#45;&gt;d0</title>
<path fill="none" stroke="black" d="M747.167,-432.411C755.217,-423.606 765.254,-412.628 774.131,-402.919"/>
<polygon fill="black" stroke="black" points="776.777,-405.212 780.942,-395.47 771.611,-400.489 776.777,-405.212"/>
</g>
<!-- b0&#45;&gt;a0 -->
<g id="edge86" class="edge"><title>b0&#45;&gt;a0</title>
<path fill="none" stroke="black" d="M537.23,-431.552C534.946,-399.118 534.891,-329.11 571,-288 590.7,-265.572 620.224,-252.617 648.372,-245.142"/>
<polygon fill="black" stroke="black" points="649.373,-248.5 658.252,-242.72 647.706,-241.702 649.373,-248.5"/>
</g>
<!-- b0&#45;&gt;q0 -->
<g id="edge90" class="edge"><title>b0&#45;&gt;q0</title>
<path fill="none" stroke="black" d="M515.885,-433.291C501.772,-423.7 483.524,-411.298 468.032,-400.769"/>
<polygon fill="black" stroke="black" points="469.991,-397.869 459.753,-395.142 466.056,-403.658 469.991,-397.869"/>
</g>
<!-- j0&#45;&gt;i0 -->
<g id="edge92" class="edge"><title>j0&#45;&gt;i0</title>
<path fill="none" stroke="black" d="M1507.03,-293.754C1498.41,-291.735 1489.44,-289.726 1481,-288 1395.34,-270.489 1295.61,-254.268 1232.4,-244.5"/>
<polygon fill="black" stroke="black" points="1232.61,-240.991 1222.2,-242.929 1231.55,-247.909 1232.61,-240.991"/>
</g>
<!-- i0&#45;&gt;h0 -->
<g id="edge72" class="edge"><title>i0&#45;&gt;h0</title>
<path fill="none" stroke="black" d="M1123.6,-221.878C1115.11,-219.868 1106.29,-217.831 1098,-216 1032.55,-201.548 957.546,-186.532 904.609,-176.189"/>
<polygon fill="black" stroke="black" points="905.143,-172.727 894.658,-174.249 903.803,-179.598 905.143,-172.727"/>
</g>
<!-- w0 -->
<g id="node67" class="node"><title>w0</title>
<a xlink:href="0005694" xlink:title="GO:0005694 (1)">
<ellipse fill="#e98576" stroke="#e98576" cx="1169" cy="-162" rx="75.2018" ry="18"/>
<text text-anchor="middle" x="1169" y="-157.8" font-family="Times,serif" font-size="14.00">GO:0005694 (1)</text>
</a>
</g>
<!-- i0&#45;&gt;w0 -->
<g id="edge80" class="edge"><title>i0&#45;&gt;w0</title>
<path fill="none" stroke="black" d="M1169,-215.697C1169,-207.983 1169,-198.712 1169,-190.112"/>
<polygon fill="black" stroke="black" points="1172.5,-190.104 1169,-180.104 1165.5,-190.104 1172.5,-190.104"/>
</g>
</g>
</svg>
