<?xml version="1.0" encoding="UTF-8" standalone="no"?>
<!DOCTYPE svg PUBLIC "-//W3C//DTD SVG 1.1//EN"
 "http://www.w3.org/Graphics/SVG/1.1/DTD/svg11.dtd">
<!-- Generated by graphviz version 2.28.0 (20110622.2320)
 -->
<!-- Title: G Pages: 1 -->
<svg width="3429pt" height="260pt"
 viewBox="0.00 0.00 3429.00 260.00" xmlns="http://www.w3.org/2000/svg" xmlns:xlink="http://www.w3.org/1999/xlink">
<g id="graph1" class="graph" transform="scale(1 1) rotate(0) translate(4 256)">
<title>G</title>
<polygon fill="white" stroke="white" points="-4,5 -4,-256 3426,-256 3426,5 -4,5"/>
<!-- b0 -->
<g id="node1" class="node"><title>b0</title>
<a xlink:href="0005488" xlink:title="GO:0005488">
<ellipse fill="#dddddd" stroke="#dddddd" cx="1019" cy="-162" rx="61.1934" ry="18"/>
<text text-anchor="middle" x="1019" y="-157.8" font-family="Times,serif" font-size="14.00">GO:0005488</text>
</a>
</g>
<!-- x0 -->
<g id="node3" class="node"><title>x0</title>
<a xlink:href="0008289" xlink:title="GO:0008289 (3)">
<ellipse fill="#e98576" stroke="#e98576" cx="75" cy="-90" rx="75.2018" ry="18"/>
<text text-anchor="middle" x="75" y="-85.8" font-family="Times,serif" font-size="14.00">GO:0008289 (3)</text>
</a>
</g>
<!-- b0&#45;&gt;x0 -->
<g id="edge2" class="edge"><title>b0&#45;&gt;x0</title>
<path fill="none" stroke="black" d="M957.987,-160.13C816.812,-157.487 456.927,-147.137 159,-108 152.26,-107.115 145.25,-106.004 138.282,-104.776"/>
<polygon fill="black" stroke="black" points="138.607,-101.277 128.138,-102.907 137.338,-108.161 138.607,-101.277"/>
</g>
<!-- d1 -->
<g id="node11" class="node"><title>d1</title>
<a xlink:href="0033218" xlink:title="GO:0033218 (1)">
<ellipse fill="#e98576" stroke="#e98576" cx="243" cy="-90" rx="75.2018" ry="18"/>
<text text-anchor="middle" x="243" y="-85.8" font-family="Times,serif" font-size="14.00">GO:0033218 (1)</text>
</a>
</g>
<!-- b0&#45;&gt;d1 -->
<g id="edge8" class="edge"><title>b0&#45;&gt;d1</title>
<path fill="none" stroke="black" d="M958.567,-158.878C837.981,-154.09 559.124,-140.253 327,-108 320.267,-107.064 313.262,-105.921 306.296,-104.675"/>
<polygon fill="black" stroke="black" points="306.626,-101.176 296.154,-102.786 305.345,-108.058 306.626,-101.176"/>
</g>
<!-- y0 -->
<g id="node15" class="node"><title>y0</title>
<a xlink:href="0005515" xlink:title="GO:0005515 (3)">
<ellipse fill="#e98576" stroke="#e98576" cx="411" cy="-90" rx="75.2018" ry="18"/>
<text text-anchor="middle" x="411" y="-85.8" font-family="Times,serif" font-size="14.00">GO:0005515 (3)</text>
</a>
</g>
<!-- b0&#45;&gt;y0 -->
<g id="edge12" class="edge"><title>b0&#45;&gt;y0</title>
<path fill="none" stroke="black" d="M960.217,-156.96C863.037,-149.855 662.93,-133.422 495,-108 488.378,-106.997 481.487,-105.822 474.627,-104.565"/>
<polygon fill="black" stroke="black" points="475.109,-101.094 464.633,-102.676 473.809,-107.973 475.109,-101.094"/>
</g>
<!-- h0 -->
<g id="node17" class="node"><title>h0</title>
<a xlink:href="0001882" xlink:title="GO:0001882 (34)">
<ellipse fill="#e98576" stroke="#e98576" cx="584" cy="-90" rx="79.4447" ry="18"/>
<text text-anchor="middle" x="584" y="-85.8" font-family="Times,serif" font-size="14.00">GO:0001882 (34)</text>
</a>
</g>
<!-- b0&#45;&gt;h0 -->
<g id="edge14" class="edge"><title>b0&#45;&gt;h0</title>
<path fill="none" stroke="black" d="M964.962,-153.35C896.791,-143.555 776.011,-125.722 673,-108 666.23,-106.835 659.179,-105.573 652.141,-104.281"/>
<polygon fill="black" stroke="black" points="652.343,-100.759 641.872,-102.374 651.065,-107.641 652.343,-100.759"/>
</g>
<!-- c1 -->
<g id="node19" class="node"><title>c1</title>
<a xlink:href="0019842" xlink:title="GO:0019842 (1)">
<ellipse fill="#e98576" stroke="#e98576" cx="757" cy="-90" rx="75.2018" ry="18"/>
<text text-anchor="middle" x="757" y="-85.8" font-family="Times,serif" font-size="14.00">GO:0019842 (1)</text>
</a>
</g>
<!-- b0&#45;&gt;c1 -->
<g id="edge16" class="edge"><title>b0&#45;&gt;c1</title>
<path fill="none" stroke="black" d="M975.147,-149.284C931.263,-137.559 863.501,-119.455 815.151,-106.537"/>
<polygon fill="black" stroke="black" points="816.013,-103.144 805.449,-103.944 814.206,-109.907 816.013,-103.144"/>
</g>
<!-- a0 -->
<g id="node36" class="node"><title>a0</title>
<a xlink:href="0043167" xlink:title="GO:0043167 (60)">
<ellipse fill="#e98576" stroke="#e98576" cx="930" cy="-90" rx="79.4447" ry="18"/>
<text text-anchor="middle" x="930" y="-85.8" font-family="Times,serif" font-size="14.00">GO:0043167 (60)</text>
</a>
</g>
<!-- b0&#45;&gt;a0 -->
<g id="edge32" class="edge"><title>b0&#45;&gt;a0</title>
<path fill="none" stroke="black" d="M998.358,-144.765C986.648,-135.554 971.808,-123.882 958.949,-113.769"/>
<polygon fill="black" stroke="black" points="960.862,-110.821 950.838,-107.39 956.535,-116.323 960.862,-110.821"/>
</g>
<!-- f0 -->
<g id="node45" class="node"><title>f0</title>
<a xlink:href="0003676" xlink:title="GO:0003676 (42)">
<ellipse fill="#e98576" stroke="#e98576" cx="1108" cy="-90" rx="79.4447" ry="18"/>
<text text-anchor="middle" x="1108" y="-85.8" font-family="Times,serif" font-size="14.00">GO:0003676 (42)</text>
</a>
</g>
<!-- b0&#45;&gt;f0 -->
<g id="edge42" class="edge"><title>b0&#45;&gt;f0</title>
<path fill="none" stroke="black" d="M1039.64,-144.765C1051.35,-135.554 1066.19,-123.882 1079.05,-113.769"/>
<polygon fill="black" stroke="black" points="1081.47,-116.323 1087.16,-107.39 1077.14,-110.821 1081.47,-116.323"/>
</g>
<!-- o0 -->
<g id="node48" class="node"><title>o0</title>
<a xlink:href="0046906" xlink:title="GO:0046906 (9)">
<ellipse fill="#e98576" stroke="#e98576" cx="1281" cy="-90" rx="75.2018" ry="18"/>
<text text-anchor="middle" x="1281" y="-85.8" font-family="Times,serif" font-size="14.00">GO:0046906 (9)</text>
</a>
</g>
<!-- b0&#45;&gt;o0 -->
<g id="edge46" class="edge"><title>b0&#45;&gt;o0</title>
<path fill="none" stroke="black" d="M1062.85,-149.284C1106.74,-137.559 1174.5,-119.455 1222.85,-106.537"/>
<polygon fill="black" stroke="black" points="1223.79,-109.907 1232.55,-103.944 1221.99,-103.144 1223.79,-109.907"/>
</g>
<!-- g0 -->
<g id="node50" class="node"><title>g0</title>
<a xlink:href="0000166" xlink:title="GO:0000166 (37)">
<ellipse fill="#e98576" stroke="#e98576" cx="1454" cy="-90" rx="79.4447" ry="18"/>
<text text-anchor="middle" x="1454" y="-85.8" font-family="Times,serif" font-size="14.00">GO:0000166 (37)</text>
</a>
</g>
<!-- b0&#45;&gt;g0 -->
<g id="edge48" class="edge"><title>b0&#45;&gt;g0</title>
<path fill="none" stroke="black" d="M1073.04,-153.35C1141.21,-143.555 1261.99,-125.722 1365,-108 1371.77,-106.835 1378.82,-105.573 1385.86,-104.281"/>
<polygon fill="black" stroke="black" points="1386.93,-107.641 1396.13,-102.374 1385.66,-100.759 1386.93,-107.641"/>
</g>
<!-- s0 -->
<g id="node56" class="node"><title>s0</title>
<a xlink:href="0048037" xlink:title="GO:0048037 (5)">
<ellipse fill="#e98576" stroke="#e98576" cx="1627" cy="-90" rx="75.2018" ry="18"/>
<text text-anchor="middle" x="1627" y="-85.8" font-family="Times,serif" font-size="14.00">GO:0048037 (5)</text>
</a>
</g>
<!-- b0&#45;&gt;s0 -->
<g id="edge54" class="edge"><title>b0&#45;&gt;s0</title>
<path fill="none" stroke="black" d="M1078.06,-156.881C1175.19,-149.688 1374.59,-133.164 1542,-108 1548.8,-106.978 1555.88,-105.779 1562.92,-104.5"/>
<polygon fill="black" stroke="black" points="1563.99,-107.86 1573.18,-102.578 1562.71,-100.979 1563.99,-107.86"/>
</g>
<!-- r0 -->
<g id="node59" class="node"><title>r0</title>
<a xlink:href="0051540" xlink:title="GO:0051540 (5)">
<ellipse fill="#e98576" stroke="#e98576" cx="1795" cy="-90" rx="75.2018" ry="18"/>
<text text-anchor="middle" x="1795" y="-85.8" font-family="Times,serif" font-size="14.00">GO:0051540 (5)</text>
</a>
</g>
<!-- b0&#45;&gt;r0 -->
<g id="edge58" class="edge"><title>b0&#45;&gt;r0</title>
<path fill="none" stroke="black" d="M1079.43,-158.878C1200.02,-154.09 1478.88,-140.253 1711,-108 1717.73,-107.064 1724.74,-105.921 1731.7,-104.675"/>
<polygon fill="black" stroke="black" points="1732.66,-108.058 1741.85,-102.786 1731.37,-101.176 1732.66,-108.058"/>
</g>
<!-- e0 -->
<g id="node4" class="node"><title>e0</title>
<a xlink:href="0003824" xlink:title="GO:0003824 (29)">
<ellipse fill="#e98576" stroke="#e98576" cx="2573" cy="-162" rx="79.4447" ry="18"/>
<text text-anchor="middle" x="2573" y="-157.8" font-family="Times,serif" font-size="14.00">GO:0003824 (29)</text>
</a>
</g>
<!-- w0 -->
<g id="node6" class="node"><title>w0</title>
<a xlink:href="0016853" xlink:title="GO:0016853 (3)">
<ellipse fill="#e98576" stroke="#e98576" cx="1963" cy="-90" rx="75.2018" ry="18"/>
<text text-anchor="middle" x="1963" y="-85.8" font-family="Times,serif" font-size="14.00">GO:0016853 (3)</text>
</a>
</g>
<!-- e0&#45;&gt;w0 -->
<g id="edge4" class="edge"><title>e0&#45;&gt;w0</title>
<path fill="none" stroke="black" d="M2498.23,-155.815C2395.98,-148.189 2206.95,-132.182 2047,-108 2040.38,-106.999 2033.49,-105.824 2026.63,-104.568"/>
<polygon fill="black" stroke="black" points="2027.11,-101.097 2016.63,-102.679 2025.81,-107.975 2027.11,-101.097"/>
</g>
<!-- j0 -->
<g id="node7" class="node"><title>j0</title>
<a xlink:href="0016491" xlink:title="GO:0016491 (25)">
<ellipse fill="#e98576" stroke="#e98576" cx="2136" cy="-90" rx="79.4447" ry="18"/>
<text text-anchor="middle" x="2136" y="-85.8" font-family="Times,serif" font-size="14.00">GO:0016491 (25)</text>
</a>
</g>
<!-- e0&#45;&gt;j0 -->
<g id="edge44" class="edge"><title>e0&#45;&gt;j0</title>
<path fill="none" stroke="black" d="M2507.46,-151.768C2437.42,-141.727 2323.18,-124.847 2225,-108 2218.23,-106.838 2211.18,-105.578 2204.14,-104.287"/>
<polygon fill="black" stroke="black" points="2204.34,-100.765 2193.87,-102.381 2203.06,-107.647 2204.34,-100.765"/>
</g>
<!-- k0 -->
<g id="node28" class="node"><title>k0</title>
<a xlink:href="0016787" xlink:title="GO:0016787 (23)">
<ellipse fill="#e98576" stroke="#e98576" cx="2314" cy="-90" rx="79.4447" ry="18"/>
<text text-anchor="middle" x="2314" y="-85.8" font-family="Times,serif" font-size="14.00">GO:0016787 (23)</text>
</a>
</g>
<!-- e0&#45;&gt;k0 -->
<g id="edge34" class="edge"><title>e0&#45;&gt;k0</title>
<path fill="none" stroke="black" d="M2523.98,-147.751C2481.08,-136.156 2418.65,-119.285 2373.02,-106.951"/>
<polygon fill="black" stroke="black" points="2373.83,-103.544 2363.26,-104.313 2372,-110.301 2373.83,-103.544"/>
</g>
<!-- t0 -->
<g id="node41" class="node"><title>t0</title>
<a xlink:href="0016874" xlink:title="GO:0016874 (4)">
<ellipse fill="#e98576" stroke="#e98576" cx="2487" cy="-90" rx="75.2018" ry="18"/>
<text text-anchor="middle" x="2487" y="-85.8" font-family="Times,serif" font-size="14.00">GO:0016874 (4)</text>
</a>
</g>
<!-- e0&#45;&gt;t0 -->
<g id="edge38" class="edge"><title>e0&#45;&gt;t0</title>
<path fill="none" stroke="black" d="M2552.62,-144.411C2541.48,-135.345 2527.51,-123.974 2515.33,-114.057"/>
<polygon fill="black" stroke="black" points="2517.2,-111.068 2507.23,-107.47 2512.78,-116.497 2517.2,-111.068"/>
</g>
<!-- d0 -->
<g id="node43" class="node"><title>d0</title>
<a xlink:href="0016740" xlink:title="GO:0016740 (47)">
<ellipse fill="#e98576" stroke="#e98576" cx="2660" cy="-90" rx="79.4447" ry="18"/>
<text text-anchor="middle" x="2660" y="-85.8" font-family="Times,serif" font-size="14.00">GO:0016740 (47)</text>
</a>
</g>
<!-- e0&#45;&gt;d0 -->
<g id="edge40" class="edge"><title>e0&#45;&gt;d0</title>
<path fill="none" stroke="black" d="M2593.62,-144.411C2604.99,-135.257 2619.29,-123.755 2631.7,-113.772"/>
<polygon fill="black" stroke="black" points="2633.93,-116.466 2639.53,-107.47 2629.54,-111.012 2633.93,-116.466"/>
</g>
<!-- u0 -->
<g id="node52" class="node"><title>u0</title>
<a xlink:href="0016829" xlink:title="GO:0016829 (4)">
<ellipse fill="#e98576" stroke="#e98576" cx="2833" cy="-90" rx="75.2018" ry="18"/>
<text text-anchor="middle" x="2833" y="-85.8" font-family="Times,serif" font-size="14.00">GO:0016829 (4)</text>
</a>
</g>
<!-- e0&#45;&gt;u0 -->
<g id="edge50" class="edge"><title>e0&#45;&gt;u0</title>
<path fill="none" stroke="black" d="M2622.21,-147.751C2665.69,-136.045 2729.14,-118.962 2775.06,-106.599"/>
<polygon fill="black" stroke="black" points="2776.12,-109.937 2784.87,-103.958 2774.3,-103.178 2776.12,-109.937"/>
</g>
<!-- q0 -->
<g id="node54" class="node"><title>q0</title>
<a xlink:href="0004386" xlink:title="GO:0004386 (5)">
<ellipse fill="#e98576" stroke="#e98576" cx="3001" cy="-90" rx="75.2018" ry="18"/>
<text text-anchor="middle" x="3001" y="-85.8" font-family="Times,serif" font-size="14.00">GO:0004386 (5)</text>
</a>
</g>
<!-- e0&#45;&gt;q0 -->
<g id="edge52" class="edge"><title>e0&#45;&gt;q0</title>
<path fill="none" stroke="black" d="M2638.78,-151.8C2708.12,-141.882 2820.48,-125.193 2917,-108 2923.25,-106.887 2929.75,-105.673 2936.24,-104.422"/>
<polygon fill="black" stroke="black" points="2937.25,-107.79 2946.4,-102.436 2935.91,-100.92 2937.25,-107.79"/>
</g>
<!-- v0 -->
<g id="node9" class="node"><title>v0</title>
<a xlink:href="0051213" xlink:title="GO:0051213 (4)">
<ellipse fill="#e98576" stroke="#e98576" cx="1884" cy="-18" rx="75.2018" ry="18"/>
<text text-anchor="middle" x="1884" y="-13.8" font-family="Times,serif" font-size="14.00">GO:0051213 (4)</text>
</a>
</g>
<!-- j0&#45;&gt;v0 -->
<g id="edge6" class="edge"><title>j0&#45;&gt;v0</title>
<path fill="none" stroke="black" d="M2087.71,-75.5861C2045.86,-63.9603 1985.24,-47.1214 1941.01,-34.8363"/>
<polygon fill="black" stroke="black" points="1941.84,-31.4355 1931.27,-32.1313 1939.97,-38.1801 1941.84,-31.4355"/>
</g>
<!-- a1 -->
<g id="node32" class="node"><title>a1</title>
<a xlink:href="0004497" xlink:title="GO:0004497 (2)">
<ellipse fill="#e98576" stroke="#e98576" cx="2052" cy="-18" rx="75.2018" ry="18"/>
<text text-anchor="middle" x="2052" y="-13.8" font-family="Times,serif" font-size="14.00">GO:0004497 (2)</text>
</a>
</g>
<!-- j0&#45;&gt;a1 -->
<g id="edge28" class="edge"><title>j0&#45;&gt;a1</title>
<path fill="none" stroke="black" d="M2116.09,-72.411C2105.21,-63.3446 2091.57,-51.9742 2079.67,-42.0572"/>
<polygon fill="black" stroke="black" points="2081.69,-39.183 2071.76,-35.4699 2077.21,-44.5606 2081.69,-39.183"/>
</g>
<!-- n0 -->
<g id="node39" class="node"><title>n0</title>
<a xlink:href="0009055" xlink:title="GO:0009055 (13)">
<ellipse fill="#e98576" stroke="#e98576" cx="2225" cy="-18" rx="79.4447" ry="18"/>
<text text-anchor="middle" x="2225" y="-13.8" font-family="Times,serif" font-size="14.00">GO:0009055 (13)</text>
</a>
</g>
<!-- j0&#45;&gt;n0 -->
<g id="edge36" class="edge"><title>j0&#45;&gt;n0</title>
<path fill="none" stroke="black" d="M2157.09,-72.411C2168.73,-63.2575 2183.35,-51.7553 2196.05,-41.7715"/>
<polygon fill="black" stroke="black" points="2198.36,-44.4031 2204.06,-35.4699 2194.04,-38.9011 2198.36,-44.4031"/>
</g>
<!-- c0 -->
<g id="node12" class="node"><title>c0</title>
<a xlink:href="0003674" xlink:title="GO:0003674 (20)">
<ellipse fill="#e98576" stroke="#e98576" cx="3000" cy="-234" rx="79.4447" ry="18"/>
<text text-anchor="middle" x="3000" y="-229.8" font-family="Times,serif" font-size="14.00">GO:0003674 (20)</text>
</a>
</g>
<!-- c0&#45;&gt;b0 -->
<g id="edge22" class="edge"><title>c0&#45;&gt;b0</title>
<path fill="none" stroke="black" d="M2922.04,-230.245C2602.39,-218.95 1394.64,-176.274 1089.41,-165.488"/>
<polygon fill="black" stroke="black" points="1089.48,-161.988 1079.36,-165.133 1089.23,-168.984 1089.48,-161.988"/>
</g>
<!-- c0&#45;&gt;e0 -->
<g id="edge10" class="edge"><title>c0&#45;&gt;e0</title>
<path fill="none" stroke="black" d="M2937.45,-222.746C2859.73,-210.006 2727.38,-188.307 2645.36,-174.862"/>
<polygon fill="black" stroke="black" points="2645.8,-171.388 2635.37,-173.224 2644.67,-178.296 2645.8,-171.388"/>
</g>
<!-- m0 -->
<g id="node20" class="node"><title>m0</title>
<a xlink:href="0060089" xlink:title="GO:0060089 (2)">
<ellipse fill="#e98576" stroke="#e98576" cx="3000" cy="-162" rx="75.2018" ry="18"/>
<text text-anchor="middle" x="3000" y="-157.8" font-family="Times,serif" font-size="14.00">GO:0060089 (2)</text>
</a>
</g>
<!-- c0&#45;&gt;m0 -->
<g id="edge56" class="edge"><title>c0&#45;&gt;m0</title>
<path fill="none" stroke="black" d="M3000,-215.697C3000,-207.983 3000,-198.712 3000,-190.112"/>
<polygon fill="black" stroke="black" points="3003.5,-190.104 3000,-180.104 2996.5,-190.104 3003.5,-190.104"/>
</g>
<!-- b1 -->
<g id="node24" class="node"><title>b1</title>
<a xlink:href="0003774" xlink:title="GO:0003774 (1)">
<ellipse fill="#e98576" stroke="#e98576" cx="3168" cy="-162" rx="75.2018" ry="18"/>
<text text-anchor="middle" x="3168" y="-157.8" font-family="Times,serif" font-size="14.00">GO:0003774 (1)</text>
</a>
</g>
<!-- c0&#45;&gt;b1 -->
<g id="edge20" class="edge"><title>c0&#45;&gt;b1</title>
<path fill="none" stroke="black" d="M3036.45,-217.811C3061.83,-207.236 3095.85,-193.063 3122.93,-181.779"/>
<polygon fill="black" stroke="black" points="3124.31,-184.996 3132.19,-177.919 3121.62,-178.534 3124.31,-184.996"/>
</g>
<!-- i0 -->
<g id="node34" class="node"><title>i0</title>
<a xlink:href="0005215" xlink:title="GO:0005215 (31)">
<ellipse fill="#e98576" stroke="#e98576" cx="3341" cy="-162" rx="79.4447" ry="18"/>
<text text-anchor="middle" x="3341" y="-157.8" font-family="Times,serif" font-size="14.00">GO:0005215 (31)</text>
</a>
</g>
<!-- c0&#45;&gt;i0 -->
<g id="edge30" class="edge"><title>c0&#45;&gt;i0</title>
<path fill="none" stroke="black" d="M3056.69,-221.362C3116.55,-209.074 3210.86,-189.714 3274.27,-176.698"/>
<polygon fill="black" stroke="black" points="3275.08,-180.105 3284.17,-174.665 3273.67,-173.248 3275.08,-180.105"/>
</g>
<!-- z0 -->
<g id="node22" class="node"><title>z0</title>
<a xlink:href="0031992" xlink:title="GO:0031992 (2)">
<ellipse fill="#e98576" stroke="#e98576" cx="3169" cy="-90" rx="75.2018" ry="18"/>
<text text-anchor="middle" x="3169" y="-85.8" font-family="Times,serif" font-size="14.00">GO:0031992 (2)</text>
</a>
</g>
<!-- m0&#45;&gt;z0 -->
<g id="edge18" class="edge"><title>m0&#45;&gt;z0</title>
<path fill="none" stroke="black" d="M3035.84,-146.155C3061.5,-135.528 3096.23,-121.142 3123.79,-109.727"/>
<polygon fill="black" stroke="black" points="3125.31,-112.884 3133.21,-105.824 3122.63,-106.417 3125.31,-112.884"/>
</g>
<!-- l0 -->
<g id="node27" class="node"><title>l0</title>
<a xlink:href="0004871" xlink:title="GO:0004871 (16)">
<ellipse fill="#e98576" stroke="#e98576" cx="3342" cy="-90" rx="79.4447" ry="18"/>
<text text-anchor="middle" x="3342" y="-85.8" font-family="Times,serif" font-size="14.00">GO:0004871 (16)</text>
</a>
</g>
<!-- m0&#45;&gt;l0 -->
<g id="edge24" class="edge"><title>m0&#45;&gt;l0</title>
<path fill="none" stroke="black" d="M3055.33,-149.675C3115.26,-137.408 3210.89,-117.835 3275.03,-104.708"/>
<polygon fill="black" stroke="black" points="3275.95,-108.092 3285.04,-102.658 3274.54,-101.235 3275.95,-108.092"/>
</g>
<!-- p0 -->
<g id="node30" class="node"><title>p0</title>
<a xlink:href="0008233" xlink:title="GO:0008233 (7)">
<ellipse fill="#e98576" stroke="#e98576" cx="2398" cy="-18" rx="75.2018" ry="18"/>
<text text-anchor="middle" x="2398" y="-13.8" font-family="Times,serif" font-size="14.00">GO:0008233 (7)</text>
</a>
</g>
<!-- k0&#45;&gt;p0 -->
<g id="edge26" class="edge"><title>k0&#45;&gt;p0</title>
<path fill="none" stroke="black" d="M2333.91,-72.411C2344.79,-63.3446 2358.43,-51.9742 2370.33,-42.0572"/>
<polygon fill="black" stroke="black" points="2372.79,-44.5606 2378.24,-35.4699 2368.31,-39.183 2372.79,-44.5606"/>
</g>
</g>
</svg>
