<?xml version="1.0" encoding="UTF-8" standalone="no"?>
<!DOCTYPE svg PUBLIC "-//W3C//DTD SVG 1.1//EN"
 "http://www.w3.org/Graphics/SVG/1.1/DTD/svg11.dtd">
<!-- Generated by graphviz version 2.28.0 (20110622.2320)
 -->
<!-- Title: G Pages: 1 -->
<svg width="1295pt" height="260pt"
 viewBox="0.00 0.00 1295.00 260.00" xmlns="http://www.w3.org/2000/svg" xmlns:xlink="http://www.w3.org/1999/xlink">
<g id="graph1" class="graph" transform="scale(1 1) rotate(0) translate(4 256)">
<title>G</title>
<polygon fill="white" stroke="white" points="-4,5 -4,-256 1292,-256 1292,5 -4,5"/>
<!-- b0 -->
<g id="node1" class="node"><title>b0</title>
<a xlink:href="0005488" xlink:title="GO:0005488">
<ellipse fill="#dddddd" stroke="#dddddd" cx="495" cy="-162" rx="61.1934" ry="18"/>
<text text-anchor="middle" x="495" y="-157.8" font-family="Times,serif" font-size="14.00">GO:0005488</text>
</a>
</g>
<!-- d0 -->
<g id="node3" class="node"><title>d0</title>
<a xlink:href="0003823" xlink:title="GO:0003823 (3)">
<ellipse fill="#e98576" stroke="#e98576" cx="75" cy="-90" rx="75.2018" ry="18"/>
<text text-anchor="middle" x="75" y="-85.8" font-family="Times,serif" font-size="14.00">GO:0003823 (3)</text>
</a>
</g>
<!-- b0&#45;&gt;d0 -->
<g id="edge2" class="edge"><title>b0&#45;&gt;d0</title>
<path fill="none" stroke="black" d="M441.342,-153.267C374.916,-143.526 258.387,-125.887 159,-108 152.754,-106.876 146.257,-105.654 139.766,-104.399"/>
<polygon fill="black" stroke="black" points="140.095,-100.897 129.608,-102.408 138.748,-107.766 140.095,-100.897"/>
</g>
<!-- a0 -->
<g id="node8" class="node"><title>a0</title>
<a xlink:href="0043167" xlink:title="GO:0043167 (3)">
<ellipse fill="#e98576" stroke="#e98576" cx="243" cy="-90" rx="75.2018" ry="18"/>
<text text-anchor="middle" x="243" y="-85.8" font-family="Times,serif" font-size="14.00">GO:0043167 (3)</text>
</a>
</g>
<!-- b0&#45;&gt;a0 -->
<g id="edge6" class="edge"><title>b0&#45;&gt;a0</title>
<path fill="none" stroke="black" d="M451.966,-149.046C410.057,-137.405 346.105,-119.64 299.988,-106.83"/>
<polygon fill="black" stroke="black" points="300.713,-103.399 290.141,-104.095 298.839,-110.143 300.713,-103.399"/>
</g>
<!-- n0 -->
<g id="node10" class="node"><title>n0</title>
<a xlink:href="0042277" xlink:title="GO:0042277 (1)">
<ellipse fill="#e98576" stroke="#e98576" cx="411" cy="-90" rx="75.2018" ry="18"/>
<text text-anchor="middle" x="411" y="-85.8" font-family="Times,serif" font-size="14.00">GO:0042277 (1)</text>
</a>
</g>
<!-- b0&#45;&gt;n0 -->
<g id="edge8" class="edge"><title>b0&#45;&gt;n0</title>
<path fill="none" stroke="black" d="M475.518,-144.765C464.57,-135.642 450.725,-124.105 438.67,-114.059"/>
<polygon fill="black" stroke="black" points="440.591,-111.103 430.668,-107.39 436.109,-116.48 440.591,-111.103"/>
</g>
<!-- e0 -->
<g id="node19" class="node"><title>e0</title>
<a xlink:href="0005515" xlink:title="GO:0005515 (3)">
<ellipse fill="#e98576" stroke="#e98576" cx="579" cy="-90" rx="75.2018" ry="18"/>
<text text-anchor="middle" x="579" y="-85.8" font-family="Times,serif" font-size="14.00">GO:0005515 (3)</text>
</a>
</g>
<!-- b0&#45;&gt;e0 -->
<g id="edge16" class="edge"><title>b0&#45;&gt;e0</title>
<path fill="none" stroke="black" d="M514.482,-144.765C525.43,-135.642 539.275,-124.105 551.33,-114.059"/>
<polygon fill="black" stroke="black" points="553.891,-116.48 559.332,-107.39 549.409,-111.103 553.891,-116.48"/>
</g>
<!-- j0 -->
<g id="node24" class="node"><title>j0</title>
<a xlink:href="0000166" xlink:title="GO:0000166 (1)">
<ellipse fill="#e98576" stroke="#e98576" cx="747" cy="-90" rx="75.2018" ry="18"/>
<text text-anchor="middle" x="747" y="-85.8" font-family="Times,serif" font-size="14.00">GO:0000166 (1)</text>
</a>
</g>
<!-- b0&#45;&gt;j0 -->
<g id="edge22" class="edge"><title>b0&#45;&gt;j0</title>
<path fill="none" stroke="black" d="M538.034,-149.046C579.943,-137.405 643.895,-119.64 690.012,-106.83"/>
<polygon fill="black" stroke="black" points="691.161,-110.143 699.859,-104.095 689.287,-103.399 691.161,-110.143"/>
</g>
<!-- l0 -->
<g id="node4" class="node"><title>l0</title>
<a xlink:href="0004871" xlink:title="GO:0004871">
<ellipse fill="#dddddd" stroke="#dddddd" cx="1212" cy="-90" rx="61.1934" ry="18"/>
<text text-anchor="middle" x="1212" y="-85.8" font-family="Times,serif" font-size="14.00">GO:0004871</text>
</a>
</g>
<!-- k0 -->
<g id="node6" class="node"><title>k0</title>
<a xlink:href="0004872" xlink:title="GO:0004872 (1)">
<ellipse fill="#e98576" stroke="#e98576" cx="1212" cy="-18" rx="75.2018" ry="18"/>
<text text-anchor="middle" x="1212" y="-13.8" font-family="Times,serif" font-size="14.00">GO:0004872 (1)</text>
</a>
</g>
<!-- l0&#45;&gt;k0 -->
<g id="edge4" class="edge"><title>l0&#45;&gt;k0</title>
<path fill="none" stroke="black" d="M1212,-71.6966C1212,-63.9827 1212,-54.7125 1212,-46.1124"/>
<polygon fill="black" stroke="black" points="1215.5,-46.1043 1212,-36.1043 1208.5,-46.1044 1215.5,-46.1043"/>
</g>
<!-- h0 -->
<g id="node11" class="node"><title>h0</title>
<a xlink:href="0003824" xlink:title="GO:0003824">
<ellipse fill="#dddddd" stroke="#dddddd" cx="944" cy="-162" rx="61.1934" ry="18"/>
<text text-anchor="middle" x="944" y="-157.8" font-family="Times,serif" font-size="14.00">GO:0003824</text>
</a>
</g>
<!-- g0 -->
<g id="node13" class="node"><title>g0</title>
<a xlink:href="0016787" xlink:title="GO:0016787">
<ellipse fill="#dddddd" stroke="#dddddd" cx="902" cy="-90" rx="61.1934" ry="18"/>
<text text-anchor="middle" x="902" y="-85.8" font-family="Times,serif" font-size="14.00">GO:0016787</text>
</a>
</g>
<!-- h0&#45;&gt;g0 -->
<g id="edge10" class="edge"><title>h0&#45;&gt;g0</title>
<path fill="none" stroke="black" d="M933.833,-144.055C928.88,-135.801 922.821,-125.701 917.323,-116.538"/>
<polygon fill="black" stroke="black" points="920.22,-114.563 912.073,-107.789 914.217,-118.165 920.22,-114.563"/>
</g>
<!-- i0 -->
<g id="node17" class="node"><title>i0</title>
<a xlink:href="0016740" xlink:title="GO:0016740 (1)">
<ellipse fill="#e98576" stroke="#e98576" cx="1057" cy="-90" rx="75.2018" ry="18"/>
<text text-anchor="middle" x="1057" y="-85.8" font-family="Times,serif" font-size="14.00">GO:0016740 (1)</text>
</a>
</g>
<!-- h0&#45;&gt;i0 -->
<g id="edge14" class="edge"><title>h0&#45;&gt;i0</title>
<path fill="none" stroke="black" d="M969.078,-145.465C984.803,-135.724 1005.29,-123.033 1022.53,-112.353"/>
<polygon fill="black" stroke="black" points="1024.55,-115.219 1031.21,-106.977 1020.86,-109.268 1024.55,-115.219"/>
</g>
<!-- f0 -->
<g id="node26" class="node"><title>f0</title>
<a xlink:href="0008233" xlink:title="GO:0008233 (3)">
<ellipse fill="#e98576" stroke="#e98576" cx="902" cy="-18" rx="75.2018" ry="18"/>
<text text-anchor="middle" x="902" y="-13.8" font-family="Times,serif" font-size="14.00">GO:0008233 (3)</text>
</a>
</g>
<!-- g0&#45;&gt;f0 -->
<g id="edge24" class="edge"><title>g0&#45;&gt;f0</title>
<path fill="none" stroke="black" d="M902,-71.6966C902,-63.9827 902,-54.7125 902,-46.1124"/>
<polygon fill="black" stroke="black" points="905.5,-46.1043 902,-36.1043 898.5,-46.1044 905.5,-46.1043"/>
</g>
<!-- c0 -->
<g id="node14" class="node"><title>c0</title>
<a xlink:href="0003674" xlink:title="GO:0003674 (1)">
<ellipse fill="#e98576" stroke="#e98576" cx="944" cy="-234" rx="75.2018" ry="18"/>
<text text-anchor="middle" x="944" y="-229.8" font-family="Times,serif" font-size="14.00">GO:0003674 (1)</text>
</a>
</g>
<!-- c0&#45;&gt;b0 -->
<g id="edge18" class="edge"><title>c0&#45;&gt;b0</title>
<path fill="none" stroke="black" d="M882.979,-223.487C797.756,-210.2 643.887,-186.212 557.748,-172.783"/>
<polygon fill="black" stroke="black" points="558.263,-169.321 547.843,-171.238 557.185,-176.237 558.263,-169.321"/>
</g>
<!-- c0&#45;&gt;h0 -->
<g id="edge12" class="edge"><title>c0&#45;&gt;h0</title>
<path fill="none" stroke="black" d="M944,-215.697C944,-207.983 944,-198.712 944,-190.112"/>
<polygon fill="black" stroke="black" points="947.5,-190.104 944,-180.104 940.5,-190.104 947.5,-190.104"/>
</g>
<!-- m0 -->
<g id="node21" class="node"><title>m0</title>
<a xlink:href="0060089" xlink:title="GO:0060089">
<ellipse fill="#dddddd" stroke="#dddddd" cx="1169" cy="-162" rx="61.1934" ry="18"/>
<text text-anchor="middle" x="1169" y="-157.8" font-family="Times,serif" font-size="14.00">GO:0060089</text>
</a>
</g>
<!-- c0&#45;&gt;m0 -->
<g id="edge26" class="edge"><title>c0&#45;&gt;m0</title>
<path fill="none" stroke="black" d="M987.916,-219.337C1025.53,-207.636 1079.67,-190.791 1118.95,-178.571"/>
<polygon fill="black" stroke="black" points="1120.09,-181.883 1128.6,-175.57 1118.01,-175.199 1120.09,-181.883"/>
</g>
<!-- m0&#45;&gt;l0 -->
<g id="edge20" class="edge"><title>m0&#45;&gt;l0</title>
<path fill="none" stroke="black" d="M1179.41,-144.055C1184.48,-135.801 1190.68,-125.701 1196.31,-116.538"/>
<polygon fill="black" stroke="black" points="1199.43,-118.142 1201.69,-107.789 1193.47,-114.478 1199.43,-118.142"/>
</g>
</g>
</svg>
