<?xml version="1.0" encoding="UTF-8" standalone="no"?>
<!DOCTYPE svg PUBLIC "-//W3C//DTD SVG 1.1//EN"
 "http://www.w3.org/Graphics/SVG/1.1/DTD/svg11.dtd">
<!-- Generated by graphviz version 2.28.0 (20110622.2320)
 -->
<!-- Title: G Pages: 1 -->
<svg width="2016pt" height="260pt"
 viewBox="0.00 0.00 2016.00 260.00" xmlns="http://www.w3.org/2000/svg" xmlns:xlink="http://www.w3.org/1999/xlink">
<g id="graph1" class="graph" transform="scale(1 1) rotate(0) translate(4 256)">
<title>G</title>
<polygon fill="white" stroke="white" points="-4,5 -4,-256 2013,-256 2013,5 -4,5"/>
<!-- f0 -->
<g id="node1" class="node"><title>f0</title>
<a xlink:href="0003824" xlink:title="GO:0003824">
<ellipse fill="#dddddd" stroke="#dddddd" cx="495" cy="-162" rx="61.1934" ry="18"/>
<text text-anchor="middle" x="495" y="-157.8" font-family="Times,serif" font-size="14.00">GO:0003824</text>
</a>
</g>
<!-- m0 -->
<g id="node3" class="node"><title>m0</title>
<a xlink:href="0016853" xlink:title="GO:0016853 (1)">
<ellipse fill="#e98576" stroke="#e98576" cx="75" cy="-90" rx="75.2018" ry="18"/>
<text text-anchor="middle" x="75" y="-85.8" font-family="Times,serif" font-size="14.00">GO:0016853 (1)</text>
</a>
</g>
<!-- f0&#45;&gt;m0 -->
<g id="edge2" class="edge"><title>f0&#45;&gt;m0</title>
<path fill="none" stroke="black" d="M441.342,-153.267C374.916,-143.526 258.387,-125.887 159,-108 152.754,-106.876 146.257,-105.654 139.766,-104.399"/>
<polygon fill="black" stroke="black" points="140.095,-100.897 129.608,-102.408 138.748,-107.766 140.095,-100.897"/>
</g>
<!-- e0 -->
<g id="node14" class="node"><title>e0</title>
<a xlink:href="0016787" xlink:title="GO:0016787 (7)">
<ellipse fill="#e98576" stroke="#e98576" cx="243" cy="-90" rx="75.2018" ry="18"/>
<text text-anchor="middle" x="243" y="-85.8" font-family="Times,serif" font-size="14.00">GO:0016787 (7)</text>
</a>
</g>
<!-- f0&#45;&gt;e0 -->
<g id="edge24" class="edge"><title>f0&#45;&gt;e0</title>
<path fill="none" stroke="black" d="M451.966,-149.046C410.057,-137.405 346.105,-119.64 299.988,-106.83"/>
<polygon fill="black" stroke="black" points="300.713,-103.399 290.141,-104.095 298.839,-110.143 300.713,-103.399"/>
</g>
<!-- g0 -->
<g id="node27" class="node"><title>g0</title>
<a xlink:href="0016740" xlink:title="GO:0016740 (7)">
<ellipse fill="#e98576" stroke="#e98576" cx="411" cy="-90" rx="75.2018" ry="18"/>
<text text-anchor="middle" x="411" y="-85.8" font-family="Times,serif" font-size="14.00">GO:0016740 (7)</text>
</a>
</g>
<!-- f0&#45;&gt;g0 -->
<g id="edge26" class="edge"><title>f0&#45;&gt;g0</title>
<path fill="none" stroke="black" d="M475.518,-144.765C464.57,-135.642 450.725,-124.105 438.67,-114.059"/>
<polygon fill="black" stroke="black" points="440.591,-111.103 430.668,-107.39 436.109,-116.48 440.591,-111.103"/>
</g>
<!-- q0 -->
<g id="node31" class="node"><title>q0</title>
<a xlink:href="0016491" xlink:title="GO:0016491 (1)">
<ellipse fill="#e98576" stroke="#e98576" cx="579" cy="-90" rx="75.2018" ry="18"/>
<text text-anchor="middle" x="579" y="-85.8" font-family="Times,serif" font-size="14.00">GO:0016491 (1)</text>
</a>
</g>
<!-- f0&#45;&gt;q0 -->
<g id="edge30" class="edge"><title>f0&#45;&gt;q0</title>
<path fill="none" stroke="black" d="M514.482,-144.765C525.43,-135.642 539.275,-124.105 551.33,-114.059"/>
<polygon fill="black" stroke="black" points="553.891,-116.48 559.332,-107.39 549.409,-111.103 553.891,-116.48"/>
</g>
<!-- p0 -->
<g id="node37" class="node"><title>p0</title>
<a xlink:href="0004386" xlink:title="GO:0004386 (1)">
<ellipse fill="#e98576" stroke="#e98576" cx="747" cy="-90" rx="75.2018" ry="18"/>
<text text-anchor="middle" x="747" y="-85.8" font-family="Times,serif" font-size="14.00">GO:0004386 (1)</text>
</a>
</g>
<!-- f0&#45;&gt;p0 -->
<g id="edge36" class="edge"><title>f0&#45;&gt;p0</title>
<path fill="none" stroke="black" d="M538.034,-149.046C579.943,-137.405 643.895,-119.64 690.012,-106.83"/>
<polygon fill="black" stroke="black" points="691.161,-110.143 699.859,-104.095 689.287,-103.399 691.161,-110.143"/>
</g>
<!-- c0 -->
<g id="node4" class="node"><title>c0</title>
<a xlink:href="0003674" xlink:title="GO:0003674 (2)">
<ellipse fill="#e98576" stroke="#e98576" cx="1412" cy="-234" rx="75.2018" ry="18"/>
<text text-anchor="middle" x="1412" y="-229.8" font-family="Times,serif" font-size="14.00">GO:0003674 (2)</text>
</a>
</g>
<!-- c0&#45;&gt;f0 -->
<g id="edge4" class="edge"><title>c0&#45;&gt;f0</title>
<path fill="none" stroke="black" d="M1341.57,-227.623C1170.18,-214.541 733.081,-181.174 563.605,-168.237"/>
<polygon fill="black" stroke="black" points="563.795,-164.741 553.558,-167.47 563.262,-171.721 563.795,-164.741"/>
</g>
<!-- b0 -->
<g id="node6" class="node"><title>b0</title>
<a xlink:href="0005488" xlink:title="GO:0005488">
<ellipse fill="#dddddd" stroke="#dddddd" cx="1335" cy="-162" rx="61.1934" ry="18"/>
<text text-anchor="middle" x="1335" y="-157.8" font-family="Times,serif" font-size="14.00">GO:0005488</text>
</a>
</g>
<!-- c0&#45;&gt;b0 -->
<g id="edge12" class="edge"><title>c0&#45;&gt;b0</title>
<path fill="none" stroke="black" d="M1393.75,-216.411C1383.8,-207.367 1371.33,-196.03 1360.44,-186.13"/>
<polygon fill="black" stroke="black" points="1362.61,-183.365 1352.85,-179.228 1357.9,-188.545 1362.61,-183.365"/>
</g>
<!-- o0 -->
<g id="node20" class="node"><title>o0</title>
<a xlink:href="0005215" xlink:title="GO:0005215 (1)">
<ellipse fill="#e98576" stroke="#e98576" cx="1490" cy="-162" rx="75.2018" ry="18"/>
<text text-anchor="middle" x="1490" y="-157.8" font-family="Times,serif" font-size="14.00">GO:0005215 (1)</text>
</a>
</g>
<!-- c0&#45;&gt;o0 -->
<g id="edge18" class="edge"><title>c0&#45;&gt;o0</title>
<path fill="none" stroke="black" d="M1430.48,-216.411C1440.49,-207.432 1453.01,-196.193 1463.99,-186.344"/>
<polygon fill="black" stroke="black" points="1466.54,-188.754 1471.65,-179.47 1461.87,-183.544 1466.54,-188.754"/>
</g>
<!-- l0 -->
<g id="node35" class="node"><title>l0</title>
<a xlink:href="0005198" xlink:title="GO:0005198 (2)">
<ellipse fill="#e98576" stroke="#e98576" cx="1658" cy="-162" rx="75.2018" ry="18"/>
<text text-anchor="middle" x="1658" y="-157.8" font-family="Times,serif" font-size="14.00">GO:0005198 (2)</text>
</a>
</g>
<!-- c0&#45;&gt;l0 -->
<g id="edge34" class="edge"><title>c0&#45;&gt;l0</title>
<path fill="none" stroke="black" d="M1458.56,-219.751C1499.27,-208.168 1558.48,-191.319 1601.81,-178.989"/>
<polygon fill="black" stroke="black" points="1602.97,-182.298 1611.63,-176.195 1601.05,-175.565 1602.97,-182.298"/>
</g>
<!-- k0 -->
<g id="node8" class="node"><title>k0</title>
<a xlink:href="0001882" xlink:title="GO:0001882 (2)">
<ellipse fill="#e98576" stroke="#e98576" cx="915" cy="-90" rx="75.2018" ry="18"/>
<text text-anchor="middle" x="915" y="-85.8" font-family="Times,serif" font-size="14.00">GO:0001882 (2)</text>
</a>
</g>
<!-- b0&#45;&gt;k0 -->
<g id="edge6" class="edge"><title>b0&#45;&gt;k0</title>
<path fill="none" stroke="black" d="M1281.34,-153.267C1214.92,-143.526 1098.39,-125.887 999,-108 992.754,-106.876 986.257,-105.654 979.766,-104.399"/>
<polygon fill="black" stroke="black" points="980.095,-100.897 969.608,-102.408 978.748,-107.766 980.095,-100.897"/>
</g>
<!-- i0 -->
<g id="node10" class="node"><title>i0</title>
<a xlink:href="0005515" xlink:title="GO:0005515 (4)">
<ellipse fill="#e98576" stroke="#e98576" cx="1083" cy="-90" rx="75.2018" ry="18"/>
<text text-anchor="middle" x="1083" y="-85.8" font-family="Times,serif" font-size="14.00">GO:0005515 (4)</text>
</a>
</g>
<!-- b0&#45;&gt;i0 -->
<g id="edge8" class="edge"><title>b0&#45;&gt;i0</title>
<path fill="none" stroke="black" d="M1291.97,-149.046C1250.06,-137.405 1186.1,-119.64 1139.99,-106.83"/>
<polygon fill="black" stroke="black" points="1140.71,-103.399 1130.14,-104.095 1138.84,-110.143 1140.71,-103.399"/>
</g>
<!-- r0 -->
<g id="node12" class="node"><title>r0</title>
<a xlink:href="0019842" xlink:title="GO:0019842 (1)">
<ellipse fill="#e98576" stroke="#e98576" cx="1251" cy="-90" rx="75.2018" ry="18"/>
<text text-anchor="middle" x="1251" y="-85.8" font-family="Times,serif" font-size="14.00">GO:0019842 (1)</text>
</a>
</g>
<!-- b0&#45;&gt;r0 -->
<g id="edge10" class="edge"><title>b0&#45;&gt;r0</title>
<path fill="none" stroke="black" d="M1315.52,-144.765C1304.57,-135.642 1290.73,-124.105 1278.67,-114.059"/>
<polygon fill="black" stroke="black" points="1280.59,-111.103 1270.67,-107.39 1276.11,-116.48 1280.59,-111.103"/>
</g>
<!-- d0 -->
<g id="node22" class="node"><title>d0</title>
<a xlink:href="0043167" xlink:title="GO:0043167 (8)">
<ellipse fill="#e98576" stroke="#e98576" cx="1419" cy="-90" rx="75.2018" ry="18"/>
<text text-anchor="middle" x="1419" y="-85.8" font-family="Times,serif" font-size="14.00">GO:0043167 (8)</text>
</a>
</g>
<!-- b0&#45;&gt;d0 -->
<g id="edge20" class="edge"><title>b0&#45;&gt;d0</title>
<path fill="none" stroke="black" d="M1354.48,-144.765C1365.43,-135.642 1379.27,-124.105 1391.33,-114.059"/>
<polygon fill="black" stroke="black" points="1393.89,-116.48 1399.33,-107.39 1389.41,-111.103 1393.89,-116.48"/>
</g>
<!-- n0 -->
<g id="node24" class="node"><title>n0</title>
<a xlink:href="0031406" xlink:title="GO:0031406 (1)">
<ellipse fill="#e98576" stroke="#e98576" cx="1587" cy="-90" rx="75.2018" ry="18"/>
<text text-anchor="middle" x="1587" y="-85.8" font-family="Times,serif" font-size="14.00">GO:0031406 (1)</text>
</a>
</g>
<!-- b0&#45;&gt;n0 -->
<g id="edge22" class="edge"><title>b0&#45;&gt;n0</title>
<path fill="none" stroke="black" d="M1378.03,-149.046C1419.94,-137.405 1483.9,-119.64 1530.01,-106.83"/>
<polygon fill="black" stroke="black" points="1531.16,-110.143 1539.86,-104.095 1529.29,-103.399 1531.16,-110.143"/>
</g>
<!-- a0 -->
<g id="node29" class="node"><title>a0</title>
<a xlink:href="0003676" xlink:title="GO:0003676 (10)">
<ellipse fill="#e98576" stroke="#e98576" cx="1760" cy="-90" rx="79.4447" ry="18"/>
<text text-anchor="middle" x="1760" y="-85.8" font-family="Times,serif" font-size="14.00">GO:0003676 (10)</text>
</a>
</g>
<!-- b0&#45;&gt;a0 -->
<g id="edge28" class="edge"><title>b0&#45;&gt;a0</title>
<path fill="none" stroke="black" d="M1379.55,-149.615C1388.28,-147.585 1397.4,-145.609 1406,-144 1522.83,-122.134 1553.69,-127.157 1671,-108 1677.78,-106.893 1684.84,-105.669 1691.88,-104.4"/>
<polygon fill="black" stroke="black" points="1692.95,-107.762 1702.15,-102.517 1691.68,-100.877 1692.95,-107.762"/>
</g>
<!-- h0 -->
<g id="node33" class="node"><title>h0</title>
<a xlink:href="0000166" xlink:title="GO:0000166 (6)">
<ellipse fill="#e98576" stroke="#e98576" cx="1933" cy="-90" rx="75.2018" ry="18"/>
<text text-anchor="middle" x="1933" y="-85.8" font-family="Times,serif" font-size="14.00">GO:0000166 (6)</text>
</a>
</g>
<!-- b0&#45;&gt;h0 -->
<g id="edge32" class="edge"><title>b0&#45;&gt;h0</title>
<path fill="none" stroke="black" d="M1379.1,-149.331C1387.96,-147.301 1397.24,-145.397 1406,-144 1600.64,-112.961 1652.82,-135.373 1848,-108 1854.81,-107.045 1861.89,-105.89 1868.94,-104.635"/>
<polygon fill="black" stroke="black" points="1870,-107.998 1879.2,-102.739 1868.73,-101.115 1870,-107.998"/>
</g>
<!-- j0 -->
<g id="node16" class="node"><title>j0</title>
<a xlink:href="0008233" xlink:title="GO:0008233 (3)">
<ellipse fill="#e98576" stroke="#e98576" cx="159" cy="-18" rx="75.2018" ry="18"/>
<text text-anchor="middle" x="159" y="-13.8" font-family="Times,serif" font-size="14.00">GO:0008233 (3)</text>
</a>
</g>
<!-- e0&#45;&gt;j0 -->
<g id="edge14" class="edge"><title>e0&#45;&gt;j0</title>
<path fill="none" stroke="black" d="M223.093,-72.411C212.214,-63.3446 198.569,-51.9742 186.669,-42.0572"/>
<polygon fill="black" stroke="black" points="188.687,-39.183 178.764,-35.4699 184.206,-44.5606 188.687,-39.183"/>
</g>
<!-- s0 -->
<g id="node18" class="node"><title>s0</title>
<a xlink:href="0019213" xlink:title="GO:0019213 (1)">
<ellipse fill="#e98576" stroke="#e98576" cx="327" cy="-18" rx="75.2018" ry="18"/>
<text text-anchor="middle" x="327" y="-13.8" font-family="Times,serif" font-size="14.00">GO:0019213 (1)</text>
</a>
</g>
<!-- e0&#45;&gt;s0 -->
<g id="edge16" class="edge"><title>e0&#45;&gt;s0</title>
<path fill="none" stroke="black" d="M262.907,-72.411C273.786,-63.3446 287.431,-51.9742 299.331,-42.0572"/>
<polygon fill="black" stroke="black" points="301.794,-44.5606 307.236,-35.4699 297.313,-39.183 301.794,-44.5606"/>
</g>
</g>
</svg>
