<?xml version="1.0" encoding="UTF-8" standalone="no"?>
<!DOCTYPE svg PUBLIC "-//W3C//DTD SVG 1.1//EN"
 "http://www.w3.org/Graphics/SVG/1.1/DTD/svg11.dtd">
<!-- Generated by graphviz version 2.28.0 (20110622.2320)
 -->
<!-- Title: G Pages: 1 -->
<svg width="596pt" height="548pt"
 viewBox="0.00 0.00 595.76 548.00" xmlns="http://www.w3.org/2000/svg" xmlns:xlink="http://www.w3.org/1999/xlink">
<g id="graph1" class="graph" transform="scale(1 1) rotate(0) translate(4 544)">
<title>G</title>
<polygon fill="white" stroke="white" points="-4,5 -4,-544 592.756,-544 592.756,5 -4,5"/>
<!-- g0 -->
<g id="node1" class="node"><title>g0</title>
<a xlink:href="0044424" xlink:title="GO:0044424">
<ellipse fill="#dddddd" stroke="#dddddd" cx="89.7557" cy="-234" rx="61.1934" ry="18"/>
<text text-anchor="middle" x="89.7557" y="-229.8" font-family="Times,serif" font-size="14.00">GO:0044424</text>
</a>
</g>
<!-- l0 -->
<g id="node3" class="node"><title>l0</title>
<a xlink:href="0005737" xlink:title="GO:0005737 (2)">
<ellipse fill="#e98576" stroke="#e98576" cx="89.7557" cy="-162" rx="75.2018" ry="18"/>
<text text-anchor="middle" x="89.7557" y="-157.8" font-family="Times,serif" font-size="14.00">GO:0005737 (2)</text>
</a>
</g>
<!-- g0&#45;&gt;l0 -->
<g id="edge2" class="edge"><title>g0&#45;&gt;l0</title>
<path fill="none" stroke="black" d="M89.7557,-215.697C89.7557,-207.983 89.7557,-198.712 89.7557,-190.112"/>
<polygon fill="black" stroke="black" points="93.2558,-190.104 89.7557,-180.104 86.2558,-190.104 93.2558,-190.104"/>
</g>
<!-- k0 -->
<g id="node7" class="node"><title>k0</title>
<a xlink:href="0044444" xlink:title="GO:0044444">
<ellipse fill="#dddddd" stroke="#dddddd" cx="85.7557" cy="-90" rx="61.1934" ry="18"/>
<text text-anchor="middle" x="85.7557" y="-85.8" font-family="Times,serif" font-size="14.00">GO:0044444</text>
</a>
</g>
<!-- g0&#45;&gt;k0 -->
<g id="edge36" class="edge"><title>g0&#45;&gt;k0</title>
<path fill="none" stroke="black" d="M52.7196,-219.571C35.1482,-211.11 15.8313,-198.271 5.75573,-180 -1.97068,-165.989 -1.81437,-158.096 5.75573,-144 13.5798,-129.431 27.3631,-118.192 41.3085,-109.891"/>
<polygon fill="black" stroke="black" points="43.3706,-112.751 50.4349,-104.855 39.9885,-106.622 43.3706,-112.751"/>
</g>
<!-- f0 -->
<g id="node16" class="node"><title>f0</title>
<a xlink:href="0043229" xlink:title="GO:0043229">
<ellipse fill="#dddddd" stroke="#dddddd" cx="244.756" cy="-162" rx="61.1934" ry="18"/>
<text text-anchor="middle" x="244.756" y="-157.8" font-family="Times,serif" font-size="14.00">GO:0043229</text>
</a>
</g>
<!-- g0&#45;&gt;f0 -->
<g id="edge14" class="edge"><title>g0&#45;&gt;f0</title>
<path fill="none" stroke="black" d="M121.872,-218.496C145.46,-207.843 177.709,-193.279 203.252,-181.744"/>
<polygon fill="black" stroke="black" points="205.008,-184.791 212.681,-177.485 202.126,-178.412 205.008,-184.791"/>
</g>
<!-- l0&#45;&gt;k0 -->
<g id="edge34" class="edge"><title>l0&#45;&gt;k0</title>
<path fill="none" stroke="black" d="M88.767,-143.697C88.3262,-135.983 87.7964,-126.712 87.305,-118.112"/>
<polygon fill="black" stroke="black" points="90.798,-117.888 86.7331,-108.104 83.8094,-118.288 90.798,-117.888"/>
</g>
<!-- b0 -->
<g id="node4" class="node"><title>b0</title>
<a xlink:href="0043231" xlink:title="GO:0043231">
<ellipse fill="#dddddd" stroke="#dddddd" cx="247.756" cy="-90" rx="61.1934" ry="18"/>
<text text-anchor="middle" x="247.756" y="-85.8" font-family="Times,serif" font-size="14.00">GO:0043231</text>
</a>
</g>
<!-- a0 -->
<g id="node6" class="node"><title>a0</title>
<a xlink:href="0009536" xlink:title="GO:0009536 (5)">
<ellipse fill="#e98576" stroke="#e98576" cx="85.7557" cy="-18" rx="75.2018" ry="18"/>
<text text-anchor="middle" x="85.7557" y="-13.8" font-family="Times,serif" font-size="14.00">GO:0009536 (5)</text>
</a>
</g>
<!-- b0&#45;&gt;a0 -->
<g id="edge4" class="edge"><title>b0&#45;&gt;a0</title>
<path fill="none" stroke="black" d="M214.582,-74.6655C190.178,-64.1208 156.751,-49.6772 130.063,-38.1452"/>
<polygon fill="black" stroke="black" points="131.133,-34.7946 120.565,-34.0409 128.356,-41.2204 131.133,-34.7946"/>
</g>
<!-- s0 -->
<g id="node40" class="node"><title>s0</title>
<a xlink:href="0005634" xlink:title="GO:0005634 (1)">
<ellipse fill="#e98576" stroke="#e98576" cx="253.756" cy="-18" rx="75.2018" ry="18"/>
<text text-anchor="middle" x="253.756" y="-13.8" font-family="Times,serif" font-size="14.00">GO:0005634 (1)</text>
</a>
</g>
<!-- b0&#45;&gt;s0 -->
<g id="edge44" class="edge"><title>b0&#45;&gt;s0</title>
<path fill="none" stroke="black" d="M249.239,-71.6966C249.9,-63.9827 250.695,-54.7125 251.432,-46.1124"/>
<polygon fill="black" stroke="black" points="254.923,-46.3667 252.29,-36.1043 247.948,-45.7689 254.923,-46.3667"/>
</g>
<!-- k0&#45;&gt;a0 -->
<g id="edge6" class="edge"><title>k0&#45;&gt;a0</title>
<path fill="none" stroke="black" d="M85.7557,-71.6966C85.7557,-63.9827 85.7557,-54.7125 85.7557,-46.1124"/>
<polygon fill="black" stroke="black" points="89.2558,-46.1043 85.7557,-36.1043 82.2558,-46.1044 89.2558,-46.1043"/>
</g>
<!-- q0 -->
<g id="node9" class="node"><title>q0</title>
<a xlink:href="0043232" xlink:title="GO:0043232">
<ellipse fill="#dddddd" stroke="#dddddd" cx="473.756" cy="-90" rx="61.1934" ry="18"/>
<text text-anchor="middle" x="473.756" y="-85.8" font-family="Times,serif" font-size="14.00">GO:0043232</text>
</a>
</g>
<!-- p0 -->
<g id="node11" class="node"><title>p0</title>
<a xlink:href="0005856" xlink:title="GO:0005856 (1)">
<ellipse fill="#e98576" stroke="#e98576" cx="473.756" cy="-18" rx="75.2018" ry="18"/>
<text text-anchor="middle" x="473.756" y="-13.8" font-family="Times,serif" font-size="14.00">GO:0005856 (1)</text>
</a>
</g>
<!-- q0&#45;&gt;p0 -->
<g id="edge8" class="edge"><title>q0&#45;&gt;p0</title>
<path fill="none" stroke="black" d="M473.756,-71.6966C473.756,-63.9827 473.756,-54.7125 473.756,-46.1124"/>
<polygon fill="black" stroke="black" points="477.256,-46.1043 473.756,-36.1043 470.256,-46.1044 477.256,-46.1043"/>
</g>
<!-- e0 -->
<g id="node12" class="node"><title>e0</title>
<a xlink:href="0005575" xlink:title="GO:0005575">
<ellipse fill="#dddddd" stroke="#dddddd" cx="340.756" cy="-522" rx="61.1934" ry="18"/>
<text text-anchor="middle" x="340.756" y="-517.8" font-family="Times,serif" font-size="14.00">GO:0005575</text>
</a>
</g>
<!-- d0 -->
<g id="node14" class="node"><title>d0</title>
<a xlink:href="0043226" xlink:title="GO:0043226">
<ellipse fill="#dddddd" stroke="#dddddd" cx="385.756" cy="-234" rx="61.1934" ry="18"/>
<text text-anchor="middle" x="385.756" y="-229.8" font-family="Times,serif" font-size="14.00">GO:0043226</text>
</a>
</g>
<!-- e0&#45;&gt;d0 -->
<g id="edge10" class="edge"><title>e0&#45;&gt;d0</title>
<path fill="none" stroke="black" d="M351.144,-503.986C356.773,-493.898 363.273,-480.648 366.756,-468 386.672,-395.675 387.734,-306.325 386.785,-262.238"/>
<polygon fill="black" stroke="black" points="390.278,-261.945 386.51,-252.043 383.281,-262.134 390.278,-261.945"/>
</g>
<!-- j0 -->
<g id="node19" class="node"><title>j0</title>
<a xlink:href="0005623" xlink:title="GO:0005623">
<ellipse fill="#dddddd" stroke="#dddddd" cx="296.756" cy="-450" rx="61.1934" ry="18"/>
<text text-anchor="middle" x="296.756" y="-445.8" font-family="Times,serif" font-size="14.00">GO:0005623</text>
</a>
</g>
<!-- e0&#45;&gt;j0 -->
<g id="edge16" class="edge"><title>e0&#45;&gt;j0</title>
<path fill="none" stroke="black" d="M330.105,-504.055C324.916,-495.801 318.568,-485.701 312.808,-476.538"/>
<polygon fill="black" stroke="black" points="315.594,-474.393 307.309,-467.789 309.667,-478.118 315.594,-474.393"/>
</g>
<!-- i0 -->
<g id="node21" class="node"><title>i0</title>
<a xlink:href="0044464" xlink:title="GO:0044464">
<ellipse fill="#dddddd" stroke="#dddddd" cx="207.756" cy="-378" rx="61.1934" ry="18"/>
<text text-anchor="middle" x="207.756" y="-373.8" font-family="Times,serif" font-size="14.00">GO:0044464</text>
</a>
</g>
<!-- e0&#45;&gt;i0 -->
<g id="edge18" class="edge"><title>e0&#45;&gt;i0</title>
<path fill="none" stroke="black" d="M294.54,-510.138C270.899,-502.26 243.625,-489.164 226.756,-468 212.943,-450.672 208.563,-425.617 207.425,-406.502"/>
<polygon fill="black" stroke="black" points="210.917,-406.188 207.085,-396.31 203.92,-406.421 210.917,-406.188"/>
</g>
<!-- n0 -->
<g id="node34" class="node"><title>n0</title>
<a xlink:href="0032991" xlink:title="GO:0032991">
<ellipse fill="#dddddd" stroke="#dddddd" cx="481.756" cy="-450" rx="61.1934" ry="18"/>
<text text-anchor="middle" x="481.756" y="-445.8" font-family="Times,serif" font-size="14.00">GO:0032991</text>
</a>
</g>
<!-- e0&#45;&gt;n0 -->
<g id="edge38" class="edge"><title>e0&#45;&gt;n0</title>
<path fill="none" stroke="black" d="M370.658,-506.155C391.689,-495.714 420.031,-481.644 442.825,-470.328"/>
<polygon fill="black" stroke="black" points="444.496,-473.405 451.896,-465.824 441.383,-467.136 444.496,-473.405"/>
</g>
<!-- d0&#45;&gt;f0 -->
<g id="edge12" class="edge"><title>d0&#45;&gt;f0</title>
<path fill="none" stroke="black" d="M355.853,-218.155C334.823,-207.714 306.481,-193.644 283.687,-182.328"/>
<polygon fill="black" stroke="black" points="285.128,-179.136 274.615,-177.824 282.016,-185.405 285.128,-179.136"/>
</g>
<!-- c0 -->
<g id="node24" class="node"><title>c0</title>
<a xlink:href="0043227" xlink:title="GO:0043227">
<ellipse fill="#dddddd" stroke="#dddddd" cx="385.756" cy="-162" rx="61.1934" ry="18"/>
<text text-anchor="middle" x="385.756" y="-157.8" font-family="Times,serif" font-size="14.00">GO:0043227</text>
</a>
</g>
<!-- d0&#45;&gt;c0 -->
<g id="edge22" class="edge"><title>d0&#45;&gt;c0</title>
<path fill="none" stroke="black" d="M385.756,-215.697C385.756,-207.983 385.756,-198.712 385.756,-190.112"/>
<polygon fill="black" stroke="black" points="389.256,-190.104 385.756,-180.104 382.256,-190.104 389.256,-190.104"/>
</g>
<!-- r0 -->
<g id="node36" class="node"><title>r0</title>
<a xlink:href="0043228" xlink:title="GO:0043228">
<ellipse fill="#dddddd" stroke="#dddddd" cx="526.756" cy="-162" rx="61.1934" ry="18"/>
<text text-anchor="middle" x="526.756" y="-157.8" font-family="Times,serif" font-size="14.00">GO:0043228</text>
</a>
</g>
<!-- d0&#45;&gt;r0 -->
<g id="edge40" class="edge"><title>d0&#45;&gt;r0</title>
<path fill="none" stroke="black" d="M415.658,-218.155C436.689,-207.714 465.031,-193.644 487.825,-182.328"/>
<polygon fill="black" stroke="black" points="489.496,-185.405 496.896,-177.824 486.383,-179.136 489.496,-185.405"/>
</g>
<!-- f0&#45;&gt;b0 -->
<g id="edge32" class="edge"><title>f0&#45;&gt;b0</title>
<path fill="none" stroke="black" d="M245.497,-143.697C245.828,-135.983 246.225,-126.712 246.594,-118.112"/>
<polygon fill="black" stroke="black" points="250.091,-118.245 247.023,-108.104 243.098,-117.945 250.091,-118.245"/>
</g>
<!-- f0&#45;&gt;q0 -->
<g id="edge50" class="edge"><title>f0&#45;&gt;q0</title>
<path fill="none" stroke="black" d="M285.696,-148.485C324.166,-136.726 381.847,-119.094 423.178,-106.461"/>
<polygon fill="black" stroke="black" points="424.244,-109.794 432.784,-103.524 422.198,-103.1 424.244,-109.794"/>
</g>
<!-- j0&#45;&gt;i0 -->
<g id="edge20" class="edge"><title>j0&#45;&gt;i0</title>
<path fill="none" stroke="black" d="M276.114,-432.765C264.319,-423.488 249.35,-411.714 236.428,-401.551"/>
<polygon fill="black" stroke="black" points="238.31,-398.578 228.286,-395.147 233.982,-404.081 238.31,-398.578"/>
</g>
<!-- i0&#45;&gt;g0 -->
<g id="edge26" class="edge"><title>i0&#45;&gt;g0</title>
<path fill="none" stroke="black" d="M149.203,-372.357C116.551,-366.422 78.4088,-353.202 57.7557,-324 44.0249,-304.586 56.0699,-278.655 69.122,-259.794"/>
<polygon fill="black" stroke="black" points="71.9898,-261.802 75.1007,-251.674 66.353,-257.651 71.9898,-261.802"/>
</g>
<!-- h0 -->
<g id="node25" class="node"><title>h0</title>
<a xlink:href="0005622" xlink:title="GO:0005622">
<ellipse fill="#dddddd" stroke="#dddddd" cx="127.756" cy="-306" rx="61.1934" ry="18"/>
<text text-anchor="middle" x="127.756" y="-301.8" font-family="Times,serif" font-size="14.00">GO:0005622</text>
</a>
</g>
<!-- i0&#45;&gt;h0 -->
<g id="edge28" class="edge"><title>i0&#45;&gt;h0</title>
<path fill="none" stroke="black" d="M189.201,-360.765C178.775,-351.642 165.59,-340.105 154.108,-330.059"/>
<polygon fill="black" stroke="black" points="156.317,-327.341 146.487,-323.39 151.708,-332.609 156.317,-327.341"/>
</g>
<!-- o0 -->
<g id="node38" class="node"><title>o0</title>
<a xlink:href="0016020" xlink:title="GO:0016020 (1)">
<ellipse fill="#e98576" stroke="#e98576" cx="282.756" cy="-306" rx="75.2018" ry="18"/>
<text text-anchor="middle" x="282.756" y="-301.8" font-family="Times,serif" font-size="14.00">GO:0016020 (1)</text>
</a>
</g>
<!-- i0&#45;&gt;o0 -->
<g id="edge42" class="edge"><title>i0&#45;&gt;o0</title>
<path fill="none" stroke="black" d="M225.53,-360.411C235.08,-351.497 247.018,-340.355 257.515,-330.558"/>
<polygon fill="black" stroke="black" points="259.927,-333.094 264.849,-323.713 255.151,-327.977 259.927,-333.094"/>
</g>
<!-- c0&#45;&gt;b0 -->
<g id="edge30" class="edge"><title>c0&#45;&gt;b0</title>
<path fill="none" stroke="black" d="M356.489,-146.155C335.998,-135.76 308.414,-121.769 286.156,-110.479"/>
<polygon fill="black" stroke="black" points="287.481,-107.226 276.98,-105.824 284.315,-113.469 287.481,-107.226"/>
</g>
<!-- h0&#45;&gt;g0 -->
<g id="edge24" class="edge"><title>h0&#45;&gt;g0</title>
<path fill="none" stroke="black" d="M118.557,-288.055C114.188,-280.007 108.867,-270.205 103.993,-261.226"/>
<polygon fill="black" stroke="black" points="106.981,-259.394 99.1337,-252.275 100.829,-262.734 106.981,-259.394"/>
</g>
<!-- m0 -->
<g id="node42" class="node"><title>m0</title>
<a xlink:href="0043234" xlink:title="GO:0043234 (2)">
<ellipse fill="#e98576" stroke="#e98576" cx="488.756" cy="-378" rx="75.2018" ry="18"/>
<text text-anchor="middle" x="488.756" y="-373.8" font-family="Times,serif" font-size="14.00">GO:0043234 (2)</text>
</a>
</g>
<!-- n0&#45;&gt;m0 -->
<g id="edge46" class="edge"><title>n0&#45;&gt;m0</title>
<path fill="none" stroke="black" d="M483.486,-431.697C484.257,-423.983 485.184,-414.712 486.044,-406.112"/>
<polygon fill="black" stroke="black" points="489.533,-406.403 487.045,-396.104 482.568,-405.706 489.533,-406.403"/>
</g>
<!-- r0&#45;&gt;q0 -->
<g id="edge48" class="edge"><title>r0&#45;&gt;q0</title>
<path fill="none" stroke="black" d="M513.926,-144.055C507.546,-135.629 499.71,-125.28 492.659,-115.966"/>
<polygon fill="black" stroke="black" points="495.294,-113.649 486.467,-107.789 489.713,-117.874 495.294,-113.649"/>
</g>
</g>
</svg>
