<?xml version="1.0" encoding="UTF-8" standalone="no"?>
<!DOCTYPE svg PUBLIC "-//W3C//DTD SVG 1.1//EN"
 "http://www.w3.org/Graphics/SVG/1.1/DTD/svg11.dtd">
<!-- Generated by graphviz version 2.28.0 (20110622.2320)
 -->
<!-- Title: G Pages: 1 -->
<svg width="3750pt" height="260pt"
 viewBox="0.00 0.00 3750.00 260.00" xmlns="http://www.w3.org/2000/svg" xmlns:xlink="http://www.w3.org/1999/xlink">
<g id="graph1" class="graph" transform="scale(1 1) rotate(0) translate(4 256)">
<title>G</title>
<polygon fill="white" stroke="white" points="-4,5 -4,-256 3747,-256 3747,5 -4,5"/>
<!-- b0 -->
<g id="node1" class="node"><title>b0</title>
<a xlink:href="0005488" xlink:title="GO:0005488 (3)">
<ellipse fill="#e98576" stroke="#e98576" cx="1363" cy="-162" rx="75.2018" ry="18"/>
<text text-anchor="middle" x="1363" y="-157.8" font-family="Times,serif" font-size="14.00">GO:0005488 (3)</text>
</a>
</g>
<!-- c1 -->
<g id="node3" class="node"><title>c1</title>
<a xlink:href="0050840" xlink:title="GO:0050840 (1)">
<ellipse fill="#e98576" stroke="#e98576" cx="75" cy="-90" rx="75.2018" ry="18"/>
<text text-anchor="middle" x="75" y="-85.8" font-family="Times,serif" font-size="14.00">GO:0050840 (1)</text>
</a>
</g>
<!-- b0&#45;&gt;c1 -->
<g id="edge2" class="edge"><title>b0&#45;&gt;c1</title>
<path fill="none" stroke="black" d="M1287.64,-161.744C1097.55,-162.74 583.444,-159.971 159,-108 152.153,-107.162 145.032,-106.069 137.959,-104.843"/>
<polygon fill="black" stroke="black" points="138.136,-101.317 127.67,-102.963 136.878,-108.203 138.136,-101.317"/>
</g>
<!-- r0 -->
<g id="node5" class="node"><title>r0</title>
<a xlink:href="0003823" xlink:title="GO:0003823 (3)">
<ellipse fill="#e98576" stroke="#e98576" cx="243" cy="-90" rx="75.2018" ry="18"/>
<text text-anchor="middle" x="243" y="-85.8" font-family="Times,serif" font-size="14.00">GO:0003823 (3)</text>
</a>
</g>
<!-- b0&#45;&gt;r0 -->
<g id="edge4" class="edge"><title>b0&#45;&gt;r0</title>
<path fill="none" stroke="black" d="M1287.91,-160.972C1116.75,-160.075 684.811,-153.106 327,-108 320.156,-107.137 313.037,-106.03 305.965,-104.794"/>
<polygon fill="black" stroke="black" points="306.145,-101.268 295.677,-102.905 304.881,-108.153 306.145,-101.268"/>
</g>
<!-- n0 -->
<g id="node13" class="node"><title>n0</title>
<a xlink:href="0008289" xlink:title="GO:0008289 (6)">
<ellipse fill="#e98576" stroke="#e98576" cx="411" cy="-90" rx="75.2018" ry="18"/>
<text text-anchor="middle" x="411" y="-85.8" font-family="Times,serif" font-size="14.00">GO:0008289 (6)</text>
</a>
</g>
<!-- b0&#45;&gt;n0 -->
<g id="edge10" class="edge"><title>b0&#45;&gt;n0</title>
<path fill="none" stroke="black" d="M1288.36,-159.924C1137.74,-156.986 786.904,-146.262 495,-108 488.161,-107.104 481.044,-105.974 473.974,-104.726"/>
<polygon fill="black" stroke="black" points="474.157,-101.201 463.688,-102.825 472.885,-108.084 474.157,-101.201"/>
</g>
<!-- g0 -->
<g id="node18" class="node"><title>g0</title>
<a xlink:href="0001882" xlink:title="GO:0001882 (11)">
<ellipse fill="#e98576" stroke="#e98576" cx="584" cy="-90" rx="79.4447" ry="18"/>
<text text-anchor="middle" x="584" y="-85.8" font-family="Times,serif" font-size="14.00">GO:0001882 (11)</text>
</a>
</g>
<!-- b0&#45;&gt;g0 -->
<g id="edge16" class="edge"><title>b0&#45;&gt;g0</title>
<path fill="none" stroke="black" d="M1289.7,-158.071C1163.35,-152.421 896.588,-137.845 673,-108 665.628,-107.016 657.943,-105.815 650.312,-104.512"/>
<polygon fill="black" stroke="black" points="650.8,-101.044 640.343,-102.749 649.58,-107.937 650.8,-101.044"/>
</g>
<!-- a0 -->
<g id="node20" class="node"><title>a0</title>
<a xlink:href="0005515" xlink:title="GO:0005515 (33)">
<ellipse fill="#e98576" stroke="#e98576" cx="762" cy="-90" rx="79.4447" ry="18"/>
<text text-anchor="middle" x="762" y="-85.8" font-family="Times,serif" font-size="14.00">GO:0005515 (33)</text>
</a>
</g>
<!-- b0&#45;&gt;a0 -->
<g id="edge18" class="edge"><title>b0&#45;&gt;a0</title>
<path fill="none" stroke="black" d="M1292.37,-155.613C1193.39,-147.626 1007.93,-131.068 851,-108 843.831,-106.946 836.361,-105.721 828.929,-104.421"/>
<polygon fill="black" stroke="black" points="829.313,-100.934 818.851,-102.61 828.075,-107.824 829.313,-100.934"/>
</g>
<!-- x0 -->
<g id="node22" class="node"><title>x0</title>
<a xlink:href="0008144" xlink:title="GO:0008144 (1)">
<ellipse fill="#e98576" stroke="#e98576" cx="935" cy="-90" rx="75.2018" ry="18"/>
<text text-anchor="middle" x="935" y="-85.8" font-family="Times,serif" font-size="14.00">GO:0008144 (1)</text>
</a>
</g>
<!-- b0&#45;&gt;x0 -->
<g id="edge20" class="edge"><title>b0&#45;&gt;x0</title>
<path fill="none" stroke="black" d="M1299.77,-152.163C1230.65,-142.294 1116.71,-125.405 1019,-108 1012.75,-106.887 1006.25,-105.673 999.762,-104.422"/>
<polygon fill="black" stroke="black" points="1000.09,-100.92 989.603,-102.436 998.746,-107.79 1000.09,-100.92"/>
</g>
<!-- d1 -->
<g id="node30" class="node"><title>d1</title>
<a xlink:href="0005496" xlink:title="GO:0005496 (1)">
<ellipse fill="#e98576" stroke="#e98576" cx="1103" cy="-90" rx="75.2018" ry="18"/>
<text text-anchor="middle" x="1103" y="-85.8" font-family="Times,serif" font-size="14.00">GO:0005496 (1)</text>
</a>
</g>
<!-- b0&#45;&gt;d1 -->
<g id="edge28" class="edge"><title>b0&#45;&gt;d1</title>
<path fill="none" stroke="black" d="M1315.01,-148.079C1271.54,-136.376 1207.39,-119.105 1161.05,-106.629"/>
<polygon fill="black" stroke="black" points="1161.72,-103.184 1151.15,-103.964 1159.9,-109.943 1161.72,-103.184"/>
</g>
<!-- d0 -->
<g id="node34" class="node"><title>d0</title>
<a xlink:href="0043167" xlink:title="GO:0043167 (25)">
<ellipse fill="#e98576" stroke="#e98576" cx="1276" cy="-90" rx="79.4447" ry="18"/>
<text text-anchor="middle" x="1276" y="-85.8" font-family="Times,serif" font-size="14.00">GO:0043167 (25)</text>
</a>
</g>
<!-- b0&#45;&gt;d0 -->
<g id="edge32" class="edge"><title>b0&#45;&gt;d0</title>
<path fill="none" stroke="black" d="M1342.38,-144.411C1331.01,-135.257 1316.71,-123.755 1304.3,-113.772"/>
<polygon fill="black" stroke="black" points="1306.46,-111.012 1296.47,-107.47 1302.07,-116.466 1306.46,-111.012"/>
</g>
<!-- e1 -->
<g id="node40" class="node"><title>e1</title>
<a xlink:href="0043178" xlink:title="GO:0043178 (1)">
<ellipse fill="#e98576" stroke="#e98576" cx="1449" cy="-90" rx="75.2018" ry="18"/>
<text text-anchor="middle" x="1449" y="-85.8" font-family="Times,serif" font-size="14.00">GO:0043178 (1)</text>
</a>
</g>
<!-- b0&#45;&gt;e1 -->
<g id="edge38" class="edge"><title>b0&#45;&gt;e1</title>
<path fill="none" stroke="black" d="M1383.38,-144.411C1394.52,-135.345 1408.49,-123.974 1420.67,-114.057"/>
<polygon fill="black" stroke="black" points="1423.22,-116.497 1428.77,-107.47 1418.8,-111.068 1423.22,-116.497"/>
</g>
<!-- s0 -->
<g id="node42" class="node"><title>s0</title>
<a xlink:href="0030246" xlink:title="GO:0030246 (3)">
<ellipse fill="#e98576" stroke="#e98576" cx="1617" cy="-90" rx="75.2018" ry="18"/>
<text text-anchor="middle" x="1617" y="-85.8" font-family="Times,serif" font-size="14.00">GO:0030246 (3)</text>
</a>
</g>
<!-- b0&#45;&gt;s0 -->
<g id="edge40" class="edge"><title>b0&#45;&gt;s0</title>
<path fill="none" stroke="black" d="M1410.18,-147.998C1452.55,-136.321 1514.85,-119.151 1560,-106.71"/>
<polygon fill="black" stroke="black" points="1560.93,-110.083 1569.64,-104.051 1559.07,-103.334 1560.93,-110.083"/>
</g>
<!-- e0 -->
<g id="node48" class="node"><title>e0</title>
<a xlink:href="0003676" xlink:title="GO:0003676 (17)">
<ellipse fill="#e98576" stroke="#e98576" cx="1790" cy="-90" rx="79.4447" ry="18"/>
<text text-anchor="middle" x="1790" y="-85.8" font-family="Times,serif" font-size="14.00">GO:0003676 (17)</text>
</a>
</g>
<!-- b0&#45;&gt;e0 -->
<g id="edge46" class="edge"><title>b0&#45;&gt;e0</title>
<path fill="none" stroke="black" d="M1425.4,-151.85C1493.3,-141.744 1605.03,-124.686 1701,-108 1707.77,-106.823 1714.82,-105.553 1721.85,-104.256"/>
<polygon fill="black" stroke="black" points="1722.93,-107.616 1732.12,-102.344 1721.65,-100.734 1722.93,-107.616"/>
</g>
<!-- b1 -->
<g id="node50" class="node"><title>b1</title>
<a xlink:href="0046906" xlink:title="GO:0046906 (1)">
<ellipse fill="#e98576" stroke="#e98576" cx="1963" cy="-90" rx="75.2018" ry="18"/>
<text text-anchor="middle" x="1963" y="-85.8" font-family="Times,serif" font-size="14.00">GO:0046906 (1)</text>
</a>
</g>
<!-- b0&#45;&gt;b1 -->
<g id="edge48" class="edge"><title>b0&#45;&gt;b1</title>
<path fill="none" stroke="black" d="M1433.66,-155.863C1533.14,-148.144 1720.03,-131.871 1878,-108 1884.8,-106.973 1891.88,-105.771 1898.92,-104.489"/>
<polygon fill="black" stroke="black" points="1899.99,-107.849 1909.18,-102.565 1898.7,-100.969 1899.99,-107.849"/>
</g>
<!-- f0 -->
<g id="node53" class="node"><title>f0</title>
<a xlink:href="0000166" xlink:title="GO:0000166 (16)">
<ellipse fill="#e98576" stroke="#e98576" cx="2136" cy="-90" rx="79.4447" ry="18"/>
<text text-anchor="middle" x="2136" y="-85.8" font-family="Times,serif" font-size="14.00">GO:0000166 (16)</text>
</a>
</g>
<!-- b0&#45;&gt;f0 -->
<g id="edge52" class="edge"><title>b0&#45;&gt;f0</title>
<path fill="none" stroke="black" d="M1436.42,-157.998C1561.97,-152.264 1825.8,-137.602 2047,-108 2054.37,-107.013 2062.06,-105.811 2069.69,-104.507"/>
<polygon fill="black" stroke="black" points="2070.42,-107.932 2079.66,-102.743 2069.2,-101.039 2070.42,-107.932"/>
</g>
<!-- a1 -->
<g id="node55" class="node"><title>a1</title>
<a xlink:href="0001871" xlink:title="GO:0001871 (1)">
<ellipse fill="#e98576" stroke="#e98576" cx="2309" cy="-90" rx="75.2018" ry="18"/>
<text text-anchor="middle" x="2309" y="-85.8" font-family="Times,serif" font-size="14.00">GO:0001871 (1)</text>
</a>
</g>
<!-- b0&#45;&gt;a1 -->
<g id="edge54" class="edge"><title>b0&#45;&gt;a1</title>
<path fill="none" stroke="black" d="M1437.61,-159.815C1587.32,-156.687 1934.78,-145.647 2224,-108 2231.08,-107.079 2238.45,-105.915 2245.77,-104.63"/>
<polygon fill="black" stroke="black" points="2246.47,-108.06 2255.68,-102.815 2245.21,-101.174 2246.47,-108.06"/>
</g>
<!-- o0 -->
<g id="node61" class="node"><title>o0</title>
<a xlink:href="0048037" xlink:title="GO:0048037 (5)">
<ellipse fill="#e98576" stroke="#e98576" cx="2477" cy="-90" rx="75.2018" ry="18"/>
<text text-anchor="middle" x="2477" y="-85.8" font-family="Times,serif" font-size="14.00">GO:0048037 (5)</text>
</a>
</g>
<!-- b0&#45;&gt;o0 -->
<g id="edge60" class="edge"><title>b0&#45;&gt;o0</title>
<path fill="none" stroke="black" d="M1437.97,-160.94C1608.36,-159.976 2037.48,-152.87 2393,-108 2399.84,-107.136 2406.96,-106.028 2414.03,-104.792"/>
<polygon fill="black" stroke="black" points="2415.12,-108.151 2424.32,-102.903 2413.85,-101.266 2415.12,-108.151"/>
</g>
<!-- c0 -->
<g id="node6" class="node"><title>c0</title>
<a xlink:href="0003674" xlink:title="GO:0003674 (3)">
<ellipse fill="#e98576" stroke="#e98576" cx="3154" cy="-234" rx="75.2018" ry="18"/>
<text text-anchor="middle" x="3154" y="-229.8" font-family="Times,serif" font-size="14.00">GO:0003674 (3)</text>
</a>
</g>
<!-- c0&#45;&gt;b0 -->
<g id="edge24" class="edge"><title>c0&#45;&gt;b0</title>
<path fill="none" stroke="black" d="M3080.45,-230.125C2793.59,-218.914 1750.78,-178.156 1446.74,-166.273"/>
<polygon fill="black" stroke="black" points="1446.8,-162.773 1436.67,-165.879 1446.52,-169.767 1446.8,-162.773"/>
</g>
<!-- w0 -->
<g id="node8" class="node"><title>w0</title>
<a xlink:href="0045182" xlink:title="GO:0045182 (1)">
<ellipse fill="#e98576" stroke="#e98576" cx="2818" cy="-162" rx="75.2018" ry="18"/>
<text text-anchor="middle" x="2818" y="-157.8" font-family="Times,serif" font-size="14.00">GO:0045182 (1)</text>
</a>
</g>
<!-- c0&#45;&gt;w0 -->
<g id="edge6" class="edge"><title>c0&#45;&gt;w0</title>
<path fill="none" stroke="black" d="M3099.27,-221.597C3039.96,-209.242 2945.4,-189.541 2882.52,-176.441"/>
<polygon fill="black" stroke="black" points="2883.21,-173.011 2872.71,-174.398 2881.78,-179.864 2883.21,-173.011"/>
</g>
<!-- j0 -->
<g id="node9" class="node"><title>j0</title>
<a xlink:href="0003824" xlink:title="GO:0003824 (6)">
<ellipse fill="#e98576" stroke="#e98576" cx="2986" cy="-162" rx="75.2018" ry="18"/>
<text text-anchor="middle" x="2986" y="-157.8" font-family="Times,serif" font-size="14.00">GO:0003824 (6)</text>
</a>
</g>
<!-- c0&#45;&gt;j0 -->
<g id="edge14" class="edge"><title>c0&#45;&gt;j0</title>
<path fill="none" stroke="black" d="M3118.37,-218.155C3092.95,-207.564 3058.57,-193.239 3031.22,-181.842"/>
<polygon fill="black" stroke="black" points="3032.44,-178.56 3021.87,-177.944 3029.75,-185.021 3032.44,-178.56"/>
</g>
<!-- m0 -->
<g id="node15" class="node"><title>m0</title>
<a xlink:href="0030234" xlink:title="GO:0030234 (6)">
<ellipse fill="#e98576" stroke="#e98576" cx="3154" cy="-162" rx="75.2018" ry="18"/>
<text text-anchor="middle" x="3154" y="-157.8" font-family="Times,serif" font-size="14.00">GO:0030234 (6)</text>
</a>
</g>
<!-- c0&#45;&gt;m0 -->
<g id="edge12" class="edge"><title>c0&#45;&gt;m0</title>
<path fill="none" stroke="black" d="M3154,-215.697C3154,-207.983 3154,-198.712 3154,-190.112"/>
<polygon fill="black" stroke="black" points="3157.5,-190.104 3154,-180.104 3150.5,-190.104 3157.5,-190.104"/>
</g>
<!-- y0 -->
<g id="node24" class="node"><title>y0</title>
<a xlink:href="0003774" xlink:title="GO:0003774 (1)">
<ellipse fill="#e98576" stroke="#e98576" cx="3322" cy="-162" rx="75.2018" ry="18"/>
<text text-anchor="middle" x="3322" y="-157.8" font-family="Times,serif" font-size="14.00">GO:0003774 (1)</text>
</a>
</g>
<!-- c0&#45;&gt;y0 -->
<g id="edge22" class="edge"><title>c0&#45;&gt;y0</title>
<path fill="none" stroke="black" d="M3189.63,-218.155C3215.05,-207.564 3249.43,-193.239 3276.78,-181.842"/>
<polygon fill="black" stroke="black" points="3278.25,-185.021 3286.13,-177.944 3275.56,-178.56 3278.25,-185.021"/>
</g>
<!-- p0 -->
<g id="node32" class="node"><title>p0</title>
<a xlink:href="0005215" xlink:title="GO:0005215 (4)">
<ellipse fill="#e98576" stroke="#e98576" cx="3490" cy="-162" rx="75.2018" ry="18"/>
<text text-anchor="middle" x="3490" y="-157.8" font-family="Times,serif" font-size="14.00">GO:0005215 (4)</text>
</a>
</g>
<!-- c0&#45;&gt;p0 -->
<g id="edge30" class="edge"><title>c0&#45;&gt;p0</title>
<path fill="none" stroke="black" d="M3208.73,-221.597C3268.04,-209.242 3362.6,-189.541 3425.48,-176.441"/>
<polygon fill="black" stroke="black" points="3426.22,-179.864 3435.29,-174.398 3424.79,-173.011 3426.22,-179.864"/>
</g>
<!-- h0 -->
<g id="node59" class="node"><title>h0</title>
<a xlink:href="0005198" xlink:title="GO:0005198 (11)">
<ellipse fill="#e98576" stroke="#e98576" cx="3663" cy="-162" rx="79.4447" ry="18"/>
<text text-anchor="middle" x="3663" y="-157.8" font-family="Times,serif" font-size="14.00">GO:0005198 (11)</text>
</a>
</g>
<!-- c0&#45;&gt;h0 -->
<g id="edge58" class="edge"><title>c0&#45;&gt;h0</title>
<path fill="none" stroke="black" d="M3221.11,-225.856C3304.17,-216.708 3449.87,-199.667 3574,-180 3581.05,-178.883 3588.4,-177.628 3595.71,-176.319"/>
<polygon fill="black" stroke="black" points="3596.43,-179.746 3605.64,-174.508 3595.18,-172.859 3596.43,-179.746"/>
</g>
<!-- t0 -->
<g id="node11" class="node"><title>t0</title>
<a xlink:href="0016853" xlink:title="GO:0016853 (2)">
<ellipse fill="#e98576" stroke="#e98576" cx="2645" cy="-90" rx="75.2018" ry="18"/>
<text text-anchor="middle" x="2645" y="-85.8" font-family="Times,serif" font-size="14.00">GO:0016853 (2)</text>
</a>
</g>
<!-- j0&#45;&gt;t0 -->
<g id="edge8" class="edge"><title>j0&#45;&gt;t0</title>
<path fill="none" stroke="black" d="M2930.83,-149.675C2870.54,-137.298 2774.01,-117.483 2710.06,-104.355"/>
<polygon fill="black" stroke="black" points="2710.59,-100.891 2700.09,-102.308 2709.18,-107.748 2710.59,-100.891"/>
</g>
<!-- l0 -->
<g id="node26" class="node"><title>l0</title>
<a xlink:href="0016787" xlink:title="GO:0016787 (6)">
<ellipse fill="#e98576" stroke="#e98576" cx="2813" cy="-90" rx="75.2018" ry="18"/>
<text text-anchor="middle" x="2813" y="-85.8" font-family="Times,serif" font-size="14.00">GO:0016787 (6)</text>
</a>
</g>
<!-- j0&#45;&gt;l0 -->
<g id="edge34" class="edge"><title>j0&#45;&gt;l0</title>
<path fill="none" stroke="black" d="M2949.31,-146.155C2922.93,-135.482 2887.18,-121.016 2858.91,-109.577"/>
<polygon fill="black" stroke="black" points="2860.22,-106.33 2849.64,-105.824 2857.59,-112.819 2860.22,-106.33"/>
</g>
<!-- i0 -->
<g id="node36" class="node"><title>i0</title>
<a xlink:href="0016491" xlink:title="GO:0016491 (10)">
<ellipse fill="#e98576" stroke="#e98576" cx="2986" cy="-90" rx="79.4447" ry="18"/>
<text text-anchor="middle" x="2986" y="-85.8" font-family="Times,serif" font-size="14.00">GO:0016491 (10)</text>
</a>
</g>
<!-- j0&#45;&gt;i0 -->
<g id="edge50" class="edge"><title>j0&#45;&gt;i0</title>
<path fill="none" stroke="black" d="M2986,-143.697C2986,-135.983 2986,-126.712 2986,-118.112"/>
<polygon fill="black" stroke="black" points="2989.5,-118.104 2986,-108.104 2982.5,-118.104 2989.5,-118.104"/>
</g>
<!-- k0 -->
<g id="node44" class="node"><title>k0</title>
<a xlink:href="0016740" xlink:title="GO:0016740 (8)">
<ellipse fill="#e98576" stroke="#e98576" cx="3159" cy="-90" rx="75.2018" ry="18"/>
<text text-anchor="middle" x="3159" y="-85.8" font-family="Times,serif" font-size="14.00">GO:0016740 (8)</text>
</a>
</g>
<!-- j0&#45;&gt;k0 -->
<g id="edge42" class="edge"><title>j0&#45;&gt;k0</title>
<path fill="none" stroke="black" d="M3022.69,-146.155C3049.07,-135.482 3084.82,-121.016 3113.09,-109.577"/>
<polygon fill="black" stroke="black" points="3114.41,-112.819 3122.36,-105.824 3111.78,-106.33 3114.41,-112.819"/>
</g>
<!-- q0 -->
<g id="node46" class="node"><title>q0</title>
<a xlink:href="0016874" xlink:title="GO:0016874 (3)">
<ellipse fill="#e98576" stroke="#e98576" cx="3327" cy="-90" rx="75.2018" ry="18"/>
<text text-anchor="middle" x="3327" y="-85.8" font-family="Times,serif" font-size="14.00">GO:0016874 (3)</text>
</a>
</g>
<!-- j0&#45;&gt;q0 -->
<g id="edge44" class="edge"><title>j0&#45;&gt;q0</title>
<path fill="none" stroke="black" d="M3041.17,-149.675C3101.46,-137.298 3197.99,-117.483 3261.94,-104.355"/>
<polygon fill="black" stroke="black" points="3262.82,-107.748 3271.91,-102.308 3261.41,-100.891 3262.82,-107.748"/>
</g>
<!-- v0 -->
<g id="node57" class="node"><title>v0</title>
<a xlink:href="0016829" xlink:title="GO:0016829 (2)">
<ellipse fill="#e98576" stroke="#e98576" cx="3495" cy="-90" rx="75.2018" ry="18"/>
<text text-anchor="middle" x="3495" y="-85.8" font-family="Times,serif" font-size="14.00">GO:0016829 (2)</text>
</a>
</g>
<!-- j0&#45;&gt;v0 -->
<g id="edge56" class="edge"><title>j0&#45;&gt;v0</title>
<path fill="none" stroke="black" d="M3039.64,-149.359C3049.7,-147.4 3060.15,-145.514 3070,-144 3220.63,-120.859 3260.37,-131.141 3411,-108 3417.62,-106.983 3424.51,-105.798 3431.37,-104.536"/>
<polygon fill="black" stroke="black" points="3432.19,-107.943 3441.36,-102.641 3430.88,-101.065 3432.19,-107.943"/>
</g>
<!-- z0 -->
<g id="node28" class="node"><title>z0</title>
<a xlink:href="0008233" xlink:title="GO:0008233 (1)">
<ellipse fill="#e98576" stroke="#e98576" cx="2813" cy="-18" rx="75.2018" ry="18"/>
<text text-anchor="middle" x="2813" y="-13.8" font-family="Times,serif" font-size="14.00">GO:0008233 (1)</text>
</a>
</g>
<!-- l0&#45;&gt;z0 -->
<g id="edge26" class="edge"><title>l0&#45;&gt;z0</title>
<path fill="none" stroke="black" d="M2813,-71.6966C2813,-63.9827 2813,-54.7125 2813,-46.1124"/>
<polygon fill="black" stroke="black" points="2816.5,-46.1043 2813,-36.1043 2809.5,-46.1044 2816.5,-46.1043"/>
</g>
<!-- u0 -->
<g id="node38" class="node"><title>u0</title>
<a xlink:href="0009055" xlink:title="GO:0009055 (2)">
<ellipse fill="#e98576" stroke="#e98576" cx="2986" cy="-18" rx="75.2018" ry="18"/>
<text text-anchor="middle" x="2986" y="-13.8" font-family="Times,serif" font-size="14.00">GO:0009055 (2)</text>
</a>
</g>
<!-- i0&#45;&gt;u0 -->
<g id="edge36" class="edge"><title>i0&#45;&gt;u0</title>
<path fill="none" stroke="black" d="M2986,-71.6966C2986,-63.9827 2986,-54.7125 2986,-46.1124"/>
<polygon fill="black" stroke="black" points="2989.5,-46.1043 2986,-36.1043 2982.5,-46.1044 2989.5,-46.1043"/>
</g>
</g>
</svg>
