<?xml version="1.0" encoding="UTF-8" standalone="no"?>
<!DOCTYPE svg PUBLIC "-//W3C//DTD SVG 1.1//EN"
 "http://www.w3.org/Graphics/SVG/1.1/DTD/svg11.dtd">
<!-- Generated by graphviz version 2.28.0 (20110622.2320)
 -->
<!-- Title: G Pages: 1 -->
<svg width="1721pt" height="260pt"
 viewBox="0.00 0.00 1721.00 260.00" xmlns="http://www.w3.org/2000/svg" xmlns:xlink="http://www.w3.org/1999/xlink">
<g id="graph1" class="graph" transform="scale(1 1) rotate(0) translate(4 256)">
<title>G</title>
<polygon fill="white" stroke="white" points="-4,5 -4,-256 1718,-256 1718,5 -4,5"/>
<!-- b0 -->
<g id="node1" class="node"><title>b0</title>
<a xlink:href="0005488" xlink:title="GO:0005488">
<ellipse fill="#dddddd" stroke="#dddddd" cx="663" cy="-162" rx="61.1934" ry="18"/>
<text text-anchor="middle" x="663" y="-157.8" font-family="Times,serif" font-size="14.00">GO:0005488</text>
</a>
</g>
<!-- r0 -->
<g id="node3" class="node"><title>r0</title>
<a xlink:href="0050840" xlink:title="GO:0050840 (1)">
<ellipse fill="#e98576" stroke="#e98576" cx="75" cy="-90" rx="75.2018" ry="18"/>
<text text-anchor="middle" x="75" y="-85.8" font-family="Times,serif" font-size="14.00">GO:0050840 (1)</text>
</a>
</g>
<!-- b0&#45;&gt;r0 -->
<g id="edge2" class="edge"><title>b0&#45;&gt;r0</title>
<path fill="none" stroke="black" d="M604.181,-156.637C509.893,-149.234 319.233,-132.582 159,-108 152.38,-106.984 145.49,-105.8 138.631,-104.538"/>
<polygon fill="black" stroke="black" points="139.115,-101.068 128.638,-102.644 137.811,-107.945 139.115,-101.068"/>
</g>
<!-- h0 -->
<g id="node5" class="node"><title>h0</title>
<a xlink:href="0008289" xlink:title="GO:0008289 (2)">
<ellipse fill="#e98576" stroke="#e98576" cx="243" cy="-90" rx="75.2018" ry="18"/>
<text text-anchor="middle" x="243" y="-85.8" font-family="Times,serif" font-size="14.00">GO:0008289 (2)</text>
</a>
</g>
<!-- b0&#45;&gt;h0 -->
<g id="edge4" class="edge"><title>b0&#45;&gt;h0</title>
<path fill="none" stroke="black" d="M609.342,-153.267C542.916,-143.526 426.387,-125.887 327,-108 320.754,-106.876 314.257,-105.654 307.766,-104.399"/>
<polygon fill="black" stroke="black" points="308.095,-100.897 297.608,-102.408 306.748,-107.766 308.095,-100.897"/>
</g>
<!-- s0 -->
<g id="node10" class="node"><title>s0</title>
<a xlink:href="0019825" xlink:title="GO:0019825 (1)">
<ellipse fill="#e98576" stroke="#e98576" cx="411" cy="-90" rx="75.2018" ry="18"/>
<text text-anchor="middle" x="411" y="-85.8" font-family="Times,serif" font-size="14.00">GO:0019825 (1)</text>
</a>
</g>
<!-- b0&#45;&gt;s0 -->
<g id="edge8" class="edge"><title>b0&#45;&gt;s0</title>
<path fill="none" stroke="black" d="M619.966,-149.046C578.057,-137.405 514.105,-119.64 467.988,-106.83"/>
<polygon fill="black" stroke="black" points="468.713,-103.399 458.141,-104.095 466.839,-110.143 468.713,-103.399"/>
</g>
<!-- f0 -->
<g id="node14" class="node"><title>f0</title>
<a xlink:href="0005515" xlink:title="GO:0005515 (3)">
<ellipse fill="#e98576" stroke="#e98576" cx="579" cy="-90" rx="75.2018" ry="18"/>
<text text-anchor="middle" x="579" y="-85.8" font-family="Times,serif" font-size="14.00">GO:0005515 (3)</text>
</a>
</g>
<!-- b0&#45;&gt;f0 -->
<g id="edge12" class="edge"><title>b0&#45;&gt;f0</title>
<path fill="none" stroke="black" d="M643.518,-144.765C632.57,-135.642 618.725,-124.105 606.67,-114.059"/>
<polygon fill="black" stroke="black" points="608.591,-111.103 598.668,-107.39 604.109,-116.48 608.591,-111.103"/>
</g>
<!-- a0 -->
<g id="node27" class="node"><title>a0</title>
<a xlink:href="0043167" xlink:title="GO:0043167 (4)">
<ellipse fill="#e98576" stroke="#e98576" cx="747" cy="-90" rx="75.2018" ry="18"/>
<text text-anchor="middle" x="747" y="-85.8" font-family="Times,serif" font-size="14.00">GO:0043167 (4)</text>
</a>
</g>
<!-- b0&#45;&gt;a0 -->
<g id="edge24" class="edge"><title>b0&#45;&gt;a0</title>
<path fill="none" stroke="black" d="M682.482,-144.765C693.43,-135.642 707.275,-124.105 719.33,-114.059"/>
<polygon fill="black" stroke="black" points="721.891,-116.48 727.332,-107.39 717.409,-111.103 721.891,-116.48"/>
</g>
<!-- m0 -->
<g id="node34" class="node"><title>m0</title>
<a xlink:href="0003676" xlink:title="GO:0003676 (1)">
<ellipse fill="#e98576" stroke="#e98576" cx="915" cy="-90" rx="75.2018" ry="18"/>
<text text-anchor="middle" x="915" y="-85.8" font-family="Times,serif" font-size="14.00">GO:0003676 (1)</text>
</a>
</g>
<!-- b0&#45;&gt;m0 -->
<g id="edge32" class="edge"><title>b0&#45;&gt;m0</title>
<path fill="none" stroke="black" d="M706.034,-149.046C747.943,-137.405 811.895,-119.64 858.012,-106.83"/>
<polygon fill="black" stroke="black" points="859.161,-110.143 867.859,-104.095 857.287,-103.399 859.161,-110.143"/>
</g>
<!-- q0 -->
<g id="node37" class="node"><title>q0</title>
<a xlink:href="0046906" xlink:title="GO:0046906 (1)">
<ellipse fill="#e98576" stroke="#e98576" cx="1083" cy="-90" rx="75.2018" ry="18"/>
<text text-anchor="middle" x="1083" y="-85.8" font-family="Times,serif" font-size="14.00">GO:0046906 (1)</text>
</a>
</g>
<!-- b0&#45;&gt;q0 -->
<g id="edge36" class="edge"><title>b0&#45;&gt;q0</title>
<path fill="none" stroke="black" d="M716.658,-153.267C783.084,-143.526 899.613,-125.887 999,-108 1005.25,-106.876 1011.74,-105.654 1018.23,-104.399"/>
<polygon fill="black" stroke="black" points="1019.25,-107.766 1028.39,-102.408 1017.9,-100.897 1019.25,-107.766"/>
</g>
<!-- c0 -->
<g id="node6" class="node"><title>c0</title>
<a xlink:href="0003674" xlink:title="GO:0003674">
<ellipse fill="#dddddd" stroke="#dddddd" cx="1315" cy="-234" rx="61.1934" ry="18"/>
<text text-anchor="middle" x="1315" y="-229.8" font-family="Times,serif" font-size="14.00">GO:0003674</text>
</a>
</g>
<!-- c0&#45;&gt;b0 -->
<g id="edge14" class="edge"><title>c0&#45;&gt;b0</title>
<path fill="none" stroke="black" d="M1258.56,-226.941C1138.54,-214.054 858.414,-183.98 729.764,-170.168"/>
<polygon fill="black" stroke="black" points="729.968,-166.67 719.651,-169.082 729.22,-173.63 729.968,-166.67"/>
</g>
<!-- g0 -->
<g id="node8" class="node"><title>g0</title>
<a xlink:href="0030234" xlink:title="GO:0030234 (2)">
<ellipse fill="#e98576" stroke="#e98576" cx="1160" cy="-162" rx="75.2018" ry="18"/>
<text text-anchor="middle" x="1160" y="-157.8" font-family="Times,serif" font-size="14.00">GO:0030234 (2)</text>
</a>
</g>
<!-- c0&#45;&gt;g0 -->
<g id="edge6" class="edge"><title>c0&#45;&gt;g0</title>
<path fill="none" stroke="black" d="M1282.88,-218.496C1259.77,-208.056 1228.33,-193.86 1203.04,-182.439"/>
<polygon fill="black" stroke="black" points="1204.24,-179.138 1193.68,-178.212 1201.36,-185.518 1204.24,-179.138"/>
</g>
<!-- e0 -->
<g id="node12" class="node"><title>e0</title>
<a xlink:href="0003824" xlink:title="GO:0003824">
<ellipse fill="#dddddd" stroke="#dddddd" cx="1315" cy="-162" rx="61.1934" ry="18"/>
<text text-anchor="middle" x="1315" y="-157.8" font-family="Times,serif" font-size="14.00">GO:0003824</text>
</a>
</g>
<!-- c0&#45;&gt;e0 -->
<g id="edge10" class="edge"><title>c0&#45;&gt;e0</title>
<path fill="none" stroke="black" d="M1315,-215.697C1315,-207.983 1315,-198.712 1315,-190.112"/>
<polygon fill="black" stroke="black" points="1318.5,-190.104 1315,-180.104 1311.5,-190.104 1318.5,-190.104"/>
</g>
<!-- l0 -->
<g id="node20" class="node"><title>l0</title>
<a xlink:href="0016209" xlink:title="GO:0016209 (1)">
<ellipse fill="#e98576" stroke="#e98576" cx="1470" cy="-162" rx="75.2018" ry="18"/>
<text text-anchor="middle" x="1470" y="-157.8" font-family="Times,serif" font-size="14.00">GO:0016209 (1)</text>
</a>
</g>
<!-- c0&#45;&gt;l0 -->
<g id="edge18" class="edge"><title>c0&#45;&gt;l0</title>
<path fill="none" stroke="black" d="M1347.12,-218.496C1370.23,-208.056 1401.67,-193.86 1426.96,-182.439"/>
<polygon fill="black" stroke="black" points="1428.64,-185.518 1436.32,-178.212 1425.76,-179.138 1428.64,-185.518"/>
</g>
<!-- p0 -->
<g id="node25" class="node"><title>p0</title>
<a xlink:href="0005215" xlink:title="GO:0005215 (1)">
<ellipse fill="#e98576" stroke="#e98576" cx="1638" cy="-162" rx="75.2018" ry="18"/>
<text text-anchor="middle" x="1638" y="-157.8" font-family="Times,serif" font-size="14.00">GO:0005215 (1)</text>
</a>
</g>
<!-- c0&#45;&gt;p0 -->
<g id="edge22" class="edge"><title>c0&#45;&gt;p0</title>
<path fill="none" stroke="black" d="M1362.66,-222.671C1418.68,-210.531 1511.88,-190.333 1574.12,-176.844"/>
<polygon fill="black" stroke="black" points="1575.18,-180.195 1584.22,-174.656 1573.7,-173.354 1575.18,-180.195"/>
</g>
<!-- j0 -->
<g id="node16" class="node"><title>j0</title>
<a xlink:href="0016787" xlink:title="GO:0016787">
<ellipse fill="#dddddd" stroke="#dddddd" cx="1238" cy="-90" rx="61.1934" ry="18"/>
<text text-anchor="middle" x="1238" y="-85.8" font-family="Times,serif" font-size="14.00">GO:0016787</text>
</a>
</g>
<!-- e0&#45;&gt;j0 -->
<g id="edge26" class="edge"><title>e0&#45;&gt;j0</title>
<path fill="none" stroke="black" d="M1297.14,-144.765C1287.2,-135.73 1274.66,-124.326 1263.68,-114.349"/>
<polygon fill="black" stroke="black" points="1265.78,-111.527 1256.03,-107.39 1261.07,-116.706 1265.78,-111.527"/>
</g>
<!-- d0 -->
<g id="node21" class="node"><title>d0</title>
<a xlink:href="0016491" xlink:title="GO:0016491 (3)">
<ellipse fill="#e98576" stroke="#e98576" cx="1393" cy="-90" rx="75.2018" ry="18"/>
<text text-anchor="middle" x="1393" y="-85.8" font-family="Times,serif" font-size="14.00">GO:0016491 (3)</text>
</a>
</g>
<!-- e0&#45;&gt;d0 -->
<g id="edge34" class="edge"><title>e0&#45;&gt;d0</title>
<path fill="none" stroke="black" d="M1333.09,-144.765C1343.09,-135.795 1355.68,-124.49 1366.74,-114.564"/>
<polygon fill="black" stroke="black" points="1369.36,-116.917 1374.47,-107.633 1364.69,-111.708 1369.36,-116.917"/>
</g>
<!-- n0 -->
<g id="node32" class="node"><title>n0</title>
<a xlink:href="0016874" xlink:title="GO:0016874 (1)">
<ellipse fill="#e98576" stroke="#e98576" cx="1561" cy="-90" rx="75.2018" ry="18"/>
<text text-anchor="middle" x="1561" y="-85.8" font-family="Times,serif" font-size="14.00">GO:0016874 (1)</text>
</a>
</g>
<!-- e0&#45;&gt;n0 -->
<g id="edge30" class="edge"><title>e0&#45;&gt;n0</title>
<path fill="none" stroke="black" d="M1357.29,-148.967C1398.03,-137.374 1459.92,-119.762 1504.79,-106.994"/>
<polygon fill="black" stroke="black" points="1506,-110.288 1514.66,-104.185 1504.09,-103.555 1506,-110.288"/>
</g>
<!-- i0 -->
<g id="node18" class="node"><title>i0</title>
<a xlink:href="0008233" xlink:title="GO:0008233 (2)">
<ellipse fill="#e98576" stroke="#e98576" cx="1225" cy="-18" rx="75.2018" ry="18"/>
<text text-anchor="middle" x="1225" y="-13.8" font-family="Times,serif" font-size="14.00">GO:0008233 (2)</text>
</a>
</g>
<!-- j0&#45;&gt;i0 -->
<g id="edge16" class="edge"><title>j0&#45;&gt;i0</title>
<path fill="none" stroke="black" d="M1234.79,-71.6966C1233.35,-63.9827 1231.63,-54.7125 1230.04,-46.1124"/>
<polygon fill="black" stroke="black" points="1233.44,-45.2971 1228.18,-36.1043 1226.56,-46.5753 1233.44,-45.2971"/>
</g>
<!-- k0 -->
<g id="node23" class="node"><title>k0</title>
<a xlink:href="0004497" xlink:title="GO:0004497 (1)">
<ellipse fill="#e98576" stroke="#e98576" cx="1393" cy="-18" rx="75.2018" ry="18"/>
<text text-anchor="middle" x="1393" y="-13.8" font-family="Times,serif" font-size="14.00">GO:0004497 (1)</text>
</a>
</g>
<!-- d0&#45;&gt;k0 -->
<g id="edge20" class="edge"><title>d0&#45;&gt;k0</title>
<path fill="none" stroke="black" d="M1393,-71.6966C1393,-63.9827 1393,-54.7125 1393,-46.1124"/>
<polygon fill="black" stroke="black" points="1396.5,-46.1043 1393,-36.1043 1389.5,-46.1044 1396.5,-46.1043"/>
</g>
<!-- o0 -->
<g id="node30" class="node"><title>o0</title>
<a xlink:href="0009055" xlink:title="GO:0009055 (1)">
<ellipse fill="#e98576" stroke="#e98576" cx="1561" cy="-18" rx="75.2018" ry="18"/>
<text text-anchor="middle" x="1561" y="-13.8" font-family="Times,serif" font-size="14.00">GO:0009055 (1)</text>
</a>
</g>
<!-- d0&#45;&gt;o0 -->
<g id="edge28" class="edge"><title>d0&#45;&gt;o0</title>
<path fill="none" stroke="black" d="M1428.63,-74.1548C1454.05,-63.5644 1488.43,-49.2392 1515.78,-37.8424"/>
<polygon fill="black" stroke="black" points="1517.25,-41.0213 1525.13,-33.9443 1514.56,-34.5597 1517.25,-41.0213"/>
</g>
</g>
</svg>
