<?xml version="1.0" encoding="UTF-8" standalone="no"?>
<!DOCTYPE svg PUBLIC "-//W3C//DTD SVG 1.1//EN"
 "http://www.w3.org/Graphics/SVG/1.1/DTD/svg11.dtd">
<!-- Generated by graphviz version 2.28.0 (20110622.2320)
 -->
<!-- Title: G Pages: 1 -->
<svg width="3282pt" height="260pt"
 viewBox="0.00 0.00 3282.00 260.00" xmlns="http://www.w3.org/2000/svg" xmlns:xlink="http://www.w3.org/1999/xlink">
<g id="graph1" class="graph" transform="scale(1 1) rotate(0) translate(4 256)">
<title>G</title>
<polygon fill="white" stroke="white" points="-4,5 -4,-256 3279,-256 3279,5 -4,5"/>
<!-- s0 -->
<g id="node1" class="node"><title>s0</title>
<a xlink:href="0004871" xlink:title="GO:0004871 (2)">
<ellipse fill="#e98576" stroke="#e98576" cx="3199" cy="-90" rx="75.2018" ry="18"/>
<text text-anchor="middle" x="3199" y="-85.8" font-family="Times,serif" font-size="14.00">GO:0004871 (2)</text>
</a>
</g>
<!-- r0 -->
<g id="node3" class="node"><title>r0</title>
<a xlink:href="0004872" xlink:title="GO:0004872 (5)">
<ellipse fill="#e98576" stroke="#e98576" cx="3199" cy="-18" rx="75.2018" ry="18"/>
<text text-anchor="middle" x="3199" y="-13.8" font-family="Times,serif" font-size="14.00">GO:0004872 (5)</text>
</a>
</g>
<!-- s0&#45;&gt;r0 -->
<g id="edge2" class="edge"><title>s0&#45;&gt;r0</title>
<path fill="none" stroke="black" d="M3199,-71.6966C3199,-63.9827 3199,-54.7125 3199,-46.1124"/>
<polygon fill="black" stroke="black" points="3202.5,-46.1043 3199,-36.1043 3195.5,-46.1044 3202.5,-46.1043"/>
</g>
<!-- c0 -->
<g id="node4" class="node"><title>c0</title>
<a xlink:href="0003674" xlink:title="GO:0003674 (1)">
<ellipse fill="#e98576" stroke="#e98576" cx="2297" cy="-234" rx="75.2018" ry="18"/>
<text text-anchor="middle" x="2297" y="-229.8" font-family="Times,serif" font-size="14.00">GO:0003674 (1)</text>
</a>
</g>
<!-- z0 -->
<g id="node6" class="node"><title>z0</title>
<a xlink:href="0030234" xlink:title="GO:0030234 (1)">
<ellipse fill="#e98576" stroke="#e98576" cx="693" cy="-162" rx="75.2018" ry="18"/>
<text text-anchor="middle" x="693" y="-157.8" font-family="Times,serif" font-size="14.00">GO:0030234 (1)</text>
</a>
</g>
<!-- c0&#45;&gt;z0 -->
<g id="edge4" class="edge"><title>c0&#45;&gt;z0</title>
<path fill="none" stroke="black" d="M2222.19,-232.025C1956.87,-228.312 1061.69,-213.539 777,-180 769.889,-179.162 762.483,-178.039 755.144,-176.766"/>
<polygon fill="black" stroke="black" points="755.678,-173.306 745.212,-174.952 754.42,-180.192 755.678,-173.306"/>
</g>
<!-- g0 -->
<g id="node7" class="node"><title>g0</title>
<a xlink:href="0003824" xlink:title="GO:0003824 (2)">
<ellipse fill="#e98576" stroke="#e98576" cx="861" cy="-162" rx="75.2018" ry="18"/>
<text text-anchor="middle" x="861" y="-157.8" font-family="Times,serif" font-size="14.00">GO:0003824 (2)</text>
</a>
</g>
<!-- c0&#45;&gt;g0 -->
<g id="edge8" class="edge"><title>c0&#45;&gt;g0</title>
<path fill="none" stroke="black" d="M2224.31,-229.457C1981.68,-217.629 1200.53,-179.551 943.699,-167.031"/>
<polygon fill="black" stroke="black" points="943.847,-163.534 933.689,-166.543 943.506,-170.526 943.847,-163.534"/>
</g>
<!-- b0 -->
<g id="node11" class="node"><title>b0</title>
<a xlink:href="0005488" xlink:title="GO:0005488">
<ellipse fill="#dddddd" stroke="#dddddd" cx="2156" cy="-162" rx="61.1934" ry="18"/>
<text text-anchor="middle" x="2156" y="-157.8" font-family="Times,serif" font-size="14.00">GO:0005488</text>
</a>
</g>
<!-- c0&#45;&gt;b0 -->
<g id="edge18" class="edge"><title>c0&#45;&gt;b0</title>
<path fill="none" stroke="black" d="M2265.71,-217.465C2244.84,-207.103 2217.24,-193.404 2194.95,-182.337"/>
<polygon fill="black" stroke="black" points="2196.27,-179.085 2185.76,-177.773 2193.16,-185.355 2196.27,-179.085"/>
</g>
<!-- t0 -->
<g id="node21" class="node"><title>t0</title>
<a xlink:href="0060089" xlink:title="GO:0060089">
<ellipse fill="#dddddd" stroke="#dddddd" cx="2297" cy="-162" rx="61.1934" ry="18"/>
<text text-anchor="middle" x="2297" y="-157.8" font-family="Times,serif" font-size="14.00">GO:0060089</text>
</a>
</g>
<!-- c0&#45;&gt;t0 -->
<g id="edge56" class="edge"><title>c0&#45;&gt;t0</title>
<path fill="none" stroke="black" d="M2297,-215.697C2297,-207.983 2297,-198.712 2297,-190.112"/>
<polygon fill="black" stroke="black" points="2300.5,-190.104 2297,-180.104 2293.5,-190.104 2300.5,-190.104"/>
</g>
<!-- y0 -->
<g id="node27" class="node"><title>y0</title>
<a xlink:href="0016209" xlink:title="GO:0016209 (2)">
<ellipse fill="#e98576" stroke="#e98576" cx="2452" cy="-162" rx="75.2018" ry="18"/>
<text text-anchor="middle" x="2452" y="-157.8" font-family="Times,serif" font-size="14.00">GO:0016209 (2)</text>
</a>
</g>
<!-- c0&#45;&gt;y0 -->
<g id="edge24" class="edge"><title>c0&#45;&gt;y0</title>
<path fill="none" stroke="black" d="M2330.63,-217.811C2353.69,-207.4 2384.46,-193.501 2409.25,-182.305"/>
<polygon fill="black" stroke="black" points="2410.76,-185.465 2418.43,-178.159 2407.88,-179.085 2410.76,-185.465"/>
</g>
<!-- p0 -->
<g id="node31" class="node"><title>p0</title>
<a xlink:href="0005215" xlink:title="GO:0005215 (7)">
<ellipse fill="#e98576" stroke="#e98576" cx="2620" cy="-162" rx="75.2018" ry="18"/>
<text text-anchor="middle" x="2620" y="-157.8" font-family="Times,serif" font-size="14.00">GO:0005215 (7)</text>
</a>
</g>
<!-- c0&#45;&gt;p0 -->
<g id="edge28" class="edge"><title>c0&#45;&gt;p0</title>
<path fill="none" stroke="black" d="M2350.7,-221.362C2407.17,-209.124 2496,-189.873 2556.05,-176.859"/>
<polygon fill="black" stroke="black" points="2557.14,-180.204 2566.17,-174.665 2555.66,-173.363 2557.14,-180.204"/>
</g>
<!-- b1 -->
<g id="node50" class="node"><title>b1</title>
<a xlink:href="0005198" xlink:title="GO:0005198 (1)">
<ellipse fill="#e98576" stroke="#e98576" cx="2788" cy="-162" rx="75.2018" ry="18"/>
<text text-anchor="middle" x="2788" y="-157.8" font-family="Times,serif" font-size="14.00">GO:0005198 (1)</text>
</a>
</g>
<!-- c0&#45;&gt;b1 -->
<g id="edge48" class="edge"><title>c0&#45;&gt;b1</title>
<path fill="none" stroke="black" d="M2363.83,-225.754C2444.65,-216.657 2584.68,-199.818 2704,-180 2710.51,-178.919 2717.28,-177.702 2724.04,-176.43"/>
<polygon fill="black" stroke="black" points="2724.72,-179.862 2733.88,-174.534 2723.4,-172.988 2724.72,-179.862"/>
</g>
<!-- o0 -->
<g id="node9" class="node"><title>o0</title>
<a xlink:href="0016853" xlink:title="GO:0016853 (7)">
<ellipse fill="#e98576" stroke="#e98576" cx="75" cy="-90" rx="75.2018" ry="18"/>
<text text-anchor="middle" x="75" y="-85.8" font-family="Times,serif" font-size="14.00">GO:0016853 (7)</text>
</a>
</g>
<!-- g0&#45;&gt;o0 -->
<g id="edge6" class="edge"><title>g0&#45;&gt;o0</title>
<path fill="none" stroke="black" d="M808.315,-149.152C797.977,-147.164 787.181,-145.32 777,-144 504.151,-108.624 431.849,-143.376 159,-108 152.159,-107.113 145.042,-105.99 137.972,-104.745"/>
<polygon fill="black" stroke="black" points="138.154,-101.22 127.685,-102.848 136.884,-108.104 138.154,-101.22"/>
</g>
<!-- j0 -->
<g id="node23" class="node"><title>j0</title>
<a xlink:href="0016787" xlink:title="GO:0016787 (16)">
<ellipse fill="#e98576" stroke="#e98576" cx="248" cy="-90" rx="79.4447" ry="18"/>
<text text-anchor="middle" x="248" y="-85.8" font-family="Times,serif" font-size="14.00">GO:0016787 (16)</text>
</a>
</g>
<!-- g0&#45;&gt;j0 -->
<g id="edge32" class="edge"><title>g0&#45;&gt;j0</title>
<path fill="none" stroke="black" d="M807.84,-149.256C797.64,-147.283 787.018,-145.418 777,-144 582.729,-116.492 531.419,-134.444 337,-108 329.63,-106.998 321.947,-105.786 314.317,-104.476"/>
<polygon fill="black" stroke="black" points="314.806,-101.008 304.349,-102.706 313.583,-107.9 314.806,-101.008"/>
</g>
<!-- c1 -->
<g id="node29" class="node"><title>c1</title>
<a xlink:href="0019239" xlink:title="GO:0019239 (1)">
<ellipse fill="#e98576" stroke="#e98576" cx="421" cy="-90" rx="75.2018" ry="18"/>
<text text-anchor="middle" x="421" y="-85.8" font-family="Times,serif" font-size="14.00">GO:0019239 (1)</text>
</a>
</g>
<!-- g0&#45;&gt;c1 -->
<g id="edge26" class="edge"><title>g0&#45;&gt;c1</title>
<path fill="none" stroke="black" d="M806.877,-149.483C796.961,-147.533 786.686,-145.619 777,-144 656.726,-123.894 625.274,-128.106 505,-108 498.492,-106.912 491.719,-105.691 484.967,-104.416"/>
<polygon fill="black" stroke="black" points="485.605,-100.974 475.123,-102.517 484.279,-107.848 485.605,-100.974"/>
</g>
<!-- h0 -->
<g id="node35" class="node"><title>h0</title>
<a xlink:href="0016491" xlink:title="GO:0016491 (26)">
<ellipse fill="#e98576" stroke="#e98576" cx="594" cy="-90" rx="79.4447" ry="18"/>
<text text-anchor="middle" x="594" y="-85.8" font-family="Times,serif" font-size="14.00">GO:0016491 (26)</text>
</a>
</g>
<!-- g0&#45;&gt;h0 -->
<g id="edge44" class="edge"><title>g0&#45;&gt;h0</title>
<path fill="none" stroke="black" d="M812.339,-148.242C767.824,-136.572 701.82,-119.268 654.043,-106.742"/>
<polygon fill="black" stroke="black" points="654.7,-103.296 644.139,-104.145 652.925,-110.067 654.7,-103.296"/>
</g>
<!-- f0 -->
<g id="node39" class="node"><title>f0</title>
<a xlink:href="0016740" xlink:title="GO:0016740 (28)">
<ellipse fill="#e98576" stroke="#e98576" cx="772" cy="-90" rx="79.4447" ry="18"/>
<text text-anchor="middle" x="772" y="-85.8" font-family="Times,serif" font-size="14.00">GO:0016740 (28)</text>
</a>
</g>
<!-- g0&#45;&gt;f0 -->
<g id="edge36" class="edge"><title>g0&#45;&gt;f0</title>
<path fill="none" stroke="black" d="M839.908,-144.411C828.27,-135.257 813.646,-123.755 800.952,-113.772"/>
<polygon fill="black" stroke="black" points="802.964,-110.901 792.94,-107.47 798.637,-116.403 802.964,-110.901"/>
</g>
<!-- k0 -->
<g id="node41" class="node"><title>k0</title>
<a xlink:href="0016874" xlink:title="GO:0016874 (16)">
<ellipse fill="#e98576" stroke="#e98576" cx="950" cy="-90" rx="79.4447" ry="18"/>
<text text-anchor="middle" x="950" y="-85.8" font-family="Times,serif" font-size="14.00">GO:0016874 (16)</text>
</a>
</g>
<!-- g0&#45;&gt;k0 -->
<g id="edge38" class="edge"><title>g0&#45;&gt;k0</title>
<path fill="none" stroke="black" d="M882.092,-144.411C893.73,-135.257 908.354,-123.755 921.048,-113.772"/>
<polygon fill="black" stroke="black" points="923.363,-116.403 929.06,-107.47 919.036,-110.901 923.363,-116.403"/>
</g>
<!-- a1 -->
<g id="node52" class="node"><title>a1</title>
<a xlink:href="0004386" xlink:title="GO:0004386 (1)">
<ellipse fill="#e98576" stroke="#e98576" cx="1123" cy="-90" rx="75.2018" ry="18"/>
<text text-anchor="middle" x="1123" y="-85.8" font-family="Times,serif" font-size="14.00">GO:0004386 (1)</text>
</a>
</g>
<!-- g0&#45;&gt;a1 -->
<g id="edge50" class="edge"><title>g0&#45;&gt;a1</title>
<path fill="none" stroke="black" d="M909.055,-148.161C953.051,-136.406 1018.25,-118.986 1065.1,-106.469"/>
<polygon fill="black" stroke="black" points="1066.05,-109.839 1074.81,-103.876 1064.24,-103.076 1066.05,-109.839"/>
</g>
<!-- n0 -->
<g id="node54" class="node"><title>n0</title>
<a xlink:href="0016829" xlink:title="GO:0016829 (10)">
<ellipse fill="#e98576" stroke="#e98576" cx="1296" cy="-90" rx="79.4447" ry="18"/>
<text text-anchor="middle" x="1296" y="-85.8" font-family="Times,serif" font-size="14.00">GO:0016829 (10)</text>
</a>
</g>
<!-- g0&#45;&gt;n0 -->
<g id="edge52" class="edge"><title>g0&#45;&gt;n0</title>
<path fill="none" stroke="black" d="M923.934,-152.069C993.359,-142.052 1108.33,-124.975 1207,-108 1213.77,-106.835 1220.82,-105.573 1227.86,-104.281"/>
<polygon fill="black" stroke="black" points="1228.93,-107.641 1238.13,-102.374 1227.66,-100.759 1228.93,-107.641"/>
</g>
<!-- u0 -->
<g id="node13" class="node"><title>u0</title>
<a xlink:href="0005515" xlink:title="GO:0005515 (4)">
<ellipse fill="#e98576" stroke="#e98576" cx="1469" cy="-90" rx="75.2018" ry="18"/>
<text text-anchor="middle" x="1469" y="-85.8" font-family="Times,serif" font-size="14.00">GO:0005515 (4)</text>
</a>
</g>
<!-- b0&#45;&gt;u0 -->
<g id="edge10" class="edge"><title>b0&#45;&gt;u0</title>
<path fill="none" stroke="black" d="M2096.26,-157.973C1987.68,-151.977 1750.88,-136.627 1553,-108 1546.37,-107.041 1539.48,-105.894 1532.61,-104.654"/>
<polygon fill="black" stroke="black" points="1533.09,-101.182 1522.62,-102.782 1531.8,-108.063 1533.09,-101.182"/>
</g>
<!-- q0 -->
<g id="node15" class="node"><title>q0</title>
<a xlink:href="0001882" xlink:title="GO:0001882 (6)">
<ellipse fill="#e98576" stroke="#e98576" cx="1637" cy="-90" rx="75.2018" ry="18"/>
<text text-anchor="middle" x="1637" y="-85.8" font-family="Times,serif" font-size="14.00">GO:0001882 (6)</text>
</a>
</g>
<!-- b0&#45;&gt;q0 -->
<g id="edge12" class="edge"><title>b0&#45;&gt;q0</title>
<path fill="none" stroke="black" d="M2098.8,-155.475C2015.43,-147.097 1855.81,-129.819 1721,-108 1714.49,-106.946 1707.71,-105.747 1700.96,-104.485"/>
<polygon fill="black" stroke="black" points="1701.59,-101.043 1691.11,-102.6 1700.27,-107.918 1701.59,-101.043"/>
</g>
<!-- e0 -->
<g id="node17" class="node"><title>e0</title>
<a xlink:href="0008144" xlink:title="GO:0008144 (29)">
<ellipse fill="#e98576" stroke="#e98576" cx="1810" cy="-90" rx="79.4447" ry="18"/>
<text text-anchor="middle" x="1810" y="-85.8" font-family="Times,serif" font-size="14.00">GO:0008144 (29)</text>
</a>
</g>
<!-- b0&#45;&gt;e0 -->
<g id="edge14" class="edge"><title>b0&#45;&gt;e0</title>
<path fill="none" stroke="black" d="M2107.16,-151.119C2047.1,-138.967 1944.83,-118.277 1877.33,-104.622"/>
<polygon fill="black" stroke="black" points="1877.72,-101.13 1867.22,-102.577 1876.33,-107.991 1877.72,-101.13"/>
</g>
<!-- v0 -->
<g id="node19" class="node"><title>v0</title>
<a xlink:href="0019842" xlink:title="GO:0019842 (4)">
<ellipse fill="#e98576" stroke="#e98576" cx="1983" cy="-90" rx="75.2018" ry="18"/>
<text text-anchor="middle" x="1983" y="-85.8" font-family="Times,serif" font-size="14.00">GO:0019842 (4)</text>
</a>
</g>
<!-- b0&#45;&gt;v0 -->
<g id="edge16" class="edge"><title>b0&#45;&gt;v0</title>
<path fill="none" stroke="black" d="M2121.41,-147.003C2094.92,-136.285 2058.12,-121.397 2029.13,-109.666"/>
<polygon fill="black" stroke="black" points="2030.21,-106.325 2019.62,-105.819 2027.58,-112.814 2030.21,-106.325"/>
</g>
<!-- a0 -->
<g id="node33" class="node"><title>a0</title>
<a xlink:href="0043167" xlink:title="GO:0043167 (56)">
<ellipse fill="#e98576" stroke="#e98576" cx="2156" cy="-90" rx="79.4447" ry="18"/>
<text text-anchor="middle" x="2156" y="-85.8" font-family="Times,serif" font-size="14.00">GO:0043167 (56)</text>
</a>
</g>
<!-- b0&#45;&gt;a0 -->
<g id="edge30" class="edge"><title>b0&#45;&gt;a0</title>
<path fill="none" stroke="black" d="M2156,-143.697C2156,-135.983 2156,-126.712 2156,-118.112"/>
<polygon fill="black" stroke="black" points="2159.5,-118.104 2156,-108.104 2152.5,-118.104 2159.5,-118.104"/>
</g>
<!-- i0 -->
<g id="node43" class="node"><title>i0</title>
<a xlink:href="0003676" xlink:title="GO:0003676 (21)">
<ellipse fill="#e98576" stroke="#e98576" cx="2334" cy="-90" rx="79.4447" ry="18"/>
<text text-anchor="middle" x="2334" y="-85.8" font-family="Times,serif" font-size="14.00">GO:0003676 (21)</text>
</a>
</g>
<!-- b0&#45;&gt;i0 -->
<g id="edge40" class="edge"><title>b0&#45;&gt;i0</title>
<path fill="none" stroke="black" d="M2191.17,-147.17C2218.5,-136.42 2256.69,-121.402 2286.7,-109.6"/>
<polygon fill="black" stroke="black" points="2288.11,-112.807 2296.14,-105.89 2285.55,-106.293 2288.11,-112.807"/>
</g>
<!-- d1 -->
<g id="node45" class="node"><title>d1</title>
<a xlink:href="0046906" xlink:title="GO:0046906 (1)">
<ellipse fill="#e98576" stroke="#e98576" cx="2507" cy="-90" rx="75.2018" ry="18"/>
<text text-anchor="middle" x="2507" y="-85.8" font-family="Times,serif" font-size="14.00">GO:0046906 (1)</text>
</a>
</g>
<!-- b0&#45;&gt;d1 -->
<g id="edge42" class="edge"><title>b0&#45;&gt;d1</title>
<path fill="none" stroke="black" d="M2201.37,-149.762C2209.87,-147.763 2218.69,-145.76 2227,-144 2313.22,-125.733 2335.45,-124.642 2422,-108 2428.3,-106.788 2434.87,-105.508 2441.43,-104.216"/>
<polygon fill="black" stroke="black" points="2442.57,-107.558 2451.7,-102.184 2441.21,-100.691 2442.57,-107.558"/>
</g>
<!-- d0 -->
<g id="node48" class="node"><title>d0</title>
<a xlink:href="0000166" xlink:title="GO:0000166 (39)">
<ellipse fill="#e98576" stroke="#e98576" cx="2680" cy="-90" rx="79.4447" ry="18"/>
<text text-anchor="middle" x="2680" y="-85.8" font-family="Times,serif" font-size="14.00">GO:0000166 (39)</text>
</a>
</g>
<!-- b0&#45;&gt;d0 -->
<g id="edge46" class="edge"><title>b0&#45;&gt;d0</title>
<path fill="none" stroke="black" d="M2200.12,-149.451C2208.98,-147.412 2218.25,-145.473 2227,-144 2387.31,-117.01 2430.11,-131.274 2591,-108 2598.17,-106.963 2605.64,-105.748 2613.08,-104.454"/>
<polygon fill="black" stroke="black" points="2613.93,-107.857 2623.15,-102.649 2612.69,-100.967 2613.93,-107.857"/>
</g>
<!-- x0 -->
<g id="node56" class="node"><title>x0</title>
<a xlink:href="0051540" xlink:title="GO:0051540 (2)">
<ellipse fill="#e98576" stroke="#e98576" cx="2853" cy="-90" rx="75.2018" ry="18"/>
<text text-anchor="middle" x="2853" y="-85.8" font-family="Times,serif" font-size="14.00">GO:0051540 (2)</text>
</a>
</g>
<!-- b0&#45;&gt;x0 -->
<g id="edge54" class="edge"><title>b0&#45;&gt;x0</title>
<path fill="none" stroke="black" d="M2199.71,-149.315C2208.68,-147.261 2218.1,-145.351 2227,-144 2465.24,-107.815 2529.12,-139.698 2768,-108 2775.08,-107.061 2782.45,-105.886 2789.77,-104.595"/>
<polygon fill="black" stroke="black" points="2790.47,-108.024 2799.67,-102.774 2789.21,-101.14 2790.47,-108.024"/>
</g>
<!-- l0 -->
<g id="node59" class="node"><title>l0</title>
<a xlink:href="0048037" xlink:title="GO:0048037 (14)">
<ellipse fill="#e98576" stroke="#e98576" cx="3026" cy="-90" rx="79.4447" ry="18"/>
<text text-anchor="middle" x="3026" y="-85.8" font-family="Times,serif" font-size="14.00">GO:0048037 (14)</text>
</a>
</g>
<!-- b0&#45;&gt;l0 -->
<g id="edge58" class="edge"><title>b0&#45;&gt;l0</title>
<path fill="none" stroke="black" d="M2199.69,-149.205C2208.66,-147.159 2218.09,-145.281 2227,-144 2539.74,-99.0225 2623.3,-145.73 2937,-108 2944.58,-107.089 2952.48,-105.912 2960.31,-104.604"/>
<polygon fill="black" stroke="black" points="2960.91,-108.052 2970.16,-102.886 2959.71,-101.156 2960.91,-108.052"/>
</g>
<!-- t0&#45;&gt;s0 -->
<g id="edge20" class="edge"><title>t0&#45;&gt;s0</title>
<path fill="none" stroke="black" d="M2340.31,-149.274C2349.4,-147.196 2358.97,-145.288 2368,-144 2696.62,-97.1487 2784.56,-148.663 3114,-108 3121.19,-107.113 3128.68,-105.958 3136.1,-104.669"/>
<polygon fill="black" stroke="black" points="3136.94,-108.074 3146.15,-102.838 3135.68,-101.187 3136.94,-108.074"/>
</g>
<!-- m0 -->
<g id="node25" class="node"><title>m0</title>
<a xlink:href="0008233" xlink:title="GO:0008233 (13)">
<ellipse fill="#e98576" stroke="#e98576" cx="248" cy="-18" rx="79.4447" ry="18"/>
<text text-anchor="middle" x="248" y="-13.8" font-family="Times,serif" font-size="14.00">GO:0008233 (13)</text>
</a>
</g>
<!-- j0&#45;&gt;m0 -->
<g id="edge22" class="edge"><title>j0&#45;&gt;m0</title>
<path fill="none" stroke="black" d="M248,-71.6966C248,-63.9827 248,-54.7125 248,-46.1124"/>
<polygon fill="black" stroke="black" points="251.5,-46.1043 248,-36.1043 244.5,-46.1044 251.5,-46.1043"/>
</g>
<!-- w0 -->
<g id="node37" class="node"><title>w0</title>
<a xlink:href="0009055" xlink:title="GO:0009055 (3)">
<ellipse fill="#e98576" stroke="#e98576" cx="594" cy="-18" rx="75.2018" ry="18"/>
<text text-anchor="middle" x="594" y="-13.8" font-family="Times,serif" font-size="14.00">GO:0009055 (3)</text>
</a>
</g>
<!-- h0&#45;&gt;w0 -->
<g id="edge34" class="edge"><title>h0&#45;&gt;w0</title>
<path fill="none" stroke="black" d="M594,-71.6966C594,-63.9827 594,-54.7125 594,-46.1124"/>
<polygon fill="black" stroke="black" points="597.5,-46.1043 594,-36.1043 590.5,-46.1044 597.5,-46.1043"/>
</g>
</g>
</svg>
