<?xml version="1.0" encoding="UTF-8" standalone="no"?>
<!DOCTYPE svg PUBLIC "-//W3C//DTD SVG 1.1//EN"
 "http://www.w3.org/Graphics/SVG/1.1/DTD/svg11.dtd">
<!-- Generated by graphviz version 2.28.0 (20110622.2320)
 -->
<!-- Title: G Pages: 1 -->
<svg width="3183pt" height="260pt"
 viewBox="0.00 0.00 3183.00 260.00" xmlns="http://www.w3.org/2000/svg" xmlns:xlink="http://www.w3.org/1999/xlink">
<g id="graph1" class="graph" transform="scale(1 1) rotate(0) translate(4 256)">
<title>G</title>
<polygon fill="white" stroke="white" points="-4,5 -4,-256 3180,-256 3180,5 -4,5"/>
<!-- g0 -->
<g id="node1" class="node"><title>g0</title>
<a xlink:href="0016491" xlink:title="GO:0016491 (31)">
<ellipse fill="#e98576" stroke="#e98576" cx="159" cy="-90" rx="79.4447" ry="18"/>
<text text-anchor="middle" x="159" y="-85.8" font-family="Times,serif" font-size="14.00">GO:0016491 (31)</text>
</a>
</g>
<!-- b1 -->
<g id="node3" class="node"><title>b1</title>
<a xlink:href="0051213" xlink:title="GO:0051213 (1)">
<ellipse fill="#e98576" stroke="#e98576" cx="75" cy="-18" rx="75.2018" ry="18"/>
<text text-anchor="middle" x="75" y="-13.8" font-family="Times,serif" font-size="14.00">GO:0051213 (1)</text>
</a>
</g>
<!-- g0&#45;&gt;b1 -->
<g id="edge2" class="edge"><title>g0&#45;&gt;b1</title>
<path fill="none" stroke="black" d="M139.093,-72.411C128.214,-63.3446 114.569,-51.9742 102.669,-42.0572"/>
<polygon fill="black" stroke="black" points="104.687,-39.183 94.7639,-35.4699 100.206,-44.5606 104.687,-39.183"/>
</g>
<!-- f0 -->
<g id="node34" class="node"><title>f0</title>
<a xlink:href="0004497" xlink:title="GO:0004497 (1)">
<ellipse fill="#e98576" stroke="#e98576" cx="243" cy="-18" rx="75.2018" ry="18"/>
<text text-anchor="middle" x="243" y="-13.8" font-family="Times,serif" font-size="14.00">GO:0004497 (1)</text>
</a>
</g>
<!-- g0&#45;&gt;f0 -->
<g id="edge30" class="edge"><title>g0&#45;&gt;f0</title>
<path fill="none" stroke="black" d="M178.907,-72.411C189.786,-63.3446 203.431,-51.9742 215.331,-42.0572"/>
<polygon fill="black" stroke="black" points="217.794,-44.5606 223.236,-35.4699 213.313,-39.183 217.794,-44.5606"/>
</g>
<!-- c0 -->
<g id="node4" class="node"><title>c0</title>
<a xlink:href="0003674" xlink:title="GO:0003674 (7)">
<ellipse fill="#e98576" stroke="#e98576" cx="2119" cy="-234" rx="75.2018" ry="18"/>
<text text-anchor="middle" x="2119" y="-229.8" font-family="Times,serif" font-size="14.00">GO:0003674 (7)</text>
</a>
</g>
<!-- x0 -->
<g id="node6" class="node"><title>x0</title>
<a xlink:href="0030234" xlink:title="GO:0030234 (8)">
<ellipse fill="#e98576" stroke="#e98576" cx="610" cy="-162" rx="75.2018" ry="18"/>
<text text-anchor="middle" x="610" y="-157.8" font-family="Times,serif" font-size="14.00">GO:0030234 (8)</text>
</a>
</g>
<!-- c0&#45;&gt;x0 -->
<g id="edge4" class="edge"><title>c0&#45;&gt;x0</title>
<path fill="none" stroke="black" d="M2044.12,-231.798C1789.76,-227.465 960.042,-211.232 695,-180 687.807,-179.152 680.315,-178.023 672.89,-176.747"/>
<polygon fill="black" stroke="black" points="673.304,-173.265 662.841,-174.93 672.059,-180.153 673.304,-173.265"/>
</g>
<!-- h0 -->
<g id="node7" class="node"><title>h0</title>
<a xlink:href="0003824" xlink:title="GO:0003824">
<ellipse fill="#dddddd" stroke="#dddddd" cx="765" cy="-162" rx="61.1934" ry="18"/>
<text text-anchor="middle" x="765" y="-157.8" font-family="Times,serif" font-size="14.00">GO:0003824</text>
</a>
</g>
<!-- c0&#45;&gt;h0 -->
<g id="edge10" class="edge"><title>c0&#45;&gt;h0</title>
<path fill="none" stroke="black" d="M2046.2,-229.236C1809.95,-217.022 1066.5,-178.587 834.715,-166.604"/>
<polygon fill="black" stroke="black" points="834.888,-163.109 824.721,-166.087 834.527,-170.099 834.888,-163.109"/>
</g>
<!-- b0 -->
<g id="node10" class="node"><title>b0</title>
<a xlink:href="0005488" xlink:title="GO:0005488">
<ellipse fill="#dddddd" stroke="#dddddd" cx="1978" cy="-162" rx="61.1934" ry="18"/>
<text text-anchor="middle" x="1978" y="-157.8" font-family="Times,serif" font-size="14.00">GO:0005488</text>
</a>
</g>
<!-- c0&#45;&gt;b0 -->
<g id="edge22" class="edge"><title>c0&#45;&gt;b0</title>
<path fill="none" stroke="black" d="M2087.71,-217.465C2066.84,-207.103 2039.24,-193.404 2016.95,-182.337"/>
<polygon fill="black" stroke="black" points="2018.27,-179.085 2007.76,-177.773 2015.16,-185.355 2018.27,-179.085"/>
</g>
<!-- j0 -->
<g id="node25" class="node"><title>j0</title>
<a xlink:href="0060089" xlink:title="GO:0060089">
<ellipse fill="#dddddd" stroke="#dddddd" cx="2119" cy="-162" rx="61.1934" ry="18"/>
<text text-anchor="middle" x="2119" y="-157.8" font-family="Times,serif" font-size="14.00">GO:0060089</text>
</a>
</g>
<!-- c0&#45;&gt;j0 -->
<g id="edge56" class="edge"><title>c0&#45;&gt;j0</title>
<path fill="none" stroke="black" d="M2119,-215.697C2119,-207.983 2119,-198.712 2119,-190.112"/>
<polygon fill="black" stroke="black" points="2122.5,-190.104 2119,-180.104 2115.5,-190.104 2122.5,-190.104"/>
</g>
<!-- r0 -->
<g id="node32" class="node"><title>r0</title>
<a xlink:href="0016209" xlink:title="GO:0016209 (6)">
<ellipse fill="#e98576" stroke="#e98576" cx="2274" cy="-162" rx="75.2018" ry="18"/>
<text text-anchor="middle" x="2274" y="-157.8" font-family="Times,serif" font-size="14.00">GO:0016209 (6)</text>
</a>
</g>
<!-- c0&#45;&gt;r0 -->
<g id="edge28" class="edge"><title>c0&#45;&gt;r0</title>
<path fill="none" stroke="black" d="M2152.63,-217.811C2175.69,-207.4 2206.46,-193.501 2231.25,-182.305"/>
<polygon fill="black" stroke="black" points="2232.76,-185.465 2240.43,-178.159 2229.88,-179.085 2232.76,-185.465"/>
</g>
<!-- l0 -->
<g id="node36" class="node"><title>l0</title>
<a xlink:href="0005215" xlink:title="GO:0005215 (44)">
<ellipse fill="#e98576" stroke="#e98576" cx="2447" cy="-162" rx="79.4447" ry="18"/>
<text text-anchor="middle" x="2447" y="-157.8" font-family="Times,serif" font-size="14.00">GO:0005215 (44)</text>
</a>
</g>
<!-- c0&#45;&gt;l0 -->
<g id="edge32" class="edge"><title>c0&#45;&gt;l0</title>
<path fill="none" stroke="black" d="M2173.16,-221.441C2230.3,-209.247 2320.36,-190.028 2381.46,-176.987"/>
<polygon fill="black" stroke="black" points="2382.34,-180.379 2391.39,-174.869 2380.88,-173.533 2382.34,-180.379"/>
</g>
<!-- k0 -->
<g id="node52" class="node"><title>k0</title>
<a xlink:href="0005198" xlink:title="GO:0005198 (20)">
<ellipse fill="#e98576" stroke="#e98576" cx="2625" cy="-162" rx="79.4447" ry="18"/>
<text text-anchor="middle" x="2625" y="-157.8" font-family="Times,serif" font-size="14.00">GO:0005198 (20)</text>
</a>
</g>
<!-- c0&#45;&gt;k0 -->
<g id="edge50" class="edge"><title>c0&#45;&gt;k0</title>
<path fill="none" stroke="black" d="M2185.82,-225.737C2268.15,-216.5 2412.21,-199.401 2535,-180 2542.13,-178.874 2549.55,-177.613 2556.95,-176.3"/>
<polygon fill="black" stroke="black" points="2557.77,-179.709 2566.99,-174.486 2556.53,-172.82 2557.77,-179.709"/>
</g>
<!-- h0&#45;&gt;g0 -->
<g id="edge44" class="edge"><title>h0&#45;&gt;g0</title>
<path fill="none" stroke="black" d="M720.899,-149.326C712.041,-147.297 702.762,-145.394 694,-144 497.603,-112.753 445.067,-134.695 248,-108 240.63,-107.002 232.946,-105.792 225.316,-104.484"/>
<polygon fill="black" stroke="black" points="225.805,-101.016 215.347,-102.716 224.582,-107.908 225.805,-101.016"/>
</g>
<!-- u0 -->
<g id="node9" class="node"><title>u0</title>
<a xlink:href="0016853" xlink:title="GO:0016853 (7)">
<ellipse fill="#e98576" stroke="#e98576" cx="332" cy="-90" rx="75.2018" ry="18"/>
<text text-anchor="middle" x="332" y="-85.8" font-family="Times,serif" font-size="14.00">GO:0016853 (7)</text>
</a>
</g>
<!-- h0&#45;&gt;u0 -->
<g id="edge6" class="edge"><title>h0&#45;&gt;u0</title>
<path fill="none" stroke="black" d="M720.462,-149.572C711.724,-147.546 702.601,-145.582 694,-144 571.468,-121.463 538.911,-128.369 416,-108 409.491,-106.921 402.716,-105.706 395.964,-104.434"/>
<polygon fill="black" stroke="black" points="396.601,-100.993 386.119,-102.54 395.278,-107.867 396.601,-100.993"/>
</g>
<!-- p0 -->
<g id="node28" class="node"><title>p0</title>
<a xlink:href="0016787" xlink:title="GO:0016787 (62)">
<ellipse fill="#e98576" stroke="#e98576" cx="505" cy="-90" rx="79.4447" ry="18"/>
<text text-anchor="middle" x="505" y="-85.8" font-family="Times,serif" font-size="14.00">GO:0016787 (62)</text>
</a>
</g>
<!-- h0&#45;&gt;p0 -->
<g id="edge36" class="edge"><title>h0&#45;&gt;p0</title>
<path fill="none" stroke="black" d="M721.482,-149.284C678.294,-137.656 611.801,-119.754 563.904,-106.859"/>
<polygon fill="black" stroke="black" points="564.546,-103.407 553.98,-104.187 562.727,-110.166 564.546,-103.407"/>
</g>
<!-- v0 -->
<g id="node41" class="node"><title>v0</title>
<a xlink:href="0016874" xlink:title="GO:0016874 (3)">
<ellipse fill="#e98576" stroke="#e98576" cx="678" cy="-90" rx="75.2018" ry="18"/>
<text text-anchor="middle" x="678" y="-85.8" font-family="Times,serif" font-size="14.00">GO:0016874 (3)</text>
</a>
</g>
<!-- h0&#45;&gt;v0 -->
<g id="edge38" class="edge"><title>h0&#45;&gt;v0</title>
<path fill="none" stroke="black" d="M744.822,-144.765C733.375,-135.554 718.868,-123.882 706.299,-113.769"/>
<polygon fill="black" stroke="black" points="708.355,-110.932 698.37,-107.39 703.967,-116.386 708.355,-110.932"/>
</g>
<!-- s0 -->
<g id="node43" class="node"><title>s0</title>
<a xlink:href="0016740" xlink:title="GO:0016740 (30)">
<ellipse fill="#e98576" stroke="#e98576" cx="851" cy="-90" rx="79.4447" ry="18"/>
<text text-anchor="middle" x="851" y="-85.8" font-family="Times,serif" font-size="14.00">GO:0016740 (30)</text>
</a>
</g>
<!-- h0&#45;&gt;s0 -->
<g id="edge40" class="edge"><title>h0&#45;&gt;s0</title>
<path fill="none" stroke="black" d="M784.946,-144.765C796.18,-135.621 810.395,-124.05 822.758,-113.988"/>
<polygon fill="black" stroke="black" points="825.019,-116.661 830.565,-107.633 820.6,-111.232 825.019,-116.661"/>
</g>
<!-- t0 -->
<g id="node50" class="node"><title>t0</title>
<a xlink:href="0016829" xlink:title="GO:0016829 (22)">
<ellipse fill="#e98576" stroke="#e98576" cx="1029" cy="-90" rx="79.4447" ry="18"/>
<text text-anchor="middle" x="1029" y="-85.8" font-family="Times,serif" font-size="14.00">GO:0016829 (22)</text>
</a>
</g>
<!-- h0&#45;&gt;t0 -->
<g id="edge48" class="edge"><title>h0&#45;&gt;t0</title>
<path fill="none" stroke="black" d="M808.891,-149.362C852.785,-137.724 920.602,-119.742 969.358,-106.814"/>
<polygon fill="black" stroke="black" points="970.381,-110.164 979.15,-104.218 968.587,-103.398 970.381,-110.164"/>
</g>
<!-- q0 -->
<g id="node12" class="node"><title>q0</title>
<a xlink:href="0008289" xlink:title="GO:0008289 (6)">
<ellipse fill="#e98576" stroke="#e98576" cx="1202" cy="-90" rx="75.2018" ry="18"/>
<text text-anchor="middle" x="1202" y="-85.8" font-family="Times,serif" font-size="14.00">GO:0008289 (6)</text>
</a>
</g>
<!-- b0&#45;&gt;q0 -->
<g id="edge8" class="edge"><title>b0&#45;&gt;q0</title>
<path fill="none" stroke="black" d="M1917.57,-158.878C1796.98,-154.09 1518.12,-140.253 1286,-108 1279.27,-107.064 1272.26,-105.921 1265.3,-104.675"/>
<polygon fill="black" stroke="black" points="1265.63,-101.176 1255.15,-102.786 1264.34,-108.058 1265.63,-101.176"/>
</g>
<!-- m0 -->
<g id="node15" class="node"><title>m0</title>
<a xlink:href="0005515" xlink:title="GO:0005515 (8)">
<ellipse fill="#e98576" stroke="#e98576" cx="1370" cy="-90" rx="75.2018" ry="18"/>
<text text-anchor="middle" x="1370" y="-85.8" font-family="Times,serif" font-size="14.00">GO:0005515 (8)</text>
</a>
</g>
<!-- b0&#45;&gt;m0 -->
<g id="edge12" class="edge"><title>b0&#45;&gt;m0</title>
<path fill="none" stroke="black" d="M1919.22,-156.96C1822.04,-149.855 1621.93,-133.422 1454,-108 1447.38,-106.997 1440.49,-105.822 1433.63,-104.565"/>
<polygon fill="black" stroke="black" points="1434.11,-101.094 1423.63,-102.676 1432.81,-107.973 1434.11,-101.094"/>
</g>
<!-- d0 -->
<g id="node17" class="node"><title>d0</title>
<a xlink:href="0001882" xlink:title="GO:0001882 (22)">
<ellipse fill="#e98576" stroke="#e98576" cx="1543" cy="-90" rx="79.4447" ry="18"/>
<text text-anchor="middle" x="1543" y="-85.8" font-family="Times,serif" font-size="14.00">GO:0001882 (22)</text>
</a>
</g>
<!-- b0&#45;&gt;d0 -->
<g id="edge14" class="edge"><title>b0&#45;&gt;d0</title>
<path fill="none" stroke="black" d="M1923.96,-153.35C1855.79,-143.555 1735.01,-125.722 1632,-108 1625.23,-106.835 1618.18,-105.573 1611.14,-104.281"/>
<polygon fill="black" stroke="black" points="1611.34,-100.759 1600.87,-102.374 1610.07,-107.641 1611.34,-100.759"/>
</g>
<!-- n0 -->
<g id="node19" class="node"><title>n0</title>
<a xlink:href="0008144" xlink:title="GO:0008144 (30)">
<ellipse fill="#e98576" stroke="#e98576" cx="1721" cy="-90" rx="79.4447" ry="18"/>
<text text-anchor="middle" x="1721" y="-85.8" font-family="Times,serif" font-size="14.00">GO:0008144 (30)</text>
</a>
</g>
<!-- b0&#45;&gt;n0 -->
<g id="edge16" class="edge"><title>b0&#45;&gt;n0</title>
<path fill="none" stroke="black" d="M1934.69,-149.205C1892.09,-137.601 1826.75,-119.803 1779.53,-106.943"/>
<polygon fill="black" stroke="black" points="1780.32,-103.529 1769.75,-104.278 1778.48,-110.283 1780.32,-103.529"/>
</g>
<!-- y0 -->
<g id="node21" class="node"><title>y0</title>
<a xlink:href="0043021" xlink:title="GO:0043021 (1)">
<ellipse fill="#e98576" stroke="#e98576" cx="1894" cy="-90" rx="75.2018" ry="18"/>
<text text-anchor="middle" x="1894" y="-85.8" font-family="Times,serif" font-size="14.00">GO:0043021 (1)</text>
</a>
</g>
<!-- b0&#45;&gt;y0 -->
<g id="edge18" class="edge"><title>b0&#45;&gt;y0</title>
<path fill="none" stroke="black" d="M1958.52,-144.765C1947.57,-135.642 1933.73,-124.105 1921.67,-114.059"/>
<polygon fill="black" stroke="black" points="1923.59,-111.103 1913.67,-107.39 1919.11,-116.48 1923.59,-111.103"/>
</g>
<!-- w0 -->
<g id="node23" class="node"><title>w0</title>
<a xlink:href="0019842" xlink:title="GO:0019842 (3)">
<ellipse fill="#e98576" stroke="#e98576" cx="2062" cy="-90" rx="75.2018" ry="18"/>
<text text-anchor="middle" x="2062" y="-85.8" font-family="Times,serif" font-size="14.00">GO:0019842 (3)</text>
</a>
</g>
<!-- b0&#45;&gt;w0 -->
<g id="edge20" class="edge"><title>b0&#45;&gt;w0</title>
<path fill="none" stroke="black" d="M1997.48,-144.765C2008.43,-135.642 2022.27,-124.105 2034.33,-114.059"/>
<polygon fill="black" stroke="black" points="2036.89,-116.48 2042.33,-107.39 2032.41,-111.103 2036.89,-116.48"/>
</g>
<!-- z0 -->
<g id="node38" class="node"><title>z0</title>
<a xlink:href="0043167" xlink:title="GO:0043167 (89)">
<ellipse fill="#e98576" stroke="#e98576" cx="2235" cy="-90" rx="79.4447" ry="18"/>
<text text-anchor="middle" x="2235" y="-85.8" font-family="Times,serif" font-size="14.00">GO:0043167 (89)</text>
</a>
</g>
<!-- b0&#45;&gt;z0 -->
<g id="edge34" class="edge"><title>b0&#45;&gt;z0</title>
<path fill="none" stroke="black" d="M2021.31,-149.205C2063.91,-137.601 2129.25,-119.803 2176.47,-106.943"/>
<polygon fill="black" stroke="black" points="2177.52,-110.283 2186.25,-104.278 2175.68,-103.529 2177.52,-110.283"/>
</g>
<!-- e0 -->
<g id="node45" class="node"><title>e0</title>
<a xlink:href="0003676" xlink:title="GO:0003676 (3)">
<ellipse fill="#e98576" stroke="#e98576" cx="2408" cy="-90" rx="75.2018" ry="18"/>
<text text-anchor="middle" x="2408" y="-85.8" font-family="Times,serif" font-size="14.00">GO:0003676 (3)</text>
</a>
</g>
<!-- b0&#45;&gt;e0 -->
<g id="edge42" class="edge"><title>b0&#45;&gt;e0</title>
<path fill="none" stroke="black" d="M2022.54,-149.585C2031.28,-147.558 2040.4,-145.59 2049,-144 2169.78,-121.669 2201.82,-128.055 2323,-108 2329.58,-106.91 2336.44,-105.688 2343.27,-104.412"/>
<polygon fill="black" stroke="black" points="2344.06,-107.824 2353.23,-102.513 2342.75,-100.948 2344.06,-107.824"/>
</g>
<!-- a0 -->
<g id="node48" class="node"><title>a0</title>
<a xlink:href="0000166" xlink:title="GO:0000166 (58)">
<ellipse fill="#e98576" stroke="#e98576" cx="2581" cy="-90" rx="79.4447" ry="18"/>
<text text-anchor="middle" x="2581" y="-85.8" font-family="Times,serif" font-size="14.00">GO:0000166 (58)</text>
</a>
</g>
<!-- b0&#45;&gt;a0 -->
<g id="edge46" class="edge"><title>b0&#45;&gt;a0</title>
<path fill="none" stroke="black" d="M2022.1,-149.33C2030.96,-147.3 2040.24,-145.396 2049,-144 2244.08,-112.909 2296.26,-134.569 2492,-108 2499.37,-107 2507.05,-105.789 2514.68,-104.48"/>
<polygon fill="black" stroke="black" points="2515.42,-107.904 2524.65,-102.711 2514.19,-101.012 2515.42,-107.904"/>
</g>
<!-- c1 -->
<g id="node54" class="node"><title>c1</title>
<a xlink:href="0051540" xlink:title="GO:0051540 (5)">
<ellipse fill="#e98576" stroke="#e98576" cx="2754" cy="-90" rx="75.2018" ry="18"/>
<text text-anchor="middle" x="2754" y="-85.8" font-family="Times,serif" font-size="14.00">GO:0051540 (5)</text>
</a>
</g>
<!-- b0&#45;&gt;c1 -->
<g id="edge52" class="edge"><title>b0&#45;&gt;c1</title>
<path fill="none" stroke="black" d="M2021.7,-149.256C2030.67,-147.206 2040.1,-145.314 2049,-144 2322.06,-103.706 2395.23,-143.151 2669,-108 2676.08,-107.091 2683.46,-105.935 2690.77,-104.655"/>
<polygon fill="black" stroke="black" points="2691.48,-108.085 2700.68,-102.844 2690.22,-101.199 2691.48,-108.085"/>
</g>
<!-- a1 -->
<g id="node56" class="node"><title>a1</title>
<a xlink:href="0048037" xlink:title="GO:0048037 (18)">
<ellipse fill="#e98576" stroke="#e98576" cx="2927" cy="-90" rx="79.4447" ry="18"/>
<text text-anchor="middle" x="2927" y="-85.8" font-family="Times,serif" font-size="14.00">GO:0048037 (18)</text>
</a>
</g>
<!-- b0&#45;&gt;a1 -->
<g id="edge54" class="edge"><title>b0&#45;&gt;a1</title>
<path fill="none" stroke="black" d="M2021.31,-149.256C2030.39,-147.179 2039.96,-145.276 2049,-144 2396.58,-94.9103 2489.38,-149.035 2838,-108 2845.58,-107.108 2853.48,-105.943 2861.31,-104.642"/>
<polygon fill="black" stroke="black" points="2861.91,-108.09 2871.17,-102.93 2860.72,-101.193 2861.91,-108.09"/>
</g>
<!-- i0 -->
<g id="node27" class="node"><title>i0</title>
<a xlink:href="0004871" xlink:title="GO:0004871 (5)">
<ellipse fill="#e98576" stroke="#e98576" cx="3100" cy="-90" rx="75.2018" ry="18"/>
<text text-anchor="middle" x="3100" y="-85.8" font-family="Times,serif" font-size="14.00">GO:0004871 (5)</text>
</a>
</g>
<!-- j0&#45;&gt;i0 -->
<g id="edge24" class="edge"><title>j0&#45;&gt;i0</title>
<path fill="none" stroke="black" d="M2162.3,-149.242C2171.39,-147.166 2180.96,-145.267 2190,-144 2553.46,-93.0361 2650.65,-152.119 3015,-108 3022.19,-107.129 3029.68,-105.985 3037.1,-104.701"/>
<polygon fill="black" stroke="black" points="3037.94,-108.107 3047.15,-102.876 3036.69,-101.22 3037.94,-108.107"/>
</g>
<!-- o0 -->
<g id="node30" class="node"><title>o0</title>
<a xlink:href="0008233" xlink:title="GO:0008233 (5)">
<ellipse fill="#e98576" stroke="#e98576" cx="505" cy="-18" rx="75.2018" ry="18"/>
<text text-anchor="middle" x="505" y="-13.8" font-family="Times,serif" font-size="14.00">GO:0008233 (5)</text>
</a>
</g>
<!-- p0&#45;&gt;o0 -->
<g id="edge26" class="edge"><title>p0&#45;&gt;o0</title>
<path fill="none" stroke="black" d="M505,-71.6966C505,-63.9827 505,-54.7125 505,-46.1124"/>
<polygon fill="black" stroke="black" points="508.5,-46.1043 505,-36.1043 501.5,-46.1044 508.5,-46.1043"/>
</g>
</g>
</svg>
