<?xml version="1.0" encoding="UTF-8" standalone="no"?>
<!DOCTYPE svg PUBLIC "-//W3C//DTD SVG 1.1//EN"
 "http://www.w3.org/Graphics/SVG/1.1/DTD/svg11.dtd">
<!-- Generated by graphviz version 2.28.0 (20110622.2320)
 -->
<!-- Title: G Pages: 1 -->
<svg width="494pt" height="188pt"
 viewBox="0.00 0.00 494.00 188.00" xmlns="http://www.w3.org/2000/svg" xmlns:xlink="http://www.w3.org/1999/xlink">
<g id="graph1" class="graph" transform="scale(1 1) rotate(0) translate(4 184)">
<title>G</title>
<polygon fill="white" stroke="white" points="-4,5 -4,-184 491,-184 491,5 -4,5"/>
<!-- b0 -->
<g id="node1" class="node"><title>b0</title>
<a xlink:href="0005488" xlink:title="GO:0005488">
<ellipse fill="#dddddd" stroke="#dddddd" cx="243" cy="-90" rx="61.1934" ry="18"/>
<text text-anchor="middle" x="243" y="-85.8" font-family="Times,serif" font-size="14.00">GO:0005488</text>
</a>
</g>
<!-- d0 -->
<g id="node3" class="node"><title>d0</title>
<a xlink:href="0043167" xlink:title="GO:0043167 (3)">
<ellipse fill="#e98576" stroke="#e98576" cx="75" cy="-18" rx="75.2018" ry="18"/>
<text text-anchor="middle" x="75" y="-13.8" font-family="Times,serif" font-size="14.00">GO:0043167 (3)</text>
</a>
</g>
<!-- b0&#45;&gt;d0 -->
<g id="edge2" class="edge"><title>b0&#45;&gt;d0</title>
<path fill="none" stroke="black" d="M209.003,-74.8345C183.444,-64.1851 148.175,-49.4897 120.235,-37.8481"/>
<polygon fill="black" stroke="black" points="121.263,-34.4847 110.686,-33.8693 118.571,-40.9463 121.263,-34.4847"/>
</g>
<!-- a0 -->
<g id="node5" class="node"><title>a0</title>
<a xlink:href="0003676" xlink:title="GO:0003676 (3)">
<ellipse fill="#e98576" stroke="#e98576" cx="243" cy="-18" rx="75.2018" ry="18"/>
<text text-anchor="middle" x="243" y="-13.8" font-family="Times,serif" font-size="14.00">GO:0003676 (3)</text>
</a>
</g>
<!-- b0&#45;&gt;a0 -->
<g id="edge4" class="edge"><title>b0&#45;&gt;a0</title>
<path fill="none" stroke="black" d="M243,-71.6966C243,-63.9827 243,-54.7125 243,-46.1124"/>
<polygon fill="black" stroke="black" points="246.5,-46.1043 243,-36.1043 239.5,-46.1044 246.5,-46.1043"/>
</g>
<!-- c0 -->
<g id="node6" class="node"><title>c0</title>
<a xlink:href="0003674" xlink:title="GO:0003674">
<ellipse fill="#dddddd" stroke="#dddddd" cx="320" cy="-162" rx="61.1934" ry="18"/>
<text text-anchor="middle" x="320" y="-157.8" font-family="Times,serif" font-size="14.00">GO:0003674</text>
</a>
</g>
<!-- c0&#45;&gt;b0 -->
<g id="edge6" class="edge"><title>c0&#45;&gt;b0</title>
<path fill="none" stroke="black" d="M302.141,-144.765C292.203,-135.73 279.659,-124.326 268.684,-114.349"/>
<polygon fill="black" stroke="black" points="270.783,-111.527 261.029,-107.39 266.074,-116.706 270.783,-111.527"/>
</g>
<!-- f0 -->
<g id="node8" class="node"><title>f0</title>
<a xlink:href="0003824" xlink:title="GO:0003824">
<ellipse fill="#dddddd" stroke="#dddddd" cx="397" cy="-90" rx="61.1934" ry="18"/>
<text text-anchor="middle" x="397" y="-85.8" font-family="Times,serif" font-size="14.00">GO:0003824</text>
</a>
</g>
<!-- c0&#45;&gt;f0 -->
<g id="edge10" class="edge"><title>c0&#45;&gt;f0</title>
<path fill="none" stroke="black" d="M337.859,-144.765C347.797,-135.73 360.341,-124.326 371.316,-114.349"/>
<polygon fill="black" stroke="black" points="373.926,-116.706 378.971,-107.39 369.217,-111.527 373.926,-116.706"/>
</g>
<!-- e0 -->
<g id="node10" class="node"><title>e0</title>
<a xlink:href="0016787" xlink:title="GO:0016787 (3)">
<ellipse fill="#e98576" stroke="#e98576" cx="411" cy="-18" rx="75.2018" ry="18"/>
<text text-anchor="middle" x="411" y="-13.8" font-family="Times,serif" font-size="14.00">GO:0016787 (3)</text>
</a>
</g>
<!-- f0&#45;&gt;e0 -->
<g id="edge8" class="edge"><title>f0&#45;&gt;e0</title>
<path fill="none" stroke="black" d="M400.461,-71.6966C402.003,-63.9827 403.858,-54.7125 405.578,-46.1124"/>
<polygon fill="black" stroke="black" points="409.05,-46.5966 407.579,-36.1043 402.186,-45.2237 409.05,-46.5966"/>
</g>
</g>
</svg>
