<?xml version="1.0" encoding="UTF-8" standalone="no"?>
<!DOCTYPE svg PUBLIC "-//W3C//DTD SVG 1.1//EN"
 "http://www.w3.org/Graphics/SVG/1.1/DTD/svg11.dtd">
<!-- Generated by graphviz version 2.28.0 (20110622.2320)
 -->
<!-- Title: G Pages: 1 -->
<svg width="2274pt" height="476pt"
 viewBox="0.00 0.00 2274.00 476.00" xmlns="http://www.w3.org/2000/svg" xmlns:xlink="http://www.w3.org/1999/xlink">
<g id="graph1" class="graph" transform="scale(1 1) rotate(0) translate(4 472)">
<title>G</title>
<polygon fill="white" stroke="white" points="-4,5 -4,-472 2271,-472 2271,5 -4,5"/>
<!-- e0 -->
<g id="node1" class="node"><title>e0</title>
<a xlink:href="0044237" xlink:title="GO:0044237">
<ellipse fill="#dddddd" stroke="#dddddd" cx="556" cy="-306" rx="61.1934" ry="18"/>
<text text-anchor="middle" x="556" y="-301.8" font-family="Times,serif" font-size="14.00">GO:0044237</text>
</a>
</g>
<!-- p0 -->
<g id="node3" class="node"><title>p0</title>
<a xlink:href="0006790" xlink:title="GO:0006790 (2)">
<ellipse fill="#e98576" stroke="#e98576" cx="243" cy="-234" rx="75.2018" ry="18"/>
<text text-anchor="middle" x="243" y="-229.8" font-family="Times,serif" font-size="14.00">GO:0006790 (2)</text>
</a>
</g>
<!-- e0&#45;&gt;p0 -->
<g id="edge2" class="edge"><title>e0&#45;&gt;p0</title>
<path fill="none" stroke="black" d="M508.802,-294.445C454.719,-282.349 365.853,-262.475 305.922,-249.072"/>
<polygon fill="black" stroke="black" points="306.346,-245.58 295.823,-246.813 304.818,-252.412 306.346,-245.58"/>
</g>
<!-- i1 -->
<g id="node5" class="node"><title>i1</title>
<a xlink:href="0006082" xlink:title="GO:0006082">
<ellipse fill="#dddddd" stroke="#dddddd" cx="398" cy="-234" rx="61.1934" ry="18"/>
<text text-anchor="middle" x="398" y="-229.8" font-family="Times,serif" font-size="14.00">GO:0006082</text>
</a>
</g>
<!-- e0&#45;&gt;i1 -->
<g id="edge4" class="edge"><title>e0&#45;&gt;i1</title>
<path fill="none" stroke="black" d="M523.645,-290.666C499.362,-279.907 465.917,-265.09 439.639,-253.448"/>
<polygon fill="black" stroke="black" points="440.872,-250.166 430.312,-249.315 438.037,-256.566 440.872,-250.166"/>
</g>
<!-- d0 -->
<g id="node6" class="node"><title>d0</title>
<a xlink:href="0006139" xlink:title="GO:0006139">
<ellipse fill="#dddddd" stroke="#dddddd" cx="849" cy="-234" rx="61.1934" ry="18"/>
<text text-anchor="middle" x="849" y="-229.8" font-family="Times,serif" font-size="14.00">GO:0006139</text>
</a>
</g>
<!-- e0&#45;&gt;d0 -->
<g id="edge68" class="edge"><title>e0&#45;&gt;d0</title>
<path fill="none" stroke="black" d="M601.921,-294.046C646.816,-283.335 717.109,-266.558 778,-252 782.958,-250.815 788.11,-249.582 793.274,-248.347"/>
<polygon fill="black" stroke="black" points="794.259,-251.71 803.169,-245.978 792.629,-244.902 794.259,-251.71"/>
</g>
<!-- g1 -->
<g id="node11" class="node"><title>g1</title>
<a xlink:href="0006519" xlink:title="GO:0006519">
<ellipse fill="#dddddd" stroke="#dddddd" cx="708" cy="-234" rx="61.1934" ry="18"/>
<text text-anchor="middle" x="708" y="-229.8" font-family="Times,serif" font-size="14.00">GO:0006519</text>
</a>
</g>
<!-- e0&#45;&gt;g1 -->
<g id="edge34" class="edge"><title>e0&#45;&gt;g1</title>
<path fill="none" stroke="black" d="M587.494,-290.496C610.626,-279.843 642.251,-265.279 667.299,-253.744"/>
<polygon fill="black" stroke="black" points="668.927,-256.848 676.546,-249.485 665.999,-250.489 668.927,-256.848"/>
</g>
<!-- q0 -->
<g id="node14" class="node"><title>q0</title>
<a xlink:href="0009308" xlink:title="GO:0009308 (2)">
<ellipse fill="#e98576" stroke="#e98576" cx="553" cy="-234" rx="75.2018" ry="18"/>
<text text-anchor="middle" x="553" y="-229.8" font-family="Times,serif" font-size="14.00">GO:0009308 (2)</text>
</a>
</g>
<!-- e0&#45;&gt;q0 -->
<g id="edge50" class="edge"><title>e0&#45;&gt;q0</title>
<path fill="none" stroke="black" d="M555.258,-287.697C554.928,-279.983 554.531,-270.712 554.162,-262.112"/>
<polygon fill="black" stroke="black" points="557.658,-261.945 553.733,-252.104 550.665,-262.245 557.658,-261.945"/>
</g>
<!-- s0 -->
<g id="node31" class="node"><title>s0</title>
<a xlink:href="0006725" xlink:title="GO:0006725 (2)">
<ellipse fill="#e98576" stroke="#e98576" cx="75" cy="-234" rx="75.2018" ry="18"/>
<text text-anchor="middle" x="75" y="-229.8" font-family="Times,serif" font-size="14.00">GO:0006725 (2)</text>
</a>
</g>
<!-- e0&#45;&gt;s0 -->
<g id="edge26" class="edge"><title>e0&#45;&gt;s0</title>
<path fill="none" stroke="black" d="M499.939,-298.715C422.888,-289.804 280.038,-272.304 159,-252 152.493,-250.908 145.72,-249.685 138.968,-248.408"/>
<polygon fill="black" stroke="black" points="139.607,-244.967 129.125,-246.508 138.28,-251.84 139.607,-244.967"/>
</g>
<!-- h1 -->
<g id="node16" class="node"><title>h1</title>
<a xlink:href="0019752" xlink:title="GO:0019752">
<ellipse fill="#dddddd" stroke="#dddddd" cx="431" cy="-162" rx="61.1934" ry="18"/>
<text text-anchor="middle" x="431" y="-157.8" font-family="Times,serif" font-size="14.00">GO:0019752</text>
</a>
</g>
<!-- i1&#45;&gt;h1 -->
<g id="edge74" class="edge"><title>i1&#45;&gt;h1</title>
<path fill="none" stroke="black" d="M405.988,-216.055C409.743,-208.091 414.306,-198.411 418.503,-189.51"/>
<polygon fill="black" stroke="black" points="421.758,-190.813 422.856,-180.275 415.426,-187.828 421.758,-190.813"/>
</g>
<!-- k0 -->
<g id="node8" class="node"><title>k0</title>
<a xlink:href="0016070" xlink:title="GO:0016070">
<ellipse fill="#dddddd" stroke="#dddddd" cx="1035" cy="-162" rx="61.1934" ry="18"/>
<text text-anchor="middle" x="1035" y="-157.8" font-family="Times,serif" font-size="14.00">GO:0016070</text>
</a>
</g>
<!-- d0&#45;&gt;k0 -->
<g id="edge6" class="edge"><title>d0&#45;&gt;k0</title>
<path fill="none" stroke="black" d="M885.304,-219.337C915.005,-208.159 957.182,-192.286 989.202,-180.236"/>
<polygon fill="black" stroke="black" points="990.661,-183.426 998.787,-176.628 988.195,-176.875 990.661,-183.426"/>
</g>
<!-- c0 -->
<g id="node47" class="node"><title>c0</title>
<a xlink:href="0006350" xlink:title="GO:0006350">
<ellipse fill="#dddddd" stroke="#dddddd" cx="894" cy="-90" rx="61.1934" ry="18"/>
<text text-anchor="middle" x="894" y="-85.8" font-family="Times,serif" font-size="14.00">GO:0006350</text>
</a>
</g>
<!-- d0&#45;&gt;c0 -->
<g id="edge44" class="edge"><title>d0&#45;&gt;c0</title>
<path fill="none" stroke="black" d="M858.782,-215.798C864.209,-205.647 870.709,-192.397 875,-180 882.008,-159.751 886.923,-135.978 889.996,-118.098"/>
<polygon fill="black" stroke="black" points="893.477,-118.501 891.634,-108.067 886.568,-117.373 893.477,-118.501"/>
</g>
<!-- u0 -->
<g id="node74" class="node"><title>u0</title>
<a xlink:href="0009116" xlink:title="GO:0009116 (2)">
<ellipse fill="#e98576" stroke="#e98576" cx="791" cy="-162" rx="75.2018" ry="18"/>
<text text-anchor="middle" x="791" y="-157.8" font-family="Times,serif" font-size="14.00">GO:0009116 (2)</text>
</a>
</g>
<!-- d0&#45;&gt;u0 -->
<g id="edge82" class="edge"><title>d0&#45;&gt;u0</title>
<path fill="none" stroke="black" d="M835.255,-216.411C828.207,-207.906 819.48,-197.372 811.643,-187.914"/>
<polygon fill="black" stroke="black" points="814.125,-185.423 805.049,-179.956 808.735,-189.89 814.125,-185.423"/>
</g>
<!-- j0 -->
<g id="node63" class="node"><title>j0</title>
<a xlink:href="0032774" xlink:title="GO:0032774">
<ellipse fill="#dddddd" stroke="#dddddd" cx="1035" cy="-90" rx="61.1934" ry="18"/>
<text text-anchor="middle" x="1035" y="-85.8" font-family="Times,serif" font-size="14.00">GO:0032774</text>
</a>
</g>
<!-- k0&#45;&gt;j0 -->
<g id="edge78" class="edge"><title>k0&#45;&gt;j0</title>
<path fill="none" stroke="black" d="M1035,-143.697C1035,-135.983 1035,-126.712 1035,-118.112"/>
<polygon fill="black" stroke="black" points="1038.5,-118.104 1035,-108.104 1031.5,-118.104 1038.5,-118.104"/>
</g>
<!-- l0 -->
<g id="node9" class="node"><title>l0</title>
<a xlink:href="0043283" xlink:title="GO:0043283">
<ellipse fill="#dddddd" stroke="#dddddd" cx="1159" cy="-234" rx="61.1934" ry="18"/>
<text text-anchor="middle" x="1159" y="-229.8" font-family="Times,serif" font-size="14.00">GO:0043283</text>
</a>
</g>
<!-- l0&#45;&gt;k0 -->
<g id="edge8" class="edge"><title>l0&#45;&gt;k0</title>
<path fill="none" stroke="black" d="M1132.09,-217.811C1114.26,-207.744 1090.65,-194.418 1071.18,-183.426"/>
<polygon fill="black" stroke="black" points="1072.71,-180.269 1062.28,-178.401 1069.27,-186.365 1072.71,-180.269"/>
</g>
<!-- f1 -->
<g id="node13" class="node"><title>f1</title>
<a xlink:href="0006520" xlink:title="GO:0006520 (1)">
<ellipse fill="#e98576" stroke="#e98576" cx="553" cy="-90" rx="75.2018" ry="18"/>
<text text-anchor="middle" x="553" y="-85.8" font-family="Times,serif" font-size="14.00">GO:0006520 (1)</text>
</a>
</g>
<!-- g1&#45;&gt;f1 -->
<g id="edge10" class="edge"><title>g1&#45;&gt;f1</title>
<path fill="none" stroke="black" d="M690.22,-216.711C662.803,-191.594 610.086,-143.298 578.576,-114.431"/>
<polygon fill="black" stroke="black" points="580.788,-111.711 571.051,-107.537 576.06,-116.872 580.788,-111.711"/>
</g>
<!-- q0&#45;&gt;f1 -->
<g id="edge12" class="edge"><title>q0&#45;&gt;f1</title>
<path fill="none" stroke="black" d="M553,-215.871C553,-191.67 553,-147.211 553,-118.393"/>
<polygon fill="black" stroke="black" points="556.5,-118.189 553,-108.189 549.5,-118.189 556.5,-118.189"/>
</g>
<!-- h1&#45;&gt;f1 -->
<g id="edge14" class="edge"><title>h1&#45;&gt;f1</title>
<path fill="none" stroke="black" d="M457.773,-145.638C475.013,-135.747 497.645,-122.761 516.52,-111.931"/>
<polygon fill="black" stroke="black" points="518.512,-114.824 525.444,-106.811 515.028,-108.752 518.512,-114.824"/>
</g>
<!-- f0 -->
<g id="node18" class="node"><title>f0</title>
<a xlink:href="0008152" xlink:title="GO:0008152 (4)">
<ellipse fill="#e98576" stroke="#e98576" cx="901" cy="-378" rx="75.2018" ry="18"/>
<text text-anchor="middle" x="901" y="-373.8" font-family="Times,serif" font-size="14.00">GO:0008152 (4)</text>
</a>
</g>
<!-- f0&#45;&gt;e0 -->
<g id="edge60" class="edge"><title>f0&#45;&gt;e0</title>
<path fill="none" stroke="black" d="M843.753,-366.263C789.032,-355.881 704.259,-339.49 631,-324 625.142,-322.761 619.036,-321.435 612.947,-320.09"/>
<polygon fill="black" stroke="black" points="613.285,-316.58 602.763,-317.82 611.762,-323.412 613.285,-316.58"/>
</g>
<!-- r0 -->
<g id="node20" class="node"><title>r0</title>
<a xlink:href="0006807" xlink:title="GO:0006807">
<ellipse fill="#dddddd" stroke="#dddddd" cx="701" cy="-306" rx="61.1934" ry="18"/>
<text text-anchor="middle" x="701" y="-301.8" font-family="Times,serif" font-size="14.00">GO:0006807</text>
</a>
</g>
<!-- f0&#45;&gt;r0 -->
<g id="edge16" class="edge"><title>f0&#45;&gt;r0</title>
<path fill="none" stroke="black" d="M860.527,-362.834C828.114,-351.49 782.583,-335.554 748.456,-323.61"/>
<polygon fill="black" stroke="black" points="749.301,-320.197 738.707,-320.197 746.989,-326.804 749.301,-320.197"/>
</g>
<!-- m0 -->
<g id="node32" class="node"><title>m0</title>
<a xlink:href="0043170" xlink:title="GO:0043170">
<ellipse fill="#dddddd" stroke="#dddddd" cx="990" cy="-306" rx="61.1934" ry="18"/>
<text text-anchor="middle" x="990" y="-301.8" font-family="Times,serif" font-size="14.00">GO:0043170</text>
</a>
</g>
<!-- f0&#45;&gt;m0 -->
<g id="edge80" class="edge"><title>f0&#45;&gt;m0</title>
<path fill="none" stroke="black" d="M922.092,-360.411C933.898,-351.125 948.778,-339.421 961.598,-329.338"/>
<polygon fill="black" stroke="black" points="963.976,-331.921 969.672,-322.988 959.648,-326.419 963.976,-331.921"/>
</g>
<!-- i0 -->
<g id="node35" class="node"><title>i0</title>
<a xlink:href="0044238" xlink:title="GO:0044238">
<ellipse fill="#dddddd" stroke="#dddddd" cx="849" cy="-306" rx="61.1934" ry="18"/>
<text text-anchor="middle" x="849" y="-301.8" font-family="Times,serif" font-size="14.00">GO:0044238</text>
</a>
</g>
<!-- f0&#45;&gt;i0 -->
<g id="edge86" class="edge"><title>f0&#45;&gt;i0</title>
<path fill="none" stroke="black" d="M888.412,-360.055C882.153,-351.629 874.465,-341.28 867.546,-331.966"/>
<polygon fill="black" stroke="black" points="870.245,-329.729 861.472,-323.789 864.625,-333.904 870.245,-329.729"/>
</g>
<!-- t0 -->
<g id="node54" class="node"><title>t0</title>
<a xlink:href="0019748" xlink:title="GO:0019748 (2)">
<ellipse fill="#e98576" stroke="#e98576" cx="1145" cy="-306" rx="75.2018" ry="18"/>
<text text-anchor="middle" x="1145" y="-301.8" font-family="Times,serif" font-size="14.00">GO:0019748 (2)</text>
</a>
</g>
<!-- f0&#45;&gt;t0 -->
<g id="edge54" class="edge"><title>f0&#45;&gt;t0</title>
<path fill="none" stroke="black" d="M947.181,-363.751C987.429,-352.205 1045.92,-335.426 1088.86,-323.107"/>
<polygon fill="black" stroke="black" points="1089.95,-326.435 1098.59,-320.313 1088.02,-319.707 1089.95,-326.435"/>
</g>
<!-- r0&#45;&gt;q0 -->
<g id="edge48" class="edge"><title>r0&#45;&gt;q0</title>
<path fill="none" stroke="black" d="M669.974,-290.326C648.049,-279.956 618.422,-265.943 594.471,-254.615"/>
<polygon fill="black" stroke="black" points="595.801,-251.372 585.264,-250.26 592.808,-257.7 595.801,-251.372"/>
</g>
<!-- g0 -->
<g id="node21" class="node"><title>g0</title>
<a xlink:href="0008150" xlink:title="GO:0008150">
<ellipse fill="#dddddd" stroke="#dddddd" cx="1454" cy="-450" rx="61.1934" ry="18"/>
<text text-anchor="middle" x="1454" y="-445.8" font-family="Times,serif" font-size="14.00">GO:0008150</text>
</a>
</g>
<!-- g0&#45;&gt;f0 -->
<g id="edge18" class="edge"><title>g0&#45;&gt;f0</title>
<path fill="none" stroke="black" d="M1398.95,-442.032C1299.24,-429.411 1088.65,-402.753 975.927,-388.484"/>
<polygon fill="black" stroke="black" points="976.355,-385.011 965.994,-387.227 975.475,-391.955 976.355,-385.011"/>
</g>
<!-- c1 -->
<g id="node24" class="node"><title>c1</title>
<a xlink:href="0051234" xlink:title="GO:0051234">
<ellipse fill="#dddddd" stroke="#dddddd" cx="1300" cy="-306" rx="61.1934" ry="18"/>
<text text-anchor="middle" x="1300" y="-301.8" font-family="Times,serif" font-size="14.00">GO:0051234</text>
</a>
</g>
<!-- g0&#45;&gt;c1 -->
<g id="edge20" class="edge"><title>g0&#45;&gt;c1</title>
<path fill="none" stroke="black" d="M1393.46,-447.249C1314.32,-443.537 1182.21,-431.974 1152,-396 1141.71,-383.747 1142.79,-373.083 1152,-360 1163,-344.38 1206.22,-329.995 1243.14,-320.164"/>
<polygon fill="black" stroke="black" points="1244.06,-323.542 1252.86,-317.64 1242.3,-316.766 1244.06,-323.542"/>
</g>
<!-- d1 -->
<g id="node25" class="node"><title>d1</title>
<a xlink:href="0051179" xlink:title="GO:0051179">
<ellipse fill="#dddddd" stroke="#dddddd" cx="1222" cy="-378" rx="61.1934" ry="18"/>
<text text-anchor="middle" x="1222" y="-373.8" font-family="Times,serif" font-size="14.00">GO:0051179</text>
</a>
</g>
<!-- g0&#45;&gt;d1 -->
<g id="edge52" class="edge"><title>g0&#45;&gt;d1</title>
<path fill="none" stroke="black" d="M1412.79,-436.566C1373.73,-424.782 1314.96,-407.047 1272.97,-394.379"/>
<polygon fill="black" stroke="black" points="1273.8,-390.974 1263.22,-391.436 1271.78,-397.675 1273.8,-390.974"/>
</g>
<!-- v0 -->
<g id="node38" class="node"><title>v0</title>
<a xlink:href="0000003" xlink:title="GO:0000003 (1)">
<ellipse fill="#e98576" stroke="#e98576" cx="1377" cy="-378" rx="75.2018" ry="18"/>
<text text-anchor="middle" x="1377" y="-373.8" font-family="Times,serif" font-size="14.00">GO:0000003 (1)</text>
</a>
</g>
<!-- g0&#45;&gt;v0 -->
<g id="edge32" class="edge"><title>g0&#45;&gt;v0</title>
<path fill="none" stroke="black" d="M1436.14,-432.765C1426.27,-423.795 1413.84,-412.49 1402.92,-402.564"/>
<polygon fill="black" stroke="black" points="1405.05,-399.77 1395.3,-395.633 1400.34,-404.95 1405.05,-399.77"/>
</g>
<!-- o0 -->
<g id="node42" class="node"><title>o0</title>
<a xlink:href="0065007" xlink:title="GO:0065007">
<ellipse fill="#dddddd" stroke="#dddddd" cx="1532" cy="-378" rx="61.1934" ry="18"/>
<text text-anchor="middle" x="1532" y="-373.8" font-family="Times,serif" font-size="14.00">GO:0065007</text>
</a>
</g>
<!-- g0&#45;&gt;o0 -->
<g id="edge56" class="edge"><title>g0&#45;&gt;o0</title>
<path fill="none" stroke="black" d="M1472.09,-432.765C1482.16,-423.73 1494.87,-412.326 1505.98,-402.349"/>
<polygon fill="black" stroke="black" points="1508.63,-404.674 1513.74,-395.39 1503.96,-399.464 1508.63,-404.674"/>
</g>
<!-- w0 -->
<g id="node49" class="node"><title>w0</title>
<a xlink:href="0048511" xlink:title="GO:0048511 (1)">
<ellipse fill="#e98576" stroke="#e98576" cx="1687" cy="-378" rx="75.2018" ry="18"/>
<text text-anchor="middle" x="1687" y="-373.8" font-family="Times,serif" font-size="14.00">GO:0048511 (1)</text>
</a>
</g>
<!-- g0&#45;&gt;w0 -->
<g id="edge46" class="edge"><title>g0&#45;&gt;w0</title>
<path fill="none" stroke="black" d="M1495.12,-436.647C1533.22,-425.201 1590.17,-408.092 1632.13,-395.485"/>
<polygon fill="black" stroke="black" points="1633.35,-398.774 1641.92,-392.544 1631.33,-392.07 1633.35,-398.774"/>
</g>
<!-- e1 -->
<g id="node57" class="node"><title>e1</title>
<a xlink:href="0050896" xlink:title="GO:0050896 (1)">
<ellipse fill="#e98576" stroke="#e98576" cx="1855" cy="-378" rx="75.2018" ry="18"/>
<text text-anchor="middle" x="1855" y="-373.8" font-family="Times,serif" font-size="14.00">GO:0050896 (1)</text>
</a>
</g>
<!-- g0&#45;&gt;e1 -->
<g id="edge58" class="edge"><title>g0&#45;&gt;e1</title>
<path fill="none" stroke="black" d="M1498.94,-437.597C1507.56,-435.592 1516.54,-433.629 1525,-432 1633.51,-411.114 1662.14,-414.966 1771,-396 1777.25,-394.911 1783.75,-393.712 1790.25,-392.472"/>
<polygon fill="black" stroke="black" points="1791.26,-395.84 1800.41,-390.496 1789.92,-388.969 1791.26,-395.84"/>
</g>
<!-- h0 -->
<g id="node59" class="node"><title>h0</title>
<a xlink:href="0009987" xlink:title="GO:0009987">
<ellipse fill="#dddddd" stroke="#dddddd" cx="676" cy="-378" rx="61.1934" ry="18"/>
<text text-anchor="middle" x="676" y="-373.8" font-family="Times,serif" font-size="14.00">GO:0009987</text>
</a>
</g>
<!-- g0&#45;&gt;h0 -->
<g id="edge76" class="edge"><title>g0&#45;&gt;h0</title>
<path fill="none" stroke="black" d="M1395.09,-444.83C1282.61,-436.706 1029.52,-417.645 817,-396 792.103,-393.464 764.783,-390.267 740.875,-387.331"/>
<polygon fill="black" stroke="black" points="741.209,-383.846 730.855,-386.092 740.35,-390.793 741.209,-383.846"/>
</g>
<!-- z0 -->
<g id="node68" class="node"><title>z0</title>
<a xlink:href="0032501" xlink:title="GO:0032501 (1)">
<ellipse fill="#e98576" stroke="#e98576" cx="2023" cy="-378" rx="75.2018" ry="18"/>
<text text-anchor="middle" x="2023" y="-373.8" font-family="Times,serif" font-size="14.00">GO:0032501 (1)</text>
</a>
</g>
<!-- g0&#45;&gt;z0 -->
<g id="edge72" class="edge"><title>g0&#45;&gt;z0</title>
<path fill="none" stroke="black" d="M1498.11,-437.369C1506.97,-435.336 1516.24,-433.421 1525,-432 1707.31,-402.415 1756.2,-422.36 1939,-396 1945.63,-395.044 1952.52,-393.899 1959.39,-392.66"/>
<polygon fill="black" stroke="black" points="1960.2,-396.069 1969.38,-390.79 1958.91,-389.189 1960.2,-396.069"/>
</g>
<!-- x0 -->
<g id="node76" class="node"><title>x0</title>
<a xlink:href="0032502" xlink:title="GO:0032502 (1)">
<ellipse fill="#e98576" stroke="#e98576" cx="2191" cy="-378" rx="75.2018" ry="18"/>
<text text-anchor="middle" x="2191" y="-373.8" font-family="Times,serif" font-size="14.00">GO:0032502 (1)</text>
</a>
</g>
<!-- g0&#45;&gt;x0 -->
<g id="edge84" class="edge"><title>g0&#45;&gt;x0</title>
<path fill="none" stroke="black" d="M1497.7,-437.282C1506.68,-435.231 1516.1,-433.331 1525,-432 1781.31,-393.683 1850.05,-429.784 2107,-396 2113.74,-395.114 2120.75,-394.003 2127.72,-392.775"/>
<polygon fill="black" stroke="black" points="2128.66,-396.16 2137.86,-390.905 2127.39,-389.276 2128.66,-396.16"/>
</g>
<!-- b1 -->
<g id="node27" class="node"><title>b1</title>
<a xlink:href="0006810" xlink:title="GO:0006810">
<ellipse fill="#dddddd" stroke="#dddddd" cx="1300" cy="-234" rx="61.1934" ry="18"/>
<text text-anchor="middle" x="1300" y="-229.8" font-family="Times,serif" font-size="14.00">GO:0006810</text>
</a>
</g>
<!-- c1&#45;&gt;b1 -->
<g id="edge42" class="edge"><title>c1&#45;&gt;b1</title>
<path fill="none" stroke="black" d="M1300,-287.697C1300,-279.983 1300,-270.712 1300,-262.112"/>
<polygon fill="black" stroke="black" points="1303.5,-262.104 1300,-252.104 1296.5,-262.104 1303.5,-262.104"/>
</g>
<!-- d1&#45;&gt;c1 -->
<g id="edge22" class="edge"><title>d1&#45;&gt;c1</title>
<path fill="none" stroke="black" d="M1240.09,-360.765C1250.16,-351.73 1262.87,-340.326 1273.98,-330.349"/>
<polygon fill="black" stroke="black" points="1276.63,-332.674 1281.74,-323.39 1271.96,-327.464 1276.63,-332.674"/>
</g>
<!-- a1 -->
<g id="node29" class="node"><title>a1</title>
<a xlink:href="0006811" xlink:title="GO:0006811 (1)">
<ellipse fill="#e98576" stroke="#e98576" cx="1300" cy="-162" rx="75.2018" ry="18"/>
<text text-anchor="middle" x="1300" y="-157.8" font-family="Times,serif" font-size="14.00">GO:0006811 (1)</text>
</a>
</g>
<!-- b1&#45;&gt;a1 -->
<g id="edge24" class="edge"><title>b1&#45;&gt;a1</title>
<path fill="none" stroke="black" d="M1300,-215.697C1300,-207.983 1300,-198.712 1300,-190.112"/>
<polygon fill="black" stroke="black" points="1303.5,-190.104 1300,-180.104 1296.5,-190.104 1303.5,-190.104"/>
</g>
<!-- m0&#45;&gt;l0 -->
<g id="edge38" class="edge"><title>m0&#45;&gt;l0</title>
<path fill="none" stroke="black" d="M1024.2,-290.834C1050.63,-279.887 1087.38,-264.665 1115.84,-252.879"/>
<polygon fill="black" stroke="black" points="1117.24,-256.085 1125.14,-249.025 1114.56,-249.618 1117.24,-256.085"/>
</g>
<!-- y0 -->
<g id="node34" class="node"><title>y0</title>
<a xlink:href="0005975" xlink:title="GO:0005975 (1)">
<ellipse fill="#e98576" stroke="#e98576" cx="1004" cy="-234" rx="75.2018" ry="18"/>
<text text-anchor="middle" x="1004" y="-229.8" font-family="Times,serif" font-size="14.00">GO:0005975 (1)</text>
</a>
</g>
<!-- m0&#45;&gt;y0 -->
<g id="edge28" class="edge"><title>m0&#45;&gt;y0</title>
<path fill="none" stroke="black" d="M993.461,-287.697C995.003,-279.983 996.858,-270.712 998.578,-262.112"/>
<polygon fill="black" stroke="black" points="1002.05,-262.597 1000.58,-252.104 995.186,-261.224 1002.05,-262.597"/>
</g>
<!-- i0&#45;&gt;d0 -->
<g id="edge70" class="edge"><title>i0&#45;&gt;d0</title>
<path fill="none" stroke="black" d="M849,-287.697C849,-279.983 849,-270.712 849,-262.112"/>
<polygon fill="black" stroke="black" points="852.5,-262.104 849,-252.104 845.5,-262.104 852.5,-262.104"/>
</g>
<!-- i0&#45;&gt;g1 -->
<g id="edge36" class="edge"><title>i0&#45;&gt;g1</title>
<path fill="none" stroke="black" d="M819.098,-290.155C798.067,-279.714 769.725,-265.644 746.931,-254.328"/>
<polygon fill="black" stroke="black" points="748.373,-251.136 737.859,-249.824 745.26,-257.405 748.373,-251.136"/>
</g>
<!-- i0&#45;&gt;y0 -->
<g id="edge30" class="edge"><title>i0&#45;&gt;y0</title>
<path fill="none" stroke="black" d="M881.116,-290.496C904.233,-280.056 935.667,-265.86 960.956,-254.439"/>
<polygon fill="black" stroke="black" points="962.643,-257.518 970.317,-250.212 959.762,-251.138 962.643,-257.518"/>
</g>
<!-- n0 -->
<g id="node44" class="node"><title>n0</title>
<a xlink:href="0050789" xlink:title="GO:0050789 (5)">
<ellipse fill="#e98576" stroke="#e98576" cx="1532" cy="-306" rx="75.2018" ry="18"/>
<text text-anchor="middle" x="1532" y="-301.8" font-family="Times,serif" font-size="14.00">GO:0050789 (5)</text>
</a>
</g>
<!-- o0&#45;&gt;n0 -->
<g id="edge40" class="edge"><title>o0&#45;&gt;n0</title>
<path fill="none" stroke="black" d="M1532,-359.697C1532,-351.983 1532,-342.712 1532,-334.112"/>
<polygon fill="black" stroke="black" points="1535.5,-334.104 1532,-324.104 1528.5,-334.104 1535.5,-334.104"/>
</g>
<!-- b0 -->
<g id="node62" class="node"><title>b0</title>
<a xlink:href="0006351" xlink:title="GO:0006351 (5)">
<ellipse fill="#e98576" stroke="#e98576" cx="964" cy="-18" rx="75.2018" ry="18"/>
<text text-anchor="middle" x="964" y="-13.8" font-family="Times,serif" font-size="14.00">GO:0006351 (5)</text>
</a>
</g>
<!-- c0&#45;&gt;b0 -->
<g id="edge64" class="edge"><title>c0&#45;&gt;b0</title>
<path fill="none" stroke="black" d="M910.589,-72.411C919.352,-63.6479 930.268,-52.7322 939.943,-43.0569"/>
<polygon fill="black" stroke="black" points="942.448,-45.5022 947.044,-35.9562 937.498,-40.5524 942.448,-45.5022"/>
</g>
<!-- h0&#45;&gt;e0 -->
<g id="edge62" class="edge"><title>h0&#45;&gt;e0</title>
<path fill="none" stroke="black" d="M649.665,-361.638C632.471,-351.608 609.824,-338.397 591.105,-327.478"/>
<polygon fill="black" stroke="black" points="592.674,-324.341 582.273,-322.326 589.147,-330.388 592.674,-324.341"/>
</g>
<!-- j0&#45;&gt;b0 -->
<g id="edge66" class="edge"><title>j0&#45;&gt;b0</title>
<path fill="none" stroke="black" d="M1018.17,-72.411C1009.29,-63.6479 998.214,-52.7322 988.401,-43.0569"/>
<polygon fill="black" stroke="black" points="990.777,-40.4846 981.198,-35.9562 985.862,-45.4694 990.777,-40.4846"/>
</g>
<!-- a0 -->
<g id="node78" class="node"><title>a0</title>
<a xlink:href="0055114" xlink:title="GO:0055114 (5)">
<ellipse fill="#e98576" stroke="#e98576" cx="1609" cy="-450" rx="75.2018" ry="18"/>
<text text-anchor="middle" x="1609" y="-445.8" font-family="Times,serif" font-size="14.00">GO:0055114 (5)</text>
</a>
</g>
</g>
</svg>
