<?xml version="1.0" encoding="UTF-8" standalone="no"?>
<!DOCTYPE svg PUBLIC "-//W3C//DTD SVG 1.1//EN"
 "http://www.w3.org/Graphics/SVG/1.1/DTD/svg11.dtd">
<!-- Generated by graphviz version 2.28.0 (20110622.2320)
 -->
<!-- Title: G Pages: 1 -->
<svg width="1993pt" height="764pt"
 viewBox="0.00 0.00 1993.00 764.00" xmlns="http://www.w3.org/2000/svg" xmlns:xlink="http://www.w3.org/1999/xlink">
<g id="graph1" class="graph" transform="scale(1 1) rotate(0) translate(4 760)">
<title>G</title>
<polygon fill="white" stroke="white" points="-4,5 -4,-760 1990,-760 1990,5 -4,5"/>
<!-- j0 -->
<g id="node1" class="node"><title>j0</title>
<a xlink:href="0044464" xlink:title="GO:0044464 (1)">
<ellipse fill="#e98576" stroke="#e98576" cx="682" cy="-594" rx="75.2018" ry="18"/>
<text text-anchor="middle" x="682" y="-589.8" font-family="Times,serif" font-size="14.00">GO:0044464 (1)</text>
</a>
</g>
<!-- g1 -->
<g id="node3" class="node"><title>g1</title>
<a xlink:href="0045177" xlink:title="GO:0045177 (1)">
<ellipse fill="#e98576" stroke="#e98576" cx="411" cy="-522" rx="75.2018" ry="18"/>
<text text-anchor="middle" x="411" y="-517.8" font-family="Times,serif" font-size="14.00">GO:0045177 (1)</text>
</a>
</g>
<!-- j0&#45;&gt;g1 -->
<g id="edge2" class="edge"><title>j0&#45;&gt;g1</title>
<path fill="none" stroke="black" d="M632.924,-580.324C587.118,-568.492 518.697,-550.818 469.949,-538.227"/>
<polygon fill="black" stroke="black" points="470.726,-534.812 460.168,-535.7 468.975,-541.59 470.726,-534.812"/>
</g>
<!-- b1 -->
<g id="node9" class="node"><title>b1</title>
<a xlink:href="0042995" xlink:title="GO:0042995 (2)">
<ellipse fill="#e98576" stroke="#e98576" cx="579" cy="-522" rx="75.2018" ry="18"/>
<text text-anchor="middle" x="579" y="-517.8" font-family="Times,serif" font-size="14.00">GO:0042995 (2)</text>
</a>
</g>
<!-- j0&#45;&gt;b1 -->
<g id="edge68" class="edge"><title>j0&#45;&gt;b1</title>
<path fill="none" stroke="black" d="M658.111,-576.765C644.201,-567.311 626.476,-555.265 611.33,-544.972"/>
<polygon fill="black" stroke="black" points="612.998,-541.873 602.76,-539.147 609.063,-547.663 612.998,-541.873"/>
</g>
<!-- h0 -->
<g id="node24" class="node"><title>h0</title>
<a xlink:href="0044424" xlink:title="GO:0044424">
<ellipse fill="#dddddd" stroke="#dddddd" cx="911" cy="-450" rx="61.1934" ry="18"/>
<text text-anchor="middle" x="911" y="-445.8" font-family="Times,serif" font-size="14.00">GO:0044424</text>
</a>
</g>
<!-- j0&#45;&gt;h0 -->
<g id="edge40" class="edge"><title>j0&#45;&gt;h0</title>
<path fill="none" stroke="black" d="M680.672,-575.811C680.126,-555.854 682.471,-523.226 701,-504 720.978,-483.271 792.195,-468.377 846.203,-459.754"/>
<polygon fill="black" stroke="black" points="847.07,-463.162 856.413,-458.166 845.993,-456.245 847.07,-463.162"/>
</g>
<!-- i0 -->
<g id="node43" class="node"><title>i0</title>
<a xlink:href="0005622" xlink:title="GO:0005622">
<ellipse fill="#dddddd" stroke="#dddddd" cx="940" cy="-522" rx="61.1934" ry="18"/>
<text text-anchor="middle" x="940" y="-517.8" font-family="Times,serif" font-size="14.00">GO:0005622</text>
</a>
</g>
<!-- j0&#45;&gt;i0 -->
<g id="edge96" class="edge"><title>j0&#45;&gt;i0</title>
<path fill="none" stroke="black" d="M729.622,-580.079C774.114,-568.008 840.436,-550.013 886.682,-537.466"/>
<polygon fill="black" stroke="black" points="887.786,-540.793 896.521,-534.797 885.953,-534.037 887.786,-540.793"/>
</g>
<!-- p0 -->
<g id="node51" class="node"><title>p0</title>
<a xlink:href="0016020" xlink:title="GO:0016020 (7)">
<ellipse fill="#e98576" stroke="#e98576" cx="785" cy="-522" rx="75.2018" ry="18"/>
<text text-anchor="middle" x="785" y="-517.8" font-family="Times,serif" font-size="14.00">GO:0016020 (7)</text>
</a>
</g>
<!-- j0&#45;&gt;p0 -->
<g id="edge48" class="edge"><title>j0&#45;&gt;p0</title>
<path fill="none" stroke="black" d="M705.889,-576.765C719.799,-567.311 737.524,-555.265 752.67,-544.972"/>
<polygon fill="black" stroke="black" points="754.937,-547.663 761.24,-539.147 751.002,-541.873 754.937,-547.663"/>
</g>
<!-- e1 -->
<g id="node59" class="node"><title>e1</title>
<a xlink:href="0031252" xlink:title="GO:0031252 (1)">
<ellipse fill="#e98576" stroke="#e98576" cx="75" cy="-522" rx="75.2018" ry="18"/>
<text text-anchor="middle" x="75" y="-517.8" font-family="Times,serif" font-size="14.00">GO:0031252 (1)</text>
</a>
</g>
<!-- j0&#45;&gt;e1 -->
<g id="edge56" class="edge"><title>j0&#45;&gt;e1</title>
<path fill="none" stroke="black" d="M611.086,-588.046C510.259,-580.495 319.843,-564.365 159,-540 152.378,-538.997 145.487,-537.821 138.627,-536.564"/>
<polygon fill="black" stroke="black" points="139.11,-533.093 128.633,-534.675 137.809,-539.971 139.11,-533.093"/>
</g>
<!-- n1 -->
<g id="node65" class="node"><title>n1</title>
<a xlink:href="0009986" xlink:title="GO:0009986 (1)">
<ellipse fill="#e98576" stroke="#e98576" cx="243" cy="-522" rx="75.2018" ry="18"/>
<text text-anchor="middle" x="243" y="-517.8" font-family="Times,serif" font-size="14.00">GO:0009986 (1)</text>
</a>
</g>
<!-- j0&#45;&gt;n1 -->
<g id="edge62" class="edge"><title>j0&#45;&gt;n1</title>
<path fill="none" stroke="black" d="M618.031,-584.46C546.828,-574.719 428.422,-557.822 327,-540 320.749,-538.902 314.249,-537.697 307.756,-536.453"/>
<polygon fill="black" stroke="black" points="308.082,-532.95 297.597,-534.473 306.743,-539.821 308.082,-532.95"/>
</g>
<!-- k1 -->
<g id="node4" class="node"><title>k1</title>
<a xlink:href="0043233" xlink:title="GO:0043233">
<ellipse fill="#dddddd" stroke="#dddddd" cx="1029" cy="-306" rx="61.1934" ry="18"/>
<text text-anchor="middle" x="1029" y="-301.8" font-family="Times,serif" font-size="14.00">GO:0043233</text>
</a>
</g>
<!-- j1 -->
<g id="node6" class="node"><title>j1</title>
<a xlink:href="0031981" xlink:title="GO:0031981">
<ellipse fill="#dddddd" stroke="#dddddd" cx="1184" cy="-90" rx="61.1934" ry="18"/>
<text text-anchor="middle" x="1184" y="-85.8" font-family="Times,serif" font-size="14.00">GO:0031981</text>
</a>
</g>
<!-- k1&#45;&gt;j1 -->
<g id="edge4" class="edge"><title>k1&#45;&gt;j1</title>
<path fill="none" stroke="black" d="M1036.34,-287.918C1044.59,-269.481 1058.96,-239.589 1075,-216 1100.71,-178.184 1136.47,-139.182 1159.92,-115.018"/>
<polygon fill="black" stroke="black" points="1162.57,-117.308 1167.07,-107.714 1157.57,-112.41 1162.57,-117.308"/>
</g>
<!-- i1 -->
<g id="node35" class="node"><title>i1</title>
<a xlink:href="0005730" xlink:title="GO:0005730 (1)">
<ellipse fill="#e98576" stroke="#e98576" cx="1273" cy="-18" rx="75.2018" ry="18"/>
<text text-anchor="middle" x="1273" y="-13.8" font-family="Times,serif" font-size="14.00">GO:0005730 (1)</text>
</a>
</g>
<!-- j1&#45;&gt;i1 -->
<g id="edge28" class="edge"><title>j1&#45;&gt;i1</title>
<path fill="none" stroke="black" d="M1204.64,-72.7646C1216.35,-63.5543 1231.19,-51.8825 1244.05,-41.7691"/>
<polygon fill="black" stroke="black" points="1246.47,-44.323 1252.16,-35.3898 1242.14,-38.8209 1246.47,-44.323"/>
</g>
<!-- m1 -->
<g id="node7" class="node"><title>m1</title>
<a xlink:href="0044428" xlink:title="GO:0044428">
<ellipse fill="#dddddd" stroke="#dddddd" cx="1228" cy="-162" rx="61.1934" ry="18"/>
<text text-anchor="middle" x="1228" y="-157.8" font-family="Times,serif" font-size="14.00">GO:0044428</text>
</a>
</g>
<!-- m1&#45;&gt;j1 -->
<g id="edge6" class="edge"><title>m1&#45;&gt;j1</title>
<path fill="none" stroke="black" d="M1217.35,-144.055C1212.16,-135.801 1205.81,-125.701 1200.05,-116.538"/>
<polygon fill="black" stroke="black" points="1202.84,-114.393 1194.55,-107.789 1196.91,-118.118 1202.84,-114.393"/>
</g>
<!-- m1&#45;&gt;i1 -->
<g id="edge32" class="edge"><title>m1&#45;&gt;i1</title>
<path fill="none" stroke="black" d="M1237.78,-143.798C1243.21,-133.647 1249.71,-120.397 1254,-108 1261.01,-87.751 1265.92,-63.9782 1269,-46.0982"/>
<polygon fill="black" stroke="black" points="1272.48,-46.5008 1270.63,-36.0675 1265.57,-45.3727 1272.48,-46.5008"/>
</g>
<!-- f1 -->
<g id="node11" class="node"><title>f1</title>
<a xlink:href="0043005" xlink:title="GO:0043005 (1)">
<ellipse fill="#e98576" stroke="#e98576" cx="579" cy="-450" rx="75.2018" ry="18"/>
<text text-anchor="middle" x="579" y="-445.8" font-family="Times,serif" font-size="14.00">GO:0043005 (1)</text>
</a>
</g>
<!-- b1&#45;&gt;f1 -->
<g id="edge8" class="edge"><title>b1&#45;&gt;f1</title>
<path fill="none" stroke="black" d="M579,-503.697C579,-495.983 579,-486.712 579,-478.112"/>
<polygon fill="black" stroke="black" points="582.5,-478.104 579,-468.104 575.5,-478.104 582.5,-478.104"/>
</g>
<!-- w0 -->
<g id="node12" class="node"><title>w0</title>
<a xlink:href="0015629" xlink:title="GO:0015629">
<ellipse fill="#dddddd" stroke="#dddddd" cx="1820" cy="-162" rx="61.1934" ry="18"/>
<text text-anchor="middle" x="1820" y="-157.8" font-family="Times,serif" font-size="14.00">GO:0015629</text>
</a>
</g>
<!-- v0 -->
<g id="node14" class="node"><title>v0</title>
<a xlink:href="0008290" xlink:title="GO:0008290 (2)">
<ellipse fill="#e98576" stroke="#e98576" cx="1820" cy="-90" rx="75.2018" ry="18"/>
<text text-anchor="middle" x="1820" y="-85.8" font-family="Times,serif" font-size="14.00">GO:0008290 (2)</text>
</a>
</g>
<!-- w0&#45;&gt;v0 -->
<g id="edge10" class="edge"><title>w0&#45;&gt;v0</title>
<path fill="none" stroke="black" d="M1820,-143.697C1820,-135.983 1820,-126.712 1820,-118.112"/>
<polygon fill="black" stroke="black" points="1823.5,-118.104 1820,-108.104 1816.5,-118.104 1823.5,-118.104"/>
</g>
<!-- t0 -->
<g id="node15" class="node"><title>t0</title>
<a xlink:href="0043234" xlink:title="GO:0043234 (4)">
<ellipse fill="#e98576" stroke="#e98576" cx="1730" cy="-594" rx="75.2018" ry="18"/>
<text text-anchor="middle" x="1730" y="-589.8" font-family="Times,serif" font-size="14.00">GO:0043234 (4)</text>
</a>
</g>
<!-- t0&#45;&gt;v0 -->
<g id="edge12" class="edge"><title>t0&#45;&gt;v0</title>
<path fill="none" stroke="black" d="M1795.67,-585.089C1871.22,-571.898 1985,-537.649 1985,-451 1985,-451 1985,-451 1985,-233 1985,-171.527 1918.39,-130.845 1869.81,-109.351"/>
<polygon fill="black" stroke="black" points="1870.93,-106.023 1860.36,-105.307 1868.18,-112.459 1870.93,-106.023"/>
</g>
<!-- x0 -->
<g id="node17" class="node"><title>x0</title>
<a xlink:href="0044430" xlink:title="GO:0044430">
<ellipse fill="#dddddd" stroke="#dddddd" cx="1679" cy="-162" rx="61.1934" ry="18"/>
<text text-anchor="middle" x="1679" y="-157.8" font-family="Times,serif" font-size="14.00">GO:0044430</text>
</a>
</g>
<!-- x0&#45;&gt;v0 -->
<g id="edge14" class="edge"><title>x0&#45;&gt;v0</title>
<path fill="none" stroke="black" d="M1708.9,-146.155C1729.51,-135.926 1757.13,-122.212 1779.68,-111.019"/>
<polygon fill="black" stroke="black" points="1781.27,-114.133 1788.67,-106.552 1778.16,-107.863 1781.27,-114.133"/>
</g>
<!-- m0 -->
<g id="node19" class="node"><title>m0</title>
<a xlink:href="0043231" xlink:title="GO:0043231 (2)">
<ellipse fill="#e98576" stroke="#e98576" cx="1331" cy="-306" rx="75.2018" ry="18"/>
<text text-anchor="middle" x="1331" y="-301.8" font-family="Times,serif" font-size="14.00">GO:0043231 (2)</text>
</a>
</g>
<!-- c1 -->
<g id="node21" class="node"><title>c1</title>
<a xlink:href="0005773" xlink:title="GO:0005773 (1)">
<ellipse fill="#e98576" stroke="#e98576" cx="1170" cy="-234" rx="75.2018" ry="18"/>
<text text-anchor="middle" x="1170" y="-229.8" font-family="Times,serif" font-size="14.00">GO:0005773 (1)</text>
</a>
</g>
<!-- m0&#45;&gt;c1 -->
<g id="edge16" class="edge"><title>m0&#45;&gt;c1</title>
<path fill="none" stroke="black" d="M1296.46,-289.983C1272.27,-279.464 1239.75,-265.324 1213.74,-254.017"/>
<polygon fill="black" stroke="black" points="1215.05,-250.769 1204.48,-249.992 1212.26,-257.189 1215.05,-250.769"/>
</g>
<!-- l0 -->
<g id="node52" class="node"><title>l0</title>
<a xlink:href="0005634" xlink:title="GO:0005634 (7)">
<ellipse fill="#e98576" stroke="#e98576" cx="1338" cy="-234" rx="75.2018" ry="18"/>
<text text-anchor="middle" x="1338" y="-229.8" font-family="Times,serif" font-size="14.00">GO:0005634 (7)</text>
</a>
</g>
<!-- m0&#45;&gt;l0 -->
<g id="edge110" class="edge"><title>m0&#45;&gt;l0</title>
<path fill="none" stroke="black" d="M1332.73,-287.697C1333.5,-279.983 1334.43,-270.712 1335.29,-262.112"/>
<polygon fill="black" stroke="black" points="1338.78,-262.403 1336.29,-252.104 1331.81,-261.706 1338.78,-262.403"/>
</g>
<!-- d1 -->
<g id="node22" class="node"><title>d1</title>
<a xlink:href="0044444" xlink:title="GO:0044444">
<ellipse fill="#dddddd" stroke="#dddddd" cx="883" cy="-306" rx="61.1934" ry="18"/>
<text text-anchor="middle" x="883" y="-301.8" font-family="Times,serif" font-size="14.00">GO:0044444</text>
</a>
</g>
<!-- d1&#45;&gt;c1 -->
<g id="edge18" class="edge"><title>d1&#45;&gt;c1</title>
<path fill="none" stroke="black" d="M928.476,-293.908C977.43,-281.968 1055.54,-262.917 1109.62,-249.728"/>
<polygon fill="black" stroke="black" points="1110.54,-253.106 1119.42,-247.336 1108.88,-246.306 1110.54,-253.106"/>
</g>
<!-- h0&#45;&gt;d1 -->
<g id="edge46" class="edge"><title>h0&#45;&gt;d1</title>
<path fill="none" stroke="black" d="M860.809,-439.523C836.23,-432.08 808.804,-418.958 794,-396 785.329,-382.553 786.094,-373.91 794,-360 802.988,-344.186 818.768,-332.594 834.569,-324.358"/>
<polygon fill="black" stroke="black" points="836.34,-327.389 843.824,-319.889 833.297,-321.085 836.34,-327.389"/>
</g>
<!-- g0 -->
<g id="node26" class="node"><title>g0</title>
<a xlink:href="0005737" xlink:title="GO:0005737 (14)">
<ellipse fill="#e98576" stroke="#e98576" cx="883" cy="-378" rx="79.4447" ry="18"/>
<text text-anchor="middle" x="883" y="-373.8" font-family="Times,serif" font-size="14.00">GO:0005737 (14)</text>
</a>
</g>
<!-- h0&#45;&gt;g0 -->
<g id="edge20" class="edge"><title>h0&#45;&gt;g0</title>
<path fill="none" stroke="black" d="M904.222,-432.055C901.07,-424.176 897.247,-414.617 893.718,-405.794"/>
<polygon fill="black" stroke="black" points="896.874,-404.26 889.91,-396.275 890.374,-406.86 896.874,-404.26"/>
</g>
<!-- y0 -->
<g id="node54" class="node"><title>y0</title>
<a xlink:href="0044446" xlink:title="GO:0044446">
<ellipse fill="#dddddd" stroke="#dddddd" cx="1170" cy="-306" rx="61.1934" ry="18"/>
<text text-anchor="middle" x="1170" y="-301.8" font-family="Times,serif" font-size="14.00">GO:0044446</text>
</a>
</g>
<!-- h0&#45;&gt;y0 -->
<g id="edge116" class="edge"><title>h0&#45;&gt;y0</title>
<path fill="none" stroke="black" d="M933.083,-433.009C959.594,-414.205 1005.77,-382.684 1048,-360 1072.76,-346.697 1101.56,-334.062 1124.96,-324.467"/>
<polygon fill="black" stroke="black" points="1126.34,-327.682 1134.3,-320.681 1123.71,-321.195 1126.34,-327.682"/>
</g>
<!-- o0 -->
<g id="node62" class="node"><title>o0</title>
<a xlink:href="0043229" xlink:title="GO:0043229">
<ellipse fill="#dddddd" stroke="#dddddd" cx="1259" cy="-378" rx="61.1934" ry="18"/>
<text text-anchor="middle" x="1259" y="-373.8" font-family="Times,serif" font-size="14.00">GO:0043229</text>
</a>
</g>
<!-- h0&#45;&gt;o0 -->
<g id="edge78" class="edge"><title>h0&#45;&gt;o0</title>
<path fill="none" stroke="black" d="M961.941,-439.978C1017.62,-429.949 1109.38,-412.924 1188,-396 1193.06,-394.911 1198.31,-393.737 1203.56,-392.533"/>
<polygon fill="black" stroke="black" points="1204.67,-395.868 1213.62,-390.194 1203.09,-389.05 1204.67,-395.868"/>
</g>
<!-- g0&#45;&gt;d1 -->
<g id="edge44" class="edge"><title>g0&#45;&gt;d1</title>
<path fill="none" stroke="black" d="M883,-359.697C883,-351.983 883,-342.712 883,-334.112"/>
<polygon fill="black" stroke="black" points="886.5,-334.104 883,-324.104 879.5,-334.104 886.5,-334.104"/>
</g>
<!-- c0 -->
<g id="node27" class="node"><title>c0</title>
<a xlink:href="0005575" xlink:title="GO:0005575 (2)">
<ellipse fill="#e98576" stroke="#e98576" cx="1156" cy="-738" rx="75.2018" ry="18"/>
<text text-anchor="middle" x="1156" y="-733.8" font-family="Times,serif" font-size="14.00">GO:0005575 (2)</text>
</a>
</g>
<!-- c0&#45;&gt;j0 -->
<g id="edge90" class="edge"><title>c0&#45;&gt;j0</title>
<path fill="none" stroke="black" d="M1110.98,-723.513C1023.6,-697.336 831.316,-639.732 736.732,-611.396"/>
<polygon fill="black" stroke="black" points="737.65,-608.018 727.066,-608.501 735.641,-614.723 737.65,-608.018"/>
</g>
<!-- z0 -->
<g id="node29" class="node"><title>z0</title>
<a xlink:href="0044422" xlink:title="GO:0044422">
<ellipse fill="#dddddd" stroke="#dddddd" cx="1118" cy="-378" rx="61.1934" ry="18"/>
<text text-anchor="middle" x="1118" y="-373.8" font-family="Times,serif" font-size="14.00">GO:0044422</text>
</a>
</g>
<!-- c0&#45;&gt;z0 -->
<g id="edge22" class="edge"><title>c0&#45;&gt;z0</title>
<path fill="none" stroke="black" d="M1148.31,-719.907C1137.21,-693.623 1118,-641.447 1118,-595 1118,-595 1118,-595 1118,-521 1118,-480.996 1118,-434.653 1118,-406.08"/>
<polygon fill="black" stroke="black" points="1121.5,-406.049 1118,-396.049 1114.5,-406.049 1121.5,-406.049"/>
</g>
<!-- b0 -->
<g id="node30" class="node"><title>b0</title>
<a xlink:href="0043226" xlink:title="GO:0043226">
<ellipse fill="#dddddd" stroke="#dddddd" cx="1400" cy="-450" rx="61.1934" ry="18"/>
<text text-anchor="middle" x="1400" y="-445.8" font-family="Times,serif" font-size="14.00">GO:0043226</text>
</a>
</g>
<!-- c0&#45;&gt;b0 -->
<g id="edge74" class="edge"><title>c0&#45;&gt;b0</title>
<path fill="none" stroke="black" d="M1158.98,-719.983C1162.6,-701.601 1169.67,-671.757 1181,-648 1220.46,-565.267 1312.02,-501.814 1363.38,-471.199"/>
<polygon fill="black" stroke="black" points="1365.32,-474.119 1372.18,-466.043 1361.78,-468.081 1365.32,-474.119"/>
</g>
<!-- k0 -->
<g id="node40" class="node"><title>k0</title>
<a xlink:href="0005623" xlink:title="GO:0005623">
<ellipse fill="#dddddd" stroke="#dddddd" cx="725" cy="-666" rx="61.1934" ry="18"/>
<text text-anchor="middle" x="725" y="-661.8" font-family="Times,serif" font-size="14.00">GO:0005623</text>
</a>
</g>
<!-- c0&#45;&gt;k0 -->
<g id="edge34" class="edge"><title>c0&#45;&gt;k0</title>
<path fill="none" stroke="black" d="M1095.62,-727.193C1014.11,-713.955 869.618,-690.488 787.19,-677.1"/>
<polygon fill="black" stroke="black" points="787.64,-673.628 777.209,-675.479 786.518,-680.537 787.64,-673.628"/>
</g>
<!-- e0 -->
<g id="node47" class="node"><title>e0</title>
<a xlink:href="0005576" xlink:title="GO:0005576 (14)">
<ellipse fill="#e98576" stroke="#e98576" cx="1302" cy="-666" rx="79.4447" ry="18"/>
<text text-anchor="middle" x="1302" y="-661.8" font-family="Times,serif" font-size="14.00">GO:0005576 (14)</text>
</a>
</g>
<!-- c0&#45;&gt;e0 -->
<g id="edge42" class="edge"><title>c0&#45;&gt;e0</title>
<path fill="none" stroke="black" d="M1188.04,-721.638C1209.29,-711.451 1237.38,-697.982 1260.36,-686.966"/>
<polygon fill="black" stroke="black" points="1262.03,-690.047 1269.53,-682.568 1259,-683.735 1262.03,-690.047"/>
</g>
<!-- l1 -->
<g id="node70" class="node"><title>l1</title>
<a xlink:href="0031974" xlink:title="GO:0031974">
<ellipse fill="#dddddd" stroke="#dddddd" cx="1029" cy="-594" rx="61.1934" ry="18"/>
<text text-anchor="middle" x="1029" y="-589.8" font-family="Times,serif" font-size="14.00">GO:0031974</text>
</a>
</g>
<!-- c0&#45;&gt;l1 -->
<g id="edge70" class="edge"><title>c0&#45;&gt;l1</title>
<path fill="none" stroke="black" d="M1138.8,-720.13C1128.51,-709.871 1115.28,-696.397 1104,-684 1084.66,-662.741 1063.67,-637.635 1048.82,-619.517"/>
<polygon fill="black" stroke="black" points="1051.49,-617.258 1042.46,-611.723 1046.07,-621.684 1051.49,-617.258"/>
</g>
<!-- a1 -->
<g id="node72" class="node"><title>a1</title>
<a xlink:href="0031012" xlink:title="GO:0031012 (2)">
<ellipse fill="#e98576" stroke="#e98576" cx="1643" cy="-666" rx="75.2018" ry="18"/>
<text text-anchor="middle" x="1643" y="-661.8" font-family="Times,serif" font-size="14.00">GO:0031012 (2)</text>
</a>
</g>
<!-- c0&#45;&gt;a1 -->
<g id="edge72" class="edge"><title>c0&#45;&gt;a1</title>
<path fill="none" stroke="black" d="M1222.88,-729.634C1303.01,-720.48 1441.19,-703.644 1559,-684 1565.51,-682.915 1572.28,-681.696 1579.03,-680.421"/>
<polygon fill="black" stroke="black" points="1579.72,-683.853 1588.88,-678.524 1578.4,-676.98 1579.72,-683.853"/>
</g>
<!-- d0 -->
<g id="node81" class="node"><title>d0</title>
<a xlink:href="0044421" xlink:title="GO:0044421">
<ellipse fill="#dddddd" stroke="#dddddd" cx="1302" cy="-594" rx="61.1934" ry="18"/>
<text text-anchor="middle" x="1302" y="-589.8" font-family="Times,serif" font-size="14.00">GO:0044421</text>
</a>
</g>
<!-- c0&#45;&gt;d0 -->
<g id="edge106" class="edge"><title>c0&#45;&gt;d0</title>
<path fill="none" stroke="black" d="M1163.89,-719.936C1173.43,-700.693 1190.98,-669.312 1213,-648 1226.83,-634.617 1244.64,-623.162 1260.7,-614.362"/>
<polygon fill="black" stroke="black" points="1262.7,-617.262 1269.9,-609.492 1259.43,-611.074 1262.7,-617.262"/>
</g>
<!-- u0 -->
<g id="node91" class="node"><title>u0</title>
<a xlink:href="0032991" xlink:title="GO:0032991 (2)">
<ellipse fill="#e98576" stroke="#e98576" cx="1475" cy="-666" rx="75.2018" ry="18"/>
<text text-anchor="middle" x="1475" y="-661.8" font-family="Times,serif" font-size="14.00">GO:0032991 (2)</text>
</a>
</g>
<!-- c0&#45;&gt;u0 -->
<g id="edge102" class="edge"><title>c0&#45;&gt;u0</title>
<path fill="none" stroke="black" d="M1209.39,-725.284C1265.14,-713.05 1352.54,-693.872 1411.72,-680.885"/>
<polygon fill="black" stroke="black" points="1412.68,-684.258 1421.7,-678.696 1411.18,-677.421 1412.68,-684.258"/>
</g>
<!-- z0&#45;&gt;k1 -->
<g id="edge84" class="edge"><title>z0&#45;&gt;k1</title>
<path fill="none" stroke="black" d="M1097.36,-360.765C1085.56,-351.488 1070.59,-339.714 1057.67,-329.551"/>
<polygon fill="black" stroke="black" points="1059.55,-326.578 1049.53,-323.147 1055.23,-332.081 1059.55,-326.578"/>
</g>
<!-- z0&#45;&gt;y0 -->
<g id="edge114" class="edge"><title>z0&#45;&gt;y0</title>
<path fill="none" stroke="black" d="M1130.59,-360.055C1136.85,-351.629 1144.54,-341.28 1151.45,-331.966"/>
<polygon fill="black" stroke="black" points="1154.37,-333.904 1157.53,-323.789 1148.76,-329.729 1154.37,-333.904"/>
</g>
<!-- b0&#45;&gt;z0 -->
<g id="edge24" class="edge"><title>b0&#45;&gt;z0</title>
<path fill="none" stroke="black" d="M1354.69,-437.753C1305.25,-425.481 1226.1,-405.833 1173.1,-392.678"/>
<polygon fill="black" stroke="black" points="1173.74,-389.231 1163.2,-390.219 1172.06,-396.025 1173.74,-389.231"/>
</g>
<!-- f0 -->
<g id="node42" class="node"><title>f0</title>
<a xlink:href="0031982" xlink:title="GO:0031982 (17)">
<ellipse fill="#e98576" stroke="#e98576" cx="1559" cy="-378" rx="79.4447" ry="18"/>
<text text-anchor="middle" x="1559" y="-373.8" font-family="Times,serif" font-size="14.00">GO:0031982 (17)</text>
</a>
</g>
<!-- b0&#45;&gt;f0 -->
<g id="edge36" class="edge"><title>b0&#45;&gt;f0</title>
<path fill="none" stroke="black" d="M1432.56,-434.666C1456.35,-424.192 1488.88,-409.872 1514.98,-398.379"/>
<polygon fill="black" stroke="black" points="1516.54,-401.518 1524.28,-394.285 1513.72,-395.111 1516.54,-401.518"/>
</g>
<!-- s0 -->
<g id="node60" class="node"><title>s0</title>
<a xlink:href="0043228" xlink:title="GO:0043228">
<ellipse fill="#dddddd" stroke="#dddddd" cx="1718" cy="-378" rx="61.1934" ry="18"/>
<text text-anchor="middle" x="1718" y="-373.8" font-family="Times,serif" font-size="14.00">GO:0043228</text>
</a>
</g>
<!-- b0&#45;&gt;s0 -->
<g id="edge104" class="edge"><title>b0&#45;&gt;s0</title>
<path fill="none" stroke="black" d="M1448.82,-438.881C1498.7,-428.457 1578.35,-411.581 1647,-396 1651.97,-394.872 1657.13,-393.678 1662.3,-392.468"/>
<polygon fill="black" stroke="black" points="1663.28,-395.835 1672.21,-390.133 1661.67,-389.022 1663.28,-395.835"/>
</g>
<!-- b0&#45;&gt;o0 -->
<g id="edge76" class="edge"><title>b0&#45;&gt;o0</title>
<path fill="none" stroke="black" d="M1370.1,-434.155C1349.07,-423.714 1320.72,-409.644 1297.93,-398.328"/>
<polygon fill="black" stroke="black" points="1299.37,-395.136 1288.86,-393.824 1296.26,-401.405 1299.37,-395.136"/>
</g>
<!-- a0 -->
<g id="node80" class="node"><title>a0</title>
<a xlink:href="0043230" xlink:title="GO:0043230 (17)">
<ellipse fill="#e98576" stroke="#e98576" cx="1877" cy="-378" rx="79.4447" ry="18"/>
<text text-anchor="middle" x="1877" y="-373.8" font-family="Times,serif" font-size="14.00">GO:0043230 (17)</text>
</a>
</g>
<!-- b0&#45;&gt;a0 -->
<g id="edge86" class="edge"><title>b0&#45;&gt;a0</title>
<path fill="none" stroke="black" d="M1455.72,-442.331C1531.2,-433.081 1670.08,-415.301 1788,-396 1794.78,-394.89 1801.84,-393.664 1808.88,-392.394"/>
<polygon fill="black" stroke="black" points="1809.95,-395.757 1819.15,-390.51 1808.68,-388.872 1809.95,-395.757"/>
</g>
<!-- n0 -->
<g id="node86" class="node"><title>n0</title>
<a xlink:href="0043227" xlink:title="GO:0043227">
<ellipse fill="#dddddd" stroke="#dddddd" cx="1400" cy="-378" rx="61.1934" ry="18"/>
<text text-anchor="middle" x="1400" y="-373.8" font-family="Times,serif" font-size="14.00">GO:0043227</text>
</a>
</g>
<!-- b0&#45;&gt;n0 -->
<g id="edge94" class="edge"><title>b0&#45;&gt;n0</title>
<path fill="none" stroke="black" d="M1400,-431.697C1400,-423.983 1400,-414.712 1400,-406.112"/>
<polygon fill="black" stroke="black" points="1403.5,-406.104 1400,-396.104 1396.5,-406.104 1403.5,-406.104"/>
</g>
<!-- q0 -->
<g id="node32" class="node"><title>q0</title>
<a xlink:href="0005856" xlink:title="GO:0005856 (5)">
<ellipse fill="#e98576" stroke="#e98576" cx="1750" cy="-234" rx="75.2018" ry="18"/>
<text text-anchor="middle" x="1750" y="-229.8" font-family="Times,serif" font-size="14.00">GO:0005856 (5)</text>
</a>
</g>
<!-- q0&#45;&gt;w0 -->
<g id="edge26" class="edge"><title>q0&#45;&gt;w0</title>
<path fill="none" stroke="black" d="M1766.59,-216.411C1775.48,-207.519 1786.59,-196.411 1796.37,-186.631"/>
<polygon fill="black" stroke="black" points="1798.93,-189.016 1803.53,-179.47 1793.98,-184.066 1798.93,-189.016"/>
</g>
<!-- q0&#45;&gt;x0 -->
<g id="edge64" class="edge"><title>q0&#45;&gt;x0</title>
<path fill="none" stroke="black" d="M1733.17,-216.411C1724.15,-207.519 1712.89,-196.411 1702.97,-186.631"/>
<polygon fill="black" stroke="black" points="1705.28,-183.998 1695.71,-179.47 1700.37,-188.983 1705.28,-183.998"/>
</g>
<!-- r0 -->
<g id="node36" class="node"><title>r0</title>
<a xlink:href="0043232" xlink:title="GO:0043232">
<ellipse fill="#dddddd" stroke="#dddddd" cx="1582" cy="-306" rx="61.1934" ry="18"/>
<text text-anchor="middle" x="1582" y="-301.8" font-family="Times,serif" font-size="14.00">GO:0043232</text>
</a>
</g>
<!-- r0&#45;&gt;q0 -->
<g id="edge80" class="edge"><title>r0&#45;&gt;q0</title>
<path fill="none" stroke="black" d="M1616,-290.834C1641.56,-280.185 1676.82,-265.49 1704.76,-253.848"/>
<polygon fill="black" stroke="black" points="1706.43,-256.946 1714.31,-249.869 1703.74,-250.485 1706.43,-256.946"/>
</g>
<!-- r0&#45;&gt;i1 -->
<g id="edge30" class="edge"><title>r0&#45;&gt;i1</title>
<path fill="none" stroke="black" d="M1554.4,-289.851C1537.44,-280.005 1515.66,-266.363 1498,-252 1414.84,-184.355 1330.76,-88.2505 1293.25,-43.5836"/>
<polygon fill="black" stroke="black" points="1295.9,-41.291 1286.8,-35.8604 1290.52,-45.7788 1295.9,-41.291"/>
</g>
<!-- h1 -->
<g id="node57" class="node"><title>h1</title>
<a xlink:href="0005694" xlink:title="GO:0005694 (1)">
<ellipse fill="#e98576" stroke="#e98576" cx="1582" cy="-234" rx="75.2018" ry="18"/>
<text text-anchor="middle" x="1582" y="-229.8" font-family="Times,serif" font-size="14.00">GO:0005694 (1)</text>
</a>
</g>
<!-- r0&#45;&gt;h1 -->
<g id="edge54" class="edge"><title>r0&#45;&gt;h1</title>
<path fill="none" stroke="black" d="M1582,-287.697C1582,-279.983 1582,-270.712 1582,-262.112"/>
<polygon fill="black" stroke="black" points="1585.5,-262.104 1582,-252.104 1578.5,-262.104 1585.5,-262.104"/>
</g>
<!-- k0&#45;&gt;j0 -->
<g id="edge92" class="edge"><title>k0&#45;&gt;j0</title>
<path fill="none" stroke="black" d="M714.591,-648.055C709.595,-639.922 703.499,-629.998 697.936,-620.943"/>
<polygon fill="black" stroke="black" points="700.828,-618.964 692.612,-612.275 694.864,-622.628 700.828,-618.964"/>
</g>
<!-- i0&#45;&gt;h0 -->
<g id="edge38" class="edge"><title>i0&#45;&gt;h0</title>
<path fill="none" stroke="black" d="M932.98,-504.055C929.716,-496.176 925.755,-486.617 922.1,-477.794"/>
<polygon fill="black" stroke="black" points="925.218,-476.174 918.157,-468.275 918.751,-478.853 925.218,-476.174"/>
</g>
<!-- e0&#45;&gt;d0 -->
<g id="edge108" class="edge"><title>e0&#45;&gt;d0</title>
<path fill="none" stroke="black" d="M1302,-647.697C1302,-639.983 1302,-630.712 1302,-622.112"/>
<polygon fill="black" stroke="black" points="1305.5,-622.104 1302,-612.104 1298.5,-622.104 1305.5,-622.104"/>
</g>
<!-- l0&#45;&gt;m1 -->
<g id="edge50" class="edge"><title>l0&#45;&gt;m1</title>
<path fill="none" stroke="black" d="M1312.76,-216.941C1297.56,-207.268 1278.03,-194.834 1261.54,-184.343"/>
<polygon fill="black" stroke="black" points="1263.06,-181.159 1252.74,-178.743 1259.3,-187.065 1263.06,-181.159"/>
</g>
<!-- y0&#45;&gt;m1 -->
<g id="edge52" class="edge"><title>y0&#45;&gt;m1</title>
<path fill="none" stroke="black" d="M1132.96,-291.571C1115.39,-283.11 1096.08,-270.271 1086,-252 1078.27,-237.989 1076.88,-229.144 1086,-216 1103.11,-191.346 1133.16,-178.14 1161.23,-171.074"/>
<polygon fill="black" stroke="black" points="1162.08,-174.469 1171.04,-168.823 1160.52,-167.646 1162.08,-174.469"/>
</g>
<!-- y0&#45;&gt;x0 -->
<g id="edge66" class="edge"><title>y0&#45;&gt;x0</title>
<path fill="none" stroke="black" d="M1217.21,-294.464C1227.05,-292.3 1237.36,-290.056 1247,-288 1324.66,-271.44 1346.69,-277.177 1422,-252 1457.45,-240.15 1463.07,-229.293 1498,-216 1539.4,-200.246 1587.59,-186.342 1623.83,-176.732"/>
<polygon fill="black" stroke="black" points="1624.94,-180.06 1633.72,-174.137 1623.16,-173.29 1624.94,-180.06"/>
</g>
<!-- s0&#45;&gt;r0 -->
<g id="edge58" class="edge"><title>s0&#45;&gt;r0</title>
<path fill="none" stroke="black" d="M1688.82,-361.983C1668.75,-351.649 1641.88,-337.819 1620.11,-326.615"/>
<polygon fill="black" stroke="black" points="1621.62,-323.456 1611.13,-321.992 1618.42,-329.68 1621.62,-323.456"/>
</g>
<!-- o0&#45;&gt;m0 -->
<g id="edge100" class="edge"><title>o0&#45;&gt;m0</title>
<path fill="none" stroke="black" d="M1276.06,-360.411C1285.08,-351.648 1296.3,-340.732 1306.26,-331.057"/>
<polygon fill="black" stroke="black" points="1308.83,-333.437 1313.56,-323.956 1303.95,-328.418 1308.83,-333.437"/>
</g>
<!-- o0&#45;&gt;r0 -->
<g id="edge60" class="edge"><title>o0&#45;&gt;r0</title>
<path fill="none" stroke="black" d="M1304.79,-365.84C1313.17,-363.854 1321.84,-361.835 1330,-360 1396.04,-345.152 1472.11,-329.328 1523.25,-318.877"/>
<polygon fill="black" stroke="black" points="1524.03,-322.288 1533.13,-316.86 1522.63,-315.43 1524.03,-322.288"/>
</g>
<!-- o0&#45;&gt;y0 -->
<g id="edge112" class="edge"><title>o0&#45;&gt;y0</title>
<path fill="none" stroke="black" d="M1238.36,-360.765C1226.56,-351.488 1211.59,-339.714 1198.67,-329.551"/>
<polygon fill="black" stroke="black" points="1200.55,-326.578 1190.53,-323.147 1196.23,-332.081 1200.55,-326.578"/>
</g>
<!-- l1&#45;&gt;k1 -->
<g id="edge82" class="edge"><title>l1&#45;&gt;k1</title>
<path fill="none" stroke="black" d="M1029,-575.966C1029,-528.291 1029,-393.185 1029,-334.63"/>
<polygon fill="black" stroke="black" points="1032.5,-334.306 1029,-324.306 1025.5,-334.306 1032.5,-334.306"/>
</g>
<!-- d0&#45;&gt;a0 -->
<g id="edge88" class="edge"><title>d0&#45;&gt;a0</title>
<path fill="none" stroke="black" d="M1338.41,-579.451C1437.95,-542.401 1714.79,-439.372 1827.9,-397.275"/>
<polygon fill="black" stroke="black" points="1829.21,-400.521 1837.36,-393.752 1826.77,-393.96 1829.21,-400.521"/>
</g>
<!-- n0&#45;&gt;m0 -->
<g id="edge98" class="edge"><title>n0&#45;&gt;m0</title>
<path fill="none" stroke="black" d="M1383.65,-360.411C1375.09,-351.734 1364.46,-340.946 1354.99,-331.342"/>
<polygon fill="black" stroke="black" points="1357.23,-328.621 1347.71,-323.956 1352.24,-333.535 1357.23,-328.621"/>
</g>
<!-- u0&#45;&gt;t0 -->
<g id="edge118" class="edge"><title>u0&#45;&gt;t0</title>
<path fill="none" stroke="black" d="M1522.37,-651.998C1564.9,-640.321 1627.45,-623.151 1672.77,-610.71"/>
<polygon fill="black" stroke="black" points="1673.74,-614.074 1682.46,-608.051 1671.89,-607.323 1673.74,-614.074"/>
</g>
</g>
</svg>
