<?xml version="1.0" encoding="UTF-8" standalone="no"?>
<!DOCTYPE svg PUBLIC "-//W3C//DTD SVG 1.1//EN"
 "http://www.w3.org/Graphics/SVG/1.1/DTD/svg11.dtd">
<!-- Generated by graphviz version 2.28.0 (20110622.2320)
 -->
<!-- Title: G Pages: 1 -->
<svg width="7820pt" height="404pt"
 viewBox="0.00 0.00 7820.00 404.00" xmlns="http://www.w3.org/2000/svg" xmlns:xlink="http://www.w3.org/1999/xlink">
<g id="graph1" class="graph" transform="scale(1 1) rotate(0) translate(4 400)">
<title>G</title>
<polygon fill="white" stroke="white" points="-4,5 -4,-400 7817,-400 7817,5 -4,5"/>
<!-- c0 -->
<g id="node1" class="node"><title>c0</title>
<a xlink:href="0003674" xlink:title="GO:0003674 (218)">
<ellipse fill="#e98576" stroke="#e98576" cx="5197" cy="-378" rx="84.1886" ry="18"/>
<text text-anchor="middle" x="5197" y="-373.8" font-family="Times,serif" font-size="14.00">GO:0003674 (218)</text>
</a>
</g>
<!-- u1 -->
<g id="node3" class="node"><title>u1</title>
<a xlink:href="0045182" xlink:title="GO:0045182 (6)">
<ellipse fill="#e98576" stroke="#e98576" cx="1269" cy="-306" rx="75.2018" ry="18"/>
<text text-anchor="middle" x="1269" y="-301.8" font-family="Times,serif" font-size="14.00">GO:0045182 (6)</text>
</a>
</g>
<!-- c0&#45;&gt;u1 -->
<g id="edge2" class="edge"><title>c0&#45;&gt;u1</title>
<path fill="none" stroke="black" d="M5112.56,-376.778C4583.74,-375.266 1738.01,-365.251 1353,-324 1345.88,-323.237 1338.47,-322.16 1331.13,-320.915"/>
<polygon fill="black" stroke="black" points="1331.65,-317.453 1321.19,-319.125 1330.41,-324.342 1331.65,-317.453"/>
</g>
<!-- i0 -->
<g id="node4" class="node"><title>i0</title>
<a xlink:href="0003824" xlink:title="GO:0003824 (196)">
<ellipse fill="#e98576" stroke="#e98576" cx="1447" cy="-306" rx="84.1886" ry="18"/>
<text text-anchor="middle" x="1447" y="-301.8" font-family="Times,serif" font-size="14.00">GO:0003824 (196)</text>
</a>
</g>
<!-- c0&#45;&gt;i0 -->
<g id="edge78" class="edge"><title>c0&#45;&gt;i0</title>
<path fill="none" stroke="black" d="M5113.42,-375.44C4617.44,-366.181 2064.59,-318.528 1540.94,-308.754"/>
<polygon fill="black" stroke="black" points="1540.85,-305.251 1530.78,-308.564 1540.72,-312.25 1540.85,-305.251"/>
</g>
<!-- t0 -->
<g id="node8" class="node"><title>t0</title>
<a xlink:href="0030234" xlink:title="GO:0030234 (88)">
<ellipse fill="#e98576" stroke="#e98576" cx="4752" cy="-306" rx="79.4447" ry="18"/>
<text text-anchor="middle" x="4752" y="-301.8" font-family="Times,serif" font-size="14.00">GO:0030234 (88)</text>
</a>
</g>
<!-- c0&#45;&gt;t0 -->
<g id="edge6" class="edge"><title>c0&#45;&gt;t0</title>
<path fill="none" stroke="black" d="M5127.95,-367.575C5056.13,-357.57 4940.49,-340.901 4841,-324 4834.23,-322.849 4827.17,-321.597 4820.14,-320.31"/>
<polygon fill="black" stroke="black" points="4820.34,-316.788 4809.87,-318.409 4819.06,-323.671 4820.34,-316.788"/>
</g>
<!-- b0 -->
<g id="node9" class="node"><title>b0</title>
<a xlink:href="0005488" xlink:title="GO:0005488 (6)">
<ellipse fill="#e98576" stroke="#e98576" cx="4925" cy="-306" rx="75.2018" ry="18"/>
<text text-anchor="middle" x="4925" y="-301.8" font-family="Times,serif" font-size="14.00">GO:0005488 (6)</text>
</a>
</g>
<!-- c0&#45;&gt;b0 -->
<g id="edge18" class="edge"><title>c0&#45;&gt;b0</title>
<path fill="none" stroke="black" d="M5145.2,-363.669C5099.29,-351.855 5032.29,-334.611 4984.26,-322.252"/>
<polygon fill="black" stroke="black" points="4984.87,-318.795 4974.32,-319.692 4983.13,-325.574 4984.87,-318.795"/>
</g>
<!-- k0 -->
<g id="node34" class="node"><title>k0</title>
<a xlink:href="0005215" xlink:title="GO:0005215 (251)">
<ellipse fill="#e98576" stroke="#e98576" cx="5103" cy="-306" rx="84.1886" ry="18"/>
<text text-anchor="middle" x="5103" y="-301.8" font-family="Times,serif" font-size="14.00">GO:0005215 (251)</text>
</a>
</g>
<!-- c0&#45;&gt;k0 -->
<g id="edge30" class="edge"><title>c0&#45;&gt;k0</title>
<path fill="none" stroke="black" d="M5174.72,-360.411C5162.31,-351.17 5146.69,-339.536 5133.2,-329.487"/>
<polygon fill="black" stroke="black" points="5135.23,-326.635 5125.12,-323.47 5131.05,-332.25 5135.23,-326.635"/>
</g>
<!-- n0 -->
<g id="node56" class="node"><title>n0</title>
<a xlink:href="0005198" xlink:title="GO:0005198 (148)">
<ellipse fill="#e98576" stroke="#e98576" cx="5291" cy="-306" rx="84.1886" ry="18"/>
<text text-anchor="middle" x="5291" y="-301.8" font-family="Times,serif" font-size="14.00">GO:0005198 (148)</text>
</a>
</g>
<!-- c0&#45;&gt;n0 -->
<g id="edge54" class="edge"><title>c0&#45;&gt;n0</title>
<path fill="none" stroke="black" d="M5219.28,-360.411C5231.69,-351.17 5247.31,-339.536 5260.8,-329.487"/>
<polygon fill="black" stroke="black" points="5262.95,-332.25 5268.88,-323.47 5258.77,-326.635 5262.95,-332.25"/>
</g>
<!-- d1 -->
<g id="node90" class="node"><title>d1</title>
<a xlink:href="0003774" xlink:title="GO:0003774 (33)">
<ellipse fill="#e98576" stroke="#e98576" cx="5474" cy="-306" rx="79.4447" ry="18"/>
<text text-anchor="middle" x="5474" y="-301.8" font-family="Times,serif" font-size="14.00">GO:0003774 (33)</text>
</a>
</g>
<!-- c0&#45;&gt;d1 -->
<g id="edge88" class="edge"><title>c0&#45;&gt;d1</title>
<path fill="none" stroke="black" d="M5249.1,-363.834C5295.73,-352.051 5364.1,-334.772 5413.21,-322.363"/>
<polygon fill="black" stroke="black" points="5414.23,-325.714 5423.07,-319.871 5412.52,-318.928 5414.23,-325.714"/>
</g>
<!-- p0 -->
<g id="node91" class="node"><title>p0</title>
<a xlink:href="0060089" xlink:title="GO:0060089">
<ellipse fill="#dddddd" stroke="#dddddd" cx="5633" cy="-306" rx="61.1934" ry="18"/>
<text text-anchor="middle" x="5633" y="-301.8" font-family="Times,serif" font-size="14.00">GO:0060089</text>
</a>
</g>
<!-- c0&#45;&gt;p0 -->
<g id="edge124" class="edge"><title>c0&#45;&gt;p0</title>
<path fill="none" stroke="black" d="M5269,-368.505C5342.86,-359.334 5460.91,-343.4 5562,-324 5567.29,-322.985 5572.78,-321.838 5578.26,-320.632"/>
<polygon fill="black" stroke="black" points="5579.08,-324.034 5588.06,-318.411 5577.54,-317.207 5579.08,-324.034"/>
</g>
<!-- i1 -->
<g id="node99" class="node"><title>i1</title>
<a xlink:href="0016209" xlink:title="GO:0016209 (17)">
<ellipse fill="#e98576" stroke="#e98576" cx="5792" cy="-306" rx="79.4447" ry="18"/>
<text text-anchor="middle" x="5792" y="-301.8" font-family="Times,serif" font-size="14.00">GO:0016209 (17)</text>
</a>
</g>
<!-- c0&#45;&gt;i1 -->
<g id="edge96" class="edge"><title>c0&#45;&gt;i1</title>
<path fill="none" stroke="black" d="M5274.84,-370.9C5374.41,-362.626 5552.05,-346.282 5703,-324 5710.17,-322.942 5717.64,-321.714 5725.07,-320.412"/>
<polygon fill="black" stroke="black" points="5725.92,-323.815 5735.15,-318.6 5724.69,-316.925 5725.92,-323.815"/>
</g>
<!-- b2 -->
<g id="node103" class="node"><title>b2</title>
<a xlink:href="0045735" xlink:title="GO:0045735 (3)">
<ellipse fill="#e98576" stroke="#e98576" cx="5965" cy="-306" rx="75.2018" ry="18"/>
<text text-anchor="middle" x="5965" y="-301.8" font-family="Times,serif" font-size="14.00">GO:0045735 (3)</text>
</a>
</g>
<!-- c0&#45;&gt;b2 -->
<g id="edge100" class="edge"><title>c0&#45;&gt;b2</title>
<path fill="none" stroke="black" d="M5279.08,-373.814C5407.68,-368.106 5664.26,-353.835 5880,-324 5887.07,-323.022 5894.44,-321.823 5901.76,-320.518"/>
<polygon fill="black" stroke="black" points="5902.47,-323.946 5911.66,-318.684 5901.19,-317.063 5902.47,-323.946"/>
</g>
<!-- z0 -->
<g id="node6" class="node"><title>z0</title>
<a xlink:href="0016853" xlink:title="GO:0016853 (48)">
<ellipse fill="#e98576" stroke="#e98576" cx="122" cy="-234" rx="79.4447" ry="18"/>
<text text-anchor="middle" x="122" y="-229.8" font-family="Times,serif" font-size="14.00">GO:0016853 (48)</text>
</a>
</g>
<!-- i0&#45;&gt;z0 -->
<g id="edge4" class="edge"><title>i0&#45;&gt;z0</title>
<path fill="none" stroke="black" d="M1388.27,-293.006C1376.63,-291.017 1364.46,-289.21 1353,-288 848.001,-234.669 715.732,-307.81 211,-252 203.304,-251.149 195.278,-249.997 187.333,-248.691"/>
<polygon fill="black" stroke="black" points="187.793,-245.219 177.343,-246.965 186.601,-252.116 187.793,-245.219"/>
</g>
<!-- h0 -->
<g id="node23" class="node"><title>h0</title>
<a xlink:href="0016787" xlink:title="GO:0016787 (660)">
<ellipse fill="#e98576" stroke="#e98576" cx="305" cy="-234" rx="84.1886" ry="18"/>
<text text-anchor="middle" x="305" y="-229.8" font-family="Times,serif" font-size="14.00">GO:0016787 (660)</text>
</a>
</g>
<!-- i0&#45;&gt;h0 -->
<g id="edge38" class="edge"><title>i0&#45;&gt;h0</title>
<path fill="none" stroke="black" d="M1388.01,-293.048C1376.45,-291.069 1364.37,-289.255 1353,-288 963.923,-245.067 863.456,-279.717 473,-252 445.255,-250.031 415,-247.186 387.906,-244.385"/>
<polygon fill="black" stroke="black" points="387.998,-240.876 377.688,-243.316 387.269,-247.838 387.998,-240.876"/>
</g>
<!-- l0 -->
<g id="node28" class="node"><title>l0</title>
<a xlink:href="0016491" xlink:title="GO:0016491 (216)">
<ellipse fill="#e98576" stroke="#e98576" cx="567" cy="-234" rx="84.1886" ry="18"/>
<text text-anchor="middle" x="567" y="-229.8" font-family="Times,serif" font-size="14.00">GO:0016491 (216)</text>
</a>
</g>
<!-- i0&#45;&gt;l0 -->
<g id="edge48" class="edge"><title>i0&#45;&gt;l0</title>
<path fill="none" stroke="black" d="M1387.75,-293.106C1376.26,-291.134 1364.28,-289.309 1353,-288 1047.08,-252.525 966.921,-287.475 661,-252 652.977,-251.07 644.605,-249.878 636.307,-248.558"/>
<polygon fill="black" stroke="black" points="636.688,-245.074 626.251,-246.894 635.545,-251.98 636.688,-245.074"/>
</g>
<!-- j2 -->
<g id="node32" class="node"><title>j2</title>
<a xlink:href="0019239" xlink:title="GO:0019239 (1)">
<ellipse fill="#e98576" stroke="#e98576" cx="745" cy="-234" rx="75.2018" ry="18"/>
<text text-anchor="middle" x="745" y="-229.8" font-family="Times,serif" font-size="14.00">GO:0019239 (1)</text>
</a>
</g>
<!-- i0&#45;&gt;j2 -->
<g id="edge28" class="edge"><title>i0&#45;&gt;j2</title>
<path fill="none" stroke="black" d="M1387.48,-293.213C1376.07,-291.244 1364.19,-289.392 1353,-288 1121.35,-259.184 1060.34,-283.219 829,-252 822.263,-251.091 815.256,-249.965 808.288,-248.728"/>
<polygon fill="black" stroke="black" points="808.616,-245.229 798.146,-246.85 807.341,-252.112 808.616,-245.229"/>
</g>
<!-- q0 -->
<g id="node47" class="node"><title>q0</title>
<a xlink:href="0016874" xlink:title="GO:0016874 (123)">
<ellipse fill="#e98576" stroke="#e98576" cx="923" cy="-234" rx="84.1886" ry="18"/>
<text text-anchor="middle" x="923" y="-229.8" font-family="Times,serif" font-size="14.00">GO:0016874 (123)</text>
</a>
</g>
<!-- i0&#45;&gt;q0 -->
<g id="edge44" class="edge"><title>i0&#45;&gt;q0</title>
<path fill="none" stroke="black" d="M1386.43,-293.382C1375.33,-291.443 1363.83,-289.558 1353,-288 1204.34,-266.622 1165.66,-273.378 1017,-252 1009.38,-250.905 1001.44,-249.648 993.534,-248.324"/>
<polygon fill="black" stroke="black" points="994.021,-244.856 983.574,-246.618 992.84,-251.756 994.021,-244.856"/>
</g>
<!-- r0 -->
<g id="node54" class="node"><title>r0</title>
<a xlink:href="0004386" xlink:title="GO:0004386 (97)">
<ellipse fill="#e98576" stroke="#e98576" cx="1106" cy="-234" rx="79.4447" ry="18"/>
<text text-anchor="middle" x="1106" y="-229.8" font-family="Times,serif" font-size="14.00">GO:0004386 (97)</text>
</a>
</g>
<!-- i0&#45;&gt;r0 -->
<g id="edge52" class="edge"><title>i0&#45;&gt;r0</title>
<path fill="none" stroke="black" d="M1388.38,-292.967C1328.37,-280.648 1235.25,-261.533 1172.52,-248.655"/>
<polygon fill="black" stroke="black" points="1173.22,-245.226 1162.72,-246.644 1171.81,-252.083 1173.22,-245.226"/>
</g>
<!-- f2 -->
<g id="node58" class="node"><title>f2</title>
<a xlink:href="0004133" xlink:title="GO:0004133 (1)">
<ellipse fill="#e98576" stroke="#e98576" cx="1279" cy="-234" rx="75.2018" ry="18"/>
<text text-anchor="middle" x="1279" y="-229.8" font-family="Times,serif" font-size="14.00">GO:0004133 (1)</text>
</a>
</g>
<!-- i0&#45;&gt;f2 -->
<g id="edge56" class="edge"><title>i0&#45;&gt;f2</title>
<path fill="none" stroke="black" d="M1410.13,-289.638C1384.84,-279.1 1351.12,-265.05 1324.21,-253.837"/>
<polygon fill="black" stroke="black" points="1325.21,-250.461 1314.63,-249.846 1322.51,-256.923 1325.21,-250.461"/>
</g>
<!-- t1 -->
<g id="node68" class="node"><title>t1</title>
<a xlink:href="0032451" xlink:title="GO:0032451 (7)">
<ellipse fill="#e98576" stroke="#e98576" cx="1447" cy="-234" rx="75.2018" ry="18"/>
<text text-anchor="middle" x="1447" y="-229.8" font-family="Times,serif" font-size="14.00">GO:0032451 (7)</text>
</a>
</g>
<!-- i0&#45;&gt;t1 -->
<g id="edge66" class="edge"><title>i0&#45;&gt;t1</title>
<path fill="none" stroke="black" d="M1447,-287.697C1447,-279.983 1447,-270.712 1447,-262.112"/>
<polygon fill="black" stroke="black" points="1450.5,-262.104 1447,-252.104 1443.5,-262.104 1450.5,-262.104"/>
</g>
<!-- w1 -->
<g id="node79" class="node"><title>w1</title>
<a xlink:href="0008641" xlink:title="GO:0008641 (5)">
<ellipse fill="#e98576" stroke="#e98576" cx="1615" cy="-234" rx="75.2018" ry="18"/>
<text text-anchor="middle" x="1615" y="-229.8" font-family="Times,serif" font-size="14.00">GO:0008641 (5)</text>
</a>
</g>
<!-- i0&#45;&gt;w1 -->
<g id="edge76" class="edge"><title>i0&#45;&gt;w1</title>
<path fill="none" stroke="black" d="M1483.87,-289.638C1509.16,-279.1 1542.88,-265.05 1569.79,-253.837"/>
<polygon fill="black" stroke="black" points="1571.49,-256.923 1579.37,-249.846 1568.79,-250.461 1571.49,-256.923"/>
</g>
<!-- c2 -->
<g id="node95" class="node"><title>c2</title>
<a xlink:href="0004803" xlink:title="GO:0004803 (2)">
<ellipse fill="#e98576" stroke="#e98576" cx="1783" cy="-234" rx="75.2018" ry="18"/>
<text text-anchor="middle" x="1783" y="-229.8" font-family="Times,serif" font-size="14.00">GO:0004803 (2)</text>
</a>
</g>
<!-- i0&#45;&gt;c2 -->
<g id="edge92" class="edge"><title>i0&#45;&gt;c2</title>
<path fill="none" stroke="black" d="M1505.14,-292.887C1564.57,-280.506 1656.65,-261.322 1718.34,-248.471"/>
<polygon fill="black" stroke="black" points="1719.27,-251.852 1728.35,-246.386 1717.84,-244.999 1719.27,-251.852"/>
</g>
<!-- p1 -->
<g id="node107" class="node"><title>p1</title>
<a xlink:href="0009975" xlink:title="GO:0009975 (11)">
<ellipse fill="#e98576" stroke="#e98576" cx="1956" cy="-234" rx="79.4447" ry="18"/>
<text text-anchor="middle" x="1956" y="-229.8" font-family="Times,serif" font-size="14.00">GO:0009975 (11)</text>
</a>
</g>
<!-- i0&#45;&gt;p1 -->
<g id="edge104" class="edge"><title>i0&#45;&gt;p1</title>
<path fill="none" stroke="black" d="M1520.79,-297.117C1604.83,-287.809 1746.14,-271.149 1867,-252 1874.05,-250.883 1881.4,-249.628 1888.71,-248.319"/>
<polygon fill="black" stroke="black" points="1889.43,-251.746 1898.64,-246.508 1888.18,-244.859 1889.43,-251.746"/>
</g>
<!-- j0 -->
<g id="node112" class="node"><title>j0</title>
<a xlink:href="0016740" xlink:title="GO:0016740 (556)">
<ellipse fill="#e98576" stroke="#e98576" cx="2139" cy="-234" rx="84.1886" ry="18"/>
<text text-anchor="middle" x="2139" y="-229.8" font-family="Times,serif" font-size="14.00">GO:0016740 (556)</text>
</a>
</g>
<!-- i0&#45;&gt;j0 -->
<g id="edge110" class="edge"><title>i0&#45;&gt;j0</title>
<path fill="none" stroke="black" d="M1526.91,-300.163C1641.67,-292.704 1859.64,-276.629 2044,-252 2051.97,-250.935 2060.29,-249.672 2068.55,-248.323"/>
<polygon fill="black" stroke="black" points="2069.28,-251.749 2078.56,-246.642 2068.12,-244.846 2069.28,-251.749"/>
</g>
<!-- x0 -->
<g id="node124" class="node"><title>x0</title>
<a xlink:href="0016829" xlink:title="GO:0016829 (51)">
<ellipse fill="#e98576" stroke="#e98576" cx="2322" cy="-234" rx="79.4447" ry="18"/>
<text text-anchor="middle" x="2322" y="-229.8" font-family="Times,serif" font-size="14.00">GO:0016829 (51)</text>
</a>
</g>
<!-- i0&#45;&gt;x0 -->
<g id="edge122" class="edge"><title>i0&#45;&gt;x0</title>
<path fill="none" stroke="black" d="M1530.1,-302.646C1673.72,-297.852 1977.44,-284.517 2232,-252 2239.65,-251.022 2247.64,-249.805 2255.55,-248.473"/>
<polygon fill="black" stroke="black" points="2256.26,-251.902 2265.51,-246.735 2255.06,-245.007 2256.26,-251.902"/>
</g>
<!-- h1 -->
<g id="node11" class="node"><title>h1</title>
<a xlink:href="0042277" xlink:title="GO:0042277 (18)">
<ellipse fill="#e98576" stroke="#e98576" cx="2500" cy="-234" rx="79.4447" ry="18"/>
<text text-anchor="middle" x="2500" y="-229.8" font-family="Times,serif" font-size="14.00">GO:0042277 (18)</text>
</a>
</g>
<!-- b0&#45;&gt;h1 -->
<g id="edge8" class="edge"><title>b0&#45;&gt;h1</title>
<path fill="none" stroke="black" d="M4872.63,-292.98C4861.89,-290.952 4850.62,-289.138 4840,-288 4342.56,-234.724 3086.67,-303.122 2589,-252 2581.3,-251.209 2573.27,-250.093 2565.32,-248.808"/>
<polygon fill="black" stroke="black" points="2565.78,-245.335 2555.33,-247.1 2564.6,-252.235 2565.78,-245.335"/>
</g>
<!-- l2 -->
<g id="node13" class="node"><title>l2</title>
<a xlink:href="0019825" xlink:title="GO:0019825 (1)">
<ellipse fill="#e98576" stroke="#e98576" cx="2673" cy="-234" rx="75.2018" ry="18"/>
<text text-anchor="middle" x="2673" y="-229.8" font-family="Times,serif" font-size="14.00">GO:0019825 (1)</text>
</a>
</g>
<!-- b0&#45;&gt;l2 -->
<g id="edge10" class="edge"><title>b0&#45;&gt;l2</title>
<path fill="none" stroke="black" d="M4872.63,-292.991C4861.89,-290.962 4850.62,-289.145 4840,-288 3919.41,-188.804 3677.47,-352.249 2757,-252 2749.88,-251.225 2742.47,-250.14 2735.13,-248.89"/>
<polygon fill="black" stroke="black" points="2735.66,-245.429 2725.2,-247.096 2734.41,-252.318 2735.66,-245.429"/>
</g>
<!-- x1 -->
<g id="node15" class="node"><title>x1</title>
<a xlink:href="0033218" xlink:title="GO:0033218 (5)">
<ellipse fill="#e98576" stroke="#e98576" cx="2841" cy="-234" rx="75.2018" ry="18"/>
<text text-anchor="middle" x="2841" y="-229.8" font-family="Times,serif" font-size="14.00">GO:0033218 (5)</text>
</a>
</g>
<!-- b0&#45;&gt;x1 -->
<g id="edge12" class="edge"><title>b0&#45;&gt;x1</title>
<path fill="none" stroke="black" d="M4872.63,-293.004C4861.89,-290.974 4850.62,-289.153 4840,-288 3993.71,-196.161 3771.19,-344.807 2925,-252 2917.88,-251.219 2910.47,-250.131 2903.13,-248.879"/>
<polygon fill="black" stroke="black" points="2903.66,-245.418 2893.2,-247.084 2902.41,-252.307 2903.66,-245.418"/>
</g>
<!-- d0 -->
<g id="node17" class="node"><title>d0</title>
<a xlink:href="0005515" xlink:title="GO:0005515 (986)">
<ellipse fill="#e98576" stroke="#e98576" cx="3019" cy="-234" rx="84.1886" ry="18"/>
<text text-anchor="middle" x="3019" y="-229.8" font-family="Times,serif" font-size="14.00">GO:0005515 (986)</text>
</a>
</g>
<!-- b0&#45;&gt;d0 -->
<g id="edge14" class="edge"><title>b0&#45;&gt;d0</title>
<path fill="none" stroke="black" d="M4872.63,-293.021C4861.89,-290.989 4850.62,-289.164 4840,-288 4076.84,-204.393 3876.9,-328.553 3113,-252 3104.7,-251.168 3096.03,-250.006 3087.46,-248.677"/>
<polygon fill="black" stroke="black" points="3087.9,-245.203 3077.47,-247.049 3086.77,-252.112 3087.9,-245.203"/>
</g>
<!-- o1 -->
<g id="node19" class="node"><title>o1</title>
<a xlink:href="0043021" xlink:title="GO:0043021 (11)">
<ellipse fill="#e98576" stroke="#e98576" cx="3202" cy="-234" rx="79.4447" ry="18"/>
<text text-anchor="middle" x="3202" y="-229.8" font-family="Times,serif" font-size="14.00">GO:0043021 (11)</text>
</a>
</g>
<!-- b0&#45;&gt;o1 -->
<g id="edge16" class="edge"><title>b0&#45;&gt;o1</title>
<path fill="none" stroke="black" d="M4872.63,-293.041C4861.89,-291.008 4850.62,-289.176 4840,-288 4155.56,-212.187 3975.77,-324.849 3291,-252 3283.3,-251.181 3275.27,-250.048 3267.33,-248.753"/>
<polygon fill="black" stroke="black" points="3267.78,-245.281 3257.34,-247.037 3266.6,-252.18 3267.78,-245.281"/>
</g>
<!-- a2 -->
<g id="node22" class="node"><title>a2</title>
<a xlink:href="0042562" xlink:title="GO:0042562 (4)">
<ellipse fill="#e98576" stroke="#e98576" cx="3375" cy="-234" rx="75.2018" ry="18"/>
<text text-anchor="middle" x="3375" y="-229.8" font-family="Times,serif" font-size="14.00">GO:0042562 (4)</text>
</a>
</g>
<!-- b0&#45;&gt;a2 -->
<g id="edge20" class="edge"><title>b0&#45;&gt;a2</title>
<path fill="none" stroke="black" d="M4872.62,-293.064C4861.88,-291.029 4850.62,-289.191 4840,-288 4229.84,-219.543 4069.08,-321.155 3459,-252 3451.89,-251.193 3444.48,-250.089 3437.14,-248.828"/>
<polygon fill="black" stroke="black" points="3437.67,-245.368 3427.2,-247.024 3436.42,-252.255 3437.67,-245.368"/>
</g>
<!-- r1 -->
<g id="node27" class="node"><title>r1</title>
<a xlink:href="0005496" xlink:title="GO:0005496 (8)">
<ellipse fill="#e98576" stroke="#e98576" cx="3543" cy="-234" rx="75.2018" ry="18"/>
<text text-anchor="middle" x="3543" y="-229.8" font-family="Times,serif" font-size="14.00">GO:0005496 (8)</text>
</a>
</g>
<!-- b0&#45;&gt;r1 -->
<g id="edge24" class="edge"><title>b0&#45;&gt;r1</title>
<path fill="none" stroke="black" d="M4872.62,-293.094C4861.88,-291.057 4850.62,-289.21 4840,-288 4304.12,-226.898 4162.81,-313.715 3627,-252 3619.89,-251.181 3612.48,-250.069 3605.14,-248.803"/>
<polygon fill="black" stroke="black" points="3605.67,-245.342 3595.21,-246.995 3604.42,-252.229 3605.67,-245.342"/>
</g>
<!-- a0 -->
<g id="node36" class="node"><title>a0</title>
<a xlink:href="0043167" xlink:title="GO:0043167 (1358)">
<ellipse fill="#e98576" stroke="#e98576" cx="3726" cy="-234" rx="89.4296" ry="18"/>
<text text-anchor="middle" x="3726" y="-229.8" font-family="Times,serif" font-size="14.00">GO:0043167 (1358)</text>
</a>
</g>
<!-- b0&#45;&gt;a0 -->
<g id="edge32" class="edge"><title>b0&#45;&gt;a0</title>
<path fill="none" stroke="black" d="M4872.16,-293.056C4861.56,-291.049 4850.46,-289.224 4840,-288 4391.66,-235.565 4274.01,-298.302 3825,-252 3816.3,-251.103 3807.22,-249.906 3798.23,-248.56"/>
<polygon fill="black" stroke="black" points="3798.56,-245.07 3788.14,-246.985 3797.48,-251.986 3798.56,-245.07"/>
</g>
<!-- k1 -->
<g id="node38" class="node"><title>k1</title>
<a xlink:href="0043176" xlink:title="GO:0043176">
<ellipse fill="#dddddd" stroke="#dddddd" cx="3895" cy="-234" rx="61.1934" ry="18"/>
<text text-anchor="middle" x="3895" y="-229.8" font-family="Times,serif" font-size="14.00">GO:0043176</text>
</a>
</g>
<!-- b0&#45;&gt;k1 -->
<g id="edge34" class="edge"><title>b0&#45;&gt;k1</title>
<path fill="none" stroke="black" d="M4872.15,-293.103C4861.55,-291.093 4850.46,-289.254 4840,-288 4453.99,-241.737 4351.07,-305.515 3966,-252 3960.21,-251.195 3954.2,-250.129 3948.24,-248.921"/>
<polygon fill="black" stroke="black" points="3948.82,-245.464 3938.3,-246.775 3947.34,-252.307 3948.82,-245.464"/>
</g>
<!-- e2 -->
<g id="node40" class="node"><title>e2</title>
<a xlink:href="0002054" xlink:title="GO:0002054 (1)">
<ellipse fill="#e98576" stroke="#e98576" cx="4050" cy="-234" rx="75.2018" ry="18"/>
<text text-anchor="middle" x="4050" y="-229.8" font-family="Times,serif" font-size="14.00">GO:0002054 (1)</text>
</a>
</g>
<!-- b0&#45;&gt;e2 -->
<g id="edge36" class="edge"><title>b0&#45;&gt;e2</title>
<path fill="none" stroke="black" d="M4872.15,-293.184C4861.55,-291.167 4850.45,-289.305 4840,-288 4528.23,-249.087 4445.72,-291.269 4134,-252 4127.16,-251.138 4120.04,-250.03 4112.97,-248.795"/>
<polygon fill="black" stroke="black" points="4113.14,-245.27 4102.68,-246.907 4111.88,-252.154 4113.14,-245.27"/>
</g>
<!-- y1 -->
<g id="node43" class="node"><title>y1</title>
<a xlink:href="0043178" xlink:title="GO:0043178 (5)">
<ellipse fill="#e98576" stroke="#e98576" cx="4218" cy="-234" rx="75.2018" ry="18"/>
<text text-anchor="middle" x="4218" y="-229.8" font-family="Times,serif" font-size="14.00">GO:0043178 (5)</text>
</a>
</g>
<!-- b0&#45;&gt;y1 -->
<g id="edge40" class="edge"><title>b0&#45;&gt;y1</title>
<path fill="none" stroke="black" d="M4871.67,-293.229C4861.21,-291.233 4850.29,-289.368 4840,-288 4602.44,-256.434 4539.52,-283.838 4302,-252 4295.26,-251.097 4288.25,-249.975 4281.29,-248.74"/>
<polygon fill="black" stroke="black" points="4281.61,-245.241 4271.14,-246.864 4280.34,-252.125 4281.61,-245.241"/>
</g>
<!-- f1 -->
<g id="node45" class="node"><title>f1</title>
<a xlink:href="0030246" xlink:title="GO:0030246 (23)">
<ellipse fill="#e98576" stroke="#e98576" cx="4391" cy="-234" rx="79.4447" ry="18"/>
<text text-anchor="middle" x="4391" y="-229.8" font-family="Times,serif" font-size="14.00">GO:0030246 (23)</text>
</a>
</g>
<!-- b0&#45;&gt;f1 -->
<g id="edge42" class="edge"><title>b0&#45;&gt;f1</title>
<path fill="none" stroke="black" d="M4871.18,-293.411C4860.86,-291.424 4850.12,-289.514 4840,-288 4680.97,-264.204 4639.13,-275.107 4480,-252 4472.83,-250.959 4465.36,-249.742 4457.93,-248.446"/>
<polygon fill="black" stroke="black" points="4458.31,-244.959 4447.85,-246.64 4457.07,-251.849 4458.31,-244.959"/>
</g>
<!-- g0 -->
<g id="node49" class="node"><title>g0</title>
<a xlink:href="0003676" xlink:title="GO:0003676 (676)">
<ellipse fill="#e98576" stroke="#e98576" cx="4574" cy="-234" rx="84.1886" ry="18"/>
<text text-anchor="middle" x="4574" y="-229.8" font-family="Times,serif" font-size="14.00">GO:0003676 (676)</text>
</a>
</g>
<!-- b0&#45;&gt;g0 -->
<g id="edge46" class="edge"><title>b0&#45;&gt;g0</title>
<path fill="none" stroke="black" d="M4869.22,-293.838C4859.48,-291.891 4849.45,-289.885 4840,-288 4773.3,-274.685 4697.19,-259.523 4643.52,-248.837"/>
<polygon fill="black" stroke="black" points="4643.92,-245.348 4633.43,-246.828 4642.55,-252.214 4643.92,-245.348"/>
</g>
<!-- k2 -->
<g id="node52" class="node"><title>k2</title>
<a xlink:href="0001871" xlink:title="GO:0001871 (1)">
<ellipse fill="#e98576" stroke="#e98576" cx="4752" cy="-234" rx="75.2018" ry="18"/>
<text text-anchor="middle" x="4752" y="-229.8" font-family="Times,serif" font-size="14.00">GO:0001871 (1)</text>
</a>
</g>
<!-- b0&#45;&gt;k2 -->
<g id="edge50" class="edge"><title>b0&#45;&gt;k2</title>
<path fill="none" stroke="black" d="M4888.31,-290.155C4861.93,-279.482 4826.18,-265.016 4797.91,-253.577"/>
<polygon fill="black" stroke="black" points="4799.22,-250.33 4788.64,-249.824 4796.59,-256.819 4799.22,-250.33"/>
</g>
<!-- b1 -->
<g id="node60" class="node"><title>b1</title>
<a xlink:href="0003682" xlink:title="GO:0003682 (46)">
<ellipse fill="#e98576" stroke="#e98576" cx="4925" cy="-234" rx="79.4447" ry="18"/>
<text text-anchor="middle" x="4925" y="-229.8" font-family="Times,serif" font-size="14.00">GO:0003682 (46)</text>
</a>
</g>
<!-- b0&#45;&gt;b1 -->
<g id="edge58" class="edge"><title>b0&#45;&gt;b1</title>
<path fill="none" stroke="black" d="M4925,-287.697C4925,-279.983 4925,-270.712 4925,-262.112"/>
<polygon fill="black" stroke="black" points="4928.5,-262.104 4925,-252.104 4921.5,-262.104 4928.5,-262.104"/>
</g>
<!-- s0 -->
<g id="node62" class="node"><title>s0</title>
<a xlink:href="0048037" xlink:title="GO:0048037 (89)">
<ellipse fill="#e98576" stroke="#e98576" cx="5103" cy="-234" rx="79.4447" ry="18"/>
<text text-anchor="middle" x="5103" y="-229.8" font-family="Times,serif" font-size="14.00">GO:0048037 (89)</text>
</a>
</g>
<!-- b0&#45;&gt;s0 -->
<g id="edge60" class="edge"><title>b0&#45;&gt;s0</title>
<path fill="none" stroke="black" d="M4962.31,-290.326C4989.43,-279.664 5026.33,-265.152 5055.54,-253.666"/>
<polygon fill="black" stroke="black" points="5057.1,-256.813 5065.12,-249.896 5054.53,-250.299 5057.1,-256.813"/>
</g>
<!-- g2 -->
<g id="node64" class="node"><title>g2</title>
<a xlink:href="0050840" xlink:title="GO:0050840 (1)">
<ellipse fill="#e98576" stroke="#e98576" cx="5276" cy="-234" rx="75.2018" ry="18"/>
<text text-anchor="middle" x="5276" y="-229.8" font-family="Times,serif" font-size="14.00">GO:0050840 (1)</text>
</a>
</g>
<!-- b0&#45;&gt;g2 -->
<g id="edge62" class="edge"><title>b0&#45;&gt;g2</title>
<path fill="none" stroke="black" d="M4980.57,-293.718C4990.05,-291.803 4999.81,-289.839 5009,-288 5089.85,-271.822 5110.13,-268.085 5191,-252 5197.2,-250.767 5203.65,-249.481 5210.11,-248.193"/>
<polygon fill="black" stroke="black" points="5211.1,-251.564 5220.22,-246.173 5209.73,-244.699 5211.1,-251.564"/>
</g>
<!-- z1 -->
<g id="node66" class="node"><title>z1</title>
<a xlink:href="0003823" xlink:title="GO:0003823 (5)">
<ellipse fill="#e98576" stroke="#e98576" cx="5444" cy="-234" rx="75.2018" ry="18"/>
<text text-anchor="middle" x="5444" y="-229.8" font-family="Times,serif" font-size="14.00">GO:0003823 (5)</text>
</a>
</g>
<!-- b0&#45;&gt;z1 -->
<g id="edge64" class="edge"><title>b0&#45;&gt;z1</title>
<path fill="none" stroke="black" d="M4978.63,-293.335C4988.69,-291.378 4999.14,-289.499 5009,-288 5164.04,-264.419 5204.96,-275.581 5360,-252 5366.62,-250.993 5373.51,-249.814 5380.37,-248.556"/>
<polygon fill="black" stroke="black" points="5381.19,-251.963 5390.37,-246.665 5379.89,-245.085 5381.19,-251.963"/>
</g>
<!-- y0 -->
<g id="node70" class="node"><title>y0</title>
<a xlink:href="0008289" xlink:title="GO:0008289 (49)">
<ellipse fill="#e98576" stroke="#e98576" cx="5617" cy="-234" rx="79.4447" ry="18"/>
<text text-anchor="middle" x="5617" y="-229.8" font-family="Times,serif" font-size="14.00">GO:0008289 (49)</text>
</a>
</g>
<!-- b0&#45;&gt;y0 -->
<g id="edge68" class="edge"><title>b0&#45;&gt;y0</title>
<path fill="none" stroke="black" d="M4978.15,-293.156C4988.35,-291.192 4998.97,-289.356 5009,-288 5238.13,-257.002 5298.7,-281.744 5528,-252 5535.38,-251.043 5543.06,-249.86 5550.7,-248.567"/>
<polygon fill="black" stroke="black" points="5551.42,-251.992 5560.67,-246.813 5550.21,-245.098 5551.42,-251.992"/>
</g>
<!-- f0 -->
<g id="node82" class="node"><title>f0</title>
<a xlink:href="0001882" xlink:title="GO:0001882 (709)">
<ellipse fill="#e98576" stroke="#e98576" cx="5800" cy="-234" rx="84.1886" ry="18"/>
<text text-anchor="middle" x="5800" y="-229.8" font-family="Times,serif" font-size="14.00">GO:0001882 (709)</text>
</a>
</g>
<!-- b0&#45;&gt;f0 -->
<g id="edge80" class="edge"><title>b0&#45;&gt;f0</title>
<path fill="none" stroke="black" d="M4977.68,-293.099C4988.02,-291.115 4998.81,-289.287 5009,-288 5316.3,-249.173 5397.28,-287.35 5705,-252 5713.31,-251.045 5722,-249.815 5730.6,-248.454"/>
<polygon fill="black" stroke="black" points="5731.32,-251.882 5740.62,-246.805 5730.19,-244.975 5731.32,-251.882"/>
</g>
<!-- v1 -->
<g id="node84" class="node"><title>v1</title>
<a xlink:href="0008144" xlink:title="GO:0008144 (5)">
<ellipse fill="#e98576" stroke="#e98576" cx="5978" cy="-234" rx="75.2018" ry="18"/>
<text text-anchor="middle" x="5978" y="-229.8" font-family="Times,serif" font-size="14.00">GO:0008144 (5)</text>
</a>
</g>
<!-- b0&#45;&gt;v1 -->
<g id="edge82" class="edge"><title>b0&#45;&gt;v1</title>
<path fill="none" stroke="black" d="M4977.67,-293.01C4988.01,-291.033 4998.81,-289.231 5009,-288 5399.38,-240.852 5502.57,-298.701 5893,-252 5900.19,-251.14 5907.68,-250.002 5915.11,-248.722"/>
<polygon fill="black" stroke="black" points="5915.94,-252.128 5925.16,-246.901 5914.69,-245.24 5915.94,-252.128"/>
</g>
<!-- n1 -->
<g id="node86" class="node"><title>n1</title>
<a xlink:href="0019842" xlink:title="GO:0019842 (13)">
<ellipse fill="#e98576" stroke="#e98576" cx="6151" cy="-234" rx="79.4447" ry="18"/>
<text text-anchor="middle" x="6151" y="-229.8" font-family="Times,serif" font-size="14.00">GO:0019842 (13)</text>
</a>
</g>
<!-- b0&#45;&gt;n1 -->
<g id="edge84" class="edge"><title>b0&#45;&gt;n1</title>
<path fill="none" stroke="black" d="M4977.21,-293.042C4987.69,-291.037 4998.66,-289.215 5009,-288 5474.08,-233.37 5596.63,-304.084 6062,-252 6069.69,-251.139 6077.72,-249.98 6085.66,-248.671"/>
<polygon fill="black" stroke="black" points="6086.4,-252.096 6095.65,-246.942 6085.2,-245.199 6086.4,-252.096"/>
</g>
<!-- m1 -->
<g id="node97" class="node"><title>m1</title>
<a xlink:href="0060090" xlink:title="GO:0060090 (14)">
<ellipse fill="#e98576" stroke="#e98576" cx="6329" cy="-234" rx="79.4447" ry="18"/>
<text text-anchor="middle" x="6329" y="-229.8" font-family="Times,serif" font-size="14.00">GO:0060090 (14)</text>
</a>
</g>
<!-- b0&#45;&gt;m1 -->
<g id="edge94" class="edge"><title>b0&#45;&gt;m1</title>
<path fill="none" stroke="black" d="M4977.21,-293.002C4987.68,-291 4998.65,-289.19 5009,-288 5552.32,-225.532 5695.28,-310.937 6239,-252 6246.98,-251.135 6255.31,-249.95 6263.55,-248.605"/>
<polygon fill="black" stroke="black" points="6264.25,-252.036 6273.51,-246.896 6263.07,-245.137 6264.25,-252.036"/>
</g>
<!-- s1 -->
<g id="node105" class="node"><title>s1</title>
<a xlink:href="0031406" xlink:title="GO:0031406 (8)">
<ellipse fill="#e98576" stroke="#e98576" cx="6502" cy="-234" rx="75.2018" ry="18"/>
<text text-anchor="middle" x="6502" y="-229.8" font-family="Times,serif" font-size="14.00">GO:0031406 (8)</text>
</a>
</g>
<!-- b0&#45;&gt;s1 -->
<g id="edge102" class="edge"><title>b0&#45;&gt;s1</title>
<path fill="none" stroke="black" d="M4977.2,-292.972C4987.68,-290.972 4998.65,-289.171 5009,-288 5631.02,-217.649 5794.9,-321.639 6417,-252 6424.38,-251.173 6432.08,-250.034 6439.69,-248.732"/>
<polygon fill="black" stroke="black" points="6440.4,-252.16 6449.62,-246.94 6439.16,-245.272 6440.4,-252.16"/>
</g>
<!-- a1 -->
<g id="node114" class="node"><title>a1</title>
<a xlink:href="0046906" xlink:title="GO:0046906 (46)">
<ellipse fill="#e98576" stroke="#e98576" cx="6675" cy="-234" rx="79.4447" ry="18"/>
<text text-anchor="middle" x="6675" y="-229.8" font-family="Times,serif" font-size="14.00">GO:0046906 (46)</text>
</a>
</g>
<!-- b0&#45;&gt;a1 -->
<g id="edge112" class="edge"><title>b0&#45;&gt;a1</title>
<path fill="none" stroke="black" d="M4977.2,-292.949C4987.68,-290.951 4998.65,-289.156 5009,-288 5705.74,-210.164 5888.85,-326.022 6586,-252 6593.7,-251.183 6601.73,-250.051 6609.67,-248.756"/>
<polygon fill="black" stroke="black" points="6610.4,-252.183 6619.67,-247.041 6609.22,-245.284 6610.4,-252.183"/>
</g>
<!-- e0 -->
<g id="node116" class="node"><title>e0</title>
<a xlink:href="0000166" xlink:title="GO:0000166 (856)">
<ellipse fill="#e98576" stroke="#e98576" cx="6858" cy="-234" rx="84.1886" ry="18"/>
<text text-anchor="middle" x="6858" y="-229.8" font-family="Times,serif" font-size="14.00">GO:0000166 (856)</text>
</a>
</g>
<!-- b0&#45;&gt;e0 -->
<g id="edge114" class="edge"><title>b0&#45;&gt;e0</title>
<path fill="none" stroke="black" d="M4977.2,-292.93C4987.68,-290.934 4998.65,-289.144 5009,-288 5784,-202.324 5987.08,-328.909 6763,-252 6771.6,-251.147 6780.59,-249.948 6789.47,-248.577"/>
<polygon fill="black" stroke="black" points="6790.1,-252.019 6799.42,-246.964 6788.98,-245.11 6790.1,-252.019"/>
</g>
<!-- i2 -->
<g id="node118" class="node"><title>i2</title>
<a xlink:href="0031409" xlink:title="GO:0031409 (1)">
<ellipse fill="#e98576" stroke="#e98576" cx="7036" cy="-234" rx="75.2018" ry="18"/>
<text text-anchor="middle" x="7036" y="-229.8" font-family="Times,serif" font-size="14.00">GO:0031409 (1)</text>
</a>
</g>
<!-- b0&#45;&gt;i2 -->
<g id="edge116" class="edge"><title>b0&#45;&gt;i2</title>
<path fill="none" stroke="black" d="M4977.2,-292.914C4987.67,-290.919 4998.65,-289.134 5009,-288 5867.13,-193.997 6092.77,-345.021 6951,-252 6958.39,-251.199 6966.08,-250.075 6973.7,-248.783"/>
<polygon fill="black" stroke="black" points="6974.41,-252.212 6983.63,-246.999 6973.17,-245.322 6974.41,-252.212"/>
</g>
<!-- h2 -->
<g id="node120" class="node"><title>h2</title>
<a xlink:href="0042165" xlink:title="GO:0042165 (1)">
<ellipse fill="#e98576" stroke="#e98576" cx="7204" cy="-234" rx="75.2018" ry="18"/>
<text text-anchor="middle" x="7204" y="-229.8" font-family="Times,serif" font-size="14.00">GO:0042165 (1)</text>
</a>
</g>
<!-- b0&#45;&gt;h2 -->
<g id="edge118" class="edge"><title>b0&#45;&gt;h2</title>
<path fill="none" stroke="black" d="M4977.2,-292.902C4987.67,-290.908 4998.65,-289.126 5009,-288 5941.85,-186.511 6187.15,-353.489 7120,-252 7127.12,-251.226 7134.53,-250.141 7141.87,-248.892"/>
<polygon fill="black" stroke="black" points="7142.59,-252.319 7151.8,-247.098 7141.34,-245.431 7142.59,-252.319"/>
</g>
<!-- d2 -->
<g id="node122" class="node"><title>d2</title>
<a xlink:href="0019840" xlink:title="GO:0019840 (2)">
<ellipse fill="#e98576" stroke="#e98576" cx="7372" cy="-234" rx="75.2018" ry="18"/>
<text text-anchor="middle" x="7372" y="-229.8" font-family="Times,serif" font-size="14.00">GO:0019840 (2)</text>
</a>
</g>
<!-- b0&#45;&gt;d2 -->
<g id="edge120" class="edge"><title>b0&#45;&gt;d2</title>
<path fill="none" stroke="black" d="M4977.19,-292.892C4987.67,-290.899 4998.65,-289.12 5009,-288 5512.57,-233.535 6784.43,-306.465 7288,-252 7295.12,-251.23 7302.53,-250.149 7309.87,-248.9"/>
<polygon fill="black" stroke="black" points="7310.59,-252.328 7319.81,-247.108 7309.34,-245.439 7310.59,-252.328"/>
</g>
<!-- e1 -->
<g id="node127" class="node"><title>e1</title>
<a xlink:href="0051540" xlink:title="GO:0051540 (23)">
<ellipse fill="#e98576" stroke="#e98576" cx="7545" cy="-234" rx="79.4447" ry="18"/>
<text text-anchor="middle" x="7545" y="-229.8" font-family="Times,serif" font-size="14.00">GO:0051540 (23)</text>
</a>
</g>
<!-- b0&#45;&gt;e1 -->
<g id="edge126" class="edge"><title>b0&#45;&gt;e1</title>
<path fill="none" stroke="black" d="M4977.19,-292.883C4987.67,-290.89 4998.64,-289.114 5009,-288 5549.71,-229.814 6914.97,-307.226 7456,-252 7463.7,-251.214 7471.73,-250.101 7479.68,-248.818"/>
<polygon fill="black" stroke="black" points="7480.4,-252.245 7489.67,-247.111 7479.23,-245.345 7480.4,-252.245"/>
</g>
<!-- m0 -->
<g id="node25" class="node"><title>m0</title>
<a xlink:href="0008233" xlink:title="GO:0008233 (161)">
<ellipse fill="#e98576" stroke="#e98576" cx="84" cy="-162" rx="84.1886" ry="18"/>
<text text-anchor="middle" x="84" y="-157.8" font-family="Times,serif" font-size="14.00">GO:0008233 (161)</text>
</a>
</g>
<!-- h0&#45;&gt;m0 -->
<g id="edge22" class="edge"><title>h0&#45;&gt;m0</title>
<path fill="none" stroke="black" d="M260.011,-218.75C225.024,-207.668 176.322,-192.242 139.015,-180.426"/>
<polygon fill="black" stroke="black" points="139.895,-177.033 129.305,-177.35 137.781,-183.706 139.895,-177.033"/>
</g>
<!-- q1 -->
<g id="node101" class="node"><title>q1</title>
<a xlink:href="0019213" xlink:title="GO:0019213 (11)">
<ellipse fill="#e98576" stroke="#e98576" cx="267" cy="-162" rx="79.4447" ry="18"/>
<text text-anchor="middle" x="267" y="-157.8" font-family="Times,serif" font-size="14.00">GO:0019213 (11)</text>
</a>
</g>
<!-- h0&#45;&gt;q1 -->
<g id="edge98" class="edge"><title>h0&#45;&gt;q1</title>
<path fill="none" stroke="black" d="M295.801,-216.055C291.432,-208.007 286.111,-198.205 281.237,-189.226"/>
<polygon fill="black" stroke="black" points="284.225,-187.394 276.378,-180.275 278.073,-190.734 284.225,-187.394"/>
</g>
<!-- c1 -->
<g id="node30" class="node"><title>c1</title>
<a xlink:href="0004497" xlink:title="GO:0004497 (34)">
<ellipse fill="#e98576" stroke="#e98576" cx="445" cy="-162" rx="79.4447" ry="18"/>
<text text-anchor="middle" x="445" y="-157.8" font-family="Times,serif" font-size="14.00">GO:0004497 (34)</text>
</a>
</g>
<!-- l0&#45;&gt;c1 -->
<g id="edge26" class="edge"><title>l0&#45;&gt;c1</title>
<path fill="none" stroke="black" d="M539.011,-216.941C521.962,-207.159 499.991,-194.552 481.576,-183.986"/>
<polygon fill="black" stroke="black" points="483.275,-180.926 472.859,-178.985 479.791,-186.997 483.275,-180.926"/>
</g>
<!-- g1 -->
<g id="node72" class="node"><title>g1</title>
<a xlink:href="0051213" xlink:title="GO:0051213 (19)">
<ellipse fill="#e98576" stroke="#e98576" cx="623" cy="-162" rx="79.4447" ry="18"/>
<text text-anchor="middle" x="623" y="-157.8" font-family="Times,serif" font-size="14.00">GO:0051213 (19)</text>
</a>
</g>
<!-- l0&#45;&gt;g1 -->
<g id="edge70" class="edge"><title>l0&#45;&gt;g1</title>
<path fill="none" stroke="black" d="M580.556,-216.055C587.366,-207.543 595.745,-197.068 603.255,-187.681"/>
<polygon fill="black" stroke="black" points="606.055,-189.784 609.569,-179.789 600.589,-185.411 606.055,-189.784"/>
</g>
<!-- l1 -->
<g id="node109" class="node"><title>l1</title>
<a xlink:href="0009055" xlink:title="GO:0009055 (15)">
<ellipse fill="#e98576" stroke="#e98576" cx="801" cy="-162" rx="79.4447" ry="18"/>
<text text-anchor="middle" x="801" y="-157.8" font-family="Times,serif" font-size="14.00">GO:0009055 (15)</text>
</a>
</g>
<!-- l0&#45;&gt;l1 -->
<g id="edge106" class="edge"><title>l0&#45;&gt;l1</title>
<path fill="none" stroke="black" d="M613.791,-219.003C651.741,-207.65 705.329,-191.619 745.453,-179.616"/>
<polygon fill="black" stroke="black" points="746.51,-182.954 755.088,-176.734 744.504,-176.247 746.51,-182.954"/>
</g>
<!-- j1 -->
<g id="node88" class="node"><title>j1</title>
<a xlink:href="0016597" xlink:title="GO:0016597 (17)">
<ellipse fill="#e98576" stroke="#e98576" cx="3895" cy="-162" rx="79.4447" ry="18"/>
<text text-anchor="middle" x="3895" y="-157.8" font-family="Times,serif" font-size="14.00">GO:0016597 (17)</text>
</a>
</g>
<!-- k1&#45;&gt;j1 -->
<g id="edge86" class="edge"><title>k1&#45;&gt;j1</title>
<path fill="none" stroke="black" d="M3895,-215.697C3895,-207.983 3895,-198.712 3895,-190.112"/>
<polygon fill="black" stroke="black" points="3898.5,-190.104 3895,-180.104 3891.5,-190.104 3898.5,-190.104"/>
</g>
<!-- w0 -->
<g id="node74" class="node"><title>w0</title>
<a xlink:href="0016879" xlink:title="GO:0016879">
<ellipse fill="#dddddd" stroke="#dddddd" cx="960" cy="-162" rx="61.1934" ry="18"/>
<text text-anchor="middle" x="960" y="-157.8" font-family="Times,serif" font-size="14.00">GO:0016879</text>
</a>
</g>
<!-- q0&#45;&gt;w0 -->
<g id="edge72" class="edge"><title>q0&#45;&gt;w0</title>
<path fill="none" stroke="black" d="M931.957,-216.055C936.211,-208.007 941.392,-198.205 946.138,-189.226"/>
<polygon fill="black" stroke="black" points="949.29,-190.752 950.869,-180.275 943.101,-187.481 949.29,-190.752"/>
</g>
<!-- v0 -->
<g id="node75" class="node"><title>v0</title>
<a xlink:href="0016881" xlink:title="GO:0016881">
<ellipse fill="#dddddd" stroke="#dddddd" cx="960" cy="-90" rx="61.1934" ry="18"/>
<text text-anchor="middle" x="960" y="-85.8" font-family="Times,serif" font-size="14.00">GO:0016881</text>
</a>
</g>
<!-- w0&#45;&gt;v0 -->
<g id="edge108" class="edge"><title>w0&#45;&gt;v0</title>
<path fill="none" stroke="black" d="M960,-143.697C960,-135.983 960,-126.712 960,-118.112"/>
<polygon fill="black" stroke="black" points="963.5,-118.104 960,-108.104 956.5,-118.104 963.5,-118.104"/>
</g>
<!-- u0 -->
<g id="node77" class="node"><title>u0</title>
<a xlink:href="0019787" xlink:title="GO:0019787 (56)">
<ellipse fill="#e98576" stroke="#e98576" cx="960" cy="-18" rx="79.4447" ry="18"/>
<text text-anchor="middle" x="960" y="-13.8" font-family="Times,serif" font-size="14.00">GO:0019787 (56)</text>
</a>
</g>
<!-- v0&#45;&gt;u0 -->
<g id="edge74" class="edge"><title>v0&#45;&gt;u0</title>
<path fill="none" stroke="black" d="M960,-71.6966C960,-63.9827 960,-54.7125 960,-46.1124"/>
<polygon fill="black" stroke="black" points="963.5,-46.1043 960,-36.1043 956.5,-46.1044 963.5,-46.1043"/>
</g>
<!-- o0 -->
<g id="node93" class="node"><title>o0</title>
<a xlink:href="0004871" xlink:title="GO:0004871 (144)">
<ellipse fill="#e98576" stroke="#e98576" cx="7728" cy="-234" rx="84.1886" ry="18"/>
<text text-anchor="middle" x="7728" y="-229.8" font-family="Times,serif" font-size="14.00">GO:0004871 (144)</text>
</a>
</g>
<!-- p0&#45;&gt;o0 -->
<g id="edge90" class="edge"><title>p0&#45;&gt;o0</title>
<path fill="none" stroke="black" d="M5675.66,-293.065C5684.63,-291.003 5694.07,-289.153 5703,-288 6128.43,-233.052 7206.09,-293.912 7633,-252 7641.6,-251.156 7650.59,-249.961 7659.47,-248.592"/>
<polygon fill="black" stroke="black" points="7660.11,-252.035 7669.42,-246.981 7658.99,-245.125 7660.11,-252.035"/>
</g>
</g>
</svg>
