<?xml version="1.0" encoding="UTF-8" standalone="no"?>
<!DOCTYPE svg PUBLIC "-//W3C//DTD SVG 1.1//EN"
 "http://www.w3.org/Graphics/SVG/1.1/DTD/svg11.dtd">
<!-- Generated by graphviz version 2.28.0 (20110622.2320)
 -->
<!-- Title: G Pages: 1 -->
<svg width="6112pt" height="404pt"
 viewBox="0.00 0.00 6112.00 404.00" xmlns="http://www.w3.org/2000/svg" xmlns:xlink="http://www.w3.org/1999/xlink">
<g id="graph1" class="graph" transform="scale(1 1) rotate(0) translate(4 400)">
<title>G</title>
<polygon fill="white" stroke="white" points="-4,5 -4,-400 6109,-400 6109,5 -4,5"/>
<!-- h0 -->
<g id="node1" class="node"><title>h0</title>
<a xlink:href="0003824" xlink:title="GO:0003824 (20)">
<ellipse fill="#e98576" stroke="#e98576" cx="876" cy="-306" rx="79.4447" ry="18"/>
<text text-anchor="middle" x="876" y="-301.8" font-family="Times,serif" font-size="14.00">GO:0003824 (20)</text>
</a>
</g>
<!-- m1 -->
<g id="node3" class="node"><title>m1</title>
<a xlink:href="0016853" xlink:title="GO:0016853 (5)">
<ellipse fill="#e98576" stroke="#e98576" cx="114" cy="-234" rx="75.2018" ry="18"/>
<text text-anchor="middle" x="114" y="-229.8" font-family="Times,serif" font-size="14.00">GO:0016853 (5)</text>
</a>
</g>
<!-- h0&#45;&gt;m1 -->
<g id="edge2" class="edge"><title>h0&#45;&gt;m1</title>
<path fill="none" stroke="black" d="M798.392,-302.007C672.065,-296.447 414.323,-282.231 198,-252 191.268,-251.059 184.263,-249.913 177.297,-248.664"/>
<polygon fill="black" stroke="black" points="177.628,-245.165 167.156,-246.773 176.345,-252.047 177.628,-245.165"/>
</g>
<!-- g0 -->
<g id="node19" class="node"><title>g0</title>
<a xlink:href="0016787" xlink:title="GO:0016787 (97)">
<ellipse fill="#e98576" stroke="#e98576" cx="287" cy="-234" rx="79.4447" ry="18"/>
<text text-anchor="middle" x="287" y="-229.8" font-family="Times,serif" font-size="14.00">GO:0016787 (97)</text>
</a>
</g>
<!-- h0&#45;&gt;g0 -->
<g id="edge32" class="edge"><title>h0&#45;&gt;g0</title>
<path fill="none" stroke="black" d="M807.281,-296.833C697.26,-283.758 482.168,-258.195 365.98,-244.386"/>
<polygon fill="black" stroke="black" points="366.079,-240.874 355.735,-243.169 365.253,-247.825 366.079,-240.874"/>
</g>
<!-- r0 -->
<g id="node22" class="node"><title>r0</title>
<a xlink:href="0016491" xlink:title="GO:0016491 (16)">
<ellipse fill="#e98576" stroke="#e98576" cx="535" cy="-234" rx="79.4447" ry="18"/>
<text text-anchor="middle" x="535" y="-229.8" font-family="Times,serif" font-size="14.00">GO:0016491 (16)</text>
</a>
</g>
<!-- h0&#45;&gt;r0 -->
<g id="edge42" class="edge"><title>h0&#45;&gt;r0</title>
<path fill="none" stroke="black" d="M819.308,-293.362C759.446,-281.074 665.137,-261.714 601.729,-248.698"/>
<polygon fill="black" stroke="black" points="602.327,-245.248 591.828,-246.665 600.919,-252.105 602.327,-245.248"/>
</g>
<!-- a2 -->
<g id="node28" class="node"><title>a2</title>
<a xlink:href="0019239" xlink:title="GO:0019239 (2)">
<ellipse fill="#e98576" stroke="#e98576" cx="708" cy="-234" rx="75.2018" ry="18"/>
<text text-anchor="middle" x="708" y="-229.8" font-family="Times,serif" font-size="14.00">GO:0019239 (2)</text>
</a>
</g>
<!-- h0&#45;&gt;a2 -->
<g id="edge24" class="edge"><title>h0&#45;&gt;a2</title>
<path fill="none" stroke="black" d="M839.547,-289.811C814.167,-279.236 780.152,-265.063 753.07,-253.779"/>
<polygon fill="black" stroke="black" points="754.382,-250.534 743.805,-249.919 751.69,-256.996 754.382,-250.534"/>
</g>
<!-- a1 -->
<g id="node39" class="node"><title>a1</title>
<a xlink:href="0016874" xlink:title="GO:0016874 (5)">
<ellipse fill="#e98576" stroke="#e98576" cx="876" cy="-234" rx="75.2018" ry="18"/>
<text text-anchor="middle" x="876" y="-229.8" font-family="Times,serif" font-size="14.00">GO:0016874 (5)</text>
</a>
</g>
<!-- h0&#45;&gt;a1 -->
<g id="edge36" class="edge"><title>h0&#45;&gt;a1</title>
<path fill="none" stroke="black" d="M876,-287.697C876,-279.983 876,-270.712 876,-262.112"/>
<polygon fill="black" stroke="black" points="879.5,-262.104 876,-252.104 872.5,-262.104 879.5,-262.104"/>
</g>
<!-- v1 -->
<g id="node48" class="node"><title>v1</title>
<a xlink:href="0004386" xlink:title="GO:0004386 (2)">
<ellipse fill="#e98576" stroke="#e98576" cx="1044" cy="-234" rx="75.2018" ry="18"/>
<text text-anchor="middle" x="1044" y="-229.8" font-family="Times,serif" font-size="14.00">GO:0004386 (2)</text>
</a>
</g>
<!-- h0&#45;&gt;v1 -->
<g id="edge46" class="edge"><title>h0&#45;&gt;v1</title>
<path fill="none" stroke="black" d="M912.453,-289.811C937.833,-279.236 971.848,-265.063 998.93,-253.779"/>
<polygon fill="black" stroke="black" points="1000.31,-256.996 1008.19,-249.919 997.618,-250.534 1000.31,-256.996"/>
</g>
<!-- j0 -->
<g id="node103" class="node"><title>j0</title>
<a xlink:href="0016740" xlink:title="GO:0016740 (66)">
<ellipse fill="#e98576" stroke="#e98576" cx="1217" cy="-234" rx="79.4447" ry="18"/>
<text text-anchor="middle" x="1217" y="-229.8" font-family="Times,serif" font-size="14.00">GO:0016740 (66)</text>
</a>
</g>
<!-- h0&#45;&gt;j0 -->
<g id="edge102" class="edge"><title>h0&#45;&gt;j0</title>
<path fill="none" stroke="black" d="M932.692,-293.362C992.554,-281.074 1086.86,-261.714 1150.27,-248.698"/>
<polygon fill="black" stroke="black" points="1151.08,-252.105 1160.17,-246.665 1149.67,-245.248 1151.08,-252.105"/>
</g>
<!-- t1 -->
<g id="node109" class="node"><title>t1</title>
<a xlink:href="0016829" xlink:title="GO:0016829 (3)">
<ellipse fill="#e98576" stroke="#e98576" cx="1390" cy="-234" rx="75.2018" ry="18"/>
<text text-anchor="middle" x="1390" y="-229.8" font-family="Times,serif" font-size="14.00">GO:0016829 (3)</text>
</a>
</g>
<!-- h0&#45;&gt;t1 -->
<g id="edge108" class="edge"><title>h0&#45;&gt;t1</title>
<path fill="none" stroke="black" d="M947.205,-297.844C1032.51,-288.894 1179.61,-272.255 1305,-252 1311.69,-250.92 1318.65,-249.694 1325.59,-248.406"/>
<polygon fill="black" stroke="black" points="1326.52,-251.791 1335.7,-246.487 1325.22,-244.914 1326.52,-251.791"/>
</g>
<!-- c0 -->
<g id="node4" class="node"><title>c0</title>
<a xlink:href="0003674" xlink:title="GO:0003674 (159)">
<ellipse fill="#e98576" stroke="#e98576" cx="4091" cy="-378" rx="84.1886" ry="18"/>
<text text-anchor="middle" x="4091" y="-373.8" font-family="Times,serif" font-size="14.00">GO:0003674 (159)</text>
</a>
</g>
<!-- c0&#45;&gt;h0 -->
<g id="edge70" class="edge"><title>c0&#45;&gt;h0</title>
<path fill="none" stroke="black" d="M4007.48,-375.182C3557.84,-365.392 1428.39,-319.027 965.105,-308.94"/>
<polygon fill="black" stroke="black" points="964.872,-305.434 954.798,-308.716 964.719,-312.433 964.872,-305.434"/>
</g>
<!-- l0 -->
<g id="node6" class="node"><title>l0</title>
<a xlink:href="0030234" xlink:title="GO:0030234 (48)">
<ellipse fill="#e98576" stroke="#e98576" cx="3557" cy="-306" rx="79.4447" ry="18"/>
<text text-anchor="middle" x="3557" y="-301.8" font-family="Times,serif" font-size="14.00">GO:0030234 (48)</text>
</a>
</g>
<!-- c0&#45;&gt;l0 -->
<g id="edge4" class="edge"><title>c0&#45;&gt;l0</title>
<path fill="none" stroke="black" d="M4015.98,-369.689C3927.35,-360.676 3775.55,-344.063 3646,-324 3638.95,-322.908 3631.6,-321.668 3624.28,-320.369"/>
<polygon fill="black" stroke="black" points="3624.81,-316.909 3614.35,-318.567 3623.56,-323.796 3624.81,-316.909"/>
</g>
<!-- b0 -->
<g id="node7" class="node"><title>b0</title>
<a xlink:href="0005488" xlink:title="GO:0005488 (50)">
<ellipse fill="#e98576" stroke="#e98576" cx="3735" cy="-306" rx="79.4447" ry="18"/>
<text text-anchor="middle" x="3735" y="-301.8" font-family="Times,serif" font-size="14.00">GO:0005488 (50)</text>
</a>
</g>
<!-- c0&#45;&gt;b0 -->
<g id="edge14" class="edge"><title>c0&#45;&gt;b0</title>
<path fill="none" stroke="black" d="M4031.01,-365.205C3967.87,-352.789 3868.67,-333.283 3802.75,-320.321"/>
<polygon fill="black" stroke="black" points="3803.36,-316.874 3792.87,-318.379 3802.01,-323.743 3803.36,-316.874"/>
</g>
<!-- m0 -->
<g id="node30" class="node"><title>m0</title>
<a xlink:href="0005215" xlink:title="GO:0005215 (45)">
<ellipse fill="#e98576" stroke="#e98576" cx="3913" cy="-306" rx="79.4447" ry="18"/>
<text text-anchor="middle" x="3913" y="-301.8" font-family="Times,serif" font-size="14.00">GO:0005215 (45)</text>
</a>
</g>
<!-- c0&#45;&gt;m0 -->
<g id="edge26" class="edge"><title>c0&#45;&gt;m0</title>
<path fill="none" stroke="black" d="M4052.38,-361.811C4025.37,-351.19 3989.13,-336.94 3960.38,-325.631"/>
<polygon fill="black" stroke="black" points="3961.52,-322.321 3950.94,-321.919 3958.96,-328.836 3961.52,-322.321"/>
</g>
<!-- s0 -->
<g id="node50" class="node"><title>s0</title>
<a xlink:href="0005198" xlink:title="GO:0005198 (14)">
<ellipse fill="#e98576" stroke="#e98576" cx="4091" cy="-306" rx="79.4447" ry="18"/>
<text text-anchor="middle" x="4091" y="-301.8" font-family="Times,serif" font-size="14.00">GO:0005198 (14)</text>
</a>
</g>
<!-- c0&#45;&gt;s0 -->
<g id="edge48" class="edge"><title>c0&#45;&gt;s0</title>
<path fill="none" stroke="black" d="M4091,-359.697C4091,-351.983 4091,-342.712 4091,-334.112"/>
<polygon fill="black" stroke="black" points="4094.5,-334.104 4091,-324.104 4087.5,-334.104 4094.5,-334.104"/>
</g>
<!-- w0 -->
<g id="node58" class="node"><title>w0</title>
<a xlink:href="0042056" xlink:title="GO:0042056 (8)">
<ellipse fill="#e98576" stroke="#e98576" cx="4264" cy="-306" rx="75.2018" ry="18"/>
<text text-anchor="middle" x="4264" y="-301.8" font-family="Times,serif" font-size="14.00">GO:0042056 (8)</text>
</a>
</g>
<!-- c0&#45;&gt;w0 -->
<g id="edge56" class="edge"><title>c0&#45;&gt;w0</title>
<path fill="none" stroke="black" d="M4128.54,-361.811C4154.76,-351.2 4189.94,-336.967 4217.87,-325.664"/>
<polygon fill="black" stroke="black" points="4219.47,-328.794 4227.43,-321.799 4216.84,-322.305 4219.47,-328.794"/>
</g>
<!-- z1 -->
<g id="node80" class="node"><title>z1</title>
<a xlink:href="0003774" xlink:title="GO:0003774 (2)">
<ellipse fill="#e98576" stroke="#e98576" cx="4432" cy="-306" rx="75.2018" ry="18"/>
<text text-anchor="middle" x="4432" y="-301.8" font-family="Times,serif" font-size="14.00">GO:0003774 (2)</text>
</a>
</g>
<!-- c0&#45;&gt;z1 -->
<g id="edge78" class="edge"><title>c0&#45;&gt;z1</title>
<path fill="none" stroke="black" d="M4149.62,-364.967C4210.05,-352.562 4304.04,-333.267 4366.79,-320.387"/>
<polygon fill="black" stroke="black" points="4367.87,-323.737 4376.96,-318.298 4366.46,-316.88 4367.87,-323.737"/>
</g>
<!-- e0 -->
<g id="node87" class="node"><title>e0</title>
<a xlink:href="0060089" xlink:title="GO:0060089">
<ellipse fill="#dddddd" stroke="#dddddd" cx="4587" cy="-306" rx="61.1934" ry="18"/>
<text text-anchor="middle" x="4587" y="-301.8" font-family="Times,serif" font-size="14.00">GO:0060089</text>
</a>
</g>
<!-- c0&#45;&gt;e0 -->
<g id="edge110" class="edge"><title>c0&#45;&gt;e0</title>
<path fill="none" stroke="black" d="M4167.01,-370.089C4252.34,-361.736 4394.74,-346.009 4516,-324 4521.38,-323.024 4526.96,-321.894 4532.52,-320.69"/>
<polygon fill="black" stroke="black" points="4533.48,-324.064 4542.47,-318.461 4531.94,-317.233 4533.48,-324.064"/>
</g>
<!-- c1 -->
<g id="node92" class="node"><title>c1</title>
<a xlink:href="0016209" xlink:title="GO:0016209 (7)">
<ellipse fill="#e98576" stroke="#e98576" cx="4742" cy="-306" rx="75.2018" ry="18"/>
<text text-anchor="middle" x="4742" y="-301.8" font-family="Times,serif" font-size="14.00">GO:0016209 (7)</text>
</a>
</g>
<!-- c0&#45;&gt;c1 -->
<g id="edge90" class="edge"><title>c0&#45;&gt;c1</title>
<path fill="none" stroke="black" d="M4170.99,-372.142C4280.9,-364.867 4484.64,-349.236 4657,-324 4663.8,-323.004 4670.89,-321.822 4677.93,-320.552"/>
<polygon fill="black" stroke="black" points="4679,-323.913 4688.19,-318.64 4677.72,-317.032 4679,-323.913"/>
</g>
<!-- b1 -->
<g id="node9" class="node"><title>b1</title>
<a xlink:href="0042277" xlink:title="GO:0042277 (8)">
<ellipse fill="#e98576" stroke="#e98576" cx="1558" cy="-234" rx="75.2018" ry="18"/>
<text text-anchor="middle" x="1558" y="-229.8" font-family="Times,serif" font-size="14.00">GO:0042277 (8)</text>
</a>
</g>
<!-- b0&#45;&gt;b1 -->
<g id="edge6" class="edge"><title>b0&#45;&gt;b1</title>
<path fill="none" stroke="black" d="M3679.52,-293.004C3668.15,-290.974 3656.23,-289.153 3645,-288 2759.29,-197.048 2527.1,-348.705 1642,-252 1634.88,-251.222 1627.47,-250.136 1620.13,-248.885"/>
<polygon fill="black" stroke="black" points="1620.66,-245.424 1610.2,-247.09 1619.41,-252.313 1620.66,-245.424"/>
</g>
<!-- u1 -->
<g id="node11" class="node"><title>u1</title>
<a xlink:href="0019825" xlink:title="GO:0019825 (3)">
<ellipse fill="#e98576" stroke="#e98576" cx="1726" cy="-234" rx="75.2018" ry="18"/>
<text text-anchor="middle" x="1726" y="-229.8" font-family="Times,serif" font-size="14.00">GO:0019825 (3)</text>
</a>
</g>
<!-- b0&#45;&gt;u1 -->
<g id="edge8" class="edge"><title>b0&#45;&gt;u1</title>
<path fill="none" stroke="black" d="M3679.52,-293.019C3668.15,-290.988 3656.23,-289.163 3645,-288 2833.62,-204.006 2620.81,-341.264 1810,-252 1802.88,-251.216 1795.47,-250.127 1788.13,-248.874"/>
<polygon fill="black" stroke="black" points="1788.66,-245.413 1778.2,-247.077 1787.42,-252.301 1788.66,-245.413"/>
</g>
<!-- a0 -->
<g id="node13" class="node"><title>a0</title>
<a xlink:href="0005515" xlink:title="GO:0005515 (435)">
<ellipse fill="#e98576" stroke="#e98576" cx="1904" cy="-234" rx="84.1886" ry="18"/>
<text text-anchor="middle" x="1904" y="-229.8" font-family="Times,serif" font-size="14.00">GO:0005515 (435)</text>
</a>
</g>
<!-- b0&#45;&gt;a0 -->
<g id="edge10" class="edge"><title>b0&#45;&gt;a0</title>
<path fill="none" stroke="black" d="M3679.52,-293.039C3668.15,-291.006 3656.23,-289.175 3645,-288 2916.8,-211.793 2726.49,-325.377 1998,-252 1989.7,-251.164 1981.03,-250 1972.46,-248.669"/>
<polygon fill="black" stroke="black" points="1972.9,-245.195 1962.47,-247.039 1971.77,-252.104 1972.9,-245.195"/>
</g>
<!-- x1 -->
<g id="node15" class="node"><title>x1</title>
<a xlink:href="0043021" xlink:title="GO:0043021 (2)">
<ellipse fill="#e98576" stroke="#e98576" cx="2082" cy="-234" rx="75.2018" ry="18"/>
<text text-anchor="middle" x="2082" y="-229.8" font-family="Times,serif" font-size="14.00">GO:0043021 (2)</text>
</a>
</g>
<!-- b0&#45;&gt;x1 -->
<g id="edge12" class="edge"><title>b0&#45;&gt;x1</title>
<path fill="none" stroke="black" d="M3679.52,-293.06C3668.15,-291.026 3656.23,-289.189 3645,-288 2991.13,-218.751 2819.41,-325.496 2166,-252 2158.88,-251.2 2151.48,-250.099 2144.14,-248.84"/>
<polygon fill="black" stroke="black" points="2144.67,-245.38 2134.2,-247.038 2143.42,-252.267 2144.67,-245.38"/>
</g>
<!-- q1 -->
<g id="node18" class="node"><title>q1</title>
<a xlink:href="0042562" xlink:title="GO:0042562 (4)">
<ellipse fill="#e98576" stroke="#e98576" cx="2250" cy="-234" rx="75.2018" ry="18"/>
<text text-anchor="middle" x="2250" y="-229.8" font-family="Times,serif" font-size="14.00">GO:0042562 (4)</text>
</a>
</g>
<!-- b0&#45;&gt;q1 -->
<g id="edge16" class="edge"><title>b0&#45;&gt;q1</title>
<path fill="none" stroke="black" d="M3679.51,-293.088C3668.15,-291.051 3656.23,-289.207 3645,-288 3065.45,-225.709 2913.13,-318.055 2334,-252 2326.89,-251.189 2319.48,-250.081 2312.14,-248.818"/>
<polygon fill="black" stroke="black" points="2312.67,-245.358 2302.2,-247.013 2311.42,-252.245 2312.67,-245.358"/>
</g>
<!-- l1 -->
<g id="node26" class="node"><title>l1</title>
<a xlink:href="0005496" xlink:title="GO:0005496 (5)">
<ellipse fill="#e98576" stroke="#e98576" cx="2418" cy="-234" rx="75.2018" ry="18"/>
<text text-anchor="middle" x="2418" y="-229.8" font-family="Times,serif" font-size="14.00">GO:0005496 (5)</text>
</a>
</g>
<!-- b0&#45;&gt;l1 -->
<g id="edge22" class="edge"><title>b0&#45;&gt;l1</title>
<path fill="none" stroke="black" d="M3679.03,-293.037C3667.81,-291.032 3656.06,-289.212 3645,-288 3139.77,-232.666 3006.86,-310.615 2502,-252 2494.89,-251.174 2487.48,-250.058 2480.14,-248.79"/>
<polygon fill="black" stroke="black" points="2480.67,-245.33 2470.21,-246.98 2479.42,-252.216 2480.67,-245.33"/>
</g>
<!-- f0 -->
<g id="node32" class="node"><title>f0</title>
<a xlink:href="0043167" xlink:title="GO:0043167 (122)">
<ellipse fill="#e98576" stroke="#e98576" cx="2596" cy="-234" rx="84.1886" ry="18"/>
<text text-anchor="middle" x="2596" y="-229.8" font-family="Times,serif" font-size="14.00">GO:0043167 (122)</text>
</a>
</g>
<!-- b0&#45;&gt;f0 -->
<g id="edge28" class="edge"><title>b0&#45;&gt;f0</title>
<path fill="none" stroke="black" d="M3679.02,-293.091C3667.8,-291.082 3656.06,-289.246 3645,-288 3222.92,-240.45 3112.26,-297.909 2690,-252 2681.76,-251.105 2673.16,-249.911 2664.65,-248.571"/>
<polygon fill="black" stroke="black" points="2665.17,-245.108 2654.73,-246.938 2664.03,-252.015 2665.17,-245.108"/>
</g>
<!-- e1 -->
<g id="node34" class="node"><title>e1</title>
<a xlink:href="0043176" xlink:title="GO:0043176 (3)">
<ellipse fill="#e98576" stroke="#e98576" cx="2774" cy="-234" rx="75.2018" ry="18"/>
<text text-anchor="middle" x="2774" y="-229.8" font-family="Times,serif" font-size="14.00">GO:0043176 (3)</text>
</a>
</g>
<!-- b0&#45;&gt;e1 -->
<g id="edge30" class="edge"><title>b0&#45;&gt;e1</title>
<path fill="none" stroke="black" d="M3679.02,-293.162C3667.79,-291.146 3656.06,-289.291 3645,-288 3297.22,-247.405 3205.51,-294.854 2858,-252 2851.15,-251.156 2844.03,-250.06 2836.96,-248.831"/>
<polygon fill="black" stroke="black" points="2837.14,-245.306 2826.67,-246.949 2835.88,-252.191 2837.14,-245.306"/>
</g>
<!-- w1 -->
<g id="node37" class="node"><title>w1</title>
<a xlink:href="0043178" xlink:title="GO:0043178 (2)">
<ellipse fill="#e98576" stroke="#e98576" cx="2942" cy="-234" rx="75.2018" ry="18"/>
<text text-anchor="middle" x="2942" y="-229.8" font-family="Times,serif" font-size="14.00">GO:0043178 (2)</text>
</a>
</g>
<!-- b0&#45;&gt;w1 -->
<g id="edge34" class="edge"><title>b0&#45;&gt;w1</title>
<path fill="none" stroke="black" d="M3678.52,-293.183C3667.45,-291.192 3655.89,-289.34 3645,-288 3371.49,-254.356 3299.29,-287.42 3026,-252 3019.16,-251.113 3012.04,-249.99 3004.97,-248.746"/>
<polygon fill="black" stroke="black" points="3005.15,-245.22 2994.68,-246.848 3003.88,-252.104 3005.15,-245.22"/>
</g>
<!-- n0 -->
<g id="node41" class="node"><title>n0</title>
<a xlink:href="0030246" xlink:title="GO:0030246 (42)">
<ellipse fill="#e98576" stroke="#e98576" cx="3115" cy="-234" rx="79.4447" ry="18"/>
<text text-anchor="middle" x="3115" y="-229.8" font-family="Times,serif" font-size="14.00">GO:0030246 (42)</text>
</a>
</g>
<!-- b0&#45;&gt;n0 -->
<g id="edge38" class="edge"><title>b0&#45;&gt;n0</title>
<path fill="none" stroke="black" d="M3678.01,-293.3C3667.09,-291.322 3655.72,-289.445 3645,-288 3450.11,-261.714 3398.86,-278.486 3204,-252 3196.63,-250.998 3188.95,-249.787 3181.32,-248.477"/>
<polygon fill="black" stroke="black" points="3181.81,-245.009 3171.35,-246.708 3180.58,-251.901 3181.81,-245.009"/>
</g>
<!-- k0 -->
<g id="node43" class="node"><title>k0</title>
<a xlink:href="0003676" xlink:title="GO:0003676 (58)">
<ellipse fill="#e98576" stroke="#e98576" cx="3293" cy="-234" rx="79.4447" ry="18"/>
<text text-anchor="middle" x="3293" y="-229.8" font-family="Times,serif" font-size="14.00">GO:0003676 (58)</text>
</a>
</g>
<!-- b0&#45;&gt;k0 -->
<g id="edge40" class="edge"><title>b0&#45;&gt;k0</title>
<path fill="none" stroke="black" d="M3676.98,-293.594C3666.36,-291.633 3655.36,-289.686 3645,-288 3528.55,-269.045 3498.43,-271.074 3382,-252 3375.22,-250.889 3368.16,-249.663 3361.12,-248.392"/>
<polygon fill="black" stroke="black" points="3361.32,-244.87 3350.85,-246.508 3360.05,-251.755 3361.32,-244.87"/>
</g>
<!-- t0 -->
<g id="node46" class="node"><title>t0</title>
<a xlink:href="0043498" xlink:title="GO:0043498 (14)">
<ellipse fill="#e98576" stroke="#e98576" cx="3471" cy="-234" rx="79.4447" ry="18"/>
<text text-anchor="middle" x="3471" y="-229.8" font-family="Times,serif" font-size="14.00">GO:0043498 (14)</text>
</a>
</g>
<!-- b0&#45;&gt;t0 -->
<g id="edge44" class="edge"><title>b0&#45;&gt;t0</title>
<path fill="none" stroke="black" d="M3685.34,-291.834C3641.28,-280.15 3576.83,-263.061 3530.12,-250.675"/>
<polygon fill="black" stroke="black" points="3531,-247.287 3520.43,-248.107 3529.2,-254.054 3531,-247.287"/>
</g>
<!-- p0 -->
<g id="node52" class="node"><title>p0</title>
<a xlink:href="0001871" xlink:title="GO:0001871 (35)">
<ellipse fill="#e98576" stroke="#e98576" cx="3649" cy="-234" rx="79.4447" ry="18"/>
<text text-anchor="middle" x="3649" y="-229.8" font-family="Times,serif" font-size="14.00">GO:0001871 (35)</text>
</a>
</g>
<!-- b0&#45;&gt;p0 -->
<g id="edge50" class="edge"><title>b0&#45;&gt;p0</title>
<path fill="none" stroke="black" d="M3714.62,-288.411C3703.48,-279.345 3689.51,-267.974 3677.33,-258.057"/>
<polygon fill="black" stroke="black" points="3679.2,-255.068 3669.23,-251.47 3674.78,-260.497 3679.2,-255.068"/>
</g>
<!-- o1 -->
<g id="node54" class="node"><title>o1</title>
<a xlink:href="0003682" xlink:title="GO:0003682 (5)">
<ellipse fill="#e98576" stroke="#e98576" cx="3822" cy="-234" rx="75.2018" ry="18"/>
<text text-anchor="middle" x="3822" y="-229.8" font-family="Times,serif" font-size="14.00">GO:0003682 (5)</text>
</a>
</g>
<!-- b0&#45;&gt;o1 -->
<g id="edge52" class="edge"><title>b0&#45;&gt;o1</title>
<path fill="none" stroke="black" d="M3755.62,-288.411C3766.99,-279.257 3781.29,-267.755 3793.7,-257.772"/>
<polygon fill="black" stroke="black" points="3795.93,-260.466 3801.53,-251.47 3791.54,-255.012 3795.93,-260.466"/>
</g>
<!-- k1 -->
<g id="node56" class="node"><title>k1</title>
<a xlink:href="0048037" xlink:title="GO:0048037 (6)">
<ellipse fill="#e98576" stroke="#e98576" cx="3990" cy="-234" rx="75.2018" ry="18"/>
<text text-anchor="middle" x="3990" y="-229.8" font-family="Times,serif" font-size="14.00">GO:0048037 (6)</text>
</a>
</g>
<!-- b0&#45;&gt;k1 -->
<g id="edge54" class="edge"><title>b0&#45;&gt;k1</title>
<path fill="none" stroke="black" d="M3783.56,-291.669C3826.02,-280.015 3887.72,-263.078 3932.6,-250.757"/>
<polygon fill="black" stroke="black" points="3933.76,-254.067 3942.48,-248.045 3931.91,-247.317 3933.76,-254.067"/>
</g>
<!-- n1 -->
<g id="node60" class="node"><title>n1</title>
<a xlink:href="0003823" xlink:title="GO:0003823 (5)">
<ellipse fill="#e98576" stroke="#e98576" cx="4158" cy="-234" rx="75.2018" ry="18"/>
<text text-anchor="middle" x="4158" y="-229.8" font-family="Times,serif" font-size="14.00">GO:0003823 (5)</text>
</a>
</g>
<!-- b0&#45;&gt;n1 -->
<g id="edge58" class="edge"><title>b0&#45;&gt;n1</title>
<path fill="none" stroke="black" d="M3792.86,-293.551C3803.21,-291.615 3813.92,-289.688 3824,-288 3934.72,-269.464 3963.39,-271.141 4074,-252 4080.25,-250.918 4086.76,-249.724 4093.25,-248.486"/>
<polygon fill="black" stroke="black" points="4094.26,-251.856 4103.41,-246.515 4092.93,-244.984 4094.26,-251.856"/>
</g>
<!-- h1 -->
<g id="node62" class="node"><title>h1</title>
<a xlink:href="0050840" xlink:title="GO:0050840 (6)">
<ellipse fill="#e98576" stroke="#e98576" cx="4326" cy="-234" rx="75.2018" ry="18"/>
<text text-anchor="middle" x="4326" y="-229.8" font-family="Times,serif" font-size="14.00">GO:0050840 (6)</text>
</a>
</g>
<!-- b0&#45;&gt;h1 -->
<g id="edge60" class="edge"><title>b0&#45;&gt;h1</title>
<path fill="none" stroke="black" d="M3791.83,-293.243C3802.49,-291.295 3813.56,-289.443 3824,-288 4008.71,-262.474 4057.43,-278.537 4242,-252 4248.73,-251.033 4255.73,-249.869 4262.7,-248.61"/>
<polygon fill="black" stroke="black" points="4263.65,-251.992 4272.83,-246.709 4262.36,-245.112 4263.65,-251.992"/>
</g>
<!-- q0 -->
<g id="node66" class="node"><title>q0</title>
<a xlink:href="0008289" xlink:title="GO:0008289 (24)">
<ellipse fill="#e98576" stroke="#e98576" cx="4499" cy="-234" rx="79.4447" ry="18"/>
<text text-anchor="middle" x="4499" y="-229.8" font-family="Times,serif" font-size="14.00">GO:0008289 (24)</text>
</a>
</g>
<!-- b0&#45;&gt;q0 -->
<g id="edge64" class="edge"><title>b0&#45;&gt;q0</title>
<path fill="none" stroke="black" d="M3791.33,-293.12C3802.13,-291.159 3813.39,-289.334 3824,-288 4082.9,-255.456 4151.1,-284.544 4410,-252 4417.38,-251.072 4425.07,-249.907 4432.7,-248.625"/>
<polygon fill="black" stroke="black" points="4433.43,-252.051 4442.67,-246.88 4432.22,-245.156 4433.43,-252.051"/>
</g>
<!-- b2 -->
<g id="node74" class="node"><title>b2</title>
<a xlink:href="0001882" xlink:title="GO:0001882 (1)">
<ellipse fill="#e98576" stroke="#e98576" cx="4672" cy="-234" rx="75.2018" ry="18"/>
<text text-anchor="middle" x="4672" y="-229.8" font-family="Times,serif" font-size="14.00">GO:0001882 (1)</text>
</a>
</g>
<!-- b0&#45;&gt;b2 -->
<g id="edge72" class="edge"><title>b0&#45;&gt;b2</title>
<path fill="none" stroke="black" d="M3790.83,-293.084C3801.79,-291.101 3813.22,-289.277 3824,-288 4161.13,-248.053 4250.05,-293.406 4587,-252 4594.19,-251.117 4601.68,-249.965 4609.1,-248.676"/>
<polygon fill="black" stroke="black" points="4609.94,-252.082 4619.15,-246.847 4608.68,-245.195 4609.94,-252.082"/>
</g>
<!-- v0 -->
<g id="node76" class="node"><title>v0</title>
<a xlink:href="0008144" xlink:title="GO:0008144 (8)">
<ellipse fill="#e98576" stroke="#e98576" cx="4840" cy="-234" rx="75.2018" ry="18"/>
<text text-anchor="middle" x="4840" y="-229.8" font-family="Times,serif" font-size="14.00">GO:0008144 (8)</text>
</a>
</g>
<!-- b0&#45;&gt;v0 -->
<g id="edge74" class="edge"><title>b0&#45;&gt;v0</title>
<path fill="none" stroke="black" d="M3790.83,-293.01C3801.78,-291.034 3813.22,-289.231 3824,-288 4235.86,-240.981 4344.41,-301.273 4756,-252 4762.85,-251.18 4769.97,-250.1 4777.05,-248.88"/>
<polygon fill="black" stroke="black" points="4778.12,-252.241 4787.34,-247.007 4776.87,-245.354 4778.12,-252.241"/>
</g>
<!-- p1 -->
<g id="node78" class="node"><title>p1</title>
<a xlink:href="0019842" xlink:title="GO:0019842 (4)">
<ellipse fill="#e98576" stroke="#e98576" cx="5008" cy="-234" rx="75.2018" ry="18"/>
<text text-anchor="middle" x="5008" y="-229.8" font-family="Times,serif" font-size="14.00">GO:0019842 (4)</text>
</a>
</g>
<!-- b0&#45;&gt;p1 -->
<g id="edge76" class="edge"><title>b0&#45;&gt;p1</title>
<path fill="none" stroke="black" d="M3790.34,-293.045C3801.44,-291.039 3813.06,-289.217 3824,-288 4310.16,-233.949 4438.15,-308.711 4924,-252 4931.11,-251.17 4938.52,-250.051 4945.86,-248.781"/>
<polygon fill="black" stroke="black" points="4946.58,-252.207 4955.79,-246.97 4945.32,-245.321 4946.58,-252.207"/>
</g>
<!-- j1 -->
<g id="node83" class="node"><title>j1</title>
<a xlink:href="0008367" xlink:title="GO:0008367">
<ellipse fill="#dddddd" stroke="#dddddd" cx="5163" cy="-234" rx="61.1934" ry="18"/>
<text text-anchor="middle" x="5163" y="-229.8" font-family="Times,serif" font-size="14.00">GO:0008367</text>
</a>
</g>
<!-- b0&#45;&gt;j1 -->
<g id="edge88" class="edge"><title>b0&#45;&gt;j1</title>
<path fill="none" stroke="black" d="M3790.34,-293.008C3801.44,-291.005 3813.05,-289.193 3824,-288 4384.46,-226.916 4533.1,-326.035 5092,-252 5097.8,-251.232 5103.81,-250.189 5109.77,-248.995"/>
<polygon fill="black" stroke="black" points="5110.67,-252.383 5119.71,-246.865 5109.2,-245.538 5110.67,-252.383"/>
</g>
<!-- g1 -->
<g id="node94" class="node"><title>g1</title>
<a xlink:href="0060090" xlink:title="GO:0060090 (6)">
<ellipse fill="#e98576" stroke="#e98576" cx="5318" cy="-234" rx="75.2018" ry="18"/>
<text text-anchor="middle" x="5318" y="-229.8" font-family="Times,serif" font-size="14.00">GO:0060090 (6)</text>
</a>
</g>
<!-- b0&#45;&gt;g1 -->
<g id="edge92" class="edge"><title>b0&#45;&gt;g1</title>
<path fill="none" stroke="black" d="M3790.34,-292.983C3801.44,-290.982 3813.05,-289.178 3824,-288 4446.83,-221.012 4610.46,-321.683 5233,-252 5240.38,-251.174 5248.08,-250.034 5255.69,-248.732"/>
<polygon fill="black" stroke="black" points="5256.4,-252.16 5265.62,-246.94 5255.16,-245.272 5256.4,-252.16"/>
</g>
<!-- y1 -->
<g id="node98" class="node"><title>y1</title>
<a xlink:href="0031406" xlink:title="GO:0031406 (2)">
<ellipse fill="#e98576" stroke="#e98576" cx="5486" cy="-234" rx="75.2018" ry="18"/>
<text text-anchor="middle" x="5486" y="-229.8" font-family="Times,serif" font-size="14.00">GO:0031406 (2)</text>
</a>
</g>
<!-- b0&#45;&gt;y1 -->
<g id="edge96" class="edge"><title>b0&#45;&gt;y1</title>
<path fill="none" stroke="black" d="M3790.33,-292.959C3801.43,-290.96 3813.05,-289.163 3824,-288 4521.6,-213.936 4704.82,-329.881 5402,-252 5409.12,-251.205 5416.53,-250.108 5423.87,-248.851"/>
<polygon fill="black" stroke="black" points="5424.58,-252.278 5433.8,-247.051 5423.34,-245.39 5424.58,-252.278"/>
</g>
<!-- u0 -->
<g id="node105" class="node"><title>u0</title>
<a xlink:href="0046906" xlink:title="GO:0046906 (11)">
<ellipse fill="#e98576" stroke="#e98576" cx="5659" cy="-234" rx="79.4447" ry="18"/>
<text text-anchor="middle" x="5659" y="-229.8" font-family="Times,serif" font-size="14.00">GO:0046906 (11)</text>
</a>
</g>
<!-- b0&#45;&gt;u0 -->
<g id="edge104" class="edge"><title>b0&#45;&gt;u0</title>
<path fill="none" stroke="black" d="M3790.33,-292.94C3801.43,-290.943 3813.05,-289.151 3824,-288 4595.92,-206.902 4798.08,-333.098 5570,-252 5577.7,-251.191 5585.73,-250.065 5593.68,-248.773"/>
<polygon fill="black" stroke="black" points="5594.4,-252.2 5603.67,-247.06 5593.22,-245.3 5594.4,-252.2"/>
</g>
<!-- i0 -->
<g id="node107" class="node"><title>i0</title>
<a xlink:href="0000166" xlink:title="GO:0000166 (84)">
<ellipse fill="#e98576" stroke="#e98576" cx="5837" cy="-234" rx="79.4447" ry="18"/>
<text text-anchor="middle" x="5837" y="-229.8" font-family="Times,serif" font-size="14.00">GO:0000166 (84)</text>
</a>
</g>
<!-- b0&#45;&gt;i0 -->
<g id="edge106" class="edge"><title>b0&#45;&gt;i0</title>
<path fill="none" stroke="black" d="M3790.33,-292.924C3801.43,-290.928 3813.05,-289.14 3824,-288 4674.22,-199.49 4896.69,-339.639 5747,-252 5754.98,-251.177 5763.32,-250.018 5771.56,-248.687"/>
<polygon fill="black" stroke="black" points="5772.25,-252.118 5781.52,-246.989 5771.08,-245.218 5772.25,-252.118"/>
</g>
<!-- o0 -->
<g id="node21" class="node"><title>o0</title>
<a xlink:href="0008233" xlink:title="GO:0008233 (39)">
<ellipse fill="#e98576" stroke="#e98576" cx="79" cy="-162" rx="79.4447" ry="18"/>
<text text-anchor="middle" x="79" y="-157.8" font-family="Times,serif" font-size="14.00">GO:0008233 (39)</text>
</a>
</g>
<!-- g0&#45;&gt;o0 -->
<g id="edge18" class="edge"><title>g0&#45;&gt;o0</title>
<path fill="none" stroke="black" d="M244.657,-218.75C211.868,-207.715 166.281,-192.374 131.228,-180.577"/>
<polygon fill="black" stroke="black" points="132.234,-177.222 121.64,-177.35 130.001,-183.857 132.234,-177.222"/>
</g>
<!-- c2 -->
<g id="node96" class="node"><title>c2</title>
<a xlink:href="0019213" xlink:title="GO:0019213 (1)">
<ellipse fill="#e98576" stroke="#e98576" cx="252" cy="-162" rx="75.2018" ry="18"/>
<text text-anchor="middle" x="252" y="-157.8" font-family="Times,serif" font-size="14.00">GO:0019213 (1)</text>
</a>
</g>
<!-- g0&#45;&gt;c2 -->
<g id="edge94" class="edge"><title>g0&#45;&gt;c2</title>
<path fill="none" stroke="black" d="M278.527,-216.055C274.503,-208.007 269.602,-198.205 265.113,-189.226"/>
<polygon fill="black" stroke="black" points="268.24,-187.654 260.638,-180.275 261.979,-190.785 268.24,-187.654"/>
</g>
<!-- r1 -->
<g id="node24" class="node"><title>r1</title>
<a xlink:href="0004497" xlink:title="GO:0004497 (4)">
<ellipse fill="#e98576" stroke="#e98576" cx="420" cy="-162" rx="75.2018" ry="18"/>
<text text-anchor="middle" x="420" y="-157.8" font-family="Times,serif" font-size="14.00">GO:0004497 (4)</text>
</a>
</g>
<!-- r0&#45;&gt;r1 -->
<g id="edge20" class="edge"><title>r0&#45;&gt;r1</title>
<path fill="none" stroke="black" d="M508.617,-216.941C492.692,-207.248 472.212,-194.781 454.952,-184.275"/>
<polygon fill="black" stroke="black" points="456.622,-181.195 446.261,-178.985 452.983,-187.174 456.622,-181.195"/>
</g>
<!-- s1 -->
<g id="node64" class="node"><title>s1</title>
<a xlink:href="0051213" xlink:title="GO:0051213 (3)">
<ellipse fill="#e98576" stroke="#e98576" cx="588" cy="-162" rx="75.2018" ry="18"/>
<text text-anchor="middle" x="588" y="-157.8" font-family="Times,serif" font-size="14.00">GO:0051213 (3)</text>
</a>
</g>
<!-- r0&#45;&gt;s1 -->
<g id="edge62" class="edge"><title>r0&#45;&gt;s1</title>
<path fill="none" stroke="black" d="M547.83,-216.055C554.21,-207.629 562.045,-197.28 569.097,-187.966"/>
<polygon fill="black" stroke="black" points="572.042,-189.874 575.288,-179.789 566.461,-185.649 572.042,-189.874"/>
</g>
<!-- f1 -->
<g id="node101" class="node"><title>f1</title>
<a xlink:href="0009055" xlink:title="GO:0009055 (6)">
<ellipse fill="#e98576" stroke="#e98576" cx="756" cy="-162" rx="75.2018" ry="18"/>
<text text-anchor="middle" x="756" y="-157.8" font-family="Times,serif" font-size="14.00">GO:0009055 (6)</text>
</a>
</g>
<!-- r0&#45;&gt;f1 -->
<g id="edge100" class="edge"><title>r0&#45;&gt;f1</title>
<path fill="none" stroke="black" d="M579.191,-219.003C614.806,-207.722 665.003,-191.823 702.817,-179.845"/>
<polygon fill="black" stroke="black" points="704.162,-183.091 712.638,-176.734 702.048,-176.418 704.162,-183.091"/>
</g>
<!-- d1 -->
<g id="node82" class="node"><title>d1</title>
<a xlink:href="0016597" xlink:title="GO:0016597 (7)">
<ellipse fill="#e98576" stroke="#e98576" cx="2774" cy="-162" rx="75.2018" ry="18"/>
<text text-anchor="middle" x="2774" y="-157.8" font-family="Times,serif" font-size="14.00">GO:0016597 (7)</text>
</a>
</g>
<!-- e1&#45;&gt;d1 -->
<g id="edge80" class="edge"><title>e1&#45;&gt;d1</title>
<path fill="none" stroke="black" d="M2774,-215.697C2774,-207.983 2774,-198.712 2774,-190.112"/>
<polygon fill="black" stroke="black" points="2777.5,-190.104 2774,-180.104 2770.5,-190.104 2777.5,-190.104"/>
</g>
<!-- z0 -->
<g id="node68" class="node"><title>z0</title>
<a xlink:href="0016879" xlink:title="GO:0016879">
<ellipse fill="#dddddd" stroke="#dddddd" cx="911" cy="-162" rx="61.1934" ry="18"/>
<text text-anchor="middle" x="911" y="-157.8" font-family="Times,serif" font-size="14.00">GO:0016879</text>
</a>
</g>
<!-- a1&#45;&gt;z0 -->
<g id="edge66" class="edge"><title>a1&#45;&gt;z0</title>
<path fill="none" stroke="black" d="M884.473,-216.055C888.497,-208.007 893.398,-198.205 897.887,-189.226"/>
<polygon fill="black" stroke="black" points="901.021,-190.785 902.362,-180.275 894.76,-187.654 901.021,-190.785"/>
</g>
<!-- i1 -->
<g id="node85" class="node"><title>i1</title>
<a xlink:href="0051635" xlink:title="GO:0051635 (6)">
<ellipse fill="#e98576" stroke="#e98576" cx="4317" cy="-162" rx="75.2018" ry="18"/>
<text text-anchor="middle" x="4317" y="-157.8" font-family="Times,serif" font-size="14.00">GO:0051635 (6)</text>
</a>
</g>
<!-- t0&#45;&gt;i1 -->
<g id="edge84" class="edge"><title>t0&#45;&gt;i1</title>
<path fill="none" stroke="black" d="M3527.34,-221.193C3538.14,-219.226 3549.39,-217.379 3560,-216 3803.12,-184.383 4092.8,-170.726 4232.87,-165.625"/>
<polygon fill="black" stroke="black" points="4233.23,-169.114 4243.1,-165.258 4232.98,-162.119 4233.23,-169.114"/>
</g>
<!-- y0 -->
<g id="node69" class="node"><title>y0</title>
<a xlink:href="0016881" xlink:title="GO:0016881">
<ellipse fill="#dddddd" stroke="#dddddd" cx="911" cy="-90" rx="61.1934" ry="18"/>
<text text-anchor="middle" x="911" y="-85.8" font-family="Times,serif" font-size="14.00">GO:0016881</text>
</a>
</g>
<!-- z0&#45;&gt;y0 -->
<g id="edge98" class="edge"><title>z0&#45;&gt;y0</title>
<path fill="none" stroke="black" d="M911,-143.697C911,-135.983 911,-126.712 911,-118.112"/>
<polygon fill="black" stroke="black" points="914.5,-118.104 911,-108.104 907.5,-118.104 914.5,-118.104"/>
</g>
<!-- x0 -->
<g id="node71" class="node"><title>x0</title>
<a xlink:href="0019787" xlink:title="GO:0019787 (8)">
<ellipse fill="#e98576" stroke="#e98576" cx="911" cy="-18" rx="75.2018" ry="18"/>
<text text-anchor="middle" x="911" y="-13.8" font-family="Times,serif" font-size="14.00">GO:0019787 (8)</text>
</a>
</g>
<!-- y0&#45;&gt;x0 -->
<g id="edge68" class="edge"><title>y0&#45;&gt;x0</title>
<path fill="none" stroke="black" d="M911,-71.6966C911,-63.9827 911,-54.7125 911,-46.1124"/>
<polygon fill="black" stroke="black" points="914.5,-46.1043 911,-36.1043 907.5,-46.1044 914.5,-46.1043"/>
</g>
<!-- j1&#45;&gt;i1 -->
<g id="edge82" class="edge"><title>j1&#45;&gt;i1</title>
<path fill="none" stroke="black" d="M5119.29,-221.327C5110.32,-219.272 5100.9,-217.359 5092,-216 4843.01,-177.949 4544.83,-167.21 4401.76,-164.184"/>
<polygon fill="black" stroke="black" points="4401.79,-160.684 4391.73,-163.979 4401.65,-167.682 4401.79,-160.684"/>
</g>
<!-- d0 -->
<g id="node89" class="node"><title>d0</title>
<a xlink:href="0004871" xlink:title="GO:0004871 (136)">
<ellipse fill="#e98576" stroke="#e98576" cx="6020" cy="-234" rx="84.1886" ry="18"/>
<text text-anchor="middle" x="6020" y="-229.8" font-family="Times,serif" font-size="14.00">GO:0004871 (136)</text>
</a>
</g>
<!-- e0&#45;&gt;d0 -->
<g id="edge86" class="edge"><title>e0&#45;&gt;d0</title>
<path fill="none" stroke="black" d="M4630.29,-293.135C4639.38,-291.068 4648.95,-289.198 4658,-288 5216.46,-214.018 5364.63,-309.775 5925,-252 5933.54,-251.12 5942.46,-249.911 5951.28,-248.541"/>
<polygon fill="black" stroke="black" points="5951.85,-251.994 5961.15,-246.934 5950.72,-245.085 5951.85,-251.994"/>
</g>
</g>
</svg>
