<?xml version="1.0" encoding="UTF-8" standalone="no"?>
<!DOCTYPE svg PUBLIC "-//W3C//DTD SVG 1.1//EN"
 "http://www.w3.org/Graphics/SVG/1.1/DTD/svg11.dtd">
<!-- Generated by graphviz version 2.28.0 (20110622.2320)
 -->
<!-- Title: G Pages: 1 -->
<svg width="1166pt" height="260pt"
 viewBox="0.00 0.00 1166.00 260.00" xmlns="http://www.w3.org/2000/svg" xmlns:xlink="http://www.w3.org/1999/xlink">
<g id="graph1" class="graph" transform="scale(1 1) rotate(0) translate(4 256)">
<title>G</title>
<polygon fill="white" stroke="white" points="-4,5 -4,-256 1163,-256 1163,5 -4,5"/>
<!-- c0 -->
<g id="node1" class="node"><title>c0</title>
<a xlink:href="0003674" xlink:title="GO:0003674 (1)">
<ellipse fill="#e98576" stroke="#e98576" cx="734" cy="-234" rx="75.2018" ry="18"/>
<text text-anchor="middle" x="734" y="-229.8" font-family="Times,serif" font-size="14.00">GO:0003674 (1)</text>
</a>
</g>
<!-- j0 -->
<g id="node3" class="node"><title>j0</title>
<a xlink:href="0005215" xlink:title="GO:0005215 (1)">
<ellipse fill="#e98576" stroke="#e98576" cx="424" cy="-162" rx="75.2018" ry="18"/>
<text text-anchor="middle" x="424" y="-157.8" font-family="Times,serif" font-size="14.00">GO:0005215 (1)</text>
</a>
</g>
<!-- c0&#45;&gt;j0 -->
<g id="edge2" class="edge"><title>c0&#45;&gt;j0</title>
<path fill="none" stroke="black" d="M681.413,-221.125C627.555,-208.964 543.838,-190.06 486.598,-177.135"/>
<polygon fill="black" stroke="black" points="487.111,-173.663 476.586,-174.874 485.569,-180.491 487.111,-173.663"/>
</g>
<!-- b0 -->
<g id="node4" class="node"><title>b0</title>
<a xlink:href="0005488" xlink:title="GO:0005488">
<ellipse fill="#dddddd" stroke="#dddddd" cx="579" cy="-162" rx="61.1934" ry="18"/>
<text text-anchor="middle" x="579" y="-157.8" font-family="Times,serif" font-size="14.00">GO:0005488</text>
</a>
</g>
<!-- c0&#45;&gt;b0 -->
<g id="edge22" class="edge"><title>c0&#45;&gt;b0</title>
<path fill="none" stroke="black" d="M700.367,-217.811C676.84,-207.186 645.271,-192.929 620.227,-181.618"/>
<polygon fill="black" stroke="black" points="621.532,-178.368 610.978,-177.442 618.651,-184.747 621.532,-178.368"/>
</g>
<!-- f0 -->
<g id="node10" class="node"><title>f0</title>
<a xlink:href="0030234" xlink:title="GO:0030234 (2)">
<ellipse fill="#e98576" stroke="#e98576" cx="734" cy="-162" rx="75.2018" ry="18"/>
<text text-anchor="middle" x="734" y="-157.8" font-family="Times,serif" font-size="14.00">GO:0030234 (2)</text>
</a>
</g>
<!-- c0&#45;&gt;f0 -->
<g id="edge8" class="edge"><title>c0&#45;&gt;f0</title>
<path fill="none" stroke="black" d="M734,-215.697C734,-207.983 734,-198.712 734,-190.112"/>
<polygon fill="black" stroke="black" points="737.5,-190.104 734,-180.104 730.5,-190.104 737.5,-190.104"/>
</g>
<!-- e0 -->
<g id="node13" class="node"><title>e0</title>
<a xlink:href="0003824" xlink:title="GO:0003824 (1)">
<ellipse fill="#e98576" stroke="#e98576" cx="902" cy="-162" rx="75.2018" ry="18"/>
<text text-anchor="middle" x="902" y="-157.8" font-family="Times,serif" font-size="14.00">GO:0003824 (1)</text>
</a>
</g>
<!-- c0&#45;&gt;e0 -->
<g id="edge14" class="edge"><title>c0&#45;&gt;e0</title>
<path fill="none" stroke="black" d="M769.628,-218.155C795.046,-207.564 829.426,-193.239 856.778,-181.842"/>
<polygon fill="black" stroke="black" points="858.249,-185.021 866.134,-177.944 855.557,-178.56 858.249,-185.021"/>
</g>
<!-- k0 -->
<g id="node25" class="node"><title>k0</title>
<a xlink:href="0005198" xlink:title="GO:0005198 (1)">
<ellipse fill="#e98576" stroke="#e98576" cx="1070" cy="-162" rx="75.2018" ry="18"/>
<text text-anchor="middle" x="1070" y="-157.8" font-family="Times,serif" font-size="14.00">GO:0005198 (1)</text>
</a>
</g>
<!-- c0&#45;&gt;k0 -->
<g id="edge24" class="edge"><title>c0&#45;&gt;k0</title>
<path fill="none" stroke="black" d="M788.732,-221.597C848.04,-209.242 942.601,-189.541 1005.48,-176.441"/>
<polygon fill="black" stroke="black" points="1006.22,-179.864 1015.29,-174.398 1004.79,-173.011 1006.22,-179.864"/>
</g>
<!-- g0 -->
<g id="node6" class="node"><title>g0</title>
<a xlink:href="0003823" xlink:title="GO:0003823 (2)">
<ellipse fill="#e98576" stroke="#e98576" cx="75" cy="-90" rx="75.2018" ry="18"/>
<text text-anchor="middle" x="75" y="-85.8" font-family="Times,serif" font-size="14.00">GO:0003823 (2)</text>
</a>
</g>
<!-- b0&#45;&gt;g0 -->
<g id="edge4" class="edge"><title>b0&#45;&gt;g0</title>
<path fill="none" stroke="black" d="M534.874,-149.48C526.018,-147.438 516.746,-145.491 508,-144 354.285,-117.788 313.154,-131.493 159,-108 152.379,-106.991 145.488,-105.811 138.629,-104.552"/>
<polygon fill="black" stroke="black" points="139.112,-101.081 128.636,-102.66 137.81,-107.959 139.112,-101.081"/>
</g>
<!-- h0 -->
<g id="node8" class="node"><title>h0</title>
<a xlink:href="0043167" xlink:title="GO:0043167 (1)">
<ellipse fill="#e98576" stroke="#e98576" cx="243" cy="-90" rx="75.2018" ry="18"/>
<text text-anchor="middle" x="243" y="-85.8" font-family="Times,serif" font-size="14.00">GO:0043167 (1)</text>
</a>
</g>
<!-- b0&#45;&gt;h0 -->
<g id="edge6" class="edge"><title>b0&#45;&gt;h0</title>
<path fill="none" stroke="black" d="M533.609,-149.856C525.112,-147.848 516.295,-145.817 508,-144 427.88,-126.447 407.418,-124.135 327,-108 320.969,-106.79 314.695,-105.527 308.413,-104.261"/>
<polygon fill="black" stroke="black" points="309.066,-100.822 298.571,-102.274 307.681,-107.683 309.066,-100.822"/>
</g>
<!-- l0 -->
<g id="node12" class="node"><title>l0</title>
<a xlink:href="0042277" xlink:title="GO:0042277 (1)">
<ellipse fill="#e98576" stroke="#e98576" cx="411" cy="-90" rx="75.2018" ry="18"/>
<text text-anchor="middle" x="411" y="-85.8" font-family="Times,serif" font-size="14.00">GO:0042277 (1)</text>
</a>
</g>
<!-- b0&#45;&gt;l0 -->
<g id="edge10" class="edge"><title>b0&#45;&gt;l0</title>
<path fill="none" stroke="black" d="M545.003,-146.834C519.444,-136.185 484.175,-121.49 456.235,-109.848"/>
<polygon fill="black" stroke="black" points="457.263,-106.485 446.686,-105.869 454.571,-112.946 457.263,-106.485"/>
</g>
<!-- m0 -->
<g id="node18" class="node"><title>m0</title>
<a xlink:href="0030246" xlink:title="GO:0030246 (1)">
<ellipse fill="#e98576" stroke="#e98576" cx="579" cy="-90" rx="75.2018" ry="18"/>
<text text-anchor="middle" x="579" y="-85.8" font-family="Times,serif" font-size="14.00">GO:0030246 (1)</text>
</a>
</g>
<!-- b0&#45;&gt;m0 -->
<g id="edge16" class="edge"><title>b0&#45;&gt;m0</title>
<path fill="none" stroke="black" d="M579,-143.697C579,-135.983 579,-126.712 579,-118.112"/>
<polygon fill="black" stroke="black" points="582.5,-118.104 579,-108.104 575.5,-118.104 582.5,-118.104"/>
</g>
<!-- a0 -->
<g id="node20" class="node"><title>a0</title>
<a xlink:href="0005515" xlink:title="GO:0005515 (4)">
<ellipse fill="#e98576" stroke="#e98576" cx="747" cy="-90" rx="75.2018" ry="18"/>
<text text-anchor="middle" x="747" y="-85.8" font-family="Times,serif" font-size="14.00">GO:0005515 (4)</text>
</a>
</g>
<!-- b0&#45;&gt;a0 -->
<g id="edge18" class="edge"><title>b0&#45;&gt;a0</title>
<path fill="none" stroke="black" d="M612.997,-146.834C638.556,-136.185 673.825,-121.49 701.765,-109.848"/>
<polygon fill="black" stroke="black" points="703.429,-112.946 711.314,-105.869 700.737,-106.485 703.429,-112.946"/>
</g>
<!-- i0 -->
<g id="node22" class="node"><title>i0</title>
<a xlink:href="0003676" xlink:title="GO:0003676 (1)">
<ellipse fill="#e98576" stroke="#e98576" cx="915" cy="-90" rx="75.2018" ry="18"/>
<text text-anchor="middle" x="915" y="-85.8" font-family="Times,serif" font-size="14.00">GO:0003676 (1)</text>
</a>
</g>
<!-- b0&#45;&gt;i0 -->
<g id="edge20" class="edge"><title>b0&#45;&gt;i0</title>
<path fill="none" stroke="black" d="M624.391,-149.856C632.888,-147.848 641.705,-145.817 650,-144 730.12,-126.447 750.582,-124.135 831,-108 837.031,-106.79 843.305,-105.527 849.587,-104.261"/>
<polygon fill="black" stroke="black" points="850.319,-107.683 859.429,-102.274 848.934,-100.822 850.319,-107.683"/>
</g>
<!-- d0 -->
<g id="node15" class="node"><title>d0</title>
<a xlink:href="0016787" xlink:title="GO:0016787 (3)">
<ellipse fill="#e98576" stroke="#e98576" cx="1083" cy="-90" rx="75.2018" ry="18"/>
<text text-anchor="middle" x="1083" y="-85.8" font-family="Times,serif" font-size="14.00">GO:0016787 (3)</text>
</a>
</g>
<!-- e0&#45;&gt;d0 -->
<g id="edge12" class="edge"><title>e0&#45;&gt;d0</title>
<path fill="none" stroke="black" d="M939.944,-146.326C967.818,-135.545 1005.87,-120.828 1035.73,-109.283"/>
<polygon fill="black" stroke="black" points="1037.04,-112.526 1045.11,-105.655 1034.52,-105.998 1037.04,-112.526"/>
</g>
<!-- n0 -->
<g id="node27" class="node"><title>n0</title>
<a xlink:href="0008233" xlink:title="GO:0008233 (1)">
<ellipse fill="#e98576" stroke="#e98576" cx="1083" cy="-18" rx="75.2018" ry="18"/>
<text text-anchor="middle" x="1083" y="-13.8" font-family="Times,serif" font-size="14.00">GO:0008233 (1)</text>
</a>
</g>
<!-- d0&#45;&gt;n0 -->
<g id="edge26" class="edge"><title>d0&#45;&gt;n0</title>
<path fill="none" stroke="black" d="M1083,-71.6966C1083,-63.9827 1083,-54.7125 1083,-46.1124"/>
<polygon fill="black" stroke="black" points="1086.5,-46.1043 1083,-36.1043 1079.5,-46.1044 1086.5,-46.1043"/>
</g>
</g>
</svg>
