<?xml version="1.0" encoding="UTF-8" standalone="no"?>
<!DOCTYPE svg PUBLIC "-//W3C//DTD SVG 1.1//EN"
 "http://www.w3.org/Graphics/SVG/1.1/DTD/svg11.dtd">
<!-- Generated by graphviz version 2.28.0 (20110622.2320)
 -->
<!-- Title: G Pages: 1 -->
<svg width="954pt" height="908pt"
 viewBox="0.00 0.00 953.66 908.00" xmlns="http://www.w3.org/2000/svg" xmlns:xlink="http://www.w3.org/1999/xlink">
<g id="graph1" class="graph" transform="scale(1 1) rotate(0) translate(4 904)">
<title>G</title>
<polygon fill="white" stroke="white" points="-4,5 -4,-904 950.659,-904 950.659,5 -4,5"/>
<!-- i0 -->
<g id="node1" class="node"><title>i0</title>
<a xlink:href="0005654" xlink:title="GO:0005654">
<ellipse fill="#dddddd" stroke="#dddddd" cx="580.659" cy="-162" rx="61.1934" ry="18"/>
<text text-anchor="middle" x="580.659" y="-157.8" font-family="Times,serif" font-size="14.00">GO:0005654</text>
</a>
</g>
<!-- h0 -->
<g id="node3" class="node"><title>h0</title>
<a xlink:href="0044451" xlink:title="GO:0044451">
<ellipse fill="#dddddd" stroke="#dddddd" cx="580.659" cy="-90" rx="61.1934" ry="18"/>
<text text-anchor="middle" x="580.659" y="-85.8" font-family="Times,serif" font-size="14.00">GO:0044451</text>
</a>
</g>
<!-- i0&#45;&gt;h0 -->
<g id="edge2" class="edge"><title>i0&#45;&gt;h0</title>
<path fill="none" stroke="black" d="M580.659,-143.697C580.659,-135.983 580.659,-126.712 580.659,-118.112"/>
<polygon fill="black" stroke="black" points="584.159,-118.104 580.659,-108.104 577.159,-118.104 584.159,-118.104"/>
</g>
<!-- e0 -->
<g id="node8" class="node"><title>e0</title>
<a xlink:href="0005667" xlink:title="GO:0005667 (3)">
<ellipse fill="#e98576" stroke="#e98576" cx="748.659" cy="-18" rx="75.2018" ry="18"/>
<text text-anchor="middle" x="748.659" y="-13.8" font-family="Times,serif" font-size="14.00">GO:0005667 (3)</text>
</a>
</g>
<!-- h0&#45;&gt;e0 -->
<g id="edge8" class="edge"><title>h0&#45;&gt;e0</title>
<path fill="none" stroke="black" d="M614.656,-74.8345C640.214,-64.1851 675.483,-49.4897 703.423,-37.8481"/>
<polygon fill="black" stroke="black" points="705.088,-40.9463 712.972,-33.8693 702.395,-34.4847 705.088,-40.9463"/>
</g>
<!-- c1 -->
<g id="node18" class="node"><title>c1</title>
<a xlink:href="0016591" xlink:title="GO:0016591 (1)">
<ellipse fill="#e98576" stroke="#e98576" cx="580.659" cy="-18" rx="75.2018" ry="18"/>
<text text-anchor="middle" x="580.659" y="-13.8" font-family="Times,serif" font-size="14.00">GO:0016591 (1)</text>
</a>
</g>
<!-- h0&#45;&gt;c1 -->
<g id="edge18" class="edge"><title>h0&#45;&gt;c1</title>
<path fill="none" stroke="black" d="M580.659,-71.6966C580.659,-63.9827 580.659,-54.7125 580.659,-46.1124"/>
<polygon fill="black" stroke="black" points="584.159,-46.1043 580.659,-36.1043 577.159,-46.1044 584.159,-46.1043"/>
</g>
<!-- o0 -->
<g id="node4" class="node"><title>o0</title>
<a xlink:href="0044428" xlink:title="GO:0044428">
<ellipse fill="#dddddd" stroke="#dddddd" cx="531.659" cy="-306" rx="61.1934" ry="18"/>
<text text-anchor="middle" x="531.659" y="-301.8" font-family="Times,serif" font-size="14.00">GO:0044428</text>
</a>
</g>
<!-- o0&#45;&gt;i0 -->
<g id="edge76" class="edge"><title>o0&#45;&gt;i0</title>
<path fill="none" stroke="black" d="M533.126,-287.777C535.1,-269.478 539.483,-239.943 548.659,-216 552.274,-206.565 557.549,-196.914 562.777,-188.476"/>
<polygon fill="black" stroke="black" points="565.855,-190.161 568.351,-179.865 559.979,-186.358 565.855,-190.161"/>
</g>
<!-- o0&#45;&gt;h0 -->
<g id="edge4" class="edge"><title>o0&#45;&gt;h0</title>
<path fill="none" stroke="black" d="M523.437,-287.977C509.932,-257.414 486.816,-191.958 510.659,-144 517.32,-130.6 529.167,-119.683 541.242,-111.316"/>
<polygon fill="black" stroke="black" points="543.491,-114.031 550.004,-105.674 539.702,-108.145 543.491,-114.031"/>
</g>
<!-- j0 -->
<g id="node12" class="node"><title>j0</title>
<a xlink:href="0031981" xlink:title="GO:0031981">
<ellipse fill="#dddddd" stroke="#dddddd" cx="618.659" cy="-234" rx="61.1934" ry="18"/>
<text text-anchor="middle" x="618.659" y="-229.8" font-family="Times,serif" font-size="14.00">GO:0031981</text>
</a>
</g>
<!-- o0&#45;&gt;j0 -->
<g id="edge12" class="edge"><title>o0&#45;&gt;j0</title>
<path fill="none" stroke="black" d="M551.837,-288.765C563.366,-279.488 577.999,-267.714 590.631,-257.551"/>
<polygon fill="black" stroke="black" points="592.993,-260.143 598.59,-251.147 588.604,-254.689 592.993,-260.143"/>
</g>
<!-- z0 -->
<g id="node42" class="node"><title>z0</title>
<a xlink:href="0005730" xlink:title="GO:0005730 (3)">
<ellipse fill="#e98576" stroke="#e98576" cx="735.659" cy="-162" rx="75.2018" ry="18"/>
<text text-anchor="middle" x="735.659" y="-157.8" font-family="Times,serif" font-size="14.00">GO:0005730 (3)</text>
</a>
</g>
<!-- o0&#45;&gt;z0 -->
<g id="edge46" class="edge"><title>o0&#45;&gt;z0</title>
<path fill="none" stroke="black" d="M585.384,-297.229C618.286,-290.139 659.524,-276.802 688.659,-252 707.807,-235.699 720.279,-209.599 727.531,-189.869"/>
<polygon fill="black" stroke="black" points="730.907,-190.813 730.854,-180.218 724.289,-188.533 730.907,-190.813"/>
</g>
<!-- f0 -->
<g id="node6" class="node"><title>f0</title>
<a xlink:href="0043234" xlink:title="GO:0043234 (3)">
<ellipse fill="#e98576" stroke="#e98576" cx="748.659" cy="-90" rx="75.2018" ry="18"/>
<text text-anchor="middle" x="748.659" y="-85.8" font-family="Times,serif" font-size="14.00">GO:0043234 (3)</text>
</a>
</g>
<!-- f0&#45;&gt;e0 -->
<g id="edge6" class="edge"><title>f0&#45;&gt;e0</title>
<path fill="none" stroke="black" d="M748.659,-71.6966C748.659,-63.9827 748.659,-54.7125 748.659,-46.1124"/>
<polygon fill="black" stroke="black" points="752.159,-46.1043 748.659,-36.1043 745.159,-46.1044 752.159,-46.1043"/>
</g>
<!-- f0&#45;&gt;c1 -->
<g id="edge16" class="edge"><title>f0&#45;&gt;c1</title>
<path fill="none" stroke="black" d="M713.03,-74.1548C687.613,-63.5644 653.233,-49.2392 625.88,-37.8424"/>
<polygon fill="black" stroke="black" points="627.102,-34.5597 616.525,-33.9443 624.41,-41.0213 627.102,-34.5597"/>
</g>
<!-- k0 -->
<g id="node10" class="node"><title>k0</title>
<a xlink:href="0043233" xlink:title="GO:0043233">
<ellipse fill="#dddddd" stroke="#dddddd" cx="707.659" cy="-450" rx="61.1934" ry="18"/>
<text text-anchor="middle" x="707.659" y="-445.8" font-family="Times,serif" font-size="14.00">GO:0043233</text>
</a>
</g>
<!-- k0&#45;&gt;j0 -->
<g id="edge10" class="edge"><title>k0&#45;&gt;j0</title>
<path fill="none" stroke="black" d="M700.526,-431.849C684.995,-394.505 648.032,-305.628 629.559,-261.209"/>
<polygon fill="black" stroke="black" points="632.774,-259.825 625.702,-251.935 626.31,-262.513 632.774,-259.825"/>
</g>
<!-- j0&#45;&gt;i0 -->
<g id="edge74" class="edge"><title>j0&#45;&gt;i0</title>
<path fill="none" stroke="black" d="M609.46,-216.055C605.091,-208.007 599.77,-198.205 594.895,-189.226"/>
<polygon fill="black" stroke="black" points="597.884,-187.394 590.037,-180.275 591.732,-190.734 597.884,-187.394"/>
</g>
<!-- j0&#45;&gt;z0 -->
<g id="edge42" class="edge"><title>j0&#45;&gt;z0</title>
<path fill="none" stroke="black" d="M644.335,-217.638C660.603,-207.905 681.878,-195.176 699.801,-184.453"/>
<polygon fill="black" stroke="black" points="702.039,-187.193 708.823,-179.055 698.445,-181.186 702.039,-187.193"/>
</g>
<!-- b0 -->
<g id="node14" class="node"><title>b0</title>
<a xlink:href="0044464" xlink:title="GO:0044464">
<ellipse fill="#dddddd" stroke="#dddddd" cx="408.659" cy="-738" rx="61.1934" ry="18"/>
<text text-anchor="middle" x="408.659" y="-733.8" font-family="Times,serif" font-size="14.00">GO:0044464</text>
</a>
</g>
<!-- a0 -->
<g id="node16" class="node"><title>a0</title>
<a xlink:href="0000267" xlink:title="GO:0000267 (3)">
<ellipse fill="#e98576" stroke="#e98576" cx="408.659" cy="-666" rx="75.2018" ry="18"/>
<text text-anchor="middle" x="408.659" y="-661.8" font-family="Times,serif" font-size="14.00">GO:0000267 (3)</text>
</a>
</g>
<!-- b0&#45;&gt;a0 -->
<g id="edge14" class="edge"><title>b0&#45;&gt;a0</title>
<path fill="none" stroke="black" d="M408.659,-719.697C408.659,-711.983 408.659,-702.712 408.659,-694.112"/>
<polygon fill="black" stroke="black" points="412.159,-694.104 408.659,-684.104 405.159,-694.104 412.159,-694.104"/>
</g>
<!-- t0 -->
<g id="node20" class="node"><title>t0</title>
<a xlink:href="0044424" xlink:title="GO:0044424">
<ellipse fill="#dddddd" stroke="#dddddd" cx="199.659" cy="-594" rx="61.1934" ry="18"/>
<text text-anchor="middle" x="199.659" y="-589.8" font-family="Times,serif" font-size="14.00">GO:0044424</text>
</a>
</g>
<!-- b0&#45;&gt;t0 -->
<g id="edge60" class="edge"><title>b0&#45;&gt;t0</title>
<path fill="none" stroke="black" d="M382.383,-721.564C365.543,-711.394 343.406,-697.506 324.659,-684 304.158,-669.231 301.037,-662.938 280.659,-648 265.618,-636.975 248.397,-625.549 233.712,-616.142"/>
<polygon fill="black" stroke="black" points="235.256,-612.976 224.939,-610.567 231.502,-618.884 235.256,-612.976"/>
</g>
<!-- u0 -->
<g id="node53" class="node"><title>u0</title>
<a xlink:href="0005622" xlink:title="GO:0005622">
<ellipse fill="#dddddd" stroke="#dddddd" cx="210.659" cy="-666" rx="61.1934" ry="18"/>
<text text-anchor="middle" x="210.659" y="-661.8" font-family="Times,serif" font-size="14.00">GO:0005622</text>
</a>
</g>
<!-- b0&#45;&gt;u0 -->
<g id="edge56" class="edge"><title>b0&#45;&gt;u0</title>
<path fill="none" stroke="black" d="M370.95,-723.669C338.746,-712.284 292.277,-695.855 257.656,-683.615"/>
<polygon fill="black" stroke="black" points="258.821,-680.315 248.227,-680.282 256.488,-686.915 258.821,-680.315"/>
</g>
<!-- y0 -->
<g id="node22" class="node"><title>y0</title>
<a xlink:href="0005737" xlink:title="GO:0005737 (3)">
<ellipse fill="#e98576" stroke="#e98576" cx="90.6586" cy="-522" rx="75.2018" ry="18"/>
<text text-anchor="middle" x="90.6586" y="-517.8" font-family="Times,serif" font-size="14.00">GO:0005737 (3)</text>
</a>
</g>
<!-- t0&#45;&gt;y0 -->
<g id="edge20" class="edge"><title>t0&#45;&gt;y0</title>
<path fill="none" stroke="black" d="M175.197,-577.291C160.262,-567.7 140.951,-555.298 124.556,-544.769"/>
<polygon fill="black" stroke="black" points="126.1,-541.601 115.795,-539.142 122.318,-547.491 126.1,-541.601"/>
</g>
<!-- s0 -->
<g id="node31" class="node"><title>s0</title>
<a xlink:href="0043229" xlink:title="GO:0043229">
<ellipse fill="#dddddd" stroke="#dddddd" cx="282.659" cy="-522" rx="61.1934" ry="18"/>
<text text-anchor="middle" x="282.659" y="-517.8" font-family="Times,serif" font-size="14.00">GO:0043229</text>
</a>
</g>
<!-- t0&#45;&gt;s0 -->
<g id="edge30" class="edge"><title>t0&#45;&gt;s0</title>
<path fill="none" stroke="black" d="M218.909,-576.765C229.804,-567.576 243.603,-555.938 255.575,-545.842"/>
<polygon fill="black" stroke="black" points="258.125,-548.27 263.512,-539.147 253.612,-542.919 258.125,-548.27"/>
</g>
<!-- x0 -->
<g id="node37" class="node"><title>x0</title>
<a xlink:href="0044444" xlink:title="GO:0044444">
<ellipse fill="#dddddd" stroke="#dddddd" cx="90.6586" cy="-450" rx="61.1934" ry="18"/>
<text text-anchor="middle" x="90.6586" y="-445.8" font-family="Times,serif" font-size="14.00">GO:0044444</text>
</a>
</g>
<!-- t0&#45;&gt;x0 -->
<g id="edge68" class="edge"><title>t0&#45;&gt;x0</title>
<path fill="none" stroke="black" d="M145.224,-585.479C94.2452,-577.188 23.4597,-562.037 6.65858,-540 -3.04217,-527.276 -1.06783,-518.011 6.65858,-504 15.0024,-488.87 29.6839,-477.464 44.4633,-469.185"/>
<polygon fill="black" stroke="black" points="46.3606,-472.144 53.6225,-464.429 43.1347,-465.931 46.3606,-472.144"/>
</g>
<!-- v0 -->
<g id="node69" class="node"><title>v0</title>
<a xlink:href="0044446" xlink:title="GO:0044446">
<ellipse fill="#dddddd" stroke="#dddddd" cx="276.659" cy="-450" rx="61.1934" ry="18"/>
<text text-anchor="middle" x="276.659" y="-445.8" font-family="Times,serif" font-size="14.00">GO:0044446</text>
</a>
</g>
<!-- t0&#45;&gt;v0 -->
<g id="edge84" class="edge"><title>t0&#45;&gt;v0</title>
<path fill="none" stroke="black" d="M198.633,-575.772C198.283,-556.94 200.034,-526.46 212.659,-504 219.644,-491.573 230.771,-480.844 241.803,-472.352"/>
<polygon fill="black" stroke="black" points="244.106,-475.006 250.151,-466.304 239.999,-469.337 244.106,-475.006"/>
</g>
<!-- y0&#45;&gt;x0 -->
<g id="edge66" class="edge"><title>y0&#45;&gt;x0</title>
<path fill="none" stroke="black" d="M90.6586,-503.697C90.6586,-495.983 90.6586,-486.712 90.6586,-478.112"/>
<polygon fill="black" stroke="black" points="94.1587,-478.104 90.6586,-468.104 87.1587,-478.104 94.1587,-478.104"/>
</g>
<!-- c0 -->
<g id="node23" class="node"><title>c0</title>
<a xlink:href="0005575" xlink:title="GO:0005575">
<ellipse fill="#dddddd" stroke="#dddddd" cx="630.659" cy="-882" rx="61.1934" ry="18"/>
<text text-anchor="middle" x="630.659" y="-877.8" font-family="Times,serif" font-size="14.00">GO:0005575</text>
</a>
</g>
<!-- c0&#45;&gt;b0 -->
<g id="edge50" class="edge"><title>c0&#45;&gt;b0</title>
<path fill="none" stroke="black" d="M576.404,-873.357C523.454,-864.79 447.983,-849.261 427.659,-828 412.091,-811.715 407.971,-785.959 407.376,-766.335"/>
<polygon fill="black" stroke="black" points="410.876,-766.157 407.357,-756.163 403.876,-766.169 410.876,-766.157"/>
</g>
<!-- m0 -->
<g id="node25" class="node"><title>m0</title>
<a xlink:href="0044422" xlink:title="GO:0044422">
<ellipse fill="#dddddd" stroke="#dddddd" cx="705.659" cy="-522" rx="61.1934" ry="18"/>
<text text-anchor="middle" x="705.659" y="-517.8" font-family="Times,serif" font-size="14.00">GO:0044422</text>
</a>
</g>
<!-- c0&#45;&gt;m0 -->
<g id="edge22" class="edge"><title>c0&#45;&gt;m0</title>
<path fill="none" stroke="black" d="M637.944,-863.867C648.463,-837.531 666.659,-785.288 666.659,-739 666.659,-739 666.659,-739 666.659,-665 666.659,-623.56 682.294,-577.668 693.765,-549.575"/>
<polygon fill="black" stroke="black" points="697.112,-550.647 697.766,-540.072 690.66,-547.931 697.112,-550.647"/>
</g>
<!-- n0 -->
<g id="node26" class="node"><title>n0</title>
<a xlink:href="0043226" xlink:title="GO:0043226">
<ellipse fill="#dddddd" stroke="#dddddd" cx="564.659" cy="-594" rx="61.1934" ry="18"/>
<text text-anchor="middle" x="564.659" y="-589.8" font-family="Times,serif" font-size="14.00">GO:0043226</text>
</a>
</g>
<!-- c0&#45;&gt;n0 -->
<g id="edge32" class="edge"><title>c0&#45;&gt;n0</title>
<path fill="none" stroke="black" d="M626.728,-863.966C615.703,-816.192 584.418,-680.623 570.951,-622.266"/>
<polygon fill="black" stroke="black" points="574.311,-621.263 568.652,-612.306 567.491,-622.837 574.311,-621.263"/>
</g>
<!-- l0 -->
<g id="node29" class="node"><title>l0</title>
<a xlink:href="0031974" xlink:title="GO:0031974">
<ellipse fill="#dddddd" stroke="#dddddd" cx="768.659" cy="-810" rx="61.1934" ry="18"/>
<text text-anchor="middle" x="768.659" y="-805.8" font-family="Times,serif" font-size="14.00">GO:0031974</text>
</a>
</g>
<!-- c0&#45;&gt;l0 -->
<g id="edge26" class="edge"><title>c0&#45;&gt;l0</title>
<path fill="none" stroke="black" d="M659.925,-866.155C680.417,-855.76 708.001,-841.769 730.258,-830.479"/>
<polygon fill="black" stroke="black" points="732.1,-833.469 739.435,-825.824 728.933,-827.226 732.1,-833.469"/>
</g>
<!-- d0 -->
<g id="node47" class="node"><title>d0</title>
<a xlink:href="0005623" xlink:title="GO:0005623">
<ellipse fill="#dddddd" stroke="#dddddd" cx="497.659" cy="-810" rx="61.1934" ry="18"/>
<text text-anchor="middle" x="497.659" y="-805.8" font-family="Times,serif" font-size="14.00">GO:0005623</text>
</a>
</g>
<!-- c0&#45;&gt;d0 -->
<g id="edge48" class="edge"><title>c0&#45;&gt;d0</title>
<path fill="none" stroke="black" d="M602.127,-865.983C582.579,-855.695 556.449,-841.942 535.212,-830.765"/>
<polygon fill="black" stroke="black" points="536.623,-827.552 526.143,-825.992 533.362,-833.747 536.623,-827.552"/>
</g>
<!-- g0 -->
<g id="node61" class="node"><title>g0</title>
<a xlink:href="0032991" xlink:title="GO:0032991">
<ellipse fill="#dddddd" stroke="#dddddd" cx="883.659" cy="-738" rx="61.1934" ry="18"/>
<text text-anchor="middle" x="883.659" y="-733.8" font-family="Times,serif" font-size="14.00">GO:0032991</text>
</a>
</g>
<!-- c0&#45;&gt;g0 -->
<g id="edge70" class="edge"><title>c0&#45;&gt;g0</title>
<path fill="none" stroke="black" d="M691.225,-878.724C736.221,-874.15 796.801,-861.578 838.659,-828 858.21,-812.316 870.039,-785.91 876.628,-765.924"/>
<polygon fill="black" stroke="black" points="880.04,-766.734 879.609,-756.148 873.344,-764.692 880.04,-766.734"/>
</g>
<!-- m0&#45;&gt;k0 -->
<g id="edge40" class="edge"><title>m0&#45;&gt;k0</title>
<path fill="none" stroke="black" d="M706.153,-503.697C706.373,-495.983 706.638,-486.712 706.884,-478.112"/>
<polygon fill="black" stroke="black" points="710.383,-478.2 707.17,-468.104 703.386,-478 710.383,-478.2"/>
</g>
<!-- m0&#45;&gt;v0 -->
<g id="edge82" class="edge"><title>m0&#45;&gt;v0</title>
<path fill="none" stroke="black" d="M661.122,-509.562C652.384,-507.538 643.261,-505.576 634.659,-504 510.811,-481.308 477.703,-489.594 353.659,-468 346.953,-466.833 339.948,-465.478 333.012,-464.052"/>
<polygon fill="black" stroke="black" points="333.451,-460.567 322.943,-461.925 332.004,-467.416 333.451,-460.567"/>
</g>
<!-- n0&#45;&gt;m0 -->
<g id="edge24" class="edge"><title>n0&#45;&gt;m0</title>
<path fill="none" stroke="black" d="M594.561,-578.155C615.592,-567.714 643.934,-553.644 666.727,-542.328"/>
<polygon fill="black" stroke="black" points="668.399,-545.405 675.799,-537.824 665.286,-539.136 668.399,-545.405"/>
</g>
<!-- n0&#45;&gt;s0 -->
<g id="edge28" class="edge"><title>n0&#45;&gt;s0</title>
<path fill="none" stroke="black" d="M519.35,-581.753C469.912,-569.481 390.757,-549.833 337.76,-536.678"/>
<polygon fill="black" stroke="black" points="338.403,-533.231 327.854,-534.219 336.717,-540.025 338.403,-533.231"/>
</g>
<!-- r0 -->
<g id="node51" class="node"><title>r0</title>
<a xlink:href="0043227" xlink:title="GO:0043227">
<ellipse fill="#dddddd" stroke="#dddddd" cx="423.659" cy="-522" rx="61.1934" ry="18"/>
<text text-anchor="middle" x="423.659" y="-517.8" font-family="Times,serif" font-size="14.00">GO:0043227</text>
</a>
</g>
<!-- n0&#45;&gt;r0 -->
<g id="edge54" class="edge"><title>n0&#45;&gt;r0</title>
<path fill="none" stroke="black" d="M534.756,-578.155C513.725,-567.714 485.383,-553.644 462.59,-542.328"/>
<polygon fill="black" stroke="black" points="464.031,-539.136 453.518,-537.824 460.919,-545.405 464.031,-539.136"/>
</g>
<!-- b1 -->
<g id="node63" class="node"><title>b1</title>
<a xlink:href="0043228" xlink:title="GO:0043228">
<ellipse fill="#dddddd" stroke="#dddddd" cx="564.659" cy="-522" rx="61.1934" ry="18"/>
<text text-anchor="middle" x="564.659" y="-517.8" font-family="Times,serif" font-size="14.00">GO:0043228</text>
</a>
</g>
<!-- n0&#45;&gt;b1 -->
<g id="edge72" class="edge"><title>n0&#45;&gt;b1</title>
<path fill="none" stroke="black" d="M564.659,-575.697C564.659,-567.983 564.659,-558.712 564.659,-550.112"/>
<polygon fill="black" stroke="black" points="568.159,-550.104 564.659,-540.104 561.159,-550.104 568.159,-550.104"/>
</g>
<!-- l0&#45;&gt;k0 -->
<g id="edge38" class="edge"><title>l0&#45;&gt;k0</title>
<path fill="none" stroke="black" d="M773.92,-791.698C781.517,-765.142 794.659,-712.614 794.659,-667 794.659,-667 794.659,-667 794.659,-593 794.659,-552.553 797.127,-538.279 775.659,-504 767.731,-491.342 755.653,-480.5 743.864,-471.981"/>
<polygon fill="black" stroke="black" points="745.626,-468.946 735.394,-466.196 741.677,-474.726 745.626,-468.946"/>
</g>
<!-- q0 -->
<g id="node34" class="node"><title>q0</title>
<a xlink:href="0043231" xlink:title="GO:0043231">
<ellipse fill="#dddddd" stroke="#dddddd" cx="423.659" cy="-450" rx="61.1934" ry="18"/>
<text text-anchor="middle" x="423.659" y="-445.8" font-family="Times,serif" font-size="14.00">GO:0043231</text>
</a>
</g>
<!-- s0&#45;&gt;q0 -->
<g id="edge64" class="edge"><title>s0&#45;&gt;q0</title>
<path fill="none" stroke="black" d="M312.561,-506.155C333.592,-495.714 361.934,-481.644 384.727,-470.328"/>
<polygon fill="black" stroke="black" points="386.399,-473.405 393.799,-465.824 383.286,-467.136 386.399,-473.405"/>
</g>
<!-- a1 -->
<g id="node43" class="node"><title>a1</title>
<a xlink:href="0043232" xlink:title="GO:0043232">
<ellipse fill="#dddddd" stroke="#dddddd" cx="564.659" cy="-450" rx="61.1934" ry="18"/>
<text text-anchor="middle" x="564.659" y="-445.8" font-family="Times,serif" font-size="14.00">GO:0043232</text>
</a>
</g>
<!-- s0&#45;&gt;a1 -->
<g id="edge94" class="edge"><title>s0&#45;&gt;a1</title>
<path fill="none" stroke="black" d="M327.967,-509.753C377.405,-497.481 456.56,-477.833 509.557,-464.678"/>
<polygon fill="black" stroke="black" points="510.601,-468.025 519.463,-462.219 508.914,-461.231 510.601,-468.025"/>
</g>
<!-- s0&#45;&gt;v0 -->
<g id="edge80" class="edge"><title>s0&#45;&gt;v0</title>
<path fill="none" stroke="black" d="M281.175,-503.697C280.514,-495.983 279.72,-486.712 278.983,-478.112"/>
<polygon fill="black" stroke="black" points="282.466,-477.769 278.125,-468.104 275.492,-478.367 282.466,-477.769"/>
</g>
<!-- w0 -->
<g id="node36" class="node"><title>w0</title>
<a xlink:href="0005739" xlink:title="GO:0005739 (3)">
<ellipse fill="#e98576" stroke="#e98576" cx="376.659" cy="-378" rx="75.2018" ry="18"/>
<text text-anchor="middle" x="376.659" y="-373.8" font-family="Times,serif" font-size="14.00">GO:0005739 (3)</text>
</a>
</g>
<!-- q0&#45;&gt;w0 -->
<g id="edge34" class="edge"><title>q0&#45;&gt;w0</title>
<path fill="none" stroke="black" d="M412.281,-432.055C406.764,-423.837 400.018,-413.791 393.887,-404.66"/>
<polygon fill="black" stroke="black" points="396.738,-402.626 388.258,-396.275 390.926,-406.529 396.738,-402.626"/>
</g>
<!-- p0 -->
<g id="node67" class="node"><title>p0</title>
<a xlink:href="0005634" xlink:title="GO:0005634 (3)">
<ellipse fill="#e98576" stroke="#e98576" cx="544.659" cy="-378" rx="75.2018" ry="18"/>
<text text-anchor="middle" x="544.659" y="-373.8" font-family="Times,serif" font-size="14.00">GO:0005634 (3)</text>
</a>
</g>
<!-- q0&#45;&gt;p0 -->
<g id="edge78" class="edge"><title>q0&#45;&gt;p0</title>
<path fill="none" stroke="black" d="M450.213,-433.638C467.311,-423.747 489.757,-410.761 508.477,-399.931"/>
<polygon fill="black" stroke="black" points="510.425,-402.848 517.328,-394.811 506.92,-396.789 510.425,-402.848"/>
</g>
<!-- x0&#45;&gt;w0 -->
<g id="edge36" class="edge"><title>x0&#45;&gt;w0</title>
<path fill="none" stroke="black" d="M136.292,-437.831C184.989,-425.912 262.374,-406.972 316.132,-393.814"/>
<polygon fill="black" stroke="black" points="317.002,-397.205 325.883,-391.428 315.337,-390.405 317.002,-397.205"/>
</g>
<!-- a1&#45;&gt;z0 -->
<g id="edge44" class="edge"><title>a1&#45;&gt;z0</title>
<path fill="none" stroke="black" d="M587.287,-433.196C600.318,-423.414 616.474,-410.066 628.659,-396 677.767,-339.308 688.877,-321.67 716.659,-252 724.595,-232.097 729.455,-208.303 732.271,-190.327"/>
<polygon fill="black" stroke="black" points="735.763,-190.631 733.735,-180.232 728.836,-189.626 735.763,-190.631"/>
</g>
<!-- d0&#45;&gt;b0 -->
<g id="edge52" class="edge"><title>d0&#45;&gt;b0</title>
<path fill="none" stroke="black" d="M477.016,-792.765C465.222,-783.488 450.253,-771.714 437.331,-761.551"/>
<polygon fill="black" stroke="black" points="439.213,-758.578 429.189,-755.147 434.885,-764.081 439.213,-758.578"/>
</g>
<!-- r0&#45;&gt;q0 -->
<g id="edge62" class="edge"><title>r0&#45;&gt;q0</title>
<path fill="none" stroke="black" d="M423.659,-503.697C423.659,-495.983 423.659,-486.712 423.659,-478.112"/>
<polygon fill="black" stroke="black" points="427.159,-478.104 423.659,-468.104 420.159,-478.104 427.159,-478.104"/>
</g>
<!-- u0&#45;&gt;t0 -->
<g id="edge58" class="edge"><title>u0&#45;&gt;t0</title>
<path fill="none" stroke="black" d="M207.939,-647.697C206.727,-639.983 205.271,-630.712 203.919,-622.112"/>
<polygon fill="black" stroke="black" points="207.356,-621.44 202.346,-612.104 200.441,-622.526 207.356,-621.44"/>
</g>
<!-- g0&#45;&gt;f0 -->
<g id="edge90" class="edge"><title>g0&#45;&gt;f0</title>
<path fill="none" stroke="black" d="M881.683,-719.978C878.769,-693.355 873.659,-640.226 873.659,-595 873.659,-595 873.659,-595 873.659,-233 873.659,-179.333 822.733,-136.324 785.892,-112.232"/>
<polygon fill="black" stroke="black" points="787.656,-109.206 777.336,-106.806 783.907,-115.117 787.656,-109.206"/>
</g>
<!-- b1&#45;&gt;a1 -->
<g id="edge92" class="edge"><title>b1&#45;&gt;a1</title>
<path fill="none" stroke="black" d="M564.659,-503.697C564.659,-495.983 564.659,-486.712 564.659,-478.112"/>
<polygon fill="black" stroke="black" points="568.159,-478.104 564.659,-468.104 561.159,-478.104 568.159,-478.104"/>
</g>
<!-- p0&#45;&gt;o0 -->
<g id="edge86" class="edge"><title>p0&#45;&gt;o0</title>
<path fill="none" stroke="black" d="M541.445,-359.697C540.013,-351.983 538.291,-342.712 536.694,-334.112"/>
<polygon fill="black" stroke="black" points="540.102,-333.297 534.835,-324.104 533.22,-334.575 540.102,-333.297"/>
</g>
<!-- v0&#45;&gt;o0 -->
<g id="edge88" class="edge"><title>v0&#45;&gt;o0</title>
<path fill="none" stroke="black" d="M274.579,-431.78C273.194,-411.793 274.28,-379.135 292.659,-360 315.98,-335.718 401.972,-321.192 464.133,-313.646"/>
<polygon fill="black" stroke="black" points="464.756,-317.097 474.278,-312.451 463.937,-310.145 464.756,-317.097"/>
</g>
</g>
</svg>
