<?xml version="1.0" encoding="UTF-8" standalone="no"?>
<!DOCTYPE svg PUBLIC "-//W3C//DTD SVG 1.1//EN"
 "http://www.w3.org/Graphics/SVG/1.1/DTD/svg11.dtd">
<!-- Generated by graphviz version 2.28.0 (20110622.2320)
 -->
<!-- Title: G Pages: 1 -->
<svg width="397pt" height="188pt"
 viewBox="0.00 0.00 397.00 188.00" xmlns="http://www.w3.org/2000/svg" xmlns:xlink="http://www.w3.org/1999/xlink">
<g id="graph1" class="graph" transform="scale(1 1) rotate(0) translate(4 184)">
<title>G</title>
<polygon fill="white" stroke="white" points="-4,5 -4,-184 394,-184 394,5 -4,5"/>
<!-- c0 -->
<g id="node1" class="node"><title>c0</title>
<a xlink:href="0008150" xlink:title="GO:0008150">
<ellipse fill="#dddddd" stroke="#dddddd" cx="236" cy="-162" rx="61.1934" ry="18"/>
<text text-anchor="middle" x="236" y="-157.8" font-family="Times,serif" font-size="14.00">GO:0008150</text>
</a>
</g>
<!-- b0 -->
<g id="node3" class="node"><title>b0</title>
<a xlink:href="0008152" xlink:title="GO:0008152">
<ellipse fill="#dddddd" stroke="#dddddd" cx="159" cy="-90" rx="61.1934" ry="18"/>
<text text-anchor="middle" x="159" y="-85.8" font-family="Times,serif" font-size="14.00">GO:0008152</text>
</a>
</g>
<!-- c0&#45;&gt;b0 -->
<g id="edge2" class="edge"><title>c0&#45;&gt;b0</title>
<path fill="none" stroke="black" d="M218.141,-144.765C208.203,-135.73 195.659,-124.326 184.684,-114.349"/>
<polygon fill="black" stroke="black" points="186.783,-111.527 177.029,-107.39 182.074,-116.706 186.783,-111.527"/>
</g>
<!-- e0 -->
<g id="node5" class="node"><title>e0</title>
<a xlink:href="0050896" xlink:title="GO:0050896 (1)">
<ellipse fill="#e98576" stroke="#e98576" cx="314" cy="-90" rx="75.2018" ry="18"/>
<text text-anchor="middle" x="314" y="-85.8" font-family="Times,serif" font-size="14.00">GO:0050896 (1)</text>
</a>
</g>
<!-- c0&#45;&gt;e0 -->
<g id="edge4" class="edge"><title>c0&#45;&gt;e0</title>
<path fill="none" stroke="black" d="M254.091,-144.765C264.086,-135.795 276.682,-124.49 287.743,-114.564"/>
<polygon fill="black" stroke="black" points="290.361,-116.917 295.466,-107.633 285.685,-111.708 290.361,-116.917"/>
</g>
<!-- d0 -->
<g id="node7" class="node"><title>d0</title>
<a xlink:href="0015979" xlink:title="GO:0015979 (1)">
<ellipse fill="#e98576" stroke="#e98576" cx="75" cy="-18" rx="75.2018" ry="18"/>
<text text-anchor="middle" x="75" y="-13.8" font-family="Times,serif" font-size="14.00">GO:0015979 (1)</text>
</a>
</g>
<!-- b0&#45;&gt;d0 -->
<g id="edge6" class="edge"><title>b0&#45;&gt;d0</title>
<path fill="none" stroke="black" d="M139.518,-72.7646C128.57,-63.642 114.725,-52.1046 102.67,-42.0585"/>
<polygon fill="black" stroke="black" points="104.591,-39.1029 94.6677,-35.3898 100.109,-44.4805 104.591,-39.1029"/>
</g>
<!-- a0 -->
<g id="node9" class="node"><title>a0</title>
<a xlink:href="0006091" xlink:title="GO:0006091 (1)">
<ellipse fill="#e98576" stroke="#e98576" cx="243" cy="-18" rx="75.2018" ry="18"/>
<text text-anchor="middle" x="243" y="-13.8" font-family="Times,serif" font-size="14.00">GO:0006091 (1)</text>
</a>
</g>
<!-- b0&#45;&gt;a0 -->
<g id="edge8" class="edge"><title>b0&#45;&gt;a0</title>
<path fill="none" stroke="black" d="M178.482,-72.7646C189.43,-63.642 203.275,-52.1046 215.33,-42.0585"/>
<polygon fill="black" stroke="black" points="217.891,-44.4805 223.332,-35.3898 213.409,-39.1029 217.891,-44.4805"/>
</g>
</g>
</svg>
