<?xml version="1.0" encoding="UTF-8" standalone="no"?>
<!DOCTYPE svg PUBLIC "-//W3C//DTD SVG 1.1//EN"
 "http://www.w3.org/Graphics/SVG/1.1/DTD/svg11.dtd">
<!-- Generated by graphviz version 2.28.0 (20110622.2320)
 -->
<!-- Title: G Pages: 1 -->
<svg width="3108pt" height="260pt"
 viewBox="0.00 0.00 3108.00 260.00" xmlns="http://www.w3.org/2000/svg" xmlns:xlink="http://www.w3.org/1999/xlink">
<g id="graph1" class="graph" transform="scale(1 1) rotate(0) translate(4 256)">
<title>G</title>
<polygon fill="white" stroke="white" points="-4,5 -4,-256 3105,-256 3105,5 -4,5"/>
<!-- b0 -->
<g id="node1" class="node"><title>b0</title>
<a xlink:href="0005488" xlink:title="GO:0005488">
<ellipse fill="#dddddd" stroke="#dddddd" cx="1009" cy="-162" rx="61.1934" ry="18"/>
<text text-anchor="middle" x="1009" y="-157.8" font-family="Times,serif" font-size="14.00">GO:0005488</text>
</a>
</g>
<!-- r0 -->
<g id="node3" class="node"><title>r0</title>
<a xlink:href="0003823" xlink:title="GO:0003823 (1)">
<ellipse fill="#e98576" stroke="#e98576" cx="75" cy="-90" rx="75.2018" ry="18"/>
<text text-anchor="middle" x="75" y="-85.8" font-family="Times,serif" font-size="14.00">GO:0003823 (1)</text>
</a>
</g>
<!-- b0&#45;&gt;r0 -->
<g id="edge2" class="edge"><title>b0&#45;&gt;r0</title>
<path fill="none" stroke="black" d="M947.913,-160.066C807.835,-157.298 452.912,-146.718 159,-108 152.26,-107.112 145.251,-106 138.283,-104.771"/>
<polygon fill="black" stroke="black" points="138.608,-101.272 128.139,-102.901 137.338,-108.156 138.608,-101.272"/>
</g>
<!-- y0 -->
<g id="node11" class="node"><title>y0</title>
<a xlink:href="0042277" xlink:title="GO:0042277 (1)">
<ellipse fill="#e98576" stroke="#e98576" cx="243" cy="-90" rx="75.2018" ry="18"/>
<text text-anchor="middle" x="243" y="-85.8" font-family="Times,serif" font-size="14.00">GO:0042277 (1)</text>
</a>
</g>
<!-- b0&#45;&gt;y0 -->
<g id="edge8" class="edge"><title>b0&#45;&gt;y0</title>
<path fill="none" stroke="black" d="M948.521,-158.782C829.185,-153.857 555.184,-139.835 327,-108 320.267,-107.061 313.262,-105.915 306.297,-104.667"/>
<polygon fill="black" stroke="black" points="306.628,-101.169 296.156,-102.777 305.345,-108.05 306.628,-101.169"/>
</g>
<!-- x0 -->
<g id="node13" class="node"><title>x0</title>
<a xlink:href="0019825" xlink:title="GO:0019825 (1)">
<ellipse fill="#e98576" stroke="#e98576" cx="411" cy="-90" rx="75.2018" ry="18"/>
<text text-anchor="middle" x="411" y="-85.8" font-family="Times,serif" font-size="14.00">GO:0019825 (1)</text>
</a>
</g>
<!-- b0&#45;&gt;x0 -->
<g id="edge10" class="edge"><title>b0&#45;&gt;x0</title>
<path fill="none" stroke="black" d="M950.181,-156.8C854.434,-149.546 659.068,-133.001 495,-108 488.379,-106.991 481.488,-105.811 474.629,-104.552"/>
<polygon fill="black" stroke="black" points="475.112,-101.081 464.636,-102.661 473.81,-107.959 475.112,-101.081"/>
</g>
<!-- g0 -->
<g id="node16" class="node"><title>g0</title>
<a xlink:href="0001882" xlink:title="GO:0001882 (6)">
<ellipse fill="#e98576" stroke="#e98576" cx="579" cy="-90" rx="75.2018" ry="18"/>
<text text-anchor="middle" x="579" y="-85.8" font-family="Times,serif" font-size="14.00">GO:0001882 (6)</text>
</a>
</g>
<!-- b0&#45;&gt;g0 -->
<g id="edge14" class="edge"><title>b0&#45;&gt;g0</title>
<path fill="none" stroke="black" d="M954.93,-153.532C886.726,-143.925 765.913,-126.285 663,-108 656.751,-106.89 650.252,-105.677 643.761,-104.428"/>
<polygon fill="black" stroke="black" points="644.088,-100.926 633.602,-102.443 642.745,-107.796 644.088,-100.926"/>
</g>
<!-- a0 -->
<g id="node18" class="node"><title>a0</title>
<a xlink:href="0005515" xlink:title="GO:0005515 (18)">
<ellipse fill="#e98576" stroke="#e98576" cx="752" cy="-90" rx="79.4447" ry="18"/>
<text text-anchor="middle" x="752" y="-85.8" font-family="Times,serif" font-size="14.00">GO:0005515 (18)</text>
</a>
</g>
<!-- b0&#45;&gt;a0 -->
<g id="edge16" class="edge"><title>b0&#45;&gt;a0</title>
<path fill="none" stroke="black" d="M965.694,-149.205C923.091,-137.601 857.748,-119.803 810.534,-106.943"/>
<polygon fill="black" stroke="black" points="811.317,-103.529 800.749,-104.278 809.478,-110.283 811.317,-103.529"/>
</g>
<!-- w0 -->
<g id="node27" class="node"><title>w0</title>
<a xlink:href="0005496" xlink:title="GO:0005496 (1)">
<ellipse fill="#e98576" stroke="#e98576" cx="925" cy="-90" rx="75.2018" ry="18"/>
<text text-anchor="middle" x="925" y="-85.8" font-family="Times,serif" font-size="14.00">GO:0005496 (1)</text>
</a>
</g>
<!-- b0&#45;&gt;w0 -->
<g id="edge24" class="edge"><title>b0&#45;&gt;w0</title>
<path fill="none" stroke="black" d="M989.518,-144.765C978.57,-135.642 964.725,-124.105 952.67,-114.059"/>
<polygon fill="black" stroke="black" points="954.591,-111.103 944.668,-107.39 950.109,-116.48 954.591,-111.103"/>
</g>
<!-- e0 -->
<g id="node33" class="node"><title>e0</title>
<a xlink:href="0043167" xlink:title="GO:0043167 (8)">
<ellipse fill="#e98576" stroke="#e98576" cx="1093" cy="-90" rx="75.2018" ry="18"/>
<text text-anchor="middle" x="1093" y="-85.8" font-family="Times,serif" font-size="14.00">GO:0043167 (8)</text>
</a>
</g>
<!-- b0&#45;&gt;e0 -->
<g id="edge30" class="edge"><title>b0&#45;&gt;e0</title>
<path fill="none" stroke="black" d="M1028.48,-144.765C1039.43,-135.642 1053.27,-124.105 1065.33,-114.059"/>
<polygon fill="black" stroke="black" points="1067.89,-116.48 1073.33,-107.39 1063.41,-111.103 1067.89,-116.48"/>
</g>
<!-- d0 -->
<g id="node38" class="node"><title>d0</title>
<a xlink:href="0003676" xlink:title="GO:0003676 (9)">
<ellipse fill="#e98576" stroke="#e98576" cx="1261" cy="-90" rx="75.2018" ry="18"/>
<text text-anchor="middle" x="1261" y="-85.8" font-family="Times,serif" font-size="14.00">GO:0003676 (9)</text>
</a>
</g>
<!-- b0&#45;&gt;d0 -->
<g id="edge36" class="edge"><title>b0&#45;&gt;d0</title>
<path fill="none" stroke="black" d="M1052.03,-149.046C1093.94,-137.405 1157.9,-119.64 1204.01,-106.83"/>
<polygon fill="black" stroke="black" points="1205.16,-110.143 1213.86,-104.095 1203.29,-103.399 1205.16,-110.143"/>
</g>
<!-- v0 -->
<g id="node40" class="node"><title>v0</title>
<a xlink:href="0046906" xlink:title="GO:0046906 (1)">
<ellipse fill="#e98576" stroke="#e98576" cx="1429" cy="-90" rx="75.2018" ry="18"/>
<text text-anchor="middle" x="1429" y="-85.8" font-family="Times,serif" font-size="14.00">GO:0046906 (1)</text>
</a>
</g>
<!-- b0&#45;&gt;v0 -->
<g id="edge38" class="edge"><title>b0&#45;&gt;v0</title>
<path fill="none" stroke="black" d="M1062.66,-153.267C1129.08,-143.526 1245.61,-125.887 1345,-108 1351.25,-106.876 1357.74,-105.654 1364.23,-104.399"/>
<polygon fill="black" stroke="black" points="1365.25,-107.766 1374.39,-102.408 1363.9,-100.897 1365.25,-107.766"/>
</g>
<!-- f0 -->
<g id="node44" class="node"><title>f0</title>
<a xlink:href="0000166" xlink:title="GO:0000166 (7)">
<ellipse fill="#e98576" stroke="#e98576" cx="1597" cy="-90" rx="75.2018" ry="18"/>
<text text-anchor="middle" x="1597" y="-85.8" font-family="Times,serif" font-size="14.00">GO:0000166 (7)</text>
</a>
</g>
<!-- b0&#45;&gt;f0 -->
<g id="edge42" class="edge"><title>b0&#45;&gt;f0</title>
<path fill="none" stroke="black" d="M1067.82,-156.637C1162.11,-149.234 1352.77,-132.582 1513,-108 1519.62,-106.984 1526.51,-105.8 1533.37,-104.538"/>
<polygon fill="black" stroke="black" points="1534.19,-107.945 1543.36,-102.644 1532.89,-101.068 1534.19,-107.945"/>
</g>
<!-- t0 -->
<g id="node48" class="node"><title>t0</title>
<a xlink:href="0048037" xlink:title="GO:0048037 (1)">
<ellipse fill="#e98576" stroke="#e98576" cx="1765" cy="-90" rx="75.2018" ry="18"/>
<text text-anchor="middle" x="1765" y="-85.8" font-family="Times,serif" font-size="14.00">GO:0048037 (1)</text>
</a>
</g>
<!-- b0&#45;&gt;t0 -->
<g id="edge46" class="edge"><title>b0&#45;&gt;t0</title>
<path fill="none" stroke="black" d="M1069.5,-158.684C1187.57,-153.622 1456.74,-139.419 1681,-108 1687.73,-107.057 1694.74,-105.909 1701.7,-104.659"/>
<polygon fill="black" stroke="black" points="1702.65,-108.042 1711.84,-102.768 1701.37,-101.161 1702.65,-108.042"/>
</g>
<!-- i0 -->
<g id="node4" class="node"><title>i0</title>
<a xlink:href="0003824" xlink:title="GO:0003824 (1)">
<ellipse fill="#e98576" stroke="#e98576" cx="2185" cy="-162" rx="75.2018" ry="18"/>
<text text-anchor="middle" x="2185" y="-157.8" font-family="Times,serif" font-size="14.00">GO:0003824 (1)</text>
</a>
</g>
<!-- q0 -->
<g id="node6" class="node"><title>q0</title>
<a xlink:href="0016853" xlink:title="GO:0016853 (1)">
<ellipse fill="#e98576" stroke="#e98576" cx="1933" cy="-90" rx="75.2018" ry="18"/>
<text text-anchor="middle" x="1933" y="-85.8" font-family="Times,serif" font-size="14.00">GO:0016853 (1)</text>
</a>
</g>
<!-- i0&#45;&gt;q0 -->
<g id="edge4" class="edge"><title>i0&#45;&gt;q0</title>
<path fill="none" stroke="black" d="M2137.9,-147.916C2096.05,-136.29 2034.76,-119.267 1990.13,-106.868"/>
<polygon fill="black" stroke="black" points="1990.87,-103.443 1980.3,-104.139 1989,-110.188 1990.87,-103.443"/>
</g>
<!-- h0 -->
<g id="node23" class="node"><title>h0</title>
<a xlink:href="0016787" xlink:title="GO:0016787 (4)">
<ellipse fill="#e98576" stroke="#e98576" cx="2101" cy="-90" rx="75.2018" ry="18"/>
<text text-anchor="middle" x="2101" y="-85.8" font-family="Times,serif" font-size="14.00">GO:0016787 (4)</text>
</a>
</g>
<!-- i0&#45;&gt;h0 -->
<g id="edge32" class="edge"><title>i0&#45;&gt;h0</title>
<path fill="none" stroke="black" d="M2165.09,-144.411C2154.21,-135.345 2140.57,-123.974 2128.67,-114.057"/>
<polygon fill="black" stroke="black" points="2130.69,-111.183 2120.76,-107.47 2126.21,-116.561 2130.69,-111.183"/>
</g>
<!-- l0 -->
<g id="node36" class="node"><title>l0</title>
<a xlink:href="0016740" xlink:title="GO:0016740 (3)">
<ellipse fill="#e98576" stroke="#e98576" cx="2269" cy="-90" rx="75.2018" ry="18"/>
<text text-anchor="middle" x="2269" y="-85.8" font-family="Times,serif" font-size="14.00">GO:0016740 (3)</text>
</a>
</g>
<!-- i0&#45;&gt;l0 -->
<g id="edge34" class="edge"><title>i0&#45;&gt;l0</title>
<path fill="none" stroke="black" d="M2204.91,-144.411C2215.79,-135.345 2229.43,-123.974 2241.33,-114.057"/>
<polygon fill="black" stroke="black" points="2243.79,-116.561 2249.24,-107.47 2239.31,-111.183 2243.79,-116.561"/>
</g>
<!-- j0 -->
<g id="node42" class="node"><title>j0</title>
<a xlink:href="0016491" xlink:title="GO:0016491 (4)">
<ellipse fill="#e98576" stroke="#e98576" cx="2437" cy="-90" rx="75.2018" ry="18"/>
<text text-anchor="middle" x="2437" y="-85.8" font-family="Times,serif" font-size="14.00">GO:0016491 (4)</text>
</a>
</g>
<!-- i0&#45;&gt;j0 -->
<g id="edge40" class="edge"><title>i0&#45;&gt;j0</title>
<path fill="none" stroke="black" d="M2232.1,-147.916C2273.95,-136.29 2335.24,-119.267 2379.87,-106.868"/>
<polygon fill="black" stroke="black" points="2381,-110.188 2389.7,-104.139 2379.13,-103.443 2381,-110.188"/>
</g>
<!-- c0 -->
<g id="node7" class="node"><title>c0</title>
<a xlink:href="0003674" xlink:title="GO:0003674 (3)">
<ellipse fill="#e98576" stroke="#e98576" cx="2521" cy="-234" rx="75.2018" ry="18"/>
<text text-anchor="middle" x="2521" y="-229.8" font-family="Times,serif" font-size="14.00">GO:0003674 (3)</text>
</a>
</g>
<!-- c0&#45;&gt;b0 -->
<g id="edge18" class="edge"><title>c0&#45;&gt;b0</title>
<path fill="none" stroke="black" d="M2448.07,-229.624C2191.34,-217.738 1331.26,-177.919 1079.06,-166.244"/>
<polygon fill="black" stroke="black" points="1079.08,-162.741 1068.93,-165.775 1078.76,-169.733 1079.08,-162.741"/>
</g>
<!-- c0&#45;&gt;i0 -->
<g id="edge12" class="edge"><title>c0&#45;&gt;i0</title>
<path fill="none" stroke="black" d="M2466.27,-221.597C2406.96,-209.242 2312.4,-189.541 2249.52,-176.441"/>
<polygon fill="black" stroke="black" points="2250.21,-173.011 2239.71,-174.398 2248.78,-179.864 2250.21,-173.011"/>
</g>
<!-- p0 -->
<g id="node9" class="node"><title>p0</title>
<a xlink:href="0030234" xlink:title="GO:0030234 (1)">
<ellipse fill="#e98576" stroke="#e98576" cx="2353" cy="-162" rx="75.2018" ry="18"/>
<text text-anchor="middle" x="2353" y="-157.8" font-family="Times,serif" font-size="14.00">GO:0030234 (1)</text>
</a>
</g>
<!-- c0&#45;&gt;p0 -->
<g id="edge6" class="edge"><title>c0&#45;&gt;p0</title>
<path fill="none" stroke="black" d="M2485.37,-218.155C2459.95,-207.564 2425.57,-193.239 2398.22,-181.842"/>
<polygon fill="black" stroke="black" points="2399.44,-178.56 2388.87,-177.944 2396.75,-185.021 2399.44,-178.56"/>
</g>
<!-- o0 -->
<g id="node20" class="node"><title>o0</title>
<a xlink:href="0060089" xlink:title="GO:0060089 (1)">
<ellipse fill="#e98576" stroke="#e98576" cx="2521" cy="-162" rx="75.2018" ry="18"/>
<text text-anchor="middle" x="2521" y="-157.8" font-family="Times,serif" font-size="14.00">GO:0060089 (1)</text>
</a>
</g>
<!-- c0&#45;&gt;o0 -->
<g id="edge48" class="edge"><title>c0&#45;&gt;o0</title>
<path fill="none" stroke="black" d="M2521,-215.697C2521,-207.983 2521,-198.712 2521,-190.112"/>
<polygon fill="black" stroke="black" points="2524.5,-190.104 2521,-180.104 2517.5,-190.104 2524.5,-190.104"/>
</g>
<!-- m0 -->
<g id="node29" class="node"><title>m0</title>
<a xlink:href="0016209" xlink:title="GO:0016209 (2)">
<ellipse fill="#e98576" stroke="#e98576" cx="2689" cy="-162" rx="75.2018" ry="18"/>
<text text-anchor="middle" x="2689" y="-157.8" font-family="Times,serif" font-size="14.00">GO:0016209 (2)</text>
</a>
</g>
<!-- c0&#45;&gt;m0 -->
<g id="edge26" class="edge"><title>c0&#45;&gt;m0</title>
<path fill="none" stroke="black" d="M2556.63,-218.155C2582.05,-207.564 2616.43,-193.239 2643.78,-181.842"/>
<polygon fill="black" stroke="black" points="2645.25,-185.021 2653.13,-177.944 2642.56,-178.56 2645.25,-185.021"/>
</g>
<!-- k0 -->
<g id="node31" class="node"><title>k0</title>
<a xlink:href="0005215" xlink:title="GO:0005215 (3)">
<ellipse fill="#e98576" stroke="#e98576" cx="2857" cy="-162" rx="75.2018" ry="18"/>
<text text-anchor="middle" x="2857" y="-157.8" font-family="Times,serif" font-size="14.00">GO:0005215 (3)</text>
</a>
</g>
<!-- c0&#45;&gt;k0 -->
<g id="edge28" class="edge"><title>c0&#45;&gt;k0</title>
<path fill="none" stroke="black" d="M2575.73,-221.597C2635.04,-209.242 2729.6,-189.541 2792.48,-176.441"/>
<polygon fill="black" stroke="black" points="2793.22,-179.864 2802.29,-174.398 2791.79,-173.011 2793.22,-179.864"/>
</g>
<!-- s0 -->
<g id="node46" class="node"><title>s0</title>
<a xlink:href="0005198" xlink:title="GO:0005198 (1)">
<ellipse fill="#e98576" stroke="#e98576" cx="3025" cy="-162" rx="75.2018" ry="18"/>
<text text-anchor="middle" x="3025" y="-157.8" font-family="Times,serif" font-size="14.00">GO:0005198 (1)</text>
</a>
</g>
<!-- c0&#45;&gt;s0 -->
<g id="edge44" class="edge"><title>c0&#45;&gt;s0</title>
<path fill="none" stroke="black" d="M2588.51,-226.041C2671.67,-217.109 2817.16,-200.316 2941,-180 2947.51,-178.932 2954.29,-177.724 2961.04,-176.456"/>
<polygon fill="black" stroke="black" points="2961.72,-179.889 2970.88,-174.566 2960.4,-173.014 2961.72,-179.889"/>
</g>
<!-- n0 -->
<g id="node22" class="node"><title>n0</title>
<a xlink:href="0004871" xlink:title="GO:0004871 (2)">
<ellipse fill="#e98576" stroke="#e98576" cx="2605" cy="-90" rx="75.2018" ry="18"/>
<text text-anchor="middle" x="2605" y="-85.8" font-family="Times,serif" font-size="14.00">GO:0004871 (2)</text>
</a>
</g>
<!-- o0&#45;&gt;n0 -->
<g id="edge20" class="edge"><title>o0&#45;&gt;n0</title>
<path fill="none" stroke="black" d="M2540.91,-144.411C2551.79,-135.345 2565.43,-123.974 2577.33,-114.057"/>
<polygon fill="black" stroke="black" points="2579.79,-116.561 2585.24,-107.47 2575.31,-111.183 2579.79,-116.561"/>
</g>
<!-- u0 -->
<g id="node25" class="node"><title>u0</title>
<a xlink:href="0008233" xlink:title="GO:0008233 (1)">
<ellipse fill="#e98576" stroke="#e98576" cx="2101" cy="-18" rx="75.2018" ry="18"/>
<text text-anchor="middle" x="2101" y="-13.8" font-family="Times,serif" font-size="14.00">GO:0008233 (1)</text>
</a>
</g>
<!-- h0&#45;&gt;u0 -->
<g id="edge22" class="edge"><title>h0&#45;&gt;u0</title>
<path fill="none" stroke="black" d="M2101,-71.6966C2101,-63.9827 2101,-54.7125 2101,-46.1124"/>
<polygon fill="black" stroke="black" points="2104.5,-46.1043 2101,-36.1043 2097.5,-46.1044 2104.5,-46.1043"/>
</g>
</g>
</svg>
