<?xml version="1.0" encoding="UTF-8" standalone="no"?>
<!DOCTYPE svg PUBLIC "-//W3C//DTD SVG 1.1//EN"
 "http://www.w3.org/Graphics/SVG/1.1/DTD/svg11.dtd">
<!-- Generated by graphviz version 2.28.0 (20110622.2320)
 -->
<!-- Title: G Pages: 1 -->
<svg width="2006pt" height="260pt"
 viewBox="0.00 0.00 2006.00 260.00" xmlns="http://www.w3.org/2000/svg" xmlns:xlink="http://www.w3.org/1999/xlink">
<g id="graph1" class="graph" transform="scale(1 1) rotate(0) translate(4 256)">
<title>G</title>
<polygon fill="white" stroke="white" points="-4,5 -4,-256 2003,-256 2003,5 -4,5"/>
<!-- b0 -->
<g id="node1" class="node"><title>b0</title>
<a xlink:href="0005488" xlink:title="GO:0005488">
<ellipse fill="#dddddd" stroke="#dddddd" cx="579" cy="-162" rx="61.1934" ry="18"/>
<text text-anchor="middle" x="579" y="-157.8" font-family="Times,serif" font-size="14.00">GO:0005488</text>
</a>
</g>
<!-- a0 -->
<g id="node3" class="node"><title>a0</title>
<a xlink:href="0043167" xlink:title="GO:0043167 (5)">
<ellipse fill="#e98576" stroke="#e98576" cx="75" cy="-90" rx="75.2018" ry="18"/>
<text text-anchor="middle" x="75" y="-85.8" font-family="Times,serif" font-size="14.00">GO:0043167 (5)</text>
</a>
</g>
<!-- b0&#45;&gt;a0 -->
<g id="edge2" class="edge"><title>b0&#45;&gt;a0</title>
<path fill="none" stroke="black" d="M522.083,-155.172C441.149,-146.578 288.277,-129.208 159,-108 152.489,-106.932 145.713,-105.724 138.96,-104.456"/>
<polygon fill="black" stroke="black" points="139.596,-101.014 129.115,-102.566 138.276,-107.889 139.596,-101.014"/>
</g>
<!-- q0 -->
<g id="node14" class="node"><title>q0</title>
<a xlink:href="0008144" xlink:title="GO:0008144 (1)">
<ellipse fill="#e98576" stroke="#e98576" cx="243" cy="-90" rx="75.2018" ry="18"/>
<text text-anchor="middle" x="243" y="-85.8" font-family="Times,serif" font-size="14.00">GO:0008144 (1)</text>
</a>
</g>
<!-- b0&#45;&gt;q0 -->
<g id="edge12" class="edge"><title>b0&#45;&gt;q0</title>
<path fill="none" stroke="black" d="M530.502,-150.896C471.849,-138.677 372.906,-118.064 307.77,-104.494"/>
<polygon fill="black" stroke="black" points="308.122,-100.992 297.618,-102.379 306.694,-107.845 308.122,-100.992"/>
</g>
<!-- j0 -->
<g id="node16" class="node"><title>j0</title>
<a xlink:href="0003676" xlink:title="GO:0003676 (2)">
<ellipse fill="#e98576" stroke="#e98576" cx="411" cy="-90" rx="75.2018" ry="18"/>
<text text-anchor="middle" x="411" y="-85.8" font-family="Times,serif" font-size="14.00">GO:0003676 (2)</text>
</a>
</g>
<!-- b0&#45;&gt;j0 -->
<g id="edge14" class="edge"><title>b0&#45;&gt;j0</title>
<path fill="none" stroke="black" d="M545.003,-146.834C519.444,-136.185 484.175,-121.49 456.235,-109.848"/>
<polygon fill="black" stroke="black" points="457.263,-106.485 446.686,-105.869 454.571,-112.946 457.263,-106.485"/>
</g>
<!-- h0 -->
<g id="node24" class="node"><title>h0</title>
<a xlink:href="0000166" xlink:title="GO:0000166 (3)">
<ellipse fill="#e98576" stroke="#e98576" cx="579" cy="-90" rx="75.2018" ry="18"/>
<text text-anchor="middle" x="579" y="-85.8" font-family="Times,serif" font-size="14.00">GO:0000166 (3)</text>
</a>
</g>
<!-- b0&#45;&gt;h0 -->
<g id="edge22" class="edge"><title>b0&#45;&gt;h0</title>
<path fill="none" stroke="black" d="M579,-143.697C579,-135.983 579,-126.712 579,-118.112"/>
<polygon fill="black" stroke="black" points="582.5,-118.104 579,-108.104 575.5,-118.104 582.5,-118.104"/>
</g>
<!-- k0 -->
<g id="node33" class="node"><title>k0</title>
<a xlink:href="0051540" xlink:title="GO:0051540 (2)">
<ellipse fill="#e98576" stroke="#e98576" cx="747" cy="-90" rx="75.2018" ry="18"/>
<text text-anchor="middle" x="747" y="-85.8" font-family="Times,serif" font-size="14.00">GO:0051540 (2)</text>
</a>
</g>
<!-- b0&#45;&gt;k0 -->
<g id="edge32" class="edge"><title>b0&#45;&gt;k0</title>
<path fill="none" stroke="black" d="M612.997,-146.834C638.556,-136.185 673.825,-121.49 701.765,-109.848"/>
<polygon fill="black" stroke="black" points="703.429,-112.946 711.314,-105.869 700.737,-106.485 703.429,-112.946"/>
</g>
<!-- i0 -->
<g id="node35" class="node"><title>i0</title>
<a xlink:href="0048037" xlink:title="GO:0048037 (3)">
<ellipse fill="#e98576" stroke="#e98576" cx="915" cy="-90" rx="75.2018" ry="18"/>
<text text-anchor="middle" x="915" y="-85.8" font-family="Times,serif" font-size="14.00">GO:0048037 (3)</text>
</a>
</g>
<!-- b0&#45;&gt;i0 -->
<g id="edge34" class="edge"><title>b0&#45;&gt;i0</title>
<path fill="none" stroke="black" d="M627.498,-150.896C686.151,-138.677 785.094,-118.064 850.23,-104.494"/>
<polygon fill="black" stroke="black" points="851.306,-107.845 860.382,-102.379 849.878,-100.992 851.306,-107.845"/>
</g>
<!-- e0 -->
<g id="node4" class="node"><title>e0</title>
<a xlink:href="0003824" xlink:title="GO:0003824">
<ellipse fill="#dddddd" stroke="#dddddd" cx="1419" cy="-162" rx="61.1934" ry="18"/>
<text text-anchor="middle" x="1419" y="-157.8" font-family="Times,serif" font-size="14.00">GO:0003824</text>
</a>
</g>
<!-- m0 -->
<g id="node6" class="node"><title>m0</title>
<a xlink:href="0016853" xlink:title="GO:0016853 (1)">
<ellipse fill="#e98576" stroke="#e98576" cx="1083" cy="-90" rx="75.2018" ry="18"/>
<text text-anchor="middle" x="1083" y="-85.8" font-family="Times,serif" font-size="14.00">GO:0016853 (1)</text>
</a>
</g>
<!-- e0&#45;&gt;m0 -->
<g id="edge4" class="edge"><title>e0&#45;&gt;m0</title>
<path fill="none" stroke="black" d="M1370.5,-150.896C1311.85,-138.677 1212.91,-118.064 1147.77,-104.494"/>
<polygon fill="black" stroke="black" points="1148.12,-100.992 1137.62,-102.379 1146.69,-107.845 1148.12,-100.992"/>
</g>
<!-- f0 -->
<g id="node8" class="node"><title>f0</title>
<a xlink:href="0016787" xlink:title="GO:0016787 (4)">
<ellipse fill="#e98576" stroke="#e98576" cx="1251" cy="-90" rx="75.2018" ry="18"/>
<text text-anchor="middle" x="1251" y="-85.8" font-family="Times,serif" font-size="14.00">GO:0016787 (4)</text>
</a>
</g>
<!-- e0&#45;&gt;f0 -->
<g id="edge6" class="edge"><title>e0&#45;&gt;f0</title>
<path fill="none" stroke="black" d="M1385,-146.834C1359.44,-136.185 1324.18,-121.49 1296.24,-109.848"/>
<polygon fill="black" stroke="black" points="1297.26,-106.485 1286.69,-105.869 1294.57,-112.946 1297.26,-106.485"/>
</g>
<!-- d0 -->
<g id="node12" class="node"><title>d0</title>
<a xlink:href="0016740" xlink:title="GO:0016740 (5)">
<ellipse fill="#e98576" stroke="#e98576" cx="1419" cy="-90" rx="75.2018" ry="18"/>
<text text-anchor="middle" x="1419" y="-85.8" font-family="Times,serif" font-size="14.00">GO:0016740 (5)</text>
</a>
</g>
<!-- e0&#45;&gt;d0 -->
<g id="edge10" class="edge"><title>e0&#45;&gt;d0</title>
<path fill="none" stroke="black" d="M1419,-143.697C1419,-135.983 1419,-126.712 1419,-118.112"/>
<polygon fill="black" stroke="black" points="1422.5,-118.104 1419,-108.104 1415.5,-118.104 1422.5,-118.104"/>
</g>
<!-- g0 -->
<g id="node19" class="node"><title>g0</title>
<a xlink:href="0016491" xlink:title="GO:0016491 (4)">
<ellipse fill="#e98576" stroke="#e98576" cx="1587" cy="-90" rx="75.2018" ry="18"/>
<text text-anchor="middle" x="1587" y="-85.8" font-family="Times,serif" font-size="14.00">GO:0016491 (4)</text>
</a>
</g>
<!-- e0&#45;&gt;g0 -->
<g id="edge18" class="edge"><title>e0&#45;&gt;g0</title>
<path fill="none" stroke="black" d="M1453,-146.834C1478.56,-136.185 1513.82,-121.49 1541.76,-109.848"/>
<polygon fill="black" stroke="black" points="1543.43,-112.946 1551.31,-105.869 1540.74,-106.485 1543.43,-112.946"/>
</g>
<!-- n0 -->
<g id="node26" class="node"><title>n0</title>
<a xlink:href="0016829" xlink:title="GO:0016829 (1)">
<ellipse fill="#e98576" stroke="#e98576" cx="1755" cy="-90" rx="75.2018" ry="18"/>
<text text-anchor="middle" x="1755" y="-85.8" font-family="Times,serif" font-size="14.00">GO:0016829 (1)</text>
</a>
</g>
<!-- e0&#45;&gt;n0 -->
<g id="edge24" class="edge"><title>e0&#45;&gt;n0</title>
<path fill="none" stroke="black" d="M1464.39,-149.856C1472.89,-147.848 1481.7,-145.817 1490,-144 1570.12,-126.447 1590.58,-124.135 1671,-108 1677.03,-106.79 1683.31,-105.527 1689.59,-104.261"/>
<polygon fill="black" stroke="black" points="1690.32,-107.683 1699.43,-102.274 1688.93,-100.822 1690.32,-107.683"/>
</g>
<!-- r0 -->
<g id="node30" class="node"><title>r0</title>
<a xlink:href="0008233" xlink:title="GO:0008233 (1)">
<ellipse fill="#e98576" stroke="#e98576" cx="1251" cy="-18" rx="75.2018" ry="18"/>
<text text-anchor="middle" x="1251" y="-13.8" font-family="Times,serif" font-size="14.00">GO:0008233 (1)</text>
</a>
</g>
<!-- f0&#45;&gt;r0 -->
<g id="edge28" class="edge"><title>f0&#45;&gt;r0</title>
<path fill="none" stroke="black" d="M1251,-71.6966C1251,-63.9827 1251,-54.7125 1251,-46.1124"/>
<polygon fill="black" stroke="black" points="1254.5,-46.1043 1251,-36.1043 1247.5,-46.1044 1254.5,-46.1043"/>
</g>
<!-- c0 -->
<g id="node9" class="node"><title>c0</title>
<a xlink:href="0003674" xlink:title="GO:0003674">
<ellipse fill="#dddddd" stroke="#dddddd" cx="1489" cy="-234" rx="61.1934" ry="18"/>
<text text-anchor="middle" x="1489" y="-229.8" font-family="Times,serif" font-size="14.00">GO:0003674</text>
</a>
</g>
<!-- c0&#45;&gt;b0 -->
<g id="edge16" class="edge"><title>c0&#45;&gt;b0</title>
<path fill="none" stroke="black" d="M1430.34,-228.488C1269.14,-216.088 819.941,-181.534 647.56,-168.274"/>
<polygon fill="black" stroke="black" points="647.586,-164.766 637.347,-167.488 647.049,-171.745 647.586,-164.766"/>
</g>
<!-- c0&#45;&gt;e0 -->
<g id="edge8" class="edge"><title>c0&#45;&gt;e0</title>
<path fill="none" stroke="black" d="M1472.41,-216.411C1463.52,-207.519 1452.41,-196.411 1442.63,-186.631"/>
<polygon fill="black" stroke="black" points="1445.02,-184.066 1435.47,-179.47 1440.07,-189.016 1445.02,-184.066"/>
</g>
<!-- p0 -->
<g id="node20" class="node"><title>p0</title>
<a xlink:href="0060089" xlink:title="GO:0060089">
<ellipse fill="#dddddd" stroke="#dddddd" cx="1560" cy="-162" rx="61.1934" ry="18"/>
<text text-anchor="middle" x="1560" y="-157.8" font-family="Times,serif" font-size="14.00">GO:0060089</text>
</a>
</g>
<!-- c0&#45;&gt;p0 -->
<g id="edge30" class="edge"><title>c0&#45;&gt;p0</title>
<path fill="none" stroke="black" d="M1505.83,-216.411C1514.85,-207.519 1526.11,-196.411 1536.03,-186.631"/>
<polygon fill="black" stroke="black" points="1538.63,-188.983 1543.29,-179.47 1533.72,-183.998 1538.63,-188.983"/>
</g>
<!-- l0 -->
<g id="node28" class="node"><title>l0</title>
<a xlink:href="0005198" xlink:title="GO:0005198 (2)">
<ellipse fill="#e98576" stroke="#e98576" cx="1715" cy="-162" rx="75.2018" ry="18"/>
<text text-anchor="middle" x="1715" y="-157.8" font-family="Times,serif" font-size="14.00">GO:0005198 (2)</text>
</a>
</g>
<!-- c0&#45;&gt;l0 -->
<g id="edge26" class="edge"><title>c0&#45;&gt;l0</title>
<path fill="none" stroke="black" d="M1529.67,-220.405C1566.41,-209.023 1620.77,-192.187 1661.12,-179.689"/>
<polygon fill="black" stroke="black" points="1662.28,-182.993 1670.8,-176.691 1660.21,-176.306 1662.28,-182.993"/>
</g>
<!-- o0 -->
<g id="node22" class="node"><title>o0</title>
<a xlink:href="0004871" xlink:title="GO:0004871 (1)">
<ellipse fill="#e98576" stroke="#e98576" cx="1923" cy="-90" rx="75.2018" ry="18"/>
<text text-anchor="middle" x="1923" y="-85.8" font-family="Times,serif" font-size="14.00">GO:0004871 (1)</text>
</a>
</g>
<!-- p0&#45;&gt;o0 -->
<g id="edge20" class="edge"><title>p0&#45;&gt;o0</title>
<path fill="none" stroke="black" d="M1604.97,-149.775C1613.59,-147.754 1622.56,-145.739 1631,-144 1722.89,-125.067 1746.79,-125.307 1839,-108 1845.14,-106.847 1851.53,-105.615 1857.92,-104.361"/>
<polygon fill="black" stroke="black" points="1858.79,-107.756 1867.92,-102.379 1857.43,-100.889 1858.79,-107.756"/>
</g>
</g>
</svg>
