<?xml version="1.0" encoding="UTF-8" standalone="no"?>
<!DOCTYPE svg PUBLIC "-//W3C//DTD SVG 1.1//EN"
 "http://www.w3.org/Graphics/SVG/1.1/DTD/svg11.dtd">
<!-- Generated by graphviz version 2.28.0 (20110622.2320)
 -->
<!-- Title: G Pages: 1 -->
<svg width="791pt" height="404pt"
 viewBox="0.00 0.00 791.00 404.00" xmlns="http://www.w3.org/2000/svg" xmlns:xlink="http://www.w3.org/1999/xlink">
<g id="graph1" class="graph" transform="scale(1 1) rotate(0) translate(4 400)">
<title>G</title>
<polygon fill="white" stroke="white" points="-4,5 -4,-400 788,-400 788,5 -4,5"/>
<!-- e0 -->
<g id="node1" class="node"><title>e0</title>
<a xlink:href="0043170" xlink:title="GO:0043170 (1)">
<ellipse fill="#e98576" stroke="#e98576" cx="75" cy="-234" rx="75.2018" ry="18"/>
<text text-anchor="middle" x="75" y="-229.8" font-family="Times,serif" font-size="14.00">GO:0043170 (1)</text>
</a>
</g>
<!-- m0 -->
<g id="node3" class="node"><title>m0</title>
<a xlink:href="0019538" xlink:title="GO:0019538">
<ellipse fill="#dddddd" stroke="#dddddd" cx="75" cy="-162" rx="61.1934" ry="18"/>
<text text-anchor="middle" x="75" y="-157.8" font-family="Times,serif" font-size="14.00">GO:0019538</text>
</a>
</g>
<!-- e0&#45;&gt;m0 -->
<g id="edge2" class="edge"><title>e0&#45;&gt;m0</title>
<path fill="none" stroke="black" d="M75,-215.697C75,-207.983 75,-198.712 75,-190.112"/>
<polygon fill="black" stroke="black" points="78.5001,-190.104 75,-180.104 71.5001,-190.104 78.5001,-190.104"/>
</g>
<!-- n0 -->
<g id="node7" class="node"><title>n0</title>
<a xlink:href="0044260" xlink:title="GO:0044260">
<ellipse fill="#dddddd" stroke="#dddddd" cx="216" cy="-162" rx="61.1934" ry="18"/>
<text text-anchor="middle" x="216" y="-157.8" font-family="Times,serif" font-size="14.00">GO:0044260</text>
</a>
</g>
<!-- e0&#45;&gt;n0 -->
<g id="edge6" class="edge"><title>e0&#45;&gt;n0</title>
<path fill="none" stroke="black" d="M106.292,-217.465C127.164,-207.103 154.757,-193.404 177.049,-182.337"/>
<polygon fill="black" stroke="black" points="178.842,-185.355 186.243,-177.773 175.73,-179.085 178.842,-185.355"/>
</g>
<!-- l0 -->
<g id="node24" class="node"><title>l0</title>
<a xlink:href="0044267" xlink:title="GO:0044267">
<ellipse fill="#dddddd" stroke="#dddddd" cx="145" cy="-90" rx="61.1934" ry="18"/>
<text text-anchor="middle" x="145" y="-85.8" font-family="Times,serif" font-size="14.00">GO:0044267</text>
</a>
</g>
<!-- m0&#45;&gt;l0 -->
<g id="edge32" class="edge"><title>m0&#45;&gt;l0</title>
<path fill="none" stroke="black" d="M91.589,-144.411C100.481,-135.519 111.589,-124.411 121.369,-114.631"/>
<polygon fill="black" stroke="black" points="123.934,-117.016 128.53,-107.47 118.984,-112.066 123.934,-117.016"/>
</g>
<!-- i0 -->
<g id="node4" class="node"><title>i0</title>
<a xlink:href="0044238" xlink:title="GO:0044238">
<ellipse fill="#dddddd" stroke="#dddddd" cx="230" cy="-234" rx="61.1934" ry="18"/>
<text text-anchor="middle" x="230" y="-229.8" font-family="Times,serif" font-size="14.00">GO:0044238</text>
</a>
</g>
<!-- i0&#45;&gt;m0 -->
<g id="edge4" class="edge"><title>i0&#45;&gt;m0</title>
<path fill="none" stroke="black" d="M197.884,-218.496C174.296,-207.843 142.047,-193.279 116.504,-181.744"/>
<polygon fill="black" stroke="black" points="117.629,-178.412 107.075,-177.485 114.748,-184.791 117.629,-178.412"/>
</g>
<!-- f0 -->
<g id="node11" class="node"><title>f0</title>
<a xlink:href="0006139" xlink:title="GO:0006139 (1)">
<ellipse fill="#e98576" stroke="#e98576" cx="371" cy="-162" rx="75.2018" ry="18"/>
<text text-anchor="middle" x="371" y="-157.8" font-family="Times,serif" font-size="14.00">GO:0006139 (1)</text>
</a>
</g>
<!-- i0&#45;&gt;f0 -->
<g id="edge12" class="edge"><title>i0&#45;&gt;f0</title>
<path fill="none" stroke="black" d="M259.902,-218.155C280.507,-207.926 308.129,-194.212 330.676,-183.019"/>
<polygon fill="black" stroke="black" points="332.274,-186.133 339.675,-178.552 329.161,-179.863 332.274,-186.133"/>
</g>
<!-- n0&#45;&gt;l0 -->
<g id="edge34" class="edge"><title>n0&#45;&gt;l0</title>
<path fill="none" stroke="black" d="M199.174,-144.411C190.155,-135.519 178.888,-124.411 168.968,-114.631"/>
<polygon fill="black" stroke="black" points="171.284,-111.998 161.705,-107.47 166.369,-116.983 171.284,-111.998"/>
</g>
<!-- g0 -->
<g id="node8" class="node"><title>g0</title>
<a xlink:href="0044237" xlink:title="GO:0044237">
<ellipse fill="#dddddd" stroke="#dddddd" cx="371" cy="-234" rx="61.1934" ry="18"/>
<text text-anchor="middle" x="371" y="-229.8" font-family="Times,serif" font-size="14.00">GO:0044237</text>
</a>
</g>
<!-- g0&#45;&gt;n0 -->
<g id="edge8" class="edge"><title>g0&#45;&gt;n0</title>
<path fill="none" stroke="black" d="M338.884,-218.496C315.296,-207.843 283.047,-193.279 257.504,-181.744"/>
<polygon fill="black" stroke="black" points="258.629,-178.412 248.075,-177.485 255.748,-184.791 258.629,-178.412"/>
</g>
<!-- g0&#45;&gt;f0 -->
<g id="edge10" class="edge"><title>g0&#45;&gt;f0</title>
<path fill="none" stroke="black" d="M371,-215.697C371,-207.983 371,-198.712 371,-190.112"/>
<polygon fill="black" stroke="black" points="374.5,-190.104 371,-180.104 367.5,-190.104 374.5,-190.104"/>
</g>
<!-- h0 -->
<g id="node13" class="node"><title>h0</title>
<a xlink:href="0009987" xlink:title="GO:0009987">
<ellipse fill="#dddddd" stroke="#dddddd" cx="385" cy="-306" rx="61.1934" ry="18"/>
<text text-anchor="middle" x="385" y="-301.8" font-family="Times,serif" font-size="14.00">GO:0009987</text>
</a>
</g>
<!-- h0&#45;&gt;g0 -->
<g id="edge28" class="edge"><title>h0&#45;&gt;g0</title>
<path fill="none" stroke="black" d="M381.539,-287.697C379.997,-279.983 378.142,-270.712 376.422,-262.112"/>
<polygon fill="black" stroke="black" points="379.814,-261.224 374.421,-252.104 372.95,-262.597 379.814,-261.224"/>
</g>
<!-- o0 -->
<g id="node15" class="node"><title>o0</title>
<a xlink:href="0006914" xlink:title="GO:0006914 (1)">
<ellipse fill="#e98576" stroke="#e98576" cx="526" cy="-234" rx="75.2018" ry="18"/>
<text text-anchor="middle" x="526" y="-229.8" font-family="Times,serif" font-size="14.00">GO:0006914 (1)</text>
</a>
</g>
<!-- h0&#45;&gt;o0 -->
<g id="edge14" class="edge"><title>h0&#45;&gt;o0</title>
<path fill="none" stroke="black" d="M414.902,-290.155C435.507,-279.926 463.129,-266.212 485.676,-255.019"/>
<polygon fill="black" stroke="black" points="487.274,-258.133 494.675,-250.552 484.161,-251.863 487.274,-258.133"/>
</g>
<!-- c0 -->
<g id="node16" class="node"><title>c0</title>
<a xlink:href="0008150" xlink:title="GO:0008150">
<ellipse fill="#dddddd" stroke="#dddddd" cx="462" cy="-378" rx="61.1934" ry="18"/>
<text text-anchor="middle" x="462" y="-373.8" font-family="Times,serif" font-size="14.00">GO:0008150</text>
</a>
</g>
<!-- c0&#45;&gt;h0 -->
<g id="edge16" class="edge"><title>c0&#45;&gt;h0</title>
<path fill="none" stroke="black" d="M444.141,-360.765C434.203,-351.73 421.659,-340.326 410.684,-330.349"/>
<polygon fill="black" stroke="black" points="412.783,-327.527 403.029,-323.39 408.074,-332.706 412.783,-327.527"/>
</g>
<!-- b0 -->
<g id="node19" class="node"><title>b0</title>
<a xlink:href="0008152" xlink:title="GO:0008152 (2)">
<ellipse fill="#e98576" stroke="#e98576" cx="230" cy="-306" rx="75.2018" ry="18"/>
<text text-anchor="middle" x="230" y="-301.8" font-family="Times,serif" font-size="14.00">GO:0008152 (2)</text>
</a>
</g>
<!-- c0&#45;&gt;b0 -->
<g id="edge18" class="edge"><title>c0&#45;&gt;b0</title>
<path fill="none" stroke="black" d="M420.79,-364.566C382.818,-353.109 326.207,-336.028 284.508,-323.446"/>
<polygon fill="black" stroke="black" points="285.369,-320.05 274.784,-320.512 283.347,-326.752 285.369,-320.05"/>
</g>
<!-- d0 -->
<g id="node21" class="node"><title>d0</title>
<a xlink:href="0050896" xlink:title="GO:0050896 (2)">
<ellipse fill="#e98576" stroke="#e98576" cx="540" cy="-306" rx="75.2018" ry="18"/>
<text text-anchor="middle" x="540" y="-301.8" font-family="Times,serif" font-size="14.00">GO:0050896 (2)</text>
</a>
</g>
<!-- c0&#45;&gt;d0 -->
<g id="edge20" class="edge"><title>c0&#45;&gt;d0</title>
<path fill="none" stroke="black" d="M480.091,-360.765C490.086,-351.795 502.682,-340.49 513.743,-330.564"/>
<polygon fill="black" stroke="black" points="516.361,-332.917 521.466,-323.633 511.685,-327.708 516.361,-332.917"/>
</g>
<!-- j0 -->
<g id="node23" class="node"><title>j0</title>
<a xlink:href="0002376" xlink:title="GO:0002376 (1)">
<ellipse fill="#e98576" stroke="#e98576" cx="708" cy="-306" rx="75.2018" ry="18"/>
<text text-anchor="middle" x="708" y="-301.8" font-family="Times,serif" font-size="14.00">GO:0002376 (1)</text>
</a>
</g>
<!-- c0&#45;&gt;j0 -->
<g id="edge22" class="edge"><title>c0&#45;&gt;j0</title>
<path fill="none" stroke="black" d="M504.289,-364.967C545.03,-353.374 606.922,-335.762 651.793,-322.994"/>
<polygon fill="black" stroke="black" points="653.005,-326.288 661.665,-320.185 651.089,-319.555 653.005,-326.288"/>
</g>
<!-- b0&#45;&gt;e0 -->
<g id="edge30" class="edge"><title>b0&#45;&gt;e0</title>
<path fill="none" stroke="black" d="M196.367,-289.811C173.314,-279.4 142.539,-265.501 117.747,-254.305"/>
<polygon fill="black" stroke="black" points="119.121,-251.085 108.567,-250.159 116.24,-257.465 119.121,-251.085"/>
</g>
<!-- b0&#45;&gt;i0 -->
<g id="edge36" class="edge"><title>b0&#45;&gt;i0</title>
<path fill="none" stroke="black" d="M230,-287.697C230,-279.983 230,-270.712 230,-262.112"/>
<polygon fill="black" stroke="black" points="233.5,-262.104 230,-252.104 226.5,-262.104 233.5,-262.104"/>
</g>
<!-- b0&#45;&gt;g0 -->
<g id="edge26" class="edge"><title>b0&#45;&gt;g0</title>
<path fill="none" stroke="black" d="M261.292,-289.465C282.164,-279.103 309.757,-265.404 332.049,-254.337"/>
<polygon fill="black" stroke="black" points="333.842,-257.355 341.243,-249.773 330.73,-251.085 333.842,-257.355"/>
</g>
<!-- k0 -->
<g id="node26" class="node"><title>k0</title>
<a xlink:href="0006508" xlink:title="GO:0006508 (1)">
<ellipse fill="#e98576" stroke="#e98576" cx="145" cy="-18" rx="75.2018" ry="18"/>
<text text-anchor="middle" x="145" y="-13.8" font-family="Times,serif" font-size="14.00">GO:0006508 (1)</text>
</a>
</g>
<!-- l0&#45;&gt;k0 -->
<g id="edge24" class="edge"><title>l0&#45;&gt;k0</title>
<path fill="none" stroke="black" d="M145,-71.6966C145,-63.9827 145,-54.7125 145,-46.1124"/>
<polygon fill="black" stroke="black" points="148.5,-46.1043 145,-36.1043 141.5,-46.1044 148.5,-46.1043"/>
</g>
<!-- a0 -->
<g id="node33" class="node"><title>a0</title>
<a xlink:href="0055114" xlink:title="GO:0055114 (2)">
<ellipse fill="#e98576" stroke="#e98576" cx="617" cy="-378" rx="75.2018" ry="18"/>
<text text-anchor="middle" x="617" y="-373.8" font-family="Times,serif" font-size="14.00">GO:0055114 (2)</text>
</a>
</g>
</g>
</svg>
