<?xml version="1.0" encoding="UTF-8" standalone="no"?>
<!DOCTYPE svg PUBLIC "-//W3C//DTD SVG 1.1//EN"
 "http://www.w3.org/Graphics/SVG/1.1/DTD/svg11.dtd">
<!-- Generated by graphviz version 2.28.0 (20110622.2320)
 -->
<!-- Title: G Pages: 1 -->
<svg width="1512pt" height="188pt"
 viewBox="0.00 0.00 1512.00 188.00" xmlns="http://www.w3.org/2000/svg" xmlns:xlink="http://www.w3.org/1999/xlink">
<g id="graph1" class="graph" transform="scale(1 1) rotate(0) translate(4 184)">
<title>G</title>
<polygon fill="white" stroke="white" points="-4,5 -4,-184 1509,-184 1509,5 -4,5"/>
<!-- b0 -->
<g id="node1" class="node"><title>b0</title>
<a xlink:href="0005488" xlink:title="GO:0005488">
<ellipse fill="#dddddd" stroke="#dddddd" cx="589" cy="-90" rx="61.1934" ry="18"/>
<text text-anchor="middle" x="589" y="-85.8" font-family="Times,serif" font-size="14.00">GO:0005488</text>
</a>
</g>
<!-- e0 -->
<g id="node3" class="node"><title>e0</title>
<a xlink:href="0043167" xlink:title="GO:0043167 (3)">
<ellipse fill="#e98576" stroke="#e98576" cx="75" cy="-18" rx="75.2018" ry="18"/>
<text text-anchor="middle" x="75" y="-13.8" font-family="Times,serif" font-size="14.00">GO:0043167 (3)</text>
</a>
</g>
<!-- b0&#45;&gt;e0 -->
<g id="edge2" class="edge"><title>b0&#45;&gt;e0</title>
<path fill="none" stroke="black" d="M531.765,-83.3635C449.175,-74.9087 291.895,-57.6048 159,-36 152.488,-34.9413 145.711,-33.7393 138.957,-32.4754"/>
<polygon fill="black" stroke="black" points="139.591,-29.0333 129.111,-30.5888 138.274,-35.9082 139.591,-29.0333"/>
</g>
<!-- i0 -->
<g id="node14" class="node"><title>i0</title>
<a xlink:href="0001882" xlink:title="GO:0001882 (1)">
<ellipse fill="#e98576" stroke="#e98576" cx="243" cy="-18" rx="75.2018" ry="18"/>
<text text-anchor="middle" x="243" y="-13.8" font-family="Times,serif" font-size="14.00">GO:0001882 (1)</text>
</a>
</g>
<!-- b0&#45;&gt;i0 -->
<g id="edge12" class="edge"><title>b0&#45;&gt;i0</title>
<path fill="none" stroke="black" d="M540.16,-79.1192C479.564,-66.8597 376.012,-45.9099 308.549,-32.2614"/>
<polygon fill="black" stroke="black" points="308.951,-28.7719 298.456,-30.2194 307.563,-35.6329 308.951,-28.7719"/>
</g>
<!-- a0 -->
<g id="node16" class="node"><title>a0</title>
<a xlink:href="0005515" xlink:title="GO:0005515 (10)">
<ellipse fill="#e98576" stroke="#e98576" cx="416" cy="-18" rx="79.4447" ry="18"/>
<text text-anchor="middle" x="416" y="-13.8" font-family="Times,serif" font-size="14.00">GO:0005515 (10)</text>
</a>
</g>
<!-- b0&#45;&gt;a0 -->
<g id="edge14" class="edge"><title>b0&#45;&gt;a0</title>
<path fill="none" stroke="black" d="M554.407,-75.0027C528.007,-64.3206 491.37,-49.4967 462.422,-37.7835"/>
<polygon fill="black" stroke="black" points="463.508,-34.4474 452.925,-33.941 460.883,-40.9363 463.508,-34.4474"/>
</g>
<!-- d0 -->
<g id="node18" class="node"><title>d0</title>
<a xlink:href="0003676" xlink:title="GO:0003676 (7)">
<ellipse fill="#e98576" stroke="#e98576" cx="589" cy="-18" rx="75.2018" ry="18"/>
<text text-anchor="middle" x="589" y="-13.8" font-family="Times,serif" font-size="14.00">GO:0003676 (7)</text>
</a>
</g>
<!-- b0&#45;&gt;d0 -->
<g id="edge16" class="edge"><title>b0&#45;&gt;d0</title>
<path fill="none" stroke="black" d="M589,-71.6966C589,-63.9827 589,-54.7125 589,-46.1124"/>
<polygon fill="black" stroke="black" points="592.5,-46.1043 589,-36.1043 585.5,-46.1044 592.5,-46.1043"/>
</g>
<!-- m0 -->
<g id="node21" class="node"><title>m0</title>
<a xlink:href="0000166" xlink:title="GO:0000166 (1)">
<ellipse fill="#e98576" stroke="#e98576" cx="757" cy="-18" rx="75.2018" ry="18"/>
<text text-anchor="middle" x="757" y="-13.8" font-family="Times,serif" font-size="14.00">GO:0000166 (1)</text>
</a>
</g>
<!-- b0&#45;&gt;m0 -->
<g id="edge20" class="edge"><title>b0&#45;&gt;m0</title>
<path fill="none" stroke="black" d="M622.997,-74.8345C648.556,-64.1851 683.825,-49.4897 711.765,-37.8481"/>
<polygon fill="black" stroke="black" points="713.429,-40.9463 721.314,-33.8693 710.737,-34.4847 713.429,-40.9463"/>
</g>
<!-- l0 -->
<g id="node25" class="node"><title>l0</title>
<a xlink:href="0003682" xlink:title="GO:0003682 (1)">
<ellipse fill="#e98576" stroke="#e98576" cx="925" cy="-18" rx="75.2018" ry="18"/>
<text text-anchor="middle" x="925" y="-13.8" font-family="Times,serif" font-size="14.00">GO:0003682 (1)</text>
</a>
</g>
<!-- b0&#45;&gt;l0 -->
<g id="edge24" class="edge"><title>b0&#45;&gt;l0</title>
<path fill="none" stroke="black" d="M637.498,-78.8962C696.151,-66.6769 795.094,-46.0637 860.23,-32.4938"/>
<polygon fill="black" stroke="black" points="861.306,-35.8448 870.382,-30.3787 859.878,-28.9919 861.306,-35.8448"/>
</g>
<!-- c0 -->
<g id="node4" class="node"><title>c0</title>
<a xlink:href="0003674" xlink:title="GO:0003674 (1)">
<ellipse fill="#e98576" stroke="#e98576" cx="841" cy="-162" rx="75.2018" ry="18"/>
<text text-anchor="middle" x="841" y="-157.8" font-family="Times,serif" font-size="14.00">GO:0003674 (1)</text>
</a>
</g>
<!-- c0&#45;&gt;b0 -->
<g id="edge18" class="edge"><title>c0&#45;&gt;b0</title>
<path fill="none" stroke="black" d="M793.896,-147.916C750.721,-135.922 686.864,-118.184 641.94,-105.705"/>
<polygon fill="black" stroke="black" points="642.661,-102.273 632.089,-102.969 640.787,-109.018 642.661,-102.273"/>
</g>
<!-- f0 -->
<g id="node6" class="node"><title>f0</title>
<a xlink:href="0030234" xlink:title="GO:0030234 (2)">
<ellipse fill="#e98576" stroke="#e98576" cx="841" cy="-90" rx="75.2018" ry="18"/>
<text text-anchor="middle" x="841" y="-85.8" font-family="Times,serif" font-size="14.00">GO:0030234 (2)</text>
</a>
</g>
<!-- c0&#45;&gt;f0 -->
<g id="edge4" class="edge"><title>c0&#45;&gt;f0</title>
<path fill="none" stroke="black" d="M841,-143.697C841,-135.983 841,-126.712 841,-118.112"/>
<polygon fill="black" stroke="black" points="844.5,-118.104 841,-108.104 837.5,-118.104 844.5,-118.104"/>
</g>
<!-- h0 -->
<g id="node7" class="node"><title>h0</title>
<a xlink:href="0003824" xlink:title="GO:0003824">
<ellipse fill="#dddddd" stroke="#dddddd" cx="1177" cy="-90" rx="61.1934" ry="18"/>
<text text-anchor="middle" x="1177" y="-85.8" font-family="Times,serif" font-size="14.00">GO:0003824</text>
</a>
</g>
<!-- c0&#45;&gt;h0 -->
<g id="edge8" class="edge"><title>c0&#45;&gt;h0</title>
<path fill="none" stroke="black" d="M895.732,-149.597C956.944,-136.845 1055.71,-116.269 1118.44,-103.201"/>
<polygon fill="black" stroke="black" points="1119.49,-106.557 1128.57,-101.091 1118.06,-99.7038 1119.49,-106.557"/>
</g>
<!-- g0 -->
<g id="node9" class="node"><title>g0</title>
<a xlink:href="0016787" xlink:title="GO:0016787 (1)">
<ellipse fill="#e98576" stroke="#e98576" cx="1093" cy="-18" rx="75.2018" ry="18"/>
<text text-anchor="middle" x="1093" y="-13.8" font-family="Times,serif" font-size="14.00">GO:0016787 (1)</text>
</a>
</g>
<!-- h0&#45;&gt;g0 -->
<g id="edge6" class="edge"><title>h0&#45;&gt;g0</title>
<path fill="none" stroke="black" d="M1157.52,-72.7646C1146.57,-63.642 1132.73,-52.1046 1120.67,-42.0585"/>
<polygon fill="black" stroke="black" points="1122.59,-39.1029 1112.67,-35.3898 1118.11,-44.4805 1122.59,-39.1029"/>
</g>
<!-- k0 -->
<g id="node12" class="node"><title>k0</title>
<a xlink:href="0016740" xlink:title="GO:0016740 (1)">
<ellipse fill="#e98576" stroke="#e98576" cx="1261" cy="-18" rx="75.2018" ry="18"/>
<text text-anchor="middle" x="1261" y="-13.8" font-family="Times,serif" font-size="14.00">GO:0016740 (1)</text>
</a>
</g>
<!-- h0&#45;&gt;k0 -->
<g id="edge10" class="edge"><title>h0&#45;&gt;k0</title>
<path fill="none" stroke="black" d="M1196.48,-72.7646C1207.43,-63.642 1221.27,-52.1046 1233.33,-42.0585"/>
<polygon fill="black" stroke="black" points="1235.89,-44.4805 1241.33,-35.3898 1231.41,-39.1029 1235.89,-44.4805"/>
</g>
<!-- j0 -->
<g id="node23" class="node"><title>j0</title>
<a xlink:href="0004386" xlink:title="GO:0004386 (1)">
<ellipse fill="#e98576" stroke="#e98576" cx="1429" cy="-18" rx="75.2018" ry="18"/>
<text text-anchor="middle" x="1429" y="-13.8" font-family="Times,serif" font-size="14.00">GO:0004386 (1)</text>
</a>
</g>
<!-- h0&#45;&gt;j0 -->
<g id="edge22" class="edge"><title>h0&#45;&gt;j0</title>
<path fill="none" stroke="black" d="M1220.03,-77.0461C1261.94,-65.4048 1325.9,-47.6401 1372.01,-34.83"/>
<polygon fill="black" stroke="black" points="1373.16,-38.1434 1381.86,-32.0946 1371.29,-31.3988 1373.16,-38.1434"/>
</g>
</g>
</svg>
