<?xml version="1.0" encoding="UTF-8" standalone="no"?>
<!DOCTYPE svg PUBLIC "-//W3C//DTD SVG 1.1//EN"
 "http://www.w3.org/Graphics/SVG/1.1/DTD/svg11.dtd">
<!-- Generated by graphviz version 2.28.0 (20110622.2320)
 -->
<!-- Title: G Pages: 1 -->
<svg width="1745pt" height="764pt"
 viewBox="0.00 0.00 1745.00 764.00" xmlns="http://www.w3.org/2000/svg" xmlns:xlink="http://www.w3.org/1999/xlink">
<g id="graph1" class="graph" transform="scale(1 1) rotate(0) translate(4 760)">
<title>G</title>
<polygon fill="white" stroke="white" points="-4,5 -4,-760 1742,-760 1742,5 -4,5"/>
<!-- i1 -->
<g id="node1" class="node"><title>i1</title>
<a xlink:href="0043233" xlink:title="GO:0043233">
<ellipse fill="#dddddd" stroke="#dddddd" cx="61" cy="-306" rx="61.1934" ry="18"/>
<text text-anchor="middle" x="61" y="-301.8" font-family="Times,serif" font-size="14.00">GO:0043233</text>
</a>
</g>
<!-- h1 -->
<g id="node3" class="node"><title>h1</title>
<a xlink:href="0031981" xlink:title="GO:0031981">
<ellipse fill="#dddddd" stroke="#dddddd" cx="213" cy="-90" rx="61.1934" ry="18"/>
<text text-anchor="middle" x="213" y="-85.8" font-family="Times,serif" font-size="14.00">GO:0031981</text>
</a>
</g>
<!-- i1&#45;&gt;h1 -->
<g id="edge2" class="edge"><title>i1&#45;&gt;h1</title>
<path fill="none" stroke="black" d="M71.3208,-288.004C82.4475,-269.896 100.873,-240.519 118,-216 142.854,-180.42 173.542,-140.743 193.192,-115.83"/>
<polygon fill="black" stroke="black" points="196.193,-117.678 199.655,-107.664 190.704,-113.333 196.193,-117.678"/>
</g>
<!-- g1 -->
<g id="node43" class="node"><title>g1</title>
<a xlink:href="0005730" xlink:title="GO:0005730 (2)">
<ellipse fill="#e98576" stroke="#e98576" cx="213" cy="-18" rx="75.2018" ry="18"/>
<text text-anchor="middle" x="213" y="-13.8" font-family="Times,serif" font-size="14.00">GO:0005730 (2)</text>
</a>
</g>
<!-- h1&#45;&gt;g1 -->
<g id="edge42" class="edge"><title>h1&#45;&gt;g1</title>
<path fill="none" stroke="black" d="M213,-71.6966C213,-63.9827 213,-54.7125 213,-46.1124"/>
<polygon fill="black" stroke="black" points="216.5,-46.1043 213,-36.1043 209.5,-46.1044 216.5,-46.1043"/>
</g>
<!-- l1 -->
<g id="node4" class="node"><title>l1</title>
<a xlink:href="0044428" xlink:title="GO:0044428">
<ellipse fill="#dddddd" stroke="#dddddd" cx="424" cy="-162" rx="61.1934" ry="18"/>
<text text-anchor="middle" x="424" y="-157.8" font-family="Times,serif" font-size="14.00">GO:0044428</text>
</a>
</g>
<!-- l1&#45;&gt;h1 -->
<g id="edge4" class="edge"><title>l1&#45;&gt;h1</title>
<path fill="none" stroke="black" d="M384.807,-147.998C350.017,-136.456 299.049,-119.547 261.66,-107.143"/>
<polygon fill="black" stroke="black" points="262.577,-103.76 251.983,-103.933 260.372,-110.404 262.577,-103.76"/>
</g>
<!-- l1&#45;&gt;g1 -->
<g id="edge46" class="edge"><title>l1&#45;&gt;g1</title>
<path fill="none" stroke="black" d="M400.613,-145.261C362.869,-119.86 288.43,-69.7635 245.534,-40.8952"/>
<polygon fill="black" stroke="black" points="247.391,-37.9256 237.14,-35.246 243.482,-43.7329 247.391,-37.9256"/>
</g>
<!-- r0 -->
<g id="node6" class="node"><title>r0</title>
<a xlink:href="0043234" xlink:title="GO:0043234 (6)">
<ellipse fill="#e98576" stroke="#e98576" cx="1591" cy="-450" rx="75.2018" ry="18"/>
<text text-anchor="middle" x="1591" y="-445.8" font-family="Times,serif" font-size="14.00">GO:0043234 (6)</text>
</a>
</g>
<!-- w1 -->
<g id="node8" class="node"><title>w1</title>
<a xlink:href="0031248" xlink:title="GO:0031248 (1)">
<ellipse fill="#e98576" stroke="#e98576" cx="1456" cy="-378" rx="75.2018" ry="18"/>
<text text-anchor="middle" x="1456" y="-373.8" font-family="Times,serif" font-size="14.00">GO:0031248 (1)</text>
</a>
</g>
<!-- r0&#45;&gt;w1 -->
<g id="edge6" class="edge"><title>r0&#45;&gt;w1</title>
<path fill="none" stroke="black" d="M1561.04,-433.465C1541.69,-423.43 1516.3,-410.265 1495.33,-399.393"/>
<polygon fill="black" stroke="black" points="1496.83,-396.23 1486.34,-394.734 1493.61,-402.444 1496.83,-396.23"/>
</g>
<!-- q1 -->
<g id="node18" class="node"><title>q1</title>
<a xlink:href="0030894" xlink:title="GO:0030894 (1)">
<ellipse fill="#e98576" stroke="#e98576" cx="768" cy="-18" rx="75.2018" ry="18"/>
<text text-anchor="middle" x="768" y="-13.8" font-family="Times,serif" font-size="14.00">GO:0030894 (1)</text>
</a>
</g>
<!-- r0&#45;&gt;q1 -->
<g id="edge16" class="edge"><title>r0&#45;&gt;q1</title>
<path fill="none" stroke="black" d="M1584.52,-431.793C1575.17,-405.361 1559,-352.993 1559,-307 1559,-307 1559,-307 1559,-161 1559,-89.3886 1050.26,-41.3091 848.771,-25.0753"/>
<polygon fill="black" stroke="black" points="848.791,-21.5659 838.544,-24.2575 848.233,-28.5436 848.791,-21.5659"/>
</g>
<!-- e1 -->
<g id="node80" class="node"><title>e1</title>
<a xlink:href="0043235" xlink:title="GO:0043235 (2)">
<ellipse fill="#e98576" stroke="#e98576" cx="1662" cy="-378" rx="75.2018" ry="18"/>
<text text-anchor="middle" x="1662" y="-373.8" font-family="Times,serif" font-size="14.00">GO:0043235 (2)</text>
</a>
</g>
<!-- r0&#45;&gt;e1 -->
<g id="edge82" class="edge"><title>r0&#45;&gt;e1</title>
<path fill="none" stroke="black" d="M1607.83,-432.411C1616.71,-423.648 1627.79,-412.732 1637.6,-403.057"/>
<polygon fill="black" stroke="black" points="1640.14,-405.469 1644.8,-395.956 1635.22,-400.485 1640.14,-405.469"/>
</g>
<!-- g0 -->
<g id="node9" class="node"><title>g0</title>
<a xlink:href="0044424" xlink:title="GO:0044424">
<ellipse fill="#dddddd" stroke="#dddddd" cx="1007" cy="-450" rx="61.1934" ry="18"/>
<text text-anchor="middle" x="1007" y="-445.8" font-family="Times,serif" font-size="14.00">GO:0044424</text>
</a>
</g>
<!-- g0&#45;&gt;w1 -->
<g id="edge8" class="edge"><title>g0&#45;&gt;w1</title>
<path fill="none" stroke="black" d="M1061.88,-441.997C1133.43,-432.646 1262.38,-415.035 1372,-396 1378.25,-394.914 1384.75,-393.718 1391.25,-392.479"/>
<polygon fill="black" stroke="black" points="1392.26,-395.848 1401.41,-390.505 1390.92,-388.976 1392.26,-395.848"/>
</g>
<!-- q0 -->
<g id="node14" class="node"><title>q0</title>
<a xlink:href="0044444" xlink:title="GO:0044444">
<ellipse fill="#dddddd" stroke="#dddddd" cx="1115" cy="-306" rx="61.1934" ry="18"/>
<text text-anchor="middle" x="1115" y="-301.8" font-family="Times,serif" font-size="14.00">GO:0044444</text>
</a>
</g>
<!-- g0&#45;&gt;q0 -->
<g id="edge62" class="edge"><title>g0&#45;&gt;q0</title>
<path fill="none" stroke="black" d="M1006.72,-431.984C1007.22,-412.784 1010.63,-381.444 1026,-360 1036.77,-344.972 1053.25,-333.466 1069.11,-325.077"/>
<polygon fill="black" stroke="black" points="1070.93,-328.08 1078.33,-320.495 1067.82,-321.812 1070.93,-328.08"/>
</g>
<!-- f0 -->
<g id="node29" class="node"><title>f0</title>
<a xlink:href="0005737" xlink:title="GO:0005737 (15)">
<ellipse fill="#e98576" stroke="#e98576" cx="1115" cy="-378" rx="79.4447" ry="18"/>
<text text-anchor="middle" x="1115" y="-373.8" font-family="Times,serif" font-size="14.00">GO:0005737 (15)</text>
</a>
</g>
<!-- g0&#45;&gt;f0 -->
<g id="edge26" class="edge"><title>g0&#45;&gt;f0</title>
<path fill="none" stroke="black" d="M1031.24,-433.291C1046.03,-423.7 1065.17,-411.298 1081.41,-400.769"/>
<polygon fill="black" stroke="black" points="1083.61,-403.519 1090.09,-395.142 1079.8,-397.644 1083.61,-403.519"/>
</g>
<!-- m1 -->
<g id="node65" class="node"><title>m1</title>
<a xlink:href="0044446" xlink:title="GO:0044446">
<ellipse fill="#dddddd" stroke="#dddddd" cx="679" cy="-306" rx="61.1934" ry="18"/>
<text text-anchor="middle" x="679" y="-301.8" font-family="Times,serif" font-size="14.00">GO:0044446</text>
</a>
</g>
<!-- g0&#45;&gt;m1 -->
<g id="edge138" class="edge"><title>g0&#45;&gt;m1</title>
<path fill="none" stroke="black" d="M958.749,-438.759C925.952,-430.435 882.439,-416.647 848,-396 828.047,-384.038 829.569,-372.582 810,-360 785.406,-344.187 755.319,-331.61 730.184,-322.684"/>
<polygon fill="black" stroke="black" points="731.056,-319.282 720.461,-319.323 728.769,-325.898 731.056,-319.282"/>
</g>
<!-- p0 -->
<g id="node73" class="node"><title>p0</title>
<a xlink:href="0043229" xlink:title="GO:0043229">
<ellipse fill="#dddddd" stroke="#dddddd" cx="740" cy="-378" rx="61.1934" ry="18"/>
<text text-anchor="middle" x="740" y="-373.8" font-family="Times,serif" font-size="14.00">GO:0043229</text>
</a>
</g>
<!-- g0&#45;&gt;p0 -->
<g id="edge98" class="edge"><title>g0&#45;&gt;p0</title>
<path fill="none" stroke="black" d="M962.91,-437.441C916.628,-425.307 843.812,-406.217 794.087,-393.18"/>
<polygon fill="black" stroke="black" points="794.716,-389.727 784.155,-390.576 792.941,-396.498 794.716,-389.727"/>
</g>
<!-- u1 -->
<g id="node121" class="node"><title>u1</title>
<a xlink:href="0030529" xlink:title="GO:0030529 (1)">
<ellipse fill="#e98576" stroke="#e98576" cx="1288" cy="-378" rx="75.2018" ry="18"/>
<text text-anchor="middle" x="1288" y="-373.8" font-family="Times,serif" font-size="14.00">GO:0030529 (1)</text>
</a>
</g>
<!-- g0&#45;&gt;u1 -->
<g id="edge146" class="edge"><title>g0&#45;&gt;u1</title>
<path fill="none" stroke="black" d="M1052.15,-437.753C1099.81,-425.881 1175.18,-407.104 1227.86,-393.982"/>
<polygon fill="black" stroke="black" points="1228.89,-397.333 1237.75,-391.519 1227.2,-390.54 1228.89,-397.333"/>
</g>
<!-- n0 -->
<g id="node11" class="node"><title>n0</title>
<a xlink:href="0043231" xlink:title="GO:0043231 (4)">
<ellipse fill="#e98576" stroke="#e98576" cx="934" cy="-306" rx="75.2018" ry="18"/>
<text text-anchor="middle" x="934" y="-301.8" font-family="Times,serif" font-size="14.00">GO:0043231 (4)</text>
</a>
</g>
<!-- v1 -->
<g id="node13" class="node"><title>v1</title>
<a xlink:href="0005794" xlink:title="GO:0005794 (1)">
<ellipse fill="#e98576" stroke="#e98576" cx="1454" cy="-234" rx="75.2018" ry="18"/>
<text text-anchor="middle" x="1454" y="-229.8" font-family="Times,serif" font-size="14.00">GO:0005794 (1)</text>
</a>
</g>
<!-- n0&#45;&gt;v1 -->
<g id="edge10" class="edge"><title>n0&#45;&gt;v1</title>
<path fill="none" stroke="black" d="M994.424,-295.279C1010.81,-292.769 1028.57,-290.167 1045,-288 1189.08,-268.995 1226.41,-274.436 1370,-252 1376.62,-250.966 1383.51,-249.77 1390.36,-248.501"/>
<polygon fill="black" stroke="black" points="1391.19,-251.907 1400.35,-246.6 1389.88,-245.031 1391.19,-251.907"/>
</g>
<!-- m0 -->
<g id="node26" class="node"><title>m0</title>
<a xlink:href="0005773" xlink:title="GO:0005773 (8)">
<ellipse fill="#e98576" stroke="#e98576" cx="782" cy="-234" rx="75.2018" ry="18"/>
<text text-anchor="middle" x="782" y="-229.8" font-family="Times,serif" font-size="14.00">GO:0005773 (8)</text>
</a>
</g>
<!-- n0&#45;&gt;m0 -->
<g id="edge22" class="edge"><title>n0&#45;&gt;m0</title>
<path fill="none" stroke="black" d="M901.018,-289.811C878.588,-279.481 848.703,-265.718 824.491,-254.568"/>
<polygon fill="black" stroke="black" points="825.727,-251.284 815.179,-250.28 822.799,-257.642 825.727,-251.284"/>
</g>
<!-- y0 -->
<g id="node37" class="node"><title>y0</title>
<a xlink:href="0005783" xlink:title="GO:0005783 (3)">
<ellipse fill="#e98576" stroke="#e98576" cx="950" cy="-234" rx="75.2018" ry="18"/>
<text text-anchor="middle" x="950" y="-229.8" font-family="Times,serif" font-size="14.00">GO:0005783 (3)</text>
</a>
</g>
<!-- n0&#45;&gt;y0 -->
<g id="edge34" class="edge"><title>n0&#45;&gt;y0</title>
<path fill="none" stroke="black" d="M937.955,-287.697C939.718,-279.983 941.837,-270.712 943.803,-262.112"/>
<polygon fill="black" stroke="black" points="947.274,-262.633 946.09,-252.104 940.45,-261.073 947.274,-262.633"/>
</g>
<!-- v0 -->
<g id="node40" class="node"><title>v0</title>
<a xlink:href="0005739" xlink:title="GO:0005739 (5)">
<ellipse fill="#e98576" stroke="#e98576" cx="1118" cy="-234" rx="75.2018" ry="18"/>
<text text-anchor="middle" x="1118" y="-229.8" font-family="Times,serif" font-size="14.00">GO:0005739 (5)</text>
</a>
</g>
<!-- n0&#45;&gt;v0 -->
<g id="edge38" class="edge"><title>n0&#45;&gt;v0</title>
<path fill="none" stroke="black" d="M972.572,-290.326C1001,-279.509 1039.85,-264.73 1070.25,-253.167"/>
<polygon fill="black" stroke="black" points="1071.69,-256.362 1079.79,-249.535 1069.2,-249.819 1071.69,-256.362"/>
</g>
<!-- t0 -->
<g id="node63" class="node"><title>t0</title>
<a xlink:href="0005634" xlink:title="GO:0005634 (5)">
<ellipse fill="#e98576" stroke="#e98576" cx="576" cy="-234" rx="75.2018" ry="18"/>
<text text-anchor="middle" x="576" y="-229.8" font-family="Times,serif" font-size="14.00">GO:0005634 (5)</text>
</a>
</g>
<!-- n0&#45;&gt;t0 -->
<g id="edge132" class="edge"><title>n0&#45;&gt;t0</title>
<path fill="none" stroke="black" d="M877.669,-293.985C813.895,-281.516 710.094,-261.219 642.423,-247.988"/>
<polygon fill="black" stroke="black" points="642.784,-244.492 632.298,-246.008 641.44,-251.362 642.784,-244.492"/>
</g>
<!-- u0 -->
<g id="node83" class="node"><title>u0</title>
<a xlink:href="0005768" xlink:title="GO:0005768 (5)">
<ellipse fill="#e98576" stroke="#e98576" cx="1286" cy="-234" rx="75.2018" ry="18"/>
<text text-anchor="middle" x="1286" y="-229.8" font-family="Times,serif" font-size="14.00">GO:0005768 (5)</text>
</a>
</g>
<!-- n0&#45;&gt;u0 -->
<g id="edge86" class="edge"><title>n0&#45;&gt;u0</title>
<path fill="none" stroke="black" d="M990.222,-293.957C1044.46,-283.286 1128.87,-266.632 1202,-252 1208.03,-250.793 1214.31,-249.533 1220.59,-248.268"/>
<polygon fill="black" stroke="black" points="1221.32,-251.69 1230.43,-246.282 1219.94,-244.829 1221.32,-251.69"/>
</g>
<!-- q0&#45;&gt;v1 -->
<g id="edge12" class="edge"><title>q0&#45;&gt;v1</title>
<path fill="none" stroke="black" d="M1163.57,-294.971C1222.87,-282.727 1323.36,-261.977 1389.2,-248.381"/>
<polygon fill="black" stroke="black" points="1389.97,-251.796 1399.06,-246.346 1388.55,-244.94 1389.97,-251.796"/>
</g>
<!-- q0&#45;&gt;m0 -->
<g id="edge24" class="edge"><title>q0&#45;&gt;m0</title>
<path fill="none" stroke="black" d="M1066.58,-294.821C1008.53,-282.62 911.043,-262.126 846.615,-248.583"/>
<polygon fill="black" stroke="black" points="847.076,-245.103 836.57,-246.471 845.636,-251.954 847.076,-245.103"/>
</g>
<!-- q0&#45;&gt;y0 -->
<g id="edge36" class="edge"><title>q0&#45;&gt;y0</title>
<path fill="none" stroke="black" d="M1081.61,-290.834C1056.59,-280.221 1022.1,-265.588 994.704,-253.965"/>
<polygon fill="black" stroke="black" points="995.909,-250.675 985.337,-249.991 993.175,-257.119 995.909,-250.675"/>
</g>
<!-- q0&#45;&gt;v0 -->
<g id="edge40" class="edge"><title>q0&#45;&gt;v0</title>
<path fill="none" stroke="black" d="M1115.74,-287.697C1116.07,-279.983 1116.47,-270.712 1116.84,-262.112"/>
<polygon fill="black" stroke="black" points="1120.34,-262.245 1117.27,-252.104 1113.34,-261.945 1120.34,-262.245"/>
</g>
<!-- q0&#45;&gt;u0 -->
<g id="edge88" class="edge"><title>q0&#45;&gt;u0</title>
<path fill="none" stroke="black" d="M1149.19,-291.003C1175.38,-280.285 1211.74,-265.397 1240.4,-253.666"/>
<polygon fill="black" stroke="black" points="1241.87,-256.846 1249.8,-249.819 1239.22,-250.368 1241.87,-256.846"/>
</g>
<!-- r1 -->
<g id="node16" class="node"><title>r1</title>
<a xlink:href="0005657" xlink:title="GO:0005657">
<ellipse fill="#dddddd" stroke="#dddddd" cx="679" cy="-90" rx="61.1934" ry="18"/>
<text text-anchor="middle" x="679" y="-85.8" font-family="Times,serif" font-size="14.00">GO:0005657</text>
</a>
</g>
<!-- r1&#45;&gt;q1 -->
<g id="edge14" class="edge"><title>r1&#45;&gt;q1</title>
<path fill="none" stroke="black" d="M699.642,-72.7646C711.352,-63.5543 726.192,-51.8825 739.051,-41.7691"/>
<polygon fill="black" stroke="black" points="741.465,-44.323 747.162,-35.3898 737.138,-38.8209 741.465,-44.323"/>
</g>
<!-- s1 -->
<g id="node20" class="node"><title>s1</title>
<a xlink:href="0044427" xlink:title="GO:0044427">
<ellipse fill="#dddddd" stroke="#dddddd" cx="679" cy="-162" rx="61.1934" ry="18"/>
<text text-anchor="middle" x="679" y="-157.8" font-family="Times,serif" font-size="14.00">GO:0044427</text>
</a>
</g>
<!-- s1&#45;&gt;r1 -->
<g id="edge28" class="edge"><title>s1&#45;&gt;r1</title>
<path fill="none" stroke="black" d="M679,-143.697C679,-135.983 679,-126.712 679,-118.112"/>
<polygon fill="black" stroke="black" points="682.5,-118.104 679,-108.104 675.5,-118.104 682.5,-118.104"/>
</g>
<!-- s1&#45;&gt;q1 -->
<g id="edge18" class="edge"><title>s1&#45;&gt;q1</title>
<path fill="none" stroke="black" d="M707.549,-145.979C722.115,-136.882 738.855,-123.949 749,-108 760.767,-89.5009 765.36,-64.9067 767.099,-46.2605"/>
<polygon fill="black" stroke="black" points="770.606,-46.2838 767.826,-36.0603 763.624,-45.7863 770.606,-46.2838"/>
</g>
<!-- a1 -->
<g id="node22" class="node"><title>a1</title>
<a xlink:href="0042995" xlink:title="GO:0042995 (2)">
<ellipse fill="#e98576" stroke="#e98576" cx="595" cy="-522" rx="75.2018" ry="18"/>
<text text-anchor="middle" x="595" y="-517.8" font-family="Times,serif" font-size="14.00">GO:0042995 (2)</text>
</a>
</g>
<!-- z0 -->
<g id="node24" class="node"><title>z0</title>
<a xlink:href="0043005" xlink:title="GO:0043005 (3)">
<ellipse fill="#e98576" stroke="#e98576" cx="763" cy="-450" rx="75.2018" ry="18"/>
<text text-anchor="middle" x="763" y="-445.8" font-family="Times,serif" font-size="14.00">GO:0043005 (3)</text>
</a>
</g>
<!-- a1&#45;&gt;z0 -->
<g id="edge20" class="edge"><title>a1&#45;&gt;z0</title>
<path fill="none" stroke="black" d="M630.628,-506.155C656.046,-495.564 690.426,-481.239 717.778,-469.842"/>
<polygon fill="black" stroke="black" points="719.249,-473.021 727.134,-465.944 716.557,-466.56 719.249,-473.021"/>
</g>
<!-- p1 -->
<g id="node76" class="node"><title>p1</title>
<a xlink:href="0005929" xlink:title="GO:0005929 (1)">
<ellipse fill="#e98576" stroke="#e98576" cx="595" cy="-450" rx="75.2018" ry="18"/>
<text text-anchor="middle" x="595" y="-445.8" font-family="Times,serif" font-size="14.00">GO:0005929 (1)</text>
</a>
</g>
<!-- a1&#45;&gt;p1 -->
<g id="edge78" class="edge"><title>a1&#45;&gt;p1</title>
<path fill="none" stroke="black" d="M595,-503.697C595,-495.983 595,-486.712 595,-478.112"/>
<polygon fill="black" stroke="black" points="598.5,-478.104 595,-468.104 591.5,-478.104 598.5,-478.104"/>
</g>
<!-- f0&#45;&gt;q0 -->
<g id="edge60" class="edge"><title>f0&#45;&gt;q0</title>
<path fill="none" stroke="black" d="M1115,-359.697C1115,-351.983 1115,-342.712 1115,-334.112"/>
<polygon fill="black" stroke="black" points="1118.5,-334.104 1115,-324.104 1111.5,-334.104 1118.5,-334.104"/>
</g>
<!-- b0 -->
<g id="node31" class="node"><title>b0</title>
<a xlink:href="0005575" xlink:title="GO:0005575 (2)">
<ellipse fill="#e98576" stroke="#e98576" cx="736" cy="-738" rx="75.2018" ry="18"/>
<text text-anchor="middle" x="736" y="-733.8" font-family="Times,serif" font-size="14.00">GO:0005575 (2)</text>
</a>
</g>
<!-- k1 -->
<g id="node33" class="node"><title>k1</title>
<a xlink:href="0044422" xlink:title="GO:0044422">
<ellipse fill="#dddddd" stroke="#dddddd" cx="103" cy="-378" rx="61.1934" ry="18"/>
<text text-anchor="middle" x="103" y="-373.8" font-family="Times,serif" font-size="14.00">GO:0044422</text>
</a>
</g>
<!-- b0&#45;&gt;k1 -->
<g id="edge30" class="edge"><title>b0&#45;&gt;k1</title>
<path fill="none" stroke="black" d="M664.103,-732.661C519.891,-721.982 209,-688.157 209,-595 209,-595 209,-595 209,-521 209,-470.45 165.33,-426.29 134.049,-401.143"/>
<polygon fill="black" stroke="black" points="136.038,-398.256 126,-394.866 131.734,-403.776 136.038,-398.256"/>
</g>
<!-- d0 -->
<g id="node34" class="node"><title>d0</title>
<a xlink:href="0043226" xlink:title="GO:0043226">
<ellipse fill="#dddddd" stroke="#dddddd" cx="403" cy="-450" rx="61.1934" ry="18"/>
<text text-anchor="middle" x="403" y="-445.8" font-family="Times,serif" font-size="14.00">GO:0043226</text>
</a>
</g>
<!-- b0&#45;&gt;d0 -->
<g id="edge94" class="edge"><title>b0&#45;&gt;d0</title>
<path fill="none" stroke="black" d="M669.586,-729.452C607.614,-721.182 520.926,-706.086 495,-684 431.905,-630.248 411.765,-527.391 405.592,-478.336"/>
<polygon fill="black" stroke="black" points="409.043,-477.706 404.419,-468.174 402.089,-478.509 409.043,-477.706"/>
</g>
<!-- j0 -->
<g id="node48" class="node"><title>j0</title>
<a xlink:href="0005623" xlink:title="GO:0005623">
<ellipse fill="#dddddd" stroke="#dddddd" cx="781" cy="-666" rx="61.1934" ry="18"/>
<text text-anchor="middle" x="781" y="-661.8" font-family="Times,serif" font-size="14.00">GO:0005623</text>
</a>
</g>
<!-- b0&#45;&gt;j0 -->
<g id="edge48" class="edge"><title>b0&#45;&gt;j0</title>
<path fill="none" stroke="black" d="M746.893,-720.055C752.255,-711.715 758.827,-701.491 764.767,-692.252"/>
<polygon fill="black" stroke="black" points="767.744,-694.093 770.207,-683.789 761.855,-690.308 767.744,-694.093"/>
</g>
<!-- i0 -->
<g id="node53" class="node"><title>i0</title>
<a xlink:href="0044464" xlink:title="GO:0044464 (5)">
<ellipse fill="#e98576" stroke="#e98576" cx="870" cy="-594" rx="75.2018" ry="18"/>
<text text-anchor="middle" x="870" y="-589.8" font-family="Times,serif" font-size="14.00">GO:0044464 (5)</text>
</a>
</g>
<!-- b0&#45;&gt;i0 -->
<g id="edge110" class="edge"><title>b0&#45;&gt;i0</title>
<path fill="none" stroke="black" d="M786.978,-724.755C809.75,-716.773 835.003,-704 851,-684 864.841,-666.695 869.219,-641.637 870.348,-622.517"/>
<polygon fill="black" stroke="black" points="873.853,-622.43 870.683,-612.32 866.857,-622.2 873.853,-622.43"/>
</g>
<!-- a0 -->
<g id="node58" class="node"><title>a0</title>
<a xlink:href="0005576" xlink:title="GO:0005576 (16)">
<ellipse fill="#e98576" stroke="#e98576" cx="584" cy="-666" rx="79.4447" ry="18"/>
<text text-anchor="middle" x="584" y="-661.8" font-family="Times,serif" font-size="14.00">GO:0005576 (16)</text>
</a>
</g>
<!-- b0&#45;&gt;a0 -->
<g id="edge58" class="edge"><title>b0&#45;&gt;a0</title>
<path fill="none" stroke="black" d="M703.018,-721.811C680.665,-711.517 650.908,-697.813 626.741,-686.683"/>
<polygon fill="black" stroke="black" points="627.989,-683.405 617.442,-682.401 625.061,-689.763 627.989,-683.405"/>
</g>
<!-- j1 -->
<g id="node86" class="node"><title>j1</title>
<a xlink:href="0031974" xlink:title="GO:0031974">
<ellipse fill="#dddddd" stroke="#dddddd" cx="67" cy="-594" rx="61.1934" ry="18"/>
<text text-anchor="middle" x="67" y="-589.8" font-family="Times,serif" font-size="14.00">GO:0031974</text>
</a>
</g>
<!-- b0&#45;&gt;j1 -->
<g id="edge90" class="edge"><title>b0&#45;&gt;j1</title>
<path fill="none" stroke="black" d="M662.436,-734.38C535.037,-729.085 278.917,-714.881 195,-684 155.291,-669.387 116.348,-639.433 92.0427,-618.323"/>
<polygon fill="black" stroke="black" points="94.1881,-615.548 84.3813,-611.538 89.5471,-620.788 94.1881,-615.548"/>
</g>
<!-- w0 -->
<g id="node88" class="node"><title>w0</title>
<a xlink:href="0031012" xlink:title="GO:0031012 (4)">
<ellipse fill="#e98576" stroke="#e98576" cx="1076" cy="-666" rx="75.2018" ry="18"/>
<text text-anchor="middle" x="1076" y="-661.8" font-family="Times,serif" font-size="14.00">GO:0031012 (4)</text>
</a>
</g>
<!-- b0&#45;&gt;w0 -->
<g id="edge92" class="edge"><title>b0&#45;&gt;w0</title>
<path fill="none" stroke="black" d="M791.005,-725.675C851.126,-713.298 947.369,-693.483 1011.13,-680.355"/>
<polygon fill="black" stroke="black" points="1011.99,-683.753 1021.07,-678.308 1010.57,-676.897 1011.99,-683.753"/>
</g>
<!-- e0 -->
<g id="node98" class="node"><title>e0</title>
<a xlink:href="0044421" xlink:title="GO:0044421">
<ellipse fill="#dddddd" stroke="#dddddd" cx="584" cy="-594" rx="61.1934" ry="18"/>
<text text-anchor="middle" x="584" y="-589.8" font-family="Times,serif" font-size="14.00">GO:0044421</text>
</a>
</g>
<!-- b0&#45;&gt;e0 -->
<g id="edge128" class="edge"><title>b0&#45;&gt;e0</title>
<path fill="none" stroke="black" d="M726.646,-720.019C715.484,-700.852 695.369,-669.541 672,-648 657.859,-634.965 640.017,-623.507 624.101,-614.611"/>
<polygon fill="black" stroke="black" points="625.454,-611.364 614.995,-609.676 622.119,-617.518 625.454,-611.364"/>
</g>
<!-- s0 -->
<g id="node108" class="node"><title>s0</title>
<a xlink:href="0032991" xlink:title="GO:0032991 (3)">
<ellipse fill="#e98576" stroke="#e98576" cx="1624" cy="-522" rx="75.2018" ry="18"/>
<text text-anchor="middle" x="1624" y="-517.8" font-family="Times,serif" font-size="14.00">GO:0032991 (3)</text>
</a>
</g>
<!-- b0&#45;&gt;s0 -->
<g id="edge122" class="edge"><title>b0&#45;&gt;s0</title>
<path fill="none" stroke="black" d="M773.221,-722.211C822.593,-703.024 912.749,-669.472 992,-648 1231.6,-583.083 1296.57,-588.621 1540,-540 1546.03,-538.795 1552.31,-537.536 1558.59,-536.272"/>
<polygon fill="black" stroke="black" points="1559.32,-539.695 1568.43,-534.288 1557.94,-532.833 1559.32,-539.695"/>
</g>
<!-- o1 -->
<g id="node111" class="node"><title>o1</title>
<a xlink:href="0045202" xlink:title="GO:0045202 (1)">
<ellipse fill="#e98576" stroke="#e98576" cx="1244" cy="-666" rx="75.2018" ry="18"/>
<text text-anchor="middle" x="1244" y="-661.8" font-family="Times,serif" font-size="14.00">GO:0045202 (1)</text>
</a>
</g>
<!-- b0&#45;&gt;o1 -->
<g id="edge126" class="edge"><title>b0&#45;&gt;o1</title>
<path fill="none" stroke="black" d="M803.785,-730.119C887.683,-721.236 1034.81,-704.463 1160,-684 1166.51,-682.936 1173.29,-681.73 1180.04,-680.464"/>
<polygon fill="black" stroke="black" points="1180.72,-683.897 1189.89,-678.575 1179.41,-677.022 1180.72,-683.897"/>
</g>
<!-- k1&#45;&gt;i1 -->
<g id="edge104" class="edge"><title>k1&#45;&gt;i1</title>
<path fill="none" stroke="black" d="M92.833,-360.055C87.8804,-351.801 81.8208,-341.701 76.3227,-332.538"/>
<polygon fill="black" stroke="black" points="79.2196,-330.563 71.0734,-323.789 73.2172,-334.165 79.2196,-330.563"/>
</g>
<!-- k1&#45;&gt;m1 -->
<g id="edge136" class="edge"><title>k1&#45;&gt;m1</title>
<path fill="none" stroke="black" d="M147.129,-365.492C155.984,-363.45 165.255,-361.499 174,-360 328.409,-333.528 511.796,-318.269 609.521,-311.411"/>
<polygon fill="black" stroke="black" points="609.836,-314.898 619.57,-310.715 609.351,-307.915 609.836,-314.898"/>
</g>
<!-- d0&#45;&gt;k1 -->
<g id="edge32" class="edge"><title>d0&#45;&gt;k1</title>
<path fill="none" stroke="black" d="M356.048,-438.243C309.741,-427.608 236.959,-410.823 174,-396 169.038,-394.832 163.883,-393.611 158.717,-392.383"/>
<polygon fill="black" stroke="black" points="159.359,-388.938 148.82,-390.025 157.736,-395.747 159.359,-388.938"/>
</g>
<!-- k0 -->
<g id="node50" class="node"><title>k0</title>
<a xlink:href="0031982" xlink:title="GO:0031982 (15)">
<ellipse fill="#e98576" stroke="#e98576" cx="403" cy="-378" rx="79.4447" ry="18"/>
<text text-anchor="middle" x="403" y="-373.8" font-family="Times,serif" font-size="14.00">GO:0031982 (15)</text>
</a>
</g>
<!-- d0&#45;&gt;k0 -->
<g id="edge50" class="edge"><title>d0&#45;&gt;k0</title>
<path fill="none" stroke="black" d="M403,-431.697C403,-423.983 403,-414.712 403,-406.112"/>
<polygon fill="black" stroke="black" points="406.5,-406.104 403,-396.104 399.5,-406.104 406.5,-406.104"/>
</g>
<!-- d1 -->
<g id="node71" class="node"><title>d1</title>
<a xlink:href="0043228" xlink:title="GO:0043228">
<ellipse fill="#dddddd" stroke="#dddddd" cx="244" cy="-378" rx="61.1934" ry="18"/>
<text text-anchor="middle" x="244" y="-373.8" font-family="Times,serif" font-size="14.00">GO:0043228</text>
</a>
</g>
<!-- d0&#45;&gt;d1 -->
<g id="edge124" class="edge"><title>d0&#45;&gt;d1</title>
<path fill="none" stroke="black" d="M370.44,-434.666C346.003,-423.907 312.347,-409.09 285.902,-397.448"/>
<polygon fill="black" stroke="black" points="287.079,-394.141 276.516,-393.315 284.258,-400.548 287.079,-394.141"/>
</g>
<!-- d0&#45;&gt;p0 -->
<g id="edge96" class="edge"><title>d0&#45;&gt;p0</title>
<path fill="none" stroke="black" d="M453.125,-439.607C506.688,-429.43 594.027,-412.438 669,-396 674.055,-394.892 679.303,-393.705 684.555,-392.492"/>
<polygon fill="black" stroke="black" points="685.667,-395.826 694.608,-390.142 684.074,-389.01 685.667,-395.826"/>
</g>
<!-- c0 -->
<g id="node97" class="node"><title>c0</title>
<a xlink:href="0043230" xlink:title="GO:0043230 (15)">
<ellipse fill="#e98576" stroke="#e98576" cx="581" cy="-378" rx="79.4447" ry="18"/>
<text text-anchor="middle" x="581" y="-373.8" font-family="Times,serif" font-size="14.00">GO:0043230 (15)</text>
</a>
</g>
<!-- d0&#45;&gt;c0 -->
<g id="edge106" class="edge"><title>d0&#45;&gt;c0</title>
<path fill="none" stroke="black" d="M438.167,-435.17C465.503,-424.42 503.691,-409.402 533.704,-397.6"/>
<polygon fill="black" stroke="black" points="535.111,-400.807 543.137,-393.89 532.55,-394.293 535.111,-400.807"/>
</g>
<!-- o0 -->
<g id="node103" class="node"><title>o0</title>
<a xlink:href="0043227" xlink:title="GO:0043227">
<ellipse fill="#dddddd" stroke="#dddddd" cx="918" cy="-378" rx="61.1934" ry="18"/>
<text text-anchor="middle" x="918" y="-373.8" font-family="Times,serif" font-size="14.00">GO:0043227</text>
</a>
</g>
<!-- d0&#45;&gt;o0 -->
<g id="edge114" class="edge"><title>d0&#45;&gt;o0</title>
<path fill="none" stroke="black" d="M455.129,-440.403C472.841,-437.586 492.764,-434.532 511,-432 643.577,-413.591 677.423,-414.409 810,-396 824.817,-393.943 840.747,-391.541 855.7,-389.201"/>
<polygon fill="black" stroke="black" points="856.538,-392.613 865.871,-387.597 855.448,-385.698 856.538,-392.613"/>
</g>
<!-- c1 -->
<g id="node44" class="node"><title>c1</title>
<a xlink:href="0043232" xlink:title="GO:0043232">
<ellipse fill="#dddddd" stroke="#dddddd" cx="244" cy="-306" rx="61.1934" ry="18"/>
<text text-anchor="middle" x="244" y="-301.8" font-family="Times,serif" font-size="14.00">GO:0043232</text>
</a>
</g>
<!-- c1&#45;&gt;g1 -->
<g id="edge44" class="edge"><title>c1&#45;&gt;g1</title>
<path fill="none" stroke="black" d="M191.034,-296.809C164.353,-289.713 134.282,-276.512 118,-252 93.7308,-215.463 80.5412,-174.489 143,-72 150.724,-59.3262 162.698,-48.6262 174.573,-40.2319"/>
<polygon fill="black" stroke="black" points="176.753,-42.9854 183.139,-34.5318 172.875,-37.1576 176.753,-42.9854"/>
</g>
<!-- t1 -->
<g id="node68" class="node"><title>t1</title>
<a xlink:href="0005694" xlink:title="GO:0005694 (1)">
<ellipse fill="#e98576" stroke="#e98576" cx="370" cy="-234" rx="75.2018" ry="18"/>
<text text-anchor="middle" x="370" y="-229.8" font-family="Times,serif" font-size="14.00">GO:0005694 (1)</text>
</a>
</g>
<!-- c1&#45;&gt;t1 -->
<g id="edge70" class="edge"><title>c1&#45;&gt;t1</title>
<path fill="none" stroke="black" d="M271.34,-289.811C289.21,-279.883 312.788,-266.785 332.413,-255.882"/>
<polygon fill="black" stroke="black" points="334.359,-258.804 341.401,-250.888 330.96,-252.685 334.359,-258.804"/>
</g>
<!-- b1 -->
<g id="node93" class="node"><title>b1</title>
<a xlink:href="0005856" xlink:title="GO:0005856 (2)">
<ellipse fill="#e98576" stroke="#e98576" cx="202" cy="-234" rx="75.2018" ry="18"/>
<text text-anchor="middle" x="202" y="-229.8" font-family="Times,serif" font-size="14.00">GO:0005856 (2)</text>
</a>
</g>
<!-- c1&#45;&gt;b1 -->
<g id="edge100" class="edge"><title>c1&#45;&gt;b1</title>
<path fill="none" stroke="black" d="M233.833,-288.055C228.953,-279.922 222.999,-269.998 217.566,-260.943"/>
<polygon fill="black" stroke="black" points="220.511,-259.049 212.365,-252.275 214.509,-262.651 220.511,-259.049"/>
</g>
<!-- j0&#45;&gt;i0 -->
<g id="edge112" class="edge"><title>j0&#45;&gt;i0</title>
<path fill="none" stroke="black" d="M801.642,-648.765C813.352,-639.554 828.192,-627.882 841.051,-617.769"/>
<polygon fill="black" stroke="black" points="843.465,-620.323 849.162,-611.39 839.138,-614.821 843.465,-620.323"/>
</g>
<!-- h0 -->
<g id="node51" class="node"><title>h0</title>
<a xlink:href="0005622" xlink:title="GO:0005622">
<ellipse fill="#dddddd" stroke="#dddddd" cx="918" cy="-522" rx="61.1934" ry="18"/>
<text text-anchor="middle" x="918" y="-517.8" font-family="Times,serif" font-size="14.00">GO:0005622</text>
</a>
</g>
<!-- h0&#45;&gt;g0 -->
<g id="edge52" class="edge"><title>h0&#45;&gt;g0</title>
<path fill="none" stroke="black" d="M938.642,-504.765C950.437,-495.488 965.406,-483.714 978.328,-473.551"/>
<polygon fill="black" stroke="black" points="980.773,-476.081 986.47,-467.147 976.446,-470.578 980.773,-476.081"/>
</g>
<!-- i0&#45;&gt;g0 -->
<g id="edge54" class="edge"><title>i0&#45;&gt;g0</title>
<path fill="none" stroke="black" d="M922.284,-581.068C945.645,-573.157 971.559,-560.352 988,-540 1002.01,-522.659 1006.35,-497.398 1007.42,-478.215"/>
<polygon fill="black" stroke="black" points="1010.92,-478.099 1007.72,-468 1003.93,-477.892 1010.92,-478.099"/>
</g>
<!-- i0&#45;&gt;a1 -->
<g id="edge84" class="edge"><title>i0&#45;&gt;a1</title>
<path fill="none" stroke="black" d="M820.518,-580.405C773.934,-568.547 704.097,-550.77 654.497,-538.145"/>
<polygon fill="black" stroke="black" points="655.102,-534.687 644.548,-535.612 653.376,-541.471 655.102,-534.687"/>
</g>
<!-- i0&#45;&gt;h0 -->
<g id="edge116" class="edge"><title>i0&#45;&gt;h0</title>
<path fill="none" stroke="black" d="M881.619,-576.055C887.339,-567.715 894.349,-557.491 900.685,-548.252"/>
<polygon fill="black" stroke="black" points="903.719,-550.016 906.488,-539.789 897.946,-546.057 903.719,-550.016"/>
</g>
<!-- n1 -->
<g id="node56" class="node"><title>n1</title>
<a xlink:href="0030496" xlink:title="GO:0030496 (1)">
<ellipse fill="#e98576" stroke="#e98576" cx="763" cy="-522" rx="75.2018" ry="18"/>
<text text-anchor="middle" x="763" y="-517.8" font-family="Times,serif" font-size="14.00">GO:0030496 (1)</text>
</a>
</g>
<!-- i0&#45;&gt;n1 -->
<g id="edge56" class="edge"><title>i0&#45;&gt;n1</title>
<path fill="none" stroke="black" d="M845.452,-576.941C830.876,-567.405 812.196,-555.184 796.303,-544.787"/>
<polygon fill="black" stroke="black" points="798.089,-541.773 787.804,-539.227 794.256,-547.631 798.089,-541.773"/>
</g>
<!-- l0 -->
<g id="node62" class="node"><title>l0</title>
<a xlink:href="0016020" xlink:title="GO:0016020 (11)">
<ellipse fill="#e98576" stroke="#e98576" cx="1115" cy="-522" rx="79.4447" ry="18"/>
<text text-anchor="middle" x="1115" y="-517.8" font-family="Times,serif" font-size="14.00">GO:0016020 (11)</text>
</a>
</g>
<!-- i0&#45;&gt;l0 -->
<g id="edge64" class="edge"><title>i0&#45;&gt;l0</title>
<path fill="none" stroke="black" d="M916.371,-579.751C956.526,-568.278 1014.76,-551.64 1057.8,-539.343"/>
<polygon fill="black" stroke="black" points="1058.91,-542.665 1067.57,-536.552 1056.99,-535.934 1058.91,-542.665"/>
</g>
<!-- f1 -->
<g id="node70" class="node"><title>f1</title>
<a xlink:href="0043025" xlink:title="GO:0043025 (2)">
<ellipse fill="#e98576" stroke="#e98576" cx="1288" cy="-522" rx="75.2018" ry="18"/>
<text text-anchor="middle" x="1288" y="-517.8" font-family="Times,serif" font-size="14.00">GO:0043025 (2)</text>
</a>
</g>
<!-- i0&#45;&gt;f1 -->
<g id="edge72" class="edge"><title>i0&#45;&gt;f1</title>
<path fill="none" stroke="black" d="M925.957,-581.938C936.899,-579.88 948.298,-577.811 959,-576 1067.08,-557.713 1095,-558.755 1203,-540 1209.57,-538.858 1216.42,-537.602 1223.25,-536.305"/>
<polygon fill="black" stroke="black" points="1224.05,-539.715 1233.21,-534.385 1222.73,-532.842 1224.05,-539.715"/>
</g>
<!-- x0 -->
<g id="node78" class="node"><title>x0</title>
<a xlink:href="0009986" xlink:title="GO:0009986 (4)">
<ellipse fill="#e98576" stroke="#e98576" cx="1456" cy="-522" rx="75.2018" ry="18"/>
<text text-anchor="middle" x="1456" y="-517.8" font-family="Times,serif" font-size="14.00">GO:0009986 (4)</text>
</a>
</g>
<!-- i0&#45;&gt;x0 -->
<g id="edge80" class="edge"><title>i0&#45;&gt;x0</title>
<path fill="none" stroke="black" d="M924.928,-581.602C936.165,-579.526 947.937,-577.535 959,-576 1141.5,-550.683 1189.64,-566.316 1372,-540 1378.63,-539.043 1385.52,-537.898 1392.39,-536.659"/>
<polygon fill="black" stroke="black" points="1393.2,-540.068 1402.38,-534.788 1391.91,-533.187 1393.2,-540.068"/>
</g>
<!-- a0&#45;&gt;e0 -->
<g id="edge130" class="edge"><title>a0&#45;&gt;e0</title>
<path fill="none" stroke="black" d="M584,-647.697C584,-639.983 584,-630.712 584,-622.112"/>
<polygon fill="black" stroke="black" points="587.5,-622.104 584,-612.104 580.5,-622.104 587.5,-622.104"/>
</g>
<!-- t0&#45;&gt;l1 -->
<g id="edge66" class="edge"><title>t0&#45;&gt;l1</title>
<path fill="none" stroke="black" d="M543.018,-217.811C520.125,-207.268 489.467,-193.149 465,-181.882"/>
<polygon fill="black" stroke="black" points="466.164,-178.564 455.617,-177.56 463.236,-184.923 466.164,-178.564"/>
</g>
<!-- m1&#45;&gt;l1 -->
<g id="edge68" class="edge"><title>m1&#45;&gt;l1</title>
<path fill="none" stroke="black" d="M623.092,-298.652C583.701,-292.024 531.202,-278.663 492,-252 468.403,-235.951 449.514,-209.054 437.689,-189.021"/>
<polygon fill="black" stroke="black" points="440.597,-187.053 432.612,-180.09 434.511,-190.513 440.597,-187.053"/>
</g>
<!-- m1&#45;&gt;s1 -->
<g id="edge142" class="edge"><title>m1&#45;&gt;s1</title>
<path fill="none" stroke="black" d="M679,-287.871C679,-263.67 679,-219.211 679,-190.393"/>
<polygon fill="black" stroke="black" points="682.5,-190.189 679,-180.189 675.5,-190.189 682.5,-190.189"/>
</g>
<!-- t1&#45;&gt;s1 -->
<g id="edge140" class="edge"><title>t1&#45;&gt;s1</title>
<path fill="none" stroke="black" d="M422.768,-221.046C478.217,-208.485 565.138,-188.794 622.094,-175.891"/>
<polygon fill="black" stroke="black" points="623.037,-179.267 632.016,-173.644 621.49,-172.439 623.037,-179.267"/>
</g>
<!-- d1&#45;&gt;c1 -->
<g id="edge74" class="edge"><title>d1&#45;&gt;c1</title>
<path fill="none" stroke="black" d="M244,-359.697C244,-351.983 244,-342.712 244,-334.112"/>
<polygon fill="black" stroke="black" points="247.5,-334.104 244,-324.104 240.5,-334.104 247.5,-334.104"/>
</g>
<!-- p0&#45;&gt;n0 -->
<g id="edge120" class="edge"><title>p0&#45;&gt;n0</title>
<path fill="none" stroke="black" d="M777.405,-363.503C807.97,-352.475 851.425,-336.795 884.807,-324.75"/>
<polygon fill="black" stroke="black" points="886.157,-327.984 894.376,-321.297 883.781,-321.399 886.157,-327.984"/>
</g>
<!-- p0&#45;&gt;c1 -->
<g id="edge76" class="edge"><title>p0&#45;&gt;c1</title>
<path fill="none" stroke="black" d="M695.468,-365.539C686.729,-363.517 677.605,-361.562 669,-360 543.812,-337.279 396.1,-321.253 311.904,-313.123"/>
<polygon fill="black" stroke="black" points="311.995,-309.616 301.707,-312.147 311.328,-316.584 311.995,-309.616"/>
</g>
<!-- p0&#45;&gt;m1 -->
<g id="edge134" class="edge"><title>p0&#45;&gt;m1</title>
<path fill="none" stroke="black" d="M725.544,-360.411C718.057,-351.82 708.767,-341.159 700.461,-331.627"/>
<polygon fill="black" stroke="black" points="702.985,-329.196 693.776,-323.956 697.707,-333.795 702.985,-329.196"/>
</g>
<!-- j1&#45;&gt;i1 -->
<g id="edge102" class="edge"><title>j1&#45;&gt;i1</title>
<path fill="none" stroke="black" d="M60.1178,-576.112C45.304,-537.419 13.2769,-439.556 33,-360 35.3288,-350.606 39.6609,-341.043 44.2333,-332.673"/>
<polygon fill="black" stroke="black" points="47.3916,-334.205 49.404,-323.803 41.344,-330.68 47.3916,-334.205"/>
</g>
<!-- e0&#45;&gt;c0 -->
<g id="edge108" class="edge"><title>e0&#45;&gt;c0</title>
<path fill="none" stroke="black" d="M552.068,-578.63C536.663,-569.858 519.677,-557.023 511,-540 489.201,-497.235 489.632,-474.981 511,-432 517.443,-419.039 528.737,-408.402 540.397,-400.147"/>
<polygon fill="black" stroke="black" points="542.459,-402.98 548.887,-394.558 538.61,-397.133 542.459,-402.98"/>
</g>
<!-- o0&#45;&gt;n0 -->
<g id="edge118" class="edge"><title>o0&#45;&gt;n0</title>
<path fill="none" stroke="black" d="M921.955,-359.697C923.718,-351.983 925.837,-342.712 927.803,-334.112"/>
<polygon fill="black" stroke="black" points="931.274,-334.633 930.09,-324.104 924.45,-333.073 931.274,-334.633"/>
</g>
<!-- s0&#45;&gt;r0 -->
<g id="edge148" class="edge"><title>s0&#45;&gt;r0</title>
<path fill="none" stroke="black" d="M1616.01,-504.055C1612.26,-496.091 1607.69,-486.411 1603.5,-477.51"/>
<polygon fill="black" stroke="black" points="1606.57,-475.828 1599.14,-468.275 1600.24,-478.813 1606.57,-475.828"/>
</g>
<!-- s0&#45;&gt;u1 -->
<g id="edge144" class="edge"><title>s0&#45;&gt;u1</title>
<path fill="none" stroke="black" d="M1588.68,-506.072C1527.17,-480.078 1400.52,-426.554 1332.89,-397.971"/>
<polygon fill="black" stroke="black" points="1333.93,-394.61 1323.35,-393.941 1331.2,-401.058 1333.93,-394.61"/>
</g>
</g>
</svg>
