<?xml version="1.0" encoding="UTF-8" standalone="no"?>
<!DOCTYPE svg PUBLIC "-//W3C//DTD SVG 1.1//EN"
 "http://www.w3.org/Graphics/SVG/1.1/DTD/svg11.dtd">
<!-- Generated by graphviz version 2.28.0 (20110622.2320)
 -->
<!-- Title: G Pages: 1 -->
<svg width="4600pt" height="404pt"
 viewBox="0.00 0.00 4600.00 404.00" xmlns="http://www.w3.org/2000/svg" xmlns:xlink="http://www.w3.org/1999/xlink">
<g id="graph1" class="graph" transform="scale(1 1) rotate(0) translate(4 400)">
<title>G</title>
<polygon fill="white" stroke="white" points="-4,5 -4,-400 4597,-400 4597,5 -4,5"/>
<!-- i0 -->
<g id="node1" class="node"><title>i0</title>
<a xlink:href="0003824" xlink:title="GO:0003824">
<ellipse fill="#dddddd" stroke="#dddddd" cx="663" cy="-306" rx="61.1934" ry="18"/>
<text text-anchor="middle" x="663" y="-301.8" font-family="Times,serif" font-size="14.00">GO:0003824</text>
</a>
</g>
<!-- e1 -->
<g id="node3" class="node"><title>e1</title>
<a xlink:href="0016853" xlink:title="GO:0016853 (2)">
<ellipse fill="#e98576" stroke="#e98576" cx="75" cy="-234" rx="75.2018" ry="18"/>
<text text-anchor="middle" x="75" y="-229.8" font-family="Times,serif" font-size="14.00">GO:0016853 (2)</text>
</a>
</g>
<!-- i0&#45;&gt;e1 -->
<g id="edge2" class="edge"><title>i0&#45;&gt;e1</title>
<path fill="none" stroke="black" d="M604.181,-300.637C509.893,-293.234 319.233,-276.582 159,-252 152.38,-250.984 145.49,-249.8 138.631,-248.538"/>
<polygon fill="black" stroke="black" points="139.115,-245.068 128.638,-246.644 137.811,-251.945 139.115,-245.068"/>
</g>
<!-- j0 -->
<g id="node17" class="node"><title>j0</title>
<a xlink:href="0016787" xlink:title="GO:0016787 (28)">
<ellipse fill="#e98576" stroke="#e98576" cx="248" cy="-234" rx="79.4447" ry="18"/>
<text text-anchor="middle" x="248" y="-229.8" font-family="Times,serif" font-size="14.00">GO:0016787 (28)</text>
</a>
</g>
<!-- i0&#45;&gt;j0 -->
<g id="edge26" class="edge"><title>i0&#45;&gt;j0</title>
<path fill="none" stroke="black" d="M610.131,-296.864C545.583,-286.824 433.132,-268.992 337,-252 330.339,-250.823 323.405,-249.561 316.477,-248.277"/>
<polygon fill="black" stroke="black" points="316.837,-244.784 306.364,-246.387 315.55,-251.665 316.837,-244.784"/>
</g>
<!-- h0 -->
<g id="node20" class="node"><title>h0</title>
<a xlink:href="0016491" xlink:title="GO:0016491 (28)">
<ellipse fill="#e98576" stroke="#e98576" cx="426" cy="-234" rx="79.4447" ry="18"/>
<text text-anchor="middle" x="426" y="-229.8" font-family="Times,serif" font-size="14.00">GO:0016491 (28)</text>
</a>
</g>
<!-- i0&#45;&gt;h0 -->
<g id="edge32" class="edge"><title>i0&#45;&gt;h0</title>
<path fill="none" stroke="black" d="M621.447,-292.727C582.774,-281.305 524.838,-264.193 482.078,-251.563"/>
<polygon fill="black" stroke="black" points="482.961,-248.174 472.379,-248.698 480.978,-254.888 482.961,-248.174"/>
</g>
<!-- i1 -->
<g id="node31" class="node"><title>i1</title>
<a xlink:href="0016874" xlink:title="GO:0016874">
<ellipse fill="#dddddd" stroke="#dddddd" cx="585" cy="-234" rx="61.1934" ry="18"/>
<text text-anchor="middle" x="585" y="-229.8" font-family="Times,serif" font-size="14.00">GO:0016874</text>
</a>
</g>
<!-- i0&#45;&gt;i1 -->
<g id="edge28" class="edge"><title>i0&#45;&gt;i1</title>
<path fill="none" stroke="black" d="M644.909,-288.765C634.842,-279.73 622.135,-268.326 611.017,-258.349"/>
<polygon fill="black" stroke="black" points="613.043,-255.464 603.263,-251.39 608.368,-260.674 613.043,-255.464"/>
</g>
<!-- z0 -->
<g id="node36" class="node"><title>z0</title>
<a xlink:href="0004386" xlink:title="GO:0004386 (3)">
<ellipse fill="#e98576" stroke="#e98576" cx="740" cy="-234" rx="75.2018" ry="18"/>
<text text-anchor="middle" x="740" y="-229.8" font-family="Times,serif" font-size="14.00">GO:0004386 (3)</text>
</a>
</g>
<!-- i0&#45;&gt;z0 -->
<g id="edge34" class="edge"><title>i0&#45;&gt;z0</title>
<path fill="none" stroke="black" d="M680.859,-288.765C690.726,-279.795 703.161,-268.49 714.079,-258.564"/>
<polygon fill="black" stroke="black" points="716.658,-260.95 721.703,-251.633 711.949,-255.77 716.658,-260.95"/>
</g>
<!-- l0 -->
<g id="node74" class="node"><title>l0</title>
<a xlink:href="0016740" xlink:title="GO:0016740 (26)">
<ellipse fill="#e98576" stroke="#e98576" cx="913" cy="-234" rx="79.4447" ry="18"/>
<text text-anchor="middle" x="913" y="-229.8" font-family="Times,serif" font-size="14.00">GO:0016740 (26)</text>
</a>
</g>
<!-- i0&#45;&gt;l0 -->
<g id="edge72" class="edge"><title>i0&#45;&gt;l0</title>
<path fill="none" stroke="black" d="M705.692,-293.046C746.879,-281.514 809.526,-263.973 855.173,-251.192"/>
<polygon fill="black" stroke="black" points="856.245,-254.526 864.931,-248.459 854.358,-247.785 856.245,-254.526"/>
</g>
<!-- y0 -->
<g id="node82" class="node"><title>y0</title>
<a xlink:href="0016829" xlink:title="GO:0016829 (5)">
<ellipse fill="#e98576" stroke="#e98576" cx="1086" cy="-234" rx="75.2018" ry="18"/>
<text text-anchor="middle" x="1086" y="-229.8" font-family="Times,serif" font-size="14.00">GO:0016829 (5)</text>
</a>
</g>
<!-- i0&#45;&gt;y0 -->
<g id="edge80" class="edge"><title>i0&#45;&gt;y0</title>
<path fill="none" stroke="black" d="M716.68,-297.291C783.446,-287.54 900.861,-269.857 1001,-252 1007.57,-250.828 1014.41,-249.553 1021.24,-248.244"/>
<polygon fill="black" stroke="black" points="1022.05,-251.653 1031.19,-246.311 1020.71,-244.781 1022.05,-251.653"/>
</g>
<!-- c0 -->
<g id="node4" class="node"><title>c0</title>
<a xlink:href="0003674" xlink:title="GO:0003674 (51)">
<ellipse fill="#e98576" stroke="#e98576" cx="2957" cy="-378" rx="79.4447" ry="18"/>
<text text-anchor="middle" x="2957" y="-373.8" font-family="Times,serif" font-size="14.00">GO:0003674 (51)</text>
</a>
</g>
<!-- c0&#45;&gt;i0 -->
<g id="edge52" class="edge"><title>c0&#45;&gt;i0</title>
<path fill="none" stroke="black" d="M2878.7,-374.611C2524.2,-363.793 1072.24,-319.488 733.766,-309.159"/>
<polygon fill="black" stroke="black" points="733.71,-305.656 723.607,-308.849 733.496,-312.653 733.71,-305.656"/>
</g>
<!-- p0 -->
<g id="node6" class="node"><title>p0</title>
<a xlink:href="0030234" xlink:title="GO:0030234 (13)">
<ellipse fill="#e98576" stroke="#e98576" cx="2639" cy="-306" rx="79.4447" ry="18"/>
<text text-anchor="middle" x="2639" y="-301.8" font-family="Times,serif" font-size="14.00">GO:0030234 (13)</text>
</a>
</g>
<!-- c0&#45;&gt;p0 -->
<g id="edge4" class="edge"><title>c0&#45;&gt;p0</title>
<path fill="none" stroke="black" d="M2901.97,-364.887C2846.85,-352.754 2762.05,-334.087 2703.73,-321.249"/>
<polygon fill="black" stroke="black" points="2704.41,-317.814 2693.89,-319.082 2702.9,-324.65 2704.41,-317.814"/>
</g>
<!-- b0 -->
<g id="node7" class="node"><title>b0</title>
<a xlink:href="0005488" xlink:title="GO:0005488">
<ellipse fill="#dddddd" stroke="#dddddd" cx="2798" cy="-306" rx="61.1934" ry="18"/>
<text text-anchor="middle" x="2798" y="-301.8" font-family="Times,serif" font-size="14.00">GO:0005488</text>
</a>
</g>
<!-- c0&#45;&gt;b0 -->
<g id="edge12" class="edge"><title>c0&#45;&gt;b0</title>
<path fill="none" stroke="black" d="M2922.11,-361.638C2897.95,-351.004 2865.67,-336.793 2840.09,-325.53"/>
<polygon fill="black" stroke="black" points="2841.2,-322.197 2830.64,-321.371 2838.38,-328.604 2841.2,-322.197"/>
</g>
<!-- g0 -->
<g id="node24" class="node"><title>g0</title>
<a xlink:href="0005215" xlink:title="GO:0005215 (42)">
<ellipse fill="#e98576" stroke="#e98576" cx="2957" cy="-306" rx="79.4447" ry="18"/>
<text text-anchor="middle" x="2957" y="-301.8" font-family="Times,serif" font-size="14.00">GO:0005215 (42)</text>
</a>
</g>
<!-- c0&#45;&gt;g0 -->
<g id="edge20" class="edge"><title>c0&#45;&gt;g0</title>
<path fill="none" stroke="black" d="M2957,-359.697C2957,-351.983 2957,-342.712 2957,-334.112"/>
<polygon fill="black" stroke="black" points="2960.5,-334.104 2957,-324.104 2953.5,-334.104 2960.5,-334.104"/>
</g>
<!-- q0 -->
<g id="node38" class="node"><title>q0</title>
<a xlink:href="0005198" xlink:title="GO:0005198 (12)">
<ellipse fill="#e98576" stroke="#e98576" cx="3135" cy="-306" rx="79.4447" ry="18"/>
<text text-anchor="middle" x="3135" y="-301.8" font-family="Times,serif" font-size="14.00">GO:0005198 (12)</text>
</a>
</g>
<!-- c0&#45;&gt;q0 -->
<g id="edge36" class="edge"><title>c0&#45;&gt;q0</title>
<path fill="none" stroke="black" d="M2994.75,-362.155C3021.8,-351.518 3058.42,-337.114 3087.47,-325.693"/>
<polygon fill="black" stroke="black" points="3088.97,-328.861 3097,-321.944 3086.41,-322.347 3088.97,-328.861"/>
</g>
<!-- v0 -->
<g id="node61" class="node"><title>v0</title>
<a xlink:href="0003774" xlink:title="GO:0003774 (7)">
<ellipse fill="#e98576" stroke="#e98576" cx="3308" cy="-306" rx="75.2018" ry="18"/>
<text text-anchor="middle" x="3308" y="-301.8" font-family="Times,serif" font-size="14.00">GO:0003774 (7)</text>
</a>
</g>
<!-- c0&#45;&gt;v0 -->
<g id="edge58" class="edge"><title>c0&#45;&gt;v0</title>
<path fill="none" stroke="black" d="M3014.6,-365.536C3068.48,-354.809 3151.19,-338.334 3223,-324 3229.2,-322.763 3235.65,-321.474 3242.11,-320.183"/>
<polygon fill="black" stroke="black" points="3243.1,-323.554 3252.22,-318.162 3241.73,-316.69 3243.1,-323.554"/>
</g>
<!-- o0 -->
<g id="node64" class="node"><title>o0</title>
<a xlink:href="0060089" xlink:title="GO:0060089 (1)">
<ellipse fill="#e98576" stroke="#e98576" cx="3994" cy="-306" rx="75.2018" ry="18"/>
<text text-anchor="middle" x="3994" y="-301.8" font-family="Times,serif" font-size="14.00">GO:0060089 (1)</text>
</a>
</g>
<!-- c0&#45;&gt;o0 -->
<g id="edge84" class="edge"><title>c0&#45;&gt;o0</title>
<path fill="none" stroke="black" d="M3032,-371.938C3221.22,-359.165 3716.88,-325.707 3912.71,-312.487"/>
<polygon fill="black" stroke="black" points="3913.19,-315.963 3922.93,-311.797 3912.72,-308.979 3913.19,-315.963"/>
</g>
<!-- j1 -->
<g id="node9" class="node"><title>j1</title>
<a xlink:href="0042277" xlink:title="GO:0042277 (2)">
<ellipse fill="#e98576" stroke="#e98576" cx="1254" cy="-234" rx="75.2018" ry="18"/>
<text text-anchor="middle" x="1254" y="-229.8" font-family="Times,serif" font-size="14.00">GO:0042277 (2)</text>
</a>
</g>
<!-- b0&#45;&gt;j1 -->
<g id="edge6" class="edge"><title>b0&#45;&gt;j1</title>
<path fill="none" stroke="black" d="M2754.71,-293.118C2745.62,-291.051 2736.05,-289.187 2727,-288 2114.71,-207.663 1951.62,-321.51 1338,-252 1330.88,-251.194 1323.48,-250.09 1316.14,-248.829"/>
<polygon fill="black" stroke="black" points="1316.67,-245.369 1306.2,-247.025 1315.42,-252.256 1316.67,-245.369"/>
</g>
<!-- q1 -->
<g id="node11" class="node"><title>q1</title>
<a xlink:href="0019825" xlink:title="GO:0019825 (1)">
<ellipse fill="#e98576" stroke="#e98576" cx="1422" cy="-234" rx="75.2018" ry="18"/>
<text text-anchor="middle" x="1422" y="-229.8" font-family="Times,serif" font-size="14.00">GO:0019825 (1)</text>
</a>
</g>
<!-- b0&#45;&gt;q1 -->
<g id="edge8" class="edge"><title>b0&#45;&gt;q1</title>
<path fill="none" stroke="black" d="M2754.71,-293.143C2745.62,-291.075 2736.05,-289.203 2727,-288 2188.84,-216.414 2045.34,-314.07 1506,-252 1498.89,-251.181 1491.48,-250.07 1484.14,-248.804"/>
<polygon fill="black" stroke="black" points="1484.67,-245.344 1474.21,-246.996 1483.42,-252.231 1484.67,-245.344"/>
</g>
<!-- d0 -->
<g id="node13" class="node"><title>d0</title>
<a xlink:href="0005515" xlink:title="GO:0005515 (91)">
<ellipse fill="#e98576" stroke="#e98576" cx="1595" cy="-234" rx="79.4447" ry="18"/>
<text text-anchor="middle" x="1595" y="-229.8" font-family="Times,serif" font-size="14.00">GO:0005515 (91)</text>
</a>
</g>
<!-- b0&#45;&gt;d0 -->
<g id="edge10" class="edge"><title>b0&#45;&gt;d0</title>
<path fill="none" stroke="black" d="M2754.7,-293.178C2745.62,-291.107 2736.04,-289.226 2727,-288 2267.37,-225.684 2144.95,-303.665 1684,-252 1676.31,-251.138 1668.28,-249.978 1660.34,-248.668"/>
<polygon fill="black" stroke="black" points="1660.8,-245.196 1650.35,-246.939 1659.6,-252.094 1660.8,-245.196"/>
</g>
<!-- o1 -->
<g id="node16" class="node"><title>o1</title>
<a xlink:href="0042562" xlink:title="GO:0042562 (1)">
<ellipse fill="#e98576" stroke="#e98576" cx="1768" cy="-234" rx="75.2018" ry="18"/>
<text text-anchor="middle" x="1768" y="-229.8" font-family="Times,serif" font-size="14.00">GO:0042562 (1)</text>
</a>
</g>
<!-- b0&#45;&gt;o1 -->
<g id="edge14" class="edge"><title>b0&#45;&gt;o1</title>
<path fill="none" stroke="black" d="M2754.7,-293.224C2745.61,-291.15 2736.04,-289.256 2727,-288 2341.49,-234.433 2238.4,-298.749 1852,-252 1845.15,-251.171 1838.03,-250.086 1830.96,-248.863"/>
<polygon fill="black" stroke="black" points="1831.13,-245.337 1820.67,-246.987 1829.88,-252.224 1831.13,-245.337"/>
</g>
<!-- a0 -->
<g id="node26" class="node"><title>a0</title>
<a xlink:href="0043167" xlink:title="GO:0043167 (104)">
<ellipse fill="#e98576" stroke="#e98576" cx="1946" cy="-234" rx="84.1886" ry="18"/>
<text text-anchor="middle" x="1946" y="-229.8" font-family="Times,serif" font-size="14.00">GO:0043167 (104)</text>
</a>
</g>
<!-- b0&#45;&gt;a0 -->
<g id="edge22" class="edge"><title>b0&#45;&gt;a0</title>
<path fill="none" stroke="black" d="M2754.31,-293.216C2745.33,-291.17 2735.91,-289.289 2727,-288 2424.4,-244.22 2343.71,-287.277 2040,-252 2031.98,-251.068 2023.61,-249.876 2015.31,-248.555"/>
<polygon fill="black" stroke="black" points="2015.69,-245.071 2005.25,-246.891 2014.55,-251.977 2015.69,-245.071"/>
</g>
<!-- b1 -->
<g id="node28" class="node"><title>b1</title>
<a xlink:href="0043176" xlink:title="GO:0043176">
<ellipse fill="#dddddd" stroke="#dddddd" cx="2110" cy="-234" rx="61.1934" ry="18"/>
<text text-anchor="middle" x="2110" y="-229.8" font-family="Times,serif" font-size="14.00">GO:0043176</text>
</a>
</g>
<!-- b0&#45;&gt;b1 -->
<g id="edge24" class="edge"><title>b0&#45;&gt;b1</title>
<path fill="none" stroke="black" d="M2754.29,-293.31C2745.32,-291.256 2735.9,-289.348 2727,-288 2486.11,-251.503 2420.83,-288.886 2180,-252 2174.59,-251.172 2168.99,-250.13 2163.41,-248.972"/>
<polygon fill="black" stroke="black" points="2163.98,-245.512 2153.46,-246.783 2162.47,-252.349 2163.98,-245.512"/>
</g>
<!-- e0 -->
<g id="node33" class="node"><title>e0</title>
<a xlink:href="0003676" xlink:title="GO:0003676 (71)">
<ellipse fill="#e98576" stroke="#e98576" cx="2269" cy="-234" rx="79.4447" ry="18"/>
<text text-anchor="middle" x="2269" y="-229.8" font-family="Times,serif" font-size="14.00">GO:0003676 (71)</text>
</a>
</g>
<!-- b0&#45;&gt;e0 -->
<g id="edge30" class="edge"><title>b0&#45;&gt;e0</title>
<path fill="none" stroke="black" d="M2753.88,-293.442C2745.02,-291.403 2735.75,-289.467 2727,-288 2564.49,-260.751 2521.1,-275.482 2358,-252 2350.83,-250.967 2343.36,-249.756 2335.92,-248.464"/>
<polygon fill="black" stroke="black" points="2336.3,-244.976 2325.84,-246.66 2335.07,-251.867 2336.3,-244.976"/>
</g>
<!-- t0 -->
<g id="node40" class="node"><title>t0</title>
<a xlink:href="0003682" xlink:title="GO:0003682 (11)">
<ellipse fill="#e98576" stroke="#e98576" cx="2447" cy="-234" rx="79.4447" ry="18"/>
<text text-anchor="middle" x="2447" y="-229.8" font-family="Times,serif" font-size="14.00">GO:0003682 (11)</text>
</a>
</g>
<!-- b0&#45;&gt;t0 -->
<g id="edge38" class="edge"><title>b0&#45;&gt;t0</title>
<path fill="none" stroke="black" d="M2752.62,-293.787C2744.13,-291.786 2735.3,-289.776 2727,-288 2642.53,-269.937 2620.87,-268.104 2536,-252 2529.46,-250.759 2522.65,-249.463 2515.83,-248.165"/>
<polygon fill="black" stroke="black" points="2516.36,-244.703 2505.88,-246.268 2515.05,-251.579 2516.36,-244.703"/>
</g>
<!-- r0 -->
<g id="node42" class="node"><title>r0</title>
<a xlink:href="0048037" xlink:title="GO:0048037 (12)">
<ellipse fill="#e98576" stroke="#e98576" cx="2625" cy="-234" rx="79.4447" ry="18"/>
<text text-anchor="middle" x="2625" y="-229.8" font-family="Times,serif" font-size="14.00">GO:0048037 (12)</text>
</a>
</g>
<!-- b0&#45;&gt;r0 -->
<g id="edge40" class="edge"><title>b0&#45;&gt;r0</title>
<path fill="none" stroke="black" d="M2763.41,-291.003C2737.01,-280.321 2700.37,-265.497 2671.42,-253.784"/>
<polygon fill="black" stroke="black" points="2672.51,-250.447 2661.93,-249.941 2669.88,-256.936 2672.51,-250.447"/>
</g>
<!-- m1 -->
<g id="node44" class="node"><title>m1</title>
<a xlink:href="0050840" xlink:title="GO:0050840 (1)">
<ellipse fill="#e98576" stroke="#e98576" cx="2798" cy="-234" rx="75.2018" ry="18"/>
<text text-anchor="middle" x="2798" y="-229.8" font-family="Times,serif" font-size="14.00">GO:0050840 (1)</text>
</a>
</g>
<!-- b0&#45;&gt;m1 -->
<g id="edge42" class="edge"><title>b0&#45;&gt;m1</title>
<path fill="none" stroke="black" d="M2798,-287.697C2798,-279.983 2798,-270.712 2798,-262.112"/>
<polygon fill="black" stroke="black" points="2801.5,-262.104 2798,-252.104 2794.5,-262.104 2801.5,-262.104"/>
</g>
<!-- w0 -->
<g id="node49" class="node"><title>w0</title>
<a xlink:href="0008289" xlink:title="GO:0008289 (6)">
<ellipse fill="#e98576" stroke="#e98576" cx="2966" cy="-234" rx="75.2018" ry="18"/>
<text text-anchor="middle" x="2966" y="-229.8" font-family="Times,serif" font-size="14.00">GO:0008289 (6)</text>
</a>
</g>
<!-- b0&#45;&gt;w0 -->
<g id="edge46" class="edge"><title>b0&#45;&gt;w0</title>
<path fill="none" stroke="black" d="M2832,-290.834C2857.56,-280.185 2892.82,-265.49 2920.76,-253.848"/>
<polygon fill="black" stroke="black" points="2922.43,-256.946 2930.31,-249.869 2919.74,-250.485 2922.43,-256.946"/>
</g>
<!-- u0 -->
<g id="node57" class="node"><title>u0</title>
<a xlink:href="0001882" xlink:title="GO:0001882 (10)">
<ellipse fill="#e98576" stroke="#e98576" cx="3139" cy="-234" rx="79.4447" ry="18"/>
<text text-anchor="middle" x="3139" y="-229.8" font-family="Times,serif" font-size="14.00">GO:0001882 (10)</text>
</a>
</g>
<!-- b0&#45;&gt;u0 -->
<g id="edge54" class="edge"><title>b0&#45;&gt;u0</title>
<path fill="none" stroke="black" d="M2843.12,-293.726C2851.38,-291.752 2859.94,-289.767 2868,-288 2887.54,-283.719 2996.79,-262.493 3070.47,-248.236"/>
<polygon fill="black" stroke="black" points="3071.46,-251.609 3080.62,-246.273 3070.13,-244.736 3071.46,-251.609"/>
</g>
<!-- k0 -->
<g id="node59" class="node"><title>k0</title>
<a xlink:href="0008144" xlink:title="GO:0008144 (26)">
<ellipse fill="#e98576" stroke="#e98576" cx="3317" cy="-234" rx="79.4447" ry="18"/>
<text text-anchor="middle" x="3317" y="-229.8" font-family="Times,serif" font-size="14.00">GO:0008144 (26)</text>
</a>
</g>
<!-- b0&#45;&gt;k0 -->
<g id="edge56" class="edge"><title>b0&#45;&gt;k0</title>
<path fill="none" stroke="black" d="M2841.87,-293.364C2850.49,-291.357 2859.49,-289.452 2868,-288 3026.07,-261.014 3068.29,-274.903 3227,-252 3234.33,-250.942 3241.98,-249.706 3249.57,-248.392"/>
<polygon fill="black" stroke="black" points="3250.28,-251.822 3259.51,-246.628 3249.05,-244.93 3250.28,-251.822"/>
</g>
<!-- x0 -->
<g id="node67" class="node"><title>x0</title>
<a xlink:href="0060090" xlink:title="GO:0060090 (5)">
<ellipse fill="#e98576" stroke="#e98576" cx="3490" cy="-234" rx="75.2018" ry="18"/>
<text text-anchor="middle" x="3490" y="-229.8" font-family="Times,serif" font-size="14.00">GO:0060090 (5)</text>
</a>
</g>
<!-- b0&#45;&gt;x0 -->
<g id="edge64" class="edge"><title>b0&#45;&gt;x0</title>
<path fill="none" stroke="black" d="M2841.46,-293.225C2850.19,-291.205 2859.35,-289.331 2868,-288 3104.42,-251.641 3167.88,-283.523 3405,-252 3412.08,-251.059 3419.45,-249.883 3426.77,-248.592"/>
<polygon fill="black" stroke="black" points="3427.47,-252.021 3436.67,-246.77 3426.21,-245.136 3427.47,-252.021"/>
</g>
<!-- n1 -->
<g id="node69" class="node"><title>n1</title>
<a xlink:href="0031406" xlink:title="GO:0031406 (1)">
<ellipse fill="#e98576" stroke="#e98576" cx="3658" cy="-234" rx="75.2018" ry="18"/>
<text text-anchor="middle" x="3658" y="-229.8" font-family="Times,serif" font-size="14.00">GO:0031406 (1)</text>
</a>
</g>
<!-- b0&#45;&gt;n1 -->
<g id="edge66" class="edge"><title>b0&#45;&gt;n1</title>
<path fill="none" stroke="black" d="M2841.07,-293.202C2849.92,-291.157 2859.21,-289.279 2868,-288 3178.91,-242.728 3262.28,-291.269 3574,-252 3580.84,-251.138 3587.96,-250.03 3595.03,-248.795"/>
<polygon fill="black" stroke="black" points="3596.12,-252.154 3605.32,-246.907 3594.86,-245.27 3596.12,-252.154"/>
</g>
<!-- c1 -->
<g id="node76" class="node"><title>c1</title>
<a xlink:href="0046906" xlink:title="GO:0046906 (3)">
<ellipse fill="#e98576" stroke="#e98576" cx="3826" cy="-234" rx="75.2018" ry="18"/>
<text text-anchor="middle" x="3826" y="-229.8" font-family="Times,serif" font-size="14.00">GO:0046906 (3)</text>
</a>
</g>
<!-- b0&#45;&gt;c1 -->
<g id="edge74" class="edge"><title>b0&#45;&gt;c1</title>
<path fill="none" stroke="black" d="M2841.06,-293.135C2849.91,-291.095 2859.21,-289.236 2868,-288 3252.99,-233.863 3356.04,-298.705 3742,-252 3748.85,-251.171 3755.97,-250.085 3763.04,-248.862"/>
<polygon fill="black" stroke="black" points="3764.12,-252.223 3773.33,-246.986 3762.87,-245.337 3764.12,-252.223"/>
</g>
<!-- f0 -->
<g id="node78" class="node"><title>f0</title>
<a xlink:href="0000166" xlink:title="GO:0000166 (44)">
<ellipse fill="#e98576" stroke="#e98576" cx="3999" cy="-234" rx="79.4447" ry="18"/>
<text text-anchor="middle" x="3999" y="-229.8" font-family="Times,serif" font-size="14.00">GO:0000166 (44)</text>
</a>
</g>
<!-- b0&#45;&gt;f0 -->
<g id="edge76" class="edge"><title>b0&#45;&gt;f0</title>
<path fill="none" stroke="black" d="M2841.05,-293.089C2849.9,-291.053 2859.2,-289.207 2868,-288 3327.08,-224.994 3449.5,-303.624 3910,-252 3917.69,-251.137 3925.72,-249.978 3933.66,-248.668"/>
<polygon fill="black" stroke="black" points="3934.4,-252.093 3943.65,-246.939 3933.2,-245.196 3934.4,-252.093"/>
</g>
<!-- p1 -->
<g id="node80" class="node"><title>p1</title>
<a xlink:href="0019840" xlink:title="GO:0019840 (1)">
<ellipse fill="#e98576" stroke="#e98576" cx="4172" cy="-234" rx="75.2018" ry="18"/>
<text text-anchor="middle" x="4172" y="-229.8" font-family="Times,serif" font-size="14.00">GO:0019840 (1)</text>
</a>
</g>
<!-- b0&#45;&gt;p1 -->
<g id="edge78" class="edge"><title>b0&#45;&gt;p1</title>
<path fill="none" stroke="black" d="M2841.05,-293.054C2849.9,-291.021 2859.2,-289.185 2868,-288 3405.16,-215.649 3548.47,-313.365 4087,-252 4094.38,-251.159 4102.08,-250.01 4109.69,-248.703"/>
<polygon fill="black" stroke="black" points="4110.4,-252.131 4119.62,-246.907 4109.16,-245.243 4110.4,-252.131"/>
</g>
<!-- l1 -->
<g id="node84" class="node"><title>l1</title>
<a xlink:href="0051540" xlink:title="GO:0051540 (1)">
<ellipse fill="#e98576" stroke="#e98576" cx="4340" cy="-234" rx="75.2018" ry="18"/>
<text text-anchor="middle" x="4340" y="-229.8" font-family="Times,serif" font-size="14.00">GO:0051540 (1)</text>
</a>
</g>
<!-- b0&#45;&gt;l1 -->
<g id="edge82" class="edge"><title>b0&#45;&gt;l1</title>
<path fill="none" stroke="black" d="M2841.04,-293.03C2849.89,-290.998 2859.2,-289.169 2868,-288 3479.72,-206.726 3642.83,-321.465 4256,-252 4263.12,-251.194 4270.52,-250.09 4277.86,-248.829"/>
<polygon fill="black" stroke="black" points="4278.58,-252.256 4287.8,-247.025 4277.33,-245.368 4278.58,-252.256"/>
</g>
<!-- d1 -->
<g id="node19" class="node"><title>d1</title>
<a xlink:href="0008233" xlink:title="GO:0008233 (2)">
<ellipse fill="#e98576" stroke="#e98576" cx="166" cy="-162" rx="75.2018" ry="18"/>
<text text-anchor="middle" x="166" y="-157.8" font-family="Times,serif" font-size="14.00">GO:0008233 (2)</text>
</a>
</g>
<!-- j0&#45;&gt;d1 -->
<g id="edge16" class="edge"><title>j0&#45;&gt;d1</title>
<path fill="none" stroke="black" d="M228.567,-216.411C217.947,-207.345 204.627,-195.974 193.01,-186.057"/>
<polygon fill="black" stroke="black" points="195.171,-183.301 185.293,-179.47 190.627,-188.625 195.171,-183.301"/>
</g>
<!-- s0 -->
<g id="node22" class="node"><title>s0</title>
<a xlink:href="0004497" xlink:title="GO:0004497 (12)">
<ellipse fill="#e98576" stroke="#e98576" cx="339" cy="-162" rx="79.4447" ry="18"/>
<text text-anchor="middle" x="339" y="-157.8" font-family="Times,serif" font-size="14.00">GO:0004497 (12)</text>
</a>
</g>
<!-- h0&#45;&gt;s0 -->
<g id="edge18" class="edge"><title>h0&#45;&gt;s0</title>
<path fill="none" stroke="black" d="M405.382,-216.411C394.006,-207.257 379.71,-195.755 367.302,-185.772"/>
<polygon fill="black" stroke="black" points="369.455,-183.012 359.47,-179.47 365.067,-188.466 369.455,-183.012"/>
</g>
<!-- k1 -->
<g id="node71" class="node"><title>k1</title>
<a xlink:href="0009055" xlink:title="GO:0009055 (1)">
<ellipse fill="#e98576" stroke="#e98576" cx="512" cy="-162" rx="75.2018" ry="18"/>
<text text-anchor="middle" x="512" y="-157.8" font-family="Times,serif" font-size="14.00">GO:0009055 (1)</text>
</a>
</g>
<!-- h0&#45;&gt;k1 -->
<g id="edge68" class="edge"><title>h0&#45;&gt;k1</title>
<path fill="none" stroke="black" d="M446.381,-216.411C457.519,-207.345 471.489,-195.974 483.673,-186.057"/>
<polygon fill="black" stroke="black" points="486.219,-188.497 491.765,-179.47 481.8,-183.068 486.219,-188.497"/>
</g>
<!-- a1 -->
<g id="node63" class="node"><title>a1</title>
<a xlink:href="0016597" xlink:title="GO:0016597 (3)">
<ellipse fill="#e98576" stroke="#e98576" cx="2110" cy="-162" rx="75.2018" ry="18"/>
<text text-anchor="middle" x="2110" y="-157.8" font-family="Times,serif" font-size="14.00">GO:0016597 (3)</text>
</a>
</g>
<!-- b1&#45;&gt;a1 -->
<g id="edge60" class="edge"><title>b1&#45;&gt;a1</title>
<path fill="none" stroke="black" d="M2110,-215.697C2110,-207.983 2110,-198.712 2110,-190.112"/>
<polygon fill="black" stroke="black" points="2113.5,-190.104 2110,-180.104 2106.5,-190.104 2113.5,-190.104"/>
</g>
<!-- h1 -->
<g id="node51" class="node"><title>h1</title>
<a xlink:href="0016879" xlink:title="GO:0016879">
<ellipse fill="#dddddd" stroke="#dddddd" cx="667" cy="-162" rx="61.1934" ry="18"/>
<text text-anchor="middle" x="667" y="-157.8" font-family="Times,serif" font-size="14.00">GO:0016879</text>
</a>
</g>
<!-- i1&#45;&gt;h1 -->
<g id="edge48" class="edge"><title>i1&#45;&gt;h1</title>
<path fill="none" stroke="black" d="M604.019,-216.765C614.782,-207.576 628.415,-195.938 640.242,-185.842"/>
<polygon fill="black" stroke="black" points="642.751,-188.302 648.085,-179.147 638.206,-182.978 642.751,-188.302"/>
</g>
<!-- n0 -->
<g id="node45" class="node"><title>n0</title>
<a xlink:href="0004871" xlink:title="GO:0004871 (16)">
<ellipse fill="#e98576" stroke="#e98576" cx="4513" cy="-234" rx="79.4447" ry="18"/>
<text text-anchor="middle" x="4513" y="-229.8" font-family="Times,serif" font-size="14.00">GO:0004871 (16)</text>
</a>
</g>
<!-- m0 -->
<g id="node47" class="node"><title>m0</title>
<a xlink:href="0004872" xlink:title="GO:0004872 (21)">
<ellipse fill="#e98576" stroke="#e98576" cx="4513" cy="-162" rx="79.4447" ry="18"/>
<text text-anchor="middle" x="4513" y="-157.8" font-family="Times,serif" font-size="14.00">GO:0004872 (21)</text>
</a>
</g>
<!-- n0&#45;&gt;m0 -->
<g id="edge44" class="edge"><title>n0&#45;&gt;m0</title>
<path fill="none" stroke="black" d="M4513,-215.697C4513,-207.983 4513,-198.712 4513,-190.112"/>
<polygon fill="black" stroke="black" points="4516.5,-190.104 4513,-180.104 4509.5,-190.104 4516.5,-190.104"/>
</g>
<!-- g1 -->
<g id="node52" class="node"><title>g1</title>
<a xlink:href="0016881" xlink:title="GO:0016881">
<ellipse fill="#dddddd" stroke="#dddddd" cx="667" cy="-90" rx="61.1934" ry="18"/>
<text text-anchor="middle" x="667" y="-85.8" font-family="Times,serif" font-size="14.00">GO:0016881</text>
</a>
</g>
<!-- h1&#45;&gt;g1 -->
<g id="edge70" class="edge"><title>h1&#45;&gt;g1</title>
<path fill="none" stroke="black" d="M667,-143.697C667,-135.983 667,-126.712 667,-118.112"/>
<polygon fill="black" stroke="black" points="670.5,-118.104 667,-108.104 663.5,-118.104 670.5,-118.104"/>
</g>
<!-- f1 -->
<g id="node54" class="node"><title>f1</title>
<a xlink:href="0019787" xlink:title="GO:0019787 (2)">
<ellipse fill="#e98576" stroke="#e98576" cx="667" cy="-18" rx="75.2018" ry="18"/>
<text text-anchor="middle" x="667" y="-13.8" font-family="Times,serif" font-size="14.00">GO:0019787 (2)</text>
</a>
</g>
<!-- g1&#45;&gt;f1 -->
<g id="edge50" class="edge"><title>g1&#45;&gt;f1</title>
<path fill="none" stroke="black" d="M667,-71.6966C667,-63.9827 667,-54.7125 667,-46.1124"/>
<polygon fill="black" stroke="black" points="670.5,-46.1043 667,-36.1043 663.5,-46.1044 670.5,-46.1043"/>
</g>
<!-- o0&#45;&gt;n0 -->
<g id="edge62" class="edge"><title>o0&#45;&gt;n0</title>
<path fill="none" stroke="black" d="M4061.6,-298.066C4146.45,-289.04 4296.38,-272.032 4424,-252 4431.05,-250.893 4438.4,-249.645 4445.72,-248.339"/>
<polygon fill="black" stroke="black" points="4446.43,-251.766 4455.65,-246.532 4445.18,-244.88 4446.43,-251.766"/>
</g>
</g>
</svg>
