<?xml version="1.0" encoding="UTF-8" standalone="no"?>
<!DOCTYPE svg PUBLIC "-//W3C//DTD SVG 1.1//EN"
 "http://www.w3.org/Graphics/SVG/1.1/DTD/svg11.dtd">
<!-- Generated by graphviz version 2.28.0 (20110622.2320)
 -->
<!-- Title: G Pages: 1 -->
<svg width="3362pt" height="260pt"
 viewBox="0.00 0.00 3362.00 260.00" xmlns="http://www.w3.org/2000/svg" xmlns:xlink="http://www.w3.org/1999/xlink">
<g id="graph1" class="graph" transform="scale(1 1) rotate(0) translate(4 256)">
<title>G</title>
<polygon fill="white" stroke="white" points="-4,5 -4,-256 3359,-256 3359,5 -4,5"/>
<!-- e0 -->
<g id="node1" class="node"><title>e0</title>
<a xlink:href="0005488" xlink:title="GO:0005488">
<ellipse fill="#dddddd" stroke="#dddddd" cx="990" cy="-162" rx="61.1934" ry="18"/>
<text text-anchor="middle" x="990" y="-157.8" font-family="Times,serif" font-size="14.00">GO:0005488</text>
</a>
</g>
<!-- x0 -->
<g id="node3" class="node"><title>x0</title>
<a xlink:href="0008289" xlink:title="GO:0008289 (1)">
<ellipse fill="#e98576" stroke="#e98576" cx="75" cy="-90" rx="75.2018" ry="18"/>
<text text-anchor="middle" x="75" y="-85.8" font-family="Times,serif" font-size="14.00">GO:0008289 (1)</text>
</a>
</g>
<!-- e0&#45;&gt;x0 -->
<g id="edge2" class="edge"><title>e0&#45;&gt;x0</title>
<path fill="none" stroke="black" d="M928.991,-159.946C791.168,-156.944 445.445,-145.941 159,-108 152.261,-107.107 145.252,-105.992 138.284,-104.762"/>
<polygon fill="black" stroke="black" points="138.61,-101.263 128.14,-102.889 137.339,-108.146 138.61,-101.263"/>
</g>
<!-- t0 -->
<g id="node12" class="node"><title>t0</title>
<a xlink:href="0005515" xlink:title="GO:0005515 (2)">
<ellipse fill="#e98576" stroke="#e98576" cx="243" cy="-90" rx="75.2018" ry="18"/>
<text text-anchor="middle" x="243" y="-85.8" font-family="Times,serif" font-size="14.00">GO:0005515 (2)</text>
</a>
</g>
<!-- e0&#45;&gt;t0 -->
<g id="edge10" class="edge"><title>e0&#45;&gt;t0</title>
<path fill="none" stroke="black" d="M929.854,-158.61C813.138,-153.438 547.974,-139.078 327,-108 320.268,-107.053 313.264,-105.903 306.299,-104.652"/>
<polygon fill="black" stroke="black" points="306.631,-101.154 296.158,-102.759 305.346,-108.035 306.631,-101.154"/>
</g>
<!-- i0 -->
<g id="node14" class="node"><title>i0</title>
<a xlink:href="0001882" xlink:title="GO:0001882 (11)">
<ellipse fill="#e98576" stroke="#e98576" cx="416" cy="-90" rx="79.4447" ry="18"/>
<text text-anchor="middle" x="416" y="-85.8" font-family="Times,serif" font-size="14.00">GO:0001882 (11)</text>
</a>
</g>
<!-- e0&#45;&gt;i0 -->
<g id="edge12" class="edge"><title>e0&#45;&gt;i0</title>
<path fill="none" stroke="black" d="M931.948,-156.167C840.758,-148.235 658.503,-131.01 505,-108 497.941,-106.942 490.588,-105.725 483.268,-104.438"/>
<polygon fill="black" stroke="black" points="483.798,-100.978 473.336,-102.649 482.557,-107.867 483.798,-100.978"/>
</g>
<!-- d1 -->
<g id="node16" class="node"><title>d1</title>
<a xlink:href="0019842" xlink:title="GO:0019842 (1)">
<ellipse fill="#e98576" stroke="#e98576" cx="589" cy="-90" rx="75.2018" ry="18"/>
<text text-anchor="middle" x="589" y="-85.8" font-family="Times,serif" font-size="14.00">GO:0019842 (1)</text>
</a>
</g>
<!-- e0&#45;&gt;d1 -->
<g id="edge14" class="edge"><title>e0&#45;&gt;d1</title>
<path fill="none" stroke="black" d="M937.354,-152.686C874.56,-142.65 766.461,-124.996 674,-108 667.686,-106.839 661.117,-105.594 654.552,-104.323"/>
<polygon fill="black" stroke="black" points="654.763,-100.798 644.277,-102.315 653.42,-107.668 654.763,-100.798"/>
</g>
<!-- c1 -->
<g id="node17" class="node"><title>c1</title>
<a xlink:href="0043176" xlink:title="GO:0043176">
<ellipse fill="#dddddd" stroke="#dddddd" cx="744" cy="-90" rx="61.1934" ry="18"/>
<text text-anchor="middle" x="744" y="-85.8" font-family="Times,serif" font-size="14.00">GO:0043176</text>
</a>
</g>
<!-- e0&#45;&gt;c1 -->
<g id="edge32" class="edge"><title>e0&#45;&gt;c1</title>
<path fill="none" stroke="black" d="M947.711,-148.967C905.821,-137.047 841.569,-118.764 796.451,-105.925"/>
<polygon fill="black" stroke="black" points="797.136,-102.481 786.56,-103.111 795.221,-109.214 797.136,-102.481"/>
</g>
<!-- d0 -->
<g id="node35" class="node"><title>d0</title>
<a xlink:href="0043167" xlink:title="GO:0043167 (24)">
<ellipse fill="#e98576" stroke="#e98576" cx="903" cy="-90" rx="79.4447" ry="18"/>
<text text-anchor="middle" x="903" y="-85.8" font-family="Times,serif" font-size="14.00">GO:0043167 (24)</text>
</a>
</g>
<!-- e0&#45;&gt;d0 -->
<g id="edge30" class="edge"><title>e0&#45;&gt;d0</title>
<path fill="none" stroke="black" d="M969.822,-144.765C958.457,-135.621 944.077,-124.05 931.57,-113.988"/>
<polygon fill="black" stroke="black" points="933.658,-111.175 923.673,-107.633 929.27,-116.629 933.658,-111.175"/>
</g>
<!-- o0 -->
<g id="node47" class="node"><title>o0</title>
<a xlink:href="0003676" xlink:title="GO:0003676 (7)">
<ellipse fill="#e98576" stroke="#e98576" cx="1076" cy="-90" rx="75.2018" ry="18"/>
<text text-anchor="middle" x="1076" y="-85.8" font-family="Times,serif" font-size="14.00">GO:0003676 (7)</text>
</a>
</g>
<!-- e0&#45;&gt;o0 -->
<g id="edge44" class="edge"><title>e0&#45;&gt;o0</title>
<path fill="none" stroke="black" d="M1009.95,-144.765C1021.26,-135.554 1035.6,-123.882 1048.03,-113.769"/>
<polygon fill="black" stroke="black" points="1050.32,-116.417 1055.86,-107.39 1045.9,-110.988 1050.32,-116.417"/>
</g>
<!-- e1 -->
<g id="node49" class="node"><title>e1</title>
<a xlink:href="0046906" xlink:title="GO:0046906 (1)">
<ellipse fill="#e98576" stroke="#e98576" cx="1244" cy="-90" rx="75.2018" ry="18"/>
<text text-anchor="middle" x="1244" y="-85.8" font-family="Times,serif" font-size="14.00">GO:0046906 (1)</text>
</a>
</g>
<!-- e0&#45;&gt;e1 -->
<g id="edge46" class="edge"><title>e0&#45;&gt;e1</title>
<path fill="none" stroke="black" d="M1033.09,-149.125C1075.5,-137.436 1140.52,-119.517 1187.16,-106.666"/>
<polygon fill="black" stroke="black" points="1188.1,-110.035 1196.81,-104.004 1186.24,-103.287 1188.1,-110.035"/>
</g>
<!-- g0 -->
<g id="node52" class="node"><title>g0</title>
<a xlink:href="0000166" xlink:title="GO:0000166 (18)">
<ellipse fill="#e98576" stroke="#e98576" cx="1417" cy="-90" rx="79.4447" ry="18"/>
<text text-anchor="middle" x="1417" y="-85.8" font-family="Times,serif" font-size="14.00">GO:0000166 (18)</text>
</a>
</g>
<!-- e0&#45;&gt;g0 -->
<g id="edge50" class="edge"><title>e0&#45;&gt;g0</title>
<path fill="none" stroke="black" d="M1043.65,-153.149C1110.4,-143.253 1227.78,-125.423 1328,-108 1334.77,-106.823 1341.82,-105.553 1348.85,-104.256"/>
<polygon fill="black" stroke="black" points="1349.93,-107.616 1359.12,-102.344 1348.65,-100.734 1349.93,-107.616"/>
</g>
<!-- z0 -->
<g id="node58" class="node"><title>z0</title>
<a xlink:href="0051540" xlink:title="GO:0051540 (1)">
<ellipse fill="#e98576" stroke="#e98576" cx="1590" cy="-90" rx="75.2018" ry="18"/>
<text text-anchor="middle" x="1590" y="-85.8" font-family="Times,serif" font-size="14.00">GO:0051540 (1)</text>
</a>
</g>
<!-- e0&#45;&gt;z0 -->
<g id="edge56" class="edge"><title>e0&#45;&gt;z0</title>
<path fill="none" stroke="black" d="M1048.93,-156.764C1144.85,-149.459 1340.58,-132.844 1505,-108 1511.8,-106.973 1518.88,-105.771 1525.92,-104.489"/>
<polygon fill="black" stroke="black" points="1526.99,-107.849 1536.18,-102.565 1525.7,-100.969 1526.99,-107.849"/>
</g>
<!-- q0 -->
<g id="node61" class="node"><title>q0</title>
<a xlink:href="0048037" xlink:title="GO:0048037 (6)">
<ellipse fill="#e98576" stroke="#e98576" cx="1758" cy="-90" rx="75.2018" ry="18"/>
<text text-anchor="middle" x="1758" y="-85.8" font-family="Times,serif" font-size="14.00">GO:0048037 (6)</text>
</a>
</g>
<!-- e0&#45;&gt;q0 -->
<g id="edge60" class="edge"><title>e0&#45;&gt;q0</title>
<path fill="none" stroke="black" d="M1050.66,-158.793C1170.34,-153.889 1445.15,-139.902 1674,-108 1680.73,-107.061 1687.74,-105.916 1694.7,-104.669"/>
<polygon fill="black" stroke="black" points="1695.66,-108.052 1704.84,-102.779 1694.37,-101.17 1695.66,-108.052"/>
</g>
<!-- b0 -->
<g id="node4" class="node"><title>b0</title>
<a xlink:href="0003824" xlink:title="GO:0003824 (14)">
<ellipse fill="#e98576" stroke="#e98576" cx="2450" cy="-162" rx="79.4447" ry="18"/>
<text text-anchor="middle" x="2450" y="-157.8" font-family="Times,serif" font-size="14.00">GO:0003824 (14)</text>
</a>
</g>
<!-- w0 -->
<g id="node6" class="node"><title>w0</title>
<a xlink:href="0016853" xlink:title="GO:0016853 (1)">
<ellipse fill="#e98576" stroke="#e98576" cx="1926" cy="-90" rx="75.2018" ry="18"/>
<text text-anchor="middle" x="1926" y="-85.8" font-family="Times,serif" font-size="14.00">GO:0016853 (1)</text>
</a>
</g>
<!-- b0&#45;&gt;w0 -->
<g id="edge4" class="edge"><title>b0&#45;&gt;w0</title>
<path fill="none" stroke="black" d="M2378.11,-154.12C2290.79,-145.354 2139.13,-128.81 2010,-108 2003.49,-106.95 1996.71,-105.754 1989.95,-104.494"/>
<polygon fill="black" stroke="black" points="1990.59,-101.052 1980.11,-102.611 1989.27,-107.927 1990.59,-101.052"/>
</g>
<!-- f0 -->
<g id="node26" class="node"><title>f0</title>
<a xlink:href="0016787" xlink:title="GO:0016787 (24)">
<ellipse fill="#e98576" stroke="#e98576" cx="2099" cy="-90" rx="79.4447" ry="18"/>
<text text-anchor="middle" x="2099" y="-85.8" font-family="Times,serif" font-size="14.00">GO:0016787 (24)</text>
</a>
</g>
<!-- b0&#45;&gt;f0 -->
<g id="edge36" class="edge"><title>b0&#45;&gt;f0</title>
<path fill="none" stroke="black" d="M2392.43,-149.519C2330.46,-137.16 2231.97,-117.519 2166.42,-104.446"/>
<polygon fill="black" stroke="black" points="2167.09,-101.01 2156.6,-102.487 2165.72,-107.875 2167.09,-101.01"/>
</g>
<!-- h0 -->
<g id="node29" class="node"><title>h0</title>
<a xlink:href="0016491" xlink:title="GO:0016491 (15)">
<ellipse fill="#e98576" stroke="#e98576" cx="2277" cy="-90" rx="79.4447" ry="18"/>
<text text-anchor="middle" x="2277" y="-85.8" font-family="Times,serif" font-size="14.00">GO:0016491 (15)</text>
</a>
</g>
<!-- b0&#45;&gt;h0 -->
<g id="edge48" class="edge"><title>b0&#45;&gt;h0</title>
<path fill="none" stroke="black" d="M2412.89,-145.983C2386.78,-135.418 2351.64,-121.2 2323.63,-109.869"/>
<polygon fill="black" stroke="black" points="2324.63,-106.498 2314.05,-105.992 2322.01,-112.987 2324.63,-106.498"/>
</g>
<!-- y0 -->
<g id="node38" class="node"><title>y0</title>
<a xlink:href="0009975" xlink:title="GO:0009975 (1)">
<ellipse fill="#e98576" stroke="#e98576" cx="2450" cy="-90" rx="75.2018" ry="18"/>
<text text-anchor="middle" x="2450" y="-85.8" font-family="Times,serif" font-size="14.00">GO:0009975 (1)</text>
</a>
</g>
<!-- b0&#45;&gt;y0 -->
<g id="edge34" class="edge"><title>b0&#45;&gt;y0</title>
<path fill="none" stroke="black" d="M2450,-143.697C2450,-135.983 2450,-126.712 2450,-118.112"/>
<polygon fill="black" stroke="black" points="2453.5,-118.104 2450,-108.104 2446.5,-118.104 2453.5,-118.104"/>
</g>
<!-- a0 -->
<g id="node43" class="node"><title>a0</title>
<a xlink:href="0016740" xlink:title="GO:0016740 (26)">
<ellipse fill="#e98576" stroke="#e98576" cx="2623" cy="-90" rx="79.4447" ry="18"/>
<text text-anchor="middle" x="2623" y="-85.8" font-family="Times,serif" font-size="14.00">GO:0016740 (26)</text>
</a>
</g>
<!-- b0&#45;&gt;a0 -->
<g id="edge40" class="edge"><title>b0&#45;&gt;a0</title>
<path fill="none" stroke="black" d="M2487.11,-145.983C2513.22,-135.418 2548.36,-121.2 2576.37,-109.869"/>
<polygon fill="black" stroke="black" points="2577.99,-112.987 2585.95,-105.992 2575.37,-106.498 2577.99,-112.987"/>
</g>
<!-- n0 -->
<g id="node45" class="node"><title>n0</title>
<a xlink:href="0016874" xlink:title="GO:0016874 (8)">
<ellipse fill="#e98576" stroke="#e98576" cx="2796" cy="-90" rx="75.2018" ry="18"/>
<text text-anchor="middle" x="2796" y="-85.8" font-family="Times,serif" font-size="14.00">GO:0016874 (8)</text>
</a>
</g>
<!-- b0&#45;&gt;n0 -->
<g id="edge42" class="edge"><title>b0&#45;&gt;n0</title>
<path fill="none" stroke="black" d="M2507.13,-149.441C2568.53,-137.019 2665.97,-117.307 2730.44,-104.263"/>
<polygon fill="black" stroke="black" points="2731.39,-107.642 2740.5,-102.229 2730,-100.781 2731.39,-107.642"/>
</g>
<!-- p0 -->
<g id="node56" class="node"><title>p0</title>
<a xlink:href="0016829" xlink:title="GO:0016829 (6)">
<ellipse fill="#e98576" stroke="#e98576" cx="2964" cy="-90" rx="75.2018" ry="18"/>
<text text-anchor="middle" x="2964" y="-85.8" font-family="Times,serif" font-size="14.00">GO:0016829 (6)</text>
</a>
</g>
<!-- b0&#45;&gt;p0 -->
<g id="edge54" class="edge"><title>b0&#45;&gt;p0</title>
<path fill="none" stroke="black" d="M2506.85,-149.407C2517.51,-147.443 2528.57,-145.543 2539,-144 2689.76,-121.684 2729.37,-131.141 2880,-108 2886.62,-106.983 2893.51,-105.798 2900.37,-104.536"/>
<polygon fill="black" stroke="black" points="2901.19,-107.943 2910.36,-102.641 2899.88,-101.065 2901.19,-107.943"/>
</g>
<!-- c0 -->
<g id="node7" class="node"><title>c0</title>
<a xlink:href="0003674" xlink:title="GO:0003674 (5)">
<ellipse fill="#e98576" stroke="#e98576" cx="2791" cy="-234" rx="75.2018" ry="18"/>
<text text-anchor="middle" x="2791" y="-229.8" font-family="Times,serif" font-size="14.00">GO:0003674 (5)</text>
</a>
</g>
<!-- c0&#45;&gt;e0 -->
<g id="edge20" class="edge"><title>c0&#45;&gt;e0</title>
<path fill="none" stroke="black" d="M2717.61,-230.147C2425.53,-218.795 1347.75,-176.905 1060.65,-165.746"/>
<polygon fill="black" stroke="black" points="1060.5,-162.238 1050.37,-165.347 1060.23,-169.232 1060.5,-162.238"/>
</g>
<!-- c0&#45;&gt;b0 -->
<g id="edge8" class="edge"><title>c0&#45;&gt;b0</title>
<path fill="none" stroke="black" d="M2735.83,-221.675C2676.07,-209.408 2580.72,-189.835 2516.78,-176.708"/>
<polygon fill="black" stroke="black" points="2517.29,-173.241 2506.79,-174.658 2515.88,-180.098 2517.29,-173.241"/>
</g>
<!-- v0 -->
<g id="node9" class="node"><title>v0</title>
<a xlink:href="0030234" xlink:title="GO:0030234 (1)">
<ellipse fill="#e98576" stroke="#e98576" cx="2623" cy="-162" rx="75.2018" ry="18"/>
<text text-anchor="middle" x="2623" y="-157.8" font-family="Times,serif" font-size="14.00">GO:0030234 (1)</text>
</a>
</g>
<!-- c0&#45;&gt;v0 -->
<g id="edge6" class="edge"><title>c0&#45;&gt;v0</title>
<path fill="none" stroke="black" d="M2755.37,-218.155C2729.95,-207.564 2695.57,-193.239 2668.22,-181.842"/>
<polygon fill="black" stroke="black" points="2669.44,-178.56 2658.87,-177.944 2666.75,-185.021 2669.44,-178.56"/>
</g>
<!-- u0 -->
<g id="node21" class="node"><title>u0</title>
<a xlink:href="0003774" xlink:title="GO:0003774 (2)">
<ellipse fill="#e98576" stroke="#e98576" cx="2791" cy="-162" rx="75.2018" ry="18"/>
<text text-anchor="middle" x="2791" y="-157.8" font-family="Times,serif" font-size="14.00">GO:0003774 (2)</text>
</a>
</g>
<!-- c0&#45;&gt;u0 -->
<g id="edge18" class="edge"><title>c0&#45;&gt;u0</title>
<path fill="none" stroke="black" d="M2791,-215.697C2791,-207.983 2791,-198.712 2791,-190.112"/>
<polygon fill="black" stroke="black" points="2794.5,-190.104 2791,-180.104 2787.5,-190.104 2794.5,-190.104"/>
</g>
<!-- m0 -->
<g id="node23" class="node"><title>m0</title>
<a xlink:href="0060089" xlink:title="GO:0060089">
<ellipse fill="#dddddd" stroke="#dddddd" cx="2946" cy="-162" rx="61.1934" ry="18"/>
<text text-anchor="middle" x="2946" y="-157.8" font-family="Times,serif" font-size="14.00">GO:0060089</text>
</a>
</g>
<!-- c0&#45;&gt;m0 -->
<g id="edge58" class="edge"><title>c0&#45;&gt;m0</title>
<path fill="none" stroke="black" d="M2824.63,-217.811C2848.16,-207.186 2879.73,-192.929 2904.77,-181.618"/>
<polygon fill="black" stroke="black" points="2906.35,-184.747 2914.02,-177.442 2903.47,-178.368 2906.35,-184.747"/>
</g>
<!-- k0 -->
<g id="node33" class="node"><title>k0</title>
<a xlink:href="0005215" xlink:title="GO:0005215 (10)">
<ellipse fill="#e98576" stroke="#e98576" cx="3105" cy="-162" rx="79.4447" ry="18"/>
<text text-anchor="middle" x="3105" y="-157.8" font-family="Times,serif" font-size="14.00">GO:0005215 (10)</text>
</a>
</g>
<!-- c0&#45;&gt;k0 -->
<g id="edge28" class="edge"><title>c0&#45;&gt;k0</title>
<path fill="none" stroke="black" d="M2843.91,-221.205C2898.19,-209.105 2982.67,-190.271 3040.75,-177.323"/>
<polygon fill="black" stroke="black" points="3041.55,-180.73 3050.55,-175.138 3040.03,-173.898 3041.55,-180.73"/>
</g>
<!-- r0 -->
<g id="node54" class="node"><title>r0</title>
<a xlink:href="0005198" xlink:title="GO:0005198 (4)">
<ellipse fill="#e98576" stroke="#e98576" cx="3278" cy="-162" rx="75.2018" ry="18"/>
<text text-anchor="middle" x="3278" y="-157.8" font-family="Times,serif" font-size="14.00">GO:0005198 (4)</text>
</a>
</g>
<!-- c0&#45;&gt;r0 -->
<g id="edge52" class="edge"><title>c0&#45;&gt;r0</title>
<path fill="none" stroke="black" d="M2857.71,-225.577C2937.63,-216.369 3075.46,-199.48 3193,-180 3199.58,-178.909 3206.44,-177.686 3213.27,-176.409"/>
<polygon fill="black" stroke="black" points="3214.06,-179.821 3223.23,-174.509 3212.75,-172.945 3214.06,-179.821"/>
</g>
<!-- b1 -->
<g id="node19" class="node"><title>b1</title>
<a xlink:href="0016597" xlink:title="GO:0016597 (1)">
<ellipse fill="#e98576" stroke="#e98576" cx="744" cy="-18" rx="75.2018" ry="18"/>
<text text-anchor="middle" x="744" y="-13.8" font-family="Times,serif" font-size="14.00">GO:0016597 (1)</text>
</a>
</g>
<!-- c1&#45;&gt;b1 -->
<g id="edge16" class="edge"><title>c1&#45;&gt;b1</title>
<path fill="none" stroke="black" d="M744,-71.6966C744,-63.9827 744,-54.7125 744,-46.1124"/>
<polygon fill="black" stroke="black" points="747.5,-46.1043 744,-36.1043 740.5,-46.1044 747.5,-46.1043"/>
</g>
<!-- l0 -->
<g id="node25" class="node"><title>l0</title>
<a xlink:href="0004871" xlink:title="GO:0004871 (10)">
<ellipse fill="#e98576" stroke="#e98576" cx="3137" cy="-90" rx="79.4447" ry="18"/>
<text text-anchor="middle" x="3137" y="-85.8" font-family="Times,serif" font-size="14.00">GO:0004871 (10)</text>
</a>
</g>
<!-- m0&#45;&gt;l0 -->
<g id="edge22" class="edge"><title>m0&#45;&gt;l0</title>
<path fill="none" stroke="black" d="M2982.83,-147.503C3012.62,-136.583 3054.86,-121.103 3087.59,-109.107"/>
<polygon fill="black" stroke="black" points="3088.8,-112.391 3096.99,-105.664 3086.4,-105.819 3088.8,-112.391"/>
</g>
<!-- j0 -->
<g id="node28" class="node"><title>j0</title>
<a xlink:href="0008233" xlink:title="GO:0008233 (11)">
<ellipse fill="#e98576" stroke="#e98576" cx="2099" cy="-18" rx="79.4447" ry="18"/>
<text text-anchor="middle" x="2099" y="-13.8" font-family="Times,serif" font-size="14.00">GO:0008233 (11)</text>
</a>
</g>
<!-- f0&#45;&gt;j0 -->
<g id="edge24" class="edge"><title>f0&#45;&gt;j0</title>
<path fill="none" stroke="black" d="M2099,-71.6966C2099,-63.9827 2099,-54.7125 2099,-46.1124"/>
<polygon fill="black" stroke="black" points="2102.5,-46.1043 2099,-36.1043 2095.5,-46.1044 2102.5,-46.1043"/>
</g>
<!-- a1 -->
<g id="node31" class="node"><title>a1</title>
<a xlink:href="0004497" xlink:title="GO:0004497 (1)">
<ellipse fill="#e98576" stroke="#e98576" cx="2274" cy="-18" rx="75.2018" ry="18"/>
<text text-anchor="middle" x="2274" y="-13.8" font-family="Times,serif" font-size="14.00">GO:0004497 (1)</text>
</a>
</g>
<!-- h0&#45;&gt;a1 -->
<g id="edge26" class="edge"><title>h0&#45;&gt;a1</title>
<path fill="none" stroke="black" d="M2276.26,-71.6966C2275.93,-63.9827 2275.53,-54.7125 2275.16,-46.1124"/>
<polygon fill="black" stroke="black" points="2278.66,-45.9453 2274.73,-36.1043 2271.66,-46.2451 2278.66,-45.9453"/>
</g>
<!-- s0 -->
<g id="node41" class="node"><title>s0</title>
<a xlink:href="0009055" xlink:title="GO:0009055 (2)">
<ellipse fill="#e98576" stroke="#e98576" cx="2442" cy="-18" rx="75.2018" ry="18"/>
<text text-anchor="middle" x="2442" y="-13.8" font-family="Times,serif" font-size="14.00">GO:0009055 (2)</text>
</a>
</g>
<!-- h0&#45;&gt;s0 -->
<g id="edge38" class="edge"><title>h0&#45;&gt;s0</title>
<path fill="none" stroke="black" d="M2312.8,-73.811C2337.62,-63.2823 2370.84,-49.1871 2397.39,-37.9271"/>
<polygon fill="black" stroke="black" points="2399,-41.0464 2406.83,-33.9188 2396.26,-34.6024 2399,-41.0464"/>
</g>
</g>
</svg>
