<?xml version="1.0" encoding="UTF-8" standalone="no"?>
<!DOCTYPE svg PUBLIC "-//W3C//DTD SVG 1.1//EN"
 "http://www.w3.org/Graphics/SVG/1.1/DTD/svg11.dtd">
<!-- Generated by graphviz version 2.28.0 (20110622.2320)
 -->
<!-- Title: G Pages: 1 -->
<svg width="3130pt" height="476pt"
 viewBox="0.00 0.00 3130.00 476.00" xmlns="http://www.w3.org/2000/svg" xmlns:xlink="http://www.w3.org/1999/xlink">
<g id="graph1" class="graph" transform="scale(1 1) rotate(0) translate(4 472)">
<title>G</title>
<polygon fill="white" stroke="white" points="-4,5 -4,-472 3127,-472 3127,5 -4,5"/>
<!-- f0 -->
<g id="node1" class="node"><title>f0</title>
<a xlink:href="0044237" xlink:title="GO:0044237">
<ellipse fill="#dddddd" stroke="#dddddd" cx="1601" cy="-306" rx="61.1934" ry="18"/>
<text text-anchor="middle" x="1601" y="-301.8" font-family="Times,serif" font-size="14.00">GO:0044237</text>
</a>
</g>
<!-- y1 -->
<g id="node3" class="node"><title>y1</title>
<a xlink:href="0006790" xlink:title="GO:0006790 (1)">
<ellipse fill="#e98576" stroke="#e98576" cx="1924" cy="-234" rx="75.2018" ry="18"/>
<text text-anchor="middle" x="1924" y="-229.8" font-family="Times,serif" font-size="14.00">GO:0006790 (1)</text>
</a>
</g>
<!-- f0&#45;&gt;y1 -->
<g id="edge2" class="edge"><title>f0&#45;&gt;y1</title>
<path fill="none" stroke="black" d="M1646.79,-293.84C1655.17,-291.854 1663.84,-289.835 1672,-288 1735.18,-273.796 1807.54,-258.698 1858.46,-248.265"/>
<polygon fill="black" stroke="black" points="1859.26,-251.675 1868.35,-246.243 1857.85,-244.817 1859.26,-251.675"/>
</g>
<!-- k1 -->
<g id="node5" class="node"><title>k1</title>
<a xlink:href="0006082" xlink:title="GO:0006082 (2)">
<ellipse fill="#e98576" stroke="#e98576" cx="2260" cy="-234" rx="75.2018" ry="18"/>
<text text-anchor="middle" x="2260" y="-229.8" font-family="Times,serif" font-size="14.00">GO:0006082 (2)</text>
</a>
</g>
<!-- f0&#45;&gt;k1 -->
<g id="edge4" class="edge"><title>f0&#45;&gt;k1</title>
<path fill="none" stroke="black" d="M1644.71,-293.349C1653.68,-291.292 1663.11,-289.373 1672,-288 1893.94,-253.739 1953.49,-282.335 2176,-252 2182.74,-251.082 2189.74,-249.95 2196.71,-248.71"/>
<polygon fill="black" stroke="black" points="2197.66,-252.093 2206.85,-246.828 2196.38,-245.211 2197.66,-252.093"/>
</g>
<!-- e0 -->
<g id="node6" class="node"><title>e0</title>
<a xlink:href="0006139" xlink:title="GO:0006139">
<ellipse fill="#dddddd" stroke="#dddddd" cx="653" cy="-234" rx="61.1934" ry="18"/>
<text text-anchor="middle" x="653" y="-229.8" font-family="Times,serif" font-size="14.00">GO:0006139</text>
</a>
</g>
<!-- f0&#45;&gt;e0 -->
<g id="edge126" class="edge"><title>f0&#45;&gt;e0</title>
<path fill="none" stroke="black" d="M1544.22,-298.976C1509.05,-295.402 1462.94,-290.998 1422,-288 1112.2,-265.31 1031.45,-296.353 724,-252 718.294,-251.177 712.374,-250.11 706.497,-248.911"/>
<polygon fill="black" stroke="black" points="707.205,-245.483 696.691,-246.789 705.725,-252.325 707.205,-245.483"/>
</g>
<!-- i1 -->
<g id="node11" class="node"><title>i1</title>
<a xlink:href="0006519" xlink:title="GO:0006519">
<ellipse fill="#dddddd" stroke="#dddddd" cx="1245" cy="-234" rx="61.1934" ry="18"/>
<text text-anchor="middle" x="1245" y="-229.8" font-family="Times,serif" font-size="14.00">GO:0006519</text>
</a>
</g>
<!-- f0&#45;&gt;i1 -->
<g id="edge46" class="edge"><title>f0&#45;&gt;i1</title>
<path fill="none" stroke="black" d="M1551.5,-295.267C1486.76,-282.538 1373.48,-260.262 1304.25,-246.65"/>
<polygon fill="black" stroke="black" points="1304.85,-243.202 1294.37,-244.707 1303.5,-250.07 1304.85,-243.202"/>
</g>
<!-- y0 -->
<g id="node14" class="node"><title>y0</title>
<a xlink:href="0009308" xlink:title="GO:0009308 (3)">
<ellipse fill="#e98576" stroke="#e98576" cx="2428" cy="-234" rx="75.2018" ry="18"/>
<text text-anchor="middle" x="2428" y="-229.8" font-family="Times,serif" font-size="14.00">GO:0009308 (3)</text>
</a>
</g>
<!-- f0&#45;&gt;y0 -->
<g id="edge98" class="edge"><title>f0&#45;&gt;y0</title>
<path fill="none" stroke="black" d="M1644.69,-293.225C1653.67,-291.178 1663.09,-289.294 1672,-288 1967.99,-245 2047.3,-289.765 2344,-252 2350.84,-251.129 2357.96,-250.016 2365.03,-248.777"/>
<polygon fill="black" stroke="black" points="2366.12,-252.136 2375.32,-246.886 2364.85,-245.252 2366.12,-252.136"/>
</g>
<!-- u0 -->
<g id="node36" class="node"><title>u0</title>
<a xlink:href="0044249" xlink:title="GO:0044249">
<ellipse fill="#dddddd" stroke="#dddddd" cx="1601" cy="-234" rx="61.1934" ry="18"/>
<text text-anchor="middle" x="1601" y="-229.8" font-family="Times,serif" font-size="14.00">GO:0044249</text>
</a>
</g>
<!-- f0&#45;&gt;u0 -->
<g id="edge32" class="edge"><title>f0&#45;&gt;u0</title>
<path fill="none" stroke="black" d="M1601,-287.697C1601,-279.983 1601,-270.712 1601,-262.112"/>
<polygon fill="black" stroke="black" points="1604.5,-262.104 1601,-252.104 1597.5,-262.104 1604.5,-262.104"/>
</g>
<!-- x0 -->
<g id="node47" class="node"><title>x0</title>
<a xlink:href="0044260" xlink:title="GO:0044260">
<ellipse fill="#dddddd" stroke="#dddddd" cx="1423" cy="-234" rx="61.1934" ry="18"/>
<text text-anchor="middle" x="1423" y="-229.8" font-family="Times,serif" font-size="14.00">GO:0044260</text>
</a>
</g>
<!-- f0&#45;&gt;x0 -->
<g id="edge44" class="edge"><title>f0&#45;&gt;x0</title>
<path fill="none" stroke="black" d="M1565.83,-291.17C1537.67,-280.097 1498,-264.494 1467.61,-252.543"/>
<polygon fill="black" stroke="black" points="1468.68,-249.204 1458.09,-248.801 1466.12,-255.718 1468.68,-249.204"/>
</g>
<!-- q1 -->
<g id="node66" class="node"><title>q1</title>
<a xlink:href="0051186" xlink:title="GO:0051186 (1)">
<ellipse fill="#e98576" stroke="#e98576" cx="2092" cy="-234" rx="75.2018" ry="18"/>
<text text-anchor="middle" x="2092" y="-229.8" font-family="Times,serif" font-size="14.00">GO:0051186 (1)</text>
</a>
</g>
<!-- f0&#45;&gt;q1 -->
<g id="edge62" class="edge"><title>f0&#45;&gt;q1</title>
<path fill="none" stroke="black" d="M1645.13,-293.507C1653.99,-291.463 1663.26,-289.509 1672,-288 1820,-262.461 1859.57,-274.92 2008,-252 2014.62,-250.978 2021.51,-249.789 2028.37,-248.525"/>
<polygon fill="black" stroke="black" points="2029.19,-251.932 2038.36,-246.628 2027.88,-245.055 2029.19,-251.932"/>
</g>
<!-- p1 -->
<g id="node68" class="node"><title>p1</title>
<a xlink:href="0006793" xlink:title="GO:0006793 (1)">
<ellipse fill="#e98576" stroke="#e98576" cx="1756" cy="-234" rx="75.2018" ry="18"/>
<text text-anchor="middle" x="1756" y="-229.8" font-family="Times,serif" font-size="14.00">GO:0006793 (1)</text>
</a>
</g>
<!-- f0&#45;&gt;p1 -->
<g id="edge64" class="edge"><title>f0&#45;&gt;p1</title>
<path fill="none" stroke="black" d="M1633.12,-290.496C1656.23,-280.056 1687.67,-265.86 1712.96,-254.439"/>
<polygon fill="black" stroke="black" points="1714.64,-257.518 1722.32,-250.212 1711.76,-251.138 1714.64,-257.518"/>
</g>
<!-- z1 -->
<g id="node81" class="node"><title>z1</title>
<a xlink:href="0044255" xlink:title="GO:0044255 (1)">
<ellipse fill="#e98576" stroke="#e98576" cx="1390" cy="-162" rx="75.2018" ry="18"/>
<text text-anchor="middle" x="1390" y="-157.8" font-family="Times,serif" font-size="14.00">GO:0044255 (1)</text>
</a>
</g>
<!-- f0&#45;&gt;z1 -->
<g id="edge78" class="edge"><title>f0&#45;&gt;z1</title>
<path fill="none" stroke="black" d="M1578.76,-289.132C1564.75,-278.904 1546.46,-265.11 1531,-252 1513.25,-236.955 1511.98,-229.457 1493,-216 1474.9,-203.163 1453.26,-191.545 1434.5,-182.48"/>
<polygon fill="black" stroke="black" points="1435.81,-179.225 1425.27,-178.11 1432.81,-185.552 1435.81,-179.225"/>
</g>
<!-- j1 -->
<g id="node16" class="node"><title>j1</title>
<a xlink:href="0019752" xlink:title="GO:0019752">
<ellipse fill="#dddddd" stroke="#dddddd" cx="2260" cy="-162" rx="61.1934" ry="18"/>
<text text-anchor="middle" x="2260" y="-157.8" font-family="Times,serif" font-size="14.00">GO:0019752</text>
</a>
</g>
<!-- k1&#45;&gt;j1 -->
<g id="edge134" class="edge"><title>k1&#45;&gt;j1</title>
<path fill="none" stroke="black" d="M2260,-215.697C2260,-207.983 2260,-198.712 2260,-190.112"/>
<polygon fill="black" stroke="black" points="2263.5,-190.104 2260,-180.104 2256.5,-190.104 2263.5,-190.104"/>
</g>
<!-- d0 -->
<g id="node8" class="node"><title>d0</title>
<a xlink:href="0016070" xlink:title="GO:0016070 (1)">
<ellipse fill="#e98576" stroke="#e98576" cx="809" cy="-162" rx="75.2018" ry="18"/>
<text text-anchor="middle" x="809" y="-157.8" font-family="Times,serif" font-size="14.00">GO:0016070 (1)</text>
</a>
</g>
<!-- e0&#45;&gt;d0 -->
<g id="edge6" class="edge"><title>e0&#45;&gt;d0</title>
<path fill="none" stroke="black" d="M685.323,-218.496C708.589,-208.056 740.226,-193.86 765.678,-182.439"/>
<polygon fill="black" stroke="black" points="767.409,-185.499 775.099,-178.212 764.543,-179.113 767.409,-185.499"/>
</g>
<!-- n1 -->
<g id="node107" class="node"><title>n1</title>
<a xlink:href="0009225" xlink:title="GO:0009225 (2)">
<ellipse fill="#e98576" stroke="#e98576" cx="977" cy="-162" rx="75.2018" ry="18"/>
<text text-anchor="middle" x="977" y="-157.8" font-family="Times,serif" font-size="14.00">GO:0009225 (2)</text>
</a>
</g>
<!-- e0&#45;&gt;n1 -->
<g id="edge110" class="edge"><title>e0&#45;&gt;n1</title>
<path fill="none" stroke="black" d="M698.787,-221.834C707.165,-219.849 715.838,-217.832 724,-216 759.122,-208.118 849.572,-189.303 912.218,-176.352"/>
<polygon fill="black" stroke="black" points="912.936,-179.777 922.021,-174.326 911.519,-172.922 912.936,-179.777"/>
</g>
<!-- c2 -->
<g id="node127" class="node"><title>c2</title>
<a xlink:href="0006259" xlink:title="GO:0006259">
<ellipse fill="#dddddd" stroke="#dddddd" cx="654" cy="-162" rx="61.1934" ry="18"/>
<text text-anchor="middle" x="654" y="-157.8" font-family="Times,serif" font-size="14.00">GO:0006259</text>
</a>
</g>
<!-- e0&#45;&gt;c2 -->
<g id="edge140" class="edge"><title>e0&#45;&gt;c2</title>
<path fill="none" stroke="black" d="M653.247,-215.697C653.357,-207.983 653.49,-198.712 653.613,-190.112"/>
<polygon fill="black" stroke="black" points="657.112,-190.153 653.756,-180.104 650.113,-190.053 657.112,-190.153"/>
</g>
<!-- c0 -->
<g id="node39" class="node"><title>c0</title>
<a xlink:href="0006396" xlink:title="GO:0006396 (4)">
<ellipse fill="#e98576" stroke="#e98576" cx="809" cy="-90" rx="75.2018" ry="18"/>
<text text-anchor="middle" x="809" y="-85.8" font-family="Times,serif" font-size="14.00">GO:0006396 (4)</text>
</a>
</g>
<!-- d0&#45;&gt;c0 -->
<g id="edge34" class="edge"><title>d0&#45;&gt;c0</title>
<path fill="none" stroke="black" d="M809,-143.697C809,-135.983 809,-126.712 809,-118.112"/>
<polygon fill="black" stroke="black" points="812.5,-118.104 809,-108.104 805.5,-118.104 812.5,-118.104"/>
</g>
<!-- j0 -->
<g id="node9" class="node"><title>j0</title>
<a xlink:href="0043283" xlink:title="GO:0043283">
<ellipse fill="#dddddd" stroke="#dddddd" cx="512" cy="-234" rx="61.1934" ry="18"/>
<text text-anchor="middle" x="512" y="-229.8" font-family="Times,serif" font-size="14.00">GO:0043283</text>
</a>
</g>
<!-- j0&#45;&gt;d0 -->
<g id="edge8" class="edge"><title>j0&#45;&gt;d0</title>
<path fill="none" stroke="black" d="M557.824,-221.995C566.198,-219.993 574.86,-217.929 583,-216 638.415,-202.868 701.515,-188.084 746.931,-177.474"/>
<polygon fill="black" stroke="black" points="747.979,-180.823 756.921,-175.141 746.387,-174.007 747.979,-180.823"/>
</g>
<!-- o1 -->
<g id="node32" class="node"><title>o1</title>
<a xlink:href="0005976" xlink:title="GO:0005976 (1)">
<ellipse fill="#e98576" stroke="#e98576" cx="331" cy="-162" rx="75.2018" ry="18"/>
<text text-anchor="middle" x="331" y="-157.8" font-family="Times,serif" font-size="14.00">GO:0005976 (1)</text>
</a>
</g>
<!-- j0&#45;&gt;o1 -->
<g id="edge28" class="edge"><title>j0&#45;&gt;o1</title>
<path fill="none" stroke="black" d="M476.24,-219.17C448.258,-208.348 409.092,-193.201 378.482,-181.363"/>
<polygon fill="black" stroke="black" points="379.459,-177.988 368.869,-177.646 376.934,-184.517 379.459,-177.988"/>
</g>
<!-- u1 -->
<g id="node41" class="node"><title>u1</title>
<a xlink:href="0043412" xlink:title="GO:0043412 (1)">
<ellipse fill="#e98576" stroke="#e98576" cx="499" cy="-162" rx="75.2018" ry="18"/>
<text text-anchor="middle" x="499" y="-157.8" font-family="Times,serif" font-size="14.00">GO:0043412 (1)</text>
</a>
</g>
<!-- j0&#45;&gt;u1 -->
<g id="edge36" class="edge"><title>j0&#45;&gt;u1</title>
<path fill="none" stroke="black" d="M508.787,-215.697C507.354,-207.983 505.632,-198.712 504.035,-190.112"/>
<polygon fill="black" stroke="black" points="507.444,-189.297 502.177,-180.104 500.561,-190.575 507.444,-189.297"/>
</g>
<!-- j0&#45;&gt;c2 -->
<g id="edge142" class="edge"><title>j0&#45;&gt;c2</title>
<path fill="none" stroke="black" d="M542.115,-218.155C563.294,-207.714 591.837,-193.644 614.793,-182.328"/>
<polygon fill="black" stroke="black" points="616.507,-185.385 623.929,-177.824 613.412,-179.106 616.507,-185.385"/>
</g>
<!-- h1 -->
<g id="node13" class="node"><title>h1</title>
<a xlink:href="0006520" xlink:title="GO:0006520 (2)">
<ellipse fill="#e98576" stroke="#e98576" cx="2260" cy="-90" rx="75.2018" ry="18"/>
<text text-anchor="middle" x="2260" y="-85.8" font-family="Times,serif" font-size="14.00">GO:0006520 (2)</text>
</a>
</g>
<!-- i1&#45;&gt;h1 -->
<g id="edge10" class="edge"><title>i1&#45;&gt;h1</title>
<path fill="none" stroke="black" d="M1288.14,-221.089C1295.72,-219.225 1303.57,-217.442 1311,-216 1630.99,-153.952 2017.74,-113.604 2181.1,-98.129"/>
<polygon fill="black" stroke="black" points="2181.44,-101.613 2191.06,-97.1897 2180.78,-94.6437 2181.44,-101.613"/>
</g>
<!-- y0&#45;&gt;h1 -->
<g id="edge12" class="edge"><title>y0&#45;&gt;h1</title>
<path fill="none" stroke="black" d="M2410.72,-216.438C2391.46,-198.189 2359.18,-168.217 2330,-144 2317.42,-133.56 2303.09,-122.565 2290.69,-113.313"/>
<polygon fill="black" stroke="black" points="2292.58,-110.355 2282.46,-107.214 2288.41,-115.979 2292.58,-110.355"/>
</g>
<!-- j1&#45;&gt;h1 -->
<g id="edge14" class="edge"><title>j1&#45;&gt;h1</title>
<path fill="none" stroke="black" d="M2260,-143.697C2260,-135.983 2260,-126.712 2260,-118.112"/>
<polygon fill="black" stroke="black" points="2263.5,-118.104 2260,-108.104 2256.5,-118.104 2263.5,-118.104"/>
</g>
<!-- g1 -->
<g id="node18" class="node"><title>g1</title>
<a xlink:href="0015849" xlink:title="GO:0015849">
<ellipse fill="#dddddd" stroke="#dddddd" cx="2680" cy="-162" rx="61.1934" ry="18"/>
<text text-anchor="middle" x="2680" y="-157.8" font-family="Times,serif" font-size="14.00">GO:0015849</text>
</a>
</g>
<!-- f1 -->
<g id="node20" class="node"><title>f1</title>
<a xlink:href="0046942" xlink:title="GO:0046942">
<ellipse fill="#dddddd" stroke="#dddddd" cx="2667" cy="-90" rx="61.1934" ry="18"/>
<text text-anchor="middle" x="2667" y="-85.8" font-family="Times,serif" font-size="14.00">GO:0046942</text>
</a>
</g>
<!-- g1&#45;&gt;f1 -->
<g id="edge16" class="edge"><title>g1&#45;&gt;f1</title>
<path fill="none" stroke="black" d="M2676.79,-143.697C2675.35,-135.983 2673.63,-126.712 2672.04,-118.112"/>
<polygon fill="black" stroke="black" points="2675.44,-117.297 2670.18,-108.104 2668.56,-118.575 2675.44,-117.297"/>
</g>
<!-- a1 -->
<g id="node71" class="node"><title>a1</title>
<a xlink:href="0006865" xlink:title="GO:0006865 (2)">
<ellipse fill="#e98576" stroke="#e98576" cx="2737" cy="-18" rx="75.2018" ry="18"/>
<text text-anchor="middle" x="2737" y="-13.8" font-family="Times,serif" font-size="14.00">GO:0006865 (2)</text>
</a>
</g>
<!-- f1&#45;&gt;a1 -->
<g id="edge68" class="edge"><title>f1&#45;&gt;a1</title>
<path fill="none" stroke="black" d="M2683.59,-72.411C2692.35,-63.6479 2703.27,-52.7322 2712.94,-43.0569"/>
<polygon fill="black" stroke="black" points="2715.45,-45.5022 2720.04,-35.9562 2710.5,-40.5524 2715.45,-45.5022"/>
</g>
<!-- g0 -->
<g id="node21" class="node"><title>g0</title>
<a xlink:href="0008152" xlink:title="GO:0008152 (2)">
<ellipse fill="#e98576" stroke="#e98576" cx="1352" cy="-378" rx="75.2018" ry="18"/>
<text text-anchor="middle" x="1352" y="-373.8" font-family="Times,serif" font-size="14.00">GO:0008152 (2)</text>
</a>
</g>
<!-- g0&#45;&gt;f0 -->
<g id="edge116" class="edge"><title>g0&#45;&gt;f0</title>
<path fill="none" stroke="black" d="M1398.83,-363.834C1441.4,-351.867 1504.13,-334.232 1548.41,-321.785"/>
<polygon fill="black" stroke="black" points="1549.44,-325.131 1558.12,-319.055 1547.54,-318.392 1549.44,-325.131"/>
</g>
<!-- z0 -->
<g id="node23" class="node"><title>z0</title>
<a xlink:href="0006807" xlink:title="GO:0006807">
<ellipse fill="#dddddd" stroke="#dddddd" cx="1742" cy="-306" rx="61.1934" ry="18"/>
<text text-anchor="middle" x="1742" y="-301.8" font-family="Times,serif" font-size="14.00">GO:0006807</text>
</a>
</g>
<!-- g0&#45;&gt;z0 -->
<g id="edge18" class="edge"><title>g0&#45;&gt;z0</title>
<path fill="none" stroke="black" d="M1414.59,-367.933C1479.08,-358.279 1582.41,-341.942 1671,-324 1676.28,-322.931 1681.76,-321.748 1687.24,-320.519"/>
<polygon fill="black" stroke="black" points="1688.07,-323.919 1697.03,-318.271 1686.5,-317.096 1688.07,-323.919"/>
</g>
<!-- t0 -->
<g id="node34" class="node"><title>t0</title>
<a xlink:href="0009058" xlink:title="GO:0009058">
<ellipse fill="#dddddd" stroke="#dddddd" cx="1352" cy="-306" rx="61.1934" ry="18"/>
<text text-anchor="middle" x="1352" y="-301.8" font-family="Times,serif" font-size="14.00">GO:0009058</text>
</a>
</g>
<!-- g0&#45;&gt;t0 -->
<g id="edge82" class="edge"><title>g0&#45;&gt;t0</title>
<path fill="none" stroke="black" d="M1352,-359.697C1352,-351.983 1352,-342.712 1352,-334.112"/>
<polygon fill="black" stroke="black" points="1355.5,-334.104 1352,-324.104 1348.5,-334.104 1355.5,-334.104"/>
</g>
<!-- k0 -->
<g id="node42" class="node"><title>k0</title>
<a xlink:href="0043170" xlink:title="GO:0043170 (1)">
<ellipse fill="#e98576" stroke="#e98576" cx="1090" cy="-306" rx="75.2018" ry="18"/>
<text text-anchor="middle" x="1090" y="-301.8" font-family="Times,serif" font-size="14.00">GO:0043170 (1)</text>
</a>
</g>
<!-- g0&#45;&gt;k0 -->
<g id="edge148" class="edge"><title>g0&#45;&gt;k0</title>
<path fill="none" stroke="black" d="M1303.95,-364.161C1259.95,-352.406 1194.75,-334.986 1147.9,-322.469"/>
<polygon fill="black" stroke="black" points="1148.76,-319.076 1138.19,-319.876 1146.95,-325.839 1148.76,-319.076"/>
</g>
<!-- i0 -->
<g id="node44" class="node"><title>i0</title>
<a xlink:href="0044238" xlink:title="GO:0044238 (1)">
<ellipse fill="#e98576" stroke="#e98576" cx="858" cy="-306" rx="75.2018" ry="18"/>
<text text-anchor="middle" x="858" y="-301.8" font-family="Times,serif" font-size="14.00">GO:0044238 (1)</text>
</a>
</g>
<!-- g0&#45;&gt;i0 -->
<g id="edge162" class="edge"><title>g0&#45;&gt;i0</title>
<path fill="none" stroke="black" d="M1289.18,-368.099C1197.57,-355.118 1027.71,-331.047 930.774,-317.312"/>
<polygon fill="black" stroke="black" points="931.156,-313.831 920.764,-315.894 930.174,-320.762 931.156,-313.831"/>
</g>
<!-- t1 -->
<g id="node105" class="node"><title>t1</title>
<a xlink:href="0006091" xlink:title="GO:0006091">
<ellipse fill="#dddddd" stroke="#dddddd" cx="555" cy="-306" rx="61.1934" ry="18"/>
<text text-anchor="middle" x="555" y="-301.8" font-family="Times,serif" font-size="14.00">GO:0006091</text>
</a>
</g>
<!-- g0&#45;&gt;t1 -->
<g id="edge108" class="edge"><title>g0&#45;&gt;t1</title>
<path fill="none" stroke="black" d="M1282.67,-370.91C1131.25,-357.611 772.592,-326.111 622.689,-312.945"/>
<polygon fill="black" stroke="black" points="622.959,-309.455 612.692,-312.067 622.347,-316.429 622.959,-309.455"/>
</g>
<!-- z0&#45;&gt;y0 -->
<g id="edge96" class="edge"><title>z0&#45;&gt;y0</title>
<path fill="none" stroke="black" d="M1785.71,-293.323C1794.68,-291.269 1804.1,-289.357 1813,-288 2046.84,-252.335 2109.57,-283.529 2344,-252 2350.74,-251.094 2357.75,-249.97 2364.71,-248.734"/>
<polygon fill="black" stroke="black" points="2365.66,-252.119 2374.86,-246.857 2364.39,-245.235 2365.66,-252.119"/>
</g>
<!-- b0 -->
<g id="node24" class="node"><title>b0</title>
<a xlink:href="0008150" xlink:title="GO:0008150">
<ellipse fill="#dddddd" stroke="#dddddd" cx="2079" cy="-450" rx="61.1934" ry="18"/>
<text text-anchor="middle" x="2079" y="-445.8" font-family="Times,serif" font-size="14.00">GO:0008150</text>
</a>
</g>
<!-- b0&#45;&gt;g0 -->
<g id="edge20" class="edge"><title>b0&#45;&gt;g0</title>
<path fill="none" stroke="black" d="M2021.65,-443.478C1892.32,-431.025 1577.76,-400.737 1430.49,-386.557"/>
<polygon fill="black" stroke="black" points="1430.47,-383.039 1420.18,-385.564 1429.8,-390.007 1430.47,-383.039"/>
</g>
<!-- d1 -->
<g id="node27" class="node"><title>d1</title>
<a xlink:href="0051234" xlink:title="GO:0051234">
<ellipse fill="#dddddd" stroke="#dddddd" cx="2220" cy="-306" rx="61.1934" ry="18"/>
<text text-anchor="middle" x="2220" y="-301.8" font-family="Times,serif" font-size="14.00">GO:0051234</text>
</a>
</g>
<!-- b0&#45;&gt;d1 -->
<g id="edge22" class="edge"><title>b0&#45;&gt;d1</title>
<path fill="none" stroke="black" d="M2090.44,-432.227C2103.63,-413.527 2126.51,-382.906 2150,-360 2161.53,-348.76 2175.46,-337.773 2187.85,-328.743"/>
<polygon fill="black" stroke="black" points="2190.03,-331.487 2196.13,-322.825 2185.96,-325.791 2190.03,-331.487"/>
</g>
<!-- e1 -->
<g id="node28" class="node"><title>e1</title>
<a xlink:href="0051179" xlink:title="GO:0051179">
<ellipse fill="#dddddd" stroke="#dddddd" cx="2220" cy="-378" rx="61.1934" ry="18"/>
<text text-anchor="middle" x="2220" y="-373.8" font-family="Times,serif" font-size="14.00">GO:0051179</text>
</a>
</g>
<!-- b0&#45;&gt;e1 -->
<g id="edge106" class="edge"><title>b0&#45;&gt;e1</title>
<path fill="none" stroke="black" d="M2108.9,-434.155C2129.93,-423.714 2158.28,-409.644 2181.07,-398.328"/>
<polygon fill="black" stroke="black" points="2182.74,-401.405 2190.14,-393.824 2179.63,-395.136 2182.74,-401.405"/>
</g>
<!-- x1 -->
<g id="node51" class="node"><title>x1</title>
<a xlink:href="0065007" xlink:title="GO:0065007 (1)">
<ellipse fill="#e98576" stroke="#e98576" cx="2028" cy="-378" rx="75.2018" ry="18"/>
<text text-anchor="middle" x="2028" y="-373.8" font-family="Times,serif" font-size="14.00">GO:0065007 (1)</text>
</a>
</g>
<!-- b0&#45;&gt;x1 -->
<g id="edge112" class="edge"><title>b0&#45;&gt;x1</title>
<path fill="none" stroke="black" d="M2066.65,-432.055C2060.52,-423.629 2052.98,-413.28 2046.19,-403.966"/>
<polygon fill="black" stroke="black" points="2048.95,-401.81 2040.23,-395.789 2043.29,-405.932 2048.95,-401.81"/>
</g>
<!-- a0 -->
<g id="node110" class="node"><title>a0</title>
<a xlink:href="0050896" xlink:title="GO:0050896 (4)">
<ellipse fill="#e98576" stroke="#e98576" cx="202" cy="-378" rx="75.2018" ry="18"/>
<text text-anchor="middle" x="202" y="-373.8" font-family="Times,serif" font-size="14.00">GO:0050896 (4)</text>
</a>
</g>
<!-- b0&#45;&gt;a0 -->
<g id="edge114" class="edge"><title>b0&#45;&gt;a0</title>
<path fill="none" stroke="black" d="M2018.67,-446.75C1743.29,-436.48 605.283,-394.04 285.767,-382.124"/>
<polygon fill="black" stroke="black" points="285.773,-378.622 275.65,-381.747 285.513,-385.617 285.773,-378.622"/>
</g>
<!-- h0 -->
<g id="node112" class="node"><title>h0</title>
<a xlink:href="0009987" xlink:title="GO:0009987">
<ellipse fill="#dddddd" stroke="#dddddd" cx="2368" cy="-378" rx="61.1934" ry="18"/>
<text text-anchor="middle" x="2368" y="-373.8" font-family="Times,serif" font-size="14.00">GO:0009987</text>
</a>
</g>
<!-- b0&#45;&gt;h0 -->
<g id="edge136" class="edge"><title>b0&#45;&gt;h0</title>
<path fill="none" stroke="black" d="M2124.79,-437.908C2175.74,-425.569 2258.03,-405.635 2312.57,-392.425"/>
<polygon fill="black" stroke="black" points="2313.53,-395.796 2322.42,-390.04 2311.88,-388.992 2313.53,-395.796"/>
</g>
<!-- c1 -->
<g id="node84" class="node"><title>c1</title>
<a xlink:href="0006810" xlink:title="GO:0006810 (2)">
<ellipse fill="#e98576" stroke="#e98576" cx="2738" cy="-234" rx="75.2018" ry="18"/>
<text text-anchor="middle" x="2738" y="-229.8" font-family="Times,serif" font-size="14.00">GO:0006810 (2)</text>
</a>
</g>
<!-- d1&#45;&gt;c1 -->
<g id="edge80" class="edge"><title>d1&#45;&gt;c1</title>
<path fill="none" stroke="black" d="M2264.12,-293.455C2272.98,-291.415 2282.25,-289.475 2291,-288 2450.43,-261.114 2493.09,-275.883 2653,-252 2659.8,-250.984 2666.88,-249.79 2673.92,-248.512"/>
<polygon fill="black" stroke="black" points="2675,-251.873 2684.18,-246.593 2673.71,-244.992 2675,-251.873"/>
</g>
<!-- e1&#45;&gt;d1 -->
<g id="edge24" class="edge"><title>e1&#45;&gt;d1</title>
<path fill="none" stroke="black" d="M2220,-359.697C2220,-351.983 2220,-342.712 2220,-334.112"/>
<polygon fill="black" stroke="black" points="2223.5,-334.104 2220,-324.104 2216.5,-334.104 2223.5,-334.104"/>
</g>
<!-- q0 -->
<g id="node30" class="node"><title>q0</title>
<a xlink:href="0005975" xlink:title="GO:0005975 (3)">
<ellipse fill="#e98576" stroke="#e98576" cx="357" cy="-234" rx="75.2018" ry="18"/>
<text text-anchor="middle" x="357" y="-229.8" font-family="Times,serif" font-size="14.00">GO:0005975 (3)</text>
</a>
</g>
<!-- q0&#45;&gt;o1 -->
<g id="edge26" class="edge"><title>q0&#45;&gt;o1</title>
<path fill="none" stroke="black" d="M350.706,-216.055C347.78,-208.176 344.229,-198.617 340.952,-189.794"/>
<polygon fill="black" stroke="black" points="344.179,-188.431 337.417,-180.275 337.617,-190.868 344.179,-188.431"/>
</g>
<!-- t0&#45;&gt;u0 -->
<g id="edge30" class="edge"><title>t0&#45;&gt;u0</title>
<path fill="none" stroke="black" d="M1394.52,-293.046C1437.1,-281.077 1502.69,-262.636 1548.49,-249.761"/>
<polygon fill="black" stroke="black" points="1549.56,-253.098 1558.24,-247.022 1547.66,-246.359 1549.56,-253.098"/>
</g>
<!-- s0 -->
<g id="node73" class="node"><title>s0</title>
<a xlink:href="0009059" xlink:title="GO:0009059 (1)">
<ellipse fill="#e98576" stroke="#e98576" cx="1090" cy="-234" rx="75.2018" ry="18"/>
<text text-anchor="middle" x="1090" y="-229.8" font-family="Times,serif" font-size="14.00">GO:0009059 (1)</text>
</a>
</g>
<!-- t0&#45;&gt;s0 -->
<g id="edge92" class="edge"><title>t0&#45;&gt;s0</title>
<path fill="none" stroke="black" d="M1308.15,-293.284C1264.26,-281.559 1196.5,-263.455 1148.15,-250.537"/>
<polygon fill="black" stroke="black" points="1149.01,-247.144 1138.45,-247.944 1147.21,-253.907 1149.01,-247.144"/>
</g>
<!-- r0 -->
<g id="node75" class="node"><title>r0</title>
<a xlink:href="0006412" xlink:title="GO:0006412 (3)">
<ellipse fill="#e98576" stroke="#e98576" cx="1244" cy="-90" rx="75.2018" ry="18"/>
<text text-anchor="middle" x="1244" y="-85.8" font-family="Times,serif" font-size="14.00">GO:0006412 (3)</text>
</a>
</g>
<!-- u0&#45;&gt;r0 -->
<g id="edge72" class="edge"><title>u0&#45;&gt;r0</title>
<path fill="none" stroke="black" d="M1582.62,-216.625C1559.09,-196.536 1516.31,-162.835 1474,-144 1424.56,-121.99 1364.93,-108.585 1318.77,-100.763"/>
<polygon fill="black" stroke="black" points="1319.27,-97.2985 1308.83,-99.1302 1318.13,-104.206 1319.27,-97.2985"/>
</g>
<!-- k0&#45;&gt;j0 -->
<g id="edge52" class="edge"><title>k0&#45;&gt;j0</title>
<path fill="none" stroke="black" d="M1024.08,-297.222C998.467,-294.254 968.872,-290.891 942,-288 782.564,-270.85 741.112,-278.731 583,-252 577.532,-251.076 571.86,-249.971 566.212,-248.774"/>
<polygon fill="black" stroke="black" points="566.643,-245.285 556.123,-246.54 565.13,-252.119 566.643,-245.285"/>
</g>
<!-- k0&#45;&gt;q0 -->
<g id="edge38" class="edge"><title>k0&#45;&gt;q0</title>
<path fill="none" stroke="black" d="M1024.86,-296.913C999.079,-293.87 969.168,-290.537 942,-288 720.168,-267.283 662.781,-281.906 442,-252 434.926,-251.042 427.554,-249.855 420.239,-248.557"/>
<polygon fill="black" stroke="black" points="420.801,-245.102 410.332,-246.73 419.531,-251.986 420.801,-245.102"/>
</g>
<!-- k0&#45;&gt;x0 -->
<g id="edge42" class="edge"><title>k0&#45;&gt;x0</title>
<path fill="none" stroke="black" d="M1145.68,-293.901C1197.98,-283.396 1278.39,-267.038 1348,-252 1353.85,-250.736 1359.96,-249.393 1366.04,-248.038"/>
<polygon fill="black" stroke="black" points="1367.23,-251.358 1376.22,-245.757 1365.7,-244.528 1367.23,-251.358"/>
</g>
<!-- k0&#45;&gt;s0 -->
<g id="edge94" class="edge"><title>k0&#45;&gt;s0</title>
<path fill="none" stroke="black" d="M1090,-287.697C1090,-279.983 1090,-270.712 1090,-262.112"/>
<polygon fill="black" stroke="black" points="1093.5,-262.104 1090,-252.104 1086.5,-262.104 1093.5,-262.104"/>
</g>
<!-- l1 -->
<g id="node88" class="node"><title>l1</title>
<a xlink:href="0065003" xlink:title="GO:0065003 (2)">
<ellipse fill="#e98576" stroke="#e98576" cx="2014" cy="-162" rx="75.2018" ry="18"/>
<text text-anchor="middle" x="2014" y="-157.8" font-family="Times,serif" font-size="14.00">GO:0065003 (2)</text>
</a>
</g>
<!-- k0&#45;&gt;l1 -->
<g id="edge86" class="edge"><title>k0&#45;&gt;l1</title>
<path fill="none" stroke="black" d="M1158.28,-298.363C1204.69,-291.648 1266.26,-278.301 1315,-252 1335.47,-240.952 1331.75,-225.469 1353,-216 1379.05,-204.391 1760.98,-178.988 1932.12,-168.11"/>
<polygon fill="black" stroke="black" points="1932.58,-171.588 1942.33,-167.461 1932.13,-164.602 1932.58,-171.588"/>
</g>
<!-- w0 -->
<g id="node91" class="node"><title>w0</title>
<a xlink:href="0019538" xlink:title="GO:0019538">
<ellipse fill="#dddddd" stroke="#dddddd" cx="935" cy="-234" rx="61.1934" ry="18"/>
<text text-anchor="middle" x="935" y="-229.8" font-family="Times,serif" font-size="14.00">GO:0019538</text>
</a>
</g>
<!-- k0&#45;&gt;w0 -->
<g id="edge88" class="edge"><title>k0&#45;&gt;w0</title>
<path fill="none" stroke="black" d="M1056.37,-289.811C1032.84,-279.186 1001.27,-264.929 976.227,-253.618"/>
<polygon fill="black" stroke="black" points="977.532,-250.368 966.978,-249.442 974.651,-256.747 977.532,-250.368"/>
</g>
<!-- i0&#45;&gt;e0 -->
<g id="edge128" class="edge"><title>i0&#45;&gt;e0</title>
<path fill="none" stroke="black" d="M816.515,-290.834C783.043,-279.405 735.921,-263.315 700.856,-251.341"/>
<polygon fill="black" stroke="black" points="701.902,-248 691.307,-248.081 699.64,-254.624 701.902,-248"/>
</g>
<!-- i0&#45;&gt;i1 -->
<g id="edge48" class="edge"><title>i0&#45;&gt;i1</title>
<path fill="none" stroke="black" d="M920.292,-295.848C984.195,-286.156 1086.37,-269.817 1174,-252 1179.28,-250.927 1184.76,-249.741 1190.24,-248.51"/>
<polygon fill="black" stroke="black" points="1191.07,-251.91 1200.03,-246.26 1189.5,-245.088 1191.07,-251.91"/>
</g>
<!-- i0&#45;&gt;q0 -->
<g id="edge40" class="edge"><title>i0&#45;&gt;q0</title>
<path fill="none" stroke="black" d="M790.782,-297.916C708.359,-288.888 564.508,-272.029 442,-252 435.314,-250.907 428.352,-249.673 421.416,-248.381"/>
<polygon fill="black" stroke="black" points="421.788,-244.889 411.31,-246.456 420.478,-251.765 421.788,-244.889"/>
</g>
<!-- a2 -->
<g id="node79" class="node"><title>a2</title>
<a xlink:href="0006629" xlink:title="GO:0006629">
<ellipse fill="#dddddd" stroke="#dddddd" cx="794" cy="-234" rx="61.1934" ry="18"/>
<text text-anchor="middle" x="794" y="-229.8" font-family="Times,serif" font-size="14.00">GO:0006629</text>
</a>
</g>
<!-- i0&#45;&gt;a2 -->
<g id="edge132" class="edge"><title>i0&#45;&gt;a2</title>
<path fill="none" stroke="black" d="M842.507,-288.055C834.646,-279.457 824.955,-268.857 816.306,-259.397"/>
<polygon fill="black" stroke="black" points="818.681,-256.808 809.35,-251.789 813.515,-261.531 818.681,-256.808"/>
</g>
<!-- i0&#45;&gt;w0 -->
<g id="edge90" class="edge"><title>i0&#45;&gt;w0</title>
<path fill="none" stroke="black" d="M876.248,-288.411C886.197,-279.367 898.667,-268.03 909.557,-258.13"/>
<polygon fill="black" stroke="black" points="912.104,-260.545 917.149,-251.228 907.395,-255.365 912.104,-260.545"/>
</g>
<!-- v0 -->
<g id="node77" class="node"><title>v0</title>
<a xlink:href="0044267" xlink:title="GO:0044267">
<ellipse fill="#dddddd" stroke="#dddddd" cx="1155" cy="-162" rx="61.1934" ry="18"/>
<text text-anchor="middle" x="1155" y="-157.8" font-family="Times,serif" font-size="14.00">GO:0044267</text>
</a>
</g>
<!-- x0&#45;&gt;v0 -->
<g id="edge152" class="edge"><title>x0&#45;&gt;v0</title>
<path fill="none" stroke="black" d="M1378.75,-221.441C1332.29,-209.307 1259.2,-190.217 1209.29,-177.18"/>
<polygon fill="black" stroke="black" points="1209.88,-173.717 1199.32,-174.576 1208.11,-180.49 1209.88,-173.717"/>
</g>
<!-- g2 -->
<g id="node53" class="node"><title>g2</title>
<a xlink:href="0050789" xlink:title="GO:0050789 (1)">
<ellipse fill="#e98576" stroke="#e98576" cx="2065" cy="-306" rx="75.2018" ry="18"/>
<text text-anchor="middle" x="2065" y="-301.8" font-family="Times,serif" font-size="14.00">GO:0050789 (1)</text>
</a>
</g>
<!-- x1&#45;&gt;g2 -->
<g id="edge50" class="edge"><title>x1&#45;&gt;g2</title>
<path fill="none" stroke="black" d="M2036.96,-360.055C2041.21,-352.007 2046.39,-342.205 2051.14,-333.226"/>
<polygon fill="black" stroke="black" points="2054.29,-334.752 2055.87,-324.275 2048.1,-331.481 2054.29,-334.752"/>
</g>
<!-- w1 -->
<g id="node116" class="node"><title>w1</title>
<a xlink:href="0065008" xlink:title="GO:0065008 (1)">
<ellipse fill="#e98576" stroke="#e98576" cx="1897" cy="-306" rx="75.2018" ry="18"/>
<text text-anchor="middle" x="1897" y="-301.8" font-family="Times,serif" font-size="14.00">GO:0065008 (1)</text>
</a>
</g>
<!-- x1&#45;&gt;w1 -->
<g id="edge122" class="edge"><title>x1&#45;&gt;w1</title>
<path fill="none" stroke="black" d="M1998.6,-361.291C1979.89,-351.293 1955.47,-338.242 1935.26,-327.442"/>
<polygon fill="black" stroke="black" points="1936.77,-324.283 1926.3,-322.657 1933.47,-330.457 1936.77,-324.283"/>
</g>
<!-- e2 -->
<g id="node55" class="node"><title>e2</title>
<a xlink:href="0006950" xlink:title="GO:0006950">
<ellipse fill="#dddddd" stroke="#dddddd" cx="202" cy="-306" rx="61.1934" ry="18"/>
<text text-anchor="middle" x="202" y="-301.8" font-family="Times,serif" font-size="14.00">GO:0006950</text>
</a>
</g>
<!-- d2 -->
<g id="node57" class="node"><title>d2</title>
<a xlink:href="0006974" xlink:title="GO:0006974">
<ellipse fill="#dddddd" stroke="#dddddd" cx="61" cy="-234" rx="61.1934" ry="18"/>
<text text-anchor="middle" x="61" y="-229.8" font-family="Times,serif" font-size="14.00">GO:0006974</text>
</a>
</g>
<!-- e2&#45;&gt;d2 -->
<g id="edge54" class="edge"><title>e2&#45;&gt;d2</title>
<path fill="none" stroke="black" d="M172.098,-290.155C151.067,-279.714 122.725,-265.644 99.9311,-254.328"/>
<polygon fill="black" stroke="black" points="101.373,-251.136 90.8594,-249.824 98.26,-257.405 101.373,-251.136"/>
</g>
<!-- b2 -->
<g id="node135" class="node"><title>b2</title>
<a xlink:href="0006281" xlink:title="GO:0006281 (1)">
<ellipse fill="#e98576" stroke="#e98576" cx="351" cy="-90" rx="75.2018" ry="18"/>
<text text-anchor="middle" x="351" y="-85.8" font-family="Times,serif" font-size="14.00">GO:0006281 (1)</text>
</a>
</g>
<!-- d2&#45;&gt;b2 -->
<g id="edge156" class="edge"><title>d2&#45;&gt;b2</title>
<path fill="none" stroke="black" d="M59.2733,-215.654C58.3058,-195.545 60.0947,-162.771 79,-144 105.479,-117.709 199.738,-103.82 269.913,-96.9559"/>
<polygon fill="black" stroke="black" points="270.455,-100.42 280.081,-95.9936 269.795,-93.4515 270.455,-100.42"/>
</g>
<!-- f2 -->
<g id="node58" class="node"><title>f2</title>
<a xlink:href="0009719" xlink:title="GO:0009719">
<ellipse fill="#dddddd" stroke="#dddddd" cx="61" cy="-306" rx="61.1934" ry="18"/>
<text text-anchor="middle" x="61" y="-301.8" font-family="Times,serif" font-size="14.00">GO:0009719</text>
</a>
</g>
<!-- f2&#45;&gt;d2 -->
<g id="edge56" class="edge"><title>f2&#45;&gt;d2</title>
<path fill="none" stroke="black" d="M61,-287.697C61,-279.983 61,-270.712 61,-262.112"/>
<polygon fill="black" stroke="black" points="64.5001,-262.104 61,-252.104 57.5001,-262.104 64.5001,-262.104"/>
</g>
<!-- m0 -->
<g id="node60" class="node"><title>m0</title>
<a xlink:href="0006996" xlink:title="GO:0006996 (1)">
<ellipse fill="#e98576" stroke="#e98576" cx="2906" cy="-234" rx="75.2018" ry="18"/>
<text text-anchor="middle" x="2906" y="-229.8" font-family="Times,serif" font-size="14.00">GO:0006996 (1)</text>
</a>
</g>
<!-- l0 -->
<g id="node62" class="node"><title>l0</title>
<a xlink:href="0042254" xlink:title="GO:0042254 (4)">
<ellipse fill="#e98576" stroke="#e98576" cx="2983" cy="-162" rx="75.2018" ry="18"/>
<text text-anchor="middle" x="2983" y="-157.8" font-family="Times,serif" font-size="14.00">GO:0042254 (4)</text>
</a>
</g>
<!-- m0&#45;&gt;l0 -->
<g id="edge58" class="edge"><title>m0&#45;&gt;l0</title>
<path fill="none" stroke="black" d="M2924.25,-216.411C2934.12,-207.432 2946.49,-196.193 2957.32,-186.344"/>
<polygon fill="black" stroke="black" points="2959.84,-188.787 2964.88,-179.47 2955.13,-183.607 2959.84,-188.787"/>
</g>
<!-- o0 -->
<g id="node63" class="node"><title>o0</title>
<a xlink:href="0022613" xlink:title="GO:0022613">
<ellipse fill="#dddddd" stroke="#dddddd" cx="3061" cy="-234" rx="61.1934" ry="18"/>
<text text-anchor="middle" x="3061" y="-229.8" font-family="Times,serif" font-size="14.00">GO:0022613</text>
</a>
</g>
<!-- o0&#45;&gt;l0 -->
<g id="edge60" class="edge"><title>o0&#45;&gt;l0</title>
<path fill="none" stroke="black" d="M3042.91,-216.765C3032.91,-207.795 3020.32,-196.49 3009.26,-186.564"/>
<polygon fill="black" stroke="black" points="3011.31,-183.708 3001.53,-179.633 3006.64,-188.917 3011.31,-183.708"/>
</g>
<!-- b1 -->
<g id="node69" class="node"><title>b1</title>
<a xlink:href="0015837" xlink:title="GO:0015837">
<ellipse fill="#dddddd" stroke="#dddddd" cx="2808" cy="-90" rx="61.1934" ry="18"/>
<text text-anchor="middle" x="2808" y="-85.8" font-family="Times,serif" font-size="14.00">GO:0015837</text>
</a>
</g>
<!-- b1&#45;&gt;a1 -->
<g id="edge66" class="edge"><title>b1&#45;&gt;a1</title>
<path fill="none" stroke="black" d="M2791.17,-72.411C2782.29,-63.6479 2771.21,-52.7322 2761.4,-43.0569"/>
<polygon fill="black" stroke="black" points="2763.78,-40.4846 2754.2,-35.9562 2758.86,-45.4694 2763.78,-40.4846"/>
</g>
<!-- s0&#45;&gt;r0 -->
<g id="edge70" class="edge"><title>s0&#45;&gt;r0</title>
<path fill="none" stroke="black" d="M1149.32,-222.962C1176.11,-215.466 1205.94,-202.465 1225,-180 1239.49,-162.921 1243.76,-137.469 1244.68,-118.152"/>
<polygon fill="black" stroke="black" points="1248.18,-118.217 1244.9,-108.144 1241.18,-118.067 1248.18,-118.217"/>
</g>
<!-- v0&#45;&gt;r0 -->
<g id="edge74" class="edge"><title>v0&#45;&gt;r0</title>
<path fill="none" stroke="black" d="M1175.64,-144.765C1187.35,-135.554 1202.19,-123.882 1215.05,-113.769"/>
<polygon fill="black" stroke="black" points="1217.47,-116.323 1223.16,-107.39 1213.14,-110.821 1217.47,-116.323"/>
</g>
<!-- a2&#45;&gt;z1 -->
<g id="edge76" class="edge"><title>a2&#45;&gt;z1</title>
<path fill="none" stroke="black" d="M838.123,-221.458C846.979,-219.418 856.252,-217.478 865,-216 1023.55,-189.217 1065.02,-196.24 1225,-180 1253.58,-177.099 1284.94,-173.878 1312.57,-171.026"/>
<polygon fill="black" stroke="black" points="1312.98,-174.502 1322.57,-169.993 1312.26,-167.539 1312.98,-174.502"/>
</g>
<!-- c1&#45;&gt;g1 -->
<g id="edge130" class="edge"><title>c1&#45;&gt;g1</title>
<path fill="none" stroke="black" d="M2723.96,-216.055C2716.91,-207.543 2708.23,-197.068 2700.45,-187.681"/>
<polygon fill="black" stroke="black" points="2702.99,-185.256 2693.91,-179.789 2697.6,-189.722 2702.99,-185.256"/>
</g>
<!-- c1&#45;&gt;b1 -->
<g id="edge104" class="edge"><title>c1&#45;&gt;b1</title>
<path fill="none" stroke="black" d="M2746.44,-215.871C2758.53,-191.35 2780.87,-146.032 2795.06,-117.259"/>
<polygon fill="black" stroke="black" points="2798.24,-118.706 2799.53,-108.189 2791.97,-115.611 2798.24,-118.706"/>
</g>
<!-- m1 -->
<g id="node86" class="node"><title>m1</title>
<a xlink:href="0022607" xlink:title="GO:0022607">
<ellipse fill="#dddddd" stroke="#dddddd" cx="2583" cy="-234" rx="61.1934" ry="18"/>
<text text-anchor="middle" x="2583" y="-229.8" font-family="Times,serif" font-size="14.00">GO:0022607</text>
</a>
</g>
<!-- m1&#45;&gt;l1 -->
<g id="edge84" class="edge"><title>m1&#45;&gt;l1</title>
<path fill="none" stroke="black" d="M2538.87,-221.502C2530.01,-219.459 2520.74,-217.506 2512,-216 2471.75,-209.069 2222.27,-183.757 2092.4,-170.782"/>
<polygon fill="black" stroke="black" points="2092.42,-167.267 2082.12,-169.756 2091.73,-174.232 2092.42,-167.267"/>
</g>
<!-- w0&#45;&gt;v0 -->
<g id="edge150" class="edge"><title>w0&#45;&gt;v0</title>
<path fill="none" stroke="black" d="M974.84,-220.324C1011.48,-208.665 1065.95,-191.334 1105.4,-178.782"/>
<polygon fill="black" stroke="black" points="1106.62,-182.068 1115.08,-175.7 1104.49,-175.397 1106.62,-182.068"/>
</g>
<!-- n0 -->
<g id="node97" class="node"><title>n0</title>
<a xlink:href="0016043" xlink:title="GO:0016043">
<ellipse fill="#dddddd" stroke="#dddddd" cx="2744" cy="-306" rx="61.1934" ry="18"/>
<text text-anchor="middle" x="2744" y="-301.8" font-family="Times,serif" font-size="14.00">GO:0016043</text>
</a>
</g>
<!-- n0&#45;&gt;m0 -->
<g id="edge100" class="edge"><title>n0&#45;&gt;m0</title>
<path fill="none" stroke="black" d="M2777.17,-290.666C2801.58,-280.121 2835,-265.677 2861.69,-254.145"/>
<polygon fill="black" stroke="black" points="2863.4,-257.22 2871.19,-250.041 2860.62,-250.795 2863.4,-257.22"/>
</g>
<!-- n0&#45;&gt;o0 -->
<g id="edge160" class="edge"><title>n0&#45;&gt;o0</title>
<path fill="none" stroke="black" d="M2792.62,-294.867C2842.29,-284.434 2921.63,-267.549 2990,-252 2994.97,-250.87 3000.13,-249.675 3005.3,-248.464"/>
<polygon fill="black" stroke="black" points="3006.27,-251.83 3015.2,-246.127 3004.67,-245.017 3006.27,-251.83"/>
</g>
<!-- n0&#45;&gt;m1 -->
<g id="edge120" class="edge"><title>n0&#45;&gt;m1</title>
<path fill="none" stroke="black" d="M2711.03,-290.666C2686.29,-279.907 2652.21,-265.09 2625.43,-253.448"/>
<polygon fill="black" stroke="black" points="2626.49,-250.093 2615.93,-249.315 2623.7,-256.512 2626.49,-250.093"/>
</g>
<!-- s1 -->
<g id="node99" class="node"><title>s1</title>
<a xlink:href="0015980" xlink:title="GO:0015980">
<ellipse fill="#dddddd" stroke="#dddddd" cx="202" cy="-234" rx="61.1934" ry="18"/>
<text text-anchor="middle" x="202" y="-229.8" font-family="Times,serif" font-size="14.00">GO:0015980</text>
</a>
</g>
<!-- r1 -->
<g id="node101" class="node"><title>r1</title>
<a xlink:href="0045333" xlink:title="GO:0045333 (1)">
<ellipse fill="#e98576" stroke="#e98576" cx="163" cy="-162" rx="75.2018" ry="18"/>
<text text-anchor="middle" x="163" y="-157.8" font-family="Times,serif" font-size="14.00">GO:0045333 (1)</text>
</a>
</g>
<!-- s1&#45;&gt;r1 -->
<g id="edge102" class="edge"><title>s1&#45;&gt;r1</title>
<path fill="none" stroke="black" d="M192.559,-216.055C188.075,-208.007 182.614,-198.205 177.612,-189.226"/>
<polygon fill="black" stroke="black" points="180.549,-187.308 172.625,-180.275 174.434,-190.714 180.549,-187.308"/>
</g>
<!-- t1&#45;&gt;s1 -->
<g id="edge124" class="edge"><title>t1&#45;&gt;s1</title>
<path fill="none" stroke="black" d="M503.647,-296.132C447.011,-286.17 353.261,-269.14 273,-252 267.939,-250.919 262.687,-249.751 257.433,-248.55"/>
<polygon fill="black" stroke="black" points="257.908,-245.068 247.376,-246.216 256.326,-251.886 257.908,-245.068"/>
</g>
<!-- a0&#45;&gt;e2 -->
<g id="edge158" class="edge"><title>a0&#45;&gt;e2</title>
<path fill="none" stroke="black" d="M202,-359.697C202,-351.983 202,-342.712 202,-334.112"/>
<polygon fill="black" stroke="black" points="205.5,-334.104 202,-324.104 198.5,-334.104 205.5,-334.104"/>
</g>
<!-- a0&#45;&gt;f2 -->
<g id="edge146" class="edge"><title>a0&#45;&gt;f2</title>
<path fill="none" stroke="black" d="M170.708,-361.465C149.836,-351.103 122.243,-337.404 99.951,-326.337"/>
<polygon fill="black" stroke="black" points="101.27,-323.085 90.7571,-321.773 98.1577,-329.355 101.27,-323.085"/>
</g>
<!-- h0&#45;&gt;f0 -->
<g id="edge118" class="edge"><title>h0&#45;&gt;f0</title>
<path fill="none" stroke="black" d="M2322.43,-365.817C2311.84,-363.567 2300.57,-361.451 2290,-360 2017.42,-322.591 1944.18,-364.19 1672,-324 1666.3,-323.158 1660.38,-322.078 1654.5,-320.872"/>
<polygon fill="black" stroke="black" points="1655.21,-317.445 1644.7,-318.743 1653.73,-324.286 1655.21,-317.445"/>
</g>
<!-- h0&#45;&gt;n0 -->
<g id="edge144" class="edge"><title>h0&#45;&gt;n0</title>
<path fill="none" stroke="black" d="M2418.32,-367.632C2487.03,-354.841 2610.05,-331.938 2683.63,-318.238"/>
<polygon fill="black" stroke="black" points="2684.49,-321.639 2693.68,-316.368 2683.21,-314.758 2684.49,-321.639"/>
</g>
<!-- v1 -->
<g id="node125" class="node"><title>v1</title>
<a xlink:href="0007154" xlink:title="GO:0007154 (1)">
<ellipse fill="#e98576" stroke="#e98576" cx="2375" cy="-306" rx="75.2018" ry="18"/>
<text text-anchor="middle" x="2375" y="-301.8" font-family="Times,serif" font-size="14.00">GO:0007154 (1)</text>
</a>
</g>
<!-- h0&#45;&gt;v1 -->
<g id="edge138" class="edge"><title>h0&#45;&gt;v1</title>
<path fill="none" stroke="black" d="M2369.73,-359.697C2370.5,-351.983 2371.43,-342.712 2372.29,-334.112"/>
<polygon fill="black" stroke="black" points="2375.78,-334.403 2373.29,-324.104 2368.81,-333.706 2375.78,-334.403"/>
</g>
<!-- c2&#45;&gt;b2 -->
<g id="edge154" class="edge"><title>c2&#45;&gt;b2</title>
<path fill="none" stroke="black" d="M608.185,-149.956C599.81,-147.958 591.145,-145.906 583,-144 525.844,-130.629 460.672,-115.775 413.986,-105.203"/>
<polygon fill="black" stroke="black" points="414.544,-101.741 404.018,-102.947 412.999,-108.568 414.544,-101.741"/>
</g>
<!-- p0 -->
<g id="node140" class="node"><title>p0</title>
<a xlink:href="0055114" xlink:title="GO:0055114 (3)">
<ellipse fill="#e98576" stroke="#e98576" cx="2234" cy="-450" rx="75.2018" ry="18"/>
<text text-anchor="middle" x="2234" y="-445.8" font-family="Times,serif" font-size="14.00">GO:0055114 (3)</text>
</a>
</g>
</g>
</svg>
