<?xml version="1.0" encoding="UTF-8" standalone="no"?>
<!DOCTYPE svg PUBLIC "-//W3C//DTD SVG 1.1//EN"
 "http://www.w3.org/Graphics/SVG/1.1/DTD/svg11.dtd">
<!-- Generated by graphviz version 2.28.0 (20110622.2320)
 -->
<!-- Title: G Pages: 1 -->
<svg width="3403pt" height="260pt"
 viewBox="0.00 0.00 3403.00 260.00" xmlns="http://www.w3.org/2000/svg" xmlns:xlink="http://www.w3.org/1999/xlink">
<g id="graph1" class="graph" transform="scale(1 1) rotate(0) translate(4 256)">
<title>G</title>
<polygon fill="white" stroke="white" points="-4,5 -4,-256 3400,-256 3400,5 -4,5"/>
<!-- i0 -->
<g id="node1" class="node"><title>i0</title>
<a xlink:href="0016491" xlink:title="GO:0016491 (14)">
<ellipse fill="#e98576" stroke="#e98576" cx="2136" cy="-90" rx="79.4447" ry="18"/>
<text text-anchor="middle" x="2136" y="-85.8" font-family="Times,serif" font-size="14.00">GO:0016491 (14)</text>
</a>
</g>
<!-- w0 -->
<g id="node3" class="node"><title>w0</title>
<a xlink:href="0051213" xlink:title="GO:0051213 (2)">
<ellipse fill="#e98576" stroke="#e98576" cx="2052" cy="-18" rx="75.2018" ry="18"/>
<text text-anchor="middle" x="2052" y="-13.8" font-family="Times,serif" font-size="14.00">GO:0051213 (2)</text>
</a>
</g>
<!-- i0&#45;&gt;w0 -->
<g id="edge2" class="edge"><title>i0&#45;&gt;w0</title>
<path fill="none" stroke="black" d="M2116.09,-72.411C2105.21,-63.3446 2091.57,-51.9742 2079.67,-42.0572"/>
<polygon fill="black" stroke="black" points="2081.69,-39.183 2071.76,-35.4699 2077.21,-44.5606 2081.69,-39.183"/>
</g>
<!-- a1 -->
<g id="node29" class="node"><title>a1</title>
<a xlink:href="0004497" xlink:title="GO:0004497 (1)">
<ellipse fill="#e98576" stroke="#e98576" cx="2220" cy="-18" rx="75.2018" ry="18"/>
<text text-anchor="middle" x="2220" y="-13.8" font-family="Times,serif" font-size="14.00">GO:0004497 (1)</text>
</a>
</g>
<!-- i0&#45;&gt;a1 -->
<g id="edge26" class="edge"><title>i0&#45;&gt;a1</title>
<path fill="none" stroke="black" d="M2155.91,-72.411C2166.79,-63.3446 2180.43,-51.9742 2192.33,-42.0572"/>
<polygon fill="black" stroke="black" points="2194.79,-44.5606 2200.24,-35.4699 2190.31,-39.183 2194.79,-44.5606"/>
</g>
<!-- b0 -->
<g id="node4" class="node"><title>b0</title>
<a xlink:href="0005488" xlink:title="GO:0005488">
<ellipse fill="#dddddd" stroke="#dddddd" cx="1098" cy="-162" rx="61.1934" ry="18"/>
<text text-anchor="middle" x="1098" y="-157.8" font-family="Times,serif" font-size="14.00">GO:0005488</text>
</a>
</g>
<!-- u0 -->
<g id="node6" class="node"><title>u0</title>
<a xlink:href="0008289" xlink:title="GO:0008289 (2)">
<ellipse fill="#e98576" stroke="#e98576" cx="75" cy="-90" rx="75.2018" ry="18"/>
<text text-anchor="middle" x="75" y="-85.8" font-family="Times,serif" font-size="14.00">GO:0008289 (2)</text>
</a>
</g>
<!-- b0&#45;&gt;u0 -->
<g id="edge4" class="edge"><title>b0&#45;&gt;u0</title>
<path fill="none" stroke="black" d="M1036.75,-160.574C886.544,-158.871 488.151,-150.374 159,-108 152.159,-107.119 145.04,-106 137.97,-104.758"/>
<polygon fill="black" stroke="black" points="138.152,-101.232 127.683,-102.862 136.883,-108.116 138.152,-101.232"/>
</g>
<!-- s0 -->
<g id="node15" class="node"><title>s0</title>
<a xlink:href="0005515" xlink:title="GO:0005515 (3)">
<ellipse fill="#e98576" stroke="#e98576" cx="243" cy="-90" rx="75.2018" ry="18"/>
<text text-anchor="middle" x="243" y="-85.8" font-family="Times,serif" font-size="14.00">GO:0005515 (3)</text>
</a>
</g>
<!-- b0&#45;&gt;s0 -->
<g id="edge12" class="edge"><title>b0&#45;&gt;s0</title>
<path fill="none" stroke="black" d="M1037.25,-159.529C906.709,-155.775 589.937,-143.489 327,-108 320.263,-107.091 313.256,-105.965 306.288,-104.728"/>
<polygon fill="black" stroke="black" points="306.616,-101.229 296.146,-102.849 305.341,-108.112 306.616,-101.229"/>
</g>
<!-- o0 -->
<g id="node17" class="node"><title>o0</title>
<a xlink:href="0001882" xlink:title="GO:0001882 (5)">
<ellipse fill="#e98576" stroke="#e98576" cx="411" cy="-90" rx="75.2018" ry="18"/>
<text text-anchor="middle" x="411" y="-85.8" font-family="Times,serif" font-size="14.00">GO:0001882 (5)</text>
</a>
</g>
<!-- b0&#45;&gt;o0 -->
<g id="edge14" class="edge"><title>b0&#45;&gt;o0</title>
<path fill="none" stroke="black" d="M1038.26,-157.973C929.676,-151.977 692.876,-136.627 495,-108 488.371,-107.041 481.476,-105.894 474.614,-104.654"/>
<polygon fill="black" stroke="black" points="475.091,-101.182 464.618,-102.782 473.803,-108.063 475.091,-101.182"/>
</g>
<!-- h0 -->
<g id="node19" class="node"><title>h0</title>
<a xlink:href="0008144" xlink:title="GO:0008144 (16)">
<ellipse fill="#e98576" stroke="#e98576" cx="584" cy="-90" rx="79.4447" ry="18"/>
<text text-anchor="middle" x="584" y="-85.8" font-family="Times,serif" font-size="14.00">GO:0008144 (16)</text>
</a>
</g>
<!-- b0&#45;&gt;h0 -->
<g id="edge16" class="edge"><title>b0&#45;&gt;h0</title>
<path fill="none" stroke="black" d="M1041.12,-155.09C959.441,-146.334 804.289,-128.703 673,-108 665.949,-106.888 658.602,-105.636 651.285,-104.329"/>
<polygon fill="black" stroke="black" points="651.821,-100.869 641.356,-102.52 650.567,-107.756 651.821,-100.869"/>
</g>
<!-- x0 -->
<g id="node21" class="node"><title>x0</title>
<a xlink:href="0043021" xlink:title="GO:0043021 (1)">
<ellipse fill="#e98576" stroke="#e98576" cx="757" cy="-90" rx="75.2018" ry="18"/>
<text text-anchor="middle" x="757" y="-85.8" font-family="Times,serif" font-size="14.00">GO:0043021 (1)</text>
</a>
</g>
<!-- b0&#45;&gt;x0 -->
<g id="edge18" class="edge"><title>b0&#45;&gt;x0</title>
<path fill="none" stroke="black" d="M1049.14,-150.971C989.411,-138.709 888.117,-117.916 821.891,-104.321"/>
<polygon fill="black" stroke="black" points="822.479,-100.869 811.98,-102.286 821.072,-107.726 822.479,-100.869"/>
</g>
<!-- p0 -->
<g id="node23" class="node"><title>p0</title>
<a xlink:href="0019842" xlink:title="GO:0019842 (5)">
<ellipse fill="#e98576" stroke="#e98576" cx="925" cy="-90" rx="75.2018" ry="18"/>
<text text-anchor="middle" x="925" y="-85.8" font-family="Times,serif" font-size="14.00">GO:0019842 (5)</text>
</a>
</g>
<!-- b0&#45;&gt;p0 -->
<g id="edge20" class="edge"><title>b0&#45;&gt;p0</title>
<path fill="none" stroke="black" d="M1063.41,-147.003C1036.92,-136.285 1000.12,-121.397 971.131,-109.666"/>
<polygon fill="black" stroke="black" points="972.206,-106.325 961.624,-105.819 969.581,-112.814 972.206,-106.325"/>
</g>
<!-- a0 -->
<g id="node35" class="node"><title>a0</title>
<a xlink:href="0043167" xlink:title="GO:0043167 (37)">
<ellipse fill="#e98576" stroke="#e98576" cx="1098" cy="-90" rx="79.4447" ry="18"/>
<text text-anchor="middle" x="1098" y="-85.8" font-family="Times,serif" font-size="14.00">GO:0043167 (37)</text>
</a>
</g>
<!-- b0&#45;&gt;a0 -->
<g id="edge32" class="edge"><title>b0&#45;&gt;a0</title>
<path fill="none" stroke="black" d="M1098,-143.697C1098,-135.983 1098,-126.712 1098,-118.112"/>
<polygon fill="black" stroke="black" points="1101.5,-118.104 1098,-108.104 1094.5,-118.104 1101.5,-118.104"/>
</g>
<!-- v0 -->
<g id="node44" class="node"><title>v0</title>
<a xlink:href="0003676" xlink:title="GO:0003676 (2)">
<ellipse fill="#e98576" stroke="#e98576" cx="1271" cy="-90" rx="75.2018" ry="18"/>
<text text-anchor="middle" x="1271" y="-85.8" font-family="Times,serif" font-size="14.00">GO:0003676 (2)</text>
</a>
</g>
<!-- b0&#45;&gt;v0 -->
<g id="edge42" class="edge"><title>b0&#45;&gt;v0</title>
<path fill="none" stroke="black" d="M1132.59,-147.003C1159.08,-136.285 1195.88,-121.397 1224.87,-109.666"/>
<polygon fill="black" stroke="black" points="1226.42,-112.814 1234.38,-105.819 1223.79,-106.325 1226.42,-112.814"/>
</g>
<!-- c1 -->
<g id="node46" class="node"><title>c1</title>
<a xlink:href="0046906" xlink:title="GO:0046906 (1)">
<ellipse fill="#e98576" stroke="#e98576" cx="1439" cy="-90" rx="75.2018" ry="18"/>
<text text-anchor="middle" x="1439" y="-85.8" font-family="Times,serif" font-size="14.00">GO:0046906 (1)</text>
</a>
</g>
<!-- b0&#45;&gt;c1 -->
<g id="edge44" class="edge"><title>b0&#45;&gt;c1</title>
<path fill="none" stroke="black" d="M1146.86,-150.971C1206.59,-138.709 1307.88,-117.916 1374.11,-104.321"/>
<polygon fill="black" stroke="black" points="1374.93,-107.726 1384.02,-102.286 1373.52,-100.869 1374.93,-107.726"/>
</g>
<!-- d0 -->
<g id="node49" class="node"><title>d0</title>
<a xlink:href="0000166" xlink:title="GO:0000166 (21)">
<ellipse fill="#e98576" stroke="#e98576" cx="1612" cy="-90" rx="79.4447" ry="18"/>
<text text-anchor="middle" x="1612" y="-85.8" font-family="Times,serif" font-size="14.00">GO:0000166 (21)</text>
</a>
</g>
<!-- b0&#45;&gt;d0 -->
<g id="edge48" class="edge"><title>b0&#45;&gt;d0</title>
<path fill="none" stroke="black" d="M1154.88,-155.09C1236.56,-146.334 1391.71,-128.703 1523,-108 1530.05,-106.888 1537.4,-105.636 1544.72,-104.329"/>
<polygon fill="black" stroke="black" points="1545.43,-107.756 1554.64,-102.52 1544.18,-100.869 1545.43,-107.756"/>
</g>
<!-- z0 -->
<g id="node55" class="node"><title>z0</title>
<a xlink:href="0051540" xlink:title="GO:0051540 (1)">
<ellipse fill="#e98576" stroke="#e98576" cx="1785" cy="-90" rx="75.2018" ry="18"/>
<text text-anchor="middle" x="1785" y="-85.8" font-family="Times,serif" font-size="14.00">GO:0051540 (1)</text>
</a>
</g>
<!-- b0&#45;&gt;z0 -->
<g id="edge54" class="edge"><title>b0&#45;&gt;z0</title>
<path fill="none" stroke="black" d="M1158.06,-157.897C1266.65,-151.803 1502.68,-136.331 1700,-108 1706.81,-107.023 1713.89,-105.853 1720.94,-104.59"/>
<polygon fill="black" stroke="black" points="1722,-107.952 1731.19,-102.686 1720.72,-101.07 1722,-107.952"/>
</g>
<!-- k0 -->
<g id="node57" class="node"><title>k0</title>
<a xlink:href="0048037" xlink:title="GO:0048037 (12)">
<ellipse fill="#e98576" stroke="#e98576" cx="1958" cy="-90" rx="79.4447" ry="18"/>
<text text-anchor="middle" x="1958" y="-85.8" font-family="Times,serif" font-size="14.00">GO:0048037 (12)</text>
</a>
</g>
<!-- b0&#45;&gt;k0 -->
<g id="edge56" class="edge"><title>b0&#45;&gt;k0</title>
<path fill="none" stroke="black" d="M1158.72,-159.305C1289.2,-155.12 1605.87,-142.049 1869,-108 1876.38,-107.046 1884.06,-105.864 1891.7,-104.571"/>
<polygon fill="black" stroke="black" points="1892.42,-107.997 1901.67,-102.818 1891.21,-101.103 1892.42,-107.997"/>
</g>
<!-- f0 -->
<g id="node7" class="node"><title>f0</title>
<a xlink:href="0003824" xlink:title="GO:0003824">
<ellipse fill="#dddddd" stroke="#dddddd" cx="2482" cy="-162" rx="61.1934" ry="18"/>
<text text-anchor="middle" x="2482" y="-157.8" font-family="Times,serif" font-size="14.00">GO:0003824</text>
</a>
</g>
<!-- f0&#45;&gt;i0 -->
<g id="edge46" class="edge"><title>f0&#45;&gt;i0</title>
<path fill="none" stroke="black" d="M2433.16,-151.119C2373.1,-138.967 2270.83,-118.277 2203.33,-104.622"/>
<polygon fill="black" stroke="black" points="2203.72,-101.13 2193.22,-102.577 2202.33,-107.991 2203.72,-101.13"/>
</g>
<!-- r0 -->
<g id="node9" class="node"><title>r0</title>
<a xlink:href="0016853" xlink:title="GO:0016853 (3)">
<ellipse fill="#e98576" stroke="#e98576" cx="2309" cy="-90" rx="75.2018" ry="18"/>
<text text-anchor="middle" x="2309" y="-85.8" font-family="Times,serif" font-size="14.00">GO:0016853 (3)</text>
</a>
</g>
<!-- f0&#45;&gt;r0 -->
<g id="edge6" class="edge"><title>f0&#45;&gt;r0</title>
<path fill="none" stroke="black" d="M2447.41,-147.003C2420.92,-136.285 2384.12,-121.397 2355.13,-109.666"/>
<polygon fill="black" stroke="black" points="2356.21,-106.325 2345.62,-105.819 2353.58,-112.814 2356.21,-106.325"/>
</g>
<!-- g0 -->
<g id="node25" class="node"><title>g0</title>
<a xlink:href="0016787" xlink:title="GO:0016787 (16)">
<ellipse fill="#e98576" stroke="#e98576" cx="2482" cy="-90" rx="79.4447" ry="18"/>
<text text-anchor="middle" x="2482" y="-85.8" font-family="Times,serif" font-size="14.00">GO:0016787 (16)</text>
</a>
</g>
<!-- f0&#45;&gt;g0 -->
<g id="edge36" class="edge"><title>f0&#45;&gt;g0</title>
<path fill="none" stroke="black" d="M2482,-143.697C2482,-135.983 2482,-126.712 2482,-118.112"/>
<polygon fill="black" stroke="black" points="2485.5,-118.104 2482,-108.104 2478.5,-118.104 2485.5,-118.104"/>
</g>
<!-- y0 -->
<g id="node40" class="node"><title>y0</title>
<a xlink:href="0016874" xlink:title="GO:0016874 (1)">
<ellipse fill="#e98576" stroke="#e98576" cx="2655" cy="-90" rx="75.2018" ry="18"/>
<text text-anchor="middle" x="2655" y="-85.8" font-family="Times,serif" font-size="14.00">GO:0016874 (1)</text>
</a>
</g>
<!-- f0&#45;&gt;y0 -->
<g id="edge38" class="edge"><title>f0&#45;&gt;y0</title>
<path fill="none" stroke="black" d="M2516.59,-147.003C2543.08,-136.285 2579.88,-121.397 2608.87,-109.666"/>
<polygon fill="black" stroke="black" points="2610.42,-112.814 2618.38,-105.819 2607.79,-106.325 2610.42,-112.814"/>
</g>
<!-- e0 -->
<g id="node42" class="node"><title>e0</title>
<a xlink:href="0016740" xlink:title="GO:0016740 (17)">
<ellipse fill="#e98576" stroke="#e98576" cx="2828" cy="-90" rx="79.4447" ry="18"/>
<text text-anchor="middle" x="2828" y="-85.8" font-family="Times,serif" font-size="14.00">GO:0016740 (17)</text>
</a>
</g>
<!-- f0&#45;&gt;e0 -->
<g id="edge40" class="edge"><title>f0&#45;&gt;e0</title>
<path fill="none" stroke="black" d="M2527.38,-149.815C2535.88,-147.811 2544.7,-145.793 2553,-144 2563.09,-141.82 2680.88,-119.196 2758.99,-104.22"/>
<polygon fill="black" stroke="black" points="2760.1,-107.572 2769.26,-102.252 2758.78,-100.697 2760.1,-107.572"/>
</g>
<!-- l0 -->
<g id="node51" class="node"><title>l0</title>
<a xlink:href="0016829" xlink:title="GO:0016829 (11)">
<ellipse fill="#e98576" stroke="#e98576" cx="3006" cy="-90" rx="79.4447" ry="18"/>
<text text-anchor="middle" x="3006" y="-85.8" font-family="Times,serif" font-size="14.00">GO:0016829 (11)</text>
</a>
</g>
<!-- f0&#45;&gt;l0 -->
<g id="edge50" class="edge"><title>f0&#45;&gt;l0</title>
<path fill="none" stroke="black" d="M2526.12,-149.453C2534.98,-147.413 2544.25,-145.474 2553,-144 2712.87,-117.062 2755.52,-131.068 2916,-108 2923.44,-106.93 2931.2,-105.676 2938.92,-104.341"/>
<polygon fill="black" stroke="black" points="2939.76,-107.746 2948.99,-102.55 2938.53,-100.854 2939.76,-107.746"/>
</g>
<!-- c0 -->
<g id="node10" class="node"><title>c0</title>
<a xlink:href="0003674" xlink:title="GO:0003674 (1)">
<ellipse fill="#e98576" stroke="#e98576" cx="2805" cy="-234" rx="75.2018" ry="18"/>
<text text-anchor="middle" x="2805" y="-229.8" font-family="Times,serif" font-size="14.00">GO:0003674 (1)</text>
</a>
</g>
<!-- c0&#45;&gt;b0 -->
<g id="edge22" class="edge"><title>c0&#45;&gt;b0</title>
<path fill="none" stroke="black" d="M2731.65,-229.992C2450.65,-218.469 1444.64,-177.215 1168.54,-165.893"/>
<polygon fill="black" stroke="black" points="1168.39,-162.384 1158.25,-165.471 1168.1,-169.378 1168.39,-162.384"/>
</g>
<!-- c0&#45;&gt;f0 -->
<g id="edge10" class="edge"><title>c0&#45;&gt;f0</title>
<path fill="none" stroke="black" d="M2749.35,-221.757C2698.22,-211.319 2620.39,-195.151 2553,-180 2548.03,-178.882 2542.86,-177.695 2537.69,-176.49"/>
<polygon fill="black" stroke="black" points="2538.32,-173.043 2527.79,-174.16 2536.72,-179.857 2538.32,-173.043"/>
</g>
<!-- q0 -->
<g id="node12" class="node"><title>q0</title>
<a xlink:href="0030234" xlink:title="GO:0030234 (4)">
<ellipse fill="#e98576" stroke="#e98576" cx="2637" cy="-162" rx="75.2018" ry="18"/>
<text text-anchor="middle" x="2637" y="-157.8" font-family="Times,serif" font-size="14.00">GO:0030234 (4)</text>
</a>
</g>
<!-- c0&#45;&gt;q0 -->
<g id="edge8" class="edge"><title>c0&#45;&gt;q0</title>
<path fill="none" stroke="black" d="M2769.37,-218.155C2743.95,-207.564 2709.57,-193.239 2682.22,-181.842"/>
<polygon fill="black" stroke="black" points="2683.44,-178.56 2672.87,-177.944 2680.75,-185.021 2683.44,-178.56"/>
</g>
<!-- t0 -->
<g id="node31" class="node"><title>t0</title>
<a xlink:href="0016209" xlink:title="GO:0016209 (3)">
<ellipse fill="#e98576" stroke="#e98576" cx="2805" cy="-162" rx="75.2018" ry="18"/>
<text text-anchor="middle" x="2805" y="-157.8" font-family="Times,serif" font-size="14.00">GO:0016209 (3)</text>
</a>
</g>
<!-- c0&#45;&gt;t0 -->
<g id="edge28" class="edge"><title>c0&#45;&gt;t0</title>
<path fill="none" stroke="black" d="M2805,-215.697C2805,-207.983 2805,-198.712 2805,-190.112"/>
<polygon fill="black" stroke="black" points="2808.5,-190.104 2805,-180.104 2801.5,-190.104 2808.5,-190.104"/>
</g>
<!-- j0 -->
<g id="node33" class="node"><title>j0</title>
<a xlink:href="0005215" xlink:title="GO:0005215 (12)">
<ellipse fill="#e98576" stroke="#e98576" cx="2978" cy="-162" rx="79.4447" ry="18"/>
<text text-anchor="middle" x="2978" y="-157.8" font-family="Times,serif" font-size="14.00">GO:0005215 (12)</text>
</a>
</g>
<!-- c0&#45;&gt;j0 -->
<g id="edge30" class="edge"><title>c0&#45;&gt;j0</title>
<path fill="none" stroke="black" d="M2841.69,-218.155C2867.86,-207.564 2903.27,-193.239 2931.43,-181.842"/>
<polygon fill="black" stroke="black" points="2933.11,-184.94 2941.07,-177.944 2930.48,-178.451 2933.11,-184.94"/>
</g>
<!-- b1 -->
<g id="node37" class="node"><title>b1</title>
<a xlink:href="0008369" xlink:title="GO:0008369 (1)">
<ellipse fill="#e98576" stroke="#e98576" cx="3151" cy="-162" rx="75.2018" ry="18"/>
<text text-anchor="middle" x="3151" y="-157.8" font-family="Times,serif" font-size="14.00">GO:0008369 (1)</text>
</a>
</g>
<!-- c0&#45;&gt;b1 -->
<g id="edge34" class="edge"><title>c0&#45;&gt;b1</title>
<path fill="none" stroke="black" d="M2860.59,-221.753C2921.88,-209.354 3020.39,-189.424 3085.41,-176.27"/>
<polygon fill="black" stroke="black" points="3086.44,-179.632 3095.55,-174.219 3085.05,-172.771 3086.44,-179.632"/>
</g>
<!-- m0 -->
<g id="node53" class="node"><title>m0</title>
<a xlink:href="0005198" xlink:title="GO:0005198 (6)">
<ellipse fill="#e98576" stroke="#e98576" cx="3319" cy="-162" rx="75.2018" ry="18"/>
<text text-anchor="middle" x="3319" y="-157.8" font-family="Times,serif" font-size="14.00">GO:0005198 (6)</text>
</a>
</g>
<!-- c0&#45;&gt;m0 -->
<g id="edge52" class="edge"><title>c0&#45;&gt;m0</title>
<path fill="none" stroke="black" d="M2873,-226.254C2957.96,-217.451 3107.67,-200.7 3235,-180 3241.51,-178.941 3248.29,-177.739 3255.04,-176.475"/>
<polygon fill="black" stroke="black" points="3255.73,-179.908 3264.89,-174.589 3254.41,-173.033 3255.73,-179.908"/>
</g>
<!-- n0 -->
<g id="node27" class="node"><title>n0</title>
<a xlink:href="0008233" xlink:title="GO:0008233 (6)">
<ellipse fill="#e98576" stroke="#e98576" cx="2482" cy="-18" rx="75.2018" ry="18"/>
<text text-anchor="middle" x="2482" y="-13.8" font-family="Times,serif" font-size="14.00">GO:0008233 (6)</text>
</a>
</g>
<!-- g0&#45;&gt;n0 -->
<g id="edge24" class="edge"><title>g0&#45;&gt;n0</title>
<path fill="none" stroke="black" d="M2482,-71.6966C2482,-63.9827 2482,-54.7125 2482,-46.1124"/>
<polygon fill="black" stroke="black" points="2485.5,-46.1043 2482,-36.1043 2478.5,-46.1044 2485.5,-46.1043"/>
</g>
</g>
</svg>
