<?xml version="1.0" encoding="UTF-8" standalone="no"?> 
<!DOCTYPE svg PUBLIC "-//W3C//DTD SVG 1.1//EN" 
 "http://www.w3.org/Graphics/SVG/1.1/DTD/svg11.dtd"> 
<!-- Generated by graphviz version 2.28.0 (20110622.2320) 
 --> 
<!-- Title: G Pages: 1 --> 
<svg width="2000" height="1000"  
 viewBox="-30 -50 2000 1000" xmlns="http://www.w3.org/2000/svg" xmlns:xlink="http://www.w3.org/1999/xlink"> 
<g id="graph1" class="graph" transform="scale(1 1) rotate(0) translate(4 400)"> 
<title>G</title> 
<polygon fill="white" stroke="white" points="-4,5 -4,-400 4072,-400 4072,5 -4,5"/> 
<!-- c0 --> 
<g id="node1" class="node"><title>c0</title> 
<a xlink:href="http://pir.georgetown.edu/cgi-bin/pt_graphvizView.pl?togoid=0003674" > 
<ellipse fill="#dddddd" stroke="#dddddd" cx="3216" cy="-378" rx="61.1934" ry="18"/> 
<a xlink:href="http://pir.georgetown.edu/cgi-bin/pt_graphvizView.pl?togoid=0003674" ><text id="GO:0003674" onmousemove="changeToText('GO:0003674')" onmouseout="changeBackText('GO:0003674')"  text-anchor="middle" x="3216" y="-373.8" font-family="Times,serif" font-size="14.00">GO:0003674</text></a>
 
</a> 
</g> 
<!-- s0 --> 
<g id="node3" class="node"><title>s0</title> 
<ellipse fill="#e98576" stroke="#e98576" cx="1435" cy="-306" rx="75.2018" ry="18"/> 
<a xlink:href="http://pir.georgetown.edu/cgi-bin/pt_graphvizView.pl?togoid=0030234" ><text id="GO:0030234" onmousemove="changeToText('GO:0030234')" onmouseout="changeBackText('GO:0030234')"  text-anchor="middle" x="1435" y="-306.8" font-family="Times,serif" font-size="14.00">GO:0030234</text></a>
<a xlink:href="http://pir.georgetown.edu/cgi-bin/pt_graphvizView.pl?tofile=916588" ><text id="r916588" onmousemove="changeToText2('r916588', 2)" onmouseout="changeBackText2('r916588', 2)"  text-anchor="middle" x="1435" y="-293.8" font-family="Times,serif" font-size="14.00">(2)</text>
 
</a> 
</g> 
<!-- c0&#45;&gt;s0 --> 
<g id="edge2" class="edge"><title>c0&#45;&gt;s0</title> 
<path fill="none" stroke="black" d="M3154.99,-376.453C2891.06,-373.876 1846.32,-361.468 1520,-324 1512.8,-323.174 1505.31,-322.058 1497.89,-320.789"/> 
<polygon fill="black" stroke="black" points="1498.3,-317.307 1487.84,-318.979 1497.06,-324.197 1498.3,-317.307"/> 
</g> 
<!-- b0 --> 
<g id="node4" class="node"><title>b0</title> 
<a xlink:href="http://pir.georgetown.edu/cgi-bin/pt_graphvizView.pl?togoid=0005488" > 
<ellipse fill="#dddddd" stroke="#dddddd" cx="1590" cy="-306" rx="61.1934" ry="18"/> 
<a xlink:href="http://pir.georgetown.edu/cgi-bin/pt_graphvizView.pl?togoid=0005488" ><text id="GO:0005488" onmousemove="changeToText('GO:0005488')" onmouseout="changeBackText('GO:0005488')"  text-anchor="middle" x="1590" y="-301.8" font-family="Times,serif" font-size="14.00">GO:0005488</text></a>
 
</a> 
</g> 
<!-- c0&#45;&gt;b0 --> 
<g id="edge10" class="edge"><title>c0&#45;&gt;b0</title> 
<path fill="none" stroke="black" d="M3155.71,-374.405C2903.2,-363.534 1931.15,-321.686 1660.37,-310.03"/> 
<polygon fill="black" stroke="black" points="1660.42,-306.528 1650.28,-309.595 1660.12,-313.522 1660.42,-306.528"/> 
</g> 
<!-- j0 --> 
<g id="node20" class="node"><title>j0</title> 
<ellipse fill="#e98576" stroke="#e98576" cx="3127" cy="-306" rx="79.4447" ry="18"/> 
<a xlink:href="http://pir.georgetown.edu/cgi-bin/pt_graphvizView.pl?togoid=0005215" ><text id="GO:0005215" onmousemove="changeToText('GO:0005215')" onmouseout="changeBackText('GO:0005215')"  text-anchor="middle" x="3127" y="-306.8" font-family="Times,serif" font-size="14.00">GO:0005215</text></a>
<a xlink:href="http://pir.georgetown.edu/cgi-bin/pt_graphvizView.pl?tofile=916570" ><text id="r916570" onmousemove="changeToText2('r916570', 11)" onmouseout="changeBackText2('r916570', 11)"  text-anchor="middle" x="3127" y="-293.8" font-family="Times,serif" font-size="14.00">(11)</text>
 
</a> 
</g> 
<!-- c0&#45;&gt;j0 --> 
<g id="edge18" class="edge"><title>c0&#45;&gt;j0</title> 
<path fill="none" stroke="black" d="M3195.36,-360.765C3183.65,-351.554 3168.81,-339.882 3155.95,-329.769"/> 
<polygon fill="black" stroke="black" points="3157.86,-326.821 3147.84,-323.39 3153.53,-332.323 3157.86,-326.821"/> 
</g> 
<!-- h0 --> 
<g id="node25" class="node"><title>h0</title> 
<ellipse fill="#e98576" stroke="#e98576" cx="3305" cy="-306" rx="79.4447" ry="18"/> 
<a xlink:href="http://pir.georgetown.edu/cgi-bin/pt_graphvizView.pl?togoid=0003824" ><text id="GO:0003824" onmousemove="changeToText('GO:0003824')" onmouseout="changeBackText('GO:0003824')"  text-anchor="middle" x="3305" y="-306.8" font-family="Times,serif" font-size="14.00">GO:0003824</text></a>
<a xlink:href="http://pir.georgetown.edu/cgi-bin/pt_graphvizView.pl?tofile=916568" ><text id="r916568" onmousemove="changeToText2('r916568', 12)" onmouseout="changeBackText2('r916568', 12)"  text-anchor="middle" x="3305" y="-293.8" font-family="Times,serif" font-size="14.00">(12)</text>
 
</a> 
</g> 
<!-- c0&#45;&gt;h0 --> 
<g id="edge46" class="edge"><title>c0&#45;&gt;h0</title> 
<path fill="none" stroke="black" d="M3236.64,-360.765C3248.35,-351.554 3263.19,-339.882 3276.05,-329.769"/> 
<polygon fill="black" stroke="black" points="3278.47,-332.323 3284.16,-323.39 3274.14,-326.821 3278.47,-332.323"/> 
</g> 
<!-- i0 --> 
<g id="node38" class="node"><title>i0</title> 
<ellipse fill="#e98576" stroke="#e98576" cx="3483" cy="-306" rx="79.4447" ry="18"/> 
<a xlink:href="http://pir.georgetown.edu/cgi-bin/pt_graphvizView.pl?togoid=0005198" ><text id="GO:0005198" onmousemove="changeToText('GO:0005198')" onmouseout="changeBackText('GO:0005198')"  text-anchor="middle" x="3483" y="-306.8" font-family="Times,serif" font-size="14.00">GO:0005198</text></a>
<a xlink:href="http://pir.georgetown.edu/cgi-bin/pt_graphvizView.pl?tofile=916566" ><text id="r916566" onmousemove="changeToText2('r916566', 12)" onmouseout="changeBackText2('r916566', 12)"  text-anchor="middle" x="3483" y="-293.8" font-family="Times,serif" font-size="14.00">(12)</text>
 
</a> 
</g> 
<!-- c0&#45;&gt;i0 --> 
<g id="edge36" class="edge"><title>c0&#45;&gt;i0</title> 
<path fill="none" stroke="black" d="M3260.09,-365.441C3304.57,-353.779 3373.56,-335.692 3423,-322.729"/> 
<polygon fill="black" stroke="black" points="3424.15,-326.048 3432.93,-320.127 3422.37,-319.277 3424.15,-326.048"/> 
</g> 
<!-- z0 --> 
<g id="node57" class="node"><title>z0</title> 
<a xlink:href="http://pir.georgetown.edu/cgi-bin/pt_graphvizView.pl?togoid=0060089" > 
<ellipse fill="#dddddd" stroke="#dddddd" cx="3817" cy="-306" rx="61.1934" ry="18"/> 
<a xlink:href="http://pir.georgetown.edu/cgi-bin/pt_graphvizView.pl?togoid=0060089" ><text id="GO:0060089" onmousemove="changeToText('GO:0060089')" onmouseout="changeBackText('GO:0060089')"  text-anchor="middle" x="3817" y="-301.8" font-family="Times,serif" font-size="14.00">GO:0060089</text></a>
 
</a> 
</g> 
<!-- c0&#45;&gt;z0 --> 
<g id="edge72" class="edge"><title>c0&#45;&gt;z0</title> 
<path fill="none" stroke="black" d="M3271.73,-370.509C3383,-357.549 3632.17,-328.527 3751.23,-314.661"/> 
<polygon fill="black" stroke="black" points="3751.77,-318.121 3761.3,-313.488 3750.96,-311.168 3751.77,-318.121"/> 
</g> 
<!-- a1 --> 
<g id="node6" class="node"><title>a1</title> 
<ellipse fill="#e98576" stroke="#e98576" cx="75" cy="-234" rx="75.2018" ry="18"/> 
<a xlink:href="http://pir.georgetown.edu/cgi-bin/pt_graphvizView.pl?togoid=0042277" ><text id="GO:0042277" onmousemove="changeToText('GO:0042277')" onmouseout="changeBackText('GO:0042277')"  text-anchor="middle" x="75" y="-234.8" font-family="Times,serif" font-size="14.00">GO:0042277</text></a>
<a xlink:href="http://pir.georgetown.edu/cgi-bin/pt_graphvizView.pl?tofile=916602" ><text id="r916602" onmousemove="changeToText2('r916602', 2)" onmouseout="changeBackText2('r916602', 2)"  text-anchor="middle" x="75" y="-221.8" font-family="Times,serif" font-size="14.00">(2)</text>
 
</a> 
</g> 
<!-- b0&#45;&gt;a1 --> 
<g id="edge4" class="edge"><title>b0&#45;&gt;a1</title> 
<path fill="none" stroke="black" d="M1546.71,-293.122C1537.62,-291.055 1528.05,-289.19 1519,-288 919.504,-209.173 759.795,-320.225 159,-252 151.885,-251.192 144.477,-250.087 137.137,-248.825"/> 
<polygon fill="black" stroke="black" points="137.669,-245.365 127.204,-247.021 136.417,-252.252 137.669,-245.365"/> 
</g> 
<!-- x0 --> 
<g id="node8" class="node"><title>x0</title> 
<ellipse fill="#e98576" stroke="#e98576" cx="243" cy="-234" rx="75.2018" ry="18"/> 
<a xlink:href="http://pir.georgetown.edu/cgi-bin/pt_graphvizView.pl?togoid=0033218" ><text id="GO:0033218" onmousemove="changeToText('GO:0033218')" onmouseout="changeBackText('GO:0033218')"  text-anchor="middle" x="243" y="-234.8" font-family="Times,serif" font-size="14.00">GO:0033218</text></a>
<a xlink:href="http://pir.georgetown.edu/cgi-bin/pt_graphvizView.pl?tofile=916598" ><text id="r916598" onmousemove="changeToText2('r916598', 2)" onmouseout="changeBackText2('r916598', 2)"  text-anchor="middle" x="243" y="-221.8" font-family="Times,serif" font-size="14.00">(2)</text>
 
</a> 
</g> 
<!-- b0&#45;&gt;x0 --> 
<g id="edge6" class="edge"><title>b0&#45;&gt;x0</title> 
<path fill="none" stroke="black" d="M1546.71,-293.148C1537.62,-291.079 1528.05,-289.207 1519,-288 993.634,-217.924 853.522,-312.785 327,-252 319.887,-251.179 312.479,-250.066 305.14,-248.799"/> 
<polygon fill="black" stroke="black" points="305.673,-245.339 295.207,-246.99 304.419,-252.225 305.673,-245.339"/> 
</g> 
<!-- e0 --> 
<g id="node10" class="node"><title>e0</title> 
<ellipse fill="#e98576" stroke="#e98576" cx="416" cy="-234" rx="79.4447" ry="18"/> 
<a xlink:href="http://pir.georgetown.edu/cgi-bin/pt_graphvizView.pl?togoid=0005515" ><text id="GO:0005515" onmousemove="changeToText('GO:0005515')" onmouseout="changeBackText('GO:0005515')"  text-anchor="middle" x="416" y="-234.8" font-family="Times,serif" font-size="14.00">GO:0005515</text></a>
<a xlink:href="http://pir.georgetown.edu/cgi-bin/pt_graphvizView.pl?tofile=916560" ><text id="r916560" onmousemove="changeToText2('r916560', 31)" onmouseout="changeBackText2('r916560', 31)"  text-anchor="middle" x="416" y="-221.8" font-family="Times,serif" font-size="14.00">(31)</text>
 
</a> 
</g> 
<!-- b0&#45;&gt;e0 --> 
<g id="edge8" class="edge"><title>b0&#45;&gt;e0</title> 
<path fill="none" stroke="black" d="M1546.7,-293.185C1537.61,-291.114 1528.04,-289.231 1519,-288 1072.17,-227.195 953.12,-302.452 505,-252 497.306,-251.134 489.281,-249.972 481.336,-248.661"/> 
<polygon fill="black" stroke="black" points="481.797,-245.189 471.347,-246.931 480.603,-252.086 481.797,-245.189"/> 
</g> 
<!-- g1 --> 
<g id="node13" class="node"><title>g1</title> 
<ellipse fill="#e98576" stroke="#e98576" cx="589" cy="-234" rx="75.2018" ry="18"/> 
<a xlink:href="http://pir.georgetown.edu/cgi-bin/pt_graphvizView.pl?togoid=0042562" ><text id="GO:0042562" onmousemove="changeToText('GO:0042562')" onmouseout="changeBackText('GO:0042562')"  text-anchor="middle" x="589" y="-234.8" font-family="Times,serif" font-size="14.00">GO:0042562</text></a>
<a xlink:href="http://pir.georgetown.edu/cgi-bin/pt_graphvizView.pl?tofile=916610" ><text id="r916610" onmousemove="changeToText2('r916610', 1)" onmouseout="changeBackText2('r916610', 1)"  text-anchor="middle" x="589" y="-221.8" font-family="Times,serif" font-size="14.00">(1)</text>
 
</a> 
</g> 
<!-- b0&#45;&gt;g1 --> 
<g id="edge12" class="edge"><title>b0&#45;&gt;g1</title> 
<path fill="none" stroke="black" d="M1546.7,-293.234C1537.61,-291.159 1528.04,-289.262 1519,-288 1146.28,-235.943 1046.58,-297.466 673,-252 666.153,-251.167 659.031,-250.078 651.958,-248.853"/> 
<polygon fill="black" stroke="black" points="652.135,-245.327 641.669,-246.975 650.878,-252.214 652.135,-245.327"/> 
</g> 
<!-- j1 --> 
<g id="node18" class="node"><title>j1</title> 
<ellipse fill="#e98576" stroke="#e98576" cx="757" cy="-234" rx="75.2018" ry="18"/> 
<a xlink:href="http://pir.georgetown.edu/cgi-bin/pt_graphvizView.pl?togoid=0005496" ><text id="GO:0005496" onmousemove="changeToText('GO:0005496')" onmouseout="changeBackText('GO:0005496')"  text-anchor="middle" x="757" y="-234.8" font-family="Times,serif" font-size="14.00">GO:0005496</text></a>
<a xlink:href="http://pir.georgetown.edu/cgi-bin/pt_graphvizView.pl?tofile=916614" ><text id="r916614" onmousemove="changeToText2('r916614', 1)" onmouseout="changeBackText2('r916614', 1)"  text-anchor="middle" x="757" y="-221.8" font-family="Times,serif" font-size="14.00">(1)</text>
 
</a> 
</g> 
<!-- b0&#45;&gt;j1 --> 
<g id="edge16" class="edge"><title>b0&#45;&gt;j1</title> 
<path fill="none" stroke="black" d="M1546.31,-293.221C1537.33,-291.174 1527.91,-289.292 1519,-288 1220.37,-244.688 1140.35,-290.03 841,-252 834.157,-251.131 827.038,-250.019 819.967,-248.78"/> 
<polygon fill="black" stroke="black" points="820.147,-245.255 809.679,-246.89 818.882,-252.14 820.147,-245.255"/> 
</g> 
<!-- a0 --> 
<g id="node22" class="node"><title>a0</title> 
<ellipse fill="#e98576" stroke="#e98576" cx="930" cy="-234" rx="79.4447" ry="18"/> 
<a xlink:href="http://pir.georgetown.edu/cgi-bin/pt_graphvizView.pl?togoid=0043167" ><text id="GO:0043167" onmousemove="changeToText('GO:0043167')" onmouseout="changeBackText('GO:0043167')"  text-anchor="middle" x="930" y="-234.8" font-family="Times,serif" font-size="14.00">GO:0043167</text></a>
<a xlink:href="http://pir.georgetown.edu/cgi-bin/pt_graphvizView.pl?tofile=916556" ><text id="r916556" onmousemove="changeToText2('r916556', 44)" onmouseout="changeBackText2('r916556', 44)"  text-anchor="middle" x="930" y="-221.8" font-family="Times,serif" font-size="14.00">(44)</text>
 
</a> 
</g> 
<!-- b0&#45;&gt;a0 --> 
<g id="edge20" class="edge"><title>b0&#45;&gt;a0</title> 
<path fill="none" stroke="black" d="M1546.29,-293.352C1537.31,-291.296 1527.89,-289.375 1519,-288 1298.82,-253.947 1239.91,-280.95 1019,-252 1011.63,-251.034 1003.94,-249.844 996.307,-248.547"/> 
<polygon fill="black" stroke="black" points="996.793,-245.079 986.337,-246.79 995.578,-251.973 996.793,-245.079"/> 
</g> 
<!-- i1 --> 
<g id="node24" class="node"><title>i1</title> 
<a xlink:href="http://pir.georgetown.edu/cgi-bin/pt_graphvizView.pl?togoid=0043176" > 
<ellipse fill="#dddddd" stroke="#dddddd" cx="1089" cy="-234" rx="61.1934" ry="18"/> 
<a xlink:href="http://pir.georgetown.edu/cgi-bin/pt_graphvizView.pl?togoid=0043176" ><text id="GO:0043176" onmousemove="changeToText('GO:0043176')" onmouseout="changeBackText('GO:0043176')"  text-anchor="middle" x="1089" y="-229.8" font-family="Times,serif" font-size="14.00">GO:0043176</text></a>
 
</a> 
</g> 
<!-- b0&#45;&gt;i1 --> 
<g id="edge22" class="edge"><title>b0&#45;&gt;i1</title> 
<path fill="none" stroke="black" d="M1545.88,-293.46C1537.02,-291.42 1527.75,-289.479 1519,-288 1360.89,-261.269 1318.11,-278.731 1160,-252 1154.53,-251.076 1148.86,-249.971 1143.21,-248.774"/> 
<polygon fill="black" stroke="black" points="1143.64,-245.285 1133.12,-246.54 1142.13,-252.119 1143.64,-245.285"/> 
</g> 
<!-- k1 --> 
<g id="node28" class="node"><title>k1</title> 
<ellipse fill="#e98576" stroke="#e98576" cx="1244" cy="-234" rx="75.2018" ry="18"/> 
<a xlink:href="http://pir.georgetown.edu/cgi-bin/pt_graphvizView.pl?togoid=0030246" ><text id="GO:0030246" onmousemove="changeToText('GO:0030246')" onmouseout="changeBackText('GO:0030246')"  text-anchor="middle" x="1244" y="-234.8" font-family="Times,serif" font-size="14.00">GO:0030246</text></a>
<a xlink:href="http://pir.georgetown.edu/cgi-bin/pt_graphvizView.pl?tofile=916616" ><text id="r916616" onmousemove="changeToText2('r916616', 1)" onmouseout="changeBackText2('r916616', 1)"  text-anchor="middle" x="1244" y="-221.8" font-family="Times,serif" font-size="14.00">(1)</text>
 
</a> 
</g> 
<!-- b0&#45;&gt;k1 --> 
<g id="edge26" class="edge"><title>b0&#45;&gt;k1</title> 
<path fill="none" stroke="black" d="M1544.62,-293.787C1536.13,-291.786 1527.3,-289.776 1519,-288 1434.53,-269.937 1412.78,-268.568 1328,-252 1321.87,-250.801 1315.49,-249.539 1309.1,-248.265"/> 
<polygon fill="black" stroke="black" points="1309.6,-244.795 1299.1,-246.262 1308.22,-251.658 1309.6,-244.795"/> 
</g> 
<!-- k0 --> 
<g id="node32" class="node"><title>k0</title> 
<ellipse fill="#e98576" stroke="#e98576" cx="1417" cy="-234" rx="79.4447" ry="18"/> 
<a xlink:href="http://pir.georgetown.edu/cgi-bin/pt_graphvizView.pl?togoid=0003676" ><text id="GO:0003676" onmousemove="changeToText('GO:0003676')" onmouseout="changeBackText('GO:0003676')"  text-anchor="middle" x="1417" y="-234.8" font-family="Times,serif" font-size="14.00">GO:0003676</text></a>
<a xlink:href="http://pir.georgetown.edu/cgi-bin/pt_graphvizView.pl?tofile=916572" ><text id="r916572" onmousemove="changeToText2('r916572', 11)" onmouseout="changeBackText2('r916572', 11)"  text-anchor="middle" x="1417" y="-221.8" font-family="Times,serif" font-size="14.00">(11)</text>
 
</a> 
</g> 
<!-- b0&#45;&gt;k0 --> 
<g id="edge30" class="edge"><title>b0&#45;&gt;k0</title> 
<path fill="none" stroke="black" d="M1555.41,-291.003C1529.01,-280.321 1492.37,-265.497 1463.42,-253.784"/> 
<polygon fill="black" stroke="black" points="1464.51,-250.447 1453.93,-249.941 1461.88,-256.936 1464.51,-250.447"/> 
</g> 
<!-- n0 --> 
<g id="node40" class="node"><title>n0</title> 
<ellipse fill="#e98576" stroke="#e98576" cx="1590" cy="-234" rx="75.2018" ry="18"/> 
<a xlink:href="http://pir.georgetown.edu/cgi-bin/pt_graphvizView.pl?togoid=0048037" ><text id="GO:0048037" onmousemove="changeToText('GO:0048037')" onmouseout="changeBackText('GO:0048037')"  text-anchor="middle" x="1590" y="-234.8" font-family="Times,serif" font-size="14.00">GO:0048037</text></a>
<a xlink:href="http://pir.georgetown.edu/cgi-bin/pt_graphvizView.pl?tofile=916578" ><text id="r916578" onmousemove="changeToText2('r916578', 7)" onmouseout="changeBackText2('r916578', 7)"  text-anchor="middle" x="1590" y="-221.8" font-family="Times,serif" font-size="14.00">(7)</text>
 
</a> 
</g> 
<!-- b0&#45;&gt;n0 --> 
<g id="edge38" class="edge"><title>b0&#45;&gt;n0</title> 
<path fill="none" stroke="black" d="M1590,-287.697C1590,-279.983 1590,-270.712 1590,-262.112"/> 
<polygon fill="black" stroke="black" points="1593.5,-262.104 1590,-252.104 1586.5,-262.104 1593.5,-262.104"/> 
</g> 
<!-- r0 --> 
<g id="node42" class="node"><title>r0</title> 
<ellipse fill="#e98576" stroke="#e98576" cx="1758" cy="-234" rx="75.2018" ry="18"/> 
<a xlink:href="http://pir.georgetown.edu/cgi-bin/pt_graphvizView.pl?togoid=0008289" ><text id="GO:0008289" onmousemove="changeToText('GO:0008289')" onmouseout="changeBackText('GO:0008289')"  text-anchor="middle" x="1758" y="-234.8" font-family="Times,serif" font-size="14.00">GO:0008289</text></a>
<a xlink:href="http://pir.georgetown.edu/cgi-bin/pt_graphvizView.pl?tofile=916586" ><text id="r916586" onmousemove="changeToText2('r916586', 3)" onmouseout="changeBackText2('r916586', 3)"  text-anchor="middle" x="1758" y="-221.8" font-family="Times,serif" font-size="14.00">(3)</text>
 
</a> 
</g> 
<!-- b0&#45;&gt;r0 --> 
<g id="edge40" class="edge"><title>b0&#45;&gt;r0</title> 
<path fill="none" stroke="black" d="M1624,-290.834C1649.56,-280.185 1684.82,-265.49 1712.76,-253.848"/> 
<polygon fill="black" stroke="black" points="1714.43,-256.946 1722.31,-249.869 1711.74,-250.485 1714.43,-256.946"/> 
</g> 
<!-- f0 --> 
<g id="node50" class="node"><title>f0</title> 
<ellipse fill="#e98576" stroke="#e98576" cx="1931" cy="-234" rx="79.4447" ry="18"/> 
<a xlink:href="http://pir.georgetown.edu/cgi-bin/pt_graphvizView.pl?togoid=0001882" ><text id="GO:0001882" onmousemove="changeToText('GO:0001882')" onmouseout="changeBackText('GO:0001882')"  text-anchor="middle" x="1931" y="-234.8" font-family="Times,serif" font-size="14.00">GO:0001882</text></a>
<a xlink:href="http://pir.georgetown.edu/cgi-bin/pt_graphvizView.pl?tofile=916562" ><text id="r916562" onmousemove="changeToText2('r916562', 28)" onmouseout="changeBackText2('r916562', 28)"  text-anchor="middle" x="1931" y="-221.8" font-family="Times,serif" font-size="14.00">(28)</text>
 
</a> 
</g> 
<!-- b0&#45;&gt;f0 --> 
<g id="edge48" class="edge"><title>b0&#45;&gt;f0</title> 
<path fill="none" stroke="black" d="M1638.86,-294.971C1698.06,-282.817 1798.1,-262.281 1864.35,-248.681"/> 
<polygon fill="black" stroke="black" points="1865.19,-252.083 1874.28,-246.644 1863.78,-245.226 1865.19,-252.083"/> 
</g> 
<!-- u0 --> 
<g id="node52" class="node"><title>u0</title> 
<ellipse fill="#e98576" stroke="#e98576" cx="2104" cy="-234" rx="75.2018" ry="18"/> 
<a xlink:href="http://pir.georgetown.edu/cgi-bin/pt_graphvizView.pl?togoid=0008144" ><text id="GO:0008144" onmousemove="changeToText('GO:0008144')" onmouseout="changeBackText('GO:0008144')"  text-anchor="middle" x="2104" y="-234.8" font-family="Times,serif" font-size="14.00">GO:0008144</text></a>
<a xlink:href="http://pir.georgetown.edu/cgi-bin/pt_graphvizView.pl?tofile=916592" ><text id="r916592" onmousemove="changeToText2('r916592', 2)" onmouseout="changeBackText2('r916592', 2)"  text-anchor="middle" x="2104" y="-221.8" font-family="Times,serif" font-size="14.00">(2)</text>
 
</a> 
</g> 
<!-- b0&#45;&gt;u0 --> 
<g id="edge50" class="edge"><title>b0&#45;&gt;u0</title> 
<path fill="none" stroke="black" d="M1647.09,-299.314C1729.48,-290.799 1886.39,-273.422 2019,-252 2025.69,-250.92 2032.65,-249.694 2039.59,-248.406"/> 
<polygon fill="black" stroke="black" points="2040.52,-251.791 2049.7,-246.487 2039.22,-244.914 2040.52,-251.791"/> 
</g> 
<!-- w0 --> 
<g id="node54" class="node"><title>w0</title> 
<ellipse fill="#e98576" stroke="#e98576" cx="2272" cy="-234" rx="75.2018" ry="18"/> 
<a xlink:href="http://pir.georgetown.edu/cgi-bin/pt_graphvizView.pl?togoid=0019842" ><text id="GO:0019842" onmousemove="changeToText('GO:0019842')" onmouseout="changeBackText('GO:0019842')"  text-anchor="middle" x="2272" y="-234.8" font-family="Times,serif" font-size="14.00">GO:0019842</text></a>
<a xlink:href="http://pir.georgetown.edu/cgi-bin/pt_graphvizView.pl?tofile=916596" ><text id="r916596" onmousemove="changeToText2('r916596', 2)" onmouseout="changeBackText2('r916596', 2)"  text-anchor="middle" x="2272" y="-221.8" font-family="Times,serif" font-size="14.00">(2)</text>
 
</a> 
</g> 
<!-- b0&#45;&gt;w0 --> 
<g id="edge52" class="edge"><title>b0&#45;&gt;w0</title> 
<path fill="none" stroke="black" d="M1649.67,-301.916C1757.54,-295.852 1992.02,-280.426 2188,-252 2194.63,-251.039 2201.52,-249.89 2208.39,-248.649"/> 
<polygon fill="black" stroke="black" points="2209.2,-252.058 2218.38,-246.776 2207.91,-245.177 2209.2,-252.058"/> 
</g> 
<!-- q0 --> 
<g id="node61" class="node"><title>q0</title> 
<ellipse fill="#e98576" stroke="#e98576" cx="2440" cy="-234" rx="75.2018" ry="18"/> 
<a xlink:href="http://pir.georgetown.edu/cgi-bin/pt_graphvizView.pl?togoid=0031406" ><text id="GO:0031406" onmousemove="changeToText('GO:0031406')" onmouseout="changeBackText('GO:0031406')"  text-anchor="middle" x="2440" y="-234.8" font-family="Times,serif" font-size="14.00">GO:0031406</text></a>
<a xlink:href="http://pir.georgetown.edu/cgi-bin/pt_graphvizView.pl?tofile=916584" ><text id="r916584" onmousemove="changeToText2('r916584', 3)" onmouseout="changeBackText2('r916584', 3)"  text-anchor="middle" x="2440" y="-221.8" font-family="Times,serif" font-size="14.00">(3)</text>
 
</a> 
</g> 
<!-- b0&#45;&gt;q0 --> 
<g id="edge58" class="edge"><title>b0&#45;&gt;q0</title> 
<path fill="none" stroke="black" d="M1650.85,-303.488C1780.85,-299.666 2095.1,-287.273 2356,-252 2362.74,-251.089 2369.74,-249.962 2376.71,-248.725"/> 
<polygon fill="black" stroke="black" points="2377.66,-252.109 2386.85,-246.846 2376.38,-245.226 2377.66,-252.109"/> 
</g> 
<!-- d0 --> 
<g id="node68" class="node"><title>d0</title> 
<ellipse fill="#e98576" stroke="#e98576" cx="2613" cy="-234" rx="79.4447" ry="18"/> 
<a xlink:href="http://pir.georgetown.edu/cgi-bin/pt_graphvizView.pl?togoid=0000166" ><text id="GO:0000166" onmousemove="changeToText('GO:0000166')" onmouseout="changeBackText('GO:0000166')"  text-anchor="middle" x="2613" y="-234.8" font-family="Times,serif" font-size="14.00">GO:0000166</text></a>
<a xlink:href="http://pir.georgetown.edu/cgi-bin/pt_graphvizView.pl?tofile=916558" ><text id="r916558" onmousemove="changeToText2('r916558', 35)" onmouseout="changeBackText2('r916558', 35)"  text-anchor="middle" x="2613" y="-221.8" font-family="Times,serif" font-size="14.00">(35)</text>
 
</a> 
</g> 
<!-- b0&#45;&gt;d0 --> 
<g id="edge66" class="edge"><title>b0&#45;&gt;d0</title> 
<path fill="none" stroke="black" d="M1651.17,-304.319C1800.72,-302.048 2196.58,-292.381 2524,-252 2531.57,-251.066 2539.47,-249.875 2547.3,-248.559"/> 
<polygon fill="black" stroke="black" points="2547.91,-252.006 2557.16,-246.834 2546.7,-245.111 2547.91,-252.006"/> 
</g> 
<!-- t0 --> 
<g id="node72" class="node"><title>t0</title> 
<ellipse fill="#e98576" stroke="#e98576" cx="2786" cy="-234" rx="75.2018" ry="18"/> 
<a xlink:href="http://pir.georgetown.edu/cgi-bin/pt_graphvizView.pl?togoid=0051540" ><text id="GO:0051540" onmousemove="changeToText('GO:0051540')" onmouseout="changeBackText('GO:0051540')"  text-anchor="middle" x="2786" y="-234.8" font-family="Times,serif" font-size="14.00">GO:0051540</text></a>
<a xlink:href="http://pir.georgetown.edu/cgi-bin/pt_graphvizView.pl?tofile=916590" ><text id="r916590" onmousemove="changeToText2('r916590', 2)" onmouseout="changeBackText2('r916590', 2)"  text-anchor="middle" x="2786" y="-221.8" font-family="Times,serif" font-size="14.00">(2)</text>
 
</a> 
</g> 
<!-- b0&#45;&gt;t0 --> 
<g id="edge70" class="edge"><title>b0&#45;&gt;t0</title> 
<path fill="none" stroke="black" d="M1651.39,-305.287C1819.82,-305.382 2303.08,-301.004 2701,-252 2708.19,-251.115 2715.68,-249.962 2723.1,-248.673"/> 
<polygon fill="black" stroke="black" points="2723.94,-252.078 2733.15,-246.843 2722.68,-245.191 2723.94,-252.078"/> 
</g> 
<!-- g0 --> 
<g id="node14" class="node"><title>g0</title> 
<ellipse fill="#e98576" stroke="#e98576" cx="2959" cy="-234" rx="79.4447" ry="18"/> 
<a xlink:href="http://pir.georgetown.edu/cgi-bin/pt_graphvizView.pl?togoid=0016787" ><text id="GO:0016787" onmousemove="changeToText('GO:0016787')" onmouseout="changeBackText('GO:0016787')"  text-anchor="middle" x="2959" y="-234.8" font-family="Times,serif" font-size="14.00">GO:0016787</text></a>
<a xlink:href="http://pir.georgetown.edu/cgi-bin/pt_graphvizView.pl?tofile=916564" ><text id="r916564" onmousemove="changeToText2('r916564', 19)" onmouseout="changeBackText2('r916564', 19)"  text-anchor="middle" x="2959" y="-221.8" font-family="Times,serif" font-size="14.00">(19)</text>
 
</a> 
</g> 
<!-- v0 --> 
<g id="node16" class="node"><title>v0</title> 
<ellipse fill="#e98576" stroke="#e98576" cx="2959" cy="-162" rx="75.2018" ry="18"/> 
<a xlink:href="http://pir.georgetown.edu/cgi-bin/pt_graphvizView.pl?togoid=0008233" ><text id="GO:0008233" onmousemove="changeToText('GO:0008233')" onmouseout="changeBackText('GO:0008233')"  text-anchor="middle" x="2959" y="-162.8" font-family="Times,serif" font-size="14.00">GO:0008233</text></a>
<a xlink:href="http://pir.georgetown.edu/cgi-bin/pt_graphvizView.pl?tofile=916594" ><text id="r916594" onmousemove="changeToText2('r916594', 2)" onmouseout="changeBackText2('r916594', 2)"  text-anchor="middle" x="2959" y="-149.8" font-family="Times,serif" font-size="14.00">(2)</text>
 
</a> 
</g> 
<!-- g0&#45;&gt;v0 --> 
<g id="edge14" class="edge"><title>g0&#45;&gt;v0</title> 
<path fill="none" stroke="black" d="M2959,-215.697C2959,-207.983 2959,-198.712 2959,-190.112"/> 
<polygon fill="black" stroke="black" points="2962.5,-190.104 2959,-180.104 2955.5,-190.104 2962.5,-190.104"/> 
</g> 
<!-- h1 --> 
<g id="node56" class="node"><title>h1</title> 
<ellipse fill="#e98576" stroke="#e98576" cx="1089" cy="-162" rx="75.2018" ry="18"/> 
<a xlink:href="http://pir.georgetown.edu/cgi-bin/pt_graphvizView.pl?togoid=0016597" ><text id="GO:0016597" onmousemove="changeToText('GO:0016597')" onmouseout="changeBackText('GO:0016597')"  text-anchor="middle" x="1089" y="-162.8" font-family="Times,serif" font-size="14.00">GO:0016597</text></a>
<a xlink:href="http://pir.georgetown.edu/cgi-bin/pt_graphvizView.pl?tofile=916612" ><text id="r916612" onmousemove="changeToText2('r916612', 1)" onmouseout="changeBackText2('r916612', 1)"  text-anchor="middle" x="1089" y="-149.8" font-family="Times,serif" font-size="14.00">(1)</text>
 
</a> 
</g> 
<!-- i1&#45;&gt;h1 --> 
<g id="edge54" class="edge"><title>i1&#45;&gt;h1</title> 
<path fill="none" stroke="black" d="M1089,-215.697C1089,-207.983 1089,-198.712 1089,-190.112"/> 
<polygon fill="black" stroke="black" points="1092.5,-190.104 1089,-180.104 1085.5,-190.104 1092.5,-190.104"/> 
</g> 
<!-- h0&#45;&gt;g0 --> 
<g id="edge24" class="edge"><title>h0&#45;&gt;g0</title> 
<path fill="none" stroke="black" d="M3247.87,-293.441C3187.01,-281.13 3090.76,-261.657 3026.28,-248.613"/> 
<polygon fill="black" stroke="black" points="3026.72,-245.129 3016.22,-246.576 3025.33,-251.99 3026.72,-245.129"/> 
</g> 
<!-- p0 --> 
<g id="node30" class="node"><title>p0</title> 
<ellipse fill="#e98576" stroke="#e98576" cx="3132" cy="-234" rx="75.2018" ry="18"/> 
<a xlink:href="http://pir.georgetown.edu/cgi-bin/pt_graphvizView.pl?togoid=0016874" ><text id="GO:0016874" onmousemove="changeToText('GO:0016874')" onmouseout="changeBackText('GO:0016874')"  text-anchor="middle" x="3132" y="-234.8" font-family="Times,serif" font-size="14.00">GO:0016874</text></a>
<a xlink:href="http://pir.georgetown.edu/cgi-bin/pt_graphvizView.pl?tofile=916582" ><text id="r916582" onmousemove="changeToText2('r916582', 3)" onmouseout="changeBackText2('r916582', 3)"  text-anchor="middle" x="3132" y="-221.8" font-family="Times,serif" font-size="14.00">(3)</text>
 
</a> 
</g> 
<!-- h0&#45;&gt;p0 --> 
<g id="edge28" class="edge"><title>h0&#45;&gt;p0</title> 
<path fill="none" stroke="black" d="M3267.89,-289.983C3241.6,-279.346 3206.16,-265.006 3178.06,-253.638"/> 
<polygon fill="black" stroke="black" points="3179.04,-250.258 3168.46,-249.752 3176.41,-256.747 3179.04,-250.258"/> 
</g> 
<!-- m0 --> 
<g id="node34" class="node"><title>m0</title> 
<ellipse fill="#e98576" stroke="#e98576" cx="3305" cy="-234" rx="79.4447" ry="18"/> 
<a xlink:href="http://pir.georgetown.edu/cgi-bin/pt_graphvizView.pl?togoid=0016491" ><text id="GO:0016491" onmousemove="changeToText('GO:0016491')" onmouseout="changeBackText('GO:0016491')"  text-anchor="middle" x="3305" y="-234.8" font-family="Times,serif" font-size="14.00">GO:0016491</text></a>
<a xlink:href="http://pir.georgetown.edu/cgi-bin/pt_graphvizView.pl?tofile=916576" ><text id="r916576" onmousemove="changeToText2('r916576', 10)" onmouseout="changeBackText2('r916576', 10)"  text-anchor="middle" x="3305" y="-221.8" font-family="Times,serif" font-size="14.00">(10)</text>
 
</a> 
</g> 
<!-- h0&#45;&gt;m0 --> 
<g id="edge32" class="edge"><title>h0&#45;&gt;m0</title> 
<path fill="none" stroke="black" d="M3305,-287.697C3305,-279.983 3305,-270.712 3305,-262.112"/> 
<polygon fill="black" stroke="black" points="3308.5,-262.104 3305,-252.104 3301.5,-262.104 3308.5,-262.104"/> 
</g> 
<!-- c1 --> 
<g id="node36" class="node"><title>c1</title> 
<ellipse fill="#e98576" stroke="#e98576" cx="3478" cy="-234" rx="75.2018" ry="18"/> 
<a xlink:href="http://pir.georgetown.edu/cgi-bin/pt_graphvizView.pl?togoid=0004386" ><text id="GO:0004386" onmousemove="changeToText('GO:0004386')" onmouseout="changeBackText('GO:0004386')"  text-anchor="middle" x="3478" y="-234.8" font-family="Times,serif" font-size="14.00">GO:0004386</text></a>
<a xlink:href="http://pir.georgetown.edu/cgi-bin/pt_graphvizView.pl?tofile=916606" ><text id="r916606" onmousemove="changeToText2('r916606', 1)" onmouseout="changeBackText2('r916606', 1)"  text-anchor="middle" x="3478" y="-221.8" font-family="Times,serif" font-size="14.00">(1)</text>
 
</a> 
</g> 
<!-- h0&#45;&gt;c1 --> 
<g id="edge34" class="edge"><title>h0&#45;&gt;c1</title> 
<path fill="none" stroke="black" d="M3342.11,-289.983C3368.4,-279.346 3403.84,-265.006 3431.94,-253.638"/> 
<polygon fill="black" stroke="black" points="3433.59,-256.747 3441.54,-249.752 3430.96,-250.258 3433.59,-256.747"/> 
</g> 
<!-- l0 --> 
<g id="node66" class="node"><title>l0</title> 
<ellipse fill="#e98576" stroke="#e98576" cx="3651" cy="-234" rx="79.4447" ry="18"/> 
<a xlink:href="http://pir.georgetown.edu/cgi-bin/pt_graphvizView.pl?togoid=0016740" ><text id="GO:0016740" onmousemove="changeToText('GO:0016740')" onmouseout="changeBackText('GO:0016740')"  text-anchor="middle" x="3651" y="-234.8" font-family="Times,serif" font-size="14.00">GO:0016740</text></a>
<a xlink:href="http://pir.georgetown.edu/cgi-bin/pt_graphvizView.pl?tofile=916574" ><text id="r916574" onmousemove="changeToText2('r916574', 10)" onmouseout="changeBackText2('r916574', 10)"  text-anchor="middle" x="3651" y="-221.8" font-family="Times,serif" font-size="14.00">(10)</text>
 
</a> 
</g> 
<!-- h0&#45;&gt;l0 --> 
<g id="edge64" class="edge"><title>h0&#45;&gt;l0</title> 
<path fill="none" stroke="black" d="M3362.13,-293.441C3422.99,-281.13 3519.24,-261.657 3583.72,-248.613"/> 
<polygon fill="black" stroke="black" points="3584.67,-251.99 3593.78,-246.576 3583.28,-245.129 3584.67,-251.99"/> 
</g> 
<!-- o0 --> 
<g id="node70" class="node"><title>o0</title> 
<ellipse fill="#e98576" stroke="#e98576" cx="3824" cy="-234" rx="75.2018" ry="18"/> 
<a xlink:href="http://pir.georgetown.edu/cgi-bin/pt_graphvizView.pl?togoid=0016829" ><text id="GO:0016829" onmousemove="changeToText('GO:0016829')" onmouseout="changeBackText('GO:0016829')"  text-anchor="middle" x="3824" y="-234.8" font-family="Times,serif" font-size="14.00">GO:0016829</text></a>
<a xlink:href="http://pir.georgetown.edu/cgi-bin/pt_graphvizView.pl?tofile=916580" ><text id="r916580" onmousemove="changeToText2('r916580', 4)" onmouseout="changeBackText2('r916580', 4)"  text-anchor="middle" x="3824" y="-221.8" font-family="Times,serif" font-size="14.00">(4)</text>
 
</a> 
</g> 
<!-- h0&#45;&gt;o0 --> 
<g id="edge68" class="edge"><title>h0&#45;&gt;o0</title> 
<path fill="none" stroke="black" d="M3361.85,-293.397C3372.51,-291.434 3383.57,-289.537 3394,-288 3546.52,-265.518 3586.58,-275.142 3739,-252 3745.8,-250.968 3752.88,-249.763 3759.92,-248.479"/> 
<polygon fill="black" stroke="black" points="3760.99,-251.839 3770.18,-246.553 3759.7,-244.959 3760.99,-251.839"/> 
</g> 
<!-- f1 --> 
<g id="node44" class="node"><title>f1</title> 
<a xlink:href="http://pir.georgetown.edu/cgi-bin/pt_graphvizView.pl?togoid=0016879" > 
<ellipse fill="#dddddd" stroke="#dddddd" cx="3132" cy="-162" rx="61.1934" ry="18"/> 
<a xlink:href="http://pir.georgetown.edu/cgi-bin/pt_graphvizView.pl?togoid=0016879" ><text id="GO:0016879" onmousemove="changeToText('GO:0016879')" onmouseout="changeBackText('GO:0016879')"  text-anchor="middle" x="3132" y="-157.8" font-family="Times,serif" font-size="14.00">GO:0016879</text></a>
 
</a> 
</g> 
<!-- p0&#45;&gt;f1 --> 
<g id="edge42" class="edge"><title>p0&#45;&gt;f1</title> 
<path fill="none" stroke="black" d="M3132,-215.697C3132,-207.983 3132,-198.712 3132,-190.112"/> 
<polygon fill="black" stroke="black" points="3135.5,-190.104 3132,-180.104 3128.5,-190.104 3135.5,-190.104"/> 
</g> 
<!-- b1 --> 
<g id="node63" class="node"><title>b1</title> 
<ellipse fill="#e98576" stroke="#e98576" cx="3305" cy="-162" rx="75.2018" ry="18"/> 
<a xlink:href="http://pir.georgetown.edu/cgi-bin/pt_graphvizView.pl?togoid=0009055" ><text id="GO:0009055" onmousemove="changeToText('GO:0009055')" onmouseout="changeBackText('GO:0009055')"  text-anchor="middle" x="3305" y="-162.8" font-family="Times,serif" font-size="14.00">GO:0009055</text></a>
<a xlink:href="http://pir.georgetown.edu/cgi-bin/pt_graphvizView.pl?tofile=916604" ><text id="r916604" onmousemove="changeToText2('r916604', 1)" onmouseout="changeBackText2('r916604', 1)"  text-anchor="middle" x="3305" y="-149.8" font-family="Times,serif" font-size="14.00">(1)</text>
 
</a> 
</g> 
<!-- m0&#45;&gt;b1 --> 
<g id="edge60" class="edge"><title>m0&#45;&gt;b1</title> 
<path fill="none" stroke="black" d="M3305,-215.697C3305,-207.983 3305,-198.712 3305,-190.112"/> 
<polygon fill="black" stroke="black" points="3308.5,-190.104 3305,-180.104 3301.5,-190.104 3308.5,-190.104"/> 
</g> 
<!-- e1 --> 
<g id="node45" class="node"><title>e1</title> 
<a xlink:href="http://pir.georgetown.edu/cgi-bin/pt_graphvizView.pl?togoid=0016881" > 
<ellipse fill="#dddddd" stroke="#dddddd" cx="3132" cy="-90" rx="61.1934" ry="18"/> 
<a xlink:href="http://pir.georgetown.edu/cgi-bin/pt_graphvizView.pl?togoid=0016881" ><text id="GO:0016881" onmousemove="changeToText('GO:0016881')" onmouseout="changeBackText('GO:0016881')"  text-anchor="middle" x="3132" y="-85.8" font-family="Times,serif" font-size="14.00">GO:0016881</text></a>
 
</a> 
</g> 
<!-- f1&#45;&gt;e1 --> 
<g id="edge62" class="edge"><title>f1&#45;&gt;e1</title> 
<path fill="none" stroke="black" d="M3132,-143.697C3132,-135.983 3132,-126.712 3132,-118.112"/> 
<polygon fill="black" stroke="black" points="3135.5,-118.104 3132,-108.104 3128.5,-118.104 3135.5,-118.104"/> 
</g> 
<!-- d1 --> 
<g id="node47" class="node"><title>d1</title> 
<ellipse fill="#e98576" stroke="#e98576" cx="3132" cy="-18" rx="75.2018" ry="18"/> 
<a xlink:href="http://pir.georgetown.edu/cgi-bin/pt_graphvizView.pl?togoid=0019787" ><text id="GO:0019787" onmousemove="changeToText('GO:0019787')" onmouseout="changeBackText('GO:0019787')"  text-anchor="middle" x="3132" y="-18.8" font-family="Times,serif" font-size="14.00">GO:0019787</text></a>
<a xlink:href="http://pir.georgetown.edu/cgi-bin/pt_graphvizView.pl?tofile=916608" ><text id="r916608" onmousemove="changeToText2('r916608', 1)" onmouseout="changeBackText2('r916608', 1)"  text-anchor="middle" x="3132" y="-5.8" font-family="Times,serif" font-size="14.00">(1)</text>
 
</a> 
</g> 
<!-- e1&#45;&gt;d1 --> 
<g id="edge44" class="edge"><title>e1&#45;&gt;d1</title> 
<path fill="none" stroke="black" d="M3132,-71.6966C3132,-63.9827 3132,-54.7125 3132,-46.1124"/> 
<polygon fill="black" stroke="black" points="3135.5,-46.1043 3132,-36.1043 3128.5,-46.1044 3135.5,-46.1043"/> 
</g> 
<!-- y0 --> 
<g id="node59" class="node"><title>y0</title> 
<ellipse fill="#e98576" stroke="#e98576" cx="3992" cy="-234" rx="75.2018" ry="18"/> 
<a xlink:href="http://pir.georgetown.edu/cgi-bin/pt_graphvizView.pl?togoid=0004871" ><text id="GO:0004871" onmousemove="changeToText('GO:0004871')" onmouseout="changeBackText('GO:0004871')"  text-anchor="middle" x="3992" y="-234.8" font-family="Times,serif" font-size="14.00">GO:0004871</text></a>
<a xlink:href="http://pir.georgetown.edu/cgi-bin/pt_graphvizView.pl?tofile=916600" ><text id="r916600" onmousemove="changeToText2('r916600', 2)" onmouseout="changeBackText2('r916600', 2)"  text-anchor="middle" x="3992" y="-221.8" font-family="Times,serif" font-size="14.00">(2)</text>
 
</a> 
</g> 
<!-- z0&#45;&gt;y0 --> 
<g id="edge56" class="edge"><title>z0&#45;&gt;y0</title> 
<path fill="none" stroke="black" d="M3851.99,-291.003C3878.88,-280.249 3916.26,-265.297 3945.63,-253.548"/> 
<polygon fill="black" stroke="black" points="3947.27,-256.661 3955.26,-249.697 3944.67,-250.161 3947.27,-256.661"/> 
</g> 
</g> 
<text text-anchor="left" x="4" y="-20" style="font-family:Arial Narrow;font-size:20.00;font-weight:bold;">GO Hierarchical View:</text> 

<text text-anchor="left" x="4" y="0" style="font-family:Arial Narrow;font-size:20.00;font-style:italic;">molecular function</text> 

<script type="text/ecmascript"> 
<![CDATA[ 
var targetText; 
function changeToText(z) { 
		targetText = svgDocument.getElementById(z).firstChild; 
		targetText.nodeValue="link to "+z; 
} 
function changeBackText(z) { 
		targetText = svgDocument.getElementById(z).firstChild; 
		targetText.nodeValue=z; 
} 
function changeToText2(z,n) { 
		targetText = svgDocument.getElementById(z).firstChild; 
		if (n<=1) { 
			targetText.nodeValue="link to " + n + " protein record"; 
		} else { 
			targetText.nodeValue="link to " + n + " protein records"; 
		} 
} 
function changeBackText2(z,n) { 
		targetText = svgDocument.getElementById(z).firstChild; 
		targetText.nodeValue="(" + n + ")"; 
} 
// ]]> 
</script> 
</svg> 
