<?xml version="1.0" encoding="UTF-8" standalone="no"?>
<!DOCTYPE svg PUBLIC "-//W3C//DTD SVG 1.1//EN"
 "http://www.w3.org/Graphics/SVG/1.1/DTD/svg11.dtd">
<!-- Generated by graphviz version 2.28.0 (20110622.2320)
 -->
<!-- Title: G Pages: 1 -->
<svg width="3597pt" height="260pt"
 viewBox="0.00 0.00 3597.00 260.00" xmlns="http://www.w3.org/2000/svg" xmlns:xlink="http://www.w3.org/1999/xlink">
<g id="graph1" class="graph" transform="scale(1 1) rotate(0) translate(4 256)">
<title>G</title>
<polygon fill="white" stroke="white" points="-4,5 -4,-256 3594,-256 3594,5 -4,5"/>
<!-- b0 -->
<g id="node1" class="node"><title>b0</title>
<a xlink:href="0005488" xlink:title="GO:0005488">
<ellipse fill="#dddddd" stroke="#dddddd" cx="1019" cy="-162" rx="61.1934" ry="18"/>
<text text-anchor="middle" x="1019" y="-157.8" font-family="Times,serif" font-size="14.00">GO:0005488</text>
</a>
</g>
<!-- x0 -->
<g id="node3" class="node"><title>x0</title>
<a xlink:href="0008289" xlink:title="GO:0008289 (3)">
<ellipse fill="#e98576" stroke="#e98576" cx="75" cy="-90" rx="75.2018" ry="18"/>
<text text-anchor="middle" x="75" y="-85.8" font-family="Times,serif" font-size="14.00">GO:0008289 (3)</text>
</a>
</g>
<!-- b0&#45;&gt;x0 -->
<g id="edge2" class="edge"><title>b0&#45;&gt;x0</title>
<path fill="none" stroke="black" d="M957.987,-160.13C816.812,-157.487 456.927,-147.137 159,-108 152.26,-107.115 145.25,-106.004 138.282,-104.776"/>
<polygon fill="black" stroke="black" points="138.607,-101.277 128.138,-102.907 137.338,-108.161 138.607,-101.277"/>
</g>
<!-- e1 -->
<g id="node11" class="node"><title>e1</title>
<a xlink:href="0033218" xlink:title="GO:0033218 (1)">
<ellipse fill="#e98576" stroke="#e98576" cx="243" cy="-90" rx="75.2018" ry="18"/>
<text text-anchor="middle" x="243" y="-85.8" font-family="Times,serif" font-size="14.00">GO:0033218 (1)</text>
</a>
</g>
<!-- b0&#45;&gt;e1 -->
<g id="edge8" class="edge"><title>b0&#45;&gt;e1</title>
<path fill="none" stroke="black" d="M958.567,-158.878C837.981,-154.09 559.124,-140.253 327,-108 320.267,-107.064 313.262,-105.921 306.296,-104.675"/>
<polygon fill="black" stroke="black" points="306.626,-101.176 296.154,-102.786 305.345,-108.058 306.626,-101.176"/>
</g>
<!-- y0 -->
<g id="node17" class="node"><title>y0</title>
<a xlink:href="0005515" xlink:title="GO:0005515 (3)">
<ellipse fill="#e98576" stroke="#e98576" cx="411" cy="-90" rx="75.2018" ry="18"/>
<text text-anchor="middle" x="411" y="-85.8" font-family="Times,serif" font-size="14.00">GO:0005515 (3)</text>
</a>
</g>
<!-- b0&#45;&gt;y0 -->
<g id="edge14" class="edge"><title>b0&#45;&gt;y0</title>
<path fill="none" stroke="black" d="M960.217,-156.96C863.037,-149.855 662.93,-133.422 495,-108 488.378,-106.997 481.487,-105.822 474.627,-104.565"/>
<polygon fill="black" stroke="black" points="475.109,-101.094 464.633,-102.676 473.809,-107.973 475.109,-101.094"/>
</g>
<!-- h0 -->
<g id="node19" class="node"><title>h0</title>
<a xlink:href="0001882" xlink:title="GO:0001882 (34)">
<ellipse fill="#e98576" stroke="#e98576" cx="584" cy="-90" rx="79.4447" ry="18"/>
<text text-anchor="middle" x="584" y="-85.8" font-family="Times,serif" font-size="14.00">GO:0001882 (34)</text>
</a>
</g>
<!-- b0&#45;&gt;h0 -->
<g id="edge16" class="edge"><title>b0&#45;&gt;h0</title>
<path fill="none" stroke="black" d="M964.962,-153.35C896.791,-143.555 776.011,-125.722 673,-108 666.23,-106.835 659.179,-105.573 652.141,-104.281"/>
<polygon fill="black" stroke="black" points="652.343,-100.759 641.872,-102.374 651.065,-107.641 652.343,-100.759"/>
</g>
<!-- d1 -->
<g id="node21" class="node"><title>d1</title>
<a xlink:href="0019842" xlink:title="GO:0019842 (1)">
<ellipse fill="#e98576" stroke="#e98576" cx="757" cy="-90" rx="75.2018" ry="18"/>
<text text-anchor="middle" x="757" y="-85.8" font-family="Times,serif" font-size="14.00">GO:0019842 (1)</text>
</a>
</g>
<!-- b0&#45;&gt;d1 -->
<g id="edge18" class="edge"><title>b0&#45;&gt;d1</title>
<path fill="none" stroke="black" d="M975.147,-149.284C931.263,-137.559 863.501,-119.455 815.151,-106.537"/>
<polygon fill="black" stroke="black" points="816.013,-103.144 805.449,-103.944 814.206,-109.907 816.013,-103.144"/>
</g>
<!-- a0 -->
<g id="node38" class="node"><title>a0</title>
<a xlink:href="0043167" xlink:title="GO:0043167 (60)">
<ellipse fill="#e98576" stroke="#e98576" cx="930" cy="-90" rx="79.4447" ry="18"/>
<text text-anchor="middle" x="930" y="-85.8" font-family="Times,serif" font-size="14.00">GO:0043167 (60)</text>
</a>
</g>
<!-- b0&#45;&gt;a0 -->
<g id="edge34" class="edge"><title>b0&#45;&gt;a0</title>
<path fill="none" stroke="black" d="M998.358,-144.765C986.648,-135.554 971.808,-123.882 958.949,-113.769"/>
<polygon fill="black" stroke="black" points="960.862,-110.821 950.838,-107.39 956.535,-116.323 960.862,-110.821"/>
</g>
<!-- f0 -->
<g id="node47" class="node"><title>f0</title>
<a xlink:href="0003676" xlink:title="GO:0003676 (42)">
<ellipse fill="#e98576" stroke="#e98576" cx="1108" cy="-90" rx="79.4447" ry="18"/>
<text text-anchor="middle" x="1108" y="-85.8" font-family="Times,serif" font-size="14.00">GO:0003676 (42)</text>
</a>
</g>
<!-- b0&#45;&gt;f0 -->
<g id="edge44" class="edge"><title>b0&#45;&gt;f0</title>
<path fill="none" stroke="black" d="M1039.64,-144.765C1051.35,-135.554 1066.19,-123.882 1079.05,-113.769"/>
<polygon fill="black" stroke="black" points="1081.47,-116.323 1087.16,-107.39 1077.14,-110.821 1081.47,-116.323"/>
</g>
<!-- o0 -->
<g id="node50" class="node"><title>o0</title>
<a xlink:href="0046906" xlink:title="GO:0046906 (9)">
<ellipse fill="#e98576" stroke="#e98576" cx="1281" cy="-90" rx="75.2018" ry="18"/>
<text text-anchor="middle" x="1281" y="-85.8" font-family="Times,serif" font-size="14.00">GO:0046906 (9)</text>
</a>
</g>
<!-- b0&#45;&gt;o0 -->
<g id="edge48" class="edge"><title>b0&#45;&gt;o0</title>
<path fill="none" stroke="black" d="M1062.85,-149.284C1106.74,-137.559 1174.5,-119.455 1222.85,-106.537"/>
<polygon fill="black" stroke="black" points="1223.79,-109.907 1232.55,-103.944 1221.99,-103.144 1223.79,-109.907"/>
</g>
<!-- g0 -->
<g id="node52" class="node"><title>g0</title>
<a xlink:href="0000166" xlink:title="GO:0000166 (37)">
<ellipse fill="#e98576" stroke="#e98576" cx="1454" cy="-90" rx="79.4447" ry="18"/>
<text text-anchor="middle" x="1454" y="-85.8" font-family="Times,serif" font-size="14.00">GO:0000166 (37)</text>
</a>
</g>
<!-- b0&#45;&gt;g0 -->
<g id="edge50" class="edge"><title>b0&#45;&gt;g0</title>
<path fill="none" stroke="black" d="M1073.04,-153.35C1141.21,-143.555 1261.99,-125.722 1365,-108 1371.77,-106.835 1378.82,-105.573 1385.86,-104.281"/>
<polygon fill="black" stroke="black" points="1386.93,-107.641 1396.13,-102.374 1385.66,-100.759 1386.93,-107.641"/>
</g>
<!-- s0 -->
<g id="node58" class="node"><title>s0</title>
<a xlink:href="0048037" xlink:title="GO:0048037 (5)">
<ellipse fill="#e98576" stroke="#e98576" cx="1627" cy="-90" rx="75.2018" ry="18"/>
<text text-anchor="middle" x="1627" y="-85.8" font-family="Times,serif" font-size="14.00">GO:0048037 (5)</text>
</a>
</g>
<!-- b0&#45;&gt;s0 -->
<g id="edge56" class="edge"><title>b0&#45;&gt;s0</title>
<path fill="none" stroke="black" d="M1078.06,-156.881C1175.19,-149.688 1374.59,-133.164 1542,-108 1548.8,-106.978 1555.88,-105.779 1562.92,-104.5"/>
<polygon fill="black" stroke="black" points="1563.99,-107.86 1573.18,-102.578 1562.71,-100.979 1563.99,-107.86"/>
</g>
<!-- r0 -->
<g id="node61" class="node"><title>r0</title>
<a xlink:href="0051540" xlink:title="GO:0051540 (5)">
<ellipse fill="#e98576" stroke="#e98576" cx="1795" cy="-90" rx="75.2018" ry="18"/>
<text text-anchor="middle" x="1795" y="-85.8" font-family="Times,serif" font-size="14.00">GO:0051540 (5)</text>
</a>
</g>
<!-- b0&#45;&gt;r0 -->
<g id="edge60" class="edge"><title>b0&#45;&gt;r0</title>
<path fill="none" stroke="black" d="M1079.43,-158.878C1200.02,-154.09 1478.88,-140.253 1711,-108 1717.73,-107.064 1724.74,-105.921 1731.7,-104.675"/>
<polygon fill="black" stroke="black" points="1732.66,-108.058 1741.85,-102.786 1731.37,-101.176 1732.66,-108.058"/>
</g>
<!-- e0 -->
<g id="node4" class="node"><title>e0</title>
<a xlink:href="0003824" xlink:title="GO:0003824 (28)">
<ellipse fill="#e98576" stroke="#e98576" cx="2655" cy="-162" rx="79.4447" ry="18"/>
<text text-anchor="middle" x="2655" y="-157.8" font-family="Times,serif" font-size="14.00">GO:0003824 (28)</text>
</a>
</g>
<!-- w0 -->
<g id="node6" class="node"><title>w0</title>
<a xlink:href="0016853" xlink:title="GO:0016853 (3)">
<ellipse fill="#e98576" stroke="#e98576" cx="1963" cy="-90" rx="75.2018" ry="18"/>
<text text-anchor="middle" x="1963" y="-85.8" font-family="Times,serif" font-size="14.00">GO:0016853 (3)</text>
</a>
</g>
<!-- e0&#45;&gt;w0 -->
<g id="edge4" class="edge"><title>e0&#45;&gt;w0</title>
<path fill="none" stroke="black" d="M2578.38,-157.098C2462.78,-150.586 2237.08,-135.429 2047,-108 2040.37,-107.043 2033.48,-105.898 2026.61,-104.659"/>
<polygon fill="black" stroke="black" points="2027.09,-101.187 2016.62,-102.788 2025.8,-108.068 2027.09,-101.187"/>
</g>
<!-- j0 -->
<g id="node7" class="node"><title>j0</title>
<a xlink:href="0016491" xlink:title="GO:0016491 (25)">
<ellipse fill="#e98576" stroke="#e98576" cx="2136" cy="-90" rx="79.4447" ry="18"/>
<text text-anchor="middle" x="2136" y="-85.8" font-family="Times,serif" font-size="14.00">GO:0016491 (25)</text>
</a>
</g>
<!-- e0&#45;&gt;j0 -->
<g id="edge46" class="edge"><title>e0&#45;&gt;j0</title>
<path fill="none" stroke="black" d="M2584.04,-153.707C2498.62,-144.594 2350.95,-127.769 2225,-108 2217.95,-106.893 2210.6,-105.645 2203.28,-104.339"/>
<polygon fill="black" stroke="black" points="2203.82,-100.88 2193.35,-102.532 2202.57,-107.766 2203.82,-100.88"/>
</g>
<!-- c1 -->
<g id="node13" class="node"><title>c1</title>
<a xlink:href="0008641" xlink:title="GO:0008641 (1)">
<ellipse fill="#e98576" stroke="#e98576" cx="2309" cy="-90" rx="75.2018" ry="18"/>
<text text-anchor="middle" x="2309" y="-85.8" font-family="Times,serif" font-size="14.00">GO:0008641 (1)</text>
</a>
</g>
<!-- e0&#45;&gt;c1 -->
<g id="edge10" class="edge"><title>e0&#45;&gt;c1</title>
<path fill="none" stroke="black" d="M2597.87,-149.441C2536.47,-137.019 2439.03,-117.307 2374.56,-104.263"/>
<polygon fill="black" stroke="black" points="2375,-100.781 2364.5,-102.229 2373.61,-107.642 2375,-100.781"/>
</g>
<!-- k0 -->
<g id="node30" class="node"><title>k0</title>
<a xlink:href="0016787" xlink:title="GO:0016787 (24)">
<ellipse fill="#e98576" stroke="#e98576" cx="2482" cy="-90" rx="79.4447" ry="18"/>
<text text-anchor="middle" x="2482" y="-85.8" font-family="Times,serif" font-size="14.00">GO:0016787 (24)</text>
</a>
</g>
<!-- e0&#45;&gt;k0 -->
<g id="edge36" class="edge"><title>e0&#45;&gt;k0</title>
<path fill="none" stroke="black" d="M2617.89,-145.983C2591.78,-135.418 2556.64,-121.2 2528.63,-109.869"/>
<polygon fill="black" stroke="black" points="2529.63,-106.498 2519.05,-105.992 2527.01,-112.987 2529.63,-106.498"/>
</g>
<!-- t0 -->
<g id="node43" class="node"><title>t0</title>
<a xlink:href="0016874" xlink:title="GO:0016874 (4)">
<ellipse fill="#e98576" stroke="#e98576" cx="2655" cy="-90" rx="75.2018" ry="18"/>
<text text-anchor="middle" x="2655" y="-85.8" font-family="Times,serif" font-size="14.00">GO:0016874 (4)</text>
</a>
</g>
<!-- e0&#45;&gt;t0 -->
<g id="edge40" class="edge"><title>e0&#45;&gt;t0</title>
<path fill="none" stroke="black" d="M2655,-143.697C2655,-135.983 2655,-126.712 2655,-118.112"/>
<polygon fill="black" stroke="black" points="2658.5,-118.104 2655,-108.104 2651.5,-118.104 2658.5,-118.104"/>
</g>
<!-- d0 -->
<g id="node45" class="node"><title>d0</title>
<a xlink:href="0016740" xlink:title="GO:0016740 (47)">
<ellipse fill="#e98576" stroke="#e98576" cx="2828" cy="-90" rx="79.4447" ry="18"/>
<text text-anchor="middle" x="2828" y="-85.8" font-family="Times,serif" font-size="14.00">GO:0016740 (47)</text>
</a>
</g>
<!-- e0&#45;&gt;d0 -->
<g id="edge42" class="edge"><title>e0&#45;&gt;d0</title>
<path fill="none" stroke="black" d="M2692.11,-145.983C2718.22,-135.418 2753.36,-121.2 2781.37,-109.869"/>
<polygon fill="black" stroke="black" points="2782.99,-112.987 2790.95,-105.992 2780.37,-106.498 2782.99,-112.987"/>
</g>
<!-- u0 -->
<g id="node54" class="node"><title>u0</title>
<a xlink:href="0016829" xlink:title="GO:0016829 (4)">
<ellipse fill="#e98576" stroke="#e98576" cx="3001" cy="-90" rx="75.2018" ry="18"/>
<text text-anchor="middle" x="3001" y="-85.8" font-family="Times,serif" font-size="14.00">GO:0016829 (4)</text>
</a>
</g>
<!-- e0&#45;&gt;u0 -->
<g id="edge52" class="edge"><title>e0&#45;&gt;u0</title>
<path fill="none" stroke="black" d="M2712.13,-149.441C2773.53,-137.019 2870.97,-117.307 2935.44,-104.263"/>
<polygon fill="black" stroke="black" points="2936.39,-107.642 2945.5,-102.229 2935,-100.781 2936.39,-107.642"/>
</g>
<!-- q0 -->
<g id="node56" class="node"><title>q0</title>
<a xlink:href="0004386" xlink:title="GO:0004386 (5)">
<ellipse fill="#e98576" stroke="#e98576" cx="3169" cy="-90" rx="75.2018" ry="18"/>
<text text-anchor="middle" x="3169" y="-85.8" font-family="Times,serif" font-size="14.00">GO:0004386 (5)</text>
</a>
</g>
<!-- e0&#45;&gt;q0 -->
<g id="edge54" class="edge"><title>e0&#45;&gt;q0</title>
<path fill="none" stroke="black" d="M2726.38,-153.904C2811.89,-145.011 2959.34,-128.428 3085,-108 3091.51,-106.941 3098.29,-105.739 3105.04,-104.475"/>
<polygon fill="black" stroke="black" points="3105.73,-107.908 3114.89,-102.589 3104.41,-101.033 3105.73,-107.908"/>
</g>
<!-- v0 -->
<g id="node9" class="node"><title>v0</title>
<a xlink:href="0051213" xlink:title="GO:0051213 (4)">
<ellipse fill="#e98576" stroke="#e98576" cx="1968" cy="-18" rx="75.2018" ry="18"/>
<text text-anchor="middle" x="1968" y="-13.8" font-family="Times,serif" font-size="14.00">GO:0051213 (4)</text>
</a>
</g>
<!-- j0&#45;&gt;v0 -->
<g id="edge6" class="edge"><title>j0&#45;&gt;v0</title>
<path fill="none" stroke="black" d="M2099.55,-73.811C2074.17,-63.2361 2040.15,-49.0634 2013.07,-37.7791"/>
<polygon fill="black" stroke="black" points="2014.38,-34.5343 2003.81,-33.9188 2011.69,-40.9958 2014.38,-34.5343"/>
</g>
<!-- a1 -->
<g id="node34" class="node"><title>a1</title>
<a xlink:href="0004497" xlink:title="GO:0004497 (2)">
<ellipse fill="#e98576" stroke="#e98576" cx="2136" cy="-18" rx="75.2018" ry="18"/>
<text text-anchor="middle" x="2136" y="-13.8" font-family="Times,serif" font-size="14.00">GO:0004497 (2)</text>
</a>
</g>
<!-- j0&#45;&gt;a1 -->
<g id="edge30" class="edge"><title>j0&#45;&gt;a1</title>
<path fill="none" stroke="black" d="M2136,-71.6966C2136,-63.9827 2136,-54.7125 2136,-46.1124"/>
<polygon fill="black" stroke="black" points="2139.5,-46.1043 2136,-36.1043 2132.5,-46.1044 2139.5,-46.1043"/>
</g>
<!-- n0 -->
<g id="node41" class="node"><title>n0</title>
<a xlink:href="0009055" xlink:title="GO:0009055 (13)">
<ellipse fill="#e98576" stroke="#e98576" cx="2309" cy="-18" rx="79.4447" ry="18"/>
<text text-anchor="middle" x="2309" y="-13.8" font-family="Times,serif" font-size="14.00">GO:0009055 (13)</text>
</a>
</g>
<!-- j0&#45;&gt;n0 -->
<g id="edge38" class="edge"><title>j0&#45;&gt;n0</title>
<path fill="none" stroke="black" d="M2173.11,-73.9832C2199.22,-63.4182 2234.36,-49.1998 2262.37,-37.8687"/>
<polygon fill="black" stroke="black" points="2263.99,-40.9873 2271.95,-33.9919 2261.37,-34.4983 2263.99,-40.9873"/>
</g>
<!-- c0 -->
<g id="node14" class="node"><title>c0</title>
<a xlink:href="0003674" xlink:title="GO:0003674 (20)">
<ellipse fill="#e98576" stroke="#e98576" cx="3082" cy="-234" rx="79.4447" ry="18"/>
<text text-anchor="middle" x="3082" y="-229.8" font-family="Times,serif" font-size="14.00">GO:0003674 (20)</text>
</a>
</g>
<!-- c0&#45;&gt;b0 -->
<g id="edge24" class="edge"><title>c0&#45;&gt;b0</title>
<path fill="none" stroke="black" d="M3003.96,-230.352C2675.16,-219.196 1405.22,-176.105 1090.08,-165.412"/>
<polygon fill="black" stroke="black" points="1089.83,-161.901 1079.72,-165.06 1089.59,-168.897 1089.83,-161.901"/>
</g>
<!-- c0&#45;&gt;e0 -->
<g id="edge12" class="edge"><title>c0&#45;&gt;e0</title>
<path fill="none" stroke="black" d="M3019.45,-222.746C2941.73,-210.006 2809.38,-188.307 2727.36,-174.862"/>
<polygon fill="black" stroke="black" points="2727.8,-171.388 2717.37,-173.224 2726.67,-178.296 2727.8,-171.388"/>
</g>
<!-- m0 -->
<g id="node22" class="node"><title>m0</title>
<a xlink:href="0060089" xlink:title="GO:0060089 (2)">
<ellipse fill="#e98576" stroke="#e98576" cx="3082" cy="-162" rx="75.2018" ry="18"/>
<text text-anchor="middle" x="3082" y="-157.8" font-family="Times,serif" font-size="14.00">GO:0060089 (2)</text>
</a>
</g>
<!-- c0&#45;&gt;m0 -->
<g id="edge58" class="edge"><title>c0&#45;&gt;m0</title>
<path fill="none" stroke="black" d="M3082,-215.697C3082,-207.983 3082,-198.712 3082,-190.112"/>
<polygon fill="black" stroke="black" points="3085.5,-190.104 3082,-180.104 3078.5,-190.104 3085.5,-190.104"/>
</g>
<!-- b1 -->
<g id="node26" class="node"><title>b1</title>
<a xlink:href="0003774" xlink:title="GO:0003774 (1)">
<ellipse fill="#e98576" stroke="#e98576" cx="3250" cy="-162" rx="75.2018" ry="18"/>
<text text-anchor="middle" x="3250" y="-157.8" font-family="Times,serif" font-size="14.00">GO:0003774 (1)</text>
</a>
</g>
<!-- c0&#45;&gt;b1 -->
<g id="edge22" class="edge"><title>c0&#45;&gt;b1</title>
<path fill="none" stroke="black" d="M3118.45,-217.811C3143.83,-207.236 3177.85,-193.063 3204.93,-181.779"/>
<polygon fill="black" stroke="black" points="3206.31,-184.996 3214.19,-177.919 3203.62,-178.534 3206.31,-184.996"/>
</g>
<!-- i0 -->
<g id="node36" class="node"><title>i0</title>
<a xlink:href="0005215" xlink:title="GO:0005215 (31)">
<ellipse fill="#e98576" stroke="#e98576" cx="3423" cy="-162" rx="79.4447" ry="18"/>
<text text-anchor="middle" x="3423" y="-157.8" font-family="Times,serif" font-size="14.00">GO:0005215 (31)</text>
</a>
</g>
<!-- c0&#45;&gt;i0 -->
<g id="edge32" class="edge"><title>c0&#45;&gt;i0</title>
<path fill="none" stroke="black" d="M3138.69,-221.362C3198.55,-209.074 3292.86,-189.714 3356.27,-176.698"/>
<polygon fill="black" stroke="black" points="3357.08,-180.105 3366.17,-174.665 3355.67,-173.248 3357.08,-180.105"/>
</g>
<!-- z0 -->
<g id="node24" class="node"><title>z0</title>
<a xlink:href="0031992" xlink:title="GO:0031992 (2)">
<ellipse fill="#e98576" stroke="#e98576" cx="3337" cy="-90" rx="75.2018" ry="18"/>
<text text-anchor="middle" x="3337" y="-85.8" font-family="Times,serif" font-size="14.00">GO:0031992 (2)</text>
</a>
</g>
<!-- m0&#45;&gt;z0 -->
<g id="edge20" class="edge"><title>m0&#45;&gt;z0</title>
<path fill="none" stroke="black" d="M3129.37,-147.998C3171.9,-136.321 3234.45,-119.151 3279.77,-106.71"/>
<polygon fill="black" stroke="black" points="3280.74,-110.074 3289.46,-104.051 3278.89,-103.323 3280.74,-110.074"/>
</g>
<!-- l0 -->
<g id="node29" class="node"><title>l0</title>
<a xlink:href="0004871" xlink:title="GO:0004871 (16)">
<ellipse fill="#e98576" stroke="#e98576" cx="3510" cy="-90" rx="79.4447" ry="18"/>
<text text-anchor="middle" x="3510" y="-85.8" font-family="Times,serif" font-size="14.00">GO:0004871 (16)</text>
</a>
</g>
<!-- m0&#45;&gt;l0 -->
<g id="edge26" class="edge"><title>m0&#45;&gt;l0</title>
<path fill="none" stroke="black" d="M3136.59,-149.463C3146.36,-147.537 3156.47,-145.636 3166,-144 3278.81,-124.64 3308.09,-126.743 3421,-108 3427.78,-106.875 3434.83,-105.639 3441.87,-104.363"/>
<polygon fill="black" stroke="black" points="3442.94,-107.725 3452.14,-102.473 3441.68,-100.84 3442.94,-107.725"/>
</g>
<!-- p0 -->
<g id="node32" class="node"><title>p0</title>
<a xlink:href="0008233" xlink:title="GO:0008233 (7)">
<ellipse fill="#e98576" stroke="#e98576" cx="2482" cy="-18" rx="75.2018" ry="18"/>
<text text-anchor="middle" x="2482" y="-13.8" font-family="Times,serif" font-size="14.00">GO:0008233 (7)</text>
</a>
</g>
<!-- k0&#45;&gt;p0 -->
<g id="edge28" class="edge"><title>k0&#45;&gt;p0</title>
<path fill="none" stroke="black" d="M2482,-71.6966C2482,-63.9827 2482,-54.7125 2482,-46.1124"/>
<polygon fill="black" stroke="black" points="2485.5,-46.1043 2482,-36.1043 2478.5,-46.1044 2485.5,-46.1043"/>
</g>
</g>
</svg>
