<?xml version="1.0" encoding="UTF-8" standalone="no"?> 
<!DOCTYPE svg PUBLIC "-//W3C//DTD SVG 1.1//EN" 
 "http://www.w3.org/Graphics/SVG/1.1/DTD/svg11.dtd"> 
<!-- Generated by graphviz version 2.28.0 (20110622.2320) 
 --> 
<!-- Title: G Pages: 1 --> 
<svg width="2000" height="1000"  
 viewBox="-30 -50 2000 1000" xmlns="http://www.w3.org/2000/svg" xmlns:xlink="http://www.w3.org/1999/xlink"> 
<g id="graph1" class="graph" transform="scale(1 1) rotate(0) translate(4 400)"> 
<title>G</title> 
<polygon fill="white" stroke="white" points="-4,5 -4,-400 4583,-400 4583,5 -4,5"/> 
<!-- c0 --> 
<g id="node1" class="node"><title>c0</title> 
<ellipse fill="#e98576" stroke="#e98576" cx="3193" cy="-378" rx="75.2018" ry="18"/> 
<a xlink:href="http://pir.georgetown.edu/cgi-bin/pt_graphvizView.pl?togoid=0003674" ><text id="GO:0003674" onmousemove="changeToText('GO:0003674')" onmouseout="changeBackText('GO:0003674')"  text-anchor="middle" x="3193" y="-378.8" font-family="Times,serif" font-size="14.00">GO:0003674</text></a>
<a xlink:href="http://pir.georgetown.edu/cgi-bin/pt_graphvizView.pl?tofile=811613" ><text id="r811613" onmousemove="changeToText2('r811613', 8)" onmouseout="changeBackText2('r811613', 8)"  text-anchor="middle" x="3193" y="-365.8" font-family="Times,serif" font-size="14.00">(8)</text>
 
</a> 
</g> 
<!-- v0 --> 
<g id="node3" class="node"><title>v0</title> 
<ellipse fill="#e98576" stroke="#e98576" cx="882" cy="-306" rx="79.4447" ry="18"/> 
<a xlink:href="http://pir.georgetown.edu/cgi-bin/pt_graphvizView.pl?togoid=0030234" ><text id="GO:0030234" onmousemove="changeToText('GO:0030234')" onmouseout="changeBackText('GO:0030234')"  text-anchor="middle" x="882" y="-306.8" font-family="Times,serif" font-size="14.00">GO:0030234</text></a>
<a xlink:href="http://pir.georgetown.edu/cgi-bin/pt_graphvizView.pl?tofile=811609" ><text id="r811609" onmousemove="changeToText2('r811609', 11)" onmouseout="changeBackText2('r811609', 11)"  text-anchor="middle" x="882" y="-293.8" font-family="Times,serif" font-size="14.00">(11)</text>
 
</a> 
</g> 
<!-- c0&#45;&gt;v0 --> 
<g id="edge2" class="edge"><title>c0&#45;&gt;v0</title> 
<path fill="none" stroke="black" d="M3117.95,-376.873C2780.42,-376.044 1400.86,-369.864 971,-324 963.301,-323.179 955.273,-322.045 947.327,-320.749"/> 
<polygon fill="black" stroke="black" points="947.784,-317.276 937.336,-319.032 946.598,-324.175 947.784,-317.276"/> 
</g> 
<!-- f0 --> 
<g id="node4" class="node"><title>f0</title> 
<ellipse fill="#e98576" stroke="#e98576" cx="1060" cy="-306" rx="79.4447" ry="18"/> 
<a xlink:href="http://pir.georgetown.edu/cgi-bin/pt_graphvizView.pl?togoid=0003824" ><text id="GO:0003824" onmousemove="changeToText('GO:0003824')" onmouseout="changeBackText('GO:0003824')"  text-anchor="middle" x="1060" y="-306.8" font-family="Times,serif" font-size="14.00">GO:0003824</text></a>
<a xlink:href="http://pir.georgetown.edu/cgi-bin/pt_graphvizView.pl?tofile=811607" ><text id="r811607" onmousemove="changeToText2('r811607', 12)" onmouseout="changeBackText2('r811607', 12)"  text-anchor="middle" x="1060" y="-293.8" font-family="Times,serif" font-size="14.00">(12)</text>
 
</a> 
</g> 
<!-- c0&#45;&gt;f0 --> 
<g id="edge52" class="edge"><title>c0&#45;&gt;f0</title> 
<path fill="none" stroke="black" d="M3119.27,-374.58C2795.39,-363.951 1499.45,-321.422 1148.2,-309.894"/> 
<polygon fill="black" stroke="black" points="1148.19,-306.392 1138.08,-309.563 1147.96,-313.389 1148.19,-306.392"/> 
</g> 
<!-- b0 --> 
<g id="node7" class="node"><title>b0</title> 
<ellipse fill="#e98576" stroke="#e98576" cx="2931" cy="-306" rx="75.2018" ry="18"/> 
<a xlink:href="http://pir.georgetown.edu/cgi-bin/pt_graphvizView.pl?togoid=0005488" ><text id="GO:0005488" onmousemove="changeToText('GO:0005488')" onmouseout="changeBackText('GO:0005488')"  text-anchor="middle" x="2931" y="-306.8" font-family="Times,serif" font-size="14.00">GO:0005488</text></a>
<a xlink:href="http://pir.georgetown.edu/cgi-bin/pt_graphvizView.pl?tofile=811629" ><text id="r811629" onmousemove="changeToText2('r811629', 2)" onmouseout="changeBackText2('r811629', 2)"  text-anchor="middle" x="2931" y="-293.8" font-family="Times,serif" font-size="14.00">(2)</text>
 
</a> 
</g> 
<!-- c0&#45;&gt;b0 --> 
<g id="edge12" class="edge"><title>c0&#45;&gt;b0</title> 
<path fill="none" stroke="black" d="M3144.95,-364.161C3100.95,-352.406 3035.75,-334.986 2988.9,-322.469"/> 
<polygon fill="black" stroke="black" points="2989.76,-319.076 2979.19,-319.876 2987.95,-325.839 2989.76,-319.076"/> 
</g> 
<!-- l0 --> 
<g id="node24" class="node"><title>l0</title> 
<ellipse fill="#e98576" stroke="#e98576" cx="3104" cy="-306" rx="79.4447" ry="18"/> 
<a xlink:href="http://pir.georgetown.edu/cgi-bin/pt_graphvizView.pl?togoid=0005215" ><text id="GO:0005215" onmousemove="changeToText('GO:0005215')" onmouseout="changeBackText('GO:0005215')"  text-anchor="middle" x="3104" y="-306.8" font-family="Times,serif" font-size="14.00">GO:0005215</text></a>
<a xlink:href="http://pir.georgetown.edu/cgi-bin/pt_graphvizView.pl?tofile=811587" ><text id="r811587" onmousemove="changeToText2('r811587', 46)" onmouseout="changeBackText2('r811587', 46)"  text-anchor="middle" x="3104" y="-293.8" font-family="Times,serif" font-size="14.00">(46)</text>
 
</a> 
</g> 
<!-- c0&#45;&gt;l0 --> 
<g id="edge20" class="edge"><title>c0&#45;&gt;l0</title> 
<path fill="none" stroke="black" d="M3171.91,-360.411C3160.27,-351.257 3145.65,-339.755 3132.95,-329.772"/> 
<polygon fill="black" stroke="black" points="3134.96,-326.901 3124.94,-323.47 3130.64,-332.403 3134.96,-326.901"/> 
</g> 
<!-- i0 --> 
<g id="node42" class="node"><title>i0</title> 
<ellipse fill="#e98576" stroke="#e98576" cx="3282" cy="-306" rx="79.4447" ry="18"/> 
<a xlink:href="http://pir.georgetown.edu/cgi-bin/pt_graphvizView.pl?togoid=0005198" ><text id="GO:0005198" onmousemove="changeToText('GO:0005198')" onmouseout="changeBackText('GO:0005198')"  text-anchor="middle" x="3282" y="-306.8" font-family="Times,serif" font-size="14.00">GO:0005198</text></a>
<a xlink:href="http://pir.georgetown.edu/cgi-bin/pt_graphvizView.pl?tofile=811581" ><text id="r811581" onmousemove="changeToText2('r811581', 82)" onmouseout="changeBackText2('r811581', 82)"  text-anchor="middle" x="3282" y="-293.8" font-family="Times,serif" font-size="14.00">(82)</text>
 
</a> 
</g> 
<!-- c0&#45;&gt;i0 --> 
<g id="edge40" class="edge"><title>c0&#45;&gt;i0</title> 
<path fill="none" stroke="black" d="M3214.09,-360.411C3225.73,-351.257 3240.35,-339.755 3253.05,-329.772"/> 
<polygon fill="black" stroke="black" points="3255.36,-332.403 3261.06,-323.47 3251.04,-326.901 3255.36,-332.403"/> 
</g> 
<!-- n1 --> 
<g id="node62" class="node"><title>n1</title> 
<ellipse fill="#e98576" stroke="#e98576" cx="3455" cy="-306" rx="75.2018" ry="18"/> 
<a xlink:href="http://pir.georgetown.edu/cgi-bin/pt_graphvizView.pl?togoid=0003774" ><text id="GO:0003774" onmousemove="changeToText('GO:0003774')" onmouseout="changeBackText('GO:0003774')"  text-anchor="middle" x="3455" y="-306.8" font-family="Times,serif" font-size="14.00">GO:0003774</text></a>
<a xlink:href="http://pir.georgetown.edu/cgi-bin/pt_graphvizView.pl?tofile=811641" ><text id="r811641" onmousemove="changeToText2('r811641', 1)" onmouseout="changeBackText2('r811641', 1)"  text-anchor="middle" x="3455" y="-293.8" font-family="Times,serif" font-size="14.00">(1)</text>
 
</a> 
</g> 
<!-- c0&#45;&gt;n1 --> 
<g id="edge60" class="edge"><title>c0&#45;&gt;n1</title> 
<path fill="none" stroke="black" d="M3241.05,-364.161C3285.05,-352.406 3350.25,-334.986 3397.1,-322.469"/> 
<polygon fill="black" stroke="black" points="3398.05,-325.839 3406.81,-319.876 3396.24,-319.076 3398.05,-325.839"/> 
</g> 
<!-- i1 --> 
<g id="node65" class="node"><title>i1</title> 
<a xlink:href="http://pir.georgetown.edu/cgi-bin/pt_graphvizView.pl?togoid=0060089" > 
<ellipse fill="#dddddd" stroke="#dddddd" cx="3610" cy="-306" rx="61.1934" ry="18"/> 
<a xlink:href="http://pir.georgetown.edu/cgi-bin/pt_graphvizView.pl?togoid=0060089" ><text id="GO:0060089" onmousemove="changeToText('GO:0060089')" onmouseout="changeBackText('GO:0060089')"  text-anchor="middle" x="3610" y="-301.8" font-family="Times,serif" font-size="14.00">GO:0060089</text></a>
 
</a> 
</g> 
<!-- c0&#45;&gt;i1 --> 
<g id="edge84" class="edge"><title>c0&#45;&gt;i1</title> 
<path fill="none" stroke="black" d="M3257.68,-368.725C3327.4,-359.426 3441.5,-343.107 3539,-324 3544.29,-322.964 3549.77,-321.804 3555.25,-320.588"/> 
<polygon fill="black" stroke="black" points="3556.08,-323.99 3565.05,-318.357 3554.52,-317.164 3556.08,-323.99"/> 
</g> 
<!-- s0 --> 
<g id="node69" class="node"><title>s0</title> 
<ellipse fill="#e98576" stroke="#e98576" cx="3769" cy="-306" rx="79.4447" ry="18"/> 
<a xlink:href="http://pir.georgetown.edu/cgi-bin/pt_graphvizView.pl?togoid=0016209" ><text id="GO:0016209" onmousemove="changeToText('GO:0016209')" onmouseout="changeBackText('GO:0016209')"  text-anchor="middle" x="3769" y="-306.8" font-family="Times,serif" font-size="14.00">GO:0016209</text></a>
<a xlink:href="http://pir.georgetown.edu/cgi-bin/pt_graphvizView.pl?tofile=811601" ><text id="r811601" onmousemove="changeToText2('r811601', 17)" onmouseout="changeBackText2('r811601', 17)"  text-anchor="middle" x="3769" y="-293.8" font-family="Times,serif" font-size="14.00">(17)</text>
 
</a> 
</g> 
<!-- c0&#45;&gt;s0 --> 
<g id="edge66" class="edge"><title>c0&#45;&gt;s0</title> 
<path fill="none" stroke="black" d="M3262.58,-371.199C3357.29,-362.899 3531.96,-346.157 3680,-324 3687.06,-322.943 3694.41,-321.727 3701.73,-320.441"/> 
<polygon fill="black" stroke="black" points="3702.44,-323.87 3711.66,-318.653 3701.2,-316.981 3702.44,-323.87"/> 
</g> 
<!-- o0 --> 
<g id="node6" class="node"><title>o0</title> 
<ellipse fill="#e98576" stroke="#e98576" cx="108" cy="-234" rx="79.4447" ry="18"/> 
<a xlink:href="http://pir.georgetown.edu/cgi-bin/pt_graphvizView.pl?togoid=0016853" ><text id="GO:0016853" onmousemove="changeToText('GO:0016853')" onmouseout="changeBackText('GO:0016853')"  text-anchor="middle" x="108" y="-234.8" font-family="Times,serif" font-size="14.00">GO:0016853</text></a>
<a xlink:href="http://pir.georgetown.edu/cgi-bin/pt_graphvizView.pl?tofile=811593" ><text id="r811593" onmousemove="changeToText2('r811593', 26)" onmouseout="changeBackText2('r811593', 26)"  text-anchor="middle" x="108" y="-221.8" font-family="Times,serif" font-size="14.00">(26)</text>
 
</a> 
</g> 
<!-- f0&#45;&gt;o0 --> 
<g id="edge4" class="edge"><title>f0&#45;&gt;o0</title> 
<path fill="none" stroke="black" d="M1004.02,-293.169C992.794,-291.153 981.055,-289.295 970,-288 628.408,-247.984 538.551,-292.366 197,-252 189.421,-251.104 181.518,-249.937 173.686,-248.635"/> 
<polygon fill="black" stroke="black" points="174.286,-245.186 163.834,-246.922 173.086,-252.083 174.286,-245.186"/> 
</g> 
<!-- g0 --> 
<g id="node15" class="node"><title>g0</title> 
<ellipse fill="#e98576" stroke="#e98576" cx="286" cy="-234" rx="79.4447" ry="18"/> 
<a xlink:href="http://pir.georgetown.edu/cgi-bin/pt_graphvizView.pl?togoid=0016787" ><text id="GO:0016787" onmousemove="changeToText('GO:0016787')" onmouseout="changeBackText('GO:0016787')"  text-anchor="middle" x="286" y="-234.8" font-family="Times,serif" font-size="14.00">GO:0016787</text></a>
<a xlink:href="http://pir.georgetown.edu/cgi-bin/pt_graphvizView.pl?tofile=811577" ><text id="r811577" onmousemove="changeToText2('r811577', 97)" onmouseout="changeBackText2('r811577', 97)"  text-anchor="middle" x="286" y="-221.8" font-family="Times,serif" font-size="14.00">(97)</text>
 
</a> 
</g> 
<!-- f0&#45;&gt;g0 --> 
<g id="edge26" class="edge"><title>f0&#45;&gt;g0</title> 
<path fill="none" stroke="black" d="M1003.51,-293.27C992.438,-291.271 980.883,-289.394 970,-288 736.694,-258.119 676.295,-272.745 442,-252 416.837,-249.772 389.436,-246.928 364.72,-244.206"/> 
<polygon fill="black" stroke="black" points="364.995,-240.715 354.67,-243.09 364.222,-247.672 364.995,-240.715"/> 
</g> 
<!-- e0 --> 
<g id="node18" class="node"><title>e0</title> 
<ellipse fill="#e98576" stroke="#e98576" cx="536" cy="-234" rx="84.1886" ry="18"/> 
<a xlink:href="http://pir.georgetown.edu/cgi-bin/pt_graphvizView.pl?togoid=0016491" ><text id="GO:0016491" onmousemove="changeToText('GO:0016491')" onmouseout="changeBackText('GO:0016491')"  text-anchor="middle" x="536" y="-234.8" font-family="Times,serif" font-size="14.00">GO:0016491</text></a>
<a xlink:href="http://pir.georgetown.edu/cgi-bin/pt_graphvizView.pl?tofile=811575" ><text id="r811575" onmousemove="changeToText2('r811575', 158)" onmouseout="changeBackText2('r811575', 158)"  text-anchor="middle" x="536" y="-221.8" font-family="Times,serif" font-size="14.00">(158)</text>
 
</a> 
</g> 
<!-- f0&#45;&gt;e0 --> 
<g id="edge34" class="edge"><title>f0&#45;&gt;e0</title> 
<path fill="none" stroke="black" d="M1002.5,-293.42C991.728,-291.454 980.54,-289.551 970,-288 819.663,-265.88 780.422,-273.536 630,-252 622.382,-250.909 614.436,-249.655 606.533,-248.333"/> 
<polygon fill="black" stroke="black" points="607.02,-244.866 596.573,-246.629 605.839,-251.765 607.02,-244.866"/> 
</g> 
<!-- o1 --> 
<g id="node22" class="node"><title>o1</title> 
<ellipse fill="#e98576" stroke="#e98576" cx="714" cy="-234" rx="75.2018" ry="18"/> 
<a xlink:href="http://pir.georgetown.edu/cgi-bin/pt_graphvizView.pl?togoid=0019239" ><text id="GO:0019239" onmousemove="changeToText('GO:0019239')" onmouseout="changeBackText('GO:0019239')"  text-anchor="middle" x="714" y="-234.8" font-family="Times,serif" font-size="14.00">GO:0019239</text></a>
<a xlink:href="http://pir.georgetown.edu/cgi-bin/pt_graphvizView.pl?tofile=811643" ><text id="r811643" onmousemove="changeToText2('r811643', 1)" onmouseout="changeBackText2('r811643', 1)"  text-anchor="middle" x="714" y="-221.8" font-family="Times,serif" font-size="14.00">(1)</text>
 
</a> 
</g> 
<!-- f0&#45;&gt;o1 --> 
<g id="edge18" class="edge"><title>f0&#45;&gt;o1</title> 
<path fill="none" stroke="black" d="M1002.87,-293.441C941.466,-281.019 844.03,-261.307 779.555,-248.263"/> 
<polygon fill="black" stroke="black" points="779.996,-244.781 769.501,-246.229 778.608,-251.642 779.996,-244.781"/> 
</g> 
<!-- q0 --> 
<g id="node33" class="node"><title>q0</title> 
<ellipse fill="#e98576" stroke="#e98576" cx="887" cy="-234" rx="79.4447" ry="18"/> 
<a xlink:href="http://pir.georgetown.edu/cgi-bin/pt_graphvizView.pl?togoid=0016874" ><text id="GO:0016874" onmousemove="changeToText('GO:0016874')" onmouseout="changeBackText('GO:0016874')"  text-anchor="middle" x="887" y="-234.8" font-family="Times,serif" font-size="14.00">GO:0016874</text></a>
<a xlink:href="http://pir.georgetown.edu/cgi-bin/pt_graphvizView.pl?tofile=811597" ><text id="r811597" onmousemove="changeToText2('r811597', 22)" onmouseout="changeBackText2('r811597', 22)"  text-anchor="middle" x="887" y="-221.8" font-family="Times,serif" font-size="14.00">(22)</text>
 
</a> 
</g> 
<!-- f0&#45;&gt;q0 --> 
<g id="edge30" class="edge"><title>f0&#45;&gt;q0</title> 
<path fill="none" stroke="black" d="M1022.89,-289.983C996.776,-279.418 961.637,-265.2 933.633,-253.869"/> 
<polygon fill="black" stroke="black" points="934.634,-250.498 924.051,-249.992 932.009,-256.987 934.634,-250.498"/> 
</g> 
<!-- c1 --> 
<g id="node40" class="node"><title>c1</title> 
<ellipse fill="#e98576" stroke="#e98576" cx="1060" cy="-234" rx="75.2018" ry="18"/> 
<a xlink:href="http://pir.georgetown.edu/cgi-bin/pt_graphvizView.pl?togoid=0004386" ><text id="GO:0004386" onmousemove="changeToText('GO:0004386')" onmouseout="changeBackText('GO:0004386')"  text-anchor="middle" x="1060" y="-234.8" font-family="Times,serif" font-size="14.00">GO:0004386</text></a>
<a xlink:href="http://pir.georgetown.edu/cgi-bin/pt_graphvizView.pl?tofile=811625" ><text id="r811625" onmousemove="changeToText2('r811625', 3)" onmouseout="changeBackText2('r811625', 3)"  text-anchor="middle" x="1060" y="-221.8" font-family="Times,serif" font-size="14.00">(3)</text>
 
</a> 
</g> 
<!-- f0&#45;&gt;c1 --> 
<g id="edge38" class="edge"><title>f0&#45;&gt;c1</title> 
<path fill="none" stroke="black" d="M1060,-287.697C1060,-279.983 1060,-270.712 1060,-262.112"/> 
<polygon fill="black" stroke="black" points="1063.5,-262.104 1060,-252.104 1056.5,-262.104 1063.5,-262.104"/> 
</g> 
<!-- g1 --> 
<g id="node56" class="node"><title>g1</title> 
<ellipse fill="#e98576" stroke="#e98576" cx="1228" cy="-234" rx="75.2018" ry="18"/> 
<a xlink:href="http://pir.georgetown.edu/cgi-bin/pt_graphvizView.pl?togoid=0008641" ><text id="GO:0008641" onmousemove="changeToText('GO:0008641')" onmouseout="changeBackText('GO:0008641')"  text-anchor="middle" x="1228" y="-234.8" font-family="Times,serif" font-size="14.00">GO:0008641</text></a>
<a xlink:href="http://pir.georgetown.edu/cgi-bin/pt_graphvizView.pl?tofile=811633" ><text id="r811633" onmousemove="changeToText2('r811633', 1)" onmouseout="changeBackText2('r811633', 1)"  text-anchor="middle" x="1228" y="-221.8" font-family="Times,serif" font-size="14.00">(1)</text>
 
</a> 
</g> 
<!-- f0&#45;&gt;g1 --> 
<g id="edge54" class="edge"><title>f0&#45;&gt;g1</title> 
<path fill="none" stroke="black" d="M1096.45,-289.811C1121.83,-279.236 1155.85,-265.063 1182.93,-253.779"/> 
<polygon fill="black" stroke="black" points="1184.31,-256.996 1192.19,-249.919 1181.62,-250.534 1184.31,-256.996"/> 
</g> 
<!-- j0 --> 
<g id="node78" class="node"><title>j0</title> 
<ellipse fill="#e98576" stroke="#e98576" cx="1401" cy="-234" rx="79.4447" ry="18"/> 
<a xlink:href="http://pir.georgetown.edu/cgi-bin/pt_graphvizView.pl?togoid=0016740" ><text id="GO:0016740" onmousemove="changeToText('GO:0016740')" onmouseout="changeBackText('GO:0016740')"  text-anchor="middle" x="1401" y="-234.8" font-family="Times,serif" font-size="14.00">GO:0016740</text></a>
<a xlink:href="http://pir.georgetown.edu/cgi-bin/pt_graphvizView.pl?tofile=811583" ><text id="r811583" onmousemove="changeToText2('r811583', 80)" onmouseout="changeBackText2('r811583', 80)"  text-anchor="middle" x="1401" y="-221.8" font-family="Times,serif" font-size="14.00">(80)</text>
 
</a> 
</g> 
<!-- f0&#45;&gt;j0 --> 
<g id="edge76" class="edge"><title>f0&#45;&gt;j0</title> 
<path fill="none" stroke="black" d="M1116.69,-293.362C1176.55,-281.074 1270.86,-261.714 1334.27,-248.698"/> 
<polygon fill="black" stroke="black" points="1335.08,-252.105 1344.17,-246.665 1333.67,-245.248 1335.08,-252.105"/> 
</g> 
<!-- m0 --> 
<g id="node84" class="node"><title>m0</title> 
<ellipse fill="#e98576" stroke="#e98576" cx="1579" cy="-234" rx="79.4447" ry="18"/> 
<a xlink:href="http://pir.georgetown.edu/cgi-bin/pt_graphvizView.pl?togoid=0016829" ><text id="GO:0016829" onmousemove="changeToText('GO:0016829')" onmouseout="changeBackText('GO:0016829')"  text-anchor="middle" x="1579" y="-234.8" font-family="Times,serif" font-size="14.00">GO:0016829</text></a>
<a xlink:href="http://pir.georgetown.edu/cgi-bin/pt_graphvizView.pl?tofile=811589" ><text id="r811589" onmousemove="changeToText2('r811589', 34)" onmouseout="changeBackText2('r811589', 34)"  text-anchor="middle" x="1579" y="-221.8" font-family="Times,serif" font-size="14.00">(34)</text>
 
</a> 
</g> 
<!-- f0&#45;&gt;m0 --> 
<g id="edge82" class="edge"><title>f0&#45;&gt;m0</title> 
<path fill="none" stroke="black" d="M1130.79,-297.654C1216,-288.489 1363.32,-271.613 1489,-252 1496.32,-250.858 1503.95,-249.568 1511.55,-248.223"/> 
<polygon fill="black" stroke="black" points="1512.26,-251.651 1521.48,-246.43 1511.02,-244.763 1512.26,-251.651"/> 
</g> 
<!-- r1 --> 
<g id="node9" class="node"><title>r1</title> 
<ellipse fill="#e98576" stroke="#e98576" cx="1752" cy="-234" rx="75.2018" ry="18"/> 
<a xlink:href="http://pir.georgetown.edu/cgi-bin/pt_graphvizView.pl?togoid=0019825" ><text id="GO:0019825" onmousemove="changeToText('GO:0019825')" onmouseout="changeBackText('GO:0019825')"  text-anchor="middle" x="1752" y="-234.8" font-family="Times,serif" font-size="14.00">GO:0019825</text></a>
<a xlink:href="http://pir.georgetown.edu/cgi-bin/pt_graphvizView.pl?tofile=811649" ><text id="r811649" onmousemove="changeToText2('r811649', 1)" onmouseout="changeBackText2('r811649', 1)"  text-anchor="middle" x="1752" y="-221.8" font-family="Times,serif" font-size="14.00">(1)</text>
 
</a> 
</g> 
<!-- b0&#45;&gt;r1 --> 
<g id="edge6" class="edge"><title>b0&#45;&gt;r1</title> 
<path fill="none" stroke="black" d="M2855.98,-305.268C2678.15,-305.056 2217.27,-299.531 1836,-252 1829.16,-251.147 1822.03,-250.045 1814.96,-248.813"/> 
<polygon fill="black" stroke="black" points="1815.14,-245.287 1804.67,-246.928 1813.88,-252.173 1815.14,-245.287"/> 
</g> 
<!-- d1 --> 
<g id="node11" class="node"><title>d1</title> 
<ellipse fill="#e98576" stroke="#e98576" cx="1920" cy="-234" rx="75.2018" ry="18"/> 
<a xlink:href="http://pir.georgetown.edu/cgi-bin/pt_graphvizView.pl?togoid=0033218" ><text id="GO:0033218" onmousemove="changeToText('GO:0033218')" onmouseout="changeBackText('GO:0033218')"  text-anchor="middle" x="1920" y="-234.8" font-family="Times,serif" font-size="14.00">GO:0033218</text></a>
<a xlink:href="http://pir.georgetown.edu/cgi-bin/pt_graphvizView.pl?tofile=811627" ><text id="r811627" onmousemove="changeToText2('r811627', 3)" onmouseout="changeBackText2('r811627', 3)"  text-anchor="middle" x="1920" y="-221.8" font-family="Times,serif" font-size="14.00">(3)</text>
 
</a> 
</g> 
<!-- b0&#45;&gt;d1 --> 
<g id="edge8" class="edge"><title>b0&#45;&gt;d1</title> 
<path fill="none" stroke="black" d="M2856.17,-304.332C2698.12,-302.128 2318.95,-292.663 2004,-252 1997.16,-251.117 1990.04,-249.996 1982.97,-248.753"/> 
<polygon fill="black" stroke="black" points="1983.15,-245.227 1972.68,-246.856 1981.88,-252.111 1983.15,-245.227"/> 
</g> 
<!-- a1 --> 
<g id="node13" class="node"><title>a1</title> 
<ellipse fill="#e98576" stroke="#e98576" cx="2088" cy="-234" rx="75.2018" ry="18"/> 
<a xlink:href="http://pir.georgetown.edu/cgi-bin/pt_graphvizView.pl?togoid=0043021" ><text id="GO:0043021" onmousemove="changeToText('GO:0043021')" onmouseout="changeBackText('GO:0043021')"  text-anchor="middle" x="2088" y="-234.8" font-family="Times,serif" font-size="14.00">GO:0043021</text></a>
<a xlink:href="http://pir.georgetown.edu/cgi-bin/pt_graphvizView.pl?tofile=811621" ><text id="r811621" onmousemove="changeToText2('r811621', 4)" onmouseout="changeBackText2('r811621', 4)"  text-anchor="middle" x="2088" y="-221.8" font-family="Times,serif" font-size="14.00">(4)</text>
 
</a> 
</g> 
<!-- b0&#45;&gt;a1 --> 
<g id="edge10" class="edge"><title>b0&#45;&gt;a1</title> 
<path fill="none" stroke="black" d="M2856.87,-303.02C2720.68,-298.675 2421.68,-285.837 2172,-252 2165.26,-251.087 2158.26,-249.959 2151.29,-248.72"/> 
<polygon fill="black" stroke="black" points="2151.62,-245.222 2141.15,-246.841 2150.34,-252.105 2151.62,-245.222"/> 
</g> 
<!-- a0 --> 
<g id="node26" class="node"><title>a0</title> 
<ellipse fill="#e98576" stroke="#e98576" cx="2266" cy="-234" rx="84.1886" ry="18"/> 
<a xlink:href="http://pir.georgetown.edu/cgi-bin/pt_graphvizView.pl?togoid=0043167" ><text id="GO:0043167" onmousemove="changeToText('GO:0043167')" onmouseout="changeBackText('GO:0043167')"  text-anchor="middle" x="2266" y="-234.8" font-family="Times,serif" font-size="14.00">GO:0043167</text></a>
<a xlink:href="http://pir.georgetown.edu/cgi-bin/pt_graphvizView.pl?tofile=811571" ><text id="r811571" onmousemove="changeToText2('r811571', 243)" onmouseout="changeBackText2('r811571', 243)"  text-anchor="middle" x="2266" y="-221.8" font-family="Times,serif" font-size="14.00">(243)</text>
 
</a> 
</g> 
<!-- b0&#45;&gt;a0 --> 
<g id="edge22" class="edge"><title>b0&#45;&gt;a0</title> 
<path fill="none" stroke="black" d="M2859.56,-300.359C2751.22,-292.873 2539.04,-276.452 2360,-252 2352.26,-250.943 2344.18,-249.699 2336.16,-248.373"/> 
<polygon fill="black" stroke="black" points="2336.5,-244.88 2326.05,-246.658 2335.33,-251.782 2336.5,-244.88"/> 
</g> 
<!-- f1 --> 
<g id="node28" class="node"><title>f1</title> 
<a xlink:href="http://pir.georgetown.edu/cgi-bin/pt_graphvizView.pl?togoid=0043176" > 
<ellipse fill="#dddddd" stroke="#dddddd" cx="2430" cy="-234" rx="61.1934" ry="18"/> 
<a xlink:href="http://pir.georgetown.edu/cgi-bin/pt_graphvizView.pl?togoid=0043176" ><text id="GO:0043176" onmousemove="changeToText('GO:0043176')" onmouseout="changeBackText('GO:0043176')"  text-anchor="middle" x="2430" y="-229.8" font-family="Times,serif" font-size="14.00">GO:0043176</text></a>
 
</a> 
</g> 
<!-- b0&#45;&gt;f1 --> 
<g id="edge24" class="edge"><title>b0&#45;&gt;f1</title> 
<path fill="none" stroke="black" d="M2861.75,-298.882C2776.47,-290.794 2627.39,-274.845 2501,-252 2495.62,-251.028 2490.04,-249.901 2484.48,-248.698"/> 
<polygon fill="black" stroke="black" points="2485.05,-245.241 2474.53,-246.471 2483.52,-252.072 2485.05,-245.241"/> 
</g> 
<!-- z0 --> 
<g id="node31" class="node"><title>z0</title> 
<ellipse fill="#e98576" stroke="#e98576" cx="2585" cy="-234" rx="75.2018" ry="18"/> 
<a xlink:href="http://pir.georgetown.edu/cgi-bin/pt_graphvizView.pl?togoid=0030246" ><text id="GO:0030246" onmousemove="changeToText('GO:0030246')" onmouseout="changeBackText('GO:0030246')"  text-anchor="middle" x="2585" y="-234.8" font-family="Times,serif" font-size="14.00">GO:0030246</text></a>
<a xlink:href="http://pir.georgetown.edu/cgi-bin/pt_graphvizView.pl?tofile=811619" ><text id="r811619" onmousemove="changeToText2('r811619', 5)" onmouseout="changeBackText2('r811619', 5)"  text-anchor="middle" x="2585" y="-221.8" font-family="Times,serif" font-size="14.00">(5)</text>
 
</a> 
</g> 
<!-- b0&#45;&gt;z0 --> 
<g id="edge28" class="edge"><title>b0&#45;&gt;z0</title> 
<path fill="none" stroke="black" d="M2875.41,-293.753C2814.12,-281.354 2715.61,-261.424 2650.59,-248.27"/> 
<polygon fill="black" stroke="black" points="2650.95,-244.771 2640.45,-246.219 2649.56,-251.632 2650.95,-244.771"/> 
</g> 
<!-- h0 --> 
<g id="node35" class="node"><title>h0</title> 
<ellipse fill="#e98576" stroke="#e98576" cx="2758" cy="-234" rx="79.4447" ry="18"/> 
<a xlink:href="http://pir.georgetown.edu/cgi-bin/pt_graphvizView.pl?togoid=0003676" ><text id="GO:0003676" onmousemove="changeToText('GO:0003676')" onmouseout="changeBackText('GO:0003676')"  text-anchor="middle" x="2758" y="-234.8" font-family="Times,serif" font-size="14.00">GO:0003676</text></a>
<a xlink:href="http://pir.georgetown.edu/cgi-bin/pt_graphvizView.pl?tofile=811579" ><text id="r811579" onmousemove="changeToText2('r811579', 94)" onmouseout="changeBackText2('r811579', 94)"  text-anchor="middle" x="2758" y="-221.8" font-family="Times,serif" font-size="14.00">(94)</text>
 
</a> 
</g> 
<!-- b0&#45;&gt;h0 --> 
<g id="edge32" class="edge"><title>b0&#45;&gt;h0</title> 
<path fill="none" stroke="black" d="M2894.31,-290.155C2868.14,-279.564 2832.73,-265.239 2804.57,-253.842"/> 
<polygon fill="black" stroke="black" points="2805.52,-250.451 2794.93,-249.944 2802.89,-256.94 2805.52,-250.451"/> 
</g> 
<!-- p1 --> 
<g id="node38" class="node"><title>p1</title> 
<ellipse fill="#e98576" stroke="#e98576" cx="2931" cy="-234" rx="75.2018" ry="18"/> 
<a xlink:href="http://pir.georgetown.edu/cgi-bin/pt_graphvizView.pl?togoid=0001871" ><text id="GO:0001871" onmousemove="changeToText('GO:0001871')" onmouseout="changeBackText('GO:0001871')"  text-anchor="middle" x="2931" y="-234.8" font-family="Times,serif" font-size="14.00">GO:0001871</text></a>
<a xlink:href="http://pir.georgetown.edu/cgi-bin/pt_graphvizView.pl?tofile=811645" ><text id="r811645" onmousemove="changeToText2('r811645', 1)" onmouseout="changeBackText2('r811645', 1)"  text-anchor="middle" x="2931" y="-221.8" font-family="Times,serif" font-size="14.00">(1)</text>
 
</a> 
</g> 
<!-- b0&#45;&gt;p1 --> 
<g id="edge36" class="edge"><title>b0&#45;&gt;p1</title> 
<path fill="none" stroke="black" d="M2931,-287.697C2931,-279.983 2931,-270.712 2931,-262.112"/> 
<polygon fill="black" stroke="black" points="2934.5,-262.104 2931,-252.104 2927.5,-262.104 2934.5,-262.104"/> 
</g> 
<!-- k0 --> 
<g id="node44" class="node"><title>k0</title> 
<ellipse fill="#e98576" stroke="#e98576" cx="3104" cy="-234" rx="79.4447" ry="18"/> 
<a xlink:href="http://pir.georgetown.edu/cgi-bin/pt_graphvizView.pl?togoid=0048037" ><text id="GO:0048037" onmousemove="changeToText('GO:0048037')" onmouseout="changeBackText('GO:0048037')"  text-anchor="middle" x="3104" y="-234.8" font-family="Times,serif" font-size="14.00">GO:0048037</text></a>
<a xlink:href="http://pir.georgetown.edu/cgi-bin/pt_graphvizView.pl?tofile=811585" ><text id="r811585" onmousemove="changeToText2('r811585', 59)" onmouseout="changeBackText2('r811585', 59)"  text-anchor="middle" x="3104" y="-221.8" font-family="Times,serif" font-size="14.00">(59)</text>
 
</a> 
</g> 
<!-- b0&#45;&gt;k0 --> 
<g id="edge42" class="edge"><title>b0&#45;&gt;k0</title> 
<path fill="none" stroke="black" d="M2967.69,-290.155C2993.86,-279.564 3029.27,-265.239 3057.43,-253.842"/> 
<polygon fill="black" stroke="black" points="3059.11,-256.94 3067.07,-249.944 3056.48,-250.451 3059.11,-256.94"/> 
</g> 
<!-- y0 --> 
<g id="node48" class="node"><title>y0</title> 
<ellipse fill="#e98576" stroke="#e98576" cx="3277" cy="-234" rx="75.2018" ry="18"/> 
<a xlink:href="http://pir.georgetown.edu/cgi-bin/pt_graphvizView.pl?togoid=0008289" ><text id="GO:0008289" onmousemove="changeToText('GO:0008289')" onmouseout="changeBackText('GO:0008289')"  text-anchor="middle" x="3277" y="-234.8" font-family="Times,serif" font-size="14.00">GO:0008289</text></a>
<a xlink:href="http://pir.georgetown.edu/cgi-bin/pt_graphvizView.pl?tofile=811617" ><text id="r811617" onmousemove="changeToText2('r811617', 5)" onmouseout="changeBackText2('r811617', 5)"  text-anchor="middle" x="3277" y="-221.8" font-family="Times,serif" font-size="14.00">(5)</text>
 
</a> 
</g> 
<!-- b0&#45;&gt;y0 --> 
<g id="edge46" class="edge"><title>b0&#45;&gt;y0</title> 
<path fill="none" stroke="black" d="M2986.59,-293.753C3047.88,-281.354 3146.39,-261.424 3211.41,-248.27"/> 
<polygon fill="black" stroke="black" points="3212.44,-251.632 3221.55,-246.219 3211.05,-244.771 3212.44,-251.632"/> 
</g> 
<!-- p0 --> 
<g id="node58" class="node"><title>p0</title> 
<ellipse fill="#e98576" stroke="#e98576" cx="3450" cy="-234" rx="79.4447" ry="18"/> 
<a xlink:href="http://pir.georgetown.edu/cgi-bin/pt_graphvizView.pl?togoid=0001882" ><text id="GO:0001882" onmousemove="changeToText('GO:0001882')" onmouseout="changeBackText('GO:0001882')"  text-anchor="middle" x="3450" y="-234.8" font-family="Times,serif" font-size="14.00">GO:0001882</text></a>
<a xlink:href="http://pir.georgetown.edu/cgi-bin/pt_graphvizView.pl?tofile=811595" ><text id="r811595" onmousemove="changeToText2('r811595', 23)" onmouseout="changeBackText2('r811595', 23)"  text-anchor="middle" x="3450" y="-221.8" font-family="Times,serif" font-size="14.00">(23)</text>
 
</a> 
</g> 
<!-- b0&#45;&gt;p0 --> 
<g id="edge56" class="edge"><title>b0&#45;&gt;p0</title> 
<path fill="none" stroke="black" d="M2984.64,-293.347C2994.7,-291.389 3005.15,-289.506 3015,-288 3167.83,-264.639 3208.04,-274.524 3361,-252 3368.17,-250.944 3375.64,-249.718 3383.07,-248.417"/> 
<polygon fill="black" stroke="black" points="3383.92,-251.82 3393.15,-246.605 3382.69,-244.93 3383.92,-251.82"/> 
</g> 
<!-- t0 --> 
<g id="node60" class="node"><title>t0</title> 
<ellipse fill="#e98576" stroke="#e98576" cx="3628" cy="-234" rx="79.4447" ry="18"/> 
<a xlink:href="http://pir.georgetown.edu/cgi-bin/pt_graphvizView.pl?togoid=0019842" ><text id="GO:0019842" onmousemove="changeToText('GO:0019842')" onmouseout="changeBackText('GO:0019842')"  text-anchor="middle" x="3628" y="-234.8" font-family="Times,serif" font-size="14.00">GO:0019842</text></a>
<a xlink:href="http://pir.georgetown.edu/cgi-bin/pt_graphvizView.pl?tofile=811603" ><text id="r811603" onmousemove="changeToText2('r811603', 15)" onmouseout="changeBackText2('r811603', 15)"  text-anchor="middle" x="3628" y="-221.8" font-family="Times,serif" font-size="14.00">(15)</text>
 
</a> 
</g> 
<!-- b0&#45;&gt;t0 --> 
<g id="edge58" class="edge"><title>b0&#45;&gt;t0</title> 
<path fill="none" stroke="black" d="M2984.15,-293.151C2994.35,-291.188 3004.97,-289.354 3015,-288 3245.9,-256.825 3306.9,-281.674 3538,-252 3545.65,-251.017 3553.64,-249.797 3561.55,-248.463"/> 
<polygon fill="black" stroke="black" points="3562.26,-251.892 3571.51,-246.724 3561.06,-244.997 3562.26,-251.892"/> 
</g> 
<!-- j1 --> 
<g id="node73" class="node"><title>j1</title> 
<ellipse fill="#e98576" stroke="#e98576" cx="3801" cy="-234" rx="75.2018" ry="18"/> 
<a xlink:href="http://pir.georgetown.edu/cgi-bin/pt_graphvizView.pl?togoid=0031406" ><text id="GO:0031406" onmousemove="changeToText('GO:0031406')" onmouseout="changeBackText('GO:0031406')"  text-anchor="middle" x="3801" y="-234.8" font-family="Times,serif" font-size="14.00">GO:0031406</text></a>
<a xlink:href="http://pir.georgetown.edu/cgi-bin/pt_graphvizView.pl?tofile=811637" ><text id="r811637" onmousemove="changeToText2('r811637', 1)" onmouseout="changeBackText2('r811637', 1)"  text-anchor="middle" x="3801" y="-221.8" font-family="Times,serif" font-size="14.00">(1)</text>
 
</a> 
</g> 
<!-- b0&#45;&gt;j1 --> 
<g id="edge70" class="edge"><title>b0&#45;&gt;j1</title> 
<path fill="none" stroke="black" d="M2983.68,-293.096C2994.02,-291.112 3004.81,-289.285 3015,-288 3324.51,-248.952 3406.44,-290.694 3716,-252 3723.19,-251.102 3730.67,-249.94 3738.1,-248.647"/> 
<polygon fill="black" stroke="black" points="3738.94,-252.052 3748.14,-246.813 3737.68,-245.165 3738.94,-252.052"/> 
</g> 
<!-- u0 --> 
<g id="node80" class="node"><title>u0</title> 
<ellipse fill="#e98576" stroke="#e98576" cx="3974" cy="-234" rx="79.4447" ry="18"/> 
<a xlink:href="http://pir.georgetown.edu/cgi-bin/pt_graphvizView.pl?togoid=0046906" ><text id="GO:0046906" onmousemove="changeToText('GO:0046906')" onmouseout="changeBackText('GO:0046906')"  text-anchor="middle" x="3974" y="-234.8" font-family="Times,serif" font-size="14.00">GO:0046906</text></a>
<a xlink:href="http://pir.georgetown.edu/cgi-bin/pt_graphvizView.pl?tofile=811605" ><text id="r811605" onmousemove="changeToText2('r811605', 12)" onmouseout="changeBackText2('r811605', 12)"  text-anchor="middle" x="3974" y="-221.8" font-family="Times,serif" font-size="14.00">(12)</text>
 
</a> 
</g> 
<!-- b0&#45;&gt;u0 --> 
<g id="edge78" class="edge"><title>b0&#45;&gt;u0</title> 
<path fill="none" stroke="black" d="M2983.67,-293.015C2994.01,-291.038 3004.81,-289.234 3015,-288 3399.19,-241.472 3500.56,-296.425 3885,-252 3892.5,-251.134 3900.31,-249.995 3908.06,-248.716"/> 
<polygon fill="black" stroke="black" points="3908.91,-252.12 3918.17,-246.966 3907.72,-245.223 3908.91,-252.12"/> 
</g> 
<!-- d0 --> 
<g id="node82" class="node"><title>d0</title> 
<ellipse fill="#e98576" stroke="#e98576" cx="4157" cy="-234" rx="84.1886" ry="18"/> 
<a xlink:href="http://pir.georgetown.edu/cgi-bin/pt_graphvizView.pl?togoid=0000166" ><text id="GO:0000166" onmousemove="changeToText('GO:0000166')" onmouseout="changeBackText('GO:0000166')"  text-anchor="middle" x="4157" y="-234.8" font-family="Times,serif" font-size="14.00">GO:0000166</text></a>
<a xlink:href="http://pir.georgetown.edu/cgi-bin/pt_graphvizView.pl?tofile=811573" ><text id="r811573" onmousemove="changeToText2('r811573', 168)" onmouseout="changeBackText2('r811573', 168)"  text-anchor="middle" x="4157" y="-221.8" font-family="Times,serif" font-size="14.00">(168)</text>
 
</a> 
</g> 
<!-- b0&#45;&gt;d0 --> 
<g id="edge80" class="edge"><title>b0&#45;&gt;d0</title> 
<path fill="none" stroke="black" d="M2983.21,-293.044C2993.69,-291.038 3004.66,-289.216 3015,-288 3477.42,-233.635 3598.99,-301.133 4062,-252 4070.38,-251.11 4079.14,-249.914 4087.8,-248.565"/> 
<polygon fill="black" stroke="black" points="4088.59,-251.983 4097.89,-246.922 4087.46,-245.074 4088.59,-251.983"/> 
</g> 
<!-- w0 --> 
<g id="node87" class="node"><title>w0</title> 
<ellipse fill="#e98576" stroke="#e98576" cx="4335" cy="-234" rx="75.2018" ry="18"/> 
<a xlink:href="http://pir.georgetown.edu/cgi-bin/pt_graphvizView.pl?togoid=0051540" ><text id="GO:0051540" onmousemove="changeToText('GO:0051540')" onmouseout="changeBackText('GO:0051540')"  text-anchor="middle" x="4335" y="-234.8" font-family="Times,serif" font-size="14.00">GO:0051540</text></a>
<a xlink:href="http://pir.georgetown.edu/cgi-bin/pt_graphvizView.pl?tofile=811611" ><text id="r811611" onmousemove="changeToText2('r811611', 9)" onmouseout="changeBackText2('r811611', 9)"  text-anchor="middle" x="4335" y="-221.8" font-family="Times,serif" font-size="14.00">(9)</text>
 
</a> 
</g> 
<!-- b0&#45;&gt;w0 --> 
<g id="edge86" class="edge"><title>b0&#45;&gt;w0</title> 
<path fill="none" stroke="black" d="M2983.21,-293.001C2993.68,-290.999 3004.65,-289.189 3015,-288 3560.53,-225.31 3704.4,-314.065 4250,-252 4257.38,-251.16 4265.08,-250.012 4272.69,-248.706"/> 
<polygon fill="black" stroke="black" points="4273.4,-252.134 4282.62,-246.91 4272.16,-245.246 4273.4,-252.134"/> 
</g> 
<!-- n0 --> 
<g id="node17" class="node"><title>n0</title> 
<ellipse fill="#e98576" stroke="#e98576" cx="79" cy="-162" rx="79.4447" ry="18"/> 
<a xlink:href="http://pir.georgetown.edu/cgi-bin/pt_graphvizView.pl?togoid=0008233" ><text id="GO:0008233" onmousemove="changeToText('GO:0008233')" onmouseout="changeBackText('GO:0008233')"  text-anchor="middle" x="79" y="-162.8" font-family="Times,serif" font-size="14.00">GO:0008233</text></a>
<a xlink:href="http://pir.georgetown.edu/cgi-bin/pt_graphvizView.pl?tofile=811591" ><text id="r811591" onmousemove="changeToText2('r811591', 30)" onmouseout="changeBackText2('r811591', 30)"  text-anchor="middle" x="79" y="-149.8" font-family="Times,serif" font-size="14.00">(30)</text>
 
</a> 
</g> 
<!-- g0&#45;&gt;n0 --> 
<g id="edge14" class="edge"><title>g0&#45;&gt;n0</title> 
<path fill="none" stroke="black" d="M243.611,-218.666C210.959,-207.624 165.666,-192.307 130.854,-180.535"/> 
<polygon fill="black" stroke="black" points="131.927,-177.203 121.332,-177.315 129.684,-183.834 131.927,-177.203"/> 
</g> 
<!-- q1 --> 
<g id="node71" class="node"><title>q1</title> 
<ellipse fill="#e98576" stroke="#e98576" cx="252" cy="-162" rx="75.2018" ry="18"/> 
<a xlink:href="http://pir.georgetown.edu/cgi-bin/pt_graphvizView.pl?togoid=0019213" ><text id="GO:0019213" onmousemove="changeToText('GO:0019213')" onmouseout="changeBackText('GO:0019213')"  text-anchor="middle" x="252" y="-162.8" font-family="Times,serif" font-size="14.00">GO:0019213</text></a>
<a xlink:href="http://pir.georgetown.edu/cgi-bin/pt_graphvizView.pl?tofile=811647" ><text id="r811647" onmousemove="changeToText2('r811647', 1)" onmouseout="changeBackText2('r811647', 1)"  text-anchor="middle" x="252" y="-149.8" font-family="Times,serif" font-size="14.00">(1)</text>
 
</a> 
</g> 
<!-- g0&#45;&gt;q1 --> 
<g id="edge68" class="edge"><title>g0&#45;&gt;q1</title> 
<path fill="none" stroke="black" d="M277.77,-216.055C273.902,-208.091 269.2,-198.411 264.876,-189.51"/> 
<polygon fill="black" stroke="black" points="267.908,-187.741 260.391,-180.275 261.612,-190.8 267.908,-187.741"/> 
</g> 
<!-- b1 --> 
<g id="node20" class="node"><title>b1</title> 
<ellipse fill="#e98576" stroke="#e98576" cx="420" cy="-162" rx="75.2018" ry="18"/> 
<a xlink:href="http://pir.georgetown.edu/cgi-bin/pt_graphvizView.pl?togoid=0004497" ><text id="GO:0004497" onmousemove="changeToText('GO:0004497')" onmouseout="changeBackText('GO:0004497')"  text-anchor="middle" x="420" y="-162.8" font-family="Times,serif" font-size="14.00">GO:0004497</text></a>
<a xlink:href="http://pir.georgetown.edu/cgi-bin/pt_graphvizView.pl?tofile=811623" ><text id="r811623" onmousemove="changeToText2('r811623', 4)" onmouseout="changeBackText2('r811623', 4)"  text-anchor="middle" x="420" y="-149.8" font-family="Times,serif" font-size="14.00">(4)</text>
 
</a> 
</g> 
<!-- e0&#45;&gt;b1 --> 
<g id="edge16" class="edge"><title>e0&#45;&gt;b1</title> 
<path fill="none" stroke="black" d="M509.096,-216.765C493.023,-207.066 472.428,-194.638 455.088,-184.174"/> 
<polygon fill="black" stroke="black" points="456.729,-181.076 446.358,-178.906 453.112,-187.069 456.729,-181.076"/> 
</g> 
<!-- x0 --> 
<g id="node46" class="node"><title>x0</title> 
<ellipse fill="#e98576" stroke="#e98576" cx="588" cy="-162" rx="75.2018" ry="18"/> 
<a xlink:href="http://pir.georgetown.edu/cgi-bin/pt_graphvizView.pl?togoid=0051213" ><text id="GO:0051213" onmousemove="changeToText('GO:0051213')" onmouseout="changeBackText('GO:0051213')"  text-anchor="middle" x="588" y="-162.8" font-family="Times,serif" font-size="14.00">GO:0051213</text></a>
<a xlink:href="http://pir.georgetown.edu/cgi-bin/pt_graphvizView.pl?tofile=811615" ><text id="r811615" onmousemove="changeToText2('r811615', 6)" onmouseout="changeBackText2('r811615', 6)"  text-anchor="middle" x="588" y="-149.8" font-family="Times,serif" font-size="14.00">(6)</text>
 
</a> 
</g> 
<!-- e0&#45;&gt;x0 --> 
<g id="edge44" class="edge"><title>e0&#45;&gt;x0</title> 
<path fill="none" stroke="black" d="M548.588,-216.055C554.847,-207.629 562.535,-197.28 569.454,-187.966"/> 
<polygon fill="black" stroke="black" points="572.375,-189.904 575.528,-179.789 566.755,-185.729 572.375,-189.904"/> 
</g> 
<!-- r0 --> 
<g id="node76" class="node"><title>r0</title> 
<ellipse fill="#e98576" stroke="#e98576" cx="761" cy="-162" rx="79.4447" ry="18"/> 
<a xlink:href="http://pir.georgetown.edu/cgi-bin/pt_graphvizView.pl?togoid=0009055" ><text id="GO:0009055" onmousemove="changeToText('GO:0009055')" onmouseout="changeBackText('GO:0009055')"  text-anchor="middle" x="761" y="-162.8" font-family="Times,serif" font-size="14.00">GO:0009055</text></a>
<a xlink:href="http://pir.georgetown.edu/cgi-bin/pt_graphvizView.pl?tofile=811599" ><text id="r811599" onmousemove="changeToText2('r811599', 17)" onmouseout="changeBackText2('r811599', 17)"  text-anchor="middle" x="761" y="-149.8" font-family="Times,serif" font-size="14.00">(17)</text>
 
</a> 
</g> 
<!-- e0&#45;&gt;r0 --> 
<g id="edge74" class="edge"><title>e0&#45;&gt;r0</title> 
<path fill="none" stroke="black" d="M581.532,-218.834C617.602,-207.613 668.113,-191.898 706.362,-179.998"/> 
<polygon fill="black" stroke="black" points="707.795,-183.218 716.303,-176.906 705.715,-176.534 707.795,-183.218"/> 
</g> 
<!-- e1 --> 
<g id="node64" class="node"><title>e1</title> 
<ellipse fill="#e98576" stroke="#e98576" cx="2430" cy="-162" rx="75.2018" ry="18"/> 
<a xlink:href="http://pir.georgetown.edu/cgi-bin/pt_graphvizView.pl?togoid=0016597" ><text id="GO:0016597" onmousemove="changeToText('GO:0016597')" onmouseout="changeBackText('GO:0016597')"  text-anchor="middle" x="2430" y="-162.8" font-family="Times,serif" font-size="14.00">GO:0016597</text></a>
<a xlink:href="http://pir.georgetown.edu/cgi-bin/pt_graphvizView.pl?tofile=811631" ><text id="r811631" onmousemove="changeToText2('r811631', 2)" onmouseout="changeBackText2('r811631', 2)"  text-anchor="middle" x="2430" y="-149.8" font-family="Times,serif" font-size="14.00">(2)</text>
 
</a> 
</g> 
<!-- f1&#45;&gt;e1 --> 
<g id="edge62" class="edge"><title>f1&#45;&gt;e1</title> 
<path fill="none" stroke="black" d="M2430,-215.697C2430,-207.983 2430,-198.712 2430,-190.112"/> 
<polygon fill="black" stroke="black" points="2433.5,-190.104 2430,-180.104 2426.5,-190.104 2433.5,-190.104"/> 
</g> 
<!-- m1 --> 
<g id="node50" class="node"><title>m1</title> 
<a xlink:href="http://pir.georgetown.edu/cgi-bin/pt_graphvizView.pl?togoid=0016879" > 
<ellipse fill="#dddddd" stroke="#dddddd" cx="920" cy="-162" rx="61.1934" ry="18"/> 
<a xlink:href="http://pir.georgetown.edu/cgi-bin/pt_graphvizView.pl?togoid=0016879" ><text id="GO:0016879" onmousemove="changeToText('GO:0016879')" onmouseout="changeBackText('GO:0016879')"  text-anchor="middle" x="920" y="-157.8" font-family="Times,serif" font-size="14.00">GO:0016879</text></a>
 
</a> 
</g> 
<!-- q0&#45;&gt;m1 --> 
<g id="edge48" class="edge"><title>q0&#45;&gt;m1</title> 
<path fill="none" stroke="black" d="M894.988,-216.055C898.743,-208.091 903.306,-198.411 907.503,-189.51"/> 
<polygon fill="black" stroke="black" points="910.758,-190.813 911.856,-180.275 904.426,-187.828 910.758,-190.813"/> 
</g> 
<!-- l1 --> 
<g id="node51" class="node"><title>l1</title> 
<a xlink:href="http://pir.georgetown.edu/cgi-bin/pt_graphvizView.pl?togoid=0016881" > 
<ellipse fill="#dddddd" stroke="#dddddd" cx="920" cy="-90" rx="61.1934" ry="18"/> 
<a xlink:href="http://pir.georgetown.edu/cgi-bin/pt_graphvizView.pl?togoid=0016881" ><text id="GO:0016881" onmousemove="changeToText('GO:0016881')" onmouseout="changeBackText('GO:0016881')"  text-anchor="middle" x="920" y="-85.8" font-family="Times,serif" font-size="14.00">GO:0016881</text></a>
 
</a> 
</g> 
<!-- m1&#45;&gt;l1 --> 
<g id="edge72" class="edge"><title>m1&#45;&gt;l1</title> 
<path fill="none" stroke="black" d="M920,-143.697C920,-135.983 920,-126.712 920,-118.112"/> 
<polygon fill="black" stroke="black" points="923.5,-118.104 920,-108.104 916.5,-118.104 923.5,-118.104"/> 
</g> 
<!-- k1 --> 
<g id="node53" class="node"><title>k1</title> 
<ellipse fill="#e98576" stroke="#e98576" cx="920" cy="-18" rx="75.2018" ry="18"/> 
<a xlink:href="http://pir.georgetown.edu/cgi-bin/pt_graphvizView.pl?togoid=0019787" ><text id="GO:0019787" onmousemove="changeToText('GO:0019787')" onmouseout="changeBackText('GO:0019787')"  text-anchor="middle" x="920" y="-18.8" font-family="Times,serif" font-size="14.00">GO:0019787</text></a>
<a xlink:href="http://pir.georgetown.edu/cgi-bin/pt_graphvizView.pl?tofile=811639" ><text id="r811639" onmousemove="changeToText2('r811639', 1)" onmouseout="changeBackText2('r811639', 1)"  text-anchor="middle" x="920" y="-5.8" font-family="Times,serif" font-size="14.00">(1)</text>
 
</a> 
</g> 
<!-- l1&#45;&gt;k1 --> 
<g id="edge50" class="edge"><title>l1&#45;&gt;k1</title> 
<path fill="none" stroke="black" d="M920,-71.6966C920,-63.9827 920,-54.7125 920,-46.1124"/> 
<polygon fill="black" stroke="black" points="923.5,-46.1043 920,-36.1043 916.5,-46.1044 923.5,-46.1043"/> 
</g> 
<!-- h1 --> 
<g id="node67" class="node"><title>h1</title> 
<ellipse fill="#e98576" stroke="#e98576" cx="4503" cy="-234" rx="75.2018" ry="18"/> 
<a xlink:href="http://pir.georgetown.edu/cgi-bin/pt_graphvizView.pl?togoid=0004871" ><text id="GO:0004871" onmousemove="changeToText('GO:0004871')" onmouseout="changeBackText('GO:0004871')"  text-anchor="middle" x="4503" y="-234.8" font-family="Times,serif" font-size="14.00">GO:0004871</text></a>
<a xlink:href="http://pir.georgetown.edu/cgi-bin/pt_graphvizView.pl?tofile=811635" ><text id="r811635" onmousemove="changeToText2('r811635', 1)" onmouseout="changeBackText2('r811635', 1)"  text-anchor="middle" x="4503" y="-221.8" font-family="Times,serif" font-size="14.00">(1)</text>
 
</a> 
</g> 
<!-- i1&#45;&gt;h1 --> 
<g id="edge64" class="edge"><title>i1&#45;&gt;h1</title> 
<path fill="none" stroke="black" d="M3653.07,-293.186C3661.91,-291.142 3671.21,-289.269 3680,-288 4005.46,-240.987 4092.7,-292.73 4419,-252 4425.84,-251.146 4432.97,-250.043 4440.04,-248.811"/> 
<polygon fill="black" stroke="black" points="4441.12,-252.17 4450.33,-246.925 4439.86,-245.285 4441.12,-252.17"/> 
</g> 
</g> 
<text text-anchor="left" x="4" y="-20" style="font-family:Arial Narrow;font-size:20.00;font-weight:bold;">GO Hierarchical View:</text> 

<text text-anchor="left" x="4" y="0" style="font-family:Arial Narrow;font-size:20.00;font-style:italic;">molecular function</text> 

<script type="text/ecmascript"> 
<![CDATA[ 
var targetText; 
function changeToText(z) { 
		targetText = svgDocument.getElementById(z).firstChild; 
		targetText.nodeValue="link to "+z; 
} 
function changeBackText(z) { 
		targetText = svgDocument.getElementById(z).firstChild; 
		targetText.nodeValue=z; 
} 
function changeToText2(z,n) { 
		targetText = svgDocument.getElementById(z).firstChild; 
		if (n<=1) { 
			targetText.nodeValue="link to " + n + " protein record"; 
		} else { 
			targetText.nodeValue="link to " + n + " protein records"; 
		} 
} 
function changeBackText2(z,n) { 
		targetText = svgDocument.getElementById(z).firstChild; 
		targetText.nodeValue="(" + n + ")"; 
} 
// ]]> 
</script> 
</svg> 
