<?xml version="1.0" encoding="UTF-8" standalone="no"?> 
<!DOCTYPE svg PUBLIC "-//W3C//DTD SVG 1.1//EN" 
 "http://www.w3.org/Graphics/SVG/1.1/DTD/svg11.dtd"> 
<!-- Generated by graphviz version 2.28.0 (20110622.2320) 
 --> 
<!-- Title: G Pages: 1 --> 
<svg width="2000" height="1000"  
 viewBox="-30 -50 2000 1000" xmlns="http://www.w3.org/2000/svg" xmlns:xlink="http://www.w3.org/1999/xlink"> 
<g id="graph1" class="graph" transform="scale(1 1) rotate(0) translate(4 400)"> 
<title>G</title> 
<polygon fill="white" stroke="white" points="-4,5 -4,-400 3784,-400 3784,5 -4,5"/> 
<!-- g0 --> 
<g id="node1" class="node"><title>g0</title> 
<ellipse fill="#e98576" stroke="#e98576" cx="861" cy="-306" rx="79.4447" ry="18"/> 
<a xlink:href="http://pir.georgetown.edu/cgi-bin/pt_graphvizView.pl?togoid=0003824" ><text id="GO:0003824" onmousemove="changeToText('GO:0003824')" onmouseout="changeBackText('GO:0003824')"  text-anchor="middle" x="861" y="-306.8" font-family="Times,serif" font-size="14.00">GO:0003824</text></a>
<a xlink:href="http://pir.georgetown.edu/cgi-bin/pt_graphvizView.pl?tofile=990978" ><text id="r990978" onmousemove="changeToText2('r990978', 16)" onmouseout="changeBackText2('r990978', 16)"  text-anchor="middle" x="861" y="-293.8" font-family="Times,serif" font-size="14.00">(16)</text>
 
</a> 
</g> 
<!-- r0 --> 
<g id="node3" class="node"><title>r0</title> 
<ellipse fill="#e98576" stroke="#e98576" cx="75" cy="-234" rx="75.2018" ry="18"/> 
<a xlink:href="http://pir.georgetown.edu/cgi-bin/pt_graphvizView.pl?togoid=0016853" ><text id="GO:0016853" onmousemove="changeToText('GO:0016853')" onmouseout="changeBackText('GO:0016853')"  text-anchor="middle" x="75" y="-234.8" font-family="Times,serif" font-size="14.00">GO:0016853</text></a>
<a xlink:href="http://pir.georgetown.edu/cgi-bin/pt_graphvizView.pl?tofile=990992" ><text id="r990992" onmousemove="changeToText2('r990992', 6)" onmouseout="changeBackText2('r990992', 6)"  text-anchor="middle" x="75" y="-221.8" font-family="Times,serif" font-size="14.00">(6)</text>
 
</a> 
</g> 
<!-- g0&#45;&gt;r0 --> 
<g id="edge2" class="edge"><title>g0&#45;&gt;r0</title> 
<path fill="none" stroke="black" d="M783.015,-302.28C653.091,-297.04 384.338,-283.185 159,-252 152.266,-251.068 145.261,-249.927 138.295,-248.682"/> 
<polygon fill="black" stroke="black" points="138.625,-245.183 128.153,-246.795 137.344,-252.065 138.625,-245.183"/> 
</g> 
<!-- f0 --> 
<g id="node13" class="node"><title>f0</title> 
<ellipse fill="#e98576" stroke="#e98576" cx="248" cy="-234" rx="79.4447" ry="18"/> 
<a xlink:href="http://pir.georgetown.edu/cgi-bin/pt_graphvizView.pl?togoid=0016787" ><text id="GO:0016787" onmousemove="changeToText('GO:0016787')" onmouseout="changeBackText('GO:0016787')"  text-anchor="middle" x="248" y="-234.8" font-family="Times,serif" font-size="14.00">GO:0016787</text></a>
<a xlink:href="http://pir.georgetown.edu/cgi-bin/pt_graphvizView.pl?tofile=990966" ><text id="r990966" onmousemove="changeToText2('r990966', 65)" onmouseout="changeBackText2('r990966', 65)"  text-anchor="middle" x="248" y="-221.8" font-family="Times,serif" font-size="14.00">(65)</text>
 
</a> 
</g> 
<!-- g0&#45;&gt;f0 --> 
<g id="edge20" class="edge"><title>g0&#45;&gt;f0</title> 
<path fill="none" stroke="black" d="M786.554,-299.543C684.734,-291.607 496.471,-275.249 337,-252 329.83,-250.955 322.359,-249.735 314.927,-248.438"/> 
<polygon fill="black" stroke="black" points="315.309,-244.951 304.849,-246.63 314.073,-251.841 315.309,-244.951"/> 
</g> 
<!-- j1 --> 
<g id="node17" class="node"><title>j1</title> 
<ellipse fill="#e98576" stroke="#e98576" cx="421" cy="-234" rx="75.2018" ry="18"/> 
<a xlink:href="http://pir.georgetown.edu/cgi-bin/pt_graphvizView.pl?togoid=0019239" ><text id="GO:0019239" onmousemove="changeToText('GO:0019239')" onmouseout="changeBackText('GO:0019239')"  text-anchor="middle" x="421" y="-234.8" font-family="Times,serif" font-size="14.00">GO:0019239</text></a>
<a xlink:href="http://pir.georgetown.edu/cgi-bin/pt_graphvizView.pl?tofile=991022" ><text id="r991022" onmousemove="changeToText2('r991022', 1)" onmouseout="changeBackText2('r991022', 1)"  text-anchor="middle" x="421" y="-221.8" font-family="Times,serif" font-size="14.00">(1)</text>
 
</a> 
</g> 
<!-- g0&#45;&gt;j1 --> 
<g id="edge14" class="edge"><title>g0&#45;&gt;j1</title> 
<path fill="none" stroke="black" d="M794.237,-296.114C722.574,-286.33 605.474,-269.634 505,-252 498.749,-250.903 492.249,-249.699 485.756,-248.455"/> 
<polygon fill="black" stroke="black" points="486.081,-244.953 475.596,-246.477 484.743,-251.824 486.081,-244.953"/> 
</g> 
<!-- o0 --> 
<g id="node24" class="node"><title>o0</title> 
<ellipse fill="#e98576" stroke="#e98576" cx="594" cy="-234" rx="79.4447" ry="18"/> 
<a xlink:href="http://pir.georgetown.edu/cgi-bin/pt_graphvizView.pl?togoid=0016874" ><text id="GO:0016874" onmousemove="changeToText('GO:0016874')" onmouseout="changeBackText('GO:0016874')"  text-anchor="middle" x="594" y="-234.8" font-family="Times,serif" font-size="14.00">GO:0016874</text></a>
<a xlink:href="http://pir.georgetown.edu/cgi-bin/pt_graphvizView.pl?tofile=990984" ><text id="r990984" onmousemove="changeToText2('r990984', 12)" onmouseout="changeBackText2('r990984', 12)"  text-anchor="middle" x="594" y="-221.8" font-family="Times,serif" font-size="14.00">(12)</text>
 
</a> 
</g> 
<!-- g0&#45;&gt;o0 --> 
<g id="edge22" class="edge"><title>g0&#45;&gt;o0</title> 
<path fill="none" stroke="black" d="M811.093,-291.916C766.564,-280.241 701.274,-263.124 653.931,-250.712"/> 
<polygon fill="black" stroke="black" points="654.676,-247.289 644.115,-248.139 652.901,-254.061 654.676,-247.289"/> 
</g> 
<!-- p0 --> 
<g id="node28" class="node"><title>p0</title> 
<ellipse fill="#e98576" stroke="#e98576" cx="772" cy="-234" rx="79.4447" ry="18"/> 
<a xlink:href="http://pir.georgetown.edu/cgi-bin/pt_graphvizView.pl?togoid=0016491" ><text id="GO:0016491" onmousemove="changeToText('GO:0016491')" onmouseout="changeBackText('GO:0016491')"  text-anchor="middle" x="772" y="-234.8" font-family="Times,serif" font-size="14.00">GO:0016491</text></a>
<a xlink:href="http://pir.georgetown.edu/cgi-bin/pt_graphvizView.pl?tofile=990988" ><text id="r990988" onmousemove="changeToText2('r990988', 11)" onmouseout="changeBackText2('r990988', 11)"  text-anchor="middle" x="772" y="-221.8" font-family="Times,serif" font-size="14.00">(11)</text>
 
</a> 
</g> 
<!-- g0&#45;&gt;p0 --> 
<g id="edge26" class="edge"><title>g0&#45;&gt;p0</title> 
<path fill="none" stroke="black" d="M839.908,-288.411C828.27,-279.257 813.646,-267.755 800.952,-257.772"/> 
<polygon fill="black" stroke="black" points="802.964,-254.901 792.94,-251.47 798.637,-260.403 802.964,-254.901"/> 
</g> 
<!-- m0 --> 
<g id="node32" class="node"><title>m0</title> 
<ellipse fill="#e98576" stroke="#e98576" cx="950" cy="-234" rx="79.4447" ry="18"/> 
<a xlink:href="http://pir.georgetown.edu/cgi-bin/pt_graphvizView.pl?togoid=0004386" ><text id="GO:0004386" onmousemove="changeToText('GO:0004386')" onmouseout="changeBackText('GO:0004386')"  text-anchor="middle" x="950" y="-234.8" font-family="Times,serif" font-size="14.00">GO:0004386</text></a>
<a xlink:href="http://pir.georgetown.edu/cgi-bin/pt_graphvizView.pl?tofile=990980" ><text id="r990980" onmousemove="changeToText2('r990980', 13)" onmouseout="changeBackText2('r990980', 13)"  text-anchor="middle" x="950" y="-221.8" font-family="Times,serif" font-size="14.00">(13)</text>
 
</a> 
</g> 
<!-- g0&#45;&gt;m0 --> 
<g id="edge30" class="edge"><title>g0&#45;&gt;m0</title> 
<path fill="none" stroke="black" d="M882.092,-288.411C893.73,-279.257 908.354,-267.755 921.048,-257.772"/> 
<polygon fill="black" stroke="black" points="923.363,-260.403 929.06,-251.47 919.036,-254.901 923.363,-260.403"/> 
</g> 
<!-- g1 --> 
<g id="node49" class="node"><title>g1</title> 
<ellipse fill="#e98576" stroke="#e98576" cx="1123" cy="-234" rx="75.2018" ry="18"/> 
<a xlink:href="http://pir.georgetown.edu/cgi-bin/pt_graphvizView.pl?togoid=0008641" ><text id="GO:0008641" onmousemove="changeToText('GO:0008641')" onmouseout="changeBackText('GO:0008641')"  text-anchor="middle" x="1123" y="-234.8" font-family="Times,serif" font-size="14.00">GO:0008641</text></a>
<a xlink:href="http://pir.georgetown.edu/cgi-bin/pt_graphvizView.pl?tofile=991014" ><text id="r991014" onmousemove="changeToText2('r991014', 1)" onmouseout="changeBackText2('r991014', 1)"  text-anchor="middle" x="1123" y="-221.8" font-family="Times,serif" font-size="14.00">(1)</text>
 
</a> 
</g> 
<!-- g0&#45;&gt;g1 --> 
<g id="edge46" class="edge"><title>g0&#45;&gt;g1</title> 
<path fill="none" stroke="black" d="M910.28,-291.834C954.196,-280.1 1018.51,-262.917 1064.92,-250.519"/> 
<polygon fill="black" stroke="black" points="1066.07,-253.834 1074.83,-247.871 1064.26,-247.071 1066.07,-253.834"/> 
</g> 
<!-- h0 --> 
<g id="node68" class="node"><title>h0</title> 
<ellipse fill="#e98576" stroke="#e98576" cx="1296" cy="-234" rx="79.4447" ry="18"/> 
<a xlink:href="http://pir.georgetown.edu/cgi-bin/pt_graphvizView.pl?togoid=0016740" ><text id="GO:0016740" onmousemove="changeToText('GO:0016740')" onmouseout="changeBackText('GO:0016740')"  text-anchor="middle" x="1296" y="-234.8" font-family="Times,serif" font-size="14.00">GO:0016740</text></a>
<a xlink:href="http://pir.georgetown.edu/cgi-bin/pt_graphvizView.pl?tofile=990968" ><text id="r990968" onmousemove="changeToText2('r990968', 59)" onmouseout="changeBackText2('r990968', 59)"  text-anchor="middle" x="1296" y="-221.8" font-family="Times,serif" font-size="14.00">(59)</text>
 
</a> 
</g> 
<!-- g0&#45;&gt;h0 --> 
<g id="edge66" class="edge"><title>g0&#45;&gt;h0</title> 
<path fill="none" stroke="black" d="M926.482,-295.701C996.148,-285.637 1109.53,-268.769 1207,-252 1213.77,-250.835 1220.82,-249.573 1227.86,-248.281"/> 
<polygon fill="black" stroke="black" points="1228.93,-251.641 1238.13,-246.374 1227.66,-244.759 1228.93,-251.641"/> 
</g> 
<!-- x0 --> 
<g id="node72" class="node"><title>x0</title> 
<ellipse fill="#e98576" stroke="#e98576" cx="1469" cy="-234" rx="75.2018" ry="18"/> 
<a xlink:href="http://pir.georgetown.edu/cgi-bin/pt_graphvizView.pl?togoid=0016829" ><text id="GO:0016829" onmousemove="changeToText('GO:0016829')" onmouseout="changeBackText('GO:0016829')"  text-anchor="middle" x="1469" y="-234.8" font-family="Times,serif" font-size="14.00">GO:0016829</text></a>
<a xlink:href="http://pir.georgetown.edu/cgi-bin/pt_graphvizView.pl?tofile=991000" ><text id="r991000" onmousemove="changeToText2('r991000', 3)" onmouseout="changeBackText2('r991000', 3)"  text-anchor="middle" x="1469" y="-221.8" font-family="Times,serif" font-size="14.00">(3)</text>
 
</a> 
</g> 
<!-- g0&#45;&gt;x0 --> 
<g id="edge70" class="edge"><title>g0&#45;&gt;x0</title> 
<path fill="none" stroke="black" d="M935.766,-299.702C1037.53,-291.973 1225.16,-275.875 1384,-252 1390.8,-250.978 1397.88,-249.779 1404.92,-248.5"/> 
<polygon fill="black" stroke="black" points="1405.99,-251.86 1415.18,-246.578 1404.71,-244.979 1405.99,-251.86"/> 
</g> 
<!-- c0 --> 
<g id="node4" class="node"><title>c0</title> 
<ellipse fill="#e98576" stroke="#e98576" cx="2839" cy="-378" rx="79.4447" ry="18"/> 
<a xlink:href="http://pir.georgetown.edu/cgi-bin/pt_graphvizView.pl?togoid=0003674" ><text id="GO:0003674" onmousemove="changeToText('GO:0003674')" onmouseout="changeBackText('GO:0003674')"  text-anchor="middle" x="2839" y="-378.8" font-family="Times,serif" font-size="14.00">GO:0003674</text></a>
<a xlink:href="http://pir.georgetown.edu/cgi-bin/pt_graphvizView.pl?tofile=990986" ><text id="r990986" onmousemove="changeToText2('r990986', 12)" onmouseout="changeBackText2('r990986', 12)"  text-anchor="middle" x="2839" y="-365.8" font-family="Times,serif" font-size="14.00">(12)</text>
 
</a> 
</g> 
<!-- c0&#45;&gt;g0 --> 
<g id="edge44" class="edge"><title>c0&#45;&gt;g0</title> 
<path fill="none" stroke="black" d="M2761.16,-374.245C2447.78,-363.155 1279.54,-321.812 948.774,-310.106"/> 
<polygon fill="black" stroke="black" points="948.883,-306.608 938.766,-309.752 948.635,-313.604 948.883,-306.608"/> 
</g> 
<!-- q0 --> 
<g id="node6" class="node"><title>q0</title> 
<ellipse fill="#e98576" stroke="#e98576" cx="2436" cy="-306" rx="75.2018" ry="18"/> 
<a xlink:href="http://pir.georgetown.edu/cgi-bin/pt_graphvizView.pl?togoid=0030234" ><text id="GO:0030234" onmousemove="changeToText('GO:0030234')" onmouseout="changeBackText('GO:0030234')"  text-anchor="middle" x="2436" y="-306.8" font-family="Times,serif" font-size="14.00">GO:0030234</text></a>
<a xlink:href="http://pir.georgetown.edu/cgi-bin/pt_graphvizView.pl?tofile=990990" ><text id="r990990" onmousemove="changeToText2('r990990', 8)" onmouseout="changeBackText2('r990990', 8)"  text-anchor="middle" x="2436" y="-293.8" font-family="Times,serif" font-size="14.00">(8)</text>
 
</a> 
</g> 
<!-- c0&#45;&gt;q0 --> 
<g id="edge4" class="edge"><title>c0&#45;&gt;q0</title> 
<path fill="none" stroke="black" d="M2775.54,-367.041C2711.28,-356.811 2609.08,-340.144 2521,-324 2514.69,-322.843 2508.12,-321.599 2501.55,-320.33"/> 
<polygon fill="black" stroke="black" points="2501.76,-316.805 2491.28,-318.324 2500.42,-323.675 2501.76,-316.805"/> 
</g> 
<!-- b0 --> 
<g id="node7" class="node"><title>b0</title> 
<a xlink:href="http://pir.georgetown.edu/cgi-bin/pt_graphvizView.pl?togoid=0005488" > 
<ellipse fill="#dddddd" stroke="#dddddd" cx="2591" cy="-306" rx="61.1934" ry="18"/> 
<a xlink:href="http://pir.georgetown.edu/cgi-bin/pt_graphvizView.pl?togoid=0005488" ><text id="GO:0005488" onmousemove="changeToText('GO:0005488')" onmouseout="changeBackText('GO:0005488')"  text-anchor="middle" x="2591" y="-301.8" font-family="Times,serif" font-size="14.00">GO:0005488</text></a>
 
</a> 
</g> 
<!-- c0&#45;&gt;b0 --> 
<g id="edge10" class="edge"><title>c0&#45;&gt;b0</title> 
<path fill="none" stroke="black" d="M2791.18,-363.503C2748.87,-351.561 2687.25,-334.166 2643.57,-321.837"/> 
<polygon fill="black" stroke="black" points="2644.28,-318.401 2633.7,-319.053 2642.38,-325.138 2644.28,-318.401"/> 
</g> 
<!-- l0 --> 
<g id="node19" class="node"><title>l0</title> 
<ellipse fill="#e98576" stroke="#e98576" cx="2750" cy="-306" rx="79.4447" ry="18"/> 
<a xlink:href="http://pir.georgetown.edu/cgi-bin/pt_graphvizView.pl?togoid=0005215" ><text id="GO:0005215" onmousemove="changeToText('GO:0005215')" onmouseout="changeBackText('GO:0005215')"  text-anchor="middle" x="2750" y="-306.8" font-family="Times,serif" font-size="14.00">GO:0005215</text></a>
<a xlink:href="http://pir.georgetown.edu/cgi-bin/pt_graphvizView.pl?tofile=990976" ><text id="r990976" onmousemove="changeToText2('r990976', 16)" onmouseout="changeBackText2('r990976', 16)"  text-anchor="middle" x="2750" y="-293.8" font-family="Times,serif" font-size="14.00">(16)</text>
 
</a> 
</g> 
<!-- c0&#45;&gt;l0 --> 
<g id="edge16" class="edge"><title>c0&#45;&gt;l0</title> 
<path fill="none" stroke="black" d="M2817.91,-360.411C2806.27,-351.257 2791.65,-339.755 2778.95,-329.772"/> 
<polygon fill="black" stroke="black" points="2780.96,-326.901 2770.94,-323.47 2776.64,-332.403 2780.96,-326.901"/> 
</g> 
<!-- j0 --> 
<g id="node30" class="node"><title>j0</title> 
<ellipse fill="#e98576" stroke="#e98576" cx="2928" cy="-306" rx="79.4447" ry="18"/> 
<a xlink:href="http://pir.georgetown.edu/cgi-bin/pt_graphvizView.pl?togoid=0005198" ><text id="GO:0005198" onmousemove="changeToText('GO:0005198')" onmouseout="changeBackText('GO:0005198')"  text-anchor="middle" x="2928" y="-306.8" font-family="Times,serif" font-size="14.00">GO:0005198</text></a>
<a xlink:href="http://pir.georgetown.edu/cgi-bin/pt_graphvizView.pl?tofile=990972" ><text id="r990972" onmousemove="changeToText2('r990972', 31)" onmouseout="changeBackText2('r990972', 31)"  text-anchor="middle" x="2928" y="-293.8" font-family="Times,serif" font-size="14.00">(31)</text>
 
</a> 
</g> 
<!-- c0&#45;&gt;j0 --> 
<g id="edge28" class="edge"><title>c0&#45;&gt;j0</title> 
<path fill="none" stroke="black" d="M2860.09,-360.411C2871.73,-351.257 2886.35,-339.755 2899.05,-329.772"/> 
<polygon fill="black" stroke="black" points="2901.36,-332.403 2907.06,-323.47 2897.04,-326.901 2901.36,-332.403"/> 
</g> 
<!-- a1 --> 
<g id="node55" class="node"><title>a1</title> 
<ellipse fill="#e98576" stroke="#e98576" cx="3101" cy="-306" rx="75.2018" ry="18"/> 
<a xlink:href="http://pir.georgetown.edu/cgi-bin/pt_graphvizView.pl?togoid=0003774" ><text id="GO:0003774" onmousemove="changeToText('GO:0003774')" onmouseout="changeBackText('GO:0003774')"  text-anchor="middle" x="3101" y="-306.8" font-family="Times,serif" font-size="14.00">GO:0003774</text></a>
<a xlink:href="http://pir.georgetown.edu/cgi-bin/pt_graphvizView.pl?tofile=991006" ><text id="r991006" onmousemove="changeToText2('r991006', 2)" onmouseout="changeBackText2('r991006', 2)"  text-anchor="middle" x="3101" y="-293.8" font-family="Times,serif" font-size="14.00">(2)</text>
 
</a> 
</g> 
<!-- c0&#45;&gt;a1 --> 
<g id="edge52" class="edge"><title>c0&#45;&gt;a1</title> 
<path fill="none" stroke="black" d="M2888.28,-363.834C2932.2,-352.1 2996.51,-334.917 3042.92,-322.519"/> 
<polygon fill="black" stroke="black" points="3044.07,-325.834 3052.83,-319.871 3042.26,-319.071 3044.07,-325.834"/> 
</g> 
<!-- f1 --> 
<g id="node56" class="node"><title>f1</title> 
<a xlink:href="http://pir.georgetown.edu/cgi-bin/pt_graphvizView.pl?togoid=0060089" > 
<ellipse fill="#dddddd" stroke="#dddddd" cx="3256" cy="-306" rx="61.1934" ry="18"/> 
<a xlink:href="http://pir.georgetown.edu/cgi-bin/pt_graphvizView.pl?togoid=0060089" ><text id="GO:0060089" onmousemove="changeToText('GO:0060089')" onmouseout="changeBackText('GO:0060089')"  text-anchor="middle" x="3256" y="-301.8" font-family="Times,serif" font-size="14.00">GO:0060089</text></a>
 
</a> 
</g> 
<!-- c0&#45;&gt;f1 --> 
<g id="edge74" class="edge"><title>c0&#45;&gt;f1</title> 
<path fill="none" stroke="black" d="M2906.26,-368.381C2976.19,-359.027 3088.69,-342.873 3185,-324 3190.29,-322.964 3195.77,-321.804 3201.25,-320.588"/> 
<polygon fill="black" stroke="black" points="3202.08,-323.99 3211.05,-318.357 3200.52,-317.164 3202.08,-323.99"/> 
</g> 
<!-- z0 --> 
<g id="node59" class="node"><title>z0</title> 
<ellipse fill="#e98576" stroke="#e98576" cx="3411" cy="-306" rx="75.2018" ry="18"/> 
<a xlink:href="http://pir.georgetown.edu/cgi-bin/pt_graphvizView.pl?togoid=0016209" ><text id="GO:0016209" onmousemove="changeToText('GO:0016209')" onmouseout="changeBackText('GO:0016209')"  text-anchor="middle" x="3411" y="-306.8" font-family="Times,serif" font-size="14.00">GO:0016209</text></a>
<a xlink:href="http://pir.georgetown.edu/cgi-bin/pt_graphvizView.pl?tofile=991004" ><text id="r991004" onmousemove="changeToText2('r991004', 2)" onmouseout="changeBackText2('r991004', 2)"  text-anchor="middle" x="3411" y="-293.8" font-family="Times,serif" font-size="14.00">(2)</text>
 
</a> 
</g> 
<!-- c0&#45;&gt;z0 --> 
<g id="edge56" class="edge"><title>c0&#45;&gt;z0</title> 
<path fill="none" stroke="black" d="M2912.7,-371.037C3008.31,-362.829 3180.16,-346.474 3326,-324 3332.7,-322.968 3339.66,-321.774 3346.6,-320.505"/> 
<polygon fill="black" stroke="black" points="3347.53,-323.892 3356.71,-318.605 3346.24,-317.013 3347.53,-323.892"/> 
</g> 
<!-- l1 --> 
<g id="node9" class="node"><title>l1</title> 
<ellipse fill="#e98576" stroke="#e98576" cx="1637" cy="-234" rx="75.2018" ry="18"/> 
<a xlink:href="http://pir.georgetown.edu/cgi-bin/pt_graphvizView.pl?togoid=0042277" ><text id="GO:0042277" onmousemove="changeToText('GO:0042277')" onmouseout="changeBackText('GO:0042277')"  text-anchor="middle" x="1637" y="-234.8" font-family="Times,serif" font-size="14.00">GO:0042277</text></a>
<a xlink:href="http://pir.georgetown.edu/cgi-bin/pt_graphvizView.pl?tofile=991026" ><text id="r991026" onmousemove="changeToText2('r991026', 1)" onmouseout="changeBackText2('r991026', 1)"  text-anchor="middle" x="1637" y="-221.8" font-family="Times,serif" font-size="14.00">(1)</text>
 
</a> 
</g> 
<!-- b0&#45;&gt;l1 --> 
<g id="edge6" class="edge"><title>b0&#45;&gt;l1</title> 
<path fill="none" stroke="black" d="M2547.69,-293.252C2538.61,-291.176 2529.04,-289.274 2520,-288 2168.01,-238.39 2073.81,-295.385 1721,-252 1714.15,-251.158 1707.03,-250.064 1699.96,-248.836"/> 
<polygon fill="black" stroke="black" points="1700.14,-245.31 1689.67,-246.955 1698.88,-252.196 1700.14,-245.31"/> 
</g> 
<!-- k0 --> 
<g id="node11" class="node"><title>k0</title> 
<ellipse fill="#e98576" stroke="#e98576" cx="1810" cy="-234" rx="79.4447" ry="18"/> 
<a xlink:href="http://pir.georgetown.edu/cgi-bin/pt_graphvizView.pl?togoid=0005515" ><text id="GO:0005515" onmousemove="changeToText('GO:0005515')" onmouseout="changeBackText('GO:0005515')"  text-anchor="middle" x="1810" y="-234.8" font-family="Times,serif" font-size="14.00">GO:0005515</text></a>
<a xlink:href="http://pir.georgetown.edu/cgi-bin/pt_graphvizView.pl?tofile=990974" ><text id="r990974" onmousemove="changeToText2('r990974', 31)" onmouseout="changeBackText2('r990974', 31)"  text-anchor="middle" x="1810" y="-221.8" font-family="Times,serif" font-size="14.00">(31)</text>
 
</a> 
</g> 
<!-- b0&#45;&gt;k0 --> 
<g id="edge8" class="edge"><title>b0&#45;&gt;k0</title> 
<path fill="none" stroke="black" d="M2547.3,-293.255C2538.33,-291.206 2528.9,-289.313 2520,-288 2246.5,-247.654 2173.36,-286.008 1899,-252 1891.43,-251.061 1883.53,-249.868 1875.7,-248.55"/> 
<polygon fill="black" stroke="black" points="1876.3,-245.102 1865.85,-246.823 1875.09,-251.997 1876.3,-245.102"/> 
</g> 
<!-- i0 --> 
<g id="node21" class="node"><title>i0</title> 
<ellipse fill="#e98576" stroke="#e98576" cx="1988" cy="-234" rx="79.4447" ry="18"/> 
<a xlink:href="http://pir.georgetown.edu/cgi-bin/pt_graphvizView.pl?togoid=0043167" ><text id="GO:0043167" onmousemove="changeToText('GO:0043167')" onmouseout="changeBackText('GO:0043167')"  text-anchor="middle" x="1988" y="-234.8" font-family="Times,serif" font-size="14.00">GO:0043167</text></a>
<a xlink:href="http://pir.georgetown.edu/cgi-bin/pt_graphvizView.pl?tofile=990970" ><text id="r990970" onmousemove="changeToText2('r990970', 53)" onmouseout="changeBackText2('r990970', 53)"  text-anchor="middle" x="1988" y="-221.8" font-family="Times,serif" font-size="14.00">(53)</text>
 
</a> 
</g> 
<!-- b0&#45;&gt;i0 --> 
<g id="edge18" class="edge"><title>b0&#45;&gt;i0</title> 
<path fill="none" stroke="black" d="M2546.9,-293.33C2538.04,-291.3 2528.76,-289.396 2520,-288 2324.92,-256.909 2272.74,-278.569 2077,-252 2069.63,-251 2061.95,-249.789 2054.32,-248.48"/> 
<polygon fill="black" stroke="black" points="2054.81,-245.012 2044.35,-246.711 2053.58,-251.904 2054.81,-245.012"/> 
</g> 
<!-- a0 --> 
<g id="node26" class="node"><title>a0</title> 
<ellipse fill="#e98576" stroke="#e98576" cx="2166" cy="-234" rx="79.4447" ry="18"/> 
<a xlink:href="http://pir.georgetown.edu/cgi-bin/pt_graphvizView.pl?togoid=0003676" ><text id="GO:0003676" onmousemove="changeToText('GO:0003676')" onmouseout="changeBackText('GO:0003676')"  text-anchor="middle" x="2166" y="-234.8" font-family="Times,serif" font-size="14.00">GO:0003676</text></a>
<a xlink:href="http://pir.georgetown.edu/cgi-bin/pt_graphvizView.pl?tofile=990960" ><text id="r990960" onmousemove="changeToText2('r990960', 92)" onmouseout="changeBackText2('r990960', 92)"  text-anchor="middle" x="2166" y="-221.8" font-family="Times,serif" font-size="14.00">(92)</text>
 
</a> 
</g> 
<!-- b0&#45;&gt;a0 --> 
<g id="edge24" class="edge"><title>b0&#45;&gt;a0</title> 
<path fill="none" stroke="black" d="M2546.45,-293.615C2537.72,-291.585 2528.6,-289.609 2520,-288 2403.17,-266.134 2372.31,-271.157 2255,-252 2248.22,-250.893 2241.16,-249.669 2234.12,-248.4"/> 
<polygon fill="black" stroke="black" points="2234.32,-244.877 2223.85,-246.517 2233.05,-251.762 2234.32,-244.877"/> 
</g> 
<!-- s0 --> 
<g id="node34" class="node"><title>s0</title> 
<ellipse fill="#e98576" stroke="#e98576" cx="2339" cy="-234" rx="75.2018" ry="18"/> 
<a xlink:href="http://pir.georgetown.edu/cgi-bin/pt_graphvizView.pl?togoid=0003682" ><text id="GO:0003682" onmousemove="changeToText('GO:0003682')" onmouseout="changeBackText('GO:0003682')"  text-anchor="middle" x="2339" y="-234.8" font-family="Times,serif" font-size="14.00">GO:0003682</text></a>
<a xlink:href="http://pir.georgetown.edu/cgi-bin/pt_graphvizView.pl?tofile=990994" ><text id="r990994" onmousemove="changeToText2('r990994', 6)" onmouseout="changeBackText2('r990994', 6)"  text-anchor="middle" x="2339" y="-221.8" font-family="Times,serif" font-size="14.00">(6)</text>
 
</a> 
</g> 
<!-- b0&#45;&gt;s0 --> 
<g id="edge32" class="edge"><title>b0&#45;&gt;s0</title> 
<path fill="none" stroke="black" d="M2547.97,-293.046C2506.06,-281.405 2442.1,-263.64 2395.99,-250.83"/> 
<polygon fill="black" stroke="black" points="2396.71,-247.399 2386.14,-248.095 2394.84,-254.143 2396.71,-247.399"/> 
</g> 
<!-- t0 --> 
<g id="node36" class="node"><title>t0</title> 
<ellipse fill="#e98576" stroke="#e98576" cx="2507" cy="-234" rx="75.2018" ry="18"/> 
<a xlink:href="http://pir.georgetown.edu/cgi-bin/pt_graphvizView.pl?togoid=0048037" ><text id="GO:0048037" onmousemove="changeToText('GO:0048037')" onmouseout="changeBackText('GO:0048037')"  text-anchor="middle" x="2507" y="-234.8" font-family="Times,serif" font-size="14.00">GO:0048037</text></a>
<a xlink:href="http://pir.georgetown.edu/cgi-bin/pt_graphvizView.pl?tofile=990996" ><text id="r990996" onmousemove="changeToText2('r990996', 5)" onmouseout="changeBackText2('r990996', 5)"  text-anchor="middle" x="2507" y="-221.8" font-family="Times,serif" font-size="14.00">(5)</text>
 
</a> 
</g> 
<!-- b0&#45;&gt;t0 --> 
<g id="edge34" class="edge"><title>b0&#45;&gt;t0</title> 
<path fill="none" stroke="black" d="M2571.52,-288.765C2560.57,-279.642 2546.73,-268.105 2534.67,-258.059"/> 
<polygon fill="black" stroke="black" points="2536.59,-255.103 2526.67,-251.39 2532.11,-260.48 2536.59,-255.103"/> 
</g> 
<!-- c1 --> 
<g id="node41" class="node"><title>c1</title> 
<ellipse fill="#e98576" stroke="#e98576" cx="2675" cy="-234" rx="75.2018" ry="18"/> 
<a xlink:href="http://pir.georgetown.edu/cgi-bin/pt_graphvizView.pl?togoid=0008289" ><text id="GO:0008289" onmousemove="changeToText('GO:0008289')" onmouseout="changeBackText('GO:0008289')"  text-anchor="middle" x="2675" y="-234.8" font-family="Times,serif" font-size="14.00">GO:0008289</text></a>
<a xlink:href="http://pir.georgetown.edu/cgi-bin/pt_graphvizView.pl?tofile=991010" ><text id="r991010" onmousemove="changeToText2('r991010', 1)" onmouseout="changeBackText2('r991010', 1)"  text-anchor="middle" x="2675" y="-221.8" font-family="Times,serif" font-size="14.00">(1)</text>
 
</a> 
</g> 
<!-- b0&#45;&gt;c1 --> 
<g id="edge38" class="edge"><title>b0&#45;&gt;c1</title> 
<path fill="none" stroke="black" d="M2610.48,-288.765C2621.43,-279.642 2635.27,-268.105 2647.33,-258.059"/> 
<polygon fill="black" stroke="black" points="2649.89,-260.48 2655.33,-251.39 2645.41,-255.103 2649.89,-260.48"/> 
</g> 
<!-- e0 --> 
<g id="node51" class="node"><title>e0</title> 
<ellipse fill="#e98576" stroke="#e98576" cx="2848" cy="-234" rx="79.4447" ry="18"/> 
<a xlink:href="http://pir.georgetown.edu/cgi-bin/pt_graphvizView.pl?togoid=0001882" ><text id="GO:0001882" onmousemove="changeToText('GO:0001882')" onmouseout="changeBackText('GO:0001882')"  text-anchor="middle" x="2848" y="-234.8" font-family="Times,serif" font-size="14.00">GO:0001882</text></a>
<a xlink:href="http://pir.georgetown.edu/cgi-bin/pt_graphvizView.pl?tofile=990964" ><text id="r990964" onmousemove="changeToText2('r990964', 73)" onmouseout="changeBackText2('r990964', 73)"  text-anchor="middle" x="2848" y="-221.8" font-family="Times,serif" font-size="14.00">(73)</text>
 
</a> 
</g> 
<!-- b0&#45;&gt;e0 --> 
<g id="edge48" class="edge"><title>b0&#45;&gt;e0</title> 
<path fill="none" stroke="black" d="M2634.31,-293.205C2676.91,-281.601 2742.25,-263.803 2789.47,-250.943"/> 
<polygon fill="black" stroke="black" points="2790.52,-254.283 2799.25,-248.278 2788.68,-247.529 2790.52,-254.283"/> 
</g> 
<!-- h1 --> 
<g id="node53" class="node"><title>h1</title> 
<ellipse fill="#e98576" stroke="#e98576" cx="3021" cy="-234" rx="75.2018" ry="18"/> 
<a xlink:href="http://pir.georgetown.edu/cgi-bin/pt_graphvizView.pl?togoid=0019842" ><text id="GO:0019842" onmousemove="changeToText('GO:0019842')" onmouseout="changeBackText('GO:0019842')"  text-anchor="middle" x="3021" y="-234.8" font-family="Times,serif" font-size="14.00">GO:0019842</text></a>
<a xlink:href="http://pir.georgetown.edu/cgi-bin/pt_graphvizView.pl?tofile=991016" ><text id="r991016" onmousemove="changeToText2('r991016', 1)" onmouseout="changeBackText2('r991016', 1)"  text-anchor="middle" x="3021" y="-221.8" font-family="Times,serif" font-size="14.00">(1)</text>
 
</a> 
</g> 
<!-- b0&#45;&gt;h1 --> 
<g id="edge50" class="edge"><title>b0&#45;&gt;h1</title> 
<path fill="none" stroke="black" d="M2635.28,-293.481C2643.78,-291.487 2652.64,-289.558 2661,-288 2782.18,-265.422 2814.38,-272.098 2936,-252 2942.68,-250.895 2949.65,-249.654 2956.58,-248.357"/> 
<polygon fill="black" stroke="black" points="2957.52,-251.741 2966.69,-246.428 2956.21,-244.865 2957.52,-251.741"/> 
</g> 
<!-- i1 --> 
<g id="node63" class="node"><title>i1</title> 
<ellipse fill="#e98576" stroke="#e98576" cx="3189" cy="-234" rx="75.2018" ry="18"/> 
<a xlink:href="http://pir.georgetown.edu/cgi-bin/pt_graphvizView.pl?togoid=0031406" ><text id="GO:0031406" onmousemove="changeToText('GO:0031406')" onmouseout="changeBackText('GO:0031406')"  text-anchor="middle" x="3189" y="-234.8" font-family="Times,serif" font-size="14.00">GO:0031406</text></a>
<a xlink:href="http://pir.georgetown.edu/cgi-bin/pt_graphvizView.pl?tofile=991020" ><text id="r991020" onmousemove="changeToText2('r991020', 1)" onmouseout="changeBackText2('r991020', 1)"  text-anchor="middle" x="3189" y="-221.8" font-family="Times,serif" font-size="14.00">(1)</text>
 
</a> 
</g> 
<!-- b0&#45;&gt;i1 --> 
<g id="edge60" class="edge"><title>b0&#45;&gt;i1</title> 
<path fill="none" stroke="black" d="M2634.47,-293.321C2643.21,-291.292 2652.36,-289.391 2661,-288 2856.47,-256.541 2908.96,-279.685 3105,-252 3111.73,-251.049 3118.73,-249.897 3125.7,-248.644"/> 
<polygon fill="black" stroke="black" points="3126.65,-252.027 3135.84,-246.75 3125.37,-245.146 3126.65,-252.027"/> 
</g> 
<!-- d0 --> 
<g id="node70" class="node"><title>d0</title> 
<ellipse fill="#e98576" stroke="#e98576" cx="3362" cy="-234" rx="79.4447" ry="18"/> 
<a xlink:href="http://pir.georgetown.edu/cgi-bin/pt_graphvizView.pl?togoid=0000166" ><text id="GO:0000166" onmousemove="changeToText('GO:0000166')" onmouseout="changeBackText('GO:0000166')"  text-anchor="middle" x="3362" y="-234.8" font-family="Times,serif" font-size="14.00">GO:0000166</text></a>
<a xlink:href="http://pir.georgetown.edu/cgi-bin/pt_graphvizView.pl?tofile=990962" ><text id="r990962" onmousemove="changeToText2('r990962', 86)" onmouseout="changeBackText2('r990962', 86)"  text-anchor="middle" x="3362" y="-221.8" font-family="Times,serif" font-size="14.00">(86)</text>
 
</a> 
</g> 
<!-- b0&#45;&gt;d0 --> 
<g id="edge68" class="edge"><title>b0&#45;&gt;d0</title> 
<path fill="none" stroke="black" d="M2634.45,-293.169C2643.19,-291.153 2652.34,-289.295 2661,-288 2930.47,-247.687 3002.61,-285.631 3273,-252 3280.57,-251.058 3288.47,-249.862 3296.3,-248.543"/> 
<polygon fill="black" stroke="black" points="3296.91,-251.991 3306.15,-246.816 3295.7,-245.096 3296.91,-251.991"/> 
</g> 
<!-- y0 --> 
<g id="node74" class="node"><title>y0</title> 
<ellipse fill="#e98576" stroke="#e98576" cx="3535" cy="-234" rx="75.2018" ry="18"/> 
<a xlink:href="http://pir.georgetown.edu/cgi-bin/pt_graphvizView.pl?togoid=0051540" ><text id="GO:0051540" onmousemove="changeToText('GO:0051540')" onmouseout="changeBackText('GO:0051540')"  text-anchor="middle" x="3535" y="-234.8" font-family="Times,serif" font-size="14.00">GO:0051540</text></a>
<a xlink:href="http://pir.georgetown.edu/cgi-bin/pt_graphvizView.pl?tofile=991002" ><text id="r991002" onmousemove="changeToText2('r991002', 2)" onmouseout="changeBackText2('r991002', 2)"  text-anchor="middle" x="3535" y="-221.8" font-family="Times,serif" font-size="14.00">(2)</text>
 
</a> 
</g> 
<!-- b0&#45;&gt;y0 --> 
<g id="edge72" class="edge"><title>b0&#45;&gt;y0</title> 
<path fill="none" stroke="black" d="M2634.06,-293.165C2642.91,-291.123 2652.21,-289.256 2661,-288 3008.5,-238.349 3101.56,-294.544 3450,-252 3457.19,-251.122 3464.68,-249.974 3472.1,-248.687"/> 
<polygon fill="black" stroke="black" points="3472.94,-252.093 3482.15,-246.86 3471.69,-245.206 3472.94,-252.093"/> 
</g> 
<!-- n0 --> 
<g id="node15" class="node"><title>n0</title> 
<ellipse fill="#e98576" stroke="#e98576" cx="162" cy="-162" rx="79.4447" ry="18"/> 
<a xlink:href="http://pir.georgetown.edu/cgi-bin/pt_graphvizView.pl?togoid=0008233" ><text id="GO:0008233" onmousemove="changeToText('GO:0008233')" onmouseout="changeBackText('GO:0008233')"  text-anchor="middle" x="162" y="-162.8" font-family="Times,serif" font-size="14.00">GO:0008233</text></a>
<a xlink:href="http://pir.georgetown.edu/cgi-bin/pt_graphvizView.pl?tofile=990982" ><text id="r990982" onmousemove="changeToText2('r990982', 13)" onmouseout="changeBackText2('r990982', 13)"  text-anchor="middle" x="162" y="-149.8" font-family="Times,serif" font-size="14.00">(13)</text>
 
</a> 
</g> 
<!-- f0&#45;&gt;n0 --> 
<g id="edge12" class="edge"><title>f0&#45;&gt;n0</title> 
<path fill="none" stroke="black" d="M227.619,-216.411C216.481,-207.345 202.511,-195.974 190.327,-186.057"/> 
<polygon fill="black" stroke="black" points="192.2,-183.068 182.235,-179.47 187.781,-188.497 192.2,-183.068"/> 
</g> 
<!-- k1 --> 
<g id="node61" class="node"><title>k1</title> 
<ellipse fill="#e98576" stroke="#e98576" cx="335" cy="-162" rx="75.2018" ry="18"/> 
<a xlink:href="http://pir.georgetown.edu/cgi-bin/pt_graphvizView.pl?togoid=0019213" ><text id="GO:0019213" onmousemove="changeToText('GO:0019213')" onmouseout="changeBackText('GO:0019213')"  text-anchor="middle" x="335" y="-162.8" font-family="Times,serif" font-size="14.00">GO:0019213</text></a>
<a xlink:href="http://pir.georgetown.edu/cgi-bin/pt_graphvizView.pl?tofile=991024" ><text id="r991024" onmousemove="changeToText2('r991024', 1)" onmouseout="changeBackText2('r991024', 1)"  text-anchor="middle" x="335" y="-149.8" font-family="Times,serif" font-size="14.00">(1)</text>
 
</a> 
</g> 
<!-- f0&#45;&gt;k1 --> 
<g id="edge58" class="edge"><title>f0&#45;&gt;k1</title> 
<path fill="none" stroke="black" d="M268.618,-216.411C279.994,-207.257 294.29,-195.755 306.698,-185.772"/> 
<polygon fill="black" stroke="black" points="308.933,-188.466 314.53,-179.47 304.545,-183.012 308.933,-188.466"/> 
</g> 
<!-- w0 --> 
<g id="node43" class="node"><title>w0</title> 
<a xlink:href="http://pir.georgetown.edu/cgi-bin/pt_graphvizView.pl?togoid=0016879" > 
<ellipse fill="#dddddd" stroke="#dddddd" cx="594" cy="-162" rx="61.1934" ry="18"/> 
<a xlink:href="http://pir.georgetown.edu/cgi-bin/pt_graphvizView.pl?togoid=0016879" ><text id="GO:0016879" onmousemove="changeToText('GO:0016879')" onmouseout="changeBackText('GO:0016879')"  text-anchor="middle" x="594" y="-157.8" font-family="Times,serif" font-size="14.00">GO:0016879</text></a>
 
</a> 
</g> 
<!-- o0&#45;&gt;w0 --> 
<g id="edge40" class="edge"><title>o0&#45;&gt;w0</title> 
<path fill="none" stroke="black" d="M594,-215.697C594,-207.983 594,-198.712 594,-190.112"/> 
<polygon fill="black" stroke="black" points="597.5,-190.104 594,-180.104 590.5,-190.104 597.5,-190.104"/> 
</g> 
<!-- b1 --> 
<g id="node66" class="node"><title>b1</title> 
<ellipse fill="#e98576" stroke="#e98576" cx="772" cy="-162" rx="75.2018" ry="18"/> 
<a xlink:href="http://pir.georgetown.edu/cgi-bin/pt_graphvizView.pl?togoid=0009055" ><text id="GO:0009055" onmousemove="changeToText('GO:0009055')" onmouseout="changeBackText('GO:0009055')"  text-anchor="middle" x="772" y="-162.8" font-family="Times,serif" font-size="14.00">GO:0009055</text></a>
<a xlink:href="http://pir.georgetown.edu/cgi-bin/pt_graphvizView.pl?tofile=991008" ><text id="r991008" onmousemove="changeToText2('r991008', 1)" onmouseout="changeBackText2('r991008', 1)"  text-anchor="middle" x="772" y="-149.8" font-family="Times,serif" font-size="14.00">(1)</text>
 
</a> 
</g> 
<!-- p0&#45;&gt;b1 --> 
<g id="edge64" class="edge"><title>p0&#45;&gt;b1</title> 
<path fill="none" stroke="black" d="M772,-215.697C772,-207.983 772,-198.712 772,-190.112"/> 
<polygon fill="black" stroke="black" points="775.5,-190.104 772,-180.104 768.5,-190.104 775.5,-190.104"/> 
</g> 
<!-- e1 --> 
<g id="node37" class="node"><title>e1</title> 
<ellipse fill="#e98576" stroke="#e98576" cx="3703" cy="-234" rx="75.2018" ry="18"/> 
<a xlink:href="http://pir.georgetown.edu/cgi-bin/pt_graphvizView.pl?togoid=0004871" ><text id="GO:0004871" onmousemove="changeToText('GO:0004871')" onmouseout="changeBackText('GO:0004871')"  text-anchor="middle" x="3703" y="-234.8" font-family="Times,serif" font-size="14.00">GO:0004871</text></a>
<a xlink:href="http://pir.georgetown.edu/cgi-bin/pt_graphvizView.pl?tofile=991018" ><text id="r991018" onmousemove="changeToText2('r991018', 1)" onmouseout="changeBackText2('r991018', 1)"  text-anchor="middle" x="3703" y="-221.8" font-family="Times,serif" font-size="14.00">(1)</text>
 
</a> 
</g> 
<!-- d1 --> 
<g id="node39" class="node"><title>d1</title> 
<ellipse fill="#e98576" stroke="#e98576" cx="3703" cy="-162" rx="75.2018" ry="18"/> 
<a xlink:href="http://pir.georgetown.edu/cgi-bin/pt_graphvizView.pl?togoid=0004872" ><text id="GO:0004872" onmousemove="changeToText('GO:0004872')" onmouseout="changeBackText('GO:0004872')"  text-anchor="middle" x="3703" y="-162.8" font-family="Times,serif" font-size="14.00">GO:0004872</text></a>
<a xlink:href="http://pir.georgetown.edu/cgi-bin/pt_graphvizView.pl?tofile=991012" ><text id="r991012" onmousemove="changeToText2('r991012', 1)" onmouseout="changeBackText2('r991012', 1)"  text-anchor="middle" x="3703" y="-149.8" font-family="Times,serif" font-size="14.00">(1)</text>
 
</a> 
</g> 
<!-- e1&#45;&gt;d1 --> 
<g id="edge36" class="edge"><title>e1&#45;&gt;d1</title> 
<path fill="none" stroke="black" d="M3703,-215.697C3703,-207.983 3703,-198.712 3703,-190.112"/> 
<polygon fill="black" stroke="black" points="3706.5,-190.104 3703,-180.104 3699.5,-190.104 3706.5,-190.104"/> 
</g> 
<!-- v0 --> 
<g id="node44" class="node"><title>v0</title> 
<a xlink:href="http://pir.georgetown.edu/cgi-bin/pt_graphvizView.pl?togoid=0016881" > 
<ellipse fill="#dddddd" stroke="#dddddd" cx="594" cy="-90" rx="61.1934" ry="18"/> 
<a xlink:href="http://pir.georgetown.edu/cgi-bin/pt_graphvizView.pl?togoid=0016881" ><text id="GO:0016881" onmousemove="changeToText('GO:0016881')" onmouseout="changeBackText('GO:0016881')"  text-anchor="middle" x="594" y="-85.8" font-family="Times,serif" font-size="14.00">GO:0016881</text></a>
 
</a> 
</g> 
<!-- w0&#45;&gt;v0 --> 
<g id="edge62" class="edge"><title>w0&#45;&gt;v0</title> 
<path fill="none" stroke="black" d="M594,-143.697C594,-135.983 594,-126.712 594,-118.112"/> 
<polygon fill="black" stroke="black" points="597.5,-118.104 594,-108.104 590.5,-118.104 597.5,-118.104"/> 
</g> 
<!-- u0 --> 
<g id="node46" class="node"><title>u0</title> 
<ellipse fill="#e98576" stroke="#e98576" cx="594" cy="-18" rx="75.2018" ry="18"/> 
<a xlink:href="http://pir.georgetown.edu/cgi-bin/pt_graphvizView.pl?togoid=0019787" ><text id="GO:0019787" onmousemove="changeToText('GO:0019787')" onmouseout="changeBackText('GO:0019787')"  text-anchor="middle" x="594" y="-18.8" font-family="Times,serif" font-size="14.00">GO:0019787</text></a>
<a xlink:href="http://pir.georgetown.edu/cgi-bin/pt_graphvizView.pl?tofile=990998" ><text id="r990998" onmousemove="changeToText2('r990998', 4)" onmouseout="changeBackText2('r990998', 4)"  text-anchor="middle" x="594" y="-5.8" font-family="Times,serif" font-size="14.00">(4)</text>
 
</a> 
</g> 
<!-- v0&#45;&gt;u0 --> 
<g id="edge42" class="edge"><title>v0&#45;&gt;u0</title> 
<path fill="none" stroke="black" d="M594,-71.6966C594,-63.9827 594,-54.7125 594,-46.1124"/> 
<polygon fill="black" stroke="black" points="597.5,-46.1043 594,-36.1043 590.5,-46.1044 597.5,-46.1043"/> 
</g> 
<!-- f1&#45;&gt;e1 --> 
<g id="edge54" class="edge"><title>f1&#45;&gt;e1</title> 
<path fill="none" stroke="black" d="M3300.53,-293.53C3309.27,-291.508 3318.39,-289.556 3327,-288 3455.67,-264.739 3489.93,-272.984 3619,-252 3625.51,-250.941 3632.29,-249.739 3639.04,-248.475"/> 
<polygon fill="black" stroke="black" points="3639.73,-251.908 3648.89,-246.589 3638.41,-245.033 3639.73,-251.908"/> 
</g> 
</g> 
<text text-anchor="left" x="4" y="-20" style="font-family:Arial Narrow;font-size:20.00;font-weight:bold;">GO Hierarchical View:</text> 

<text text-anchor="left" x="4" y="0" style="font-family:Arial Narrow;font-size:20.00;font-style:italic;">molecular function</text> 

<script type="text/ecmascript"> 
<![CDATA[ 
var targetText; 
function changeToText(z) { 
		targetText = svgDocument.getElementById(z).firstChild; 
		targetText.nodeValue="link to "+z; 
} 
function changeBackText(z) { 
		targetText = svgDocument.getElementById(z).firstChild; 
		targetText.nodeValue=z; 
} 
function changeToText2(z,n) { 
		targetText = svgDocument.getElementById(z).firstChild; 
		if (n<=1) { 
			targetText.nodeValue="link to " + n + " protein record"; 
		} else { 
			targetText.nodeValue="link to " + n + " protein records"; 
		} 
} 
function changeBackText2(z,n) { 
		targetText = svgDocument.getElementById(z).firstChild; 
		targetText.nodeValue="(" + n + ")"; 
} 
// ]]> 
</script> 
</svg> 
