<?xml version="1.0" encoding="UTF-8" standalone="no"?> 
<!DOCTYPE svg PUBLIC "-//W3C//DTD SVG 1.1//EN" 
 "http://www.w3.org/Graphics/SVG/1.1/DTD/svg11.dtd"> 
<!-- Generated by graphviz version 2.28.0 (20110622.2320) 
 --> 
<!-- Title: G Pages: 1 --> 
<svg width="2000" height="1000"  
 viewBox="-30 -50 2000 1000" xmlns="http://www.w3.org/2000/svg" xmlns:xlink="http://www.w3.org/1999/xlink"> 
<g id="graph1" class="graph" transform="scale(1 1) rotate(0) translate(4 904)"> 
<title>G</title> 
<polygon fill="white" stroke="white" points="-4,5 -4,-904 880,-904 880,5 -4,5"/> 
<!-- p0 --> 
<g id="node1" class="node"><title>p0</title> 
<a xlink:href="http://pir.georgetown.edu/cgi-bin/pt_graphvizView.pl?togoid=0005654" > 
<ellipse fill="#dddddd" stroke="#dddddd" cx="406" cy="-162" rx="61.1934" ry="18"/> 
<a xlink:href="http://pir.georgetown.edu/cgi-bin/pt_graphvizView.pl?togoid=0005654" ><text id="GO:0005654" onmousemove="changeToText('GO:0005654')" onmouseout="changeBackText('GO:0005654')"  text-anchor="middle" x="406" y="-157.8" font-family="Times,serif" font-size="14.00">GO:0005654</text></a>
 
</a> 
</g> 
<!-- o0 --> 
<g id="node3" class="node"><title>o0</title> 
<a xlink:href="http://pir.georgetown.edu/cgi-bin/pt_graphvizView.pl?togoid=0044451" > 
<ellipse fill="#dddddd" stroke="#dddddd" cx="495" cy="-90" rx="61.1934" ry="18"/> 
<a xlink:href="http://pir.georgetown.edu/cgi-bin/pt_graphvizView.pl?togoid=0044451" ><text id="GO:0044451" onmousemove="changeToText('GO:0044451')" onmouseout="changeBackText('GO:0044451')"  text-anchor="middle" x="495" y="-85.8" font-family="Times,serif" font-size="14.00">GO:0044451</text></a>
 
</a> 
</g> 
<!-- p0&#45;&gt;o0 --> 
<g id="edge2" class="edge"><title>p0&#45;&gt;o0</title> 
<path fill="none" stroke="black" d="M426.642,-144.765C438.437,-135.488 453.406,-123.714 466.328,-113.551"/> 
<polygon fill="black" stroke="black" points="468.773,-116.081 474.47,-107.147 464.446,-110.578 468.773,-116.081"/> 
</g> 
<!-- l0 --> 
<g id="node12" class="node"><title>l0</title> 
<ellipse fill="#e98576" stroke="#e98576" cx="575" cy="-18" rx="75.2018" ry="18"/> 
<a xlink:href="http://pir.georgetown.edu/cgi-bin/pt_graphvizView.pl?togoid=0016591" ><text id="GO:0016591" onmousemove="changeToText('GO:0016591')" onmouseout="changeBackText('GO:0016591')"  text-anchor="middle" x="575" y="-18.8" font-family="Times,serif" font-size="14.00">GO:0016591</text></a>
<a xlink:href="http://pir.georgetown.edu/cgi-bin/pt_graphvizView.pl?tofile=97937" ><text id="r97937" onmousemove="changeToText2('r97937', 9)" onmouseout="changeBackText2('r97937', 9)"  text-anchor="middle" x="575" y="-5.8" font-family="Times,serif" font-size="14.00">(9)</text>
 
</a> 
</g> 
<!-- o0&#45;&gt;l0 --> 
<g id="edge12" class="edge"><title>o0&#45;&gt;l0</title> 
<path fill="none" stroke="black" d="M513.555,-72.7646C523.906,-63.7076 536.977,-52.2705 548.399,-42.2756"/> 
<polygon fill="black" stroke="black" points="550.769,-44.8525 555.99,-35.6334 546.16,-39.5845 550.769,-44.8525"/> 
</g> 
<!-- u0 --> 
<g id="node4" class="node"><title>u0</title> 
<a xlink:href="http://pir.georgetown.edu/cgi-bin/pt_graphvizView.pl?togoid=0044428" > 
<ellipse fill="#dddddd" stroke="#dddddd" cx="406" cy="-306" rx="61.1934" ry="18"/> 
<a xlink:href="http://pir.georgetown.edu/cgi-bin/pt_graphvizView.pl?togoid=0044428" ><text id="GO:0044428" onmousemove="changeToText('GO:0044428')" onmouseout="changeBackText('GO:0044428')"  text-anchor="middle" x="406" y="-301.8" font-family="Times,serif" font-size="14.00">GO:0044428</text></a>
 
</a> 
</g> 
<!-- u0&#45;&gt;p0 --> 
<g id="edge70" class="edge"><title>u0&#45;&gt;p0</title> 
<path fill="none" stroke="black" d="M406,-287.871C406,-263.67 406,-219.211 406,-190.393"/> 
<polygon fill="black" stroke="black" points="409.5,-190.189 406,-180.189 402.5,-190.189 409.5,-190.189"/> 
</g> 
<!-- u0&#45;&gt;o0 --> 
<g id="edge4" class="edge"><title>u0&#45;&gt;o0</title> 
<path fill="none" stroke="black" d="M417.713,-288.009C433.266,-264.684 460.562,-220.963 476,-180 483.557,-159.949 488.439,-136.165 491.36,-118.23"/> 
<polygon fill="black" stroke="black" points="494.848,-118.575 492.895,-108.162 487.928,-117.52 494.848,-118.575"/> 
</g> 
<!-- q0 --> 
<g id="node8" class="node"><title>q0</title> 
<a xlink:href="http://pir.georgetown.edu/cgi-bin/pt_graphvizView.pl?togoid=0031981" > 
<ellipse fill="#dddddd" stroke="#dddddd" cx="258" cy="-234" rx="61.1934" ry="18"/> 
<a xlink:href="http://pir.georgetown.edu/cgi-bin/pt_graphvizView.pl?togoid=0031981" ><text id="GO:0031981" onmousemove="changeToText('GO:0031981')" onmouseout="changeBackText('GO:0031981')"  text-anchor="middle" x="258" y="-229.8" font-family="Times,serif" font-size="14.00">GO:0031981</text></a>
 
</a> 
</g> 
<!-- u0&#45;&gt;q0 --> 
<g id="edge8" class="edge"><title>u0&#45;&gt;q0</title> 
<path fill="none" stroke="black" d="M374.974,-290.326C352.675,-279.779 322.409,-265.464 298.25,-254.037"/> 
<polygon fill="black" stroke="black" points="299.521,-250.767 288.985,-249.655 296.528,-257.095 299.521,-250.767"/> 
</g> 
<!-- w0 --> 
<g id="node36" class="node"><title>w0</title> 
<ellipse fill="#e98576" stroke="#e98576" cx="251" cy="-162" rx="75.2018" ry="18"/> 
<a xlink:href="http://pir.georgetown.edu/cgi-bin/pt_graphvizView.pl?togoid=0005730" ><text id="GO:0005730" onmousemove="changeToText('GO:0005730')" onmouseout="changeBackText('GO:0005730')"  text-anchor="middle" x="251" y="-162.8" font-family="Times,serif" font-size="14.00">GO:0005730</text></a>
<a xlink:href="http://pir.georgetown.edu/cgi-bin/pt_graphvizView.pl?tofile=97939" ><text id="r97939" onmousemove="changeToText2('r97939', 8)" onmouseout="changeBackText2('r97939', 8)"  text-anchor="middle" x="251" y="-149.8" font-family="Times,serif" font-size="14.00">(8)</text>
 
</a> 
</g> 
<!-- u0&#45;&gt;w0 --> 
<g id="edge40" class="edge"><title>u0&#45;&gt;w0</title> 
<path fill="none" stroke="black" d="M393.306,-288.139C378.714,-269.36 353.483,-238.668 328,-216 315.169,-204.586 299.789,-193.552 286.159,-184.535"/> 
<polygon fill="black" stroke="black" points="287.794,-181.423 277.5,-178.916 283.984,-187.295 287.794,-181.423"/> 
</g> 
<!-- r0 --> 
<g id="node6" class="node"><title>r0</title> 
<a xlink:href="http://pir.georgetown.edu/cgi-bin/pt_graphvizView.pl?togoid=0043233" > 
<ellipse fill="#dddddd" stroke="#dddddd" cx="116" cy="-450" rx="61.1934" ry="18"/> 
<a xlink:href="http://pir.georgetown.edu/cgi-bin/pt_graphvizView.pl?togoid=0043233" ><text id="GO:0043233" onmousemove="changeToText('GO:0043233')" onmouseout="changeBackText('GO:0043233')"  text-anchor="middle" x="116" y="-445.8" font-family="Times,serif" font-size="14.00">GO:0043233</text></a>
 
</a> 
</g> 
<!-- r0&#45;&gt;q0 --> 
<g id="edge6" class="edge"><title>r0&#45;&gt;q0</title> 
<path fill="none" stroke="black" d="M127.143,-432.208C151.976,-394.782 211.982,-304.351 241.307,-260.157"/> 
<polygon fill="black" stroke="black" points="244.297,-261.982 246.909,-251.714 238.464,-258.112 244.297,-261.982"/> 
</g> 
<!-- q0&#45;&gt;p0 --> 
<g id="edge68" class="edge"><title>q0&#45;&gt;p0</title> 
<path fill="none" stroke="black" d="M289.026,-218.326C311.325,-207.779 341.591,-193.464 365.75,-182.037"/> 
<polygon fill="black" stroke="black" points="367.472,-185.095 375.015,-177.655 364.479,-178.767 367.472,-185.095"/> 
</g> 
<!-- q0&#45;&gt;w0 --> 
<g id="edge36" class="edge"><title>q0&#45;&gt;w0</title> 
<path fill="none" stroke="black" d="M256.27,-215.697C255.498,-207.983 254.571,-198.712 253.711,-190.112"/> 
<polygon fill="black" stroke="black" points="257.188,-189.706 252.71,-180.104 250.223,-190.403 257.188,-189.706"/> 
</g> 
<!-- m0 --> 
<g id="node10" class="node"><title>m0</title> 
<ellipse fill="#e98576" stroke="#e98576" cx="800" cy="-306" rx="75.2018" ry="18"/> 
<a xlink:href="http://pir.georgetown.edu/cgi-bin/pt_graphvizView.pl?togoid=0043234" ><text id="GO:0043234" onmousemove="changeToText('GO:0043234')" onmouseout="changeBackText('GO:0043234')"  text-anchor="middle" x="800" y="-306.8" font-family="Times,serif" font-size="14.00">GO:0043234</text></a>
<a xlink:href="http://pir.georgetown.edu/cgi-bin/pt_graphvizView.pl?tofile=97947" ><text id="r97947" onmousemove="changeToText2('r97947', 1)" onmouseout="changeBackText2('r97947', 1)"  text-anchor="middle" x="800" y="-293.8" font-family="Times,serif" font-size="14.00">(1)</text>
 
</a> 
</g> 
<!-- m0&#45;&gt;l0 --> 
<g id="edge10" class="edge"><title>m0&#45;&gt;l0</title> 
<path fill="none" stroke="black" d="M786.599,-287.966C748.535,-239.582 639.626,-101.146 594.722,-44.0687"/> 
<polygon fill="black" stroke="black" points="597.265,-41.6401 588.331,-35.9448 591.763,-45.9683 597.265,-41.6401"/> 
</g> 
<!-- g0 --> 
<g id="node14" class="node"><title>g0</title> 
<a xlink:href="http://pir.georgetown.edu/cgi-bin/pt_graphvizView.pl?togoid=0044424" > 
<ellipse fill="#dddddd" stroke="#dddddd" cx="628" cy="-594" rx="61.1934" ry="18"/> 
<a xlink:href="http://pir.georgetown.edu/cgi-bin/pt_graphvizView.pl?togoid=0044424" ><text id="GO:0044424" onmousemove="changeToText('GO:0044424')" onmouseout="changeBackText('GO:0044424')"  text-anchor="middle" x="628" y="-589.8" font-family="Times,serif" font-size="14.00">GO:0044424</text></a>
 
</a> 
</g> 
<!-- z0 --> 
<g id="node16" class="node"><title>z0</title> 
<ellipse fill="#e98576" stroke="#e98576" cx="731" cy="-522" rx="75.2018" ry="18"/> 
<a xlink:href="http://pir.georgetown.edu/cgi-bin/pt_graphvizView.pl?togoid=0005737" ><text id="GO:0005737" onmousemove="changeToText('GO:0005737')" onmouseout="changeBackText('GO:0005737')"  text-anchor="middle" x="731" y="-522.8" font-family="Times,serif" font-size="14.00">GO:0005737</text></a>
<a xlink:href="http://pir.georgetown.edu/cgi-bin/pt_graphvizView.pl?tofile=97941" ><text id="r97941" onmousemove="changeToText2('r97941', 4)" onmouseout="changeBackText2('r97941', 4)"  text-anchor="middle" x="731" y="-509.8" font-family="Times,serif" font-size="14.00">(4)</text>
 
</a> 
</g> 
<!-- g0&#45;&gt;z0 --> 
<g id="edge14" class="edge"><title>g0&#45;&gt;z0</title> 
<path fill="none" stroke="black" d="M651.115,-577.291C665.228,-567.7 683.476,-555.298 698.968,-544.769"/> 
<polygon fill="black" stroke="black" points="700.944,-547.658 707.247,-539.142 697.009,-541.869 700.944,-547.658"/> 
</g> 
<!-- f0 --> 
<g id="node26" class="node"><title>f0</title> 
<a xlink:href="http://pir.georgetown.edu/cgi-bin/pt_graphvizView.pl?togoid=0043229" > 
<ellipse fill="#dddddd" stroke="#dddddd" cx="398" cy="-522" rx="61.1934" ry="18"/> 
<a xlink:href="http://pir.georgetown.edu/cgi-bin/pt_graphvizView.pl?togoid=0043229" ><text id="GO:0043229" onmousemove="changeToText('GO:0043229')" onmouseout="changeBackText('GO:0043229')"  text-anchor="middle" x="398" y="-517.8" font-family="Times,serif" font-size="14.00">GO:0043229</text></a>
 
</a> 
</g> 
<!-- g0&#45;&gt;f0 --> 
<g id="edge26" class="edge"><title>g0&#45;&gt;f0</title> 
<path fill="none" stroke="black" d="M587.146,-580.566C548.425,-568.782 490.156,-551.047 448.532,-538.379"/> 
<polygon fill="black" stroke="black" points="449.446,-534.999 438.861,-535.436 447.408,-541.696 449.446,-534.999"/> 
</g> 
<!-- b1 --> 
<g id="node31" class="node"><title>b1</title> 
<a xlink:href="http://pir.georgetown.edu/cgi-bin/pt_graphvizView.pl?togoid=0044444" > 
<ellipse fill="#dddddd" stroke="#dddddd" cx="731" cy="-450" rx="61.1934" ry="18"/> 
<a xlink:href="http://pir.georgetown.edu/cgi-bin/pt_graphvizView.pl?togoid=0044444" ><text id="GO:0044444" onmousemove="changeToText('GO:0044444')" onmouseout="changeBackText('GO:0044444')"  text-anchor="middle" x="731" y="-445.8" font-family="Times,serif" font-size="14.00">GO:0044444</text></a>
 
</a> 
</g> 
<!-- g0&#45;&gt;b1 --> 
<g id="edge62" class="edge"><title>g0&#45;&gt;b1</title> 
<path fill="none" stroke="black" d="M681.696,-585.075C731.032,-576.566 798.873,-561.332 815,-540 824.649,-527.237 822.726,-518.011 815,-504 806.656,-488.87 791.975,-477.464 777.195,-469.185"/> 
<polygon fill="black" stroke="black" points="778.524,-465.931 768.036,-464.429 775.298,-472.144 778.524,-465.931"/> 
</g> 
<!-- v0 --> 
<g id="node66" class="node"><title>v0</title> 
<a xlink:href="http://pir.georgetown.edu/cgi-bin/pt_graphvizView.pl?togoid=0044446" > 
<ellipse fill="#dddddd" stroke="#dddddd" cx="398" cy="-450" rx="61.1934" ry="18"/> 
<a xlink:href="http://pir.georgetown.edu/cgi-bin/pt_graphvizView.pl?togoid=0044446" ><text id="GO:0044446" onmousemove="changeToText('GO:0044446')" onmouseout="changeBackText('GO:0044446')"  text-anchor="middle" x="398" y="-445.8" font-family="Times,serif" font-size="14.00">GO:0044446</text></a>
 
</a> 
</g> 
<!-- g0&#45;&gt;v0 --> 
<g id="edge80" class="edge"><title>g0&#45;&gt;v0</title> 
<path fill="none" stroke="black" d="M629.332,-575.807C629.882,-555.847 627.54,-523.215 609,-504 607.61,-502.56 515.495,-479.776 453.448,-464.554"/> 
<polygon fill="black" stroke="black" points="453.932,-461.069 443.386,-462.088 452.265,-467.868 453.932,-461.069"/> 
</g> 
<!-- z0&#45;&gt;b1 --> 
<g id="edge60" class="edge"><title>z0&#45;&gt;b1</title> 
<path fill="none" stroke="black" d="M731,-503.697C731,-495.983 731,-486.712 731,-478.112"/> 
<polygon fill="black" stroke="black" points="734.5,-478.104 731,-468.104 727.5,-478.104 734.5,-478.104"/> 
</g> 
<!-- e0 --> 
<g id="node17" class="node"><title>e0</title> 
<a xlink:href="http://pir.georgetown.edu/cgi-bin/pt_graphvizView.pl?togoid=0005575" > 
<ellipse fill="#dddddd" stroke="#dddddd" cx="332" cy="-882" rx="61.1934" ry="18"/> 
<a xlink:href="http://pir.georgetown.edu/cgi-bin/pt_graphvizView.pl?togoid=0005575" ><text id="GO:0005575" onmousemove="changeToText('GO:0005575')" onmouseout="changeBackText('GO:0005575')"  text-anchor="middle" x="332" y="-877.8" font-family="Times,serif" font-size="14.00">GO:0005575</text></a>
 
</a> 
</g> 
<!-- t0 --> 
<g id="node19" class="node"><title>t0</title> 
<a xlink:href="http://pir.georgetown.edu/cgi-bin/pt_graphvizView.pl?togoid=0044422" > 
<ellipse fill="#dddddd" stroke="#dddddd" cx="116" cy="-522" rx="61.1934" ry="18"/> 
<a xlink:href="http://pir.georgetown.edu/cgi-bin/pt_graphvizView.pl?togoid=0044422" ><text id="GO:0044422" onmousemove="changeToText('GO:0044422')" onmouseout="changeBackText('GO:0044422')"  text-anchor="middle" x="116" y="-517.8" font-family="Times,serif" font-size="14.00">GO:0044422</text></a>
 
</a> 
</g> 
<!-- e0&#45;&gt;t0 --> 
<g id="edge16" class="edge"><title>e0&#45;&gt;t0</title> 
<path fill="none" stroke="black" d="M295.981,-867.19C249.629,-846.788 175,-803.867 175,-739 175,-739 175,-739 175,-665 175,-621.588 151.193,-576.03 133.824,-548.57"/> 
<polygon fill="black" stroke="black" points="136.618,-546.446 128.225,-539.981 130.754,-550.269 136.618,-546.446"/> 
</g> 
<!-- d0 --> 
<g id="node20" class="node"><title>d0</title> 
<a xlink:href="http://pir.georgetown.edu/cgi-bin/pt_graphvizView.pl?togoid=0043226" > 
<ellipse fill="#dddddd" stroke="#dddddd" cx="313" cy="-594" rx="61.1934" ry="18"/> 
<a xlink:href="http://pir.georgetown.edu/cgi-bin/pt_graphvizView.pl?togoid=0043226" ><text id="GO:0043226" onmousemove="changeToText('GO:0043226')" onmouseout="changeBackText('GO:0043226')"  text-anchor="middle" x="313" y="-589.8" font-family="Times,serif" font-size="14.00">GO:0043226</text></a>
 
</a> 
</g> 
<!-- e0&#45;&gt;d0 --> 
<g id="edge22" class="edge"><title>e0&#45;&gt;d0</title> 
<path fill="none" stroke="black" d="M330.868,-863.966C327.701,-816.291 318.726,-681.185 314.836,-622.63"/> 
<polygon fill="black" stroke="black" points="318.305,-622.052 314.15,-612.306 311.32,-622.516 318.305,-622.052"/> 
</g> 
<!-- s0 --> 
<g id="node23" class="node"><title>s0</title> 
<a xlink:href="http://pir.georgetown.edu/cgi-bin/pt_graphvizView.pl?togoid=0031974" > 
<ellipse fill="#dddddd" stroke="#dddddd" cx="61" cy="-810" rx="61.1934" ry="18"/> 
<a xlink:href="http://pir.georgetown.edu/cgi-bin/pt_graphvizView.pl?togoid=0031974" ><text id="GO:0031974" onmousemove="changeToText('GO:0031974')" onmouseout="changeBackText('GO:0031974')"  text-anchor="middle" x="61" y="-805.8" font-family="Times,serif" font-size="14.00">GO:0031974</text></a>
 
</a> 
</g> 
<!-- e0&#45;&gt;s0 --> 
<g id="edge20" class="edge"><title>e0&#45;&gt;s0</title> 
<path fill="none" stroke="black" d="M287.553,-869.519C240.394,-857.338 165.846,-838.082 115.255,-825.014"/> 
<polygon fill="black" stroke="black" points="116.029,-821.599 105.471,-822.487 114.278,-828.377 116.029,-821.599"/> 
</g> 
<!-- j0 --> 
<g id="node41" class="node"><title>j0</title> 
<a xlink:href="http://pir.georgetown.edu/cgi-bin/pt_graphvizView.pl?togoid=0005623" > 
<ellipse fill="#dddddd" stroke="#dddddd" cx="440" cy="-810" rx="61.1934" ry="18"/> 
<a xlink:href="http://pir.georgetown.edu/cgi-bin/pt_graphvizView.pl?togoid=0005623" ><text id="GO:0005623" onmousemove="changeToText('GO:0005623')" onmouseout="changeBackText('GO:0005623')"  text-anchor="middle" x="440" y="-805.8" font-family="Times,serif" font-size="14.00">GO:0005623</text></a>
 
</a> 
</g> 
<!-- e0&#45;&gt;j0 --> 
<g id="edge42" class="edge"><title>e0&#45;&gt;j0</title> 
<path fill="none" stroke="black" d="M356.237,-865.291C371.245,-855.564 390.713,-842.946 407.103,-832.322"/> 
<polygon fill="black" stroke="black" points="409.356,-835.033 415.844,-826.657 405.548,-829.159 409.356,-835.033"/> 
</g> 
<!-- i0 --> 
<g id="node43" class="node"><title>i0</title> 
<a xlink:href="http://pir.georgetown.edu/cgi-bin/pt_graphvizView.pl?togoid=0044464" > 
<ellipse fill="#dddddd" stroke="#dddddd" cx="440" cy="-738" rx="61.1934" ry="18"/> 
<a xlink:href="http://pir.georgetown.edu/cgi-bin/pt_graphvizView.pl?togoid=0044464" ><text id="GO:0044464" onmousemove="changeToText('GO:0044464')" onmouseout="changeBackText('GO:0044464')"  text-anchor="middle" x="440" y="-733.8" font-family="Times,serif" font-size="14.00">GO:0044464</text></a>
 
</a> 
</g> 
<!-- e0&#45;&gt;i0 --> 
<g id="edge44" class="edge"><title>e0&#45;&gt;i0</title> 
<path fill="none" stroke="black" d="M336.422,-863.884C341.95,-844.876 352.831,-813.979 370,-792 379.606,-779.702 392.724,-768.764 405.009,-760.065"/> 
<polygon fill="black" stroke="black" points="407.024,-762.928 413.327,-754.412 403.089,-757.138 407.024,-762.928"/> 
</g> 
<!-- n0 --> 
<g id="node56" class="node"><title>n0</title> 
<a xlink:href="http://pir.georgetown.edu/cgi-bin/pt_graphvizView.pl?togoid=0032991" > 
<ellipse fill="#dddddd" stroke="#dddddd" cx="731" cy="-738" rx="61.1934" ry="18"/> 
<a xlink:href="http://pir.georgetown.edu/cgi-bin/pt_graphvizView.pl?togoid=0032991" ><text id="GO:0032991" onmousemove="changeToText('GO:0032991')" onmouseout="changeBackText('GO:0032991')"  text-anchor="middle" x="731" y="-733.8" font-family="Times,serif" font-size="14.00">GO:0032991</text></a>
 
</a> 
</g> 
<!-- e0&#45;&gt;n0 --> 
<g id="edge64" class="edge"><title>e0&#45;&gt;n0</title> 
<path fill="none" stroke="black" d="M375.524,-869.268C411.787,-859.2 464.645,-843.846 510,-828 573.117,-805.948 644.636,-776.262 688.783,-757.373"/> 
<polygon fill="black" stroke="black" points="690.237,-760.558 698.045,-753.397 687.476,-754.126 690.237,-760.558"/> 
</g> 
<!-- t0&#45;&gt;r0 --> 
<g id="edge34" class="edge"><title>t0&#45;&gt;r0</title> 
<path fill="none" stroke="black" d="M116,-503.697C116,-495.983 116,-486.712 116,-478.112"/> 
<polygon fill="black" stroke="black" points="119.5,-478.104 116,-468.104 112.5,-478.104 119.5,-478.104"/> 
</g> 
<!-- t0&#45;&gt;v0 --> 
<g id="edge78" class="edge"><title>t0&#45;&gt;v0</title> 
<path fill="none" stroke="black" d="M161.308,-509.753C210.746,-497.481 289.902,-477.833 342.898,-464.678"/> 
<polygon fill="black" stroke="black" points="343.942,-468.025 352.804,-462.219 342.256,-461.231 343.942,-468.025"/> 
</g> 
<!-- d0&#45;&gt;t0 --> 
<g id="edge18" class="edge"><title>d0&#45;&gt;t0</title> 
<path fill="none" stroke="black" d="M275.482,-579.669C243.578,-568.332 197.601,-551.995 163.202,-539.772"/> 
<polygon fill="black" stroke="black" points="163.973,-536.332 153.378,-536.282 161.629,-542.928 163.973,-536.332"/> 
</g> 
<!-- d0&#45;&gt;f0 --> 
<g id="edge24" class="edge"><title>d0&#45;&gt;f0</title> 
<path fill="none" stroke="black" d="M332.714,-576.765C343.979,-567.488 358.275,-555.714 370.617,-545.551"/> 
<polygon fill="black" stroke="black" points="372.898,-548.206 378.393,-539.147 368.448,-542.803 372.898,-548.206"/> 
</g> 
<!-- c0 --> 
<g id="node46" class="node"><title>c0</title> 
<a xlink:href="http://pir.georgetown.edu/cgi-bin/pt_graphvizView.pl?togoid=0043227" > 
<ellipse fill="#dddddd" stroke="#dddddd" cx="539" cy="-522" rx="61.1934" ry="18"/> 
<a xlink:href="http://pir.georgetown.edu/cgi-bin/pt_graphvizView.pl?togoid=0043227" ><text id="GO:0043227" onmousemove="changeToText('GO:0043227')" onmouseout="changeBackText('GO:0043227')"  text-anchor="middle" x="539" y="-517.8" font-family="Times,serif" font-size="14.00">GO:0043227</text></a>
 
</a> 
</g> 
<!-- d0&#45;&gt;c0 --> 
<g id="edge48" class="edge"><title>d0&#45;&gt;c0</title> 
<path fill="none" stroke="black" d="M353.665,-580.405C391.469,-568.695 447.907,-551.215 488.565,-538.622"/> 
<polygon fill="black" stroke="black" points="489.764,-541.914 498.281,-535.612 487.693,-535.228 489.764,-541.914"/> 
</g> 
<!-- y0 --> 
<g id="node58" class="node"><title>y0</title> 
<a xlink:href="http://pir.georgetown.edu/cgi-bin/pt_graphvizView.pl?togoid=0043228" > 
<ellipse fill="#dddddd" stroke="#dddddd" cx="257" cy="-522" rx="61.1934" ry="18"/> 
<a xlink:href="http://pir.georgetown.edu/cgi-bin/pt_graphvizView.pl?togoid=0043228" ><text id="GO:0043228" onmousemove="changeToText('GO:0043228')" onmouseout="changeBackText('GO:0043228')"  text-anchor="middle" x="257" y="-517.8" font-family="Times,serif" font-size="14.00">GO:0043228</text></a>
 
</a> 
</g> 
<!-- d0&#45;&gt;y0 --> 
<g id="edge66" class="edge"><title>d0&#45;&gt;y0</title> 
<path fill="none" stroke="black" d="M299.729,-576.411C292.924,-567.906 284.498,-557.372 276.931,-547.914"/> 
<polygon fill="black" stroke="black" points="279.545,-545.578 270.565,-539.956 274.079,-549.951 279.545,-545.578"/> 
</g> 
<!-- s0&#45;&gt;r0 --> 
<g id="edge32" class="edge"><title>s0&#45;&gt;r0</title> 
<path fill="none" stroke="black" d="M54.1196,-791.829C44.1847,-765.444 27,-713.136 27,-667 27,-667 27,-667 27,-593 27,-552.553 24.2918,-538.128 46,-504 54.2425,-491.042 66.8393,-480.074 79.0863,-471.537"/> 
<polygon fill="black" stroke="black" points="81.03,-474.448 87.4514,-466.021 77.1763,-468.604 81.03,-474.448"/> 
</g> 
<!-- b0 --> 
<g id="node28" class="node"><title>b0</title> 
<a xlink:href="http://pir.georgetown.edu/cgi-bin/pt_graphvizView.pl?togoid=0043231" > 
<ellipse fill="#dddddd" stroke="#dddddd" cx="539" cy="-450" rx="61.1934" ry="18"/> 
<a xlink:href="http://pir.georgetown.edu/cgi-bin/pt_graphvizView.pl?togoid=0043231" ><text id="GO:0043231" onmousemove="changeToText('GO:0043231')" onmouseout="changeBackText('GO:0043231')"  text-anchor="middle" x="539" y="-445.8" font-family="Times,serif" font-size="14.00">GO:0043231</text></a>
 
</a> 
</g> 
<!-- f0&#45;&gt;b0 --> 
<g id="edge58" class="edge"><title>f0&#45;&gt;b0</title> 
<path fill="none" stroke="black" d="M427.902,-506.155C448.933,-495.714 477.275,-481.644 500.069,-470.328"/> 
<polygon fill="black" stroke="black" points="501.74,-473.405 509.141,-465.824 498.627,-467.136 501.74,-473.405"/> 
</g> 
<!-- x0 --> 
<g id="node37" class="node"><title>x0</title> 
<a xlink:href="http://pir.georgetown.edu/cgi-bin/pt_graphvizView.pl?togoid=0043232" > 
<ellipse fill="#dddddd" stroke="#dddddd" cx="257" cy="-450" rx="61.1934" ry="18"/> 
<a xlink:href="http://pir.georgetown.edu/cgi-bin/pt_graphvizView.pl?togoid=0043232" ><text id="GO:0043232" onmousemove="changeToText('GO:0043232')" onmouseout="changeBackText('GO:0043232')"  text-anchor="middle" x="257" y="-445.8" font-family="Times,serif" font-size="14.00">GO:0043232</text></a>
 
</a> 
</g> 
<!-- f0&#45;&gt;x0 --> 
<g id="edge92" class="edge"><title>f0&#45;&gt;x0</title> 
<path fill="none" stroke="black" d="M368.098,-506.155C347.067,-495.714 318.725,-481.644 295.931,-470.328"/> 
<polygon fill="black" stroke="black" points="297.373,-467.136 286.859,-465.824 294.26,-473.405 297.373,-467.136"/> 
</g> 
<!-- f0&#45;&gt;v0 --> 
<g id="edge76" class="edge"><title>f0&#45;&gt;v0</title> 
<path fill="none" stroke="black" d="M398,-503.697C398,-495.983 398,-486.712 398,-478.112"/> 
<polygon fill="black" stroke="black" points="401.5,-478.104 398,-468.104 394.5,-478.104 401.5,-478.104"/> 
</g> 
<!-- a1 --> 
<g id="node30" class="node"><title>a1</title> 
<ellipse fill="#e98576" stroke="#e98576" cx="722" cy="-378" rx="75.2018" ry="18"/> 
<a xlink:href="http://pir.georgetown.edu/cgi-bin/pt_graphvizView.pl?togoid=0005783" ><text id="GO:0005783" onmousemove="changeToText('GO:0005783')" onmouseout="changeBackText('GO:0005783')"  text-anchor="middle" x="722" y="-378.8" font-family="Times,serif" font-size="14.00">GO:0005783</text></a>
<a xlink:href="http://pir.georgetown.edu/cgi-bin/pt_graphvizView.pl?tofile=97943" ><text id="r97943" onmousemove="changeToText2('r97943', 1)" onmouseout="changeBackText2('r97943', 1)"  text-anchor="middle" x="722" y="-365.8" font-family="Times,serif" font-size="14.00">(1)</text>
 
</a> 
</g> 
<!-- b0&#45;&gt;a1 --> 
<g id="edge28" class="edge"><title>b0&#45;&gt;a1</title> 
<path fill="none" stroke="black" d="M574.719,-435.337C603.187,-424.448 643.304,-409.102 674.482,-397.176"/> 
<polygon fill="black" stroke="black" points="675.758,-400.435 683.848,-393.594 673.257,-393.897 675.758,-400.435"/> 
</g> 
<!-- a0 --> 
<g id="node62" class="node"><title>a0</title> 
<ellipse fill="#e98576" stroke="#e98576" cx="523" cy="-378" rx="79.4447" ry="18"/> 
<a xlink:href="http://pir.georgetown.edu/cgi-bin/pt_graphvizView.pl?togoid=0005634" ><text id="GO:0005634" onmousemove="changeToText('GO:0005634')" onmouseout="changeBackText('GO:0005634')"  text-anchor="middle" x="523" y="-378.8" font-family="Times,serif" font-size="14.00">GO:0005634</text></a>
<a xlink:href="http://pir.georgetown.edu/cgi-bin/pt_graphvizView.pl?tofile=97933" ><text id="r97933" onmousemove="changeToText2('r97933', 12)" onmouseout="changeBackText2('r97933', 12)"  text-anchor="middle" x="523" y="-365.8" font-family="Times,serif" font-size="14.00">(12)</text>
 
</a> 
</g> 
<!-- b0&#45;&gt;a0 --> 
<g id="edge72" class="edge"><title>b0&#45;&gt;a0</title> 
<path fill="none" stroke="black" d="M535.045,-431.697C533.282,-423.983 531.163,-414.712 529.197,-406.112"/> 
<polygon fill="black" stroke="black" points="532.55,-405.073 526.91,-396.104 525.726,-406.633 532.55,-405.073"/> 
</g> 
<!-- b1&#45;&gt;a1 --> 
<g id="edge30" class="edge"><title>b1&#45;&gt;a1</title> 
<path fill="none" stroke="black" d="M728.775,-431.697C727.783,-423.983 726.592,-414.712 725.486,-406.112"/> 
<polygon fill="black" stroke="black" points="728.946,-405.576 724.199,-396.104 722.003,-406.469 728.946,-405.576"/> 
</g> 
<!-- x0&#45;&gt;w0 --> 
<g id="edge38" class="edge"><title>x0&#45;&gt;w0</title> 
<path fill="none" stroke="black" d="M242.403,-432.438C234.37,-422.5 224.87,-409.25 219,-396 192.483,-336.145 194.928,-317.099 188,-252 186.307,-236.09 181.247,-230.505 188,-216 193.768,-203.609 204.018,-193.08 214.595,-184.751"/> 
<polygon fill="black" stroke="black" points="216.69,-187.555 222.68,-178.816 212.547,-181.912 216.69,-187.555"/> 
</g> 
<!-- c1 --> 
<g id="node72" class="node"><title>c1</title> 
<ellipse fill="#e98576" stroke="#e98576" cx="303" cy="-378" rx="75.2018" ry="18"/> 
<a xlink:href="http://pir.georgetown.edu/cgi-bin/pt_graphvizView.pl?togoid=0005694" ><text id="GO:0005694" onmousemove="changeToText('GO:0005694')" onmouseout="changeBackText('GO:0005694')"  text-anchor="middle" x="303" y="-378.8" font-family="Times,serif" font-size="14.00">GO:0005694</text></a>
<a xlink:href="http://pir.georgetown.edu/cgi-bin/pt_graphvizView.pl?tofile=97945" ><text id="r97945" onmousemove="changeToText2('r97945', 1)" onmouseout="changeBackText2('r97945', 1)"  text-anchor="middle" x="303" y="-365.8" font-family="Times,serif" font-size="14.00">(1)</text>
 
</a> 
</g> 
<!-- x0&#45;&gt;c1 --> 
<g id="edge86" class="edge"><title>x0&#45;&gt;c1</title> 
<path fill="none" stroke="black" d="M268.135,-432.055C273.535,-423.837 280.137,-413.791 286.138,-404.66"/> 
<polygon fill="black" stroke="black" points="289.081,-406.555 291.648,-396.275 283.231,-402.71 289.081,-406.555"/> 
</g> 
<!-- j0&#45;&gt;i0 --> 
<g id="edge46" class="edge"><title>j0&#45;&gt;i0</title> 
<path fill="none" stroke="black" d="M440,-791.697C440,-783.983 440,-774.712 440,-766.112"/> 
<polygon fill="black" stroke="black" points="443.5,-766.104 440,-756.104 436.5,-766.104 443.5,-766.104"/> 
</g> 
<!-- i0&#45;&gt;g0 --> 
<g id="edge52" class="edge"><title>i0&#45;&gt;g0</title> 
<path fill="none" stroke="black" d="M465.245,-721.477C481.108,-711.383 501.758,-697.609 519,-684 537.516,-669.385 539.909,-663.138 558,-648 570.633,-637.429 585.074,-626.339 597.545,-617.051"/> 
<polygon fill="black" stroke="black" points="599.856,-619.696 605.818,-610.938 595.695,-614.066 599.856,-619.696"/> 
</g> 
<!-- h0 --> 
<g id="node47" class="node"><title>h0</title> 
<a xlink:href="http://pir.georgetown.edu/cgi-bin/pt_graphvizView.pl?togoid=0005622" > 
<ellipse fill="#dddddd" stroke="#dddddd" cx="628" cy="-666" rx="61.1934" ry="18"/> 
<a xlink:href="http://pir.georgetown.edu/cgi-bin/pt_graphvizView.pl?togoid=0005622" ><text id="GO:0005622" onmousemove="changeToText('GO:0005622')" onmouseout="changeBackText('GO:0005622')"  text-anchor="middle" x="628" y="-661.8" font-family="Times,serif" font-size="14.00">GO:0005622</text></a>
 
</a> 
</g> 
<!-- i0&#45;&gt;h0 --> 
<g id="edge54" class="edge"><title>i0&#45;&gt;h0</title> 
<path fill="none" stroke="black" d="M476.695,-723.337C506.812,-712.123 549.621,-696.184 582.022,-684.119"/> 
<polygon fill="black" stroke="black" points="583.568,-687.279 591.718,-680.509 581.125,-680.719 583.568,-687.279"/> 
</g> 
<!-- k0 --> 
<g id="node64" class="node"><title>k0</title> 
<ellipse fill="#e98576" stroke="#e98576" cx="431" cy="-666" rx="79.4447" ry="18"/> 
<a xlink:href="http://pir.georgetown.edu/cgi-bin/pt_graphvizView.pl?togoid=0016020" ><text id="GO:0016020" onmousemove="changeToText('GO:0016020')" onmouseout="changeBackText('GO:0016020')"  text-anchor="middle" x="431" y="-666.8" font-family="Times,serif" font-size="14.00">GO:0016020</text></a>
<a xlink:href="http://pir.georgetown.edu/cgi-bin/pt_graphvizView.pl?tofile=97935" ><text id="r97935" onmousemove="changeToText2('r97935', 11)" onmouseout="changeBackText2('r97935', 11)"  text-anchor="middle" x="431" y="-653.8" font-family="Times,serif" font-size="14.00">(11)</text>
 
</a> 
</g> 
<!-- i0&#45;&gt;k0 --> 
<g id="edge74" class="edge"><title>i0&#45;&gt;k0</title> 
<path fill="none" stroke="black" d="M437.775,-719.697C436.783,-711.983 435.592,-702.712 434.486,-694.112"/> 
<polygon fill="black" stroke="black" points="437.946,-693.576 433.199,-684.104 431.003,-694.469 437.946,-693.576"/> 
</g> 
<!-- c0&#45;&gt;b0 --> 
<g id="edge56" class="edge"><title>c0&#45;&gt;b0</title> 
<path fill="none" stroke="black" d="M539,-503.697C539,-495.983 539,-486.712 539,-478.112"/> 
<polygon fill="black" stroke="black" points="542.5,-478.104 539,-468.104 535.5,-478.104 542.5,-478.104"/> 
</g> 
<!-- h0&#45;&gt;g0 --> 
<g id="edge50" class="edge"><title>h0&#45;&gt;g0</title> 
<path fill="none" stroke="black" d="M628,-647.697C628,-639.983 628,-630.712 628,-622.112"/> 
<polygon fill="black" stroke="black" points="631.5,-622.104 628,-612.104 624.5,-622.104 631.5,-622.104"/> 
</g> 
<!-- n0&#45;&gt;m0 --> 
<g id="edge88" class="edge"><title>n0&#45;&gt;m0</title> 
<path fill="none" stroke="black" d="M762.643,-722.528C804.215,-701.085 872,-656.667 872,-595 872,-595 872,-595 872,-449 872,-404.105 843.017,-359.018 821.828,-332.054"/> 
<polygon fill="black" stroke="black" points="824.284,-329.526 815.269,-323.96 818.846,-333.933 824.284,-329.526"/> 
</g> 
<!-- y0&#45;&gt;x0 --> 
<g id="edge90" class="edge"><title>y0&#45;&gt;x0</title> 
<path fill="none" stroke="black" d="M257,-503.697C257,-495.983 257,-486.712 257,-478.112"/> 
<polygon fill="black" stroke="black" points="260.5,-478.104 257,-468.104 253.5,-478.104 260.5,-478.104"/> 
</g> 
<!-- a0&#45;&gt;u0 --> 
<g id="edge82" class="edge"><title>a0&#45;&gt;u0</title> 
<path fill="none" stroke="black" d="M496.158,-360.941C479.727,-351.11 458.528,-338.427 440.814,-327.829"/> 
<polygon fill="black" stroke="black" points="442.291,-324.634 431.913,-322.503 438.697,-330.641 442.291,-324.634"/> 
</g> 
<!-- v0&#45;&gt;u0 --> 
<g id="edge84" class="edge"><title>v0&#45;&gt;u0</title> 
<path fill="none" stroke="black" d="M398.965,-431.871C400.328,-407.67 402.833,-363.211 404.457,-334.393"/> 
<polygon fill="black" stroke="black" points="407.963,-334.37 405.032,-324.189 400.975,-333.977 407.963,-334.37"/> 
</g> 
</g> 
<text text-anchor="left" x="4" y="-20" style="font-family:Arial Narrow;font-size:20.00;font-weight:bold;">GO Hierarchical View:</text> 

<text text-anchor="left" x="4" y="0" style="font-family:Arial Narrow;font-size:20.00;font-style:italic;">cellular component</text> 

<script type="text/ecmascript"> 
<![CDATA[ 
var targetText; 
function changeToText(z) { 
		targetText = svgDocument.getElementById(z).firstChild; 
		targetText.nodeValue="link to "+z; 
} 
function changeBackText(z) { 
		targetText = svgDocument.getElementById(z).firstChild; 
		targetText.nodeValue=z; 
} 
function changeToText2(z,n) { 
		targetText = svgDocument.getElementById(z).firstChild; 
		if (n<=1) { 
			targetText.nodeValue="link to " + n + " protein record"; 
		} else { 
			targetText.nodeValue="link to " + n + " protein records"; 
		} 
} 
function changeBackText2(z,n) { 
		targetText = svgDocument.getElementById(z).firstChild; 
		targetText.nodeValue="(" + n + ")"; 
} 
// ]]> 
</script> 
</svg> 
