<?xml version="1.0" encoding="UTF-8" standalone="no"?>
<!DOCTYPE svg PUBLIC "-//W3C//DTD SVG 1.1//EN"
 "http://www.w3.org/Graphics/SVG/1.1/DTD/svg11.dtd">
<!-- Generated by graphviz version 2.28.0 (20110622.2320)
 -->
<!-- Title: G Pages: 1 -->
<svg width="189pt" height="260pt"
 viewBox="0.00 0.00 189.00 260.00" xmlns="http://www.w3.org/2000/svg" xmlns:xlink="http://www.w3.org/1999/xlink">
<g id="graph1" class="graph" transform="scale(1 1) rotate(0) translate(4 256)">
<title>G</title>
<polygon fill="white" stroke="white" points="-4,5 -4,-256 186,-256 186,5 -4,5"/>
<!-- c0 -->
<g id="node1" class="node"><title>c0</title>
<a xlink:href="0005575" xlink:title="GO:0005575">
<ellipse fill="#dddddd" stroke="#dddddd" cx="75" cy="-234" rx="61.1934" ry="18"/>
<text text-anchor="middle" x="75" y="-229.8" font-family="Times,serif" font-size="14.00">GO:0005575</text>
</a>
</g>
<!-- b0 -->
<g id="node3" class="node"><title>b0</title>
<a xlink:href="0044464" xlink:title="GO:0044464">
<ellipse fill="#dddddd" stroke="#dddddd" cx="75" cy="-90" rx="61.1934" ry="18"/>
<text text-anchor="middle" x="75" y="-85.8" font-family="Times,serif" font-size="14.00">GO:0044464</text>
</a>
</g>
<!-- c0&#45;&gt;b0 -->
<g id="edge2" class="edge"><title>c0&#45;&gt;b0</title>
<path fill="none" stroke="black" d="M64.635,-216.031C59.0966,-205.957 52.8466,-192.707 50,-180 46.5025,-164.387 46.5025,-159.613 50,-144 52.0682,-134.767 55.9331,-125.248 60.0163,-116.869"/>
<polygon fill="black" stroke="black" points="63.1351,-118.458 64.635,-107.969 56.922,-115.233 63.1351,-118.458"/>
</g>
<!-- d0 -->
<g id="node4" class="node"><title>d0</title>
<a xlink:href="0005623" xlink:title="GO:0005623">
<ellipse fill="#dddddd" stroke="#dddddd" cx="120" cy="-162" rx="61.1934" ry="18"/>
<text text-anchor="middle" x="120" y="-157.8" font-family="Times,serif" font-size="14.00">GO:0005623</text>
</a>
</g>
<!-- c0&#45;&gt;d0 -->
<g id="edge8" class="edge"><title>c0&#45;&gt;d0</title>
<path fill="none" stroke="black" d="M85.8932,-216.055C91.2549,-207.715 97.8274,-197.491 103.767,-188.252"/>
<polygon fill="black" stroke="black" points="106.744,-190.093 109.207,-179.789 100.855,-186.308 106.744,-190.093"/>
</g>
<!-- a0 -->
<g id="node7" class="node"><title>a0</title>
<a xlink:href="0016020" xlink:title="GO:0016020 (1)">
<ellipse fill="#e98576" stroke="#e98576" cx="75" cy="-18" rx="75.2018" ry="18"/>
<text text-anchor="middle" x="75" y="-13.8" font-family="Times,serif" font-size="14.00">GO:0016020 (1)</text>
</a>
</g>
<!-- b0&#45;&gt;a0 -->
<g id="edge6" class="edge"><title>b0&#45;&gt;a0</title>
<path fill="none" stroke="black" d="M75,-71.6966C75,-63.9827 75,-54.7125 75,-46.1124"/>
<polygon fill="black" stroke="black" points="78.5001,-46.1043 75,-36.1043 71.5001,-46.1044 78.5001,-46.1043"/>
</g>
<!-- d0&#45;&gt;b0 -->
<g id="edge4" class="edge"><title>d0&#45;&gt;b0</title>
<path fill="none" stroke="black" d="M109.107,-144.055C103.745,-135.715 97.1726,-125.491 91.2332,-116.252"/>
<polygon fill="black" stroke="black" points="94.1447,-114.308 85.7929,-107.789 88.2564,-118.093 94.1447,-114.308"/>
</g>
</g>
</svg>
