<?xml version="1.0" encoding="UTF-8" standalone="no"?>
<!DOCTYPE svg PUBLIC "-//W3C//DTD SVG 1.1//EN"
 "http://www.w3.org/Graphics/SVG/1.1/DTD/svg11.dtd">
<!-- Generated by graphviz version 2.28.0 (20110622.2320)
 -->
<!-- Title: G Pages: 1 -->
<svg width="998pt" height="188pt"
 viewBox="0.00 0.00 998.00 188.00" xmlns="http://www.w3.org/2000/svg" xmlns:xlink="http://www.w3.org/1999/xlink">
<g id="graph1" class="graph" transform="scale(1 1) rotate(0) translate(4 184)">
<title>G</title>
<polygon fill="white" stroke="white" points="-4,5 -4,-184 995,-184 995,5 -4,5"/>
<!-- c0 -->
<g id="node1" class="node"><title>c0</title>
<a xlink:href="0003674" xlink:title="GO:0003674">
<ellipse fill="#dddddd" stroke="#dddddd" cx="473" cy="-162" rx="61.1934" ry="18"/>
<text text-anchor="middle" x="473" y="-157.8" font-family="Times,serif" font-size="14.00">GO:0003674</text>
</a>
</g>
<!-- i0 -->
<g id="node3" class="node"><title>i0</title>
<a xlink:href="0005215" xlink:title="GO:0005215 (1)">
<ellipse fill="#e98576" stroke="#e98576" cx="163" cy="-90" rx="75.2018" ry="18"/>
<text text-anchor="middle" x="163" y="-85.8" font-family="Times,serif" font-size="14.00">GO:0005215 (1)</text>
</a>
</g>
<!-- c0&#45;&gt;i0 -->
<g id="edge2" class="edge"><title>c0&#45;&gt;i0</title>
<path fill="none" stroke="black" d="M425.918,-150.369C372.439,-138.293 284.935,-118.534 225.708,-105.16"/>
<polygon fill="black" stroke="black" points="226.25,-101.694 215.724,-102.906 224.708,-108.522 226.25,-101.694"/>
</g>
<!-- b0 -->
<g id="node4" class="node"><title>b0</title>
<a xlink:href="0005488" xlink:title="GO:0005488">
<ellipse fill="#dddddd" stroke="#dddddd" cx="318" cy="-90" rx="61.1934" ry="18"/>
<text text-anchor="middle" x="318" y="-85.8" font-family="Times,serif" font-size="14.00">GO:0005488</text>
</a>
</g>
<!-- c0&#45;&gt;b0 -->
<g id="edge16" class="edge"><title>c0&#45;&gt;b0</title>
<path fill="none" stroke="black" d="M440.884,-146.496C417.296,-135.843 385.047,-121.279 359.504,-109.744"/>
<polygon fill="black" stroke="black" points="360.629,-106.412 350.075,-105.485 357.748,-112.791 360.629,-106.412"/>
</g>
<!-- h0 -->
<g id="node8" class="node"><title>h0</title>
<a xlink:href="0030234" xlink:title="GO:0030234 (1)">
<ellipse fill="#e98576" stroke="#e98576" cx="473" cy="-90" rx="75.2018" ry="18"/>
<text text-anchor="middle" x="473" y="-85.8" font-family="Times,serif" font-size="14.00">GO:0030234 (1)</text>
</a>
</g>
<!-- c0&#45;&gt;h0 -->
<g id="edge6" class="edge"><title>c0&#45;&gt;h0</title>
<path fill="none" stroke="black" d="M473,-143.697C473,-135.983 473,-126.712 473,-118.112"/>
<polygon fill="black" stroke="black" points="476.5,-118.104 473,-108.104 469.5,-118.104 476.5,-118.104"/>
</g>
<!-- e0 -->
<g id="node9" class="node"><title>e0</title>
<a xlink:href="0003824" xlink:title="GO:0003824">
<ellipse fill="#dddddd" stroke="#dddddd" cx="628" cy="-90" rx="61.1934" ry="18"/>
<text text-anchor="middle" x="628" y="-85.8" font-family="Times,serif" font-size="14.00">GO:0003824</text>
</a>
</g>
<!-- c0&#45;&gt;e0 -->
<g id="edge10" class="edge"><title>c0&#45;&gt;e0</title>
<path fill="none" stroke="black" d="M505.116,-146.496C528.704,-135.843 560.953,-121.279 586.496,-109.744"/>
<polygon fill="black" stroke="black" points="588.252,-112.791 595.925,-105.485 585.371,-106.412 588.252,-112.791"/>
</g>
<!-- l0 -->
<g id="node18" class="node"><title>l0</title>
<a xlink:href="0060089" xlink:title="GO:0060089">
<ellipse fill="#dddddd" stroke="#dddddd" cx="866" cy="-90" rx="61.1934" ry="18"/>
<text text-anchor="middle" x="866" y="-85.8" font-family="Times,serif" font-size="14.00">GO:0060089</text>
</a>
</g>
<!-- c0&#45;&gt;l0 -->
<g id="edge22" class="edge"><title>c0&#45;&gt;l0</title>
<path fill="none" stroke="black" d="M523.975,-151.92C596.126,-139.069 727.83,-115.61 805.054,-101.856"/>
<polygon fill="black" stroke="black" points="805.884,-105.263 815.115,-100.063 804.657,-98.3713 805.884,-105.263"/>
</g>
<!-- a0 -->
<g id="node6" class="node"><title>a0</title>
<a xlink:href="0043167" xlink:title="GO:0043167 (2)">
<ellipse fill="#e98576" stroke="#e98576" cx="75" cy="-18" rx="75.2018" ry="18"/>
<text text-anchor="middle" x="75" y="-13.8" font-family="Times,serif" font-size="14.00">GO:0043167 (2)</text>
</a>
</g>
<!-- b0&#45;&gt;a0 -->
<g id="edge4" class="edge"><title>b0&#45;&gt;a0</title>
<path fill="none" stroke="black" d="M275.95,-76.8868C235.79,-65.3182 175.009,-47.8091 130.81,-35.077"/>
<polygon fill="black" stroke="black" points="131.661,-31.6798 121.083,-32.2748 129.723,-38.4062 131.661,-31.6798"/>
</g>
<!-- g0 -->
<g id="node16" class="node"><title>g0</title>
<a xlink:href="0005515" xlink:title="GO:0005515 (2)">
<ellipse fill="#e98576" stroke="#e98576" cx="243" cy="-18" rx="75.2018" ry="18"/>
<text text-anchor="middle" x="243" y="-13.8" font-family="Times,serif" font-size="14.00">GO:0005515 (2)</text>
</a>
</g>
<!-- b0&#45;&gt;g0 -->
<g id="edge14" class="edge"><title>b0&#45;&gt;g0</title>
<path fill="none" stroke="black" d="M300.226,-72.411C290.675,-63.4969 278.738,-52.3554 268.241,-42.558"/>
<polygon fill="black" stroke="black" points="270.605,-39.977 260.906,-35.7125 265.829,-45.0944 270.605,-39.977"/>
</g>
<!-- f0 -->
<g id="node22" class="node"><title>f0</title>
<a xlink:href="0000166" xlink:title="GO:0000166 (2)">
<ellipse fill="#e98576" stroke="#e98576" cx="411" cy="-18" rx="75.2018" ry="18"/>
<text text-anchor="middle" x="411" y="-13.8" font-family="Times,serif" font-size="14.00">GO:0000166 (2)</text>
</a>
</g>
<!-- b0&#45;&gt;f0 -->
<g id="edge20" class="edge"><title>b0&#45;&gt;f0</title>
<path fill="none" stroke="black" d="M339.57,-72.7646C351.923,-63.4665 367.609,-51.6599 381.133,-41.4806"/>
<polygon fill="black" stroke="black" points="383.34,-44.2 389.225,-35.3898 379.13,-38.6072 383.34,-44.2"/>
</g>
<!-- d0 -->
<g id="node11" class="node"><title>d0</title>
<a xlink:href="0016787" xlink:title="GO:0016787 (2)">
<ellipse fill="#e98576" stroke="#e98576" cx="579" cy="-18" rx="75.2018" ry="18"/>
<text text-anchor="middle" x="579" y="-13.8" font-family="Times,serif" font-size="14.00">GO:0016787 (2)</text>
</a>
</g>
<!-- e0&#45;&gt;d0 -->
<g id="edge8" class="edge"><title>e0&#45;&gt;d0</title>
<path fill="none" stroke="black" d="M616.138,-72.055C610.3,-63.7147 603.144,-53.4908 596.676,-44.2517"/>
<polygon fill="black" stroke="black" points="599.354,-41.9742 590.752,-35.789 593.62,-45.9885 599.354,-41.9742"/>
</g>
<!-- j0 -->
<g id="node14" class="node"><title>j0</title>
<a xlink:href="0016740" xlink:title="GO:0016740 (1)">
<ellipse fill="#e98576" stroke="#e98576" cx="747" cy="-18" rx="75.2018" ry="18"/>
<text text-anchor="middle" x="747" y="-13.8" font-family="Times,serif" font-size="14.00">GO:0016740 (1)</text>
</a>
</g>
<!-- e0&#45;&gt;j0 -->
<g id="edge12" class="edge"><title>e0&#45;&gt;j0</title>
<path fill="none" stroke="black" d="M654.115,-73.6382C670.931,-63.7466 693.006,-50.761 711.417,-39.9312"/>
<polygon fill="black" stroke="black" points="713.277,-42.898 720.121,-34.811 709.727,-36.8645 713.277,-42.898"/>
</g>
<!-- k0 -->
<g id="node20" class="node"><title>k0</title>
<a xlink:href="0004871" xlink:title="GO:0004871 (1)">
<ellipse fill="#e98576" stroke="#e98576" cx="915" cy="-18" rx="75.2018" ry="18"/>
<text text-anchor="middle" x="915" y="-13.8" font-family="Times,serif" font-size="14.00">GO:0004871 (1)</text>
</a>
</g>
<!-- l0&#45;&gt;k0 -->
<g id="edge18" class="edge"><title>l0&#45;&gt;k0</title>
<path fill="none" stroke="black" d="M877.862,-72.055C883.7,-63.7147 890.856,-53.4908 897.324,-44.2517"/>
<polygon fill="black" stroke="black" points="900.38,-45.9885 903.248,-35.789 894.646,-41.9742 900.38,-45.9885"/>
</g>
</g>
</svg>
