<?xml version="1.0" encoding="UTF-8" standalone="no"?>
<!DOCTYPE svg PUBLIC "-//W3C//DTD SVG 1.1//EN"
 "http://www.w3.org/Graphics/SVG/1.1/DTD/svg11.dtd">
<!-- Generated by graphviz version 2.28.0 (20110622.2320)
 -->
<!-- Title: G Pages: 1 -->
<svg width="3746pt" height="404pt"
 viewBox="0.00 0.00 3746.00 404.00" xmlns="http://www.w3.org/2000/svg" xmlns:xlink="http://www.w3.org/1999/xlink">
<g id="graph1" class="graph" transform="scale(1 1) rotate(0) translate(4 400)">
<title>G</title>
<polygon fill="white" stroke="white" points="-4,5 -4,-400 3743,-400 3743,5 -4,5"/>
<!-- h0 -->
<g id="node1" class="node"><title>h0</title>
<a xlink:href="0003824" xlink:title="GO:0003824 (3)">
<ellipse fill="#e98576" stroke="#e98576" cx="757" cy="-306" rx="75.2018" ry="18"/>
<text text-anchor="middle" x="757" y="-301.8" font-family="Times,serif" font-size="14.00">GO:0003824 (3)</text>
</a>
</g>
<!-- e1 -->
<g id="node3" class="node"><title>e1</title>
<a xlink:href="0016853" xlink:title="GO:0016853 (1)">
<ellipse fill="#e98576" stroke="#e98576" cx="75" cy="-234" rx="75.2018" ry="18"/>
<text text-anchor="middle" x="75" y="-229.8" font-family="Times,serif" font-size="14.00">GO:0016853 (1)</text>
</a>
</g>
<!-- h0&#45;&gt;e1 -->
<g id="edge2" class="edge"><title>h0&#45;&gt;e1</title>
<path fill="none" stroke="black" d="M684.438,-301.181C571.617,-294.656 347.501,-279.341 159,-252 152.371,-251.039 145.477,-249.89 138.615,-248.649"/>
<polygon fill="black" stroke="black" points="139.092,-245.177 128.618,-246.776 137.803,-252.058 139.092,-245.177"/>
</g>
<!-- g0 -->
<g id="node15" class="node"><title>g0</title>
<a xlink:href="0016787" xlink:title="GO:0016787 (11)">
<ellipse fill="#e98576" stroke="#e98576" cx="248" cy="-234" rx="79.4447" ry="18"/>
<text text-anchor="middle" x="248" y="-229.8" font-family="Times,serif" font-size="14.00">GO:0016787 (11)</text>
</a>
</g>
<!-- h0&#45;&gt;g0 -->
<g id="edge24" class="edge"><title>h0&#45;&gt;g0</title>
<path fill="none" stroke="black" d="M689.893,-297.856C606.825,-288.708 461.128,-271.667 337,-252 329.95,-250.883 322.603,-249.628 315.286,-248.319"/>
<polygon fill="black" stroke="black" points="315.824,-244.859 305.358,-246.508 314.568,-251.746 315.824,-244.859"/>
</g>
<!-- p0 -->
<g id="node18" class="node"><title>p0</title>
<a xlink:href="0016491" xlink:title="GO:0016491 (4)">
<ellipse fill="#e98576" stroke="#e98576" cx="421" cy="-234" rx="75.2018" ry="18"/>
<text text-anchor="middle" x="421" y="-229.8" font-family="Times,serif" font-size="14.00">GO:0016491 (4)</text>
</a>
</g>
<!-- h0&#45;&gt;p0 -->
<g id="edge32" class="edge"><title>h0&#45;&gt;p0</title>
<path fill="none" stroke="black" d="M702.268,-293.597C642.96,-281.242 548.399,-261.541 485.518,-248.441"/>
<polygon fill="black" stroke="black" points="486.212,-245.011 475.709,-246.398 484.785,-251.864 486.212,-245.011"/>
</g>
<!-- o0 -->
<g id="node29" class="node"><title>o0</title>
<a xlink:href="0016874" xlink:title="GO:0016874 (3)">
<ellipse fill="#e98576" stroke="#e98576" cx="589" cy="-234" rx="75.2018" ry="18"/>
<text text-anchor="middle" x="589" y="-229.8" font-family="Times,serif" font-size="14.00">GO:0016874 (3)</text>
</a>
</g>
<!-- h0&#45;&gt;o0 -->
<g id="edge26" class="edge"><title>h0&#45;&gt;o0</title>
<path fill="none" stroke="black" d="M721.372,-290.155C695.954,-279.564 661.574,-265.239 634.222,-253.842"/>
<polygon fill="black" stroke="black" points="635.443,-250.56 624.866,-249.944 632.751,-257.021 635.443,-250.56"/>
</g>
<!-- w0 -->
<g id="node36" class="node"><title>w0</title>
<a xlink:href="0004386" xlink:title="GO:0004386 (1)">
<ellipse fill="#e98576" stroke="#e98576" cx="757" cy="-234" rx="75.2018" ry="18"/>
<text text-anchor="middle" x="757" y="-229.8" font-family="Times,serif" font-size="14.00">GO:0004386 (1)</text>
</a>
</g>
<!-- h0&#45;&gt;w0 -->
<g id="edge34" class="edge"><title>h0&#45;&gt;w0</title>
<path fill="none" stroke="black" d="M757,-287.697C757,-279.983 757,-270.712 757,-262.112"/>
<polygon fill="black" stroke="black" points="760.5,-262.104 757,-252.104 753.5,-262.104 760.5,-262.104"/>
</g>
<!-- c1 -->
<g id="node51" class="node"><title>c1</title>
<a xlink:href="0008641" xlink:title="GO:0008641 (1)">
<ellipse fill="#e98576" stroke="#e98576" cx="925" cy="-234" rx="75.2018" ry="18"/>
<text text-anchor="middle" x="925" y="-229.8" font-family="Times,serif" font-size="14.00">GO:0008641 (1)</text>
</a>
</g>
<!-- h0&#45;&gt;c1 -->
<g id="edge48" class="edge"><title>h0&#45;&gt;c1</title>
<path fill="none" stroke="black" d="M792.628,-290.155C818.046,-279.564 852.426,-265.239 879.778,-253.842"/>
<polygon fill="black" stroke="black" points="881.249,-257.021 889.134,-249.944 878.557,-250.56 881.249,-257.021"/>
</g>
<!-- g1 -->
<g id="node64" class="node"><title>g1</title>
<a xlink:href="0016740" xlink:title="GO:0016740 (1)">
<ellipse fill="#e98576" stroke="#e98576" cx="1093" cy="-234" rx="75.2018" ry="18"/>
<text text-anchor="middle" x="1093" y="-229.8" font-family="Times,serif" font-size="14.00">GO:0016740 (1)</text>
</a>
</g>
<!-- h0&#45;&gt;g1 -->
<g id="edge62" class="edge"><title>h0&#45;&gt;g1</title>
<path fill="none" stroke="black" d="M811.732,-293.597C871.04,-281.242 965.601,-261.541 1028.48,-248.441"/>
<polygon fill="black" stroke="black" points="1029.22,-251.864 1038.29,-246.398 1027.79,-245.011 1029.22,-251.864"/>
</g>
<!-- f1 -->
<g id="node70" class="node"><title>f1</title>
<a xlink:href="0016829" xlink:title="GO:0016829 (1)">
<ellipse fill="#e98576" stroke="#e98576" cx="1261" cy="-234" rx="75.2018" ry="18"/>
<text text-anchor="middle" x="1261" y="-229.8" font-family="Times,serif" font-size="14.00">GO:0016829 (1)</text>
</a>
</g>
<!-- h0&#45;&gt;f1 -->
<g id="edge68" class="edge"><title>h0&#45;&gt;f1</title>
<path fill="none" stroke="black" d="M824.508,-298.041C907.673,-289.109 1053.16,-272.316 1177,-252 1183.51,-250.932 1190.29,-249.724 1197.04,-248.456"/>
<polygon fill="black" stroke="black" points="1197.72,-251.889 1206.88,-246.566 1196.4,-245.014 1197.72,-251.889"/>
</g>
<!-- c0 -->
<g id="node4" class="node"><title>c0</title>
<a xlink:href="0003674" xlink:title="GO:0003674 (2)">
<ellipse fill="#e98576" stroke="#e98576" cx="2630" cy="-378" rx="75.2018" ry="18"/>
<text text-anchor="middle" x="2630" y="-373.8" font-family="Times,serif" font-size="14.00">GO:0003674 (2)</text>
</a>
</g>
<!-- c0&#45;&gt;h0 -->
<g id="edge46" class="edge"><title>c0&#45;&gt;h0</title>
<path fill="none" stroke="black" d="M2556.29,-374.245C2259.84,-363.166 1155.51,-321.893 841.044,-310.141"/>
<polygon fill="black" stroke="black" points="840.761,-306.628 830.637,-309.752 840.5,-313.623 840.761,-306.628"/>
</g>
<!-- t0 -->
<g id="node6" class="node"><title>t0</title>
<a xlink:href="0030234" xlink:title="GO:0030234 (2)">
<ellipse fill="#e98576" stroke="#e98576" cx="2294" cy="-306" rx="75.2018" ry="18"/>
<text text-anchor="middle" x="2294" y="-301.8" font-family="Times,serif" font-size="14.00">GO:0030234 (2)</text>
</a>
</g>
<!-- c0&#45;&gt;t0 -->
<g id="edge4" class="edge"><title>c0&#45;&gt;t0</title>
<path fill="none" stroke="black" d="M2575.27,-365.597C2515.96,-353.242 2421.4,-333.541 2358.52,-320.441"/>
<polygon fill="black" stroke="black" points="2359.21,-317.011 2348.71,-318.398 2357.78,-323.864 2359.21,-317.011"/>
</g>
<!-- b0 -->
<g id="node7" class="node"><title>b0</title>
<a xlink:href="0005488" xlink:title="GO:0005488 (1)">
<ellipse fill="#e98576" stroke="#e98576" cx="2462" cy="-306" rx="75.2018" ry="18"/>
<text text-anchor="middle" x="2462" y="-301.8" font-family="Times,serif" font-size="14.00">GO:0005488 (1)</text>
</a>
</g>
<!-- c0&#45;&gt;b0 -->
<g id="edge12" class="edge"><title>c0&#45;&gt;b0</title>
<path fill="none" stroke="black" d="M2594.37,-362.155C2568.95,-351.564 2534.57,-337.239 2507.22,-325.842"/>
<polygon fill="black" stroke="black" points="2508.44,-322.56 2497.87,-321.944 2505.75,-329.021 2508.44,-322.56"/>
</g>
<!-- k0 -->
<g id="node24" class="node"><title>k0</title>
<a xlink:href="0005215" xlink:title="GO:0005215 (8)">
<ellipse fill="#e98576" stroke="#e98576" cx="2630" cy="-306" rx="75.2018" ry="18"/>
<text text-anchor="middle" x="2630" y="-301.8" font-family="Times,serif" font-size="14.00">GO:0005215 (8)</text>
</a>
</g>
<!-- c0&#45;&gt;k0 -->
<g id="edge20" class="edge"><title>c0&#45;&gt;k0</title>
<path fill="none" stroke="black" d="M2630,-359.697C2630,-351.983 2630,-342.712 2630,-334.112"/>
<polygon fill="black" stroke="black" points="2633.5,-334.104 2630,-324.104 2626.5,-334.104 2633.5,-334.104"/>
</g>
<!-- j0 -->
<g id="node38" class="node"><title>j0</title>
<a xlink:href="0005198" xlink:title="GO:0005198 (9)">
<ellipse fill="#e98576" stroke="#e98576" cx="2798" cy="-306" rx="75.2018" ry="18"/>
<text text-anchor="middle" x="2798" y="-301.8" font-family="Times,serif" font-size="14.00">GO:0005198 (9)</text>
</a>
</g>
<!-- c0&#45;&gt;j0 -->
<g id="edge36" class="edge"><title>c0&#45;&gt;j0</title>
<path fill="none" stroke="black" d="M2665.63,-362.155C2691.05,-351.564 2725.43,-337.239 2752.78,-325.842"/>
<polygon fill="black" stroke="black" points="2754.25,-329.021 2762.13,-321.944 2751.56,-322.56 2754.25,-329.021"/>
</g>
<!-- a1 -->
<g id="node56" class="node"><title>a1</title>
<a xlink:href="0060089" xlink:title="GO:0060089">
<ellipse fill="#dddddd" stroke="#dddddd" cx="2953" cy="-306" rx="61.1934" ry="18"/>
<text text-anchor="middle" x="2953" y="-301.8" font-family="Times,serif" font-size="14.00">GO:0060089</text>
</a>
</g>
<!-- c0&#45;&gt;a1 -->
<g id="edge72" class="edge"><title>c0&#45;&gt;a1</title>
<path fill="none" stroke="black" d="M2685.65,-365.757C2736.78,-355.319 2814.61,-339.151 2882,-324 2886.97,-322.882 2892.14,-321.695 2897.31,-320.49"/>
<polygon fill="black" stroke="black" points="2898.28,-323.857 2907.21,-318.16 2896.68,-317.043 2898.28,-323.857"/>
</g>
<!-- b1 -->
<g id="node59" class="node"><title>b1</title>
<a xlink:href="0016209" xlink:title="GO:0016209 (1)">
<ellipse fill="#e98576" stroke="#e98576" cx="3108" cy="-306" rx="75.2018" ry="18"/>
<text text-anchor="middle" x="3108" y="-301.8" font-family="Times,serif" font-size="14.00">GO:0016209 (1)</text>
</a>
</g>
<!-- c0&#45;&gt;b1 -->
<g id="edge56" class="edge"><title>c0&#45;&gt;b1</title>
<path fill="none" stroke="black" d="M2696.25,-369.365C2774.52,-360.043 2908.58,-343.137 3023,-324 3029.58,-322.899 3036.43,-321.67 3043.27,-320.389"/>
<polygon fill="black" stroke="black" points="3044.06,-323.8 3053.22,-318.485 3042.75,-316.925 3044.06,-323.8"/>
</g>
<!-- k1 -->
<g id="node9" class="node"><title>k1</title>
<a xlink:href="0042277" xlink:title="GO:0042277 (1)">
<ellipse fill="#e98576" stroke="#e98576" cx="1429" cy="-234" rx="75.2018" ry="18"/>
<text text-anchor="middle" x="1429" y="-229.8" font-family="Times,serif" font-size="14.00">GO:0042277 (1)</text>
</a>
</g>
<!-- b0&#45;&gt;k1 -->
<g id="edge6" class="edge"><title>b0&#45;&gt;k1</title>
<path fill="none" stroke="black" d="M2409.33,-293.017C2398.99,-291.04 2388.19,-289.236 2378,-288 1996.02,-241.693 1894.98,-298.307 1513,-252 1506.15,-251.17 1499.03,-250.083 1491.96,-248.859"/>
<polygon fill="black" stroke="black" points="1492.13,-245.334 1481.67,-246.983 1490.88,-252.22 1492.13,-245.334"/>
</g>
<!-- j1 -->
<g id="node11" class="node"><title>j1</title>
<a xlink:href="0019825" xlink:title="GO:0019825 (1)">
<ellipse fill="#e98576" stroke="#e98576" cx="1597" cy="-234" rx="75.2018" ry="18"/>
<text text-anchor="middle" x="1597" y="-229.8" font-family="Times,serif" font-size="14.00">GO:0019825 (1)</text>
</a>
</g>
<!-- b0&#45;&gt;j1 -->
<g id="edge8" class="edge"><title>b0&#45;&gt;j1</title>
<path fill="none" stroke="black" d="M2409.32,-293.099C2398.98,-291.115 2388.19,-289.287 2378,-288 2070.25,-249.129 1988.75,-290.871 1681,-252 1674.16,-251.136 1667.04,-250.027 1659.97,-248.79"/>
<polygon fill="black" stroke="black" points="1660.15,-245.265 1649.68,-246.901 1658.88,-252.15 1660.15,-245.265"/>
</g>
<!-- a0 -->
<g id="node13" class="node"><title>a0</title>
<a xlink:href="0005515" xlink:title="GO:0005515 (24)">
<ellipse fill="#e98576" stroke="#e98576" cx="1770" cy="-234" rx="79.4447" ry="18"/>
<text text-anchor="middle" x="1770" y="-229.8" font-family="Times,serif" font-size="14.00">GO:0005515 (24)</text>
</a>
</g>
<!-- b0&#45;&gt;a0 -->
<g id="edge10" class="edge"><title>b0&#45;&gt;a0</title>
<path fill="none" stroke="black" d="M2408.85,-293.156C2398.65,-291.192 2388.03,-289.356 2378,-288 2148.87,-257.002 2088.3,-281.744 1859,-252 1851.62,-251.043 1843.94,-249.86 1836.3,-248.567"/>
<polygon fill="black" stroke="black" points="1836.79,-245.098 1826.33,-246.813 1835.58,-251.992 1836.79,-245.098"/>
</g>
<!-- r0 -->
<g id="node22" class="node"><title>r0</title>
<a xlink:href="0005496" xlink:title="GO:0005496 (2)">
<ellipse fill="#e98576" stroke="#e98576" cx="1943" cy="-234" rx="75.2018" ry="18"/>
<text text-anchor="middle" x="1943" y="-229.8" font-family="Times,serif" font-size="14.00">GO:0005496 (2)</text>
</a>
</g>
<!-- b0&#45;&gt;r0 -->
<g id="edge18" class="edge"><title>b0&#45;&gt;r0</title>
<path fill="none" stroke="black" d="M2408.37,-293.335C2398.31,-291.378 2387.86,-289.499 2378,-288 2222.96,-264.419 2182.04,-275.581 2027,-252 2020.38,-250.993 2013.49,-249.814 2006.63,-248.556"/>
<polygon fill="black" stroke="black" points="2007.11,-245.085 1996.63,-246.665 2005.81,-251.963 2007.11,-245.085"/>
</g>
<!-- d0 -->
<g id="node26" class="node"><title>d0</title>
<a xlink:href="0043167" xlink:title="GO:0043167 (20)">
<ellipse fill="#e98576" stroke="#e98576" cx="2116" cy="-234" rx="79.4447" ry="18"/>
<text text-anchor="middle" x="2116" y="-229.8" font-family="Times,serif" font-size="14.00">GO:0043167 (20)</text>
</a>
</g>
<!-- b0&#45;&gt;d0 -->
<g id="edge22" class="edge"><title>b0&#45;&gt;d0</title>
<path fill="none" stroke="black" d="M2406.41,-293.753C2345.66,-281.464 2248.35,-261.777 2183.33,-248.621"/>
<polygon fill="black" stroke="black" points="2183.68,-245.121 2173.18,-246.568 2182.29,-251.982 2183.68,-245.121"/>
</g>
<!-- s0 -->
<g id="node31" class="node"><title>s0</title>
<a xlink:href="0043178" xlink:title="GO:0043178 (2)">
<ellipse fill="#e98576" stroke="#e98576" cx="2289" cy="-234" rx="75.2018" ry="18"/>
<text text-anchor="middle" x="2289" y="-229.8" font-family="Times,serif" font-size="14.00">GO:0043178 (2)</text>
</a>
</g>
<!-- b0&#45;&gt;s0 -->
<g id="edge28" class="edge"><title>b0&#45;&gt;s0</title>
<path fill="none" stroke="black" d="M2425.31,-290.155C2398.93,-279.482 2363.18,-265.016 2334.91,-253.577"/>
<polygon fill="black" stroke="black" points="2336.22,-250.33 2325.64,-249.824 2333.59,-256.819 2336.22,-250.33"/>
</g>
<!-- f0 -->
<g id="node33" class="node"><title>f0</title>
<a xlink:href="0003676" xlink:title="GO:0003676 (13)">
<ellipse fill="#e98576" stroke="#e98576" cx="2462" cy="-234" rx="79.4447" ry="18"/>
<text text-anchor="middle" x="2462" y="-229.8" font-family="Times,serif" font-size="14.00">GO:0003676 (13)</text>
</a>
</g>
<!-- b0&#45;&gt;f0 -->
<g id="edge30" class="edge"><title>b0&#45;&gt;f0</title>
<path fill="none" stroke="black" d="M2462,-287.697C2462,-279.983 2462,-270.712 2462,-262.112"/>
<polygon fill="black" stroke="black" points="2465.5,-262.104 2462,-252.104 2458.5,-262.104 2465.5,-262.104"/>
</g>
<!-- i1 -->
<g id="node40" class="node"><title>i1</title>
<a xlink:href="0003682" xlink:title="GO:0003682 (1)">
<ellipse fill="#e98576" stroke="#e98576" cx="2635" cy="-234" rx="75.2018" ry="18"/>
<text text-anchor="middle" x="2635" y="-229.8" font-family="Times,serif" font-size="14.00">GO:0003682 (1)</text>
</a>
</g>
<!-- b0&#45;&gt;i1 -->
<g id="edge38" class="edge"><title>b0&#45;&gt;i1</title>
<path fill="none" stroke="black" d="M2498.69,-290.155C2525.07,-279.482 2560.82,-265.016 2589.09,-253.577"/>
<polygon fill="black" stroke="black" points="2590.41,-256.819 2598.36,-249.824 2587.78,-250.33 2590.41,-256.819"/>
</g>
<!-- i0 -->
<g id="node53" class="node"><title>i0</title>
<a xlink:href="0001882" xlink:title="GO:0001882 (10)">
<ellipse fill="#e98576" stroke="#e98576" cx="2808" cy="-234" rx="79.4447" ry="18"/>
<text text-anchor="middle" x="2808" y="-229.8" font-family="Times,serif" font-size="14.00">GO:0001882 (10)</text>
</a>
</g>
<!-- b0&#45;&gt;i0 -->
<g id="edge50" class="edge"><title>b0&#45;&gt;i0</title>
<path fill="none" stroke="black" d="M2517.59,-293.753C2578.34,-281.464 2675.65,-261.777 2740.67,-248.621"/>
<polygon fill="black" stroke="black" points="2741.71,-251.982 2750.82,-246.568 2740.32,-245.121 2741.71,-251.982"/>
</g>
<!-- d1 -->
<g id="node55" class="node"><title>d1</title>
<a xlink:href="0019842" xlink:title="GO:0019842 (1)">
<ellipse fill="#e98576" stroke="#e98576" cx="2981" cy="-234" rx="75.2018" ry="18"/>
<text text-anchor="middle" x="2981" y="-229.8" font-family="Times,serif" font-size="14.00">GO:0019842 (1)</text>
</a>
</g>
<!-- b0&#45;&gt;d1 -->
<g id="edge52" class="edge"><title>b0&#45;&gt;d1</title>
<path fill="none" stroke="black" d="M2515.64,-293.337C2525.69,-291.38 2536.14,-289.5 2546,-288 2700.59,-264.463 2741.38,-275.36 2896,-252 2902.8,-250.973 2909.88,-249.771 2916.92,-248.489"/>
<polygon fill="black" stroke="black" points="2917.99,-251.849 2927.18,-246.565 2916.7,-244.969 2917.99,-251.849"/>
</g>
<!-- u0 -->
<g id="node66" class="node"><title>u0</title>
<a xlink:href="0046906" xlink:title="GO:0046906 (2)">
<ellipse fill="#e98576" stroke="#e98576" cx="3149" cy="-234" rx="75.2018" ry="18"/>
<text text-anchor="middle" x="3149" y="-229.8" font-family="Times,serif" font-size="14.00">GO:0046906 (2)</text>
</a>
</g>
<!-- b0&#45;&gt;u0 -->
<g id="edge64" class="edge"><title>b0&#45;&gt;u0</title>
<path fill="none" stroke="black" d="M2515.15,-293.156C2525.35,-291.192 2535.97,-289.356 2546,-288 2775.13,-257.002 2835.87,-282.998 3065,-252 3071.74,-251.089 3078.74,-249.961 3085.71,-248.724"/>
<polygon fill="black" stroke="black" points="3086.66,-252.108 3095.85,-246.844 3085.38,-245.225 3086.66,-252.108"/>
</g>
<!-- e0 -->
<g id="node68" class="node"><title>e0</title>
<a xlink:href="0000166" xlink:title="GO:0000166 (17)">
<ellipse fill="#e98576" stroke="#e98576" cx="3322" cy="-234" rx="79.4447" ry="18"/>
<text text-anchor="middle" x="3322" y="-229.8" font-family="Times,serif" font-size="14.00">GO:0000166 (17)</text>
</a>
</g>
<!-- b0&#45;&gt;e0 -->
<g id="edge66" class="edge"><title>b0&#45;&gt;e0</title>
<path fill="none" stroke="black" d="M2514.68,-293.105C2525.02,-291.12 2535.81,-289.29 2546,-288 2849.33,-249.571 2929.47,-288.768 3233,-252 3240.58,-251.082 3248.48,-249.902 3256.31,-248.591"/>
<polygon fill="black" stroke="black" points="3256.91,-252.039 3266.16,-246.871 3255.71,-245.143 3256.91,-252.039"/>
</g>
<!-- x0 -->
<g id="node72" class="node"><title>x0</title>
<a xlink:href="0051540" xlink:title="GO:0051540 (1)">
<ellipse fill="#e98576" stroke="#e98576" cx="3495" cy="-234" rx="75.2018" ry="18"/>
<text text-anchor="middle" x="3495" y="-229.8" font-family="Times,serif" font-size="14.00">GO:0051540 (1)</text>
</a>
</g>
<!-- b0&#45;&gt;x0 -->
<g id="edge70" class="edge"><title>b0&#45;&gt;x0</title>
<path fill="none" stroke="black" d="M2514.67,-293.017C2525.01,-291.04 2535.81,-289.236 2546,-288 2927.54,-241.738 3028.41,-297.826 3410,-252 3417.19,-251.136 3424.68,-249.997 3432.11,-248.715"/>
<polygon fill="black" stroke="black" points="3432.94,-252.121 3442.15,-246.893 3431.69,-245.234 3432.94,-252.121"/>
</g>
<!-- q0 -->
<g id="node17" class="node"><title>q0</title>
<a xlink:href="0008233" xlink:title="GO:0008233 (2)">
<ellipse fill="#e98576" stroke="#e98576" cx="173" cy="-162" rx="75.2018" ry="18"/>
<text text-anchor="middle" x="173" y="-157.8" font-family="Times,serif" font-size="14.00">GO:0008233 (2)</text>
</a>
</g>
<!-- g0&#45;&gt;q0 -->
<g id="edge14" class="edge"><title>g0&#45;&gt;q0</title>
<path fill="none" stroke="black" d="M230.226,-216.411C220.675,-207.497 208.738,-196.355 198.241,-186.558"/>
<polygon fill="black" stroke="black" points="200.605,-183.977 190.906,-179.713 195.829,-189.094 200.605,-183.977"/>
</g>
<!-- h1 -->
<g id="node20" class="node"><title>h1</title>
<a xlink:href="0004497" xlink:title="GO:0004497 (1)">
<ellipse fill="#e98576" stroke="#e98576" cx="341" cy="-162" rx="75.2018" ry="18"/>
<text text-anchor="middle" x="341" y="-157.8" font-family="Times,serif" font-size="14.00">GO:0004497 (1)</text>
</a>
</g>
<!-- p0&#45;&gt;h1 -->
<g id="edge16" class="edge"><title>p0&#45;&gt;h1</title>
<path fill="none" stroke="black" d="M402.041,-216.411C391.68,-207.345 378.685,-195.974 367.351,-186.057"/>
<polygon fill="black" stroke="black" points="369.653,-183.421 359.823,-179.47 365.044,-188.689 369.653,-183.421"/>
</g>
<!-- v0 -->
<g id="node62" class="node"><title>v0</title>
<a xlink:href="0009055" xlink:title="GO:0009055 (1)">
<ellipse fill="#e98576" stroke="#e98576" cx="509" cy="-162" rx="75.2018" ry="18"/>
<text text-anchor="middle" x="509" y="-157.8" font-family="Times,serif" font-size="14.00">GO:0009055 (1)</text>
</a>
</g>
<!-- p0&#45;&gt;v0 -->
<g id="edge60" class="edge"><title>p0&#45;&gt;v0</title>
<path fill="none" stroke="black" d="M441.855,-216.411C453.362,-207.257 467.822,-195.755 480.373,-185.772"/>
<polygon fill="black" stroke="black" points="482.648,-188.434 488.295,-179.47 478.29,-182.956 482.648,-188.434"/>
</g>
<!-- n0 -->
<g id="node45" class="node"><title>n0</title>
<a xlink:href="0016879" xlink:title="GO:0016879">
<ellipse fill="#dddddd" stroke="#dddddd" cx="664" cy="-162" rx="61.1934" ry="18"/>
<text text-anchor="middle" x="664" y="-157.8" font-family="Times,serif" font-size="14.00">GO:0016879</text>
</a>
</g>
<!-- o0&#45;&gt;n0 -->
<g id="edge42" class="edge"><title>o0&#45;&gt;n0</title>
<path fill="none" stroke="black" d="M606.774,-216.411C616.394,-207.432 628.436,-196.193 638.989,-186.344"/>
<polygon fill="black" stroke="black" points="641.431,-188.852 646.354,-179.47 636.655,-183.734 641.431,-188.852"/>
</g>
<!-- z0 -->
<g id="node41" class="node"><title>z0</title>
<a xlink:href="0004871" xlink:title="GO:0004871 (1)">
<ellipse fill="#e98576" stroke="#e98576" cx="3663" cy="-234" rx="75.2018" ry="18"/>
<text text-anchor="middle" x="3663" y="-229.8" font-family="Times,serif" font-size="14.00">GO:0004871 (1)</text>
</a>
</g>
<!-- y0 -->
<g id="node43" class="node"><title>y0</title>
<a xlink:href="0004872" xlink:title="GO:0004872 (1)">
<ellipse fill="#e98576" stroke="#e98576" cx="3663" cy="-162" rx="75.2018" ry="18"/>
<text text-anchor="middle" x="3663" y="-157.8" font-family="Times,serif" font-size="14.00">GO:0004872 (1)</text>
</a>
</g>
<!-- z0&#45;&gt;y0 -->
<g id="edge40" class="edge"><title>z0&#45;&gt;y0</title>
<path fill="none" stroke="black" d="M3663,-215.697C3663,-207.983 3663,-198.712 3663,-190.112"/>
<polygon fill="black" stroke="black" points="3666.5,-190.104 3663,-180.104 3659.5,-190.104 3666.5,-190.104"/>
</g>
<!-- m0 -->
<g id="node46" class="node"><title>m0</title>
<a xlink:href="0016881" xlink:title="GO:0016881">
<ellipse fill="#dddddd" stroke="#dddddd" cx="664" cy="-90" rx="61.1934" ry="18"/>
<text text-anchor="middle" x="664" y="-85.8" font-family="Times,serif" font-size="14.00">GO:0016881</text>
</a>
</g>
<!-- n0&#45;&gt;m0 -->
<g id="edge58" class="edge"><title>n0&#45;&gt;m0</title>
<path fill="none" stroke="black" d="M664,-143.697C664,-135.983 664,-126.712 664,-118.112"/>
<polygon fill="black" stroke="black" points="667.5,-118.104 664,-108.104 660.5,-118.104 667.5,-118.104"/>
</g>
<!-- l0 -->
<g id="node48" class="node"><title>l0</title>
<a xlink:href="0019787" xlink:title="GO:0019787 (5)">
<ellipse fill="#e98576" stroke="#e98576" cx="664" cy="-18" rx="75.2018" ry="18"/>
<text text-anchor="middle" x="664" y="-13.8" font-family="Times,serif" font-size="14.00">GO:0019787 (5)</text>
</a>
</g>
<!-- m0&#45;&gt;l0 -->
<g id="edge44" class="edge"><title>m0&#45;&gt;l0</title>
<path fill="none" stroke="black" d="M664,-71.6966C664,-63.9827 664,-54.7125 664,-46.1124"/>
<polygon fill="black" stroke="black" points="667.5,-46.1043 664,-36.1043 660.5,-46.1044 667.5,-46.1043"/>
</g>
<!-- a1&#45;&gt;z0 -->
<g id="edge54" class="edge"><title>a1&#45;&gt;z0</title>
<path fill="none" stroke="black" d="M2996.7,-293.303C3005.68,-291.25 3015.1,-289.344 3024,-288 3268.41,-251.087 3333.97,-284.59 3579,-252 3585.74,-251.104 3592.75,-249.986 3599.72,-248.754"/>
<polygon fill="black" stroke="black" points="3600.66,-252.139 3609.86,-246.881 3599.39,-245.255 3600.66,-252.139"/>
</g>
</g>
</svg>
