<?xml version="1.0" encoding="UTF-8" standalone="no"?>
<!DOCTYPE svg PUBLIC "-//W3C//DTD SVG 1.1//EN"
 "http://www.w3.org/Graphics/SVG/1.1/DTD/svg11.dtd">
<!-- Generated by graphviz version 2.28.0 (20110622.2320)
 -->
<!-- Title: G Pages: 1 -->
<svg width="1382pt" height="260pt"
 viewBox="0.00 0.00 1382.00 260.00" xmlns="http://www.w3.org/2000/svg" xmlns:xlink="http://www.w3.org/1999/xlink">
<g id="graph1" class="graph" transform="scale(1 1) rotate(0) translate(4 256)">
<title>G</title>
<polygon fill="white" stroke="white" points="-4,5 -4,-256 1379,-256 1379,5 -4,5"/>
<!-- c0 -->
<g id="node1" class="node"><title>c0</title>
<a xlink:href="0003674" xlink:title="GO:0003674 (10)">
<ellipse fill="#e98576" stroke="#e98576" cx="602" cy="-234" rx="79.4447" ry="18"/>
<text text-anchor="middle" x="602" y="-229.8" font-family="Times,serif" font-size="14.00">GO:0003674 (10)</text>
</a>
</g>
<!-- m0 -->
<g id="node3" class="node"><title>m0</title>
<a xlink:href="0005215" xlink:title="GO:0005215 (4)">
<ellipse fill="#e98576" stroke="#e98576" cx="281" cy="-162" rx="75.2018" ry="18"/>
<text text-anchor="middle" x="281" y="-157.8" font-family="Times,serif" font-size="14.00">GO:0005215 (4)</text>
</a>
</g>
<!-- c0&#45;&gt;m0 -->
<g id="edge2" class="edge"><title>c0&#45;&gt;m0</title>
<path fill="none" stroke="black" d="M546.818,-220.967C490.645,-208.717 403.656,-189.747 344.616,-176.873"/>
<polygon fill="black" stroke="black" points="345.177,-173.413 334.661,-174.702 343.686,-180.252 345.177,-173.413"/>
</g>
<!-- b0 -->
<g id="node4" class="node"><title>b0</title>
<a xlink:href="0005488" xlink:title="GO:0005488">
<ellipse fill="#dddddd" stroke="#dddddd" cx="436" cy="-162" rx="61.1934" ry="18"/>
<text text-anchor="middle" x="436" y="-157.8" font-family="Times,serif" font-size="14.00">GO:0005488</text>
</a>
</g>
<!-- c0&#45;&gt;b0 -->
<g id="edge20" class="edge"><title>c0&#45;&gt;b0</title>
<path fill="none" stroke="black" d="M565.98,-217.811C540.306,-206.984 505.688,-192.386 478.634,-180.978"/>
<polygon fill="black" stroke="black" points="479.981,-177.748 469.407,-177.087 477.261,-184.198 479.981,-177.748"/>
</g>
<!-- p0 -->
<g id="node8" class="node"><title>p0</title>
<a xlink:href="0030234" xlink:title="GO:0030234 (1)">
<ellipse fill="#e98576" stroke="#e98576" cx="602" cy="-162" rx="75.2018" ry="18"/>
<text text-anchor="middle" x="602" y="-157.8" font-family="Times,serif" font-size="14.00">GO:0030234 (1)</text>
</a>
</g>
<!-- c0&#45;&gt;p0 -->
<g id="edge6" class="edge"><title>c0&#45;&gt;p0</title>
<path fill="none" stroke="black" d="M602,-215.697C602,-207.983 602,-198.712 602,-190.112"/>
<polygon fill="black" stroke="black" points="605.5,-190.104 602,-180.104 598.5,-190.104 605.5,-190.104"/>
</g>
<!-- f0 -->
<g id="node9" class="node"><title>f0</title>
<a xlink:href="0003824" xlink:title="GO:0003824 (1)">
<ellipse fill="#e98576" stroke="#e98576" cx="860" cy="-162" rx="75.2018" ry="18"/>
<text text-anchor="middle" x="860" y="-157.8" font-family="Times,serif" font-size="14.00">GO:0003824 (1)</text>
</a>
</g>
<!-- c0&#45;&gt;f0 -->
<g id="edge12" class="edge"><title>c0&#45;&gt;f0</title>
<path fill="none" stroke="black" d="M650.831,-219.751C693.975,-208.045 756.941,-190.962 802.507,-178.599"/>
<polygon fill="black" stroke="black" points="803.507,-181.954 812.241,-175.958 801.674,-175.199 803.507,-181.954"/>
</g>
<!-- k0 -->
<g id="node26" class="node"><title>k0</title>
<a xlink:href="0060089" xlink:title="GO:0060089">
<ellipse fill="#dddddd" stroke="#dddddd" cx="1197" cy="-162" rx="61.1934" ry="18"/>
<text text-anchor="middle" x="1197" y="-157.8" font-family="Times,serif" font-size="14.00">GO:0060089</text>
</a>
</g>
<!-- c0&#45;&gt;k0 -->
<g id="edge28" class="edge"><title>c0&#45;&gt;k0</title>
<path fill="none" stroke="black" d="M670.835,-224.902C786.345,-211.312 1017.67,-184.098 1131.15,-170.747"/>
<polygon fill="black" stroke="black" points="1131.57,-174.222 1141.09,-169.577 1130.75,-167.27 1131.57,-174.222"/>
</g>
<!-- a0 -->
<g id="node6" class="node"><title>a0</title>
<a xlink:href="0043167" xlink:title="GO:0043167 (37)">
<ellipse fill="#e98576" stroke="#e98576" cx="79" cy="-90" rx="79.4447" ry="18"/>
<text text-anchor="middle" x="79" y="-85.8" font-family="Times,serif" font-size="14.00">GO:0043167 (37)</text>
</a>
</g>
<!-- b0&#45;&gt;a0 -->
<g id="edge4" class="edge"><title>b0&#45;&gt;a0</title>
<path fill="none" stroke="black" d="M390.631,-149.75C382.132,-147.752 373.309,-145.753 365,-144 277.911,-125.631 255.491,-124.35 168,-108 161.351,-106.757 154.424,-105.453 147.501,-104.142"/>
<polygon fill="black" stroke="black" points="147.871,-100.649 137.394,-102.223 146.565,-107.527 147.871,-100.649"/>
</g>
<!-- h0 -->
<g id="node19" class="node"><title>h0</title>
<a xlink:href="0005515" xlink:title="GO:0005515 (12)">
<ellipse fill="#e98576" stroke="#e98576" cx="257" cy="-90" rx="79.4447" ry="18"/>
<text text-anchor="middle" x="257" y="-85.8" font-family="Times,serif" font-size="14.00">GO:0005515 (12)</text>
</a>
</g>
<!-- b0&#45;&gt;h0 -->
<g id="edge16" class="edge"><title>b0&#45;&gt;h0</title>
<path fill="none" stroke="black" d="M400.635,-147.17C373.146,-136.42 334.743,-121.402 304.562,-109.6"/>
<polygon fill="black" stroke="black" points="305.664,-106.273 295.076,-105.89 303.114,-112.792 305.664,-106.273"/>
</g>
<!-- l0 -->
<g id="node21" class="node"><title>l0</title>
<a xlink:href="0003676" xlink:title="GO:0003676 (8)">
<ellipse fill="#e98576" stroke="#e98576" cx="430" cy="-90" rx="75.2018" ry="18"/>
<text text-anchor="middle" x="430" y="-85.8" font-family="Times,serif" font-size="14.00">GO:0003676 (8)</text>
</a>
</g>
<!-- b0&#45;&gt;l0 -->
<g id="edge18" class="edge"><title>b0&#45;&gt;l0</title>
<path fill="none" stroke="black" d="M434.517,-143.697C433.856,-135.983 433.061,-126.712 432.324,-118.112"/>
<polygon fill="black" stroke="black" points="435.807,-117.769 431.466,-108.104 428.833,-118.367 435.807,-117.769"/>
</g>
<!-- g0 -->
<g id="node25" class="node"><title>g0</title>
<a xlink:href="0046906" xlink:title="GO:0046906 (37)">
<ellipse fill="#e98576" stroke="#e98576" cx="603" cy="-90" rx="79.4447" ry="18"/>
<text text-anchor="middle" x="603" y="-85.8" font-family="Times,serif" font-size="14.00">GO:0046906 (37)</text>
</a>
</g>
<!-- b0&#45;&gt;g0 -->
<g id="edge24" class="edge"><title>b0&#45;&gt;g0</title>
<path fill="none" stroke="black" d="M469.795,-146.834C495.031,-136.257 529.79,-121.687 557.474,-110.083"/>
<polygon fill="black" stroke="black" points="559.074,-113.207 566.943,-106.114 556.368,-106.751 559.074,-113.207"/>
</g>
<!-- n0 -->
<g id="node11" class="node"><title>n0</title>
<a xlink:href="0016853" xlink:title="GO:0016853 (1)">
<ellipse fill="#e98576" stroke="#e98576" cx="776" cy="-90" rx="75.2018" ry="18"/>
<text text-anchor="middle" x="776" y="-85.8" font-family="Times,serif" font-size="14.00">GO:0016853 (1)</text>
</a>
</g>
<!-- f0&#45;&gt;n0 -->
<g id="edge8" class="edge"><title>f0&#45;&gt;n0</title>
<path fill="none" stroke="black" d="M840.093,-144.411C829.214,-135.345 815.569,-123.974 803.669,-114.057"/>
<polygon fill="black" stroke="black" points="805.687,-111.183 795.764,-107.47 801.206,-116.561 805.687,-111.183"/>
</g>
<!-- o0 -->
<g id="node13" class="node"><title>o0</title>
<a xlink:href="0016787" xlink:title="GO:0016787 (1)">
<ellipse fill="#e98576" stroke="#e98576" cx="944" cy="-90" rx="75.2018" ry="18"/>
<text text-anchor="middle" x="944" y="-85.8" font-family="Times,serif" font-size="14.00">GO:0016787 (1)</text>
</a>
</g>
<!-- f0&#45;&gt;o0 -->
<g id="edge10" class="edge"><title>f0&#45;&gt;o0</title>
<path fill="none" stroke="black" d="M879.907,-144.411C890.786,-135.345 904.431,-123.974 916.331,-114.057"/>
<polygon fill="black" stroke="black" points="918.794,-116.561 924.236,-107.47 914.313,-111.183 918.794,-116.561"/>
</g>
<!-- e0 -->
<g id="node15" class="node"><title>e0</title>
<a xlink:href="0016491" xlink:title="GO:0016491 (14)">
<ellipse fill="#e98576" stroke="#e98576" cx="1117" cy="-90" rx="79.4447" ry="18"/>
<text text-anchor="middle" x="1117" y="-85.8" font-family="Times,serif" font-size="14.00">GO:0016491 (14)</text>
</a>
</g>
<!-- f0&#45;&gt;e0 -->
<g id="edge22" class="edge"><title>f0&#45;&gt;e0</title>
<path fill="none" stroke="black" d="M907.737,-147.998C950.337,-136.394 1012.85,-119.367 1058.46,-106.946"/>
<polygon fill="black" stroke="black" points="1059.48,-110.295 1068.21,-104.29 1057.64,-103.541 1059.48,-110.295"/>
</g>
<!-- d0 -->
<g id="node17" class="node"><title>d0</title>
<a xlink:href="0009055" xlink:title="GO:0009055 (37)">
<ellipse fill="#e98576" stroke="#e98576" cx="1028" cy="-18" rx="79.4447" ry="18"/>
<text text-anchor="middle" x="1028" y="-13.8" font-family="Times,serif" font-size="14.00">GO:0009055 (37)</text>
</a>
</g>
<!-- e0&#45;&gt;d0 -->
<g id="edge14" class="edge"><title>e0&#45;&gt;d0</title>
<path fill="none" stroke="black" d="M1095.91,-72.411C1084.27,-63.2575 1069.65,-51.7553 1056.95,-41.7715"/>
<polygon fill="black" stroke="black" points="1058.96,-38.9011 1048.94,-35.4699 1054.64,-44.4031 1058.96,-38.9011"/>
</g>
<!-- i0 -->
<g id="node31" class="node"><title>i0</title>
<a xlink:href="0004497" xlink:title="GO:0004497 (10)">
<ellipse fill="#e98576" stroke="#e98576" cx="1206" cy="-18" rx="79.4447" ry="18"/>
<text text-anchor="middle" x="1206" y="-13.8" font-family="Times,serif" font-size="14.00">GO:0004497 (10)</text>
</a>
</g>
<!-- e0&#45;&gt;i0 -->
<g id="edge30" class="edge"><title>e0&#45;&gt;i0</title>
<path fill="none" stroke="black" d="M1138.09,-72.411C1149.73,-63.2575 1164.35,-51.7553 1177.05,-41.7715"/>
<polygon fill="black" stroke="black" points="1179.36,-44.4031 1185.06,-35.4699 1175.04,-38.9011 1179.36,-44.4031"/>
</g>
<!-- j0 -->
<g id="node28" class="node"><title>j0</title>
<a xlink:href="0004871" xlink:title="GO:0004871 (10)">
<ellipse fill="#e98576" stroke="#e98576" cx="1295" cy="-90" rx="79.4447" ry="18"/>
<text text-anchor="middle" x="1295" y="-85.8" font-family="Times,serif" font-size="14.00">GO:0004871 (10)</text>
</a>
</g>
<!-- k0&#45;&gt;j0 -->
<g id="edge26" class="edge"><title>k0&#45;&gt;j0</title>
<path fill="none" stroke="black" d="M1219.24,-145.116C1232.46,-135.674 1249.42,-123.556 1263.95,-113.181"/>
<polygon fill="black" stroke="black" points="1266.07,-115.967 1272.17,-107.307 1262,-110.271 1266.07,-115.967"/>
</g>
</g>
</svg>
