<?xml version="1.0" encoding="UTF-8" standalone="no"?>
<!DOCTYPE svg PUBLIC "-//W3C//DTD SVG 1.1//EN"
 "http://www.w3.org/Graphics/SVG/1.1/DTD/svg11.dtd">
<!-- Generated by graphviz version 2.28.0 (20110622.2320)
 -->
<!-- Title: G Pages: 1 -->
<svg width="1334pt" height="260pt"
 viewBox="0.00 0.00 1334.00 260.00" xmlns="http://www.w3.org/2000/svg" xmlns:xlink="http://www.w3.org/1999/xlink">
<g id="graph1" class="graph" transform="scale(1 1) rotate(0) translate(4 256)">
<title>G</title>
<polygon fill="white" stroke="white" points="-4,5 -4,-256 1331,-256 1331,5 -4,5"/>
<!-- c0 -->
<g id="node1" class="node"><title>c0</title>
<a xlink:href="0003674" xlink:title="GO:0003674">
<ellipse fill="#dddddd" stroke="#dddddd" cx="824" cy="-234" rx="61.1934" ry="18"/>
<text text-anchor="middle" x="824" y="-229.8" font-family="Times,serif" font-size="14.00">GO:0003674</text>
</a>
</g>
<!-- g0 -->
<g id="node3" class="node"><title>g0</title>
<a xlink:href="0005215" xlink:title="GO:0005215 (4)">
<ellipse fill="#e98576" stroke="#e98576" cx="508" cy="-162" rx="75.2018" ry="18"/>
<text text-anchor="middle" x="508" y="-157.8" font-family="Times,serif" font-size="14.00">GO:0005215 (4)</text>
</a>
</g>
<!-- c0&#45;&gt;g0 -->
<g id="edge2" class="edge"><title>c0&#45;&gt;g0</title>
<path fill="none" stroke="black" d="M776.692,-222.52C721.973,-210.399 631.66,-190.393 571.023,-176.961"/>
<polygon fill="black" stroke="black" points="571.703,-173.527 561.183,-174.781 570.189,-180.361 571.703,-173.527"/>
</g>
<!-- b0 -->
<g id="node4" class="node"><title>b0</title>
<a xlink:href="0005488" xlink:title="GO:0005488">
<ellipse fill="#dddddd" stroke="#dddddd" cx="663" cy="-162" rx="61.1934" ry="18"/>
<text text-anchor="middle" x="663" y="-157.8" font-family="Times,serif" font-size="14.00">GO:0005488</text>
</a>
</g>
<!-- c0&#45;&gt;b0 -->
<g id="edge18" class="edge"><title>c0&#45;&gt;b0</title>
<path fill="none" stroke="black" d="M791.031,-218.666C766.286,-207.907 732.207,-193.09 705.429,-181.448"/>
<polygon fill="black" stroke="black" points="706.491,-178.093 695.925,-177.315 703.7,-184.512 706.491,-178.093"/>
</g>
<!-- e0 -->
<g id="node7" class="node"><title>e0</title>
<a xlink:href="0003824" xlink:title="GO:0003824">
<ellipse fill="#dddddd" stroke="#dddddd" cx="985" cy="-162" rx="61.1934" ry="18"/>
<text text-anchor="middle" x="985" y="-157.8" font-family="Times,serif" font-size="14.00">GO:0003824</text>
</a>
</g>
<!-- c0&#45;&gt;e0 -->
<g id="edge8" class="edge"><title>c0&#45;&gt;e0</title>
<path fill="none" stroke="black" d="M856.969,-218.666C881.714,-207.907 915.793,-193.09 942.571,-181.448"/>
<polygon fill="black" stroke="black" points="944.3,-184.512 952.075,-177.315 941.509,-178.093 944.3,-184.512"/>
</g>
<!-- l0 -->
<g id="node23" class="node"><title>l0</title>
<a xlink:href="0005198" xlink:title="GO:0005198 (1)">
<ellipse fill="#e98576" stroke="#e98576" cx="1140" cy="-162" rx="75.2018" ry="18"/>
<text text-anchor="middle" x="1140" y="-157.8" font-family="Times,serif" font-size="14.00">GO:0005198 (1)</text>
</a>
</g>
<!-- c0&#45;&gt;l0 -->
<g id="edge22" class="edge"><title>c0&#45;&gt;l0</title>
<path fill="none" stroke="black" d="M871.308,-222.52C926.027,-210.399 1016.34,-190.393 1076.98,-176.961"/>
<polygon fill="black" stroke="black" points="1077.81,-180.361 1086.82,-174.781 1076.3,-173.527 1077.81,-180.361"/>
</g>
<!-- a0 -->
<g id="node6" class="node"><title>a0</title>
<a xlink:href="0043167" xlink:title="GO:0043167 (6)">
<ellipse fill="#e98576" stroke="#e98576" cx="75" cy="-90" rx="75.2018" ry="18"/>
<text text-anchor="middle" x="75" y="-85.8" font-family="Times,serif" font-size="14.00">GO:0043167 (6)</text>
</a>
</g>
<!-- b0&#45;&gt;a0 -->
<g id="edge4" class="edge"><title>b0&#45;&gt;a0</title>
<path fill="none" stroke="black" d="M618.896,-149.343C610.039,-147.312 600.76,-145.405 592,-144 401.327,-113.429 350.183,-135.199 159,-108 152.27,-107.043 145.267,-105.885 138.302,-104.63"/>
<polygon fill="black" stroke="black" points="138.635,-101.132 128.162,-102.733 137.348,-108.013 138.635,-101.132"/>
</g>
<!-- m0 -->
<g id="node12" class="node"><title>m0</title>
<a xlink:href="0005515" xlink:title="GO:0005515 (1)">
<ellipse fill="#e98576" stroke="#e98576" cx="243" cy="-90" rx="75.2018" ry="18"/>
<text text-anchor="middle" x="243" y="-85.8" font-family="Times,serif" font-size="14.00">GO:0005515 (1)</text>
</a>
</g>
<!-- b0&#45;&gt;m0 -->
<g id="edge10" class="edge"><title>b0&#45;&gt;m0</title>
<path fill="none" stroke="black" d="M618.454,-149.615C609.717,-147.585 600.596,-145.609 592,-144 475.169,-122.134 444.199,-127.799 327,-108 320.494,-106.901 313.722,-105.673 306.971,-104.393"/>
<polygon fill="black" stroke="black" points="307.61,-100.952 297.128,-102.49 306.282,-107.824 307.61,-100.952"/>
</g>
<!-- i0 -->
<g id="node16" class="node"><title>i0</title>
<a xlink:href="0001882" xlink:title="GO:0001882 (3)">
<ellipse fill="#e98576" stroke="#e98576" cx="411" cy="-90" rx="75.2018" ry="18"/>
<text text-anchor="middle" x="411" y="-85.8" font-family="Times,serif" font-size="14.00">GO:0001882 (3)</text>
</a>
</g>
<!-- b0&#45;&gt;i0 -->
<g id="edge14" class="edge"><title>b0&#45;&gt;i0</title>
<path fill="none" stroke="black" d="M619.966,-149.046C578.057,-137.405 514.105,-119.64 467.988,-106.83"/>
<polygon fill="black" stroke="black" points="468.713,-103.399 458.141,-104.095 466.839,-110.143 468.713,-103.399"/>
</g>
<!-- f0 -->
<g id="node18" class="node"><title>f0</title>
<a xlink:href="0003676" xlink:title="GO:0003676 (5)">
<ellipse fill="#e98576" stroke="#e98576" cx="579" cy="-90" rx="75.2018" ry="18"/>
<text text-anchor="middle" x="579" y="-85.8" font-family="Times,serif" font-size="14.00">GO:0003676 (5)</text>
</a>
</g>
<!-- b0&#45;&gt;f0 -->
<g id="edge16" class="edge"><title>b0&#45;&gt;f0</title>
<path fill="none" stroke="black" d="M643.518,-144.765C632.57,-135.642 618.725,-124.105 606.67,-114.059"/>
<polygon fill="black" stroke="black" points="608.591,-111.103 598.668,-107.39 604.109,-116.48 608.591,-111.103"/>
</g>
<!-- h0 -->
<g id="node21" class="node"><title>h0</title>
<a xlink:href="0000166" xlink:title="GO:0000166 (4)">
<ellipse fill="#e98576" stroke="#e98576" cx="747" cy="-90" rx="75.2018" ry="18"/>
<text text-anchor="middle" x="747" y="-85.8" font-family="Times,serif" font-size="14.00">GO:0000166 (4)</text>
</a>
</g>
<!-- b0&#45;&gt;h0 -->
<g id="edge20" class="edge"><title>b0&#45;&gt;h0</title>
<path fill="none" stroke="black" d="M682.482,-144.765C693.43,-135.642 707.275,-124.105 719.33,-114.059"/>
<polygon fill="black" stroke="black" points="721.891,-116.48 727.332,-107.39 717.409,-111.103 721.891,-116.48"/>
</g>
<!-- n0 -->
<g id="node27" class="node"><title>n0</title>
<a xlink:href="0048037" xlink:title="GO:0048037 (1)">
<ellipse fill="#e98576" stroke="#e98576" cx="915" cy="-90" rx="75.2018" ry="18"/>
<text text-anchor="middle" x="915" y="-85.8" font-family="Times,serif" font-size="14.00">GO:0048037 (1)</text>
</a>
</g>
<!-- b0&#45;&gt;n0 -->
<g id="edge26" class="edge"><title>b0&#45;&gt;n0</title>
<path fill="none" stroke="black" d="M706.034,-149.046C747.943,-137.405 811.895,-119.64 858.012,-106.83"/>
<polygon fill="black" stroke="black" points="859.161,-110.143 867.859,-104.095 857.287,-103.399 859.161,-110.143"/>
</g>
<!-- d0 -->
<g id="node9" class="node"><title>d0</title>
<a xlink:href="0016787" xlink:title="GO:0016787 (6)">
<ellipse fill="#e98576" stroke="#e98576" cx="1083" cy="-90" rx="75.2018" ry="18"/>
<text text-anchor="middle" x="1083" y="-85.8" font-family="Times,serif" font-size="14.00">GO:0016787 (6)</text>
</a>
</g>
<!-- e0&#45;&gt;d0 -->
<g id="edge6" class="edge"><title>e0&#45;&gt;d0</title>
<path fill="none" stroke="black" d="M1007.24,-145.116C1020.46,-135.674 1037.42,-123.556 1051.95,-113.181"/>
<polygon fill="black" stroke="black" points="1054.07,-115.967 1060.17,-107.307 1050,-110.271 1054.07,-115.967"/>
</g>
<!-- j0 -->
<g id="node14" class="node"><title>j0</title>
<a xlink:href="0016740" xlink:title="GO:0016740 (2)">
<ellipse fill="#e98576" stroke="#e98576" cx="1251" cy="-90" rx="75.2018" ry="18"/>
<text text-anchor="middle" x="1251" y="-85.8" font-family="Times,serif" font-size="14.00">GO:0016740 (2)</text>
</a>
</g>
<!-- e0&#45;&gt;j0 -->
<g id="edge12" class="edge"><title>e0&#45;&gt;j0</title>
<path fill="none" stroke="black" d="M1028.92,-149.441C1073.65,-137.67 1143.26,-119.353 1192.61,-106.367"/>
<polygon fill="black" stroke="black" points="1193.72,-109.693 1202.5,-103.763 1191.94,-102.923 1193.72,-109.693"/>
</g>
<!-- k0 -->
<g id="node25" class="node"><title>k0</title>
<a xlink:href="0008233" xlink:title="GO:0008233 (2)">
<ellipse fill="#e98576" stroke="#e98576" cx="1083" cy="-18" rx="75.2018" ry="18"/>
<text text-anchor="middle" x="1083" y="-13.8" font-family="Times,serif" font-size="14.00">GO:0008233 (2)</text>
</a>
</g>
<!-- d0&#45;&gt;k0 -->
<g id="edge24" class="edge"><title>d0&#45;&gt;k0</title>
<path fill="none" stroke="black" d="M1083,-71.6966C1083,-63.9827 1083,-54.7125 1083,-46.1124"/>
<polygon fill="black" stroke="black" points="1086.5,-46.1043 1083,-36.1043 1079.5,-46.1044 1086.5,-46.1043"/>
</g>
</g>
</svg>
