<?xml version="1.0" encoding="UTF-8" standalone="no"?>
<!DOCTYPE svg PUBLIC "-//W3C//DTD SVG 1.1//EN"
 "http://www.w3.org/Graphics/SVG/1.1/DTD/svg11.dtd">
<!-- Generated by graphviz version 2.28.0 (20110622.2320)
 -->
<!-- Title: G Pages: 1 -->
<svg width="158pt" height="188pt"
 viewBox="0.00 0.00 158.00 188.00" xmlns="http://www.w3.org/2000/svg" xmlns:xlink="http://www.w3.org/1999/xlink">
<g id="graph1" class="graph" transform="scale(1 1) rotate(0) translate(4 184)">
<title>G</title>
<polygon fill="white" stroke="white" points="-4,5 -4,-184 155,-184 155,5 -4,5"/>
<!-- c0 -->
<g id="node1" class="node"><title>c0</title>
<a xlink:href="0003674" xlink:title="GO:0003674">
<ellipse fill="#dddddd" stroke="#dddddd" cx="75" cy="-162" rx="61.1934" ry="18"/>
<text text-anchor="middle" x="75" y="-157.8" font-family="Times,serif" font-size="14.00">GO:0003674</text>
</a>
</g>
<!-- b0 -->
<g id="node3" class="node"><title>b0</title>
<a xlink:href="0003824" xlink:title="GO:0003824">
<ellipse fill="#dddddd" stroke="#dddddd" cx="75" cy="-90" rx="61.1934" ry="18"/>
<text text-anchor="middle" x="75" y="-85.8" font-family="Times,serif" font-size="14.00">GO:0003824</text>
</a>
</g>
<!-- c0&#45;&gt;b0 -->
<g id="edge2" class="edge"><title>c0&#45;&gt;b0</title>
<path fill="none" stroke="black" d="M75,-143.697C75,-135.983 75,-126.712 75,-118.112"/>
<polygon fill="black" stroke="black" points="78.5001,-118.104 75,-108.104 71.5001,-118.104 78.5001,-118.104"/>
</g>
<!-- a0 -->
<g id="node5" class="node"><title>a0</title>
<a xlink:href="0016740" xlink:title="GO:0016740 (2)">
<ellipse fill="#e98576" stroke="#e98576" cx="75" cy="-18" rx="75.2018" ry="18"/>
<text text-anchor="middle" x="75" y="-13.8" font-family="Times,serif" font-size="14.00">GO:0016740 (2)</text>
</a>
</g>
<!-- b0&#45;&gt;a0 -->
<g id="edge4" class="edge"><title>b0&#45;&gt;a0</title>
<path fill="none" stroke="black" d="M75,-71.6966C75,-63.9827 75,-54.7125 75,-46.1124"/>
<polygon fill="black" stroke="black" points="78.5001,-46.1043 75,-36.1043 71.5001,-46.1044 78.5001,-46.1043"/>
</g>
</g>
</svg>
