<?xml version="1.0" encoding="UTF-8" standalone="no"?>
<!DOCTYPE svg PUBLIC "-//W3C//DTD SVG 1.1//EN"
 "http://www.w3.org/Graphics/SVG/1.1/DTD/svg11.dtd">
<!-- Generated by graphviz version 2.28.0 (20110622.2320)
 -->
<!-- Title: G Pages: 1 -->
<svg width="1284pt" height="476pt"
 viewBox="0.00 0.00 1284.00 476.00" xmlns="http://www.w3.org/2000/svg" xmlns:xlink="http://www.w3.org/1999/xlink">
<g id="graph1" class="graph" transform="scale(1 1) rotate(0) translate(4 472)">
<title>G</title>
<polygon fill="white" stroke="white" points="-4,5 -4,-472 1281,-472 1281,5 -4,5"/>
<!-- o0 -->
<g id="node1" class="node"><title>o0</title>
<a xlink:href="0043170" xlink:title="GO:0043170">
<ellipse fill="#dddddd" stroke="#dddddd" cx="202" cy="-306" rx="61.1934" ry="18"/>
<text text-anchor="middle" x="202" y="-301.8" font-family="Times,serif" font-size="14.00">GO:0043170</text>
</a>
</g>
<!-- z0 -->
<g id="node3" class="node"><title>z0</title>
<a xlink:href="0019538" xlink:title="GO:0019538">
<ellipse fill="#dddddd" stroke="#dddddd" cx="202" cy="-234" rx="61.1934" ry="18"/>
<text text-anchor="middle" x="202" y="-229.8" font-family="Times,serif" font-size="14.00">GO:0019538</text>
</a>
</g>
<!-- o0&#45;&gt;z0 -->
<g id="edge2" class="edge"><title>o0&#45;&gt;z0</title>
<path fill="none" stroke="black" d="M202,-287.697C202,-279.983 202,-270.712 202,-262.112"/>
<polygon fill="black" stroke="black" points="205.5,-262.104 202,-252.104 198.5,-262.104 205.5,-262.104"/>
</g>
<!-- n0 -->
<g id="node9" class="node"><title>n0</title>
<a xlink:href="0043283" xlink:title="GO:0043283">
<ellipse fill="#dddddd" stroke="#dddddd" cx="61" cy="-234" rx="61.1934" ry="18"/>
<text text-anchor="middle" x="61" y="-229.8" font-family="Times,serif" font-size="14.00">GO:0043283</text>
</a>
</g>
<!-- o0&#45;&gt;n0 -->
<g id="edge48" class="edge"><title>o0&#45;&gt;n0</title>
<path fill="none" stroke="black" d="M172.098,-290.155C151.067,-279.714 122.725,-265.644 99.9311,-254.328"/>
<polygon fill="black" stroke="black" points="101.373,-251.136 90.8594,-249.824 98.26,-257.405 101.373,-251.136"/>
</g>
<!-- a1 -->
<g id="node37" class="node"><title>a1</title>
<a xlink:href="0044260" xlink:title="GO:0044260">
<ellipse fill="#dddddd" stroke="#dddddd" cx="343" cy="-234" rx="61.1934" ry="18"/>
<text text-anchor="middle" x="343" y="-229.8" font-family="Times,serif" font-size="14.00">GO:0044260</text>
</a>
</g>
<!-- o0&#45;&gt;a1 -->
<g id="edge34" class="edge"><title>o0&#45;&gt;a1</title>
<path fill="none" stroke="black" d="M231.902,-290.155C252.933,-279.714 281.275,-265.644 304.069,-254.328"/>
<polygon fill="black" stroke="black" points="305.74,-257.405 313.141,-249.824 302.627,-251.136 305.74,-257.405"/>
</g>
<!-- y0 -->
<g id="node41" class="node"><title>y0</title>
<a xlink:href="0044267" xlink:title="GO:0044267">
<ellipse fill="#dddddd" stroke="#dddddd" cx="202" cy="-162" rx="61.1934" ry="18"/>
<text text-anchor="middle" x="202" y="-157.8" font-family="Times,serif" font-size="14.00">GO:0044267</text>
</a>
</g>
<!-- z0&#45;&gt;y0 -->
<g id="edge64" class="edge"><title>z0&#45;&gt;y0</title>
<path fill="none" stroke="black" d="M202,-215.697C202,-207.983 202,-198.712 202,-190.112"/>
<polygon fill="black" stroke="black" points="205.5,-190.104 202,-180.104 198.5,-190.104 205.5,-190.104"/>
</g>
<!-- k0 -->
<g id="node4" class="node"><title>k0</title>
<a xlink:href="0044238" xlink:title="GO:0044238">
<ellipse fill="#dddddd" stroke="#dddddd" cx="343" cy="-306" rx="61.1934" ry="18"/>
<text text-anchor="middle" x="343" y="-301.8" font-family="Times,serif" font-size="14.00">GO:0044238</text>
</a>
</g>
<!-- k0&#45;&gt;z0 -->
<g id="edge4" class="edge"><title>k0&#45;&gt;z0</title>
<path fill="none" stroke="black" d="M313.098,-290.155C292.067,-279.714 263.725,-265.644 240.931,-254.328"/>
<polygon fill="black" stroke="black" points="242.373,-251.136 231.859,-249.824 239.26,-257.405 242.373,-251.136"/>
</g>
<!-- g0 -->
<g id="node6" class="node"><title>g0</title>
<a xlink:href="0006139" xlink:title="GO:0006139">
<ellipse fill="#dddddd" stroke="#dddddd" cx="484" cy="-234" rx="61.1934" ry="18"/>
<text text-anchor="middle" x="484" y="-229.8" font-family="Times,serif" font-size="14.00">GO:0006139</text>
</a>
</g>
<!-- k0&#45;&gt;g0 -->
<g id="edge44" class="edge"><title>k0&#45;&gt;g0</title>
<path fill="none" stroke="black" d="M372.902,-290.155C393.933,-279.714 422.275,-265.644 445.069,-254.328"/>
<polygon fill="black" stroke="black" points="446.74,-257.405 454.141,-249.824 443.627,-251.136 446.74,-257.405"/>
</g>
<!-- m0 -->
<g id="node8" class="node"><title>m0</title>
<a xlink:href="0016070" xlink:title="GO:0016070">
<ellipse fill="#dddddd" stroke="#dddddd" cx="343" cy="-162" rx="61.1934" ry="18"/>
<text text-anchor="middle" x="343" y="-157.8" font-family="Times,serif" font-size="14.00">GO:0016070</text>
</a>
</g>
<!-- g0&#45;&gt;m0 -->
<g id="edge6" class="edge"><title>g0&#45;&gt;m0</title>
<path fill="none" stroke="black" d="M454.098,-218.155C433.067,-207.714 404.725,-193.644 381.931,-182.328"/>
<polygon fill="black" stroke="black" points="383.373,-179.136 372.859,-177.824 380.26,-185.405 383.373,-179.136"/>
</g>
<!-- f0 -->
<g id="node31" class="node"><title>f0</title>
<a xlink:href="0006350" xlink:title="GO:0006350">
<ellipse fill="#dddddd" stroke="#dddddd" cx="484" cy="-90" rx="61.1934" ry="18"/>
<text text-anchor="middle" x="484" y="-85.8" font-family="Times,serif" font-size="14.00">GO:0006350</text>
</a>
</g>
<!-- g0&#45;&gt;f0 -->
<g id="edge60" class="edge"><title>g0&#45;&gt;f0</title>
<path fill="none" stroke="black" d="M484,-215.871C484,-191.67 484,-147.211 484,-118.393"/>
<polygon fill="black" stroke="black" points="487.5,-118.189 484,-108.189 480.5,-118.189 487.5,-118.189"/>
</g>
<!-- l0 -->
<g id="node34" class="node"><title>l0</title>
<a xlink:href="0032774" xlink:title="GO:0032774">
<ellipse fill="#dddddd" stroke="#dddddd" cx="343" cy="-90" rx="61.1934" ry="18"/>
<text text-anchor="middle" x="343" y="-85.8" font-family="Times,serif" font-size="14.00">GO:0032774</text>
</a>
</g>
<!-- m0&#45;&gt;l0 -->
<g id="edge54" class="edge"><title>m0&#45;&gt;l0</title>
<path fill="none" stroke="black" d="M343,-143.697C343,-135.983 343,-126.712 343,-118.112"/>
<polygon fill="black" stroke="black" points="346.5,-118.104 343,-108.104 339.5,-118.104 346.5,-118.104"/>
</g>
<!-- n0&#45;&gt;m0 -->
<g id="edge8" class="edge"><title>n0&#45;&gt;m0</title>
<path fill="none" stroke="black" d="M106.308,-221.753C155.746,-209.481 234.902,-189.833 287.898,-176.678"/>
<polygon fill="black" stroke="black" points="288.942,-180.025 297.804,-174.219 287.256,-173.231 288.942,-180.025"/>
</g>
<!-- x0 -->
<g id="node30" class="node"><title>x0</title>
<a xlink:href="0043412" xlink:title="GO:0043412">
<ellipse fill="#dddddd" stroke="#dddddd" cx="61" cy="-162" rx="61.1934" ry="18"/>
<text text-anchor="middle" x="61" y="-157.8" font-family="Times,serif" font-size="14.00">GO:0043412</text>
</a>
</g>
<!-- n0&#45;&gt;x0 -->
<g id="edge28" class="edge"><title>n0&#45;&gt;x0</title>
<path fill="none" stroke="black" d="M61,-215.697C61,-207.983 61,-198.712 61,-190.112"/>
<polygon fill="black" stroke="black" points="64.5001,-190.104 61,-180.104 57.5001,-190.104 64.5001,-190.104"/>
</g>
<!-- d0 -->
<g id="node11" class="node"><title>d0</title>
<a xlink:href="0008150" xlink:title="GO:0008150">
<ellipse fill="#dddddd" stroke="#dddddd" cx="755" cy="-450" rx="61.1934" ry="18"/>
<text text-anchor="middle" x="755" y="-445.8" font-family="Times,serif" font-size="14.00">GO:0008150</text>
</a>
</g>
<!-- v0 -->
<g id="node13" class="node"><title>v0</title>
<a xlink:href="0051179" xlink:title="GO:0051179">
<ellipse fill="#dddddd" stroke="#dddddd" cx="800" cy="-378" rx="61.1934" ry="18"/>
<text text-anchor="middle" x="800" y="-373.8" font-family="Times,serif" font-size="14.00">GO:0051179</text>
</a>
</g>
<!-- d0&#45;&gt;v0 -->
<g id="edge10" class="edge"><title>d0&#45;&gt;v0</title>
<path fill="none" stroke="black" d="M765.893,-432.055C771.255,-423.715 777.827,-413.491 783.767,-404.252"/>
<polygon fill="black" stroke="black" points="786.744,-406.093 789.207,-395.789 780.855,-402.308 786.744,-406.093"/>
</g>
<!-- i0 -->
<g id="node15" class="node"><title>i0</title>
<a xlink:href="0008152" xlink:title="GO:0008152 (1)">
<ellipse fill="#e98576" stroke="#e98576" cx="405" cy="-378" rx="75.2018" ry="18"/>
<text text-anchor="middle" x="405" y="-373.8" font-family="Times,serif" font-size="14.00">GO:0008152 (1)</text>
</a>
</g>
<!-- d0&#45;&gt;i0 -->
<g id="edge12" class="edge"><title>d0&#45;&gt;i0</title>
<path fill="none" stroke="black" d="M705.965,-439.193C644.586,-426.917 539.227,-405.845 470.859,-392.172"/>
<polygon fill="black" stroke="black" points="471.125,-388.656 460.633,-390.127 469.752,-395.52 471.125,-388.656"/>
</g>
<!-- u0 -->
<g id="node17" class="node"><title>u0</title>
<a xlink:href="0051234" xlink:title="GO:0051234">
<ellipse fill="#dddddd" stroke="#dddddd" cx="800" cy="-306" rx="61.1934" ry="18"/>
<text text-anchor="middle" x="800" y="-301.8" font-family="Times,serif" font-size="14.00">GO:0051234</text>
</a>
</g>
<!-- d0&#45;&gt;u0 -->
<g id="edge14" class="edge"><title>d0&#45;&gt;u0</title>
<path fill="none" stroke="black" d="M743.3,-432.246C732.004,-413.831 718.211,-383.713 730,-360 736.662,-346.6 748.508,-335.683 760.584,-327.316"/>
<polygon fill="black" stroke="black" points="762.832,-330.031 769.346,-321.674 759.043,-324.145 762.832,-330.031"/>
</g>
<!-- p0 -->
<g id="node20" class="node"><title>p0</title>
<a xlink:href="0050896" xlink:title="GO:0050896 (2)">
<ellipse fill="#e98576" stroke="#e98576" cx="955" cy="-378" rx="75.2018" ry="18"/>
<text text-anchor="middle" x="955" y="-373.8" font-family="Times,serif" font-size="14.00">GO:0050896 (2)</text>
</a>
</g>
<!-- d0&#45;&gt;p0 -->
<g id="edge18" class="edge"><title>d0&#45;&gt;p0</title>
<path fill="none" stroke="black" d="M793.089,-435.669C824.79,-424.574 870.175,-408.689 904.832,-396.559"/>
<polygon fill="black" stroke="black" points="906.021,-399.851 914.303,-393.244 903.708,-393.244 906.021,-399.851"/>
</g>
<!-- c0 -->
<g id="node22" class="node"><title>c0</title>
<a xlink:href="0065007" xlink:title="GO:0065007">
<ellipse fill="#dddddd" stroke="#dddddd" cx="1110" cy="-378" rx="61.1934" ry="18"/>
<text text-anchor="middle" x="1110" y="-373.8" font-family="Times,serif" font-size="14.00">GO:0065007</text>
</a>
</g>
<!-- d0&#45;&gt;c0 -->
<g id="edge20" class="edge"><title>d0&#45;&gt;c0</title>
<path fill="none" stroke="black" d="M799.969,-437.748C808.587,-435.73 817.555,-433.723 826,-432 920.072,-412.811 944.928,-415.189 1039,-396 1044.28,-394.923 1049.76,-393.736 1055.23,-392.503"/>
<polygon fill="black" stroke="black" points="1056.07,-395.903 1065.03,-390.252 1054.5,-389.081 1056.07,-395.903"/>
</g>
<!-- j0 -->
<g id="node25" class="node"><title>j0</title>
<a xlink:href="0009987" xlink:title="GO:0009987">
<ellipse fill="#dddddd" stroke="#dddddd" cx="622" cy="-378" rx="61.1934" ry="18"/>
<text text-anchor="middle" x="622" y="-373.8" font-family="Times,serif" font-size="14.00">GO:0009987</text>
</a>
</g>
<!-- d0&#45;&gt;j0 -->
<g id="edge50" class="edge"><title>d0&#45;&gt;j0</title>
<path fill="none" stroke="black" d="M726.468,-433.983C706.921,-423.695 680.791,-409.942 659.554,-398.765"/>
<polygon fill="black" stroke="black" points="660.964,-395.552 650.485,-393.992 657.704,-401.747 660.964,-395.552"/>
</g>
<!-- v0&#45;&gt;u0 -->
<g id="edge16" class="edge"><title>v0&#45;&gt;u0</title>
<path fill="none" stroke="black" d="M800,-359.697C800,-351.983 800,-342.712 800,-334.112"/>
<polygon fill="black" stroke="black" points="803.5,-334.104 800,-324.104 796.5,-334.104 803.5,-334.104"/>
</g>
<!-- i0&#45;&gt;o0 -->
<g id="edge62" class="edge"><title>i0&#45;&gt;o0</title>
<path fill="none" stroke="black" d="M363.92,-362.834C331.021,-351.49 284.807,-335.554 250.168,-323.61"/>
<polygon fill="black" stroke="black" points="250.867,-320.148 240.272,-320.197 248.585,-326.766 250.867,-320.148"/>
</g>
<!-- i0&#45;&gt;k0 -->
<g id="edge68" class="edge"><title>i0&#45;&gt;k0</title>
<path fill="none" stroke="black" d="M389.992,-360.055C382.376,-351.457 372.987,-340.857 364.609,-331.397"/>
<polygon fill="black" stroke="black" points="367.121,-328.954 357.87,-323.789 361.881,-333.596 367.121,-328.954"/>
</g>
<!-- h0 -->
<g id="node24" class="node"><title>h0</title>
<a xlink:href="0044237" xlink:title="GO:0044237">
<ellipse fill="#dddddd" stroke="#dddddd" cx="484" cy="-306" rx="61.1934" ry="18"/>
<text text-anchor="middle" x="484" y="-301.8" font-family="Times,serif" font-size="14.00">GO:0044237</text>
</a>
</g>
<!-- i0&#45;&gt;h0 -->
<g id="edge22" class="edge"><title>i0&#45;&gt;h0</title>
<path fill="none" stroke="black" d="M423.722,-360.411C433.929,-351.367 446.724,-340.03 457.896,-330.13"/>
<polygon fill="black" stroke="black" points="460.522,-332.48 465.685,-323.228 455.879,-327.241 460.522,-332.48"/>
</g>
<!-- t0 -->
<g id="node55" class="node"><title>t0</title>
<a xlink:href="0006810" xlink:title="GO:0006810 (1)">
<ellipse fill="#e98576" stroke="#e98576" cx="807" cy="-234" rx="75.2018" ry="18"/>
<text text-anchor="middle" x="807" y="-229.8" font-family="Times,serif" font-size="14.00">GO:0006810 (1)</text>
</a>
</g>
<!-- u0&#45;&gt;t0 -->
<g id="edge58" class="edge"><title>u0&#45;&gt;t0</title>
<path fill="none" stroke="black" d="M801.73,-287.697C802.502,-279.983 803.429,-270.712 804.289,-262.112"/>
<polygon fill="black" stroke="black" points="807.777,-262.403 805.29,-252.104 800.812,-261.706 807.777,-262.403"/>
</g>
<!-- r0 -->
<g id="node28" class="node"><title>r0</title>
<a xlink:href="0065008" xlink:title="GO:0065008 (1)">
<ellipse fill="#e98576" stroke="#e98576" cx="1033" cy="-306" rx="75.2018" ry="18"/>
<text text-anchor="middle" x="1033" y="-301.8" font-family="Times,serif" font-size="14.00">GO:0065008 (1)</text>
</a>
</g>
<!-- c0&#45;&gt;r0 -->
<g id="edge26" class="edge"><title>c0&#45;&gt;r0</title>
<path fill="none" stroke="black" d="M1092.14,-360.765C1082.27,-351.795 1069.84,-340.49 1058.92,-330.564"/>
<polygon fill="black" stroke="black" points="1061.05,-327.77 1051.3,-323.633 1056.34,-332.95 1061.05,-327.77"/>
</g>
<!-- b0 -->
<g id="node46" class="node"><title>b0</title>
<a xlink:href="0050789" xlink:title="GO:0050789 (4)">
<ellipse fill="#e98576" stroke="#e98576" cx="1201" cy="-306" rx="75.2018" ry="18"/>
<text text-anchor="middle" x="1201" y="-301.8" font-family="Times,serif" font-size="14.00">GO:0050789 (4)</text>
</a>
</g>
<!-- c0&#45;&gt;b0 -->
<g id="edge46" class="edge"><title>c0&#45;&gt;b0</title>
<path fill="none" stroke="black" d="M1131.11,-360.765C1143.08,-351.554 1158.25,-339.882 1171.4,-329.769"/>
<polygon fill="black" stroke="black" points="1173.9,-332.261 1179.69,-323.39 1169.63,-326.713 1173.9,-332.261"/>
</g>
<!-- h0&#45;&gt;g0 -->
<g id="edge42" class="edge"><title>h0&#45;&gt;g0</title>
<path fill="none" stroke="black" d="M484,-287.697C484,-279.983 484,-270.712 484,-262.112"/>
<polygon fill="black" stroke="black" points="487.5,-262.104 484,-252.104 480.5,-262.104 487.5,-262.104"/>
</g>
<!-- h0&#45;&gt;a1 -->
<g id="edge36" class="edge"><title>h0&#45;&gt;a1</title>
<path fill="none" stroke="black" d="M454.098,-290.155C433.067,-279.714 404.725,-265.644 381.931,-254.328"/>
<polygon fill="black" stroke="black" points="383.373,-251.136 372.859,-249.824 380.26,-257.405 383.373,-251.136"/>
</g>
<!-- s0 -->
<g id="node50" class="node"><title>s0</title>
<a xlink:href="0006793" xlink:title="GO:0006793 (1)">
<ellipse fill="#e98576" stroke="#e98576" cx="639" cy="-234" rx="75.2018" ry="18"/>
<text text-anchor="middle" x="639" y="-229.8" font-family="Times,serif" font-size="14.00">GO:0006793 (1)</text>
</a>
</g>
<!-- h0&#45;&gt;s0 -->
<g id="edge52" class="edge"><title>h0&#45;&gt;s0</title>
<path fill="none" stroke="black" d="M516.116,-290.496C539.233,-280.056 570.667,-265.86 595.956,-254.439"/>
<polygon fill="black" stroke="black" points="597.643,-257.518 605.317,-250.212 594.762,-251.138 597.643,-257.518"/>
</g>
<!-- j0&#45;&gt;h0 -->
<g id="edge24" class="edge"><title>j0&#45;&gt;h0</title>
<path fill="none" stroke="black" d="M592.734,-362.155C572.242,-351.76 544.658,-337.769 522.401,-326.479"/>
<polygon fill="black" stroke="black" points="523.726,-323.226 513.224,-321.824 520.559,-329.469 523.726,-323.226"/>
</g>
<!-- q0 -->
<g id="node53" class="node"><title>q0</title>
<a xlink:href="0007154" xlink:title="GO:0007154 (1)">
<ellipse fill="#e98576" stroke="#e98576" cx="639" cy="-306" rx="75.2018" ry="18"/>
<text text-anchor="middle" x="639" y="-301.8" font-family="Times,serif" font-size="14.00">GO:0007154 (1)</text>
</a>
</g>
<!-- j0&#45;&gt;q0 -->
<g id="edge56" class="edge"><title>j0&#45;&gt;q0</title>
<path fill="none" stroke="black" d="M626.202,-359.697C628.096,-351.898 630.377,-342.509 632.484,-333.829"/>
<polygon fill="black" stroke="black" points="635.887,-334.648 634.846,-324.104 629.085,-332.996 635.887,-334.648"/>
</g>
<!-- w0 -->
<g id="node40" class="node"><title>w0</title>
<a xlink:href="0006464" xlink:title="GO:0006464 (1)">
<ellipse fill="#e98576" stroke="#e98576" cx="125" cy="-90" rx="75.2018" ry="18"/>
<text text-anchor="middle" x="125" y="-85.8" font-family="Times,serif" font-size="14.00">GO:0006464 (1)</text>
</a>
</g>
<!-- x0&#45;&gt;w0 -->
<g id="edge38" class="edge"><title>x0&#45;&gt;w0</title>
<path fill="none" stroke="black" d="M76.1671,-144.411C84.1005,-135.734 93.9637,-124.946 102.745,-115.342"/>
<polygon fill="black" stroke="black" points="105.333,-117.698 109.497,-107.956 100.166,-112.975 105.333,-117.698"/>
</g>
<!-- e0 -->
<g id="node33" class="node"><title>e0</title>
<a xlink:href="0006351" xlink:title="GO:0006351 (3)">
<ellipse fill="#e98576" stroke="#e98576" cx="413" cy="-18" rx="75.2018" ry="18"/>
<text text-anchor="middle" x="413" y="-13.8" font-family="Times,serif" font-size="14.00">GO:0006351 (3)</text>
</a>
</g>
<!-- f0&#45;&gt;e0 -->
<g id="edge30" class="edge"><title>f0&#45;&gt;e0</title>
<path fill="none" stroke="black" d="M467.174,-72.411C458.286,-63.6479 447.214,-52.7322 437.401,-43.0569"/>
<polygon fill="black" stroke="black" points="439.777,-40.4846 430.198,-35.9562 434.862,-45.4694 439.777,-40.4846"/>
</g>
<!-- l0&#45;&gt;e0 -->
<g id="edge32" class="edge"><title>l0&#45;&gt;e0</title>
<path fill="none" stroke="black" d="M359.589,-72.411C368.352,-63.6479 379.268,-52.7322 388.943,-43.0569"/>
<polygon fill="black" stroke="black" points="391.448,-45.5022 396.044,-35.9562 386.498,-40.5524 391.448,-45.5022"/>
</g>
<!-- a1&#45;&gt;y0 -->
<g id="edge66" class="edge"><title>a1&#45;&gt;y0</title>
<path fill="none" stroke="black" d="M313.098,-218.155C292.067,-207.714 263.725,-193.644 240.931,-182.328"/>
<polygon fill="black" stroke="black" points="242.373,-179.136 231.859,-177.824 239.26,-185.405 242.373,-179.136"/>
</g>
<!-- y0&#45;&gt;w0 -->
<g id="edge40" class="edge"><title>y0&#45;&gt;w0</title>
<path fill="none" stroke="black" d="M184.141,-144.765C174.274,-135.795 161.839,-124.49 150.921,-114.564"/>
<polygon fill="black" stroke="black" points="153.051,-111.77 143.297,-107.633 148.342,-116.95 153.051,-111.77"/>
</g>
<!-- a0 -->
<g id="node61" class="node"><title>a0</title>
<a xlink:href="0055114" xlink:title="GO:0055114 (4)">
<ellipse fill="#e98576" stroke="#e98576" cx="910" cy="-450" rx="75.2018" ry="18"/>
<text text-anchor="middle" x="910" y="-445.8" font-family="Times,serif" font-size="14.00">GO:0055114 (4)</text>
</a>
</g>
</g>
</svg>
