<?xml version="1.0" encoding="UTF-8" standalone="no"?>
<!DOCTYPE svg PUBLIC "-//W3C//DTD SVG 1.1//EN"
 "http://www.w3.org/Graphics/SVG/1.1/DTD/svg11.dtd">
<!-- Generated by graphviz version 2.28.0 (20110622.2320)
 -->
<!-- Title: G Pages: 1 -->
<svg width="2314pt" height="764pt"
 viewBox="0.00 0.00 2314.00 764.00" xmlns="http://www.w3.org/2000/svg" xmlns:xlink="http://www.w3.org/1999/xlink">
<g id="graph1" class="graph" transform="scale(1 1) rotate(0) translate(4 760)">
<title>G</title>
<polygon fill="white" stroke="white" points="-4,5 -4,-760 2311,-760 2311,5 -4,5"/>
<!-- m1 -->
<g id="node1" class="node"><title>m1</title>
<a xlink:href="0043233" xlink:title="GO:0043233">
<ellipse fill="#dddddd" stroke="#dddddd" cx="935" cy="-306" rx="61.1934" ry="18"/>
<text text-anchor="middle" x="935" y="-301.8" font-family="Times,serif" font-size="14.00">GO:0043233</text>
</a>
</g>
<!-- l1 -->
<g id="node3" class="node"><title>l1</title>
<a xlink:href="0031981" xlink:title="GO:0031981">
<ellipse fill="#dddddd" stroke="#dddddd" cx="645" cy="-90" rx="61.1934" ry="18"/>
<text text-anchor="middle" x="645" y="-85.8" font-family="Times,serif" font-size="14.00">GO:0031981</text>
</a>
</g>
<!-- m1&#45;&gt;l1 -->
<g id="edge2" class="edge"><title>m1&#45;&gt;l1</title>
<path fill="none" stroke="black" d="M923.269,-288.1C909.443,-269.007 885.032,-237.764 859,-216 804.453,-170.396 731.16,-131.583 686.049,-109.796"/>
<polygon fill="black" stroke="black" points="687.4,-106.562 676.868,-105.409 684.382,-112.878 687.4,-106.562"/>
</g>
<!-- k1 -->
<g id="node20" class="node"><title>k1</title>
<a xlink:href="0005730" xlink:title="GO:0005730 (1)">
<ellipse fill="#e98576" stroke="#e98576" cx="556" cy="-18" rx="75.2018" ry="18"/>
<text text-anchor="middle" x="556" y="-13.8" font-family="Times,serif" font-size="14.00">GO:0005730 (1)</text>
</a>
</g>
<!-- l1&#45;&gt;k1 -->
<g id="edge16" class="edge"><title>l1&#45;&gt;k1</title>
<path fill="none" stroke="black" d="M624.358,-72.7646C612.648,-63.5543 597.808,-51.8825 584.949,-41.7691"/>
<polygon fill="black" stroke="black" points="586.862,-38.8209 576.838,-35.3898 582.535,-44.323 586.862,-38.8209"/>
</g>
<!-- p1 -->
<g id="node4" class="node"><title>p1</title>
<a xlink:href="0044428" xlink:title="GO:0044428">
<ellipse fill="#dddddd" stroke="#dddddd" cx="601" cy="-162" rx="61.1934" ry="18"/>
<text text-anchor="middle" x="601" y="-157.8" font-family="Times,serif" font-size="14.00">GO:0044428</text>
</a>
</g>
<!-- p1&#45;&gt;l1 -->
<g id="edge4" class="edge"><title>p1&#45;&gt;l1</title>
<path fill="none" stroke="black" d="M611.651,-144.055C616.84,-135.801 623.188,-125.701 628.948,-116.538"/>
<polygon fill="black" stroke="black" points="632.088,-118.118 634.447,-107.789 626.162,-114.393 632.088,-118.118"/>
</g>
<!-- p1&#45;&gt;k1 -->
<g id="edge20" class="edge"><title>p1&#45;&gt;k1</title>
<path fill="none" stroke="black" d="M591.218,-143.798C585.791,-133.647 579.291,-120.397 575,-108 567.992,-87.751 563.077,-63.9782 560.004,-46.0982"/>
<polygon fill="black" stroke="black" points="563.432,-45.3727 558.366,-36.0675 556.523,-46.5008 563.432,-45.3727"/>
</g>
<!-- n0 -->
<g id="node6" class="node"><title>n0</title>
<a xlink:href="0044424" xlink:title="GO:0044424">
<ellipse fill="#dddddd" stroke="#dddddd" cx="742" cy="-450" rx="61.1934" ry="18"/>
<text text-anchor="middle" x="742" y="-445.8" font-family="Times,serif" font-size="14.00">GO:0044424</text>
</a>
</g>
<!-- s0 -->
<g id="node8" class="node"><title>s0</title>
<a xlink:href="0005737" xlink:title="GO:0005737 (5)">
<ellipse fill="#e98576" stroke="#e98576" cx="1051" cy="-378" rx="75.2018" ry="18"/>
<text text-anchor="middle" x="1051" y="-373.8" font-family="Times,serif" font-size="14.00">GO:0005737 (5)</text>
</a>
</g>
<!-- n0&#45;&gt;s0 -->
<g id="edge6" class="edge"><title>n0&#45;&gt;s0</title>
<path fill="none" stroke="black" d="M787.807,-437.919C796.182,-435.925 804.849,-433.883 813,-432 872.107,-418.344 939.62,-403.368 987.606,-392.83"/>
<polygon fill="black" stroke="black" points="988.521,-396.212 997.539,-390.651 987.021,-389.375 988.521,-396.212"/>
</g>
<!-- i1 -->
<g id="node17" class="node"><title>i1</title>
<a xlink:href="0044444" xlink:title="GO:0044444">
<ellipse fill="#dddddd" stroke="#dddddd" cx="794" cy="-306" rx="61.1934" ry="18"/>
<text text-anchor="middle" x="794" y="-301.8" font-family="Times,serif" font-size="14.00">GO:0044444</text>
</a>
</g>
<!-- n0&#45;&gt;i1 -->
<g id="edge34" class="edge"><title>n0&#45;&gt;i1</title>
<path fill="none" stroke="black" d="M748.272,-431.871C757.213,-407.457 773.703,-362.426 784.246,-333.635"/>
<polygon fill="black" stroke="black" points="787.553,-334.783 787.705,-324.189 780.98,-332.376 787.553,-334.783"/>
</g>
<!-- q1 -->
<g id="node45" class="node"><title>q1</title>
<a xlink:href="0044446" xlink:title="GO:0044446">
<ellipse fill="#dddddd" stroke="#dddddd" cx="653" cy="-306" rx="61.1934" ry="18"/>
<text text-anchor="middle" x="653" y="-301.8" font-family="Times,serif" font-size="14.00">GO:0044446</text>
</a>
</g>
<!-- n0&#45;&gt;q1 -->
<g id="edge132" class="edge"><title>n0&#45;&gt;q1</title>
<path fill="none" stroke="black" d="M741.826,-431.94C740.886,-412.982 737.076,-382.13 723,-360 714.757,-347.042 702.161,-336.074 689.914,-327.537"/>
<polygon fill="black" stroke="black" points="691.824,-324.604 681.549,-322.021 687.97,-330.448 691.824,-324.604"/>
</g>
<!-- m0 -->
<g id="node56" class="node"><title>m0</title>
<a xlink:href="0043229" xlink:title="GO:0043229">
<ellipse fill="#dddddd" stroke="#dddddd" cx="512" cy="-378" rx="61.1934" ry="18"/>
<text text-anchor="middle" x="512" y="-373.8" font-family="Times,serif" font-size="14.00">GO:0043229</text>
</a>
</g>
<!-- n0&#45;&gt;m0 -->
<g id="edge74" class="edge"><title>n0&#45;&gt;m0</title>
<path fill="none" stroke="black" d="M701.146,-436.566C662.425,-424.782 604.156,-407.047 562.532,-394.379"/>
<polygon fill="black" stroke="black" points="563.446,-390.999 552.861,-391.436 561.408,-397.696 563.446,-390.999"/>
</g>
<!-- s0&#45;&gt;i1 -->
<g id="edge32" class="edge"><title>s0&#45;&gt;i1</title>
<path fill="none" stroke="black" d="M1003.26,-363.998C958.905,-351.916 892.954,-333.952 846.986,-321.432"/>
<polygon fill="black" stroke="black" points="847.775,-318.019 837.206,-318.768 845.935,-324.773 847.775,-318.019"/>
</g>
<!-- c0 -->
<g id="node9" class="node"><title>c0</title>
<a xlink:href="0005575" xlink:title="GO:0005575">
<ellipse fill="#dddddd" stroke="#dddddd" cx="1596" cy="-738" rx="61.1934" ry="18"/>
<text text-anchor="middle" x="1596" y="-733.8" font-family="Times,serif" font-size="14.00">GO:0005575</text>
</a>
</g>
<!-- o1 -->
<g id="node11" class="node"><title>o1</title>
<a xlink:href="0044422" xlink:title="GO:0044422">
<ellipse fill="#dddddd" stroke="#dddddd" cx="653" cy="-378" rx="61.1934" ry="18"/>
<text text-anchor="middle" x="653" y="-373.8" font-family="Times,serif" font-size="14.00">GO:0044422</text>
</a>
</g>
<!-- c0&#45;&gt;o1 -->
<g id="edge8" class="edge"><title>c0&#45;&gt;o1</title>
<path fill="none" stroke="black" d="M1535.65,-734.889C1318.4,-726.498 589,-691.168 589,-595 589,-595 589,-595 589,-521 589,-476.835 615.05,-431.226 633.91,-403.991"/>
<polygon fill="black" stroke="black" points="636.781,-405.993 639.739,-395.82 631.083,-401.928 636.781,-405.993"/>
</g>
<!-- b0 -->
<g id="node12" class="node"><title>b0</title>
<a xlink:href="0043226" xlink:title="GO:0043226 (1)">
<ellipse fill="#e98576" stroke="#e98576" cx="486" cy="-450" rx="75.2018" ry="18"/>
<text text-anchor="middle" x="486" y="-445.8" font-family="Times,serif" font-size="14.00">GO:0043226 (1)</text>
</a>
</g>
<!-- c0&#45;&gt;b0 -->
<g id="edge70" class="edge"><title>c0&#45;&gt;b0</title>
<path fill="none" stroke="black" d="M1535.21,-735.665C1321.29,-730.732 613.957,-712.338 575,-684 507.795,-635.114 491.335,-528.575 487.305,-478.301"/>
<polygon fill="black" stroke="black" points="490.787,-477.922 486.604,-468.188 483.804,-478.406 490.787,-477.922"/>
</g>
<!-- h0 -->
<g id="node25" class="node"><title>h0</title>
<a xlink:href="0005623" xlink:title="GO:0005623">
<ellipse fill="#dddddd" stroke="#dddddd" cx="1357" cy="-666" rx="61.1934" ry="18"/>
<text text-anchor="middle" x="1357" y="-661.8" font-family="Times,serif" font-size="14.00">GO:0005623</text>
</a>
</g>
<!-- c0&#45;&gt;h0 -->
<g id="edge22" class="edge"><title>c0&#45;&gt;h0</title>
<path fill="none" stroke="black" d="M1554.1,-724.727C1513.61,-712.868 1452.18,-694.877 1408.68,-682.135"/>
<polygon fill="black" stroke="black" points="1409.44,-678.711 1398.86,-679.259 1407.47,-685.429 1409.44,-678.711"/>
</g>
<!-- g0 -->
<g id="node30" class="node"><title>g0</title>
<a xlink:href="0044464" xlink:title="GO:0044464">
<ellipse fill="#dddddd" stroke="#dddddd" cx="1206" cy="-594" rx="61.1934" ry="18"/>
<text text-anchor="middle" x="1206" y="-589.8" font-family="Times,serif" font-size="14.00">GO:0044464</text>
</a>
</g>
<!-- c0&#45;&gt;g0 -->
<g id="edge96" class="edge"><title>c0&#45;&gt;g0</title>
<path fill="none" stroke="black" d="M1538.61,-731.652C1461.53,-723.712 1329.37,-707.208 1287,-684 1259.42,-668.894 1236.28,-640.789 1221.88,-620.191"/>
<polygon fill="black" stroke="black" points="1224.76,-618.204 1216.26,-611.882 1218.96,-622.126 1224.76,-618.204"/>
</g>
<!-- e0 -->
<g id="node33" class="node"><title>e0</title>
<a xlink:href="0005576" xlink:title="GO:0005576 (5)">
<ellipse fill="#e98576" stroke="#e98576" cx="1788" cy="-666" rx="75.2018" ry="18"/>
<text text-anchor="middle" x="1788" y="-661.8" font-family="Times,serif" font-size="14.00">GO:0005576 (5)</text>
</a>
</g>
<!-- c0&#45;&gt;e0 -->
<g id="edge30" class="edge"><title>c0&#45;&gt;e0</title>
<path fill="none" stroke="black" d="M1633.02,-723.503C1663.17,-712.511 1705.99,-696.898 1738.99,-684.869"/>
<polygon fill="black" stroke="black" points="1740.25,-688.133 1748.45,-681.419 1737.86,-681.556 1740.25,-688.133"/>
</g>
<!-- v0 -->
<g id="node36" class="node"><title>v0</title>
<a xlink:href="0031012" xlink:title="GO:0031012 (2)">
<ellipse fill="#e98576" stroke="#e98576" cx="2111" cy="-594" rx="75.2018" ry="18"/>
<text text-anchor="middle" x="2111" y="-589.8" font-family="Times,serif" font-size="14.00">GO:0031012 (2)</text>
</a>
</g>
<!-- c0&#45;&gt;v0 -->
<g id="edge68" class="edge"><title>c0&#45;&gt;v0</title>
<path fill="none" stroke="black" d="M1655.85,-733.822C1755.53,-727.797 1950.78,-712.675 2013,-684 2044.88,-669.308 2073.6,-640.469 2091.59,-619.593"/>
<polygon fill="black" stroke="black" points="2094.42,-621.663 2098.16,-611.752 2089.05,-617.164 2094.42,-621.663"/>
</g>
<!-- d0 -->
<g id="node39" class="node"><title>d0</title>
<a xlink:href="0044421" xlink:title="GO:0044421">
<ellipse fill="#dddddd" stroke="#dddddd" cx="1788" cy="-594" rx="61.1934" ry="18"/>
<text text-anchor="middle" x="1788" y="-589.8" font-family="Times,serif" font-size="14.00">GO:0044421</text>
</a>
</g>
<!-- c0&#45;&gt;d0 -->
<g id="edge122" class="edge"><title>c0&#45;&gt;d0</title>
<path fill="none" stroke="black" d="M1618.24,-721.132C1632.25,-710.904 1650.54,-697.11 1666,-684 1683.75,-668.955 1685.63,-662.275 1704,-648 1719.14,-636.236 1736.97,-624.694 1752.3,-615.4"/>
<polygon fill="black" stroke="black" points="1754.21,-618.336 1761,-610.202 1750.62,-612.327 1754.21,-618.336"/>
</g>
<!-- a1 -->
<g id="node51" class="node"><title>a1</title>
<a xlink:href="0044420" xlink:title="GO:0044420">
<ellipse fill="#dddddd" stroke="#dddddd" cx="2245" cy="-522" rx="61.1934" ry="18"/>
<text text-anchor="middle" x="2245" y="-517.8" font-family="Times,serif" font-size="14.00">GO:0044420</text>
</a>
</g>
<!-- c0&#45;&gt;a1 -->
<g id="edge134" class="edge"><title>c0&#45;&gt;a1</title>
<path fill="none" stroke="black" d="M1657.11,-736.629C1745.91,-734.594 1914.96,-725.056 2052,-684 2120.16,-663.579 2143.55,-661.16 2195,-612 2213.33,-594.483 2226.79,-568.75 2235.1,-549.454"/>
<polygon fill="black" stroke="black" points="2238.41,-550.608 2238.97,-540.028 2231.93,-547.947 2238.41,-550.608"/>
</g>
<!-- g1 -->
<g id="node66" class="node"><title>g1</title>
<a xlink:href="0031975" xlink:title="GO:0031975">
<ellipse fill="#dddddd" stroke="#dddddd" cx="1554" cy="-594" rx="61.1934" ry="18"/>
<text text-anchor="middle" x="1554" y="-589.8" font-family="Times,serif" font-size="14.00">GO:0031975</text>
</a>
</g>
<!-- c0&#45;&gt;g1 -->
<g id="edge64" class="edge"><title>c0&#45;&gt;g1</title>
<path fill="none" stroke="black" d="M1565.35,-722.326C1550.56,-713.47 1534.28,-700.652 1526,-684 1515.82,-663.527 1525.38,-638.573 1536,-620.304"/>
<polygon fill="black" stroke="black" points="1539.07,-622.007 1541.39,-611.67 1533.13,-618.302 1539.07,-622.007"/>
</g>
<!-- n1 -->
<g id="node68" class="node"><title>n1</title>
<a xlink:href="0031974" xlink:title="GO:0031974">
<ellipse fill="#dddddd" stroke="#dddddd" cx="1596" cy="-666" rx="61.1934" ry="18"/>
<text text-anchor="middle" x="1596" y="-661.8" font-family="Times,serif" font-size="14.00">GO:0031974</text>
</a>
</g>
<!-- c0&#45;&gt;n1 -->
<g id="edge66" class="edge"><title>c0&#45;&gt;n1</title>
<path fill="none" stroke="black" d="M1596,-719.697C1596,-711.983 1596,-702.712 1596,-694.112"/>
<polygon fill="black" stroke="black" points="1599.5,-694.104 1596,-684.104 1592.5,-694.104 1599.5,-694.104"/>
</g>
<!-- u0 -->
<g id="node101" class="node"><title>u0</title>
<a xlink:href="0032991" xlink:title="GO:0032991">
<ellipse fill="#dddddd" stroke="#dddddd" cx="1943" cy="-666" rx="61.1934" ry="18"/>
<text text-anchor="middle" x="1943" y="-661.8" font-family="Times,serif" font-size="14.00">GO:0032991</text>
</a>
</g>
<!-- c0&#45;&gt;u0 -->
<g id="edge116" class="edge"><title>c0&#45;&gt;u0</title>
<path fill="none" stroke="black" d="M1647.01,-727.92C1702.51,-717.874 1793.78,-700.866 1872,-684 1877.06,-682.909 1882.31,-681.734 1887.56,-680.529"/>
<polygon fill="black" stroke="black" points="1888.67,-683.865 1897.62,-678.189 1887.09,-677.047 1888.67,-683.865"/>
</g>
<!-- o1&#45;&gt;m1 -->
<g id="edge86" class="edge"><title>o1&#45;&gt;m1</title>
<path fill="none" stroke="black" d="M698.308,-365.753C747.746,-353.481 826.902,-333.833 879.898,-320.678"/>
<polygon fill="black" stroke="black" points="880.942,-324.025 889.804,-318.219 879.256,-317.231 880.942,-324.025"/>
</g>
<!-- o1&#45;&gt;q1 -->
<g id="edge130" class="edge"><title>o1&#45;&gt;q1</title>
<path fill="none" stroke="black" d="M653,-359.697C653,-351.983 653,-342.712 653,-334.112"/>
<polygon fill="black" stroke="black" points="656.5,-334.104 653,-324.104 649.5,-334.104 656.5,-334.104"/>
</g>
<!-- b0&#45;&gt;o1 -->
<g id="edge10" class="edge"><title>b0&#45;&gt;o1</title>
<path fill="none" stroke="black" d="M521.826,-433.983C547.631,-423.167 582.572,-408.521 609.904,-397.064"/>
<polygon fill="black" stroke="black" points="611.357,-400.25 619.226,-393.157 608.651,-393.795 611.357,-400.25"/>
</g>
<!-- i0 -->
<g id="node27" class="node"><title>i0</title>
<a xlink:href="0031982" xlink:title="GO:0031982 (6)">
<ellipse fill="#e98576" stroke="#e98576" cx="216" cy="-378" rx="75.2018" ry="18"/>
<text text-anchor="middle" x="216" y="-373.8" font-family="Times,serif" font-size="14.00">GO:0031982 (6)</text>
</a>
</g>
<!-- b0&#45;&gt;i0 -->
<g id="edge24" class="edge"><title>b0&#45;&gt;i0</title>
<path fill="none" stroke="black" d="M437.105,-436.324C391.468,-424.492 323.3,-406.818 274.732,-394.227"/>
<polygon fill="black" stroke="black" points="275.545,-390.822 264.987,-391.7 273.788,-397.598 275.545,-390.822"/>
</g>
<!-- r0 -->
<g id="node54" class="node"><title>r0</title>
<a xlink:href="0043228" xlink:title="GO:0043228">
<ellipse fill="#dddddd" stroke="#dddddd" cx="61" cy="-378" rx="61.1934" ry="18"/>
<text text-anchor="middle" x="61" y="-373.8" font-family="Times,serif" font-size="14.00">GO:0043228</text>
</a>
</g>
<!-- b0&#45;&gt;r0 -->
<g id="edge120" class="edge"><title>b0&#45;&gt;r0</title>
<path fill="none" stroke="black" d="M420.792,-440.955C349.547,-431.765 232.198,-415.459 132,-396 126.712,-394.973 121.223,-393.819 115.745,-392.607"/>
<polygon fill="black" stroke="black" points="116.471,-389.183 105.944,-390.38 114.92,-396.009 116.471,-389.183"/>
</g>
<!-- b0&#45;&gt;m0 -->
<g id="edge72" class="edge"><title>b0&#45;&gt;m0</title>
<path fill="none" stroke="black" d="M492.294,-432.055C495.22,-424.176 498.771,-414.617 502.048,-405.794"/>
<polygon fill="black" stroke="black" points="505.383,-406.868 505.583,-396.275 498.821,-404.431 505.383,-406.868"/>
</g>
<!-- a0 -->
<g id="node82" class="node"><title>a0</title>
<a xlink:href="0043230" xlink:title="GO:0043230 (6)">
<ellipse fill="#e98576" stroke="#e98576" cx="883" cy="-378" rx="75.2018" ry="18"/>
<text text-anchor="middle" x="883" y="-373.8" font-family="Times,serif" font-size="14.00">GO:0043230 (6)</text>
</a>
</g>
<!-- b0&#45;&gt;a0 -->
<g id="edge88" class="edge"><title>b0&#45;&gt;a0</title>
<path fill="none" stroke="black" d="M544.579,-438.671C616.516,-425.987 738.338,-404.507 814.527,-391.073"/>
<polygon fill="black" stroke="black" points="815.264,-394.497 824.505,-389.314 814.049,-387.604 815.264,-394.497"/>
</g>
<!-- l0 -->
<g id="node91" class="node"><title>l0</title>
<a xlink:href="0043227" xlink:title="GO:0043227">
<ellipse fill="#dddddd" stroke="#dddddd" cx="371" cy="-378" rx="61.1934" ry="18"/>
<text text-anchor="middle" x="371" y="-373.8" font-family="Times,serif" font-size="14.00">GO:0043227</text>
</a>
</g>
<!-- b0&#45;&gt;l0 -->
<g id="edge100" class="edge"><title>b0&#45;&gt;l0</title>
<path fill="none" stroke="black" d="M459.905,-433.116C443.765,-423.292 422.864,-410.569 405.382,-399.928"/>
<polygon fill="black" stroke="black" points="406.958,-396.79 396.596,-394.58 403.318,-402.769 406.958,-396.79"/>
</g>
<!-- k0 -->
<g id="node14" class="node"><title>k0</title>
<a xlink:href="0043231" xlink:title="GO:0043231 (1)">
<ellipse fill="#e98576" stroke="#e98576" cx="498" cy="-306" rx="75.2018" ry="18"/>
<text text-anchor="middle" x="498" y="-301.8" font-family="Times,serif" font-size="14.00">GO:0043231 (1)</text>
</a>
</g>
<!-- h1 -->
<g id="node16" class="node"><title>h1</title>
<a xlink:href="0005739" xlink:title="GO:0005739 (1)">
<ellipse fill="#e98576" stroke="#e98576" cx="775" cy="-234" rx="75.2018" ry="18"/>
<text text-anchor="middle" x="775" y="-229.8" font-family="Times,serif" font-size="14.00">GO:0005739 (1)</text>
</a>
</g>
<!-- k0&#45;&gt;h1 -->
<g id="edge12" class="edge"><title>k0&#45;&gt;h1</title>
<path fill="none" stroke="black" d="M547.842,-292.405C594.863,-280.522 665.403,-262.696 715.383,-250.066"/>
<polygon fill="black" stroke="black" points="716.254,-253.456 725.092,-247.612 714.539,-246.669 716.254,-253.456"/>
</g>
<!-- j0 -->
<g id="node43" class="node"><title>j0</title>
<a xlink:href="0005634" xlink:title="GO:0005634 (5)">
<ellipse fill="#e98576" stroke="#e98576" cx="550" cy="-234" rx="75.2018" ry="18"/>
<text text-anchor="middle" x="550" y="-229.8" font-family="Times,serif" font-size="14.00">GO:0005634 (5)</text>
</a>
</g>
<!-- k0&#45;&gt;j0 -->
<g id="edge126" class="edge"><title>k0&#45;&gt;j0</title>
<path fill="none" stroke="black" d="M510.588,-288.055C516.847,-279.629 524.535,-269.28 531.454,-259.966"/>
<polygon fill="black" stroke="black" points="534.375,-261.904 537.528,-251.789 528.755,-257.729 534.375,-261.904"/>
</g>
<!-- i1&#45;&gt;h1 -->
<g id="edge14" class="edge"><title>i1&#45;&gt;h1</title>
<path fill="none" stroke="black" d="M789.303,-287.697C787.187,-279.898 784.638,-270.509 782.282,-261.829"/>
<polygon fill="black" stroke="black" points="785.64,-260.838 779.643,-252.104 778.884,-262.672 785.64,-260.838"/>
</g>
<!-- q0 -->
<g id="node21" class="node"><title>q0</title>
<a xlink:href="0043232" xlink:title="GO:0043232 (1)">
<ellipse fill="#e98576" stroke="#e98576" cx="214" cy="-306" rx="75.2018" ry="18"/>
<text text-anchor="middle" x="214" y="-301.8" font-family="Times,serif" font-size="14.00">GO:0043232 (1)</text>
</a>
</g>
<!-- q0&#45;&gt;k1 -->
<g id="edge18" class="edge"><title>q0&#45;&gt;k1</title>
<path fill="none" stroke="black" d="M174.777,-290.5C157.812,-282.04 139.659,-269.516 130,-252 122.274,-237.989 121.382,-229.481 130,-216 207.652,-94.5368 381.443,-46.8688 481.399,-29.0096"/>
<polygon fill="black" stroke="black" points="482.173,-32.4278 491.429,-27.2733 480.979,-25.5304 482.173,-32.4278"/>
</g>
<!-- p0 -->
<g id="node74" class="node"><title>p0</title>
<a xlink:href="0005856" xlink:title="GO:0005856 (5)">
<ellipse fill="#e98576" stroke="#e98576" cx="382" cy="-234" rx="75.2018" ry="18"/>
<text text-anchor="middle" x="382" y="-229.8" font-family="Times,serif" font-size="14.00">GO:0005856 (5)</text>
</a>
</g>
<!-- q0&#45;&gt;p0 -->
<g id="edge76" class="edge"><title>q0&#45;&gt;p0</title>
<path fill="none" stroke="black" d="M249.628,-290.155C275.046,-279.564 309.426,-265.239 336.778,-253.842"/>
<polygon fill="black" stroke="black" points="338.249,-257.021 346.134,-249.944 335.557,-250.56 338.249,-257.021"/>
</g>
<!-- r1 -->
<g id="node113" class="node"><title>r1</title>
<a xlink:href="0032421" xlink:title="GO:0032421 (1)">
<ellipse fill="#e98576" stroke="#e98576" cx="214" cy="-234" rx="75.2018" ry="18"/>
<text text-anchor="middle" x="214" y="-229.8" font-family="Times,serif" font-size="14.00">GO:0032421 (1)</text>
</a>
</g>
<!-- q0&#45;&gt;r1 -->
<g id="edge138" class="edge"><title>q0&#45;&gt;r1</title>
<path fill="none" stroke="black" d="M214,-287.697C214,-279.983 214,-270.712 214,-262.112"/>
<polygon fill="black" stroke="black" points="217.5,-262.104 214,-252.104 210.5,-262.104 217.5,-262.104"/>
</g>
<!-- h0&#45;&gt;g0 -->
<g id="edge98" class="edge"><title>h0&#45;&gt;g0</title>
<path fill="none" stroke="black" d="M1325.71,-650.496C1302.73,-639.843 1271.32,-625.279 1246.43,-613.744"/>
<polygon fill="black" stroke="black" points="1247.79,-610.516 1237.25,-609.485 1244.85,-616.867 1247.79,-610.516"/>
</g>
<!-- o0 -->
<g id="node28" class="node"><title>o0</title>
<a xlink:href="0005622" xlink:title="GO:0005622">
<ellipse fill="#dddddd" stroke="#dddddd" cx="678" cy="-522" rx="61.1934" ry="18"/>
<text text-anchor="middle" x="678" y="-517.8" font-family="Times,serif" font-size="14.00">GO:0005622</text>
</a>
</g>
<!-- o0&#45;&gt;n0 -->
<g id="edge26" class="edge"><title>o0&#45;&gt;n0</title>
<path fill="none" stroke="black" d="M693.167,-504.411C701.217,-495.606 711.254,-484.628 720.131,-474.919"/>
<polygon fill="black" stroke="black" points="722.777,-477.212 726.942,-467.47 717.611,-472.489 722.777,-477.212"/>
</g>
<!-- g0&#45;&gt;n0 -->
<g id="edge28" class="edge"><title>g0&#45;&gt;n0</title>
<path fill="none" stroke="black" d="M1144.76,-592.248C1042.41,-589.866 842.284,-580.062 786,-540 765.458,-525.378 754.025,-498.406 747.999,-477.973"/>
<polygon fill="black" stroke="black" points="751.366,-477.015 745.389,-468.267 744.606,-478.833 751.366,-477.015"/>
</g>
<!-- g0&#45;&gt;o0 -->
<g id="edge102" class="edge"><title>g0&#45;&gt;o0</title>
<path fill="none" stroke="black" d="M1147.79,-588.187C1061.29,-580.584 893.871,-564.136 753,-540 746.696,-538.92 740.125,-537.649 733.607,-536.296"/>
<polygon fill="black" stroke="black" points="733.968,-532.794 723.456,-534.118 732.499,-539.638 733.968,-532.794"/>
</g>
<!-- f0 -->
<g id="node42" class="node"><title>f0</title>
<a xlink:href="0016020" xlink:title="GO:0016020 (6)">
<ellipse fill="#e98576" stroke="#e98576" cx="1038" cy="-522" rx="75.2018" ry="18"/>
<text text-anchor="middle" x="1038" y="-517.8" font-family="Times,serif" font-size="14.00">GO:0016020 (6)</text>
</a>
</g>
<!-- g0&#45;&gt;f0 -->
<g id="edge40" class="edge"><title>g0&#45;&gt;f0</title>
<path fill="none" stroke="black" d="M1172,-578.834C1146.44,-568.185 1111.18,-553.49 1083.24,-541.848"/>
<polygon fill="black" stroke="black" points="1084.26,-538.485 1073.69,-537.869 1081.57,-544.946 1084.26,-538.485"/>
</g>
<!-- b1 -->
<g id="node48" class="node"><title>b1</title>
<a xlink:href="0031252" xlink:title="GO:0031252 (1)">
<ellipse fill="#e98576" stroke="#e98576" cx="1206" cy="-522" rx="75.2018" ry="18"/>
<text text-anchor="middle" x="1206" y="-517.8" font-family="Times,serif" font-size="14.00">GO:0031252 (1)</text>
</a>
</g>
<!-- g0&#45;&gt;b1 -->
<g id="edge46" class="edge"><title>g0&#45;&gt;b1</title>
<path fill="none" stroke="black" d="M1206,-575.697C1206,-567.983 1206,-558.712 1206,-550.112"/>
<polygon fill="black" stroke="black" points="1209.5,-550.104 1206,-540.104 1202.5,-550.104 1209.5,-550.104"/>
</g>
<!-- s1 -->
<g id="node59" class="node"><title>s1</title>
<a xlink:href="0009986" xlink:title="GO:0009986 (1)">
<ellipse fill="#e98576" stroke="#e98576" cx="1374" cy="-522" rx="75.2018" ry="18"/>
<text text-anchor="middle" x="1374" y="-517.8" font-family="Times,serif" font-size="14.00">GO:0009986 (1)</text>
</a>
</g>
<!-- g0&#45;&gt;s1 -->
<g id="edge58" class="edge"><title>g0&#45;&gt;s1</title>
<path fill="none" stroke="black" d="M1240,-578.834C1265.56,-568.185 1300.82,-553.49 1328.76,-541.848"/>
<polygon fill="black" stroke="black" points="1330.43,-544.946 1338.31,-537.869 1327.74,-538.485 1330.43,-544.946"/>
</g>
<!-- d1 -->
<g id="node64" class="node"><title>d1</title>
<a xlink:href="0042995" xlink:title="GO:0042995 (1)">
<ellipse fill="#e98576" stroke="#e98576" cx="870" cy="-522" rx="75.2018" ry="18"/>
<text text-anchor="middle" x="870" y="-517.8" font-family="Times,serif" font-size="14.00">GO:0042995 (1)</text>
</a>
</g>
<!-- g0&#45;&gt;d1 -->
<g id="edge62" class="edge"><title>g0&#45;&gt;d1</title>
<path fill="none" stroke="black" d="M1157.5,-582.896C1098.85,-570.677 999.906,-550.064 934.77,-536.494"/>
<polygon fill="black" stroke="black" points="935.122,-532.992 924.618,-534.379 933.694,-539.845 935.122,-532.992"/>
</g>
<!-- f1 -->
<g id="node84" class="node"><title>f1</title>
<a xlink:href="0030312" xlink:title="GO:0030312">
<ellipse fill="#dddddd" stroke="#dddddd" cx="1529" cy="-522" rx="61.1934" ry="18"/>
<text text-anchor="middle" x="1529" y="-517.8" font-family="Times,serif" font-size="14.00">GO:0030312</text>
</a>
</g>
<!-- g0&#45;&gt;f1 -->
<g id="edge118" class="edge"><title>g0&#45;&gt;f1</title>
<path fill="none" stroke="black" d="M1254.87,-583.14C1305.7,-572.786 1387.56,-555.838 1458,-540 1462.97,-538.882 1468.14,-537.695 1473.31,-536.49"/>
<polygon fill="black" stroke="black" points="1474.28,-539.857 1483.21,-534.16 1472.68,-533.043 1474.28,-539.857"/>
</g>
<!-- e0&#45;&gt;d0 -->
<g id="edge124" class="edge"><title>e0&#45;&gt;d0</title>
<path fill="none" stroke="black" d="M1788,-647.697C1788,-639.983 1788,-630.712 1788,-622.112"/>
<polygon fill="black" stroke="black" points="1791.5,-622.104 1788,-612.104 1784.5,-622.104 1791.5,-622.104"/>
</g>
<!-- z0 -->
<g id="node38" class="node"><title>z0</title>
<a xlink:href="0005578" xlink:title="GO:0005578">
<ellipse fill="#dddddd" stroke="#dddddd" cx="2104" cy="-522" rx="61.1934" ry="18"/>
<text text-anchor="middle" x="2104" y="-517.8" font-family="Times,serif" font-size="14.00">GO:0005578</text>
</a>
</g>
<!-- v0&#45;&gt;z0 -->
<g id="edge36" class="edge"><title>v0&#45;&gt;z0</title>
<path fill="none" stroke="black" d="M2109.27,-575.697C2108.5,-567.983 2107.57,-558.712 2106.71,-550.112"/>
<polygon fill="black" stroke="black" points="2110.19,-549.706 2105.71,-540.104 2103.22,-550.403 2110.19,-549.706"/>
</g>
<!-- v0&#45;&gt;a1 -->
<g id="edge136" class="edge"><title>v0&#45;&gt;a1</title>
<path fill="none" stroke="black" d="M2140.74,-577.465C2160.35,-567.22 2186.21,-553.712 2207.27,-542.711"/>
<polygon fill="black" stroke="black" points="2209.02,-545.744 2216.26,-538.011 2205.78,-539.539 2209.02,-545.744"/>
</g>
<!-- y0 -->
<g id="node50" class="node"><title>y0</title>
<a xlink:href="0005604" xlink:title="GO:0005604">
<ellipse fill="#dddddd" stroke="#dddddd" cx="2000" cy="-450" rx="61.1934" ry="18"/>
<text text-anchor="middle" x="2000" y="-445.8" font-family="Times,serif" font-size="14.00">GO:0005604</text>
</a>
</g>
<!-- z0&#45;&gt;y0 -->
<g id="edge48" class="edge"><title>z0&#45;&gt;y0</title>
<path fill="none" stroke="black" d="M2080.66,-505.291C2066.21,-495.564 2047.46,-482.946 2031.68,-472.322"/>
<polygon fill="black" stroke="black" points="2033.51,-469.337 2023.26,-466.657 2029.6,-475.144 2033.51,-469.337"/>
</g>
<!-- d0&#45;&gt;z0 -->
<g id="edge38" class="edge"><title>d0&#45;&gt;z0</title>
<path fill="none" stroke="black" d="M1833.4,-581.908C1841.9,-579.895 1850.71,-577.849 1859,-576 1936.08,-558.804 1955.92,-557.196 2033,-540 2038.05,-538.873 2043.3,-537.673 2048.55,-536.452"/>
<polygon fill="black" stroke="black" points="2049.66,-539.786 2058.6,-534.092 2048.06,-532.971 2049.66,-539.786"/>
</g>
<!-- d0&#45;&gt;y0 -->
<g id="edge52" class="edge"><title>d0&#45;&gt;y0</title>
<path fill="none" stroke="black" d="M1798.87,-576.06C1812.29,-556.343 1836.81,-523.946 1865,-504 1889.33,-486.783 1920.03,-474.156 1946,-465.555"/>
<polygon fill="black" stroke="black" points="1947.24,-468.834 1955.7,-462.455 1945.11,-462.166 1947.24,-468.834"/>
</g>
<!-- x0 -->
<g id="node76" class="node"><title>x0</title>
<a xlink:href="0005605" xlink:title="GO:0005605">
<ellipse fill="#dddddd" stroke="#dddddd" cx="1930" cy="-378" rx="61.1934" ry="18"/>
<text text-anchor="middle" x="1930" y="-373.8" font-family="Times,serif" font-size="14.00">GO:0005605</text>
</a>
</g>
<!-- d0&#45;&gt;x0 -->
<g id="edge82" class="edge"><title>d0&#45;&gt;x0</title>
<path fill="none" stroke="black" d="M1792.88,-575.82C1798.55,-557.299 1808.97,-527.336 1823,-504 1846.38,-465.119 1881.93,-426.373 1905.55,-402.557"/>
<polygon fill="black" stroke="black" points="1908.16,-404.904 1912.77,-395.368 1903.22,-399.943 1908.16,-404.904"/>
</g>
<!-- d0&#45;&gt;a0 -->
<g id="edge90" class="edge"><title>d0&#45;&gt;a0</title>
<path fill="none" stroke="black" d="M1764.64,-577.209C1750.55,-567.227 1732.56,-553.669 1718,-540 1671.82,-496.639 1681.84,-459.966 1625,-432 1493.6,-367.346 1112.26,-414.573 967,-396 960.158,-395.125 953.039,-394.01 945.968,-392.769"/>
<polygon fill="black" stroke="black" points="946.149,-389.244 935.681,-390.876 944.883,-396.128 946.149,-389.244"/>
</g>
<!-- w0 -->
<g id="node94" class="node"><title>w0</title>
<a xlink:href="0043256" xlink:title="GO:0043256 (1)">
<ellipse fill="#e98576" stroke="#e98576" cx="1833" cy="-306" rx="75.2018" ry="18"/>
<text text-anchor="middle" x="1833" y="-301.8" font-family="Times,serif" font-size="14.00">GO:0043256 (1)</text>
</a>
</g>
<!-- d0&#45;&gt;w0 -->
<g id="edge110" class="edge"><title>d0&#45;&gt;w0</title>
<path fill="none" stroke="black" d="M1774.44,-575.972C1767.44,-566.09 1759.63,-553.047 1756,-540 1734.54,-462.932 1718.78,-430.812 1756,-360 1763.18,-346.344 1775.64,-335.522 1788.48,-327.312"/>
<polygon fill="black" stroke="black" points="1790.55,-330.154 1797.36,-322.043 1786.98,-324.134 1790.55,-330.154"/>
</g>
<!-- j0&#45;&gt;p1 -->
<g id="edge42" class="edge"><title>j0&#45;&gt;p1</title>
<path fill="none" stroke="black" d="M562.346,-216.055C568.485,-207.629 576.025,-197.28 582.81,-187.966"/>
<polygon fill="black" stroke="black" points="585.708,-189.932 588.768,-179.789 580.051,-185.81 585.708,-189.932"/>
</g>
<!-- q1&#45;&gt;p1 -->
<g id="edge44" class="edge"><title>q1&#45;&gt;p1</title>
<path fill="none" stroke="black" d="M651.116,-287.752C648.706,-269.433 643.639,-239.881 634,-216 630.146,-206.451 624.608,-196.691 619.166,-188.191"/>
<polygon fill="black" stroke="black" points="622.065,-186.229 613.605,-179.851 616.241,-190.112 622.065,-186.229"/>
</g>
<!-- y0&#45;&gt;x0 -->
<g id="edge78" class="edge"><title>y0&#45;&gt;x0</title>
<path fill="none" stroke="black" d="M1983.41,-432.411C1974.52,-423.519 1963.41,-412.411 1953.63,-402.631"/>
<polygon fill="black" stroke="black" points="1956.02,-400.066 1946.47,-395.47 1951.07,-405.016 1956.02,-400.066"/>
</g>
<!-- a1&#45;&gt;y0 -->
<g id="edge50" class="edge"><title>a1&#45;&gt;y0</title>
<path fill="none" stroke="black" d="M2202.6,-508.887C2160.84,-496.954 2096.96,-478.702 2052.12,-465.89"/>
<polygon fill="black" stroke="black" points="2052.86,-462.464 2042.29,-463.082 2050.94,-469.195 2052.86,-462.464"/>
</g>
<!-- a1&#45;&gt;x0 -->
<g id="edge80" class="edge"><title>a1&#45;&gt;x0</title>
<path fill="none" stroke="black" d="M2217.56,-505.874C2183.48,-487.358 2123.31,-455.564 2070,-432 2039.83,-418.665 2005.17,-405.526 1977.88,-395.666"/>
<polygon fill="black" stroke="black" points="1978.78,-392.269 1968.18,-392.187 1976.41,-398.858 1978.78,-392.269"/>
</g>
<!-- a1&#45;&gt;w0 -->
<g id="edge108" class="edge"><title>a1&#45;&gt;w0</title>
<path fill="none" stroke="black" d="M2223.68,-505.043C2199.08,-486.816 2157.22,-456.365 2120,-432 2067.96,-397.937 2056.69,-385.581 2000,-360 1965.45,-344.411 1924.97,-331.44 1892.51,-322.233"/>
<polygon fill="black" stroke="black" points="1893.29,-318.815 1882.72,-319.498 1891.41,-325.558 1893.29,-318.815"/>
</g>
<!-- r0&#45;&gt;q0 -->
<g id="edge54" class="edge"><title>r0&#45;&gt;q0</title>
<path fill="none" stroke="black" d="M92.7017,-362.496C115.52,-352.056 146.549,-337.86 171.511,-326.439"/>
<polygon fill="black" stroke="black" points="173.114,-329.555 180.751,-322.212 170.202,-323.19 173.114,-329.555"/>
</g>
<!-- m0&#45;&gt;k0 -->
<g id="edge114" class="edge"><title>m0&#45;&gt;k0</title>
<path fill="none" stroke="black" d="M508.539,-359.697C506.997,-351.983 505.142,-342.712 503.422,-334.112"/>
<polygon fill="black" stroke="black" points="506.814,-333.224 501.421,-324.104 499.95,-334.597 506.814,-333.224"/>
</g>
<!-- m0&#45;&gt;q0 -->
<g id="edge56" class="edge"><title>m0&#45;&gt;q0</title>
<path fill="none" stroke="black" d="M466.177,-365.988C457.803,-363.987 449.141,-361.925 441,-360 385.046,-346.769 321.282,-331.9 275.61,-321.286"/>
<polygon fill="black" stroke="black" points="276.392,-317.874 265.86,-319.021 274.808,-324.693 276.392,-317.874"/>
</g>
<!-- m0&#45;&gt;q1 -->
<g id="edge128" class="edge"><title>m0&#45;&gt;q1</title>
<path fill="none" stroke="black" d="M541.902,-362.155C562.933,-351.714 591.275,-337.644 614.069,-326.328"/>
<polygon fill="black" stroke="black" points="615.74,-329.405 623.141,-321.824 612.627,-323.136 615.74,-329.405"/>
</g>
<!-- t0 -->
<g id="node60" class="node"><title>t0</title>
<a xlink:href="0043234" xlink:title="GO:0043234 (3)">
<ellipse fill="#e98576" stroke="#e98576" cx="1943" cy="-594" rx="75.2018" ry="18"/>
<text text-anchor="middle" x="1943" y="-589.8" font-family="Times,serif" font-size="14.00">GO:0043234 (3)</text>
</a>
</g>
<!-- j1 -->
<g id="node62" class="node"><title>j1</title>
<a xlink:href="0019814" xlink:title="GO:0019814 (1)">
<ellipse fill="#e98576" stroke="#e98576" cx="1949" cy="-522" rx="75.2018" ry="18"/>
<text text-anchor="middle" x="1949" y="-517.8" font-family="Times,serif" font-size="14.00">GO:0019814 (1)</text>
</a>
</g>
<!-- t0&#45;&gt;j1 -->
<g id="edge60" class="edge"><title>t0&#45;&gt;j1</title>
<path fill="none" stroke="black" d="M1944.48,-575.697C1945.14,-567.983 1945.94,-558.712 1946.68,-550.112"/>
<polygon fill="black" stroke="black" points="1950.17,-550.367 1947.53,-540.104 1943.19,-549.769 1950.17,-550.367"/>
</g>
<!-- t0&#45;&gt;w0 -->
<g id="edge106" class="edge"><title>t0&#45;&gt;w0</title>
<path fill="none" stroke="black" d="M1908.72,-577.934C1892.85,-569.172 1875.27,-556.556 1865,-540 1824.65,-474.952 1826.24,-380.223 1829.98,-334.167"/>
<polygon fill="black" stroke="black" points="1833.48,-334.346 1830.9,-324.069 1826.5,-333.71 1833.48,-334.346"/>
</g>
<!-- c1 -->
<g id="node116" class="node"><title>c1</title>
<a xlink:href="0005902" xlink:title="GO:0005902 (1)">
<ellipse fill="#e98576" stroke="#e98576" cx="897" cy="-450" rx="75.2018" ry="18"/>
<text text-anchor="middle" x="897" y="-445.8" font-family="Times,serif" font-size="14.00">GO:0005902 (1)</text>
</a>
</g>
<!-- d1&#45;&gt;c1 -->
<g id="edge142" class="edge"><title>d1&#45;&gt;c1</title>
<path fill="none" stroke="black" d="M876.536,-504.055C879.575,-496.176 883.262,-486.617 886.665,-477.794"/>
<polygon fill="black" stroke="black" points="890.003,-478.865 890.337,-468.275 883.472,-476.346 890.003,-478.865"/>
</g>
<!-- e1 -->
<g id="node86" class="node"><title>e1</title>
<a xlink:href="0030313" xlink:title="GO:0030313 (1)">
<ellipse fill="#e98576" stroke="#e98576" cx="1541" cy="-450" rx="75.2018" ry="18"/>
<text text-anchor="middle" x="1541" y="-445.8" font-family="Times,serif" font-size="14.00">GO:0030313 (1)</text>
</a>
</g>
<!-- g1&#45;&gt;e1 -->
<g id="edge94" class="edge"><title>g1&#45;&gt;e1</title>
<path fill="none" stroke="black" d="M1573.44,-576.465C1583.12,-566.924 1593.84,-554.05 1599,-540 1604.52,-524.981 1605.45,-518.641 1599,-504 1593.8,-492.201 1584.53,-481.889 1574.91,-473.575"/>
<polygon fill="black" stroke="black" points="1576.81,-470.612 1566.82,-467.072 1572.42,-476.067 1576.81,-470.612"/>
</g>
<!-- n1&#45;&gt;m1 -->
<g id="edge84" class="edge"><title>n1&#45;&gt;m1</title>
<path fill="none" stroke="black" d="M1617.26,-648.74C1646.09,-624.679 1694,-576.617 1694,-523 1694,-523 1694,-523 1694,-449 1694,-379.069 1189.75,-328.798 1003.26,-312.597"/>
<polygon fill="black" stroke="black" points="1003.56,-309.11 993.297,-311.738 1002.96,-316.084 1003.56,-309.11"/>
</g>
<!-- x0&#45;&gt;w0 -->
<g id="edge104" class="edge"><title>x0&#45;&gt;w0</title>
<path fill="none" stroke="black" d="M1907.99,-361.116C1894.91,-351.674 1878.11,-339.556 1863.74,-329.181"/>
<polygon fill="black" stroke="black" points="1865.75,-326.321 1855.6,-323.307 1861.66,-331.997 1865.75,-326.321"/>
</g>
<!-- f1&#45;&gt;e1 -->
<g id="edge92" class="edge"><title>f1&#45;&gt;e1</title>
<path fill="none" stroke="black" d="M1531.97,-503.697C1533.29,-495.983 1534.88,-486.712 1536.35,-478.112"/>
<polygon fill="black" stroke="black" points="1539.83,-478.552 1538.07,-468.104 1532.93,-477.369 1539.83,-478.552"/>
</g>
<!-- l0&#45;&gt;k0 -->
<g id="edge112" class="edge"><title>l0&#45;&gt;k0</title>
<path fill="none" stroke="black" d="M398.557,-361.811C416.65,-351.838 440.549,-338.666 460.383,-327.734"/>
<polygon fill="black" stroke="black" points="462.106,-330.781 469.174,-322.888 458.727,-324.65 462.106,-330.781"/>
</g>
<!-- u0&#45;&gt;t0 -->
<g id="edge140" class="edge"><title>u0&#45;&gt;t0</title>
<path fill="none" stroke="black" d="M1943,-647.697C1943,-639.983 1943,-630.712 1943,-622.112"/>
<polygon fill="black" stroke="black" points="1946.5,-622.104 1943,-612.104 1939.5,-622.104 1946.5,-622.104"/>
</g>
</g>
</svg>
