<?xml version="1.0" encoding="UTF-8" standalone="no"?>
<!DOCTYPE svg PUBLIC "-//W3C//DTD SVG 1.1//EN"
 "http://www.w3.org/Graphics/SVG/1.1/DTD/svg11.dtd">
<!-- Generated by graphviz version 2.28.0 (20110622.2320)
 -->
<!-- Title: G Pages: 1 -->
<svg width="3578pt" height="404pt"
 viewBox="0.00 0.00 3578.00 404.00" xmlns="http://www.w3.org/2000/svg" xmlns:xlink="http://www.w3.org/1999/xlink">
<g id="graph1" class="graph" transform="scale(1 1) rotate(0) translate(4 400)">
<title>G</title>
<polygon fill="white" stroke="white" points="-4,5 -4,-400 3575,-400 3575,5 -4,5"/>
<!-- c0 -->
<g id="node1" class="node"><title>c0</title>
<a xlink:href="0003674" xlink:title="GO:0003674 (8)">
<ellipse fill="#e98576" stroke="#e98576" cx="2215" cy="-378" rx="75.2018" ry="18"/>
<text text-anchor="middle" x="2215" y="-373.8" font-family="Times,serif" font-size="14.00">GO:0003674 (8)</text>
</a>
</g>
<!-- e1 -->
<g id="node3" class="node"><title>e1</title>
<a xlink:href="0045182" xlink:title="GO:0045182 (1)">
<ellipse fill="#e98576" stroke="#e98576" cx="508" cy="-306" rx="75.2018" ry="18"/>
<text text-anchor="middle" x="508" y="-301.8" font-family="Times,serif" font-size="14.00">GO:0045182 (1)</text>
</a>
</g>
<!-- c0&#45;&gt;e1 -->
<g id="edge2" class="edge"><title>c0&#45;&gt;e1</title>
<path fill="none" stroke="black" d="M2139.94,-376.214C1862.86,-373.053 897.748,-359.678 592,-324 584.888,-323.17 577.481,-322.051 570.142,-320.782"/>
<polygon fill="black" stroke="black" points="570.676,-317.322 560.21,-318.97 569.419,-324.208 570.676,-317.322"/>
</g>
<!-- g0 -->
<g id="node4" class="node"><title>g0</title>
<a xlink:href="0003824" xlink:title="GO:0003824 (7)">
<ellipse fill="#e98576" stroke="#e98576" cx="676" cy="-306" rx="75.2018" ry="18"/>
<text text-anchor="middle" x="676" y="-301.8" font-family="Times,serif" font-size="14.00">GO:0003824 (7)</text>
</a>
</g>
<!-- c0&#45;&gt;g0 -->
<g id="edge44" class="edge"><title>c0&#45;&gt;g0</title>
<path fill="none" stroke="black" d="M2142.06,-373.683C1886.28,-362.049 1030.87,-323.141 759.412,-310.794"/>
<polygon fill="black" stroke="black" points="759.381,-307.289 749.233,-310.331 759.063,-314.282 759.381,-307.289"/>
</g>
<!-- i0 -->
<g id="node8" class="node"><title>i0</title>
<a xlink:href="0030234" xlink:title="GO:0030234 (10)">
<ellipse fill="#e98576" stroke="#e98576" cx="1958" cy="-306" rx="79.4447" ry="18"/>
<text text-anchor="middle" x="1958" y="-301.8" font-family="Times,serif" font-size="14.00">GO:0030234 (10)</text>
</a>
</g>
<!-- c0&#45;&gt;i0 -->
<g id="edge6" class="edge"><title>c0&#45;&gt;i0</title>
<path fill="none" stroke="black" d="M2167.26,-363.998C2124.66,-352.394 2062.15,-335.367 2016.54,-322.946"/>
<polygon fill="black" stroke="black" points="2017.36,-319.541 2006.79,-320.29 2015.52,-326.295 2017.36,-319.541"/>
</g>
<!-- b0 -->
<g id="node9" class="node"><title>b0</title>
<a xlink:href="0005488" xlink:title="GO:0005488 (1)">
<ellipse fill="#e98576" stroke="#e98576" cx="2131" cy="-306" rx="75.2018" ry="18"/>
<text text-anchor="middle" x="2131" y="-301.8" font-family="Times,serif" font-size="14.00">GO:0005488 (1)</text>
</a>
</g>
<!-- c0&#45;&gt;b0 -->
<g id="edge14" class="edge"><title>c0&#45;&gt;b0</title>
<path fill="none" stroke="black" d="M2195.09,-360.411C2184.21,-351.345 2170.57,-339.974 2158.67,-330.057"/>
<polygon fill="black" stroke="black" points="2160.69,-327.183 2150.76,-323.47 2156.21,-332.561 2160.69,-327.183"/>
</g>
<!-- t0 -->
<g id="node21" class="node"><title>t0</title>
<a xlink:href="0005215" xlink:title="GO:0005215 (3)">
<ellipse fill="#e98576" stroke="#e98576" cx="2299" cy="-306" rx="75.2018" ry="18"/>
<text text-anchor="middle" x="2299" y="-301.8" font-family="Times,serif" font-size="14.00">GO:0005215 (3)</text>
</a>
</g>
<!-- c0&#45;&gt;t0 -->
<g id="edge18" class="edge"><title>c0&#45;&gt;t0</title>
<path fill="none" stroke="black" d="M2234.91,-360.411C2245.79,-351.345 2259.43,-339.974 2271.33,-330.057"/>
<polygon fill="black" stroke="black" points="2273.79,-332.561 2279.24,-323.47 2269.31,-327.183 2273.79,-332.561"/>
</g>
<!-- u0 -->
<g id="node34" class="node"><title>u0</title>
<a xlink:href="0005198" xlink:title="GO:0005198 (3)">
<ellipse fill="#e98576" stroke="#e98576" cx="2467" cy="-306" rx="75.2018" ry="18"/>
<text text-anchor="middle" x="2467" y="-301.8" font-family="Times,serif" font-size="14.00">GO:0005198 (3)</text>
</a>
</g>
<!-- c0&#45;&gt;u0 -->
<g id="edge32" class="edge"><title>c0&#45;&gt;u0</title>
<path fill="none" stroke="black" d="M2262.1,-363.916C2303.95,-352.29 2365.24,-335.267 2409.87,-322.868"/>
<polygon fill="black" stroke="black" points="2411,-326.188 2419.7,-320.139 2409.13,-319.443 2411,-326.188"/>
</g>
<!-- p0 -->
<g id="node49" class="node"><title>p0</title>
<a xlink:href="0060089" xlink:title="GO:0060089">
<ellipse fill="#dddddd" stroke="#dddddd" cx="2622" cy="-306" rx="61.1934" ry="18"/>
<text text-anchor="middle" x="2622" y="-301.8" font-family="Times,serif" font-size="14.00">GO:0060089</text>
</a>
</g>
<!-- c0&#45;&gt;p0 -->
<g id="edge68" class="edge"><title>c0&#45;&gt;p0</title>
<path fill="none" stroke="black" d="M2278.74,-368.467C2346.52,-359.038 2456.72,-342.692 2551,-324 2556.28,-322.952 2561.77,-321.784 2567.25,-320.564"/>
<polygon fill="black" stroke="black" points="2568.08,-323.965 2577.05,-318.327 2566.52,-317.14 2568.08,-323.965"/>
</g>
<!-- b1 -->
<g id="node53" class="node"><title>b1</title>
<a xlink:href="0016209" xlink:title="GO:0016209 (2)">
<ellipse fill="#e98576" stroke="#e98576" cx="2777" cy="-306" rx="75.2018" ry="18"/>
<text text-anchor="middle" x="2777" y="-301.8" font-family="Times,serif" font-size="14.00">GO:0016209 (2)</text>
</a>
</g>
<!-- c0&#45;&gt;b1 -->
<g id="edge50" class="edge"><title>c0&#45;&gt;b1</title>
<path fill="none" stroke="black" d="M2284.77,-371.158C2377.92,-362.923 2547.91,-346.37 2692,-324 2698.69,-322.961 2705.66,-321.761 2712.6,-320.49"/>
<polygon fill="black" stroke="black" points="2713.53,-323.877 2722.71,-318.587 2712.24,-316.997 2713.53,-323.877"/>
</g>
<!-- d1 -->
<g id="node6" class="node"><title>d1</title>
<a xlink:href="0016853" xlink:title="GO:0016853 (1)">
<ellipse fill="#e98576" stroke="#e98576" cx="75" cy="-234" rx="75.2018" ry="18"/>
<text text-anchor="middle" x="75" y="-229.8" font-family="Times,serif" font-size="14.00">GO:0016853 (1)</text>
</a>
</g>
<!-- g0&#45;&gt;d1 -->
<g id="edge4" class="edge"><title>g0&#45;&gt;d1</title>
<path fill="none" stroke="black" d="M622.838,-293.267C612.639,-291.293 602.017,-289.425 592,-288 400.817,-260.801 350.183,-279.199 159,-252 152.27,-251.043 145.267,-249.885 138.302,-248.63"/>
<polygon fill="black" stroke="black" points="138.635,-245.132 128.162,-246.733 137.348,-252.013 138.635,-245.132"/>
</g>
<!-- f0 -->
<g id="node17" class="node"><title>f0</title>
<a xlink:href="0016787" xlink:title="GO:0016787 (15)">
<ellipse fill="#e98576" stroke="#e98576" cx="248" cy="-234" rx="79.4447" ry="18"/>
<text text-anchor="middle" x="248" y="-229.8" font-family="Times,serif" font-size="14.00">GO:0016787 (15)</text>
</a>
</g>
<!-- g0&#45;&gt;f0 -->
<g id="edge22" class="edge"><title>g0&#45;&gt;f0</title>
<path fill="none" stroke="black" d="M621.414,-293.463C611.639,-291.537 601.532,-289.636 592,-288 479.192,-268.64 449.912,-270.743 337,-252 330.223,-250.875 323.168,-249.639 316.127,-248.363"/>
<polygon fill="black" stroke="black" points="316.324,-244.84 305.856,-246.473 315.057,-251.725 316.324,-244.84"/>
</g>
<!-- r0 -->
<g id="node28" class="node"><title>r0</title>
<a xlink:href="0016874" xlink:title="GO:0016874 (3)">
<ellipse fill="#e98576" stroke="#e98576" cx="421" cy="-234" rx="75.2018" ry="18"/>
<text text-anchor="middle" x="421" y="-229.8" font-family="Times,serif" font-size="14.00">GO:0016874 (3)</text>
</a>
</g>
<!-- g0&#45;&gt;r0 -->
<g id="edge26" class="edge"><title>g0&#45;&gt;r0</title>
<path fill="none" stroke="black" d="M628.634,-291.998C586.097,-280.321 523.549,-263.151 478.228,-250.71"/>
<polygon fill="black" stroke="black" points="479.114,-247.323 468.544,-248.051 477.261,-254.074 479.114,-247.323"/>
</g>
<!-- k0 -->
<g id="node32" class="node"><title>k0</title>
<a xlink:href="0016491" xlink:title="GO:0016491 (8)">
<ellipse fill="#e98576" stroke="#e98576" cx="589" cy="-234" rx="75.2018" ry="18"/>
<text text-anchor="middle" x="589" y="-229.8" font-family="Times,serif" font-size="14.00">GO:0016491 (8)</text>
</a>
</g>
<!-- g0&#45;&gt;k0 -->
<g id="edge30" class="edge"><title>g0&#45;&gt;k0</title>
<path fill="none" stroke="black" d="M655.382,-288.411C644.006,-279.257 629.71,-267.755 617.302,-257.772"/>
<polygon fill="black" stroke="black" points="619.455,-255.012 609.47,-251.47 615.067,-260.466 619.455,-255.012"/>
</g>
<!-- j0 -->
<g id="node62" class="node"><title>j0</title>
<a xlink:href="0016740" xlink:title="GO:0016740 (10)">
<ellipse fill="#e98576" stroke="#e98576" cx="762" cy="-234" rx="79.4447" ry="18"/>
<text text-anchor="middle" x="762" y="-229.8" font-family="Times,serif" font-size="14.00">GO:0016740 (10)</text>
</a>
</g>
<!-- g0&#45;&gt;j0 -->
<g id="edge60" class="edge"><title>g0&#45;&gt;j0</title>
<path fill="none" stroke="black" d="M696.381,-288.411C707.519,-279.345 721.489,-267.974 733.673,-258.057"/>
<polygon fill="black" stroke="black" points="736.219,-260.497 741.765,-251.47 731.8,-255.068 736.219,-260.497"/>
</g>
<!-- w0 -->
<g id="node68" class="node"><title>w0</title>
<a xlink:href="0016829" xlink:title="GO:0016829 (2)">
<ellipse fill="#e98576" stroke="#e98576" cx="935" cy="-234" rx="75.2018" ry="18"/>
<text text-anchor="middle" x="935" y="-229.8" font-family="Times,serif" font-size="14.00">GO:0016829 (2)</text>
</a>
</g>
<!-- g0&#45;&gt;w0 -->
<g id="edge66" class="edge"><title>g0&#45;&gt;w0</title>
<path fill="none" stroke="black" d="M723.806,-292.079C767.11,-280.376 831.011,-263.105 877.174,-250.629"/>
<polygon fill="black" stroke="black" points="878.294,-253.952 887.034,-247.964 876.467,-247.194 878.294,-253.952"/>
</g>
<!-- i1 -->
<g id="node11" class="node"><title>i1</title>
<a xlink:href="0019825" xlink:title="GO:0019825 (1)">
<ellipse fill="#e98576" stroke="#e98576" cx="1103" cy="-234" rx="75.2018" ry="18"/>
<text text-anchor="middle" x="1103" y="-229.8" font-family="Times,serif" font-size="14.00">GO:0019825 (1)</text>
</a>
</g>
<!-- b0&#45;&gt;i1 -->
<g id="edge8" class="edge"><title>b0&#45;&gt;i1</title>
<path fill="none" stroke="black" d="M2078.15,-293.109C2067.55,-291.098 2056.46,-289.257 2046,-288 1666.62,-242.393 1566.33,-298.041 1187,-252 1180.15,-251.169 1173.03,-250.081 1165.96,-248.857"/>
<polygon fill="black" stroke="black" points="1166.13,-245.332 1155.67,-246.981 1164.88,-252.218 1166.13,-245.332"/>
</g>
<!-- a0 -->
<g id="node13" class="node"><title>a0</title>
<a xlink:href="0005515" xlink:title="GO:0005515 (61)">
<ellipse fill="#e98576" stroke="#e98576" cx="1276" cy="-234" rx="79.4447" ry="18"/>
<text text-anchor="middle" x="1276" y="-229.8" font-family="Times,serif" font-size="14.00">GO:0005515 (61)</text>
</a>
</g>
<!-- b0&#45;&gt;a0 -->
<g id="edge10" class="edge"><title>b0&#45;&gt;a0</title>
<path fill="none" stroke="black" d="M2078.14,-293.2C2067.54,-291.181 2056.45,-289.314 2046,-288 1745.28,-250.181 1665.88,-288.517 1365,-252 1357.42,-251.08 1349.52,-249.899 1341.69,-248.588"/>
<polygon fill="black" stroke="black" points="1342.29,-245.14 1331.84,-246.867 1341.09,-252.035 1342.29,-245.14"/>
</g>
<!-- v0 -->
<g id="node15" class="node"><title>v0</title>
<a xlink:href="0043021" xlink:title="GO:0043021 (2)">
<ellipse fill="#e98576" stroke="#e98576" cx="1449" cy="-234" rx="75.2018" ry="18"/>
<text text-anchor="middle" x="1449" y="-229.8" font-family="Times,serif" font-size="14.00">GO:0043021 (2)</text>
</a>
</g>
<!-- b0&#45;&gt;v0 -->
<g id="edge12" class="edge"><title>b0&#45;&gt;v0</title>
<path fill="none" stroke="black" d="M2077.67,-293.255C2067.21,-291.258 2056.29,-289.384 2046,-288 1819.48,-257.526 1759.49,-282.733 1533,-252 1526.26,-251.086 1519.26,-249.957 1512.29,-248.718"/>
<polygon fill="black" stroke="black" points="1512.62,-245.219 1502.15,-246.838 1511.34,-252.102 1512.62,-245.219"/>
</g>
<!-- d0 -->
<g id="node23" class="node"><title>d0</title>
<a xlink:href="0043167" xlink:title="GO:0043167 (28)">
<ellipse fill="#e98576" stroke="#e98576" cx="1622" cy="-234" rx="79.4447" ry="18"/>
<text text-anchor="middle" x="1622" y="-229.8" font-family="Times,serif" font-size="14.00">GO:0043167 (28)</text>
</a>
</g>
<!-- b0&#45;&gt;d0 -->
<g id="edge20" class="edge"><title>b0&#45;&gt;d0</title>
<path fill="none" stroke="black" d="M2076.72,-293.384C2066.54,-291.422 2055.97,-289.529 2046,-288 1897.99,-265.293 1859.11,-274.066 1711,-252 1703.94,-250.948 1696.59,-249.735 1689.27,-248.451"/>
<polygon fill="black" stroke="black" points="1689.8,-244.99 1679.33,-246.665 1688.56,-251.88 1689.8,-244.99"/>
</g>
<!-- c1 -->
<g id="node26" class="node"><title>c1</title>
<a xlink:href="0030246" xlink:title="GO:0030246 (2)">
<ellipse fill="#e98576" stroke="#e98576" cx="1795" cy="-234" rx="75.2018" ry="18"/>
<text text-anchor="middle" x="1795" y="-229.8" font-family="Times,serif" font-size="14.00">GO:0030246 (2)</text>
</a>
</g>
<!-- b0&#45;&gt;c1 -->
<g id="edge24" class="edge"><title>b0&#45;&gt;c1</title>
<path fill="none" stroke="black" d="M2076.27,-293.597C2016.96,-281.242 1922.4,-261.541 1859.52,-248.441"/>
<polygon fill="black" stroke="black" points="1860.21,-245.011 1849.71,-246.398 1858.78,-251.864 1860.21,-245.011"/>
</g>
<!-- l0 -->
<g id="node30" class="node"><title>l0</title>
<a xlink:href="0003676" xlink:title="GO:0003676 (7)">
<ellipse fill="#e98576" stroke="#e98576" cx="1963" cy="-234" rx="75.2018" ry="18"/>
<text text-anchor="middle" x="1963" y="-229.8" font-family="Times,serif" font-size="14.00">GO:0003676 (7)</text>
</a>
</g>
<!-- b0&#45;&gt;l0 -->
<g id="edge28" class="edge"><title>b0&#45;&gt;l0</title>
<path fill="none" stroke="black" d="M2095.37,-290.155C2069.95,-279.564 2035.57,-265.239 2008.22,-253.842"/>
<polygon fill="black" stroke="black" points="2009.44,-250.56 1998.87,-249.944 2006.75,-257.021 2009.44,-250.56"/>
</g>
<!-- h1 -->
<g id="node36" class="node"><title>h1</title>
<a xlink:href="0003682" xlink:title="GO:0003682 (1)">
<ellipse fill="#e98576" stroke="#e98576" cx="2131" cy="-234" rx="75.2018" ry="18"/>
<text text-anchor="middle" x="2131" y="-229.8" font-family="Times,serif" font-size="14.00">GO:0003682 (1)</text>
</a>
</g>
<!-- b0&#45;&gt;h1 -->
<g id="edge34" class="edge"><title>b0&#45;&gt;h1</title>
<path fill="none" stroke="black" d="M2131,-287.697C2131,-279.983 2131,-270.712 2131,-262.112"/>
<polygon fill="black" stroke="black" points="2134.5,-262.104 2131,-252.104 2127.5,-262.104 2134.5,-262.104"/>
</g>
<!-- a1 -->
<g id="node38" class="node"><title>a1</title>
<a xlink:href="0048037" xlink:title="GO:0048037 (2)">
<ellipse fill="#e98576" stroke="#e98576" cx="2299" cy="-234" rx="75.2018" ry="18"/>
<text text-anchor="middle" x="2299" y="-229.8" font-family="Times,serif" font-size="14.00">GO:0048037 (2)</text>
</a>
</g>
<!-- b0&#45;&gt;a1 -->
<g id="edge36" class="edge"><title>b0&#45;&gt;a1</title>
<path fill="none" stroke="black" d="M2166.63,-290.155C2192.05,-279.564 2226.43,-265.239 2253.78,-253.842"/>
<polygon fill="black" stroke="black" points="2255.25,-257.021 2263.13,-249.944 2252.56,-250.56 2255.25,-257.021"/>
</g>
<!-- n0 -->
<g id="node40" class="node"><title>n0</title>
<a xlink:href="0008289" xlink:title="GO:0008289 (4)">
<ellipse fill="#e98576" stroke="#e98576" cx="2467" cy="-234" rx="75.2018" ry="18"/>
<text text-anchor="middle" x="2467" y="-229.8" font-family="Times,serif" font-size="14.00">GO:0008289 (4)</text>
</a>
</g>
<!-- b0&#45;&gt;n0 -->
<g id="edge38" class="edge"><title>b0&#45;&gt;n0</title>
<path fill="none" stroke="black" d="M2185.73,-293.597C2245.04,-281.242 2339.6,-261.541 2402.48,-248.441"/>
<polygon fill="black" stroke="black" points="2403.22,-251.864 2412.29,-246.398 2401.79,-245.011 2403.22,-251.864"/>
</g>
<!-- h0 -->
<g id="node48" class="node"><title>h0</title>
<a xlink:href="0001882" xlink:title="GO:0001882 (14)">
<ellipse fill="#e98576" stroke="#e98576" cx="2640" cy="-234" rx="79.4447" ry="18"/>
<text text-anchor="middle" x="2640" y="-229.8" font-family="Times,serif" font-size="14.00">GO:0001882 (14)</text>
</a>
</g>
<!-- b0&#45;&gt;h0 -->
<g id="edge46" class="edge"><title>b0&#45;&gt;h0</title>
<path fill="none" stroke="black" d="M2184.64,-293.372C2194.7,-291.411 2205.15,-289.521 2215,-288 2363.43,-265.08 2402.45,-274.108 2551,-252 2558.17,-250.933 2565.64,-249.7 2573.07,-248.395"/>
<polygon fill="black" stroke="black" points="2573.92,-251.797 2583.14,-246.579 2572.68,-244.908 2573.92,-251.797"/>
</g>
<!-- g1 -->
<g id="node55" class="node"><title>g1</title>
<a xlink:href="0060090" xlink:title="GO:0060090 (1)">
<ellipse fill="#e98576" stroke="#e98576" cx="2813" cy="-234" rx="75.2018" ry="18"/>
<text text-anchor="middle" x="2813" y="-229.8" font-family="Times,serif" font-size="14.00">GO:0060090 (1)</text>
</a>
</g>
<!-- b0&#45;&gt;g1 -->
<g id="edge52" class="edge"><title>b0&#45;&gt;g1</title>
<path fill="none" stroke="black" d="M2184.15,-293.162C2194.35,-291.198 2204.97,-289.36 2215,-288 2441.49,-257.267 2501.48,-282.474 2728,-252 2735.08,-251.048 2742.45,-249.865 2749.76,-248.57"/>
<polygon fill="black" stroke="black" points="2750.47,-251.999 2759.67,-246.745 2749.2,-245.114 2750.47,-251.999"/>
</g>
<!-- q0 -->
<g id="node57" class="node"><title>q0</title>
<a xlink:href="0031406" xlink:title="GO:0031406 (3)">
<ellipse fill="#e98576" stroke="#e98576" cx="2981" cy="-234" rx="75.2018" ry="18"/>
<text text-anchor="middle" x="2981" y="-229.8" font-family="Times,serif" font-size="14.00">GO:0031406 (3)</text>
</a>
</g>
<!-- b0&#45;&gt;q0 -->
<g id="edge54" class="edge"><title>b0&#45;&gt;q0</title>
<path fill="none" stroke="black" d="M2183.68,-293.108C2194.02,-291.123 2204.82,-289.292 2215,-288 2516.12,-249.793 2595.88,-290.207 2897,-252 2903.84,-251.132 2910.96,-250.02 2918.03,-248.783"/>
<polygon fill="black" stroke="black" points="2919.12,-252.142 2928.32,-246.892 2917.85,-245.257 2919.12,-252.142"/>
</g>
<!-- f1 -->
<g id="node64" class="node"><title>f1</title>
<a xlink:href="0046906" xlink:title="GO:0046906 (1)">
<ellipse fill="#e98576" stroke="#e98576" cx="3149" cy="-234" rx="75.2018" ry="18"/>
<text text-anchor="middle" x="3149" y="-229.8" font-family="Times,serif" font-size="14.00">GO:0046906 (1)</text>
</a>
</g>
<!-- b0&#45;&gt;f1 -->
<g id="edge62" class="edge"><title>b0&#45;&gt;f1</title>
<path fill="none" stroke="black" d="M2183.67,-293.023C2194.01,-291.046 2204.81,-289.239 2215,-288 2590.35,-242.357 2689.65,-297.643 3065,-252 3071.85,-251.167 3078.97,-250.079 3086.04,-248.854"/>
<polygon fill="black" stroke="black" points="3087.12,-252.215 3096.33,-246.977 3085.87,-245.329 3087.12,-252.215"/>
</g>
<!-- e0 -->
<g id="node66" class="node"><title>e0</title>
<a xlink:href="0000166" xlink:title="GO:0000166 (18)">
<ellipse fill="#e98576" stroke="#e98576" cx="3322" cy="-234" rx="79.4447" ry="18"/>
<text text-anchor="middle" x="3322" y="-229.8" font-family="Times,serif" font-size="14.00">GO:0000166 (18)</text>
</a>
</g>
<!-- b0&#45;&gt;e0 -->
<g id="edge64" class="edge"><title>b0&#45;&gt;e0</title>
<path fill="none" stroke="black" d="M2183.21,-293.052C2193.69,-291.046 2204.66,-289.221 2215,-288 2664.6,-234.92 2783.11,-302.619 3233,-252 3240.69,-251.134 3248.72,-249.973 3256.66,-248.662"/>
<polygon fill="black" stroke="black" points="3257.4,-252.087 3266.65,-246.932 3256.2,-245.19 3257.4,-252.087"/>
</g>
<!-- m0 -->
<g id="node19" class="node"><title>m0</title>
<a xlink:href="0008233" xlink:title="GO:0008233 (5)">
<ellipse fill="#e98576" stroke="#e98576" cx="248" cy="-162" rx="75.2018" ry="18"/>
<text text-anchor="middle" x="248" y="-157.8" font-family="Times,serif" font-size="14.00">GO:0008233 (5)</text>
</a>
</g>
<!-- f0&#45;&gt;m0 -->
<g id="edge16" class="edge"><title>f0&#45;&gt;m0</title>
<path fill="none" stroke="black" d="M248,-215.697C248,-207.983 248,-198.712 248,-190.112"/>
<polygon fill="black" stroke="black" points="251.5,-190.104 248,-180.104 244.5,-190.104 251.5,-190.104"/>
</g>
<!-- z0 -->
<g id="node42" class="node"><title>z0</title>
<a xlink:href="0016879" xlink:title="GO:0016879">
<ellipse fill="#dddddd" stroke="#dddddd" cx="421" cy="-162" rx="61.1934" ry="18"/>
<text text-anchor="middle" x="421" y="-157.8" font-family="Times,serif" font-size="14.00">GO:0016879</text>
</a>
</g>
<!-- r0&#45;&gt;z0 -->
<g id="edge40" class="edge"><title>r0&#45;&gt;z0</title>
<path fill="none" stroke="black" d="M421,-215.697C421,-207.983 421,-198.712 421,-190.112"/>
<polygon fill="black" stroke="black" points="424.5,-190.104 421,-180.104 417.5,-190.104 424.5,-190.104"/>
</g>
<!-- s0 -->
<g id="node59" class="node"><title>s0</title>
<a xlink:href="0009055" xlink:title="GO:0009055 (3)">
<ellipse fill="#e98576" stroke="#e98576" cx="589" cy="-162" rx="75.2018" ry="18"/>
<text text-anchor="middle" x="589" y="-157.8" font-family="Times,serif" font-size="14.00">GO:0009055 (3)</text>
</a>
</g>
<!-- k0&#45;&gt;s0 -->
<g id="edge56" class="edge"><title>k0&#45;&gt;s0</title>
<path fill="none" stroke="black" d="M589,-215.697C589,-207.983 589,-198.712 589,-190.112"/>
<polygon fill="black" stroke="black" points="592.5,-190.104 589,-180.104 585.5,-190.104 592.5,-190.104"/>
</g>
<!-- y0 -->
<g id="node43" class="node"><title>y0</title>
<a xlink:href="0016881" xlink:title="GO:0016881">
<ellipse fill="#dddddd" stroke="#dddddd" cx="421" cy="-90" rx="61.1934" ry="18"/>
<text text-anchor="middle" x="421" y="-85.8" font-family="Times,serif" font-size="14.00">GO:0016881</text>
</a>
</g>
<!-- z0&#45;&gt;y0 -->
<g id="edge58" class="edge"><title>z0&#45;&gt;y0</title>
<path fill="none" stroke="black" d="M421,-143.697C421,-135.983 421,-126.712 421,-118.112"/>
<polygon fill="black" stroke="black" points="424.5,-118.104 421,-108.104 417.5,-118.104 424.5,-118.104"/>
</g>
<!-- x0 -->
<g id="node45" class="node"><title>x0</title>
<a xlink:href="0019787" xlink:title="GO:0019787 (2)">
<ellipse fill="#e98576" stroke="#e98576" cx="421" cy="-18" rx="75.2018" ry="18"/>
<text text-anchor="middle" x="421" y="-13.8" font-family="Times,serif" font-size="14.00">GO:0019787 (2)</text>
</a>
</g>
<!-- y0&#45;&gt;x0 -->
<g id="edge42" class="edge"><title>y0&#45;&gt;x0</title>
<path fill="none" stroke="black" d="M421,-71.6966C421,-63.9827 421,-54.7125 421,-46.1124"/>
<polygon fill="black" stroke="black" points="424.5,-46.1043 421,-36.1043 417.5,-46.1044 424.5,-46.1043"/>
</g>
<!-- o0 -->
<g id="node51" class="node"><title>o0</title>
<a xlink:href="0004871" xlink:title="GO:0004871 (4)">
<ellipse fill="#e98576" stroke="#e98576" cx="3495" cy="-234" rx="75.2018" ry="18"/>
<text text-anchor="middle" x="3495" y="-229.8" font-family="Times,serif" font-size="14.00">GO:0004871 (4)</text>
</a>
</g>
<!-- p0&#45;&gt;o0 -->
<g id="edge48" class="edge"><title>p0&#45;&gt;o0</title>
<path fill="none" stroke="black" d="M2665.69,-293.201C2674.66,-291.156 2684.09,-289.279 2693,-288 3008.83,-242.658 3093.37,-291.394 3410,-252 3417.19,-251.106 3424.68,-249.947 3432.1,-248.655"/>
<polygon fill="black" stroke="black" points="3432.94,-252.06 3442.15,-246.822 3431.68,-245.173 3432.94,-252.06"/>
</g>
</g>
</svg>
