<?xml version="1.0" encoding="UTF-8" standalone="no"?>
<!DOCTYPE svg PUBLIC "-//W3C//DTD SVG 1.1//EN"
 "http://www.w3.org/Graphics/SVG/1.1/DTD/svg11.dtd">
<!-- Generated by graphviz version 2.28.0 (20110622.2320)
 -->
<!-- Title: G Pages: 1 -->
<svg width="2541pt" height="476pt"
 viewBox="0.00 0.00 2541.00 476.00" xmlns="http://www.w3.org/2000/svg" xmlns:xlink="http://www.w3.org/1999/xlink">
<g id="graph1" class="graph" transform="scale(1 1) rotate(0) translate(4 472)">
<title>G</title>
<polygon fill="white" stroke="white" points="-4,5 -4,-472 2538,-472 2538,5 -4,5"/>
<!-- v0 -->
<g id="node1" class="node"><title>v0</title>
<a xlink:href="0051179" xlink:title="GO:0051179 (1)">
<ellipse fill="#e98576" stroke="#e98576" cx="1102" cy="-378" rx="75.2018" ry="18"/>
<text text-anchor="middle" x="1102" y="-373.8" font-family="Times,serif" font-size="14.00">GO:0051179 (1)</text>
</a>
</g>
<!-- z0 -->
<g id="node3" class="node"><title>z0</title>
<a xlink:href="0051674" xlink:title="GO:0051674">
<ellipse fill="#dddddd" stroke="#dddddd" cx="1012" cy="-306" rx="61.1934" ry="18"/>
<text text-anchor="middle" x="1012" y="-301.8" font-family="Times,serif" font-size="14.00">GO:0051674</text>
</a>
</g>
<!-- v0&#45;&gt;z0 -->
<g id="edge2" class="edge"><title>v0&#45;&gt;z0</title>
<path fill="none" stroke="black" d="M1080.67,-360.411C1068.73,-351.125 1053.68,-339.421 1040.72,-329.338"/>
<polygon fill="black" stroke="black" points="1042.6,-326.365 1032.56,-322.988 1038.3,-331.89 1042.6,-326.365"/>
</g>
<!-- u0 -->
<g id="node20" class="node"><title>u0</title>
<a xlink:href="0051234" xlink:title="GO:0051234">
<ellipse fill="#dddddd" stroke="#dddddd" cx="1153" cy="-306" rx="61.1934" ry="18"/>
<text text-anchor="middle" x="1153" y="-301.8" font-family="Times,serif" font-size="14.00">GO:0051234</text>
</a>
</g>
<!-- v0&#45;&gt;u0 -->
<g id="edge18" class="edge"><title>v0&#45;&gt;u0</title>
<path fill="none" stroke="black" d="M1114.35,-360.055C1120.48,-351.629 1128.02,-341.28 1134.81,-331.966"/>
<polygon fill="black" stroke="black" points="1137.71,-333.932 1140.77,-323.789 1132.05,-329.81 1137.71,-333.932"/>
</g>
<!-- y0 -->
<g id="node14" class="node"><title>y0</title>
<a xlink:href="0006928" xlink:title="GO:0006928 (1)">
<ellipse fill="#e98576" stroke="#e98576" cx="954" cy="-234" rx="75.2018" ry="18"/>
<text text-anchor="middle" x="954" y="-229.8" font-family="Times,serif" font-size="14.00">GO:0006928 (1)</text>
</a>
</g>
<!-- z0&#45;&gt;y0 -->
<g id="edge12" class="edge"><title>z0&#45;&gt;y0</title>
<path fill="none" stroke="black" d="M998.255,-288.411C991.207,-279.906 982.48,-269.372 974.643,-259.914"/>
<polygon fill="black" stroke="black" points="977.125,-257.423 968.049,-251.956 971.735,-261.89 977.125,-257.423"/>
</g>
<!-- w0 -->
<g id="node4" class="node"><title>w0</title>
<a xlink:href="0032501" xlink:title="GO:0032501 (1)">
<ellipse fill="#e98576" stroke="#e98576" cx="1308" cy="-378" rx="75.2018" ry="18"/>
<text text-anchor="middle" x="1308" y="-373.8" font-family="Times,serif" font-size="14.00">GO:0032501 (1)</text>
</a>
</g>
<!-- j1 -->
<g id="node6" class="node"><title>j1</title>
<a xlink:href="0050877" xlink:title="GO:0050877 (1)">
<ellipse fill="#e98576" stroke="#e98576" cx="1308" cy="-306" rx="75.2018" ry="18"/>
<text text-anchor="middle" x="1308" y="-301.8" font-family="Times,serif" font-size="14.00">GO:0050877 (1)</text>
</a>
</g>
<!-- w0&#45;&gt;j1 -->
<g id="edge4" class="edge"><title>w0&#45;&gt;j1</title>
<path fill="none" stroke="black" d="M1308,-359.697C1308,-351.983 1308,-342.712 1308,-334.112"/>
<polygon fill="black" stroke="black" points="1311.5,-334.104 1308,-324.104 1304.5,-334.104 1311.5,-334.104"/>
</g>
<!-- k1 -->
<g id="node76" class="node"><title>k1</title>
<a xlink:href="0001816" xlink:title="GO:0001816 (1)">
<ellipse fill="#e98576" stroke="#e98576" cx="1476" cy="-306" rx="75.2018" ry="18"/>
<text text-anchor="middle" x="1476" y="-301.8" font-family="Times,serif" font-size="14.00">GO:0001816 (1)</text>
</a>
</g>
<!-- w0&#45;&gt;k1 -->
<g id="edge80" class="edge"><title>w0&#45;&gt;k1</title>
<path fill="none" stroke="black" d="M1343.63,-362.155C1369.05,-351.564 1403.43,-337.239 1430.78,-325.842"/>
<polygon fill="black" stroke="black" points="1432.25,-329.021 1440.13,-321.944 1429.56,-322.56 1432.25,-329.021"/>
</g>
<!-- g1 -->
<g id="node7" class="node"><title>g1</title>
<a xlink:href="0006139" xlink:title="GO:0006139">
<ellipse fill="#dddddd" stroke="#dddddd" cx="74" cy="-234" rx="61.1934" ry="18"/>
<text text-anchor="middle" x="74" y="-229.8" font-family="Times,serif" font-size="14.00">GO:0006139</text>
</a>
</g>
<!-- i1 -->
<g id="node9" class="node"><title>i1</title>
<a xlink:href="0016070" xlink:title="GO:0016070">
<ellipse fill="#dddddd" stroke="#dddddd" cx="189" cy="-162" rx="61.1934" ry="18"/>
<text text-anchor="middle" x="189" y="-157.8" font-family="Times,serif" font-size="14.00">GO:0016070</text>
</a>
</g>
<!-- g1&#45;&gt;i1 -->
<g id="edge6" class="edge"><title>g1&#45;&gt;i1</title>
<path fill="none" stroke="black" d="M99.5222,-217.465C115.751,-207.586 136.963,-194.675 154.66,-183.903"/>
<polygon fill="black" stroke="black" points="156.827,-186.681 163.549,-178.492 153.187,-180.702 156.827,-186.681"/>
</g>
<!-- f1 -->
<g id="node48" class="node"><title>f1</title>
<a xlink:href="0006350" xlink:title="GO:0006350">
<ellipse fill="#dddddd" stroke="#dddddd" cx="61" cy="-90" rx="61.1934" ry="18"/>
<text text-anchor="middle" x="61" y="-85.8" font-family="Times,serif" font-size="14.00">GO:0006350</text>
</a>
</g>
<!-- g1&#45;&gt;f1 -->
<g id="edge44" class="edge"><title>g1&#45;&gt;f1</title>
<path fill="none" stroke="black" d="M72.4319,-215.871C70.2163,-191.67 66.1461,-147.211 63.5078,-118.393"/>
<polygon fill="black" stroke="black" points="66.9709,-117.829 62.5737,-108.189 60,-118.467 66.9709,-117.829"/>
</g>
<!-- h1 -->
<g id="node65" class="node"><title>h1</title>
<a xlink:href="0032774" xlink:title="GO:0032774">
<ellipse fill="#dddddd" stroke="#dddddd" cx="202" cy="-90" rx="61.1934" ry="18"/>
<text text-anchor="middle" x="202" y="-85.8" font-family="Times,serif" font-size="14.00">GO:0032774</text>
</a>
</g>
<!-- i1&#45;&gt;h1 -->
<g id="edge82" class="edge"><title>i1&#45;&gt;h1</title>
<path fill="none" stroke="black" d="M192.213,-143.697C193.646,-135.983 195.368,-126.712 196.965,-118.112"/>
<polygon fill="black" stroke="black" points="200.439,-118.575 198.823,-108.104 193.556,-117.297 200.439,-118.575"/>
</g>
<!-- m0 -->
<g id="node10" class="node"><title>m0</title>
<a xlink:href="0043283" xlink:title="GO:0043283">
<ellipse fill="#dddddd" stroke="#dddddd" cx="215" cy="-234" rx="61.1934" ry="18"/>
<text text-anchor="middle" x="215" y="-229.8" font-family="Times,serif" font-size="14.00">GO:0043283</text>
</a>
</g>
<!-- m0&#45;&gt;i1 -->
<g id="edge8" class="edge"><title>m0&#45;&gt;i1</title>
<path fill="none" stroke="black" d="M208.706,-216.055C205.78,-208.176 202.229,-198.617 198.952,-189.794"/>
<polygon fill="black" stroke="black" points="202.179,-188.431 195.417,-180.275 195.617,-190.868 202.179,-188.431"/>
</g>
<!-- l0 -->
<g id="node26" class="node"><title>l0</title>
<a xlink:href="0043412" xlink:title="GO:0043412">
<ellipse fill="#dddddd" stroke="#dddddd" cx="330" cy="-162" rx="61.1934" ry="18"/>
<text text-anchor="middle" x="330" y="-157.8" font-family="Times,serif" font-size="14.00">GO:0043412</text>
</a>
</g>
<!-- m0&#45;&gt;l0 -->
<g id="edge22" class="edge"><title>m0&#45;&gt;l0</title>
<path fill="none" stroke="black" d="M240.522,-217.465C256.751,-207.586 277.963,-194.675 295.66,-183.903"/>
<polygon fill="black" stroke="black" points="297.827,-186.681 304.549,-178.492 294.187,-180.702 297.827,-186.681"/>
</g>
<!-- d0 -->
<g id="node12" class="node"><title>d0</title>
<a xlink:href="0009987" xlink:title="GO:0009987">
<ellipse fill="#dddddd" stroke="#dddddd" cx="820" cy="-378" rx="61.1934" ry="18"/>
<text text-anchor="middle" x="820" y="-373.8" font-family="Times,serif" font-size="14.00">GO:0009987</text>
</a>
</g>
<!-- d0&#45;&gt;y0 -->
<g id="edge10" class="edge"><title>d0&#45;&gt;y0</title>
<path fill="none" stroke="black" d="M851.001,-362.282C868.124,-353.043 888.915,-339.875 904,-324 921.361,-305.73 934.864,-280.293 943.437,-261.291"/>
<polygon fill="black" stroke="black" points="946.693,-262.579 947.465,-252.012 940.272,-259.791 946.693,-262.579"/>
</g>
<!-- i0 -->
<g id="node32" class="node"><title>i0</title>
<a xlink:href="0044237" xlink:title="GO:0044237">
<ellipse fill="#dddddd" stroke="#dddddd" cx="497" cy="-306" rx="61.1934" ry="18"/>
<text text-anchor="middle" x="497" y="-301.8" font-family="Times,serif" font-size="14.00">GO:0044237</text>
</a>
</g>
<!-- d0&#45;&gt;i0 -->
<g id="edge60" class="edge"><title>d0&#45;&gt;i0</title>
<path fill="none" stroke="black" d="M771.132,-367.14C720.299,-356.786 638.444,-339.838 568,-324 563.027,-322.882 557.863,-321.695 552.693,-320.49"/>
<polygon fill="black" stroke="black" points="553.324,-317.043 542.788,-318.16 551.722,-323.857 553.324,-317.043"/>
</g>
<!-- c1 -->
<g id="node35" class="node"><title>c1</title>
<a xlink:href="0008283" xlink:title="GO:0008283 (1)">
<ellipse fill="#e98576" stroke="#e98576" cx="652" cy="-306" rx="75.2018" ry="18"/>
<text text-anchor="middle" x="652" y="-301.8" font-family="Times,serif" font-size="14.00">GO:0008283 (1)</text>
</a>
</g>
<!-- d0&#45;&gt;c1 -->
<g id="edge30" class="edge"><title>d0&#45;&gt;c1</title>
<path fill="none" stroke="black" d="M786.003,-362.834C760.444,-352.185 725.175,-337.49 697.235,-325.848"/>
<polygon fill="black" stroke="black" points="698.263,-322.485 687.686,-321.869 695.571,-328.946 698.263,-322.485"/>
</g>
<!-- c0 -->
<g id="node79" class="node"><title>c0</title>
<a xlink:href="0007154" xlink:title="GO:0007154 (4)">
<ellipse fill="#e98576" stroke="#e98576" cx="820" cy="-306" rx="75.2018" ry="18"/>
<text text-anchor="middle" x="820" y="-301.8" font-family="Times,serif" font-size="14.00">GO:0007154 (4)</text>
</a>
</g>
<!-- d0&#45;&gt;c0 -->
<g id="edge84" class="edge"><title>d0&#45;&gt;c0</title>
<path fill="none" stroke="black" d="M820,-359.697C820,-351.983 820,-342.712 820,-334.112"/>
<polygon fill="black" stroke="black" points="823.5,-334.104 820,-324.104 816.5,-334.104 823.5,-334.104"/>
</g>
<!-- b0 -->
<g id="node16" class="node"><title>b0</title>
<a xlink:href="0008150" xlink:title="GO:0008150">
<ellipse fill="#dddddd" stroke="#dddddd" cx="1553" cy="-450" rx="61.1934" ry="18"/>
<text text-anchor="middle" x="1553" y="-445.8" font-family="Times,serif" font-size="14.00">GO:0008150</text>
</a>
</g>
<!-- b0&#45;&gt;v0 -->
<g id="edge52" class="edge"><title>b0&#45;&gt;v0</title>
<path fill="none" stroke="black" d="M1498.3,-441.744C1427.32,-432.155 1299.67,-414.325 1191,-396 1183.47,-394.731 1175.6,-393.332 1167.79,-391.899"/>
<polygon fill="black" stroke="black" points="1168.43,-388.457 1157.96,-390.072 1167.15,-395.339 1168.43,-388.457"/>
</g>
<!-- b0&#45;&gt;w0 -->
<g id="edge76" class="edge"><title>b0&#45;&gt;w0</title>
<path fill="none" stroke="black" d="M1510.6,-436.887C1470.11,-425.318 1408.83,-407.809 1364.27,-395.077"/>
<polygon fill="black" stroke="black" points="1365.04,-391.657 1354.46,-392.275 1363.12,-398.387 1365.04,-391.657"/>
</g>
<!-- b0&#45;&gt;d0 -->
<g id="edge78" class="edge"><title>b0&#45;&gt;d0</title>
<path fill="none" stroke="black" d="M1495.79,-443.536C1362.2,-430.779 1030.26,-399.079 887.276,-385.425"/>
<polygon fill="black" stroke="black" points="887.601,-381.94 877.313,-384.473 886.935,-388.908 887.601,-381.94"/>
</g>
<!-- j0 -->
<g id="node18" class="node"><title>j0</title>
<a xlink:href="0008152" xlink:title="GO:0008152">
<ellipse fill="#dddddd" stroke="#dddddd" cx="427" cy="-378" rx="61.1934" ry="18"/>
<text text-anchor="middle" x="427" y="-373.8" font-family="Times,serif" font-size="14.00">GO:0008152</text>
</a>
</g>
<!-- b0&#45;&gt;j0 -->
<g id="edge14" class="edge"><title>b0&#45;&gt;j0</title>
<path fill="none" stroke="black" d="M1493.65,-445.311C1302.18,-433.407 701.391,-396.058 496.365,-383.312"/>
<polygon fill="black" stroke="black" points="496.521,-379.815 486.323,-382.688 496.087,-386.802 496.521,-379.815"/>
</g>
<!-- b0&#45;&gt;u0 -->
<g id="edge16" class="edge"><title>b0&#45;&gt;u0</title>
<path fill="none" stroke="black" d="M1494.43,-444.645C1412.55,-437.707 1268.84,-422.186 1224,-396 1210.45,-388.089 1186.41,-355.775 1170.1,-332.36"/>
<polygon fill="black" stroke="black" points="1172.82,-330.138 1164.26,-323.89 1167.05,-334.11 1172.82,-330.138"/>
</g>
<!-- s0 -->
<g id="node28" class="node"><title>s0</title>
<a xlink:href="0000003" xlink:title="GO:0000003 (1)">
<ellipse fill="#e98576" stroke="#e98576" cx="1476" cy="-378" rx="75.2018" ry="18"/>
<text text-anchor="middle" x="1476" y="-373.8" font-family="Times,serif" font-size="14.00">GO:0000003 (1)</text>
</a>
</g>
<!-- b0&#45;&gt;s0 -->
<g id="edge24" class="edge"><title>b0&#45;&gt;s0</title>
<path fill="none" stroke="black" d="M1535.14,-432.765C1525.27,-423.795 1512.84,-412.49 1501.92,-402.564"/>
<polygon fill="black" stroke="black" points="1504.05,-399.77 1494.3,-395.633 1499.34,-404.95 1504.05,-399.77"/>
</g>
<!-- f0 -->
<g id="node36" class="node"><title>f0</title>
<a xlink:href="0065007" xlink:title="GO:0065007">
<ellipse fill="#dddddd" stroke="#dddddd" cx="1631" cy="-378" rx="61.1934" ry="18"/>
<text text-anchor="middle" x="1631" y="-373.8" font-family="Times,serif" font-size="14.00">GO:0065007</text>
</a>
</g>
<!-- b0&#45;&gt;f0 -->
<g id="edge54" class="edge"><title>b0&#45;&gt;f0</title>
<path fill="none" stroke="black" d="M1571.09,-432.765C1581.16,-423.73 1593.87,-412.326 1604.98,-402.349"/>
<polygon fill="black" stroke="black" points="1607.63,-404.674 1612.74,-395.39 1602.96,-399.464 1607.63,-404.674"/>
</g>
<!-- l1 -->
<g id="node43" class="node"><title>l1</title>
<a xlink:href="0040011" xlink:title="GO:0040011 (1)">
<ellipse fill="#e98576" stroke="#e98576" cx="1786" cy="-378" rx="75.2018" ry="18"/>
<text text-anchor="middle" x="1786" y="-373.8" font-family="Times,serif" font-size="14.00">GO:0040011 (1)</text>
</a>
</g>
<!-- b0&#45;&gt;l1 -->
<g id="edge38" class="edge"><title>b0&#45;&gt;l1</title>
<path fill="none" stroke="black" d="M1594.12,-436.647C1632.22,-425.201 1689.17,-408.092 1731.13,-395.485"/>
<polygon fill="black" stroke="black" points="1732.35,-398.774 1740.92,-392.544 1730.33,-392.07 1732.35,-398.774"/>
</g>
<!-- b1 -->
<g id="node45" class="node"><title>b1</title>
<a xlink:href="0002376" xlink:title="GO:0002376 (1)">
<ellipse fill="#e98576" stroke="#e98576" cx="1954" cy="-378" rx="75.2018" ry="18"/>
<text text-anchor="middle" x="1954" y="-373.8" font-family="Times,serif" font-size="14.00">GO:0002376 (1)</text>
</a>
</g>
<!-- b0&#45;&gt;b1 -->
<g id="edge40" class="edge"><title>b0&#45;&gt;b1</title>
<path fill="none" stroke="black" d="M1605.82,-440.732C1668.82,-430.741 1777.27,-413.13 1870,-396 1876.15,-394.865 1882.53,-393.644 1888.92,-392.398"/>
<polygon fill="black" stroke="black" points="1889.79,-395.794 1898.93,-390.425 1888.44,-388.926 1889.79,-395.794"/>
</g>
<!-- d1 -->
<g id="node54" class="node"><title>d1</title>
<a xlink:href="0016032" xlink:title="GO:0016032 (1)">
<ellipse fill="#e98576" stroke="#e98576" cx="2122" cy="-378" rx="75.2018" ry="18"/>
<text text-anchor="middle" x="2122" y="-373.8" font-family="Times,serif" font-size="14.00">GO:0016032 (1)</text>
</a>
</g>
<!-- b0&#45;&gt;d1 -->
<g id="edge50" class="edge"><title>b0&#45;&gt;d1</title>
<path fill="none" stroke="black" d="M1611.46,-444.339C1702.81,-436.666 1884.83,-419.817 2038,-396 2044.62,-394.971 2051.51,-393.778 2058.36,-392.511"/>
<polygon fill="black" stroke="black" points="2059.19,-395.917 2068.36,-390.611 2057.88,-389.041 2059.19,-395.917"/>
</g>
<!-- a0 -->
<g id="node58" class="node"><title>a0</title>
<a xlink:href="0050896" xlink:title="GO:0050896 (4)">
<ellipse fill="#e98576" stroke="#e98576" cx="2290" cy="-378" rx="75.2018" ry="18"/>
<text text-anchor="middle" x="2290" y="-373.8" font-family="Times,serif" font-size="14.00">GO:0050896 (4)</text>
</a>
</g>
<!-- b0&#45;&gt;a0 -->
<g id="edge56" class="edge"><title>b0&#45;&gt;a0</title>
<path fill="none" stroke="black" d="M1613.13,-446.509C1728.54,-441.199 1988.92,-426.666 2206,-396 2212.73,-395.049 2219.73,-393.896 2226.7,-392.644"/>
<polygon fill="black" stroke="black" points="2227.65,-396.026 2236.84,-390.749 2226.37,-389.145 2227.65,-396.026"/>
</g>
<!-- g0 -->
<g id="node84" class="node"><title>g0</title>
<a xlink:href="0032502" xlink:title="GO:0032502 (2)">
<ellipse fill="#e98576" stroke="#e98576" cx="2458" cy="-378" rx="75.2018" ry="18"/>
<text text-anchor="middle" x="2458" y="-373.8" font-family="Times,serif" font-size="14.00">GO:0032502 (2)</text>
</a>
</g>
<!-- b0&#45;&gt;g0 -->
<g id="edge92" class="edge"><title>b0&#45;&gt;g0</title>
<path fill="none" stroke="black" d="M1614.04,-447.878C1750.72,-444.751 2091.53,-433.525 2374,-396 2380.74,-395.105 2387.75,-393.988 2394.72,-392.756"/>
<polygon fill="black" stroke="black" points="2395.66,-396.141 2404.86,-390.883 2394.39,-389.257 2395.66,-396.141"/>
</g>
<!-- n0 -->
<g id="node29" class="node"><title>n0</title>
<a xlink:href="0043170" xlink:title="GO:0043170">
<ellipse fill="#dddddd" stroke="#dddddd" cx="356" cy="-306" rx="61.1934" ry="18"/>
<text text-anchor="middle" x="356" y="-301.8" font-family="Times,serif" font-size="14.00">GO:0043170</text>
</a>
</g>
<!-- j0&#45;&gt;n0 -->
<g id="edge86" class="edge"><title>j0&#45;&gt;n0</title>
<path fill="none" stroke="black" d="M410.174,-360.411C401.155,-351.519 389.888,-340.411 379.968,-330.631"/>
<polygon fill="black" stroke="black" points="382.284,-327.998 372.705,-323.47 377.369,-332.983 382.284,-327.998"/>
</g>
<!-- j0&#45;&gt;i0 -->
<g id="edge58" class="edge"><title>j0&#45;&gt;i0</title>
<path fill="none" stroke="black" d="M443.589,-360.411C452.481,-351.519 463.589,-340.411 473.369,-330.631"/>
<polygon fill="black" stroke="black" points="475.934,-333.016 480.53,-323.47 470.984,-328.066 475.934,-333.016"/>
</g>
<!-- q0 -->
<g id="node51" class="node"><title>q0</title>
<a xlink:href="0044238" xlink:title="GO:0044238">
<ellipse fill="#dddddd" stroke="#dddddd" cx="215" cy="-306" rx="61.1934" ry="18"/>
<text text-anchor="middle" x="215" y="-301.8" font-family="Times,serif" font-size="14.00">GO:0044238</text>
</a>
</g>
<!-- j0&#45;&gt;q0 -->
<g id="edge94" class="edge"><title>j0&#45;&gt;q0</title>
<path fill="none" stroke="black" d="M387.621,-363.998C352.666,-352.456 301.457,-335.547 263.891,-323.143"/>
<polygon fill="black" stroke="black" points="264.761,-319.745 254.168,-319.933 262.566,-326.392 264.761,-319.745"/>
</g>
<!-- t0 -->
<g id="node22" class="node"><title>t0</title>
<a xlink:href="0006810" xlink:title="GO:0006810 (1)">
<ellipse fill="#e98576" stroke="#e98576" cx="1153" cy="-234" rx="75.2018" ry="18"/>
<text text-anchor="middle" x="1153" y="-229.8" font-family="Times,serif" font-size="14.00">GO:0006810 (1)</text>
</a>
</g>
<!-- u0&#45;&gt;t0 -->
<g id="edge42" class="edge"><title>u0&#45;&gt;t0</title>
<path fill="none" stroke="black" d="M1153,-287.697C1153,-279.983 1153,-270.712 1153,-262.112"/>
<polygon fill="black" stroke="black" points="1156.5,-262.104 1153,-252.104 1149.5,-262.104 1156.5,-262.104"/>
</g>
<!-- x0 -->
<g id="node24" class="node"><title>x0</title>
<a xlink:href="0006811" xlink:title="GO:0006811 (1)">
<ellipse fill="#e98576" stroke="#e98576" cx="1153" cy="-162" rx="75.2018" ry="18"/>
<text text-anchor="middle" x="1153" y="-157.8" font-family="Times,serif" font-size="14.00">GO:0006811 (1)</text>
</a>
</g>
<!-- t0&#45;&gt;x0 -->
<g id="edge20" class="edge"><title>t0&#45;&gt;x0</title>
<path fill="none" stroke="black" d="M1153,-215.697C1153,-207.983 1153,-198.712 1153,-190.112"/>
<polygon fill="black" stroke="black" points="1156.5,-190.104 1153,-180.104 1149.5,-190.104 1156.5,-190.104"/>
</g>
<!-- k0 -->
<g id="node68" class="node"><title>k0</title>
<a xlink:href="0006464" xlink:title="GO:0006464 (2)">
<ellipse fill="#e98576" stroke="#e98576" cx="414" cy="-90" rx="75.2018" ry="18"/>
<text text-anchor="middle" x="414" y="-85.8" font-family="Times,serif" font-size="14.00">GO:0006464 (2)</text>
</a>
</g>
<!-- l0&#45;&gt;k0 -->
<g id="edge68" class="edge"><title>l0&#45;&gt;k0</title>
<path fill="none" stroke="black" d="M349.482,-144.765C360.43,-135.642 374.275,-124.105 386.33,-114.059"/>
<polygon fill="black" stroke="black" points="388.891,-116.48 394.332,-107.39 384.409,-111.103 388.891,-116.48"/>
</g>
<!-- n0&#45;&gt;m0 -->
<g id="edge34" class="edge"><title>n0&#45;&gt;m0</title>
<path fill="none" stroke="black" d="M326.098,-290.155C305.067,-279.714 276.725,-265.644 253.931,-254.328"/>
<polygon fill="black" stroke="black" points="255.373,-251.136 244.859,-249.824 252.26,-257.405 255.373,-251.136"/>
</g>
<!-- r0 -->
<g id="node31" class="node"><title>r0</title>
<a xlink:href="0044260" xlink:title="GO:0044260">
<ellipse fill="#dddddd" stroke="#dddddd" cx="497" cy="-234" rx="61.1934" ry="18"/>
<text text-anchor="middle" x="497" y="-229.8" font-family="Times,serif" font-size="14.00">GO:0044260</text>
</a>
</g>
<!-- n0&#45;&gt;r0 -->
<g id="edge26" class="edge"><title>n0&#45;&gt;r0</title>
<path fill="none" stroke="black" d="M385.902,-290.155C406.933,-279.714 435.275,-265.644 458.069,-254.328"/>
<polygon fill="black" stroke="black" points="459.74,-257.405 467.141,-249.824 456.627,-251.136 459.74,-257.405"/>
</g>
<!-- p0 -->
<g id="node50" class="node"><title>p0</title>
<a xlink:href="0019538" xlink:title="GO:0019538">
<ellipse fill="#dddddd" stroke="#dddddd" cx="356" cy="-234" rx="61.1934" ry="18"/>
<text text-anchor="middle" x="356" y="-229.8" font-family="Times,serif" font-size="14.00">GO:0019538</text>
</a>
</g>
<!-- n0&#45;&gt;p0 -->
<g id="edge46" class="edge"><title>n0&#45;&gt;p0</title>
<path fill="none" stroke="black" d="M356,-287.697C356,-279.983 356,-270.712 356,-262.112"/>
<polygon fill="black" stroke="black" points="359.5,-262.104 356,-252.104 352.5,-262.104 359.5,-262.104"/>
</g>
<!-- o0 -->
<g id="node69" class="node"><title>o0</title>
<a xlink:href="0044267" xlink:title="GO:0044267">
<ellipse fill="#dddddd" stroke="#dddddd" cx="471" cy="-162" rx="61.1934" ry="18"/>
<text text-anchor="middle" x="471" y="-157.8" font-family="Times,serif" font-size="14.00">GO:0044267</text>
</a>
</g>
<!-- r0&#45;&gt;o0 -->
<g id="edge90" class="edge"><title>r0&#45;&gt;o0</title>
<path fill="none" stroke="black" d="M490.706,-216.055C487.78,-208.176 484.229,-198.617 480.952,-189.794"/>
<polygon fill="black" stroke="black" points="484.179,-188.431 477.417,-180.275 477.617,-190.868 484.179,-188.431"/>
</g>
<!-- i0&#45;&gt;g1 -->
<g id="edge72" class="edge"><title>i0&#45;&gt;g1</title>
<path fill="none" stroke="black" d="M452.464,-293.562C443.726,-291.538 434.602,-289.576 426,-288 302.152,-265.308 268.848,-274.692 145,-252 139.623,-251.015 134.044,-249.879 128.481,-248.672"/>
<polygon fill="black" stroke="black" points="129.06,-245.215 118.536,-246.438 127.526,-252.044 129.06,-245.215"/>
</g>
<!-- i0&#45;&gt;r0 -->
<g id="edge28" class="edge"><title>i0&#45;&gt;r0</title>
<path fill="none" stroke="black" d="M497,-287.697C497,-279.983 497,-270.712 497,-262.112"/>
<polygon fill="black" stroke="black" points="500.5,-262.104 497,-252.104 493.5,-262.104 500.5,-262.104"/>
</g>
<!-- h0 -->
<g id="node41" class="node"><title>h0</title>
<a xlink:href="0006793" xlink:title="GO:0006793 (2)">
<ellipse fill="#e98576" stroke="#e98576" cx="652" cy="-234" rx="75.2018" ry="18"/>
<text text-anchor="middle" x="652" y="-229.8" font-family="Times,serif" font-size="14.00">GO:0006793 (2)</text>
</a>
</g>
<!-- i0&#45;&gt;h0 -->
<g id="edge36" class="edge"><title>i0&#45;&gt;h0</title>
<path fill="none" stroke="black" d="M529.116,-290.496C552.233,-280.056 583.667,-265.86 608.956,-254.439"/>
<polygon fill="black" stroke="black" points="610.643,-257.518 618.317,-250.212 607.762,-251.138 610.643,-257.518"/>
</g>
<!-- e0 -->
<g id="node38" class="node"><title>e0</title>
<a xlink:href="0050789" xlink:title="GO:0050789 (4)">
<ellipse fill="#e98576" stroke="#e98576" cx="1644" cy="-306" rx="75.2018" ry="18"/>
<text text-anchor="middle" x="1644" y="-301.8" font-family="Times,serif" font-size="14.00">GO:0050789 (4)</text>
</a>
</g>
<!-- f0&#45;&gt;e0 -->
<g id="edge32" class="edge"><title>f0&#45;&gt;e0</title>
<path fill="none" stroke="black" d="M1634.21,-359.697C1635.65,-351.983 1637.37,-342.712 1638.96,-334.112"/>
<polygon fill="black" stroke="black" points="1642.44,-334.575 1640.82,-324.104 1635.56,-333.297 1642.44,-334.575"/>
</g>
<!-- a1 -->
<g id="node62" class="node"><title>a1</title>
<a xlink:href="0065008" xlink:title="GO:0065008 (1)">
<ellipse fill="#e98576" stroke="#e98576" cx="1812" cy="-306" rx="75.2018" ry="18"/>
<text text-anchor="middle" x="1812" y="-301.8" font-family="Times,serif" font-size="14.00">GO:0065008 (1)</text>
</a>
</g>
<!-- f0&#45;&gt;a1 -->
<g id="edge62" class="edge"><title>f0&#45;&gt;a1</title>
<path fill="none" stroke="black" d="M1666.76,-363.17C1694.74,-352.348 1733.91,-337.201 1764.52,-325.363"/>
<polygon fill="black" stroke="black" points="1766.07,-328.517 1774.13,-321.646 1763.54,-321.988 1766.07,-328.517"/>
</g>
<!-- e1 -->
<g id="node64" class="node"><title>e1</title>
<a xlink:href="0006351" xlink:title="GO:0006351 (1)">
<ellipse fill="#e98576" stroke="#e98576" cx="131" cy="-18" rx="75.2018" ry="18"/>
<text text-anchor="middle" x="131" y="-13.8" font-family="Times,serif" font-size="14.00">GO:0006351 (1)</text>
</a>
</g>
<!-- f1&#45;&gt;e1 -->
<g id="edge64" class="edge"><title>f1&#45;&gt;e1</title>
<path fill="none" stroke="black" d="M77.589,-72.411C86.3521,-63.6479 97.2678,-52.7322 106.943,-43.0569"/>
<polygon fill="black" stroke="black" points="109.448,-45.5022 114.044,-35.9562 104.498,-40.5524 109.448,-45.5022"/>
</g>
<!-- p0&#45;&gt;o0 -->
<g id="edge88" class="edge"><title>p0&#45;&gt;o0</title>
<path fill="none" stroke="black" d="M381.522,-217.465C397.751,-207.586 418.963,-194.675 436.66,-183.903"/>
<polygon fill="black" stroke="black" points="438.827,-186.681 445.549,-178.492 435.187,-180.702 438.827,-186.681"/>
</g>
<!-- q0&#45;&gt;g1 -->
<g id="edge74" class="edge"><title>q0&#45;&gt;g1</title>
<path fill="none" stroke="black" d="M185.098,-290.155C164.067,-279.714 135.725,-265.644 112.931,-254.328"/>
<polygon fill="black" stroke="black" points="114.373,-251.136 103.859,-249.824 111.26,-257.405 114.373,-251.136"/>
</g>
<!-- q0&#45;&gt;p0 -->
<g id="edge48" class="edge"><title>q0&#45;&gt;p0</title>
<path fill="none" stroke="black" d="M244.902,-290.155C265.933,-279.714 294.275,-265.644 317.069,-254.328"/>
<polygon fill="black" stroke="black" points="318.74,-257.405 326.141,-249.824 315.627,-251.136 318.74,-257.405"/>
</g>
<!-- h1&#45;&gt;e1 -->
<g id="edge66" class="edge"><title>h1&#45;&gt;e1</title>
<path fill="none" stroke="black" d="M185.174,-72.411C176.286,-63.6479 165.214,-52.7322 155.401,-43.0569"/>
<polygon fill="black" stroke="black" points="157.777,-40.4846 148.198,-35.9562 152.862,-45.4694 157.777,-40.4846"/>
</g>
<!-- o0&#45;&gt;k0 -->
<g id="edge70" class="edge"><title>o0&#45;&gt;k0</title>
<path fill="none" stroke="black" d="M457.492,-144.411C450.566,-135.906 441.989,-125.372 434.287,-115.914"/>
<polygon fill="black" stroke="black" points="436.836,-113.501 427.807,-107.956 431.407,-117.921 436.836,-113.501"/>
</g>
</g>
</svg>
