<?xml version="1.0" encoding="UTF-8" standalone="no"?>
<!DOCTYPE svg PUBLIC "-//W3C//DTD SVG 1.1//EN"
 "http://www.w3.org/Graphics/SVG/1.1/DTD/svg11.dtd">
<!-- Generated by graphviz version 2.28.0 (20110622.2320)
 -->
<!-- Title: G Pages: 1 -->
<svg width="1489pt" height="404pt"
 viewBox="0.00 0.00 1489.00 404.00" xmlns="http://www.w3.org/2000/svg" xmlns:xlink="http://www.w3.org/1999/xlink">
<g id="graph1" class="graph" transform="scale(1 1) rotate(0) translate(4 400)">
<title>G</title>
<polygon fill="white" stroke="white" points="-4,5 -4,-400 1486,-400 1486,5 -4,5"/>
<!-- p0 -->
<g id="node1" class="node"><title>p0</title>
<a xlink:href="0016874" xlink:title="GO:0016874">
<ellipse fill="#dddddd" stroke="#dddddd" cx="75" cy="-234" rx="61.1934" ry="18"/>
<text text-anchor="middle" x="75" y="-229.8" font-family="Times,serif" font-size="14.00">GO:0016874</text>
</a>
</g>
<!-- o0 -->
<g id="node3" class="node"><title>o0</title>
<a xlink:href="0016879" xlink:title="GO:0016879">
<ellipse fill="#dddddd" stroke="#dddddd" cx="75" cy="-162" rx="61.1934" ry="18"/>
<text text-anchor="middle" x="75" y="-157.8" font-family="Times,serif" font-size="14.00">GO:0016879</text>
</a>
</g>
<!-- p0&#45;&gt;o0 -->
<g id="edge2" class="edge"><title>p0&#45;&gt;o0</title>
<path fill="none" stroke="black" d="M75,-215.697C75,-207.983 75,-198.712 75,-190.112"/>
<polygon fill="black" stroke="black" points="78.5001,-190.104 75,-180.104 71.5001,-190.104 78.5001,-190.104"/>
</g>
<!-- n0 -->
<g id="node4" class="node"><title>n0</title>
<a xlink:href="0016881" xlink:title="GO:0016881">
<ellipse fill="#dddddd" stroke="#dddddd" cx="75" cy="-90" rx="61.1934" ry="18"/>
<text text-anchor="middle" x="75" y="-85.8" font-family="Times,serif" font-size="14.00">GO:0016881</text>
</a>
</g>
<!-- o0&#45;&gt;n0 -->
<g id="edge24" class="edge"><title>o0&#45;&gt;n0</title>
<path fill="none" stroke="black" d="M75,-143.697C75,-135.983 75,-126.712 75,-118.112"/>
<polygon fill="black" stroke="black" points="78.5001,-118.104 75,-108.104 71.5001,-118.104 78.5001,-118.104"/>
</g>
<!-- m0 -->
<g id="node6" class="node"><title>m0</title>
<a xlink:href="0019787" xlink:title="GO:0019787 (1)">
<ellipse fill="#e98576" stroke="#e98576" cx="75" cy="-18" rx="75.2018" ry="18"/>
<text text-anchor="middle" x="75" y="-13.8" font-family="Times,serif" font-size="14.00">GO:0019787 (1)</text>
</a>
</g>
<!-- n0&#45;&gt;m0 -->
<g id="edge4" class="edge"><title>n0&#45;&gt;m0</title>
<path fill="none" stroke="black" d="M75,-71.6966C75,-63.9827 75,-54.7125 75,-46.1124"/>
<polygon fill="black" stroke="black" points="78.5001,-46.1043 75,-36.1043 71.5001,-46.1044 78.5001,-46.1043"/>
</g>
<!-- c0 -->
<g id="node7" class="node"><title>c0</title>
<a xlink:href="0003674" xlink:title="GO:0003674">
<ellipse fill="#dddddd" stroke="#dddddd" cx="1063" cy="-378" rx="61.1934" ry="18"/>
<text text-anchor="middle" x="1063" y="-373.8" font-family="Times,serif" font-size="14.00">GO:0003674</text>
</a>
</g>
<!-- g0 -->
<g id="node9" class="node"><title>g0</title>
<a xlink:href="0003824" xlink:title="GO:0003824">
<ellipse fill="#dddddd" stroke="#dddddd" cx="398" cy="-306" rx="61.1934" ry="18"/>
<text text-anchor="middle" x="398" y="-301.8" font-family="Times,serif" font-size="14.00">GO:0003824</text>
</a>
</g>
<!-- c0&#45;&gt;g0 -->
<g id="edge6" class="edge"><title>c0&#45;&gt;g0</title>
<path fill="none" stroke="black" d="M1006.3,-371.032C883.978,-358.156 595.789,-327.82 464.84,-314.036"/>
<polygon fill="black" stroke="black" points="464.865,-310.519 454.554,-312.953 464.133,-317.481 464.865,-310.519"/>
</g>
<!-- b0 -->
<g id="node10" class="node"><title>b0</title>
<a xlink:href="0005488" xlink:title="GO:0005488">
<ellipse fill="#dddddd" stroke="#dddddd" cx="986" cy="-306" rx="61.1934" ry="18"/>
<text text-anchor="middle" x="986" y="-301.8" font-family="Times,serif" font-size="14.00">GO:0005488</text>
</a>
</g>
<!-- c0&#45;&gt;b0 -->
<g id="edge14" class="edge"><title>c0&#45;&gt;b0</title>
<path fill="none" stroke="black" d="M1045.14,-360.765C1035.2,-351.73 1022.66,-340.326 1011.68,-330.349"/>
<polygon fill="black" stroke="black" points="1013.78,-327.527 1004.03,-323.39 1009.07,-332.706 1013.78,-327.527"/>
</g>
<!-- q0 -->
<g id="node16" class="node"><title>q0</title>
<a xlink:href="0003774" xlink:title="GO:0003774 (1)">
<ellipse fill="#e98576" stroke="#e98576" cx="1141" cy="-306" rx="75.2018" ry="18"/>
<text text-anchor="middle" x="1141" y="-301.8" font-family="Times,serif" font-size="14.00">GO:0003774 (1)</text>
</a>
</g>
<!-- c0&#45;&gt;q0 -->
<g id="edge12" class="edge"><title>c0&#45;&gt;q0</title>
<path fill="none" stroke="black" d="M1081.09,-360.765C1091.09,-351.795 1103.68,-340.49 1114.74,-330.564"/>
<polygon fill="black" stroke="black" points="1117.36,-332.917 1122.47,-323.633 1112.69,-327.708 1117.36,-332.917"/>
</g>
<!-- i0 -->
<g id="node35" class="node"><title>i0</title>
<a xlink:href="0005198" xlink:title="GO:0005198 (2)">
<ellipse fill="#e98576" stroke="#e98576" cx="1309" cy="-306" rx="75.2018" ry="18"/>
<text text-anchor="middle" x="1309" y="-301.8" font-family="Times,serif" font-size="14.00">GO:0005198 (2)</text>
</a>
</g>
<!-- c0&#45;&gt;i0 -->
<g id="edge34" class="edge"><title>c0&#45;&gt;i0</title>
<path fill="none" stroke="black" d="M1105.29,-364.967C1146.03,-353.374 1207.92,-335.762 1252.79,-322.994"/>
<polygon fill="black" stroke="black" points="1254,-326.288 1262.66,-320.185 1252.09,-319.555 1254,-326.288"/>
</g>
<!-- g0&#45;&gt;p0 -->
<g id="edge28" class="edge"><title>g0&#45;&gt;p0</title>
<path fill="none" stroke="black" d="M349.132,-295.14C298.299,-284.786 216.444,-267.838 146,-252 141.027,-250.882 135.863,-249.695 130.693,-248.49"/>
<polygon fill="black" stroke="black" points="131.324,-245.043 120.788,-246.16 129.722,-251.857 131.324,-245.043"/>
</g>
<!-- f0 -->
<g id="node18" class="node"><title>f0</title>
<a xlink:href="0016787" xlink:title="GO:0016787 (2)">
<ellipse fill="#e98576" stroke="#e98576" cx="230" cy="-234" rx="75.2018" ry="18"/>
<text text-anchor="middle" x="230" y="-229.8" font-family="Times,serif" font-size="14.00">GO:0016787 (2)</text>
</a>
</g>
<!-- g0&#45;&gt;f0 -->
<g id="edge22" class="edge"><title>g0&#45;&gt;f0</title>
<path fill="none" stroke="black" d="M364.003,-290.834C338.444,-280.185 303.175,-265.49 275.235,-253.848"/>
<polygon fill="black" stroke="black" points="276.263,-250.485 265.686,-249.869 273.571,-256.946 276.263,-250.485"/>
</g>
<!-- k0 -->
<g id="node21" class="node"><title>k0</title>
<a xlink:href="0016491" xlink:title="GO:0016491 (1)">
<ellipse fill="#e98576" stroke="#e98576" cx="398" cy="-234" rx="75.2018" ry="18"/>
<text text-anchor="middle" x="398" y="-229.8" font-family="Times,serif" font-size="14.00">GO:0016491 (1)</text>
</a>
</g>
<!-- g0&#45;&gt;k0 -->
<g id="edge30" class="edge"><title>g0&#45;&gt;k0</title>
<path fill="none" stroke="black" d="M398,-287.697C398,-279.983 398,-270.712 398,-262.112"/>
<polygon fill="black" stroke="black" points="401.5,-262.104 398,-252.104 394.5,-262.104 401.5,-262.104"/>
</g>
<!-- l0 -->
<g id="node29" class="node"><title>l0</title>
<a xlink:href="0016740" xlink:title="GO:0016740 (1)">
<ellipse fill="#e98576" stroke="#e98576" cx="566" cy="-234" rx="75.2018" ry="18"/>
<text text-anchor="middle" x="566" y="-229.8" font-family="Times,serif" font-size="14.00">GO:0016740 (1)</text>
</a>
</g>
<!-- g0&#45;&gt;l0 -->
<g id="edge26" class="edge"><title>g0&#45;&gt;l0</title>
<path fill="none" stroke="black" d="M431.997,-290.834C457.556,-280.185 492.825,-265.49 520.765,-253.848"/>
<polygon fill="black" stroke="black" points="522.429,-256.946 530.314,-249.869 519.737,-250.485 522.429,-256.946"/>
</g>
<!-- h0 -->
<g id="node12" class="node"><title>h0</title>
<a xlink:href="0001882" xlink:title="GO:0001882 (2)">
<ellipse fill="#e98576" stroke="#e98576" cx="734" cy="-234" rx="75.2018" ry="18"/>
<text text-anchor="middle" x="734" y="-229.8" font-family="Times,serif" font-size="14.00">GO:0001882 (2)</text>
</a>
</g>
<!-- b0&#45;&gt;h0 -->
<g id="edge8" class="edge"><title>b0&#45;&gt;h0</title>
<path fill="none" stroke="black" d="M942.966,-293.046C901.057,-281.405 837.105,-263.64 790.988,-250.83"/>
<polygon fill="black" stroke="black" points="791.713,-247.399 781.141,-248.095 789.839,-254.143 791.713,-247.399"/>
</g>
<!-- a0 -->
<g id="node14" class="node"><title>a0</title>
<a xlink:href="0005515" xlink:title="GO:0005515 (6)">
<ellipse fill="#e98576" stroke="#e98576" cx="902" cy="-234" rx="75.2018" ry="18"/>
<text text-anchor="middle" x="902" y="-229.8" font-family="Times,serif" font-size="14.00">GO:0005515 (6)</text>
</a>
</g>
<!-- b0&#45;&gt;a0 -->
<g id="edge10" class="edge"><title>b0&#45;&gt;a0</title>
<path fill="none" stroke="black" d="M966.518,-288.765C955.57,-279.642 941.725,-268.105 929.67,-258.059"/>
<polygon fill="black" stroke="black" points="931.591,-255.103 921.668,-251.39 927.109,-260.48 931.591,-255.103"/>
</g>
<!-- d0 -->
<g id="node25" class="node"><title>d0</title>
<a xlink:href="0043167" xlink:title="GO:0043167 (5)">
<ellipse fill="#e98576" stroke="#e98576" cx="1070" cy="-234" rx="75.2018" ry="18"/>
<text text-anchor="middle" x="1070" y="-229.8" font-family="Times,serif" font-size="14.00">GO:0043167 (5)</text>
</a>
</g>
<!-- b0&#45;&gt;d0 -->
<g id="edge20" class="edge"><title>b0&#45;&gt;d0</title>
<path fill="none" stroke="black" d="M1005.48,-288.765C1016.43,-279.642 1030.27,-268.105 1042.33,-258.059"/>
<polygon fill="black" stroke="black" points="1044.89,-260.48 1050.33,-251.39 1040.41,-255.103 1044.89,-260.48"/>
</g>
<!-- e0 -->
<g id="node33" class="node"><title>e0</title>
<a xlink:href="0000166" xlink:title="GO:0000166 (3)">
<ellipse fill="#e98576" stroke="#e98576" cx="1238" cy="-234" rx="75.2018" ry="18"/>
<text text-anchor="middle" x="1238" y="-229.8" font-family="Times,serif" font-size="14.00">GO:0000166 (3)</text>
</a>
</g>
<!-- b0&#45;&gt;e0 -->
<g id="edge32" class="edge"><title>b0&#45;&gt;e0</title>
<path fill="none" stroke="black" d="M1029.03,-293.046C1070.94,-281.405 1134.9,-263.64 1181.01,-250.83"/>
<polygon fill="black" stroke="black" points="1182.16,-254.143 1190.86,-248.095 1180.29,-247.399 1182.16,-254.143"/>
</g>
<!-- r0 -->
<g id="node37" class="node"><title>r0</title>
<a xlink:href="0048037" xlink:title="GO:0048037 (1)">
<ellipse fill="#e98576" stroke="#e98576" cx="1406" cy="-234" rx="75.2018" ry="18"/>
<text text-anchor="middle" x="1406" y="-229.8" font-family="Times,serif" font-size="14.00">GO:0048037 (1)</text>
</a>
</g>
<!-- b0&#45;&gt;r0 -->
<g id="edge36" class="edge"><title>b0&#45;&gt;r0</title>
<path fill="none" stroke="black" d="M1030.55,-293.615C1039.28,-291.585 1048.4,-289.609 1057,-288 1173.83,-266.134 1204.8,-271.799 1322,-252 1328.51,-250.901 1335.28,-249.673 1342.03,-248.393"/>
<polygon fill="black" stroke="black" points="1342.72,-251.824 1351.87,-246.49 1341.39,-244.952 1342.72,-251.824"/>
</g>
<!-- s0 -->
<g id="node20" class="node"><title>s0</title>
<a xlink:href="0008233" xlink:title="GO:0008233 (1)">
<ellipse fill="#e98576" stroke="#e98576" cx="230" cy="-162" rx="75.2018" ry="18"/>
<text text-anchor="middle" x="230" y="-157.8" font-family="Times,serif" font-size="14.00">GO:0008233 (1)</text>
</a>
</g>
<!-- f0&#45;&gt;s0 -->
<g id="edge16" class="edge"><title>f0&#45;&gt;s0</title>
<path fill="none" stroke="black" d="M230,-215.697C230,-207.983 230,-198.712 230,-190.112"/>
<polygon fill="black" stroke="black" points="233.5,-190.104 230,-180.104 226.5,-190.104 233.5,-190.104"/>
</g>
<!-- j0 -->
<g id="node23" class="node"><title>j0</title>
<a xlink:href="0004497" xlink:title="GO:0004497 (1)">
<ellipse fill="#e98576" stroke="#e98576" cx="398" cy="-162" rx="75.2018" ry="18"/>
<text text-anchor="middle" x="398" y="-157.8" font-family="Times,serif" font-size="14.00">GO:0004497 (1)</text>
</a>
</g>
<!-- k0&#45;&gt;j0 -->
<g id="edge18" class="edge"><title>k0&#45;&gt;j0</title>
<path fill="none" stroke="black" d="M398,-215.697C398,-207.983 398,-198.712 398,-190.112"/>
<polygon fill="black" stroke="black" points="401.5,-190.104 398,-180.104 394.5,-190.104 401.5,-190.104"/>
</g>
</g>
</svg>
