<?xml version="1.0" encoding="UTF-8" standalone="no"?>
<!DOCTYPE svg PUBLIC "-//W3C//DTD SVG 1.1//EN"
 "http://www.w3.org/Graphics/SVG/1.1/DTD/svg11.dtd">
<!-- Generated by graphviz version 2.28.0 (20110622.2320)
 -->
<!-- Title: G Pages: 1 -->
<svg width="5874pt" height="404pt"
 viewBox="0.00 0.00 5874.00 404.00" xmlns="http://www.w3.org/2000/svg" xmlns:xlink="http://www.w3.org/1999/xlink">
<g id="graph1" class="graph" transform="scale(1 1) rotate(0) translate(4 400)">
<title>G</title>
<polygon fill="white" stroke="white" points="-4,5 -4,-400 5871,-400 5871,5 -4,5"/>
<!-- c0 -->
<g id="node1" class="node"><title>c0</title>
<a xlink:href="0003674" xlink:title="GO:0003674 (33)">
<ellipse fill="#e98576" stroke="#e98576" cx="3962" cy="-378" rx="79.4447" ry="18"/>
<text text-anchor="middle" x="3962" y="-373.8" font-family="Times,serif" font-size="14.00">GO:0003674 (33)</text>
</a>
</g>
<!-- o1 -->
<g id="node3" class="node"><title>o1</title>
<a xlink:href="0045182" xlink:title="GO:0045182 (3)">
<ellipse fill="#e98576" stroke="#e98576" cx="799" cy="-306" rx="75.2018" ry="18"/>
<text text-anchor="middle" x="799" y="-301.8" font-family="Times,serif" font-size="14.00">GO:0045182 (3)</text>
</a>
</g>
<!-- c0&#45;&gt;o1 -->
<g id="edge2" class="edge"><title>c0&#45;&gt;o1</title>
<path fill="none" stroke="black" d="M3882.66,-376.489C3430.59,-373.467 1189.54,-356.913 884,-324 876.613,-323.204 868.915,-322.083 861.299,-320.792"/>
<polygon fill="black" stroke="black" points="861.829,-317.331 851.368,-319.01 860.593,-324.221 861.829,-317.331"/>
</g>
<!-- i0 -->
<g id="node4" class="node"><title>i0</title>
<a xlink:href="0003824" xlink:title="GO:0003824">
<ellipse fill="#dddddd" stroke="#dddddd" cx="954" cy="-306" rx="61.1934" ry="18"/>
<text text-anchor="middle" x="954" y="-301.8" font-family="Times,serif" font-size="14.00">GO:0003824</text>
</a>
</g>
<!-- c0&#45;&gt;i0 -->
<g id="edge68" class="edge"><title>c0&#45;&gt;i0</title>
<path fill="none" stroke="black" d="M3883.47,-375.173C3457.78,-365.266 1430.99,-318.1 1024.92,-308.65"/>
<polygon fill="black" stroke="black" points="1024.87,-305.148 1014.79,-308.415 1024.7,-312.146 1024.87,-305.148"/>
</g>
<!-- l0 -->
<g id="node8" class="node"><title>l0</title>
<a xlink:href="0030234" xlink:title="GO:0030234 (32)">
<ellipse fill="#e98576" stroke="#e98576" cx="3359" cy="-306" rx="79.4447" ry="18"/>
<text text-anchor="middle" x="3359" y="-301.8" font-family="Times,serif" font-size="14.00">GO:0030234 (32)</text>
</a>
</g>
<!-- c0&#45;&gt;l0 -->
<g id="edge6" class="edge"><title>c0&#45;&gt;l0</title>
<path fill="none" stroke="black" d="M3887.7,-371.356C3787.53,-363.288 3603.77,-346.865 3448,-324 3440.83,-322.948 3433.36,-321.724 3425.93,-320.424"/>
<polygon fill="black" stroke="black" points="3426.31,-316.937 3415.85,-318.613 3425.07,-323.826 3426.31,-316.937"/>
</g>
<!-- b0 -->
<g id="node9" class="node"><title>b0</title>
<a xlink:href="0005488" xlink:title="GO:0005488 (7)">
<ellipse fill="#e98576" stroke="#e98576" cx="3532" cy="-306" rx="75.2018" ry="18"/>
<text text-anchor="middle" x="3532" y="-301.8" font-family="Times,serif" font-size="14.00">GO:0005488 (7)</text>
</a>
</g>
<!-- c0&#45;&gt;b0 -->
<g id="edge18" class="edge"><title>c0&#45;&gt;b0</title>
<path fill="none" stroke="black" d="M3896.16,-367.868C3826.44,-357.974 3713.23,-341.275 3616,-324 3609.75,-322.89 3603.25,-321.677 3596.76,-320.428"/>
<polygon fill="black" stroke="black" points="3597.09,-316.926 3586.6,-318.443 3595.75,-323.796 3597.09,-316.926"/>
</g>
<!-- b2 -->
<g id="node13" class="node"><title>b2</title>
<a xlink:href="0031386" xlink:title="GO:0031386 (1)">
<ellipse fill="#e98576" stroke="#e98576" cx="3700" cy="-306" rx="75.2018" ry="18"/>
<text text-anchor="middle" x="3700" y="-301.8" font-family="Times,serif" font-size="14.00">GO:0031386 (1)</text>
</a>
</g>
<!-- c0&#45;&gt;b2 -->
<g id="edge10" class="edge"><title>c0&#45;&gt;b2</title>
<path fill="none" stroke="black" d="M3912.72,-363.834C3868.8,-352.1 3804.49,-334.917 3758.08,-322.519"/>
<polygon fill="black" stroke="black" points="3758.74,-319.071 3748.17,-319.871 3756.93,-325.834 3758.74,-319.071"/>
</g>
<!-- n0 -->
<g id="node29" class="node"><title>n0</title>
<a xlink:href="0005215" xlink:title="GO:0005215 (23)">
<ellipse fill="#e98576" stroke="#e98576" cx="3873" cy="-306" rx="79.4447" ry="18"/>
<text text-anchor="middle" x="3873" y="-301.8" font-family="Times,serif" font-size="14.00">GO:0005215 (23)</text>
</a>
</g>
<!-- c0&#45;&gt;n0 -->
<g id="edge26" class="edge"><title>c0&#45;&gt;n0</title>
<path fill="none" stroke="black" d="M3940.91,-360.411C3929.27,-351.257 3914.65,-339.755 3901.95,-329.772"/>
<polygon fill="black" stroke="black" points="3903.96,-326.901 3893.94,-323.47 3899.64,-332.403 3903.96,-326.901"/>
</g>
<!-- k0 -->
<g id="node48" class="node"><title>k0</title>
<a xlink:href="0005198" xlink:title="GO:0005198 (47)">
<ellipse fill="#e98576" stroke="#e98576" cx="4051" cy="-306" rx="79.4447" ry="18"/>
<text text-anchor="middle" x="4051" y="-301.8" font-family="Times,serif" font-size="14.00">GO:0005198 (47)</text>
</a>
</g>
<!-- c0&#45;&gt;k0 -->
<g id="edge46" class="edge"><title>c0&#45;&gt;k0</title>
<path fill="none" stroke="black" d="M3983.09,-360.411C3994.73,-351.257 4009.35,-339.755 4022.05,-329.772"/>
<polygon fill="black" stroke="black" points="4024.36,-332.403 4030.06,-323.47 4020.04,-326.901 4024.36,-332.403"/>
</g>
<!-- q1 -->
<g id="node52" class="node"><title>q1</title>
<a xlink:href="0042056" xlink:title="GO:0042056 (3)">
<ellipse fill="#e98576" stroke="#e98576" cx="4224" cy="-306" rx="75.2018" ry="18"/>
<text text-anchor="middle" x="4224" y="-301.8" font-family="Times,serif" font-size="14.00">GO:0042056 (3)</text>
</a>
</g>
<!-- c0&#45;&gt;q1 -->
<g id="edge50" class="edge"><title>c0&#45;&gt;q1</title>
<path fill="none" stroke="black" d="M4011.28,-363.834C4055.2,-352.1 4119.51,-334.917 4165.92,-322.519"/>
<polygon fill="black" stroke="black" points="4167.07,-325.834 4175.83,-319.871 4165.26,-319.071 4167.07,-325.834"/>
</g>
<!-- c2 -->
<g id="node77" class="node"><title>c2</title>
<a xlink:href="0016530" xlink:title="GO:0016530 (1)">
<ellipse fill="#e98576" stroke="#e98576" cx="4392" cy="-306" rx="75.2018" ry="18"/>
<text text-anchor="middle" x="4392" y="-301.8" font-family="Times,serif" font-size="14.00">GO:0016530 (1)</text>
</a>
</g>
<!-- c0&#45;&gt;c2 -->
<g id="edge74" class="edge"><title>c0&#45;&gt;c2</title>
<path fill="none" stroke="black" d="M4027.84,-367.868C4097.56,-357.974 4210.77,-341.275 4308,-324 4314.25,-322.89 4320.75,-321.677 4327.24,-320.428"/>
<polygon fill="black" stroke="black" points="4328.25,-323.796 4337.4,-318.443 4326.91,-316.926 4328.25,-323.796"/>
</g>
<!-- h1 -->
<g id="node83" class="node"><title>h1</title>
<a xlink:href="0003774" xlink:title="GO:0003774 (6)">
<ellipse fill="#e98576" stroke="#e98576" cx="4560" cy="-306" rx="75.2018" ry="18"/>
<text text-anchor="middle" x="4560" y="-301.8" font-family="Times,serif" font-size="14.00">GO:0003774 (6)</text>
</a>
</g>
<!-- c0&#45;&gt;h1 -->
<g id="edge80" class="edge"><title>c0&#45;&gt;h1</title>
<path fill="none" stroke="black" d="M4036.34,-371.609C4136.55,-363.824 4320.36,-347.717 4476,-324 4482.62,-322.991 4489.51,-321.811 4496.37,-320.552"/>
<polygon fill="black" stroke="black" points="4497.19,-323.959 4506.36,-318.661 4495.89,-317.081 4497.19,-323.959"/>
</g>
<!-- q0 -->
<g id="node84" class="node"><title>q0</title>
<a xlink:href="0060089" xlink:title="GO:0060089">
<ellipse fill="#dddddd" stroke="#dddddd" cx="4715" cy="-306" rx="61.1934" ry="18"/>
<text text-anchor="middle" x="4715" y="-301.8" font-family="Times,serif" font-size="14.00">GO:0060089</text>
</a>
</g>
<!-- c0&#45;&gt;q0 -->
<g id="edge108" class="edge"><title>c0&#45;&gt;q0</title>
<path fill="none" stroke="black" d="M4040.46,-374.914C4167.81,-370.63 4427.12,-358.174 4644,-324 4649.69,-323.103 4655.61,-321.988 4661.48,-320.76"/>
<polygon fill="black" stroke="black" points="4662.27,-324.172 4671.28,-318.608 4660.76,-317.334 4662.27,-324.172"/>
</g>
<!-- c1 -->
<g id="node89" class="node"><title>c1</title>
<a xlink:href="0016209" xlink:title="GO:0016209 (7)">
<ellipse fill="#e98576" stroke="#e98576" cx="4870" cy="-306" rx="75.2018" ry="18"/>
<text text-anchor="middle" x="4870" y="-301.8" font-family="Times,serif" font-size="14.00">GO:0016209 (7)</text>
</a>
</g>
<!-- c0&#45;&gt;c1 -->
<g id="edge86" class="edge"><title>c0&#45;&gt;c1</title>
<path fill="none" stroke="black" d="M4040.92,-375.408C4187.91,-371.669 4513.34,-359.752 4785,-324 4792.08,-323.069 4799.45,-321.899 4806.77,-320.61"/>
<polygon fill="black" stroke="black" points="4807.47,-324.04 4816.68,-318.792 4806.21,-317.155 4807.47,-324.04"/>
</g>
<!-- u0 -->
<g id="node6" class="node"><title>u0</title>
<a xlink:href="0016853" xlink:title="GO:0016853 (13)">
<ellipse fill="#e98576" stroke="#e98576" cx="79" cy="-234" rx="79.4447" ry="18"/>
<text text-anchor="middle" x="79" y="-229.8" font-family="Times,serif" font-size="14.00">GO:0016853 (13)</text>
</a>
</g>
<!-- i0&#45;&gt;u0 -->
<g id="edge4" class="edge"><title>i0&#45;&gt;u0</title>
<path fill="none" stroke="black" d="M910.31,-293.202C901.336,-291.157 891.908,-289.279 883,-288 568.052,-242.762 483.91,-289.939 168,-252 160.423,-251.09 152.521,-249.914 144.69,-248.606"/>
<polygon fill="black" stroke="black" points="145.29,-245.158 134.838,-246.889 144.088,-252.054 145.29,-245.158"/>
</g>
<!-- h0 -->
<g id="node23" class="node"><title>h0</title>
<a xlink:href="0016787" xlink:title="GO:0016787 (63)">
<ellipse fill="#e98576" stroke="#e98576" cx="257" cy="-234" rx="79.4447" ry="18"/>
<text text-anchor="middle" x="257" y="-229.8" font-family="Times,serif" font-size="14.00">GO:0016787 (63)</text>
</a>
</g>
<!-- i0&#45;&gt;h0 -->
<g id="edge32" class="edge"><title>i0&#45;&gt;h0</title>
<path fill="none" stroke="black" d="M910.293,-293.318C901.32,-291.264 891.897,-289.353 883,-288 646.519,-252.023 583.25,-282.496 346,-252 338.623,-251.052 330.935,-249.874 323.303,-248.584"/>
<polygon fill="black" stroke="black" points="323.787,-245.115 313.332,-246.832 322.576,-252.01 323.787,-245.115"/>
</g>
<!-- w0 -->
<g id="node40" class="node"><title>w0</title>
<a xlink:href="0016874" xlink:title="GO:0016874 (10)">
<ellipse fill="#e98576" stroke="#e98576" cx="435" cy="-234" rx="79.4447" ry="18"/>
<text text-anchor="middle" x="435" y="-229.8" font-family="Times,serif" font-size="14.00">GO:0016874 (10)</text>
</a>
</g>
<!-- i0&#45;&gt;w0 -->
<g id="edge38" class="edge"><title>i0&#45;&gt;w0</title>
<path fill="none" stroke="black" d="M909.877,-293.46C901.021,-291.42 891.748,-289.479 883,-288 724.888,-261.269 682.688,-275.066 524,-252 516.829,-250.958 509.358,-249.74 501.926,-248.444"/>
<polygon fill="black" stroke="black" points="502.308,-244.957 491.847,-246.637 501.073,-251.847 502.308,-244.957"/>
</g>
<!-- m0 -->
<g id="node44" class="node"><title>m0</title>
<a xlink:href="0016491" xlink:title="GO:0016491 (31)">
<ellipse fill="#e98576" stroke="#e98576" cx="613" cy="-234" rx="79.4447" ry="18"/>
<text text-anchor="middle" x="613" y="-229.8" font-family="Times,serif" font-size="14.00">GO:0016491 (31)</text>
</a>
</g>
<!-- i0&#45;&gt;m0 -->
<g id="edge42" class="edge"><title>i0&#45;&gt;m0</title>
<path fill="none" stroke="black" d="M908.612,-293.839C900.115,-291.833 891.298,-289.807 883,-288 845.485,-279.83 748.626,-261.023 681.741,-248.159"/>
<polygon fill="black" stroke="black" points="682.17,-244.678 671.69,-246.227 680.849,-251.552 682.17,-244.678"/>
</g>
<!-- k1 -->
<g id="node46" class="node"><title>k1</title>
<a xlink:href="0004386" xlink:title="GO:0004386 (4)">
<ellipse fill="#e98576" stroke="#e98576" cx="786" cy="-234" rx="75.2018" ry="18"/>
<text text-anchor="middle" x="786" y="-229.8" font-family="Times,serif" font-size="14.00">GO:0004386 (4)</text>
</a>
</g>
<!-- i0&#45;&gt;k1 -->
<g id="edge44" class="edge"><title>i0&#45;&gt;k1</title>
<path fill="none" stroke="black" d="M920.003,-290.834C894.444,-280.185 859.175,-265.49 831.235,-253.848"/>
<polygon fill="black" stroke="black" points="832.263,-250.485 821.686,-249.869 829.571,-256.946 832.263,-250.485"/>
</g>
<!-- p1 -->
<g id="node70" class="node"><title>p1</title>
<a xlink:href="0008641" xlink:title="GO:0008641 (3)">
<ellipse fill="#e98576" stroke="#e98576" cx="954" cy="-234" rx="75.2018" ry="18"/>
<text text-anchor="middle" x="954" y="-229.8" font-family="Times,serif" font-size="14.00">GO:0008641 (3)</text>
</a>
</g>
<!-- i0&#45;&gt;p1 -->
<g id="edge66" class="edge"><title>i0&#45;&gt;p1</title>
<path fill="none" stroke="black" d="M954,-287.697C954,-279.983 954,-270.712 954,-262.112"/>
<polygon fill="black" stroke="black" points="957.5,-262.104 954,-252.104 950.5,-262.104 957.5,-262.104"/>
</g>
<!-- a2 -->
<g id="node95" class="node"><title>a2</title>
<a xlink:href="0009975" xlink:title="GO:0009975 (1)">
<ellipse fill="#e98576" stroke="#e98576" cx="1122" cy="-234" rx="75.2018" ry="18"/>
<text text-anchor="middle" x="1122" y="-229.8" font-family="Times,serif" font-size="14.00">GO:0009975 (1)</text>
</a>
</g>
<!-- i0&#45;&gt;a2 -->
<g id="edge92" class="edge"><title>i0&#45;&gt;a2</title>
<path fill="none" stroke="black" d="M987.997,-290.834C1013.56,-280.185 1048.82,-265.49 1076.76,-253.848"/>
<polygon fill="black" stroke="black" points="1078.43,-256.946 1086.31,-249.869 1075.74,-250.485 1078.43,-256.946"/>
</g>
<!-- j0 -->
<g id="node100" class="node"><title>j0</title>
<a xlink:href="0016740" xlink:title="GO:0016740 (58)">
<ellipse fill="#e98576" stroke="#e98576" cx="1295" cy="-234" rx="79.4447" ry="18"/>
<text text-anchor="middle" x="1295" y="-229.8" font-family="Times,serif" font-size="14.00">GO:0016740 (58)</text>
</a>
</g>
<!-- i0&#45;&gt;j0 -->
<g id="edge98" class="edge"><title>i0&#45;&gt;j0</title>
<path fill="none" stroke="black" d="M1002.86,-294.971C1062.06,-282.817 1162.1,-262.281 1228.35,-248.681"/>
<polygon fill="black" stroke="black" points="1229.19,-252.083 1238.28,-246.644 1227.78,-245.226 1229.19,-252.083"/>
</g>
<!-- g1 -->
<g id="node106" class="node"><title>g1</title>
<a xlink:href="0016829" xlink:title="GO:0016829 (6)">
<ellipse fill="#e98576" stroke="#e98576" cx="1468" cy="-234" rx="75.2018" ry="18"/>
<text text-anchor="middle" x="1468" y="-229.8" font-family="Times,serif" font-size="14.00">GO:0016829 (6)</text>
</a>
</g>
<!-- i0&#45;&gt;g1 -->
<g id="edge104" class="edge"><title>i0&#45;&gt;g1</title>
<path fill="none" stroke="black" d="M1011.09,-299.314C1093.48,-290.799 1250.39,-273.422 1383,-252 1389.69,-250.92 1396.65,-249.694 1403.59,-248.406"/>
<polygon fill="black" stroke="black" points="1404.52,-251.791 1413.7,-246.487 1403.22,-244.914 1404.52,-251.791"/>
</g>
<!-- i1 -->
<g id="node11" class="node"><title>i1</title>
<a xlink:href="0042277" xlink:title="GO:0042277 (6)">
<ellipse fill="#e98576" stroke="#e98576" cx="1636" cy="-234" rx="75.2018" ry="18"/>
<text text-anchor="middle" x="1636" y="-229.8" font-family="Times,serif" font-size="14.00">GO:0042277 (6)</text>
</a>
</g>
<!-- b0&#45;&gt;i1 -->
<g id="edge8" class="edge"><title>b0&#45;&gt;i1</title>
<path fill="none" stroke="black" d="M3479.63,-293.021C3468.89,-290.989 3457.62,-289.164 3447,-288 2683.84,-204.393 2483.06,-336.48 1720,-252 1712.88,-251.212 1705.47,-250.12 1698.13,-248.865"/>
<polygon fill="black" stroke="black" points="1698.66,-245.404 1688.2,-247.067 1697.42,-252.292 1698.66,-245.404"/>
</g>
<!-- z1 -->
<g id="node15" class="node"><title>z1</title>
<a xlink:href="0033218" xlink:title="GO:0033218 (1)">
<ellipse fill="#e98576" stroke="#e98576" cx="1804" cy="-234" rx="75.2018" ry="18"/>
<text text-anchor="middle" x="1804" y="-229.8" font-family="Times,serif" font-size="14.00">GO:0033218 (1)</text>
</a>
</g>
<!-- b0&#45;&gt;z1 -->
<g id="edge12" class="edge"><title>b0&#45;&gt;z1</title>
<path fill="none" stroke="black" d="M3479.63,-293.039C3468.89,-291.007 3457.62,-289.176 3447,-288 2758.13,-211.749 2576.78,-329.039 1888,-252 1880.88,-251.204 1873.47,-250.107 1866.13,-248.849"/>
<polygon fill="black" stroke="black" points="1866.66,-245.388 1856.2,-247.048 1865.42,-252.276 1866.66,-245.388"/>
</g>
<!-- a0 -->
<g id="node17" class="node"><title>a0</title>
<a xlink:href="0005515" xlink:title="GO:0005515 (213)">
<ellipse fill="#e98576" stroke="#e98576" cx="1982" cy="-234" rx="84.1886" ry="18"/>
<text text-anchor="middle" x="1982" y="-229.8" font-family="Times,serif" font-size="14.00">GO:0005515 (213)</text>
</a>
</g>
<!-- b0&#45;&gt;a0 -->
<g id="edge14" class="edge"><title>b0&#45;&gt;a0</title>
<path fill="none" stroke="black" d="M3479.62,-293.066C3468.88,-291.031 3457.62,-289.192 3447,-288 2841.26,-219.98 2682.34,-314.42 2076,-252 2067.7,-251.146 2059.03,-249.97 2050.46,-248.633"/>
<polygon fill="black" stroke="black" points="2050.9,-245.16 2040.47,-246.999 2049.77,-252.068 2050.9,-245.16"/>
</g>
<!-- v0 -->
<g id="node19" class="node"><title>v0</title>
<a xlink:href="0043021" xlink:title="GO:0043021 (11)">
<ellipse fill="#e98576" stroke="#e98576" cx="2165" cy="-234" rx="79.4447" ry="18"/>
<text text-anchor="middle" x="2165" y="-229.8" font-family="Times,serif" font-size="14.00">GO:0043021 (11)</text>
</a>
</g>
<!-- b0&#45;&gt;v0 -->
<g id="edge16" class="edge"><title>b0&#45;&gt;v0</title>
<path fill="none" stroke="black" d="M3479.62,-293.098C3468.88,-291.061 3457.62,-289.213 3447,-288 2919.97,-227.773 2781.29,-309.945 2254,-252 2246.3,-251.154 2238.28,-250.005 2230.33,-248.701"/>
<polygon fill="black" stroke="black" points="2230.79,-245.229 2220.34,-246.977 2229.6,-252.127 2230.79,-245.229"/>
</g>
<!-- m1 -->
<g id="node22" class="node"><title>m1</title>
<a xlink:href="0042562" xlink:title="GO:0042562 (4)">
<ellipse fill="#e98576" stroke="#e98576" cx="2338" cy="-234" rx="75.2018" ry="18"/>
<text text-anchor="middle" x="2338" y="-229.8" font-family="Times,serif" font-size="14.00">GO:0042562 (4)</text>
</a>
</g>
<!-- b0&#45;&gt;m1 -->
<g id="edge20" class="edge"><title>b0&#45;&gt;m1</title>
<path fill="none" stroke="black" d="M3479.16,-293.053C3468.56,-291.047 3457.46,-289.222 3447,-288 2994.24,-235.128 2874.7,-305.39 2422,-252 2414.89,-251.161 2407.48,-250.037 2400.14,-248.765"/>
<polygon fill="black" stroke="black" points="2400.68,-245.304 2390.21,-246.95 2399.42,-252.19 2400.68,-245.304"/>
</g>
<!-- r1 -->
<g id="node27" class="node"><title>r1</title>
<a xlink:href="0005496" xlink:title="GO:0005496 (3)">
<ellipse fill="#e98576" stroke="#e98576" cx="2506" cy="-234" rx="75.2018" ry="18"/>
<text text-anchor="middle" x="2506" y="-229.8" font-family="Times,serif" font-size="14.00">GO:0005496 (3)</text>
</a>
</g>
<!-- b0&#45;&gt;r1 -->
<g id="edge24" class="edge"><title>b0&#45;&gt;r1</title>
<path fill="none" stroke="black" d="M3479.15,-293.11C3468.55,-291.099 3457.46,-289.258 3447,-288 3068.5,-242.48 2968.45,-297.953 2590,-252 2583.15,-251.169 2576.03,-250.081 2568.96,-248.857"/>
<polygon fill="black" stroke="black" points="2569.13,-245.331 2558.67,-246.98 2567.88,-252.218 2569.13,-245.331"/>
</g>
<!-- d0 -->
<g id="node31" class="node"><title>d0</title>
<a xlink:href="0043167" xlink:title="GO:0043167 (173)">
<ellipse fill="#e98576" stroke="#e98576" cx="2684" cy="-234" rx="84.1886" ry="18"/>
<text text-anchor="middle" x="2684" y="-229.8" font-family="Times,serif" font-size="14.00">GO:0043167 (173)</text>
</a>
</g>
<!-- b0&#45;&gt;d0 -->
<g id="edge28" class="edge"><title>b0&#45;&gt;d0</title>
<path fill="none" stroke="black" d="M3479.14,-293.208C3468.54,-291.188 3457.45,-289.319 3447,-288 3151.58,-250.706 3073.75,-286.563 2778,-252 2769.98,-251.063 2761.61,-249.867 2753.31,-248.544"/>
<polygon fill="black" stroke="black" points="2753.69,-245.06 2743.25,-246.878 2752.55,-251.966 2753.69,-245.06"/>
</g>
<!-- u1 -->
<g id="node33" class="node"><title>u1</title>
<a xlink:href="0043176" xlink:title="GO:0043176">
<ellipse fill="#dddddd" stroke="#dddddd" cx="2848" cy="-234" rx="61.1934" ry="18"/>
<text text-anchor="middle" x="2848" y="-229.8" font-family="Times,serif" font-size="14.00">GO:0043176</text>
</a>
</g>
<!-- b0&#45;&gt;u1 -->
<g id="edge30" class="edge"><title>b0&#45;&gt;u1</title>
<path fill="none" stroke="black" d="M3478.67,-293.239C3468.21,-291.243 3457.29,-289.374 3447,-288 3213.86,-256.871 3151.52,-287.509 2919,-252 2913.3,-251.13 2907.39,-250.032 2901.51,-248.815"/>
<polygon fill="black" stroke="black" points="2902.22,-245.389 2891.71,-246.674 2900.73,-252.227 2902.22,-245.389"/>
</g>
<!-- w1 -->
<g id="node36" class="node"><title>w1</title>
<a xlink:href="0043178" xlink:title="GO:0043178 (2)">
<ellipse fill="#e98576" stroke="#e98576" cx="3003" cy="-234" rx="75.2018" ry="18"/>
<text text-anchor="middle" x="3003" y="-229.8" font-family="Times,serif" font-size="14.00">GO:0043178 (2)</text>
</a>
</g>
<!-- b0&#45;&gt;w1 -->
<g id="edge34" class="edge"><title>b0&#45;&gt;w1</title>
<path fill="none" stroke="black" d="M3478.18,-293.411C3467.86,-291.424 3457.12,-289.514 3447,-288 3287.97,-264.204 3246,-275.978 3087,-252 3080.38,-251.001 3073.49,-249.828 3066.63,-248.573"/>
<polygon fill="black" stroke="black" points="3067.11,-245.102 3056.63,-246.685 3065.81,-251.98 3067.11,-245.102"/>
</g>
<!-- a1 -->
<g id="node38" class="node"><title>a1</title>
<a xlink:href="0030246" xlink:title="GO:0030246 (8)">
<ellipse fill="#e98576" stroke="#e98576" cx="3171" cy="-234" rx="75.2018" ry="18"/>
<text text-anchor="middle" x="3171" y="-229.8" font-family="Times,serif" font-size="14.00">GO:0030246 (8)</text>
</a>
</g>
<!-- b0&#45;&gt;a1 -->
<g id="edge36" class="edge"><title>b0&#45;&gt;a1</title>
<path fill="none" stroke="black" d="M3476.24,-293.748C3466.5,-291.81 3456.46,-289.832 3447,-288 3361.76,-271.486 3340.22,-268.611 3255,-252 3248.87,-250.804 3242.48,-249.543 3236.1,-248.271"/>
<polygon fill="black" stroke="black" points="3236.6,-244.801 3226.1,-246.269 3235.22,-251.664 3236.6,-244.801"/>
</g>
<!-- e0 -->
<g id="node42" class="node"><title>e0</title>
<a xlink:href="0003676" xlink:title="GO:0003676 (147)">
<ellipse fill="#e98576" stroke="#e98576" cx="3349" cy="-234" rx="84.1886" ry="18"/>
<text text-anchor="middle" x="3349" y="-229.8" font-family="Times,serif" font-size="14.00">GO:0003676 (147)</text>
</a>
</g>
<!-- b0&#45;&gt;e0 -->
<g id="edge40" class="edge"><title>b0&#45;&gt;e0</title>
<path fill="none" stroke="black" d="M3493.64,-290.326C3465.74,-279.654 3427.75,-265.124 3397.71,-253.633"/>
<polygon fill="black" stroke="black" points="3398.85,-250.321 3388.26,-250.017 3396.35,-256.859 3398.85,-250.321"/>
</g>
<!-- o0 -->
<g id="node50" class="node"><title>o0</title>
<a xlink:href="0003682" xlink:title="GO:0003682 (22)">
<ellipse fill="#e98576" stroke="#e98576" cx="3532" cy="-234" rx="79.4447" ry="18"/>
<text text-anchor="middle" x="3532" y="-229.8" font-family="Times,serif" font-size="14.00">GO:0003682 (22)</text>
</a>
</g>
<!-- b0&#45;&gt;o0 -->
<g id="edge48" class="edge"><title>b0&#45;&gt;o0</title>
<path fill="none" stroke="black" d="M3532,-287.697C3532,-279.983 3532,-270.712 3532,-262.112"/>
<polygon fill="black" stroke="black" points="3535.5,-262.104 3532,-252.104 3528.5,-262.104 3535.5,-262.104"/>
</g>
<!-- r0 -->
<g id="node54" class="node"><title>r0</title>
<a xlink:href="0048037" xlink:title="GO:0048037 (18)">
<ellipse fill="#e98576" stroke="#e98576" cx="3710" cy="-234" rx="79.4447" ry="18"/>
<text text-anchor="middle" x="3710" y="-229.8" font-family="Times,serif" font-size="14.00">GO:0048037 (18)</text>
</a>
</g>
<!-- b0&#45;&gt;r0 -->
<g id="edge52" class="edge"><title>b0&#45;&gt;r0</title>
<path fill="none" stroke="black" d="M3569.31,-290.326C3596.43,-279.664 3633.33,-265.152 3662.54,-253.666"/>
<polygon fill="black" stroke="black" points="3664.1,-256.813 3672.12,-249.896 3661.53,-250.299 3664.1,-256.813"/>
</g>
<!-- y1 -->
<g id="node56" class="node"><title>y1</title>
<a xlink:href="0050840" xlink:title="GO:0050840 (1)">
<ellipse fill="#e98576" stroke="#e98576" cx="3883" cy="-234" rx="75.2018" ry="18"/>
<text text-anchor="middle" x="3883" y="-229.8" font-family="Times,serif" font-size="14.00">GO:0050840 (1)</text>
</a>
</g>
<!-- b0&#45;&gt;y1 -->
<g id="edge54" class="edge"><title>b0&#45;&gt;y1</title>
<path fill="none" stroke="black" d="M3587.57,-293.718C3597.05,-291.803 3606.81,-289.839 3616,-288 3696.85,-271.822 3717.13,-268.085 3798,-252 3804.2,-250.767 3810.65,-249.481 3817.11,-248.193"/>
<polygon fill="black" stroke="black" points="3818.1,-251.564 3827.22,-246.173 3816.73,-244.699 3818.1,-251.564"/>
</g>
<!-- z0 -->
<g id="node58" class="node"><title>z0</title>
<a xlink:href="0003823" xlink:title="GO:0003823 (8)">
<ellipse fill="#e98576" stroke="#e98576" cx="4051" cy="-234" rx="75.2018" ry="18"/>
<text text-anchor="middle" x="4051" y="-229.8" font-family="Times,serif" font-size="14.00">GO:0003823 (8)</text>
</a>
</g>
<!-- b0&#45;&gt;z0 -->
<g id="edge56" class="edge"><title>b0&#45;&gt;z0</title>
<path fill="none" stroke="black" d="M3585.63,-293.335C3595.69,-291.378 3606.14,-289.499 3616,-288 3771.04,-264.419 3811.96,-275.581 3967,-252 3973.62,-250.993 3980.51,-249.814 3987.37,-248.556"/>
<polygon fill="black" stroke="black" points="3988.19,-251.963 3997.37,-246.665 3986.89,-245.085 3988.19,-251.963"/>
</g>
<!-- s0 -->
<g id="node63" class="node"><title>s0</title>
<a xlink:href="0008289" xlink:title="GO:0008289 (17)">
<ellipse fill="#e98576" stroke="#e98576" cx="4224" cy="-234" rx="79.4447" ry="18"/>
<text text-anchor="middle" x="4224" y="-229.8" font-family="Times,serif" font-size="14.00">GO:0008289 (17)</text>
</a>
</g>
<!-- b0&#45;&gt;s0 -->
<g id="edge60" class="edge"><title>b0&#45;&gt;s0</title>
<path fill="none" stroke="black" d="M3585.15,-293.156C3595.35,-291.192 3605.97,-289.356 3616,-288 3845.13,-257.002 3905.7,-281.744 4135,-252 4142.38,-251.043 4150.06,-249.86 4157.7,-248.567"/>
<polygon fill="black" stroke="black" points="4158.42,-251.992 4167.67,-246.813 4157.21,-245.098 4158.42,-251.992"/>
</g>
<!-- g0 -->
<g id="node73" class="node"><title>g0</title>
<a xlink:href="0001882" xlink:title="GO:0001882 (92)">
<ellipse fill="#e98576" stroke="#e98576" cx="4402" cy="-234" rx="79.4447" ry="18"/>
<text text-anchor="middle" x="4402" y="-229.8" font-family="Times,serif" font-size="14.00">GO:0001882 (92)</text>
</a>
</g>
<!-- b0&#45;&gt;g0 -->
<g id="edge70" class="edge"><title>b0&#45;&gt;g0</title>
<path fill="none" stroke="black" d="M3584.68,-293.099C3595.02,-291.115 3605.81,-289.287 3616,-288 3923.3,-249.173 4004.45,-288.829 4312,-252 4319.77,-251.069 4327.88,-249.868 4335.91,-248.535"/>
<polygon fill="black" stroke="black" points="4336.75,-251.941 4346.01,-246.786 4335.56,-245.044 4336.75,-251.941"/>
</g>
<!-- x0 -->
<g id="node75" class="node"><title>x0</title>
<a xlink:href="0008144" xlink:title="GO:0008144 (10)">
<ellipse fill="#e98576" stroke="#e98576" cx="4580" cy="-234" rx="79.4447" ry="18"/>
<text text-anchor="middle" x="4580" y="-229.8" font-family="Times,serif" font-size="14.00">GO:0008144 (10)</text>
</a>
</g>
<!-- b0&#45;&gt;x0 -->
<g id="edge72" class="edge"><title>b0&#45;&gt;x0</title>
<path fill="none" stroke="black" d="M3584.67,-293.014C3595.01,-291.037 3605.81,-289.233 3616,-288 4001.96,-241.295 4103.75,-296.196 4490,-252 4497.78,-251.11 4505.89,-249.934 4513.92,-248.615"/>
<polygon fill="black" stroke="black" points="4514.76,-252.022 4524.02,-246.878 4513.57,-245.124 4514.76,-252.022"/>
</g>
<!-- v1 -->
<g id="node79" class="node"><title>v1</title>
<a xlink:href="0019842" xlink:title="GO:0019842 (2)">
<ellipse fill="#e98576" stroke="#e98576" cx="4753" cy="-234" rx="75.2018" ry="18"/>
<text text-anchor="middle" x="4753" y="-229.8" font-family="Times,serif" font-size="14.00">GO:0019842 (2)</text>
</a>
</g>
<!-- b0&#45;&gt;v1 -->
<g id="edge76" class="edge"><title>b0&#45;&gt;v1</title>
<path fill="none" stroke="black" d="M3584.21,-293.043C3594.69,-291.037 3605.66,-289.215 3616,-288 4080.63,-233.414 4203.3,-306.054 4668,-252 4675.19,-251.163 4682.69,-250.04 4690.11,-248.768"/>
<polygon fill="black" stroke="black" points="4690.94,-252.175 4700.16,-246.954 4689.7,-245.286 4690.94,-252.175"/>
</g>
<!-- j1 -->
<g id="node87" class="node"><title>j1</title>
<a xlink:href="0060090" xlink:title="GO:0060090 (5)">
<ellipse fill="#e98576" stroke="#e98576" cx="4921" cy="-234" rx="75.2018" ry="18"/>
<text text-anchor="middle" x="4921" y="-229.8" font-family="Times,serif" font-size="14.00">GO:0060090 (5)</text>
</a>
</g>
<!-- b0&#45;&gt;j1 -->
<g id="edge84" class="edge"><title>b0&#45;&gt;j1</title>
<path fill="none" stroke="black" d="M3584.21,-293.004C3594.68,-291.001 3605.65,-289.191 3616,-288 4155.34,-225.93 4297.66,-314.07 4837,-252 4844.11,-251.181 4851.52,-250.07 4858.86,-248.804"/>
<polygon fill="black" stroke="black" points="4859.58,-252.231 4868.79,-246.996 4858.33,-245.344 4859.58,-252.231"/>
</g>
<!-- l1 -->
<g id="node93" class="node"><title>l1</title>
<a xlink:href="0031406" xlink:title="GO:0031406 (4)">
<ellipse fill="#e98576" stroke="#e98576" cx="5089" cy="-234" rx="75.2018" ry="18"/>
<text text-anchor="middle" x="5089" y="-229.8" font-family="Times,serif" font-size="14.00">GO:0031406 (4)</text>
</a>
</g>
<!-- b0&#45;&gt;l1 -->
<g id="edge90" class="edge"><title>b0&#45;&gt;l1</title>
<path fill="none" stroke="black" d="M3584.2,-292.975C3594.68,-290.975 3605.65,-289.172 3616,-288 4229.62,-218.49 4391.38,-321.51 5005,-252 5012.12,-251.194 5019.52,-250.09 5026.86,-248.829"/>
<polygon fill="black" stroke="black" points="5027.58,-252.256 5036.8,-247.025 5026.33,-245.369 5027.58,-252.256"/>
</g>
<!-- s1 -->
<g id="node102" class="node"><title>s1</title>
<a xlink:href="0046906" xlink:title="GO:0046906 (3)">
<ellipse fill="#e98576" stroke="#e98576" cx="5257" cy="-234" rx="75.2018" ry="18"/>
<text text-anchor="middle" x="5257" y="-229.8" font-family="Times,serif" font-size="14.00">GO:0046906 (3)</text>
</a>
</g>
<!-- b0&#45;&gt;s1 -->
<g id="edge100" class="edge"><title>b0&#45;&gt;s1</title>
<path fill="none" stroke="black" d="M3584.2,-292.952C3594.68,-290.954 3605.65,-289.158 3616,-288 4303.89,-211.05 4485.11,-328.95 5173,-252 5180.12,-251.204 5187.53,-250.106 5194.87,-248.849"/>
<polygon fill="black" stroke="black" points="5195.58,-252.276 5204.8,-247.048 5194.34,-245.388 5195.58,-252.276"/>
</g>
<!-- f0 -->
<g id="node104" class="node"><title>f0</title>
<a xlink:href="0000166" xlink:title="GO:0000166 (136)">
<ellipse fill="#e98576" stroke="#e98576" cx="5435" cy="-234" rx="84.1886" ry="18"/>
<text text-anchor="middle" x="5435" y="-229.8" font-family="Times,serif" font-size="14.00">GO:0000166 (136)</text>
</a>
</g>
<!-- b0&#45;&gt;f0 -->
<g id="edge102" class="edge"><title>b0&#45;&gt;f0</title>
<path fill="none" stroke="black" d="M3584.2,-292.933C3594.68,-290.937 3605.65,-289.146 3616,-288 4378.18,-203.609 4577.99,-328.473 5341,-252 5349.3,-251.168 5357.97,-250.006 5366.54,-248.677"/>
<polygon fill="black" stroke="black" points="5367.23,-252.112 5376.53,-247.048 5366.1,-245.203 5367.23,-252.112"/>
</g>
<!-- n1 -->
<g id="node108" class="node"><title>n1</title>
<a xlink:href="0051540" xlink:title="GO:0051540 (3)">
<ellipse fill="#e98576" stroke="#e98576" cx="5613" cy="-234" rx="75.2018" ry="18"/>
<text text-anchor="middle" x="5613" y="-229.8" font-family="Times,serif" font-size="14.00">GO:0051540 (3)</text>
</a>
</g>
<!-- b0&#45;&gt;n1 -->
<g id="edge106" class="edge"><title>b0&#45;&gt;n1</title>
<path fill="none" stroke="black" d="M3584.2,-292.917C3594.68,-290.921 3605.65,-289.136 3616,-288 4460.86,-195.326 4683.03,-343.708 5528,-252 5535.39,-251.198 5543.08,-250.074 5550.7,-248.78"/>
<polygon fill="black" stroke="black" points="5551.41,-252.21 5560.63,-246.996 5550.17,-245.32 5551.41,-252.21"/>
</g>
<!-- t0 -->
<g id="node25" class="node"><title>t0</title>
<a xlink:href="0008233" xlink:title="GO:0008233 (15)">
<ellipse fill="#e98576" stroke="#e98576" cx="95" cy="-162" rx="79.4447" ry="18"/>
<text text-anchor="middle" x="95" y="-157.8" font-family="Times,serif" font-size="14.00">GO:0008233 (15)</text>
</a>
</g>
<!-- h0&#45;&gt;t0 -->
<g id="edge22" class="edge"><title>h0&#45;&gt;t0</title>
<path fill="none" stroke="black" d="M221.848,-217.811C197.648,-207.354 165.305,-193.379 139.336,-182.157"/>
<polygon fill="black" stroke="black" points="140.651,-178.913 130.083,-178.159 137.874,-185.339 140.651,-178.913"/>
</g>
<!-- x1 -->
<g id="node91" class="node"><title>x1</title>
<a xlink:href="0019213" xlink:title="GO:0019213 (2)">
<ellipse fill="#e98576" stroke="#e98576" cx="268" cy="-162" rx="75.2018" ry="18"/>
<text text-anchor="middle" x="268" y="-157.8" font-family="Times,serif" font-size="14.00">GO:0019213 (2)</text>
</a>
</g>
<!-- h0&#45;&gt;x1 -->
<g id="edge88" class="edge"><title>h0&#45;&gt;x1</title>
<path fill="none" stroke="black" d="M259.719,-215.697C260.931,-207.983 262.388,-198.712 263.739,-190.112"/>
<polygon fill="black" stroke="black" points="267.217,-190.526 265.312,-180.104 260.302,-189.44 267.217,-190.526"/>
</g>
<!-- t1 -->
<g id="node81" class="node"><title>t1</title>
<a xlink:href="0016597" xlink:title="GO:0016597 (2)">
<ellipse fill="#e98576" stroke="#e98576" cx="2848" cy="-162" rx="75.2018" ry="18"/>
<text text-anchor="middle" x="2848" y="-157.8" font-family="Times,serif" font-size="14.00">GO:0016597 (2)</text>
</a>
</g>
<!-- u1&#45;&gt;t1 -->
<g id="edge78" class="edge"><title>u1&#45;&gt;t1</title>
<path fill="none" stroke="black" d="M2848,-215.697C2848,-207.983 2848,-198.712 2848,-190.112"/>
<polygon fill="black" stroke="black" points="2851.5,-190.104 2848,-180.104 2844.5,-190.104 2851.5,-190.104"/>
</g>
<!-- f1 -->
<g id="node65" class="node"><title>f1</title>
<a xlink:href="0016879" xlink:title="GO:0016879">
<ellipse fill="#dddddd" stroke="#dddddd" cx="435" cy="-162" rx="61.1934" ry="18"/>
<text text-anchor="middle" x="435" y="-157.8" font-family="Times,serif" font-size="14.00">GO:0016879</text>
</a>
</g>
<!-- w0&#45;&gt;f1 -->
<g id="edge62" class="edge"><title>w0&#45;&gt;f1</title>
<path fill="none" stroke="black" d="M435,-215.697C435,-207.983 435,-198.712 435,-190.112"/>
<polygon fill="black" stroke="black" points="438.5,-190.104 435,-180.104 431.5,-190.104 438.5,-190.104"/>
</g>
<!-- b1 -->
<g id="node97" class="node"><title>b1</title>
<a xlink:href="0009055" xlink:title="GO:0009055 (7)">
<ellipse fill="#e98576" stroke="#e98576" cx="613" cy="-162" rx="75.2018" ry="18"/>
<text text-anchor="middle" x="613" y="-157.8" font-family="Times,serif" font-size="14.00">GO:0009055 (7)</text>
</a>
</g>
<!-- m0&#45;&gt;b1 -->
<g id="edge94" class="edge"><title>m0&#45;&gt;b1</title>
<path fill="none" stroke="black" d="M613,-215.697C613,-207.983 613,-198.712 613,-190.112"/>
<polygon fill="black" stroke="black" points="616.5,-190.104 613,-180.104 609.5,-190.104 616.5,-190.104"/>
</g>
<!-- p0 -->
<g id="node59" class="node"><title>p0</title>
<a xlink:href="0004871" xlink:title="GO:0004871 (20)">
<ellipse fill="#e98576" stroke="#e98576" cx="5786" cy="-234" rx="79.4447" ry="18"/>
<text text-anchor="middle" x="5786" y="-229.8" font-family="Times,serif" font-size="14.00">GO:0004871 (20)</text>
</a>
</g>
<!-- y0 -->
<g id="node61" class="node"><title>y0</title>
<a xlink:href="0004872" xlink:title="GO:0004872 (10)">
<ellipse fill="#e98576" stroke="#e98576" cx="5786" cy="-162" rx="79.4447" ry="18"/>
<text text-anchor="middle" x="5786" y="-157.8" font-family="Times,serif" font-size="14.00">GO:0004872 (10)</text>
</a>
</g>
<!-- p0&#45;&gt;y0 -->
<g id="edge58" class="edge"><title>p0&#45;&gt;y0</title>
<path fill="none" stroke="black" d="M5786,-215.697C5786,-207.983 5786,-198.712 5786,-190.112"/>
<polygon fill="black" stroke="black" points="5789.5,-190.104 5786,-180.104 5782.5,-190.104 5789.5,-190.104"/>
</g>
<!-- e1 -->
<g id="node66" class="node"><title>e1</title>
<a xlink:href="0016881" xlink:title="GO:0016881">
<ellipse fill="#dddddd" stroke="#dddddd" cx="435" cy="-90" rx="61.1934" ry="18"/>
<text text-anchor="middle" x="435" y="-85.8" font-family="Times,serif" font-size="14.00">GO:0016881</text>
</a>
</g>
<!-- f1&#45;&gt;e1 -->
<g id="edge96" class="edge"><title>f1&#45;&gt;e1</title>
<path fill="none" stroke="black" d="M435,-143.697C435,-135.983 435,-126.712 435,-118.112"/>
<polygon fill="black" stroke="black" points="438.5,-118.104 435,-108.104 431.5,-118.104 438.5,-118.104"/>
</g>
<!-- d1 -->
<g id="node68" class="node"><title>d1</title>
<a xlink:href="0019787" xlink:title="GO:0019787 (7)">
<ellipse fill="#e98576" stroke="#e98576" cx="435" cy="-18" rx="75.2018" ry="18"/>
<text text-anchor="middle" x="435" y="-13.8" font-family="Times,serif" font-size="14.00">GO:0019787 (7)</text>
</a>
</g>
<!-- e1&#45;&gt;d1 -->
<g id="edge64" class="edge"><title>e1&#45;&gt;d1</title>
<path fill="none" stroke="black" d="M435,-71.6966C435,-63.9827 435,-54.7125 435,-46.1124"/>
<polygon fill="black" stroke="black" points="438.5,-46.1043 435,-36.1043 431.5,-46.1044 438.5,-46.1043"/>
</g>
<!-- q0&#45;&gt;p0 -->
<g id="edge82" class="edge"><title>q0&#45;&gt;p0</title>
<path fill="none" stroke="black" d="M4758.3,-293.213C4767.39,-291.14 4776.96,-289.249 4786,-288 5187.39,-232.558 5294.43,-298.141 5697,-252 5704.5,-251.141 5712.31,-250.006 5720.06,-248.73"/>
<polygon fill="black" stroke="black" points="5720.92,-252.134 5730.17,-246.982 5719.72,-245.236 5720.92,-252.134"/>
</g>
</g>
</svg>
