<?xml version="1.0" encoding="UTF-8" standalone="no"?>
<!DOCTYPE svg PUBLIC "-//W3C//DTD SVG 1.1//EN"
 "http://www.w3.org/Graphics/SVG/1.1/DTD/svg11.dtd">
<!-- Generated by graphviz version 2.28.0 (20110622.2320)
 -->
<!-- Title: G Pages: 1 -->
<svg width="313pt" height="188pt"
 viewBox="0.00 0.00 313.00 188.00" xmlns="http://www.w3.org/2000/svg" xmlns:xlink="http://www.w3.org/1999/xlink">
<g id="graph1" class="graph" transform="scale(1 1) rotate(0) translate(4 184)">
<title>G</title>
<polygon fill="white" stroke="white" points="-4,5 -4,-184 310,-184 310,5 -4,5"/>
<!-- b0 -->
<g id="node1" class="node"><title>b0</title>
<a xlink:href="0003674" xlink:title="GO:0003674">
<ellipse fill="#dddddd" stroke="#dddddd" cx="152" cy="-162" rx="61.1934" ry="18"/>
<text text-anchor="middle" x="152" y="-157.8" font-family="Times,serif" font-size="14.00">GO:0003674</text>
</a>
</g>
<!-- a0 -->
<g id="node3" class="node"><title>a0</title>
<a xlink:href="0045182" xlink:title="GO:0045182 (2)">
<ellipse fill="#e98576" stroke="#e98576" cx="75" cy="-90" rx="75.2018" ry="18"/>
<text text-anchor="middle" x="75" y="-85.8" font-family="Times,serif" font-size="14.00">GO:0045182 (2)</text>
</a>
</g>
<!-- b0&#45;&gt;a0 -->
<g id="edge2" class="edge"><title>b0&#45;&gt;a0</title>
<path fill="none" stroke="black" d="M134.141,-144.765C124.274,-135.795 111.839,-124.49 100.921,-114.564"/>
<polygon fill="black" stroke="black" points="103.051,-111.77 93.2967,-107.633 98.3418,-116.95 103.051,-111.77"/>
</g>
<!-- d0 -->
<g id="node5" class="node"><title>d0</title>
<a xlink:href="0005488" xlink:title="GO:0005488">
<ellipse fill="#dddddd" stroke="#dddddd" cx="230" cy="-90" rx="61.1934" ry="18"/>
<text text-anchor="middle" x="230" y="-85.8" font-family="Times,serif" font-size="14.00">GO:0005488</text>
</a>
</g>
<!-- b0&#45;&gt;d0 -->
<g id="edge4" class="edge"><title>b0&#45;&gt;d0</title>
<path fill="none" stroke="black" d="M170.091,-144.765C180.158,-135.73 192.865,-124.326 203.983,-114.349"/>
<polygon fill="black" stroke="black" points="206.632,-116.674 211.737,-107.39 201.957,-111.464 206.632,-116.674"/>
</g>
<!-- c0 -->
<g id="node7" class="node"><title>c0</title>
<a xlink:href="0005515" xlink:title="GO:0005515 (2)">
<ellipse fill="#e98576" stroke="#e98576" cx="230" cy="-18" rx="75.2018" ry="18"/>
<text text-anchor="middle" x="230" y="-13.8" font-family="Times,serif" font-size="14.00">GO:0005515 (2)</text>
</a>
</g>
<!-- d0&#45;&gt;c0 -->
<g id="edge6" class="edge"><title>d0&#45;&gt;c0</title>
<path fill="none" stroke="black" d="M230,-71.6966C230,-63.9827 230,-54.7125 230,-46.1124"/>
<polygon fill="black" stroke="black" points="233.5,-46.1043 230,-36.1043 226.5,-46.1044 233.5,-46.1043"/>
</g>
</g>
</svg>
