<?xml version="1.0" encoding="UTF-8" standalone="no"?>
<!DOCTYPE svg PUBLIC "-//W3C//DTD SVG 1.1//EN"
 "http://www.w3.org/Graphics/SVG/1.1/DTD/svg11.dtd">
<!-- Generated by graphviz version 2.28.0 (20110622.2320)
 -->
<!-- Title: G Pages: 1 -->
<svg width="972pt" height="260pt"
 viewBox="0.00 0.00 972.00 260.00" xmlns="http://www.w3.org/2000/svg" xmlns:xlink="http://www.w3.org/1999/xlink">
<g id="graph1" class="graph" transform="scale(1 1) rotate(0) translate(4 256)">
<title>G</title>
<polygon fill="white" stroke="white" points="-4,5 -4,-256 969,-256 969,5 -4,5"/>
<!-- b0 -->
<g id="node1" class="node"><title>b0</title>
<a xlink:href="0005488" xlink:title="GO:0005488">
<ellipse fill="#dddddd" stroke="#dddddd" cx="411" cy="-162" rx="61.1934" ry="18"/>
<text text-anchor="middle" x="411" y="-157.8" font-family="Times,serif" font-size="14.00">GO:0005488</text>
</a>
</g>
<!-- a0 -->
<g id="node3" class="node"><title>a0</title>
<a xlink:href="0043167" xlink:title="GO:0043167 (1)">
<ellipse fill="#e98576" stroke="#e98576" cx="75" cy="-90" rx="75.2018" ry="18"/>
<text text-anchor="middle" x="75" y="-85.8" font-family="Times,serif" font-size="14.00">GO:0043167 (1)</text>
</a>
</g>
<!-- b0&#45;&gt;a0 -->
<g id="edge2" class="edge"><title>b0&#45;&gt;a0</title>
<path fill="none" stroke="black" d="M362.502,-150.896C303.849,-138.677 204.906,-118.064 139.77,-104.494"/>
<polygon fill="black" stroke="black" points="140.122,-100.992 129.618,-102.379 138.694,-107.845 140.122,-100.992"/>
</g>
<!-- i0 -->
<g id="node12" class="node"><title>i0</title>
<a xlink:href="0001882" xlink:title="GO:0001882 (1)">
<ellipse fill="#e98576" stroke="#e98576" cx="243" cy="-90" rx="75.2018" ry="18"/>
<text text-anchor="middle" x="243" y="-85.8" font-family="Times,serif" font-size="14.00">GO:0001882 (1)</text>
</a>
</g>
<!-- b0&#45;&gt;i0 -->
<g id="edge10" class="edge"><title>b0&#45;&gt;i0</title>
<path fill="none" stroke="black" d="M377.003,-146.834C351.444,-136.185 316.175,-121.49 288.235,-109.848"/>
<polygon fill="black" stroke="black" points="289.263,-106.485 278.686,-105.869 286.571,-112.946 289.263,-106.485"/>
</g>
<!-- f0 -->
<g id="node16" class="node"><title>f0</title>
<a xlink:href="0005515" xlink:title="GO:0005515 (1)">
<ellipse fill="#e98576" stroke="#e98576" cx="411" cy="-90" rx="75.2018" ry="18"/>
<text text-anchor="middle" x="411" y="-85.8" font-family="Times,serif" font-size="14.00">GO:0005515 (1)</text>
</a>
</g>
<!-- b0&#45;&gt;f0 -->
<g id="edge14" class="edge"><title>b0&#45;&gt;f0</title>
<path fill="none" stroke="black" d="M411,-143.697C411,-135.983 411,-126.712 411,-118.112"/>
<polygon fill="black" stroke="black" points="414.5,-118.104 411,-108.104 407.5,-118.104 414.5,-118.104"/>
</g>
<!-- e0 -->
<g id="node19" class="node"><title>e0</title>
<a xlink:href="0000166" xlink:title="GO:0000166 (1)">
<ellipse fill="#e98576" stroke="#e98576" cx="579" cy="-90" rx="75.2018" ry="18"/>
<text text-anchor="middle" x="579" y="-85.8" font-family="Times,serif" font-size="14.00">GO:0000166 (1)</text>
</a>
</g>
<!-- b0&#45;&gt;e0 -->
<g id="edge18" class="edge"><title>b0&#45;&gt;e0</title>
<path fill="none" stroke="black" d="M444.997,-146.834C470.556,-136.185 505.825,-121.49 533.765,-109.848"/>
<polygon fill="black" stroke="black" points="535.429,-112.946 543.314,-105.869 532.737,-106.485 535.429,-112.946"/>
</g>
<!-- c0 -->
<g id="node4" class="node"><title>c0</title>
<a xlink:href="0003674" xlink:title="GO:0003674">
<ellipse fill="#dddddd" stroke="#dddddd" cx="572" cy="-234" rx="61.1934" ry="18"/>
<text text-anchor="middle" x="572" y="-229.8" font-family="Times,serif" font-size="14.00">GO:0003674</text>
</a>
</g>
<!-- c0&#45;&gt;b0 -->
<g id="edge16" class="edge"><title>c0&#45;&gt;b0</title>
<path fill="none" stroke="black" d="M539.031,-218.666C514.286,-207.907 480.207,-193.09 453.429,-181.448"/>
<polygon fill="black" stroke="black" points="454.491,-178.093 443.925,-177.315 451.7,-184.512 454.491,-178.093"/>
</g>
<!-- d0 -->
<g id="node6" class="node"><title>d0</title>
<a xlink:href="0030234" xlink:title="GO:0030234 (1)">
<ellipse fill="#e98576" stroke="#e98576" cx="572" cy="-162" rx="75.2018" ry="18"/>
<text text-anchor="middle" x="572" y="-157.8" font-family="Times,serif" font-size="14.00">GO:0030234 (1)</text>
</a>
</g>
<!-- c0&#45;&gt;d0 -->
<g id="edge4" class="edge"><title>c0&#45;&gt;d0</title>
<path fill="none" stroke="black" d="M572,-215.697C572,-207.983 572,-198.712 572,-190.112"/>
<polygon fill="black" stroke="black" points="575.5,-190.104 572,-180.104 568.5,-190.104 575.5,-190.104"/>
</g>
<!-- h0 -->
<g id="node7" class="node"><title>h0</title>
<a xlink:href="0003824" xlink:title="GO:0003824">
<ellipse fill="#dddddd" stroke="#dddddd" cx="734" cy="-162" rx="61.1934" ry="18"/>
<text text-anchor="middle" x="734" y="-157.8" font-family="Times,serif" font-size="14.00">GO:0003824</text>
</a>
</g>
<!-- c0&#45;&gt;h0 -->
<g id="edge8" class="edge"><title>c0&#45;&gt;h0</title>
<path fill="none" stroke="black" d="M605.174,-218.666C630.264,-207.824 664.893,-192.861 691.929,-181.179"/>
<polygon fill="black" stroke="black" points="693.356,-184.375 701.148,-177.196 690.58,-177.949 693.356,-184.375"/>
</g>
<!-- k0 -->
<g id="node9" class="node"><title>k0</title>
<a xlink:href="0016787" xlink:title="GO:0016787">
<ellipse fill="#dddddd" stroke="#dddddd" cx="734" cy="-90" rx="61.1934" ry="18"/>
<text text-anchor="middle" x="734" y="-85.8" font-family="Times,serif" font-size="14.00">GO:0016787</text>
</a>
</g>
<!-- h0&#45;&gt;k0 -->
<g id="edge6" class="edge"><title>h0&#45;&gt;k0</title>
<path fill="none" stroke="black" d="M734,-143.697C734,-135.983 734,-126.712 734,-118.112"/>
<polygon fill="black" stroke="black" points="737.5,-118.104 734,-108.104 730.5,-118.104 737.5,-118.104"/>
</g>
<!-- g0 -->
<g id="node14" class="node"><title>g0</title>
<a xlink:href="0016740" xlink:title="GO:0016740 (1)">
<ellipse fill="#e98576" stroke="#e98576" cx="889" cy="-90" rx="75.2018" ry="18"/>
<text text-anchor="middle" x="889" y="-85.8" font-family="Times,serif" font-size="14.00">GO:0016740 (1)</text>
</a>
</g>
<!-- h0&#45;&gt;g0 -->
<g id="edge12" class="edge"><title>h0&#45;&gt;g0</title>
<path fill="none" stroke="black" d="M766.116,-146.496C789.233,-136.056 820.667,-121.86 845.956,-110.439"/>
<polygon fill="black" stroke="black" points="847.643,-113.518 855.317,-106.212 844.762,-107.138 847.643,-113.518"/>
</g>
<!-- j0 -->
<g id="node21" class="node"><title>j0</title>
<a xlink:href="0008233" xlink:title="GO:0008233 (1)">
<ellipse fill="#e98576" stroke="#e98576" cx="734" cy="-18" rx="75.2018" ry="18"/>
<text text-anchor="middle" x="734" y="-13.8" font-family="Times,serif" font-size="14.00">GO:0008233 (1)</text>
</a>
</g>
<!-- k0&#45;&gt;j0 -->
<g id="edge20" class="edge"><title>k0&#45;&gt;j0</title>
<path fill="none" stroke="black" d="M734,-71.6966C734,-63.9827 734,-54.7125 734,-46.1124"/>
<polygon fill="black" stroke="black" points="737.5,-46.1043 734,-36.1043 730.5,-46.1044 737.5,-46.1043"/>
</g>
</g>
</svg>
