<?xml version="1.0" encoding="UTF-8" standalone="no"?>
<!DOCTYPE svg PUBLIC "-//W3C//DTD SVG 1.1//EN"
 "http://www.w3.org/Graphics/SVG/1.1/DTD/svg11.dtd">
<!-- Generated by graphviz version 2.28.0 (20110622.2320)
 -->
<!-- Title: G Pages: 1 -->
<svg width="4302pt" height="260pt"
 viewBox="0.00 0.00 4302.00 260.00" xmlns="http://www.w3.org/2000/svg" xmlns:xlink="http://www.w3.org/1999/xlink">
<g id="graph1" class="graph" transform="scale(1 1) rotate(0) translate(4 256)">
<title>G</title>
<polygon fill="white" stroke="white" points="-4,5 -4,-256 4299,-256 4299,5 -4,5"/>
<!-- c0 -->
<g id="node1" class="node"><title>c0</title>
<a xlink:href="0003674" xlink:title="GO:0003674 (5)">
<ellipse fill="#e98576" stroke="#e98576" cx="2914" cy="-234" rx="75.2018" ry="18"/>
<text text-anchor="middle" x="2914" y="-229.8" font-family="Times,serif" font-size="14.00">GO:0003674 (5)</text>
</a>
</g>
<!-- h1 -->
<g id="node3" class="node"><title>h1</title>
<a xlink:href="0030234" xlink:title="GO:0030234 (1)">
<ellipse fill="#e98576" stroke="#e98576" cx="846" cy="-162" rx="75.2018" ry="18"/>
<text text-anchor="middle" x="846" y="-157.8" font-family="Times,serif" font-size="14.00">GO:0030234 (1)</text>
</a>
</g>
<!-- c0&#45;&gt;h1 -->
<g id="edge2" class="edge"><title>c0&#45;&gt;h1</title>
<path fill="none" stroke="black" d="M2838.95,-232.732C2524.31,-231.341 1310.24,-223.226 930,-180 922.885,-179.191 915.477,-178.086 908.137,-176.824"/>
<polygon fill="black" stroke="black" points="908.669,-173.363 898.204,-175.019 907.417,-180.25 908.669,-173.363"/>
</g>
<!-- g0 -->
<g id="node4" class="node"><title>g0</title>
<a xlink:href="0003824" xlink:title="GO:0003824 (15)">
<ellipse fill="#e98576" stroke="#e98576" cx="1019" cy="-162" rx="79.4447" ry="18"/>
<text text-anchor="middle" x="1019" y="-157.8" font-family="Times,serif" font-size="14.00">GO:0003824 (15)</text>
</a>
</g>
<!-- c0&#45;&gt;g0 -->
<g id="edge42" class="edge"><title>c0&#45;&gt;g0</title>
<path fill="none" stroke="black" d="M2840.3,-230.277C2542.57,-219.28 1429.29,-178.156 1106.96,-166.249"/>
<polygon fill="black" stroke="black" points="1106.86,-162.743 1096.74,-165.872 1106.6,-169.738 1106.86,-162.743"/>
</g>
<!-- b0 -->
<g id="node7" class="node"><title>b0</title>
<a xlink:href="0005488" xlink:title="GO:0005488 (1)">
<ellipse fill="#e98576" stroke="#e98576" cx="2830" cy="-162" rx="75.2018" ry="18"/>
<text text-anchor="middle" x="2830" y="-157.8" font-family="Times,serif" font-size="14.00">GO:0005488 (1)</text>
</a>
</g>
<!-- c0&#45;&gt;b0 -->
<g id="edge12" class="edge"><title>c0&#45;&gt;b0</title>
<path fill="none" stroke="black" d="M2894.09,-216.411C2883.21,-207.345 2869.57,-195.974 2857.67,-186.057"/>
<polygon fill="black" stroke="black" points="2859.69,-183.183 2849.76,-179.47 2855.21,-188.561 2859.69,-183.183"/>
</g>
<!-- t0 -->
<g id="node22" class="node"><title>t0</title>
<a xlink:href="0005215" xlink:title="GO:0005215 (9)">
<ellipse fill="#e98576" stroke="#e98576" cx="2998" cy="-162" rx="75.2018" ry="18"/>
<text text-anchor="middle" x="2998" y="-157.8" font-family="Times,serif" font-size="14.00">GO:0005215 (9)</text>
</a>
</g>
<!-- c0&#45;&gt;t0 -->
<g id="edge18" class="edge"><title>c0&#45;&gt;t0</title>
<path fill="none" stroke="black" d="M2933.91,-216.411C2944.79,-207.345 2958.43,-195.974 2970.33,-186.057"/>
<polygon fill="black" stroke="black" points="2972.79,-188.561 2978.24,-179.47 2968.31,-183.183 2972.79,-188.561"/>
</g>
<!-- y0 -->
<g id="node34" class="node"><title>y0</title>
<a xlink:href="0005198" xlink:title="GO:0005198 (4)">
<ellipse fill="#e98576" stroke="#e98576" cx="3166" cy="-162" rx="75.2018" ry="18"/>
<text text-anchor="middle" x="3166" y="-157.8" font-family="Times,serif" font-size="14.00">GO:0005198 (4)</text>
</a>
</g>
<!-- c0&#45;&gt;y0 -->
<g id="edge32" class="edge"><title>c0&#45;&gt;y0</title>
<path fill="none" stroke="black" d="M2961.1,-219.916C3002.95,-208.29 3064.24,-191.267 3108.87,-178.868"/>
<polygon fill="black" stroke="black" points="3110,-182.188 3118.7,-176.139 3108.13,-175.443 3110,-182.188"/>
</g>
<!-- l0 -->
<g id="node55" class="node"><title>l0</title>
<a xlink:href="0060089" xlink:title="GO:0060089">
<ellipse fill="#dddddd" stroke="#dddddd" cx="3767" cy="-162" rx="61.1934" ry="18"/>
<text text-anchor="middle" x="3767" y="-157.8" font-family="Times,serif" font-size="14.00">GO:0060089</text>
</a>
</g>
<!-- c0&#45;&gt;l0 -->
<g id="edge70" class="edge"><title>c0&#45;&gt;l0</title>
<path fill="none" stroke="black" d="M2983.8,-227.272C3144.6,-214.076 3539.5,-181.669 3698.77,-168.6"/>
<polygon fill="black" stroke="black" points="3699.23,-172.073 3708.91,-167.767 3698.66,-165.097 3699.23,-172.073"/>
</g>
<!-- v0 -->
<g id="node6" class="node"><title>v0</title>
<a xlink:href="0016853" xlink:title="GO:0016853 (9)">
<ellipse fill="#e98576" stroke="#e98576" cx="75" cy="-90" rx="75.2018" ry="18"/>
<text text-anchor="middle" x="75" y="-85.8" font-family="Times,serif" font-size="14.00">GO:0016853 (9)</text>
</a>
</g>
<!-- g0&#45;&gt;v0 -->
<g id="edge4" class="edge"><title>g0&#45;&gt;v0</title>
<path fill="none" stroke="black" d="M963.166,-149.08C952.213,-147.097 940.779,-145.275 930,-144 589.333,-103.718 499.441,-150.146 159,-108 152.154,-107.153 145.034,-106.055 137.961,-104.824"/>
<polygon fill="black" stroke="black" points="138.14,-101.299 127.673,-102.942 136.879,-108.185 138.14,-101.299"/>
</g>
<!-- h0 -->
<g id="node15" class="node"><title>h0</title>
<a xlink:href="0016787" xlink:title="GO:0016787 (42)">
<ellipse fill="#e98576" stroke="#e98576" cx="248" cy="-90" rx="79.4447" ry="18"/>
<text text-anchor="middle" x="248" y="-85.8" font-family="Times,serif" font-size="14.00">GO:0016787 (42)</text>
</a>
</g>
<!-- g0&#45;&gt;h0 -->
<g id="edge24" class="edge"><title>g0&#45;&gt;h0</title>
<path fill="none" stroke="black" d="M962.675,-149.113C951.869,-147.153 940.614,-145.33 930,-144 668.009,-111.163 598.991,-140.837 337,-108 329.62,-107.075 321.93,-105.912 314.297,-104.63"/>
<polygon fill="black" stroke="black" points="314.778,-101.161 304.325,-102.887 313.573,-108.057 314.778,-101.161"/>
</g>
<!-- m0 -->
<g id="node18" class="node"><title>m0</title>
<a xlink:href="0016491" xlink:title="GO:0016491 (20)">
<ellipse fill="#e98576" stroke="#e98576" cx="426" cy="-90" rx="79.4447" ry="18"/>
<text text-anchor="middle" x="426" y="-85.8" font-family="Times,serif" font-size="14.00">GO:0016491 (20)</text>
</a>
</g>
<!-- g0&#45;&gt;m0 -->
<g id="edge30" class="edge"><title>g0&#45;&gt;m0</title>
<path fill="none" stroke="black" d="M962.169,-149.248C951.511,-147.3 940.44,-145.446 930,-144 746.614,-118.599 698.386,-133.401 515,-108 507.823,-107.006 500.347,-105.819 492.912,-104.541"/>
<polygon fill="black" stroke="black" points="493.289,-101.053 482.831,-102.752 492.066,-107.946 493.289,-101.053"/>
</g>
<!-- s0 -->
<g id="node29" class="node"><title>s0</title>
<a xlink:href="0016874" xlink:title="GO:0016874 (9)">
<ellipse fill="#e98576" stroke="#e98576" cx="599" cy="-90" rx="75.2018" ry="18"/>
<text text-anchor="middle" x="599" y="-85.8" font-family="Times,serif" font-size="14.00">GO:0016874 (9)</text>
</a>
</g>
<!-- g0&#45;&gt;s0 -->
<g id="edge26" class="edge"><title>g0&#45;&gt;s0</title>
<path fill="none" stroke="black" d="M961.138,-149.565C950.784,-147.628 940.083,-145.697 930,-144 820.601,-125.589 792.297,-127.01 683,-108 676.747,-106.912 670.246,-105.715 663.752,-104.475"/>
<polygon fill="black" stroke="black" points="664.076,-100.973 653.592,-102.501 662.741,-107.844 664.076,-100.973"/>
</g>
<!-- w0 -->
<g id="node36" class="node"><title>w0</title>
<a xlink:href="0004386" xlink:title="GO:0004386 (4)">
<ellipse fill="#e98576" stroke="#e98576" cx="767" cy="-90" rx="75.2018" ry="18"/>
<text text-anchor="middle" x="767" y="-85.8" font-family="Times,serif" font-size="14.00">GO:0004386 (4)</text>
</a>
</g>
<!-- g0&#45;&gt;w0 -->
<g id="edge34" class="edge"><title>g0&#45;&gt;w0</title>
<path fill="none" stroke="black" d="M970.71,-147.586C928.857,-135.96 868.237,-119.121 824.011,-106.836"/>
<polygon fill="black" stroke="black" points="824.845,-103.436 814.273,-104.131 822.971,-110.18 824.845,-103.436"/>
</g>
<!-- d1 -->
<g id="node38" class="node"><title>d1</title>
<a xlink:href="0004133" xlink:title="GO:0004133 (1)">
<ellipse fill="#e98576" stroke="#e98576" cx="935" cy="-90" rx="75.2018" ry="18"/>
<text text-anchor="middle" x="935" y="-85.8" font-family="Times,serif" font-size="14.00">GO:0004133 (1)</text>
</a>
</g>
<!-- g0&#45;&gt;d1 -->
<g id="edge36" class="edge"><title>g0&#45;&gt;d1</title>
<path fill="none" stroke="black" d="M999.093,-144.411C988.214,-135.345 974.569,-123.974 962.669,-114.057"/>
<polygon fill="black" stroke="black" points="964.687,-111.183 954.764,-107.47 960.206,-116.561 964.687,-111.183"/>
</g>
<!-- g1 -->
<g id="node46" class="node"><title>g1</title>
<a xlink:href="0008641" xlink:title="GO:0008641 (1)">
<ellipse fill="#e98576" stroke="#e98576" cx="1103" cy="-90" rx="75.2018" ry="18"/>
<text text-anchor="middle" x="1103" y="-85.8" font-family="Times,serif" font-size="14.00">GO:0008641 (1)</text>
</a>
</g>
<!-- g0&#45;&gt;g1 -->
<g id="edge44" class="edge"><title>g0&#45;&gt;g1</title>
<path fill="none" stroke="black" d="M1038.91,-144.411C1049.79,-135.345 1063.43,-123.974 1075.33,-114.057"/>
<polygon fill="black" stroke="black" points="1077.79,-116.561 1083.24,-107.47 1073.31,-111.183 1077.79,-116.561"/>
</g>
<!-- i1 -->
<g id="node60" class="node"><title>i1</title>
<a xlink:href="0009975" xlink:title="GO:0009975 (1)">
<ellipse fill="#e98576" stroke="#e98576" cx="1271" cy="-90" rx="75.2018" ry="18"/>
<text text-anchor="middle" x="1271" y="-85.8" font-family="Times,serif" font-size="14.00">GO:0009975 (1)</text>
</a>
</g>
<!-- g0&#45;&gt;i1 -->
<g id="edge58" class="edge"><title>g0&#45;&gt;i1</title>
<path fill="none" stroke="black" d="M1067.29,-147.586C1109.14,-135.96 1169.76,-119.121 1213.99,-106.836"/>
<polygon fill="black" stroke="black" points="1215.03,-110.18 1223.73,-104.131 1213.16,-103.436 1215.03,-110.18"/>
</g>
<!-- f0 -->
<g id="node64" class="node"><title>f0</title>
<a xlink:href="0016740" xlink:title="GO:0016740 (71)">
<ellipse fill="#e98576" stroke="#e98576" cx="1444" cy="-90" rx="79.4447" ry="18"/>
<text text-anchor="middle" x="1444" y="-85.8" font-family="Times,serif" font-size="14.00">GO:0016740 (71)</text>
</a>
</g>
<!-- g0&#45;&gt;f0 -->
<g id="edge62" class="edge"><title>g0&#45;&gt;f0</title>
<path fill="none" stroke="black" d="M1083.52,-151.456C1151.24,-141.29 1260.75,-124.43 1355,-108 1361.66,-106.838 1368.6,-105.587 1375.53,-104.31"/>
<polygon fill="black" stroke="black" points="1376.45,-107.698 1385.64,-102.426 1375.17,-100.816 1376.45,-107.698"/>
</g>
<!-- q0 -->
<g id="node70" class="node"><title>q0</title>
<a xlink:href="0016829" xlink:title="GO:0016829 (12)">
<ellipse fill="#e98576" stroke="#e98576" cx="1622" cy="-90" rx="79.4447" ry="18"/>
<text text-anchor="middle" x="1622" y="-85.8" font-family="Times,serif" font-size="14.00">GO:0016829 (12)</text>
</a>
</g>
<!-- g0&#45;&gt;q0 -->
<g id="edge68" class="edge"><title>g0&#45;&gt;q0</title>
<path fill="none" stroke="black" d="M1093.15,-155.301C1193.11,-147.17 1376.51,-130.677 1532,-108 1539.33,-106.931 1546.97,-105.688 1554.57,-104.37"/>
<polygon fill="black" stroke="black" points="1555.27,-107.8 1564.51,-102.602 1554.05,-100.908 1555.27,-107.8"/>
</g>
<!-- k1 -->
<g id="node9" class="node"><title>k1</title>
<a xlink:href="0019825" xlink:title="GO:0019825 (1)">
<ellipse fill="#e98576" stroke="#e98576" cx="1795" cy="-90" rx="75.2018" ry="18"/>
<text text-anchor="middle" x="1795" y="-85.8" font-family="Times,serif" font-size="14.00">GO:0019825 (1)</text>
</a>
</g>
<!-- b0&#45;&gt;k1 -->
<g id="edge6" class="edge"><title>b0&#45;&gt;k1</title>
<path fill="none" stroke="black" d="M2755.07,-160.484C2594.06,-158.573 2203.34,-149.638 1879,-108 1872.16,-107.122 1865.04,-106.004 1857.97,-104.762"/>
<polygon fill="black" stroke="black" points="1858.15,-101.237 1847.68,-102.868 1856.88,-108.121 1858.15,-101.237"/>
</g>
<!-- p0 -->
<g id="node11" class="node"><title>p0</title>
<a xlink:href="0033218" xlink:title="GO:0033218 (13)">
<ellipse fill="#e98576" stroke="#e98576" cx="1968" cy="-90" rx="79.4447" ry="18"/>
<text text-anchor="middle" x="1968" y="-85.8" font-family="Times,serif" font-size="14.00">GO:0033218 (13)</text>
</a>
</g>
<!-- b0&#45;&gt;p0 -->
<g id="edge8" class="edge"><title>b0&#45;&gt;p0</title>
<path fill="none" stroke="black" d="M2755.9,-158.884C2617.89,-154.287 2312.31,-141.014 2057,-108 2049.62,-107.046 2041.94,-105.865 2034.3,-104.572"/>
<polygon fill="black" stroke="black" points="2034.79,-101.104 2024.33,-102.819 2033.58,-107.998 2034.79,-101.104"/>
</g>
<!-- r0 -->
<g id="node13" class="node"><title>r0</title>
<a xlink:href="0005515" xlink:title="GO:0005515 (12)">
<ellipse fill="#e98576" stroke="#e98576" cx="2146" cy="-90" rx="79.4447" ry="18"/>
<text text-anchor="middle" x="2146" y="-85.8" font-family="Times,serif" font-size="14.00">GO:0005515 (12)</text>
</a>
</g>
<!-- b0&#45;&gt;r0 -->
<g id="edge10" class="edge"><title>b0&#45;&gt;r0</title>
<path fill="none" stroke="black" d="M2757.84,-156.906C2645.63,-150.014 2422.7,-134.22 2235,-108 2227.82,-106.998 2220.35,-105.805 2212.91,-104.524"/>
<polygon fill="black" stroke="black" points="2213.29,-101.037 2202.83,-102.732 2212.07,-107.929 2213.29,-101.037"/>
</g>
<!-- a0 -->
<g id="node24" class="node"><title>a0</title>
<a xlink:href="0043167" xlink:title="GO:0043167 (113)">
<ellipse fill="#e98576" stroke="#e98576" cx="2329" cy="-90" rx="84.1886" ry="18"/>
<text text-anchor="middle" x="2329" y="-85.8" font-family="Times,serif" font-size="14.00">GO:0043167 (113)</text>
</a>
</g>
<!-- b0&#45;&gt;a0 -->
<g id="edge20" class="edge"><title>b0&#45;&gt;a0</title>
<path fill="none" stroke="black" d="M2763.95,-153.416C2683.31,-143.923 2542.87,-126.633 2423,-108 2415.59,-106.849 2407.87,-105.574 2400.18,-104.256"/>
<polygon fill="black" stroke="black" points="2400.56,-100.77 2390.11,-102.504 2399.36,-107.666 2400.56,-100.77"/>
</g>
<!-- f1 -->
<g id="node26" class="node"><title>f1</title>
<a xlink:href="0043176" xlink:title="GO:0043176">
<ellipse fill="#dddddd" stroke="#dddddd" cx="2493" cy="-90" rx="61.1934" ry="18"/>
<text text-anchor="middle" x="2493" y="-85.8" font-family="Times,serif" font-size="14.00">GO:0043176</text>
</a>
</g>
<!-- b0&#45;&gt;f1 -->
<g id="edge22" class="edge"><title>b0&#45;&gt;f1</title>
<path fill="none" stroke="black" d="M2772.56,-150.326C2718.39,-140.087 2634.99,-123.88 2563,-108 2558.09,-106.917 2552.99,-105.754 2547.89,-104.564"/>
<polygon fill="black" stroke="black" points="2548.66,-101.149 2538.12,-102.255 2547.05,-107.961 2548.66,-101.149"/>
</g>
<!-- j0 -->
<g id="node31" class="node"><title>j0</title>
<a xlink:href="0003676" xlink:title="GO:0003676 (31)">
<ellipse fill="#e98576" stroke="#e98576" cx="2652" cy="-90" rx="79.4447" ry="18"/>
<text text-anchor="middle" x="2652" y="-85.8" font-family="Times,serif" font-size="14.00">GO:0003676 (31)</text>
</a>
</g>
<!-- b0&#45;&gt;j0 -->
<g id="edge28" class="edge"><title>b0&#45;&gt;j0</title>
<path fill="none" stroke="black" d="M2792.69,-146.326C2765.57,-135.664 2728.67,-121.152 2699.46,-109.666"/>
<polygon fill="black" stroke="black" points="2700.47,-106.299 2689.88,-105.896 2697.9,-112.813 2700.47,-106.299"/>
</g>
<!-- i0 -->
<g id="node40" class="node"><title>i0</title>
<a xlink:href="0048037" xlink:title="GO:0048037 (32)">
<ellipse fill="#e98576" stroke="#e98576" cx="2830" cy="-90" rx="79.4447" ry="18"/>
<text text-anchor="middle" x="2830" y="-85.8" font-family="Times,serif" font-size="14.00">GO:0048037 (32)</text>
</a>
</g>
<!-- b0&#45;&gt;i0 -->
<g id="edge38" class="edge"><title>b0&#45;&gt;i0</title>
<path fill="none" stroke="black" d="M2830,-143.697C2830,-135.983 2830,-126.712 2830,-118.112"/>
<polygon fill="black" stroke="black" points="2833.5,-118.104 2830,-108.104 2826.5,-118.104 2833.5,-118.104"/>
</g>
<!-- c1 -->
<g id="node48" class="node"><title>c1</title>
<a xlink:href="0001882" xlink:title="GO:0001882 (1)">
<ellipse fill="#e98576" stroke="#e98576" cx="3003" cy="-90" rx="75.2018" ry="18"/>
<text text-anchor="middle" x="3003" y="-85.8" font-family="Times,serif" font-size="14.00">GO:0001882 (1)</text>
</a>
</g>
<!-- b0&#45;&gt;c1 -->
<g id="edge46" class="edge"><title>b0&#45;&gt;c1</title>
<path fill="none" stroke="black" d="M2866.69,-146.155C2893.07,-135.482 2928.82,-121.016 2957.09,-109.577"/>
<polygon fill="black" stroke="black" points="2958.41,-112.819 2966.36,-105.824 2955.78,-106.33 2958.41,-112.819"/>
</g>
<!-- e0 -->
<g id="node50" class="node"><title>e0</title>
<a xlink:href="0008144" xlink:title="GO:0008144 (79)">
<ellipse fill="#e98576" stroke="#e98576" cx="3176" cy="-90" rx="79.4447" ry="18"/>
<text text-anchor="middle" x="3176" y="-85.8" font-family="Times,serif" font-size="14.00">GO:0008144 (79)</text>
</a>
</g>
<!-- b0&#45;&gt;e0 -->
<g id="edge48" class="edge"><title>b0&#45;&gt;e0</title>
<path fill="none" stroke="black" d="M2885.59,-149.753C2946.34,-137.464 3043.65,-117.777 3108.67,-104.621"/>
<polygon fill="black" stroke="black" points="3109.71,-107.982 3118.82,-102.568 3108.32,-101.121 3109.71,-107.982"/>
</g>
<!-- n0 -->
<g id="node52" class="node"><title>n0</title>
<a xlink:href="0019842" xlink:title="GO:0019842 (18)">
<ellipse fill="#e98576" stroke="#e98576" cx="3354" cy="-90" rx="79.4447" ry="18"/>
<text text-anchor="middle" x="3354" y="-85.8" font-family="Times,serif" font-size="14.00">GO:0019842 (18)</text>
</a>
</g>
<!-- b0&#45;&gt;n0 -->
<g id="edge50" class="edge"><title>b0&#45;&gt;n0</title>
<path fill="none" stroke="black" d="M2883.64,-149.337C2893.69,-147.38 2904.14,-145.5 2914,-144 3068.59,-120.463 3109.26,-130.532 3264,-108 3271.33,-106.933 3278.97,-105.691 3286.57,-104.373"/>
<polygon fill="black" stroke="black" points="3287.27,-107.803 3296.51,-102.606 3286.05,-100.912 3287.27,-107.803"/>
</g>
<!-- z0 -->
<g id="node58" class="node"><title>z0</title>
<a xlink:href="0031406" xlink:title="GO:0031406 (2)">
<ellipse fill="#e98576" stroke="#e98576" cx="3527" cy="-90" rx="75.2018" ry="18"/>
<text text-anchor="middle" x="3527" y="-85.8" font-family="Times,serif" font-size="14.00">GO:0031406 (2)</text>
</a>
</g>
<!-- b0&#45;&gt;z0 -->
<g id="edge56" class="edge"><title>b0&#45;&gt;z0</title>
<path fill="none" stroke="black" d="M2883.15,-149.146C2893.35,-147.183 2903.97,-145.351 2914,-144 3147.11,-112.604 3208.86,-139.129 3442,-108 3449.08,-107.055 3456.45,-105.877 3463.76,-104.584"/>
<polygon fill="black" stroke="black" points="3464.47,-108.013 3473.67,-102.761 3463.2,-101.128 3464.47,-108.013"/>
</g>
<!-- j1 -->
<g id="node66" class="node"><title>j1</title>
<a xlink:href="0046906" xlink:title="GO:0046906 (1)">
<ellipse fill="#e98576" stroke="#e98576" cx="3695" cy="-90" rx="75.2018" ry="18"/>
<text text-anchor="middle" x="3695" y="-85.8" font-family="Times,serif" font-size="14.00">GO:0046906 (1)</text>
</a>
</g>
<!-- b0&#45;&gt;j1 -->
<g id="edge64" class="edge"><title>b0&#45;&gt;j1</title>
<path fill="none" stroke="black" d="M2882.68,-149.099C2893.02,-147.115 2903.81,-145.287 2914,-144 3221.75,-105.129 3303.25,-146.871 3611,-108 3617.84,-107.136 3624.96,-106.027 3632.03,-104.79"/>
<polygon fill="black" stroke="black" points="3633.12,-108.15 3642.32,-102.901 3631.85,-101.265 3633.12,-108.15"/>
</g>
<!-- d0 -->
<g id="node68" class="node"><title>d0</title>
<a xlink:href="0000166" xlink:title="GO:0000166 (80)">
<ellipse fill="#e98576" stroke="#e98576" cx="3868" cy="-90" rx="79.4447" ry="18"/>
<text text-anchor="middle" x="3868" y="-85.8" font-family="Times,serif" font-size="14.00">GO:0000166 (80)</text>
</a>
</g>
<!-- b0&#45;&gt;d0 -->
<g id="edge66" class="edge"><title>b0&#45;&gt;d0</title>
<path fill="none" stroke="black" d="M2882.67,-149.017C2893.01,-147.04 2903.81,-145.236 2914,-144 3295.98,-97.6933 3396.77,-152.215 3779,-108 3786.5,-107.133 3794.31,-105.993 3802.06,-104.715"/>
<polygon fill="black" stroke="black" points="3802.91,-108.118 3812.17,-102.964 3801.72,-101.221 3802.91,-108.118"/>
</g>
<!-- x0 -->
<g id="node73" class="node"><title>x0</title>
<a xlink:href="0051540" xlink:title="GO:0051540 (4)">
<ellipse fill="#e98576" stroke="#e98576" cx="4041" cy="-90" rx="75.2018" ry="18"/>
<text text-anchor="middle" x="4041" y="-85.8" font-family="Times,serif" font-size="14.00">GO:0051540 (4)</text>
</a>
</g>
<!-- b0&#45;&gt;x0 -->
<g id="edge72" class="edge"><title>b0&#45;&gt;x0</title>
<path fill="none" stroke="black" d="M2882.21,-149.045C2892.69,-147.039 2903.66,-145.217 2914,-144 3374.21,-89.8569 3495.72,-161.617 3956,-108 3963.19,-107.162 3970.69,-106.038 3978.11,-104.766"/>
<polygon fill="black" stroke="black" points="3978.94,-108.173 3988.16,-102.952 3977.7,-101.284 3978.94,-108.173"/>
</g>
<!-- u0 -->
<g id="node17" class="node"><title>u0</title>
<a xlink:href="0008233" xlink:title="GO:0008233 (9)">
<ellipse fill="#e98576" stroke="#e98576" cx="248" cy="-18" rx="75.2018" ry="18"/>
<text text-anchor="middle" x="248" y="-13.8" font-family="Times,serif" font-size="14.00">GO:0008233 (9)</text>
</a>
</g>
<!-- h0&#45;&gt;u0 -->
<g id="edge14" class="edge"><title>h0&#45;&gt;u0</title>
<path fill="none" stroke="black" d="M248,-71.6966C248,-63.9827 248,-54.7125 248,-46.1124"/>
<polygon fill="black" stroke="black" points="251.5,-46.1043 248,-36.1043 244.5,-46.1044 251.5,-46.1043"/>
</g>
<!-- a1 -->
<g id="node20" class="node"><title>a1</title>
<a xlink:href="0004497" xlink:title="GO:0004497 (2)">
<ellipse fill="#e98576" stroke="#e98576" cx="421" cy="-18" rx="75.2018" ry="18"/>
<text text-anchor="middle" x="421" y="-13.8" font-family="Times,serif" font-size="14.00">GO:0004497 (2)</text>
</a>
</g>
<!-- m0&#45;&gt;a1 -->
<g id="edge16" class="edge"><title>m0&#45;&gt;a1</title>
<path fill="none" stroke="black" d="M424.764,-71.6966C424.213,-63.9827 423.551,-54.7125 422.937,-46.1124"/>
<polygon fill="black" stroke="black" points="426.425,-45.8295 422.222,-36.1043 419.443,-46.3283 426.425,-45.8295"/>
</g>
<!-- b1 -->
<g id="node62" class="node"><title>b1</title>
<a xlink:href="0009055" xlink:title="GO:0009055 (1)">
<ellipse fill="#e98576" stroke="#e98576" cx="589" cy="-18" rx="75.2018" ry="18"/>
<text text-anchor="middle" x="589" y="-13.8" font-family="Times,serif" font-size="14.00">GO:0009055 (1)</text>
</a>
</g>
<!-- m0&#45;&gt;b1 -->
<g id="edge60" class="edge"><title>m0&#45;&gt;b1</title>
<path fill="none" stroke="black" d="M461.369,-73.811C485.802,-63.3181 518.484,-49.283 544.659,-38.0421"/>
<polygon fill="black" stroke="black" points="546.173,-41.201 553.981,-34.0389 543.411,-34.769 546.173,-41.201"/>
</g>
<!-- e1 -->
<g id="node54" class="node"><title>e1</title>
<a xlink:href="0016597" xlink:title="GO:0016597 (1)">
<ellipse fill="#e98576" stroke="#e98576" cx="2493" cy="-18" rx="75.2018" ry="18"/>
<text text-anchor="middle" x="2493" y="-13.8" font-family="Times,serif" font-size="14.00">GO:0016597 (1)</text>
</a>
</g>
<!-- f1&#45;&gt;e1 -->
<g id="edge52" class="edge"><title>f1&#45;&gt;e1</title>
<path fill="none" stroke="black" d="M2493,-71.6966C2493,-63.9827 2493,-54.7125 2493,-46.1124"/>
<polygon fill="black" stroke="black" points="2496.5,-46.1043 2493,-36.1043 2489.5,-46.1044 2496.5,-46.1043"/>
</g>
<!-- k0 -->
<g id="node41" class="node"><title>k0</title>
<a xlink:href="0004871" xlink:title="GO:0004871 (22)">
<ellipse fill="#e98576" stroke="#e98576" cx="4214" cy="-90" rx="79.4447" ry="18"/>
<text text-anchor="middle" x="4214" y="-85.8" font-family="Times,serif" font-size="14.00">GO:0004871 (22)</text>
</a>
</g>
<!-- o0 -->
<g id="node43" class="node"><title>o0</title>
<a xlink:href="0004872" xlink:title="GO:0004872 (17)">
<ellipse fill="#e98576" stroke="#e98576" cx="4214" cy="-18" rx="79.4447" ry="18"/>
<text text-anchor="middle" x="4214" y="-13.8" font-family="Times,serif" font-size="14.00">GO:0004872 (17)</text>
</a>
</g>
<!-- k0&#45;&gt;o0 -->
<g id="edge40" class="edge"><title>k0&#45;&gt;o0</title>
<path fill="none" stroke="black" d="M4214,-71.6966C4214,-63.9827 4214,-54.7125 4214,-46.1124"/>
<polygon fill="black" stroke="black" points="4217.5,-46.1043 4214,-36.1043 4210.5,-46.1044 4217.5,-46.1043"/>
</g>
<!-- l0&#45;&gt;k0 -->
<g id="edge54" class="edge"><title>l0&#45;&gt;k0</title>
<path fill="none" stroke="black" d="M3821.39,-153.667C3891.65,-144.031 4017.68,-126.186 4125,-108 4131.77,-106.852 4138.83,-105.601 4145.87,-104.316"/>
<polygon fill="black" stroke="black" points="4146.94,-107.677 4156.13,-102.416 4145.66,-100.794 4146.94,-107.677"/>
</g>
</g>
</svg>
