<?xml version="1.0" encoding="UTF-8" standalone="no"?>
<!DOCTYPE svg PUBLIC "-//W3C//DTD SVG 1.1//EN"
 "http://www.w3.org/Graphics/SVG/1.1/DTD/svg11.dtd">
<!-- Generated by graphviz version 2.28.0 (20110622.2320)
 -->
<!-- Title: G Pages: 1 -->
<svg width="1848pt" height="260pt"
 viewBox="0.00 0.00 1848.00 260.00" xmlns="http://www.w3.org/2000/svg" xmlns:xlink="http://www.w3.org/1999/xlink">
<g id="graph1" class="graph" transform="scale(1 1) rotate(0) translate(4 256)">
<title>G</title>
<polygon fill="white" stroke="white" points="-4,5 -4,-256 1845,-256 1845,5 -4,5"/>
<!-- c0 -->
<g id="node1" class="node"><title>c0</title>
<a xlink:href="0003674" xlink:title="GO:0003674 (1)">
<ellipse fill="#e98576" stroke="#e98576" cx="1165" cy="-234" rx="75.2018" ry="18"/>
<text text-anchor="middle" x="1165" y="-229.8" font-family="Times,serif" font-size="14.00">GO:0003674 (1)</text>
</a>
</g>
<!-- q0 -->
<g id="node3" class="node"><title>q0</title>
<a xlink:href="0030234" xlink:title="GO:0030234 (1)">
<ellipse fill="#e98576" stroke="#e98576" cx="327" cy="-162" rx="75.2018" ry="18"/>
<text text-anchor="middle" x="327" y="-157.8" font-family="Times,serif" font-size="14.00">GO:0030234 (1)</text>
</a>
</g>
<!-- c0&#45;&gt;q0 -->
<g id="edge2" class="edge"><title>c0&#45;&gt;q0</title>
<path fill="none" stroke="black" d="M1090.83,-230.971C955.283,-226.557 658.713,-213.628 411,-180 404.264,-179.086 397.257,-177.956 390.29,-176.717"/>
<polygon fill="black" stroke="black" points="390.618,-173.219 380.147,-174.837 389.342,-180.101 390.618,-173.219"/>
</g>
<!-- e0 -->
<g id="node4" class="node"><title>e0</title>
<a xlink:href="0003824" xlink:title="GO:0003824 (2)">
<ellipse fill="#e98576" stroke="#e98576" cx="495" cy="-162" rx="75.2018" ry="18"/>
<text text-anchor="middle" x="495" y="-157.8" font-family="Times,serif" font-size="14.00">GO:0003824 (2)</text>
</a>
</g>
<!-- c0&#45;&gt;e0 -->
<g id="edge6" class="edge"><title>c0&#45;&gt;e0</title>
<path fill="none" stroke="black" d="M1097.69,-225.968C972.528,-212.891 704.704,-184.909 572.33,-171.079"/>
<polygon fill="black" stroke="black" points="572.575,-167.586 562.265,-170.028 571.847,-174.548 572.575,-167.586"/>
</g>
<!-- b0 -->
<g id="node8" class="node"><title>b0</title>
<a xlink:href="0005488" xlink:title="GO:0005488">
<ellipse fill="#dddddd" stroke="#dddddd" cx="1088" cy="-162" rx="61.1934" ry="18"/>
<text text-anchor="middle" x="1088" y="-157.8" font-family="Times,serif" font-size="14.00">GO:0005488</text>
</a>
</g>
<!-- c0&#45;&gt;b0 -->
<g id="edge12" class="edge"><title>c0&#45;&gt;b0</title>
<path fill="none" stroke="black" d="M1146.75,-216.411C1136.8,-207.367 1124.33,-196.03 1113.44,-186.13"/>
<polygon fill="black" stroke="black" points="1115.61,-183.365 1105.85,-179.228 1110.9,-188.545 1115.61,-183.365"/>
</g>
<!-- o0 -->
<g id="node21" class="node"><title>o0</title>
<a xlink:href="0016209" xlink:title="GO:0016209 (2)">
<ellipse fill="#e98576" stroke="#e98576" cx="1243" cy="-162" rx="75.2018" ry="18"/>
<text text-anchor="middle" x="1243" y="-157.8" font-family="Times,serif" font-size="14.00">GO:0016209 (2)</text>
</a>
</g>
<!-- c0&#45;&gt;o0 -->
<g id="edge18" class="edge"><title>c0&#45;&gt;o0</title>
<path fill="none" stroke="black" d="M1183.48,-216.411C1193.49,-207.432 1206.01,-196.193 1216.99,-186.344"/>
<polygon fill="black" stroke="black" points="1219.54,-188.754 1224.65,-179.47 1214.87,-183.544 1219.54,-188.754"/>
</g>
<!-- m0 -->
<g id="node23" class="node"><title>m0</title>
<a xlink:href="0005215" xlink:title="GO:0005215 (2)">
<ellipse fill="#e98576" stroke="#e98576" cx="1411" cy="-162" rx="75.2018" ry="18"/>
<text text-anchor="middle" x="1411" y="-157.8" font-family="Times,serif" font-size="14.00">GO:0005215 (2)</text>
</a>
</g>
<!-- c0&#45;&gt;m0 -->
<g id="edge20" class="edge"><title>c0&#45;&gt;m0</title>
<path fill="none" stroke="black" d="M1211.56,-219.751C1252.27,-208.168 1311.48,-191.319 1354.81,-178.989"/>
<polygon fill="black" stroke="black" points="1355.97,-182.298 1364.63,-176.195 1354.05,-175.565 1355.97,-182.298"/>
</g>
<!-- p0 -->
<g id="node27" class="node"><title>p0</title>
<a xlink:href="0045735" xlink:title="GO:0045735 (2)">
<ellipse fill="#e98576" stroke="#e98576" cx="1579" cy="-162" rx="75.2018" ry="18"/>
<text text-anchor="middle" x="1579" y="-157.8" font-family="Times,serif" font-size="14.00">GO:0045735 (2)</text>
</a>
</g>
<!-- c0&#45;&gt;p0 -->
<g id="edge24" class="edge"><title>c0&#45;&gt;p0</title>
<path fill="none" stroke="black" d="M1227.17,-223.783C1293.6,-213.753 1401.94,-196.883 1495,-180 1501.24,-178.867 1507.74,-177.64 1514.23,-176.381"/>
<polygon fill="black" stroke="black" points="1515.25,-179.748 1524.39,-174.386 1513.9,-172.879 1515.25,-179.748"/>
</g>
<!-- l0 -->
<g id="node6" class="node"><title>l0</title>
<a xlink:href="0016853" xlink:title="GO:0016853 (2)">
<ellipse fill="#e98576" stroke="#e98576" cx="75" cy="-90" rx="75.2018" ry="18"/>
<text text-anchor="middle" x="75" y="-85.8" font-family="Times,serif" font-size="14.00">GO:0016853 (2)</text>
</a>
</g>
<!-- e0&#45;&gt;l0 -->
<g id="edge4" class="edge"><title>e0&#45;&gt;l0</title>
<path fill="none" stroke="black" d="M440.412,-149.476C430.637,-147.549 420.531,-145.644 411,-144 299.509,-124.771 270.491,-127.229 159,-108 152.746,-106.921 146.243,-105.73 139.749,-104.494"/>
<polygon fill="black" stroke="black" points="140.072,-100.991 129.588,-102.524 138.739,-107.863 140.072,-100.991"/>
</g>
<!-- d0 -->
<g id="node14" class="node"><title>d0</title>
<a xlink:href="0016787" xlink:title="GO:0016787 (7)">
<ellipse fill="#e98576" stroke="#e98576" cx="243" cy="-90" rx="75.2018" ry="18"/>
<text text-anchor="middle" x="243" y="-85.8" font-family="Times,serif" font-size="14.00">GO:0016787 (7)</text>
</a>
</g>
<!-- e0&#45;&gt;d0 -->
<g id="edge26" class="edge"><title>e0&#45;&gt;d0</title>
<path fill="none" stroke="black" d="M447.896,-147.916C406.045,-136.29 344.762,-119.267 300.126,-106.868"/>
<polygon fill="black" stroke="black" points="300.872,-103.443 290.3,-104.139 298.998,-110.188 300.872,-103.443"/>
</g>
<!-- f0 -->
<g id="node17" class="node"><title>f0</title>
<a xlink:href="0016491" xlink:title="GO:0016491 (5)">
<ellipse fill="#e98576" stroke="#e98576" cx="411" cy="-90" rx="75.2018" ry="18"/>
<text text-anchor="middle" x="411" y="-85.8" font-family="Times,serif" font-size="14.00">GO:0016491 (5)</text>
</a>
</g>
<!-- e0&#45;&gt;f0 -->
<g id="edge34" class="edge"><title>e0&#45;&gt;f0</title>
<path fill="none" stroke="black" d="M475.093,-144.411C464.214,-135.345 450.569,-123.974 438.669,-114.057"/>
<polygon fill="black" stroke="black" points="440.687,-111.183 430.764,-107.47 436.206,-116.561 440.687,-111.183"/>
</g>
<!-- g0 -->
<g id="node32" class="node"><title>g0</title>
<a xlink:href="0016740" xlink:title="GO:0016740 (4)">
<ellipse fill="#e98576" stroke="#e98576" cx="579" cy="-90" rx="75.2018" ry="18"/>
<text text-anchor="middle" x="579" y="-85.8" font-family="Times,serif" font-size="14.00">GO:0016740 (4)</text>
</a>
</g>
<!-- e0&#45;&gt;g0 -->
<g id="edge30" class="edge"><title>e0&#45;&gt;g0</title>
<path fill="none" stroke="black" d="M514.907,-144.411C525.786,-135.345 539.431,-123.974 551.331,-114.057"/>
<polygon fill="black" stroke="black" points="553.794,-116.561 559.236,-107.47 549.313,-111.183 553.794,-116.561"/>
</g>
<!-- s0 -->
<g id="node10" class="node"><title>s0</title>
<a xlink:href="0001882" xlink:title="GO:0001882 (1)">
<ellipse fill="#e98576" stroke="#e98576" cx="747" cy="-90" rx="75.2018" ry="18"/>
<text text-anchor="middle" x="747" y="-85.8" font-family="Times,serif" font-size="14.00">GO:0001882 (1)</text>
</a>
</g>
<!-- b0&#45;&gt;s0 -->
<g id="edge8" class="edge"><title>b0&#45;&gt;s0</title>
<path fill="none" stroke="black" d="M1039.14,-150.971C979.411,-138.709 878.117,-117.916 811.891,-104.321"/>
<polygon fill="black" stroke="black" points="812.479,-100.869 801.98,-102.286 811.072,-107.726 812.479,-100.869"/>
</g>
<!-- i0 -->
<g id="node12" class="node"><title>i0</title>
<a xlink:href="0005515" xlink:title="GO:0005515 (3)">
<ellipse fill="#e98576" stroke="#e98576" cx="915" cy="-90" rx="75.2018" ry="18"/>
<text text-anchor="middle" x="915" y="-85.8" font-family="Times,serif" font-size="14.00">GO:0005515 (3)</text>
</a>
</g>
<!-- b0&#45;&gt;i0 -->
<g id="edge10" class="edge"><title>b0&#45;&gt;i0</title>
<path fill="none" stroke="black" d="M1053.41,-147.003C1026.92,-136.285 990.124,-121.397 961.131,-109.666"/>
<polygon fill="black" stroke="black" points="962.206,-106.325 951.624,-105.819 959.581,-112.814 962.206,-106.325"/>
</g>
<!-- a0 -->
<g id="node25" class="node"><title>a0</title>
<a xlink:href="0043167" xlink:title="GO:0043167 (10)">
<ellipse fill="#e98576" stroke="#e98576" cx="1088" cy="-90" rx="79.4447" ry="18"/>
<text text-anchor="middle" x="1088" y="-85.8" font-family="Times,serif" font-size="14.00">GO:0043167 (10)</text>
</a>
</g>
<!-- b0&#45;&gt;a0 -->
<g id="edge22" class="edge"><title>b0&#45;&gt;a0</title>
<path fill="none" stroke="black" d="M1088,-143.697C1088,-135.983 1088,-126.712 1088,-118.112"/>
<polygon fill="black" stroke="black" points="1091.5,-118.104 1088,-108.104 1084.5,-118.104 1091.5,-118.104"/>
</g>
<!-- h0 -->
<g id="node34" class="node"><title>h0</title>
<a xlink:href="0003676" xlink:title="GO:0003676 (4)">
<ellipse fill="#e98576" stroke="#e98576" cx="1261" cy="-90" rx="75.2018" ry="18"/>
<text text-anchor="middle" x="1261" y="-85.8" font-family="Times,serif" font-size="14.00">GO:0003676 (4)</text>
</a>
</g>
<!-- b0&#45;&gt;h0 -->
<g id="edge32" class="edge"><title>b0&#45;&gt;h0</title>
<path fill="none" stroke="black" d="M1122.59,-147.003C1149.08,-136.285 1185.88,-121.397 1214.87,-109.666"/>
<polygon fill="black" stroke="black" points="1216.42,-112.814 1224.38,-105.819 1213.79,-106.325 1216.42,-112.814"/>
</g>
<!-- j0 -->
<g id="node37" class="node"><title>j0</title>
<a xlink:href="0046906" xlink:title="GO:0046906 (3)">
<ellipse fill="#e98576" stroke="#e98576" cx="1429" cy="-90" rx="75.2018" ry="18"/>
<text text-anchor="middle" x="1429" y="-85.8" font-family="Times,serif" font-size="14.00">GO:0046906 (3)</text>
</a>
</g>
<!-- b0&#45;&gt;j0 -->
<g id="edge36" class="edge"><title>b0&#45;&gt;j0</title>
<path fill="none" stroke="black" d="M1133.38,-149.821C1141.88,-147.816 1150.7,-145.796 1159,-144 1241.3,-126.192 1262.4,-124.351 1345,-108 1351.13,-106.786 1357.51,-105.514 1363.89,-104.233"/>
<polygon fill="black" stroke="black" points="1364.77,-107.626 1373.89,-102.223 1363.39,-100.763 1364.77,-107.626"/>
</g>
<!-- k0 -->
<g id="node39" class="node"><title>k0</title>
<a xlink:href="0000166" xlink:title="GO:0000166 (3)">
<ellipse fill="#e98576" stroke="#e98576" cx="1597" cy="-90" rx="75.2018" ry="18"/>
<text text-anchor="middle" x="1597" y="-85.8" font-family="Times,serif" font-size="14.00">GO:0000166 (3)</text>
</a>
</g>
<!-- b0&#45;&gt;k0 -->
<g id="edge38" class="edge"><title>b0&#45;&gt;k0</title>
<path fill="none" stroke="black" d="M1132.12,-149.47C1140.98,-147.429 1150.25,-145.485 1159,-144 1314.91,-117.529 1356.64,-131.713 1513,-108 1519.62,-106.996 1526.51,-105.819 1533.37,-104.561"/>
<polygon fill="black" stroke="black" points="1534.19,-107.969 1543.37,-102.672 1532.89,-101.091 1534.19,-107.969"/>
</g>
<!-- t0 -->
<g id="node41" class="node"><title>t0</title>
<a xlink:href="0048037" xlink:title="GO:0048037 (1)">
<ellipse fill="#e98576" stroke="#e98576" cx="1765" cy="-90" rx="75.2018" ry="18"/>
<text text-anchor="middle" x="1765" y="-85.8" font-family="Times,serif" font-size="14.00">GO:0048037 (1)</text>
</a>
</g>
<!-- b0&#45;&gt;t0 -->
<g id="edge40" class="edge"><title>b0&#45;&gt;t0</title>
<path fill="none" stroke="black" d="M1131.71,-149.331C1140.68,-147.276 1150.1,-145.362 1159,-144 1388.87,-108.803 1450.54,-139.131 1681,-108 1687.74,-107.09 1694.74,-105.963 1701.71,-104.726"/>
<polygon fill="black" stroke="black" points="1702.66,-108.11 1711.85,-102.847 1701.38,-101.228 1702.66,-108.11"/>
</g>
<!-- n0 -->
<g id="node16" class="node"><title>n0</title>
<a xlink:href="0008233" xlink:title="GO:0008233 (2)">
<ellipse fill="#e98576" stroke="#e98576" cx="243" cy="-18" rx="75.2018" ry="18"/>
<text text-anchor="middle" x="243" y="-13.8" font-family="Times,serif" font-size="14.00">GO:0008233 (2)</text>
</a>
</g>
<!-- d0&#45;&gt;n0 -->
<g id="edge14" class="edge"><title>d0&#45;&gt;n0</title>
<path fill="none" stroke="black" d="M243,-71.6966C243,-63.9827 243,-54.7125 243,-46.1124"/>
<polygon fill="black" stroke="black" points="246.5,-46.1043 243,-36.1043 239.5,-46.1044 246.5,-46.1043"/>
</g>
<!-- u0 -->
<g id="node19" class="node"><title>u0</title>
<a xlink:href="0004497" xlink:title="GO:0004497 (1)">
<ellipse fill="#e98576" stroke="#e98576" cx="411" cy="-18" rx="75.2018" ry="18"/>
<text text-anchor="middle" x="411" y="-13.8" font-family="Times,serif" font-size="14.00">GO:0004497 (1)</text>
</a>
</g>
<!-- f0&#45;&gt;u0 -->
<g id="edge16" class="edge"><title>f0&#45;&gt;u0</title>
<path fill="none" stroke="black" d="M411,-71.6966C411,-63.9827 411,-54.7125 411,-46.1124"/>
<polygon fill="black" stroke="black" points="414.5,-46.1043 411,-36.1043 407.5,-46.1044 414.5,-46.1043"/>
</g>
<!-- r0 -->
<g id="node30" class="node"><title>r0</title>
<a xlink:href="0009055" xlink:title="GO:0009055 (1)">
<ellipse fill="#e98576" stroke="#e98576" cx="579" cy="-18" rx="75.2018" ry="18"/>
<text text-anchor="middle" x="579" y="-13.8" font-family="Times,serif" font-size="14.00">GO:0009055 (1)</text>
</a>
</g>
<!-- f0&#45;&gt;r0 -->
<g id="edge28" class="edge"><title>f0&#45;&gt;r0</title>
<path fill="none" stroke="black" d="M446.628,-74.1548C472.046,-63.5644 506.426,-49.2392 533.778,-37.8424"/>
<polygon fill="black" stroke="black" points="535.249,-41.0213 543.134,-33.9443 532.557,-34.5597 535.249,-41.0213"/>
</g>
</g>
</svg>
