<?xml version="1.0" encoding="UTF-8" standalone="no"?>
<!DOCTYPE svg PUBLIC "-//W3C//DTD SVG 1.1//EN"
 "http://www.w3.org/Graphics/SVG/1.1/DTD/svg11.dtd">
<!-- Generated by graphviz version 2.28.0 (20110622.2320)
 -->
<!-- Title: G Pages: 1 -->
<svg width="998pt" height="260pt"
 viewBox="0.00 0.00 998.00 260.00" xmlns="http://www.w3.org/2000/svg" xmlns:xlink="http://www.w3.org/1999/xlink">
<g id="graph1" class="graph" transform="scale(1 1) rotate(0) translate(4 256)">
<title>G</title>
<polygon fill="white" stroke="white" points="-4,5 -4,-256 995,-256 995,5 -4,5"/>
<!-- g0 -->
<g id="node1" class="node"><title>g0</title>
<a xlink:href="0005488" xlink:title="GO:0005488">
<ellipse fill="#dddddd" stroke="#dddddd" cx="291" cy="-162" rx="61.1934" ry="18"/>
<text text-anchor="middle" x="291" y="-157.8" font-family="Times,serif" font-size="14.00">GO:0005488</text>
</a>
</g>
<!-- f0 -->
<g id="node3" class="node"><title>f0</title>
<a xlink:href="0043167" xlink:title="GO:0043167 (4)">
<ellipse fill="#e98576" stroke="#e98576" cx="75" cy="-90" rx="75.2018" ry="18"/>
<text text-anchor="middle" x="75" y="-85.8" font-family="Times,serif" font-size="14.00">GO:0043167 (4)</text>
</a>
</g>
<!-- g0&#45;&gt;f0 -->
<g id="edge2" class="edge"><title>g0&#45;&gt;f0</title>
<path fill="none" stroke="black" d="M251.382,-148.161C216.612,-136.893 165.778,-120.419 127.605,-108.048"/>
<polygon fill="black" stroke="black" points="128.287,-104.59 117.695,-104.836 126.129,-111.249 128.287,-104.59"/>
</g>
<!-- i0 -->
<g id="node12" class="node"><title>i0</title>
<a xlink:href="0001882" xlink:title="GO:0001882 (1)">
<ellipse fill="#e98576" stroke="#e98576" cx="243" cy="-90" rx="75.2018" ry="18"/>
<text text-anchor="middle" x="243" y="-85.8" font-family="Times,serif" font-size="14.00">GO:0001882 (1)</text>
</a>
</g>
<!-- g0&#45;&gt;i0 -->
<g id="edge10" class="edge"><title>g0&#45;&gt;i0</title>
<path fill="none" stroke="black" d="M279.381,-144.055C273.661,-135.715 266.651,-125.491 260.315,-116.252"/>
<polygon fill="black" stroke="black" points="263.054,-114.057 254.512,-107.789 257.281,-118.016 263.054,-114.057"/>
</g>
<!-- k0 -->
<g id="node17" class="node"><title>k0</title>
<a xlink:href="0000166" xlink:title="GO:0000166 (1)">
<ellipse fill="#e98576" stroke="#e98576" cx="411" cy="-90" rx="75.2018" ry="18"/>
<text text-anchor="middle" x="411" y="-85.8" font-family="Times,serif" font-size="14.00">GO:0000166 (1)</text>
</a>
</g>
<!-- g0&#45;&gt;k0 -->
<g id="edge16" class="edge"><title>g0&#45;&gt;k0</title>
<path fill="none" stroke="black" d="M317.335,-145.638C334.291,-135.747 356.553,-122.761 375.118,-111.931"/>
<polygon fill="black" stroke="black" points="377.021,-114.873 383.895,-106.811 373.494,-108.827 377.021,-114.873"/>
</g>
<!-- d0 -->
<g id="node4" class="node"><title>d0</title>
<a xlink:href="0003674" xlink:title="GO:0003674">
<ellipse fill="#dddddd" stroke="#dddddd" cx="459" cy="-234" rx="61.1934" ry="18"/>
<text text-anchor="middle" x="459" y="-229.8" font-family="Times,serif" font-size="14.00">GO:0003674</text>
</a>
</g>
<!-- d0&#45;&gt;g0 -->
<g id="edge14" class="edge"><title>d0&#45;&gt;g0</title>
<path fill="none" stroke="black" d="M425.003,-218.834C398.816,-207.923 362.435,-192.765 334.188,-180.995"/>
<polygon fill="black" stroke="black" points="335.524,-177.76 324.947,-177.144 332.831,-184.221 335.524,-177.76"/>
</g>
<!-- h0 -->
<g id="node6" class="node"><title>h0</title>
<a xlink:href="0030234" xlink:title="GO:0030234 (1)">
<ellipse fill="#e98576" stroke="#e98576" cx="459" cy="-162" rx="75.2018" ry="18"/>
<text text-anchor="middle" x="459" y="-157.8" font-family="Times,serif" font-size="14.00">GO:0030234 (1)</text>
</a>
</g>
<!-- d0&#45;&gt;h0 -->
<g id="edge4" class="edge"><title>d0&#45;&gt;h0</title>
<path fill="none" stroke="black" d="M459,-215.697C459,-207.983 459,-198.712 459,-190.112"/>
<polygon fill="black" stroke="black" points="462.5,-190.104 459,-180.104 455.5,-190.104 462.5,-190.104"/>
</g>
<!-- c0 -->
<g id="node8" class="node"><title>c0</title>
<a xlink:href="0003824" xlink:title="GO:0003824">
<ellipse fill="#dddddd" stroke="#dddddd" cx="663" cy="-162" rx="61.1934" ry="18"/>
<text text-anchor="middle" x="663" y="-157.8" font-family="Times,serif" font-size="14.00">GO:0003824</text>
</a>
</g>
<!-- d0&#45;&gt;c0 -->
<g id="edge6" class="edge"><title>d0&#45;&gt;c0</title>
<path fill="none" stroke="black" d="M497.371,-219.834C530.708,-208.394 579.145,-191.774 615.034,-179.459"/>
<polygon fill="black" stroke="black" points="616.479,-182.664 624.801,-176.107 614.207,-176.043 616.479,-182.664"/>
</g>
<!-- j0 -->
<g id="node10" class="node"><title>j0</title>
<a xlink:href="0016740" xlink:title="GO:0016740 (1)">
<ellipse fill="#e98576" stroke="#e98576" cx="579" cy="-90" rx="75.2018" ry="18"/>
<text text-anchor="middle" x="579" y="-85.8" font-family="Times,serif" font-size="14.00">GO:0016740 (1)</text>
</a>
</g>
<!-- c0&#45;&gt;j0 -->
<g id="edge8" class="edge"><title>c0&#45;&gt;j0</title>
<path fill="none" stroke="black" d="M643.518,-144.765C632.57,-135.642 618.725,-124.105 606.67,-114.059"/>
<polygon fill="black" stroke="black" points="608.591,-111.103 598.668,-107.39 604.109,-116.48 608.591,-111.103"/>
</g>
<!-- b0 -->
<g id="node14" class="node"><title>b0</title>
<a xlink:href="0016491" xlink:title="GO:0016491 (9)">
<ellipse fill="#e98576" stroke="#e98576" cx="747" cy="-90" rx="75.2018" ry="18"/>
<text text-anchor="middle" x="747" y="-85.8" font-family="Times,serif" font-size="14.00">GO:0016491 (9)</text>
</a>
</g>
<!-- c0&#45;&gt;b0 -->
<g id="edge12" class="edge"><title>c0&#45;&gt;b0</title>
<path fill="none" stroke="black" d="M682.482,-144.765C693.43,-135.642 707.275,-124.105 719.33,-114.059"/>
<polygon fill="black" stroke="black" points="721.891,-116.48 727.332,-107.39 717.409,-111.103 721.891,-116.48"/>
</g>
<!-- e0 -->
<g id="node19" class="node"><title>e0</title>
<a xlink:href="0016829" xlink:title="GO:0016829 (9)">
<ellipse fill="#e98576" stroke="#e98576" cx="915" cy="-90" rx="75.2018" ry="18"/>
<text text-anchor="middle" x="915" y="-85.8" font-family="Times,serif" font-size="14.00">GO:0016829 (9)</text>
</a>
</g>
<!-- c0&#45;&gt;e0 -->
<g id="edge18" class="edge"><title>c0&#45;&gt;e0</title>
<path fill="none" stroke="black" d="M706.034,-149.046C747.943,-137.405 811.895,-119.64 858.012,-106.83"/>
<polygon fill="black" stroke="black" points="859.161,-110.143 867.859,-104.095 857.287,-103.399 859.161,-110.143"/>
</g>
<!-- a0 -->
<g id="node21" class="node"><title>a0</title>
<a xlink:href="0004497" xlink:title="GO:0004497 (9)">
<ellipse fill="#e98576" stroke="#e98576" cx="747" cy="-18" rx="75.2018" ry="18"/>
<text text-anchor="middle" x="747" y="-13.8" font-family="Times,serif" font-size="14.00">GO:0004497 (9)</text>
</a>
</g>
<!-- b0&#45;&gt;a0 -->
<g id="edge20" class="edge"><title>b0&#45;&gt;a0</title>
<path fill="none" stroke="black" d="M747,-71.6966C747,-63.9827 747,-54.7125 747,-46.1124"/>
<polygon fill="black" stroke="black" points="750.5,-46.1043 747,-36.1043 743.5,-46.1044 750.5,-46.1043"/>
</g>
</g>
</svg>
