<?xml version="1.0" encoding="UTF-8" standalone="no"?>
<!DOCTYPE svg PUBLIC "-//W3C//DTD SVG 1.1//EN"
 "http://www.w3.org/Graphics/SVG/1.1/DTD/svg11.dtd">
<!-- Generated by graphviz version 2.28.0 (20110622.2320)
 -->
<!-- Title: G Pages: 1 -->
<svg width="2738pt" height="260pt"
 viewBox="0.00 0.00 2738.00 260.00" xmlns="http://www.w3.org/2000/svg" xmlns:xlink="http://www.w3.org/1999/xlink">
<g id="graph1" class="graph" transform="scale(1 1) rotate(0) translate(4 256)">
<title>G</title>
<polygon fill="white" stroke="white" points="-4,5 -4,-256 2735,-256 2735,5 -4,5"/>
<!-- f0 -->
<g id="node1" class="node"><title>f0</title>
<a xlink:href="0003824" xlink:title="GO:0003824 (6)">
<ellipse fill="#e98576" stroke="#e98576" cx="686" cy="-162" rx="75.2018" ry="18"/>
<text text-anchor="middle" x="686" y="-157.8" font-family="Times,serif" font-size="14.00">GO:0003824 (6)</text>
</a>
</g>
<!-- s0 -->
<g id="node3" class="node"><title>s0</title>
<a xlink:href="0016853" xlink:title="GO:0016853 (1)">
<ellipse fill="#e98576" stroke="#e98576" cx="75" cy="-90" rx="75.2018" ry="18"/>
<text text-anchor="middle" x="75" y="-85.8" font-family="Times,serif" font-size="14.00">GO:0016853 (1)</text>
</a>
</g>
<!-- f0&#45;&gt;s0 -->
<g id="edge2" class="edge"><title>f0&#45;&gt;s0</title>
<path fill="none" stroke="black" d="M614.97,-156.111C513.482,-148.615 321.297,-132.522 159,-108 152.377,-106.999 145.486,-105.825 138.626,-104.569"/>
<polygon fill="black" stroke="black" points="139.108,-101.098 128.633,-102.681 137.809,-107.976 139.108,-101.098"/>
</g>
<!-- h0 -->
<g id="node14" class="node"><title>h0</title>
<a xlink:href="0016787" xlink:title="GO:0016787 (11)">
<ellipse fill="#e98576" stroke="#e98576" cx="248" cy="-90" rx="79.4447" ry="18"/>
<text text-anchor="middle" x="248" y="-85.8" font-family="Times,serif" font-size="14.00">GO:0016787 (11)</text>
</a>
</g>
<!-- f0&#45;&gt;h0 -->
<g id="edge24" class="edge"><title>f0&#45;&gt;h0</title>
<path fill="none" stroke="black" d="M622.836,-152.145C552.839,-142.16 436.667,-125.08 337,-108 330.229,-106.84 323.178,-105.58 316.139,-104.29"/>
<polygon fill="black" stroke="black" points="316.341,-100.768 305.871,-102.384 315.064,-107.65 316.341,-100.768"/>
</g>
<!-- e0 -->
<g id="node26" class="node"><title>e0</title>
<a xlink:href="0016491" xlink:title="GO:0016491 (17)">
<ellipse fill="#e98576" stroke="#e98576" cx="426" cy="-90" rx="79.4447" ry="18"/>
<text text-anchor="middle" x="426" y="-85.8" font-family="Times,serif" font-size="14.00">GO:0016491 (17)</text>
</a>
</g>
<!-- f0&#45;&gt;e0 -->
<g id="edge34" class="edge"><title>f0&#45;&gt;e0</title>
<path fill="none" stroke="black" d="M638.009,-148.079C594.812,-136.449 531.197,-119.322 484.926,-106.865"/>
<polygon fill="black" stroke="black" points="485.601,-103.422 475.035,-104.202 483.781,-110.181 485.601,-103.422"/>
</g>
<!-- t0 -->
<g id="node30" class="node"><title>t0</title>
<a xlink:href="0016874" xlink:title="GO:0016874 (1)">
<ellipse fill="#e98576" stroke="#e98576" cx="599" cy="-90" rx="75.2018" ry="18"/>
<text text-anchor="middle" x="599" y="-85.8" font-family="Times,serif" font-size="14.00">GO:0016874 (1)</text>
</a>
</g>
<!-- f0&#45;&gt;t0 -->
<g id="edge28" class="edge"><title>f0&#45;&gt;t0</title>
<path fill="none" stroke="black" d="M665.382,-144.411C654.006,-135.257 639.71,-123.755 627.302,-113.772"/>
<polygon fill="black" stroke="black" points="629.455,-111.012 619.47,-107.47 625.067,-116.466 629.455,-111.012"/>
</g>
<!-- i0 -->
<g id="node32" class="node"><title>i0</title>
<a xlink:href="0016740" xlink:title="GO:0016740 (10)">
<ellipse fill="#e98576" stroke="#e98576" cx="772" cy="-90" rx="79.4447" ry="18"/>
<text text-anchor="middle" x="772" y="-85.8" font-family="Times,serif" font-size="14.00">GO:0016740 (10)</text>
</a>
</g>
<!-- f0&#45;&gt;i0 -->
<g id="edge30" class="edge"><title>f0&#45;&gt;i0</title>
<path fill="none" stroke="black" d="M706.381,-144.411C717.519,-135.345 731.489,-123.974 743.673,-114.057"/>
<polygon fill="black" stroke="black" points="746.219,-116.497 751.765,-107.47 741.8,-111.068 746.219,-116.497"/>
</g>
<!-- v0 -->
<g id="node41" class="node"><title>v0</title>
<a xlink:href="0004386" xlink:title="GO:0004386 (1)">
<ellipse fill="#e98576" stroke="#e98576" cx="945" cy="-90" rx="75.2018" ry="18"/>
<text text-anchor="middle" x="945" y="-85.8" font-family="Times,serif" font-size="14.00">GO:0004386 (1)</text>
</a>
</g>
<!-- f0&#45;&gt;v0 -->
<g id="edge40" class="edge"><title>f0&#45;&gt;v0</title>
<path fill="none" stroke="black" d="M733.806,-148.079C777.11,-136.376 841.011,-119.105 887.174,-106.629"/>
<polygon fill="black" stroke="black" points="888.294,-109.952 897.034,-103.964 886.467,-103.194 888.294,-109.952"/>
</g>
<!-- n0 -->
<g id="node43" class="node"><title>n0</title>
<a xlink:href="0016829" xlink:title="GO:0016829 (3)">
<ellipse fill="#e98576" stroke="#e98576" cx="1113" cy="-90" rx="75.2018" ry="18"/>
<text text-anchor="middle" x="1113" y="-85.8" font-family="Times,serif" font-size="14.00">GO:0016829 (3)</text>
</a>
</g>
<!-- f0&#45;&gt;n0 -->
<g id="edge42" class="edge"><title>f0&#45;&gt;n0</title>
<path fill="none" stroke="black" d="M749.049,-152.153C817.964,-142.273 931.568,-125.377 1029,-108 1035.25,-106.886 1041.75,-105.671 1048.24,-104.419"/>
<polygon fill="black" stroke="black" points="1049.25,-107.787 1058.4,-102.433 1047.91,-100.917 1049.25,-107.787"/>
</g>
<!-- c0 -->
<g id="node4" class="node"><title>c0</title>
<a xlink:href="0003674" xlink:title="GO:0003674">
<ellipse fill="#dddddd" stroke="#dddddd" cx="2054" cy="-234" rx="61.1934" ry="18"/>
<text text-anchor="middle" x="2054" y="-229.8" font-family="Times,serif" font-size="14.00">GO:0003674</text>
</a>
</g>
<!-- c0&#45;&gt;f0 -->
<g id="edge4" class="edge"><title>c0&#45;&gt;f0</title>
<path fill="none" stroke="black" d="M1994.34,-229.947C1776.1,-218.78 1020.83,-180.133 768.683,-167.231"/>
<polygon fill="black" stroke="black" points="768.656,-163.725 758.49,-166.709 768.298,-170.716 768.656,-163.725"/>
</g>
<!-- b0 -->
<g id="node6" class="node"><title>b0</title>
<a xlink:href="0005488" xlink:title="GO:0005488 (1)">
<ellipse fill="#e98576" stroke="#e98576" cx="1886" cy="-162" rx="75.2018" ry="18"/>
<text text-anchor="middle" x="1886" y="-157.8" font-family="Times,serif" font-size="14.00">GO:0005488 (1)</text>
</a>
</g>
<!-- c0&#45;&gt;b0 -->
<g id="edge12" class="edge"><title>c0&#45;&gt;b0</title>
<path fill="none" stroke="black" d="M2020,-218.834C1994.44,-208.185 1959.18,-193.49 1931.24,-181.848"/>
<polygon fill="black" stroke="black" points="1932.26,-178.485 1921.69,-177.869 1929.57,-184.946 1932.26,-178.485"/>
</g>
<!-- l0 -->
<g id="node18" class="node"><title>l0</title>
<a xlink:href="0016209" xlink:title="GO:0016209 (5)">
<ellipse fill="#e98576" stroke="#e98576" cx="2054" cy="-162" rx="75.2018" ry="18"/>
<text text-anchor="middle" x="2054" y="-157.8" font-family="Times,serif" font-size="14.00">GO:0016209 (5)</text>
</a>
</g>
<!-- c0&#45;&gt;l0 -->
<g id="edge16" class="edge"><title>c0&#45;&gt;l0</title>
<path fill="none" stroke="black" d="M2054,-215.697C2054,-207.983 2054,-198.712 2054,-190.112"/>
<polygon fill="black" stroke="black" points="2057.5,-190.104 2054,-180.104 2050.5,-190.104 2057.5,-190.104"/>
</g>
<!-- k0 -->
<g id="node20" class="node"><title>k0</title>
<a xlink:href="0005215" xlink:title="GO:0005215 (5)">
<ellipse fill="#e98576" stroke="#e98576" cx="2222" cy="-162" rx="75.2018" ry="18"/>
<text text-anchor="middle" x="2222" y="-157.8" font-family="Times,serif" font-size="14.00">GO:0005215 (5)</text>
</a>
</g>
<!-- c0&#45;&gt;k0 -->
<g id="edge18" class="edge"><title>c0&#45;&gt;k0</title>
<path fill="none" stroke="black" d="M2088,-218.834C2113.56,-208.185 2148.82,-193.49 2176.76,-181.848"/>
<polygon fill="black" stroke="black" points="2178.43,-184.946 2186.31,-177.869 2175.74,-178.485 2178.43,-184.946"/>
</g>
<!-- x0 -->
<g id="node22" class="node"><title>x0</title>
<a xlink:href="0045735" xlink:title="GO:0045735 (1)">
<ellipse fill="#e98576" stroke="#e98576" cx="2390" cy="-162" rx="75.2018" ry="18"/>
<text text-anchor="middle" x="2390" y="-157.8" font-family="Times,serif" font-size="14.00">GO:0045735 (1)</text>
</a>
</g>
<!-- c0&#45;&gt;x0 -->
<g id="edge20" class="edge"><title>c0&#45;&gt;x0</title>
<path fill="none" stroke="black" d="M2102.5,-222.896C2161.15,-210.677 2260.09,-190.064 2325.23,-176.494"/>
<polygon fill="black" stroke="black" points="2326.31,-179.845 2335.38,-174.379 2324.88,-172.992 2326.31,-179.845"/>
</g>
<!-- j0 -->
<g id="node8" class="node"><title>j0</title>
<a xlink:href="0005515" xlink:title="GO:0005515 (6)">
<ellipse fill="#e98576" stroke="#e98576" cx="1281" cy="-90" rx="75.2018" ry="18"/>
<text text-anchor="middle" x="1281" y="-85.8" font-family="Times,serif" font-size="14.00">GO:0005515 (6)</text>
</a>
</g>
<!-- b0&#45;&gt;j0 -->
<g id="edge6" class="edge"><title>b0&#45;&gt;j0</title>
<path fill="none" stroke="black" d="M1814.93,-155.997C1714.39,-148.412 1525,-132.269 1365,-108 1358.38,-106.996 1351.49,-105.819 1344.63,-104.561"/>
<polygon fill="black" stroke="black" points="1345.11,-101.09 1334.63,-102.672 1343.81,-107.969 1345.11,-101.09"/>
</g>
<!-- g0 -->
<g id="node10" class="node"><title>g0</title>
<a xlink:href="0001882" xlink:title="GO:0001882 (16)">
<ellipse fill="#e98576" stroke="#e98576" cx="1454" cy="-90" rx="79.4447" ry="18"/>
<text text-anchor="middle" x="1454" y="-85.8" font-family="Times,serif" font-size="14.00">GO:0001882 (16)</text>
</a>
</g>
<!-- b0&#45;&gt;g0 -->
<g id="edge8" class="edge"><title>b0&#45;&gt;g0</title>
<path fill="none" stroke="black" d="M1823.3,-151.993C1754.45,-141.943 1640.67,-124.869 1543,-108 1536.23,-106.831 1529.18,-105.566 1522.14,-104.272"/>
<polygon fill="black" stroke="black" points="1522.35,-100.75 1511.87,-102.363 1521.07,-107.632 1522.35,-100.75"/>
</g>
<!-- r0 -->
<g id="node12" class="node"><title>r0</title>
<a xlink:href="0043021" xlink:title="GO:0043021 (1)">
<ellipse fill="#e98576" stroke="#e98576" cx="1627" cy="-90" rx="75.2018" ry="18"/>
<text text-anchor="middle" x="1627" y="-85.8" font-family="Times,serif" font-size="14.00">GO:0043021 (1)</text>
</a>
</g>
<!-- b0&#45;&gt;r0 -->
<g id="edge10" class="edge"><title>b0&#45;&gt;r0</title>
<path fill="none" stroke="black" d="M1838.19,-148.079C1794.89,-136.376 1730.99,-119.105 1684.83,-106.629"/>
<polygon fill="black" stroke="black" points="1685.53,-103.194 1674.97,-103.964 1683.71,-109.952 1685.53,-103.194"/>
</g>
<!-- a0 -->
<g id="node24" class="node"><title>a0</title>
<a xlink:href="0043167" xlink:title="GO:0043167 (26)">
<ellipse fill="#e98576" stroke="#e98576" cx="1800" cy="-90" rx="79.4447" ry="18"/>
<text text-anchor="middle" x="1800" y="-85.8" font-family="Times,serif" font-size="14.00">GO:0043167 (26)</text>
</a>
</g>
<!-- b0&#45;&gt;a0 -->
<g id="edge22" class="edge"><title>b0&#45;&gt;a0</title>
<path fill="none" stroke="black" d="M1865.62,-144.411C1854.48,-135.345 1840.51,-123.974 1828.33,-114.057"/>
<polygon fill="black" stroke="black" points="1830.2,-111.068 1820.23,-107.47 1825.78,-116.497 1830.2,-111.068"/>
</g>
<!-- p0 -->
<g id="node34" class="node"><title>p0</title>
<a xlink:href="0003676" xlink:title="GO:0003676 (3)">
<ellipse fill="#e98576" stroke="#e98576" cx="1973" cy="-90" rx="75.2018" ry="18"/>
<text text-anchor="middle" x="1973" y="-85.8" font-family="Times,serif" font-size="14.00">GO:0003676 (3)</text>
</a>
</g>
<!-- b0&#45;&gt;p0 -->
<g id="edge32" class="edge"><title>b0&#45;&gt;p0</title>
<path fill="none" stroke="black" d="M1906.62,-144.411C1917.99,-135.257 1932.29,-123.755 1944.7,-113.772"/>
<polygon fill="black" stroke="black" points="1946.93,-116.466 1952.53,-107.47 1942.54,-111.012 1946.93,-116.466"/>
</g>
<!-- q0 -->
<g id="node37" class="node"><title>q0</title>
<a xlink:href="0046906" xlink:title="GO:0046906 (3)">
<ellipse fill="#e98576" stroke="#e98576" cx="2141" cy="-90" rx="75.2018" ry="18"/>
<text text-anchor="middle" x="2141" y="-85.8" font-family="Times,serif" font-size="14.00">GO:0046906 (3)</text>
</a>
</g>
<!-- b0&#45;&gt;q0 -->
<g id="edge36" class="edge"><title>b0&#45;&gt;q0</title>
<path fill="none" stroke="black" d="M1933.37,-147.998C1975.9,-136.321 2038.45,-119.151 2083.77,-106.71"/>
<polygon fill="black" stroke="black" points="2084.74,-110.074 2093.46,-104.051 2082.89,-103.323 2084.74,-110.074"/>
</g>
<!-- d0 -->
<g id="node39" class="node"><title>d0</title>
<a xlink:href="0000166" xlink:title="GO:0000166 (18)">
<ellipse fill="#e98576" stroke="#e98576" cx="2314" cy="-90" rx="79.4447" ry="18"/>
<text text-anchor="middle" x="2314" y="-85.8" font-family="Times,serif" font-size="14.00">GO:0000166 (18)</text>
</a>
</g>
<!-- b0&#45;&gt;d0 -->
<g id="edge38" class="edge"><title>b0&#45;&gt;d0</title>
<path fill="none" stroke="black" d="M1940.59,-149.463C1950.36,-147.537 1960.47,-145.636 1970,-144 2082.81,-124.64 2112.09,-126.743 2225,-108 2231.78,-106.875 2238.83,-105.639 2245.87,-104.363"/>
<polygon fill="black" stroke="black" points="2246.94,-107.725 2256.14,-102.473 2245.68,-100.84 2246.94,-107.725"/>
</g>
<!-- w0 -->
<g id="node45" class="node"><title>w0</title>
<a xlink:href="0051540" xlink:title="GO:0051540 (1)">
<ellipse fill="#e98576" stroke="#e98576" cx="2487" cy="-90" rx="75.2018" ry="18"/>
<text text-anchor="middle" x="2487" y="-85.8" font-family="Times,serif" font-size="14.00">GO:0051540 (1)</text>
</a>
</g>
<!-- b0&#45;&gt;w0 -->
<g id="edge44" class="edge"><title>b0&#45;&gt;w0</title>
<path fill="none" stroke="black" d="M1939.16,-149.268C1949.36,-147.294 1959.98,-145.426 1970,-144 2160.74,-116.845 2211.23,-134.936 2402,-108 2408.81,-107.039 2415.89,-105.879 2422.94,-104.623"/>
<polygon fill="black" stroke="black" points="2424,-107.985 2433.2,-102.724 2422.73,-101.102 2424,-107.985"/>
</g>
<!-- o0 -->
<g id="node47" class="node"><title>o0</title>
<a xlink:href="0048037" xlink:title="GO:0048037 (3)">
<ellipse fill="#e98576" stroke="#e98576" cx="2655" cy="-90" rx="75.2018" ry="18"/>
<text text-anchor="middle" x="2655" y="-85.8" font-family="Times,serif" font-size="14.00">GO:0048037 (3)</text>
</a>
</g>
<!-- b0&#45;&gt;o0 -->
<g id="edge46" class="edge"><title>b0&#45;&gt;o0</title>
<path fill="none" stroke="black" d="M1938.69,-149.166C1949.03,-147.176 1959.82,-145.328 1970,-144 2235.34,-109.376 2305.66,-142.624 2571,-108 2577.84,-107.107 2584.96,-105.981 2592.03,-104.734"/>
<polygon fill="black" stroke="black" points="2593.12,-108.092 2602.31,-102.834 2591.84,-101.208 2593.12,-108.092"/>
</g>
<!-- m0 -->
<g id="node16" class="node"><title>m0</title>
<a xlink:href="0008233" xlink:title="GO:0008233 (4)">
<ellipse fill="#e98576" stroke="#e98576" cx="248" cy="-18" rx="75.2018" ry="18"/>
<text text-anchor="middle" x="248" y="-13.8" font-family="Times,serif" font-size="14.00">GO:0008233 (4)</text>
</a>
</g>
<!-- h0&#45;&gt;m0 -->
<g id="edge14" class="edge"><title>h0&#45;&gt;m0</title>
<path fill="none" stroke="black" d="M248,-71.6966C248,-63.9827 248,-54.7125 248,-46.1124"/>
<polygon fill="black" stroke="black" points="251.5,-46.1043 248,-36.1043 244.5,-46.1044 251.5,-46.1043"/>
</g>
<!-- u0 -->
<g id="node28" class="node"><title>u0</title>
<a xlink:href="0009055" xlink:title="GO:0009055 (1)">
<ellipse fill="#e98576" stroke="#e98576" cx="426" cy="-18" rx="75.2018" ry="18"/>
<text text-anchor="middle" x="426" y="-13.8" font-family="Times,serif" font-size="14.00">GO:0009055 (1)</text>
</a>
</g>
<!-- e0&#45;&gt;u0 -->
<g id="edge26" class="edge"><title>e0&#45;&gt;u0</title>
<path fill="none" stroke="black" d="M426,-71.6966C426,-63.9827 426,-54.7125 426,-46.1124"/>
<polygon fill="black" stroke="black" points="429.5,-46.1043 426,-36.1043 422.5,-46.1044 429.5,-46.1043"/>
</g>
</g>
</svg>
