<?xml version="1.0" encoding="UTF-8" standalone="no"?>
<!DOCTYPE svg PUBLIC "-//W3C//DTD SVG 1.1//EN"
 "http://www.w3.org/Graphics/SVG/1.1/DTD/svg11.dtd">
<!-- Generated by graphviz version 2.28.0 (20110622.2320)
 -->
<!-- Title: G Pages: 1 -->
<svg width="2876pt" height="260pt"
 viewBox="0.00 0.00 2876.00 260.00" xmlns="http://www.w3.org/2000/svg" xmlns:xlink="http://www.w3.org/1999/xlink">
<g id="graph1" class="graph" transform="scale(1 1) rotate(0) translate(4 256)">
<title>G</title>
<polygon fill="white" stroke="white" points="-4,5 -4,-256 2873,-256 2873,5 -4,5"/>
<!-- b0 -->
<g id="node1" class="node"><title>b0</title>
<a xlink:href="0005488" xlink:title="GO:0005488">
<ellipse fill="#dddddd" stroke="#dddddd" cx="935" cy="-162" rx="61.1934" ry="18"/>
<text text-anchor="middle" x="935" y="-157.8" font-family="Times,serif" font-size="14.00">GO:0005488</text>
</a>
</g>
<!-- v0 -->
<g id="node3" class="node"><title>v0</title>
<a xlink:href="0008289" xlink:title="GO:0008289 (1)">
<ellipse fill="#e98576" stroke="#e98576" cx="75" cy="-90" rx="75.2018" ry="18"/>
<text text-anchor="middle" x="75" y="-85.8" font-family="Times,serif" font-size="14.00">GO:0008289 (1)</text>
</a>
</g>
<!-- b0&#45;&gt;v0 -->
<g id="edge2" class="edge"><title>b0&#45;&gt;v0</title>
<path fill="none" stroke="black" d="M873.858,-159.555C742.469,-155.853 423.642,-143.659 159,-108 152.263,-107.092 145.255,-105.967 138.288,-104.731"/>
<polygon fill="black" stroke="black" points="138.615,-101.232 128.145,-102.853 137.341,-108.115 138.615,-101.232"/>
</g>
<!-- g0 -->
<g id="node12" class="node"><title>g0</title>
<a xlink:href="0005515" xlink:title="GO:0005515 (8)">
<ellipse fill="#e98576" stroke="#e98576" cx="243" cy="-90" rx="75.2018" ry="18"/>
<text text-anchor="middle" x="243" y="-85.8" font-family="Times,serif" font-size="14.00">GO:0005515 (8)</text>
</a>
</g>
<!-- b0&#45;&gt;g0 -->
<g id="edge10" class="edge"><title>b0&#45;&gt;g0</title>
<path fill="none" stroke="black" d="M875.196,-158.028C765.906,-152.101 526.776,-136.829 327,-108 320.371,-107.043 313.476,-105.898 306.613,-104.659"/>
<polygon fill="black" stroke="black" points="307.09,-101.187 296.617,-102.788 305.802,-108.068 307.09,-101.187"/>
</g>
<!-- e0 -->
<g id="node14" class="node"><title>e0</title>
<a xlink:href="0001882" xlink:title="GO:0001882 (21)">
<ellipse fill="#e98576" stroke="#e98576" cx="416" cy="-90" rx="79.4447" ry="18"/>
<text text-anchor="middle" x="416" y="-85.8" font-family="Times,serif" font-size="14.00">GO:0001882 (21)</text>
</a>
</g>
<!-- b0&#45;&gt;e0 -->
<g id="edge12" class="edge"><title>b0&#45;&gt;e0</title>
<path fill="none" stroke="black" d="M878.142,-155.202C795.684,-146.52 638.197,-128.906 505,-108 497.949,-106.893 490.601,-105.645 483.283,-104.339"/>
<polygon fill="black" stroke="black" points="483.819,-100.88 473.354,-102.532 482.566,-107.766 483.819,-100.88"/>
</g>
<!-- x0 -->
<g id="node16" class="node"><title>x0</title>
<a xlink:href="0019842" xlink:title="GO:0019842 (1)">
<ellipse fill="#e98576" stroke="#e98576" cx="589" cy="-90" rx="75.2018" ry="18"/>
<text text-anchor="middle" x="589" y="-85.8" font-family="Times,serif" font-size="14.00">GO:0019842 (1)</text>
</a>
</g>
<!-- b0&#45;&gt;x0 -->
<g id="edge14" class="edge"><title>b0&#45;&gt;x0</title>
<path fill="none" stroke="black" d="M886.16,-151.119C825.564,-138.86 722.012,-117.91 654.549,-104.261"/>
<polygon fill="black" stroke="black" points="654.951,-100.772 644.456,-102.219 653.563,-107.633 654.951,-100.772"/>
</g>
<!-- a0 -->
<g id="node27" class="node"><title>a0</title>
<a xlink:href="0043167" xlink:title="GO:0043167 (27)">
<ellipse fill="#e98576" stroke="#e98576" cx="762" cy="-90" rx="79.4447" ry="18"/>
<text text-anchor="middle" x="762" y="-85.8" font-family="Times,serif" font-size="14.00">GO:0043167 (27)</text>
</a>
</g>
<!-- b0&#45;&gt;a0 -->
<g id="edge24" class="edge"><title>b0&#45;&gt;a0</title>
<path fill="none" stroke="black" d="M900.407,-147.003C874.007,-136.321 837.37,-121.497 808.422,-109.784"/>
<polygon fill="black" stroke="black" points="809.508,-106.447 798.925,-105.941 806.883,-112.936 809.508,-106.447"/>
</g>
<!-- l0 -->
<g id="node34" class="node"><title>l0</title>
<a xlink:href="0003676" xlink:title="GO:0003676 (3)">
<ellipse fill="#e98576" stroke="#e98576" cx="935" cy="-90" rx="75.2018" ry="18"/>
<text text-anchor="middle" x="935" y="-85.8" font-family="Times,serif" font-size="14.00">GO:0003676 (3)</text>
</a>
</g>
<!-- b0&#45;&gt;l0 -->
<g id="edge32" class="edge"><title>b0&#45;&gt;l0</title>
<path fill="none" stroke="black" d="M935,-143.697C935,-135.983 935,-126.712 935,-118.112"/>
<polygon fill="black" stroke="black" points="938.5,-118.104 935,-108.104 931.5,-118.104 938.5,-118.104"/>
</g>
<!-- y0 -->
<g id="node36" class="node"><title>y0</title>
<a xlink:href="0046906" xlink:title="GO:0046906 (1)">
<ellipse fill="#e98576" stroke="#e98576" cx="1103" cy="-90" rx="75.2018" ry="18"/>
<text text-anchor="middle" x="1103" y="-85.8" font-family="Times,serif" font-size="14.00">GO:0046906 (1)</text>
</a>
</g>
<!-- b0&#45;&gt;y0 -->
<g id="edge34" class="edge"><title>b0&#45;&gt;y0</title>
<path fill="none" stroke="black" d="M968.997,-146.834C994.556,-136.185 1029.82,-121.49 1057.76,-109.848"/>
<polygon fill="black" stroke="black" points="1059.43,-112.946 1067.31,-105.869 1056.74,-106.485 1059.43,-112.946"/>
</g>
<!-- d0 -->
<g id="node39" class="node"><title>d0</title>
<a xlink:href="0000166" xlink:title="GO:0000166 (22)">
<ellipse fill="#e98576" stroke="#e98576" cx="1276" cy="-90" rx="79.4447" ry="18"/>
<text text-anchor="middle" x="1276" y="-85.8" font-family="Times,serif" font-size="14.00">GO:0000166 (22)</text>
</a>
</g>
<!-- b0&#45;&gt;d0 -->
<g id="edge38" class="edge"><title>b0&#45;&gt;d0</title>
<path fill="none" stroke="black" d="M983.857,-150.971C1043.06,-138.817 1143.1,-118.281 1209.35,-104.681"/>
<polygon fill="black" stroke="black" points="1210.19,-108.083 1219.28,-102.644 1208.78,-101.226 1210.19,-108.083"/>
</g>
<!-- w0 -->
<g id="node47" class="node"><title>w0</title>
<a xlink:href="0051540" xlink:title="GO:0051540 (1)">
<ellipse fill="#e98576" stroke="#e98576" cx="1449" cy="-90" rx="75.2018" ry="18"/>
<text text-anchor="middle" x="1449" y="-85.8" font-family="Times,serif" font-size="14.00">GO:0051540 (1)</text>
</a>
</g>
<!-- b0&#45;&gt;w0 -->
<g id="edge46" class="edge"><title>b0&#45;&gt;w0</title>
<path fill="none" stroke="black" d="M992.095,-155.314C1074.48,-146.799 1231.39,-129.422 1364,-108 1370.69,-106.92 1377.65,-105.694 1384.59,-104.406"/>
<polygon fill="black" stroke="black" points="1385.52,-107.791 1394.7,-102.487 1384.22,-100.914 1385.52,-107.791"/>
</g>
<!-- r0 -->
<g id="node49" class="node"><title>r0</title>
<a xlink:href="0048037" xlink:title="GO:0048037 (2)">
<ellipse fill="#e98576" stroke="#e98576" cx="1617" cy="-90" rx="75.2018" ry="18"/>
<text text-anchor="middle" x="1617" y="-85.8" font-family="Times,serif" font-size="14.00">GO:0048037 (2)</text>
</a>
</g>
<!-- b0&#45;&gt;r0 -->
<g id="edge48" class="edge"><title>b0&#45;&gt;r0</title>
<path fill="none" stroke="black" d="M994.669,-157.916C1102.54,-151.852 1337.02,-136.426 1533,-108 1539.63,-107.039 1546.52,-105.89 1553.39,-104.649"/>
<polygon fill="black" stroke="black" points="1554.2,-108.058 1563.38,-102.776 1552.91,-101.177 1554.2,-108.058"/>
</g>
<!-- c0 -->
<g id="node4" class="node"><title>c0</title>
<a xlink:href="0003674" xlink:title="GO:0003674">
<ellipse fill="#dddddd" stroke="#dddddd" cx="2205" cy="-234" rx="61.1934" ry="18"/>
<text text-anchor="middle" x="2205" y="-229.8" font-family="Times,serif" font-size="14.00">GO:0003674</text>
</a>
</g>
<!-- c0&#45;&gt;b0 -->
<g id="edge16" class="edge"><title>c0&#45;&gt;b0</title>
<path fill="none" stroke="black" d="M2145.45,-229.718C1935.48,-218.144 1230.17,-179.269 1004.84,-166.849"/>
<polygon fill="black" stroke="black" points="1004.97,-163.351 994.79,-166.296 1004.58,-170.341 1004.97,-163.351"/>
</g>
<!-- t0 -->
<g id="node6" class="node"><title>t0</title>
<a xlink:href="0030234" xlink:title="GO:0030234 (1)">
<ellipse fill="#e98576" stroke="#e98576" cx="2032" cy="-162" rx="75.2018" ry="18"/>
<text text-anchor="middle" x="2032" y="-157.8" font-family="Times,serif" font-size="14.00">GO:0030234 (1)</text>
</a>
</g>
<!-- c0&#45;&gt;t0 -->
<g id="edge4" class="edge"><title>c0&#45;&gt;t0</title>
<path fill="none" stroke="black" d="M2170.41,-219.003C2143.92,-208.285 2107.12,-193.397 2078.13,-181.666"/>
<polygon fill="black" stroke="black" points="2079.21,-178.325 2068.62,-177.819 2076.58,-184.814 2079.21,-178.325"/>
</g>
<!-- f0 -->
<g id="node7" class="node"><title>f0</title>
<a xlink:href="0003824" xlink:title="GO:0003824 (12)">
<ellipse fill="#e98576" stroke="#e98576" cx="2205" cy="-162" rx="79.4447" ry="18"/>
<text text-anchor="middle" x="2205" y="-157.8" font-family="Times,serif" font-size="14.00">GO:0003824 (12)</text>
</a>
</g>
<!-- c0&#45;&gt;f0 -->
<g id="edge8" class="edge"><title>c0&#45;&gt;f0</title>
<path fill="none" stroke="black" d="M2205,-215.697C2205,-207.983 2205,-198.712 2205,-190.112"/>
<polygon fill="black" stroke="black" points="2208.5,-190.104 2205,-180.104 2201.5,-190.104 2208.5,-190.104"/>
</g>
<!-- o0 -->
<g id="node25" class="node"><title>o0</title>
<a xlink:href="0005215" xlink:title="GO:0005215 (2)">
<ellipse fill="#e98576" stroke="#e98576" cx="2378" cy="-162" rx="75.2018" ry="18"/>
<text text-anchor="middle" x="2378" y="-157.8" font-family="Times,serif" font-size="14.00">GO:0005215 (2)</text>
</a>
</g>
<!-- c0&#45;&gt;o0 -->
<g id="edge22" class="edge"><title>c0&#45;&gt;o0</title>
<path fill="none" stroke="black" d="M2239.59,-219.003C2266.08,-208.285 2302.88,-193.397 2331.87,-181.666"/>
<polygon fill="black" stroke="black" points="2333.42,-184.814 2341.38,-177.819 2330.79,-178.325 2333.42,-184.814"/>
</g>
<!-- p0 -->
<g id="node45" class="node"><title>p0</title>
<a xlink:href="0005198" xlink:title="GO:0005198 (2)">
<ellipse fill="#e98576" stroke="#e98576" cx="2546" cy="-162" rx="75.2018" ry="18"/>
<text text-anchor="middle" x="2546" y="-157.8" font-family="Times,serif" font-size="14.00">GO:0005198 (2)</text>
</a>
</g>
<!-- c0&#45;&gt;p0 -->
<g id="edge44" class="edge"><title>c0&#45;&gt;p0</title>
<path fill="none" stroke="black" d="M2253.86,-222.971C2313.59,-210.709 2414.88,-189.916 2481.11,-176.321"/>
<polygon fill="black" stroke="black" points="2481.93,-179.726 2491.02,-174.286 2480.52,-172.869 2481.93,-179.726"/>
</g>
<!-- m0 -->
<g id="node9" class="node"><title>m0</title>
<a xlink:href="0016853" xlink:title="GO:0016853 (2)">
<ellipse fill="#e98576" stroke="#e98576" cx="1785" cy="-90" rx="75.2018" ry="18"/>
<text text-anchor="middle" x="1785" y="-85.8" font-family="Times,serif" font-size="14.00">GO:0016853 (2)</text>
</a>
</g>
<!-- f0&#45;&gt;m0 -->
<g id="edge6" class="edge"><title>f0&#45;&gt;m0</title>
<path fill="none" stroke="black" d="M2147.14,-149.565C2136.78,-147.628 2126.08,-145.697 2116,-144 2006.6,-125.589 1978.3,-127.01 1869,-108 1862.75,-106.912 1856.25,-105.715 1849.75,-104.475"/>
<polygon fill="black" stroke="black" points="1850.08,-100.973 1839.59,-102.501 1848.74,-107.844 1850.08,-100.973"/>
</g>
<!-- i0 -->
<g id="node18" class="node"><title>i0</title>
<a xlink:href="0016787" xlink:title="GO:0016787 (6)">
<ellipse fill="#e98576" stroke="#e98576" cx="1953" cy="-90" rx="75.2018" ry="18"/>
<text text-anchor="middle" x="1953" y="-85.8" font-family="Times,serif" font-size="14.00">GO:0016787 (6)</text>
</a>
</g>
<!-- f0&#45;&gt;i0 -->
<g id="edge26" class="edge"><title>f0&#45;&gt;i0</title>
<path fill="none" stroke="black" d="M2156.71,-147.586C2114.86,-135.96 2054.24,-119.121 2010.01,-106.836"/>
<polygon fill="black" stroke="black" points="2010.84,-103.436 2000.27,-104.131 2008.97,-110.18 2010.84,-103.436"/>
</g>
<!-- h0 -->
<g id="node21" class="node"><title>h0</title>
<a xlink:href="0016491" xlink:title="GO:0016491 (7)">
<ellipse fill="#e98576" stroke="#e98576" cx="2121" cy="-90" rx="75.2018" ry="18"/>
<text text-anchor="middle" x="2121" y="-85.8" font-family="Times,serif" font-size="14.00">GO:0016491 (7)</text>
</a>
</g>
<!-- f0&#45;&gt;h0 -->
<g id="edge36" class="edge"><title>f0&#45;&gt;h0</title>
<path fill="none" stroke="black" d="M2185.09,-144.411C2174.21,-135.345 2160.57,-123.974 2148.67,-114.057"/>
<polygon fill="black" stroke="black" points="2150.69,-111.183 2140.76,-107.47 2146.21,-116.561 2150.69,-111.183"/>
</g>
<!-- k0 -->
<g id="node30" class="node"><title>k0</title>
<a xlink:href="0016740" xlink:title="GO:0016740 (4)">
<ellipse fill="#e98576" stroke="#e98576" cx="2289" cy="-90" rx="75.2018" ry="18"/>
<text text-anchor="middle" x="2289" y="-85.8" font-family="Times,serif" font-size="14.00">GO:0016740 (4)</text>
</a>
</g>
<!-- f0&#45;&gt;k0 -->
<g id="edge28" class="edge"><title>f0&#45;&gt;k0</title>
<path fill="none" stroke="black" d="M2224.91,-144.411C2235.79,-135.345 2249.43,-123.974 2261.33,-114.057"/>
<polygon fill="black" stroke="black" points="2263.79,-116.561 2269.24,-107.47 2259.31,-111.183 2263.79,-116.561"/>
</g>
<!-- n0 -->
<g id="node32" class="node"><title>n0</title>
<a xlink:href="0016874" xlink:title="GO:0016874 (2)">
<ellipse fill="#e98576" stroke="#e98576" cx="2457" cy="-90" rx="75.2018" ry="18"/>
<text text-anchor="middle" x="2457" y="-85.8" font-family="Times,serif" font-size="14.00">GO:0016874 (2)</text>
</a>
</g>
<!-- f0&#45;&gt;n0 -->
<g id="edge30" class="edge"><title>f0&#45;&gt;n0</title>
<path fill="none" stroke="black" d="M2253.29,-147.586C2295.14,-135.96 2355.76,-119.121 2399.99,-106.836"/>
<polygon fill="black" stroke="black" points="2401.03,-110.18 2409.73,-104.131 2399.16,-103.436 2401.03,-110.18"/>
</g>
<!-- u0 -->
<g id="node41" class="node"><title>u0</title>
<a xlink:href="0004386" xlink:title="GO:0004386 (1)">
<ellipse fill="#e98576" stroke="#e98576" cx="2625" cy="-90" rx="75.2018" ry="18"/>
<text text-anchor="middle" x="2625" y="-85.8" font-family="Times,serif" font-size="14.00">GO:0004386 (1)</text>
</a>
</g>
<!-- f0&#45;&gt;u0 -->
<g id="edge40" class="edge"><title>f0&#45;&gt;u0</title>
<path fill="none" stroke="black" d="M2262.86,-149.565C2273.22,-147.628 2283.92,-145.697 2294,-144 2403.4,-125.589 2431.7,-127.01 2541,-108 2547.25,-106.912 2553.75,-105.715 2560.25,-104.475"/>
<polygon fill="black" stroke="black" points="2561.26,-107.844 2570.41,-102.501 2559.92,-100.973 2561.26,-107.844"/>
</g>
<!-- j0 -->
<g id="node43" class="node"><title>j0</title>
<a xlink:href="0016829" xlink:title="GO:0016829 (5)">
<ellipse fill="#e98576" stroke="#e98576" cx="2793" cy="-90" rx="75.2018" ry="18"/>
<text text-anchor="middle" x="2793" y="-85.8" font-family="Times,serif" font-size="14.00">GO:0016829 (5)</text>
</a>
</g>
<!-- f0&#45;&gt;j0 -->
<g id="edge42" class="edge"><title>f0&#45;&gt;j0</title>
<path fill="none" stroke="black" d="M2261.83,-149.248C2272.49,-147.3 2283.56,-145.446 2294,-144 2477.39,-118.599 2525.76,-134.404 2709,-108 2715.63,-107.045 2722.52,-105.9 2729.39,-104.661"/>
<polygon fill="black" stroke="black" points="2730.2,-108.071 2739.38,-102.791 2728.91,-101.19 2730.2,-108.071"/>
</g>
<!-- q0 -->
<g id="node20" class="node"><title>q0</title>
<a xlink:href="0008233" xlink:title="GO:0008233 (2)">
<ellipse fill="#e98576" stroke="#e98576" cx="1953" cy="-18" rx="75.2018" ry="18"/>
<text text-anchor="middle" x="1953" y="-13.8" font-family="Times,serif" font-size="14.00">GO:0008233 (2)</text>
</a>
</g>
<!-- i0&#45;&gt;q0 -->
<g id="edge18" class="edge"><title>i0&#45;&gt;q0</title>
<path fill="none" stroke="black" d="M1953,-71.6966C1953,-63.9827 1953,-54.7125 1953,-46.1124"/>
<polygon fill="black" stroke="black" points="1956.5,-46.1043 1953,-36.1043 1949.5,-46.1044 1956.5,-46.1043"/>
</g>
<!-- s0 -->
<g id="node23" class="node"><title>s0</title>
<a xlink:href="0004497" xlink:title="GO:0004497 (2)">
<ellipse fill="#e98576" stroke="#e98576" cx="2121" cy="-18" rx="75.2018" ry="18"/>
<text text-anchor="middle" x="2121" y="-13.8" font-family="Times,serif" font-size="14.00">GO:0004497 (2)</text>
</a>
</g>
<!-- h0&#45;&gt;s0 -->
<g id="edge20" class="edge"><title>h0&#45;&gt;s0</title>
<path fill="none" stroke="black" d="M2121,-71.6966C2121,-63.9827 2121,-54.7125 2121,-46.1124"/>
<polygon fill="black" stroke="black" points="2124.5,-46.1043 2121,-36.1043 2117.5,-46.1044 2124.5,-46.1043"/>
</g>
</g>
</svg>
