<?xml version="1.0" encoding="UTF-8" standalone="no"?>
<!DOCTYPE svg PUBLIC "-//W3C//DTD SVG 1.1//EN"
 "http://www.w3.org/Graphics/SVG/1.1/DTD/svg11.dtd">
<!-- Generated by graphviz version 2.28.0 (20110622.2320)
 -->
<!-- Title: G Pages: 1 -->
<svg width="676pt" height="548pt"
 viewBox="0.00 0.00 676.00 548.00" xmlns="http://www.w3.org/2000/svg" xmlns:xlink="http://www.w3.org/1999/xlink">
<g id="graph1" class="graph" transform="scale(1 1) rotate(0) translate(4 544)">
<title>G</title>
<polygon fill="white" stroke="white" points="-4,5 -4,-544 673,-544 673,5 -4,5"/>
<!-- c0 -->
<g id="node1" class="node"><title>c0</title>
<a xlink:href="0005575" xlink:title="GO:0005575">
<ellipse fill="#dddddd" stroke="#dddddd" cx="311" cy="-522" rx="61.1934" ry="18"/>
<text text-anchor="middle" x="311" y="-517.8" font-family="Times,serif" font-size="14.00">GO:0005575</text>
</a>
</g>
<!-- b0 -->
<g id="node3" class="node"><title>b0</title>
<a xlink:href="0044464" xlink:title="GO:0044464">
<ellipse fill="#dddddd" stroke="#dddddd" cx="178" cy="-378" rx="61.1934" ry="18"/>
<text text-anchor="middle" x="178" y="-373.8" font-family="Times,serif" font-size="14.00">GO:0044464</text>
</a>
</g>
<!-- c0&#45;&gt;b0 -->
<g id="edge2" class="edge"><title>c0&#45;&gt;b0</title>
<path fill="none" stroke="black" d="M264.784,-510.138C241.143,-502.26 213.869,-489.164 197,-468 183.188,-450.672 178.807,-425.617 177.669,-406.502"/>
<polygon fill="black" stroke="black" points="181.161,-406.188 177.329,-396.31 174.165,-406.421 181.161,-406.188"/>
</g>
<!-- d0 -->
<g id="node4" class="node"><title>d0</title>
<a xlink:href="0005623" xlink:title="GO:0005623">
<ellipse fill="#dddddd" stroke="#dddddd" cx="267" cy="-450" rx="61.1934" ry="18"/>
<text text-anchor="middle" x="267" y="-445.8" font-family="Times,serif" font-size="14.00">GO:0005623</text>
</a>
</g>
<!-- c0&#45;&gt;d0 -->
<g id="edge40" class="edge"><title>c0&#45;&gt;d0</title>
<path fill="none" stroke="black" d="M300.349,-504.055C295.16,-495.801 288.812,-485.701 283.052,-476.538"/>
<polygon fill="black" stroke="black" points="285.838,-474.393 277.553,-467.789 279.912,-478.118 285.838,-474.393"/>
</g>
<!-- f0 -->
<g id="node16" class="node"><title>f0</title>
<a xlink:href="0032991" xlink:title="GO:0032991">
<ellipse fill="#dddddd" stroke="#dddddd" cx="356" cy="-378" rx="61.1934" ry="18"/>
<text text-anchor="middle" x="356" y="-373.8" font-family="Times,serif" font-size="14.00">GO:0032991</text>
</a>
</g>
<!-- c0&#45;&gt;f0 -->
<g id="edge16" class="edge"><title>c0&#45;&gt;f0</title>
<path fill="none" stroke="black" d="M320.782,-503.798C326.209,-493.647 332.709,-480.397 337,-468 344.008,-447.751 348.923,-423.978 351.996,-406.098"/>
<polygon fill="black" stroke="black" points="355.477,-406.501 353.634,-396.067 348.568,-405.373 355.477,-406.501"/>
</g>
<!-- l0 -->
<g id="node17" class="node"><title>l0</title>
<a xlink:href="0043226" xlink:title="GO:0043226">
<ellipse fill="#dddddd" stroke="#dddddd" cx="466" cy="-234" rx="61.1934" ry="18"/>
<text text-anchor="middle" x="466" y="-229.8" font-family="Times,serif" font-size="14.00">GO:0043226</text>
</a>
</g>
<!-- c0&#45;&gt;l0 -->
<g id="edge28" class="edge"><title>c0&#45;&gt;l0</title>
<path fill="none" stroke="black" d="M331.355,-504.649C357.298,-482.693 401.688,-441.184 426,-396 449.173,-352.933 459.203,-296.164 463.331,-262.818"/>
<polygon fill="black" stroke="black" points="466.856,-262.794 464.515,-252.461 459.902,-261.999 466.856,-262.794"/>
</g>
<!-- h0 -->
<g id="node7" class="node"><title>h0</title>
<a xlink:href="0005622" xlink:title="GO:0005622">
<ellipse fill="#dddddd" stroke="#dddddd" cx="61" cy="-306" rx="61.1934" ry="18"/>
<text text-anchor="middle" x="61" y="-301.8" font-family="Times,serif" font-size="14.00">GO:0005622</text>
</a>
</g>
<!-- b0&#45;&gt;h0 -->
<g id="edge6" class="edge"><title>b0&#45;&gt;h0</title>
<path fill="none" stroke="black" d="M152.324,-361.638C135.675,-351.677 113.782,-338.579 95.6058,-327.704"/>
<polygon fill="black" stroke="black" points="97.399,-324.699 87.0206,-322.568 93.805,-330.706 97.399,-324.699"/>
</g>
<!-- g0 -->
<g id="node9" class="node"><title>g0</title>
<a xlink:href="0044424" xlink:title="GO:0044424">
<ellipse fill="#dddddd" stroke="#dddddd" cx="146" cy="-234" rx="61.1934" ry="18"/>
<text text-anchor="middle" x="146" y="-229.8" font-family="Times,serif" font-size="14.00">GO:0044424</text>
</a>
</g>
<!-- b0&#45;&gt;g0 -->
<g id="edge10" class="edge"><title>b0&#45;&gt;g0</title>
<path fill="none" stroke="black" d="M174.14,-359.871C168.662,-335.564 158.579,-290.819 152.087,-262.013"/>
<polygon fill="black" stroke="black" points="155.486,-261.175 149.874,-252.189 148.658,-262.714 155.486,-261.175"/>
</g>
<!-- a0 -->
<g id="node22" class="node"><title>a0</title>
<a xlink:href="0016020" xlink:title="GO:0016020 (1)">
<ellipse fill="#e98576" stroke="#e98576" cx="253" cy="-306" rx="75.2018" ry="18"/>
<text text-anchor="middle" x="253" y="-301.8" font-family="Times,serif" font-size="14.00">GO:0016020 (1)</text>
</a>
</g>
<!-- b0&#45;&gt;a0 -->
<g id="edge22" class="edge"><title>b0&#45;&gt;a0</title>
<path fill="none" stroke="black" d="M195.774,-360.411C205.325,-351.497 217.262,-340.355 227.759,-330.558"/>
<polygon fill="black" stroke="black" points="230.171,-333.094 235.094,-323.713 225.395,-327.977 230.171,-333.094"/>
</g>
<!-- d0&#45;&gt;b0 -->
<g id="edge4" class="edge"><title>d0&#45;&gt;b0</title>
<path fill="none" stroke="black" d="M246.358,-432.765C234.563,-423.488 219.594,-411.714 206.672,-401.551"/>
<polygon fill="black" stroke="black" points="208.554,-398.578 198.53,-395.147 204.227,-404.081 208.554,-398.578"/>
</g>
<!-- h0&#45;&gt;g0 -->
<g id="edge8" class="edge"><title>h0&#45;&gt;g0</title>
<path fill="none" stroke="black" d="M80.7144,-288.765C91.9789,-279.488 106.275,-267.714 118.617,-257.551"/>
<polygon fill="black" stroke="black" points="120.898,-260.206 126.393,-251.147 116.448,-254.803 120.898,-260.206"/>
</g>
<!-- o0 -->
<g id="node11" class="node"><title>o0</title>
<a xlink:href="0005737" xlink:title="GO:0005737 (1)">
<ellipse fill="#e98576" stroke="#e98576" cx="143" cy="-162" rx="75.2018" ry="18"/>
<text text-anchor="middle" x="143" y="-157.8" font-family="Times,serif" font-size="14.00">GO:0005737 (1)</text>
</a>
</g>
<!-- g0&#45;&gt;o0 -->
<g id="edge20" class="edge"><title>g0&#45;&gt;o0</title>
<path fill="none" stroke="black" d="M145.258,-215.697C144.928,-207.983 144.531,-198.712 144.162,-190.112"/>
<polygon fill="black" stroke="black" points="147.658,-189.945 143.733,-180.104 140.665,-190.245 147.658,-189.945"/>
</g>
<!-- n0 -->
<g id="node13" class="node"><title>n0</title>
<a xlink:href="0044444" xlink:title="GO:0044444">
<ellipse fill="#dddddd" stroke="#dddddd" cx="143" cy="-90" rx="61.1934" ry="18"/>
<text text-anchor="middle" x="143" y="-85.8" font-family="Times,serif" font-size="14.00">GO:0044444</text>
</a>
</g>
<!-- g0&#45;&gt;n0 -->
<g id="edge14" class="edge"><title>g0&#45;&gt;n0</title>
<path fill="none" stroke="black" d="M107.679,-219.894C89.4905,-211.519 69.4811,-198.658 59,-180 51.1637,-166.05 51.2736,-158.011 59,-144 67.3438,-128.87 82.0253,-117.464 96.8047,-109.185"/>
<polygon fill="black" stroke="black" points="98.702,-112.144 105.964,-104.429 95.4761,-105.931 98.702,-112.144"/>
</g>
<!-- m0 -->
<g id="node24" class="node"><title>m0</title>
<a xlink:href="0043229" xlink:title="GO:0043229">
<ellipse fill="#dddddd" stroke="#dddddd" cx="466" cy="-162" rx="61.1934" ry="18"/>
<text text-anchor="middle" x="466" y="-157.8" font-family="Times,serif" font-size="14.00">GO:0043229</text>
</a>
</g>
<!-- g0&#45;&gt;m0 -->
<g id="edge26" class="edge"><title>g0&#45;&gt;m0</title>
<path fill="none" stroke="black" d="M194.746,-223.004C245.002,-212.61 325.594,-195.693 395,-180 399.972,-178.876 405.134,-177.685 410.304,-176.477"/>
<polygon fill="black" stroke="black" points="411.277,-179.844 420.208,-174.144 409.672,-173.03 411.277,-179.844"/>
</g>
<!-- e0 -->
<g id="node27" class="node"><title>e0</title>
<a xlink:href="0030529" xlink:title="GO:0030529 (1)">
<ellipse fill="#e98576" stroke="#e98576" cx="311" cy="-162" rx="75.2018" ry="18"/>
<text text-anchor="middle" x="311" y="-157.8" font-family="Times,serif" font-size="14.00">GO:0030529 (1)</text>
</a>
</g>
<!-- g0&#45;&gt;e0 -->
<g id="edge38" class="edge"><title>g0&#45;&gt;e0</title>
<path fill="none" stroke="black" d="M179.39,-218.834C204.408,-208.221 238.899,-193.588 266.296,-181.965"/>
<polygon fill="black" stroke="black" points="267.825,-185.119 275.663,-177.991 265.091,-178.675 267.825,-185.119"/>
</g>
<!-- o0&#45;&gt;n0 -->
<g id="edge12" class="edge"><title>o0&#45;&gt;n0</title>
<path fill="none" stroke="black" d="M143,-143.697C143,-135.983 143,-126.712 143,-118.112"/>
<polygon fill="black" stroke="black" points="146.5,-118.104 143,-108.104 139.5,-118.104 146.5,-118.104"/>
</g>
<!-- i0 -->
<g id="node29" class="node"><title>i0</title>
<a xlink:href="0005840" xlink:title="GO:0005840 (1)">
<ellipse fill="#e98576" stroke="#e98576" cx="311" cy="-18" rx="75.2018" ry="18"/>
<text text-anchor="middle" x="311" y="-13.8" font-family="Times,serif" font-size="14.00">GO:0005840 (1)</text>
</a>
</g>
<!-- n0&#45;&gt;i0 -->
<g id="edge34" class="edge"><title>n0&#45;&gt;i0</title>
<path fill="none" stroke="black" d="M176.997,-74.8345C202.556,-64.1851 237.825,-49.4897 265.765,-37.8481"/>
<polygon fill="black" stroke="black" points="267.429,-40.9463 275.314,-33.8693 264.737,-34.4847 267.429,-40.9463"/>
</g>
<!-- f0&#45;&gt;e0 -->
<g id="edge36" class="edge"><title>f0&#45;&gt;e0</title>
<path fill="none" stroke="black" d="M352.394,-359.849C344.593,-322.753 326.1,-234.81 316.699,-190.103"/>
<polygon fill="black" stroke="black" points="320.107,-189.298 314.624,-180.232 313.256,-190.739 320.107,-189.298"/>
</g>
<!-- k0 -->
<g id="node19" class="node"><title>k0</title>
<a xlink:href="0043228" xlink:title="GO:0043228">
<ellipse fill="#dddddd" stroke="#dddddd" cx="607" cy="-162" rx="61.1934" ry="18"/>
<text text-anchor="middle" x="607" y="-157.8" font-family="Times,serif" font-size="14.00">GO:0043228</text>
</a>
</g>
<!-- l0&#45;&gt;k0 -->
<g id="edge18" class="edge"><title>l0&#45;&gt;k0</title>
<path fill="none" stroke="black" d="M495.902,-218.155C516.933,-207.714 545.275,-193.644 568.069,-182.328"/>
<polygon fill="black" stroke="black" points="569.74,-185.405 577.141,-177.824 566.627,-179.136 569.74,-185.405"/>
</g>
<!-- l0&#45;&gt;m0 -->
<g id="edge24" class="edge"><title>l0&#45;&gt;m0</title>
<path fill="none" stroke="black" d="M466,-215.697C466,-207.983 466,-198.712 466,-190.112"/>
<polygon fill="black" stroke="black" points="469.5,-190.104 466,-180.104 462.5,-190.104 469.5,-190.104"/>
</g>
<!-- j0 -->
<g id="node30" class="node"><title>j0</title>
<a xlink:href="0043232" xlink:title="GO:0043232">
<ellipse fill="#dddddd" stroke="#dddddd" cx="466" cy="-90" rx="61.1934" ry="18"/>
<text text-anchor="middle" x="466" y="-85.8" font-family="Times,serif" font-size="14.00">GO:0043232</text>
</a>
</g>
<!-- k0&#45;&gt;j0 -->
<g id="edge42" class="edge"><title>k0&#45;&gt;j0</title>
<path fill="none" stroke="black" d="M577.098,-146.155C556.067,-135.714 527.725,-121.644 504.931,-110.328"/>
<polygon fill="black" stroke="black" points="506.373,-107.136 495.859,-105.824 503.26,-113.405 506.373,-107.136"/>
</g>
<!-- m0&#45;&gt;j0 -->
<g id="edge44" class="edge"><title>m0&#45;&gt;j0</title>
<path fill="none" stroke="black" d="M466,-143.697C466,-135.983 466,-126.712 466,-118.112"/>
<polygon fill="black" stroke="black" points="469.5,-118.104 466,-108.104 462.5,-118.104 469.5,-118.104"/>
</g>
<!-- e0&#45;&gt;i0 -->
<g id="edge30" class="edge"><title>e0&#45;&gt;i0</title>
<path fill="none" stroke="black" d="M311,-143.871C311,-119.67 311,-75.2108 311,-46.3932"/>
<polygon fill="black" stroke="black" points="314.5,-46.1892 311,-36.1893 307.5,-46.1893 314.5,-46.1892"/>
</g>
<!-- j0&#45;&gt;i0 -->
<g id="edge32" class="edge"><title>j0&#45;&gt;i0</title>
<path fill="none" stroke="black" d="M433.884,-74.496C410.767,-64.0562 379.333,-49.8601 354.044,-38.4394"/>
<polygon fill="black" stroke="black" points="355.238,-35.138 344.683,-34.2119 352.357,-41.5176 355.238,-35.138"/>
</g>
</g>
</svg>
