<?xml version="1.0" encoding="UTF-8" standalone="no"?>
<!DOCTYPE svg PUBLIC "-//W3C//DTD SVG 1.1//EN"
 "http://www.w3.org/Graphics/SVG/1.1/DTD/svg11.dtd">
<!-- Generated by graphviz version 2.28.0 (20110622.2320)
 -->
<!-- Title: G Pages: 1 -->
<svg width="4965pt" height="404pt"
 viewBox="0.00 0.00 4965.00 404.00" xmlns="http://www.w3.org/2000/svg" xmlns:xlink="http://www.w3.org/1999/xlink">
<g id="graph1" class="graph" transform="scale(1 1) rotate(0) translate(4 400)">
<title>G</title>
<polygon fill="white" stroke="white" points="-4,5 -4,-400 4962,-400 4962,5 -4,5"/>
<!-- c0 -->
<g id="node1" class="node"><title>c0</title>
<a xlink:href="0003674" xlink:title="GO:0003674 (2)">
<ellipse fill="#e98576" stroke="#e98576" cx="3342" cy="-378" rx="75.2018" ry="18"/>
<text text-anchor="middle" x="3342" y="-373.8" font-family="Times,serif" font-size="14.00">GO:0003674 (2)</text>
</a>
</g>
<!-- z0 -->
<g id="node3" class="node"><title>z0</title>
<a xlink:href="0030234" xlink:title="GO:0030234 (3)">
<ellipse fill="#e98576" stroke="#e98576" cx="772" cy="-306" rx="75.2018" ry="18"/>
<text text-anchor="middle" x="772" y="-301.8" font-family="Times,serif" font-size="14.00">GO:0030234 (3)</text>
</a>
</g>
<!-- c0&#45;&gt;z0 -->
<g id="edge2" class="edge"><title>c0&#45;&gt;z0</title>
<path fill="none" stroke="black" d="M3266.96,-377.204C2905.39,-377.914 1340.57,-377.764 856,-324 848.883,-323.21 841.474,-322.117 834.133,-320.862"/>
<polygon fill="black" stroke="black" points="834.663,-317.401 824.199,-319.063 833.416,-324.289 834.663,-317.401"/>
</g>
<!-- g0 -->
<g id="node4" class="node"><title>g0</title>
<a xlink:href="0003824" xlink:title="GO:0003824 (36)">
<ellipse fill="#e98576" stroke="#e98576" cx="945" cy="-306" rx="79.4447" ry="18"/>
<text text-anchor="middle" x="945" y="-301.8" font-family="Times,serif" font-size="14.00">GO:0003824 (36)</text>
</a>
</g>
<!-- c0&#45;&gt;g0 -->
<g id="edge56" class="edge"><title>c0&#45;&gt;g0</title>
<path fill="none" stroke="black" d="M3267.97,-374.838C2916.21,-364.565 1415.03,-320.726 1033.48,-309.584"/>
<polygon fill="black" stroke="black" points="1033.42,-306.081 1023.32,-309.287 1033.22,-313.078 1033.42,-306.081"/>
</g>
<!-- b0 -->
<g id="node7" class="node"><title>b0</title>
<a xlink:href="0005488" xlink:title="GO:0005488 (2)">
<ellipse fill="#e98576" stroke="#e98576" cx="3080" cy="-306" rx="75.2018" ry="18"/>
<text text-anchor="middle" x="3080" y="-301.8" font-family="Times,serif" font-size="14.00">GO:0005488 (2)</text>
</a>
</g>
<!-- c0&#45;&gt;b0 -->
<g id="edge14" class="edge"><title>c0&#45;&gt;b0</title>
<path fill="none" stroke="black" d="M3293.95,-364.161C3249.95,-352.406 3184.75,-334.986 3137.9,-322.469"/>
<polygon fill="black" stroke="black" points="3138.76,-319.076 3128.19,-319.876 3136.95,-325.839 3138.76,-319.076"/>
</g>
<!-- n0 -->
<g id="node24" class="node"><title>n0</title>
<a xlink:href="0005215" xlink:title="GO:0005215 (17)">
<ellipse fill="#e98576" stroke="#e98576" cx="3253" cy="-306" rx="79.4447" ry="18"/>
<text text-anchor="middle" x="3253" y="-301.8" font-family="Times,serif" font-size="14.00">GO:0005215 (17)</text>
</a>
</g>
<!-- c0&#45;&gt;n0 -->
<g id="edge20" class="edge"><title>c0&#45;&gt;n0</title>
<path fill="none" stroke="black" d="M3320.91,-360.411C3309.27,-351.257 3294.65,-339.755 3281.95,-329.772"/>
<polygon fill="black" stroke="black" points="3283.96,-326.901 3273.94,-323.47 3279.64,-332.403 3283.96,-326.901"/>
</g>
<!-- p0 -->
<g id="node42" class="node"><title>p0</title>
<a xlink:href="0005198" xlink:title="GO:0005198 (12)">
<ellipse fill="#e98576" stroke="#e98576" cx="3431" cy="-306" rx="79.4447" ry="18"/>
<text text-anchor="middle" x="3431" y="-301.8" font-family="Times,serif" font-size="14.00">GO:0005198 (12)</text>
</a>
</g>
<!-- c0&#45;&gt;p0 -->
<g id="edge40" class="edge"><title>c0&#45;&gt;p0</title>
<path fill="none" stroke="black" d="M3363.09,-360.411C3374.73,-351.257 3389.35,-339.755 3402.05,-329.772"/>
<polygon fill="black" stroke="black" points="3404.36,-332.403 3410.06,-323.47 3400.04,-326.901 3404.36,-332.403"/>
</g>
<!-- f1 -->
<g id="node67" class="node"><title>f1</title>
<a xlink:href="0060089" xlink:title="GO:0060089">
<ellipse fill="#dddddd" stroke="#dddddd" cx="3590" cy="-306" rx="61.1934" ry="18"/>
<text text-anchor="middle" x="3590" y="-301.8" font-family="Times,serif" font-size="14.00">GO:0060089</text>
</a>
</g>
<!-- c0&#45;&gt;f1 -->
<g id="edge90" class="edge"><title>c0&#45;&gt;f1</title>
<path fill="none" stroke="black" d="M3388.65,-363.834C3431.04,-351.867 3493.52,-334.232 3537.62,-321.785"/>
<polygon fill="black" stroke="black" points="3538.62,-325.14 3547.29,-319.055 3536.72,-318.403 3538.62,-325.14"/>
</g>
<!-- t0 -->
<g id="node71" class="node"><title>t0</title>
<a xlink:href="0016209" xlink:title="GO:0016209 (7)">
<ellipse fill="#e98576" stroke="#e98576" cx="3745" cy="-306" rx="75.2018" ry="18"/>
<text text-anchor="middle" x="3745" y="-301.8" font-family="Times,serif" font-size="14.00">GO:0016209 (7)</text>
</a>
</g>
<!-- c0&#45;&gt;t0 -->
<g id="edge68" class="edge"><title>c0&#45;&gt;t0</title>
<path fill="none" stroke="black" d="M3403.06,-367.422C3467.16,-357.228 3570.81,-340.346 3660,-324 3666.31,-322.843 3672.88,-321.599 3679.45,-320.33"/>
<polygon fill="black" stroke="black" points="3680.58,-323.675 3689.72,-318.324 3679.24,-316.805 3680.58,-323.675"/>
</g>
<!-- s1 -->
<g id="node75" class="node"><title>s1</title>
<a xlink:href="0045735" xlink:title="GO:0045735 (1)">
<ellipse fill="#e98576" stroke="#e98576" cx="3913" cy="-306" rx="75.2018" ry="18"/>
<text text-anchor="middle" x="3913" y="-301.8" font-family="Times,serif" font-size="14.00">GO:0045735 (1)</text>
</a>
</g>
<!-- c0&#45;&gt;s1 -->
<g id="edge72" class="edge"><title>c0&#45;&gt;s1</title>
<path fill="none" stroke="black" d="M3412.02,-371.402C3506.87,-363.358 3681.3,-346.934 3829,-324 3835.62,-322.972 3842.51,-321.78 3849.37,-320.514"/>
<polygon fill="black" stroke="black" points="3850.19,-323.92 3859.36,-318.615 3848.88,-317.043 3850.19,-323.92"/>
</g>
<!-- u0 -->
<g id="node6" class="node"><title>u0</title>
<a xlink:href="0016853" xlink:title="GO:0016853 (7)">
<ellipse fill="#e98576" stroke="#e98576" cx="75" cy="-234" rx="75.2018" ry="18"/>
<text text-anchor="middle" x="75" y="-229.8" font-family="Times,serif" font-size="14.00">GO:0016853 (7)</text>
</a>
</g>
<!-- g0&#45;&gt;u0 -->
<g id="edge4" class="edge"><title>g0&#45;&gt;u0</title>
<path fill="none" stroke="black" d="M889.161,-293.122C878.209,-291.136 866.776,-289.301 856,-288 548.046,-250.814 466.746,-290.871 159,-252 152.157,-251.136 145.037,-250.027 137.966,-248.79"/>
<polygon fill="black" stroke="black" points="138.146,-245.265 127.678,-246.901 136.881,-252.15 138.146,-245.265"/>
</g>
<!-- i0 -->
<g id="node17" class="node"><title>i0</title>
<a xlink:href="0016787" xlink:title="GO:0016787 (44)">
<ellipse fill="#e98576" stroke="#e98576" cx="248" cy="-234" rx="79.4447" ry="18"/>
<text text-anchor="middle" x="248" y="-229.8" font-family="Times,serif" font-size="14.00">GO:0016787 (44)</text>
</a>
</g>
<!-- g0&#45;&gt;i0 -->
<g id="edge26" class="edge"><title>g0&#45;&gt;i0</title>
<path fill="none" stroke="black" d="M888.666,-293.187C877.86,-291.221 866.608,-289.376 856,-288 626.7,-258.256 566.3,-281.744 337,-252 329.624,-251.043 321.937,-249.86 314.305,-248.567"/>
<polygon fill="black" stroke="black" points="314.79,-245.098 304.334,-246.813 313.577,-251.992 314.79,-245.098"/>
</g>
<!-- f0 -->
<g id="node20" class="node"><title>f0</title>
<a xlink:href="0016491" xlink:title="GO:0016491 (53)">
<ellipse fill="#e98576" stroke="#e98576" cx="426" cy="-234" rx="79.4447" ry="18"/>
<text text-anchor="middle" x="426" y="-229.8" font-family="Times,serif" font-size="14.00">GO:0016491 (53)</text>
</a>
</g>
<!-- g0&#45;&gt;f0 -->
<g id="edge34" class="edge"><title>g0&#45;&gt;f0</title>
<path fill="none" stroke="black" d="M888.146,-293.407C877.491,-291.443 866.426,-289.543 856,-288 705.245,-265.684 665.755,-274.316 515,-252 507.832,-250.939 500.362,-249.709 492.931,-248.406"/>
<polygon fill="black" stroke="black" points="493.316,-244.919 482.854,-246.593 492.076,-251.809 493.316,-244.919"/>
</g>
<!-- m0 -->
<g id="node33" class="node"><title>m0</title>
<a xlink:href="0016874" xlink:title="GO:0016874 (18)">
<ellipse fill="#e98576" stroke="#e98576" cx="604" cy="-234" rx="79.4447" ry="18"/>
<text text-anchor="middle" x="604" y="-229.8" font-family="Times,serif" font-size="14.00">GO:0016874 (18)</text>
</a>
</g>
<!-- g0&#45;&gt;m0 -->
<g id="edge30" class="edge"><title>g0&#45;&gt;m0</title>
<path fill="none" stroke="black" d="M888.308,-293.362C828.446,-281.074 734.137,-261.714 670.729,-248.698"/>
<polygon fill="black" stroke="black" points="671.327,-245.248 660.828,-246.665 669.919,-252.105 671.327,-245.248"/>
</g>
<!-- b1 -->
<g id="node40" class="node"><title>b1</title>
<a xlink:href="0004386" xlink:title="GO:0004386 (2)">
<ellipse fill="#e98576" stroke="#e98576" cx="777" cy="-234" rx="75.2018" ry="18"/>
<text text-anchor="middle" x="777" y="-229.8" font-family="Times,serif" font-size="14.00">GO:0004386 (2)</text>
</a>
</g>
<!-- g0&#45;&gt;b1 -->
<g id="edge38" class="edge"><title>g0&#45;&gt;b1</title>
<path fill="none" stroke="black" d="M908.547,-289.811C883.167,-279.236 849.152,-265.063 822.07,-253.779"/>
<polygon fill="black" stroke="black" points="823.382,-250.534 812.805,-249.919 820.69,-256.996 823.382,-250.534"/>
</g>
<!-- h1 -->
<g id="node44" class="node"><title>h1</title>
<a xlink:href="0004133" xlink:title="GO:0004133 (1)">
<ellipse fill="#e98576" stroke="#e98576" cx="945" cy="-234" rx="75.2018" ry="18"/>
<text text-anchor="middle" x="945" y="-229.8" font-family="Times,serif" font-size="14.00">GO:0004133 (1)</text>
</a>
</g>
<!-- g0&#45;&gt;h1 -->
<g id="edge42" class="edge"><title>g0&#45;&gt;h1</title>
<path fill="none" stroke="black" d="M945,-287.697C945,-279.983 945,-270.712 945,-262.112"/>
<polygon fill="black" stroke="black" points="948.5,-262.104 945,-252.104 941.5,-262.104 948.5,-262.104"/>
</g>
<!-- k1 -->
<g id="node57" class="node"><title>k1</title>
<a xlink:href="0008641" xlink:title="GO:0008641 (1)">
<ellipse fill="#e98576" stroke="#e98576" cx="1113" cy="-234" rx="75.2018" ry="18"/>
<text text-anchor="middle" x="1113" y="-229.8" font-family="Times,serif" font-size="14.00">GO:0008641 (1)</text>
</a>
</g>
<!-- g0&#45;&gt;k1 -->
<g id="edge54" class="edge"><title>g0&#45;&gt;k1</title>
<path fill="none" stroke="black" d="M981.453,-289.811C1006.83,-279.236 1040.85,-265.063 1067.93,-253.779"/>
<polygon fill="black" stroke="black" points="1069.31,-256.996 1077.19,-249.919 1066.62,-250.534 1069.31,-256.996"/>
</g>
<!-- j0 -->
<g id="node82" class="node"><title>j0</title>
<a xlink:href="0016740" xlink:title="GO:0016740 (35)">
<ellipse fill="#e98576" stroke="#e98576" cx="1286" cy="-234" rx="79.4447" ry="18"/>
<text text-anchor="middle" x="1286" y="-229.8" font-family="Times,serif" font-size="14.00">GO:0016740 (35)</text>
</a>
</g>
<!-- g0&#45;&gt;j0 -->
<g id="edge80" class="edge"><title>g0&#45;&gt;j0</title>
<path fill="none" stroke="black" d="M1001.69,-293.362C1061.55,-281.074 1155.86,-261.714 1219.27,-248.698"/>
<polygon fill="black" stroke="black" points="1220.08,-252.105 1229.17,-246.665 1218.67,-245.248 1220.08,-252.105"/>
</g>
<!-- l0 -->
<g id="node88" class="node"><title>l0</title>
<a xlink:href="0016829" xlink:title="GO:0016829 (24)">
<ellipse fill="#e98576" stroke="#e98576" cx="1464" cy="-234" rx="79.4447" ry="18"/>
<text text-anchor="middle" x="1464" y="-229.8" font-family="Times,serif" font-size="14.00">GO:0016829 (24)</text>
</a>
</g>
<!-- g0&#45;&gt;l0 -->
<g id="edge86" class="edge"><title>g0&#45;&gt;l0</title>
<path fill="none" stroke="black" d="M1015.79,-297.654C1101,-288.489 1248.32,-271.613 1374,-252 1381.32,-250.858 1388.95,-249.568 1396.55,-248.223"/>
<polygon fill="black" stroke="black" points="1397.26,-251.651 1406.48,-246.43 1396.02,-244.763 1397.26,-251.651"/>
</g>
<!-- a1 -->
<g id="node9" class="node"><title>a1</title>
<a xlink:href="0042277" xlink:title="GO:0042277 (3)">
<ellipse fill="#e98576" stroke="#e98576" cx="1637" cy="-234" rx="75.2018" ry="18"/>
<text text-anchor="middle" x="1637" y="-229.8" font-family="Times,serif" font-size="14.00">GO:0042277 (3)</text>
</a>
</g>
<!-- b0&#45;&gt;a1 -->
<g id="edge6" class="edge"><title>b0&#45;&gt;a1</title>
<path fill="none" stroke="black" d="M3005.55,-303.674C2759.36,-299.042 1972.87,-282.2 1721,-252 1714.15,-251.179 1707.03,-250.098 1699.96,-248.877"/>
<polygon fill="black" stroke="black" points="1700.13,-245.352 1689.67,-247.004 1698.88,-252.239 1700.13,-245.352"/>
</g>
<!-- t1 -->
<g id="node11" class="node"><title>t1</title>
<a xlink:href="0019825" xlink:title="GO:0019825 (1)">
<ellipse fill="#e98576" stroke="#e98576" cx="1805" cy="-234" rx="75.2018" ry="18"/>
<text text-anchor="middle" x="1805" y="-229.8" font-family="Times,serif" font-size="14.00">GO:0019825 (1)</text>
</a>
</g>
<!-- b0&#45;&gt;t1 -->
<g id="edge8" class="edge"><title>b0&#45;&gt;t1</title>
<path fill="none" stroke="black" d="M3004.76,-305.691C2816.17,-306.547 2308.34,-303.448 1889,-252 1882.15,-251.16 1875.03,-250.067 1867.96,-248.84"/>
<polygon fill="black" stroke="black" points="1868.14,-245.314 1857.67,-246.959 1866.88,-252.2 1868.14,-245.314"/>
</g>
<!-- l1 -->
<g id="node13" class="node"><title>l1</title>
<a xlink:href="0033218" xlink:title="GO:0033218 (1)">
<ellipse fill="#e98576" stroke="#e98576" cx="1973" cy="-234" rx="75.2018" ry="18"/>
<text text-anchor="middle" x="1973" y="-229.8" font-family="Times,serif" font-size="14.00">GO:0033218 (1)</text>
</a>
</g>
<!-- b0&#45;&gt;l1 -->
<g id="edge10" class="edge"><title>b0&#45;&gt;l1</title>
<path fill="none" stroke="black" d="M3004.9,-304.902C2835.24,-303.852 2409.66,-296.572 2057,-252 2050.16,-251.135 2043.04,-250.026 2035.97,-248.789"/>
<polygon fill="black" stroke="black" points="2036.15,-245.264 2025.68,-246.9 2034.88,-252.149 2036.15,-245.264"/>
</g>
<!-- h0 -->
<g id="node15" class="node"><title>h0</title>
<a xlink:href="0005515" xlink:title="GO:0005515 (51)">
<ellipse fill="#e98576" stroke="#e98576" cx="2146" cy="-234" rx="79.4447" ry="18"/>
<text text-anchor="middle" x="2146" y="-229.8" font-family="Times,serif" font-size="14.00">GO:0005515 (51)</text>
</a>
</g>
<!-- b0&#45;&gt;h0 -->
<g id="edge12" class="edge"><title>b0&#45;&gt;h0</title>
<path fill="none" stroke="black" d="M3005.38,-303.477C2857.74,-299.767 2518.09,-287.77 2235,-252 2227.62,-251.068 2219.93,-249.9 2212.3,-248.615"/>
<polygon fill="black" stroke="black" points="2212.78,-245.146 2202.33,-246.869 2211.57,-252.042 2212.78,-245.146"/>
</g>
<!-- a0 -->
<g id="node26" class="node"><title>a0</title>
<a xlink:href="0043167" xlink:title="GO:0043167 (126)">
<ellipse fill="#e98576" stroke="#e98576" cx="2329" cy="-234" rx="84.1886" ry="18"/>
<text text-anchor="middle" x="2329" y="-229.8" font-family="Times,serif" font-size="14.00">GO:0043167 (126)</text>
</a>
</g>
<!-- b0&#45;&gt;a0 -->
<g id="edge22" class="edge"><title>b0&#45;&gt;a0</title>
<path fill="none" stroke="black" d="M3007.33,-301.48C2885.92,-295.075 2634.34,-279.567 2423,-252 2415.11,-250.971 2406.87,-249.73 2398.7,-248.393"/>
<polygon fill="black" stroke="black" points="2399.23,-244.933 2388.79,-246.723 2398.07,-251.836 2399.23,-244.933"/>
</g>
<!-- j1 -->
<g id="node28" class="node"><title>j1</title>
<a xlink:href="0043176" xlink:title="GO:0043176">
<ellipse fill="#dddddd" stroke="#dddddd" cx="2493" cy="-234" rx="61.1934" ry="18"/>
<text text-anchor="middle" x="2493" y="-229.8" font-family="Times,serif" font-size="14.00">GO:0043176</text>
</a>
</g>
<!-- b0&#45;&gt;j1 -->
<g id="edge24" class="edge"><title>b0&#45;&gt;j1</title>
<path fill="none" stroke="black" d="M3008.23,-300.647C2908.18,-293.895 2721.36,-278.798 2564,-252 2558.53,-251.069 2552.86,-249.96 2547.21,-248.76"/>
<polygon fill="black" stroke="black" points="2547.65,-245.271 2537.13,-246.523 2546.13,-252.105 2547.65,-245.271"/>
</g>
<!-- x0 -->
<g id="node31" class="node"><title>x0</title>
<a xlink:href="0030246" xlink:title="GO:0030246 (5)">
<ellipse fill="#e98576" stroke="#e98576" cx="2648" cy="-234" rx="75.2018" ry="18"/>
<text text-anchor="middle" x="2648" y="-229.8" font-family="Times,serif" font-size="14.00">GO:0030246 (5)</text>
</a>
</g>
<!-- b0&#45;&gt;x0 -->
<g id="edge28" class="edge"><title>b0&#45;&gt;x0</title>
<path fill="none" stroke="black" d="M3016.66,-296.296C2946.8,-286.477 2831.14,-269.571 2732,-252 2725.75,-250.892 2719.25,-249.682 2712.76,-248.434"/>
<polygon fill="black" stroke="black" points="2713.09,-244.931 2702.6,-246.45 2711.74,-251.802 2713.09,-244.931"/>
</g>
<!-- o0 -->
<g id="node35" class="node"><title>o0</title>
<a xlink:href="0003676" xlink:title="GO:0003676 (16)">
<ellipse fill="#e98576" stroke="#e98576" cx="2821" cy="-234" rx="79.4447" ry="18"/>
<text text-anchor="middle" x="2821" y="-229.8" font-family="Times,serif" font-size="14.00">GO:0003676 (16)</text>
</a>
</g>
<!-- b0&#45;&gt;o0 -->
<g id="edge32" class="edge"><title>b0&#45;&gt;o0</title>
<path fill="none" stroke="black" d="M3032.19,-292.079C2989.16,-280.449 2925.79,-263.322 2879.7,-250.865"/>
<polygon fill="black" stroke="black" points="2880.41,-247.432 2869.85,-248.202 2878.59,-254.19 2880.41,-247.432"/>
</g>
<!-- q1 -->
<g id="node38" class="node"><title>q1</title>
<a xlink:href="0001871" xlink:title="GO:0001871 (1)">
<ellipse fill="#e98576" stroke="#e98576" cx="2994" cy="-234" rx="75.2018" ry="18"/>
<text text-anchor="middle" x="2994" y="-229.8" font-family="Times,serif" font-size="14.00">GO:0001871 (1)</text>
</a>
</g>
<!-- b0&#45;&gt;q1 -->
<g id="edge36" class="edge"><title>b0&#45;&gt;q1</title>
<path fill="none" stroke="black" d="M3059.62,-288.411C3048.48,-279.345 3034.51,-267.974 3022.33,-258.057"/>
<polygon fill="black" stroke="black" points="3024.2,-255.068 3014.23,-251.47 3019.78,-260.497 3024.2,-255.068"/>
</g>
<!-- k0 -->
<g id="node46" class="node"><title>k0</title>
<a xlink:href="0048037" xlink:title="GO:0048037 (31)">
<ellipse fill="#e98576" stroke="#e98576" cx="3167" cy="-234" rx="79.4447" ry="18"/>
<text text-anchor="middle" x="3167" y="-229.8" font-family="Times,serif" font-size="14.00">GO:0048037 (31)</text>
</a>
</g>
<!-- b0&#45;&gt;k0 -->
<g id="edge44" class="edge"><title>b0&#45;&gt;k0</title>
<path fill="none" stroke="black" d="M3100.62,-288.411C3111.99,-279.257 3126.29,-267.755 3138.7,-257.772"/>
<polygon fill="black" stroke="black" points="3140.93,-260.466 3146.53,-251.47 3136.54,-255.012 3140.93,-260.466"/>
</g>
<!-- w0 -->
<g id="node48" class="node"><title>w0</title>
<a xlink:href="0008289" xlink:title="GO:0008289 (5)">
<ellipse fill="#e98576" stroke="#e98576" cx="3340" cy="-234" rx="75.2018" ry="18"/>
<text text-anchor="middle" x="3340" y="-229.8" font-family="Times,serif" font-size="14.00">GO:0008289 (5)</text>
</a>
</g>
<!-- b0&#45;&gt;w0 -->
<g id="edge46" class="edge"><title>b0&#45;&gt;w0</title>
<path fill="none" stroke="black" d="M3127.99,-292.079C3171.46,-280.376 3235.61,-263.105 3281.95,-250.629"/>
<polygon fill="black" stroke="black" points="3283.1,-253.943 3291.85,-247.964 3281.28,-247.184 3283.1,-253.943"/>
</g>
<!-- e0 -->
<g id="node60" class="node"><title>e0</title>
<a xlink:href="0001882" xlink:title="GO:0001882 (60)">
<ellipse fill="#e98576" stroke="#e98576" cx="3513" cy="-234" rx="79.4447" ry="18"/>
<text text-anchor="middle" x="3513" y="-229.8" font-family="Times,serif" font-size="14.00">GO:0001882 (60)</text>
</a>
</g>
<!-- b0&#45;&gt;e0 -->
<g id="edge58" class="edge"><title>b0&#45;&gt;e0</title>
<path fill="none" stroke="black" d="M3134.58,-293.442C3144.36,-291.518 3154.47,-289.623 3164,-288 3279,-268.42 3308.89,-270.95 3424,-252 3430.78,-250.884 3437.83,-249.654 3444.88,-248.382"/>
<polygon fill="black" stroke="black" points="3445.94,-251.744 3455.15,-246.495 3444.68,-244.859 3445.94,-251.744"/>
</g>
<!-- g1 -->
<g id="node62" class="node"><title>g1</title>
<a xlink:href="0008144" xlink:title="GO:0008144 (1)">
<ellipse fill="#e98576" stroke="#e98576" cx="3686" cy="-234" rx="75.2018" ry="18"/>
<text text-anchor="middle" x="3686" y="-229.8" font-family="Times,serif" font-size="14.00">GO:0008144 (1)</text>
</a>
</g>
<!-- b0&#45;&gt;g1 -->
<g id="edge60" class="edge"><title>b0&#45;&gt;g1</title>
<path fill="none" stroke="black" d="M3133.16,-293.261C3143.36,-291.287 3153.98,-289.421 3164,-288 3356.95,-260.625 3408.02,-279.155 3601,-252 3607.81,-251.042 3614.89,-249.884 3621.94,-248.629"/>
<polygon fill="black" stroke="black" points="3623,-251.992 3632.2,-246.732 3621.73,-245.109 3623,-251.992"/>
</g>
<!-- c1 -->
<g id="node64" class="node"><title>c1</title>
<a xlink:href="0019842" xlink:title="GO:0019842 (2)">
<ellipse fill="#e98576" stroke="#e98576" cx="3854" cy="-234" rx="75.2018" ry="18"/>
<text text-anchor="middle" x="3854" y="-229.8" font-family="Times,serif" font-size="14.00">GO:0019842 (2)</text>
</a>
</g>
<!-- b0&#45;&gt;c1 -->
<g id="edge62" class="edge"><title>b0&#45;&gt;c1</title>
<path fill="none" stroke="black" d="M3132.69,-293.162C3143.02,-291.172 3153.82,-289.326 3164,-288 3431.55,-253.155 3502.45,-286.845 3770,-252 3776.84,-251.109 3783.96,-249.983 3791.03,-248.737"/>
<polygon fill="black" stroke="black" points="3792.12,-252.096 3801.31,-246.838 3790.84,-245.212 3792.12,-252.096"/>
</g>
<!-- d1 -->
<g id="node73" class="node"><title>d1</title>
<a xlink:href="0060090" xlink:title="GO:0060090 (2)">
<ellipse fill="#e98576" stroke="#e98576" cx="4022" cy="-234" rx="75.2018" ry="18"/>
<text text-anchor="middle" x="4022" y="-229.8" font-family="Times,serif" font-size="14.00">GO:0060090 (2)</text>
</a>
</g>
<!-- b0&#45;&gt;d1 -->
<g id="edge70" class="edge"><title>b0&#45;&gt;d1</title>
<path fill="none" stroke="black" d="M3132.67,-293.057C3143.01,-291.076 3153.81,-289.26 3164,-288 3505.77,-245.721 3596.23,-294.279 3938,-252 3944.85,-251.153 3951.97,-250.056 3959.04,-248.826"/>
<polygon fill="black" stroke="black" points="3960.12,-252.186 3969.33,-246.943 3958.86,-245.3 3960.12,-252.186"/>
</g>
<!-- m1 -->
<g id="node77" class="node"><title>m1</title>
<a xlink:href="0031406" xlink:title="GO:0031406 (1)">
<ellipse fill="#e98576" stroke="#e98576" cx="4190" cy="-234" rx="75.2018" ry="18"/>
<text text-anchor="middle" x="4190" y="-229.8" font-family="Times,serif" font-size="14.00">GO:0031406 (1)</text>
</a>
</g>
<!-- b0&#45;&gt;m1 -->
<g id="edge74" class="edge"><title>b0&#45;&gt;m1</title>
<path fill="none" stroke="black" d="M3132.66,-292.989C3143,-291.015 3153.81,-289.218 3164,-288 3580.01,-238.284 3689.99,-301.716 4106,-252 4112.85,-251.182 4119.97,-250.102 4127.05,-248.883"/>
<polygon fill="black" stroke="black" points="4128.12,-252.244 4137.34,-247.011 4126.87,-245.357 4128.12,-252.244"/>
</g>
<!-- q0 -->
<g id="node84" class="node"><title>q0</title>
<a xlink:href="0046906" xlink:title="GO:0046906 (11)">
<ellipse fill="#e98576" stroke="#e98576" cx="4363" cy="-234" rx="79.4447" ry="18"/>
<text text-anchor="middle" x="4363" y="-229.8" font-family="Times,serif" font-size="14.00">GO:0046906 (11)</text>
</a>
</g>
<!-- b0&#45;&gt;q0 -->
<g id="edge82" class="edge"><title>b0&#45;&gt;q0</title>
<path fill="none" stroke="black" d="M3132.21,-293.028C3142.69,-291.024 3153.65,-289.206 3164,-288 3654.27,-230.846 3783.42,-306.47 4274,-252 4281.7,-251.146 4289.72,-249.991 4297.67,-248.684"/>
<polygon fill="black" stroke="black" points="4298.4,-252.11 4307.66,-246.958 4297.21,-245.212 4298.4,-252.11"/>
</g>
<!-- d0 -->
<g id="node86" class="node"><title>d0</title>
<a xlink:href="0000166" xlink:title="GO:0000166 (79)">
<ellipse fill="#e98576" stroke="#e98576" cx="4541" cy="-234" rx="79.4447" ry="18"/>
<text text-anchor="middle" x="4541" y="-229.8" font-family="Times,serif" font-size="14.00">GO:0000166 (79)</text>
</a>
</g>
<!-- b0&#45;&gt;d0 -->
<g id="edge84" class="edge"><title>b0&#45;&gt;d0</title>
<path fill="none" stroke="black" d="M3132.21,-292.991C3142.68,-290.99 3153.65,-289.183 3164,-288 3732.52,-223.008 3882.07,-313.297 4451,-252 4458.98,-251.14 4467.31,-249.959 4475.55,-248.615"/>
<polygon fill="black" stroke="black" points="4476.25,-252.046 4485.51,-246.908 4475.07,-245.147 4476.25,-252.046"/>
</g>
<!-- s0 -->
<g id="node90" class="node"><title>s0</title>
<a xlink:href="0051540" xlink:title="GO:0051540 (7)">
<ellipse fill="#e98576" stroke="#e98576" cx="4714" cy="-234" rx="75.2018" ry="18"/>
<text text-anchor="middle" x="4714" y="-229.8" font-family="Times,serif" font-size="14.00">GO:0051540 (7)</text>
</a>
</g>
<!-- b0&#45;&gt;s0 -->
<g id="edge88" class="edge"><title>b0&#45;&gt;s0</title>
<path fill="none" stroke="black" d="M3132.2,-292.964C3142.68,-290.965 3153.65,-289.165 3164,-288 3811.22,-215.124 3981.7,-324.135 4629,-252 4636.38,-251.177 4644.08,-250.039 4651.7,-248.739"/>
<polygon fill="black" stroke="black" points="4652.4,-252.168 4661.62,-246.948 4651.16,-245.279 4652.4,-252.168"/>
</g>
<!-- r0 -->
<g id="node19" class="node"><title>r0</title>
<a xlink:href="0008233" xlink:title="GO:0008233 (10)">
<ellipse fill="#e98576" stroke="#e98576" cx="85" cy="-162" rx="79.4447" ry="18"/>
<text text-anchor="middle" x="85" y="-157.8" font-family="Times,serif" font-size="14.00">GO:0008233 (10)</text>
</a>
</g>
<!-- i0&#45;&gt;r0 -->
<g id="edge16" class="edge"><title>i0&#45;&gt;r0</title>
<path fill="none" stroke="black" d="M212.631,-217.811C188.281,-207.354 155.739,-193.379 129.609,-182.157"/>
<polygon fill="black" stroke="black" points="130.869,-178.889 120.3,-178.159 128.107,-185.321 130.869,-178.889"/>
</g>
<!-- r1 -->
<g id="node22" class="node"><title>r1</title>
<a xlink:href="0004497" xlink:title="GO:0004497 (1)">
<ellipse fill="#e98576" stroke="#e98576" cx="258" cy="-162" rx="75.2018" ry="18"/>
<text text-anchor="middle" x="258" y="-157.8" font-family="Times,serif" font-size="14.00">GO:0004497 (1)</text>
</a>
</g>
<!-- f0&#45;&gt;r1 -->
<g id="edge18" class="edge"><title>f0&#45;&gt;r1</title>
<path fill="none" stroke="black" d="M389.547,-217.811C364.167,-207.236 330.152,-193.063 303.07,-181.779"/>
<polygon fill="black" stroke="black" points="304.382,-178.534 293.805,-177.919 301.69,-184.996 304.382,-178.534"/>
</g>
<!-- y0 -->
<g id="node50" class="node"><title>y0</title>
<a xlink:href="0051213" xlink:title="GO:0051213 (3)">
<ellipse fill="#e98576" stroke="#e98576" cx="426" cy="-162" rx="75.2018" ry="18"/>
<text text-anchor="middle" x="426" y="-157.8" font-family="Times,serif" font-size="14.00">GO:0051213 (3)</text>
</a>
</g>
<!-- f0&#45;&gt;y0 -->
<g id="edge48" class="edge"><title>f0&#45;&gt;y0</title>
<path fill="none" stroke="black" d="M426,-215.697C426,-207.983 426,-198.712 426,-190.112"/>
<polygon fill="black" stroke="black" points="429.5,-190.104 426,-180.104 422.5,-190.104 429.5,-190.104"/>
</g>
<!-- v0 -->
<g id="node80" class="node"><title>v0</title>
<a xlink:href="0009055" xlink:title="GO:0009055 (6)">
<ellipse fill="#e98576" stroke="#e98576" cx="594" cy="-162" rx="75.2018" ry="18"/>
<text text-anchor="middle" x="594" y="-157.8" font-family="Times,serif" font-size="14.00">GO:0009055 (6)</text>
</a>
</g>
<!-- f0&#45;&gt;v0 -->
<g id="edge78" class="edge"><title>f0&#45;&gt;v0</title>
<path fill="none" stroke="black" d="M462.453,-217.811C487.833,-207.236 521.848,-193.063 548.93,-181.779"/>
<polygon fill="black" stroke="black" points="550.31,-184.996 558.195,-177.919 547.618,-178.534 550.31,-184.996"/>
</g>
<!-- i1 -->
<g id="node66" class="node"><title>i1</title>
<a xlink:href="0016597" xlink:title="GO:0016597 (1)">
<ellipse fill="#e98576" stroke="#e98576" cx="2493" cy="-162" rx="75.2018" ry="18"/>
<text text-anchor="middle" x="2493" y="-157.8" font-family="Times,serif" font-size="14.00">GO:0016597 (1)</text>
</a>
</g>
<!-- j1&#45;&gt;i1 -->
<g id="edge64" class="edge"><title>j1&#45;&gt;i1</title>
<path fill="none" stroke="black" d="M2493,-215.697C2493,-207.983 2493,-198.712 2493,-190.112"/>
<polygon fill="black" stroke="black" points="2496.5,-190.104 2493,-180.104 2489.5,-190.104 2496.5,-190.104"/>
</g>
<!-- p1 -->
<g id="node52" class="node"><title>p1</title>
<a xlink:href="0016879" xlink:title="GO:0016879">
<ellipse fill="#dddddd" stroke="#dddddd" cx="749" cy="-162" rx="61.1934" ry="18"/>
<text text-anchor="middle" x="749" y="-157.8" font-family="Times,serif" font-size="14.00">GO:0016879</text>
</a>
</g>
<!-- m0&#45;&gt;p1 -->
<g id="edge50" class="edge"><title>m0&#45;&gt;p1</title>
<path fill="none" stroke="black" d="M636.18,-217.465C657.739,-207.057 686.273,-193.282 709.251,-182.189"/>
<polygon fill="black" stroke="black" points="710.915,-185.272 718.399,-177.773 707.872,-178.969 710.915,-185.272"/>
</g>
<!-- o1 -->
<g id="node53" class="node"><title>o1</title>
<a xlink:href="0016881" xlink:title="GO:0016881">
<ellipse fill="#dddddd" stroke="#dddddd" cx="749" cy="-90" rx="61.1934" ry="18"/>
<text text-anchor="middle" x="749" y="-85.8" font-family="Times,serif" font-size="14.00">GO:0016881</text>
</a>
</g>
<!-- p1&#45;&gt;o1 -->
<g id="edge76" class="edge"><title>p1&#45;&gt;o1</title>
<path fill="none" stroke="black" d="M749,-143.697C749,-135.983 749,-126.712 749,-118.112"/>
<polygon fill="black" stroke="black" points="752.5,-118.104 749,-108.104 745.5,-118.104 752.5,-118.104"/>
</g>
<!-- n1 -->
<g id="node55" class="node"><title>n1</title>
<a xlink:href="0019787" xlink:title="GO:0019787 (1)">
<ellipse fill="#e98576" stroke="#e98576" cx="749" cy="-18" rx="75.2018" ry="18"/>
<text text-anchor="middle" x="749" y="-13.8" font-family="Times,serif" font-size="14.00">GO:0019787 (1)</text>
</a>
</g>
<!-- o1&#45;&gt;n1 -->
<g id="edge52" class="edge"><title>o1&#45;&gt;n1</title>
<path fill="none" stroke="black" d="M749,-71.6966C749,-63.9827 749,-54.7125 749,-46.1124"/>
<polygon fill="black" stroke="black" points="752.5,-46.1043 749,-36.1043 745.5,-46.1044 752.5,-46.1043"/>
</g>
<!-- e1 -->
<g id="node69" class="node"><title>e1</title>
<a xlink:href="0004871" xlink:title="GO:0004871 (2)">
<ellipse fill="#e98576" stroke="#e98576" cx="4882" cy="-234" rx="75.2018" ry="18"/>
<text text-anchor="middle" x="4882" y="-229.8" font-family="Times,serif" font-size="14.00">GO:0004871 (2)</text>
</a>
</g>
<!-- f1&#45;&gt;e1 -->
<g id="edge66" class="edge"><title>f1&#45;&gt;e1</title>
<path fill="none" stroke="black" d="M3633.29,-293.158C3642.38,-291.089 3651.96,-289.213 3661,-288 4162.1,-220.789 4295.79,-310.35 4798,-252 4805.11,-251.174 4812.52,-250.057 4819.86,-248.789"/>
<polygon fill="black" stroke="black" points="4820.58,-252.215 4829.79,-246.978 4819.33,-245.329 4820.58,-252.215"/>
</g>
</g>
</svg>
