<?xml version="1.0" encoding="UTF-8" standalone="no"?>
<!DOCTYPE svg PUBLIC "-//W3C//DTD SVG 1.1//EN"
 "http://www.w3.org/Graphics/SVG/1.1/DTD/svg11.dtd">
<!-- Generated by graphviz version 2.28.0 (20110622.2320)
 -->
<!-- Title: G Pages: 1 -->
<svg width="358pt" height="260pt"
 viewBox="0.00 0.00 358.00 260.00" xmlns="http://www.w3.org/2000/svg" xmlns:xlink="http://www.w3.org/1999/xlink">
<g id="graph1" class="graph" transform="scale(1 1) rotate(0) translate(4 256)">
<title>G</title>
<polygon fill="white" stroke="white" points="-4,5 -4,-256 355,-256 355,5 -4,5"/>
<!-- b0 -->
<g id="node1" class="node"><title>b0</title>
<a xlink:href="0005575" xlink:title="GO:0005575">
<ellipse fill="#dddddd" stroke="#dddddd" cx="120" cy="-234" rx="61.1934" ry="18"/>
<text text-anchor="middle" x="120" y="-229.8" font-family="Times,serif" font-size="14.00">GO:0005575</text>
</a>
</g>
<!-- d0 -->
<g id="node3" class="node"><title>d0</title>
<a xlink:href="0044464" xlink:title="GO:0044464">
<ellipse fill="#dddddd" stroke="#dddddd" cx="75" cy="-90" rx="61.1934" ry="18"/>
<text text-anchor="middle" x="75" y="-85.8" font-family="Times,serif" font-size="14.00">GO:0044464</text>
</a>
</g>
<!-- b0&#45;&gt;d0 -->
<g id="edge2" class="edge"><title>b0&#45;&gt;d0</title>
<path fill="none" stroke="black" d="M89.3457,-218.326C74.5647,-209.47 58.2788,-196.652 50,-180 39.961,-159.807 48.4731,-134.969 58.1967,-116.669"/>
<polygon fill="black" stroke="black" points="61.3695,-118.171 63.3001,-107.754 55.2945,-114.693 61.3695,-118.171"/>
</g>
<!-- e0 -->
<g id="node4" class="node"><title>e0</title>
<a xlink:href="0005623" xlink:title="GO:0005623">
<ellipse fill="#dddddd" stroke="#dddddd" cx="120" cy="-162" rx="61.1934" ry="18"/>
<text text-anchor="middle" x="120" y="-157.8" font-family="Times,serif" font-size="14.00">GO:0005623</text>
</a>
</g>
<!-- b0&#45;&gt;e0 -->
<g id="edge10" class="edge"><title>b0&#45;&gt;e0</title>
<path fill="none" stroke="black" d="M120,-215.697C120,-207.983 120,-198.712 120,-190.112"/>
<polygon fill="black" stroke="black" points="123.5,-190.104 120,-180.104 116.5,-190.104 123.5,-190.104"/>
</g>
<!-- a0 -->
<g id="node9" class="node"><title>a0</title>
<a xlink:href="0005576" xlink:title="GO:0005576 (2)">
<ellipse fill="#e98576" stroke="#e98576" cx="275" cy="-162" rx="75.2018" ry="18"/>
<text text-anchor="middle" x="275" y="-157.8" font-family="Times,serif" font-size="14.00">GO:0005576 (2)</text>
</a>
</g>
<!-- b0&#45;&gt;a0 -->
<g id="edge8" class="edge"><title>b0&#45;&gt;a0</title>
<path fill="none" stroke="black" d="M152.116,-218.496C175.233,-208.056 206.667,-193.86 231.956,-182.439"/>
<polygon fill="black" stroke="black" points="233.643,-185.518 241.317,-178.212 230.762,-179.138 233.643,-185.518"/>
</g>
<!-- c0 -->
<g id="node7" class="node"><title>c0</title>
<a xlink:href="0016020" xlink:title="GO:0016020 (2)">
<ellipse fill="#e98576" stroke="#e98576" cx="75" cy="-18" rx="75.2018" ry="18"/>
<text text-anchor="middle" x="75" y="-13.8" font-family="Times,serif" font-size="14.00">GO:0016020 (2)</text>
</a>
</g>
<!-- d0&#45;&gt;c0 -->
<g id="edge6" class="edge"><title>d0&#45;&gt;c0</title>
<path fill="none" stroke="black" d="M75,-71.6966C75,-63.9827 75,-54.7125 75,-46.1124"/>
<polygon fill="black" stroke="black" points="78.5001,-46.1043 75,-36.1043 71.5001,-46.1044 78.5001,-46.1043"/>
</g>
<!-- e0&#45;&gt;d0 -->
<g id="edge4" class="edge"><title>e0&#45;&gt;d0</title>
<path fill="none" stroke="black" d="M109.107,-144.055C103.745,-135.715 97.1726,-125.491 91.2332,-116.252"/>
<polygon fill="black" stroke="black" points="94.1447,-114.308 85.7929,-107.789 88.2564,-118.093 94.1447,-114.308"/>
</g>
</g>
</svg>
