<?xml version="1.0" encoding="UTF-8" standalone="no"?>
<!DOCTYPE svg PUBLIC "-//W3C//DTD SVG 1.1//EN"
 "http://www.w3.org/Graphics/SVG/1.1/DTD/svg11.dtd">
<!-- Generated by graphviz version 2.28.0 (20110622.2320)
 -->
<!-- Title: G Pages: 1 -->
<svg width="2484pt" height="260pt"
 viewBox="0.00 0.00 2484.00 260.00" xmlns="http://www.w3.org/2000/svg" xmlns:xlink="http://www.w3.org/1999/xlink">
<g id="graph1" class="graph" transform="scale(1 1) rotate(0) translate(4 256)">
<title>G</title>
<polygon fill="white" stroke="white" points="-4,5 -4,-256 2481,-256 2481,5 -4,5"/>
<!-- r0 -->
<g id="node1" class="node"><title>r0</title>
<a xlink:href="0004871" xlink:title="GO:0004871 (1)">
<ellipse fill="#e98576" stroke="#e98576" cx="2091" cy="-90" rx="75.2018" ry="18"/>
<text text-anchor="middle" x="2091" y="-85.8" font-family="Times,serif" font-size="14.00">GO:0004871 (1)</text>
</a>
</g>
<!-- q0 -->
<g id="node3" class="node"><title>q0</title>
<a xlink:href="0004872" xlink:title="GO:0004872 (1)">
<ellipse fill="#e98576" stroke="#e98576" cx="2091" cy="-18" rx="75.2018" ry="18"/>
<text text-anchor="middle" x="2091" y="-13.8" font-family="Times,serif" font-size="14.00">GO:0004872 (1)</text>
</a>
</g>
<!-- r0&#45;&gt;q0 -->
<g id="edge2" class="edge"><title>r0&#45;&gt;q0</title>
<path fill="none" stroke="black" d="M2091,-71.6966C2091,-63.9827 2091,-54.7125 2091,-46.1124"/>
<polygon fill="black" stroke="black" points="2094.5,-46.1043 2091,-36.1043 2087.5,-46.1044 2094.5,-46.1043"/>
</g>
<!-- b0 -->
<g id="node4" class="node"><title>b0</title>
<a xlink:href="0005488" xlink:title="GO:0005488">
<ellipse fill="#dddddd" stroke="#dddddd" cx="915" cy="-162" rx="61.1934" ry="18"/>
<text text-anchor="middle" x="915" y="-157.8" font-family="Times,serif" font-size="14.00">GO:0005488</text>
</a>
</g>
<!-- n0 -->
<g id="node6" class="node"><title>n0</title>
<a xlink:href="0008289" xlink:title="GO:0008289 (1)">
<ellipse fill="#e98576" stroke="#e98576" cx="75" cy="-90" rx="75.2018" ry="18"/>
<text text-anchor="middle" x="75" y="-85.8" font-family="Times,serif" font-size="14.00">GO:0008289 (1)</text>
</a>
</g>
<!-- b0&#45;&gt;n0 -->
<g id="edge4" class="edge"><title>b0&#45;&gt;n0</title>
<path fill="none" stroke="black" d="M853.97,-159.404C725.076,-155.446 415.844,-142.844 159,-108 152.264,-107.086 145.257,-105.957 138.29,-104.719"/>
<polygon fill="black" stroke="black" points="138.618,-101.22 128.147,-102.838 137.342,-108.103 138.618,-101.22"/>
</g>
<!-- a0 -->
<g id="node13" class="node"><title>a0</title>
<a xlink:href="0005515" xlink:title="GO:0005515 (9)">
<ellipse fill="#e98576" stroke="#e98576" cx="243" cy="-90" rx="75.2018" ry="18"/>
<text text-anchor="middle" x="243" y="-85.8" font-family="Times,serif" font-size="14.00">GO:0005515 (9)</text>
</a>
</g>
<!-- b0&#45;&gt;a0 -->
<g id="edge10" class="edge"><title>b0&#45;&gt;a0</title>
<path fill="none" stroke="black" d="M855.068,-157.778C748.44,-151.56 518.946,-135.987 327,-108 320.372,-107.034 313.478,-105.881 306.616,-104.639"/>
<polygon fill="black" stroke="black" points="307.094,-101.167 296.62,-102.764 305.804,-108.047 307.094,-101.167"/>
</g>
<!-- p0 -->
<g id="node15" class="node"><title>p0</title>
<a xlink:href="0008144" xlink:title="GO:0008144 (1)">
<ellipse fill="#e98576" stroke="#e98576" cx="411" cy="-90" rx="75.2018" ry="18"/>
<text text-anchor="middle" x="411" y="-85.8" font-family="Times,serif" font-size="14.00">GO:0008144 (1)</text>
</a>
</g>
<!-- b0&#45;&gt;p0 -->
<g id="edge12" class="edge"><title>b0&#45;&gt;p0</title>
<path fill="none" stroke="black" d="M858.083,-155.172C777.149,-146.578 624.277,-129.208 495,-108 488.489,-106.932 481.713,-105.724 474.96,-104.456"/>
<polygon fill="black" stroke="black" points="475.596,-101.014 465.115,-102.566 474.276,-107.889 475.596,-101.014"/>
</g>
<!-- v0 -->
<g id="node25" class="node"><title>v0</title>
<a xlink:href="0005496" xlink:title="GO:0005496 (1)">
<ellipse fill="#e98576" stroke="#e98576" cx="579" cy="-90" rx="75.2018" ry="18"/>
<text text-anchor="middle" x="579" y="-85.8" font-family="Times,serif" font-size="14.00">GO:0005496 (1)</text>
</a>
</g>
<!-- b0&#45;&gt;v0 -->
<g id="edge22" class="edge"><title>b0&#45;&gt;v0</title>
<path fill="none" stroke="black" d="M866.502,-150.896C807.849,-138.677 708.906,-118.064 643.77,-104.494"/>
<polygon fill="black" stroke="black" points="644.122,-100.992 633.618,-102.379 642.694,-107.845 644.122,-100.992"/>
</g>
<!-- d0 -->
<g id="node29" class="node"><title>d0</title>
<a xlink:href="0043167" xlink:title="GO:0043167 (5)">
<ellipse fill="#e98576" stroke="#e98576" cx="747" cy="-90" rx="75.2018" ry="18"/>
<text text-anchor="middle" x="747" y="-85.8" font-family="Times,serif" font-size="14.00">GO:0043167 (5)</text>
</a>
</g>
<!-- b0&#45;&gt;d0 -->
<g id="edge26" class="edge"><title>b0&#45;&gt;d0</title>
<path fill="none" stroke="black" d="M881.003,-146.834C855.444,-136.185 820.175,-121.49 792.235,-109.848"/>
<polygon fill="black" stroke="black" points="793.263,-106.485 782.686,-105.869 790.571,-112.946 793.263,-106.485"/>
</g>
<!-- m0 -->
<g id="node31" class="node"><title>m0</title>
<a xlink:href="0031406" xlink:title="GO:0031406 (1)">
<ellipse fill="#e98576" stroke="#e98576" cx="915" cy="-90" rx="75.2018" ry="18"/>
<text text-anchor="middle" x="915" y="-85.8" font-family="Times,serif" font-size="14.00">GO:0031406 (1)</text>
</a>
</g>
<!-- b0&#45;&gt;m0 -->
<g id="edge28" class="edge"><title>b0&#45;&gt;m0</title>
<path fill="none" stroke="black" d="M915,-143.697C915,-135.983 915,-126.712 915,-118.112"/>
<polygon fill="black" stroke="black" points="918.5,-118.104 915,-108.104 911.5,-118.104 918.5,-118.104"/>
</g>
<!-- w0 -->
<g id="node34" class="node"><title>w0</title>
<a xlink:href="0043178" xlink:title="GO:0043178 (1)">
<ellipse fill="#e98576" stroke="#e98576" cx="1083" cy="-90" rx="75.2018" ry="18"/>
<text text-anchor="middle" x="1083" y="-85.8" font-family="Times,serif" font-size="14.00">GO:0043178 (1)</text>
</a>
</g>
<!-- b0&#45;&gt;w0 -->
<g id="edge32" class="edge"><title>b0&#45;&gt;w0</title>
<path fill="none" stroke="black" d="M948.997,-146.834C974.556,-136.185 1009.82,-121.49 1037.76,-109.848"/>
<polygon fill="black" stroke="black" points="1039.43,-112.946 1047.31,-105.869 1036.74,-106.485 1039.43,-112.946"/>
</g>
<!-- i0 -->
<g id="node38" class="node"><title>i0</title>
<a xlink:href="0003676" xlink:title="GO:0003676 (3)">
<ellipse fill="#e98576" stroke="#e98576" cx="1251" cy="-90" rx="75.2018" ry="18"/>
<text text-anchor="middle" x="1251" y="-85.8" font-family="Times,serif" font-size="14.00">GO:0003676 (3)</text>
</a>
</g>
<!-- b0&#45;&gt;i0 -->
<g id="edge36" class="edge"><title>b0&#45;&gt;i0</title>
<path fill="none" stroke="black" d="M963.498,-150.896C1022.15,-138.677 1121.09,-118.064 1186.23,-104.494"/>
<polygon fill="black" stroke="black" points="1187.31,-107.845 1196.38,-102.379 1185.88,-100.992 1187.31,-107.845"/>
</g>
<!-- g0 -->
<g id="node40" class="node"><title>g0</title>
<a xlink:href="0000166" xlink:title="GO:0000166 (4)">
<ellipse fill="#e98576" stroke="#e98576" cx="1419" cy="-90" rx="75.2018" ry="18"/>
<text text-anchor="middle" x="1419" y="-85.8" font-family="Times,serif" font-size="14.00">GO:0000166 (4)</text>
</a>
</g>
<!-- b0&#45;&gt;g0 -->
<g id="edge38" class="edge"><title>b0&#45;&gt;g0</title>
<path fill="none" stroke="black" d="M971.917,-155.172C1052.85,-146.578 1205.72,-129.208 1335,-108 1341.51,-106.932 1348.29,-105.724 1355.04,-104.456"/>
<polygon fill="black" stroke="black" points="1355.72,-107.889 1364.88,-102.566 1354.4,-101.014 1355.72,-107.889"/>
</g>
<!-- u0 -->
<g id="node42" class="node"><title>u0</title>
<a xlink:href="0019840" xlink:title="GO:0019840 (1)">
<ellipse fill="#e98576" stroke="#e98576" cx="1587" cy="-90" rx="75.2018" ry="18"/>
<text text-anchor="middle" x="1587" y="-85.8" font-family="Times,serif" font-size="14.00">GO:0019840 (1)</text>
</a>
</g>
<!-- b0&#45;&gt;u0 -->
<g id="edge40" class="edge"><title>b0&#45;&gt;u0</title>
<path fill="none" stroke="black" d="M974.932,-157.778C1081.56,-151.56 1311.05,-135.987 1503,-108 1509.63,-107.034 1516.52,-105.881 1523.38,-104.639"/>
<polygon fill="black" stroke="black" points="1524.2,-108.047 1533.38,-102.764 1522.91,-101.167 1524.2,-108.047"/>
</g>
<!-- c0 -->
<g id="node7" class="node"><title>c0</title>
<a xlink:href="0003674" xlink:title="GO:0003674 (2)">
<ellipse fill="#e98576" stroke="#e98576" cx="1923" cy="-234" rx="75.2018" ry="18"/>
<text text-anchor="middle" x="1923" y="-229.8" font-family="Times,serif" font-size="14.00">GO:0003674 (2)</text>
</a>
</g>
<!-- c0&#45;&gt;b0 -->
<g id="edge16" class="edge"><title>c0&#45;&gt;b0</title>
<path fill="none" stroke="black" d="M1851.72,-228.05C1665.66,-215.129 1167.12,-180.508 983.836,-167.78"/>
<polygon fill="black" stroke="black" points="984.002,-164.283 973.783,-167.082 983.517,-171.267 984.002,-164.283"/>
</g>
<!-- l0 -->
<g id="node9" class="node"><title>l0</title>
<a xlink:href="0030234" xlink:title="GO:0030234 (1)">
<ellipse fill="#e98576" stroke="#e98576" cx="1613" cy="-162" rx="75.2018" ry="18"/>
<text text-anchor="middle" x="1613" y="-157.8" font-family="Times,serif" font-size="14.00">GO:0030234 (1)</text>
</a>
</g>
<!-- c0&#45;&gt;l0 -->
<g id="edge6" class="edge"><title>c0&#45;&gt;l0</title>
<path fill="none" stroke="black" d="M1870.41,-221.125C1816.55,-208.964 1732.84,-190.06 1675.6,-177.135"/>
<polygon fill="black" stroke="black" points="1676.11,-173.663 1665.59,-174.874 1674.57,-180.491 1676.11,-173.663"/>
</g>
<!-- f0 -->
<g id="node11" class="node"><title>f0</title>
<a xlink:href="0003824" xlink:title="GO:0003824">
<ellipse fill="#dddddd" stroke="#dddddd" cx="1768" cy="-162" rx="61.1934" ry="18"/>
<text text-anchor="middle" x="1768" y="-157.8" font-family="Times,serif" font-size="14.00">GO:0003824</text>
</a>
</g>
<!-- c0&#45;&gt;f0 -->
<g id="edge8" class="edge"><title>c0&#45;&gt;f0</title>
<path fill="none" stroke="black" d="M1889.37,-217.811C1865.84,-207.186 1834.27,-192.929 1809.23,-181.618"/>
<polygon fill="black" stroke="black" points="1810.53,-178.368 1799.98,-177.442 1807.65,-184.747 1810.53,-178.368"/>
</g>
<!-- t0 -->
<g id="node17" class="node"><title>t0</title>
<a xlink:href="0003774" xlink:title="GO:0003774 (1)">
<ellipse fill="#e98576" stroke="#e98576" cx="1923" cy="-162" rx="75.2018" ry="18"/>
<text text-anchor="middle" x="1923" y="-157.8" font-family="Times,serif" font-size="14.00">GO:0003774 (1)</text>
</a>
</g>
<!-- c0&#45;&gt;t0 -->
<g id="edge14" class="edge"><title>c0&#45;&gt;t0</title>
<path fill="none" stroke="black" d="M1923,-215.697C1923,-207.983 1923,-198.712 1923,-190.112"/>
<polygon fill="black" stroke="black" points="1926.5,-190.104 1923,-180.104 1919.5,-190.104 1926.5,-190.104"/>
</g>
<!-- s0 -->
<g id="node19" class="node"><title>s0</title>
<a xlink:href="0060089" xlink:title="GO:0060089">
<ellipse fill="#dddddd" stroke="#dddddd" cx="2078" cy="-162" rx="61.1934" ry="18"/>
<text text-anchor="middle" x="2078" y="-157.8" font-family="Times,serif" font-size="14.00">GO:0060089</text>
</a>
</g>
<!-- c0&#45;&gt;s0 -->
<g id="edge44" class="edge"><title>c0&#45;&gt;s0</title>
<path fill="none" stroke="black" d="M1956.63,-217.811C1980.16,-207.186 2011.73,-192.929 2036.77,-181.618"/>
<polygon fill="black" stroke="black" points="2038.35,-184.747 2046.02,-177.442 2035.47,-178.368 2038.35,-184.747"/>
</g>
<!-- j0 -->
<g id="node27" class="node"><title>j0</title>
<a xlink:href="0005215" xlink:title="GO:0005215 (2)">
<ellipse fill="#e98576" stroke="#e98576" cx="2233" cy="-162" rx="75.2018" ry="18"/>
<text text-anchor="middle" x="2233" y="-157.8" font-family="Times,serif" font-size="14.00">GO:0005215 (2)</text>
</a>
</g>
<!-- c0&#45;&gt;j0 -->
<g id="edge24" class="edge"><title>c0&#45;&gt;j0</title>
<path fill="none" stroke="black" d="M1975.59,-221.125C2029.45,-208.964 2113.16,-190.06 2170.4,-177.135"/>
<polygon fill="black" stroke="black" points="2171.43,-180.491 2180.41,-174.874 2169.89,-173.663 2171.43,-180.491"/>
</g>
<!-- o0 -->
<g id="node44" class="node"><title>o0</title>
<a xlink:href="0005198" xlink:title="GO:0005198 (1)">
<ellipse fill="#e98576" stroke="#e98576" cx="2401" cy="-162" rx="75.2018" ry="18"/>
<text text-anchor="middle" x="2401" y="-157.8" font-family="Times,serif" font-size="14.00">GO:0005198 (1)</text>
</a>
</g>
<!-- c0&#45;&gt;o0 -->
<g id="edge42" class="edge"><title>c0&#45;&gt;o0</title>
<path fill="none" stroke="black" d="M1989.43,-225.421C2067.91,-216.153 2202.32,-199.297 2317,-180 2323.51,-178.905 2330.28,-177.68 2337.03,-176.401"/>
<polygon fill="black" stroke="black" points="2337.72,-179.833 2346.87,-174.5 2336.39,-172.96 2337.72,-179.833"/>
</g>
<!-- h0 -->
<g id="node21" class="node"><title>h0</title>
<a xlink:href="0016787" xlink:title="GO:0016787 (3)">
<ellipse fill="#e98576" stroke="#e98576" cx="1755" cy="-90" rx="75.2018" ry="18"/>
<text text-anchor="middle" x="1755" y="-85.8" font-family="Times,serif" font-size="14.00">GO:0016787 (3)</text>
</a>
</g>
<!-- f0&#45;&gt;h0 -->
<g id="edge30" class="edge"><title>f0&#45;&gt;h0</title>
<path fill="none" stroke="black" d="M1764.79,-143.697C1763.35,-135.983 1761.63,-126.712 1760.04,-118.112"/>
<polygon fill="black" stroke="black" points="1763.44,-117.297 1758.18,-108.104 1756.56,-118.575 1763.44,-117.297"/>
</g>
<!-- e0 -->
<g id="node36" class="node"><title>e0</title>
<a xlink:href="0016740" xlink:title="GO:0016740 (4)">
<ellipse fill="#e98576" stroke="#e98576" cx="1923" cy="-90" rx="75.2018" ry="18"/>
<text text-anchor="middle" x="1923" y="-85.8" font-family="Times,serif" font-size="14.00">GO:0016740 (4)</text>
</a>
</g>
<!-- f0&#45;&gt;e0 -->
<g id="edge34" class="edge"><title>f0&#45;&gt;e0</title>
<path fill="none" stroke="black" d="M1800.12,-146.496C1823.23,-136.056 1854.67,-121.86 1879.96,-110.439"/>
<polygon fill="black" stroke="black" points="1881.64,-113.518 1889.32,-106.212 1878.76,-107.138 1881.64,-113.518"/>
</g>
<!-- s0&#45;&gt;r0 -->
<g id="edge18" class="edge"><title>s0&#45;&gt;r0</title>
<path fill="none" stroke="black" d="M2081.21,-143.697C2082.65,-135.983 2084.37,-126.712 2085.96,-118.112"/>
<polygon fill="black" stroke="black" points="2089.44,-118.575 2087.82,-108.104 2082.56,-117.297 2089.44,-118.575"/>
</g>
<!-- k0 -->
<g id="node23" class="node"><title>k0</title>
<a xlink:href="0008233" xlink:title="GO:0008233 (2)">
<ellipse fill="#e98576" stroke="#e98576" cx="1755" cy="-18" rx="75.2018" ry="18"/>
<text text-anchor="middle" x="1755" y="-13.8" font-family="Times,serif" font-size="14.00">GO:0008233 (2)</text>
</a>
</g>
<!-- h0&#45;&gt;k0 -->
<g id="edge20" class="edge"><title>h0&#45;&gt;k0</title>
<path fill="none" stroke="black" d="M1755,-71.6966C1755,-63.9827 1755,-54.7125 1755,-46.1124"/>
<polygon fill="black" stroke="black" points="1758.5,-46.1043 1755,-36.1043 1751.5,-46.1044 1758.5,-46.1043"/>
</g>
</g>
</svg>
