<?xml version="1.0" encoding="UTF-8" standalone="no"?>
<!DOCTYPE svg PUBLIC "-//W3C//DTD SVG 1.1//EN"
 "http://www.w3.org/Graphics/SVG/1.1/DTD/svg11.dtd">
<!-- Generated by graphviz version 2.28.0 (20110622.2320)
 -->
<!-- Title: G Pages: 1 -->
<svg width="3362pt" height="476pt"
 viewBox="0.00 0.00 3362.00 476.00" xmlns="http://www.w3.org/2000/svg" xmlns:xlink="http://www.w3.org/1999/xlink">
<g id="graph1" class="graph" transform="scale(1 1) rotate(0) translate(4 472)">
<title>G</title>
<polygon fill="white" stroke="white" points="-4,5 -4,-472 3359,-472 3359,5 -4,5"/>
<!-- l1 -->
<g id="node1" class="node"><title>l1</title>
<a xlink:href="0006996" xlink:title="GO:0006996">
<ellipse fill="#dddddd" stroke="#dddddd" cx="3115" cy="-234" rx="61.1934" ry="18"/>
<text text-anchor="middle" x="3115" y="-229.8" font-family="Times,serif" font-size="14.00">GO:0006996</text>
</a>
</g>
<!-- k1 -->
<g id="node3" class="node"><title>k1</title>
<a xlink:href="0009657" xlink:title="GO:0009657 (1)">
<ellipse fill="#e98576" stroke="#e98576" cx="3115" cy="-162" rx="75.2018" ry="18"/>
<text text-anchor="middle" x="3115" y="-157.8" font-family="Times,serif" font-size="14.00">GO:0009657 (1)</text>
</a>
</g>
<!-- l1&#45;&gt;k1 -->
<g id="edge2" class="edge"><title>l1&#45;&gt;k1</title>
<path fill="none" stroke="black" d="M3115,-215.697C3115,-207.983 3115,-198.712 3115,-190.112"/>
<polygon fill="black" stroke="black" points="3118.5,-190.104 3115,-180.104 3111.5,-190.104 3118.5,-190.104"/>
</g>
<!-- n0 -->
<g id="node4" class="node"><title>n0</title>
<a xlink:href="0044237" xlink:title="GO:0044237">
<ellipse fill="#dddddd" stroke="#dddddd" cx="1699" cy="-306" rx="61.1934" ry="18"/>
<text text-anchor="middle" x="1699" y="-301.8" font-family="Times,serif" font-size="14.00">GO:0044237</text>
</a>
</g>
<!-- g2 -->
<g id="node6" class="node"><title>g2</title>
<a xlink:href="0006082" xlink:title="GO:0006082 (1)">
<ellipse fill="#e98576" stroke="#e98576" cx="1953" cy="-234" rx="75.2018" ry="18"/>
<text text-anchor="middle" x="1953" y="-229.8" font-family="Times,serif" font-size="14.00">GO:0006082 (1)</text>
</a>
</g>
<!-- n0&#45;&gt;g2 -->
<g id="edge4" class="edge"><title>n0&#45;&gt;g2</title>
<path fill="none" stroke="black" d="M1742.09,-293.125C1784.5,-281.436 1849.52,-263.517 1896.16,-250.666"/>
<polygon fill="black" stroke="black" points="1897.1,-254.035 1905.81,-248.004 1895.24,-247.287 1897.1,-254.035"/>
</g>
<!-- m0 -->
<g id="node7" class="node"><title>m0</title>
<a xlink:href="0006139" xlink:title="GO:0006139">
<ellipse fill="#dddddd" stroke="#dddddd" cx="816" cy="-234" rx="61.1934" ry="18"/>
<text text-anchor="middle" x="816" y="-229.8" font-family="Times,serif" font-size="14.00">GO:0006139</text>
</a>
</g>
<!-- n0&#45;&gt;m0 -->
<g id="edge102" class="edge"><title>n0&#45;&gt;m0</title>
<path fill="none" stroke="black" d="M1655.31,-293.19C1646.34,-291.146 1636.91,-289.272 1628,-288 1301.59,-241.409 1213.41,-298.591 887,-252 881.293,-251.185 875.372,-250.124 869.494,-248.928"/>
<polygon fill="black" stroke="black" points="870.202,-245.5 859.688,-246.81 868.724,-252.342 870.202,-245.5"/>
</g>
<!-- x1 -->
<g id="node26" class="node"><title>x1</title>
<a xlink:href="0042440" xlink:title="GO:0042440 (1)">
<ellipse fill="#e98576" stroke="#e98576" cx="1281" cy="-234" rx="75.2018" ry="18"/>
<text text-anchor="middle" x="1281" y="-229.8" font-family="Times,serif" font-size="14.00">GO:0042440 (1)</text>
</a>
</g>
<!-- n0&#45;&gt;x1 -->
<g id="edge22" class="edge"><title>n0&#45;&gt;x1</title>
<path fill="none" stroke="black" d="M1654.45,-293.622C1645.72,-291.592 1636.6,-289.613 1628,-288 1512.05,-266.237 1481.32,-271.711 1365,-252 1358.49,-250.898 1351.72,-249.667 1344.97,-248.386"/>
<polygon fill="black" stroke="black" points="1345.61,-244.945 1335.13,-246.482 1344.28,-251.817 1345.61,-244.945"/>
</g>
<!-- o1 -->
<g id="node32" class="node"><title>o1</title>
<a xlink:href="0006725" xlink:title="GO:0006725 (1)">
<ellipse fill="#e98576" stroke="#e98576" cx="2121" cy="-234" rx="75.2018" ry="18"/>
<text text-anchor="middle" x="2121" y="-229.8" font-family="Times,serif" font-size="14.00">GO:0006725 (1)</text>
</a>
</g>
<!-- n0&#45;&gt;o1 -->
<g id="edge26" class="edge"><title>n0&#45;&gt;o1</title>
<path fill="none" stroke="black" d="M1743.54,-293.608C1752.28,-291.579 1761.4,-289.605 1770,-288 1887.71,-266.031 1918.92,-271.887 2037,-252 2043.51,-250.904 2050.28,-249.678 2057.03,-248.399"/>
<polygon fill="black" stroke="black" points="2057.72,-251.831 2066.87,-246.498 2056.39,-244.958 2057.72,-251.831"/>
</g>
<!-- g1 -->
<g id="node37" class="node"><title>g1</title>
<a xlink:href="0044260" xlink:title="GO:0044260">
<ellipse fill="#dddddd" stroke="#dddddd" cx="534" cy="-234" rx="61.1934" ry="18"/>
<text text-anchor="middle" x="534" y="-229.8" font-family="Times,serif" font-size="14.00">GO:0044260</text>
</a>
</g>
<!-- n0&#45;&gt;g1 -->
<g id="edge32" class="edge"><title>n0&#45;&gt;g1</title>
<path fill="none" stroke="black" d="M1655.7,-293.183C1646.62,-291.112 1637.04,-289.229 1628,-288 1177.2,-226.726 1055.8,-313.274 605,-252 599.207,-251.213 593.197,-250.157 587.235,-248.956"/>
<polygon fill="black" stroke="black" points="587.809,-245.499 577.296,-246.817 586.336,-252.342 587.809,-245.499"/>
</g>
<!-- r1 -->
<g id="node46" class="node"><title>r1</title>
<a xlink:href="0006066" xlink:title="GO:0006066 (1)">
<ellipse fill="#e98576" stroke="#e98576" cx="2289" cy="-234" rx="75.2018" ry="18"/>
<text text-anchor="middle" x="2289" y="-229.8" font-family="Times,serif" font-size="14.00">GO:0006066 (1)</text>
</a>
</g>
<!-- n0&#45;&gt;r1 -->
<g id="edge40" class="edge"><title>n0&#45;&gt;r1</title>
<path fill="none" stroke="black" d="M1743.1,-293.34C1751.96,-291.31 1761.24,-289.403 1770,-288 1961.55,-257.325 2012.93,-279.287 2205,-252 2211.73,-251.044 2218.73,-249.887 2225.7,-248.633"/>
<polygon fill="black" stroke="black" points="2226.65,-252.015 2235.84,-246.736 2225.37,-245.135 2226.65,-252.015"/>
</g>
<!-- i1 -->
<g id="node48" class="node"><title>i1</title>
<a xlink:href="0051186" xlink:title="GO:0051186 (1)">
<ellipse fill="#e98576" stroke="#e98576" cx="2457" cy="-234" rx="75.2018" ry="18"/>
<text text-anchor="middle" x="2457" y="-229.8" font-family="Times,serif" font-size="14.00">GO:0051186 (1)</text>
</a>
</g>
<!-- n0&#45;&gt;i1 -->
<g id="edge42" class="edge"><title>n0&#45;&gt;i1</title>
<path fill="none" stroke="black" d="M1742.7,-293.267C1751.67,-291.217 1761.1,-289.321 1770,-288 2035.57,-248.59 2106.78,-286.713 2373,-252 2379.84,-251.108 2386.96,-249.982 2394.03,-248.735"/>
<polygon fill="black" stroke="black" points="2395.12,-252.093 2404.31,-246.836 2393.84,-245.21 2395.12,-252.093"/>
</g>
<!-- z0 -->
<g id="node50" class="node"><title>z0</title>
<a xlink:href="0006793" xlink:title="GO:0006793 (3)">
<ellipse fill="#e98576" stroke="#e98576" cx="2663" cy="-234" rx="75.2018" ry="18"/>
<text text-anchor="middle" x="2663" y="-229.8" font-family="Times,serif" font-size="14.00">GO:0006793 (3)</text>
</a>
</g>
<!-- n0&#45;&gt;z0 -->
<g id="edge44" class="edge"><title>n0&#45;&gt;z0</title>
<path fill="none" stroke="black" d="M1742.31,-293.25C1751.39,-291.174 1760.96,-289.272 1770,-288 2124.2,-238.129 2218.74,-293.663 2574,-252 2582.11,-251.049 2590.59,-249.785 2598.95,-248.374"/>
<polygon fill="black" stroke="black" points="2599.83,-251.774 2609.07,-246.591 2598.61,-244.88 2599.83,-251.774"/>
</g>
<!-- w1 -->
<g id="node52" class="node"><title>w1</title>
<a xlink:href="0046483" xlink:title="GO:0046483 (1)">
<ellipse fill="#e98576" stroke="#e98576" cx="1449" cy="-234" rx="75.2018" ry="18"/>
<text text-anchor="middle" x="1449" y="-229.8" font-family="Times,serif" font-size="14.00">GO:0046483 (1)</text>
</a>
</g>
<!-- n0&#45;&gt;w1 -->
<g id="edge46" class="edge"><title>n0&#45;&gt;w1</title>
<path fill="none" stroke="black" d="M1656.31,-293.046C1614.73,-281.405 1551.29,-263.64 1505.54,-250.83"/>
<polygon fill="black" stroke="black" points="1506.34,-247.421 1495.77,-248.095 1504.45,-254.161 1506.34,-247.421"/>
</g>
<!-- d2 -->
<g id="node58" class="node"><title>d2</title>
<a xlink:href="0044255" xlink:title="GO:0044255 (1)">
<ellipse fill="#e98576" stroke="#e98576" cx="1927" cy="-162" rx="75.2018" ry="18"/>
<text text-anchor="middle" x="1927" y="-157.8" font-family="Times,serif" font-size="14.00">GO:0044255 (1)</text>
</a>
</g>
<!-- n0&#45;&gt;d2 -->
<g id="edge52" class="edge"><title>n0&#45;&gt;d2</title>
<path fill="none" stroke="black" d="M1742.31,-293.263C1751.4,-291.186 1760.96,-289.281 1770,-288 1812.46,-281.981 2511.39,-283.02 2541,-252 2552.05,-240.425 2551.82,-227.79 2541,-216 2505.97,-177.812 2172.28,-167.07 2012.05,-164.103"/>
<polygon fill="black" stroke="black" points="2011.82,-160.599 2001.76,-163.919 2011.69,-167.598 2011.82,-160.599"/>
</g>
<!-- p1 -->
<g id="node83" class="node"><title>p1</title>
<a xlink:href="0046490" xlink:title="GO:0046490 (1)">
<ellipse fill="#e98576" stroke="#e98576" cx="1617" cy="-234" rx="75.2018" ry="18"/>
<text text-anchor="middle" x="1617" y="-229.8" font-family="Times,serif" font-size="14.00">GO:0046490 (1)</text>
</a>
</g>
<!-- n0&#45;&gt;p1 -->
<g id="edge76" class="edge"><title>n0&#45;&gt;p1</title>
<path fill="none" stroke="black" d="M1679.98,-288.765C1669.37,-279.708 1655.97,-268.27 1644.27,-258.276"/>
<polygon fill="black" stroke="black" points="1646.36,-255.464 1636.48,-251.633 1641.82,-260.788 1646.36,-255.464"/>
</g>
<!-- i2 -->
<g id="node112" class="node"><title>i2</title>
<a xlink:href="0006081" xlink:title="GO:0006081 (1)">
<ellipse fill="#e98576" stroke="#e98576" cx="1785" cy="-234" rx="75.2018" ry="18"/>
<text text-anchor="middle" x="1785" y="-229.8" font-family="Times,serif" font-size="14.00">GO:0006081 (1)</text>
</a>
</g>
<!-- n0&#45;&gt;i2 -->
<g id="edge114" class="edge"><title>n0&#45;&gt;i2</title>
<path fill="none" stroke="black" d="M1718.95,-288.765C1730.26,-279.554 1744.6,-267.882 1757.03,-257.769"/>
<polygon fill="black" stroke="black" points="1759.32,-260.417 1764.86,-251.39 1754.9,-254.988 1759.32,-260.417"/>
</g>
<!-- x0 -->
<g id="node9" class="node"><title>x0</title>
<a xlink:href="0016070" xlink:title="GO:0016070">
<ellipse fill="#dddddd" stroke="#dddddd" cx="675" cy="-162" rx="61.1934" ry="18"/>
<text text-anchor="middle" x="675" y="-157.8" font-family="Times,serif" font-size="14.00">GO:0016070</text>
</a>
</g>
<!-- m0&#45;&gt;x0 -->
<g id="edge6" class="edge"><title>m0&#45;&gt;x0</title>
<path fill="none" stroke="black" d="M786.098,-218.155C765.067,-207.714 736.725,-193.644 713.931,-182.328"/>
<polygon fill="black" stroke="black" points="715.373,-179.136 704.859,-177.824 712.26,-185.405 715.373,-179.136"/>
</g>
<!-- v0 -->
<g id="node62" class="node"><title>v0</title>
<a xlink:href="0006350" xlink:title="GO:0006350">
<ellipse fill="#dddddd" stroke="#dddddd" cx="910" cy="-90" rx="61.1934" ry="18"/>
<text text-anchor="middle" x="910" y="-85.8" font-family="Times,serif" font-size="14.00">GO:0006350</text>
</a>
</g>
<!-- m0&#45;&gt;v0 -->
<g id="edge56" class="edge"><title>m0&#45;&gt;v0</title>
<path fill="none" stroke="black" d="M862.15,-222.093C884.313,-214.283 908.857,-201.265 922,-180 933.534,-161.338 928.763,-136.303 922.127,-117.539"/>
<polygon fill="black" stroke="black" points="925.342,-116.151 918.452,-108.102 918.82,-118.691 925.342,-116.151"/>
</g>
<!-- l0 -->
<g id="node122" class="node"><title>l0</title>
<a xlink:href="0006259" xlink:title="GO:0006259 (15)">
<ellipse fill="#e98576" stroke="#e98576" cx="834" cy="-162" rx="79.4447" ry="18"/>
<text text-anchor="middle" x="834" y="-157.8" font-family="Times,serif" font-size="14.00">GO:0006259 (15)</text>
</a>
</g>
<!-- m0&#45;&gt;l0 -->
<g id="edge128" class="edge"><title>m0&#45;&gt;l0</title>
<path fill="none" stroke="black" d="M820.449,-215.697C822.455,-207.898 824.869,-198.509 827.101,-189.829"/>
<polygon fill="black" stroke="black" points="830.501,-190.661 829.602,-180.104 823.722,-188.918 830.501,-190.661"/>
</g>
<!-- w0 -->
<g id="node100" class="node"><title>w0</title>
<a xlink:href="0032774" xlink:title="GO:0032774">
<ellipse fill="#dddddd" stroke="#dddddd" cx="706" cy="-90" rx="61.1934" ry="18"/>
<text text-anchor="middle" x="706" y="-85.8" font-family="Times,serif" font-size="14.00">GO:0032774</text>
</a>
</g>
<!-- x0&#45;&gt;w0 -->
<g id="edge120" class="edge"><title>x0&#45;&gt;w0</title>
<path fill="none" stroke="black" d="M682.504,-144.055C686.031,-136.091 690.318,-126.411 694.26,-117.51"/>
<polygon fill="black" stroke="black" points="697.5,-118.836 698.35,-108.275 691.1,-116.002 697.5,-118.836"/>
</g>
<!-- p0 -->
<g id="node10" class="node"><title>p0</title>
<a xlink:href="0043283" xlink:title="GO:0043283">
<ellipse fill="#dddddd" stroke="#dddddd" cx="675" cy="-234" rx="61.1934" ry="18"/>
<text text-anchor="middle" x="675" y="-229.8" font-family="Times,serif" font-size="14.00">GO:0043283</text>
</a>
</g>
<!-- p0&#45;&gt;x0 -->
<g id="edge8" class="edge"><title>p0&#45;&gt;x0</title>
<path fill="none" stroke="black" d="M675,-215.697C675,-207.983 675,-198.712 675,-190.112"/>
<polygon fill="black" stroke="black" points="678.5,-190.104 675,-180.104 671.5,-190.104 678.5,-190.104"/>
</g>
<!-- d1 -->
<g id="node34" class="node"><title>d1</title>
<a xlink:href="0043412" xlink:title="GO:0043412">
<ellipse fill="#dddddd" stroke="#dddddd" cx="534" cy="-162" rx="61.1934" ry="18"/>
<text text-anchor="middle" x="534" y="-157.8" font-family="Times,serif" font-size="14.00">GO:0043412</text>
</a>
</g>
<!-- p0&#45;&gt;d1 -->
<g id="edge28" class="edge"><title>p0&#45;&gt;d1</title>
<path fill="none" stroke="black" d="M645.098,-218.155C624.067,-207.714 595.725,-193.644 572.931,-182.328"/>
<polygon fill="black" stroke="black" points="574.373,-179.136 563.859,-177.824 571.26,-185.405 574.373,-179.136"/>
</g>
<!-- p0&#45;&gt;l0 -->
<g id="edge130" class="edge"><title>p0&#45;&gt;l0</title>
<path fill="none" stroke="black" d="M707.56,-218.666C731.349,-208.192 763.876,-193.872 789.981,-182.379"/>
<polygon fill="black" stroke="black" points="791.538,-185.518 799.28,-178.285 788.718,-179.111 791.538,-185.518"/>
</g>
<!-- j0 -->
<g id="node12" class="node"><title>j0</title>
<a xlink:href="0008152" xlink:title="GO:0008152 (1)">
<ellipse fill="#e98576" stroke="#e98576" cx="830" cy="-378" rx="75.2018" ry="18"/>
<text text-anchor="middle" x="830" y="-373.8" font-family="Times,serif" font-size="14.00">GO:0008152 (1)</text>
</a>
</g>
<!-- j0&#45;&gt;n0 -->
<g id="edge88" class="edge"><title>j0&#45;&gt;n0</title>
<path fill="none" stroke="black" d="M902.341,-372.895C1085.38,-362.41 1557.43,-334.713 1628,-324 1633.7,-323.135 1639.62,-322.04 1645.49,-320.825"/>
<polygon fill="black" stroke="black" points="1646.27,-324.238 1655.29,-318.686 1644.78,-317.399 1646.27,-324.238"/>
</g>
<!-- h1 -->
<g id="node14" class="node"><title>h1</title>
<a xlink:href="0006807" xlink:title="GO:0006807 (1)">
<ellipse fill="#e98576" stroke="#e98576" cx="907" cy="-306" rx="75.2018" ry="18"/>
<text text-anchor="middle" x="907" y="-301.8" font-family="Times,serif" font-size="14.00">GO:0006807 (1)</text>
</a>
</g>
<!-- j0&#45;&gt;h1 -->
<g id="edge10" class="edge"><title>j0&#45;&gt;h1</title>
<path fill="none" stroke="black" d="M848.248,-360.411C858.125,-351.432 870.488,-340.193 881.322,-330.344"/>
<polygon fill="black" stroke="black" points="883.838,-332.787 888.883,-323.47 879.129,-327.607 883.838,-332.787"/>
</g>
<!-- y1 -->
<g id="node24" class="node"><title>y1</title>
<a xlink:href="0019748" xlink:title="GO:0019748">
<ellipse fill="#dddddd" stroke="#dddddd" cx="1062" cy="-306" rx="61.1934" ry="18"/>
<text text-anchor="middle" x="1062" y="-301.8" font-family="Times,serif" font-size="14.00">GO:0019748</text>
</a>
</g>
<!-- j0&#45;&gt;y1 -->
<g id="edge80" class="edge"><title>j0&#45;&gt;y1</title>
<path fill="none" stroke="black" d="M874.732,-363.503C913.779,-351.722 970.417,-334.633 1011.17,-322.337"/>
<polygon fill="black" stroke="black" points="1012.34,-325.638 1020.91,-319.399 1010.32,-318.937 1012.34,-325.638"/>
</g>
<!-- k0 -->
<g id="node35" class="node"><title>k0</title>
<a xlink:href="0043170" xlink:title="GO:0043170 (1)">
<ellipse fill="#e98576" stroke="#e98576" cx="534" cy="-306" rx="75.2018" ry="18"/>
<text text-anchor="middle" x="534" y="-301.8" font-family="Times,serif" font-size="14.00">GO:0043170 (1)</text>
</a>
</g>
<!-- j0&#45;&gt;k0 -->
<g id="edge134" class="edge"><title>j0&#45;&gt;k0</title>
<path fill="none" stroke="black" d="M778.441,-364.807C727.451,-352.749 649.411,-334.293 595.281,-321.492"/>
<polygon fill="black" stroke="black" points="596.001,-318.066 585.464,-319.171 594.39,-324.878 596.001,-318.066"/>
</g>
<!-- o0 -->
<g id="node70" class="node"><title>o0</title>
<a xlink:href="0044238" xlink:title="GO:0044238">
<ellipse fill="#dddddd" stroke="#dddddd" cx="752" cy="-306" rx="61.1934" ry="18"/>
<text text-anchor="middle" x="752" y="-301.8" font-family="Times,serif" font-size="14.00">GO:0044238</text>
</a>
</g>
<!-- j0&#45;&gt;o0 -->
<g id="edge142" class="edge"><title>j0&#45;&gt;o0</title>
<path fill="none" stroke="black" d="M811.515,-360.411C801.437,-351.367 788.804,-340.03 777.773,-330.13"/>
<polygon fill="black" stroke="black" points="779.863,-327.303 770.083,-323.228 775.188,-332.512 779.863,-327.303"/>
</g>
<!-- i0 -->
<g id="node73" class="node"><title>i0</title>
<a xlink:href="0009056" xlink:title="GO:0009056">
<ellipse fill="#dddddd" stroke="#dddddd" cx="306" cy="-306" rx="61.1934" ry="18"/>
<text text-anchor="middle" x="306" y="-301.8" font-family="Times,serif" font-size="14.00">GO:0009056</text>
</a>
</g>
<!-- j0&#45;&gt;i0 -->
<g id="edge66" class="edge"><title>j0&#45;&gt;i0</title>
<path fill="none" stroke="black" d="M766.271,-368.487C665.805,-355.066 471.667,-329.131 370.638,-315.635"/>
<polygon fill="black" stroke="black" points="370.942,-312.144 360.566,-314.289 370.015,-319.083 370.942,-312.144"/>
</g>
<!-- b2 -->
<g id="node85" class="node"><title>b2</title>
<a xlink:href="0006091" xlink:title="GO:0006091">
<ellipse fill="#dddddd" stroke="#dddddd" cx="120" cy="-306" rx="61.1934" ry="18"/>
<text text-anchor="middle" x="120" y="-301.8" font-family="Times,serif" font-size="14.00">GO:0006091</text>
</a>
</g>
<!-- j0&#45;&gt;b2 -->
<g id="edge78" class="edge"><title>j0&#45;&gt;b2</title>
<path fill="none" stroke="black" d="M759.004,-371.969C647.458,-363.772 424.425,-346.195 236,-324 218.595,-321.95 199.776,-319.356 182.463,-316.815"/>
<polygon fill="black" stroke="black" points="182.871,-313.338 172.465,-315.33 181.842,-320.262 182.871,-313.338"/>
</g>
<!-- d0 -->
<g id="node15" class="node"><title>d0</title>
<a xlink:href="0008150" xlink:title="GO:0008150">
<ellipse fill="#dddddd" stroke="#dddddd" cx="1835" cy="-450" rx="61.1934" ry="18"/>
<text text-anchor="middle" x="1835" y="-445.8" font-family="Times,serif" font-size="14.00">GO:0008150</text>
</a>
</g>
<!-- d0&#45;&gt;j0 -->
<g id="edge12" class="edge"><title>d0&#45;&gt;j0</title>
<path fill="none" stroke="black" d="M1776.25,-444.908C1605.29,-433 1107.71,-398.343 911.198,-384.656"/>
<polygon fill="black" stroke="black" points="911.161,-381.145 900.942,-383.941 910.675,-388.128 911.161,-381.145"/>
</g>
<!-- u1 -->
<g id="node18" class="node"><title>u1</title>
<a xlink:href="0051234" xlink:title="GO:0051234">
<ellipse fill="#dddddd" stroke="#dddddd" cx="1203" cy="-306" rx="61.1934" ry="18"/>
<text text-anchor="middle" x="1203" y="-301.8" font-family="Times,serif" font-size="14.00">GO:0051234</text>
</a>
</g>
<!-- d0&#45;&gt;u1 -->
<g id="edge14" class="edge"><title>d0&#45;&gt;u1</title>
<path fill="none" stroke="black" d="M1775.95,-445.042C1698.73,-438.95 1559.66,-424.824 1444,-396 1371.93,-378.039 1291.64,-345.785 1244.33,-325.433"/>
<polygon fill="black" stroke="black" points="1245.6,-322.17 1235.03,-321.405 1242.82,-328.592 1245.6,-322.17"/>
</g>
<!-- v1 -->
<g id="node19" class="node"><title>v1</title>
<a xlink:href="0051179" xlink:title="GO:0051179">
<ellipse fill="#dddddd" stroke="#dddddd" cx="1222" cy="-378" rx="61.1934" ry="18"/>
<text text-anchor="middle" x="1222" y="-373.8" font-family="Times,serif" font-size="14.00">GO:0051179</text>
</a>
</g>
<!-- d0&#45;&gt;v1 -->
<g id="edge74" class="edge"><title>d0&#45;&gt;v1</title>
<path fill="none" stroke="black" d="M1777.54,-443.733C1684.45,-435.015 1494.96,-416.501 1335,-396 1318.62,-393.901 1300.95,-391.37 1284.56,-388.91"/>
<polygon fill="black" stroke="black" points="1284.95,-385.429 1274.54,-387.392 1283.9,-392.35 1284.95,-385.429"/>
</g>
<!-- c0 -->
<g id="node21" class="node"><title>c0</title>
<a xlink:href="0032502" xlink:title="GO:0032502 (3)">
<ellipse fill="#e98576" stroke="#e98576" cx="1528" cy="-378" rx="75.2018" ry="18"/>
<text text-anchor="middle" x="1528" y="-373.8" font-family="Times,serif" font-size="14.00">GO:0032502 (3)</text>
</a>
</g>
<!-- d0&#45;&gt;c0 -->
<g id="edge140" class="edge"><title>d0&#45;&gt;c0</title>
<path fill="none" stroke="black" d="M1788.04,-438.292C1735.09,-426.218 1648.75,-406.533 1590.22,-393.187"/>
<polygon fill="black" stroke="black" points="1590.88,-389.748 1580.36,-390.938 1589.33,-396.573 1590.88,-389.748"/>
</g>
<!-- r0 -->
<g id="node39" class="node"><title>r0</title>
<a xlink:href="0065007" xlink:title="GO:0065007">
<ellipse fill="#dddddd" stroke="#dddddd" cx="1835" cy="-378" rx="61.1934" ry="18"/>
<text text-anchor="middle" x="1835" y="-373.8" font-family="Times,serif" font-size="14.00">GO:0065007</text>
</a>
</g>
<!-- d0&#45;&gt;r0 -->
<g id="edge84" class="edge"><title>d0&#45;&gt;r0</title>
<path fill="none" stroke="black" d="M1835,-431.697C1835,-423.983 1835,-414.712 1835,-406.112"/>
<polygon fill="black" stroke="black" points="1838.5,-406.104 1835,-396.104 1831.5,-406.104 1838.5,-406.104"/>
</g>
<!-- a1 -->
<g id="node53" class="node"><title>a1</title>
<a xlink:href="0032501" xlink:title="GO:0032501 (2)">
<ellipse fill="#e98576" stroke="#e98576" cx="2106" cy="-378" rx="75.2018" ry="18"/>
<text text-anchor="middle" x="2106" y="-373.8" font-family="Times,serif" font-size="14.00">GO:0032501 (2)</text>
</a>
</g>
<!-- d0&#45;&gt;a1 -->
<g id="edge112" class="edge"><title>d0&#45;&gt;a1</title>
<path fill="none" stroke="black" d="M1879.45,-437.519C1925.2,-425.701 1996.73,-407.225 2047.15,-394.201"/>
<polygon fill="black" stroke="black" points="2048.13,-397.562 2056.94,-391.672 2046.38,-390.784 2048.13,-397.562"/>
</g>
<!-- g0 -->
<g id="node63" class="node"><title>g0</title>
<a xlink:href="0009987" xlink:title="GO:0009987">
<ellipse fill="#dddddd" stroke="#dddddd" cx="2526" cy="-378" rx="61.1934" ry="18"/>
<text text-anchor="middle" x="2526" y="-373.8" font-family="Times,serif" font-size="14.00">GO:0009987</text>
</a>
</g>
<!-- d0&#45;&gt;g0 -->
<g id="edge116" class="edge"><title>d0&#45;&gt;g0</title>
<path fill="none" stroke="black" d="M1878.85,-437.263C1887.47,-435.265 1896.48,-433.389 1905,-432 2102.74,-399.745 2339.31,-386.423 2455.09,-381.52"/>
<polygon fill="black" stroke="black" points="2455.39,-385.01 2465.24,-381.098 2455.1,-378.016 2455.39,-385.01"/>
</g>
<!-- q1 -->
<g id="node67" class="node"><title>q1</title>
<a xlink:href="0048511" xlink:title="GO:0048511 (1)">
<ellipse fill="#e98576" stroke="#e98576" cx="2681" cy="-378" rx="75.2018" ry="18"/>
<text text-anchor="middle" x="2681" y="-373.8" font-family="Times,serif" font-size="14.00">GO:0048511 (1)</text>
</a>
</g>
<!-- d0&#45;&gt;q1 -->
<g id="edge60" class="edge"><title>d0&#45;&gt;q1</title>
<path fill="none" stroke="black" d="M1878.44,-437.123C1887.18,-435.111 1896.34,-433.266 1905,-432 2209.29,-387.52 2290.86,-434.257 2596,-396 2603.19,-395.099 2610.67,-393.936 2618.1,-392.641"/>
<polygon fill="black" stroke="black" points="2618.94,-396.046 2628.14,-390.807 2617.68,-389.16 2618.94,-396.046"/>
</g>
<!-- s0 -->
<g id="node91" class="node"><title>s0</title>
<a xlink:href="0050896" xlink:title="GO:0050896 (12)">
<ellipse fill="#e98576" stroke="#e98576" cx="2854" cy="-378" rx="79.4447" ry="18"/>
<text text-anchor="middle" x="2854" y="-373.8" font-family="Times,serif" font-size="14.00">GO:0050896 (12)</text>
</a>
</g>
<!-- d0&#45;&gt;s0 -->
<g id="edge86" class="edge"><title>d0&#45;&gt;s0</title>
<path fill="none" stroke="black" d="M1878.06,-437.139C1886.91,-435.099 1896.21,-433.239 1905,-432 2283.81,-378.602 2384.98,-440.006 2765,-396 2772.5,-395.132 2780.31,-393.992 2788.06,-392.713"/>
<polygon fill="black" stroke="black" points="2788.91,-396.117 2798.17,-390.962 2787.72,-389.219 2788.91,-396.117"/>
</g>
<!-- t1 -->
<g id="node28" class="node"><title>t1</title>
<a xlink:href="0006810" xlink:title="GO:0006810">
<ellipse fill="#dddddd" stroke="#dddddd" cx="1126" cy="-234" rx="61.1934" ry="18"/>
<text text-anchor="middle" x="1126" y="-229.8" font-family="Times,serif" font-size="14.00">GO:0006810</text>
</a>
</g>
<!-- u1&#45;&gt;t1 -->
<g id="edge54" class="edge"><title>u1&#45;&gt;t1</title>
<path fill="none" stroke="black" d="M1185.14,-288.765C1175.2,-279.73 1162.66,-268.326 1151.68,-258.349"/>
<polygon fill="black" stroke="black" points="1153.78,-255.527 1144.03,-251.39 1149.07,-260.706 1153.78,-255.527"/>
</g>
<!-- v1&#45;&gt;u1 -->
<g id="edge16" class="edge"><title>v1&#45;&gt;u1</title>
<path fill="none" stroke="black" d="M1217.3,-359.697C1215.19,-351.898 1212.64,-342.509 1210.28,-333.829"/>
<polygon fill="black" stroke="black" points="1213.64,-332.838 1207.64,-324.104 1206.88,-334.672 1213.64,-332.838"/>
</g>
<!-- b0 -->
<g id="node23" class="node"><title>b0</title>
<a xlink:href="0016265" xlink:title="GO:0016265 (17)">
<ellipse fill="#e98576" stroke="#e98576" cx="1362" cy="-306" rx="79.4447" ry="18"/>
<text text-anchor="middle" x="1362" y="-301.8" font-family="Times,serif" font-size="14.00">GO:0016265 (17)</text>
</a>
</g>
<!-- c0&#45;&gt;b0 -->
<g id="edge18" class="edge"><title>c0&#45;&gt;b0</title>
<path fill="none" stroke="black" d="M1492.39,-361.983C1467.53,-351.5 1434.14,-337.42 1407.37,-326.133"/>
<polygon fill="black" stroke="black" points="1408.41,-322.773 1397.84,-322.113 1405.69,-329.223 1408.41,-322.773"/>
</g>
<!-- y1&#45;&gt;x1 -->
<g id="edge20" class="edge"><title>y1&#45;&gt;x1</title>
<path fill="none" stroke="black" d="M1101.91,-292.242C1137.28,-280.936 1189.2,-264.343 1228.04,-251.929"/>
<polygon fill="black" stroke="black" points="1229.15,-255.248 1237.61,-248.869 1227.02,-248.58 1229.15,-255.248"/>
</g>
<!-- s1 -->
<g id="node30" class="node"><title>s1</title>
<a xlink:href="0006811" xlink:title="GO:0006811 (1)">
<ellipse fill="#e98576" stroke="#e98576" cx="1126" cy="-162" rx="75.2018" ry="18"/>
<text text-anchor="middle" x="1126" y="-157.8" font-family="Times,serif" font-size="14.00">GO:0006811 (1)</text>
</a>
</g>
<!-- t1&#45;&gt;s1 -->
<g id="edge24" class="edge"><title>t1&#45;&gt;s1</title>
<path fill="none" stroke="black" d="M1126,-215.697C1126,-207.983 1126,-198.712 1126,-190.112"/>
<polygon fill="black" stroke="black" points="1129.5,-190.104 1126,-180.104 1122.5,-190.104 1129.5,-190.104"/>
</g>
<!-- c1 -->
<g id="node106" class="node"><title>c1</title>
<a xlink:href="0006464" xlink:title="GO:0006464 (2)">
<ellipse fill="#e98576" stroke="#e98576" cx="488" cy="-90" rx="75.2018" ry="18"/>
<text text-anchor="middle" x="488" y="-85.8" font-family="Times,serif" font-size="14.00">GO:0006464 (2)</text>
</a>
</g>
<!-- d1&#45;&gt;c1 -->
<g id="edge106" class="edge"><title>d1&#45;&gt;c1</title>
<path fill="none" stroke="black" d="M522.865,-144.055C517.465,-135.837 510.863,-125.791 504.862,-116.66"/>
<polygon fill="black" stroke="black" points="507.769,-114.71 499.352,-108.275 501.919,-118.555 507.769,-114.71"/>
</g>
<!-- k0&#45;&gt;p0 -->
<g id="edge36" class="edge"><title>k0&#45;&gt;p0</title>
<path fill="none" stroke="black" d="M565.292,-289.465C586.164,-279.103 613.757,-265.404 636.049,-254.337"/>
<polygon fill="black" stroke="black" points="637.842,-257.355 645.243,-249.773 634.73,-251.085 637.842,-257.355"/>
</g>
<!-- k0&#45;&gt;g1 -->
<g id="edge30" class="edge"><title>k0&#45;&gt;g1</title>
<path fill="none" stroke="black" d="M534,-287.697C534,-279.983 534,-270.712 534,-262.112"/>
<polygon fill="black" stroke="black" points="537.5,-262.104 534,-252.104 530.5,-262.104 537.5,-262.104"/>
</g>
<!-- f1 -->
<g id="node69" class="node"><title>f1</title>
<a xlink:href="0019538" xlink:title="GO:0019538">
<ellipse fill="#dddddd" stroke="#dddddd" cx="393" cy="-234" rx="61.1934" ry="18"/>
<text text-anchor="middle" x="393" y="-229.8" font-family="Times,serif" font-size="14.00">GO:0019538</text>
</a>
</g>
<!-- k0&#45;&gt;f1 -->
<g id="edge62" class="edge"><title>k0&#45;&gt;f1</title>
<path fill="none" stroke="black" d="M502.708,-289.465C481.836,-279.103 454.243,-265.404 431.951,-254.337"/>
<polygon fill="black" stroke="black" points="433.27,-251.085 422.757,-249.773 430.158,-257.355 433.27,-251.085"/>
</g>
<!-- h0 -->
<g id="node119" class="node"><title>h0</title>
<a xlink:href="0009057" xlink:title="GO:0009057 (15)">
<ellipse fill="#e98576" stroke="#e98576" cx="234" cy="-234" rx="79.4447" ry="18"/>
<text text-anchor="middle" x="234" y="-229.8" font-family="Times,serif" font-size="14.00">GO:0009057 (15)</text>
</a>
</g>
<!-- k0&#45;&gt;h0 -->
<g id="edge126" class="edge"><title>k0&#45;&gt;h0</title>
<path fill="none" stroke="black" d="M482.086,-292.887C430.777,-280.915 352.2,-262.58 297.266,-249.762"/>
<polygon fill="black" stroke="black" points="297.829,-246.3 287.296,-247.436 296.239,-253.116 297.829,-246.3"/>
</g>
<!-- e1 -->
<g id="node107" class="node"><title>e1</title>
<a xlink:href="0044267" xlink:title="GO:0044267">
<ellipse fill="#dddddd" stroke="#dddddd" cx="393" cy="-162" rx="61.1934" ry="18"/>
<text text-anchor="middle" x="393" y="-157.8" font-family="Times,serif" font-size="14.00">GO:0044267</text>
</a>
</g>
<!-- g1&#45;&gt;e1 -->
<g id="edge138" class="edge"><title>g1&#45;&gt;e1</title>
<path fill="none" stroke="black" d="M504.098,-218.155C483.067,-207.714 454.725,-193.644 431.931,-182.328"/>
<polygon fill="black" stroke="black" points="433.373,-179.136 422.859,-177.824 430.26,-185.405 433.373,-179.136"/>
</g>
<!-- y0 -->
<g id="node41" class="node"><title>y0</title>
<a xlink:href="0065009" xlink:title="GO:0065009 (3)">
<ellipse fill="#e98576" stroke="#e98576" cx="1854" cy="-306" rx="75.2018" ry="18"/>
<text text-anchor="middle" x="1854" y="-301.8" font-family="Times,serif" font-size="14.00">GO:0065009 (3)</text>
</a>
</g>
<!-- r0&#45;&gt;y0 -->
<g id="edge34" class="edge"><title>r0&#45;&gt;y0</title>
<path fill="none" stroke="black" d="M1839.7,-359.697C1841.81,-351.898 1844.36,-342.509 1846.72,-333.829"/>
<polygon fill="black" stroke="black" points="1850.12,-334.672 1849.36,-324.104 1843.36,-332.838 1850.12,-334.672"/>
</g>
<!-- q0 -->
<g id="node44" class="node"><title>q0</title>
<a xlink:href="0050789" xlink:title="GO:0050789 (15)">
<ellipse fill="#e98576" stroke="#e98576" cx="1540" cy="-306" rx="79.4447" ry="18"/>
<text text-anchor="middle" x="1540" y="-301.8" font-family="Times,serif" font-size="14.00">GO:0050789 (15)</text>
</a>
</g>
<!-- r0&#45;&gt;q0 -->
<g id="edge38" class="edge"><title>r0&#45;&gt;q0</title>
<path fill="none" stroke="black" d="M1788.91,-366.062C1738.76,-354.165 1658.32,-335.076 1602.51,-321.834"/>
<polygon fill="black" stroke="black" points="1603.28,-318.418 1592.74,-319.515 1601.66,-325.229 1603.28,-318.418"/>
</g>
<!-- h2 -->
<g id="node55" class="node"><title>h2</title>
<a xlink:href="0050878" xlink:title="GO:0050878 (1)">
<ellipse fill="#e98576" stroke="#e98576" cx="2022" cy="-306" rx="75.2018" ry="18"/>
<text text-anchor="middle" x="2022" y="-301.8" font-family="Times,serif" font-size="14.00">GO:0050878 (1)</text>
</a>
</g>
<!-- a1&#45;&gt;h2 -->
<g id="edge48" class="edge"><title>a1&#45;&gt;h2</title>
<path fill="none" stroke="black" d="M2086.09,-360.411C2075.21,-351.345 2061.57,-339.974 2049.67,-330.057"/>
<polygon fill="black" stroke="black" points="2051.69,-327.183 2041.76,-323.47 2047.21,-332.561 2051.69,-327.183"/>
</g>
<!-- j2 -->
<g id="node88" class="node"><title>j2</title>
<a xlink:href="0030431" xlink:title="GO:0030431 (1)">
<ellipse fill="#e98576" stroke="#e98576" cx="2190" cy="-306" rx="75.2018" ry="18"/>
<text text-anchor="middle" x="2190" y="-301.8" font-family="Times,serif" font-size="14.00">GO:0030431 (1)</text>
</a>
</g>
<!-- a1&#45;&gt;j2 -->
<g id="edge82" class="edge"><title>a1&#45;&gt;j2</title>
<path fill="none" stroke="black" d="M2125.91,-360.411C2136.79,-351.345 2150.43,-339.974 2162.33,-330.057"/>
<polygon fill="black" stroke="black" points="2164.79,-332.561 2170.24,-323.47 2160.31,-327.183 2164.79,-332.561"/>
</g>
<!-- j1 -->
<g id="node95" class="node"><title>j1</title>
<a xlink:href="0050817" xlink:title="GO:0050817 (1)">
<ellipse fill="#e98576" stroke="#e98576" cx="2358" cy="-306" rx="75.2018" ry="18"/>
<text text-anchor="middle" x="2358" y="-301.8" font-family="Times,serif" font-size="14.00">GO:0050817 (1)</text>
</a>
</g>
<!-- a1&#45;&gt;j1 -->
<g id="edge92" class="edge"><title>a1&#45;&gt;j1</title>
<path fill="none" stroke="black" d="M2153.1,-363.916C2194.95,-352.29 2256.24,-335.267 2300.87,-322.868"/>
<polygon fill="black" stroke="black" points="2302,-326.188 2310.7,-320.139 2300.13,-319.443 2302,-326.188"/>
</g>
<!-- m1 -->
<g id="node56" class="node"><title>m1</title>
<a xlink:href="0006629" xlink:title="GO:0006629 (1)">
<ellipse fill="#e98576" stroke="#e98576" cx="971" cy="-234" rx="75.2018" ry="18"/>
<text text-anchor="middle" x="971" y="-229.8" font-family="Times,serif" font-size="14.00">GO:0006629 (1)</text>
</a>
</g>
<!-- m1&#45;&gt;d2 -->
<g id="edge50" class="edge"><title>m1&#45;&gt;d2</title>
<path fill="none" stroke="black" d="M1024.32,-221.179C1034.78,-219.188 1045.7,-217.337 1056,-216 1342.85,-178.765 1686.32,-167.59 1842.39,-164.315"/>
<polygon fill="black" stroke="black" points="1842.47,-167.814 1852.4,-164.11 1842.33,-160.816 1842.47,-167.814"/>
</g>
<!-- u0 -->
<g id="node99" class="node"><title>u0</title>
<a xlink:href="0006351" xlink:title="GO:0006351 (12)">
<ellipse fill="#e98576" stroke="#e98576" cx="808" cy="-18" rx="79.4447" ry="18"/>
<text text-anchor="middle" x="808" y="-13.8" font-family="Times,serif" font-size="14.00">GO:0006351 (12)</text>
</a>
</g>
<!-- v0&#45;&gt;u0 -->
<g id="edge96" class="edge"><title>v0&#45;&gt;u0</title>
<path fill="none" stroke="black" d="M887.109,-73.2906C873.361,-63.8558 855.65,-51.7011 840.473,-41.2852"/>
<polygon fill="black" stroke="black" points="842.104,-38.1597 831.878,-35.387 838.143,-43.9313 842.104,-38.1597"/>
</g>
<!-- g0&#45;&gt;n0 -->
<g id="edge90" class="edge"><title>g0&#45;&gt;n0</title>
<path fill="none" stroke="black" d="M2466.08,-374.08C2311.85,-366.36 1903.95,-344.587 1770,-324 1764.3,-323.124 1758.39,-322.023 1752.51,-320.804"/>
<polygon fill="black" stroke="black" points="1753.23,-317.378 1742.71,-318.661 1751.73,-324.216 1753.23,-317.378"/>
</g>
<!-- c2 -->
<g id="node65" class="node"><title>c2</title>
<a xlink:href="0001775" xlink:title="GO:0001775 (1)">
<ellipse fill="#e98576" stroke="#e98576" cx="3040" cy="-306" rx="75.2018" ry="18"/>
<text text-anchor="middle" x="3040" y="-301.8" font-family="Times,serif" font-size="14.00">GO:0001775 (1)</text>
</a>
</g>
<!-- g0&#45;&gt;c2 -->
<g id="edge58" class="edge"><title>g0&#45;&gt;c2</title>
<path fill="none" stroke="black" d="M2570.12,-365.462C2578.98,-363.422 2588.25,-361.48 2597,-360 2754.67,-333.321 2796.85,-347.709 2955,-324 2961.8,-322.981 2968.88,-321.784 2975.92,-320.505"/>
<polygon fill="black" stroke="black" points="2976.99,-323.865 2986.18,-318.584 2975.71,-316.985 2976.99,-323.865"/>
</g>
<!-- f0 -->
<g id="node74" class="node"><title>f0</title>
<a xlink:href="0016043" xlink:title="GO:0016043">
<ellipse fill="#dddddd" stroke="#dddddd" cx="3195" cy="-306" rx="61.1934" ry="18"/>
<text text-anchor="middle" x="3195" y="-301.8" font-family="Times,serif" font-size="14.00">GO:0016043</text>
</a>
</g>
<!-- g0&#45;&gt;f0 -->
<g id="edge122" class="edge"><title>g0&#45;&gt;f0</title>
<path fill="none" stroke="black" d="M2569.71,-365.327C2578.68,-363.272 2588.1,-361.359 2597,-360 2829.08,-324.543 2891.92,-359.457 3124,-324 3129.7,-323.129 3135.61,-322.031 3141.49,-320.814"/>
<polygon fill="black" stroke="black" points="3142.27,-324.227 3151.29,-318.673 3140.78,-317.388 3142.27,-324.227"/>
</g>
<!-- b1 -->
<g id="node77" class="node"><title>b1</title>
<a xlink:href="0007049" xlink:title="GO:0007049 (2)">
<ellipse fill="#e98576" stroke="#e98576" cx="2526" cy="-306" rx="75.2018" ry="18"/>
<text text-anchor="middle" x="2526" y="-301.8" font-family="Times,serif" font-size="14.00">GO:0007049 (2)</text>
</a>
</g>
<!-- g0&#45;&gt;b1 -->
<g id="edge70" class="edge"><title>g0&#45;&gt;b1</title>
<path fill="none" stroke="black" d="M2526,-359.697C2526,-351.983 2526,-342.712 2526,-334.112"/>
<polygon fill="black" stroke="black" points="2529.5,-334.104 2526,-324.104 2522.5,-334.104 2529.5,-334.104"/>
</g>
<!-- f2 -->
<g id="node97" class="node"><title>f2</title>
<a xlink:href="0051301" xlink:title="GO:0051301 (1)">
<ellipse fill="#e98576" stroke="#e98576" cx="2694" cy="-306" rx="75.2018" ry="18"/>
<text text-anchor="middle" x="2694" y="-301.8" font-family="Times,serif" font-size="14.00">GO:0051301 (1)</text>
</a>
</g>
<!-- g0&#45;&gt;f2 -->
<g id="edge94" class="edge"><title>g0&#45;&gt;f2</title>
<path fill="none" stroke="black" d="M2560,-362.834C2585.56,-352.185 2620.82,-337.49 2648.76,-325.848"/>
<polygon fill="black" stroke="black" points="2650.43,-328.946 2658.31,-321.869 2647.74,-322.485 2650.43,-328.946"/>
</g>
<!-- t0 -->
<g id="node115" class="node"><title>t0</title>
<a xlink:href="0007154" xlink:title="GO:0007154 (12)">
<ellipse fill="#e98576" stroke="#e98576" cx="2867" cy="-306" rx="79.4447" ry="18"/>
<text text-anchor="middle" x="2867" y="-301.8" font-family="Times,serif" font-size="14.00">GO:0007154 (12)</text>
</a>
</g>
<!-- g0&#45;&gt;t0 -->
<g id="edge118" class="edge"><title>g0&#45;&gt;t0</title>
<path fill="none" stroke="black" d="M2571.39,-365.839C2579.88,-363.833 2588.7,-361.807 2597,-360 2634.52,-351.83 2731.37,-333.023 2798.26,-320.159"/>
<polygon fill="black" stroke="black" points="2799.15,-323.552 2808.31,-318.227 2797.83,-316.678 2799.15,-323.552"/>
</g>
<!-- f1&#45;&gt;e1 -->
<g id="edge136" class="edge"><title>f1&#45;&gt;e1</title>
<path fill="none" stroke="black" d="M393,-215.697C393,-207.983 393,-198.712 393,-190.112"/>
<polygon fill="black" stroke="black" points="396.5,-190.104 393,-180.104 389.5,-190.104 396.5,-190.104"/>
</g>
<!-- o0&#45;&gt;m0 -->
<g id="edge104" class="edge"><title>o0&#45;&gt;m0</title>
<path fill="none" stroke="black" d="M767.167,-288.411C775.217,-279.606 785.254,-268.628 794.131,-258.919"/>
<polygon fill="black" stroke="black" points="796.777,-261.212 800.942,-251.47 791.611,-256.489 796.777,-261.212"/>
</g>
<!-- o0&#45;&gt;m1 -->
<g id="edge110" class="edge"><title>o0&#45;&gt;m1</title>
<path fill="none" stroke="black" d="M791.913,-292.242C827.285,-280.936 879.198,-264.343 918.035,-251.929"/>
<polygon fill="black" stroke="black" points="919.15,-255.248 927.609,-248.869 917.019,-248.58 919.15,-255.248"/>
</g>
<!-- o0&#45;&gt;f1 -->
<g id="edge64" class="edge"><title>o0&#45;&gt;f1</title>
<path fill="none" stroke="black" d="M700.071,-296.297C642.277,-286.413 546.193,-269.39 464,-252 458.937,-250.929 453.683,-249.767 448.428,-248.57"/>
<polygon fill="black" stroke="black" points="448.902,-245.088 438.37,-246.242 447.323,-251.907 448.902,-245.088"/>
</g>
<!-- i0&#45;&gt;h0 -->
<g id="edge124" class="edge"><title>i0&#45;&gt;h0</title>
<path fill="none" stroke="black" d="M288.937,-288.411C279.924,-279.648 268.696,-268.732 258.744,-259.057"/>
<polygon fill="black" stroke="black" points="261.05,-256.418 251.441,-251.956 256.171,-261.437 261.05,-256.418"/>
</g>
<!-- f0&#45;&gt;l1 -->
<g id="edge68" class="edge"><title>f0&#45;&gt;l1</title>
<path fill="none" stroke="black" d="M3176.45,-288.765C3166.02,-279.642 3152.83,-268.105 3141.35,-258.059"/>
<polygon fill="black" stroke="black" points="3143.56,-255.341 3133.73,-251.39 3138.95,-260.609 3143.56,-255.341"/>
</g>
<!-- e0 -->
<g id="node125" class="node"><title>e0</title>
<a xlink:href="0022411" xlink:title="GO:0022411 (15)">
<ellipse fill="#e98576" stroke="#e98576" cx="3274" cy="-234" rx="79.4447" ry="18"/>
<text text-anchor="middle" x="3274" y="-229.8" font-family="Times,serif" font-size="14.00">GO:0022411 (15)</text>
</a>
</g>
<!-- f0&#45;&gt;e0 -->
<g id="edge132" class="edge"><title>f0&#45;&gt;e0</title>
<path fill="none" stroke="black" d="M3213.32,-288.765C3223.54,-279.708 3236.45,-268.27 3247.73,-258.276"/>
<polygon fill="black" stroke="black" points="3250.06,-260.885 3255.23,-251.633 3245.42,-255.646 3250.06,-260.885"/>
</g>
<!-- a2 -->
<g id="node78" class="node"><title>a2</title>
<a xlink:href="0015980" xlink:title="GO:0015980">
<ellipse fill="#dddddd" stroke="#dddddd" cx="75" cy="-234" rx="61.1934" ry="18"/>
<text text-anchor="middle" x="75" y="-229.8" font-family="Times,serif" font-size="14.00">GO:0015980</text>
</a>
</g>
<!-- z1 -->
<g id="node80" class="node"><title>z1</title>
<a xlink:href="0045333" xlink:title="GO:0045333 (1)">
<ellipse fill="#e98576" stroke="#e98576" cx="75" cy="-162" rx="75.2018" ry="18"/>
<text text-anchor="middle" x="75" y="-157.8" font-family="Times,serif" font-size="14.00">GO:0045333 (1)</text>
</a>
</g>
<!-- a2&#45;&gt;z1 -->
<g id="edge72" class="edge"><title>a2&#45;&gt;z1</title>
<path fill="none" stroke="black" d="M75,-215.697C75,-207.983 75,-198.712 75,-190.112"/>
<polygon fill="black" stroke="black" points="78.5001,-190.104 75,-180.104 71.5001,-190.104 78.5001,-190.104"/>
</g>
<!-- b2&#45;&gt;a2 -->
<g id="edge100" class="edge"><title>b2&#45;&gt;a2</title>
<path fill="none" stroke="black" d="M109.107,-288.055C103.745,-279.715 97.1726,-269.491 91.2332,-260.252"/>
<polygon fill="black" stroke="black" points="94.1447,-258.308 85.7929,-251.789 88.2564,-262.093 94.1447,-258.308"/>
</g>
<!-- w0&#45;&gt;u0 -->
<g id="edge98" class="edge"><title>w0&#45;&gt;u0</title>
<path fill="none" stroke="black" d="M728.891,-73.2906C742.639,-63.8558 760.35,-51.7011 775.527,-41.2852"/>
<polygon fill="black" stroke="black" points="777.857,-43.9313 784.122,-35.387 773.896,-38.1597 777.857,-43.9313"/>
</g>
<!-- e1&#45;&gt;c1 -->
<g id="edge108" class="edge"><title>e1&#45;&gt;c1</title>
<path fill="none" stroke="black" d="M414.557,-145.116C427.251,-135.763 443.51,-123.782 457.502,-113.472"/>
<polygon fill="black" stroke="black" points="459.895,-116.057 465.869,-107.307 455.742,-110.421 459.895,-116.057"/>
</g>
<!-- a0 -->
<g id="node131" class="node"><title>a0</title>
<a xlink:href="0055114" xlink:title="GO:0055114 (35)">
<ellipse fill="#e98576" stroke="#e98576" cx="1994" cy="-450" rx="79.4447" ry="18"/>
<text text-anchor="middle" x="1994" y="-445.8" font-family="Times,serif" font-size="14.00">GO:0055114 (35)</text>
</a>
</g>
<!-- e2 -->
<g id="node132" class="node"><title>e2</title>
<a xlink:href="0022900" xlink:title="GO:0022900 (1)">
<ellipse fill="#e98576" stroke="#e98576" cx="2167" cy="-450" rx="75.2018" ry="18"/>
<text text-anchor="middle" x="2167" y="-445.8" font-family="Times,serif" font-size="14.00">GO:0022900 (1)</text>
</a>
</g>
<!-- n1 -->
<g id="node133" class="node"><title>n1</title>
<a xlink:href="0061024" xlink:title="GO:0061024 (1)">
<ellipse fill="#e98576" stroke="#e98576" cx="2335" cy="-450" rx="75.2018" ry="18"/>
<text text-anchor="middle" x="2335" y="-445.8" font-family="Times,serif" font-size="14.00">GO:0061024 (1)</text>
</a>
</g>
</g>
</svg>
