<?xml version="1.0" encoding="UTF-8" standalone="no"?>
<!DOCTYPE svg PUBLIC "-//W3C//DTD SVG 1.1//EN"
 "http://www.w3.org/Graphics/SVG/1.1/DTD/svg11.dtd">
<!-- Generated by graphviz version 2.28.0 (20110622.2320)
 -->
<!-- Title: G Pages: 1 -->
<svg width="1838pt" height="188pt"
 viewBox="0.00 0.00 1838.00 188.00" xmlns="http://www.w3.org/2000/svg" xmlns:xlink="http://www.w3.org/1999/xlink">
<g id="graph1" class="graph" transform="scale(1 1) rotate(0) translate(4 184)">
<title>G</title>
<polygon fill="white" stroke="white" points="-4,5 -4,-184 1835,-184 1835,5 -4,5"/>
<!-- b0 -->
<g id="node1" class="node"><title>b0</title>
<a xlink:href="0005488" xlink:title="GO:0005488">
<ellipse fill="#dddddd" stroke="#dddddd" cx="663" cy="-90" rx="61.1934" ry="18"/>
<text text-anchor="middle" x="663" y="-85.8" font-family="Times,serif" font-size="14.00">GO:0005488</text>
</a>
</g>
<!-- f0 -->
<g id="node3" class="node"><title>f0</title>
<a xlink:href="0043167" xlink:title="GO:0043167 (5)">
<ellipse fill="#e98576" stroke="#e98576" cx="75" cy="-18" rx="75.2018" ry="18"/>
<text text-anchor="middle" x="75" y="-13.8" font-family="Times,serif" font-size="14.00">GO:0043167 (5)</text>
</a>
</g>
<!-- b0&#45;&gt;f0 -->
<g id="edge2" class="edge"><title>b0&#45;&gt;f0</title>
<path fill="none" stroke="black" d="M604.181,-84.6368C509.893,-77.2338 319.233,-60.5823 159,-36 152.38,-34.9843 145.49,-33.8002 138.631,-32.5383"/>
<polygon fill="black" stroke="black" points="139.115,-29.0678 128.638,-30.6443 137.811,-35.9453 139.115,-29.0678"/>
</g>
<!-- o0 -->
<g id="node10" class="node"><title>o0</title>
<a xlink:href="0030246" xlink:title="GO:0030246 (1)">
<ellipse fill="#e98576" stroke="#e98576" cx="243" cy="-18" rx="75.2018" ry="18"/>
<text text-anchor="middle" x="243" y="-13.8" font-family="Times,serif" font-size="14.00">GO:0030246 (1)</text>
</a>
</g>
<!-- b0&#45;&gt;o0 -->
<g id="edge8" class="edge"><title>b0&#45;&gt;o0</title>
<path fill="none" stroke="black" d="M609.342,-81.267C542.916,-71.5257 426.387,-53.8869 327,-36 320.754,-34.8758 314.257,-33.6543 307.766,-32.399"/>
<polygon fill="black" stroke="black" points="308.095,-28.897 297.608,-30.4079 306.748,-35.7663 308.095,-28.897"/>
</g>
<!-- l0 -->
<g id="node12" class="node"><title>l0</title>
<a xlink:href="0005515" xlink:title="GO:0005515 (1)">
<ellipse fill="#e98576" stroke="#e98576" cx="411" cy="-18" rx="75.2018" ry="18"/>
<text text-anchor="middle" x="411" y="-13.8" font-family="Times,serif" font-size="14.00">GO:0005515 (1)</text>
</a>
</g>
<!-- b0&#45;&gt;l0 -->
<g id="edge10" class="edge"><title>b0&#45;&gt;l0</title>
<path fill="none" stroke="black" d="M619.966,-77.0461C578.057,-65.4048 514.105,-47.6401 467.988,-34.83"/>
<polygon fill="black" stroke="black" points="468.713,-31.3988 458.141,-32.0946 466.839,-38.1434 468.713,-31.3988"/>
</g>
<!-- i0 -->
<g id="node14" class="node"><title>i0</title>
<a xlink:href="0001882" xlink:title="GO:0001882 (2)">
<ellipse fill="#e98576" stroke="#e98576" cx="579" cy="-18" rx="75.2018" ry="18"/>
<text text-anchor="middle" x="579" y="-13.8" font-family="Times,serif" font-size="14.00">GO:0001882 (2)</text>
</a>
</g>
<!-- b0&#45;&gt;i0 -->
<g id="edge12" class="edge"><title>b0&#45;&gt;i0</title>
<path fill="none" stroke="black" d="M643.518,-72.7646C632.57,-63.642 618.725,-52.1046 606.67,-42.0585"/>
<polygon fill="black" stroke="black" points="608.591,-39.1029 598.668,-35.3898 604.109,-44.4805 608.591,-39.1029"/>
</g>
<!-- a0 -->
<g id="node18" class="node"><title>a0</title>
<a xlink:href="0003676" xlink:title="GO:0003676 (7)">
<ellipse fill="#e98576" stroke="#e98576" cx="747" cy="-18" rx="75.2018" ry="18"/>
<text text-anchor="middle" x="747" y="-13.8" font-family="Times,serif" font-size="14.00">GO:0003676 (7)</text>
</a>
</g>
<!-- b0&#45;&gt;a0 -->
<g id="edge16" class="edge"><title>b0&#45;&gt;a0</title>
<path fill="none" stroke="black" d="M682.482,-72.7646C693.43,-63.642 707.275,-52.1046 719.33,-42.0585"/>
<polygon fill="black" stroke="black" points="721.891,-44.4805 727.332,-35.3898 717.409,-39.1029 721.891,-44.4805"/>
</g>
<!-- j0 -->
<g id="node23" class="node"><title>j0</title>
<a xlink:href="0000166" xlink:title="GO:0000166 (2)">
<ellipse fill="#e98576" stroke="#e98576" cx="915" cy="-18" rx="75.2018" ry="18"/>
<text text-anchor="middle" x="915" y="-13.8" font-family="Times,serif" font-size="14.00">GO:0000166 (2)</text>
</a>
</g>
<!-- b0&#45;&gt;j0 -->
<g id="edge22" class="edge"><title>b0&#45;&gt;j0</title>
<path fill="none" stroke="black" d="M706.034,-77.0461C747.943,-65.4048 811.895,-47.6401 858.012,-34.83"/>
<polygon fill="black" stroke="black" points="859.161,-38.1434 867.859,-32.0946 857.287,-31.3988 859.161,-38.1434"/>
</g>
<!-- n0 -->
<g id="node29" class="node"><title>n0</title>
<a xlink:href="0048037" xlink:title="GO:0048037 (1)">
<ellipse fill="#e98576" stroke="#e98576" cx="1083" cy="-18" rx="75.2018" ry="18"/>
<text text-anchor="middle" x="1083" y="-13.8" font-family="Times,serif" font-size="14.00">GO:0048037 (1)</text>
</a>
</g>
<!-- b0&#45;&gt;n0 -->
<g id="edge28" class="edge"><title>b0&#45;&gt;n0</title>
<path fill="none" stroke="black" d="M716.658,-81.267C783.084,-71.5257 899.613,-53.8869 999,-36 1005.25,-34.8758 1011.74,-33.6543 1018.23,-32.399"/>
<polygon fill="black" stroke="black" points="1019.25,-35.7663 1028.39,-30.4079 1017.9,-28.897 1019.25,-35.7663"/>
</g>
<!-- e0 -->
<g id="node4" class="node"><title>e0</title>
<a xlink:href="0003824" xlink:title="GO:0003824 (3)">
<ellipse fill="#e98576" stroke="#e98576" cx="1419" cy="-90" rx="75.2018" ry="18"/>
<text text-anchor="middle" x="1419" y="-85.8" font-family="Times,serif" font-size="14.00">GO:0003824 (3)</text>
</a>
</g>
<!-- g0 -->
<g id="node6" class="node"><title>g0</title>
<a xlink:href="0016787" xlink:title="GO:0016787 (3)">
<ellipse fill="#e98576" stroke="#e98576" cx="1251" cy="-18" rx="75.2018" ry="18"/>
<text text-anchor="middle" x="1251" y="-13.8" font-family="Times,serif" font-size="14.00">GO:0016787 (3)</text>
</a>
</g>
<!-- e0&#45;&gt;g0 -->
<g id="edge4" class="edge"><title>e0&#45;&gt;g0</title>
<path fill="none" stroke="black" d="M1383.37,-74.1548C1357.95,-63.5644 1323.57,-49.2392 1296.22,-37.8424"/>
<polygon fill="black" stroke="black" points="1297.44,-34.5597 1286.87,-33.9443 1294.75,-41.0213 1297.44,-34.5597"/>
</g>
<!-- d0 -->
<g id="node16" class="node"><title>d0</title>
<a xlink:href="0016740" xlink:title="GO:0016740 (6)">
<ellipse fill="#e98576" stroke="#e98576" cx="1419" cy="-18" rx="75.2018" ry="18"/>
<text text-anchor="middle" x="1419" y="-13.8" font-family="Times,serif" font-size="14.00">GO:0016740 (6)</text>
</a>
</g>
<!-- e0&#45;&gt;d0 -->
<g id="edge14" class="edge"><title>e0&#45;&gt;d0</title>
<path fill="none" stroke="black" d="M1419,-71.6966C1419,-63.9827 1419,-54.7125 1419,-46.1124"/>
<polygon fill="black" stroke="black" points="1422.5,-46.1043 1419,-36.1043 1415.5,-46.1044 1422.5,-46.1043"/>
</g>
<!-- k0 -->
<g id="node25" class="node"><title>k0</title>
<a xlink:href="0004386" xlink:title="GO:0004386 (1)">
<ellipse fill="#e98576" stroke="#e98576" cx="1587" cy="-18" rx="75.2018" ry="18"/>
<text text-anchor="middle" x="1587" y="-13.8" font-family="Times,serif" font-size="14.00">GO:0004386 (1)</text>
</a>
</g>
<!-- e0&#45;&gt;k0 -->
<g id="edge24" class="edge"><title>e0&#45;&gt;k0</title>
<path fill="none" stroke="black" d="M1454.63,-74.1548C1480.05,-63.5644 1514.43,-49.2392 1541.78,-37.8424"/>
<polygon fill="black" stroke="black" points="1543.25,-41.0213 1551.13,-33.9443 1540.56,-34.5597 1543.25,-41.0213"/>
</g>
<!-- h0 -->
<g id="node27" class="node"><title>h0</title>
<a xlink:href="0016829" xlink:title="GO:0016829 (2)">
<ellipse fill="#e98576" stroke="#e98576" cx="1755" cy="-18" rx="75.2018" ry="18"/>
<text text-anchor="middle" x="1755" y="-13.8" font-family="Times,serif" font-size="14.00">GO:0016829 (2)</text>
</a>
</g>
<!-- e0&#45;&gt;h0 -->
<g id="edge26" class="edge"><title>e0&#45;&gt;h0</title>
<path fill="none" stroke="black" d="M1473.73,-77.5975C1533.04,-65.2416 1627.6,-45.5414 1690.48,-32.4413"/>
<polygon fill="black" stroke="black" points="1691.22,-35.8637 1700.29,-30.3976 1689.79,-29.0108 1691.22,-35.8637"/>
</g>
<!-- c0 -->
<g id="node7" class="node"><title>c0</title>
<a xlink:href="0003674" xlink:title="GO:0003674">
<ellipse fill="#dddddd" stroke="#dddddd" cx="1419" cy="-162" rx="61.1934" ry="18"/>
<text text-anchor="middle" x="1419" y="-157.8" font-family="Times,serif" font-size="14.00">GO:0003674</text>
</a>
</g>
<!-- c0&#45;&gt;b0 -->
<g id="edge20" class="edge"><title>c0&#45;&gt;b0</title>
<path fill="none" stroke="black" d="M1361.56,-155.681C1224.26,-142.969 877.612,-110.872 730.591,-97.2584"/>
<polygon fill="black" stroke="black" points="730.636,-93.7477 720.356,-96.3107 729.991,-100.718 730.636,-93.7477"/>
</g>
<!-- c0&#45;&gt;e0 -->
<g id="edge6" class="edge"><title>c0&#45;&gt;e0</title>
<path fill="none" stroke="black" d="M1419,-143.697C1419,-135.983 1419,-126.712 1419,-118.112"/>
<polygon fill="black" stroke="black" points="1422.5,-118.104 1419,-108.104 1415.5,-118.104 1422.5,-118.104"/>
</g>
<!-- m0 -->
<g id="node20" class="node"><title>m0</title>
<a xlink:href="0003774" xlink:title="GO:0003774 (1)">
<ellipse fill="#e98576" stroke="#e98576" cx="1587" cy="-90" rx="75.2018" ry="18"/>
<text text-anchor="middle" x="1587" y="-85.8" font-family="Times,serif" font-size="14.00">GO:0003774 (1)</text>
</a>
</g>
<!-- c0&#45;&gt;m0 -->
<g id="edge18" class="edge"><title>c0&#45;&gt;m0</title>
<path fill="none" stroke="black" d="M1453,-146.834C1478.56,-136.185 1513.82,-121.49 1541.76,-109.848"/>
<polygon fill="black" stroke="black" points="1543.43,-112.946 1551.31,-105.869 1540.74,-106.485 1543.43,-112.946"/>
</g>
</g>
</svg>
