<?xml version="1.0" encoding="UTF-8" standalone="no"?>
<!DOCTYPE svg PUBLIC "-//W3C//DTD SVG 1.1//EN"
 "http://www.w3.org/Graphics/SVG/1.1/DTD/svg11.dtd">
<!-- Generated by graphviz version 2.28.0 (20110622.2320)
 -->
<!-- Title: G Pages: 1 -->
<svg width="662pt" height="188pt"
 viewBox="0.00 0.00 662.00 188.00" xmlns="http://www.w3.org/2000/svg" xmlns:xlink="http://www.w3.org/1999/xlink">
<g id="graph1" class="graph" transform="scale(1 1) rotate(0) translate(4 184)">
<title>G</title>
<polygon fill="white" stroke="white" points="-4,5 -4,-184 659,-184 659,5 -4,5"/>
<!-- b0 -->
<g id="node1" class="node"><title>b0</title>
<a xlink:href="0005488" xlink:title="GO:0005488">
<ellipse fill="#dddddd" stroke="#dddddd" cx="288" cy="-90" rx="61.1934" ry="18"/>
<text text-anchor="middle" x="288" y="-85.8" font-family="Times,serif" font-size="14.00">GO:0005488</text>
</a>
</g>
<!-- d0 -->
<g id="node3" class="node"><title>d0</title>
<a xlink:href="0043167" xlink:title="GO:0043167 (3)">
<ellipse fill="#e98576" stroke="#e98576" cx="75" cy="-18" rx="75.2018" ry="18"/>
<text text-anchor="middle" x="75" y="-13.8" font-family="Times,serif" font-size="14.00">GO:0043167 (3)</text>
</a>
</g>
<!-- b0&#45;&gt;d0 -->
<g id="edge2" class="edge"><title>b0&#45;&gt;d0</title>
<path fill="none" stroke="black" d="M248.436,-75.9976C214.199,-64.7462 164.443,-48.3945 126.995,-36.0877"/>
<polygon fill="black" stroke="black" points="127.864,-32.689 117.271,-32.8918 125.678,-39.3391 127.864,-32.689"/>
</g>
<!-- g0 -->
<g id="node11" class="node"><title>g0</title>
<a xlink:href="0005515" xlink:title="GO:0005515 (1)">
<ellipse fill="#e98576" stroke="#e98576" cx="243" cy="-18" rx="75.2018" ry="18"/>
<text text-anchor="middle" x="243" y="-13.8" font-family="Times,serif" font-size="14.00">GO:0005515 (1)</text>
</a>
</g>
<!-- b0&#45;&gt;g0 -->
<g id="edge10" class="edge"><title>b0&#45;&gt;g0</title>
<path fill="none" stroke="black" d="M277.107,-72.055C271.878,-63.922 265.499,-53.998 259.677,-44.9426"/>
<polygon fill="black" stroke="black" points="262.457,-42.7944 254.106,-36.2753 256.569,-46.5798 262.457,-42.7944"/>
</g>
<!-- a0 -->
<g id="node13" class="node"><title>a0</title>
<a xlink:href="0051540" xlink:title="GO:0051540 (3)">
<ellipse fill="#e98576" stroke="#e98576" cx="411" cy="-18" rx="75.2018" ry="18"/>
<text text-anchor="middle" x="411" y="-13.8" font-family="Times,serif" font-size="14.00">GO:0051540 (3)</text>
</a>
</g>
<!-- b0&#45;&gt;a0 -->
<g id="edge12" class="edge"><title>b0&#45;&gt;a0</title>
<path fill="none" stroke="black" d="M314.993,-73.6382C332.453,-63.7017 355.399,-50.6429 374.48,-39.7837"/>
<polygon fill="black" stroke="black" points="376.258,-42.7991 383.218,-34.811 372.796,-36.7153 376.258,-42.7991"/>
</g>
<!-- f0 -->
<g id="node4" class="node"><title>f0</title>
<a xlink:href="0003824" xlink:title="GO:0003824 (3)">
<ellipse fill="#e98576" stroke="#e98576" cx="533" cy="-90" rx="75.2018" ry="18"/>
<text text-anchor="middle" x="533" y="-85.8" font-family="Times,serif" font-size="14.00">GO:0003824 (3)</text>
</a>
</g>
<!-- e0 -->
<g id="node6" class="node"><title>e0</title>
<a xlink:href="0016491" xlink:title="GO:0016491 (3)">
<ellipse fill="#e98576" stroke="#e98576" cx="579" cy="-18" rx="75.2018" ry="18"/>
<text text-anchor="middle" x="579" y="-13.8" font-family="Times,serif" font-size="14.00">GO:0016491 (3)</text>
</a>
</g>
<!-- f0&#45;&gt;e0 -->
<g id="edge4" class="edge"><title>f0&#45;&gt;e0</title>
<path fill="none" stroke="black" d="M544.135,-72.055C549.535,-63.8373 556.137,-53.7911 562.138,-44.6599"/>
<polygon fill="black" stroke="black" points="565.081,-46.5545 567.648,-36.2753 559.231,-42.7102 565.081,-46.5545"/>
</g>
<!-- c0 -->
<g id="node7" class="node"><title>c0</title>
<a xlink:href="0003674" xlink:title="GO:0003674">
<ellipse fill="#dddddd" stroke="#dddddd" cx="410" cy="-162" rx="61.1934" ry="18"/>
<text text-anchor="middle" x="410" y="-157.8" font-family="Times,serif" font-size="14.00">GO:0003674</text>
</a>
</g>
<!-- c0&#45;&gt;b0 -->
<g id="edge6" class="edge"><title>c0&#45;&gt;b0</title>
<path fill="none" stroke="black" d="M383.227,-145.638C365.666,-135.563 342.511,-122.277 323.431,-111.329"/>
<polygon fill="black" stroke="black" points="325.127,-108.267 314.711,-106.326 321.643,-114.338 325.127,-108.267"/>
</g>
<!-- c0&#45;&gt;f0 -->
<g id="edge8" class="edge"><title>c0&#45;&gt;f0</title>
<path fill="none" stroke="black" d="M436.993,-145.638C454.453,-135.702 477.399,-122.643 496.48,-111.784"/>
<polygon fill="black" stroke="black" points="498.258,-114.799 505.218,-106.811 494.796,-108.715 498.258,-114.799"/>
</g>
</g>
</svg>
