<?xml version="1.0" encoding="UTF-8" standalone="no"?>
<!DOCTYPE svg PUBLIC "-//W3C//DTD SVG 1.1//EN"
 "http://www.w3.org/Graphics/SVG/1.1/DTD/svg11.dtd">
<!-- Generated by graphviz version 2.28.0 (20110622.2320)
 -->
<!-- Title: G Pages: 1 -->
<svg width="2694pt" height="404pt"
 viewBox="0.00 0.00 2694.00 404.00" xmlns="http://www.w3.org/2000/svg" xmlns:xlink="http://www.w3.org/1999/xlink">
<g id="graph1" class="graph" transform="scale(1 1) rotate(0) translate(4 400)">
<title>G</title>
<polygon fill="white" stroke="white" points="-4,5 -4,-400 2691,-400 2691,5 -4,5"/>
<!-- j0 -->
<g id="node1" class="node"><title>j0</title>
<a xlink:href="0044267" xlink:title="GO:0044267">
<ellipse fill="#dddddd" stroke="#dddddd" cx="377" cy="-90" rx="61.1934" ry="18"/>
<text text-anchor="middle" x="377" y="-85.8" font-family="Times,serif" font-size="14.00">GO:0044267</text>
</a>
</g>
<!-- h1 -->
<g id="node3" class="node"><title>h1</title>
<a xlink:href="0006457" xlink:title="GO:0006457 (1)">
<ellipse fill="#e98576" stroke="#e98576" cx="377" cy="-18" rx="75.2018" ry="18"/>
<text text-anchor="middle" x="377" y="-13.8" font-family="Times,serif" font-size="14.00">GO:0006457 (1)</text>
</a>
</g>
<!-- j0&#45;&gt;h1 -->
<g id="edge2" class="edge"><title>j0&#45;&gt;h1</title>
<path fill="none" stroke="black" d="M377,-71.6966C377,-63.9827 377,-54.7125 377,-46.1124"/>
<polygon fill="black" stroke="black" points="380.5,-46.1043 377,-36.1043 373.5,-46.1044 380.5,-46.1043"/>
</g>
<!-- a0 -->
<g id="node60" class="node"><title>a0</title>
<a xlink:href="0006412" xlink:title="GO:0006412 (5)">
<ellipse fill="#e98576" stroke="#e98576" cx="653" cy="-18" rx="75.2018" ry="18"/>
<text text-anchor="middle" x="653" y="-13.8" font-family="Times,serif" font-size="14.00">GO:0006412 (5)</text>
</a>
</g>
<!-- j0&#45;&gt;a0 -->
<g id="edge60" class="edge"><title>j0&#45;&gt;a0</title>
<path fill="none" stroke="black" d="M421.651,-77.6755C468.279,-65.8495 541.674,-47.2348 593.266,-34.1499"/>
<polygon fill="black" stroke="black" points="594.447,-37.4614 603.279,-31.6103 592.726,-30.6762 594.447,-37.4614"/>
</g>
<!-- a1 -->
<g id="node97" class="node"><title>a1</title>
<a xlink:href="0006464" xlink:title="GO:0006464 (2)">
<ellipse fill="#e98576" stroke="#e98576" cx="172" cy="-18" rx="75.2018" ry="18"/>
<text text-anchor="middle" x="172" y="-13.8" font-family="Times,serif" font-size="14.00">GO:0006464 (2)</text>
</a>
</g>
<!-- j0&#45;&gt;a1 -->
<g id="edge110" class="edge"><title>j0&#45;&gt;a1</title>
<path fill="none" stroke="black" d="M338.441,-75.8335C305.788,-64.6837 258.721,-48.612 222.964,-36.4023"/>
<polygon fill="black" stroke="black" points="223.794,-32.9875 213.2,-33.0682 221.532,-39.6119 223.794,-32.9875"/>
</g>
<!-- h0 -->
<g id="node4" class="node"><title>h0</title>
<a xlink:href="0044237" xlink:title="GO:0044237">
<ellipse fill="#dddddd" stroke="#dddddd" cx="1358" cy="-234" rx="61.1934" ry="18"/>
<text text-anchor="middle" x="1358" y="-229.8" font-family="Times,serif" font-size="14.00">GO:0044237</text>
</a>
</g>
<!-- w0 -->
<g id="node6" class="node"><title>w0</title>
<a xlink:href="0006082" xlink:title="GO:0006082 (1)">
<ellipse fill="#e98576" stroke="#e98576" cx="1372" cy="-162" rx="75.2018" ry="18"/>
<text text-anchor="middle" x="1372" y="-157.8" font-family="Times,serif" font-size="14.00">GO:0006082 (1)</text>
</a>
</g>
<!-- h0&#45;&gt;w0 -->
<g id="edge4" class="edge"><title>h0&#45;&gt;w0</title>
<path fill="none" stroke="black" d="M1361.46,-215.697C1363,-207.983 1364.86,-198.712 1366.58,-190.112"/>
<polygon fill="black" stroke="black" points="1370.05,-190.597 1368.58,-180.104 1363.19,-189.224 1370.05,-190.597"/>
</g>
<!-- o0 -->
<g id="node7" class="node"><title>o0</title>
<a xlink:href="0006139" xlink:title="GO:0006139">
<ellipse fill="#dddddd" stroke="#dddddd" cx="794" cy="-162" rx="61.1934" ry="18"/>
<text text-anchor="middle" x="794" y="-157.8" font-family="Times,serif" font-size="14.00">GO:0006139</text>
</a>
</g>
<!-- h0&#45;&gt;o0 -->
<g id="edge104" class="edge"><title>h0&#45;&gt;o0</title>
<path fill="none" stroke="black" d="M1313.89,-221.357C1305.04,-219.326 1295.76,-217.414 1287,-216 1101.17,-186 1050.83,-210 865,-180 859.526,-179.116 853.849,-178.038 848.198,-176.858"/>
<polygon fill="black" stroke="black" points="848.624,-173.368 838.106,-174.643 847.123,-180.205 848.624,-173.368"/>
</g>
<!-- s0 -->
<g id="node12" class="node"><title>s0</title>
<a xlink:href="0006519" xlink:title="GO:0006519">
<ellipse fill="#dddddd" stroke="#dddddd" cx="935" cy="-162" rx="61.1934" ry="18"/>
<text text-anchor="middle" x="935" y="-157.8" font-family="Times,serif" font-size="14.00">GO:0006519</text>
</a>
</g>
<!-- h0&#45;&gt;s0 -->
<g id="edge42" class="edge"><title>h0&#45;&gt;s0</title>
<path fill="none" stroke="black" d="M1313.46,-221.562C1304.73,-219.538 1295.6,-217.576 1287,-216 1163.15,-193.308 1129.85,-202.692 1006,-180 1000.62,-179.015 995.044,-177.879 989.481,-176.672"/>
<polygon fill="black" stroke="black" points="990.06,-173.215 979.536,-174.438 988.526,-180.044 990.06,-173.215"/>
</g>
<!-- t0 -->
<g id="node15" class="node"><title>t0</title>
<a xlink:href="0009308" xlink:title="GO:0009308">
<ellipse fill="#dddddd" stroke="#dddddd" cx="1217" cy="-162" rx="61.1934" ry="18"/>
<text text-anchor="middle" x="1217" y="-157.8" font-family="Times,serif" font-size="14.00">GO:0009308</text>
</a>
</g>
<!-- h0&#45;&gt;t0 -->
<g id="edge76" class="edge"><title>h0&#45;&gt;t0</title>
<path fill="none" stroke="black" d="M1328.1,-218.155C1307.07,-207.714 1278.72,-193.644 1255.93,-182.328"/>
<polygon fill="black" stroke="black" points="1257.37,-179.136 1246.86,-177.824 1254.26,-185.405 1257.37,-179.136"/>
</g>
<!-- g0 -->
<g id="node34" class="node"><title>g0</title>
<a xlink:href="0044249" xlink:title="GO:0044249">
<ellipse fill="#dddddd" stroke="#dddddd" cx="1076" cy="-162" rx="61.1934" ry="18"/>
<text text-anchor="middle" x="1076" y="-157.8" font-family="Times,serif" font-size="14.00">GO:0044249</text>
</a>
</g>
<!-- h0&#45;&gt;g0 -->
<g id="edge30" class="edge"><title>h0&#45;&gt;g0</title>
<path fill="none" stroke="black" d="M1312.69,-221.753C1263.25,-209.481 1184.1,-189.833 1131.1,-176.678"/>
<polygon fill="black" stroke="black" points="1131.74,-173.231 1121.2,-174.219 1130.06,-180.025 1131.74,-173.231"/>
</g>
<!-- m0 -->
<g id="node44" class="node"><title>m0</title>
<a xlink:href="0044260" xlink:title="GO:0044260">
<ellipse fill="#dddddd" stroke="#dddddd" cx="512" cy="-162" rx="61.1934" ry="18"/>
<text text-anchor="middle" x="512" y="-157.8" font-family="Times,serif" font-size="14.00">GO:0044260</text>
</a>
</g>
<!-- h0&#45;&gt;m0 -->
<g id="edge40" class="edge"><title>h0&#45;&gt;m0</title>
<path fill="none" stroke="black" d="M1314.31,-221.208C1305.33,-219.162 1295.91,-217.283 1287,-216 976.902,-171.335 893.098,-224.665 583,-180 577.294,-179.178 571.374,-178.112 565.497,-176.913"/>
<polygon fill="black" stroke="black" points="566.205,-173.486 555.691,-174.792 564.725,-180.327 566.205,-173.486"/>
</g>
<!-- f1 -->
<g id="node53" class="node"><title>f1</title>
<a xlink:href="0006066" xlink:title="GO:0006066 (1)">
<ellipse fill="#e98576" stroke="#e98576" cx="1540" cy="-162" rx="75.2018" ry="18"/>
<text text-anchor="middle" x="1540" y="-157.8" font-family="Times,serif" font-size="14.00">GO:0006066 (1)</text>
</a>
</g>
<!-- h0&#45;&gt;f1 -->
<g id="edge50" class="edge"><title>h0&#45;&gt;f1</title>
<path fill="none" stroke="black" d="M1393.52,-219.337C1421.71,-208.495 1461.39,-193.235 1492.34,-181.331"/>
<polygon fill="black" stroke="black" points="1493.98,-184.45 1502.06,-177.594 1491.47,-177.917 1493.98,-184.45"/>
</g>
<!-- g1 -->
<g id="node55" class="node"><title>g1</title>
<a xlink:href="0051186" xlink:title="GO:0051186 (1)">
<ellipse fill="#e98576" stroke="#e98576" cx="1708" cy="-162" rx="75.2018" ry="18"/>
<text text-anchor="middle" x="1708" y="-157.8" font-family="Times,serif" font-size="14.00">GO:0051186 (1)</text>
</a>
</g>
<!-- h0&#45;&gt;g1 -->
<g id="edge52" class="edge"><title>h0&#45;&gt;g1</title>
<path fill="none" stroke="black" d="M1407.52,-223.179C1460.95,-212.573 1548.52,-195.158 1624,-180 1630.03,-178.789 1636.31,-177.526 1642.59,-176.258"/>
<polygon fill="black" stroke="black" points="1643.32,-179.681 1652.43,-174.271 1641.93,-172.82 1643.32,-179.681"/>
</g>
<!-- e1 -->
<g id="node57" class="node"><title>e1</title>
<a xlink:href="0006793" xlink:title="GO:0006793 (1)">
<ellipse fill="#e98576" stroke="#e98576" cx="1876" cy="-162" rx="75.2018" ry="18"/>
<text text-anchor="middle" x="1876" y="-157.8" font-family="Times,serif" font-size="14.00">GO:0006793 (1)</text>
</a>
</g>
<!-- h0&#45;&gt;e1 -->
<g id="edge54" class="edge"><title>h0&#45;&gt;e1</title>
<path fill="none" stroke="black" d="M1415.07,-227.467C1498.24,-219.079 1657.5,-201.788 1792,-180 1798.51,-178.945 1805.29,-177.745 1812.04,-176.483"/>
<polygon fill="black" stroke="black" points="1812.73,-179.916 1821.89,-174.598 1811.41,-173.041 1812.73,-179.916"/>
</g>
<!-- v0 -->
<g id="node17" class="node"><title>v0</title>
<a xlink:href="0019752" xlink:title="GO:0019752">
<ellipse fill="#dddddd" stroke="#dddddd" cx="1339" cy="-90" rx="61.1934" ry="18"/>
<text text-anchor="middle" x="1339" y="-85.8" font-family="Times,serif" font-size="14.00">GO:0019752</text>
</a>
</g>
<!-- w0&#45;&gt;v0 -->
<g id="edge112" class="edge"><title>w0&#45;&gt;v0</title>
<path fill="none" stroke="black" d="M1364.01,-144.055C1360.26,-136.091 1355.69,-126.411 1351.5,-117.51"/>
<polygon fill="black" stroke="black" points="1354.57,-115.828 1347.14,-108.275 1348.24,-118.813 1354.57,-115.828"/>
</g>
<!-- n0 -->
<g id="node9" class="node"><title>n0</title>
<a xlink:href="0016070" xlink:title="GO:0016070 (2)">
<ellipse fill="#e98576" stroke="#e98576" cx="544" cy="-90" rx="75.2018" ry="18"/>
<text text-anchor="middle" x="544" y="-85.8" font-family="Times,serif" font-size="14.00">GO:0016070 (2)</text>
</a>
</g>
<!-- o0&#45;&gt;n0 -->
<g id="edge6" class="edge"><title>o0&#45;&gt;n0</title>
<path fill="none" stroke="black" d="M751.308,-149.046C709.731,-137.405 646.286,-119.64 600.536,-106.83"/>
<polygon fill="black" stroke="black" points="601.34,-103.421 590.766,-104.095 599.452,-110.161 601.34,-103.421"/>
</g>
<!-- x0 -->
<g id="node104" class="node"><title>x0</title>
<a xlink:href="0009117" xlink:title="GO:0009117 (2)">
<ellipse fill="#e98576" stroke="#e98576" cx="926" cy="-90" rx="75.2018" ry="18"/>
<text text-anchor="middle" x="926" y="-85.8" font-family="Times,serif" font-size="14.00">GO:0009117 (2)</text>
</a>
</g>
<!-- o0&#45;&gt;x0 -->
<g id="edge118" class="edge"><title>o0&#45;&gt;x0</title>
<path fill="none" stroke="black" d="M822.317,-145.983C841.322,-135.905 866.596,-122.502 887.432,-111.453"/>
<polygon fill="black" stroke="black" points="889.161,-114.497 896.356,-106.72 885.882,-108.313 889.161,-114.497"/>
</g>
<!-- c1 -->
<g id="node110" class="node"><title>c1</title>
<a xlink:href="0009116" xlink:title="GO:0009116 (2)">
<ellipse fill="#e98576" stroke="#e98576" cx="758" cy="-90" rx="75.2018" ry="18"/>
<text text-anchor="middle" x="758" y="-85.8" font-family="Times,serif" font-size="14.00">GO:0009116 (2)</text>
</a>
</g>
<!-- o0&#45;&gt;c1 -->
<g id="edge128" class="edge"><title>o0&#45;&gt;c1</title>
<path fill="none" stroke="black" d="M785.285,-144.055C781.146,-136.007 776.105,-126.205 771.488,-117.226"/>
<polygon fill="black" stroke="black" points="774.57,-115.567 766.884,-108.275 768.345,-118.769 774.57,-115.567"/>
</g>
<!-- p0 -->
<g id="node10" class="node"><title>p0</title>
<a xlink:href="0043283" xlink:title="GO:0043283">
<ellipse fill="#dddddd" stroke="#dddddd" cx="61" cy="-162" rx="61.1934" ry="18"/>
<text text-anchor="middle" x="61" y="-157.8" font-family="Times,serif" font-size="14.00">GO:0043283</text>
</a>
</g>
<!-- p0&#45;&gt;n0 -->
<g id="edge8" class="edge"><title>p0&#45;&gt;n0</title>
<path fill="none" stroke="black" d="M105.519,-149.468C114.259,-147.452 123.387,-145.518 132,-144 270.774,-119.549 307.54,-128.172 447,-108 456.645,-106.605 466.804,-104.988 476.769,-103.318"/>
<polygon fill="black" stroke="black" points="477.374,-106.766 486.644,-101.636 476.199,-99.8649 477.374,-106.766"/>
</g>
<!-- b1 -->
<g id="node37" class="node"><title>b1</title>
<a xlink:href="0043412" xlink:title="GO:0043412">
<ellipse fill="#dddddd" stroke="#dddddd" cx="98" cy="-90" rx="61.1934" ry="18"/>
<text text-anchor="middle" x="98" y="-85.8" font-family="Times,serif" font-size="14.00">GO:0043412</text>
</a>
</g>
<!-- p0&#45;&gt;b1 -->
<g id="edge32" class="edge"><title>p0&#45;&gt;b1</title>
<path fill="none" stroke="black" d="M69.9567,-144.055C74.2107,-136.007 79.3919,-126.205 84.1377,-117.226"/>
<polygon fill="black" stroke="black" points="87.29,-118.752 88.8688,-108.275 81.1013,-115.481 87.29,-118.752"/>
</g>
<!-- r0 -->
<g id="node14" class="node"><title>r0</title>
<a xlink:href="0006520" xlink:title="GO:0006520 (2)">
<ellipse fill="#e98576" stroke="#e98576" cx="1217" cy="-18" rx="75.2018" ry="18"/>
<text text-anchor="middle" x="1217" y="-13.8" font-family="Times,serif" font-size="14.00">GO:0006520 (2)</text>
</a>
</g>
<!-- s0&#45;&gt;r0 -->
<g id="edge10" class="edge"><title>s0&#45;&gt;r0</title>
<path fill="none" stroke="black" d="M964.381,-146.205C1015.16,-120.636 1119.4,-68.1447 1176.83,-39.2249"/>
<polygon fill="black" stroke="black" points="1178.62,-42.2465 1185.97,-34.6229 1175.47,-35.9943 1178.62,-42.2465"/>
</g>
<!-- t0&#45;&gt;r0 -->
<g id="edge12" class="edge"><title>t0&#45;&gt;r0</title>
<path fill="none" stroke="black" d="M1217,-143.871C1217,-119.67 1217,-75.2108 1217,-46.3932"/>
<polygon fill="black" stroke="black" points="1220.5,-46.1892 1217,-36.1893 1213.5,-46.1893 1220.5,-46.1892"/>
</g>
<!-- v0&#45;&gt;r0 -->
<g id="edge14" class="edge"><title>v0&#45;&gt;r0</title>
<path fill="none" stroke="black" d="M1312.23,-73.6382C1294.99,-63.7466 1272.35,-50.761 1253.48,-39.9312"/>
<polygon fill="black" stroke="black" points="1254.97,-36.7519 1244.56,-34.811 1251.49,-42.8235 1254.97,-36.7519"/>
</g>
<!-- d0 -->
<g id="node19" class="node"><title>d0</title>
<a xlink:href="0008152" xlink:title="GO:0008152 (1)">
<ellipse fill="#e98576" stroke="#e98576" cx="1062" cy="-306" rx="75.2018" ry="18"/>
<text text-anchor="middle" x="1062" y="-301.8" font-family="Times,serif" font-size="14.00">GO:0008152 (1)</text>
</a>
</g>
<!-- d0&#45;&gt;h0 -->
<g id="edge88" class="edge"><title>d0&#45;&gt;h0</title>
<path fill="none" stroke="black" d="M1113.85,-292.845C1159.46,-282.137 1227.65,-266.095 1287,-252 1291.96,-250.822 1297.11,-249.595 1302.28,-248.362"/>
<polygon fill="black" stroke="black" points="1303.26,-251.726 1312.17,-245.999 1301.63,-244.918 1303.26,-251.726"/>
</g>
<!-- u0 -->
<g id="node21" class="node"><title>u0</title>
<a xlink:href="0006807" xlink:title="GO:0006807">
<ellipse fill="#dddddd" stroke="#dddddd" cx="1217" cy="-234" rx="61.1934" ry="18"/>
<text text-anchor="middle" x="1217" y="-229.8" font-family="Times,serif" font-size="14.00">GO:0006807</text>
</a>
</g>
<!-- d0&#45;&gt;u0 -->
<g id="edge16" class="edge"><title>d0&#45;&gt;u0</title>
<path fill="none" stroke="black" d="M1095.63,-289.811C1119.16,-279.186 1150.73,-264.929 1175.77,-253.618"/>
<polygon fill="black" stroke="black" points="1177.35,-256.747 1185.02,-249.442 1174.47,-250.368 1177.35,-256.747"/>
</g>
<!-- c0 -->
<g id="node32" class="node"><title>c0</title>
<a xlink:href="0009058" xlink:title="GO:0009058">
<ellipse fill="#dddddd" stroke="#dddddd" cx="907" cy="-234" rx="61.1934" ry="18"/>
<text text-anchor="middle" x="907" y="-229.8" font-family="Times,serif" font-size="14.00">GO:0009058</text>
</a>
</g>
<!-- d0&#45;&gt;c0 -->
<g id="edge64" class="edge"><title>d0&#45;&gt;c0</title>
<path fill="none" stroke="black" d="M1028.37,-289.811C1004.84,-279.186 973.271,-264.929 948.227,-253.618"/>
<polygon fill="black" stroke="black" points="949.532,-250.368 938.978,-249.442 946.651,-256.747 949.532,-250.368"/>
</g>
<!-- f0 -->
<g id="node38" class="node"><title>f0</title>
<a xlink:href="0043170" xlink:title="GO:0043170">
<ellipse fill="#dddddd" stroke="#dddddd" cx="441" cy="-234" rx="61.1934" ry="18"/>
<text text-anchor="middle" x="441" y="-229.8" font-family="Times,serif" font-size="14.00">GO:0043170</text>
</a>
</g>
<!-- d0&#45;&gt;f0 -->
<g id="edge122" class="edge"><title>d0&#45;&gt;f0</title>
<path fill="none" stroke="black" d="M995.542,-297.509C876.058,-284.04 626.327,-255.89 507.102,-242.451"/>
<polygon fill="black" stroke="black" points="507.345,-238.956 497.016,-241.314 506.561,-245.912 507.345,-238.956"/>
</g>
<!-- l0 -->
<g id="node41" class="node"><title>l0</title>
<a xlink:href="0044238" xlink:title="GO:0044238">
<ellipse fill="#dddddd" stroke="#dddddd" cx="766" cy="-234" rx="61.1934" ry="18"/>
<text text-anchor="middle" x="766" y="-229.8" font-family="Times,serif" font-size="14.00">GO:0044238</text>
</a>
</g>
<!-- d0&#45;&gt;l0 -->
<g id="edge132" class="edge"><title>d0&#45;&gt;l0</title>
<path fill="none" stroke="black" d="M1010.15,-292.845C964.543,-282.137 896.349,-266.095 837,-252 832.04,-250.822 826.887,-249.595 821.722,-248.362"/>
<polygon fill="black" stroke="black" points="822.365,-244.918 811.826,-245.999 820.739,-251.726 822.365,-244.918"/>
</g>
<!-- t1 -->
<g id="node77" class="node"><title>t1</title>
<a xlink:href="0006091" xlink:title="GO:0006091 (1)">
<ellipse fill="#e98576" stroke="#e98576" cx="1062" cy="-234" rx="75.2018" ry="18"/>
<text text-anchor="middle" x="1062" y="-229.8" font-family="Times,serif" font-size="14.00">GO:0006091 (1)</text>
</a>
</g>
<!-- d0&#45;&gt;t1 -->
<g id="edge82" class="edge"><title>d0&#45;&gt;t1</title>
<path fill="none" stroke="black" d="M1062,-287.697C1062,-279.983 1062,-270.712 1062,-262.112"/>
<polygon fill="black" stroke="black" points="1065.5,-262.104 1062,-252.104 1058.5,-262.104 1065.5,-262.104"/>
</g>
<!-- u0&#45;&gt;t0 -->
<g id="edge74" class="edge"><title>u0&#45;&gt;t0</title>
<path fill="none" stroke="black" d="M1217,-215.697C1217,-207.983 1217,-198.712 1217,-190.112"/>
<polygon fill="black" stroke="black" points="1220.5,-190.104 1217,-180.104 1213.5,-190.104 1220.5,-190.104"/>
</g>
<!-- e0 -->
<g id="node22" class="node"><title>e0</title>
<a xlink:href="0008150" xlink:title="GO:0008150">
<ellipse fill="#dddddd" stroke="#dddddd" cx="2217" cy="-378" rx="61.1934" ry="18"/>
<text text-anchor="middle" x="2217" y="-373.8" font-family="Times,serif" font-size="14.00">GO:0008150</text>
</a>
</g>
<!-- e0&#45;&gt;d0 -->
<g id="edge18" class="edge"><title>e0&#45;&gt;d0</title>
<path fill="none" stroke="black" d="M2157.74,-373.408C1966.42,-361.813 1364.93,-325.359 1144.24,-311.984"/>
<polygon fill="black" stroke="black" points="1144.21,-308.476 1134.02,-311.365 1143.79,-315.463 1144.21,-308.476"/>
</g>
<!-- k1 -->
<g id="node25" class="node"><title>k1</title>
<a xlink:href="0051234" xlink:title="GO:0051234">
<ellipse fill="#dddddd" stroke="#dddddd" cx="2288" cy="-234" rx="61.1934" ry="18"/>
<text text-anchor="middle" x="2288" y="-229.8" font-family="Times,serif" font-size="14.00">GO:0051234</text>
</a>
</g>
<!-- e0&#45;&gt;k1 -->
<g id="edge20" class="edge"><title>e0&#45;&gt;k1</title>
<path fill="none" stroke="black" d="M2225.42,-360.153C2237.63,-335.732 2260.37,-290.265 2274.81,-261.375"/>
<polygon fill="black" stroke="black" points="2278.02,-262.777 2279.37,-252.268 2271.76,-259.647 2278.02,-262.777"/>
</g>
<!-- l1 -->
<g id="node26" class="node"><title>l1</title>
<a xlink:href="0051179" xlink:title="GO:0051179">
<ellipse fill="#dddddd" stroke="#dddddd" cx="2160" cy="-306" rx="61.1934" ry="18"/>
<text text-anchor="middle" x="2160" y="-301.8" font-family="Times,serif" font-size="14.00">GO:0051179</text>
</a>
</g>
<!-- e0&#45;&gt;l1 -->
<g id="edge80" class="edge"><title>e0&#45;&gt;l1</title>
<path fill="none" stroke="black" d="M2203.49,-360.411C2196.57,-351.906 2187.99,-341.372 2180.29,-331.914"/>
<polygon fill="black" stroke="black" points="2182.84,-329.501 2173.81,-323.956 2177.41,-333.921 2182.84,-329.501"/>
</g>
<!-- z0 -->
<g id="node48" class="node"><title>z0</title>
<a xlink:href="0065007" xlink:title="GO:0065007">
<ellipse fill="#dddddd" stroke="#dddddd" cx="2410" cy="-306" rx="61.1934" ry="18"/>
<text text-anchor="middle" x="2410" y="-301.8" font-family="Times,serif" font-size="14.00">GO:0065007</text>
</a>
</g>
<!-- e0&#45;&gt;z0 -->
<g id="edge86" class="edge"><title>e0&#45;&gt;z0</title>
<path fill="none" stroke="black" d="M2254.21,-363.503C2285.32,-352.222 2329.84,-336.073 2363.33,-323.927"/>
<polygon fill="black" stroke="black" points="2364.69,-327.155 2372.9,-320.455 2362.31,-320.575 2364.69,-327.155"/>
</g>
<!-- p1 -->
<g id="node79" class="node"><title>p1</title>
<a xlink:href="0050896" xlink:title="GO:0050896 (1)">
<ellipse fill="#e98576" stroke="#e98576" cx="2565" cy="-306" rx="75.2018" ry="18"/>
<text text-anchor="middle" x="2565" y="-301.8" font-family="Times,serif" font-size="14.00">GO:0050896 (1)</text>
</a>
</g>
<!-- e0&#45;&gt;p1 -->
<g id="edge84" class="edge"><title>e0&#45;&gt;p1</title>
<path fill="none" stroke="black" d="M2262.38,-365.781C2270.87,-363.781 2279.69,-361.772 2288,-360 2372.91,-341.886 2394.76,-340.514 2480,-324 2486.21,-322.798 2492.66,-321.532 2499.12,-320.257"/>
<polygon fill="black" stroke="black" points="2500.11,-323.63 2509.24,-318.252 2498.75,-316.763 2500.11,-323.63"/>
</g>
<!-- i0 -->
<g id="node82" class="node"><title>i0</title>
<a xlink:href="0009987" xlink:title="GO:0009987">
<ellipse fill="#dddddd" stroke="#dddddd" cx="1892" cy="-306" rx="61.1934" ry="18"/>
<text text-anchor="middle" x="1892" y="-301.8" font-family="Times,serif" font-size="14.00">GO:0009987</text>
</a>
</g>
<!-- e0&#45;&gt;i0 -->
<g id="edge114" class="edge"><title>e0&#45;&gt;i0</title>
<path fill="none" stroke="black" d="M2169.05,-366.671C2110.76,-354.117 2012.46,-332.945 1949.98,-319.487"/>
<polygon fill="black" stroke="black" points="1950.4,-315.998 1939.89,-317.314 1948.93,-322.841 1950.4,-315.998"/>
</g>
<!-- j1 -->
<g id="node64" class="node"><title>j1</title>
<a xlink:href="0006810" xlink:title="GO:0006810">
<ellipse fill="#dddddd" stroke="#dddddd" cx="2377" cy="-162" rx="61.1934" ry="18"/>
<text text-anchor="middle" x="2377" y="-157.8" font-family="Times,serif" font-size="14.00">GO:0006810</text>
</a>
</g>
<!-- k1&#45;&gt;j1 -->
<g id="edge62" class="edge"><title>k1&#45;&gt;j1</title>
<path fill="none" stroke="black" d="M2308.64,-216.765C2320.44,-207.488 2335.41,-195.714 2348.33,-185.551"/>
<polygon fill="black" stroke="black" points="2350.77,-188.081 2356.47,-179.147 2346.45,-182.578 2350.77,-188.081"/>
</g>
<!-- m1 -->
<g id="node86" class="node"><title>m1</title>
<a xlink:href="0045184" xlink:title="GO:0045184">
<ellipse fill="#dddddd" stroke="#dddddd" cx="2210" cy="-90" rx="61.1934" ry="18"/>
<text text-anchor="middle" x="2210" y="-85.8" font-family="Times,serif" font-size="14.00">GO:0045184</text>
</a>
</g>
<!-- k1&#45;&gt;m1 -->
<g id="edge94" class="edge"><title>k1&#45;&gt;m1</title>
<path fill="none" stroke="black" d="M2287.45,-215.811C2286.18,-197.014 2282.06,-166.563 2269,-144 2262.2,-132.246 2251.88,-121.681 2241.76,-113.135"/>
<polygon fill="black" stroke="black" points="2243.76,-110.249 2233.76,-106.729 2239.38,-115.712 2243.76,-110.249"/>
</g>
<!-- l1&#45;&gt;k1 -->
<g id="edge22" class="edge"><title>l1&#45;&gt;k1</title>
<path fill="none" stroke="black" d="M2187.77,-289.811C2206.39,-279.629 2231.11,-266.112 2251.34,-255.049"/>
<polygon fill="black" stroke="black" points="2253.19,-258.028 2260.28,-250.159 2249.83,-251.887 2253.19,-258.028"/>
</g>
<!-- u1 -->
<g id="node30" class="node"><title>u1</title>
<a xlink:href="0051641" xlink:title="GO:0051641 (1)">
<ellipse fill="#e98576" stroke="#e98576" cx="2044" cy="-162" rx="75.2018" ry="18"/>
<text text-anchor="middle" x="2044" y="-157.8" font-family="Times,serif" font-size="14.00">GO:0051641 (1)</text>
</a>
</g>
<!-- l1&#45;&gt;u1 -->
<g id="edge26" class="edge"><title>l1&#45;&gt;u1</title>
<path fill="none" stroke="black" d="M2127.58,-290.636C2110.52,-281.66 2090.42,-268.634 2077,-252 2062.42,-233.927 2053.89,-208.786 2049.17,-189.833"/>
<polygon fill="black" stroke="black" points="2052.57,-188.991 2046.93,-180.025 2045.75,-190.554 2052.57,-188.991"/>
</g>
<!-- o1 -->
<g id="node74" class="node"><title>o1</title>
<a xlink:href="0033036" xlink:title="GO:0033036">
<ellipse fill="#dddddd" stroke="#dddddd" cx="2147" cy="-234" rx="61.1934" ry="18"/>
<text text-anchor="middle" x="2147" y="-229.8" font-family="Times,serif" font-size="14.00">GO:0033036</text>
</a>
</g>
<!-- l1&#45;&gt;o1 -->
<g id="edge78" class="edge"><title>l1&#45;&gt;o1</title>
<path fill="none" stroke="black" d="M2156.79,-287.697C2155.35,-279.983 2153.63,-270.712 2152.04,-262.112"/>
<polygon fill="black" stroke="black" points="2155.44,-261.297 2150.18,-252.104 2148.56,-262.575 2155.44,-261.297"/>
</g>
<!-- v1 -->
<g id="node28" class="node"><title>v1</title>
<a xlink:href="0016043" xlink:title="GO:0016043">
<ellipse fill="#dddddd" stroke="#dddddd" cx="1969" cy="-234" rx="61.1934" ry="18"/>
<text text-anchor="middle" x="1969" y="-229.8" font-family="Times,serif" font-size="14.00">GO:0016043</text>
</a>
</g>
<!-- v1&#45;&gt;u1 -->
<g id="edge24" class="edge"><title>v1&#45;&gt;u1</title>
<path fill="none" stroke="black" d="M1986.77,-216.411C1996.32,-207.497 2008.26,-196.355 2018.76,-186.558"/>
<polygon fill="black" stroke="black" points="2021.17,-189.094 2026.09,-179.713 2016.4,-183.977 2021.17,-189.094"/>
</g>
<!-- c0&#45;&gt;g0 -->
<g id="edge28" class="edge"><title>c0&#45;&gt;g0</title>
<path fill="none" stroke="black" d="M941.2,-218.834C967.629,-207.887 1004.38,-192.665 1032.84,-180.879"/>
<polygon fill="black" stroke="black" points="1034.24,-184.085 1042.14,-177.025 1031.56,-177.618 1034.24,-184.085"/>
</g>
<!-- b0 -->
<g id="node58" class="node"><title>b0</title>
<a xlink:href="0009059" xlink:title="GO:0009059">
<ellipse fill="#dddddd" stroke="#dddddd" cx="653" cy="-162" rx="61.1934" ry="18"/>
<text text-anchor="middle" x="653" y="-157.8" font-family="Times,serif" font-size="14.00">GO:0009059</text>
</a>
</g>
<!-- c0&#45;&gt;b0 -->
<g id="edge70" class="edge"><title>c0&#45;&gt;b0</title>
<path fill="none" stroke="black" d="M863.912,-221.125C820.307,-209.108 752.812,-190.507 705.966,-177.597"/>
<polygon fill="black" stroke="black" points="706.87,-174.216 696.299,-174.933 705.01,-180.964 706.87,-174.216"/>
</g>
<!-- g0&#45;&gt;a0 -->
<g id="edge58" class="edge"><title>g0&#45;&gt;a0</title>
<path fill="none" stroke="black" d="M1068.51,-144.036C1058.42,-123.34 1038.38,-89.0123 1010,-72 964.935,-44.9836 825.694,-30.6184 735.014,-23.9233"/>
<polygon fill="black" stroke="black" points="735.255,-20.4316 725.029,-23.2024 734.751,-27.4135 735.255,-20.4316"/>
</g>
<!-- b1&#45;&gt;a1 -->
<g id="edge108" class="edge"><title>b1&#45;&gt;a1</title>
<path fill="none" stroke="black" d="M115.537,-72.411C124.869,-63.5834 136.51,-52.5715 146.794,-42.8437"/>
<polygon fill="black" stroke="black" points="149.473,-45.1272 154.332,-35.7125 144.663,-40.0419 149.473,-45.1272"/>
</g>
<!-- f0&#45;&gt;p0 -->
<g id="edge48" class="edge"><title>f0&#45;&gt;p0</title>
<path fill="none" stroke="black" d="M387.766,-224.949C326.032,-215.363 221.307,-198.33 132,-180 126.723,-178.917 121.242,-177.725 115.769,-176.49"/>
<polygon fill="black" stroke="black" points="116.503,-173.068 105.973,-174.235 114.933,-179.889 116.503,-173.068"/>
</g>
<!-- q0 -->
<g id="node40" class="node"><title>q0</title>
<a xlink:href="0005975" xlink:title="GO:0005975 (2)">
<ellipse fill="#e98576" stroke="#e98576" cx="216" cy="-162" rx="75.2018" ry="18"/>
<text text-anchor="middle" x="216" y="-157.8" font-family="Times,serif" font-size="14.00">GO:0005975 (2)</text>
</a>
</g>
<!-- f0&#45;&gt;q0 -->
<g id="edge34" class="edge"><title>f0&#45;&gt;q0</title>
<path fill="none" stroke="black" d="M400.515,-220.405C363.93,-209.023 309.816,-192.187 269.642,-179.689"/>
<polygon fill="black" stroke="black" points="270.595,-176.32 260.007,-176.691 268.516,-183.004 270.595,-176.32"/>
</g>
<!-- f0&#45;&gt;m0 -->
<g id="edge38" class="edge"><title>f0&#45;&gt;m0</title>
<path fill="none" stroke="black" d="M457.826,-216.411C466.845,-207.519 478.112,-196.411 488.032,-186.631"/>
<polygon fill="black" stroke="black" points="490.631,-188.983 495.295,-179.47 485.716,-183.998 490.631,-188.983"/>
</g>
<!-- f0&#45;&gt;b0 -->
<g id="edge72" class="edge"><title>f0&#45;&gt;b0</title>
<path fill="none" stroke="black" d="M480.379,-219.998C515.334,-208.456 566.543,-191.547 604.109,-179.143"/>
<polygon fill="black" stroke="black" points="605.434,-182.392 613.832,-175.933 603.239,-175.745 605.434,-182.392"/>
</g>
<!-- k0 -->
<g id="node67" class="node"><title>k0</title>
<a xlink:href="0019538" xlink:title="GO:0019538">
<ellipse fill="#dddddd" stroke="#dddddd" cx="371" cy="-162" rx="61.1934" ry="18"/>
<text text-anchor="middle" x="371" y="-157.8" font-family="Times,serif" font-size="14.00">GO:0019538</text>
</a>
</g>
<!-- f0&#45;&gt;k0 -->
<g id="edge66" class="edge"><title>f0&#45;&gt;k0</title>
<path fill="none" stroke="black" d="M424.411,-216.411C415.519,-207.519 404.411,-196.411 394.631,-186.631"/>
<polygon fill="black" stroke="black" points="397.016,-184.066 387.47,-179.47 392.066,-189.016 397.016,-184.066"/>
</g>
<!-- l0&#45;&gt;o0 -->
<g id="edge106" class="edge"><title>l0&#45;&gt;o0</title>
<path fill="none" stroke="black" d="M772.778,-216.055C775.93,-208.176 779.753,-198.617 783.282,-189.794"/>
<polygon fill="black" stroke="black" points="786.626,-190.86 787.09,-180.275 780.126,-188.26 786.626,-190.86"/>
</g>
<!-- l0&#45;&gt;s0 -->
<g id="edge44" class="edge"><title>l0&#45;&gt;s0</title>
<path fill="none" stroke="black" d="M800.2,-218.834C826.629,-207.887 863.381,-192.665 891.835,-180.879"/>
<polygon fill="black" stroke="black" points="893.241,-184.085 901.14,-177.025 890.562,-177.618 893.241,-184.085"/>
</g>
<!-- l0&#45;&gt;q0 -->
<g id="edge36" class="edge"><title>l0&#45;&gt;q0</title>
<path fill="none" stroke="black" d="M708.159,-227.981C620.011,-219.976 446.895,-202.863 301,-180 294.307,-178.951 287.34,-177.746 280.402,-176.471"/>
<polygon fill="black" stroke="black" points="280.768,-172.978 270.292,-174.564 279.47,-179.857 280.768,-172.978"/>
</g>
<!-- l0&#45;&gt;k0 -->
<g id="edge68" class="edge"><title>l0&#45;&gt;k0</title>
<path fill="none" stroke="black" d="M711.893,-225.381C647.386,-216.014 536.433,-199.003 442,-180 436.719,-178.937 431.235,-177.759 425.76,-176.533"/>
<polygon fill="black" stroke="black" points="426.491,-173.109 415.962,-174.288 424.928,-179.933 426.491,-173.109"/>
</g>
<!-- m0&#45;&gt;j0 -->
<g id="edge126" class="edge"><title>m0&#45;&gt;j0</title>
<path fill="none" stroke="black" d="M483.039,-145.983C463.109,-135.649 436.437,-121.819 414.829,-110.615"/>
<polygon fill="black" stroke="black" points="416.402,-107.488 405.913,-105.992 413.179,-113.702 416.402,-107.488"/>
</g>
<!-- y0 -->
<g id="node50" class="node"><title>y0</title>
<a xlink:href="0050789" xlink:title="GO:0050789 (2)">
<ellipse fill="#e98576" stroke="#e98576" cx="2443" cy="-234" rx="75.2018" ry="18"/>
<text text-anchor="middle" x="2443" y="-229.8" font-family="Times,serif" font-size="14.00">GO:0050789 (2)</text>
</a>
</g>
<!-- z0&#45;&gt;y0 -->
<g id="edge46" class="edge"><title>z0&#45;&gt;y0</title>
<path fill="none" stroke="black" d="M2417.99,-288.055C2421.74,-280.091 2426.31,-270.411 2430.5,-261.51"/>
<polygon fill="black" stroke="black" points="2433.76,-262.813 2434.86,-252.275 2427.43,-259.828 2433.76,-262.813"/>
</g>
<!-- s1 -->
<g id="node92" class="node"><title>s1</title>
<a xlink:href="0065008" xlink:title="GO:0065008 (1)">
<ellipse fill="#e98576" stroke="#e98576" cx="2611" cy="-234" rx="75.2018" ry="18"/>
<text text-anchor="middle" x="2611" y="-229.8" font-family="Times,serif" font-size="14.00">GO:0065008 (1)</text>
</a>
</g>
<!-- z0&#45;&gt;s1 -->
<g id="edge100" class="edge"><title>z0&#45;&gt;s1</title>
<path fill="none" stroke="black" d="M2447.81,-291.834C2479.72,-280.72 2525.67,-264.716 2560.69,-252.521"/>
<polygon fill="black" stroke="black" points="2561.96,-255.784 2570.25,-249.19 2559.66,-249.174 2561.96,-255.784"/>
</g>
<!-- b0&#45;&gt;a0 -->
<g id="edge56" class="edge"><title>b0&#45;&gt;a0</title>
<path fill="none" stroke="black" d="M653,-143.871C653,-119.67 653,-75.2108 653,-46.3932"/>
<polygon fill="black" stroke="black" points="656.5,-46.1892 653,-36.1893 649.5,-46.1893 656.5,-46.1892"/>
</g>
<!-- i1 -->
<g id="node89" class="node"><title>i1</title>
<a xlink:href="0015031" xlink:title="GO:0015031 (1)">
<ellipse fill="#e98576" stroke="#e98576" cx="2339" cy="-18" rx="75.2018" ry="18"/>
<text text-anchor="middle" x="2339" y="-13.8" font-family="Times,serif" font-size="14.00">GO:0015031 (1)</text>
</a>
</g>
<!-- j1&#45;&gt;i1 -->
<g id="edge96" class="edge"><title>j1&#45;&gt;i1</title>
<path fill="none" stroke="black" d="M2408.51,-146.528C2423.7,-137.728 2440.46,-124.899 2449,-108 2456.22,-93.7213 2457.51,-85.5484 2449,-72 2438.05,-54.5711 2419.58,-42.7388 2400.88,-34.765"/>
<polygon fill="black" stroke="black" points="2402,-31.4446 2391.41,-31.0455 2399.44,-37.9598 2402,-31.4446"/>
</g>
<!-- q1 -->
<g id="node112" class="node"><title>q1</title>
<a xlink:href="0016192" xlink:title="GO:0016192 (1)">
<ellipse fill="#e98576" stroke="#e98576" cx="2365" cy="-90" rx="75.2018" ry="18"/>
<text text-anchor="middle" x="2365" y="-85.8" font-family="Times,serif" font-size="14.00">GO:0016192 (1)</text>
</a>
</g>
<!-- j1&#45;&gt;q1 -->
<g id="edge130" class="edge"><title>j1&#45;&gt;q1</title>
<path fill="none" stroke="black" d="M2374.03,-143.697C2372.71,-135.983 2371.12,-126.712 2369.65,-118.112"/>
<polygon fill="black" stroke="black" points="2373.07,-117.369 2367.93,-108.104 2366.17,-118.552 2373.07,-117.369"/>
</g>
<!-- k0&#45;&gt;j0 -->
<g id="edge124" class="edge"><title>k0&#45;&gt;j0</title>
<path fill="none" stroke="black" d="M372.483,-143.697C373.144,-135.983 373.939,-126.712 374.676,-118.112"/>
<polygon fill="black" stroke="black" points="378.167,-118.367 375.534,-108.104 371.193,-117.769 378.167,-118.367"/>
</g>
<!-- n1 -->
<g id="node84" class="node"><title>n1</title>
<a xlink:href="0008104" xlink:title="GO:0008104">
<ellipse fill="#dddddd" stroke="#dddddd" cx="2199" cy="-162" rx="61.1934" ry="18"/>
<text text-anchor="middle" x="2199" y="-157.8" font-family="Times,serif" font-size="14.00">GO:0008104</text>
</a>
</g>
<!-- o1&#45;&gt;n1 -->
<g id="edge102" class="edge"><title>o1&#45;&gt;n1</title>
<path fill="none" stroke="black" d="M2159.59,-216.055C2165.85,-207.629 2173.54,-197.28 2180.45,-187.966"/>
<polygon fill="black" stroke="black" points="2183.37,-189.904 2186.53,-179.789 2177.76,-185.729 2183.37,-189.904"/>
</g>
<!-- i0&#45;&gt;h0 -->
<g id="edge90" class="edge"><title>i0&#45;&gt;h0</title>
<path fill="none" stroke="black" d="M1837.36,-297.838C1738.22,-284.842 1529.15,-257.435 1422.91,-243.509"/>
<polygon fill="black" stroke="black" points="1423.33,-240.034 1412.96,-242.204 1422.42,-246.975 1423.33,-240.034"/>
</g>
<!-- i0&#45;&gt;v1 -->
<g id="edge120" class="edge"><title>i0&#45;&gt;v1</title>
<path fill="none" stroke="black" d="M1909.86,-288.765C1919.8,-279.73 1932.34,-268.326 1943.32,-258.349"/>
<polygon fill="black" stroke="black" points="1945.93,-260.706 1950.97,-251.39 1941.22,-255.527 1945.93,-260.706"/>
</g>
<!-- r1 -->
<g id="node102" class="node"><title>r1</title>
<a xlink:href="0007154" xlink:title="GO:0007154 (1)">
<ellipse fill="#e98576" stroke="#e98576" cx="1814" cy="-234" rx="75.2018" ry="18"/>
<text text-anchor="middle" x="1814" y="-229.8" font-family="Times,serif" font-size="14.00">GO:0007154 (1)</text>
</a>
</g>
<!-- i0&#45;&gt;r1 -->
<g id="edge116" class="edge"><title>i0&#45;&gt;r1</title>
<path fill="none" stroke="black" d="M1873.91,-288.765C1863.91,-279.795 1851.32,-268.49 1840.26,-258.564"/>
<polygon fill="black" stroke="black" points="1842.31,-255.708 1832.53,-251.633 1837.64,-260.917 1842.31,-255.708"/>
</g>
<!-- n1&#45;&gt;m1 -->
<g id="edge92" class="edge"><title>n1&#45;&gt;m1</title>
<path fill="none" stroke="black" d="M2201.72,-143.697C2202.93,-135.983 2204.39,-126.712 2205.74,-118.112"/>
<polygon fill="black" stroke="black" points="2209.22,-118.526 2207.31,-108.104 2202.3,-117.44 2209.22,-118.526"/>
</g>
<!-- m1&#45;&gt;i1 -->
<g id="edge98" class="edge"><title>m1&#45;&gt;i1</title>
<path fill="none" stroke="black" d="M2237.99,-73.811C2256.5,-63.7686 2280.98,-50.4815 2301.21,-39.5048"/>
<polygon fill="black" stroke="black" points="2303.05,-42.4897 2310.17,-34.644 2299.71,-36.3372 2303.05,-42.4897"/>
</g>
<!-- d1 -->
<g id="node114" class="node"><title>d1</title>
<a xlink:href="0055114" xlink:title="GO:0055114 (1)">
<ellipse fill="#e98576" stroke="#e98576" cx="2372" cy="-378" rx="75.2018" ry="18"/>
<text text-anchor="middle" x="2372" y="-373.8" font-family="Times,serif" font-size="14.00">GO:0055114 (1)</text>
</a>
</g>
</g>
</svg>
