<?xml version="1.0" encoding="UTF-8" standalone="no"?> 
<!DOCTYPE svg PUBLIC "-//W3C//DTD SVG 1.1//EN" 
 "http://www.w3.org/Graphics/SVG/1.1/DTD/svg11.dtd"> 
<!-- Generated by graphviz version 2.28.0 (20110622.2320) 
 --> 
<!-- Title: G Pages: 1 --> 
<svg width="2000" height="1000"  
 viewBox="-30 -50 2000 1000" xmlns="http://www.w3.org/2000/svg" xmlns:xlink="http://www.w3.org/1999/xlink"> 
<g id="graph1" class="graph" transform="scale(1 1) rotate(0) translate(4 544)"> 
<title>G</title> 
<polygon fill="white" stroke="white" points="-4,5 -4,-544 445,-544 445,5 -4,5"/> 
<!-- c0 --> 
<g id="node1" class="node"><title>c0</title> 
<a xlink:href="http://pir.georgetown.edu/cgi-bin/pt_graphvizView.pl?togoid=0005575" > 
<ellipse fill="#dddddd" stroke="#dddddd" cx="253" cy="-522" rx="61.1934" ry="18"/> 
<a xlink:href="http://pir.georgetown.edu/cgi-bin/pt_graphvizView.pl?togoid=0005575" ><text id="GO:0005575" onmousemove="changeToText('GO:0005575')" onmouseout="changeBackText('GO:0005575')"  text-anchor="middle" x="253" y="-517.8" font-family="Times,serif" font-size="14.00">GO:0005575</text></a>
 
</a> 
</g> 
<!-- b0 --> 
<g id="node3" class="node"><title>b0</title> 
<ellipse fill="#e98576" stroke="#e98576" cx="164" cy="-378" rx="75.2018" ry="18"/> 
<a xlink:href="http://pir.georgetown.edu/cgi-bin/pt_graphvizView.pl?togoid=0044464" ><text id="GO:0044464" onmousemove="changeToText('GO:0044464')" onmouseout="changeBackText('GO:0044464')"  text-anchor="middle" x="164" y="-378.8" font-family="Times,serif" font-size="14.00">GO:0044464</text></a>
<a xlink:href="http://pir.georgetown.edu/cgi-bin/pt_graphvizView.pl?tofile=618619" ><text id="r618619" onmousemove="changeToText2('r618619', 1)" onmouseout="changeBackText2('r618619', 1)"  text-anchor="middle" x="164" y="-365.8" font-family="Times,serif" font-size="14.00">(1)</text>
 
</a> 
</g> 
<!-- c0&#45;&gt;b0 --> 
<g id="edge2" class="edge"><title>c0&#45;&gt;b0</title> 
<path fill="none" stroke="black" d="M224.451,-505.979C209.885,-496.882 193.145,-483.949 183,-468 171.233,-449.501 166.64,-424.907 164.901,-406.261"/> 
<polygon fill="black" stroke="black" points="168.376,-405.786 164.174,-396.06 161.394,-406.284 168.376,-405.786"/> 
</g> 
<!-- d0 --> 
<g id="node4" class="node"><title>d0</title> 
<a xlink:href="http://pir.georgetown.edu/cgi-bin/pt_graphvizView.pl?togoid=0005623" > 
<ellipse fill="#dddddd" stroke="#dddddd" cx="253" cy="-450" rx="61.1934" ry="18"/> 
<a xlink:href="http://pir.georgetown.edu/cgi-bin/pt_graphvizView.pl?togoid=0005623" ><text id="GO:0005623" onmousemove="changeToText('GO:0005623')" onmouseout="changeBackText('GO:0005623')"  text-anchor="middle" x="253" y="-445.8" font-family="Times,serif" font-size="14.00">GO:0005623</text></a>
 
</a> 
</g> 
<!-- c0&#45;&gt;d0 --> 
<g id="edge30" class="edge"><title>c0&#45;&gt;d0</title> 
<path fill="none" stroke="black" d="M253,-503.697C253,-495.983 253,-486.712 253,-478.112"/> 
<polygon fill="black" stroke="black" points="256.5,-478.104 253,-468.104 249.5,-478.104 256.5,-478.104"/> 
</g> 
<!-- k0 --> 
<g id="node6" class="node"><title>k0</title> 
<a xlink:href="http://pir.georgetown.edu/cgi-bin/pt_graphvizView.pl?togoid=0043226" > 
<ellipse fill="#dddddd" stroke="#dddddd" cx="356" cy="-234" rx="61.1934" ry="18"/> 
<a xlink:href="http://pir.georgetown.edu/cgi-bin/pt_graphvizView.pl?togoid=0043226" ><text id="GO:0043226" onmousemove="changeToText('GO:0043226')" onmouseout="changeBackText('GO:0043226')"  text-anchor="middle" x="356" y="-229.8" font-family="Times,serif" font-size="14.00">GO:0043226</text></a>
 
</a> 
</g> 
<!-- c0&#45;&gt;k0 --> 
<g id="edge28" class="edge"><title>c0&#45;&gt;k0</title> 
<path fill="none" stroke="black" d="M282.352,-506.034C296.963,-497.027 313.494,-484.161 323,-468 361.737,-402.146 361.489,-308.169 358.542,-262.298"/> 
<polygon fill="black" stroke="black" points="362.026,-261.948 357.8,-252.233 355.045,-262.463 362.026,-261.948"/> 
</g> 
<!-- g0 --> 
<g id="node10" class="node"><title>g0</title> 
<a xlink:href="http://pir.georgetown.edu/cgi-bin/pt_graphvizView.pl?togoid=0005622" > 
<ellipse fill="#dddddd" stroke="#dddddd" cx="61" cy="-306" rx="61.1934" ry="18"/> 
<a xlink:href="http://pir.georgetown.edu/cgi-bin/pt_graphvizView.pl?togoid=0005622" ><text id="GO:0005622" onmousemove="changeToText('GO:0005622')" onmouseout="changeBackText('GO:0005622')"  text-anchor="middle" x="61" y="-301.8" font-family="Times,serif" font-size="14.00">GO:0005622</text></a>
 
</a> 
</g> 
<!-- b0&#45;&gt;g0 --> 
<g id="edge8" class="edge"><title>b0&#45;&gt;g0</title> 
<path fill="none" stroke="black" d="M140.111,-360.765C126.102,-351.244 108.222,-339.093 93.0063,-328.752"/> 
<polygon fill="black" stroke="black" points="94.6426,-325.632 84.4045,-322.906 90.7079,-331.422 94.6426,-325.632"/> 
</g> 
<!-- f0 --> 
<g id="node12" class="node"><title>f0</title> 
<a xlink:href="http://pir.georgetown.edu/cgi-bin/pt_graphvizView.pl?togoid=0044424" > 
<ellipse fill="#dddddd" stroke="#dddddd" cx="106" cy="-234" rx="61.1934" ry="18"/> 
<a xlink:href="http://pir.georgetown.edu/cgi-bin/pt_graphvizView.pl?togoid=0044424" ><text id="GO:0044424" onmousemove="changeToText('GO:0044424')" onmouseout="changeBackText('GO:0044424')"  text-anchor="middle" x="106" y="-229.8" font-family="Times,serif" font-size="14.00">GO:0044424</text></a>
 
</a> 
</g> 
<!-- b0&#45;&gt;f0 --> 
<g id="edge12" class="edge"><title>b0&#45;&gt;f0</title> 
<path fill="none" stroke="black" d="M158.104,-359.768C151.812,-341.714 141.345,-312.611 131,-288 127.276,-279.141 122.897,-269.605 118.853,-261.096"/> 
<polygon fill="black" stroke="black" points="121.974,-259.51 114.483,-252.018 115.667,-262.547 121.974,-259.51"/> 
</g> 
<!-- a0 --> 
<g id="node21" class="node"><title>a0</title> 
<ellipse fill="#e98576" stroke="#e98576" cx="253" cy="-306" rx="75.2018" ry="18"/> 
<a xlink:href="http://pir.georgetown.edu/cgi-bin/pt_graphvizView.pl?togoid=0016020" ><text id="GO:0016020" onmousemove="changeToText('GO:0016020')" onmouseout="changeBackText('GO:0016020')"  text-anchor="middle" x="253" y="-306.8" font-family="Times,serif" font-size="14.00">GO:0016020</text></a>
<a xlink:href="http://pir.georgetown.edu/cgi-bin/pt_graphvizView.pl?tofile=618615" ><text id="r618615" onmousemove="changeToText2('r618615', 4)" onmouseout="changeBackText2('r618615', 4)"  text-anchor="middle" x="253" y="-293.8" font-family="Times,serif" font-size="14.00">(4)</text>
 
</a> 
</g> 
<!-- b0&#45;&gt;a0 --> 
<g id="edge20" class="edge"><title>b0&#45;&gt;a0</title> 
<path fill="none" stroke="black" d="M185.092,-360.411C196.73,-351.257 211.354,-339.755 224.048,-329.772"/> 
<polygon fill="black" stroke="black" points="226.363,-332.403 232.06,-323.47 222.036,-326.901 226.363,-332.403"/> 
</g> 
<!-- d0&#45;&gt;b0 --> 
<g id="edge4" class="edge"><title>d0&#45;&gt;b0</title> 
<path fill="none" stroke="black" d="M232.358,-432.765C220.648,-423.554 205.808,-411.882 192.949,-401.769"/> 
<polygon fill="black" stroke="black" points="194.862,-398.821 184.838,-395.39 190.535,-404.323 194.862,-398.821"/> 
</g> 
<!-- j0 --> 
<g id="node8" class="node"><title>j0</title> 
<a xlink:href="http://pir.georgetown.edu/cgi-bin/pt_graphvizView.pl?togoid=0043227" > 
<ellipse fill="#dddddd" stroke="#dddddd" cx="379" cy="-162" rx="61.1934" ry="18"/> 
<a xlink:href="http://pir.georgetown.edu/cgi-bin/pt_graphvizView.pl?togoid=0043227" ><text id="GO:0043227" onmousemove="changeToText('GO:0043227')" onmouseout="changeBackText('GO:0043227')"  text-anchor="middle" x="379" y="-157.8" font-family="Times,serif" font-size="14.00">GO:0043227</text></a>
 
</a> 
</g> 
<!-- k0&#45;&gt;j0 --> 
<g id="edge6" class="edge"><title>k0&#45;&gt;j0</title> 
<path fill="none" stroke="black" d="M361.568,-216.055C364.156,-208.176 367.297,-198.617 370.196,-189.794"/> 
<polygon fill="black" stroke="black" points="373.527,-190.868 373.324,-180.275 366.877,-188.683 373.527,-190.868"/> 
</g> 
<!-- l0 --> 
<g id="node16" class="node"><title>l0</title> 
<a xlink:href="http://pir.georgetown.edu/cgi-bin/pt_graphvizView.pl?togoid=0043229" > 
<ellipse fill="#dddddd" stroke="#dddddd" cx="238" cy="-162" rx="61.1934" ry="18"/> 
<a xlink:href="http://pir.georgetown.edu/cgi-bin/pt_graphvizView.pl?togoid=0043229" ><text id="GO:0043229" onmousemove="changeToText('GO:0043229')" onmouseout="changeBackText('GO:0043229')"  text-anchor="middle" x="238" y="-157.8" font-family="Times,serif" font-size="14.00">GO:0043229</text></a>
 
</a> 
</g> 
<!-- k0&#45;&gt;l0 --> 
<g id="edge24" class="edge"><title>k0&#45;&gt;l0</title> 
<path fill="none" stroke="black" d="M330.104,-217.638C313.197,-207.608 290.927,-194.397 272.52,-183.478"/> 
<polygon fill="black" stroke="black" points="274.221,-180.418 263.835,-178.326 270.65,-186.438 274.221,-180.418"/> 
</g> 
<!-- i0 --> 
<g id="node15" class="node"><title>i0</title> 
<a xlink:href="http://pir.georgetown.edu/cgi-bin/pt_graphvizView.pl?togoid=0043231" > 
<ellipse fill="#dddddd" stroke="#dddddd" cx="308" cy="-90" rx="61.1934" ry="18"/> 
<a xlink:href="http://pir.georgetown.edu/cgi-bin/pt_graphvizView.pl?togoid=0043231" ><text id="GO:0043231" onmousemove="changeToText('GO:0043231')" onmouseout="changeBackText('GO:0043231')"  text-anchor="middle" x="308" y="-85.8" font-family="Times,serif" font-size="14.00">GO:0043231</text></a>
 
</a> 
</g> 
<!-- j0&#45;&gt;i0 --> 
<g id="edge14" class="edge"><title>j0&#45;&gt;i0</title> 
<path fill="none" stroke="black" d="M362.174,-144.411C353.155,-135.519 341.888,-124.411 331.968,-114.631"/> 
<polygon fill="black" stroke="black" points="334.284,-111.998 324.705,-107.47 329.369,-116.983 334.284,-111.998"/> 
</g> 
<!-- g0&#45;&gt;f0 --> 
<g id="edge10" class="edge"><title>g0&#45;&gt;f0</title> 
<path fill="none" stroke="black" d="M71.8932,-288.055C77.2549,-279.715 83.8274,-269.491 89.7668,-260.252"/> 
<polygon fill="black" stroke="black" points="92.7436,-262.093 95.2071,-251.789 86.8553,-258.308 92.7436,-262.093"/> 
</g> 
<!-- f0&#45;&gt;l0 --> 
<g id="edge26" class="edge"><title>f0&#45;&gt;l0</title> 
<path fill="none" stroke="black" d="M134.317,-217.983C153.718,-207.695 179.652,-193.942 200.728,-182.765"/> 
<polygon fill="black" stroke="black" points="202.535,-185.769 209.73,-177.992 199.255,-179.585 202.535,-185.769"/> 
</g> 
<!-- e0 --> 
<g id="node19" class="node"><title>e0</title> 
<ellipse fill="#e98576" stroke="#e98576" cx="83" cy="-162" rx="75.2018" ry="18"/> 
<a xlink:href="http://pir.georgetown.edu/cgi-bin/pt_graphvizView.pl?togoid=0005737" ><text id="GO:0005737" onmousemove="changeToText('GO:0005737')" onmouseout="changeBackText('GO:0005737')"  text-anchor="middle" x="83" y="-162.8" font-family="Times,serif" font-size="14.00">GO:0005737</text></a>
<a xlink:href="http://pir.georgetown.edu/cgi-bin/pt_graphvizView.pl?tofile=618617" ><text id="r618617" onmousemove="changeToText2('r618617', 1)" onmouseout="changeBackText2('r618617', 1)"  text-anchor="middle" x="83" y="-149.8" font-family="Times,serif" font-size="14.00">(1)</text>
 
</a> 
</g> 
<!-- f0&#45;&gt;e0 --> 
<g id="edge18" class="edge"><title>f0&#45;&gt;e0</title> 
<path fill="none" stroke="black" d="M100.432,-216.055C97.8436,-208.176 94.7026,-198.617 91.8038,-189.794"/> 
<polygon fill="black" stroke="black" points="95.1229,-188.683 88.6762,-180.275 88.4727,-190.868 95.1229,-188.683"/> 
</g> 
<!-- h0 --> 
<g id="node23" class="node"><title>h0</title> 
<ellipse fill="#e98576" stroke="#e98576" cx="308" cy="-18" rx="75.2018" ry="18"/> 
<a xlink:href="http://pir.georgetown.edu/cgi-bin/pt_graphvizView.pl?togoid=0005634" ><text id="GO:0005634" onmousemove="changeToText('GO:0005634')" onmouseout="changeBackText('GO:0005634')"  text-anchor="middle" x="308" y="-18.8" font-family="Times,serif" font-size="14.00">GO:0005634</text></a>
<a xlink:href="http://pir.georgetown.edu/cgi-bin/pt_graphvizView.pl?tofile=618621" ><text id="r618621" onmousemove="changeToText2('r618621', 1)" onmouseout="changeBackText2('r618621', 1)"  text-anchor="middle" x="308" y="-5.8" font-family="Times,serif" font-size="14.00">(1)</text>
 
</a> 
</g> 
<!-- i0&#45;&gt;h0 --> 
<g id="edge22" class="edge"><title>i0&#45;&gt;h0</title> 
<path fill="none" stroke="black" d="M308,-71.6966C308,-63.9827 308,-54.7125 308,-46.1124"/> 
<polygon fill="black" stroke="black" points="311.5,-46.1043 308,-36.1043 304.5,-46.1044 311.5,-46.1043"/> 
</g> 
<!-- l0&#45;&gt;i0 --> 
<g id="edge16" class="edge"><title>l0&#45;&gt;i0</title> 
<path fill="none" stroke="black" d="M254.589,-144.411C263.481,-135.519 274.589,-124.411 284.369,-114.631"/> 
<polygon fill="black" stroke="black" points="286.934,-117.016 291.53,-107.47 281.984,-112.066 286.934,-117.016"/> 
</g> 
</g> 
<text text-anchor="left" x="4" y="-20" style="font-family:Arial Narrow;font-size:20.00;font-weight:bold;">GO Hierarchical View:</text> 

<text text-anchor="left" x="4" y="0" style="font-family:Arial Narrow;font-size:20.00;font-style:italic;">cellular component</text> 

<script type="text/ecmascript"> 
<![CDATA[ 
var targetText; 
function changeToText(z) { 
		targetText = svgDocument.getElementById(z).firstChild; 
		targetText.nodeValue="link to "+z; 
} 
function changeBackText(z) { 
		targetText = svgDocument.getElementById(z).firstChild; 
		targetText.nodeValue=z; 
} 
function changeToText2(z,n) { 
		targetText = svgDocument.getElementById(z).firstChild; 
		if (n<=1) { 
			targetText.nodeValue="link to " + n + " protein record"; 
		} else { 
			targetText.nodeValue="link to " + n + " protein records"; 
		} 
} 
function changeBackText2(z,n) { 
		targetText = svgDocument.getElementById(z).firstChild; 
		targetText.nodeValue="(" + n + ")"; 
} 
// ]]> 
</script> 
</svg> 
