<?xml version="1.0" encoding="UTF-8" standalone="no"?> 
<!DOCTYPE svg PUBLIC "-//W3C//DTD SVG 1.1//EN" 
 "http://www.w3.org/Graphics/SVG/1.1/DTD/svg11.dtd"> 
<!-- Generated by graphviz version 2.28.0 (20110622.2320) 
 --> 
<!-- Title: G Pages: 1 --> 
<svg width="2000" height="1000"  
 viewBox="-30 -50 2000 1000" xmlns="http://www.w3.org/2000/svg" xmlns:xlink="http://www.w3.org/1999/xlink"> 
<g id="graph1" class="graph" transform="scale(1 1) rotate(0) translate(4 400)"> 
<title>G</title> 
<polygon fill="white" stroke="white" points="-4,5 -4,-400 4280,-400 4280,5 -4,5"/> 
<!-- e0 --> 
<g id="node1" class="node"><title>e0</title> 
<ellipse fill="#e98576" stroke="#e98576" cx="691" cy="-306" rx="79.4447" ry="18"/> 
<a xlink:href="http://pir.georgetown.edu/cgi-bin/pt_graphvizView.pl?togoid=0003824" ><text id="GO:0003824" onmousemove="changeToText('GO:0003824')" onmouseout="changeBackText('GO:0003824')"  text-anchor="middle" x="691" y="-306.8" font-family="Times,serif" font-size="14.00">GO:0003824</text></a>
<a xlink:href="http://pir.georgetown.edu/cgi-bin/pt_graphvizView.pl?tofile=101437" ><text id="r101437" onmousemove="changeToText2('r101437', 53)" onmouseout="changeBackText2('r101437', 53)"  text-anchor="middle" x="691" y="-293.8" font-family="Times,serif" font-size="14.00">(53)</text>
 
</a> 
</g> 
<!-- v0 --> 
<g id="node3" class="node"><title>v0</title> 
<ellipse fill="#e98576" stroke="#e98576" cx="75" cy="-234" rx="75.2018" ry="18"/> 
<a xlink:href="http://pir.georgetown.edu/cgi-bin/pt_graphvizView.pl?togoid=0016853" ><text id="GO:0016853" onmousemove="changeToText('GO:0016853')" onmouseout="changeBackText('GO:0016853')"  text-anchor="middle" x="75" y="-234.8" font-family="Times,serif" font-size="14.00">GO:0016853</text></a>
<a xlink:href="http://pir.georgetown.edu/cgi-bin/pt_graphvizView.pl?tofile=101467" ><text id="r101467" onmousemove="changeToText2('r101467', 6)" onmouseout="changeBackText2('r101467', 6)"  text-anchor="middle" x="75" y="-221.8" font-family="Times,serif" font-size="14.00">(6)</text>
 
</a> 
</g> 
<!-- e0&#45;&gt;v0 --> 
<g id="edge2" class="edge"><title>e0&#45;&gt;v0</title> 
<path fill="none" stroke="black" d="M615.817,-299.9C512.499,-292.347 320.997,-276.399 159,-252 152.377,-251.002 145.486,-249.83 138.625,-248.575"/> 
<polygon fill="black" stroke="black" points="139.107,-245.104 128.631,-246.688 137.808,-251.983 139.107,-245.104"/> 
</g> 
<!-- i0 --> 
<g id="node17" class="node"><title>i0</title> 
<ellipse fill="#e98576" stroke="#e98576" cx="248" cy="-234" rx="79.4447" ry="18"/> 
<a xlink:href="http://pir.georgetown.edu/cgi-bin/pt_graphvizView.pl?togoid=0016787" ><text id="GO:0016787" onmousemove="changeToText('GO:0016787')" onmouseout="changeBackText('GO:0016787')"  text-anchor="middle" x="248" y="-234.8" font-family="Times,serif" font-size="14.00">GO:0016787</text></a>
<a xlink:href="http://pir.georgetown.edu/cgi-bin/pt_graphvizView.pl?tofile=101441" ><text id="r101441" onmousemove="changeToText2('r101441', 42)" onmouseout="changeBackText2('r101441', 42)"  text-anchor="middle" x="248" y="-221.8" font-family="Times,serif" font-size="14.00">(42)</text>
 
</a> 
</g> 
<!-- e0&#45;&gt;i0 --> 
<g id="edge28" class="edge"><title>e0&#45;&gt;i0</title> 
<path fill="none" stroke="black" d="M624.978,-295.923C553.78,-285.945 437.162,-269.057 337,-252 330.228,-250.847 323.176,-249.592 316.137,-248.304"/> 
<polygon fill="black" stroke="black" points="316.338,-244.782 305.868,-246.402 315.063,-251.665 316.338,-244.782"/> 
</g> 
<!-- d0 --> 
<g id="node22" class="node"><title>d0</title> 
<ellipse fill="#e98576" stroke="#e98576" cx="426" cy="-234" rx="79.4447" ry="18"/> 
<a xlink:href="http://pir.georgetown.edu/cgi-bin/pt_graphvizView.pl?togoid=0016491" ><text id="GO:0016491" onmousemove="changeToText('GO:0016491')" onmouseout="changeBackText('GO:0016491')"  text-anchor="middle" x="426" y="-234.8" font-family="Times,serif" font-size="14.00">GO:0016491</text></a>
<a xlink:href="http://pir.georgetown.edu/cgi-bin/pt_graphvizView.pl?tofile=101431" ><text id="r101431" onmousemove="changeToText2('r101431', 60)" onmouseout="changeBackText2('r101431', 60)"  text-anchor="middle" x="426" y="-221.8" font-family="Times,serif" font-size="14.00">(60)</text>
 
</a> 
</g> 
<!-- e0&#45;&gt;d0 --> 
<g id="edge36" class="edge"><title>e0&#45;&gt;d0</title> 
<path fill="none" stroke="black" d="M641.466,-291.916C597.271,-280.241 532.47,-263.124 485.482,-250.712"/> 
<polygon fill="black" stroke="black" points="486.302,-247.309 475.74,-248.139 484.514,-254.077 486.302,-247.309"/> 
</g> 
<!-- p0 --> 
<g id="node35" class="node"><title>p0</title> 
<ellipse fill="#e98576" stroke="#e98576" cx="604" cy="-234" rx="79.4447" ry="18"/> 
<a xlink:href="http://pir.georgetown.edu/cgi-bin/pt_graphvizView.pl?togoid=0016874" ><text id="GO:0016874" onmousemove="changeToText('GO:0016874')" onmouseout="changeBackText('GO:0016874')"  text-anchor="middle" x="604" y="-234.8" font-family="Times,serif" font-size="14.00">GO:0016874</text></a>
<a xlink:href="http://pir.georgetown.edu/cgi-bin/pt_graphvizView.pl?tofile=101455" ><text id="r101455" onmousemove="changeToText2('r101455', 11)" onmouseout="changeBackText2('r101455', 11)"  text-anchor="middle" x="604" y="-221.8" font-family="Times,serif" font-size="14.00">(11)</text>
 
</a> 
</g> 
<!-- e0&#45;&gt;p0 --> 
<g id="edge32" class="edge"><title>e0&#45;&gt;p0</title> 
<path fill="none" stroke="black" d="M670.382,-288.411C659.006,-279.257 644.71,-267.755 632.302,-257.772"/> 
<polygon fill="black" stroke="black" points="634.455,-255.012 624.47,-251.47 630.067,-260.466 634.455,-255.012"/> 
</g> 
<!-- p1 --> 
<g id="node40" class="node"><title>p1</title> 
<ellipse fill="#e98576" stroke="#e98576" cx="777" cy="-234" rx="75.2018" ry="18"/> 
<a xlink:href="http://pir.georgetown.edu/cgi-bin/pt_graphvizView.pl?togoid=0004386" ><text id="GO:0004386" onmousemove="changeToText('GO:0004386')" onmouseout="changeBackText('GO:0004386')"  text-anchor="middle" x="777" y="-234.8" font-family="Times,serif" font-size="14.00">GO:0004386</text></a>
<a xlink:href="http://pir.georgetown.edu/cgi-bin/pt_graphvizView.pl?tofile=101501" ><text id="r101501" onmousemove="changeToText2('r101501', 1)" onmouseout="changeBackText2('r101501', 1)"  text-anchor="middle" x="777" y="-221.8" font-family="Times,serif" font-size="14.00">(1)</text>
 
</a> 
</g> 
<!-- e0&#45;&gt;p1 --> 
<g id="edge38" class="edge"><title>e0&#45;&gt;p1</title> 
<path fill="none" stroke="black" d="M711.381,-288.411C722.519,-279.345 736.489,-267.974 748.673,-258.057"/> 
<polygon fill="black" stroke="black" points="751.219,-260.497 756.765,-251.47 746.8,-255.068 751.219,-260.497"/> 
</g> 
<!-- g0 --> 
<g id="node76" class="node"><title>g0</title> 
<ellipse fill="#e98576" stroke="#e98576" cx="950" cy="-234" rx="79.4447" ry="18"/> 
<a xlink:href="http://pir.georgetown.edu/cgi-bin/pt_graphvizView.pl?togoid=0016740" ><text id="GO:0016740" onmousemove="changeToText('GO:0016740')" onmouseout="changeBackText('GO:0016740')"  text-anchor="middle" x="950" y="-234.8" font-family="Times,serif" font-size="14.00">GO:0016740</text></a>
<a xlink:href="http://pir.georgetown.edu/cgi-bin/pt_graphvizView.pl?tofile=101435" ><text id="r101435" onmousemove="changeToText2('r101435', 53)" onmouseout="changeBackText2('r101435', 53)"  text-anchor="middle" x="950" y="-221.8" font-family="Times,serif" font-size="14.00">(53)</text>
 
</a> 
</g> 
<!-- e0&#45;&gt;g0 --> 
<g id="edge74" class="edge"><title>e0&#45;&gt;g0</title> 
<path fill="none" stroke="black" d="M740.02,-291.751C782.922,-280.156 845.347,-263.285 890.98,-250.951"/> 
<polygon fill="black" stroke="black" points="892,-254.301 900.74,-248.313 890.173,-247.544 892,-254.301"/> 
</g> 
<!-- m0 --> 
<g id="node82" class="node"><title>m0</title> 
<ellipse fill="#e98576" stroke="#e98576" cx="1128" cy="-234" rx="79.4447" ry="18"/> 
<a xlink:href="http://pir.georgetown.edu/cgi-bin/pt_graphvizView.pl?togoid=0016829" ><text id="GO:0016829" onmousemove="changeToText('GO:0016829')" onmouseout="changeBackText('GO:0016829')"  text-anchor="middle" x="1128" y="-234.8" font-family="Times,serif" font-size="14.00">GO:0016829</text></a>
<a xlink:href="http://pir.georgetown.edu/cgi-bin/pt_graphvizView.pl?tofile=101449" ><text id="r101449" onmousemove="changeToText2('r101449', 21)" onmouseout="changeBackText2('r101449', 21)"  text-anchor="middle" x="1128" y="-221.8" font-family="Times,serif" font-size="14.00">(21)</text>
 
</a> 
</g> 
<!-- e0&#45;&gt;m0 --> 
<g id="edge80" class="edge"><title>e0&#45;&gt;m0</title> 
<path fill="none" stroke="black" d="M756.344,-295.718C826.179,-285.635 940.082,-268.72 1038,-252 1045,-250.804 1052.31,-249.507 1059.59,-248.182"/> 
<polygon fill="black" stroke="black" points="1060.27,-251.615 1069.47,-246.363 1059.01,-244.73 1060.27,-251.615"/> 
</g> 
<!-- c0 --> 
<g id="node4" class="node"><title>c0</title> 
<a xlink:href="http://pir.georgetown.edu/cgi-bin/pt_graphvizView.pl?togoid=0003674" > 
<ellipse fill="#dddddd" stroke="#dddddd" cx="2905" cy="-378" rx="61.1934" ry="18"/> 
<a xlink:href="http://pir.georgetown.edu/cgi-bin/pt_graphvizView.pl?togoid=0003674" ><text id="GO:0003674" onmousemove="changeToText('GO:0003674')" onmouseout="changeBackText('GO:0003674')"  text-anchor="middle" x="2905" y="-373.8" font-family="Times,serif" font-size="14.00">GO:0003674</text></a>
 
</a> 
</g> 
<!-- c0&#45;&gt;e0 --> 
<g id="edge54" class="edge"><title>c0&#45;&gt;e0</title> 
<path fill="none" stroke="black" d="M2844.34,-375.082C2536.23,-365.341 1144.86,-321.35 779.237,-309.79"/> 
<polygon fill="black" stroke="black" points="779.342,-306.291 769.237,-309.474 779.121,-313.288 779.342,-306.291"/> 
</g> 
<!-- t0 --> 
<g id="node6" class="node"><title>t0</title> 
<ellipse fill="#e98576" stroke="#e98576" cx="2475" cy="-306" rx="75.2018" ry="18"/> 
<a xlink:href="http://pir.georgetown.edu/cgi-bin/pt_graphvizView.pl?togoid=0030234" ><text id="GO:0030234" onmousemove="changeToText('GO:0030234')" onmouseout="changeBackText('GO:0030234')"  text-anchor="middle" x="2475" y="-306.8" font-family="Times,serif" font-size="14.00">GO:0030234</text></a>
<a xlink:href="http://pir.georgetown.edu/cgi-bin/pt_graphvizView.pl?tofile=101463" ><text id="r101463" onmousemove="changeToText2('r101463', 7)" onmouseout="changeBackText2('r101463', 7)"  text-anchor="middle" x="2475" y="-293.8" font-family="Times,serif" font-size="14.00">(7)</text>
 
</a> 
</g> 
<!-- c0&#45;&gt;t0 --> 
<g id="edge4" class="edge"><title>c0&#45;&gt;t0</title> 
<path fill="none" stroke="black" d="M2850.93,-369.532C2782.73,-359.925 2661.91,-342.285 2559,-324 2552.75,-322.89 2546.25,-321.677 2539.76,-320.428"/> 
<polygon fill="black" stroke="black" points="2540.09,-316.926 2529.6,-318.443 2538.75,-323.796 2540.09,-316.926"/> 
</g> 
<!-- b0 --> 
<g id="node7" class="node"><title>b0</title> 
<ellipse fill="#e98576" stroke="#e98576" cx="2643" cy="-306" rx="75.2018" ry="18"/> 
<a xlink:href="http://pir.georgetown.edu/cgi-bin/pt_graphvizView.pl?togoid=0005488" ><text id="GO:0005488" onmousemove="changeToText('GO:0005488')" onmouseout="changeBackText('GO:0005488')"  text-anchor="middle" x="2643" y="-306.8" font-family="Times,serif" font-size="14.00">GO:0005488</text></a>
<a xlink:href="http://pir.georgetown.edu/cgi-bin/pt_graphvizView.pl?tofile=101475" ><text id="r101475" onmousemove="changeToText2('r101475', 4)" onmouseout="changeBackText2('r101475', 4)"  text-anchor="middle" x="2643" y="-293.8" font-family="Times,serif" font-size="14.00">(4)</text>
 
</a> 
</g> 
<!-- c0&#45;&gt;b0 --> 
<g id="edge12" class="edge"><title>c0&#45;&gt;b0</title> 
<path fill="none" stroke="black" d="M2861.15,-365.284C2817.26,-353.559 2749.5,-335.455 2701.15,-322.537"/> 
<polygon fill="black" stroke="black" points="2702.01,-319.144 2691.45,-319.944 2700.21,-325.907 2702.01,-319.144"/> 
</g> 
<!-- q0 --> 
<g id="node26" class="node"><title>q0</title> 
<ellipse fill="#e98576" stroke="#e98576" cx="2816" cy="-306" rx="79.4447" ry="18"/> 
<a xlink:href="http://pir.georgetown.edu/cgi-bin/pt_graphvizView.pl?togoid=0005215" ><text id="GO:0005215" onmousemove="changeToText('GO:0005215')" onmouseout="changeBackText('GO:0005215')"  text-anchor="middle" x="2816" y="-306.8" font-family="Times,serif" font-size="14.00">GO:0005215</text></a>
<a xlink:href="http://pir.georgetown.edu/cgi-bin/pt_graphvizView.pl?tofile=101457" ><text id="r101457" onmousemove="changeToText2('r101457', 10)" onmouseout="changeBackText2('r101457', 10)"  text-anchor="middle" x="2816" y="-293.8" font-family="Times,serif" font-size="14.00">(10)</text>
 
</a> 
</g> 
<!-- c0&#45;&gt;q0 --> 
<g id="edge22" class="edge"><title>c0&#45;&gt;q0</title> 
<path fill="none" stroke="black" d="M2884.36,-360.765C2872.65,-351.554 2857.81,-339.882 2844.95,-329.769"/> 
<polygon fill="black" stroke="black" points="2846.86,-326.821 2836.84,-323.39 2842.53,-332.323 2846.86,-326.821"/> 
</g> 
<!-- l0 --> 
<g id="node44" class="node"><title>l0</title> 
<ellipse fill="#e98576" stroke="#e98576" cx="2994" cy="-306" rx="79.4447" ry="18"/> 
<a xlink:href="http://pir.georgetown.edu/cgi-bin/pt_graphvizView.pl?togoid=0005198" ><text id="GO:0005198" onmousemove="changeToText('GO:0005198')" onmouseout="changeBackText('GO:0005198')"  text-anchor="middle" x="2994" y="-306.8" font-family="Times,serif" font-size="14.00">GO:0005198</text></a>
<a xlink:href="http://pir.georgetown.edu/cgi-bin/pt_graphvizView.pl?tofile=101447" ><text id="r101447" onmousemove="changeToText2('r101447', 22)" onmouseout="changeBackText2('r101447', 22)"  text-anchor="middle" x="2994" y="-293.8" font-family="Times,serif" font-size="14.00">(22)</text>
 
</a> 
</g> 
<!-- c0&#45;&gt;l0 --> 
<g id="edge42" class="edge"><title>c0&#45;&gt;l0</title> 
<path fill="none" stroke="black" d="M2925.64,-360.765C2937.35,-351.554 2952.19,-339.882 2965.05,-329.769"/> 
<polygon fill="black" stroke="black" points="2967.47,-332.323 2973.16,-323.39 2963.14,-326.821 2967.47,-332.323"/> 
</g> 
<!-- g1 --> 
<g id="node64" class="node"><title>g1</title> 
<a xlink:href="http://pir.georgetown.edu/cgi-bin/pt_graphvizView.pl?togoid=0060089" > 
<ellipse fill="#dddddd" stroke="#dddddd" cx="3153" cy="-306" rx="61.1934" ry="18"/> 
<a xlink:href="http://pir.georgetown.edu/cgi-bin/pt_graphvizView.pl?togoid=0060089" ><text id="GO:0060089" onmousemove="changeToText('GO:0060089')" onmouseout="changeBackText('GO:0060089')"  text-anchor="middle" x="3153" y="-301.8" font-family="Times,serif" font-size="14.00">GO:0060089</text></a>
 
</a> 
</g> 
<!-- c0&#45;&gt;g1 --> 
<g id="edge84" class="edge"><title>c0&#45;&gt;g1</title> 
<path fill="none" stroke="black" d="M2947.63,-364.967C2990.08,-352.985 3055.31,-334.575 3100.82,-321.727"/> 
<polygon fill="black" stroke="black" points="3101.84,-325.078 3110.51,-318.993 3099.93,-318.341 3101.84,-325.078"/> 
</g> 
<!-- s0 --> 
<g id="node67" class="node"><title>s0</title> 
<ellipse fill="#e98576" stroke="#e98576" cx="3308" cy="-306" rx="75.2018" ry="18"/> 
<a xlink:href="http://pir.georgetown.edu/cgi-bin/pt_graphvizView.pl?togoid=0016209" ><text id="GO:0016209" onmousemove="changeToText('GO:0016209')" onmouseout="changeBackText('GO:0016209')"  text-anchor="middle" x="3308" y="-306.8" font-family="Times,serif" font-size="14.00">GO:0016209</text></a>
<a xlink:href="http://pir.georgetown.edu/cgi-bin/pt_graphvizView.pl?tofile=101461" ><text id="r101461" onmousemove="changeToText2('r101461', 7)" onmouseout="changeBackText2('r101461', 7)"  text-anchor="middle" x="3308" y="-293.8" font-family="Times,serif" font-size="14.00">(7)</text>
 
</a> 
</g> 
<!-- c0&#45;&gt;s0 --> 
<g id="edge64" class="edge"><title>c0&#45;&gt;s0</title> 
<path fill="none" stroke="black" d="M2957.7,-368.75C3020.85,-358.74 3129.82,-341.078 3223,-324 3229.31,-322.843 3235.88,-321.599 3242.45,-320.33"/> 
<polygon fill="black" stroke="black" points="3243.58,-323.675 3252.72,-318.324 3242.24,-316.805 3243.58,-323.675"/> 
</g> 
<!-- d1 --> 
<g id="node69" class="node"><title>d1</title> 
<ellipse fill="#e98576" stroke="#e98576" cx="3476" cy="-306" rx="75.2018" ry="18"/> 
<a xlink:href="http://pir.georgetown.edu/cgi-bin/pt_graphvizView.pl?togoid=0045735" ><text id="GO:0045735" onmousemove="changeToText('GO:0045735')" onmouseout="changeBackText('GO:0045735')"  text-anchor="middle" x="3476" y="-306.8" font-family="Times,serif" font-size="14.00">GO:0045735</text></a>
<a xlink:href="http://pir.georgetown.edu/cgi-bin/pt_graphvizView.pl?tofile=101479" ><text id="r101479" onmousemove="changeToText2('r101479', 4)" onmouseout="changeBackText2('r101479', 4)"  text-anchor="middle" x="3476" y="-293.8" font-family="Times,serif" font-size="14.00">(4)</text>
 
</a> 
</g> 
<!-- c0&#45;&gt;d1 --> 
<g id="edge66" class="edge"><title>c0&#45;&gt;d1</title> 
<path fill="none" stroke="black" d="M2963.32,-372.386C3054.93,-364.748 3238,-347.913 3392,-324 3398.62,-322.972 3405.51,-321.78 3412.37,-320.514"/> 
<polygon fill="black" stroke="black" points="3413.19,-323.92 3422.36,-318.615 3411.88,-317.043 3413.19,-323.92"/> 
</g> 
<!-- o1 --> 
<g id="node9" class="node"><title>o1</title> 
<ellipse fill="#e98576" stroke="#e98576" cx="1301" cy="-234" rx="75.2018" ry="18"/> 
<a xlink:href="http://pir.georgetown.edu/cgi-bin/pt_graphvizView.pl?togoid=0042277" ><text id="GO:0042277" onmousemove="changeToText('GO:0042277')" onmouseout="changeBackText('GO:0042277')"  text-anchor="middle" x="1301" y="-234.8" font-family="Times,serif" font-size="14.00">GO:0042277</text></a>
<a xlink:href="http://pir.georgetown.edu/cgi-bin/pt_graphvizView.pl?tofile=101499" ><text id="r101499" onmousemove="changeToText2('r101499', 2)" onmouseout="changeBackText2('r101499', 2)"  text-anchor="middle" x="1301" y="-221.8" font-family="Times,serif" font-size="14.00">(2)</text>
 
</a> 
</g> 
<!-- b0&#45;&gt;o1 --> 
<g id="edge6" class="edge"><title>b0&#45;&gt;o1</title> 
<path fill="none" stroke="black" d="M2590.79,-293.014C2580.31,-291.01 2569.35,-289.197 2559,-288 2040.44,-228.012 1903.56,-311.988 1385,-252 1377.89,-251.177 1370.48,-250.063 1363.14,-248.796"/> 
<polygon fill="black" stroke="black" points="1363.67,-245.335 1353.21,-246.986 1362.42,-252.222 1363.67,-245.335"/> 
</g> 
<!-- o0 --> 
<g id="node11" class="node"><title>o0</title> 
<ellipse fill="#e98576" stroke="#e98576" cx="1474" cy="-234" rx="79.4447" ry="18"/> 
<a xlink:href="http://pir.georgetown.edu/cgi-bin/pt_graphvizView.pl?togoid=0005515" ><text id="GO:0005515" onmousemove="changeToText('GO:0005515')" onmouseout="changeBackText('GO:0005515')"  text-anchor="middle" x="1474" y="-234.8" font-family="Times,serif" font-size="14.00">GO:0005515</text></a>
<a xlink:href="http://pir.georgetown.edu/cgi-bin/pt_graphvizView.pl?tofile=101453" ><text id="r101453" onmousemove="changeToText2('r101453', 15)" onmouseout="changeBackText2('r101453', 15)"  text-anchor="middle" x="1474" y="-221.8" font-family="Times,serif" font-size="14.00">(15)</text>
 
</a> 
</g> 
<!-- b0&#45;&gt;o0 --> 
<g id="edge8" class="edge"><title>b0&#45;&gt;o0</title> 
<path fill="none" stroke="black" d="M2590.79,-293.058C2580.31,-291.051 2569.34,-289.225 2559,-288 2119.12,-235.894 2003.16,-301.698 1563,-252 1555.31,-251.131 1547.28,-249.968 1539.34,-248.656"/> 
<polygon fill="black" stroke="black" points="1539.8,-245.184 1529.35,-246.925 1538.6,-252.081 1539.8,-245.184"/> 
</g> 
<!-- l1 --> 
<g id="node13" class="node"><title>l1</title> 
<ellipse fill="#e98576" stroke="#e98576" cx="1647" cy="-234" rx="75.2018" ry="18"/> 
<a xlink:href="http://pir.georgetown.edu/cgi-bin/pt_graphvizView.pl?togoid=0043021" ><text id="GO:0043021" onmousemove="changeToText('GO:0043021')" onmouseout="changeBackText('GO:0043021')"  text-anchor="middle" x="1647" y="-234.8" font-family="Times,serif" font-size="14.00">GO:0043021</text></a>
<a xlink:href="http://pir.georgetown.edu/cgi-bin/pt_graphvizView.pl?tofile=101493" ><text id="r101493" onmousemove="changeToText2('r101493', 2)" onmouseout="changeBackText2('r101493', 2)"  text-anchor="middle" x="1647" y="-221.8" font-family="Times,serif" font-size="14.00">(2)</text>
 
</a> 
</g> 
<!-- b0&#45;&gt;l1 --> 
<g id="edge10" class="edge"><title>b0&#45;&gt;l1</title> 
<path fill="none" stroke="black" d="M2590.33,-293.032C2579.99,-291.054 2569.19,-289.245 2559,-288 2193.37,-243.331 2096.63,-296.669 1731,-252 1724.15,-251.164 1717.03,-250.072 1709.96,-248.847"/> 
<polygon fill="black" stroke="black" points="1710.14,-245.321 1699.67,-246.968 1708.88,-252.207 1710.14,-245.321"/> 
</g> 
<!-- n1 --> 
<g id="node16" class="node"><title>n1</title> 
<ellipse fill="#e98576" stroke="#e98576" cx="1815" cy="-234" rx="75.2018" ry="18"/> 
<a xlink:href="http://pir.georgetown.edu/cgi-bin/pt_graphvizView.pl?togoid=0042562" ><text id="GO:0042562" onmousemove="changeToText('GO:0042562')" onmouseout="changeBackText('GO:0042562')"  text-anchor="middle" x="1815" y="-234.8" font-family="Times,serif" font-size="14.00">GO:0042562</text></a>
<a xlink:href="http://pir.georgetown.edu/cgi-bin/pt_graphvizView.pl?tofile=101497" ><text id="r101497" onmousemove="changeToText2('r101497', 2)" onmouseout="changeBackText2('r101497', 2)"  text-anchor="middle" x="1815" y="-221.8" font-family="Times,serif" font-size="14.00">(2)</text>
 
</a> 
</g> 
<!-- b0&#45;&gt;n1 --> 
<g id="edge14" class="edge"><title>b0&#45;&gt;n1</title> 
<path fill="none" stroke="black" d="M2590.32,-293.122C2579.98,-291.136 2569.18,-289.301 2559,-288 2267.6,-250.766 2190.4,-289.234 1899,-252 1892.16,-251.126 1885.04,-250.011 1877.97,-248.771"/> 
<polygon fill="black" stroke="black" points="1878.15,-245.245 1867.68,-246.878 1876.88,-252.13 1878.15,-245.245"/> 
</g> 
<!-- q1 --> 
<g id="node21" class="node"><title>q1</title> 
<ellipse fill="#e98576" stroke="#e98576" cx="1983" cy="-234" rx="75.2018" ry="18"/> 
<a xlink:href="http://pir.georgetown.edu/cgi-bin/pt_graphvizView.pl?togoid=0005496" ><text id="GO:0005496" onmousemove="changeToText('GO:0005496')" onmouseout="changeBackText('GO:0005496')"  text-anchor="middle" x="1983" y="-234.8" font-family="Times,serif" font-size="14.00">GO:0005496</text></a>
<a xlink:href="http://pir.georgetown.edu/cgi-bin/pt_graphvizView.pl?tofile=101503" ><text id="r101503" onmousemove="changeToText2('r101503', 1)" onmouseout="changeBackText2('r101503', 1)"  text-anchor="middle" x="1983" y="-221.8" font-family="Times,serif" font-size="14.00">(1)</text>
 
</a> 
</g> 
<!-- b0&#45;&gt;q1 --> 
<g id="edge18" class="edge"><title>b0&#45;&gt;q1</title> 
<path fill="none" stroke="black" d="M2589.85,-293.186C2579.65,-291.22 2569.02,-289.375 2559,-288 2341.78,-258.195 2284.22,-281.805 2067,-252 2060.27,-251.076 2053.26,-249.94 2046.29,-248.698"/> 
<polygon fill="black" stroke="black" points="2046.62,-245.199 2036.15,-246.814 2045.34,-252.081 2046.62,-245.199"/> 
</g> 
<!-- f0 --> 
<g id="node28" class="node"><title>f0</title> 
<ellipse fill="#e98576" stroke="#e98576" cx="2156" cy="-234" rx="79.4447" ry="18"/> 
<a xlink:href="http://pir.georgetown.edu/cgi-bin/pt_graphvizView.pl?togoid=0043167" ><text id="GO:0043167" onmousemove="changeToText('GO:0043167')" onmouseout="changeBackText('GO:0043167')"  text-anchor="middle" x="2156" y="-234.8" font-family="Times,serif" font-size="14.00">GO:0043167</text></a>
<a xlink:href="http://pir.georgetown.edu/cgi-bin/pt_graphvizView.pl?tofile=101433" ><text id="r101433" onmousemove="changeToText2('r101433', 58)" onmouseout="changeBackText2('r101433', 58)"  text-anchor="middle" x="2156" y="-221.8" font-family="Times,serif" font-size="14.00">(58)</text>
 
</a> 
</g> 
<!-- b0&#45;&gt;f0 --> 
<g id="edge24" class="edge"><title>b0&#45;&gt;f0</title> 
<path fill="none" stroke="black" d="M2588.9,-293.343C2578.98,-291.408 2568.7,-289.535 2559,-288 2420.26,-266.048 2383.86,-273.192 2245,-252 2237.94,-250.923 2230.59,-249.694 2223.27,-248.4"/> 
<polygon fill="black" stroke="black" points="2223.81,-244.94 2213.34,-246.604 2222.56,-251.828 2223.81,-244.94"/> 
</g> 
<!-- c1 --> 
<g id="node30" class="node"><title>c1</title> 
<a xlink:href="http://pir.georgetown.edu/cgi-bin/pt_graphvizView.pl?togoid=0043176" > 
<ellipse fill="#dddddd" stroke="#dddddd" cx="2315" cy="-234" rx="61.1934" ry="18"/> 
<a xlink:href="http://pir.georgetown.edu/cgi-bin/pt_graphvizView.pl?togoid=0043176" ><text id="GO:0043176" onmousemove="changeToText('GO:0043176')" onmouseout="changeBackText('GO:0043176')"  text-anchor="middle" x="2315" y="-229.8" font-family="Times,serif" font-size="14.00">GO:0043176</text></a>
 
</a> 
</g> 
<!-- b0&#45;&gt;c1 --> 
<g id="edge26" class="edge"><title>b0&#45;&gt;c1</title> 
<path fill="none" stroke="black" d="M2587.71,-293.812C2524.13,-280.908 2423.69,-260.395 2386,-252 2380.95,-250.875 2375.7,-249.676 2370.45,-248.456"/> 
<polygon fill="black" stroke="black" points="2370.94,-244.974 2360.4,-246.097 2369.34,-251.789 2370.94,-244.974"/> 
</g> 
<!-- j1 --> 
<g id="node33" class="node"><title>j1</title> 
<ellipse fill="#e98576" stroke="#e98576" cx="2470" cy="-234" rx="75.2018" ry="18"/> 
<a xlink:href="http://pir.georgetown.edu/cgi-bin/pt_graphvizView.pl?togoid=0030246" ><text id="GO:0030246" onmousemove="changeToText('GO:0030246')" onmouseout="changeBackText('GO:0030246')"  text-anchor="middle" x="2470" y="-234.8" font-family="Times,serif" font-size="14.00">GO:0030246</text></a>
<a xlink:href="http://pir.georgetown.edu/cgi-bin/pt_graphvizView.pl?tofile=101487" ><text id="r101487" onmousemove="changeToText2('r101487', 3)" onmouseout="changeBackText2('r101487', 3)"  text-anchor="middle" x="2470" y="-221.8" font-family="Times,serif" font-size="14.00">(3)</text>
 
</a> 
</g> 
<!-- b0&#45;&gt;j1 --> 
<g id="edge30" class="edge"><title>b0&#45;&gt;j1</title> 
<path fill="none" stroke="black" d="M2606.31,-290.155C2579.93,-279.482 2544.18,-265.016 2515.91,-253.577"/> 
<polygon fill="black" stroke="black" points="2517.22,-250.33 2506.64,-249.824 2514.59,-256.819 2517.22,-250.33"/> 
</g> 
<!-- j0 --> 
<g id="node37" class="node"><title>j0</title> 
<ellipse fill="#e98576" stroke="#e98576" cx="2643" cy="-234" rx="79.4447" ry="18"/> 
<a xlink:href="http://pir.georgetown.edu/cgi-bin/pt_graphvizView.pl?togoid=0003676" ><text id="GO:0003676" onmousemove="changeToText('GO:0003676')" onmouseout="changeBackText('GO:0003676')"  text-anchor="middle" x="2643" y="-234.8" font-family="Times,serif" font-size="14.00">GO:0003676</text></a>
<a xlink:href="http://pir.georgetown.edu/cgi-bin/pt_graphvizView.pl?tofile=101443" ><text id="r101443" onmousemove="changeToText2('r101443', 37)" onmouseout="changeBackText2('r101443', 37)"  text-anchor="middle" x="2643" y="-221.8" font-family="Times,serif" font-size="14.00">(37)</text>
 
</a> 
</g> 
<!-- b0&#45;&gt;j0 --> 
<g id="edge34" class="edge"><title>b0&#45;&gt;j0</title> 
<path fill="none" stroke="black" d="M2643,-287.697C2643,-279.983 2643,-270.712 2643,-262.112"/> 
<polygon fill="black" stroke="black" points="2646.5,-262.104 2643,-252.104 2639.5,-262.104 2646.5,-262.104"/> 
</g> 
<!-- i1 --> 
<g id="node42" class="node"><title>i1</title> 
<ellipse fill="#e98576" stroke="#e98576" cx="2816" cy="-234" rx="75.2018" ry="18"/> 
<a xlink:href="http://pir.georgetown.edu/cgi-bin/pt_graphvizView.pl?togoid=0001871" ><text id="GO:0001871" onmousemove="changeToText('GO:0001871')" onmouseout="changeBackText('GO:0001871')"  text-anchor="middle" x="2816" y="-234.8" font-family="Times,serif" font-size="14.00">GO:0001871</text></a>
<a xlink:href="http://pir.georgetown.edu/cgi-bin/pt_graphvizView.pl?tofile=101485" ><text id="r101485" onmousemove="changeToText2('r101485', 3)" onmouseout="changeBackText2('r101485', 3)"  text-anchor="middle" x="2816" y="-221.8" font-family="Times,serif" font-size="14.00">(3)</text>
 
</a> 
</g> 
<!-- b0&#45;&gt;i1 --> 
<g id="edge40" class="edge"><title>b0&#45;&gt;i1</title> 
<path fill="none" stroke="black" d="M2679.69,-290.155C2706.07,-279.482 2741.82,-265.016 2770.09,-253.577"/> 
<polygon fill="black" stroke="black" points="2771.41,-256.819 2779.36,-249.824 2768.78,-250.33 2771.41,-256.819"/> 
</g> 
<!-- k0 --> 
<g id="node46" class="node"><title>k0</title> 
<ellipse fill="#e98576" stroke="#e98576" cx="2989" cy="-234" rx="79.4447" ry="18"/> 
<a xlink:href="http://pir.georgetown.edu/cgi-bin/pt_graphvizView.pl?togoid=0048037" ><text id="GO:0048037" onmousemove="changeToText('GO:0048037')" onmouseout="changeBackText('GO:0048037')"  text-anchor="middle" x="2989" y="-234.8" font-family="Times,serif" font-size="14.00">GO:0048037</text></a>
<a xlink:href="http://pir.georgetown.edu/cgi-bin/pt_graphvizView.pl?tofile=101445" ><text id="r101445" onmousemove="changeToText2('r101445', 30)" onmouseout="changeBackText2('r101445', 30)"  text-anchor="middle" x="2989" y="-221.8" font-family="Times,serif" font-size="14.00">(30)</text>
 
</a> 
</g> 
<!-- b0&#45;&gt;k0 --> 
<g id="edge44" class="edge"><title>b0&#45;&gt;k0</title> 
<path fill="none" stroke="black" d="M2698.59,-293.753C2759.34,-281.464 2856.65,-261.777 2921.67,-248.621"/> 
<polygon fill="black" stroke="black" points="2922.71,-251.982 2931.82,-246.568 2921.32,-245.121 2922.71,-251.982"/> 
</g> 
<!-- h0 --> 
<g id="node59" class="node"><title>h0</title> 
<ellipse fill="#e98576" stroke="#e98576" cx="3167" cy="-234" rx="79.4447" ry="18"/> 
<a xlink:href="http://pir.georgetown.edu/cgi-bin/pt_graphvizView.pl?togoid=0001882" ><text id="GO:0001882" onmousemove="changeToText('GO:0001882')" onmouseout="changeBackText('GO:0001882')"  text-anchor="middle" x="3167" y="-234.8" font-family="Times,serif" font-size="14.00">GO:0001882</text></a>
<a xlink:href="http://pir.georgetown.edu/cgi-bin/pt_graphvizView.pl?tofile=101439" ><text id="r101439" onmousemove="changeToText2('r101439', 44)" onmouseout="changeBackText2('r101439', 44)"  text-anchor="middle" x="3167" y="-221.8" font-family="Times,serif" font-size="14.00">(44)</text>
 
</a> 
</g> 
<!-- b0&#45;&gt;h0 --> 
<g id="edge56" class="edge"><title>b0&#45;&gt;h0</title> 
<path fill="none" stroke="black" d="M2696.64,-293.337C2706.69,-291.38 2717.14,-289.5 2727,-288 2881.59,-264.463 2922.26,-274.532 3077,-252 3084.33,-250.933 3091.97,-249.691 3099.57,-248.373"/> 
<polygon fill="black" stroke="black" points="3100.27,-251.803 3109.51,-246.606 3099.05,-244.912 3100.27,-251.803"/> 
</g> 
<!-- k1 --> 
<g id="node61" class="node"><title>k1</title> 
<ellipse fill="#e98576" stroke="#e98576" cx="3340" cy="-234" rx="75.2018" ry="18"/> 
<a xlink:href="http://pir.georgetown.edu/cgi-bin/pt_graphvizView.pl?togoid=0019842" ><text id="GO:0019842" onmousemove="changeToText('GO:0019842')" onmouseout="changeBackText('GO:0019842')"  text-anchor="middle" x="3340" y="-234.8" font-family="Times,serif" font-size="14.00">GO:0019842</text></a>
<a xlink:href="http://pir.georgetown.edu/cgi-bin/pt_graphvizView.pl?tofile=101489" ><text id="r101489" onmousemove="changeToText2('r101489', 2)" onmouseout="changeBackText2('r101489', 2)"  text-anchor="middle" x="3340" y="-221.8" font-family="Times,serif" font-size="14.00">(2)</text>
 
</a> 
</g> 
<!-- b0&#45;&gt;k1 --> 
<g id="edge58" class="edge"><title>b0&#45;&gt;k1</title> 
<path fill="none" stroke="black" d="M2696.15,-293.146C2706.35,-291.183 2716.97,-289.351 2727,-288 2960.11,-256.604 3021.86,-283.129 3255,-252 3262.08,-251.055 3269.45,-249.877 3276.76,-248.584"/> 
<polygon fill="black" stroke="black" points="3277.47,-252.013 3286.67,-246.761 3276.2,-245.128 3277.47,-252.013"/> 
</g> 
<!-- m1 --> 
<g id="node71" class="node"><title>m1</title> 
<ellipse fill="#e98576" stroke="#e98576" cx="3508" cy="-234" rx="75.2018" ry="18"/> 
<a xlink:href="http://pir.georgetown.edu/cgi-bin/pt_graphvizView.pl?togoid=0031406" ><text id="GO:0031406" onmousemove="changeToText('GO:0031406')" onmouseout="changeBackText('GO:0031406')"  text-anchor="middle" x="3508" y="-234.8" font-family="Times,serif" font-size="14.00">GO:0031406</text></a>
<a xlink:href="http://pir.georgetown.edu/cgi-bin/pt_graphvizView.pl?tofile=101495" ><text id="r101495" onmousemove="changeToText2('r101495', 2)" onmouseout="changeBackText2('r101495', 2)"  text-anchor="middle" x="3508" y="-221.8" font-family="Times,serif" font-size="14.00">(2)</text>
 
</a> 
</g> 
<!-- b0&#45;&gt;m1 --> 
<g id="edge68" class="edge"><title>b0&#45;&gt;m1</title> 
<path fill="none" stroke="black" d="M2695.68,-293.099C2706.02,-291.115 2716.81,-289.287 2727,-288 3034.75,-249.129 3116.25,-290.871 3424,-252 3430.84,-251.136 3437.96,-250.027 3445.03,-248.79"/> 
<polygon fill="black" stroke="black" points="3446.12,-252.15 3455.32,-246.901 3444.85,-245.265 3446.12,-252.15"/> 
</g> 
<!-- n0 --> 
<g id="node78" class="node"><title>n0</title> 
<ellipse fill="#e98576" stroke="#e98576" cx="3681" cy="-234" rx="79.4447" ry="18"/> 
<a xlink:href="http://pir.georgetown.edu/cgi-bin/pt_graphvizView.pl?togoid=0046906" ><text id="GO:0046906" onmousemove="changeToText('GO:0046906')" onmouseout="changeBackText('GO:0046906')"  text-anchor="middle" x="3681" y="-234.8" font-family="Times,serif" font-size="14.00">GO:0046906</text></a>
<a xlink:href="http://pir.georgetown.edu/cgi-bin/pt_graphvizView.pl?tofile=101451" ><text id="r101451" onmousemove="changeToText2('r101451', 18)" onmouseout="changeBackText2('r101451', 18)"  text-anchor="middle" x="3681" y="-221.8" font-family="Times,serif" font-size="14.00">(18)</text>
 
</a> 
</g> 
<!-- b0&#45;&gt;n0 --> 
<g id="edge76" class="edge"><title>b0&#45;&gt;n0</title> 
<path fill="none" stroke="black" d="M2695.67,-293.017C2706.01,-291.04 2716.81,-289.236 2727,-288 3108.98,-241.693 3209.77,-296.215 3592,-252 3599.5,-251.133 3607.31,-249.993 3615.06,-248.715"/> 
<polygon fill="black" stroke="black" points="3615.91,-252.118 3625.17,-246.964 3614.72,-245.221 3615.91,-252.118"/> 
</g> 
<!-- a0 --> 
<g id="node80" class="node"><title>a0</title> 
<ellipse fill="#e98576" stroke="#e98576" cx="3859" cy="-234" rx="79.4447" ry="18"/> 
<a xlink:href="http://pir.georgetown.edu/cgi-bin/pt_graphvizView.pl?togoid=0000166" ><text id="GO:0000166" onmousemove="changeToText('GO:0000166')" onmouseout="changeBackText('GO:0000166')"  text-anchor="middle" x="3859" y="-234.8" font-family="Times,serif" font-size="14.00">GO:0000166</text></a>
<a xlink:href="http://pir.georgetown.edu/cgi-bin/pt_graphvizView.pl?tofile=101429" ><text id="r101429" onmousemove="changeToText2('r101429', 70)" onmouseout="changeBackText2('r101429', 70)"  text-anchor="middle" x="3859" y="-221.8" font-family="Times,serif" font-size="14.00">(70)</text>
 
</a> 
</g> 
<!-- b0&#45;&gt;a0 --> 
<g id="edge78" class="edge"><title>b0&#45;&gt;a0</title> 
<path fill="none" stroke="black" d="M2695.21,-293.045C2705.69,-291.039 2716.66,-289.217 2727,-288 3187.21,-233.857 3308.44,-303.152 3769,-252 3776.78,-251.136 3784.89,-249.976 3792.93,-248.665"/> 
<polygon fill="black" stroke="black" points="3793.76,-252.073 3803.03,-246.936 3792.58,-245.174 3793.76,-252.073"/> 
</g> 
<!-- a1 --> 
<g id="node84" class="node"><title>a1</title> 
<ellipse fill="#e98576" stroke="#e98576" cx="4032" cy="-234" rx="75.2018" ry="18"/> 
<a xlink:href="http://pir.georgetown.edu/cgi-bin/pt_graphvizView.pl?togoid=0051540" ><text id="GO:0051540" onmousemove="changeToText('GO:0051540')" onmouseout="changeBackText('GO:0051540')"  text-anchor="middle" x="4032" y="-234.8" font-family="Times,serif" font-size="14.00">GO:0051540</text></a>
<a xlink:href="http://pir.georgetown.edu/cgi-bin/pt_graphvizView.pl?tofile=101473" ><text id="r101473" onmousemove="changeToText2('r101473', 4)" onmouseout="changeBackText2('r101473', 4)"  text-anchor="middle" x="4032" y="-221.8" font-family="Times,serif" font-size="14.00">(4)</text>
 
</a> 
</g> 
<!-- b0&#45;&gt;a1 --> 
<g id="edge82" class="edge"><title>b0&#45;&gt;a1</title> 
<path fill="none" stroke="black" d="M2695.21,-293.004C2705.68,-291.002 2716.65,-289.191 2727,-288 3265.9,-225.975 3408.03,-313.409 3947,-252 3954.38,-251.159 3962.08,-250.01 3969.69,-248.703"/> 
<polygon fill="black" stroke="black" points="3970.4,-252.132 3979.62,-246.907 3969.16,-245.243 3970.4,-252.132"/> 
</g> 
<!-- u0 --> 
<g id="node19" class="node"><title>u0</title> 
<ellipse fill="#e98576" stroke="#e98576" cx="80" cy="-162" rx="75.2018" ry="18"/> 
<a xlink:href="http://pir.georgetown.edu/cgi-bin/pt_graphvizView.pl?togoid=0008233" ><text id="GO:0008233" onmousemove="changeToText('GO:0008233')" onmouseout="changeBackText('GO:0008233')"  text-anchor="middle" x="80" y="-162.8" font-family="Times,serif" font-size="14.00">GO:0008233</text></a>
<a xlink:href="http://pir.georgetown.edu/cgi-bin/pt_graphvizView.pl?tofile=101465" ><text id="r101465" onmousemove="changeToText2('r101465', 6)" onmouseout="changeBackText2('r101465', 6)"  text-anchor="middle" x="80" y="-149.8" font-family="Times,serif" font-size="14.00">(6)</text>
 
</a> 
</g> 
<!-- i0&#45;&gt;u0 --> 
<g id="edge16" class="edge"><title>i0&#45;&gt;u0</title> 
<path fill="none" stroke="black" d="M211.547,-217.811C186.167,-207.236 152.152,-193.063 125.07,-181.779"/> 
<polygon fill="black" stroke="black" points="126.382,-178.534 115.805,-177.919 123.69,-184.996 126.382,-178.534"/> 
</g> 
<!-- r0 --> 
<g id="node24" class="node"><title>r0</title> 
<ellipse fill="#e98576" stroke="#e98576" cx="253" cy="-162" rx="79.4447" ry="18"/> 
<a xlink:href="http://pir.georgetown.edu/cgi-bin/pt_graphvizView.pl?togoid=0004497" ><text id="GO:0004497" onmousemove="changeToText('GO:0004497')" onmouseout="changeBackText('GO:0004497')"  text-anchor="middle" x="253" y="-162.8" font-family="Times,serif" font-size="14.00">GO:0004497</text></a>
<a xlink:href="http://pir.georgetown.edu/cgi-bin/pt_graphvizView.pl?tofile=101459" ><text id="r101459" onmousemove="changeToText2('r101459', 10)" onmouseout="changeBackText2('r101459', 10)"  text-anchor="middle" x="253" y="-149.8" font-family="Times,serif" font-size="14.00">(10)</text>
 
</a> 
</g> 
<!-- d0&#45;&gt;r0 --> 
<g id="edge20" class="edge"><title>d0&#45;&gt;r0</title> 
<path fill="none" stroke="black" d="M388.887,-217.983C362.776,-207.418 327.637,-193.2 299.633,-181.869"/> 
<polygon fill="black" stroke="black" points="300.634,-178.498 290.051,-177.992 298.009,-184.987 300.634,-178.498"/> 
</g> 
<!-- h1 --> 
<g id="node51" class="node"><title>h1</title> 
<ellipse fill="#e98576" stroke="#e98576" cx="426" cy="-162" rx="75.2018" ry="18"/> 
<a xlink:href="http://pir.georgetown.edu/cgi-bin/pt_graphvizView.pl?togoid=0051213" ><text id="GO:0051213" onmousemove="changeToText('GO:0051213')" onmouseout="changeBackText('GO:0051213')"  text-anchor="middle" x="426" y="-162.8" font-family="Times,serif" font-size="14.00">GO:0051213</text></a>
<a xlink:href="http://pir.georgetown.edu/cgi-bin/pt_graphvizView.pl?tofile=101483" ><text id="r101483" onmousemove="changeToText2('r101483', 3)" onmouseout="changeBackText2('r101483', 3)"  text-anchor="middle" x="426" y="-149.8" font-family="Times,serif" font-size="14.00">(3)</text>
 
</a> 
</g> 
<!-- d0&#45;&gt;h1 --> 
<g id="edge48" class="edge"><title>d0&#45;&gt;h1</title> 
<path fill="none" stroke="black" d="M426,-215.697C426,-207.983 426,-198.712 426,-190.112"/> 
<polygon fill="black" stroke="black" points="429.5,-190.104 426,-180.104 422.5,-190.104 429.5,-190.104"/> 
</g> 
<!-- w0 --> 
<g id="node73" class="node"><title>w0</title> 
<ellipse fill="#e98576" stroke="#e98576" cx="594" cy="-162" rx="75.2018" ry="18"/> 
<a xlink:href="http://pir.georgetown.edu/cgi-bin/pt_graphvizView.pl?togoid=0009055" ><text id="GO:0009055" onmousemove="changeToText('GO:0009055')" onmouseout="changeBackText('GO:0009055')"  text-anchor="middle" x="594" y="-162.8" font-family="Times,serif" font-size="14.00">GO:0009055</text></a>
<a xlink:href="http://pir.georgetown.edu/cgi-bin/pt_graphvizView.pl?tofile=101469" ><text id="r101469" onmousemove="changeToText2('r101469', 5)" onmouseout="changeBackText2('r101469', 5)"  text-anchor="middle" x="594" y="-149.8" font-family="Times,serif" font-size="14.00">(5)</text>
 
</a> 
</g> 
<!-- d0&#45;&gt;w0 --> 
<g id="edge70" class="edge"><title>d0&#45;&gt;w0</title> 
<path fill="none" stroke="black" d="M462.453,-217.811C487.833,-207.236 521.848,-193.063 548.93,-181.779"/> 
<polygon fill="black" stroke="black" points="550.31,-184.996 558.195,-177.919 547.618,-178.534 550.31,-184.996"/> 
</g> 
<!-- b1 --> 
<g id="node63" class="node"><title>b1</title> 
<ellipse fill="#e98576" stroke="#e98576" cx="2315" cy="-162" rx="75.2018" ry="18"/> 
<a xlink:href="http://pir.georgetown.edu/cgi-bin/pt_graphvizView.pl?togoid=0016597" ><text id="GO:0016597" onmousemove="changeToText('GO:0016597')" onmouseout="changeBackText('GO:0016597')"  text-anchor="middle" x="2315" y="-162.8" font-family="Times,serif" font-size="14.00">GO:0016597</text></a>
<a xlink:href="http://pir.georgetown.edu/cgi-bin/pt_graphvizView.pl?tofile=101477" ><text id="r101477" onmousemove="changeToText2('r101477', 4)" onmouseout="changeBackText2('r101477', 4)"  text-anchor="middle" x="2315" y="-149.8" font-family="Times,serif" font-size="14.00">(4)</text>
 
</a> 
</g> 
<!-- c1&#45;&gt;b1 --> 
<g id="edge60" class="edge"><title>c1&#45;&gt;b1</title> 
<path fill="none" stroke="black" d="M2315,-215.697C2315,-207.983 2315,-198.712 2315,-190.112"/> 
<polygon fill="black" stroke="black" points="2318.5,-190.104 2315,-180.104 2311.5,-190.104 2318.5,-190.104"/> 
</g> 
<!-- z0 --> 
<g id="node53" class="node"><title>z0</title> 
<a xlink:href="http://pir.georgetown.edu/cgi-bin/pt_graphvizView.pl?togoid=0016879" > 
<ellipse fill="#dddddd" stroke="#dddddd" cx="749" cy="-162" rx="61.1934" ry="18"/> 
<a xlink:href="http://pir.georgetown.edu/cgi-bin/pt_graphvizView.pl?togoid=0016879" ><text id="GO:0016879" onmousemove="changeToText('GO:0016879')" onmouseout="changeBackText('GO:0016879')"  text-anchor="middle" x="749" y="-157.8" font-family="Times,serif" font-size="14.00">GO:0016879</text></a>
 
</a> 
</g> 
<!-- p0&#45;&gt;z0 --> 
<g id="edge50" class="edge"><title>p0&#45;&gt;z0</title> 
<path fill="none" stroke="black" d="M636.18,-217.465C657.739,-207.057 686.273,-193.282 709.251,-182.189"/> 
<polygon fill="black" stroke="black" points="710.915,-185.272 718.399,-177.773 707.872,-178.969 710.915,-185.272"/> 
</g> 
<!-- f1 --> 
<g id="node47" class="node"><title>f1</title> 
<ellipse fill="#e98576" stroke="#e98576" cx="4200" cy="-234" rx="75.2018" ry="18"/> 
<a xlink:href="http://pir.georgetown.edu/cgi-bin/pt_graphvizView.pl?togoid=0004871" ><text id="GO:0004871" onmousemove="changeToText('GO:0004871')" onmouseout="changeBackText('GO:0004871')"  text-anchor="middle" x="4200" y="-234.8" font-family="Times,serif" font-size="14.00">GO:0004871</text></a>
<a xlink:href="http://pir.georgetown.edu/cgi-bin/pt_graphvizView.pl?tofile=101491" ><text id="r101491" onmousemove="changeToText2('r101491', 2)" onmouseout="changeBackText2('r101491', 2)"  text-anchor="middle" x="4200" y="-221.8" font-family="Times,serif" font-size="14.00">(2)</text>
 
</a> 
</g> 
<!-- e1 --> 
<g id="node49" class="node"><title>e1</title> 
<ellipse fill="#e98576" stroke="#e98576" cx="4200" cy="-162" rx="75.2018" ry="18"/> 
<a xlink:href="http://pir.georgetown.edu/cgi-bin/pt_graphvizView.pl?togoid=0004872" ><text id="GO:0004872" onmousemove="changeToText('GO:0004872')" onmouseout="changeBackText('GO:0004872')"  text-anchor="middle" x="4200" y="-162.8" font-family="Times,serif" font-size="14.00">GO:0004872</text></a>
<a xlink:href="http://pir.georgetown.edu/cgi-bin/pt_graphvizView.pl?tofile=101481" ><text id="r101481" onmousemove="changeToText2('r101481', 3)" onmouseout="changeBackText2('r101481', 3)"  text-anchor="middle" x="4200" y="-149.8" font-family="Times,serif" font-size="14.00">(3)</text>
 
</a> 
</g> 
<!-- f1&#45;&gt;e1 --> 
<g id="edge46" class="edge"><title>f1&#45;&gt;e1</title> 
<path fill="none" stroke="black" d="M4200,-215.697C4200,-207.983 4200,-198.712 4200,-190.112"/> 
<polygon fill="black" stroke="black" points="4203.5,-190.104 4200,-180.104 4196.5,-190.104 4203.5,-190.104"/> 
</g> 
<!-- y0 --> 
<g id="node54" class="node"><title>y0</title> 
<a xlink:href="http://pir.georgetown.edu/cgi-bin/pt_graphvizView.pl?togoid=0016881" > 
<ellipse fill="#dddddd" stroke="#dddddd" cx="749" cy="-90" rx="61.1934" ry="18"/> 
<a xlink:href="http://pir.georgetown.edu/cgi-bin/pt_graphvizView.pl?togoid=0016881" ><text id="GO:0016881" onmousemove="changeToText('GO:0016881')" onmouseout="changeBackText('GO:0016881')"  text-anchor="middle" x="749" y="-85.8" font-family="Times,serif" font-size="14.00">GO:0016881</text></a>
 
</a> 
</g> 
<!-- z0&#45;&gt;y0 --> 
<g id="edge72" class="edge"><title>z0&#45;&gt;y0</title> 
<path fill="none" stroke="black" d="M749,-143.697C749,-135.983 749,-126.712 749,-118.112"/> 
<polygon fill="black" stroke="black" points="752.5,-118.104 749,-108.104 745.5,-118.104 752.5,-118.104"/> 
</g> 
<!-- x0 --> 
<g id="node56" class="node"><title>x0</title> 
<ellipse fill="#e98576" stroke="#e98576" cx="749" cy="-18" rx="75.2018" ry="18"/> 
<a xlink:href="http://pir.georgetown.edu/cgi-bin/pt_graphvizView.pl?togoid=0019787" ><text id="GO:0019787" onmousemove="changeToText('GO:0019787')" onmouseout="changeBackText('GO:0019787')"  text-anchor="middle" x="749" y="-18.8" font-family="Times,serif" font-size="14.00">GO:0019787</text></a>
<a xlink:href="http://pir.georgetown.edu/cgi-bin/pt_graphvizView.pl?tofile=101471" ><text id="r101471" onmousemove="changeToText2('r101471', 5)" onmouseout="changeBackText2('r101471', 5)"  text-anchor="middle" x="749" y="-5.8" font-family="Times,serif" font-size="14.00">(5)</text>
 
</a> 
</g> 
<!-- y0&#45;&gt;x0 --> 
<g id="edge52" class="edge"><title>y0&#45;&gt;x0</title> 
<path fill="none" stroke="black" d="M749,-71.6966C749,-63.9827 749,-54.7125 749,-46.1124"/> 
<polygon fill="black" stroke="black" points="752.5,-46.1043 749,-36.1043 745.5,-46.1044 752.5,-46.1043"/> 
</g> 
<!-- g1&#45;&gt;f1 --> 
<g id="edge62" class="edge"><title>g1&#45;&gt;f1</title> 
<path fill="none" stroke="black" d="M3196.3,-293.219C3205.39,-291.145 3214.96,-289.252 3224,-288 3617.01,-233.548 3722.09,-299.502 4116,-252 4122.85,-251.174 4129.97,-250.09 4137.04,-248.868"/> 
<polygon fill="black" stroke="black" points="4138.12,-252.229 4147.33,-246.993 4136.87,-245.342 4138.12,-252.229"/> 
</g> 
</g> 
<text text-anchor="left" x="4" y="-20" style="font-family:Arial Narrow;font-size:20.00;font-weight:bold;">GO Hierarchical View:</text> 

<text text-anchor="left" x="4" y="0" style="font-family:Arial Narrow;font-size:20.00;font-style:italic;">molecular function</text> 

<script type="text/ecmascript"> 
<![CDATA[ 
var targetText; 
function changeToText(z) { 
		targetText = svgDocument.getElementById(z).firstChild; 
		targetText.nodeValue="link to "+z; 
} 
function changeBackText(z) { 
		targetText = svgDocument.getElementById(z).firstChild; 
		targetText.nodeValue=z; 
} 
function changeToText2(z,n) { 
		targetText = svgDocument.getElementById(z).firstChild; 
		if (n<=1) { 
			targetText.nodeValue="link to " + n + " protein record"; 
		} else { 
			targetText.nodeValue="link to " + n + " protein records"; 
		} 
} 
function changeBackText2(z,n) { 
		targetText = svgDocument.getElementById(z).firstChild; 
		targetText.nodeValue="(" + n + ")"; 
} 
// ]]> 
</script> 
</svg> 
