<?xml version="1.0" encoding="UTF-8" standalone="no"?> 
<!DOCTYPE svg PUBLIC "-//W3C//DTD SVG 1.1//EN" 
 "http://www.w3.org/Graphics/SVG/1.1/DTD/svg11.dtd"> 
<!-- Generated by graphviz version 2.28.0 (20110622.2320) 
 --> 
<!-- Title: G Pages: 1 --> 
<svg width="2000" height="1000"  
 viewBox="-30 -50 2000 1000" xmlns="http://www.w3.org/2000/svg" xmlns:xlink="http://www.w3.org/1999/xlink"> 
<g id="graph1" class="graph" transform="scale(1 1) rotate(0) translate(4 256)"> 
<title>G</title> 
<polygon fill="white" stroke="white" points="-4,5 -4,-256 3461,-256 3461,5 -4,5"/> 
<!-- v0 --> 
<g id="node1" class="node"><title>v0</title> 
<ellipse fill="#e98576" stroke="#e98576" cx="3249" cy="-90" rx="75.2018" ry="18"/> 
<a xlink:href="http://pir.georgetown.edu/cgi-bin/pt_graphvizView.pl?togoid=0004871" ><text id="GO:0004871" onmousemove="changeToText('GO:0004871')" onmouseout="changeBackText('GO:0004871')"  text-anchor="middle" x="3249" y="-90.8" font-family="Times,serif" font-size="14.00">GO:0004871</text></a>
<a xlink:href="http://pir.georgetown.edu/cgi-bin/pt_graphvizView.pl?tofile=447405" ><text id="r447405" onmousemove="changeToText2('r447405', 4)" onmouseout="changeBackText2('r447405', 4)"  text-anchor="middle" x="3249" y="-77.8" font-family="Times,serif" font-size="14.00">(4)</text>
 
</a> 
</g> 
<!-- u0 --> 
<g id="node3" class="node"><title>u0</title> 
<ellipse fill="#e98576" stroke="#e98576" cx="3249" cy="-18" rx="75.2018" ry="18"/> 
<a xlink:href="http://pir.georgetown.edu/cgi-bin/pt_graphvizView.pl?togoid=0004872" ><text id="GO:0004872" onmousemove="changeToText('GO:0004872')" onmouseout="changeBackText('GO:0004872')"  text-anchor="middle" x="3249" y="-18.8" font-family="Times,serif" font-size="14.00">GO:0004872</text></a>
<a xlink:href="http://pir.georgetown.edu/cgi-bin/pt_graphvizView.pl?tofile=447401" ><text id="r447401" onmousemove="changeToText2('r447401', 4)" onmouseout="changeBackText2('r447401', 4)"  text-anchor="middle" x="3249" y="-5.8" font-family="Times,serif" font-size="14.00">(4)</text>
 
</a> 
</g> 
<!-- v0&#45;&gt;u0 --> 
<g id="edge2" class="edge"><title>v0&#45;&gt;u0</title> 
<path fill="none" stroke="black" d="M3249,-71.6966C3249,-63.9827 3249,-54.7125 3249,-46.1124"/> 
<polygon fill="black" stroke="black" points="3252.5,-46.1043 3249,-36.1043 3245.5,-46.1044 3252.5,-46.1043"/> 
</g> 
<!-- b0 --> 
<g id="node4" class="node"><title>b0</title> 
<ellipse fill="#e98576" stroke="#e98576" cx="1044" cy="-162" rx="75.2018" ry="18"/> 
<a xlink:href="http://pir.georgetown.edu/cgi-bin/pt_graphvizView.pl?togoid=0005488" ><text id="GO:0005488" onmousemove="changeToText('GO:0005488')" onmouseout="changeBackText('GO:0005488')"  text-anchor="middle" x="1044" y="-162.8" font-family="Times,serif" font-size="14.00">GO:0005488</text></a>
<a xlink:href="http://pir.georgetown.edu/cgi-bin/pt_graphvizView.pl?tofile=447415" ><text id="r447415" onmousemove="changeToText2('r447415', 1)" onmouseout="changeBackText2('r447415', 1)"  text-anchor="middle" x="1044" y="-149.8" font-family="Times,serif" font-size="14.00">(1)</text>
 
</a> 
</g> 
<!-- a1 --> 
<g id="node6" class="node"><title>a1</title> 
<ellipse fill="#e98576" stroke="#e98576" cx="75" cy="-90" rx="75.2018" ry="18"/> 
<a xlink:href="http://pir.georgetown.edu/cgi-bin/pt_graphvizView.pl?togoid=0008289" ><text id="GO:0008289" onmousemove="changeToText('GO:0008289')" onmouseout="changeBackText('GO:0008289')"  text-anchor="middle" x="75" y="-90.8" font-family="Times,serif" font-size="14.00">GO:0008289</text></a>
<a xlink:href="http://pir.georgetown.edu/cgi-bin/pt_graphvizView.pl?tofile=447413" ><text id="r447413" onmousemove="changeToText2('r447413', 2)" onmouseout="changeBackText2('r447413', 2)"  text-anchor="middle" x="75" y="-77.8" font-family="Times,serif" font-size="14.00">(2)</text>
 
</a> 
</g> 
<!-- b0&#45;&gt;a1 --> 
<g id="edge4" class="edge"><title>b0&#45;&gt;a1</title> 
<path fill="none" stroke="black" d="M969.367,-160.048C816.62,-157.325 457.577,-146.959 159,-108 152.16,-107.108 145.043,-105.981 137.973,-104.734"/> 
<polygon fill="black" stroke="black" points="138.156,-101.209 127.686,-102.834 136.885,-108.092 138.156,-101.209"/> 
</g> 
<!-- b1 --> 
<g id="node15" class="node"><title>b1</title> 
<ellipse fill="#e98576" stroke="#e98576" cx="243" cy="-90" rx="75.2018" ry="18"/> 
<a xlink:href="http://pir.georgetown.edu/cgi-bin/pt_graphvizView.pl?togoid=0005515" ><text id="GO:0005515" onmousemove="changeToText('GO:0005515')" onmouseout="changeBackText('GO:0005515')"  text-anchor="middle" x="243" y="-90.8" font-family="Times,serif" font-size="14.00">GO:0005515</text></a>
<a xlink:href="http://pir.georgetown.edu/cgi-bin/pt_graphvizView.pl?tofile=447417" ><text id="r447417" onmousemove="changeToText2('r447417', 1)" onmouseout="changeBackText2('r447417', 1)"  text-anchor="middle" x="243" y="-77.8" font-family="Times,serif" font-size="14.00">(1)</text>
 
</a> 
</g> 
<!-- b0&#45;&gt;b1 --> 
<g id="edge12" class="edge"><title>b0&#45;&gt;b1</title> 
<path fill="none" stroke="black" d="M970.136,-158.607C839.768,-153.702 560.551,-140.135 327,-108 320.266,-107.073 313.26,-105.936 306.293,-104.693"/> 
<polygon fill="black" stroke="black" points="306.623,-101.194 296.151,-102.808 305.343,-108.076 306.623,-101.194"/> 
</g> 
<!-- n0 --> 
<g id="node17" class="node"><title>n0</title> 
<ellipse fill="#e98576" stroke="#e98576" cx="416" cy="-90" rx="79.4447" ry="18"/> 
<a xlink:href="http://pir.georgetown.edu/cgi-bin/pt_graphvizView.pl?togoid=0001882" ><text id="GO:0001882" onmousemove="changeToText('GO:0001882')" onmouseout="changeBackText('GO:0001882')"  text-anchor="middle" x="416" y="-90.8" font-family="Times,serif" font-size="14.00">GO:0001882</text></a>
<a xlink:href="http://pir.georgetown.edu/cgi-bin/pt_graphvizView.pl?tofile=447387" ><text id="r447387" onmousemove="changeToText2('r447387', 20)" onmouseout="changeBackText2('r447387', 20)"  text-anchor="middle" x="416" y="-77.8" font-family="Times,serif" font-size="14.00">(20)</text>
 
</a> 
</g> 
<!-- b0&#45;&gt;n0 --> 
<g id="edge14" class="edge"><title>b0&#45;&gt;n0</title> 
<path fill="none" stroke="black" d="M972.69,-156.059C869.281,-148.425 671.815,-132.083 505,-108 497.828,-106.965 490.356,-105.752 482.924,-104.458"/> 
<polygon fill="black" stroke="black" points="483.305,-100.971 472.845,-102.654 482.072,-107.861 483.305,-100.971"/> 
</g> 
<!-- r0 --> 
<g id="node19" class="node"><title>r0</title> 
<ellipse fill="#e98576" stroke="#e98576" cx="594" cy="-90" rx="79.4447" ry="18"/> 
<a xlink:href="http://pir.georgetown.edu/cgi-bin/pt_graphvizView.pl?togoid=0019842" ><text id="GO:0019842" onmousemove="changeToText('GO:0019842')" onmouseout="changeBackText('GO:0019842')"  text-anchor="middle" x="594" y="-90.8" font-family="Times,serif" font-size="14.00">GO:0019842</text></a>
<a xlink:href="http://pir.georgetown.edu/cgi-bin/pt_graphvizView.pl?tofile=447395" ><text id="r447395" onmousemove="changeToText2('r447395', 10)" onmouseout="changeBackText2('r447395', 10)"  text-anchor="middle" x="594" y="-77.8" font-family="Times,serif" font-size="14.00">(10)</text>
 
</a> 
</g> 
<!-- b0&#45;&gt;r0 --> 
<g id="edge16" class="edge"><title>b0&#45;&gt;r0</title> 
<path fill="none" stroke="black" d="M979.963,-152.445C907.694,-142.594 786.686,-125.506 683,-108 676.226,-106.856 669.173,-105.608 662.134,-104.324"/> 
<polygon fill="black" stroke="black" points="662.333,-100.802 651.864,-102.426 661.061,-107.685 662.333,-100.802"/> 
</g> 
<!-- a0 --> 
<g id="node33" class="node"><title>a0</title> 
<ellipse fill="#e98576" stroke="#e98576" cx="777" cy="-90" rx="84.1886" ry="18"/> 
<a xlink:href="http://pir.georgetown.edu/cgi-bin/pt_graphvizView.pl?togoid=0043167" ><text id="GO:0043167" onmousemove="changeToText('GO:0043167')" onmouseout="changeBackText('GO:0043167')"  text-anchor="middle" x="777" y="-90.8" font-family="Times,serif" font-size="14.00">GO:0043167</text></a>
<a xlink:href="http://pir.georgetown.edu/cgi-bin/pt_graphvizView.pl?tofile=447367" ><text id="r447367" onmousemove="changeToText2('r447367', 149)" onmouseout="changeBackText2('r447367', 149)"  text-anchor="middle" x="777" y="-77.8" font-family="Times,serif" font-size="14.00">(149)</text>
 
</a> 
</g> 
<!-- b0&#45;&gt;a0 --> 
<g id="edge30" class="edge"><title>b0&#45;&gt;a0</title> 
<path fill="none" stroke="black" d="M995.339,-148.242C951.105,-136.645 885.652,-119.486 837.95,-106.979"/> 
<polygon fill="black" stroke="black" points="838.615,-103.535 828.054,-104.385 836.84,-110.307 838.615,-103.535"/> 
</g> 
<!-- e1 --> 
<g id="node39" class="node"><title>e1</title> 
<ellipse fill="#e98576" stroke="#e98576" cx="955" cy="-90" rx="75.2018" ry="18"/> 
<a xlink:href="http://pir.georgetown.edu/cgi-bin/pt_graphvizView.pl?togoid=0030246" ><text id="GO:0030246" onmousemove="changeToText('GO:0030246')" onmouseout="changeBackText('GO:0030246')"  text-anchor="middle" x="955" y="-90.8" font-family="Times,serif" font-size="14.00">GO:0030246</text></a>
<a xlink:href="http://pir.georgetown.edu/cgi-bin/pt_graphvizView.pl?tofile=447423" ><text id="r447423" onmousemove="changeToText2('r447423', 1)" onmouseout="changeBackText2('r447423', 1)"  text-anchor="middle" x="955" y="-77.8" font-family="Times,serif" font-size="14.00">(1)</text>
 
</a> 
</g> 
<!-- b0&#45;&gt;e1 --> 
<g id="edge36" class="edge"><title>b0&#45;&gt;e1</title> 
<path fill="none" stroke="black" d="M1022.91,-144.411C1011.27,-135.257 996.646,-123.755 983.952,-113.772"/> 
<polygon fill="black" stroke="black" points="985.964,-110.901 975.94,-107.47 981.637,-116.403 985.964,-110.901"/> 
</g> 
<!-- e0 --> 
<g id="node45" class="node"><title>e0</title> 
<ellipse fill="#e98576" stroke="#e98576" cx="1133" cy="-90" rx="84.1886" ry="18"/> 
<a xlink:href="http://pir.georgetown.edu/cgi-bin/pt_graphvizView.pl?togoid=0003676" ><text id="GO:0003676" onmousemove="changeToText('GO:0003676')" onmouseout="changeBackText('GO:0003676')"  text-anchor="middle" x="1133" y="-90.8" font-family="Times,serif" font-size="14.00">GO:0003676</text></a>
<a xlink:href="http://pir.georgetown.edu/cgi-bin/pt_graphvizView.pl?tofile=447371" ><text id="r447371" onmousemove="changeToText2('r447371', 101)" onmouseout="changeBackText2('r447371', 101)"  text-anchor="middle" x="1133" y="-77.8" font-family="Times,serif" font-size="14.00">(101)</text>
 
</a> 
</g> 
<!-- b0&#45;&gt;e0 --> 
<g id="edge42" class="edge"><title>b0&#45;&gt;e0</title> 
<path fill="none" stroke="black" d="M1065.09,-144.411C1076.73,-135.257 1091.35,-123.755 1104.05,-113.772"/> 
<polygon fill="black" stroke="black" points="1106.36,-116.403 1112.06,-107.47 1102.04,-110.901 1106.36,-116.403"/> 
</g> 
<!-- d1 --> 
<g id="node47" class="node"><title>d1</title> 
<ellipse fill="#e98576" stroke="#e98576" cx="1311" cy="-90" rx="75.2018" ry="18"/> 
<a xlink:href="http://pir.georgetown.edu/cgi-bin/pt_graphvizView.pl?togoid=0046906" ><text id="GO:0046906" onmousemove="changeToText('GO:0046906')" onmouseout="changeBackText('GO:0046906')"  text-anchor="middle" x="1311" y="-90.8" font-family="Times,serif" font-size="14.00">GO:0046906</text></a>
<a xlink:href="http://pir.georgetown.edu/cgi-bin/pt_graphvizView.pl?tofile=447421" ><text id="r447421" onmousemove="changeToText2('r447421', 1)" onmouseout="changeBackText2('r447421', 1)"  text-anchor="middle" x="1311" y="-77.8" font-family="Times,serif" font-size="14.00">(1)</text>
 
</a> 
</g> 
<!-- b0&#45;&gt;d1 --> 
<g id="edge44" class="edge"><title>b0&#45;&gt;d1</title> 
<path fill="none" stroke="black" d="M1092.66,-148.242C1137.6,-136.461 1204.43,-118.939 1252.31,-106.387"/> 
<polygon fill="black" stroke="black" points="1253.44,-109.71 1262.22,-103.788 1251.66,-102.939 1253.44,-109.71"/> 
</g> 
<!-- d0 --> 
<g id="node50" class="node"><title>d0</title> 
<ellipse fill="#e98576" stroke="#e98576" cx="1489" cy="-90" rx="84.1886" ry="18"/> 
<a xlink:href="http://pir.georgetown.edu/cgi-bin/pt_graphvizView.pl?togoid=0000166" ><text id="GO:0000166" onmousemove="changeToText('GO:0000166')" onmouseout="changeBackText('GO:0000166')"  text-anchor="middle" x="1489" y="-90.8" font-family="Times,serif" font-size="14.00">GO:0000166</text></a>
<a xlink:href="http://pir.georgetown.edu/cgi-bin/pt_graphvizView.pl?tofile=447369" ><text id="r447369" onmousemove="changeToText2('r447369', 127)" onmouseout="changeBackText2('r447369', 127)"  text-anchor="middle" x="1489" y="-77.8" font-family="Times,serif" font-size="14.00">(127)</text>
 
</a> 
</g> 
<!-- b0&#45;&gt;d0 --> 
<g id="edge48" class="edge"><title>b0&#45;&gt;d0</title> 
<path fill="none" stroke="black" d="M1106.86,-152.07C1177.16,-141.952 1294.38,-124.692 1395,-108 1402.34,-106.783 1409.99,-105.47 1417.62,-104.133"/> 
<polygon fill="black" stroke="black" points="1418.37,-107.555 1427.61,-102.368 1417.15,-100.662 1418.37,-107.555"/> 
</g> 
<!-- t0 --> 
<g id="node59" class="node"><title>t0</title> 
<ellipse fill="#e98576" stroke="#e98576" cx="1667" cy="-90" rx="75.2018" ry="18"/> 
<a xlink:href="http://pir.georgetown.edu/cgi-bin/pt_graphvizView.pl?togoid=0051540" ><text id="GO:0051540" onmousemove="changeToText('GO:0051540')" onmouseout="changeBackText('GO:0051540')"  text-anchor="middle" x="1667" y="-90.8" font-family="Times,serif" font-size="14.00">GO:0051540</text></a>
<a xlink:href="http://pir.georgetown.edu/cgi-bin/pt_graphvizView.pl?tofile=447399" ><text id="r447399" onmousemove="changeToText2('r447399', 4)" onmouseout="changeBackText2('r447399', 4)"  text-anchor="middle" x="1667" y="-77.8" font-family="Times,serif" font-size="14.00">(4)</text>
 
</a> 
</g> 
<!-- b0&#45;&gt;t0 --> 
<g id="edge58" class="edge"><title>b0&#45;&gt;t0</title> 
<path fill="none" stroke="black" d="M1115.21,-156.245C1218.46,-148.839 1415.6,-132.774 1582,-108 1588.8,-106.988 1595.88,-105.795 1602.93,-104.519"/> 
<polygon fill="black" stroke="black" points="1604,-107.879 1613.18,-102.601 1602.71,-100.999 1604,-107.879"/> 
</g> 
<!-- k0 --> 
<g id="node61" class="node"><title>k0</title> 
<ellipse fill="#e98576" stroke="#e98576" cx="1840" cy="-90" rx="79.4447" ry="18"/> 
<a xlink:href="http://pir.georgetown.edu/cgi-bin/pt_graphvizView.pl?togoid=0048037" ><text id="GO:0048037" onmousemove="changeToText('GO:0048037')" onmouseout="changeBackText('GO:0048037')"  text-anchor="middle" x="1840" y="-90.8" font-family="Times,serif" font-size="14.00">GO:0048037</text></a>
<a xlink:href="http://pir.georgetown.edu/cgi-bin/pt_graphvizView.pl?tofile=447381" ><text id="r447381" onmousemove="changeToText2('r447381', 40)" onmouseout="changeBackText2('r447381', 40)"  text-anchor="middle" x="1840" y="-77.8" font-family="Times,serif" font-size="14.00">(40)</text>
 
</a> 
</g> 
<!-- b0&#45;&gt;k0 --> 
<g id="edge60" class="edge"><title>b0&#45;&gt;k0</title> 
<path fill="none" stroke="black" d="M1117.57,-158.248C1246.39,-152.813 1520.99,-138.487 1751,-108 1758.37,-107.023 1766.06,-105.826 1773.69,-104.526"/> 
<polygon fill="black" stroke="black" points="1774.42,-107.951 1783.66,-102.765 1773.2,-101.057 1774.42,-107.951"/> 
</g> 
<!-- c0 --> 
<g id="node7" class="node"><title>c0</title> 
<ellipse fill="#e98576" stroke="#e98576" cx="2784" cy="-234" rx="75.2018" ry="18"/> 
<a xlink:href="http://pir.georgetown.edu/cgi-bin/pt_graphvizView.pl?togoid=0003674" ><text id="GO:0003674" onmousemove="changeToText('GO:0003674')" onmouseout="changeBackText('GO:0003674')"  text-anchor="middle" x="2784" y="-234.8" font-family="Times,serif" font-size="14.00">GO:0003674</text></a>
<a xlink:href="http://pir.georgetown.edu/cgi-bin/pt_graphvizView.pl?tofile=447403" ><text id="r447403" onmousemove="changeToText2('r447403', 4)" onmouseout="changeBackText2('r447403', 4)"  text-anchor="middle" x="2784" y="-221.8" font-family="Times,serif" font-size="14.00">(4)</text>
 
</a> 
</g> 
<!-- c0&#45;&gt;b0 --> 
<g id="edge20" class="edge"><title>c0&#45;&gt;b0</title> 
<path fill="none" stroke="black" d="M2710.62,-230.048C2430.06,-218.761 1426.09,-178.371 1128.02,-166.38"/> 
<polygon fill="black" stroke="black" points="1127.84,-162.87 1117.71,-165.965 1127.56,-169.865 1127.84,-162.87"/> 
</g> 
<!-- x0 --> 
<g id="node9" class="node"><title>x0</title> 
<ellipse fill="#e98576" stroke="#e98576" cx="2397" cy="-162" rx="75.2018" ry="18"/> 
<a xlink:href="http://pir.georgetown.edu/cgi-bin/pt_graphvizView.pl?togoid=0030234" ><text id="GO:0030234" onmousemove="changeToText('GO:0030234')" onmouseout="changeBackText('GO:0030234')"  text-anchor="middle" x="2397" y="-162.8" font-family="Times,serif" font-size="14.00">GO:0030234</text></a>
<a xlink:href="http://pir.georgetown.edu/cgi-bin/pt_graphvizView.pl?tofile=447407" ><text id="r447407" onmousemove="changeToText2('r447407', 3)" onmouseout="changeBackText2('r447407', 3)"  text-anchor="middle" x="2397" y="-149.8" font-family="Times,serif" font-size="14.00">(3)</text>
 
</a> 
</g> 
<!-- c0&#45;&gt;x0 --> 
<g id="edge6" class="edge"><title>c0&#45;&gt;x0</title> 
<path fill="none" stroke="black" d="M2724.33,-222.957C2663.36,-212.593 2565.97,-195.763 2482,-180 2475.69,-178.816 2469.12,-177.554 2462.56,-176.274"/> 
<polygon fill="black" stroke="black" points="2462.78,-172.749 2452.29,-174.255 2461.43,-179.617 2462.78,-172.749"/> 
</g> 
<!-- h0 --> 
<g id="node10" class="node"><title>h0</title> 
<a xlink:href="http://pir.georgetown.edu/cgi-bin/pt_graphvizView.pl?togoid=0003824" > 
<ellipse fill="#dddddd" stroke="#dddddd" cx="2552" cy="-162" rx="61.1934" ry="18"/> 
<a xlink:href="http://pir.georgetown.edu/cgi-bin/pt_graphvizView.pl?togoid=0003824" ><text id="GO:0003824" onmousemove="changeToText('GO:0003824')" onmouseout="changeBackText('GO:0003824')"  text-anchor="middle" x="2552" y="-157.8" font-family="Times,serif" font-size="14.00">GO:0003824</text></a>
 
</a> 
</g> 
<!-- c0&#45;&gt;h0 --> 
<g id="edge10" class="edge"><title>c0&#45;&gt;h0</title> 
<path fill="none" stroke="black" d="M2739.27,-219.503C2700.22,-207.722 2643.58,-190.633 2602.83,-178.337"/> 
<polygon fill="black" stroke="black" points="2603.68,-174.937 2593.09,-175.399 2601.66,-181.638 2603.68,-174.937"/> 
</g> 
<!-- c1 --> 
<g id="node21" class="node"><title>c1</title> 
<ellipse fill="#e98576" stroke="#e98576" cx="2707" cy="-162" rx="75.2018" ry="18"/> 
<a xlink:href="http://pir.georgetown.edu/cgi-bin/pt_graphvizView.pl?togoid=0003774" ><text id="GO:0003774" onmousemove="changeToText('GO:0003774')" onmouseout="changeBackText('GO:0003774')"  text-anchor="middle" x="2707" y="-162.8" font-family="Times,serif" font-size="14.00">GO:0003774</text></a>
<a xlink:href="http://pir.georgetown.edu/cgi-bin/pt_graphvizView.pl?tofile=447419" ><text id="r447419" onmousemove="changeToText2('r447419', 1)" onmouseout="changeBackText2('r447419', 1)"  text-anchor="middle" x="2707" y="-149.8" font-family="Times,serif" font-size="14.00">(1)</text>
 
</a> 
</g> 
<!-- c0&#45;&gt;c1 --> 
<g id="edge18" class="edge"><title>c0&#45;&gt;c1</title> 
<path fill="none" stroke="black" d="M2765.75,-216.411C2755.88,-207.432 2743.51,-196.193 2732.68,-186.344"/> 
<polygon fill="black" stroke="black" points="2734.87,-183.607 2725.12,-179.47 2730.16,-188.787 2734.87,-183.607"/> 
</g> 
<!-- w0 --> 
<g id="node23" class="node"><title>w0</title> 
<a xlink:href="http://pir.georgetown.edu/cgi-bin/pt_graphvizView.pl?togoid=0060089" > 
<ellipse fill="#dddddd" stroke="#dddddd" cx="2862" cy="-162" rx="61.1934" ry="18"/> 
<a xlink:href="http://pir.georgetown.edu/cgi-bin/pt_graphvizView.pl?togoid=0060089" ><text id="GO:0060089" onmousemove="changeToText('GO:0060089')" onmouseout="changeBackText('GO:0060089')"  text-anchor="middle" x="2862" y="-157.8" font-family="Times,serif" font-size="14.00">GO:0060089</text></a>
 
</a> 
</g> 
<!-- c0&#45;&gt;w0 --> 
<g id="edge56" class="edge"><title>c0&#45;&gt;w0</title> 
<path fill="none" stroke="black" d="M2802.48,-216.411C2812.56,-207.367 2825.2,-196.03 2836.23,-186.13"/> 
<polygon fill="black" stroke="black" points="2838.81,-188.512 2843.92,-179.228 2834.14,-183.303 2838.81,-188.512"/> 
</g> 
<!-- q0 --> 
<g id="node29" class="node"><title>q0</title> 
<ellipse fill="#e98576" stroke="#e98576" cx="3021" cy="-162" rx="79.4447" ry="18"/> 
<a xlink:href="http://pir.georgetown.edu/cgi-bin/pt_graphvizView.pl?togoid=0016209" ><text id="GO:0016209" onmousemove="changeToText('GO:0016209')" onmouseout="changeBackText('GO:0016209')"  text-anchor="middle" x="3021" y="-162.8" font-family="Times,serif" font-size="14.00">GO:0016209</text></a>
<a xlink:href="http://pir.georgetown.edu/cgi-bin/pt_graphvizView.pl?tofile=447393" ><text id="r447393" onmousemove="changeToText2('r447393', 11)" onmouseout="changeBackText2('r447393', 11)"  text-anchor="middle" x="3021" y="-149.8" font-family="Times,serif" font-size="14.00">(11)</text>
 
</a> 
</g> 
<!-- c0&#45;&gt;q0 --> 
<g id="edge26" class="edge"><title>c0&#45;&gt;q0</title> 
<path fill="none" stroke="black" d="M2829.42,-219.586C2867.99,-208.193 2923.51,-191.793 2964.87,-179.579"/> 
<polygon fill="black" stroke="black" points="2965.93,-182.916 2974.52,-176.727 2963.94,-176.203 2965.93,-182.916"/> 
</g> 
<!-- m0 --> 
<g id="node31" class="node"><title>m0</title> 
<ellipse fill="#e98576" stroke="#e98576" cx="3199" cy="-162" rx="79.4447" ry="18"/> 
<a xlink:href="http://pir.georgetown.edu/cgi-bin/pt_graphvizView.pl?togoid=0005215" ><text id="GO:0005215" onmousemove="changeToText('GO:0005215')" onmouseout="changeBackText('GO:0005215')"  text-anchor="middle" x="3199" y="-162.8" font-family="Times,serif" font-size="14.00">GO:0005215</text></a>
<a xlink:href="http://pir.georgetown.edu/cgi-bin/pt_graphvizView.pl?tofile=447385" ><text id="r447385" onmousemove="changeToText2('r447385', 27)" onmouseout="changeBackText2('r447385', 27)"  text-anchor="middle" x="3199" y="-149.8" font-family="Times,serif" font-size="14.00">(27)</text>
 
</a> 
</g> 
<!-- c0&#45;&gt;m0 --> 
<g id="edge28" class="edge"><title>c0&#45;&gt;m0</title> 
<path fill="none" stroke="black" d="M2845.17,-223.492C2910.56,-213.22 3017.22,-196.148 3109,-180 3116,-178.769 3123.3,-177.449 3130.57,-176.11"/> 
<polygon fill="black" stroke="black" points="3131.26,-179.542 3140.46,-174.278 3129.99,-172.659 3131.26,-179.542"/> 
</g> 
<!-- f0 --> 
<g id="node54" class="node"><title>f0</title> 
<ellipse fill="#e98576" stroke="#e98576" cx="3377" cy="-162" rx="79.4447" ry="18"/> 
<a xlink:href="http://pir.georgetown.edu/cgi-bin/pt_graphvizView.pl?togoid=0005198" ><text id="GO:0005198" onmousemove="changeToText('GO:0005198')" onmouseout="changeBackText('GO:0005198')"  text-anchor="middle" x="3377" y="-162.8" font-family="Times,serif" font-size="14.00">GO:0005198</text></a>
<a xlink:href="http://pir.georgetown.edu/cgi-bin/pt_graphvizView.pl?tofile=447373" ><text id="r447373" onmousemove="changeToText2('r447373', 99)" onmouseout="changeBackText2('r447373', 99)"  text-anchor="middle" x="3377" y="-149.8" font-family="Times,serif" font-size="14.00">(99)</text>
 
</a> 
</g> 
<!-- c0&#45;&gt;f0 --> 
<g id="edge52" class="edge"><title>c0&#45;&gt;f0</title> 
<path fill="none" stroke="black" d="M2854.21,-227.426C2951.64,-219.276 3133.23,-202.586 3287,-180 3294.33,-178.924 3301.97,-177.676 3309.57,-176.355"/> 
<polygon fill="black" stroke="black" points="3310.27,-179.785 3319.5,-174.585 3309.04,-172.894 3310.27,-179.785"/> 
</g> 
<!-- l0 --> 
<g id="node12" class="node"><title>l0</title> 
<ellipse fill="#e98576" stroke="#e98576" cx="2018" cy="-90" rx="79.4447" ry="18"/> 
<a xlink:href="http://pir.georgetown.edu/cgi-bin/pt_graphvizView.pl?togoid=0016853" ><text id="GO:0016853" onmousemove="changeToText('GO:0016853')" onmouseout="changeBackText('GO:0016853')"  text-anchor="middle" x="2018" y="-90.8" font-family="Times,serif" font-size="14.00">GO:0016853</text></a>
<a xlink:href="http://pir.georgetown.edu/cgi-bin/pt_graphvizView.pl?tofile=447383" ><text id="r447383" onmousemove="changeToText2('r447383', 29)" onmouseout="changeBackText2('r447383', 29)"  text-anchor="middle" x="2018" y="-77.8" font-family="Times,serif" font-size="14.00">(29)</text>
 
</a> 
</g> 
<!-- h0&#45;&gt;l0 --> 
<g id="edge8" class="edge"><title>h0&#45;&gt;l0</title> 
<path fill="none" stroke="black" d="M2507.88,-149.433C2499.03,-147.395 2489.75,-145.462 2481,-144 2316.29,-116.491 2272.3,-131.691 2107,-108 2099.83,-106.972 2092.35,-105.764 2084.92,-104.473"/> 
<polygon fill="black" stroke="black" points="2085.3,-100.986 2074.84,-102.671 2084.07,-107.876 2085.3,-100.986"/> 
</g> 
<!-- j0 --> 
<g id="node25" class="node"><title>j0</title> 
<ellipse fill="#e98576" stroke="#e98576" cx="2196" cy="-90" rx="79.4447" ry="18"/> 
<a xlink:href="http://pir.georgetown.edu/cgi-bin/pt_graphvizView.pl?togoid=0016787" ><text id="GO:0016787" onmousemove="changeToText('GO:0016787')" onmouseout="changeBackText('GO:0016787')"  text-anchor="middle" x="2196" y="-90.8" font-family="Times,serif" font-size="14.00">GO:0016787</text></a>
<a xlink:href="http://pir.georgetown.edu/cgi-bin/pt_graphvizView.pl?tofile=447379" ><text id="r447379" onmousemove="changeToText2('r447379', 53)" onmouseout="changeBackText2('r447379', 53)"  text-anchor="middle" x="2196" y="-77.8" font-family="Times,serif" font-size="14.00">(53)</text>
 
</a> 
</g> 
<!-- h0&#45;&gt;j0 --> 
<g id="edge32" class="edge"><title>h0&#45;&gt;j0</title> 
<path fill="none" stroke="black" d="M2506.63,-149.756C2498.13,-147.758 2489.31,-145.756 2481,-144 2394.35,-125.682 2372.05,-124.309 2285,-108 2278.35,-106.754 2271.43,-105.448 2264.5,-104.135"/> 
<polygon fill="black" stroke="black" points="2264.87,-100.643 2254.4,-102.215 2263.57,-107.52 2264.87,-100.643"/> 
</g> 
<!-- i0 --> 
<g id="node35" class="node"><title>i0</title> 
<ellipse fill="#e98576" stroke="#e98576" cx="2374" cy="-90" rx="79.4447" ry="18"/> 
<a xlink:href="http://pir.georgetown.edu/cgi-bin/pt_graphvizView.pl?togoid=0016491" ><text id="GO:0016491" onmousemove="changeToText('GO:0016491')" onmouseout="changeBackText('GO:0016491')"  text-anchor="middle" x="2374" y="-90.8" font-family="Times,serif" font-size="14.00">GO:0016491</text></a>
<a xlink:href="http://pir.georgetown.edu/cgi-bin/pt_graphvizView.pl?tofile=447377" ><text id="r447377" onmousemove="changeToText2('r447377', 71)" onmouseout="changeBackText2('r447377', 71)"  text-anchor="middle" x="2374" y="-77.8" font-family="Times,serif" font-size="14.00">(71)</text>
 
</a> 
</g> 
<!-- h0&#45;&gt;i0 --> 
<g id="edge46" class="edge"><title>h0&#45;&gt;i0</title> 
<path fill="none" stroke="black" d="M2516.83,-147.17C2489.5,-136.42 2451.31,-121.402 2421.3,-109.6"/> 
<polygon fill="black" stroke="black" points="2422.45,-106.293 2411.86,-105.89 2419.89,-112.807 2422.45,-106.293"/> 
</g> 
<!-- g0 --> 
<g id="node41" class="node"><title>g0</title> 
<ellipse fill="#e98576" stroke="#e98576" cx="2552" cy="-90" rx="79.4447" ry="18"/> 
<a xlink:href="http://pir.georgetown.edu/cgi-bin/pt_graphvizView.pl?togoid=0016740" ><text id="GO:0016740" onmousemove="changeToText('GO:0016740')" onmouseout="changeBackText('GO:0016740')"  text-anchor="middle" x="2552" y="-90.8" font-family="Times,serif" font-size="14.00">GO:0016740</text></a>
<a xlink:href="http://pir.georgetown.edu/cgi-bin/pt_graphvizView.pl?tofile=447375" ><text id="r447375" onmousemove="changeToText2('r447375', 75)" onmouseout="changeBackText2('r447375', 75)"  text-anchor="middle" x="2552" y="-77.8" font-family="Times,serif" font-size="14.00">(75)</text>
 
</a> 
</g> 
<!-- h0&#45;&gt;g0 --> 
<g id="edge38" class="edge"><title>h0&#45;&gt;g0</title> 
<path fill="none" stroke="black" d="M2552,-143.697C2552,-135.983 2552,-126.712 2552,-118.112"/> 
<polygon fill="black" stroke="black" points="2555.5,-118.104 2552,-108.104 2548.5,-118.104 2555.5,-118.104"/> 
</g> 
<!-- o0 --> 
<g id="node43" class="node"><title>o0</title> 
<ellipse fill="#e98576" stroke="#e98576" cx="2730" cy="-90" rx="79.4447" ry="18"/> 
<a xlink:href="http://pir.georgetown.edu/cgi-bin/pt_graphvizView.pl?togoid=0016874" ><text id="GO:0016874" onmousemove="changeToText('GO:0016874')" onmouseout="changeBackText('GO:0016874')"  text-anchor="middle" x="2730" y="-90.8" font-family="Times,serif" font-size="14.00">GO:0016874</text></a>
<a xlink:href="http://pir.georgetown.edu/cgi-bin/pt_graphvizView.pl?tofile=447389" ><text id="r447389" onmousemove="changeToText2('r447389', 17)" onmouseout="changeBackText2('r447389', 17)"  text-anchor="middle" x="2730" y="-77.8" font-family="Times,serif" font-size="14.00">(17)</text>
 
</a> 
</g> 
<!-- h0&#45;&gt;o0 --> 
<g id="edge40" class="edge"><title>h0&#45;&gt;o0</title> 
<path fill="none" stroke="black" d="M2587.17,-147.17C2614.5,-136.42 2652.69,-121.402 2682.7,-109.6"/> 
<polygon fill="black" stroke="black" points="2684.11,-112.807 2692.14,-105.89 2681.55,-106.293 2684.11,-112.807"/> 
</g> 
<!-- z0 --> 
<g id="node52" class="node"><title>z0</title> 
<ellipse fill="#e98576" stroke="#e98576" cx="2903" cy="-90" rx="75.2018" ry="18"/> 
<a xlink:href="http://pir.georgetown.edu/cgi-bin/pt_graphvizView.pl?togoid=0004386" ><text id="GO:0004386" onmousemove="changeToText('GO:0004386')" onmouseout="changeBackText('GO:0004386')"  text-anchor="middle" x="2903" y="-90.8" font-family="Times,serif" font-size="14.00">GO:0004386</text></a>
<a xlink:href="http://pir.georgetown.edu/cgi-bin/pt_graphvizView.pl?tofile=447411" ><text id="r447411" onmousemove="changeToText2('r447411', 2)" onmouseout="changeBackText2('r447411', 2)"  text-anchor="middle" x="2903" y="-77.8" font-family="Times,serif" font-size="14.00">(2)</text>
 
</a> 
</g> 
<!-- h0&#45;&gt;z0 --> 
<g id="edge50" class="edge"><title>h0&#45;&gt;z0</title> 
<path fill="none" stroke="black" d="M2597.37,-149.762C2605.87,-147.763 2614.69,-145.76 2623,-144 2709.22,-125.733 2731.45,-124.642 2818,-108 2824.3,-106.788 2830.87,-105.508 2837.43,-104.216"/> 
<polygon fill="black" stroke="black" points="2838.57,-107.558 2847.7,-102.184 2837.21,-100.691 2838.57,-107.558"/> 
</g> 
<!-- p0 --> 
<g id="node56" class="node"><title>p0</title> 
<ellipse fill="#e98576" stroke="#e98576" cx="3076" cy="-90" rx="79.4447" ry="18"/> 
<a xlink:href="http://pir.georgetown.edu/cgi-bin/pt_graphvizView.pl?togoid=0016829" ><text id="GO:0016829" onmousemove="changeToText('GO:0016829')" onmouseout="changeBackText('GO:0016829')"  text-anchor="middle" x="3076" y="-90.8" font-family="Times,serif" font-size="14.00">GO:0016829</text></a>
<a xlink:href="http://pir.georgetown.edu/cgi-bin/pt_graphvizView.pl?tofile=447391" ><text id="r447391" onmousemove="changeToText2('r447391', 14)" onmouseout="changeBackText2('r447391', 14)"  text-anchor="middle" x="3076" y="-77.8" font-family="Times,serif" font-size="14.00">(14)</text>
 
</a> 
</g> 
<!-- h0&#45;&gt;p0 --> 
<g id="edge54" class="edge"><title>h0&#45;&gt;p0</title> 
<path fill="none" stroke="black" d="M2596.12,-149.451C2604.98,-147.412 2614.25,-145.473 2623,-144 2783.31,-117.01 2826.11,-131.274 2987,-108 2994.17,-106.963 3001.64,-105.748 3009.08,-104.454"/> 
<polygon fill="black" stroke="black" points="3009.93,-107.857 3019.15,-102.649 3008.69,-100.967 3009.93,-107.857"/> 
</g> 
<!-- w0&#45;&gt;v0 --> 
<g id="edge22" class="edge"><title>w0&#45;&gt;v0</title> 
<path fill="none" stroke="black" d="M2906.69,-149.553C2915.07,-147.575 2923.78,-145.633 2932,-144 3034.35,-123.669 3061.26,-126.236 3164,-108 3170.57,-106.834 3177.42,-105.561 3184.24,-104.255"/> 
<polygon fill="black" stroke="black" points="3185.05,-107.664 3194.2,-102.324 3183.71,-100.792 3185.05,-107.664"/> 
</g> 
<!-- s0 --> 
<g id="node27" class="node"><title>s0</title> 
<ellipse fill="#e98576" stroke="#e98576" cx="2196" cy="-18" rx="75.2018" ry="18"/> 
<a xlink:href="http://pir.georgetown.edu/cgi-bin/pt_graphvizView.pl?togoid=0008233" ><text id="GO:0008233" onmousemove="changeToText('GO:0008233')" onmouseout="changeBackText('GO:0008233')"  text-anchor="middle" x="2196" y="-18.8" font-family="Times,serif" font-size="14.00">GO:0008233</text></a>
<a xlink:href="http://pir.georgetown.edu/cgi-bin/pt_graphvizView.pl?tofile=447397" ><text id="r447397" onmousemove="changeToText2('r447397', 7)" onmouseout="changeBackText2('r447397', 7)"  text-anchor="middle" x="2196" y="-5.8" font-family="Times,serif" font-size="14.00">(7)</text>
 
</a> 
</g> 
<!-- j0&#45;&gt;s0 --> 
<g id="edge24" class="edge"><title>j0&#45;&gt;s0</title> 
<path fill="none" stroke="black" d="M2196,-71.6966C2196,-63.9827 2196,-54.7125 2196,-46.1124"/> 
<polygon fill="black" stroke="black" points="2199.5,-46.1043 2196,-36.1043 2192.5,-46.1044 2199.5,-46.1043"/> 
</g> 
<!-- y0 --> 
<g id="node37" class="node"><title>y0</title> 
<ellipse fill="#e98576" stroke="#e98576" cx="2374" cy="-18" rx="75.2018" ry="18"/> 
<a xlink:href="http://pir.georgetown.edu/cgi-bin/pt_graphvizView.pl?togoid=0009055" ><text id="GO:0009055" onmousemove="changeToText('GO:0009055')" onmouseout="changeBackText('GO:0009055')"  text-anchor="middle" x="2374" y="-18.8" font-family="Times,serif" font-size="14.00">GO:0009055</text></a>
<a xlink:href="http://pir.georgetown.edu/cgi-bin/pt_graphvizView.pl?tofile=447409" ><text id="r447409" onmousemove="changeToText2('r447409', 3)" onmouseout="changeBackText2('r447409', 3)"  text-anchor="middle" x="2374" y="-5.8" font-family="Times,serif" font-size="14.00">(3)</text>
 
</a> 
</g> 
<!-- i0&#45;&gt;y0 --> 
<g id="edge34" class="edge"><title>i0&#45;&gt;y0</title> 
<path fill="none" stroke="black" d="M2374,-71.6966C2374,-63.9827 2374,-54.7125 2374,-46.1124"/> 
<polygon fill="black" stroke="black" points="2377.5,-46.1043 2374,-36.1043 2370.5,-46.1044 2377.5,-46.1043"/> 
</g> 
</g> 
<text text-anchor="left" x="4" y="-20" style="font-family:Arial Narrow;font-size:20.00;font-weight:bold;">GO Hierarchical View:</text> 

<text text-anchor="left" x="4" y="0" style="font-family:Arial Narrow;font-size:20.00;font-style:italic;">molecular function</text> 

<script type="text/ecmascript"> 
<![CDATA[ 
var targetText; 
function changeToText(z) { 
		targetText = svgDocument.getElementById(z).firstChild; 
		targetText.nodeValue="link to "+z; 
} 
function changeBackText(z) { 
		targetText = svgDocument.getElementById(z).firstChild; 
		targetText.nodeValue=z; 
} 
function changeToText2(z,n) { 
		targetText = svgDocument.getElementById(z).firstChild; 
		if (n<=1) { 
			targetText.nodeValue="link to " + n + " protein record"; 
		} else { 
			targetText.nodeValue="link to " + n + " protein records"; 
		} 
} 
function changeBackText2(z,n) { 
		targetText = svgDocument.getElementById(z).firstChild; 
		targetText.nodeValue="(" + n + ")"; 
} 
// ]]> 
</script> 
</svg> 
