<?xml version="1.0" encoding="UTF-8" standalone="no"?> 
<!DOCTYPE svg PUBLIC "-//W3C//DTD SVG 1.1//EN" 
 "http://www.w3.org/Graphics/SVG/1.1/DTD/svg11.dtd"> 
<!-- Generated by graphviz version 2.28.0 (20110622.2320) 
 --> 
<!-- Title: G Pages: 1 --> 
<svg width="2000" height="1000"  
 viewBox="-30 -50 2000 1000" xmlns="http://www.w3.org/2000/svg" xmlns:xlink="http://www.w3.org/1999/xlink"> 
<g id="graph1" class="graph" transform="scale(1 1) rotate(0) translate(4 256)"> 
<title>G</title> 
<polygon fill="white" stroke="white" points="-4,5 -4,-256 3575,-256 3575,5 -4,5"/> 
<!-- g0 --> 
<g id="node1" class="node"><title>g0</title> 
<ellipse fill="#e98576" stroke="#e98576" cx="421" cy="-162" rx="75.2018" ry="18"/> 
<a xlink:href="http://pir.georgetown.edu/cgi-bin/pt_graphvizView.pl?togoid=0003824" ><text id="GO:0003824" onmousemove="changeToText('GO:0003824')" onmouseout="changeBackText('GO:0003824')"  text-anchor="middle" x="421" y="-162.8" font-family="Times,serif" font-size="14.00">GO:0003824</text></a>
<a xlink:href="http://pir.georgetown.edu/cgi-bin/pt_graphvizView.pl?tofile=334853" ><text id="r334853" onmousemove="changeToText2('r334853', 4)" onmouseout="changeBackText2('r334853', 4)"  text-anchor="middle" x="421" y="-149.8" font-family="Times,serif" font-size="14.00">(4)</text>
 
</a> 
</g> 
<!-- r0 --> 
<g id="node3" class="node"><title>r0</title> 
<ellipse fill="#e98576" stroke="#e98576" cx="75" cy="-90" rx="75.2018" ry="18"/> 
<a xlink:href="http://pir.georgetown.edu/cgi-bin/pt_graphvizView.pl?togoid=0016853" ><text id="GO:0016853" onmousemove="changeToText('GO:0016853')" onmouseout="changeBackText('GO:0016853')"  text-anchor="middle" x="75" y="-90.8" font-family="Times,serif" font-size="14.00">GO:0016853</text></a>
<a xlink:href="http://pir.georgetown.edu/cgi-bin/pt_graphvizView.pl?tofile=334855" ><text id="r334855" onmousemove="changeToText2('r334855', 3)" onmouseout="changeBackText2('r334855', 3)"  text-anchor="middle" x="75" y="-77.8" font-family="Times,serif" font-size="14.00">(3)</text>
 
</a> 
</g> 
<!-- g0&#45;&gt;r0 --> 
<g id="edge2" class="edge"><title>g0&#45;&gt;r0</title> 
<path fill="none" stroke="black" d="M365.409,-149.753C304.121,-137.354 205.608,-117.424 140.59,-104.27"/> 
<polygon fill="black" stroke="black" points="140.948,-100.771 130.453,-102.219 139.56,-107.632 140.948,-100.771"/> 
</g> 
<!-- f0 --> 
<g id="node15" class="node"><title>f0</title> 
<ellipse fill="#e98576" stroke="#e98576" cx="248" cy="-90" rx="79.4447" ry="18"/> 
<a xlink:href="http://pir.georgetown.edu/cgi-bin/pt_graphvizView.pl?togoid=0016787" ><text id="GO:0016787" onmousemove="changeToText('GO:0016787')" onmouseout="changeBackText('GO:0016787')"  text-anchor="middle" x="248" y="-90.8" font-family="Times,serif" font-size="14.00">GO:0016787</text></a>
<a xlink:href="http://pir.georgetown.edu/cgi-bin/pt_graphvizView.pl?tofile=334829" ><text id="r334829" onmousemove="changeToText2('r334829', 15)" onmouseout="changeBackText2('r334829', 15)"  text-anchor="middle" x="248" y="-77.8" font-family="Times,serif" font-size="14.00">(15)</text>
 
</a> 
</g> 
<!-- g0&#45;&gt;f0 --> 
<g id="edge20" class="edge"><title>g0&#45;&gt;f0</title> 
<path fill="none" stroke="black" d="M384.311,-146.155C358.138,-135.564 322.734,-121.239 294.568,-109.842"/> 
<polygon fill="black" stroke="black" points="295.517,-106.451 284.934,-105.944 292.891,-112.94 295.517,-106.451"/> 
</g> 
<!-- m0 --> 
<g id="node30" class="node"><title>m0</title> 
<ellipse fill="#e98576" stroke="#e98576" cx="421" cy="-90" rx="75.2018" ry="18"/> 
<a xlink:href="http://pir.georgetown.edu/cgi-bin/pt_graphvizView.pl?togoid=0016491" ><text id="GO:0016491" onmousemove="changeToText('GO:0016491')" onmouseout="changeBackText('GO:0016491')"  text-anchor="middle" x="421" y="-90.8" font-family="Times,serif" font-size="14.00">GO:0016491</text></a>
<a xlink:href="http://pir.georgetown.edu/cgi-bin/pt_graphvizView.pl?tofile=334841" ><text id="r334841" onmousemove="changeToText2('r334841', 7)" onmouseout="changeBackText2('r334841', 7)"  text-anchor="middle" x="421" y="-77.8" font-family="Times,serif" font-size="14.00">(7)</text>
 
</a> 
</g> 
<!-- g0&#45;&gt;m0 --> 
<g id="edge28" class="edge"><title>g0&#45;&gt;m0</title> 
<path fill="none" stroke="black" d="M421,-143.697C421,-135.983 421,-126.712 421,-118.112"/> 
<polygon fill="black" stroke="black" points="424.5,-118.104 421,-108.104 417.5,-118.104 424.5,-118.104"/> 
</g> 
<!-- c1 --> 
<g id="node60" class="node"><title>c1</title> 
<ellipse fill="#e98576" stroke="#e98576" cx="589" cy="-90" rx="75.2018" ry="18"/> 
<a xlink:href="http://pir.georgetown.edu/cgi-bin/pt_graphvizView.pl?togoid=0016740" ><text id="GO:0016740" onmousemove="changeToText('GO:0016740')" onmouseout="changeBackText('GO:0016740')"  text-anchor="middle" x="589" y="-90.8" font-family="Times,serif" font-size="14.00">GO:0016740</text></a>
<a xlink:href="http://pir.georgetown.edu/cgi-bin/pt_graphvizView.pl?tofile=334877" ><text id="r334877" onmousemove="changeToText2('r334877', 1)" onmouseout="changeBackText2('r334877', 1)"  text-anchor="middle" x="589" y="-77.8" font-family="Times,serif" font-size="14.00">(1)</text>
 
</a> 
</g> 
<!-- g0&#45;&gt;c1 --> 
<g id="edge58" class="edge"><title>g0&#45;&gt;c1</title> 
<path fill="none" stroke="black" d="M456.628,-146.155C482.046,-135.564 516.426,-121.239 543.778,-109.842"/> 
<polygon fill="black" stroke="black" points="545.249,-113.021 553.134,-105.944 542.557,-106.56 545.249,-113.021"/> 
</g> 
<!-- c0 --> 
<g id="node4" class="node"><title>c0</title> 
<ellipse fill="#e98576" stroke="#e98576" cx="2383" cy="-234" rx="75.2018" ry="18"/> 
<a xlink:href="http://pir.georgetown.edu/cgi-bin/pt_graphvizView.pl?togoid=0003674" ><text id="GO:0003674" onmousemove="changeToText('GO:0003674')" onmouseout="changeBackText('GO:0003674')"  text-anchor="middle" x="2383" y="-234.8" font-family="Times,serif" font-size="14.00">GO:0003674</text></a>
<a xlink:href="http://pir.georgetown.edu/cgi-bin/pt_graphvizView.pl?tofile=334859" ><text id="r334859" onmousemove="changeToText2('r334859', 3)" onmouseout="changeBackText2('r334859', 3)"  text-anchor="middle" x="2383" y="-221.8" font-family="Times,serif" font-size="14.00">(3)</text>
 
</a> 
</g> 
<!-- c0&#45;&gt;g0 --> 
<g id="edge42" class="edge"><title>c0&#45;&gt;g0</title> 
<path fill="none" stroke="black" d="M2309.37,-230.373C2003,-219.442 830.006,-177.592 504.948,-165.995"/> 
<polygon fill="black" stroke="black" points="504.78,-162.487 494.661,-165.628 504.53,-169.482 504.78,-162.487"/> 
</g> 
<!-- h0 --> 
<g id="node6" class="node"><title>h0</title> 
<ellipse fill="#e98576" stroke="#e98576" cx="1874" cy="-162" rx="79.4447" ry="18"/> 
<a xlink:href="http://pir.georgetown.edu/cgi-bin/pt_graphvizView.pl?togoid=0030234" ><text id="GO:0030234" onmousemove="changeToText('GO:0030234')" onmouseout="changeBackText('GO:0030234')"  text-anchor="middle" x="1874" y="-162.8" font-family="Times,serif" font-size="14.00">GO:0030234</text></a>
<a xlink:href="http://pir.georgetown.edu/cgi-bin/pt_graphvizView.pl?tofile=334831" ><text id="r334831" onmousemove="changeToText2('r334831', 14)" onmouseout="changeBackText2('r334831', 14)"  text-anchor="middle" x="1874" y="-149.8" font-family="Times,serif" font-size="14.00">(14)</text>
 
</a> 
</g> 
<!-- c0&#45;&gt;h0 --> 
<g id="edge4" class="edge"><title>c0&#45;&gt;h0</title> 
<path fill="none" stroke="black" d="M2315.89,-225.856C2232.83,-216.708 2087.13,-199.667 1963,-180 1955.95,-178.883 1948.6,-177.628 1941.29,-176.319"/> 
<polygon fill="black" stroke="black" points="1941.82,-172.859 1931.36,-174.508 1940.57,-179.746 1941.82,-172.859"/> 
</g> 
<!-- b0 --> 
<g id="node7" class="node"><title>b0</title> 
<ellipse fill="#e98576" stroke="#e98576" cx="2047" cy="-162" rx="75.2018" ry="18"/> 
<a xlink:href="http://pir.georgetown.edu/cgi-bin/pt_graphvizView.pl?togoid=0005488" ><text id="GO:0005488" onmousemove="changeToText('GO:0005488')" onmouseout="changeBackText('GO:0005488')"  text-anchor="middle" x="2047" y="-162.8" font-family="Times,serif" font-size="14.00">GO:0005488</text></a>
<a xlink:href="http://pir.georgetown.edu/cgi-bin/pt_graphvizView.pl?tofile=334849" ><text id="r334849" onmousemove="changeToText2('r334849', 5)" onmouseout="changeBackText2('r334849', 5)"  text-anchor="middle" x="2047" y="-149.8" font-family="Times,serif" font-size="14.00">(5)</text>
 
</a> 
</g> 
<!-- c0&#45;&gt;b0 --> 
<g id="edge12" class="edge"><title>c0&#45;&gt;b0</title> 
<path fill="none" stroke="black" d="M2328.27,-221.597C2268.96,-209.242 2174.4,-189.541 2111.52,-176.441"/> 
<polygon fill="black" stroke="black" points="2112.21,-173.011 2101.71,-174.398 2110.78,-179.864 2112.21,-173.011"/> 
</g> 
<!-- l0 --> 
<g id="node19" class="node"><title>l0</title> 
<ellipse fill="#e98576" stroke="#e98576" cx="2215" cy="-162" rx="75.2018" ry="18"/> 
<a xlink:href="http://pir.georgetown.edu/cgi-bin/pt_graphvizView.pl?togoid=0005215" ><text id="GO:0005215" onmousemove="changeToText('GO:0005215')" onmouseout="changeBackText('GO:0005215')"  text-anchor="middle" x="2215" y="-162.8" font-family="Times,serif" font-size="14.00">GO:0005215</text></a>
<a xlink:href="http://pir.georgetown.edu/cgi-bin/pt_graphvizView.pl?tofile=334839" ><text id="r334839" onmousemove="changeToText2('r334839', 7)" onmouseout="changeBackText2('r334839', 7)"  text-anchor="middle" x="2215" y="-149.8" font-family="Times,serif" font-size="14.00">(7)</text>
 
</a> 
</g> 
<!-- c0&#45;&gt;l0 --> 
<g id="edge16" class="edge"><title>c0&#45;&gt;l0</title> 
<path fill="none" stroke="black" d="M2347.37,-218.155C2321.95,-207.564 2287.57,-193.239 2260.22,-181.842"/> 
<polygon fill="black" stroke="black" points="2261.44,-178.56 2250.87,-177.944 2258.75,-185.021 2261.44,-178.56"/> 
</g> 
<!-- k0 --> 
<g id="node32" class="node"><title>k0</title> 
<ellipse fill="#e98576" stroke="#e98576" cx="2383" cy="-162" rx="75.2018" ry="18"/> 
<a xlink:href="http://pir.georgetown.edu/cgi-bin/pt_graphvizView.pl?togoid=0005198" ><text id="GO:0005198" onmousemove="changeToText('GO:0005198')" onmouseout="changeBackText('GO:0005198')"  text-anchor="middle" x="2383" y="-162.8" font-family="Times,serif" font-size="14.00">GO:0005198</text></a>
<a xlink:href="http://pir.georgetown.edu/cgi-bin/pt_graphvizView.pl?tofile=334837" ><text id="r334837" onmousemove="changeToText2('r334837', 8)" onmouseout="changeBackText2('r334837', 8)"  text-anchor="middle" x="2383" y="-149.8" font-family="Times,serif" font-size="14.00">(8)</text>
 
</a> 
</g> 
<!-- c0&#45;&gt;k0 --> 
<g id="edge30" class="edge"><title>c0&#45;&gt;k0</title> 
<path fill="none" stroke="black" d="M2383,-215.697C2383,-207.983 2383,-198.712 2383,-190.112"/> 
<polygon fill="black" stroke="black" points="2386.5,-190.104 2383,-180.104 2379.5,-190.104 2386.5,-190.104"/> 
</g> 
<!-- e1 --> 
<g id="node36" class="node"><title>e1</title> 
<ellipse fill="#e98576" stroke="#e98576" cx="2551" cy="-162" rx="75.2018" ry="18"/> 
<a xlink:href="http://pir.georgetown.edu/cgi-bin/pt_graphvizView.pl?togoid=0042056" ><text id="GO:0042056" onmousemove="changeToText('GO:0042056')" onmouseout="changeBackText('GO:0042056')"  text-anchor="middle" x="2551" y="-162.8" font-family="Times,serif" font-size="14.00">GO:0042056</text></a>
<a xlink:href="http://pir.georgetown.edu/cgi-bin/pt_graphvizView.pl?tofile=334881" ><text id="r334881" onmousemove="changeToText2('r334881', 1)" onmouseout="changeBackText2('r334881', 1)"  text-anchor="middle" x="2551" y="-149.8" font-family="Times,serif" font-size="14.00">(1)</text>
 
</a> 
</g> 
<!-- c0&#45;&gt;e1 --> 
<g id="edge34" class="edge"><title>c0&#45;&gt;e1</title> 
<path fill="none" stroke="black" d="M2418.63,-218.155C2444.05,-207.564 2478.43,-193.239 2505.78,-181.842"/> 
<polygon fill="black" stroke="black" points="2507.25,-185.021 2515.13,-177.944 2504.56,-178.56 2507.25,-185.021"/> 
</g> 
<!-- w0 --> 
<g id="node47" class="node"><title>w0</title> 
<ellipse fill="#e98576" stroke="#e98576" cx="2719" cy="-162" rx="75.2018" ry="18"/> 
<a xlink:href="http://pir.georgetown.edu/cgi-bin/pt_graphvizView.pl?togoid=0003774" ><text id="GO:0003774" onmousemove="changeToText('GO:0003774')" onmouseout="changeBackText('GO:0003774')"  text-anchor="middle" x="2719" y="-162.8" font-family="Times,serif" font-size="14.00">GO:0003774</text></a>
<a xlink:href="http://pir.georgetown.edu/cgi-bin/pt_graphvizView.pl?tofile=334865" ><text id="r334865" onmousemove="changeToText2('r334865', 2)" onmouseout="changeBackText2('r334865', 2)"  text-anchor="middle" x="2719" y="-149.8" font-family="Times,serif" font-size="14.00">(2)</text>
 
</a> 
</g> 
<!-- c0&#45;&gt;w0 --> 
<g id="edge46" class="edge"><title>c0&#45;&gt;w0</title> 
<path fill="none" stroke="black" d="M2437.73,-221.597C2497.04,-209.242 2591.6,-189.541 2654.48,-176.441"/> 
<polygon fill="black" stroke="black" points="2655.22,-179.864 2664.29,-174.398 2653.79,-173.011 2655.22,-179.864"/> 
</g> 
<!-- v0 --> 
<g id="node48" class="node"><title>v0</title> 
<a xlink:href="http://pir.georgetown.edu/cgi-bin/pt_graphvizView.pl?togoid=0060089" > 
<ellipse fill="#dddddd" stroke="#dddddd" cx="2874" cy="-162" rx="61.1934" ry="18"/> 
<a xlink:href="http://pir.georgetown.edu/cgi-bin/pt_graphvizView.pl?togoid=0060089" ><text id="GO:0060089" onmousemove="changeToText('GO:0060089')" onmouseout="changeBackText('GO:0060089')"  text-anchor="middle" x="2874" y="-157.8" font-family="Times,serif" font-size="14.00">GO:0060089</text></a>
 
</a> 
</g> 
<!-- c0&#45;&gt;v0 --> 
<g id="edge64" class="edge"><title>c0&#45;&gt;v0</title> 
<path fill="none" stroke="black" d="M2451.74,-226.659C2535.2,-218.423 2680.08,-202.401 2803,-180 2808.38,-179.02 2813.96,-177.888 2819.52,-176.682"/> 
<polygon fill="black" stroke="black" points="2820.48,-180.055 2829.47,-174.451 2818.94,-173.225 2820.48,-180.055"/> 
</g> 
<!-- o0 --> 
<g id="node52" class="node"><title>o0</title> 
<ellipse fill="#e98576" stroke="#e98576" cx="3029" cy="-162" rx="75.2018" ry="18"/> 
<a xlink:href="http://pir.georgetown.edu/cgi-bin/pt_graphvizView.pl?togoid=0016209" ><text id="GO:0016209" onmousemove="changeToText('GO:0016209')" onmouseout="changeBackText('GO:0016209')"  text-anchor="middle" x="3029" y="-162.8" font-family="Times,serif" font-size="14.00">GO:0016209</text></a>
<a xlink:href="http://pir.georgetown.edu/cgi-bin/pt_graphvizView.pl?tofile=334845" ><text id="r334845" onmousemove="changeToText2('r334845', 6)" onmouseout="changeBackText2('r334845', 6)"  text-anchor="middle" x="3029" y="-149.8" font-family="Times,serif" font-size="14.00">(6)</text>
 
</a> 
</g> 
<!-- c0&#45;&gt;o0 --> 
<g id="edge50" class="edge"><title>c0&#45;&gt;o0</title> 
<path fill="none" stroke="black" d="M2455.02,-228.583C2562.06,-221.48 2769.29,-205.654 2944,-180 2950.8,-179.001 2957.88,-177.817 2964.93,-176.546"/> 
<polygon fill="black" stroke="black" points="2966,-179.907 2975.19,-174.633 2964.71,-173.026 2966,-179.907"/> 
</g> 
<!-- z0 --> 
<g id="node9" class="node"><title>z0</title> 
<ellipse fill="#e98576" stroke="#e98576" cx="757" cy="-90" rx="75.2018" ry="18"/> 
<a xlink:href="http://pir.georgetown.edu/cgi-bin/pt_graphvizView.pl?togoid=0042277" ><text id="GO:0042277" onmousemove="changeToText('GO:0042277')" onmouseout="changeBackText('GO:0042277')"  text-anchor="middle" x="757" y="-90.8" font-family="Times,serif" font-size="14.00">GO:0042277</text></a>
<a xlink:href="http://pir.georgetown.edu/cgi-bin/pt_graphvizView.pl?tofile=334871" ><text id="r334871" onmousemove="changeToText2('r334871', 2)" onmouseout="changeBackText2('r334871', 2)"  text-anchor="middle" x="757" y="-77.8" font-family="Times,serif" font-size="14.00">(2)</text>
 
</a> 
</g> 
<!-- b0&#45;&gt;z0 --> 
<g id="edge6" class="edge"><title>b0&#45;&gt;z0</title> 
<path fill="none" stroke="black" d="M1994.16,-149.028C1983.56,-147.024 1972.47,-145.206 1962,-144 1466.8,-86.9253 1336.14,-165.641 841,-108 833.888,-107.172 826.481,-106.055 819.141,-104.786"/> 
<polygon fill="black" stroke="black" points="819.675,-101.325 809.209,-102.975 818.419,-108.212 819.675,-101.325"/> 
</g> 
<!-- y0 --> 
<g id="node11" class="node"><title>y0</title> 
<ellipse fill="#e98576" stroke="#e98576" cx="925" cy="-90" rx="75.2018" ry="18"/> 
<a xlink:href="http://pir.georgetown.edu/cgi-bin/pt_graphvizView.pl?togoid=0019825" ><text id="GO:0019825" onmousemove="changeToText('GO:0019825')" onmouseout="changeBackText('GO:0019825')"  text-anchor="middle" x="925" y="-90.8" font-family="Times,serif" font-size="14.00">GO:0019825</text></a>
<a xlink:href="http://pir.georgetown.edu/cgi-bin/pt_graphvizView.pl?tofile=334869" ><text id="r334869" onmousemove="changeToText2('r334869', 2)" onmouseout="changeBackText2('r334869', 2)"  text-anchor="middle" x="925" y="-77.8" font-family="Times,serif" font-size="14.00">(2)</text>
 
</a> 
</g> 
<!-- b0&#45;&gt;y0 --> 
<g id="edge8" class="edge"><title>b0&#45;&gt;y0</title> 
<path fill="none" stroke="black" d="M1994.16,-149.075C1983.56,-147.067 1972.46,-145.236 1962,-144 1541.07,-94.279 1429.87,-158.203 1009,-108 1002.15,-107.183 995.027,-106.104 987.954,-104.886"/> 
<polygon fill="black" stroke="black" points="988.129,-101.36 977.664,-103.014 986.876,-108.247 988.129,-101.36"/> 
</g> 
<!-- a0 --> 
<g id="node13" class="node"><title>a0</title> 
<ellipse fill="#e98576" stroke="#e98576" cx="1098" cy="-90" rx="79.4447" ry="18"/> 
<a xlink:href="http://pir.georgetown.edu/cgi-bin/pt_graphvizView.pl?togoid=0005515" ><text id="GO:0005515" onmousemove="changeToText('GO:0005515')" onmouseout="changeBackText('GO:0005515')"  text-anchor="middle" x="1098" y="-90.8" font-family="Times,serif" font-size="14.00">GO:0005515</text></a>
<a xlink:href="http://pir.georgetown.edu/cgi-bin/pt_graphvizView.pl?tofile=334823" ><text id="r334823" onmousemove="changeToText2('r334823', 60)" onmouseout="changeBackText2('r334823', 60)"  text-anchor="middle" x="1098" y="-77.8" font-family="Times,serif" font-size="14.00">(60)</text>
 
</a> 
</g> 
<!-- b0&#45;&gt;a0 --> 
<g id="edge10" class="edge"><title>b0&#45;&gt;a0</title> 
<path fill="none" stroke="black" d="M1994.15,-149.147C1983.55,-147.133 1972.46,-145.281 1962,-144 1619.74,-102.069 1529.44,-148.449 1187,-108 1179.42,-107.105 1171.52,-105.938 1163.69,-104.635"/> 
<polygon fill="black" stroke="black" points="1164.29,-101.187 1153.83,-102.923 1163.09,-108.084 1164.29,-101.187"/> 
</g> 
<!-- d0 --> 
<g id="node21" class="node"><title>d0</title> 
<ellipse fill="#e98576" stroke="#e98576" cx="1276" cy="-90" rx="79.4447" ry="18"/> 
<a xlink:href="http://pir.georgetown.edu/cgi-bin/pt_graphvizView.pl?togoid=0043167" ><text id="GO:0043167" onmousemove="changeToText('GO:0043167')" onmouseout="changeBackText('GO:0043167')"  text-anchor="middle" x="1276" y="-90.8" font-family="Times,serif" font-size="14.00">GO:0043167</text></a>
<a xlink:href="http://pir.georgetown.edu/cgi-bin/pt_graphvizView.pl?tofile=334825" ><text id="r334825" onmousemove="changeToText2('r334825', 39)" onmouseout="changeBackText2('r334825', 39)"  text-anchor="middle" x="1276" y="-77.8" font-family="Times,serif" font-size="14.00">(39)</text>
 
</a> 
</g> 
<!-- b0&#45;&gt;d0 --> 
<g id="edge18" class="edge"><title>b0&#45;&gt;d0</title> 
<path fill="none" stroke="black" d="M1993.68,-149.174C1983.22,-147.184 1972.3,-145.334 1962,-144 1698.39,-109.854 1628.76,-141.004 1365,-108 1357.62,-107.077 1349.93,-105.914 1342.3,-104.633"/> 
<polygon fill="black" stroke="black" points="1342.78,-101.164 1332.32,-102.89 1341.57,-108.06 1342.78,-101.164"/> 
</g> 
<!-- g1 --> 
<g id="node24" class="node"><title>g1</title> 
<ellipse fill="#e98576" stroke="#e98576" cx="1449" cy="-90" rx="75.2018" ry="18"/> 
<a xlink:href="http://pir.georgetown.edu/cgi-bin/pt_graphvizView.pl?togoid=0030246" ><text id="GO:0030246" onmousemove="changeToText('GO:0030246')" onmouseout="changeBackText('GO:0030246')"  text-anchor="middle" x="1449" y="-90.8" font-family="Times,serif" font-size="14.00">GO:0030246</text></a>
<a xlink:href="http://pir.georgetown.edu/cgi-bin/pt_graphvizView.pl?tofile=334885" ><text id="r334885" onmousemove="changeToText2('r334885', 1)" onmouseout="changeBackText2('r334885', 1)"  text-anchor="middle" x="1449" y="-77.8" font-family="Times,serif" font-size="14.00">(1)</text>
 
</a> 
</g> 
<!-- b0&#45;&gt;g1 --> 
<g id="edge22" class="edge"><title>b0&#45;&gt;g1</title> 
<path fill="none" stroke="black" d="M1993.2,-149.281C1982.88,-147.305 1972.13,-145.434 1962,-144 1772.55,-117.195 1722.42,-135.022 1533,-108 1526.27,-107.04 1519.27,-105.881 1512.3,-104.625"/> 
<polygon fill="black" stroke="black" points="1512.64,-101.127 1502.16,-102.727 1511.35,-108.007 1512.64,-101.127"/> 
</g> 
<!-- f1 --> 
<g id="node26" class="node"><title>f1</title> 
<ellipse fill="#e98576" stroke="#e98576" cx="1617" cy="-90" rx="75.2018" ry="18"/> 
<a xlink:href="http://pir.georgetown.edu/cgi-bin/pt_graphvizView.pl?togoid=0043178" ><text id="GO:0043178" onmousemove="changeToText('GO:0043178')" onmouseout="changeBackText('GO:0043178')"  text-anchor="middle" x="1617" y="-90.8" font-family="Times,serif" font-size="14.00">GO:0043178</text></a>
<a xlink:href="http://pir.georgetown.edu/cgi-bin/pt_graphvizView.pl?tofile=334883" ><text id="r334883" onmousemove="changeToText2('r334883', 1)" onmouseout="changeBackText2('r334883', 1)"  text-anchor="middle" x="1617" y="-77.8" font-family="Times,serif" font-size="14.00">(1)</text>
 
</a> 
</g> 
<!-- b0&#45;&gt;f1 --> 
<g id="edge24" class="edge"><title>b0&#45;&gt;f1</title> 
<path fill="none" stroke="black" d="M1992.22,-149.539C1982.19,-147.584 1971.79,-145.653 1962,-144 1846.54,-124.509 1816.44,-127.623 1701,-108 1694.5,-106.894 1687.72,-105.662 1680.97,-104.379"/> 
<polygon fill="black" stroke="black" points="1681.61,-100.938 1671.13,-102.473 1680.28,-107.811 1681.61,-100.938"/> 
</g> 
<!-- e0 --> 
<g id="node28" class="node"><title>e0</title> 
<ellipse fill="#e98576" stroke="#e98576" cx="1790" cy="-90" rx="79.4447" ry="18"/> 
<a xlink:href="http://pir.georgetown.edu/cgi-bin/pt_graphvizView.pl?togoid=0003676" ><text id="GO:0003676" onmousemove="changeToText('GO:0003676')" onmouseout="changeBackText('GO:0003676')"  text-anchor="middle" x="1790" y="-90.8" font-family="Times,serif" font-size="14.00">GO:0003676</text></a>
<a xlink:href="http://pir.georgetown.edu/cgi-bin/pt_graphvizView.pl?tofile=334827" ><text id="r334827" onmousemove="changeToText2('r334827', 24)" onmouseout="changeBackText2('r334827', 24)"  text-anchor="middle" x="1790" y="-77.8" font-family="Times,serif" font-size="14.00">(24)</text>
 
</a> 
</g> 
<!-- b0&#45;&gt;e0 --> 
<g id="edge26" class="edge"><title>b0&#45;&gt;e0</title> 
<path fill="none" stroke="black" d="M1999.26,-147.998C1956.66,-136.394 1894.15,-119.367 1848.54,-106.946"/> 
<polygon fill="black" stroke="black" points="1849.36,-103.541 1838.79,-104.29 1847.52,-110.295 1849.36,-103.541"/> 
</g> 
<!-- t0 --> 
<g id="node34" class="node"><title>t0</title> 
<ellipse fill="#e98576" stroke="#e98576" cx="1963" cy="-90" rx="75.2018" ry="18"/> 
<a xlink:href="http://pir.georgetown.edu/cgi-bin/pt_graphvizView.pl?togoid=0003682" ><text id="GO:0003682" onmousemove="changeToText('GO:0003682')" onmouseout="changeBackText('GO:0003682')"  text-anchor="middle" x="1963" y="-90.8" font-family="Times,serif" font-size="14.00">GO:0003682</text></a>
<a xlink:href="http://pir.georgetown.edu/cgi-bin/pt_graphvizView.pl?tofile=334861" ><text id="r334861" onmousemove="changeToText2('r334861', 3)" onmouseout="changeBackText2('r334861', 3)"  text-anchor="middle" x="1963" y="-77.8" font-family="Times,serif" font-size="14.00">(3)</text>
 
</a> 
</g> 
<!-- b0&#45;&gt;t0 --> 
<g id="edge32" class="edge"><title>b0&#45;&gt;t0</title> 
<path fill="none" stroke="black" d="M2027.09,-144.411C2016.21,-135.345 2002.57,-123.974 1990.67,-114.057"/> 
<polygon fill="black" stroke="black" points="1992.69,-111.183 1982.76,-107.47 1988.21,-116.561 1992.69,-111.183"/> 
</g> 
<!-- d1 --> 
<g id="node38" class="node"><title>d1</title> 
<ellipse fill="#e98576" stroke="#e98576" cx="2131" cy="-90" rx="75.2018" ry="18"/> 
<a xlink:href="http://pir.georgetown.edu/cgi-bin/pt_graphvizView.pl?togoid=0048037" ><text id="GO:0048037" onmousemove="changeToText('GO:0048037')" onmouseout="changeBackText('GO:0048037')"  text-anchor="middle" x="2131" y="-90.8" font-family="Times,serif" font-size="14.00">GO:0048037</text></a>
<a xlink:href="http://pir.georgetown.edu/cgi-bin/pt_graphvizView.pl?tofile=334879" ><text id="r334879" onmousemove="changeToText2('r334879', 1)" onmouseout="changeBackText2('r334879', 1)"  text-anchor="middle" x="2131" y="-77.8" font-family="Times,serif" font-size="14.00">(1)</text>
 
</a> 
</g> 
<!-- b0&#45;&gt;d1 --> 
<g id="edge36" class="edge"><title>b0&#45;&gt;d1</title> 
<path fill="none" stroke="black" d="M2066.91,-144.411C2077.79,-135.345 2091.43,-123.974 2103.33,-114.057"/> 
<polygon fill="black" stroke="black" points="2105.79,-116.561 2111.24,-107.47 2101.31,-111.183 2105.79,-116.561"/> 
</g> 
<!-- s0 --> 
<g id="node40" class="node"><title>s0</title> 
<ellipse fill="#e98576" stroke="#e98576" cx="2299" cy="-90" rx="75.2018" ry="18"/> 
<a xlink:href="http://pir.georgetown.edu/cgi-bin/pt_graphvizView.pl?togoid=0003823" ><text id="GO:0003823" onmousemove="changeToText('GO:0003823')" onmouseout="changeBackText('GO:0003823')"  text-anchor="middle" x="2299" y="-90.8" font-family="Times,serif" font-size="14.00">GO:0003823</text></a>
<a xlink:href="http://pir.georgetown.edu/cgi-bin/pt_graphvizView.pl?tofile=334857" ><text id="r334857" onmousemove="changeToText2('r334857', 3)" onmouseout="changeBackText2('r334857', 3)"  text-anchor="middle" x="2299" y="-77.8" font-family="Times,serif" font-size="14.00">(3)</text>
 
</a> 
</g> 
<!-- b0&#45;&gt;s0 --> 
<g id="edge38" class="edge"><title>b0&#45;&gt;s0</title> 
<path fill="none" stroke="black" d="M2094.1,-147.916C2135.95,-136.29 2197.24,-119.267 2241.87,-106.868"/> 
<polygon fill="black" stroke="black" points="2243,-110.188 2251.7,-104.139 2241.13,-103.443 2243,-110.188"/> 
</g> 
<!-- n0 --> 
<g id="node42" class="node"><title>n0</title> 
<ellipse fill="#e98576" stroke="#e98576" cx="2467" cy="-90" rx="75.2018" ry="18"/> 
<a xlink:href="http://pir.georgetown.edu/cgi-bin/pt_graphvizView.pl?togoid=0008289" ><text id="GO:0008289" onmousemove="changeToText('GO:0008289')" onmouseout="changeBackText('GO:0008289')"  text-anchor="middle" x="2467" y="-90.8" font-family="Times,serif" font-size="14.00">GO:0008289</text></a>
<a xlink:href="http://pir.georgetown.edu/cgi-bin/pt_graphvizView.pl?tofile=334843" ><text id="r334843" onmousemove="changeToText2('r334843', 6)" onmouseout="changeBackText2('r334843', 6)"  text-anchor="middle" x="2467" y="-77.8" font-family="Times,serif" font-size="14.00">(6)</text>
 
</a> 
</g> 
<!-- b0&#45;&gt;n0 --> 
<g id="edge40" class="edge"><title>b0&#45;&gt;n0</title> 
<path fill="none" stroke="black" d="M2101.59,-149.476C2111.36,-147.549 2121.47,-145.644 2131,-144 2242.49,-124.771 2271.51,-127.229 2383,-108 2389.25,-106.921 2395.76,-105.73 2402.25,-104.494"/> 
<polygon fill="black" stroke="black" points="2403.26,-107.863 2412.41,-102.524 2401.93,-100.991 2403.26,-107.863"/> 
</g> 
<!-- j0 --> 
<g id="node45" class="node"><title>j0</title> 
<ellipse fill="#e98576" stroke="#e98576" cx="2640" cy="-90" rx="79.4447" ry="18"/> 
<a xlink:href="http://pir.georgetown.edu/cgi-bin/pt_graphvizView.pl?togoid=0001882" ><text id="GO:0001882" onmousemove="changeToText('GO:0001882')" onmouseout="changeBackText('GO:0001882')"  text-anchor="middle" x="2640" y="-90.8" font-family="Times,serif" font-size="14.00">GO:0001882</text></a>
<a xlink:href="http://pir.georgetown.edu/cgi-bin/pt_graphvizView.pl?tofile=334835" ><text id="r334835" onmousemove="changeToText2('r334835', 11)" onmouseout="changeBackText2('r334835', 11)"  text-anchor="middle" x="2640" y="-77.8" font-family="Times,serif" font-size="14.00">(11)</text>
 
</a> 
</g> 
<!-- b0&#45;&gt;j0 --> 
<g id="edge44" class="edge"><title>b0&#45;&gt;j0</title> 
<path fill="none" stroke="black" d="M2100.16,-149.287C2110.36,-147.311 2120.98,-145.438 2131,-144 2316.45,-117.375 2365.41,-133.609 2551,-108 2558.18,-107.01 2565.65,-105.825 2573.09,-104.549"/> 
<polygon fill="black" stroke="black" points="2573.94,-107.953 2583.17,-102.76 2572.71,-101.061 2573.94,-107.953"/> 
</g> 
<!-- x0 --> 
<g id="node54" class="node"><title>x0</title> 
<ellipse fill="#e98576" stroke="#e98576" cx="2813" cy="-90" rx="75.2018" ry="18"/> 
<a xlink:href="http://pir.georgetown.edu/cgi-bin/pt_graphvizView.pl?togoid=0060090" ><text id="GO:0060090" onmousemove="changeToText('GO:0060090')" onmouseout="changeBackText('GO:0060090')"  text-anchor="middle" x="2813" y="-90.8" font-family="Times,serif" font-size="14.00">GO:0060090</text></a>
<a xlink:href="http://pir.georgetown.edu/cgi-bin/pt_graphvizView.pl?tofile=334867" ><text id="r334867" onmousemove="changeToText2('r334867', 2)" onmouseout="changeBackText2('r334867', 2)"  text-anchor="middle" x="2813" y="-77.8" font-family="Times,serif" font-size="14.00">(2)</text>
 
</a> 
</g> 
<!-- b0&#45;&gt;x0 --> 
<g id="edge52" class="edge"><title>b0&#45;&gt;x0</title> 
<path fill="none" stroke="black" d="M2099.69,-149.169C2110.03,-147.179 2120.82,-145.33 2131,-144 2394.57,-109.553 2464.39,-142.146 2728,-108 2735.08,-107.083 2742.45,-105.922 2749.77,-104.639"/> 
<polygon fill="black" stroke="black" points="2750.47,-108.069 2759.68,-102.826 2749.21,-101.183 2750.47,-108.069"/> 
</g> 
<!-- a1 --> 
<g id="node56" class="node"><title>a1</title> 
<ellipse fill="#e98576" stroke="#e98576" cx="2981" cy="-90" rx="75.2018" ry="18"/> 
<a xlink:href="http://pir.georgetown.edu/cgi-bin/pt_graphvizView.pl?togoid=0031406" ><text id="GO:0031406" onmousemove="changeToText('GO:0031406')" onmouseout="changeBackText('GO:0031406')"  text-anchor="middle" x="2981" y="-90.8" font-family="Times,serif" font-size="14.00">GO:0031406</text></a>
<a xlink:href="http://pir.georgetown.edu/cgi-bin/pt_graphvizView.pl?tofile=334873" ><text id="r334873" onmousemove="changeToText2('r334873', 1)" onmouseout="changeBackText2('r334873', 1)"  text-anchor="middle" x="2981" y="-77.8" font-family="Times,serif" font-size="14.00">(1)</text>
 
</a> 
</g> 
<!-- b0&#45;&gt;a1 --> 
<g id="edge54" class="edge"><title>b0&#45;&gt;a1</title> 
<path fill="none" stroke="black" d="M2099.67,-149.061C2110.01,-147.08 2120.81,-145.263 2131,-144 2469.23,-102.075 2558.77,-149.925 2897,-108 2903.85,-107.151 2910.97,-106.053 2918.04,-104.822"/> 
<polygon fill="black" stroke="black" points="2919.12,-108.183 2928.33,-102.939 2917.86,-101.297 2919.12,-108.183"/> 
</g> 
<!-- p0 --> 
<g id="node62" class="node"><title>p0</title> 
<ellipse fill="#e98576" stroke="#e98576" cx="3149" cy="-90" rx="75.2018" ry="18"/> 
<a xlink:href="http://pir.georgetown.edu/cgi-bin/pt_graphvizView.pl?togoid=0046906" ><text id="GO:0046906" onmousemove="changeToText('GO:0046906')" onmouseout="changeBackText('GO:0046906')"  text-anchor="middle" x="3149" y="-90.8" font-family="Times,serif" font-size="14.00">GO:0046906</text></a>
<a xlink:href="http://pir.georgetown.edu/cgi-bin/pt_graphvizView.pl?tofile=334847" ><text id="r334847" onmousemove="changeToText2('r334847', 6)" onmouseout="changeBackText2('r334847', 6)"  text-anchor="middle" x="3149" y="-77.8" font-family="Times,serif" font-size="14.00">(6)</text>
 
</a> 
</g> 
<!-- b0&#45;&gt;p0 --> 
<g id="edge60" class="edge"><title>b0&#45;&gt;p0</title> 
<path fill="none" stroke="black" d="M2099.66,-148.992C2110.01,-147.017 2120.81,-145.22 2131,-144 2543.48,-94.6386 2652.52,-157.361 3065,-108 3071.85,-107.18 3078.97,-106.1 3086.05,-104.88"/> 
<polygon fill="black" stroke="black" points="3087.12,-108.242 3096.34,-103.008 3085.87,-101.355 3087.12,-108.242"/> 
</g> 
<!-- i0 --> 
<g id="node64" class="node"><title>i0</title> 
<ellipse fill="#e98576" stroke="#e98576" cx="3322" cy="-90" rx="79.4447" ry="18"/> 
<a xlink:href="http://pir.georgetown.edu/cgi-bin/pt_graphvizView.pl?togoid=0000166" ><text id="GO:0000166" onmousemove="changeToText('GO:0000166')" onmouseout="changeBackText('GO:0000166')"  text-anchor="middle" x="3322" y="-90.8" font-family="Times,serif" font-size="14.00">GO:0000166</text></a>
<a xlink:href="http://pir.georgetown.edu/cgi-bin/pt_graphvizView.pl?tofile=334833" ><text id="r334833" onmousemove="changeToText2('r334833', 12)" onmouseout="changeBackText2('r334833', 12)"  text-anchor="middle" x="3322" y="-77.8" font-family="Times,serif" font-size="14.00">(12)</text>
 
</a> 
</g> 
<!-- b0&#45;&gt;i0 --> 
<g id="edge62" class="edge"><title>b0&#45;&gt;i0</title> 
<path fill="none" stroke="black" d="M2099.21,-149.03C2109.69,-147.025 2120.65,-145.207 2131,-144 2617.74,-87.2001 2745.96,-162.135 3233,-108 3240.7,-107.145 3248.72,-105.99 3256.67,-104.682"/> 
<polygon fill="black" stroke="black" points="3257.4,-108.108 3266.66,-102.955 3256.21,-101.21 3257.4,-108.108"/> 
</g> 
<!-- q0 --> 
<g id="node17" class="node"><title>q0</title> 
<ellipse fill="#e98576" stroke="#e98576" cx="248" cy="-18" rx="75.2018" ry="18"/> 
<a xlink:href="http://pir.georgetown.edu/cgi-bin/pt_graphvizView.pl?togoid=0008233" ><text id="GO:0008233" onmousemove="changeToText('GO:0008233')" onmouseout="changeBackText('GO:0008233')"  text-anchor="middle" x="248" y="-18.8" font-family="Times,serif" font-size="14.00">GO:0008233</text></a>
<a xlink:href="http://pir.georgetown.edu/cgi-bin/pt_graphvizView.pl?tofile=334851" ><text id="r334851" onmousemove="changeToText2('r334851', 5)" onmouseout="changeBackText2('r334851', 5)"  text-anchor="middle" x="248" y="-5.8" font-family="Times,serif" font-size="14.00">(5)</text>
 
</a> 
</g> 
<!-- f0&#45;&gt;q0 --> 
<g id="edge14" class="edge"><title>f0&#45;&gt;q0</title> 
<path fill="none" stroke="black" d="M248,-71.6966C248,-63.9827 248,-54.7125 248,-46.1124"/> 
<polygon fill="black" stroke="black" points="251.5,-46.1043 248,-36.1043 244.5,-46.1044 251.5,-46.1043"/> 
</g> 
<!-- b1 --> 
<g id="node58" class="node"><title>b1</title> 
<ellipse fill="#e98576" stroke="#e98576" cx="421" cy="-18" rx="75.2018" ry="18"/> 
<a xlink:href="http://pir.georgetown.edu/cgi-bin/pt_graphvizView.pl?togoid=0009055" ><text id="GO:0009055" onmousemove="changeToText('GO:0009055')" onmouseout="changeBackText('GO:0009055')"  text-anchor="middle" x="421" y="-18.8" font-family="Times,serif" font-size="14.00">GO:0009055</text></a>
<a xlink:href="http://pir.georgetown.edu/cgi-bin/pt_graphvizView.pl?tofile=334875" ><text id="r334875" onmousemove="changeToText2('r334875', 1)" onmouseout="changeBackText2('r334875', 1)"  text-anchor="middle" x="421" y="-5.8" font-family="Times,serif" font-size="14.00">(1)</text>
 
</a> 
</g> 
<!-- m0&#45;&gt;b1 --> 
<g id="edge56" class="edge"><title>m0&#45;&gt;b1</title> 
<path fill="none" stroke="black" d="M421,-71.6966C421,-63.9827 421,-54.7125 421,-46.1124"/> 
<polygon fill="black" stroke="black" points="424.5,-46.1043 421,-36.1043 417.5,-46.1044 424.5,-46.1043"/> 
</g> 
<!-- u0 --> 
<g id="node50" class="node"><title>u0</title> 
<ellipse fill="#e98576" stroke="#e98576" cx="3495" cy="-90" rx="75.2018" ry="18"/> 
<a xlink:href="http://pir.georgetown.edu/cgi-bin/pt_graphvizView.pl?togoid=0004871" ><text id="GO:0004871" onmousemove="changeToText('GO:0004871')" onmouseout="changeBackText('GO:0004871')"  text-anchor="middle" x="3495" y="-90.8" font-family="Times,serif" font-size="14.00">GO:0004871</text></a>
<a xlink:href="http://pir.georgetown.edu/cgi-bin/pt_graphvizView.pl?tofile=334863" ><text id="r334863" onmousemove="changeToText2('r334863', 3)" onmouseout="changeBackText2('r334863', 3)"  text-anchor="middle" x="3495" y="-77.8" font-family="Times,serif" font-size="14.00">(3)</text>
 
</a> 
</g> 
<!-- v0&#45;&gt;u0 --> 
<g id="edge48" class="edge"><title>v0&#45;&gt;u0</title> 
<path fill="none" stroke="black" d="M2917.72,-149.39C2926.69,-147.33 2936.11,-145.399 2945,-144 3149.76,-111.766 3204.67,-136.377 3410,-108 3417.07,-107.023 3424.44,-105.824 3431.76,-104.519"/> 
<polygon fill="black" stroke="black" points="3432.47,-107.947 3441.66,-102.685 3431.19,-101.064 3432.47,-107.947"/> 
</g> 
</g> 
<text text-anchor="left" x="4" y="-20" style="font-family:Arial Narrow;font-size:20.00;font-weight:bold;">GO Hierarchical View:</text> 

<text text-anchor="left" x="4" y="0" style="font-family:Arial Narrow;font-size:20.00;font-style:italic;">molecular function</text> 

<script type="text/ecmascript"> 
<![CDATA[ 
var targetText; 
function changeToText(z) { 
		targetText = svgDocument.getElementById(z).firstChild; 
		targetText.nodeValue="link to "+z; 
} 
function changeBackText(z) { 
		targetText = svgDocument.getElementById(z).firstChild; 
		targetText.nodeValue=z; 
} 
function changeToText2(z,n) { 
		targetText = svgDocument.getElementById(z).firstChild; 
		if (n<=1) { 
			targetText.nodeValue="link to " + n + " protein record"; 
		} else { 
			targetText.nodeValue="link to " + n + " protein records"; 
		} 
} 
function changeBackText2(z,n) { 
		targetText = svgDocument.getElementById(z).firstChild; 
		targetText.nodeValue="(" + n + ")"; 
} 
// ]]> 
</script> 
</svg> 
