<?xml version="1.0" encoding="UTF-8" standalone="no"?>
<!DOCTYPE svg PUBLIC "-//W3C//DTD SVG 1.1//EN"
 "http://www.w3.org/Graphics/SVG/1.1/DTD/svg11.dtd">
<!-- Generated by graphviz version 2.28.0 (20110622.2320)
 -->
<!-- Title: G Pages: 1 -->
<svg width="2949pt" height="476pt"
 viewBox="0.00 0.00 2949.00 476.00" xmlns="http://www.w3.org/2000/svg" xmlns:xlink="http://www.w3.org/1999/xlink">
<g id="graph1" class="graph" transform="scale(1 1) rotate(0) translate(4 472)">
<title>G</title>
<polygon fill="white" stroke="white" points="-4,5 -4,-472 2946,-472 2946,5 -4,5"/>
<!-- f0 -->
<g id="node1" class="node"><title>f0</title>
<a xlink:href="0044237" xlink:title="GO:0044237">
<ellipse fill="#dddddd" stroke="#dddddd" cx="1789" cy="-306" rx="61.1934" ry="18"/>
<text text-anchor="middle" x="1789" y="-301.8" font-family="Times,serif" font-size="14.00">GO:0044237</text>
</a>
</g>
<!-- x1 -->
<g id="node3" class="node"><title>x1</title>
<a xlink:href="0006082" xlink:title="GO:0006082 (1)">
<ellipse fill="#e98576" stroke="#e98576" cx="2229" cy="-234" rx="75.2018" ry="18"/>
<text text-anchor="middle" x="2229" y="-229.8" font-family="Times,serif" font-size="14.00">GO:0006082 (1)</text>
</a>
</g>
<!-- f0&#45;&gt;x1 -->
<g id="edge2" class="edge"><title>f0&#45;&gt;x1</title>
<path fill="none" stroke="black" d="M1833.53,-293.55C1842.27,-291.527 1851.4,-289.569 1860,-288 1985.6,-265.101 2019.01,-272.677 2145,-252 2151.51,-250.931 2158.29,-249.723 2165.04,-248.455"/>
<polygon fill="black" stroke="black" points="2165.72,-251.888 2174.88,-246.565 2164.4,-245.013 2165.72,-251.888"/>
</g>
<!-- e0 -->
<g id="node4" class="node"><title>e0</title>
<a xlink:href="0006139" xlink:title="GO:0006139">
<ellipse fill="#dddddd" stroke="#dddddd" cx="1054" cy="-234" rx="61.1934" ry="18"/>
<text text-anchor="middle" x="1054" y="-229.8" font-family="Times,serif" font-size="14.00">GO:0006139</text>
</a>
</g>
<!-- f0&#45;&gt;e0 -->
<g id="edge114" class="edge"><title>f0&#45;&gt;e0</title>
<path fill="none" stroke="black" d="M1729.53,-301.443C1589.23,-292.858 1240.72,-270.357 1125,-252 1119.52,-251.131 1113.84,-250.063 1108.19,-248.888"/>
<polygon fill="black" stroke="black" points="1108.62,-245.398 1098.1,-246.68 1107.12,-252.237 1108.62,-245.398"/>
</g>
<!-- t1 -->
<g id="node9" class="node"><title>t1</title>
<a xlink:href="0006519" xlink:title="GO:0006519">
<ellipse fill="#dddddd" stroke="#dddddd" cx="1532" cy="-234" rx="61.1934" ry="18"/>
<text text-anchor="middle" x="1532" y="-229.8" font-family="Times,serif" font-size="14.00">GO:0006519</text>
</a>
</g>
<!-- f0&#45;&gt;t1 -->
<g id="edge44" class="edge"><title>f0&#45;&gt;t1</title>
<path fill="none" stroke="black" d="M1745.69,-293.205C1701.49,-281.164 1632.8,-262.455 1585.28,-249.513"/>
<polygon fill="black" stroke="black" points="1586.05,-246.095 1575.48,-246.844 1584.21,-252.849 1586.05,-246.095"/>
</g>
<!-- u1 -->
<g id="node12" class="node"><title>u1</title>
<a xlink:href="0009308" xlink:title="GO:0009308">
<ellipse fill="#dddddd" stroke="#dddddd" cx="2384" cy="-234" rx="61.1934" ry="18"/>
<text text-anchor="middle" x="2384" y="-229.8" font-family="Times,serif" font-size="14.00">GO:0009308</text>
</a>
</g>
<!-- f0&#45;&gt;u1 -->
<g id="edge88" class="edge"><title>f0&#45;&gt;u1</title>
<path fill="none" stroke="black" d="M1833.1,-293.317C1841.96,-291.289 1851.24,-289.389 1860,-288 2059.48,-256.39 2113.52,-283.61 2313,-252 2318.48,-251.132 2324.16,-250.064 2329.81,-248.89"/>
<polygon fill="black" stroke="black" points="2330.88,-252.239 2339.9,-246.683 2329.38,-245.4 2330.88,-252.239"/>
</g>
<!-- a1 -->
<g id="node33" class="node"><title>a1</title>
<a xlink:href="0006725" xlink:title="GO:0006725 (2)">
<ellipse fill="#e98576" stroke="#e98576" cx="1893" cy="-234" rx="75.2018" ry="18"/>
<text text-anchor="middle" x="1893" y="-229.8" font-family="Times,serif" font-size="14.00">GO:0006725 (2)</text>
</a>
</g>
<!-- f0&#45;&gt;a1 -->
<g id="edge28" class="edge"><title>f0&#45;&gt;a1</title>
<path fill="none" stroke="black" d="M1812.34,-289.291C1826.59,-279.7 1845.01,-267.298 1860.66,-256.769"/>
<polygon fill="black" stroke="black" points="1862.68,-259.63 1869.02,-251.142 1858.77,-253.823 1862.68,-259.63"/>
</g>
<!-- f1 -->
<g id="node43" class="node"><title>f1</title>
<a xlink:href="0044260" xlink:title="GO:0044260">
<ellipse fill="#dddddd" stroke="#dddddd" cx="913" cy="-234" rx="61.1934" ry="18"/>
<text text-anchor="middle" x="913" y="-229.8" font-family="Times,serif" font-size="14.00">GO:0044260</text>
</a>
</g>
<!-- f0&#45;&gt;f1 -->
<g id="edge40" class="edge"><title>f0&#45;&gt;f1</title>
<path fill="none" stroke="black" d="M1729.72,-301.373C1549.92,-290.335 1020.74,-257.567 984,-252 978.3,-251.136 972.384,-250.043 966.509,-248.829"/>
<polygon fill="black" stroke="black" points="967.222,-245.402 956.706,-246.69 965.73,-252.241 967.222,-245.402"/>
</g>
<!-- t0 -->
<g id="node54" class="node"><title>t0</title>
<a xlink:href="0006793" xlink:title="GO:0006793 (2)">
<ellipse fill="#e98576" stroke="#e98576" cx="2061" cy="-234" rx="75.2018" ry="18"/>
<text text-anchor="middle" x="2061" y="-229.8" font-family="Times,serif" font-size="14.00">GO:0006793 (2)</text>
</a>
</g>
<!-- f0&#45;&gt;t0 -->
<g id="edge52" class="edge"><title>f0&#45;&gt;t0</title>
<path fill="none" stroke="black" d="M1833.61,-293.519C1879.53,-281.701 1951.32,-263.225 2001.93,-250.201"/>
<polygon fill="black" stroke="black" points="2002.95,-253.554 2011.76,-247.672 2001.2,-246.775 2002.95,-253.554"/>
</g>
<!-- o1 -->
<g id="node56" class="node"><title>o1</title>
<a xlink:href="0046483" xlink:title="GO:0046483 (1)">
<ellipse fill="#e98576" stroke="#e98576" cx="1687" cy="-234" rx="75.2018" ry="18"/>
<text text-anchor="middle" x="1687" y="-229.8" font-family="Times,serif" font-size="14.00">GO:0046483 (1)</text>
</a>
</g>
<!-- f0&#45;&gt;o1 -->
<g id="edge54" class="edge"><title>f0&#45;&gt;o1</title>
<path fill="none" stroke="black" d="M1766.11,-289.291C1752.26,-279.788 1734.4,-267.527 1719.15,-257.062"/>
<polygon fill="black" stroke="black" points="1720.75,-253.915 1710.52,-251.142 1716.79,-259.687 1720.75,-253.915"/>
</g>
<!-- y0 -->
<g id="node61" class="node"><title>y0</title>
<a xlink:href="0044255" xlink:title="GO:0044255 (2)">
<ellipse fill="#e98576" stroke="#e98576" cx="1751" cy="-162" rx="75.2018" ry="18"/>
<text text-anchor="middle" x="1751" y="-157.8" font-family="Times,serif" font-size="14.00">GO:0044255 (2)</text>
</a>
</g>
<!-- f0&#45;&gt;y0 -->
<g id="edge60" class="edge"><title>f0&#45;&gt;y0</title>
<path fill="none" stroke="black" d="M1786.36,-287.74C1783.39,-269.663 1778.06,-240.542 1771,-216 1768.46,-207.169 1765.11,-197.724 1761.88,-189.29"/>
<polygon fill="black" stroke="black" points="1765.12,-187.97 1758.2,-179.95 1758.61,-190.537 1765.12,-187.97"/>
</g>
<!-- l1 -->
<g id="node124" class="node"><title>l1</title>
<a xlink:href="0006805" xlink:title="GO:0006805 (1)">
<ellipse fill="#e98576" stroke="#e98576" cx="2492" cy="-162" rx="75.2018" ry="18"/>
<text text-anchor="middle" x="2492" y="-157.8" font-family="Times,serif" font-size="14.00">GO:0006805 (1)</text>
</a>
</g>
<!-- f0&#45;&gt;l1 -->
<g id="edge142" class="edge"><title>f0&#45;&gt;l1</title>
<path fill="none" stroke="black" d="M1832.7,-293.273C1841.67,-291.223 1851.1,-289.325 1860,-288 1925.4,-278.265 2399.95,-290.09 2454,-252 2474.11,-237.824 2483.65,-210.736 2488.13,-190.151"/>
<polygon fill="black" stroke="black" points="2491.62,-190.559 2490.04,-180.082 2484.74,-189.254 2491.62,-190.559"/>
</g>
<!-- w1 -->
<g id="node14" class="node"><title>w1</title>
<a xlink:href="0019752" xlink:title="GO:0019752">
<ellipse fill="#dddddd" stroke="#dddddd" cx="2229" cy="-162" rx="61.1934" ry="18"/>
<text text-anchor="middle" x="2229" y="-157.8" font-family="Times,serif" font-size="14.00">GO:0019752</text>
</a>
</g>
<!-- x1&#45;&gt;w1 -->
<g id="edge124" class="edge"><title>x1&#45;&gt;w1</title>
<path fill="none" stroke="black" d="M2229,-215.697C2229,-207.983 2229,-198.712 2229,-190.112"/>
<polygon fill="black" stroke="black" points="2232.5,-190.104 2229,-180.104 2225.5,-190.104 2232.5,-190.104"/>
</g>
<!-- k0 -->
<g id="node6" class="node"><title>k0</title>
<a xlink:href="0016070" xlink:title="GO:0016070">
<ellipse fill="#dddddd" stroke="#dddddd" cx="922" cy="-162" rx="61.1934" ry="18"/>
<text text-anchor="middle" x="922" y="-157.8" font-family="Times,serif" font-size="14.00">GO:0016070</text>
</a>
</g>
<!-- e0&#45;&gt;k0 -->
<g id="edge4" class="edge"><title>e0&#45;&gt;k0</title>
<path fill="none" stroke="black" d="M1025.68,-217.983C1006.28,-207.695 980.348,-193.942 959.272,-182.765"/>
<polygon fill="black" stroke="black" points="960.745,-179.585 950.27,-177.992 957.465,-185.769 960.745,-179.585"/>
</g>
<!-- d0 -->
<g id="node65" class="node"><title>d0</title>
<a xlink:href="0006350" xlink:title="GO:0006350">
<ellipse fill="#dddddd" stroke="#dddddd" cx="1176" cy="-90" rx="61.1934" ry="18"/>
<text text-anchor="middle" x="1176" y="-85.8" font-family="Times,serif" font-size="14.00">GO:0006350</text>
</a>
</g>
<!-- e0&#45;&gt;d0 -->
<g id="edge64" class="edge"><title>e0&#45;&gt;d0</title>
<path fill="none" stroke="black" d="M1063.1,-215.866C1073.5,-197.118 1091.74,-166.71 1112,-144 1121.97,-132.824 1134.38,-121.998 1145.6,-113.074"/>
<polygon fill="black" stroke="black" points="1147.76,-115.829 1153.52,-106.935 1143.47,-110.297 1147.76,-115.829"/>
</g>
<!-- y1 -->
<g id="node35" class="node"><title>y1</title>
<a xlink:href="0006396" xlink:title="GO:0006396 (1)">
<ellipse fill="#e98576" stroke="#e98576" cx="1021" cy="-90" rx="75.2018" ry="18"/>
<text text-anchor="middle" x="1021" y="-85.8" font-family="Times,serif" font-size="14.00">GO:0006396 (1)</text>
</a>
</g>
<!-- k0&#45;&gt;y1 -->
<g id="edge30" class="edge"><title>k0&#45;&gt;y1</title>
<path fill="none" stroke="black" d="M944.465,-145.116C957.818,-135.674 974.957,-123.556 989.63,-113.181"/>
<polygon fill="black" stroke="black" points="991.793,-115.938 997.937,-107.307 987.751,-110.223 991.793,-115.938"/>
</g>
<!-- j0 -->
<g id="node106" class="node"><title>j0</title>
<a xlink:href="0032774" xlink:title="GO:0032774">
<ellipse fill="#dddddd" stroke="#dddddd" cx="866" cy="-90" rx="61.1934" ry="18"/>
<text text-anchor="middle" x="866" y="-85.8" font-family="Times,serif" font-size="14.00">GO:0032774</text>
</a>
</g>
<!-- k0&#45;&gt;j0 -->
<g id="edge128" class="edge"><title>k0&#45;&gt;j0</title>
<path fill="none" stroke="black" d="M908.729,-144.411C901.924,-135.906 893.498,-125.372 885.931,-115.914"/>
<polygon fill="black" stroke="black" points="888.545,-113.578 879.565,-107.956 883.079,-117.951 888.545,-113.578"/>
</g>
<!-- l0 -->
<g id="node7" class="node"><title>l0</title>
<a xlink:href="0043283" xlink:title="GO:0043283">
<ellipse fill="#dddddd" stroke="#dddddd" cx="398" cy="-234" rx="61.1934" ry="18"/>
<text text-anchor="middle" x="398" y="-229.8" font-family="Times,serif" font-size="14.00">GO:0043283</text>
</a>
</g>
<!-- l0&#45;&gt;k0 -->
<g id="edge6" class="edge"><title>l0&#45;&gt;k0</title>
<path fill="none" stroke="black" d="M442.518,-221.459C451.258,-219.443 460.386,-217.511 469,-216 609.531,-191.342 646.336,-196.979 788,-180 810.512,-177.302 835.134,-174.217 857.061,-171.422"/>
<polygon fill="black" stroke="black" points="857.781,-174.858 867.256,-170.119 856.893,-167.915 857.781,-174.858"/>
</g>
<!-- s0 -->
<g id="node27" class="node"><title>s0</title>
<a xlink:href="0005976" xlink:title="GO:0005976 (2)">
<ellipse fill="#e98576" stroke="#e98576" cx="557" cy="-162" rx="75.2018" ry="18"/>
<text text-anchor="middle" x="557" y="-157.8" font-family="Times,serif" font-size="14.00">GO:0005976 (2)</text>
</a>
</g>
<!-- l0&#45;&gt;s0 -->
<g id="edge24" class="edge"><title>l0&#45;&gt;s0</title>
<path fill="none" stroke="black" d="M430.56,-218.666C454.511,-208.121 487.319,-193.677 513.513,-182.145"/>
<polygon fill="black" stroke="black" points="515.094,-185.274 522.836,-178.041 512.273,-178.867 515.094,-185.274"/>
</g>
<!-- c1 -->
<g id="node37" class="node"><title>c1</title>
<a xlink:href="0043412" xlink:title="GO:0043412 (1)">
<ellipse fill="#e98576" stroke="#e98576" cx="389" cy="-162" rx="75.2018" ry="18"/>
<text text-anchor="middle" x="389" y="-157.8" font-family="Times,serif" font-size="14.00">GO:0043412 (1)</text>
</a>
</g>
<!-- l0&#45;&gt;c1 -->
<g id="edge32" class="edge"><title>l0&#45;&gt;c1</title>
<path fill="none" stroke="black" d="M395.775,-215.697C394.783,-207.983 393.592,-198.712 392.486,-190.112"/>
<polygon fill="black" stroke="black" points="395.946,-189.576 391.199,-180.104 389.003,-190.469 395.946,-189.576"/>
</g>
<!-- s1 -->
<g id="node11" class="node"><title>s1</title>
<a xlink:href="0006520" xlink:title="GO:0006520 (1)">
<ellipse fill="#e98576" stroke="#e98576" cx="2229" cy="-90" rx="75.2018" ry="18"/>
<text text-anchor="middle" x="2229" y="-85.8" font-family="Times,serif" font-size="14.00">GO:0006520 (1)</text>
</a>
</g>
<!-- t1&#45;&gt;s1 -->
<g id="edge8" class="edge"><title>t1&#45;&gt;s1</title>
<path fill="none" stroke="black" d="M1550.5,-216.447C1575.12,-195.505 1620.92,-160.218 1667,-144 1752.93,-113.754 2010.43,-99.4871 2145,-93.9417"/>
<polygon fill="black" stroke="black" points="2145.41,-97.428 2155.26,-93.5259 2145.13,-90.4337 2145.41,-97.428"/>
</g>
<!-- u1&#45;&gt;s1 -->
<g id="edge10" class="edge"><title>u1&#45;&gt;s1</title>
<path fill="none" stroke="black" d="M2369.69,-216.487C2353.35,-198.019 2325.47,-167.605 2299,-144 2286.98,-133.284 2272.97,-122.389 2260.64,-113.286"/>
<polygon fill="black" stroke="black" points="2262.57,-110.36 2252.43,-107.294 2258.45,-116.015 2262.57,-110.36"/>
</g>
<!-- w1&#45;&gt;s1 -->
<g id="edge12" class="edge"><title>w1&#45;&gt;s1</title>
<path fill="none" stroke="black" d="M2229,-143.697C2229,-135.983 2229,-126.712 2229,-118.112"/>
<polygon fill="black" stroke="black" points="2232.5,-118.104 2229,-108.104 2225.5,-118.104 2232.5,-118.104"/>
</g>
<!-- g0 -->
<g id="node16" class="node"><title>g0</title>
<a xlink:href="0008152" xlink:title="GO:0008152 (3)">
<ellipse fill="#e98576" stroke="#e98576" cx="1054" cy="-378" rx="75.2018" ry="18"/>
<text text-anchor="middle" x="1054" y="-373.8" font-family="Times,serif" font-size="14.00">GO:0008152 (3)</text>
</a>
</g>
<!-- g0&#45;&gt;f0 -->
<g id="edge98" class="edge"><title>g0&#45;&gt;f0</title>
<path fill="none" stroke="black" d="M1122.49,-370.477C1262.95,-357.1 1582.12,-326.702 1721.63,-313.416"/>
<polygon fill="black" stroke="black" points="1722.14,-316.884 1731.76,-312.451 1721.47,-309.915 1722.14,-316.884"/>
</g>
<!-- v1 -->
<g id="node18" class="node"><title>v1</title>
<a xlink:href="0006807" xlink:title="GO:0006807">
<ellipse fill="#dddddd" stroke="#dddddd" cx="1930" cy="-306" rx="61.1934" ry="18"/>
<text text-anchor="middle" x="1930" y="-301.8" font-family="Times,serif" font-size="14.00">GO:0006807</text>
</a>
</g>
<!-- g0&#45;&gt;v1 -->
<g id="edge14" class="edge"><title>g0&#45;&gt;v1</title>
<path fill="none" stroke="black" d="M1128.81,-376.29C1271.58,-374.006 1592.43,-364.391 1859,-324 1864.7,-323.136 1870.62,-322.043 1876.49,-320.829"/>
<polygon fill="black" stroke="black" points="1877.27,-324.241 1886.29,-318.69 1875.78,-317.402 1877.27,-324.241"/>
</g>
<!-- m0 -->
<g id="node38" class="node"><title>m0</title>
<a xlink:href="0043170" xlink:title="GO:0043170">
<ellipse fill="#dddddd" stroke="#dddddd" cx="676" cy="-306" rx="61.1934" ry="18"/>
<text text-anchor="middle" x="676" y="-301.8" font-family="Times,serif" font-size="14.00">GO:0043170</text>
</a>
</g>
<!-- g0&#45;&gt;m0 -->
<g id="edge138" class="edge"><title>g0&#45;&gt;m0</title>
<path fill="none" stroke="black" d="M996.59,-366.369C926.413,-353.373 808.184,-331.478 736.59,-318.22"/>
<polygon fill="black" stroke="black" points="736.847,-314.709 726.377,-316.329 735.573,-321.592 736.847,-314.709"/>
</g>
<!-- i0 -->
<g id="node40" class="node"><title>i0</title>
<a xlink:href="0044238" xlink:title="GO:0044238">
<ellipse fill="#dddddd" stroke="#dddddd" cx="1054" cy="-306" rx="61.1934" ry="18"/>
<text text-anchor="middle" x="1054" y="-301.8" font-family="Times,serif" font-size="14.00">GO:0044238</text>
</a>
</g>
<!-- g0&#45;&gt;i0 -->
<g id="edge148" class="edge"><title>g0&#45;&gt;i0</title>
<path fill="none" stroke="black" d="M1054,-359.697C1054,-351.983 1054,-342.712 1054,-334.112"/>
<polygon fill="black" stroke="black" points="1057.5,-334.104 1054,-324.104 1050.5,-334.104 1057.5,-334.104"/>
</g>
<!-- h1 -->
<g id="node70" class="node"><title>h1</title>
<a xlink:href="0009058" xlink:title="GO:0009058">
<ellipse fill="#dddddd" stroke="#dddddd" cx="121" cy="-306" rx="61.1934" ry="18"/>
<text text-anchor="middle" x="121" y="-301.8" font-family="Times,serif" font-size="14.00">GO:0009058</text>
</a>
</g>
<!-- g0&#45;&gt;h1 -->
<g id="edge68" class="edge"><title>g0&#45;&gt;h1</title>
<path fill="none" stroke="black" d="M983.491,-371.71C809.593,-358.663 361.873,-325.072 189.793,-312.161"/>
<polygon fill="black" stroke="black" points="189.83,-308.654 179.597,-311.396 189.307,-315.635 189.83,-308.654"/>
</g>
<!-- b2 -->
<g id="node81" class="node"><title>b2</title>
<a xlink:href="0009056" xlink:title="GO:0009056">
<ellipse fill="#dddddd" stroke="#dddddd" cx="444" cy="-306" rx="61.1934" ry="18"/>
<text text-anchor="middle" x="444" y="-301.8" font-family="Times,serif" font-size="14.00">GO:0009056</text>
</a>
</g>
<!-- g0&#45;&gt;b2 -->
<g id="edge80" class="edge"><title>g0&#45;&gt;b2</title>
<path fill="none" stroke="black" d="M987.849,-369.409C870.637,-355.958 627.802,-328.092 510.407,-314.62"/>
<polygon fill="black" stroke="black" points="510.461,-311.104 500.127,-313.441 509.663,-318.058 510.461,-311.104"/>
</g>
<!-- v1&#45;&gt;u1 -->
<g id="edge86" class="edge"><title>v1&#45;&gt;u1</title>
<path fill="none" stroke="black" d="M1974.52,-293.476C1983.26,-291.459 1992.39,-289.522 2001,-288 2138.46,-263.704 2175.54,-276.296 2313,-252 2318.38,-251.049 2323.97,-249.935 2329.53,-248.742"/>
<polygon fill="black" stroke="black" points="2330.48,-252.116 2339.48,-246.524 2328.96,-245.284 2330.48,-252.116"/>
</g>
<!-- b0 -->
<g id="node19" class="node"><title>b0</title>
<a xlink:href="0008150" xlink:title="GO:0008150 (1)">
<ellipse fill="#e98576" stroke="#e98576" cx="2316" cy="-450" rx="75.2018" ry="18"/>
<text text-anchor="middle" x="2316" y="-445.8" font-family="Times,serif" font-size="14.00">GO:0008150 (1)</text>
</a>
</g>
<!-- b0&#45;&gt;g0 -->
<g id="edge16" class="edge"><title>b0&#45;&gt;g0</title>
<path fill="none" stroke="black" d="M2243.62,-444.985C2024.41,-432.826 1368.67,-396.454 1136.55,-383.579"/>
<polygon fill="black" stroke="black" points="1136.66,-380.08 1126.48,-383.02 1136.27,-387.069 1136.66,-380.08"/>
</g>
<!-- w0 -->
<g id="node22" class="node"><title>w0</title>
<a xlink:href="0051234" xlink:title="GO:0051234">
<ellipse fill="#dddddd" stroke="#dddddd" cx="2717" cy="-306" rx="61.1934" ry="18"/>
<text text-anchor="middle" x="2717" y="-301.8" font-family="Times,serif" font-size="14.00">GO:0051234</text>
</a>
</g>
<!-- b0&#45;&gt;w0 -->
<g id="edge18" class="edge"><title>b0&#45;&gt;w0</title>
<path fill="none" stroke="black" d="M2371.08,-437.627C2380.71,-435.703 2390.64,-433.76 2400,-432 2491.77,-414.737 2523.28,-437.356 2607,-396 2628.15,-385.553 2627.86,-375.076 2646,-360 2658.78,-349.377 2673.43,-338.278 2686.08,-328.999"/>
<polygon fill="black" stroke="black" points="2688.45,-331.605 2694.48,-322.893 2684.33,-325.944 2688.45,-331.605"/>
</g>
<!-- x0 -->
<g id="node23" class="node"><title>x0</title>
<a xlink:href="0051179" xlink:title="GO:0051179">
<ellipse fill="#dddddd" stroke="#dddddd" cx="2716" cy="-378" rx="61.1934" ry="18"/>
<text text-anchor="middle" x="2716" y="-373.8" font-family="Times,serif" font-size="14.00">GO:0051179</text>
</a>
</g>
<!-- b0&#45;&gt;x0 -->
<g id="edge90" class="edge"><title>b0&#45;&gt;x0</title>
<path fill="none" stroke="black" d="M2370.6,-437.527C2380.37,-435.594 2390.47,-433.674 2400,-432 2506.66,-413.253 2534.56,-415.984 2641,-396 2647.2,-394.836 2653.67,-393.522 2660.09,-392.154"/>
<polygon fill="black" stroke="black" points="2661.08,-395.521 2670.1,-389.973 2659.59,-388.682 2661.08,-395.521"/>
</g>
<!-- a0 -->
<g id="node46" class="node"><title>a0</title>
<a xlink:href="0051704" xlink:title="GO:0051704 (8)">
<ellipse fill="#e98576" stroke="#e98576" cx="2239" cy="-378" rx="75.2018" ry="18"/>
<text text-anchor="middle" x="2239" y="-373.8" font-family="Times,serif" font-size="14.00">GO:0051704 (8)</text>
</a>
</g>
<!-- b0&#45;&gt;a0 -->
<g id="edge42" class="edge"><title>b0&#45;&gt;a0</title>
<path fill="none" stroke="black" d="M2297.75,-432.411C2287.88,-423.432 2275.51,-412.193 2264.68,-402.344"/>
<polygon fill="black" stroke="black" points="2266.87,-399.607 2257.12,-395.47 2262.16,-404.787 2266.87,-399.607"/>
</g>
<!-- o0 -->
<g id="node50" class="node"><title>o0</title>
<a xlink:href="0065007" xlink:title="GO:0065007">
<ellipse fill="#dddddd" stroke="#dddddd" cx="2537" cy="-378" rx="61.1934" ry="18"/>
<text text-anchor="middle" x="2537" y="-373.8" font-family="Times,serif" font-size="14.00">GO:0065007</text>
</a>
</g>
<!-- b0&#45;&gt;o0 -->
<g id="edge94" class="edge"><title>b0&#45;&gt;o0</title>
<path fill="none" stroke="black" d="M2359.4,-435.254C2396.09,-423.631 2448.68,-406.975 2487.1,-394.804"/>
<polygon fill="black" stroke="black" points="2488.57,-398.012 2497.05,-391.655 2486.46,-391.338 2488.57,-398.012"/>
</g>
<!-- k1 -->
<g id="node58" class="node"><title>k1</title>
<a xlink:href="0001906" xlink:title="GO:0001906">
<ellipse fill="#dddddd" stroke="#dddddd" cx="2394" cy="-378" rx="61.1934" ry="18"/>
<text text-anchor="middle" x="2394" y="-373.8" font-family="Times,serif" font-size="14.00">GO:0001906</text>
</a>
</g>
<!-- b0&#45;&gt;k1 -->
<g id="edge56" class="edge"><title>b0&#45;&gt;k1</title>
<path fill="none" stroke="black" d="M2334.48,-432.411C2344.56,-423.367 2357.2,-412.03 2368.23,-402.13"/>
<polygon fill="black" stroke="black" points="2370.81,-404.512 2375.92,-395.228 2366.14,-399.303 2370.81,-404.512"/>
</g>
<!-- r0 -->
<g id="node92" class="node"><title>r0</title>
<a xlink:href="0050896" xlink:title="GO:0050896 (3)">
<ellipse fill="#e98576" stroke="#e98576" cx="2071" cy="-378" rx="75.2018" ry="18"/>
<text text-anchor="middle" x="2071" y="-373.8" font-family="Times,serif" font-size="14.00">GO:0050896 (3)</text>
</a>
</g>
<!-- b0&#45;&gt;r0 -->
<g id="edge96" class="edge"><title>b0&#45;&gt;r0</title>
<path fill="none" stroke="black" d="M2269.63,-435.751C2229.09,-424.168 2170.12,-407.319 2126.96,-394.989"/>
<polygon fill="black" stroke="black" points="2127.76,-391.577 2117.18,-392.195 2125.83,-398.307 2127.76,-391.577"/>
</g>
<!-- h0 -->
<g id="node94" class="node"><title>h0</title>
<a xlink:href="0009987" xlink:title="GO:0009987">
<ellipse fill="#dddddd" stroke="#dddddd" cx="1789" cy="-378" rx="61.1934" ry="18"/>
<text text-anchor="middle" x="1789" y="-373.8" font-family="Times,serif" font-size="14.00">GO:0009987</text>
</a>
</g>
<!-- b0&#45;&gt;h0 -->
<g id="edge126" class="edge"><title>b0&#45;&gt;h0</title>
<path fill="none" stroke="black" d="M2252.17,-440.522C2151.1,-427.096 1955.29,-401.087 1853.68,-387.592"/>
<polygon fill="black" stroke="black" points="1853.93,-384.094 1843.56,-386.246 1853.01,-391.033 1853.93,-384.094"/>
</g>
<!-- v0 -->
<g id="node29" class="node"><title>v0</title>
<a xlink:href="0006810" xlink:title="GO:0006810 (1)">
<ellipse fill="#e98576" stroke="#e98576" cx="2717" cy="-234" rx="75.2018" ry="18"/>
<text text-anchor="middle" x="2717" y="-229.8" font-family="Times,serif" font-size="14.00">GO:0006810 (1)</text>
</a>
</g>
<!-- w0&#45;&gt;v0 -->
<g id="edge62" class="edge"><title>w0&#45;&gt;v0</title>
<path fill="none" stroke="black" d="M2717,-287.697C2717,-279.983 2717,-270.712 2717,-262.112"/>
<polygon fill="black" stroke="black" points="2720.5,-262.104 2717,-252.104 2713.5,-262.104 2720.5,-262.104"/>
</g>
<!-- x0&#45;&gt;w0 -->
<g id="edge20" class="edge"><title>x0&#45;&gt;w0</title>
<path fill="none" stroke="black" d="M2716.25,-359.697C2716.36,-351.983 2716.49,-342.712 2716.61,-334.112"/>
<polygon fill="black" stroke="black" points="2720.11,-334.153 2716.76,-324.104 2713.11,-334.053 2720.11,-334.153"/>
</g>
<!-- q0 -->
<g id="node25" class="node"><title>q0</title>
<a xlink:href="0005975" xlink:title="GO:0005975 (3)">
<ellipse fill="#e98576" stroke="#e98576" cx="553" cy="-234" rx="75.2018" ry="18"/>
<text text-anchor="middle" x="553" y="-229.8" font-family="Times,serif" font-size="14.00">GO:0005975 (3)</text>
</a>
</g>
<!-- q0&#45;&gt;s0 -->
<g id="edge22" class="edge"><title>q0&#45;&gt;s0</title>
<path fill="none" stroke="black" d="M553.989,-215.697C554.43,-207.983 554.959,-198.712 555.451,-190.112"/>
<polygon fill="black" stroke="black" points="558.946,-190.288 556.023,-180.104 551.958,-189.888 558.946,-190.288"/>
</g>
<!-- u0 -->
<g id="node31" class="node"><title>u0</title>
<a xlink:href="0006811" xlink:title="GO:0006811 (2)">
<ellipse fill="#e98576" stroke="#e98576" cx="2698" cy="-162" rx="75.2018" ry="18"/>
<text text-anchor="middle" x="2698" y="-157.8" font-family="Times,serif" font-size="14.00">GO:0006811 (2)</text>
</a>
</g>
<!-- v0&#45;&gt;u0 -->
<g id="edge26" class="edge"><title>v0&#45;&gt;u0</title>
<path fill="none" stroke="black" d="M2712.3,-215.697C2710.19,-207.898 2707.64,-198.509 2705.28,-189.829"/>
<polygon fill="black" stroke="black" points="2708.64,-188.838 2702.64,-180.104 2701.88,-190.672 2708.64,-188.838"/>
</g>
<!-- p1 -->
<g id="node76" class="node"><title>p1</title>
<a xlink:href="0051181" xlink:title="GO:0051181 (1)">
<ellipse fill="#e98576" stroke="#e98576" cx="2866" cy="-162" rx="75.2018" ry="18"/>
<text text-anchor="middle" x="2866" y="-157.8" font-family="Times,serif" font-size="14.00">GO:0051181 (1)</text>
</a>
</g>
<!-- v0&#45;&gt;p1 -->
<g id="edge74" class="edge"><title>v0&#45;&gt;p1</title>
<path fill="none" stroke="black" d="M2749.7,-217.638C2771.63,-207.335 2800.71,-193.674 2824.3,-182.59"/>
<polygon fill="black" stroke="black" points="2825.81,-185.746 2833.38,-178.326 2822.84,-179.41 2825.81,-185.746"/>
</g>
<!-- b1 -->
<g id="node111" class="node"><title>b1</title>
<a xlink:href="0006464" xlink:title="GO:0006464 (2)">
<ellipse fill="#e98576" stroke="#e98576" cx="466" cy="-90" rx="75.2018" ry="18"/>
<text text-anchor="middle" x="466" y="-85.8" font-family="Times,serif" font-size="14.00">GO:0006464 (2)</text>
</a>
</g>
<!-- c1&#45;&gt;b1 -->
<g id="edge118" class="edge"><title>c1&#45;&gt;b1</title>
<path fill="none" stroke="black" d="M407.248,-144.411C417.125,-135.432 429.488,-124.193 440.322,-114.344"/>
<polygon fill="black" stroke="black" points="442.838,-116.787 447.883,-107.47 438.129,-111.607 442.838,-116.787"/>
</g>
<!-- m0&#45;&gt;l0 -->
<g id="edge48" class="edge"><title>m0&#45;&gt;l0</title>
<path fill="none" stroke="black" d="M631.026,-293.675C582.374,-281.425 504.79,-261.89 452.658,-248.763"/>
<polygon fill="black" stroke="black" points="453.462,-245.356 442.91,-246.308 451.753,-252.144 453.462,-245.356"/>
</g>
<!-- m0&#45;&gt;q0 -->
<g id="edge34" class="edge"><title>m0&#45;&gt;q0</title>
<path fill="none" stroke="black" d="M649.007,-289.638C631.547,-279.702 608.601,-266.643 589.52,-255.784"/>
<polygon fill="black" stroke="black" points="591.204,-252.715 580.782,-250.811 587.742,-258.799 591.204,-252.715"/>
</g>
<!-- m0&#45;&gt;f1 -->
<g id="edge38" class="edge"><title>m0&#45;&gt;f1</title>
<path fill="none" stroke="black" d="M717.553,-292.727C757.704,-280.868 818.618,-262.877 861.756,-250.135"/>
<polygon fill="black" stroke="black" points="862.895,-253.448 871.494,-247.259 860.912,-246.735 862.895,-253.448"/>
</g>
<!-- z1 -->
<g id="node73" class="node"><title>z1</title>
<a xlink:href="0065003" xlink:title="GO:0065003 (1)">
<ellipse fill="#e98576" stroke="#e98576" cx="1196" cy="-162" rx="75.2018" ry="18"/>
<text text-anchor="middle" x="1196" y="-157.8" font-family="Times,serif" font-size="14.00">GO:0065003 (1)</text>
</a>
</g>
<!-- m0&#45;&gt;z1 -->
<g id="edge72" class="edge"><title>m0&#45;&gt;z1</title>
<path fill="none" stroke="black" d="M716.819,-292.569C743.181,-283.52 777.554,-269.752 805,-252 824.535,-239.366 822.089,-226.197 843,-216 889.729,-193.213 1026.84,-177.529 1115.78,-169.426"/>
<polygon fill="black" stroke="black" points="1116.2,-172.903 1125.85,-168.523 1115.57,-165.931 1116.2,-172.903"/>
</g>
<!-- e1 -->
<g id="node78" class="node"><title>e1</title>
<a xlink:href="0019538" xlink:title="GO:0019538 (1)">
<ellipse fill="#e98576" stroke="#e98576" cx="721" cy="-234" rx="75.2018" ry="18"/>
<text text-anchor="middle" x="721" y="-229.8" font-family="Times,serif" font-size="14.00">GO:0019538 (1)</text>
</a>
</g>
<!-- m0&#45;&gt;e1 -->
<g id="edge76" class="edge"><title>m0&#45;&gt;e1</title>
<path fill="none" stroke="black" d="M686.893,-288.055C692.122,-279.922 698.501,-269.998 704.323,-260.943"/>
<polygon fill="black" stroke="black" points="707.431,-262.58 709.894,-252.275 701.543,-258.794 707.431,-262.58"/>
</g>
<!-- g1 -->
<g id="node83" class="node"><title>g1</title>
<a xlink:href="0009059" xlink:title="GO:0009059 (2)">
<ellipse fill="#e98576" stroke="#e98576" cx="75" cy="-234" rx="75.2018" ry="18"/>
<text text-anchor="middle" x="75" y="-229.8" font-family="Times,serif" font-size="14.00">GO:0009059 (2)</text>
</a>
</g>
<!-- m0&#45;&gt;g1 -->
<g id="edge84" class="edge"><title>m0&#45;&gt;g1</title>
<path fill="none" stroke="black" d="M619.401,-299.012C588.295,-295.733 549.022,-291.613 514,-288 356.25,-271.724 315.797,-275.757 159,-252 152.378,-250.997 145.487,-249.82 138.627,-248.563"/>
<polygon fill="black" stroke="black" points="139.11,-245.093 128.634,-246.674 137.809,-251.971 139.11,-245.093"/>
</g>
<!-- a2 -->
<g id="node118" class="node"><title>a2</title>
<a xlink:href="0009057" xlink:title="GO:0009057 (1)">
<ellipse fill="#e98576" stroke="#e98576" cx="243" cy="-234" rx="75.2018" ry="18"/>
<text text-anchor="middle" x="243" y="-229.8" font-family="Times,serif" font-size="14.00">GO:0009057 (1)</text>
</a>
</g>
<!-- m0&#45;&gt;a2 -->
<g id="edge132" class="edge"><title>m0&#45;&gt;a2</title>
<path fill="none" stroke="black" d="M621.921,-297.555C553.383,-287.937 431.673,-270.252 328,-252 321.428,-250.843 314.582,-249.577 307.755,-248.274"/>
<polygon fill="black" stroke="black" points="308.282,-244.811 297.799,-246.347 306.952,-251.683 308.282,-244.811"/>
</g>
<!-- i0&#45;&gt;e0 -->
<g id="edge116" class="edge"><title>i0&#45;&gt;e0</title>
<path fill="none" stroke="black" d="M1054,-287.697C1054,-279.983 1054,-270.712 1054,-262.112"/>
<polygon fill="black" stroke="black" points="1057.5,-262.104 1054,-252.104 1050.5,-262.104 1057.5,-262.104"/>
</g>
<!-- i0&#45;&gt;t1 -->
<g id="edge46" class="edge"><title>i0&#45;&gt;t1</title>
<path fill="none" stroke="black" d="M1111.25,-299.47C1190.3,-291.398 1337.14,-274.827 1461,-252 1466.38,-251.009 1471.95,-249.87 1477.52,-248.66"/>
<polygon fill="black" stroke="black" points="1478.47,-252.033 1487.46,-246.423 1476.94,-245.203 1478.47,-252.033"/>
</g>
<!-- i0&#45;&gt;q0 -->
<g id="edge36" class="edge"><title>i0&#45;&gt;q0</title>
<path fill="none" stroke="black" d="M997.152,-299.11C916.711,-290.473 765.178,-273.087 637,-252 630.49,-250.929 623.714,-249.719 616.961,-248.45"/>
<polygon fill="black" stroke="black" points="617.597,-245.008 607.116,-246.558 616.276,-251.883 617.597,-245.008"/>
</g>
<!-- z0 -->
<g id="node59" class="node"><title>z0</title>
<a xlink:href="0006629" xlink:title="GO:0006629 (2)">
<ellipse fill="#e98576" stroke="#e98576" cx="1377" cy="-234" rx="75.2018" ry="18"/>
<text text-anchor="middle" x="1377" y="-229.8" font-family="Times,serif" font-size="14.00">GO:0006629 (2)</text>
</a>
</g>
<!-- i0&#45;&gt;z0 -->
<g id="edge122" class="edge"><title>i0&#45;&gt;z0</title>
<path fill="none" stroke="black" d="M1101.66,-294.671C1157.68,-282.531 1250.88,-262.333 1313.12,-248.844"/>
<polygon fill="black" stroke="black" points="1314.18,-252.195 1323.22,-246.656 1312.7,-245.354 1314.18,-252.195"/>
</g>
<!-- i0&#45;&gt;e1 -->
<g id="edge78" class="edge"><title>i0&#45;&gt;e1</title>
<path fill="none" stroke="black" d="M1005.58,-294.821C947.534,-282.62 850.043,-262.126 785.615,-248.583"/>
<polygon fill="black" stroke="black" points="786.076,-245.103 775.57,-246.471 784.636,-251.954 786.076,-245.103"/>
</g>
<!-- d1 -->
<g id="node96" class="node"><title>d1</title>
<a xlink:href="0044267" xlink:title="GO:0044267">
<ellipse fill="#dddddd" stroke="#dddddd" cx="718" cy="-162" rx="61.1934" ry="18"/>
<text text-anchor="middle" x="718" y="-157.8" font-family="Times,serif" font-size="14.00">GO:0044267</text>
</a>
</g>
<!-- f1&#45;&gt;d1 -->
<g id="edge146" class="edge"><title>f1&#45;&gt;d1</title>
<path fill="none" stroke="black" d="M875.863,-219.669C844.383,-208.368 799.062,-192.099 765.048,-179.889"/>
<polygon fill="black" stroke="black" points="765.925,-176.485 755.33,-176.401 763.56,-183.074 765.925,-176.485"/>
</g>
<!-- c2 -->
<g id="node89" class="node"><title>c2</title>
<a xlink:href="0044419" xlink:title="GO:0044419 (1)">
<ellipse fill="#e98576" stroke="#e98576" cx="2226" cy="-306" rx="75.2018" ry="18"/>
<text text-anchor="middle" x="2226" y="-301.8" font-family="Times,serif" font-size="14.00">GO:0044419 (1)</text>
</a>
</g>
<!-- a0&#45;&gt;c2 -->
<g id="edge92" class="edge"><title>a0&#45;&gt;c2</title>
<path fill="none" stroke="black" d="M2235.79,-359.697C2234.35,-351.983 2232.63,-342.712 2231.04,-334.112"/>
<polygon fill="black" stroke="black" points="2234.44,-333.297 2229.18,-324.104 2227.56,-334.575 2234.44,-333.297"/>
</g>
<!-- j1 -->
<g id="node102" class="node"><title>j1</title>
<a xlink:href="0031640" xlink:title="GO:0031640 (1)">
<ellipse fill="#e98576" stroke="#e98576" cx="2394" cy="-306" rx="75.2018" ry="18"/>
<text text-anchor="middle" x="2394" y="-301.8" font-family="Times,serif" font-size="14.00">GO:0031640 (1)</text>
</a>
</g>
<!-- a0&#45;&gt;j1 -->
<g id="edge108" class="edge"><title>a0&#45;&gt;j1</title>
<path fill="none" stroke="black" d="M2272.63,-361.811C2295.69,-351.4 2326.46,-337.501 2351.25,-326.305"/>
<polygon fill="black" stroke="black" points="2352.76,-329.465 2360.43,-322.159 2349.88,-323.085 2352.76,-329.465"/>
</g>
<!-- n0 -->
<g id="node52" class="node"><title>n0</title>
<a xlink:href="0050789" xlink:title="GO:0050789 (8)">
<ellipse fill="#e98576" stroke="#e98576" cx="2562" cy="-306" rx="75.2018" ry="18"/>
<text text-anchor="middle" x="2562" y="-301.8" font-family="Times,serif" font-size="14.00">GO:0050789 (8)</text>
</a>
</g>
<!-- o0&#45;&gt;n0 -->
<g id="edge50" class="edge"><title>o0&#45;&gt;n0</title>
<path fill="none" stroke="black" d="M2543.05,-360.055C2545.87,-352.176 2549.28,-342.617 2552.43,-333.794"/>
<polygon fill="black" stroke="black" points="2555.76,-334.87 2555.83,-324.275 2549.17,-332.516 2555.76,-334.87"/>
</g>
<!-- k1&#45;&gt;j1 -->
<g id="edge106" class="edge"><title>k1&#45;&gt;j1</title>
<path fill="none" stroke="black" d="M2394,-359.697C2394,-351.983 2394,-342.712 2394,-334.112"/>
<polygon fill="black" stroke="black" points="2397.5,-334.104 2394,-324.104 2390.5,-334.104 2397.5,-334.104"/>
</g>
<!-- z0&#45;&gt;y0 -->
<g id="edge58" class="edge"><title>z0&#45;&gt;y0</title>
<path fill="none" stroke="black" d="M1432.3,-221.807C1442.18,-219.844 1452.39,-217.842 1462,-216 1537.54,-201.521 1624.35,-185.712 1682.95,-175.163"/>
<polygon fill="black" stroke="black" points="1683.6,-178.601 1692.83,-173.386 1682.37,-171.711 1683.6,-178.601"/>
</g>
<!-- c0 -->
<g id="node105" class="node"><title>c0</title>
<a xlink:href="0006351" xlink:title="GO:0006351 (8)">
<ellipse fill="#e98576" stroke="#e98576" cx="1021" cy="-18" rx="75.2018" ry="18"/>
<text text-anchor="middle" x="1021" y="-13.8" font-family="Times,serif" font-size="14.00">GO:0006351 (8)</text>
</a>
</g>
<!-- d0&#45;&gt;c0 -->
<g id="edge110" class="edge"><title>d0&#45;&gt;c0</title>
<path fill="none" stroke="black" d="M1143.88,-74.496C1120.77,-64.0562 1089.33,-49.8601 1064.04,-38.4394"/>
<polygon fill="black" stroke="black" points="1065.24,-35.138 1054.68,-34.2119 1062.36,-41.5176 1065.24,-35.138"/>
</g>
<!-- n1 -->
<g id="node66" class="node"><title>n1</title>
<a xlink:href="0042221" xlink:title="GO:0042221">
<ellipse fill="#dddddd" stroke="#dddddd" cx="2071" cy="-306" rx="61.1934" ry="18"/>
<text text-anchor="middle" x="2071" y="-301.8" font-family="Times,serif" font-size="14.00">GO:0042221</text>
</a>
</g>
<!-- m1 -->
<g id="node68" class="node"><title>m1</title>
<a xlink:href="0009410" xlink:title="GO:0009410">
<ellipse fill="#dddddd" stroke="#dddddd" cx="2562" cy="-234" rx="61.1934" ry="18"/>
<text text-anchor="middle" x="2562" y="-229.8" font-family="Times,serif" font-size="14.00">GO:0009410</text>
</a>
</g>
<!-- n1&#45;&gt;m1 -->
<g id="edge66" class="edge"><title>n1&#45;&gt;m1</title>
<path fill="none" stroke="black" d="M2115.13,-293.488C2123.98,-291.446 2133.25,-289.497 2142,-288 2293.96,-261.995 2334.89,-277.084 2487,-252 2493.31,-250.959 2499.89,-249.713 2506.41,-248.374"/>
<polygon fill="black" stroke="black" points="2507.51,-251.718 2516.56,-246.21 2506.05,-244.871 2507.51,-251.718"/>
</g>
<!-- m1&#45;&gt;l1 -->
<g id="edge140" class="edge"><title>m1&#45;&gt;l1</title>
<path fill="none" stroke="black" d="M2545.41,-216.411C2536.65,-207.648 2525.73,-196.732 2516.06,-187.057"/>
<polygon fill="black" stroke="black" points="2518.5,-184.552 2508.96,-179.956 2513.55,-189.502 2518.5,-184.552"/>
</g>
<!-- h1&#45;&gt;g1 -->
<g id="edge82" class="edge"><title>h1&#45;&gt;g1</title>
<path fill="none" stroke="black" d="M109.865,-288.055C104.465,-279.837 97.8627,-269.791 91.8622,-260.66"/>
<polygon fill="black" stroke="black" points="94.7691,-258.71 86.3523,-252.275 88.9192,-262.555 94.7691,-258.71"/>
</g>
<!-- q1 -->
<g id="node71" class="node"><title>q1</title>
<a xlink:href="0022607" xlink:title="GO:0022607 (1)">
<ellipse fill="#e98576" stroke="#e98576" cx="1209" cy="-234" rx="75.2018" ry="18"/>
<text text-anchor="middle" x="1209" y="-229.8" font-family="Times,serif" font-size="14.00">GO:0022607 (1)</text>
</a>
</g>
<!-- q1&#45;&gt;z1 -->
<g id="edge70" class="edge"><title>q1&#45;&gt;z1</title>
<path fill="none" stroke="black" d="M1205.79,-215.697C1204.35,-207.983 1202.63,-198.712 1201.04,-190.112"/>
<polygon fill="black" stroke="black" points="1204.44,-189.297 1199.18,-180.104 1197.56,-190.575 1204.44,-189.297"/>
</g>
<!-- e1&#45;&gt;d1 -->
<g id="edge144" class="edge"><title>e1&#45;&gt;d1</title>
<path fill="none" stroke="black" d="M720.258,-215.697C719.928,-207.983 719.531,-198.712 719.162,-190.112"/>
<polygon fill="black" stroke="black" points="722.658,-189.945 718.733,-180.104 715.665,-190.245 722.658,-189.945"/>
</g>
<!-- b2&#45;&gt;a2 -->
<g id="edge130" class="edge"><title>b2&#45;&gt;a2</title>
<path fill="none" stroke="black" d="M406.193,-291.834C374.282,-280.72 328.328,-264.716 293.311,-252.521"/>
<polygon fill="black" stroke="black" points="294.34,-249.174 283.745,-249.19 292.038,-255.784 294.34,-249.174"/>
</g>
<!-- r0&#45;&gt;n1 -->
<g id="edge136" class="edge"><title>r0&#45;&gt;n1</title>
<path fill="none" stroke="black" d="M2071,-359.697C2071,-351.983 2071,-342.712 2071,-334.112"/>
<polygon fill="black" stroke="black" points="2074.5,-334.104 2071,-324.104 2067.5,-334.104 2074.5,-334.104"/>
</g>
<!-- h0&#45;&gt;f0 -->
<g id="edge100" class="edge"><title>h0&#45;&gt;f0</title>
<path fill="none" stroke="black" d="M1789,-359.697C1789,-351.983 1789,-342.712 1789,-334.112"/>
<polygon fill="black" stroke="black" points="1792.5,-334.104 1789,-324.104 1785.5,-334.104 1792.5,-334.104"/>
</g>
<!-- r1 -->
<g id="node99" class="node"><title>r1</title>
<a xlink:href="0016043" xlink:title="GO:0016043">
<ellipse fill="#dddddd" stroke="#dddddd" cx="1428" cy="-306" rx="61.1934" ry="18"/>
<text text-anchor="middle" x="1428" y="-301.8" font-family="Times,serif" font-size="14.00">GO:0016043</text>
</a>
</g>
<!-- h0&#45;&gt;r1 -->
<g id="edge134" class="edge"><title>h0&#45;&gt;r1</title>
<path fill="none" stroke="black" d="M1739.18,-367.34C1673.46,-354.596 1557.92,-332.192 1487.63,-318.562"/>
<polygon fill="black" stroke="black" points="1488.08,-315.084 1477.59,-316.617 1486.75,-321.956 1488.08,-315.084"/>
</g>
<!-- i1 -->
<g id="node98" class="node"><title>i1</title>
<a xlink:href="0006508" xlink:title="GO:0006508 (1)">
<ellipse fill="#e98576" stroke="#e98576" cx="711" cy="-90" rx="75.2018" ry="18"/>
<text text-anchor="middle" x="711" y="-85.8" font-family="Times,serif" font-size="14.00">GO:0006508 (1)</text>
</a>
</g>
<!-- d1&#45;&gt;i1 -->
<g id="edge102" class="edge"><title>d1&#45;&gt;i1</title>
<path fill="none" stroke="black" d="M716.27,-143.697C715.498,-135.983 714.571,-126.712 713.711,-118.112"/>
<polygon fill="black" stroke="black" points="717.188,-117.706 712.71,-108.104 710.223,-118.403 717.188,-117.706"/>
</g>
<!-- d1&#45;&gt;b1 -->
<g id="edge120" class="edge"><title>d1&#45;&gt;b1</title>
<path fill="none" stroke="black" d="M674.966,-149.046C633.057,-137.405 569.105,-119.64 522.988,-106.83"/>
<polygon fill="black" stroke="black" points="523.713,-103.399 513.141,-104.095 521.839,-110.143 523.713,-103.399"/>
</g>
<!-- r1&#45;&gt;q1 -->
<g id="edge104" class="edge"><title>r1&#45;&gt;q1</title>
<path fill="none" stroke="black" d="M1388.09,-292.242C1352.72,-280.936 1300.8,-264.343 1261.96,-251.929"/>
<polygon fill="black" stroke="black" points="1262.98,-248.58 1252.39,-248.869 1260.85,-255.248 1262.98,-248.58"/>
</g>
<!-- j0&#45;&gt;c0 -->
<g id="edge112" class="edge"><title>j0&#45;&gt;c0</title>
<path fill="none" stroke="black" d="M898.116,-74.496C921.233,-64.0562 952.667,-49.8601 977.956,-38.4394"/>
<polygon fill="black" stroke="black" points="979.643,-41.5176 987.317,-34.2119 976.762,-35.138 979.643,-41.5176"/>
</g>
<!-- p0 -->
<g id="node129" class="node"><title>p0</title>
<a xlink:href="0055114" xlink:title="GO:0055114 (4)">
<ellipse fill="#e98576" stroke="#e98576" cx="2484" cy="-450" rx="75.2018" ry="18"/>
<text text-anchor="middle" x="2484" y="-445.8" font-family="Times,serif" font-size="14.00">GO:0055114 (4)</text>
</a>
</g>
</g>
</svg>
