<?xml version="1.0" encoding="UTF-8" standalone="no"?>
<!DOCTYPE svg PUBLIC "-//W3C//DTD SVG 1.1//EN"
 "http://www.w3.org/Graphics/SVG/1.1/DTD/svg11.dtd">
<!-- Generated by graphviz version 2.28.0 (20110622.2320)
 -->
<!-- Title: G Pages: 1 -->
<svg width="3808pt" height="404pt"
 viewBox="0.00 0.00 3808.00 404.00" xmlns="http://www.w3.org/2000/svg" xmlns:xlink="http://www.w3.org/1999/xlink">
<g id="graph1" class="graph" transform="scale(1 1) rotate(0) translate(4 400)">
<title>G</title>
<polygon fill="white" stroke="white" points="-4,5 -4,-400 3805,-400 3805,5 -4,5"/>
<!-- c0 -->
<g id="node1" class="node"><title>c0</title>
<a xlink:href="0003674" xlink:title="GO:0003674">
<ellipse fill="#dddddd" stroke="#dddddd" cx="2579" cy="-378" rx="61.1934" ry="18"/>
<text text-anchor="middle" x="2579" y="-373.8" font-family="Times,serif" font-size="14.00">GO:0003674</text>
</a>
</g>
<!-- x0 -->
<g id="node3" class="node"><title>x0</title>
<a xlink:href="0030234" xlink:title="GO:0030234 (6)">
<ellipse fill="#e98576" stroke="#e98576" cx="618" cy="-306" rx="75.2018" ry="18"/>
<text text-anchor="middle" x="618" y="-301.8" font-family="Times,serif" font-size="14.00">GO:0030234 (6)</text>
</a>
</g>
<!-- c0&#45;&gt;x0 -->
<g id="edge2" class="edge"><title>c0&#45;&gt;x0</title>
<path fill="none" stroke="black" d="M2517.72,-376.683C2236.27,-375.01 1065.76,-365.633 702,-324 694.886,-323.186 687.478,-322.077 680.138,-320.813"/>
<polygon fill="black" stroke="black" points="680.671,-317.352 670.206,-319.006 679.418,-324.239 680.671,-317.352"/>
</g>
<!-- f0 -->
<g id="node4" class="node"><title>f0</title>
<a xlink:href="0003824" xlink:title="GO:0003824 (2)">
<ellipse fill="#e98576" stroke="#e98576" cx="786" cy="-306" rx="75.2018" ry="18"/>
<text text-anchor="middle" x="786" y="-301.8" font-family="Times,serif" font-size="14.00">GO:0003824 (2)</text>
</a>
</g>
<!-- c0&#45;&gt;f0 -->
<g id="edge46" class="edge"><title>c0&#45;&gt;f0</title>
<path fill="none" stroke="black" d="M2518.83,-374.651C2252.45,-364.251 1178.86,-322.337 869.689,-310.267"/>
<polygon fill="black" stroke="black" points="869.581,-306.76 859.452,-309.868 869.308,-313.755 869.581,-306.76"/>
</g>
<!-- b0 -->
<g id="node7" class="node"><title>b0</title>
<a xlink:href="0005488" xlink:title="GO:0005488">
<ellipse fill="#dddddd" stroke="#dddddd" cx="2331" cy="-306" rx="61.1934" ry="18"/>
<text text-anchor="middle" x="2331" y="-301.8" font-family="Times,serif" font-size="14.00">GO:0005488</text>
</a>
</g>
<!-- c0&#45;&gt;b0 -->
<g id="edge10" class="edge"><title>c0&#45;&gt;b0</title>
<path fill="none" stroke="black" d="M2536.37,-364.967C2493.92,-352.985 2428.69,-334.575 2383.18,-321.727"/>
<polygon fill="black" stroke="black" points="2384.07,-318.341 2373.49,-318.993 2382.16,-325.078 2384.07,-318.341"/>
</g>
<!-- n0 -->
<g id="node20" class="node"><title>n0</title>
<a xlink:href="0005215" xlink:title="GO:0005215 (15)">
<ellipse fill="#e98576" stroke="#e98576" cx="2490" cy="-306" rx="79.4447" ry="18"/>
<text text-anchor="middle" x="2490" y="-301.8" font-family="Times,serif" font-size="14.00">GO:0005215 (15)</text>
</a>
</g>
<!-- c0&#45;&gt;n0 -->
<g id="edge16" class="edge"><title>c0&#45;&gt;n0</title>
<path fill="none" stroke="black" d="M2558.36,-360.765C2546.65,-351.554 2531.81,-339.882 2518.95,-329.769"/>
<polygon fill="black" stroke="black" points="2520.86,-326.821 2510.84,-323.39 2516.53,-332.323 2520.86,-326.821"/>
</g>
<!-- j0 -->
<g id="node38" class="node"><title>j0</title>
<a xlink:href="0005198" xlink:title="GO:0005198 (30)">
<ellipse fill="#e98576" stroke="#e98576" cx="2668" cy="-306" rx="79.4447" ry="18"/>
<text text-anchor="middle" x="2668" y="-301.8" font-family="Times,serif" font-size="14.00">GO:0005198 (30)</text>
</a>
</g>
<!-- c0&#45;&gt;j0 -->
<g id="edge36" class="edge"><title>c0&#45;&gt;j0</title>
<path fill="none" stroke="black" d="M2599.64,-360.765C2611.35,-351.554 2626.19,-339.882 2639.05,-329.769"/>
<polygon fill="black" stroke="black" points="2641.47,-332.323 2647.16,-323.39 2637.14,-326.821 2641.47,-332.323"/>
</g>
<!-- k1 -->
<g id="node56" class="node"><title>k1</title>
<a xlink:href="0060089" xlink:title="GO:0060089">
<ellipse fill="#dddddd" stroke="#dddddd" cx="2827" cy="-306" rx="61.1934" ry="18"/>
<text text-anchor="middle" x="2827" y="-301.8" font-family="Times,serif" font-size="14.00">GO:0060089</text>
</a>
</g>
<!-- c0&#45;&gt;k1 -->
<g id="edge74" class="edge"><title>c0&#45;&gt;k1</title>
<path fill="none" stroke="black" d="M2621.63,-364.967C2664.08,-352.985 2729.31,-334.575 2774.82,-321.727"/>
<polygon fill="black" stroke="black" points="2775.84,-325.078 2784.51,-318.993 2773.93,-318.341 2775.84,-325.078"/>
</g>
<!-- v0 -->
<g id="node59" class="node"><title>v0</title>
<a xlink:href="0016209" xlink:title="GO:0016209 (7)">
<ellipse fill="#e98576" stroke="#e98576" cx="2982" cy="-306" rx="75.2018" ry="18"/>
<text text-anchor="middle" x="2982" y="-301.8" font-family="Times,serif" font-size="14.00">GO:0016209 (7)</text>
</a>
</g>
<!-- c0&#45;&gt;v0 -->
<g id="edge56" class="edge"><title>c0&#45;&gt;v0</title>
<path fill="none" stroke="black" d="M2631.7,-368.75C2694.85,-358.74 2803.82,-341.078 2897,-324 2903.31,-322.843 2909.88,-321.599 2916.45,-320.33"/>
<polygon fill="black" stroke="black" points="2917.58,-323.675 2926.72,-318.324 2916.24,-316.805 2917.58,-323.675"/>
</g>
<!-- m1 -->
<g id="node61" class="node"><title>m1</title>
<a xlink:href="0045735" xlink:title="GO:0045735 (1)">
<ellipse fill="#e98576" stroke="#e98576" cx="3150" cy="-306" rx="75.2018" ry="18"/>
<text text-anchor="middle" x="3150" y="-301.8" font-family="Times,serif" font-size="14.00">GO:0045735 (1)</text>
</a>
</g>
<!-- c0&#45;&gt;m1 -->
<g id="edge58" class="edge"><title>c0&#45;&gt;m1</title>
<path fill="none" stroke="black" d="M2637.32,-372.386C2728.93,-364.748 2912,-347.913 3066,-324 3072.62,-322.972 3079.51,-321.78 3086.37,-320.514"/>
<polygon fill="black" stroke="black" points="3087.19,-323.92 3096.36,-318.615 3085.88,-317.043 3087.19,-323.92"/>
</g>
<!-- s0 -->
<g id="node6" class="node"><title>s0</title>
<a xlink:href="0016853" xlink:title="GO:0016853 (10)">
<ellipse fill="#e98576" stroke="#e98576" cx="79" cy="-234" rx="79.4447" ry="18"/>
<text text-anchor="middle" x="79" y="-229.8" font-family="Times,serif" font-size="14.00">GO:0016853 (10)</text>
</a>
</g>
<!-- f0&#45;&gt;s0 -->
<g id="edge4" class="edge"><title>f0&#45;&gt;s0</title>
<path fill="none" stroke="black" d="M732.856,-293.14C722.655,-291.177 712.028,-289.347 702,-288 466.244,-256.339 403.925,-282.371 168,-252 160.623,-251.05 152.935,-249.872 145.303,-248.581"/>
<polygon fill="black" stroke="black" points="145.787,-245.112 135.332,-246.829 144.576,-252.007 145.787,-245.112"/>
</g>
<!-- i0 -->
<g id="node13" class="node"><title>i0</title>
<a xlink:href="0016787" xlink:title="GO:0016787 (34)">
<ellipse fill="#e98576" stroke="#e98576" cx="257" cy="-234" rx="79.4447" ry="18"/>
<text text-anchor="middle" x="257" y="-229.8" font-family="Times,serif" font-size="14.00">GO:0016787 (34)</text>
</a>
</g>
<!-- f0&#45;&gt;i0 -->
<g id="edge22" class="edge"><title>f0&#45;&gt;i0</title>
<path fill="none" stroke="black" d="M732.367,-293.324C722.308,-291.368 711.857,-289.492 702,-288 544.762,-264.198 503.366,-274.941 346,-252 338.83,-250.955 331.359,-249.735 323.927,-248.438"/>
<polygon fill="black" stroke="black" points="324.309,-244.951 313.849,-246.63 323.073,-251.841 324.309,-244.951"/>
</g>
<!-- e0 -->
<g id="node16" class="node"><title>e0</title>
<a xlink:href="0016491" xlink:title="GO:0016491 (54)">
<ellipse fill="#e98576" stroke="#e98576" cx="435" cy="-234" rx="79.4447" ry="18"/>
<text text-anchor="middle" x="435" y="-229.8" font-family="Times,serif" font-size="14.00">GO:0016491 (54)</text>
</a>
</g>
<!-- f0&#45;&gt;e0 -->
<g id="edge30" class="edge"><title>f0&#45;&gt;e0</title>
<path fill="none" stroke="black" d="M730.43,-293.723C720.945,-291.807 711.191,-289.842 702,-288 634.309,-274.432 556.928,-259.09 502.959,-248.417"/>
<polygon fill="black" stroke="black" points="503.314,-244.92 492.825,-246.414 501.956,-251.787 503.314,-244.92"/>
</g>
<!-- r0 -->
<g id="node29" class="node"><title>r0</title>
<a xlink:href="0016874" xlink:title="GO:0016874 (10)">
<ellipse fill="#e98576" stroke="#e98576" cx="613" cy="-234" rx="79.4447" ry="18"/>
<text text-anchor="middle" x="613" y="-229.8" font-family="Times,serif" font-size="14.00">GO:0016874 (10)</text>
</a>
</g>
<!-- f0&#45;&gt;r0 -->
<g id="edge26" class="edge"><title>f0&#45;&gt;r0</title>
<path fill="none" stroke="black" d="M749.311,-290.155C723.138,-279.564 687.734,-265.239 659.568,-253.842"/>
<polygon fill="black" stroke="black" points="660.517,-250.451 649.934,-249.944 657.891,-256.94 660.517,-250.451"/>
</g>
<!-- z0 -->
<g id="node36" class="node"><title>z0</title>
<a xlink:href="0004386" xlink:title="GO:0004386 (4)">
<ellipse fill="#e98576" stroke="#e98576" cx="786" cy="-234" rx="75.2018" ry="18"/>
<text text-anchor="middle" x="786" y="-229.8" font-family="Times,serif" font-size="14.00">GO:0004386 (4)</text>
</a>
</g>
<!-- f0&#45;&gt;z0 -->
<g id="edge34" class="edge"><title>f0&#45;&gt;z0</title>
<path fill="none" stroke="black" d="M786,-287.697C786,-279.983 786,-270.712 786,-262.112"/>
<polygon fill="black" stroke="black" points="789.5,-262.104 786,-252.104 782.5,-262.104 789.5,-262.104"/>
</g>
<!-- h0 -->
<g id="node66" class="node"><title>h0</title>
<a xlink:href="0016740" xlink:title="GO:0016740 (37)">
<ellipse fill="#e98576" stroke="#e98576" cx="959" cy="-234" rx="79.4447" ry="18"/>
<text text-anchor="middle" x="959" y="-229.8" font-family="Times,serif" font-size="14.00">GO:0016740 (37)</text>
</a>
</g>
<!-- f0&#45;&gt;h0 -->
<g id="edge64" class="edge"><title>f0&#45;&gt;h0</title>
<path fill="none" stroke="black" d="M822.689,-290.155C848.862,-279.564 884.266,-265.239 912.432,-253.842"/>
<polygon fill="black" stroke="black" points="914.109,-256.94 922.066,-249.944 911.483,-250.451 914.109,-256.94"/>
</g>
<!-- l0 -->
<g id="node74" class="node"><title>l0</title>
<a xlink:href="0016829" xlink:title="GO:0016829 (22)">
<ellipse fill="#e98576" stroke="#e98576" cx="1137" cy="-234" rx="79.4447" ry="18"/>
<text text-anchor="middle" x="1137" y="-229.8" font-family="Times,serif" font-size="14.00">GO:0016829 (22)</text>
</a>
</g>
<!-- f0&#45;&gt;l0 -->
<g id="edge72" class="edge"><title>f0&#45;&gt;l0</title>
<path fill="none" stroke="black" d="M841.617,-293.908C903.396,-281.588 1003.14,-261.696 1069.38,-248.485"/>
<polygon fill="black" stroke="black" points="1070.19,-251.893 1079.31,-246.505 1068.82,-245.029 1070.19,-251.893"/>
</g>
<!-- m0 -->
<g id="node9" class="node"><title>m0</title>
<a xlink:href="0005515" xlink:title="GO:0005515 (17)">
<ellipse fill="#e98576" stroke="#e98576" cx="1315" cy="-234" rx="79.4447" ry="18"/>
<text text-anchor="middle" x="1315" y="-229.8" font-family="Times,serif" font-size="14.00">GO:0005515 (17)</text>
</a>
</g>
<!-- b0&#45;&gt;m0 -->
<g id="edge6" class="edge"><title>b0&#45;&gt;m0</title>
<path fill="none" stroke="black" d="M2270.01,-304.285C2121.37,-301.94 1728.77,-292.124 1404,-252 1396.43,-251.064 1388.53,-249.873 1380.7,-248.556"/>
<polygon fill="black" stroke="black" points="1381.3,-245.108 1370.84,-246.83 1380.09,-252.003 1381.3,-245.108"/>
</g>
<!-- e1 -->
<g id="node11" class="node"><title>e1</title>
<a xlink:href="0043021" xlink:title="GO:0043021 (2)">
<ellipse fill="#e98576" stroke="#e98576" cx="1488" cy="-234" rx="75.2018" ry="18"/>
<text text-anchor="middle" x="1488" y="-229.8" font-family="Times,serif" font-size="14.00">GO:0043021 (2)</text>
</a>
</g>
<!-- b0&#45;&gt;e1 -->
<g id="edge8" class="edge"><title>b0&#45;&gt;e1</title>
<path fill="none" stroke="black" d="M2270.22,-303.436C2141.11,-299.525 1830.19,-286.99 1572,-252 1565.26,-251.087 1558.26,-249.959 1551.29,-248.72"/>
<polygon fill="black" stroke="black" points="1551.62,-245.222 1541.15,-246.841 1550.34,-252.105 1551.62,-245.222"/>
</g>
<!-- a0 -->
<g id="node22" class="node"><title>a0</title>
<a xlink:href="0043167" xlink:title="GO:0043167 (156)">
<ellipse fill="#e98576" stroke="#e98576" cx="1666" cy="-234" rx="84.1886" ry="18"/>
<text text-anchor="middle" x="1666" y="-229.8" font-family="Times,serif" font-size="14.00">GO:0043167 (156)</text>
</a>
</g>
<!-- b0&#45;&gt;a0 -->
<g id="edge18" class="edge"><title>b0&#45;&gt;a0</title>
<path fill="none" stroke="black" d="M2271.62,-301.186C2167.64,-294.127 1945.94,-277.395 1760,-252 1752.26,-250.943 1744.18,-249.699 1736.16,-248.373"/>
<polygon fill="black" stroke="black" points="1736.5,-244.88 1726.05,-246.658 1735.33,-251.782 1736.5,-244.88"/>
</g>
<!-- b1 -->
<g id="node24" class="node"><title>b1</title>
<a xlink:href="0043176" xlink:title="GO:0043176">
<ellipse fill="#dddddd" stroke="#dddddd" cx="1830" cy="-234" rx="61.1934" ry="18"/>
<text text-anchor="middle" x="1830" y="-229.8" font-family="Times,serif" font-size="14.00">GO:0043176</text>
</a>
</g>
<!-- b0&#45;&gt;b1 -->
<g id="edge20" class="edge"><title>b0&#45;&gt;b1</title>
<path fill="none" stroke="black" d="M2273.31,-299.967C2190.49,-292.273 2033.31,-275.915 1901,-252 1895.62,-251.028 1890.04,-249.901 1884.48,-248.698"/>
<polygon fill="black" stroke="black" points="1885.05,-245.241 1874.53,-246.471 1883.52,-252.072 1885.05,-245.241"/>
</g>
<!-- d1 -->
<g id="node27" class="node"><title>d1</title>
<a xlink:href="0030246" xlink:title="GO:0030246 (3)">
<ellipse fill="#e98576" stroke="#e98576" cx="1985" cy="-234" rx="75.2018" ry="18"/>
<text text-anchor="middle" x="1985" y="-229.8" font-family="Times,serif" font-size="14.00">GO:0030246 (3)</text>
</a>
</g>
<!-- b0&#45;&gt;d1 -->
<g id="edge24" class="edge"><title>b0&#45;&gt;d1</title>
<path fill="none" stroke="black" d="M2282.16,-295.119C2221.56,-282.86 2118.01,-261.91 2050.55,-248.261"/>
<polygon fill="black" stroke="black" points="2050.95,-244.772 2040.46,-246.219 2049.56,-251.633 2050.95,-244.772"/>
</g>
<!-- g0 -->
<g id="node31" class="node"><title>g0</title>
<a xlink:href="0003676" xlink:title="GO:0003676 (38)">
<ellipse fill="#e98576" stroke="#e98576" cx="2158" cy="-234" rx="79.4447" ry="18"/>
<text text-anchor="middle" x="2158" y="-229.8" font-family="Times,serif" font-size="14.00">GO:0003676 (38)</text>
</a>
</g>
<!-- b0&#45;&gt;g0 -->
<g id="edge28" class="edge"><title>b0&#45;&gt;g0</title>
<path fill="none" stroke="black" d="M2296.41,-291.003C2270.01,-280.321 2233.37,-265.497 2204.42,-253.784"/>
<polygon fill="black" stroke="black" points="2205.51,-250.447 2194.93,-249.941 2202.88,-256.936 2205.51,-250.447"/>
</g>
<!-- l1 -->
<g id="node34" class="node"><title>l1</title>
<a xlink:href="0001871" xlink:title="GO:0001871 (1)">
<ellipse fill="#e98576" stroke="#e98576" cx="2331" cy="-234" rx="75.2018" ry="18"/>
<text text-anchor="middle" x="2331" y="-229.8" font-family="Times,serif" font-size="14.00">GO:0001871 (1)</text>
</a>
</g>
<!-- b0&#45;&gt;l1 -->
<g id="edge32" class="edge"><title>b0&#45;&gt;l1</title>
<path fill="none" stroke="black" d="M2331,-287.697C2331,-279.983 2331,-270.712 2331,-262.112"/>
<polygon fill="black" stroke="black" points="2334.5,-262.104 2331,-252.104 2327.5,-262.104 2334.5,-262.104"/>
</g>
<!-- k0 -->
<g id="node40" class="node"><title>k0</title>
<a xlink:href="0048037" xlink:title="GO:0048037 (28)">
<ellipse fill="#e98576" stroke="#e98576" cx="2504" cy="-234" rx="79.4447" ry="18"/>
<text text-anchor="middle" x="2504" y="-229.8" font-family="Times,serif" font-size="14.00">GO:0048037 (28)</text>
</a>
</g>
<!-- b0&#45;&gt;k0 -->
<g id="edge38" class="edge"><title>b0&#45;&gt;k0</title>
<path fill="none" stroke="black" d="M2365.59,-291.003C2391.99,-280.321 2428.63,-265.497 2457.58,-253.784"/>
<polygon fill="black" stroke="black" points="2459.12,-256.936 2467.07,-249.941 2456.49,-250.447 2459.12,-256.936"/>
</g>
<!-- p0 -->
<g id="node51" class="node"><title>p0</title>
<a xlink:href="0001882" xlink:title="GO:0001882 (13)">
<ellipse fill="#e98576" stroke="#e98576" cx="2682" cy="-234" rx="79.4447" ry="18"/>
<text text-anchor="middle" x="2682" y="-229.8" font-family="Times,serif" font-size="14.00">GO:0001882 (13)</text>
</a>
</g>
<!-- b0&#45;&gt;p0 -->
<g id="edge48" class="edge"><title>b0&#45;&gt;p0</title>
<path fill="none" stroke="black" d="M2376.11,-293.681C2384.37,-291.711 2392.93,-289.739 2401,-288 2485.44,-269.801 2507.11,-268.017 2592,-252 2598.72,-250.732 2605.72,-249.411 2612.72,-248.089"/>
<polygon fill="black" stroke="black" points="2613.76,-251.454 2622.94,-246.16 2612.46,-244.576 2613.76,-251.454"/>
</g>
<!-- w0 -->
<g id="node53" class="node"><title>w0</title>
<a xlink:href="0019842" xlink:title="GO:0019842 (7)">
<ellipse fill="#e98576" stroke="#e98576" cx="2855" cy="-234" rx="75.2018" ry="18"/>
<text text-anchor="middle" x="2855" y="-229.8" font-family="Times,serif" font-size="14.00">GO:0019842 (7)</text>
</a>
</g>
<!-- b0&#45;&gt;w0 -->
<g id="edge50" class="edge"><title>b0&#45;&gt;w0</title>
<path fill="none" stroke="black" d="M2374.87,-293.346C2383.49,-291.34 2392.49,-289.441 2401,-288 2563.47,-260.488 2607.01,-276.188 2770,-252 2776.8,-250.991 2783.88,-249.8 2790.93,-248.525"/>
<polygon fill="black" stroke="black" points="2792,-251.886 2801.18,-246.608 2790.71,-245.005 2792,-251.886"/>
</g>
<!-- o0 -->
<g id="node68" class="node"><title>o0</title>
<a xlink:href="0046906" xlink:title="GO:0046906 (14)">
<ellipse fill="#e98576" stroke="#e98576" cx="3028" cy="-234" rx="79.4447" ry="18"/>
<text text-anchor="middle" x="3028" y="-229.8" font-family="Times,serif" font-size="14.00">GO:0046906 (14)</text>
</a>
</g>
<!-- b0&#45;&gt;o0 -->
<g id="edge66" class="edge"><title>b0&#45;&gt;o0</title>
<path fill="none" stroke="black" d="M2374.46,-293.225C2383.19,-291.204 2392.35,-289.33 2401,-288 2637.86,-251.588 2701.31,-282.538 2939,-252 2946.38,-251.052 2954.07,-249.875 2961.7,-248.584"/>
<polygon fill="black" stroke="black" points="2962.42,-252.01 2971.67,-246.833 2961.21,-245.116 2962.42,-252.01"/>
</g>
<!-- d0 -->
<g id="node70" class="node"><title>d0</title>
<a xlink:href="0000166" xlink:title="GO:0000166 (110)">
<ellipse fill="#e98576" stroke="#e98576" cx="3211" cy="-234" rx="84.1886" ry="18"/>
<text text-anchor="middle" x="3211" y="-229.8" font-family="Times,serif" font-size="14.00">GO:0000166 (110)</text>
</a>
</g>
<!-- b0&#45;&gt;d0 -->
<g id="edge68" class="edge"><title>b0&#45;&gt;d0</title>
<path fill="none" stroke="black" d="M2374.07,-293.198C2382.92,-291.153 2392.21,-289.277 2401,-288 2715.87,-242.253 2799.87,-288.096 3116,-252 3124.32,-251.05 3133,-249.824 3141.6,-248.465"/>
<polygon fill="black" stroke="black" points="3142.32,-251.894 3151.62,-246.818 3141.19,-244.986 3142.32,-251.894"/>
</g>
<!-- c1 -->
<g id="node72" class="node"><title>c1</title>
<a xlink:href="0031409" xlink:title="GO:0031409 (3)">
<ellipse fill="#e98576" stroke="#e98576" cx="3389" cy="-234" rx="75.2018" ry="18"/>
<text text-anchor="middle" x="3389" y="-229.8" font-family="Times,serif" font-size="14.00">GO:0031409 (3)</text>
</a>
</g>
<!-- b0&#45;&gt;c1 -->
<g id="edge70" class="edge"><title>b0&#45;&gt;c1</title>
<path fill="none" stroke="black" d="M2374.06,-293.126C2382.91,-291.086 2392.21,-289.231 2401,-288 2798.78,-232.332 2905.17,-299.533 3304,-252 3311.19,-251.143 3318.68,-250.007 3326.11,-248.728"/>
<polygon fill="black" stroke="black" points="3326.94,-252.134 3336.16,-246.908 3325.69,-245.246 3326.94,-252.134"/>
</g>
<!-- u0 -->
<g id="node77" class="node"><title>u0</title>
<a xlink:href="0051540" xlink:title="GO:0051540 (8)">
<ellipse fill="#e98576" stroke="#e98576" cx="3557" cy="-234" rx="75.2018" ry="18"/>
<text text-anchor="middle" x="3557" y="-229.8" font-family="Times,serif" font-size="14.00">GO:0051540 (8)</text>
</a>
</g>
<!-- b0&#45;&gt;u0 -->
<g id="edge76" class="edge"><title>b0&#45;&gt;u0</title>
<path fill="none" stroke="black" d="M2374.05,-293.082C2382.9,-291.046 2392.2,-289.203 2401,-288 2873.32,-223.411 2999.53,-307.472 3473,-252 3480.11,-251.167 3487.52,-250.046 3494.86,-248.775"/>
<polygon fill="black" stroke="black" points="3495.58,-252.201 3504.79,-246.963 3494.32,-245.315 3495.58,-252.201"/>
</g>
<!-- q0 -->
<g id="node15" class="node"><title>q0</title>
<a xlink:href="0008233" xlink:title="GO:0008233 (12)">
<ellipse fill="#e98576" stroke="#e98576" cx="187" cy="-162" rx="79.4447" ry="18"/>
<text text-anchor="middle" x="187" y="-157.8" font-family="Times,serif" font-size="14.00">GO:0008233 (12)</text>
</a>
</g>
<!-- i0&#45;&gt;q0 -->
<g id="edge12" class="edge"><title>i0&#45;&gt;q0</title>
<path fill="none" stroke="black" d="M240.055,-216.055C231.371,-207.371 220.644,-196.644 211.114,-187.114"/>
<polygon fill="black" stroke="black" points="213.335,-184.385 203.789,-179.789 208.385,-189.335 213.335,-184.385"/>
</g>
<!-- y0 -->
<g id="node18" class="node"><title>y0</title>
<a xlink:href="0004497" xlink:title="GO:0004497 (5)">
<ellipse fill="#e98576" stroke="#e98576" cx="360" cy="-162" rx="75.2018" ry="18"/>
<text text-anchor="middle" x="360" y="-157.8" font-family="Times,serif" font-size="14.00">GO:0004497 (5)</text>
</a>
</g>
<!-- e0&#45;&gt;y0 -->
<g id="edge14" class="edge"><title>e0&#45;&gt;y0</title>
<path fill="none" stroke="black" d="M417.226,-216.411C407.675,-207.497 395.738,-196.355 385.241,-186.558"/>
<polygon fill="black" stroke="black" points="387.605,-183.977 377.906,-179.713 382.829,-189.094 387.605,-183.977"/>
</g>
<!-- t0 -->
<g id="node63" class="node"><title>t0</title>
<a xlink:href="0009055" xlink:title="GO:0009055 (8)">
<ellipse fill="#e98576" stroke="#e98576" cx="528" cy="-162" rx="75.2018" ry="18"/>
<text text-anchor="middle" x="528" y="-157.8" font-family="Times,serif" font-size="14.00">GO:0009055 (8)</text>
</a>
</g>
<!-- e0&#45;&gt;t0 -->
<g id="edge60" class="edge"><title>e0&#45;&gt;t0</title>
<path fill="none" stroke="black" d="M457.04,-216.411C469.317,-207.17 484.774,-195.536 498.125,-185.487"/>
<polygon fill="black" stroke="black" points="500.234,-188.28 506.118,-179.47 496.024,-182.687 500.234,-188.28"/>
</g>
<!-- a1 -->
<g id="node55" class="node"><title>a1</title>
<a xlink:href="0016597" xlink:title="GO:0016597 (3)">
<ellipse fill="#e98576" stroke="#e98576" cx="1830" cy="-162" rx="75.2018" ry="18"/>
<text text-anchor="middle" x="1830" y="-157.8" font-family="Times,serif" font-size="14.00">GO:0016597 (3)</text>
</a>
</g>
<!-- b1&#45;&gt;a1 -->
<g id="edge52" class="edge"><title>b1&#45;&gt;a1</title>
<path fill="none" stroke="black" d="M1830,-215.697C1830,-207.983 1830,-198.712 1830,-190.112"/>
<polygon fill="black" stroke="black" points="1833.5,-190.104 1830,-180.104 1826.5,-190.104 1833.5,-190.104"/>
</g>
<!-- h1 -->
<g id="node45" class="node"><title>h1</title>
<a xlink:href="0016879" xlink:title="GO:0016879">
<ellipse fill="#dddddd" stroke="#dddddd" cx="683" cy="-162" rx="61.1934" ry="18"/>
<text text-anchor="middle" x="683" y="-157.8" font-family="Times,serif" font-size="14.00">GO:0016879</text>
</a>
</g>
<!-- r0&#45;&gt;h1 -->
<g id="edge42" class="edge"><title>r0&#45;&gt;h1</title>
<path fill="none" stroke="black" d="M629.945,-216.055C638.629,-207.371 649.356,-196.644 658.886,-187.114"/>
<polygon fill="black" stroke="black" points="661.615,-189.335 666.211,-179.789 656.665,-184.385 661.615,-189.335"/>
</g>
<!-- j1 -->
<g id="node41" class="node"><title>j1</title>
<a xlink:href="0004871" xlink:title="GO:0004871 (1)">
<ellipse fill="#e98576" stroke="#e98576" cx="3725" cy="-234" rx="75.2018" ry="18"/>
<text text-anchor="middle" x="3725" y="-229.8" font-family="Times,serif" font-size="14.00">GO:0004871 (1)</text>
</a>
</g>
<!-- i1 -->
<g id="node43" class="node"><title>i1</title>
<a xlink:href="0004872" xlink:title="GO:0004872 (1)">
<ellipse fill="#e98576" stroke="#e98576" cx="3725" cy="-162" rx="75.2018" ry="18"/>
<text text-anchor="middle" x="3725" y="-157.8" font-family="Times,serif" font-size="14.00">GO:0004872 (1)</text>
</a>
</g>
<!-- j1&#45;&gt;i1 -->
<g id="edge40" class="edge"><title>j1&#45;&gt;i1</title>
<path fill="none" stroke="black" d="M3725,-215.697C3725,-207.983 3725,-198.712 3725,-190.112"/>
<polygon fill="black" stroke="black" points="3728.5,-190.104 3725,-180.104 3721.5,-190.104 3728.5,-190.104"/>
</g>
<!-- g1 -->
<g id="node46" class="node"><title>g1</title>
<a xlink:href="0016881" xlink:title="GO:0016881">
<ellipse fill="#dddddd" stroke="#dddddd" cx="683" cy="-90" rx="61.1934" ry="18"/>
<text text-anchor="middle" x="683" y="-85.8" font-family="Times,serif" font-size="14.00">GO:0016881</text>
</a>
</g>
<!-- h1&#45;&gt;g1 -->
<g id="edge62" class="edge"><title>h1&#45;&gt;g1</title>
<path fill="none" stroke="black" d="M683,-143.697C683,-135.983 683,-126.712 683,-118.112"/>
<polygon fill="black" stroke="black" points="686.5,-118.104 683,-108.104 679.5,-118.104 686.5,-118.104"/>
</g>
<!-- f1 -->
<g id="node48" class="node"><title>f1</title>
<a xlink:href="0019787" xlink:title="GO:0019787 (2)">
<ellipse fill="#e98576" stroke="#e98576" cx="683" cy="-18" rx="75.2018" ry="18"/>
<text text-anchor="middle" x="683" y="-13.8" font-family="Times,serif" font-size="14.00">GO:0019787 (2)</text>
</a>
</g>
<!-- g1&#45;&gt;f1 -->
<g id="edge44" class="edge"><title>g1&#45;&gt;f1</title>
<path fill="none" stroke="black" d="M683,-71.6966C683,-63.9827 683,-54.7125 683,-46.1124"/>
<polygon fill="black" stroke="black" points="686.5,-46.1043 683,-36.1043 679.5,-46.1044 686.5,-46.1043"/>
</g>
<!-- k1&#45;&gt;j1 -->
<g id="edge54" class="edge"><title>k1&#45;&gt;j1</title>
<path fill="none" stroke="black" d="M2870.31,-293.275C2879.4,-291.198 2888.97,-289.289 2898,-288 3225.3,-241.305 3312.93,-292.907 3641,-252 3647.84,-251.147 3654.97,-250.045 3662.04,-248.812"/>
<polygon fill="black" stroke="black" points="3663.12,-252.172 3672.33,-246.927 3661.86,-245.287 3663.12,-252.172"/>
</g>
</g>
</svg>
