<?xml version="1.0" encoding="UTF-8" standalone="no"?>
<!DOCTYPE svg PUBLIC "-//W3C//DTD SVG 1.1//EN"
 "http://www.w3.org/Graphics/SVG/1.1/DTD/svg11.dtd">
<!-- Generated by graphviz version 2.28.0 (20110622.2320)
 -->
<!-- Title: G Pages: 1 -->
<svg width="2231pt" height="764pt"
 viewBox="0.00 0.00 2231.46 764.00" xmlns="http://www.w3.org/2000/svg" xmlns:xlink="http://www.w3.org/1999/xlink">
<g id="graph1" class="graph" transform="scale(1 1) rotate(0) translate(4 760)">
<title>G</title>
<polygon fill="white" stroke="white" points="-4,5 -4,-760 2228.46,-760 2228.46,5 -4,5"/>
<!-- u1 -->
<g id="node1" class="node"><title>u1</title>
<a xlink:href="0030117" xlink:title="GO:0030117">
<ellipse fill="#dddddd" stroke="#dddddd" cx="160" cy="-234" rx="61.1934" ry="18"/>
<text text-anchor="middle" x="160" y="-229.8" font-family="Times,serif" font-size="14.00">GO:0030117</text>
</a>
</g>
<!-- t1 -->
<g id="node3" class="node"><title>t1</title>
<a xlink:href="0030119" xlink:title="GO:0030119 (1)">
<ellipse fill="#e98576" stroke="#e98576" cx="160" cy="-162" rx="75.2018" ry="18"/>
<text text-anchor="middle" x="160" y="-157.8" font-family="Times,serif" font-size="14.00">GO:0030119 (1)</text>
</a>
</g>
<!-- u1&#45;&gt;t1 -->
<g id="edge2" class="edge"><title>u1&#45;&gt;t1</title>
<path fill="none" stroke="black" d="M160,-215.697C160,-207.983 160,-198.712 160,-190.112"/>
<polygon fill="black" stroke="black" points="163.5,-190.104 160,-180.104 156.5,-190.104 163.5,-190.104"/>
</g>
<!-- u0 -->
<g id="node4" class="node"><title>u0</title>
<a xlink:href="0043234" xlink:title="GO:0043234 (2)">
<ellipse fill="#e98576" stroke="#e98576" cx="390" cy="-234" rx="75.2018" ry="18"/>
<text text-anchor="middle" x="390" y="-229.8" font-family="Times,serif" font-size="14.00">GO:0043234 (2)</text>
</a>
</g>
<!-- u0&#45;&gt;t1 -->
<g id="edge4" class="edge"><title>u0&#45;&gt;t1</title>
<path fill="none" stroke="black" d="M345.381,-219.42C307.848,-207.997 254.063,-191.628 214.085,-179.461"/>
<polygon fill="black" stroke="black" points="215.081,-176.105 204.495,-176.542 213.043,-182.802 215.081,-176.105"/>
</g>
<!-- m1 -->
<g id="node66" class="node"><title>m1</title>
<a xlink:href="0031105" xlink:title="GO:0031105 (1)">
<ellipse fill="#e98576" stroke="#e98576" cx="1233" cy="-90" rx="75.2018" ry="18"/>
<text text-anchor="middle" x="1233" y="-85.8" font-family="Times,serif" font-size="14.00">GO:0031105 (1)</text>
</a>
</g>
<!-- u0&#45;&gt;m1 -->
<g id="edge66" class="edge"><title>u0&#45;&gt;m1</title>
<path fill="none" stroke="black" d="M411.734,-216.563C424.687,-206.456 441.234,-192.992 455,-180 470.786,-165.103 468.455,-153.44 488,-144 546.265,-115.86 966.574,-99.3811 1148.94,-93.4863"/>
<polygon fill="black" stroke="black" points="1149.14,-96.9817 1159.02,-93.1633 1148.92,-89.9853 1149.14,-96.9817"/>
</g>
<!-- l1 -->
<g id="node102" class="node"><title>l1</title>
<a xlink:href="0000307" xlink:title="GO:0000307 (1)">
<ellipse fill="#e98576" stroke="#e98576" cx="328" cy="-162" rx="75.2018" ry="18"/>
<text text-anchor="middle" x="328" y="-157.8" font-family="Times,serif" font-size="14.00">GO:0000307 (1)</text>
</a>
</g>
<!-- u0&#45;&gt;l1 -->
<g id="edge116" class="edge"><title>u0&#45;&gt;l1</title>
<path fill="none" stroke="black" d="M374.992,-216.055C367.376,-207.457 357.987,-196.857 349.609,-187.397"/>
<polygon fill="black" stroke="black" points="352.121,-184.954 342.87,-179.789 346.881,-189.596 352.121,-184.954"/>
</g>
<!-- j1 -->
<g id="node118" class="node"><title>j1</title>
<a xlink:href="0015935" xlink:title="GO:0015935 (1)">
<ellipse fill="#e98576" stroke="#e98576" cx="494" cy="-90" rx="75.2018" ry="18"/>
<text text-anchor="middle" x="494" y="-85.8" font-family="Times,serif" font-size="14.00">GO:0015935 (1)</text>
</a>
</g>
<!-- u0&#45;&gt;j1 -->
<g id="edge142" class="edge"><title>u0&#45;&gt;j1</title>
<path fill="none" stroke="black" d="M402.443,-215.925C415.512,-197.998 436.674,-168.998 455,-144 461.585,-135.017 468.812,-125.188 475.236,-116.462"/>
<polygon fill="black" stroke="black" points="478.227,-118.302 481.338,-108.174 472.59,-114.151 478.227,-118.302"/>
</g>
<!-- v1 -->
<g id="node6" class="node"><title>v1</title>
<a xlink:href="0044425" xlink:title="GO:0044425">
<ellipse fill="#dddddd" stroke="#dddddd" cx="61" cy="-306" rx="61.1934" ry="18"/>
<text text-anchor="middle" x="61" y="-301.8" font-family="Times,serif" font-size="14.00">GO:0044425</text>
</a>
</g>
<!-- v1&#45;&gt;u1 -->
<g id="edge94" class="edge"><title>v1&#45;&gt;u1</title>
<path fill="none" stroke="black" d="M83.4646,-289.116C97.0085,-279.539 114.447,-267.209 129.257,-256.737"/>
<polygon fill="black" stroke="black" points="131.48,-259.452 137.624,-250.821 127.438,-253.737 131.48,-259.452"/>
</g>
<!-- v1&#45;&gt;t1 -->
<g id="edge6" class="edge"><title>v1&#45;&gt;t1</title>
<path fill="none" stroke="black" d="M63.43,-287.882C66.8028,-268.872 74.3505,-237.973 90,-216 98.7523,-203.711 111.2,-193.002 123.178,-184.488"/>
<polygon fill="black" stroke="black" points="125.435,-187.187 131.757,-178.686 121.513,-181.389 125.435,-187.187"/>
</g>
<!-- t0 -->
<g id="node8" class="node"><title>t0</title>
<a xlink:href="0044444" xlink:title="GO:0044444">
<ellipse fill="#dddddd" stroke="#dddddd" cx="842" cy="-306" rx="61.1934" ry="18"/>
<text text-anchor="middle" x="842" y="-301.8" font-family="Times,serif" font-size="14.00">GO:0044444</text>
</a>
</g>
<!-- t0&#45;&gt;u1 -->
<g id="edge96" class="edge"><title>t0&#45;&gt;u1</title>
<path fill="none" stroke="black" d="M788.682,-296.954C766.815,-293.847 741.229,-290.456 718,-288 503.931,-265.37 447.888,-283.881 235,-252 228.435,-251.017 221.591,-249.774 214.825,-248.41"/>
<polygon fill="black" stroke="black" points="215.514,-244.979 205.007,-246.341 214.07,-251.828 215.514,-244.979"/>
</g>
<!-- t0&#45;&gt;t1 -->
<g id="edge8" class="edge"><title>t0&#45;&gt;t1</title>
<path fill="none" stroke="black" d="M788.666,-297.104C766.796,-294.019 741.213,-290.604 718,-288 535.337,-267.511 480.633,-309.349 306,-252 261.526,-237.395 216.447,-207.015 188.382,-185.834"/>
<polygon fill="black" stroke="black" points="190.301,-182.896 180.237,-179.584 186.04,-188.449 190.301,-182.896"/>
</g>
<!-- i1 -->
<g id="node14" class="node"><title>i1</title>
<a xlink:href="0005840" xlink:title="GO:0005840 (1)">
<ellipse fill="#e98576" stroke="#e98576" cx="634" cy="-234" rx="75.2018" ry="18"/>
<text text-anchor="middle" x="634" y="-229.8" font-family="Times,serif" font-size="14.00">GO:0005840 (1)</text>
</a>
</g>
<!-- t0&#45;&gt;i1 -->
<g id="edge90" class="edge"><title>t0&#45;&gt;i1</title>
<path fill="none" stroke="black" d="M803.364,-291.998C770.04,-280.783 721.657,-264.5 685.129,-252.207"/>
<polygon fill="black" stroke="black" points="686.234,-248.886 675.64,-249.013 684.001,-255.52 686.234,-248.886"/>
</g>
<!-- k1 -->
<g id="node16" class="node"><title>k1</title>
<a xlink:href="0033279" xlink:title="GO:0033279">
<ellipse fill="#dddddd" stroke="#dddddd" cx="558" cy="-162" rx="61.1934" ry="18"/>
<text text-anchor="middle" x="558" y="-157.8" font-family="Times,serif" font-size="14.00">GO:0033279</text>
</a>
</g>
<!-- t0&#45;&gt;k1 -->
<g id="edge18" class="edge"><title>t0&#45;&gt;k1</title>
<path fill="none" stroke="black" d="M788.506,-297.091C706.324,-284.688 557.625,-261.134 550,-252 535.692,-234.861 539.999,-208.865 546.514,-189.387"/>
<polygon fill="black" stroke="black" points="549.845,-190.47 550.034,-179.877 543.28,-188.04 549.845,-190.47"/>
</g>
<!-- v0 -->
<g id="node29" class="node"><title>v0</title>
<a xlink:href="0005794" xlink:title="GO:0005794 (2)">
<ellipse fill="#e98576" stroke="#e98576" cx="1317" cy="-234" rx="75.2018" ry="18"/>
<text text-anchor="middle" x="1317" y="-229.8" font-family="Times,serif" font-size="14.00">GO:0005794 (2)</text>
</a>
</g>
<!-- t0&#45;&gt;v0 -->
<g id="edge28" class="edge"><title>t0&#45;&gt;v0</title>
<path fill="none" stroke="black" d="M897.857,-298.586C973.889,-289.592 1114.12,-272.065 1233,-252 1239.51,-250.902 1246.28,-249.674 1253.03,-248.395"/>
<polygon fill="black" stroke="black" points="1253.72,-251.826 1262.87,-246.492 1252.39,-244.954 1253.72,-251.826"/>
</g>
<!-- q1 -->
<g id="node34" class="node"><title>q1</title>
<a xlink:href="0005938" xlink:title="GO:0005938">
<ellipse fill="#dddddd" stroke="#dddddd" cx="789" cy="-234" rx="61.1934" ry="18"/>
<text text-anchor="middle" x="789" y="-229.8" font-family="Times,serif" font-size="14.00">GO:0005938</text>
</a>
</g>
<!-- t0&#45;&gt;q1 -->
<g id="edge110" class="edge"><title>t0&#45;&gt;q1</title>
<path fill="none" stroke="black" d="M829.17,-288.055C822.79,-279.629 814.955,-269.28 807.903,-259.966"/>
<polygon fill="black" stroke="black" points="810.539,-257.649 801.712,-251.789 804.958,-261.874 810.539,-257.649"/>
</g>
<!-- p1 -->
<g id="node36" class="node"><title>p1</title>
<a xlink:href="0044448" xlink:title="GO:0044448">
<ellipse fill="#dddddd" stroke="#dddddd" cx="878" cy="-162" rx="61.1934" ry="18"/>
<text text-anchor="middle" x="878" y="-157.8" font-family="Times,serif" font-size="14.00">GO:0044448</text>
</a>
</g>
<!-- t0&#45;&gt;p1 -->
<g id="edge34" class="edge"><title>t0&#45;&gt;p1</title>
<path fill="none" stroke="black" d="M847.951,-287.943C851.433,-277.616 855.766,-264.139 859,-252 864.456,-231.518 869.412,-208.062 872.893,-190.373"/>
<polygon fill="black" stroke="black" points="876.401,-190.665 874.861,-180.183 869.528,-189.337 876.401,-190.665"/>
</g>
<!-- e1 -->
<g id="node39" class="node"><title>e1</title>
<a xlink:href="0005773" xlink:title="GO:0005773 (1)">
<ellipse fill="#e98576" stroke="#e98576" cx="1485" cy="-234" rx="75.2018" ry="18"/>
<text text-anchor="middle" x="1485" y="-229.8" font-family="Times,serif" font-size="14.00">GO:0005773 (1)</text>
</a>
</g>
<!-- t0&#45;&gt;e1 -->
<g id="edge38" class="edge"><title>t0&#45;&gt;e1</title>
<path fill="none" stroke="black" d="M901.405,-301.428C1003.79,-294.812 1219.95,-278.827 1401,-252 1407.63,-251.018 1414.52,-249.856 1421.38,-248.607"/>
<polygon fill="black" stroke="black" points="1422.19,-252.016 1431.37,-246.727 1420.9,-245.136 1422.19,-252.016"/>
</g>
<!-- x1 -->
<g id="node50" class="node"><title>x1</title>
<a xlink:href="0005739" xlink:title="GO:0005739 (1)">
<ellipse fill="#e98576" stroke="#e98576" cx="981" cy="-234" rx="75.2018" ry="18"/>
<text text-anchor="middle" x="981" y="-229.8" font-family="Times,serif" font-size="14.00">GO:0005739 (1)</text>
</a>
</g>
<!-- t0&#45;&gt;x1 -->
<g id="edge48" class="edge"><title>t0&#45;&gt;x1</title>
<path fill="none" stroke="black" d="M871.478,-290.155C891.7,-279.971 918.779,-266.334 940.951,-255.168"/>
<polygon fill="black" stroke="black" points="942.762,-258.175 950.119,-250.552 939.613,-251.923 942.762,-258.175"/>
</g>
<!-- s0 -->
<g id="node99" class="node"><title>s0</title>
<a xlink:href="0005768" xlink:title="GO:0005768 (2)">
<ellipse fill="#e98576" stroke="#e98576" cx="1149" cy="-234" rx="75.2018" ry="18"/>
<text text-anchor="middle" x="1149" y="-229.8" font-family="Times,serif" font-size="14.00">GO:0005768 (2)</text>
</a>
</g>
<!-- t0&#45;&gt;s0 -->
<g id="edge114" class="edge"><title>t0&#45;&gt;s0</title>
<path fill="none" stroke="black" d="M888.961,-294.292C941.915,-282.218 1028.25,-262.533 1086.78,-249.187"/>
<polygon fill="black" stroke="black" points="1087.67,-252.573 1096.64,-246.938 1086.12,-245.748 1087.67,-252.573"/>
</g>
<!-- l0 -->
<g id="node10" class="node"><title>l0</title>
<a xlink:href="0016020" xlink:title="GO:0016020 (7)">
<ellipse fill="#e98576" stroke="#e98576" cx="188" cy="-378" rx="75.2018" ry="18"/>
<text text-anchor="middle" x="188" y="-373.8" font-family="Times,serif" font-size="14.00">GO:0016020 (7)</text>
</a>
</g>
<!-- l0&#45;&gt;v1 -->
<g id="edge10" class="edge"><title>l0&#45;&gt;v1</title>
<path fill="none" stroke="black" d="M159.499,-361.291C141.19,-351.199 117.236,-337.996 97.5348,-327.137"/>
<polygon fill="black" stroke="black" points="98.9812,-323.938 88.5339,-322.176 95.6022,-330.069 98.9812,-323.938"/>
</g>
<!-- w1 -->
<g id="node88" class="node"><title>w1</title>
<a xlink:href="0048475" xlink:title="GO:0048475">
<ellipse fill="#dddddd" stroke="#dddddd" cx="202" cy="-306" rx="61.1934" ry="18"/>
<text text-anchor="middle" x="202" y="-301.8" font-family="Times,serif" font-size="14.00">GO:0048475</text>
</a>
</g>
<!-- l0&#45;&gt;w1 -->
<g id="edge120" class="edge"><title>l0&#45;&gt;w1</title>
<path fill="none" stroke="black" d="M191.461,-359.697C193.003,-351.983 194.858,-342.712 196.578,-334.112"/>
<polygon fill="black" stroke="black" points="200.05,-334.597 198.579,-324.104 193.186,-333.224 200.05,-334.597"/>
</g>
<!-- i0 -->
<g id="node12" class="node"><title>i0</title>
<a xlink:href="0044464" xlink:title="GO:0044464">
<ellipse fill="#dddddd" stroke="#dddddd" cx="634" cy="-594" rx="61.1934" ry="18"/>
<text text-anchor="middle" x="634" y="-589.8" font-family="Times,serif" font-size="14.00">GO:0044464</text>
</a>
</g>
<!-- i0&#45;&gt;v1 -->
<g id="edge12" class="edge"><title>i0&#45;&gt;v1</title>
<path fill="none" stroke="black" d="M577.64,-586.67C471.654,-571.948 241.019,-526.132 104,-396 86.2806,-379.171 74.9689,-353.525 68.4192,-334.079"/>
<polygon fill="black" stroke="black" points="71.6773,-332.772 65.3396,-324.282 64.9995,-334.871 71.6773,-332.772"/>
</g>
<!-- i0&#45;&gt;l0 -->
<g id="edge80" class="edge"><title>i0&#45;&gt;l0</title>
<path fill="none" stroke="black" d="M603.345,-578.291C525.112,-540.753 317.991,-441.373 229.278,-398.806"/>
<polygon fill="black" stroke="black" points="230.594,-395.555 220.064,-394.385 227.566,-401.867 230.594,-395.555"/>
</g>
<!-- s1 -->
<g id="node31" class="node"><title>s1</title>
<a xlink:href="0042995" xlink:title="GO:0042995">
<ellipse fill="#dddddd" stroke="#dddddd" cx="634" cy="-522" rx="61.1934" ry="18"/>
<text text-anchor="middle" x="634" y="-517.8" font-family="Times,serif" font-size="14.00">GO:0042995</text>
</a>
</g>
<!-- i0&#45;&gt;s1 -->
<g id="edge104" class="edge"><title>i0&#45;&gt;s1</title>
<path fill="none" stroke="black" d="M634,-575.697C634,-567.983 634,-558.712 634,-550.112"/>
<polygon fill="black" stroke="black" points="637.5,-550.104 634,-540.104 630.5,-550.104 637.5,-550.104"/>
</g>
<!-- g0 -->
<g id="node41" class="node"><title>g0</title>
<a xlink:href="0044424" xlink:title="GO:0044424">
<ellipse fill="#dddddd" stroke="#dddddd" cx="882" cy="-450" rx="61.1934" ry="18"/>
<text text-anchor="middle" x="882" y="-445.8" font-family="Times,serif" font-size="14.00">GO:0044424</text>
</a>
</g>
<!-- i0&#45;&gt;g0 -->
<g id="edge62" class="edge"><title>i0&#45;&gt;g0</title>
<path fill="none" stroke="black" d="M693.947,-590.05C766.242,-585.092 881.404,-572.233 908,-540 922.858,-521.992 912.536,-495.824 900.796,-476.52"/>
<polygon fill="black" stroke="black" points="903.592,-474.4 895.206,-467.925 897.724,-478.216 903.592,-474.4"/>
</g>
<!-- h0 -->
<g id="node61" class="node"><title>h0</title>
<a xlink:href="0005622" xlink:title="GO:0005622">
<ellipse fill="#dddddd" stroke="#dddddd" cx="838" cy="-522" rx="61.1934" ry="18"/>
<text text-anchor="middle" x="838" y="-517.8" font-family="Times,serif" font-size="14.00">GO:0005622</text>
</a>
</g>
<!-- i0&#45;&gt;h0 -->
<g id="edge150" class="edge"><title>i0&#45;&gt;h0</title>
<path fill="none" stroke="black" d="M672.371,-579.834C705.708,-568.394 754.145,-551.774 790.034,-539.459"/>
<polygon fill="black" stroke="black" points="791.479,-542.664 799.801,-536.107 789.207,-536.043 791.479,-542.664"/>
</g>
<!-- i1&#45;&gt;k1 -->
<g id="edge14" class="edge"><title>i1&#45;&gt;k1</title>
<path fill="none" stroke="black" d="M615.989,-216.411C606.24,-207.432 594.038,-196.193 583.345,-186.344"/>
<polygon fill="black" stroke="black" points="585.608,-183.67 575.882,-179.47 580.866,-188.819 585.608,-183.67"/>
</g>
<!-- k1&#45;&gt;j1 -->
<g id="edge140" class="edge"><title>k1&#45;&gt;j1</title>
<path fill="none" stroke="black" d="M542.833,-144.411C534.899,-135.734 525.036,-124.946 516.255,-115.342"/>
<polygon fill="black" stroke="black" points="518.834,-112.975 509.503,-107.956 513.667,-117.698 518.834,-112.975"/>
</g>
<!-- p0 -->
<g id="node17" class="node"><title>p0</title>
<a xlink:href="0030529" xlink:title="GO:0030529 (3)">
<ellipse fill="#e98576" stroke="#e98576" cx="634" cy="-306" rx="75.2018" ry="18"/>
<text text-anchor="middle" x="634" y="-301.8" font-family="Times,serif" font-size="14.00">GO:0030529 (3)</text>
</a>
</g>
<!-- p0&#45;&gt;i1 -->
<g id="edge86" class="edge"><title>p0&#45;&gt;i1</title>
<path fill="none" stroke="black" d="M634,-287.697C634,-279.983 634,-270.712 634,-262.112"/>
<polygon fill="black" stroke="black" points="637.5,-262.104 634,-252.104 630.5,-262.104 637.5,-262.104"/>
</g>
<!-- p0&#45;&gt;k1 -->
<g id="edge16" class="edge"><title>p0&#45;&gt;k1</title>
<path fill="none" stroke="black" d="M578.352,-293.789C555.268,-286.099 530.716,-273.271 517,-252 503.669,-231.326 518.479,-205.611 533.893,-187.147"/>
<polygon fill="black" stroke="black" points="536.683,-189.275 540.686,-179.466 531.439,-184.638 536.683,-189.275"/>
</g>
<!-- d1 -->
<g id="node20" class="node"><title>d1</title>
<a xlink:href="0044446" xlink:title="GO:0044446">
<ellipse fill="#dddddd" stroke="#dddddd" cx="1522" cy="-306" rx="61.1934" ry="18"/>
<text text-anchor="middle" x="1522" y="-301.8" font-family="Times,serif" font-size="14.00">GO:0044446</text>
</a>
</g>
<!-- d1&#45;&gt;k1 -->
<g id="edge20" class="edge"><title>d1&#45;&gt;k1</title>
<path fill="none" stroke="black" d="M1541.29,-288.894C1562.05,-269.689 1589.5,-237.495 1569,-216 1539.79,-185.373 850.255,-182.436 808,-180 746.646,-176.463 676.878,-171.653 626.664,-168.052"/>
<polygon fill="black" stroke="black" points="626.799,-164.553 616.574,-167.326 626.297,-171.535 626.799,-164.553"/>
</g>
<!-- c1 -->
<g id="node25" class="node"><title>c1</title>
<a xlink:href="0044428" xlink:title="GO:0044428">
<ellipse fill="#dddddd" stroke="#dddddd" cx="2014" cy="-162" rx="61.1934" ry="18"/>
<text text-anchor="middle" x="2014" y="-157.8" font-family="Times,serif" font-size="14.00">GO:0044428</text>
</a>
</g>
<!-- d1&#45;&gt;c1 -->
<g id="edge84" class="edge"><title>d1&#45;&gt;c1</title>
<path fill="none" stroke="black" d="M1576.9,-297.968C1601.67,-294.839 1631.3,-291.157 1658,-288 1729.72,-279.521 1924.09,-296.472 1981,-252 1999.91,-237.224 2007.98,-210.461 2011.43,-190.129"/>
<polygon fill="black" stroke="black" points="2014.9,-190.574 2012.85,-180.181 2007.97,-189.589 2014.9,-190.574"/>
</g>
<!-- o1 -->
<g id="node68" class="node"><title>o1</title>
<a xlink:href="0044430" xlink:title="GO:0044430">
<ellipse fill="#dddddd" stroke="#dddddd" cx="1588" cy="-162" rx="61.1934" ry="18"/>
<text text-anchor="middle" x="1588" y="-157.8" font-family="Times,serif" font-size="14.00">GO:0044430</text>
</a>
</g>
<!-- d1&#45;&gt;o1 -->
<g id="edge108" class="edge"><title>d1&#45;&gt;o1</title>
<path fill="none" stroke="black" d="M1557.32,-291.145C1574.07,-282.572 1592.46,-269.76 1602,-252 1612.35,-232.727 1607.21,-207.948 1600.42,-189.432"/>
<polygon fill="black" stroke="black" points="1603.66,-188.096 1596.68,-180.124 1597.16,-190.707 1603.66,-188.096"/>
</g>
<!-- z0 -->
<g id="node22" class="node"><title>z0</title>
<a xlink:href="0043233" xlink:title="GO:0043233">
<ellipse fill="#dddddd" stroke="#dddddd" cx="2026" cy="-306" rx="61.1934" ry="18"/>
<text text-anchor="middle" x="2026" y="-301.8" font-family="Times,serif" font-size="14.00">GO:0043233</text>
</a>
</g>
<!-- y0 -->
<g id="node24" class="node"><title>y0</title>
<a xlink:href="0031981" xlink:title="GO:0031981">
<ellipse fill="#dddddd" stroke="#dddddd" cx="2113" cy="-90" rx="61.1934" ry="18"/>
<text text-anchor="middle" x="2113" y="-85.8" font-family="Times,serif" font-size="14.00">GO:0031981</text>
</a>
</g>
<!-- z0&#45;&gt;y0 -->
<g id="edge22" class="edge"><title>z0&#45;&gt;y0</title>
<path fill="none" stroke="black" d="M2085.9,-302.011C2121.5,-296.774 2164.06,-283.708 2187,-252 2218.97,-207.816 2171.17,-147.615 2138.75,-114.771"/>
<polygon fill="black" stroke="black" points="2140.88,-111.952 2131.3,-107.422 2135.96,-116.936 2140.88,-111.952"/>
</g>
<!-- x0 -->
<g id="node53" class="node"><title>x0</title>
<a xlink:href="0005730" xlink:title="GO:0005730 (2)">
<ellipse fill="#e98576" stroke="#e98576" cx="2113" cy="-18" rx="75.2018" ry="18"/>
<text text-anchor="middle" x="2113" y="-13.8" font-family="Times,serif" font-size="14.00">GO:0005730 (2)</text>
</a>
</g>
<!-- y0&#45;&gt;x0 -->
<g id="edge50" class="edge"><title>y0&#45;&gt;x0</title>
<path fill="none" stroke="black" d="M2113,-71.6966C2113,-63.9827 2113,-54.7125 2113,-46.1124"/>
<polygon fill="black" stroke="black" points="2116.5,-46.1043 2113,-36.1043 2109.5,-46.1044 2116.5,-46.1043"/>
</g>
<!-- c1&#45;&gt;y0 -->
<g id="edge24" class="edge"><title>c1&#45;&gt;y0</title>
<path fill="none" stroke="black" d="M2036.46,-145.116C2050.01,-135.539 2067.45,-123.209 2082.26,-112.737"/>
<polygon fill="black" stroke="black" points="2084.48,-115.452 2090.62,-106.821 2080.44,-109.737 2084.48,-115.452"/>
</g>
<!-- c1&#45;&gt;x0 -->
<g id="edge54" class="edge"><title>c1&#45;&gt;x0</title>
<path fill="none" stroke="black" d="M2016.43,-143.882C2019.8,-124.872 2027.35,-93.9734 2043,-72 2051.75,-59.7109 2064.2,-49.002 2076.18,-40.4882"/>
<polygon fill="black" stroke="black" points="2078.44,-43.1874 2084.76,-34.6857 2074.51,-37.3891 2078.44,-43.1874"/>
</g>
<!-- b0 -->
<g id="node27" class="node"><title>b0</title>
<a xlink:href="0043231" xlink:title="GO:0043231">
<ellipse fill="#dddddd" stroke="#dddddd" cx="1303" cy="-306" rx="61.1934" ry="18"/>
<text text-anchor="middle" x="1303" y="-301.8" font-family="Times,serif" font-size="14.00">GO:0043231</text>
</a>
</g>
<!-- b0&#45;&gt;v0 -->
<g id="edge26" class="edge"><title>b0&#45;&gt;v0</title>
<path fill="none" stroke="black" d="M1306.46,-287.697C1308,-279.983 1309.86,-270.712 1311.58,-262.112"/>
<polygon fill="black" stroke="black" points="1315.05,-262.597 1313.58,-252.104 1308.19,-261.224 1315.05,-262.597"/>
</g>
<!-- b0&#45;&gt;e1 -->
<g id="edge36" class="edge"><title>b0&#45;&gt;e1</title>
<path fill="none" stroke="black" d="M1338.52,-291.337C1366.71,-280.495 1406.39,-265.235 1437.34,-253.331"/>
<polygon fill="black" stroke="black" points="1438.98,-256.45 1447.06,-249.594 1436.47,-249.917 1438.98,-256.45"/>
</g>
<!-- b0&#45;&gt;x1 -->
<g id="edge46" class="edge"><title>b0&#45;&gt;x1</title>
<path fill="none" stroke="black" d="M1255.14,-294.596C1199.21,-282.438 1106.46,-262.273 1044.54,-248.812"/>
<polygon fill="black" stroke="black" points="1045.01,-245.333 1034.49,-246.629 1043.52,-252.174 1045.01,-245.333"/>
</g>
<!-- a0 -->
<g id="node78" class="node"><title>a0</title>
<a xlink:href="0005634" xlink:title="GO:0005634 (8)">
<ellipse fill="#e98576" stroke="#e98576" cx="1897" cy="-234" rx="75.2018" ry="18"/>
<text text-anchor="middle" x="1897" y="-229.8" font-family="Times,serif" font-size="14.00">GO:0005634 (8)</text>
</a>
</g>
<!-- b0&#45;&gt;a0 -->
<g id="edge166" class="edge"><title>b0&#45;&gt;a0</title>
<path fill="none" stroke="black" d="M1358.88,-298.435C1386.83,-295.198 1421.19,-291.293 1452,-288 1612.33,-270.861 1653.56,-276.022 1813,-252 1819.62,-251.002 1826.51,-249.83 1833.37,-248.575"/>
<polygon fill="black" stroke="black" points="1834.19,-251.982 1843.37,-246.688 1832.89,-245.104 1834.19,-251.982"/>
</g>
<!-- b0&#45;&gt;s0 -->
<g id="edge112" class="edge"><title>b0&#45;&gt;s0</title>
<path fill="none" stroke="black" d="M1271.09,-290.496C1248.12,-280.056 1216.89,-265.86 1191.77,-254.439"/>
<polygon fill="black" stroke="black" points="1193.02,-251.164 1182.47,-250.212 1190.12,-257.536 1193.02,-251.164"/>
</g>
<!-- r1 -->
<g id="node33" class="node"><title>r1</title>
<a xlink:href="0043005" xlink:title="GO:0043005 (1)">
<ellipse fill="#e98576" stroke="#e98576" cx="634" cy="-450" rx="75.2018" ry="18"/>
<text text-anchor="middle" x="634" y="-445.8" font-family="Times,serif" font-size="14.00">GO:0043005 (1)</text>
</a>
</g>
<!-- s1&#45;&gt;r1 -->
<g id="edge30" class="edge"><title>s1&#45;&gt;r1</title>
<path fill="none" stroke="black" d="M634,-503.697C634,-495.983 634,-486.712 634,-478.112"/>
<polygon fill="black" stroke="black" points="637.5,-478.104 634,-468.104 630.5,-478.104 637.5,-478.104"/>
</g>
<!-- q1&#45;&gt;p1 -->
<g id="edge32" class="edge"><title>q1&#45;&gt;p1</title>
<path fill="none" stroke="black" d="M809.642,-216.765C821.437,-207.488 836.406,-195.714 849.328,-185.551"/>
<polygon fill="black" stroke="black" points="851.773,-188.081 857.47,-179.147 847.446,-182.578 851.773,-188.081"/>
</g>
<!-- p1&#45;&gt;m1 -->
<g id="edge70" class="edge"><title>p1&#45;&gt;m1</title>
<path fill="none" stroke="black" d="M927.361,-151.267C989.827,-138.95 1097.63,-117.693 1167.08,-103.998"/>
<polygon fill="black" stroke="black" points="1167.91,-107.402 1177.04,-102.034 1166.55,-100.535 1167.91,-107.402"/>
</g>
<!-- g0&#45;&gt;t0 -->
<g id="edge76" class="edge"><title>g0&#45;&gt;t0</title>
<path fill="none" stroke="black" d="M868.751,-432.385C861.584,-422.43 853.334,-409.18 849,-396 842.434,-376.032 840.86,-352.242 840.832,-334.285"/>
<polygon fill="black" stroke="black" points="844.333,-334.25 840.976,-324.201 837.334,-334.15 844.333,-334.25"/>
</g>
<!-- g0&#45;&gt;p0 -->
<g id="edge176" class="edge"><title>g0&#45;&gt;p0</title>
<path fill="none" stroke="black" d="M854.988,-433.533C810.314,-407.954 720.989,-356.808 670.66,-327.991"/>
<polygon fill="black" stroke="black" points="672.153,-324.813 661.736,-322.881 668.675,-330.888 672.153,-324.813"/>
</g>
<!-- g0&#45;&gt;d1 -->
<g id="edge172" class="edge"><title>g0&#45;&gt;d1</title>
<path fill="none" stroke="black" d="M943.07,-448.333C1005.87,-445.387 1104.97,-434.324 1181,-396 1201.77,-385.528 1198.21,-370.448 1219,-360 1259.41,-339.686 1379.01,-323.05 1455.3,-314.119"/>
<polygon fill="black" stroke="black" points="1455.78,-317.587 1465.31,-312.963 1454.97,-310.634 1455.78,-317.587"/>
</g>
<!-- k0 -->
<g id="node43" class="node"><title>k0</title>
<a xlink:href="0005737" xlink:title="GO:0005737 (7)">
<ellipse fill="#e98576" stroke="#e98576" cx="933" cy="-378" rx="75.2018" ry="18"/>
<text text-anchor="middle" x="933" y="-373.8" font-family="Times,serif" font-size="14.00">GO:0005737 (7)</text>
</a>
</g>
<!-- g0&#45;&gt;k0 -->
<g id="edge40" class="edge"><title>g0&#45;&gt;k0</title>
<path fill="none" stroke="black" d="M894.346,-432.055C900.485,-423.629 908.025,-413.28 914.81,-403.966"/>
<polygon fill="black" stroke="black" points="917.708,-405.932 920.768,-395.789 912.051,-401.81 917.708,-405.932"/>
</g>
<!-- f0 -->
<g id="node92" class="node"><title>f0</title>
<a xlink:href="0043229" xlink:title="GO:0043229 (2)">
<ellipse fill="#e98576" stroke="#e98576" cx="1303" cy="-378" rx="75.2018" ry="18"/>
<text text-anchor="middle" x="1303" y="-373.8" font-family="Times,serif" font-size="14.00">GO:0043229 (2)</text>
</a>
</g>
<!-- g0&#45;&gt;f0 -->
<g id="edge126" class="edge"><title>g0&#45;&gt;f0</title>
<path fill="none" stroke="black" d="M935.271,-441.007C1000.92,-431.039 1115.83,-413.207 1214,-396 1221.33,-394.716 1228.98,-393.326 1236.6,-391.914"/>
<polygon fill="black" stroke="black" points="1237.36,-395.331 1246.55,-390.051 1236.08,-388.45 1237.36,-395.331"/>
</g>
<!-- g0&#45;&gt;l1 -->
<g id="edge118" class="edge"><title>g0&#45;&gt;l1</title>
<path fill="none" stroke="black" d="M826.805,-442.123C749.057,-432.041 611.472,-412.638 564,-396 440.073,-352.565 372.483,-365.245 306,-252 294.557,-232.508 302.579,-207.255 311.992,-188.63"/>
<polygon fill="black" stroke="black" points="315.082,-190.273 316.795,-179.817 308.936,-186.923 315.082,-190.273"/>
</g>
<!-- k0&#45;&gt;t0 -->
<g id="edge74" class="edge"><title>k0&#45;&gt;t0</title>
<path fill="none" stroke="black" d="M911.434,-360.411C899.362,-351.125 884.148,-339.421 871.04,-329.338"/>
<polygon fill="black" stroke="black" points="872.845,-326.311 862.785,-322.988 868.577,-331.859 872.845,-326.311"/>
</g>
<!-- e0 -->
<g id="node44" class="node"><title>e0</title>
<a xlink:href="0005575" xlink:title="GO:0005575 (2)">
<ellipse fill="#e98576" stroke="#e98576" cx="1451" cy="-738" rx="75.2018" ry="18"/>
<text text-anchor="middle" x="1451" y="-733.8" font-family="Times,serif" font-size="14.00">GO:0005575 (2)</text>
</a>
</g>
<!-- e0&#45;&gt;i0 -->
<g id="edge144" class="edge"><title>e0&#45;&gt;i0</title>
<path fill="none" stroke="black" d="M1375.82,-737.438C1216.25,-737.403 848.964,-731.929 735,-684 730.446,-682.085 687.839,-643.866 659.438,-618.141"/>
<polygon fill="black" stroke="black" points="661.606,-615.382 651.848,-611.257 656.904,-620.567 661.606,-615.382"/>
</g>
<!-- b1 -->
<g id="node46" class="node"><title>b1</title>
<a xlink:href="0044422" xlink:title="GO:0044422">
<ellipse fill="#dddddd" stroke="#dddddd" cx="1458" cy="-378" rx="61.1934" ry="18"/>
<text text-anchor="middle" x="1458" y="-373.8" font-family="Times,serif" font-size="14.00">GO:0044422</text>
</a>
</g>
<!-- e0&#45;&gt;b1 -->
<g id="edge42" class="edge"><title>e0&#45;&gt;b1</title>
<path fill="none" stroke="black" d="M1443.31,-719.907C1432.21,-693.623 1413,-641.447 1413,-595 1413,-595 1413,-595 1413,-521 1413,-480.553 1418.77,-470.222 1432,-432 1435.12,-422.993 1439.4,-413.535 1443.59,-405.143"/>
<polygon fill="black" stroke="black" points="1446.73,-406.692 1448.22,-396.202 1440.51,-403.476 1446.73,-406.692"/>
</g>
<!-- d0 -->
<g id="node47" class="node"><title>d0</title>
<a xlink:href="0043226" xlink:title="GO:0043226">
<ellipse fill="#dddddd" stroke="#dddddd" cx="1502" cy="-450" rx="61.1934" ry="18"/>
<text text-anchor="middle" x="1502" y="-445.8" font-family="Times,serif" font-size="14.00">GO:0043226</text>
</a>
</g>
<!-- e0&#45;&gt;d0 -->
<g id="edge128" class="edge"><title>e0&#45;&gt;d0</title>
<path fill="none" stroke="black" d="M1452.26,-719.967C1454.61,-690.464 1460.32,-628.02 1470,-576 1476.35,-541.892 1486.73,-503.303 1493.94,-478.139"/>
<polygon fill="black" stroke="black" points="1497.39,-478.807 1496.81,-468.228 1490.66,-476.857 1497.39,-478.807"/>
</g>
<!-- j0 -->
<g id="node58" class="node"><title>j0</title>
<a xlink:href="0005623" xlink:title="GO:0005623">
<ellipse fill="#dddddd" stroke="#dddddd" cx="622" cy="-666" rx="61.1934" ry="18"/>
<text text-anchor="middle" x="622" y="-661.8" font-family="Times,serif" font-size="14.00">GO:0005623</text>
</a>
</g>
<!-- e0&#45;&gt;j0 -->
<g id="edge56" class="edge"><title>e0&#45;&gt;j0</title>
<path fill="none" stroke="black" d="M1376.48,-735.528C1240.69,-732.012 944.144,-720.477 697,-684 690.433,-683.031 683.588,-681.797 676.821,-680.437"/>
<polygon fill="black" stroke="black" points="677.509,-677.006 667.002,-678.372 676.068,-683.856 677.509,-677.006"/>
</g>
<!-- h1 -->
<g id="node72" class="node"><title>h1</title>
<a xlink:href="0005576" xlink:title="GO:0005576">
<ellipse fill="#dddddd" stroke="#dddddd" cx="1616" cy="-666" rx="61.1934" ry="18"/>
<text text-anchor="middle" x="1616" y="-661.8" font-family="Times,serif" font-size="14.00">GO:0005576</text>
</a>
</g>
<!-- e0&#45;&gt;h1 -->
<g id="edge72" class="edge"><title>e0&#45;&gt;h1</title>
<path fill="none" stroke="black" d="M1486.4,-721.983C1511.89,-711.167 1546.42,-696.521 1573.42,-685.064"/>
<polygon fill="black" stroke="black" points="1574.79,-688.284 1582.63,-681.157 1572.06,-681.84 1574.79,-688.284"/>
</g>
<!-- a1 -->
<g id="node106" class="node"><title>a1</title>
<a xlink:href="0031974" xlink:title="GO:0031974">
<ellipse fill="#dddddd" stroke="#dddddd" cx="1540" cy="-594" rx="61.1934" ry="18"/>
<text text-anchor="middle" x="1540" y="-589.8" font-family="Times,serif" font-size="14.00">GO:0031974</text>
</a>
</g>
<!-- e0&#45;&gt;a1 -->
<g id="edge122" class="edge"><title>e0&#45;&gt;a1</title>
<path fill="none" stroke="black" d="M1461.56,-720.153C1477.02,-695.493 1505.92,-649.374 1524,-620.533"/>
<polygon fill="black" stroke="black" points="1527.11,-622.157 1529.45,-611.825 1521.18,-618.439 1527.11,-622.157"/>
</g>
<!-- g1 -->
<g id="node115" class="node"><title>g1</title>
<a xlink:href="0044421" xlink:title="GO:0044421">
<ellipse fill="#dddddd" stroke="#dddddd" cx="1681" cy="-594" rx="61.1934" ry="18"/>
<text text-anchor="middle" x="1681" y="-589.8" font-family="Times,serif" font-size="14.00">GO:0044421</text>
</a>
</g>
<!-- e0&#45;&gt;g1 -->
<g id="edge162" class="edge"><title>e0&#45;&gt;g1</title>
<path fill="none" stroke="black" d="M1469.42,-720.436C1480.89,-710.058 1495.9,-696.352 1509,-684 1525.69,-668.259 1526.72,-660.437 1546,-648 1571.33,-631.661 1602.49,-619.014 1628.49,-610.178"/>
<polygon fill="black" stroke="black" points="1629.78,-613.438 1638.18,-606.979 1627.58,-606.791 1629.78,-613.438"/>
</g>
<!-- q0 -->
<g id="node128" class="node"><title>q0</title>
<a xlink:href="0032991" xlink:title="GO:0032991">
<ellipse fill="#dddddd" stroke="#dddddd" cx="634" cy="-378" rx="61.1934" ry="18"/>
<text text-anchor="middle" x="634" y="-373.8" font-family="Times,serif" font-size="14.00">GO:0032991</text>
</a>
</g>
<!-- e0&#45;&gt;q0 -->
<g id="edge156" class="edge"><title>e0&#45;&gt;q0</title>
<path fill="none" stroke="black" d="M1375.87,-737.502C1194.78,-736.696 749,-721.83 749,-595 749,-595 749,-595 749,-521 749,-479.114 744.062,-464.791 718,-432 706.894,-418.026 691.035,-406.687 676.083,-398.138"/>
<polygon fill="black" stroke="black" points="677.399,-394.87 666.941,-393.176 674.06,-401.022 677.399,-394.87"/>
</g>
<!-- r0 -->
<g id="node131" class="node"><title>r0</title>
<a xlink:href="0045202" xlink:title="GO:0045202 (2)">
<ellipse fill="#e98576" stroke="#e98576" cx="1771" cy="-666" rx="75.2018" ry="18"/>
<text text-anchor="middle" x="1771" y="-661.8" font-family="Times,serif" font-size="14.00">GO:0045202 (2)</text>
</a>
</g>
<!-- e0&#45;&gt;r0 -->
<g id="edge160" class="edge"><title>e0&#45;&gt;r0</title>
<path fill="none" stroke="black" d="M1504.56,-725.284C1560.48,-713.05 1648.16,-693.872 1707.52,-680.885"/>
<polygon fill="black" stroke="black" points="1708.51,-684.252 1717.53,-678.696 1707.01,-677.414 1708.51,-684.252"/>
</g>
<!-- b1&#45;&gt;d1 -->
<g id="edge170" class="edge"><title>b1&#45;&gt;d1</title>
<path fill="none" stroke="black" d="M1473.17,-360.411C1481.22,-351.606 1491.25,-340.628 1500.13,-330.919"/>
<polygon fill="black" stroke="black" points="1502.78,-333.212 1506.94,-323.47 1497.61,-328.489 1502.78,-333.212"/>
</g>
<!-- b1&#45;&gt;z0 -->
<g id="edge134" class="edge"><title>b1&#45;&gt;z0</title>
<path fill="none" stroke="black" d="M1502.13,-365.504C1510.99,-363.46 1520.26,-361.507 1529,-360 1609.73,-346.091 1841.71,-323.87 1957.93,-313.163"/>
<polygon fill="black" stroke="black" points="1958.49,-316.626 1968.13,-312.226 1957.85,-309.656 1958.49,-316.626"/>
</g>
<!-- d0&#45;&gt;b1 -->
<g id="edge44" class="edge"><title>d0&#45;&gt;b1</title>
<path fill="none" stroke="black" d="M1491.35,-432.055C1486.16,-423.801 1479.81,-413.701 1474.05,-404.538"/>
<polygon fill="black" stroke="black" points="1476.84,-402.393 1468.55,-395.789 1470.91,-406.118 1476.84,-402.393"/>
</g>
<!-- w0 -->
<g id="node60" class="node"><title>w0</title>
<a xlink:href="0031982" xlink:title="GO:0031982 (2)">
<ellipse fill="#e98576" stroke="#e98576" cx="1613" cy="-378" rx="75.2018" ry="18"/>
<text text-anchor="middle" x="1613" y="-373.8" font-family="Times,serif" font-size="14.00">GO:0031982 (2)</text>
</a>
</g>
<!-- d0&#45;&gt;w0 -->
<g id="edge58" class="edge"><title>d0&#45;&gt;w0</title>
<path fill="none" stroke="black" d="M1526.63,-433.465C1542.08,-423.724 1562.2,-411.033 1579.14,-400.353"/>
<polygon fill="black" stroke="black" points="1581.07,-403.272 1587.66,-394.977 1577.34,-397.351 1581.07,-403.272"/>
</g>
<!-- o0 -->
<g id="node90" class="node"><title>o0</title>
<a xlink:href="0043228" xlink:title="GO:0043228">
<ellipse fill="#dddddd" stroke="#dddddd" cx="1768" cy="-378" rx="61.1934" ry="18"/>
<text text-anchor="middle" x="1768" y="-373.8" font-family="Times,serif" font-size="14.00">GO:0043228</text>
</a>
</g>
<!-- d0&#45;&gt;o0 -->
<g id="edge158" class="edge"><title>d0&#45;&gt;o0</title>
<path fill="none" stroke="black" d="M1545.92,-437.441C1592.03,-425.307 1664.58,-406.217 1714.12,-393.18"/>
<polygon fill="black" stroke="black" points="1715.23,-396.506 1724.01,-390.576 1713.45,-389.736 1715.23,-396.506"/>
</g>
<!-- d0&#45;&gt;f0 -->
<g id="edge124" class="edge"><title>d0&#45;&gt;f0</title>
<path fill="none" stroke="black" d="M1464.1,-435.669C1432.69,-424.621 1387.79,-408.824 1353.36,-396.714"/>
<polygon fill="black" stroke="black" points="1354.09,-393.261 1343.49,-393.244 1351.77,-399.864 1354.09,-393.261"/>
</g>
<!-- f1 -->
<g id="node114" class="node"><title>f1</title>
<a xlink:href="0043230" xlink:title="GO:0043230 (1)">
<ellipse fill="#e98576" stroke="#e98576" cx="1923" cy="-378" rx="75.2018" ry="18"/>
<text text-anchor="middle" x="1923" y="-373.8" font-family="Times,serif" font-size="14.00">GO:0043230 (1)</text>
</a>
</g>
<!-- d0&#45;&gt;f1 -->
<g id="edge136" class="edge"><title>d0&#45;&gt;f1</title>
<path fill="none" stroke="black" d="M1555.65,-441.229C1622.07,-431.45 1738.59,-413.773 1838,-396 1844.57,-394.825 1851.41,-393.548 1858.24,-392.238"/>
<polygon fill="black" stroke="black" points="1859.04,-395.647 1868.19,-390.304 1857.71,-388.775 1859.04,-395.647"/>
</g>
<!-- c0 -->
<g id="node123" class="node"><title>c0</title>
<a xlink:href="0043227" xlink:title="GO:0043227">
<ellipse fill="#dddddd" stroke="#dddddd" cx="1111" cy="-378" rx="61.1934" ry="18"/>
<text text-anchor="middle" x="1111" y="-373.8" font-family="Times,serif" font-size="14.00">GO:0043227</text>
</a>
</g>
<!-- d0&#45;&gt;c0 -->
<g id="edge148" class="edge"><title>d0&#45;&gt;c0</title>
<path fill="none" stroke="black" d="M1450.88,-439.849C1379.07,-426.992 1248.53,-403.621 1171.82,-389.888"/>
<polygon fill="black" stroke="black" points="1172.28,-386.415 1161.82,-388.098 1171.05,-393.306 1172.28,-386.415"/>
</g>
<!-- n0 -->
<g id="node54" class="node"><title>n0</title>
<a xlink:href="0043232" xlink:title="GO:0043232 (1)">
<ellipse fill="#e98576" stroke="#e98576" cx="1742" cy="-306" rx="75.2018" ry="18"/>
<text text-anchor="middle" x="1742" y="-301.8" font-family="Times,serif" font-size="14.00">GO:0043232 (1)</text>
</a>
</g>
<!-- n0&#45;&gt;i1 -->
<g id="edge88" class="edge"><title>n0&#45;&gt;i1</title>
<path fill="none" stroke="black" d="M1677.49,-296.664C1651.04,-293.513 1620.09,-290.168 1592,-288 1204.82,-258.115 1104.57,-298.22 719,-252 711.809,-251.138 704.318,-249.999 696.893,-248.718"/>
<polygon fill="black" stroke="black" points="697.309,-245.237 686.845,-246.896 696.06,-252.124 697.309,-245.237"/>
</g>
<!-- n0&#45;&gt;x0 -->
<g id="edge52" class="edge"><title>n0&#45;&gt;x0</title>
<path fill="none" stroke="black" d="M1811.59,-299.129C1933.66,-288.497 2174.68,-265.872 2187,-252 2207.48,-228.94 2259.16,-220.001 2183,-72 2176.32,-59.0211 2164.84,-48.3362 2153.09,-40.0452"/>
<polygon fill="black" stroke="black" points="2154.83,-37 2144.55,-34.4325 2150.99,-42.8497 2154.83,-37"/>
</g>
<!-- m0 -->
<g id="node75" class="node"><title>m0</title>
<a xlink:href="0005856" xlink:title="GO:0005856 (3)">
<ellipse fill="#e98576" stroke="#e98576" cx="1729" cy="-234" rx="75.2018" ry="18"/>
<text text-anchor="middle" x="1729" y="-229.8" font-family="Times,serif" font-size="14.00">GO:0005856 (3)</text>
</a>
</g>
<!-- n0&#45;&gt;m0 -->
<g id="edge130" class="edge"><title>n0&#45;&gt;m0</title>
<path fill="none" stroke="black" d="M1738.79,-287.697C1737.35,-279.983 1735.63,-270.712 1734.04,-262.112"/>
<polygon fill="black" stroke="black" points="1737.44,-261.297 1732.18,-252.104 1730.56,-262.575 1737.44,-261.297"/>
</g>
<!-- y1 -->
<g id="node85" class="node"><title>y1</title>
<a xlink:href="0005694" xlink:title="GO:0005694 (1)">
<ellipse fill="#e98576" stroke="#e98576" cx="2103" cy="-234" rx="75.2018" ry="18"/>
<text text-anchor="middle" x="2103" y="-229.8" font-family="Times,serif" font-size="14.00">GO:0005694 (1)</text>
</a>
</g>
<!-- n0&#45;&gt;y1 -->
<g id="edge92" class="edge"><title>n0&#45;&gt;y1</title>
<path fill="none" stroke="black" d="M1798.41,-294.062C1862.82,-281.572 1968.1,-261.158 2036.47,-247.901"/>
<polygon fill="black" stroke="black" points="2037.54,-251.258 2046.69,-245.918 2036.21,-244.386 2037.54,-251.258"/>
</g>
<!-- j0&#45;&gt;i0 -->
<g id="edge146" class="edge"><title>j0&#45;&gt;i0</title>
<path fill="none" stroke="black" d="M624.966,-647.697C626.289,-639.983 627.878,-630.712 629.352,-622.112"/>
<polygon fill="black" stroke="black" points="632.828,-622.552 631.068,-612.104 625.928,-621.369 632.828,-622.552"/>
</g>
<!-- h0&#45;&gt;g0 -->
<g id="edge60" class="edge"><title>h0&#45;&gt;g0</title>
<path fill="none" stroke="black" d="M848.651,-504.055C853.84,-495.801 860.188,-485.701 865.948,-476.538"/>
<polygon fill="black" stroke="black" points="869.088,-478.118 871.447,-467.789 863.162,-474.393 869.088,-478.118"/>
</g>
<!-- n1 -->
<g id="node64" class="node"><title>n1</title>
<a xlink:href="0032156" xlink:title="GO:0032156">
<ellipse fill="#dddddd" stroke="#dddddd" cx="1729" cy="-162" rx="61.1934" ry="18"/>
<text text-anchor="middle" x="1729" y="-157.8" font-family="Times,serif" font-size="14.00">GO:0032156</text>
</a>
</g>
<!-- n1&#45;&gt;m1 -->
<g id="edge64" class="edge"><title>n1&#45;&gt;m1</title>
<path fill="none" stroke="black" d="M1684.47,-149.539C1675.73,-147.517 1666.61,-145.562 1658,-144 1538.13,-122.245 1397.62,-106.628 1311.98,-98.2025"/>
<polygon fill="black" stroke="black" points="1312.1,-94.6983 1301.81,-97.2108 1311.42,-101.665 1312.1,-94.6983"/>
</g>
<!-- o1&#45;&gt;m1 -->
<g id="edge68" class="edge"><title>o1&#45;&gt;m1</title>
<path fill="none" stroke="black" d="M1538.64,-151.267C1476.17,-138.95 1368.37,-117.693 1298.92,-103.998"/>
<polygon fill="black" stroke="black" points="1299.45,-100.535 1288.96,-102.034 1298.09,-107.402 1299.45,-100.535"/>
</g>
<!-- h1&#45;&gt;g1 -->
<g id="edge164" class="edge"><title>h1&#45;&gt;g1</title>
<path fill="none" stroke="black" d="M1631.4,-648.411C1639.58,-639.606 1649.77,-628.628 1658.79,-618.919"/>
<polygon fill="black" stroke="black" points="1661.47,-621.179 1665.71,-611.47 1656.34,-616.416 1661.47,-621.179"/>
</g>
<!-- m0&#45;&gt;n1 -->
<g id="edge78" class="edge"><title>m0&#45;&gt;n1</title>
<path fill="none" stroke="black" d="M1729,-215.697C1729,-207.983 1729,-198.712 1729,-190.112"/>
<polygon fill="black" stroke="black" points="1732.5,-190.104 1729,-180.104 1725.5,-190.104 1732.5,-190.104"/>
</g>
<!-- m0&#45;&gt;o1 -->
<g id="edge106" class="edge"><title>m0&#45;&gt;o1</title>
<path fill="none" stroke="black" d="M1697.71,-217.465C1676.84,-207.103 1649.24,-193.404 1626.95,-182.337"/>
<polygon fill="black" stroke="black" points="1628.27,-179.085 1617.76,-177.773 1625.16,-185.355 1628.27,-179.085"/>
</g>
<!-- a0&#45;&gt;c1 -->
<g id="edge82" class="edge"><title>a0&#45;&gt;c1</title>
<path fill="none" stroke="black" d="M1923.55,-217.116C1939.97,-207.292 1961.23,-194.569 1979.02,-183.928"/>
<polygon fill="black" stroke="black" points="1981.17,-186.718 1987.96,-178.58 1977.58,-180.711 1981.17,-186.718"/>
</g>
<!-- w1&#45;&gt;u1 -->
<g id="edge98" class="edge"><title>w1&#45;&gt;u1</title>
<path fill="none" stroke="black" d="M191.833,-288.055C186.88,-279.801 180.821,-269.701 175.323,-260.538"/>
<polygon fill="black" stroke="black" points="178.22,-258.563 170.073,-251.789 172.217,-262.165 178.22,-258.563"/>
</g>
<!-- o0&#45;&gt;n0 -->
<g id="edge100" class="edge"><title>o0&#45;&gt;n0</title>
<path fill="none" stroke="black" d="M1761.71,-360.055C1758.78,-352.176 1755.23,-342.617 1751.95,-333.794"/>
<polygon fill="black" stroke="black" points="1755.18,-332.431 1748.42,-324.275 1748.62,-334.868 1755.18,-332.431"/>
</g>
<!-- f0&#45;&gt;d1 -->
<g id="edge168" class="edge"><title>f0&#45;&gt;d1</title>
<path fill="none" stroke="black" d="M1346.27,-363.17C1382.54,-351.576 1434.35,-335.016 1472.31,-322.881"/>
<polygon fill="black" stroke="black" points="1473.68,-326.119 1482.14,-319.741 1471.55,-319.451 1473.68,-326.119"/>
</g>
<!-- f0&#45;&gt;b0 -->
<g id="edge154" class="edge"><title>f0&#45;&gt;b0</title>
<path fill="none" stroke="black" d="M1303,-359.697C1303,-351.983 1303,-342.712 1303,-334.112"/>
<polygon fill="black" stroke="black" points="1306.5,-334.104 1303,-324.104 1299.5,-334.104 1306.5,-334.104"/>
</g>
<!-- f0&#45;&gt;n0 -->
<g id="edge102" class="edge"><title>f0&#45;&gt;n0</title>
<path fill="none" stroke="black" d="M1357.8,-365.633C1367.83,-363.668 1378.22,-361.71 1388,-360 1484.42,-343.151 1596.19,-326.972 1667.93,-317.017"/>
<polygon fill="black" stroke="black" points="1668.79,-320.432 1678.22,-315.594 1667.83,-313.498 1668.79,-320.432"/>
</g>
<!-- a1&#45;&gt;z0 -->
<g id="edge132" class="edge"><title>a1&#45;&gt;z0</title>
<path fill="none" stroke="black" d="M1581.75,-580.822C1685.28,-549.814 1949.59,-465.422 2007,-396 2021.21,-378.821 2025.52,-353.543 2026.54,-334.313"/>
<polygon fill="black" stroke="black" points="2030.04,-334.156 2026.8,-324.068 2023.05,-333.974 2030.04,-334.156"/>
</g>
<!-- g1&#45;&gt;f1 -->
<g id="edge138" class="edge"><title>g1&#45;&gt;f1</title>
<path fill="none" stroke="black" d="M1699.59,-576.563C1742.26,-538.83 1847.34,-445.902 1896.65,-402.299"/>
<polygon fill="black" stroke="black" points="1899.18,-404.739 1904.35,-395.493 1894.54,-399.495 1899.18,-404.739"/>
</g>
<!-- c0&#45;&gt;b0 -->
<g id="edge152" class="edge"><title>c0&#45;&gt;b0</title>
<path fill="none" stroke="black" d="M1148.02,-363.503C1178.96,-352.222 1223.26,-336.073 1256.57,-323.927"/>
<polygon fill="black" stroke="black" points="1257.9,-327.169 1266.09,-320.455 1255.5,-320.592 1257.9,-327.169"/>
</g>
<!-- q0&#45;&gt;u0 -->
<g id="edge178" class="edge"><title>q0&#45;&gt;u0</title>
<path fill="none" stroke="black" d="M607.423,-361.533C563.47,-335.954 475.586,-284.808 426.069,-255.991"/>
<polygon fill="black" stroke="black" points="427.692,-252.886 417.289,-250.881 424.171,-258.936 427.692,-252.886"/>
</g>
<!-- q0&#45;&gt;p0 -->
<g id="edge174" class="edge"><title>q0&#45;&gt;p0</title>
<path fill="none" stroke="black" d="M634,-359.697C634,-351.983 634,-342.712 634,-334.112"/>
<polygon fill="black" stroke="black" points="637.5,-334.104 634,-324.104 630.5,-334.104 637.5,-334.104"/>
</g>
</g>
</svg>
