<?xml version="1.0" encoding="UTF-8" standalone="no"?> 
<!DOCTYPE svg PUBLIC "-//W3C//DTD SVG 1.1//EN" 
 "http://www.w3.org/Graphics/SVG/1.1/DTD/svg11.dtd"> 
<!-- Generated by graphviz version 2.28.0 (20110622.2320) 
 --> 
<!-- Title: G Pages: 1 --> 
<svg width="2000" height="1000"  
 viewBox="-30 -50 2000 1000" xmlns="http://www.w3.org/2000/svg" xmlns:xlink="http://www.w3.org/1999/xlink"> 
<g id="graph1" class="graph" transform="scale(1 1) rotate(0) translate(4 256)"> 
<title>G</title> 
<polygon fill="white" stroke="white" points="-4,5 -4,-256 3924,-256 3924,5 -4,5"/> 
<!-- f0 --> 
<g id="node1" class="node"><title>f0</title> 
<ellipse fill="#e98576" stroke="#e98576" cx="691" cy="-162" rx="79.4447" ry="18"/> 
<a xlink:href="http://pir.georgetown.edu/cgi-bin/pt_graphvizView.pl?togoid=0003824" ><text id="GO:0003824" onmousemove="changeToText('GO:0003824')" onmouseout="changeBackText('GO:0003824')"  text-anchor="middle" x="691" y="-162.8" font-family="Times,serif" font-size="14.00">GO:0003824</text></a>
<a xlink:href="http://pir.georgetown.edu/cgi-bin/pt_graphvizView.pl?tofile=423102" ><text id="r423102" onmousemove="changeToText2('r423102', 27)" onmouseout="changeBackText2('r423102', 27)"  text-anchor="middle" x="691" y="-149.8" font-family="Times,serif" font-size="14.00">(27)</text>
 
</a> 
</g> 
<!-- q0 --> 
<g id="node3" class="node"><title>q0</title> 
<ellipse fill="#e98576" stroke="#e98576" cx="75" cy="-90" rx="75.2018" ry="18"/> 
<a xlink:href="http://pir.georgetown.edu/cgi-bin/pt_graphvizView.pl?togoid=0016853" ><text id="GO:0016853" onmousemove="changeToText('GO:0016853')" onmouseout="changeBackText('GO:0016853')"  text-anchor="middle" x="75" y="-90.8" font-family="Times,serif" font-size="14.00">GO:0016853</text></a>
<a xlink:href="http://pir.georgetown.edu/cgi-bin/pt_graphvizView.pl?tofile=423116" ><text id="r423116" onmousemove="changeToText2('r423116', 9)" onmouseout="changeBackText2('r423116', 9)"  text-anchor="middle" x="75" y="-77.8" font-family="Times,serif" font-size="14.00">(9)</text>
 
</a> 
</g> 
<!-- f0&#45;&gt;q0 --> 
<g id="edge2" class="edge"><title>f0&#45;&gt;q0</title> 
<path fill="none" stroke="black" d="M615.817,-155.9C512.499,-148.347 320.997,-132.399 159,-108 152.377,-107.002 145.486,-105.83 138.625,-104.575"/> 
<polygon fill="black" stroke="black" points="139.107,-101.104 128.631,-102.688 137.808,-107.983 139.107,-101.104"/> 
</g> 
<!-- g0 --> 
<g id="node13" class="node"><title>g0</title> 
<ellipse fill="#e98576" stroke="#e98576" cx="248" cy="-90" rx="79.4447" ry="18"/> 
<a xlink:href="http://pir.georgetown.edu/cgi-bin/pt_graphvizView.pl?togoid=0016787" ><text id="GO:0016787" onmousemove="changeToText('GO:0016787')" onmouseout="changeBackText('GO:0016787')"  text-anchor="middle" x="248" y="-90.8" font-family="Times,serif" font-size="14.00">GO:0016787</text></a>
<a xlink:href="http://pir.georgetown.edu/cgi-bin/pt_graphvizView.pl?tofile=423094" ><text id="r423094" onmousemove="changeToText2('r423094', 33)" onmouseout="changeBackText2('r423094', 33)"  text-anchor="middle" x="248" y="-77.8" font-family="Times,serif" font-size="14.00">(33)</text>
 
</a> 
</g> 
<!-- f0&#45;&gt;g0 --> 
<g id="edge20" class="edge"><title>f0&#45;&gt;g0</title> 
<path fill="none" stroke="black" d="M624.978,-151.923C553.78,-141.945 437.162,-125.057 337,-108 330.228,-106.847 323.176,-105.592 316.137,-104.304"/> 
<polygon fill="black" stroke="black" points="316.338,-100.782 305.868,-102.402 315.063,-107.665 316.338,-100.782"/> 
</g> 
<!-- n0 --> 
<g id="node26" class="node"><title>n0</title> 
<ellipse fill="#e98576" stroke="#e98576" cx="426" cy="-90" rx="79.4447" ry="18"/> 
<a xlink:href="http://pir.georgetown.edu/cgi-bin/pt_graphvizView.pl?togoid=0016874" ><text id="GO:0016874" onmousemove="changeToText('GO:0016874')" onmouseout="changeBackText('GO:0016874')"  text-anchor="middle" x="426" y="-90.8" font-family="Times,serif" font-size="14.00">GO:0016874</text></a>
<a xlink:href="http://pir.georgetown.edu/cgi-bin/pt_graphvizView.pl?tofile=423110" ><text id="r423110" onmousemove="changeToText2('r423110', 11)" onmouseout="changeBackText2('r423110', 11)"  text-anchor="middle" x="426" y="-77.8" font-family="Times,serif" font-size="14.00">(11)</text>
 
</a> 
</g> 
<!-- f0&#45;&gt;n0 --> 
<g id="edge24" class="edge"><title>f0&#45;&gt;n0</title> 
<path fill="none" stroke="black" d="M641.466,-147.916C597.271,-136.241 532.47,-119.124 485.482,-106.712"/> 
<polygon fill="black" stroke="black" points="486.302,-103.309 475.74,-104.139 484.514,-110.077 486.302,-103.309"/> 
</g> 
<!-- e0 --> 
<g id="node30" class="node"><title>e0</title> 
<ellipse fill="#e98576" stroke="#e98576" cx="604" cy="-90" rx="79.4447" ry="18"/> 
<a xlink:href="http://pir.georgetown.edu/cgi-bin/pt_graphvizView.pl?togoid=0016491" ><text id="GO:0016491" onmousemove="changeToText('GO:0016491')" onmouseout="changeBackText('GO:0016491')"  text-anchor="middle" x="604" y="-90.8" font-family="Times,serif" font-size="14.00">GO:0016491</text></a>
<a xlink:href="http://pir.georgetown.edu/cgi-bin/pt_graphvizView.pl?tofile=423092" ><text id="r423092" onmousemove="changeToText2('r423092', 35)" onmouseout="changeBackText2('r423092', 35)"  text-anchor="middle" x="604" y="-77.8" font-family="Times,serif" font-size="14.00">(35)</text>
 
</a> 
</g> 
<!-- f0&#45;&gt;e0 --> 
<g id="edge28" class="edge"><title>f0&#45;&gt;e0</title> 
<path fill="none" stroke="black" d="M670.382,-144.411C659.006,-135.257 644.71,-123.755 632.302,-113.772"/> 
<polygon fill="black" stroke="black" points="634.455,-111.012 624.47,-107.47 630.067,-116.466 634.455,-111.012"/> 
</g> 
<!-- y0 --> 
<g id="node32" class="node"><title>y0</title> 
<ellipse fill="#e98576" stroke="#e98576" cx="777" cy="-90" rx="75.2018" ry="18"/> 
<a xlink:href="http://pir.georgetown.edu/cgi-bin/pt_graphvizView.pl?togoid=0004386" ><text id="GO:0004386" onmousemove="changeToText('GO:0004386')" onmouseout="changeBackText('GO:0004386')"  text-anchor="middle" x="777" y="-90.8" font-family="Times,serif" font-size="14.00">GO:0004386</text></a>
<a xlink:href="http://pir.georgetown.edu/cgi-bin/pt_graphvizView.pl?tofile=423132" ><text id="r423132" onmousemove="changeToText2('r423132', 3)" onmouseout="changeBackText2('r423132', 3)"  text-anchor="middle" x="777" y="-77.8" font-family="Times,serif" font-size="14.00">(3)</text>
 
</a> 
</g> 
<!-- f0&#45;&gt;y0 --> 
<g id="edge30" class="edge"><title>f0&#45;&gt;y0</title> 
<path fill="none" stroke="black" d="M711.381,-144.411C722.519,-135.345 736.489,-123.974 748.673,-114.057"/> 
<polygon fill="black" stroke="black" points="751.219,-116.497 756.765,-107.47 746.8,-111.068 751.219,-116.497"/> 
</g> 
<!-- j0 --> 
<g id="node58" class="node"><title>j0</title> 
<ellipse fill="#e98576" stroke="#e98576" cx="950" cy="-90" rx="79.4447" ry="18"/> 
<a xlink:href="http://pir.georgetown.edu/cgi-bin/pt_graphvizView.pl?togoid=0016740" ><text id="GO:0016740" onmousemove="changeToText('GO:0016740')" onmouseout="changeBackText('GO:0016740')"  text-anchor="middle" x="950" y="-90.8" font-family="Times,serif" font-size="14.00">GO:0016740</text></a>
<a xlink:href="http://pir.georgetown.edu/cgi-bin/pt_graphvizView.pl?tofile=423100" ><text id="r423100" onmousemove="changeToText2('r423100', 27)" onmouseout="changeBackText2('r423100', 27)"  text-anchor="middle" x="950" y="-77.8" font-family="Times,serif" font-size="14.00">(27)</text>
 
</a> 
</g> 
<!-- f0&#45;&gt;j0 --> 
<g id="edge56" class="edge"><title>f0&#45;&gt;j0</title> 
<path fill="none" stroke="black" d="M740.02,-147.751C782.922,-136.156 845.347,-119.285 890.98,-106.951"/> 
<polygon fill="black" stroke="black" points="892,-110.301 900.74,-104.313 890.173,-103.544 892,-110.301"/> 
</g> 
<!-- r0 --> 
<g id="node64" class="node"><title>r0</title> 
<ellipse fill="#e98576" stroke="#e98576" cx="1123" cy="-90" rx="75.2018" ry="18"/> 
<a xlink:href="http://pir.georgetown.edu/cgi-bin/pt_graphvizView.pl?togoid=0016829" ><text id="GO:0016829" onmousemove="changeToText('GO:0016829')" onmouseout="changeBackText('GO:0016829')"  text-anchor="middle" x="1123" y="-90.8" font-family="Times,serif" font-size="14.00">GO:0016829</text></a>
<a xlink:href="http://pir.georgetown.edu/cgi-bin/pt_graphvizView.pl?tofile=423118" ><text id="r423118" onmousemove="changeToText2('r423118', 6)" onmouseout="changeBackText2('r423118', 6)"  text-anchor="middle" x="1123" y="-77.8" font-family="Times,serif" font-size="14.00">(6)</text>
 
</a> 
</g> 
<!-- f0&#45;&gt;r0 --> 
<g id="edge62" class="edge"><title>f0&#45;&gt;r0</title> 
<path fill="none" stroke="black" d="M757.024,-151.834C826.944,-141.913 940.473,-125.191 1038,-108 1044.57,-106.842 1051.42,-105.574 1058.24,-104.271"/> 
<polygon fill="black" stroke="black" points="1059.05,-107.68 1068.2,-102.343 1057.72,-100.808 1059.05,-107.68"/> 
</g> 
<!-- b0 --> 
<g id="node4" class="node"><title>b0</title> 
<a xlink:href="http://pir.georgetown.edu/cgi-bin/pt_graphvizView.pl?togoid=0005488" > 
<ellipse fill="#dddddd" stroke="#dddddd" cx="2475" cy="-162" rx="61.1934" ry="18"/> 
<a xlink:href="http://pir.georgetown.edu/cgi-bin/pt_graphvizView.pl?togoid=0005488" ><text id="GO:0005488" onmousemove="changeToText('GO:0005488')" onmouseout="changeBackText('GO:0005488')"  text-anchor="middle" x="2475" y="-157.8" font-family="Times,serif" font-size="14.00">GO:0005488</text></a>
 
</a> 
</g> 
<!-- v0 --> 
<g id="node6" class="node"><title>v0</title> 
<ellipse fill="#e98576" stroke="#e98576" cx="1291" cy="-90" rx="75.2018" ry="18"/> 
<a xlink:href="http://pir.georgetown.edu/cgi-bin/pt_graphvizView.pl?togoid=0033218" ><text id="GO:0033218" onmousemove="changeToText('GO:0033218')" onmouseout="changeBackText('GO:0033218')"  text-anchor="middle" x="1291" y="-90.8" font-family="Times,serif" font-size="14.00">GO:0033218</text></a>
<a xlink:href="http://pir.georgetown.edu/cgi-bin/pt_graphvizView.pl?tofile=423126" ><text id="r423126" onmousemove="changeToText2('r423126', 5)" onmouseout="changeBackText2('r423126', 5)"  text-anchor="middle" x="1291" y="-77.8" font-family="Times,serif" font-size="14.00">(5)</text>
 
</a> 
</g> 
<!-- b0&#45;&gt;v0 --> 
<g id="edge4" class="edge"><title>b0&#45;&gt;v0</title> 
<path fill="none" stroke="black" d="M2413.6,-161.294C2246.28,-161.394 1768.45,-157.005 1375,-108 1368.16,-107.147 1361.03,-106.046 1353.96,-104.814"/> 
<polygon fill="black" stroke="black" points="1354.14,-101.289 1343.67,-102.93 1352.88,-108.174 1354.14,-101.289"/> 
</g> 
<!-- l0 --> 
<g id="node8" class="node"><title>l0</title> 
<ellipse fill="#e98576" stroke="#e98576" cx="1464" cy="-90" rx="79.4447" ry="18"/> 
<a xlink:href="http://pir.georgetown.edu/cgi-bin/pt_graphvizView.pl?togoid=0005515" ><text id="GO:0005515" onmousemove="changeToText('GO:0005515')" onmouseout="changeBackText('GO:0005515')"  text-anchor="middle" x="1464" y="-90.8" font-family="Times,serif" font-size="14.00">GO:0005515</text></a>
<a xlink:href="http://pir.georgetown.edu/cgi-bin/pt_graphvizView.pl?tofile=423106" ><text id="r423106" onmousemove="changeToText2('r423106', 18)" onmouseout="changeBackText2('r423106', 18)"  text-anchor="middle" x="1464" y="-77.8" font-family="Times,serif" font-size="14.00">(18)</text>
 
</a> 
</g> 
<!-- b0&#45;&gt;l0 --> 
<g id="edge6" class="edge"><title>b0&#45;&gt;l0</title> 
<path fill="none" stroke="black" d="M2413.79,-160.255C2265.54,-157.847 1875.62,-147.909 1553,-108 1545.43,-107.063 1537.53,-105.871 1529.7,-104.553"/> 
<polygon fill="black" stroke="black" points="1530.3,-101.106 1519.85,-102.828 1529.09,-108.001 1530.3,-101.106"/> 
</g> 
<!-- c1 --> 
<g id="node10" class="node"><title>c1</title> 
<ellipse fill="#e98576" stroke="#e98576" cx="1637" cy="-90" rx="75.2018" ry="18"/> 
<a xlink:href="http://pir.georgetown.edu/cgi-bin/pt_graphvizView.pl?togoid=0043021" ><text id="GO:0043021" onmousemove="changeToText('GO:0043021')" onmouseout="changeBackText('GO:0043021')"  text-anchor="middle" x="1637" y="-90.8" font-family="Times,serif" font-size="14.00">GO:0043021</text></a>
<a xlink:href="http://pir.georgetown.edu/cgi-bin/pt_graphvizView.pl?tofile=423142" ><text id="r423142" onmousemove="changeToText2('r423142', 1)" onmouseout="changeBackText2('r423142', 1)"  text-anchor="middle" x="1637" y="-77.8" font-family="Times,serif" font-size="14.00">(1)</text>
 
</a> 
</g> 
<!-- b0&#45;&gt;c1 --> 
<g id="edge8" class="edge"><title>b0&#45;&gt;c1</title> 
<path fill="none" stroke="black" d="M2414.13,-159.394C2285.58,-155.415 1977.17,-142.776 1721,-108 1714.26,-107.086 1707.26,-105.956 1700.29,-104.717"/> 
<polygon fill="black" stroke="black" points="1700.62,-101.219 1690.15,-102.837 1699.34,-108.101 1700.62,-101.219"/> 
</g> 
<!-- a0 --> 
<g id="node19" class="node"><title>a0</title> 
<ellipse fill="#e98576" stroke="#e98576" cx="1810" cy="-90" rx="79.4447" ry="18"/> 
<a xlink:href="http://pir.georgetown.edu/cgi-bin/pt_graphvizView.pl?togoid=0043167" ><text id="GO:0043167" onmousemove="changeToText('GO:0043167')" onmouseout="changeBackText('GO:0043167')"  text-anchor="middle" x="1810" y="-90.8" font-family="Times,serif" font-size="14.00">GO:0043167</text></a>
<a xlink:href="http://pir.georgetown.edu/cgi-bin/pt_graphvizView.pl?tofile=423088" ><text id="r423088" onmousemove="changeToText2('r423088', 69)" onmouseout="changeBackText2('r423088', 69)"  text-anchor="middle" x="1810" y="-77.8" font-family="Times,serif" font-size="14.00">(69)</text>
 
</a> 
</g> 
<!-- b0&#45;&gt;a0 --> 
<g id="edge16" class="edge"><title>b0&#45;&gt;a0</title> 
<path fill="none" stroke="black" d="M2415.49,-157.435C2310.73,-150.733 2086.69,-134.496 1899,-108 1891.83,-106.987 1884.35,-105.788 1876.92,-104.503"/> 
<polygon fill="black" stroke="black" points="1877.3,-101.016 1866.84,-102.707 1876.07,-107.907 1877.3,-101.016"/> 
</g> 
<!-- h1 --> 
<g id="node21" class="node"><title>h1</title> 
<a xlink:href="http://pir.georgetown.edu/cgi-bin/pt_graphvizView.pl?togoid=0043176" > 
<ellipse fill="#dddddd" stroke="#dddddd" cx="1969" cy="-90" rx="61.1934" ry="18"/> 
<a xlink:href="http://pir.georgetown.edu/cgi-bin/pt_graphvizView.pl?togoid=0043176" ><text id="GO:0043176" onmousemove="changeToText('GO:0043176')" onmouseout="changeBackText('GO:0043176')"  text-anchor="middle" x="1969" y="-85.8" font-family="Times,serif" font-size="14.00">GO:0043176</text></a>
 
</a> 
</g> 
<!-- b0&#45;&gt;h1 --> 
<g id="edge18" class="edge"><title>b0&#45;&gt;h1</title> 
<path fill="none" stroke="black" d="M2416.99,-156.049C2333.3,-148.428 2174.03,-132.13 2040,-108 2034.62,-107.031 2029.04,-105.907 2023.48,-104.706"/> 
<polygon fill="black" stroke="black" points="2024.05,-101.249 2013.53,-102.48 2022.52,-108.08 2024.05,-101.249"/> 
</g> 
<!-- b1 --> 
<g id="node24" class="node"><title>b1</title> 
<ellipse fill="#e98576" stroke="#e98576" cx="2124" cy="-90" rx="75.2018" ry="18"/> 
<a xlink:href="http://pir.georgetown.edu/cgi-bin/pt_graphvizView.pl?togoid=0030246" ><text id="GO:0030246" onmousemove="changeToText('GO:0030246')" onmouseout="changeBackText('GO:0030246')"  text-anchor="middle" x="2124" y="-90.8" font-family="Times,serif" font-size="14.00">GO:0030246</text></a>
<a xlink:href="http://pir.georgetown.edu/cgi-bin/pt_graphvizView.pl?tofile=423140" ><text id="r423140" onmousemove="changeToText2('r423140', 2)" onmouseout="changeBackText2('r423140', 2)"  text-anchor="middle" x="2124" y="-77.8" font-family="Times,serif" font-size="14.00">(2)</text>
 
</a> 
</g> 
<!-- b0&#45;&gt;b1 --> 
<g id="edge22" class="edge"><title>b0&#45;&gt;b1</title> 
<path fill="none" stroke="black" d="M2425.78,-151.287C2372.2,-140.699 2283.99,-123.232 2208,-108 2201.97,-106.791 2195.69,-105.529 2189.41,-104.263"/> 
<polygon fill="black" stroke="black" points="2190.07,-100.824 2179.57,-102.277 2188.68,-107.686 2190.07,-100.824"/> 
</g> 
<!-- h0 --> 
<g id="node28" class="node"><title>h0</title> 
<ellipse fill="#e98576" stroke="#e98576" cx="2297" cy="-90" rx="79.4447" ry="18"/> 
<a xlink:href="http://pir.georgetown.edu/cgi-bin/pt_graphvizView.pl?togoid=0003676" ><text id="GO:0003676" onmousemove="changeToText('GO:0003676')" onmouseout="changeBackText('GO:0003676')"  text-anchor="middle" x="2297" y="-90.8" font-family="Times,serif" font-size="14.00">GO:0003676</text></a>
<a xlink:href="http://pir.georgetown.edu/cgi-bin/pt_graphvizView.pl?tofile=423096" ><text id="r423096" onmousemove="changeToText2('r423096', 33)" onmouseout="changeBackText2('r423096', 33)"  text-anchor="middle" x="2297" y="-77.8" font-family="Times,serif" font-size="14.00">(33)</text>
 
</a> 
</g> 
<!-- b0&#45;&gt;h0 --> 
<g id="edge26" class="edge"><title>b0&#45;&gt;h0</title> 
<path fill="none" stroke="black" d="M2439.83,-147.17C2412.5,-136.42 2374.31,-121.402 2344.3,-109.6"/> 
<polygon fill="black" stroke="black" points="2345.45,-106.293 2334.86,-105.89 2342.89,-112.807 2345.45,-106.293"/> 
</g> 
<!-- m0 --> 
<g id="node36" class="node"><title>m0</title> 
<ellipse fill="#e98576" stroke="#e98576" cx="2475" cy="-90" rx="79.4447" ry="18"/> 
<a xlink:href="http://pir.georgetown.edu/cgi-bin/pt_graphvizView.pl?togoid=0048037" ><text id="GO:0048037" onmousemove="changeToText('GO:0048037')" onmouseout="changeBackText('GO:0048037')"  text-anchor="middle" x="2475" y="-90.8" font-family="Times,serif" font-size="14.00">GO:0048037</text></a>
<a xlink:href="http://pir.georgetown.edu/cgi-bin/pt_graphvizView.pl?tofile=423108" ><text id="r423108" onmousemove="changeToText2('r423108', 12)" onmouseout="changeBackText2('r423108', 12)"  text-anchor="middle" x="2475" y="-77.8" font-family="Times,serif" font-size="14.00">(12)</text>
 
</a> 
</g> 
<!-- b0&#45;&gt;m0 --> 
<g id="edge34" class="edge"><title>b0&#45;&gt;m0</title> 
<path fill="none" stroke="black" d="M2475,-143.697C2475,-135.983 2475,-126.712 2475,-118.112"/> 
<polygon fill="black" stroke="black" points="2478.5,-118.104 2475,-108.104 2471.5,-118.104 2478.5,-118.104"/> 
</g> 
<!-- i0 --> 
<g id="node42" class="node"><title>i0</title> 
<ellipse fill="#e98576" stroke="#e98576" cx="2653" cy="-90" rx="79.4447" ry="18"/> 
<a xlink:href="http://pir.georgetown.edu/cgi-bin/pt_graphvizView.pl?togoid=0001882" ><text id="GO:0001882" onmousemove="changeToText('GO:0001882')" onmouseout="changeBackText('GO:0001882')"  text-anchor="middle" x="2653" y="-90.8" font-family="Times,serif" font-size="14.00">GO:0001882</text></a>
<a xlink:href="http://pir.georgetown.edu/cgi-bin/pt_graphvizView.pl?tofile=423098" ><text id="r423098" onmousemove="changeToText2('r423098', 28)" onmouseout="changeBackText2('r423098', 28)"  text-anchor="middle" x="2653" y="-77.8" font-family="Times,serif" font-size="14.00">(28)</text>
 
</a> 
</g> 
<!-- b0&#45;&gt;i0 --> 
<g id="edge40" class="edge"><title>b0&#45;&gt;i0</title> 
<path fill="none" stroke="black" d="M2510.17,-147.17C2537.5,-136.42 2575.69,-121.402 2605.7,-109.6"/> 
<polygon fill="black" stroke="black" points="2607.11,-112.807 2615.14,-105.89 2604.55,-106.293 2607.11,-112.807"/> 
</g> 
<!-- a1 --> 
<g id="node44" class="node"><title>a1</title> 
<ellipse fill="#e98576" stroke="#e98576" cx="2826" cy="-90" rx="75.2018" ry="18"/> 
<a xlink:href="http://pir.georgetown.edu/cgi-bin/pt_graphvizView.pl?togoid=0008144" ><text id="GO:0008144" onmousemove="changeToText('GO:0008144')" onmouseout="changeBackText('GO:0008144')"  text-anchor="middle" x="2826" y="-90.8" font-family="Times,serif" font-size="14.00">GO:0008144</text></a>
<a xlink:href="http://pir.georgetown.edu/cgi-bin/pt_graphvizView.pl?tofile=423136" ><text id="r423136" onmousemove="changeToText2('r423136', 2)" onmouseout="changeBackText2('r423136', 2)"  text-anchor="middle" x="2826" y="-77.8" font-family="Times,serif" font-size="14.00">(2)</text>
 
</a> 
</g> 
<!-- b0&#45;&gt;a1 --> 
<g id="edge42" class="edge"><title>b0&#45;&gt;a1</title> 
<path fill="none" stroke="black" d="M2520.1,-149.65C2528.36,-147.683 2536.93,-145.72 2545,-144 2631.62,-125.542 2654.02,-124.685 2741,-108 2747.3,-106.791 2753.87,-105.512 2760.43,-104.222"/> 
<polygon fill="black" stroke="black" points="2761.57,-107.564 2770.7,-102.191 2760.21,-100.697 2761.57,-107.564"/> 
</g> 
<!-- u0 --> 
<g id="node46" class="node"><title>u0</title> 
<ellipse fill="#e98576" stroke="#e98576" cx="2994" cy="-90" rx="75.2018" ry="18"/> 
<a xlink:href="http://pir.georgetown.edu/cgi-bin/pt_graphvizView.pl?togoid=0019842" ><text id="GO:0019842" onmousemove="changeToText('GO:0019842')" onmouseout="changeBackText('GO:0019842')"  text-anchor="middle" x="2994" y="-90.8" font-family="Times,serif" font-size="14.00">GO:0019842</text></a>
<a xlink:href="http://pir.georgetown.edu/cgi-bin/pt_graphvizView.pl?tofile=423124" ><text id="r423124" onmousemove="changeToText2('r423124', 5)" onmouseout="changeBackText2('r423124', 5)"  text-anchor="middle" x="2994" y="-77.8" font-family="Times,serif" font-size="14.00">(5)</text>
 
</a> 
</g> 
<!-- b0&#45;&gt;u0 --> 
<g id="edge44" class="edge"><title>b0&#45;&gt;u0</title> 
<path fill="none" stroke="black" d="M2518.87,-149.353C2527.49,-147.346 2536.49,-145.445 2545,-144 2705.71,-116.698 2748.8,-132.198 2910,-108 2916.62,-107.006 2923.52,-105.835 2930.38,-104.582"/> 
<polygon fill="black" stroke="black" points="2931.19,-107.99 2940.37,-102.696 2929.89,-101.111 2931.19,-107.99"/> 
</g> 
<!-- x0 --> 
<g id="node54" class="node"><title>x0</title> 
<ellipse fill="#e98576" stroke="#e98576" cx="3162" cy="-90" rx="75.2018" ry="18"/> 
<a xlink:href="http://pir.georgetown.edu/cgi-bin/pt_graphvizView.pl?togoid=0031406" ><text id="GO:0031406" onmousemove="changeToText('GO:0031406')" onmouseout="changeBackText('GO:0031406')"  text-anchor="middle" x="3162" y="-90.8" font-family="Times,serif" font-size="14.00">GO:0031406</text></a>
<a xlink:href="http://pir.georgetown.edu/cgi-bin/pt_graphvizView.pl?tofile=423130" ><text id="r423130" onmousemove="changeToText2('r423130', 3)" onmouseout="changeBackText2('r423130', 3)"  text-anchor="middle" x="3162" y="-77.8" font-family="Times,serif" font-size="14.00">(3)</text>
 
</a> 
</g> 
<!-- b0&#45;&gt;x0 --> 
<g id="edge52" class="edge"><title>b0&#45;&gt;x0</title> 
<path fill="none" stroke="black" d="M2518.46,-149.229C2527.19,-147.208 2536.35,-145.333 2545,-144 2779.66,-107.852 2842.69,-139.617 3078,-108 3084.74,-107.095 3091.75,-105.971 3098.71,-104.736"/> 
<polygon fill="black" stroke="black" points="3099.66,-108.12 3108.86,-102.859 3098.39,-101.237 3099.66,-108.12"/> 
</g> 
<!-- w0 --> 
<g id="node60" class="node"><title>w0</title> 
<ellipse fill="#e98576" stroke="#e98576" cx="3330" cy="-90" rx="75.2018" ry="18"/> 
<a xlink:href="http://pir.georgetown.edu/cgi-bin/pt_graphvizView.pl?togoid=0046906" ><text id="GO:0046906" onmousemove="changeToText('GO:0046906')" onmouseout="changeBackText('GO:0046906')"  text-anchor="middle" x="3330" y="-90.8" font-family="Times,serif" font-size="14.00">GO:0046906</text></a>
<a xlink:href="http://pir.georgetown.edu/cgi-bin/pt_graphvizView.pl?tofile=423128" ><text id="r423128" onmousemove="changeToText2('r423128', 4)" onmouseout="changeBackText2('r423128', 4)"  text-anchor="middle" x="3330" y="-77.8" font-family="Times,serif" font-size="14.00">(4)</text>
 
</a> 
</g> 
<!-- b0&#45;&gt;w0 --> 
<g id="edge58" class="edge"><title>b0&#45;&gt;w0</title> 
<path fill="none" stroke="black" d="M2518.07,-149.205C2526.92,-147.159 2536.21,-145.281 2545,-144 2853.7,-98.992 2936.49,-147.048 3246,-108 3252.84,-107.137 3259.96,-106.028 3267.03,-104.792"/> 
<polygon fill="black" stroke="black" points="3268.12,-108.152 3277.32,-102.904 3266.85,-101.267 3268.12,-108.152"/> 
</g> 
<!-- d0 --> 
<g id="node62" class="node"><title>d0</title> 
<ellipse fill="#e98576" stroke="#e98576" cx="3503" cy="-90" rx="79.4447" ry="18"/> 
<a xlink:href="http://pir.georgetown.edu/cgi-bin/pt_graphvizView.pl?togoid=0000166" ><text id="GO:0000166" onmousemove="changeToText('GO:0000166')" onmouseout="changeBackText('GO:0000166')"  text-anchor="middle" x="3503" y="-90.8" font-family="Times,serif" font-size="14.00">GO:0000166</text></a>
<a xlink:href="http://pir.georgetown.edu/cgi-bin/pt_graphvizView.pl?tofile=423090" ><text id="r423090" onmousemove="changeToText2('r423090', 37)" onmouseout="changeBackText2('r423090', 37)"  text-anchor="middle" x="3503" y="-77.8" font-family="Times,serif" font-size="14.00">(37)</text>
 
</a> 
</g> 
<!-- b0&#45;&gt;d0 --> 
<g id="edge60" class="edge"><title>b0&#45;&gt;d0</title> 
<path fill="none" stroke="black" d="M2518.06,-149.136C2526.91,-147.096 2536.21,-145.237 2545,-144 2927.78,-90.1265 3030,-152.383 3414,-108 3421.5,-107.133 3429.31,-105.995 3437.06,-104.716"/> 
<polygon fill="black" stroke="black" points="3437.91,-108.12 3447.17,-102.966 3436.72,-101.222 3437.91,-108.12"/> 
</g> 
<!-- z0 --> 
<g id="node66" class="node"><title>z0</title> 
<ellipse fill="#e98576" stroke="#e98576" cx="3676" cy="-90" rx="75.2018" ry="18"/> 
<a xlink:href="http://pir.georgetown.edu/cgi-bin/pt_graphvizView.pl?togoid=0051540" ><text id="GO:0051540" onmousemove="changeToText('GO:0051540')" onmouseout="changeBackText('GO:0051540')"  text-anchor="middle" x="3676" y="-90.8" font-family="Times,serif" font-size="14.00">GO:0051540</text></a>
<a xlink:href="http://pir.georgetown.edu/cgi-bin/pt_graphvizView.pl?tofile=423134" ><text id="r423134" onmousemove="changeToText2('r423134', 3)" onmouseout="changeBackText2('r423134', 3)"  text-anchor="middle" x="3676" y="-77.8" font-family="Times,serif" font-size="14.00">(3)</text>
 
</a> 
</g> 
<!-- b0&#45;&gt;z0 --> 
<g id="edge64" class="edge"><title>b0&#45;&gt;z0</title> 
<path fill="none" stroke="black" d="M2518.05,-149.088C2526.9,-147.052 2536.2,-145.207 2545,-144 3005.85,-80.7832 3128.96,-161.792 3591,-108 3598.19,-107.162 3605.69,-106.039 3613.11,-104.767"/> 
<polygon fill="black" stroke="black" points="3613.94,-108.174 3623.16,-102.953 3612.7,-101.285 3613.94,-108.174"/> 
</g> 
<!-- c0 --> 
<g id="node11" class="node"><title>c0</title> 
<ellipse fill="#e98576" stroke="#e98576" cx="2723" cy="-234" rx="75.2018" ry="18"/> 
<a xlink:href="http://pir.georgetown.edu/cgi-bin/pt_graphvizView.pl?togoid=0003674" ><text id="GO:0003674" onmousemove="changeToText('GO:0003674')" onmouseout="changeBackText('GO:0003674')"  text-anchor="middle" x="2723" y="-234.8" font-family="Times,serif" font-size="14.00">GO:0003674</text></a>
<a xlink:href="http://pir.georgetown.edu/cgi-bin/pt_graphvizView.pl?tofile=423138" ><text id="r423138" onmousemove="changeToText2('r423138', 2)" onmouseout="changeBackText2('r423138', 2)"  text-anchor="middle" x="2723" y="-221.8" font-family="Times,serif" font-size="14.00">(2)</text>
 
</a> 
</g> 
<!-- c0&#45;&gt;f0 --> 
<g id="edge38" class="edge"><title>c0&#45;&gt;f0</title> 
<path fill="none" stroke="black" d="M2649.18,-230.457C2336.02,-219.669 1117.98,-177.709 778.988,-166.031"/> 
<polygon fill="black" stroke="black" points="779.092,-162.533 768.977,-165.686 778.85,-169.529 779.092,-162.533"/> 
</g> 
<!-- c0&#45;&gt;b0 --> 
<g id="edge10" class="edge"><title>c0&#45;&gt;b0</title> 
<path fill="none" stroke="black" d="M2676.35,-219.834C2633.96,-207.867 2571.48,-190.232 2527.38,-177.785"/> 
<polygon fill="black" stroke="black" points="2528.28,-174.403 2517.71,-175.055 2526.38,-181.14 2528.28,-174.403"/> 
</g> 
<!-- o0 --> 
<g id="node17" class="node"><title>o0</title> 
<ellipse fill="#e98576" stroke="#e98576" cx="2634" cy="-162" rx="79.4447" ry="18"/> 
<a xlink:href="http://pir.georgetown.edu/cgi-bin/pt_graphvizView.pl?togoid=0005215" ><text id="GO:0005215" onmousemove="changeToText('GO:0005215')" onmouseout="changeBackText('GO:0005215')"  text-anchor="middle" x="2634" y="-162.8" font-family="Times,serif" font-size="14.00">GO:0005215</text></a>
<a xlink:href="http://pir.georgetown.edu/cgi-bin/pt_graphvizView.pl?tofile=423112" ><text id="r423112" onmousemove="changeToText2('r423112', 11)" onmouseout="changeBackText2('r423112', 11)"  text-anchor="middle" x="2634" y="-149.8" font-family="Times,serif" font-size="14.00">(11)</text>
 
</a> 
</g> 
<!-- c0&#45;&gt;o0 --> 
<g id="edge14" class="edge"><title>c0&#45;&gt;o0</title> 
<path fill="none" stroke="black" d="M2701.91,-216.411C2690.27,-207.257 2675.65,-195.755 2662.95,-185.772"/> 
<polygon fill="black" stroke="black" points="2664.96,-182.901 2654.94,-179.47 2660.64,-188.403 2664.96,-182.901"/> 
</g> 
<!-- k0 --> 
<g id="node34" class="node"><title>k0</title> 
<ellipse fill="#e98576" stroke="#e98576" cx="2812" cy="-162" rx="79.4447" ry="18"/> 
<a xlink:href="http://pir.georgetown.edu/cgi-bin/pt_graphvizView.pl?togoid=0005198" ><text id="GO:0005198" onmousemove="changeToText('GO:0005198')" onmouseout="changeBackText('GO:0005198')"  text-anchor="middle" x="2812" y="-162.8" font-family="Times,serif" font-size="14.00">GO:0005198</text></a>
<a xlink:href="http://pir.georgetown.edu/cgi-bin/pt_graphvizView.pl?tofile=423104" ><text id="r423104" onmousemove="changeToText2('r423104', 20)" onmouseout="changeBackText2('r423104', 20)"  text-anchor="middle" x="2812" y="-149.8" font-family="Times,serif" font-size="14.00">(20)</text>
 
</a> 
</g> 
<!-- c0&#45;&gt;k0 --> 
<g id="edge32" class="edge"><title>c0&#45;&gt;k0</title> 
<path fill="none" stroke="black" d="M2744.09,-216.411C2755.73,-207.257 2770.35,-195.755 2783.05,-185.772"/> 
<polygon fill="black" stroke="black" points="2785.36,-188.403 2791.06,-179.47 2781.04,-182.901 2785.36,-188.403"/> 
</g> 
<!-- f1 --> 
<g id="node49" class="node"><title>f1</title> 
<a xlink:href="http://pir.georgetown.edu/cgi-bin/pt_graphvizView.pl?togoid=0060089" > 
<ellipse fill="#dddddd" stroke="#dddddd" cx="2971" cy="-162" rx="61.1934" ry="18"/> 
<a xlink:href="http://pir.georgetown.edu/cgi-bin/pt_graphvizView.pl?togoid=0060089" ><text id="GO:0060089" onmousemove="changeToText('GO:0060089')" onmouseout="changeBackText('GO:0060089')"  text-anchor="middle" x="2971" y="-157.8" font-family="Times,serif" font-size="14.00">GO:0060089</text></a>
 
</a> 
</g> 
<!-- c0&#45;&gt;f1 --> 
<g id="edge66" class="edge"><title>c0&#45;&gt;f1</title> 
<path fill="none" stroke="black" d="M2769.65,-219.834C2812.04,-207.867 2874.52,-190.232 2918.62,-177.785"/> 
<polygon fill="black" stroke="black" points="2919.62,-181.14 2928.29,-175.055 2917.72,-174.403 2919.62,-181.14"/> 
</g> 
<!-- t0 --> 
<g id="node52" class="node"><title>t0</title> 
<ellipse fill="#e98576" stroke="#e98576" cx="3126" cy="-162" rx="75.2018" ry="18"/> 
<a xlink:href="http://pir.georgetown.edu/cgi-bin/pt_graphvizView.pl?togoid=0016209" ><text id="GO:0016209" onmousemove="changeToText('GO:0016209')" onmouseout="changeBackText('GO:0016209')"  text-anchor="middle" x="3126" y="-162.8" font-family="Times,serif" font-size="14.00">GO:0016209</text></a>
<a xlink:href="http://pir.georgetown.edu/cgi-bin/pt_graphvizView.pl?tofile=423122" ><text id="r423122" onmousemove="changeToText2('r423122', 5)" onmouseout="changeBackText2('r423122', 5)"  text-anchor="middle" x="3126" y="-149.8" font-family="Times,serif" font-size="14.00">(5)</text>
 
</a> 
</g> 
<!-- c0&#45;&gt;t0 --> 
<g id="edge50" class="edge"><title>c0&#45;&gt;t0</title> 
<path fill="none" stroke="black" d="M2784.06,-223.422C2848.16,-213.228 2951.81,-196.346 3041,-180 3047.31,-178.843 3053.88,-177.599 3060.45,-176.33"/> 
<polygon fill="black" stroke="black" points="3061.58,-179.675 3070.72,-174.324 3060.24,-172.805 3061.58,-179.675"/> 
</g> 
<!-- p0 --> 
<g id="node15" class="node"><title>p0</title> 
<ellipse fill="#e98576" stroke="#e98576" cx="248" cy="-18" rx="79.4447" ry="18"/> 
<a xlink:href="http://pir.georgetown.edu/cgi-bin/pt_graphvizView.pl?togoid=0008233" ><text id="GO:0008233" onmousemove="changeToText('GO:0008233')" onmouseout="changeBackText('GO:0008233')"  text-anchor="middle" x="248" y="-18.8" font-family="Times,serif" font-size="14.00">GO:0008233</text></a>
<a xlink:href="http://pir.georgetown.edu/cgi-bin/pt_graphvizView.pl?tofile=423114" ><text id="r423114" onmousemove="changeToText2('r423114', 10)" onmouseout="changeBackText2('r423114', 10)"  text-anchor="middle" x="248" y="-5.8" font-family="Times,serif" font-size="14.00">(10)</text>
 
</a> 
</g> 
<!-- g0&#45;&gt;p0 --> 
<g id="edge12" class="edge"><title>g0&#45;&gt;p0</title> 
<path fill="none" stroke="black" d="M248,-71.6966C248,-63.9827 248,-54.7125 248,-46.1124"/> 
<polygon fill="black" stroke="black" points="251.5,-46.1043 248,-36.1043 244.5,-46.1044 251.5,-46.1043"/> 
</g> 
<!-- g1 --> 
<g id="node48" class="node"><title>g1</title> 
<ellipse fill="#e98576" stroke="#e98576" cx="1969" cy="-18" rx="75.2018" ry="18"/> 
<a xlink:href="http://pir.georgetown.edu/cgi-bin/pt_graphvizView.pl?togoid=0016597" ><text id="GO:0016597" onmousemove="changeToText('GO:0016597')" onmouseout="changeBackText('GO:0016597')"  text-anchor="middle" x="1969" y="-18.8" font-family="Times,serif" font-size="14.00">GO:0016597</text></a>
<a xlink:href="http://pir.georgetown.edu/cgi-bin/pt_graphvizView.pl?tofile=423146" ><text id="r423146" onmousemove="changeToText2('r423146', 1)" onmouseout="changeBackText2('r423146', 1)"  text-anchor="middle" x="1969" y="-5.8" font-family="Times,serif" font-size="14.00">(1)</text>
 
</a> 
</g> 
<!-- h1&#45;&gt;g1 --> 
<g id="edge46" class="edge"><title>h1&#45;&gt;g1</title> 
<path fill="none" stroke="black" d="M1969,-71.6966C1969,-63.9827 1969,-54.7125 1969,-46.1124"/> 
<polygon fill="black" stroke="black" points="1972.5,-46.1043 1969,-36.1043 1965.5,-46.1044 1972.5,-46.1043"/> 
</g> 
<!-- s0 --> 
<g id="node56" class="node"><title>s0</title> 
<ellipse fill="#e98576" stroke="#e98576" cx="604" cy="-18" rx="75.2018" ry="18"/> 
<a xlink:href="http://pir.georgetown.edu/cgi-bin/pt_graphvizView.pl?togoid=0009055" ><text id="GO:0009055" onmousemove="changeToText('GO:0009055')" onmouseout="changeBackText('GO:0009055')"  text-anchor="middle" x="604" y="-18.8" font-family="Times,serif" font-size="14.00">GO:0009055</text></a>
<a xlink:href="http://pir.georgetown.edu/cgi-bin/pt_graphvizView.pl?tofile=423120" ><text id="r423120" onmousemove="changeToText2('r423120', 5)" onmouseout="changeBackText2('r423120', 5)"  text-anchor="middle" x="604" y="-5.8" font-family="Times,serif" font-size="14.00">(5)</text>
 
</a> 
</g> 
<!-- e0&#45;&gt;s0 --> 
<g id="edge54" class="edge"><title>e0&#45;&gt;s0</title> 
<path fill="none" stroke="black" d="M604,-71.6966C604,-63.9827 604,-54.7125 604,-46.1124"/> 
<polygon fill="black" stroke="black" points="607.5,-46.1043 604,-36.1043 600.5,-46.1044 607.5,-46.1043"/> 
</g> 
<!-- e1 --> 
<g id="node37" class="node"><title>e1</title> 
<ellipse fill="#e98576" stroke="#e98576" cx="3844" cy="-90" rx="75.2018" ry="18"/> 
<a xlink:href="http://pir.georgetown.edu/cgi-bin/pt_graphvizView.pl?togoid=0004871" ><text id="GO:0004871" onmousemove="changeToText('GO:0004871')" onmouseout="changeBackText('GO:0004871')"  text-anchor="middle" x="3844" y="-90.8" font-family="Times,serif" font-size="14.00">GO:0004871</text></a>
<a xlink:href="http://pir.georgetown.edu/cgi-bin/pt_graphvizView.pl?tofile=423148" ><text id="r423148" onmousemove="changeToText2('r423148', 1)" onmouseout="changeBackText2('r423148', 1)"  text-anchor="middle" x="3844" y="-77.8" font-family="Times,serif" font-size="14.00">(1)</text>
 
</a> 
</g> 
<!-- d1 --> 
<g id="node39" class="node"><title>d1</title> 
<ellipse fill="#e98576" stroke="#e98576" cx="3844" cy="-18" rx="75.2018" ry="18"/> 
<a xlink:href="http://pir.georgetown.edu/cgi-bin/pt_graphvizView.pl?togoid=0004872" ><text id="GO:0004872" onmousemove="changeToText('GO:0004872')" onmouseout="changeBackText('GO:0004872')"  text-anchor="middle" x="3844" y="-18.8" font-family="Times,serif" font-size="14.00">GO:0004872</text></a>
<a xlink:href="http://pir.georgetown.edu/cgi-bin/pt_graphvizView.pl?tofile=423144" ><text id="r423144" onmousemove="changeToText2('r423144', 1)" onmouseout="changeBackText2('r423144', 1)"  text-anchor="middle" x="3844" y="-5.8" font-family="Times,serif" font-size="14.00">(1)</text>
 
</a> 
</g> 
<!-- e1&#45;&gt;d1 --> 
<g id="edge36" class="edge"><title>e1&#45;&gt;d1</title> 
<path fill="none" stroke="black" d="M3844,-71.6966C3844,-63.9827 3844,-54.7125 3844,-46.1124"/> 
<polygon fill="black" stroke="black" points="3847.5,-46.1043 3844,-36.1043 3840.5,-46.1044 3847.5,-46.1043"/> 
</g> 
<!-- f1&#45;&gt;e1 --> 
<g id="edge48" class="edge"><title>f1&#45;&gt;e1</title> 
<path fill="none" stroke="black" d="M3014.69,-149.201C3023.66,-147.156 3033.09,-145.279 3042,-144 3358.27,-98.6062 3442.98,-147.8 3760,-108 3766.84,-107.141 3773.96,-106.035 3781.04,-104.801"/> 
<polygon fill="black" stroke="black" points="3782.12,-108.16 3791.32,-102.914 3780.86,-101.275 3782.12,-108.16"/> 
</g> 
</g> 
<text text-anchor="left" x="4" y="-20" style="font-family:Arial Narrow;font-size:20.00;font-weight:bold;">GO Hierarchical View:</text> 

<text text-anchor="left" x="4" y="0" style="font-family:Arial Narrow;font-size:20.00;font-style:italic;">molecular function</text> 

<script type="text/ecmascript"> 
<![CDATA[ 
var targetText; 
function changeToText(z) { 
		targetText = svgDocument.getElementById(z).firstChild; 
		targetText.nodeValue="link to "+z; 
} 
function changeBackText(z) { 
		targetText = svgDocument.getElementById(z).firstChild; 
		targetText.nodeValue=z; 
} 
function changeToText2(z,n) { 
		targetText = svgDocument.getElementById(z).firstChild; 
		if (n<=1) { 
			targetText.nodeValue="link to " + n + " protein record"; 
		} else { 
			targetText.nodeValue="link to " + n + " protein records"; 
		} 
} 
function changeBackText2(z,n) { 
		targetText = svgDocument.getElementById(z).firstChild; 
		targetText.nodeValue="(" + n + ")"; 
} 
// ]]> 
</script> 
</svg> 
