<?xml version="1.0" encoding="UTF-8" standalone="no"?> 
<!DOCTYPE svg PUBLIC "-//W3C//DTD SVG 1.1//EN" 
 "http://www.w3.org/Graphics/SVG/1.1/DTD/svg11.dtd"> 
<!-- Generated by graphviz version 2.28.0 (20110622.2320) 
 --> 
<!-- Title: G Pages: 1 --> 
<svg width="2000" height="1000"  
 viewBox="-30 -50 2000 1000" xmlns="http://www.w3.org/2000/svg" xmlns:xlink="http://www.w3.org/1999/xlink"> 
<g id="graph1" class="graph" transform="scale(1 1) rotate(0) translate(4 256)"> 
<title>G</title> 
<polygon fill="white" stroke="white" points="-4,5 -4,-256 3043,-256 3043,5 -4,5"/> 
<!-- i0 --> 
<g id="node1" class="node"><title>i0</title> 
<ellipse fill="#e98576" stroke="#e98576" cx="673" cy="-162" rx="79.4447" ry="18"/> 
<a xlink:href="http://pir.georgetown.edu/cgi-bin/pt_graphvizView.pl?togoid=0003824" ><text id="GO:0003824" onmousemove="changeToText('GO:0003824')" onmouseout="changeBackText('GO:0003824')"  text-anchor="middle" x="673" y="-162.8" font-family="Times,serif" font-size="14.00">GO:0003824</text></a>
<a xlink:href="http://pir.georgetown.edu/cgi-bin/pt_graphvizView.pl?tofile=246346" ><text id="r246346" onmousemove="changeToText2('r246346', 10)" onmouseout="changeBackText2('r246346', 10)"  text-anchor="middle" x="673" y="-149.8" font-family="Times,serif" font-size="14.00">(10)</text>
 
</a> 
</g> 
<!-- t0 --> 
<g id="node3" class="node"><title>t0</title> 
<ellipse fill="#e98576" stroke="#e98576" cx="75" cy="-90" rx="75.2018" ry="18"/> 
<a xlink:href="http://pir.georgetown.edu/cgi-bin/pt_graphvizView.pl?togoid=0016853" ><text id="GO:0016853" onmousemove="changeToText('GO:0016853')" onmouseout="changeBackText('GO:0016853')"  text-anchor="middle" x="75" y="-90.8" font-family="Times,serif" font-size="14.00">GO:0016853</text></a>
<a xlink:href="http://pir.georgetown.edu/cgi-bin/pt_graphvizView.pl?tofile=246370" ><text id="r246370" onmousemove="changeToText2('r246370', 1)" onmouseout="changeBackText2('r246370', 1)"  text-anchor="middle" x="75" y="-77.8" font-family="Times,serif" font-size="14.00">(1)</text>
 
</a> 
</g> 
<!-- i0&#45;&gt;t0 --> 
<g id="edge2" class="edge"><title>i0&#45;&gt;t0</title> 
<path fill="none" stroke="black" d="M598.66,-155.609C498.452,-147.824 314.643,-131.717 159,-108 152.379,-106.991 145.488,-105.811 138.629,-104.552"/> 
<polygon fill="black" stroke="black" points="139.112,-101.081 128.636,-102.661 137.81,-107.959 139.112,-101.081"/> 
</g> 
<!-- h0 --> 
<g id="node27" class="node"><title>h0</title> 
<ellipse fill="#e98576" stroke="#e98576" cx="248" cy="-90" rx="79.4447" ry="18"/> 
<a xlink:href="http://pir.georgetown.edu/cgi-bin/pt_graphvizView.pl?togoid=0016787" ><text id="GO:0016787" onmousemove="changeToText('GO:0016787')" onmouseout="changeBackText('GO:0016787')"  text-anchor="middle" x="248" y="-90.8" font-family="Times,serif" font-size="14.00">GO:0016787</text></a>
<a xlink:href="http://pir.georgetown.edu/cgi-bin/pt_graphvizView.pl?tofile=246344" ><text id="r246344" onmousemove="changeToText2('r246344', 10)" onmouseout="changeBackText2('r246344', 10)"  text-anchor="middle" x="248" y="-77.8" font-family="Times,serif" font-size="14.00">(10)</text>
 
</a> 
</g> 
<!-- i0&#45;&gt;h0 --> 
<g id="edge26" class="edge"><title>i0&#45;&gt;h0</title> 
<path fill="none" stroke="black" d="M608.484,-151.456C540.764,-141.29 431.247,-124.43 337,-108 330.336,-106.838 323.4,-105.587 316.471,-104.31"/> 
<polygon fill="black" stroke="black" points="316.829,-100.816 306.357,-102.426 315.547,-107.698 316.829,-100.816"/> 
</g> 
<!-- l0 --> 
<g id="node28" class="node"><title>l0</title> 
<ellipse fill="#e98576" stroke="#e98576" cx="421" cy="-90" rx="75.2018" ry="18"/> 
<a xlink:href="http://pir.georgetown.edu/cgi-bin/pt_graphvizView.pl?togoid=0016491" ><text id="GO:0016491" onmousemove="changeToText('GO:0016491')" onmouseout="changeBackText('GO:0016491')"  text-anchor="middle" x="421" y="-90.8" font-family="Times,serif" font-size="14.00">GO:0016491</text></a>
<a xlink:href="http://pir.georgetown.edu/cgi-bin/pt_graphvizView.pl?tofile=246352" ><text id="r246352" onmousemove="changeToText2('r246352', 6)" onmouseout="changeBackText2('r246352', 6)"  text-anchor="middle" x="421" y="-77.8" font-family="Times,serif" font-size="14.00">(6)</text>
 
</a> 
</g> 
<!-- i0&#45;&gt;l0 --> 
<g id="edge40" class="edge"><title>i0&#45;&gt;l0</title> 
<path fill="none" stroke="black" d="M624.71,-147.586C582.857,-135.96 522.237,-119.121 478.011,-106.836"/> 
<polygon fill="black" stroke="black" points="478.845,-103.436 468.273,-104.131 476.971,-110.18 478.845,-103.436"/> 
</g> 
<!-- j0 --> 
<g id="node34" class="node"><title>j0</title> 
<ellipse fill="#e98576" stroke="#e98576" cx="589" cy="-90" rx="75.2018" ry="18"/> 
<a xlink:href="http://pir.georgetown.edu/cgi-bin/pt_graphvizView.pl?togoid=0016740" ><text id="GO:0016740" onmousemove="changeToText('GO:0016740')" onmouseout="changeBackText('GO:0016740')"  text-anchor="middle" x="589" y="-90.8" font-family="Times,serif" font-size="14.00">GO:0016740</text></a>
<a xlink:href="http://pir.georgetown.edu/cgi-bin/pt_graphvizView.pl?tofile=246348" ><text id="r246348" onmousemove="changeToText2('r246348', 7)" onmouseout="changeBackText2('r246348', 7)"  text-anchor="middle" x="589" y="-77.8" font-family="Times,serif" font-size="14.00">(7)</text>
 
</a> 
</g> 
<!-- i0&#45;&gt;j0 --> 
<g id="edge32" class="edge"><title>i0&#45;&gt;j0</title> 
<path fill="none" stroke="black" d="M653.093,-144.411C642.214,-135.345 628.569,-123.974 616.669,-114.057"/> 
<polygon fill="black" stroke="black" points="618.687,-111.183 608.764,-107.47 614.206,-116.561 618.687,-111.183"/> 
</g> 
<!-- p0 --> 
<g id="node36" class="node"><title>p0</title> 
<ellipse fill="#e98576" stroke="#e98576" cx="757" cy="-90" rx="75.2018" ry="18"/> 
<a xlink:href="http://pir.georgetown.edu/cgi-bin/pt_graphvizView.pl?togoid=0016874" ><text id="GO:0016874" onmousemove="changeToText('GO:0016874')" onmouseout="changeBackText('GO:0016874')"  text-anchor="middle" x="757" y="-90.8" font-family="Times,serif" font-size="14.00">GO:0016874</text></a>
<a xlink:href="http://pir.georgetown.edu/cgi-bin/pt_graphvizView.pl?tofile=246360" ><text id="r246360" onmousemove="changeToText2('r246360', 2)" onmouseout="changeBackText2('r246360', 2)"  text-anchor="middle" x="757" y="-77.8" font-family="Times,serif" font-size="14.00">(2)</text>
 
</a> 
</g> 
<!-- i0&#45;&gt;p0 --> 
<g id="edge34" class="edge"><title>i0&#45;&gt;p0</title> 
<path fill="none" stroke="black" d="M692.907,-144.411C703.786,-135.345 717.431,-123.974 729.331,-114.057"/> 
<polygon fill="black" stroke="black" points="731.794,-116.561 737.236,-107.47 727.313,-111.183 731.794,-116.561"/> 
</g> 
<!-- m0 --> 
<g id="node47" class="node"><title>m0</title> 
<ellipse fill="#e98576" stroke="#e98576" cx="925" cy="-90" rx="75.2018" ry="18"/> 
<a xlink:href="http://pir.georgetown.edu/cgi-bin/pt_graphvizView.pl?togoid=0016829" ><text id="GO:0016829" onmousemove="changeToText('GO:0016829')" onmouseout="changeBackText('GO:0016829')"  text-anchor="middle" x="925" y="-90.8" font-family="Times,serif" font-size="14.00">GO:0016829</text></a>
<a xlink:href="http://pir.georgetown.edu/cgi-bin/pt_graphvizView.pl?tofile=246354" ><text id="r246354" onmousemove="changeToText2('r246354', 3)" onmouseout="changeBackText2('r246354', 3)"  text-anchor="middle" x="925" y="-77.8" font-family="Times,serif" font-size="14.00">(3)</text>
 
</a> 
</g> 
<!-- i0&#45;&gt;m0 --> 
<g id="edge46" class="edge"><title>i0&#45;&gt;m0</title> 
<path fill="none" stroke="black" d="M721.29,-147.586C763.143,-135.96 823.763,-119.121 867.989,-106.836"/> 
<polygon fill="black" stroke="black" points="869.029,-110.18 877.727,-104.131 867.155,-103.436 869.029,-110.18"/> 
</g> 
<!-- q0 --> 
<g id="node49" class="node"><title>q0</title> 
<ellipse fill="#e98576" stroke="#e98576" cx="1093" cy="-90" rx="75.2018" ry="18"/> 
<a xlink:href="http://pir.georgetown.edu/cgi-bin/pt_graphvizView.pl?togoid=0004386" ><text id="GO:0004386" onmousemove="changeToText('GO:0004386')" onmouseout="changeBackText('GO:0004386')"  text-anchor="middle" x="1093" y="-90.8" font-family="Times,serif" font-size="14.00">GO:0004386</text></a>
<a xlink:href="http://pir.georgetown.edu/cgi-bin/pt_graphvizView.pl?tofile=246362" ><text id="r246362" onmousemove="changeToText2('r246362', 2)" onmouseout="changeBackText2('r246362', 2)"  text-anchor="middle" x="1093" y="-77.8" font-family="Times,serif" font-size="14.00">(2)</text>
 
</a> 
</g> 
<!-- i0&#45;&gt;q0 --> 
<g id="edge48" class="edge"><title>i0&#45;&gt;q0</title> 
<path fill="none" stroke="black" d="M738.181,-151.572C805.979,-141.565 915.135,-124.893 1009,-108 1015.25,-106.876 1021.74,-105.654 1028.23,-104.399"/> 
<polygon fill="black" stroke="black" points="1029.25,-107.766 1038.39,-102.408 1027.9,-100.897 1029.25,-107.766"/> 
</g> 
<!-- c0 --> 
<g id="node4" class="node"><title>c0</title> 
<ellipse fill="#e98576" stroke="#e98576" cx="2093" cy="-234" rx="75.2018" ry="18"/> 
<a xlink:href="http://pir.georgetown.edu/cgi-bin/pt_graphvizView.pl?togoid=0003674" ><text id="GO:0003674" onmousemove="changeToText('GO:0003674')" onmouseout="changeBackText('GO:0003674')"  text-anchor="middle" x="2093" y="-234.8" font-family="Times,serif" font-size="14.00">GO:0003674</text></a>
<a xlink:href="http://pir.georgetown.edu/cgi-bin/pt_graphvizView.pl?tofile=246366" ><text id="r246366" onmousemove="changeToText2('r246366', 2)" onmouseout="changeBackText2('r246366', 2)"  text-anchor="middle" x="2093" y="-221.8" font-family="Times,serif" font-size="14.00">(2)</text>
 
</a> 
</g> 
<!-- c0&#45;&gt;i0 --> 
<g id="edge8" class="edge"><title>c0&#45;&gt;i0</title> 
<path fill="none" stroke="black" d="M2020.14,-229.408C1780.71,-217.606 1018.75,-180.044 759.967,-167.287"/> 
<polygon fill="black" stroke="black" points="760.027,-163.786 749.867,-166.789 759.682,-170.777 760.027,-163.786"/> 
</g> 
<!-- s0 --> 
<g id="node6" class="node"><title>s0</title> 
<ellipse fill="#e98576" stroke="#e98576" cx="1861" cy="-162" rx="75.2018" ry="18"/> 
<a xlink:href="http://pir.georgetown.edu/cgi-bin/pt_graphvizView.pl?togoid=0030234" ><text id="GO:0030234" onmousemove="changeToText('GO:0030234')" onmouseout="changeBackText('GO:0030234')"  text-anchor="middle" x="1861" y="-162.8" font-family="Times,serif" font-size="14.00">GO:0030234</text></a>
<a xlink:href="http://pir.georgetown.edu/cgi-bin/pt_graphvizView.pl?tofile=246368" ><text id="r246368" onmousemove="changeToText2('r246368', 1)" onmouseout="changeBackText2('r246368', 1)"  text-anchor="middle" x="1861" y="-149.8" font-family="Times,serif" font-size="14.00">(1)</text>
 
</a> 
</g> 
<!-- c0&#45;&gt;s0 --> 
<g id="edge4" class="edge"><title>c0&#45;&gt;s0</title> 
<path fill="none" stroke="black" d="M2048.27,-219.503C2010.44,-208.089 1956.09,-191.692 1915.68,-179.5"/> 
<polygon fill="black" stroke="black" points="1916.57,-176.112 1905.99,-176.575 1914.55,-182.814 1916.57,-176.112"/> 
</g> 
<!-- b0 --> 
<g id="node7" class="node"><title>b0</title> 
<a xlink:href="http://pir.georgetown.edu/cgi-bin/pt_graphvizView.pl?togoid=0005488" > 
<ellipse fill="#dddddd" stroke="#dddddd" cx="2016" cy="-162" rx="61.1934" ry="18"/> 
<a xlink:href="http://pir.georgetown.edu/cgi-bin/pt_graphvizView.pl?togoid=0005488" ><text id="GO:0005488" onmousemove="changeToText('GO:0005488')" onmouseout="changeBackText('GO:0005488')"  text-anchor="middle" x="2016" y="-157.8" font-family="Times,serif" font-size="14.00">GO:0005488</text></a>
 
</a> 
</g> 
<!-- c0&#45;&gt;b0 --> 
<g id="edge16" class="edge"><title>c0&#45;&gt;b0</title> 
<path fill="none" stroke="black" d="M2074.75,-216.411C2064.8,-207.367 2052.33,-196.03 2041.44,-186.13"/> 
<polygon fill="black" stroke="black" points="2043.61,-183.365 2033.85,-179.228 2038.9,-188.545 2043.61,-183.365"/> 
</g> 
<!-- v0 --> 
<g id="node20" class="node"><title>v0</title> 
<ellipse fill="#e98576" stroke="#e98576" cx="2171" cy="-162" rx="75.2018" ry="18"/> 
<a xlink:href="http://pir.georgetown.edu/cgi-bin/pt_graphvizView.pl?togoid=0016209" ><text id="GO:0016209" onmousemove="changeToText('GO:0016209')" onmouseout="changeBackText('GO:0016209')"  text-anchor="middle" x="2171" y="-162.8" font-family="Times,serif" font-size="14.00">GO:0016209</text></a>
<a xlink:href="http://pir.georgetown.edu/cgi-bin/pt_graphvizView.pl?tofile=246374" ><text id="r246374" onmousemove="changeToText2('r246374', 1)" onmouseout="changeBackText2('r246374', 1)"  text-anchor="middle" x="2171" y="-149.8" font-family="Times,serif" font-size="14.00">(1)</text>
 
</a> 
</g> 
<!-- c0&#45;&gt;v0 --> 
<g id="edge18" class="edge"><title>c0&#45;&gt;v0</title> 
<path fill="none" stroke="black" d="M2111.48,-216.411C2121.49,-207.432 2134.01,-196.193 2144.99,-186.344"/> 
<polygon fill="black" stroke="black" points="2147.54,-188.754 2152.65,-179.47 2142.87,-183.544 2147.54,-188.754"/> 
</g> 
<!-- n0 --> 
<g id="node22" class="node"><title>n0</title> 
<ellipse fill="#e98576" stroke="#e98576" cx="2339" cy="-162" rx="75.2018" ry="18"/> 
<a xlink:href="http://pir.georgetown.edu/cgi-bin/pt_graphvizView.pl?togoid=0005215" ><text id="GO:0005215" onmousemove="changeToText('GO:0005215')" onmouseout="changeBackText('GO:0005215')"  text-anchor="middle" x="2339" y="-162.8" font-family="Times,serif" font-size="14.00">GO:0005215</text></a>
<a xlink:href="http://pir.georgetown.edu/cgi-bin/pt_graphvizView.pl?tofile=246356" ><text id="r246356" onmousemove="changeToText2('r246356', 3)" onmouseout="changeBackText2('r246356', 3)"  text-anchor="middle" x="2339" y="-149.8" font-family="Times,serif" font-size="14.00">(3)</text>
 
</a> 
</g> 
<!-- c0&#45;&gt;n0 --> 
<g id="edge20" class="edge"><title>c0&#45;&gt;n0</title> 
<path fill="none" stroke="black" d="M2139.56,-219.751C2180.27,-208.168 2239.48,-191.319 2282.81,-178.989"/> 
<polygon fill="black" stroke="black" points="2283.97,-182.298 2292.63,-176.195 2282.05,-175.565 2283.97,-182.298"/> 
</g> 
<!-- k0 --> 
<g id="node45" class="node"><title>k0</title> 
<ellipse fill="#e98576" stroke="#e98576" cx="2507" cy="-162" rx="75.2018" ry="18"/> 
<a xlink:href="http://pir.georgetown.edu/cgi-bin/pt_graphvizView.pl?togoid=0005198" ><text id="GO:0005198" onmousemove="changeToText('GO:0005198')" onmouseout="changeBackText('GO:0005198')"  text-anchor="middle" x="2507" y="-162.8" font-family="Times,serif" font-size="14.00">GO:0005198</text></a>
<a xlink:href="http://pir.georgetown.edu/cgi-bin/pt_graphvizView.pl?tofile=246350" ><text id="r246350" onmousemove="changeToText2('r246350', 6)" onmouseout="changeBackText2('r246350', 6)"  text-anchor="middle" x="2507" y="-149.8" font-family="Times,serif" font-size="14.00">(6)</text>
 
</a> 
</g> 
<!-- c0&#45;&gt;k0 --> 
<g id="edge44" class="edge"><title>c0&#45;&gt;k0</title> 
<path fill="none" stroke="black" d="M2155.17,-223.783C2221.6,-213.753 2329.94,-196.883 2423,-180 2429.24,-178.867 2435.74,-177.64 2442.23,-176.381"/> 
<polygon fill="black" stroke="black" points="2443.25,-179.748 2452.39,-174.386 2441.9,-172.879 2443.25,-179.748"/> 
</g> 
<!-- r0 --> 
<g id="node9" class="node"><title>r0</title> 
<ellipse fill="#e98576" stroke="#e98576" cx="1261" cy="-90" rx="75.2018" ry="18"/> 
<a xlink:href="http://pir.georgetown.edu/cgi-bin/pt_graphvizView.pl?togoid=0008289" ><text id="GO:0008289" onmousemove="changeToText('GO:0008289')" onmouseout="changeBackText('GO:0008289')"  text-anchor="middle" x="1261" y="-90.8" font-family="Times,serif" font-size="14.00">GO:0008289</text></a>
<a xlink:href="http://pir.georgetown.edu/cgi-bin/pt_graphvizView.pl?tofile=246364" ><text id="r246364" onmousemove="changeToText2('r246364', 2)" onmouseout="changeBackText2('r246364', 2)"  text-anchor="middle" x="1261" y="-77.8" font-family="Times,serif" font-size="14.00">(2)</text>
 
</a> 
</g> 
<!-- b0&#45;&gt;r0 --> 
<g id="edge6" class="edge"><title>b0&#45;&gt;r0</title> 
<path fill="none" stroke="black" d="M1972.3,-149.269C1963.33,-147.219 1953.9,-145.322 1945,-144 1680.75,-104.747 1609.9,-142.58 1345,-108 1338.16,-107.107 1331.04,-105.98 1323.97,-104.733"/> 
<polygon fill="black" stroke="black" points="1324.16,-101.208 1313.69,-102.833 1322.88,-108.091 1324.16,-101.208"/> 
</g> 
<!-- g0 --> 
<g id="node12" class="node"><title>g0</title> 
<ellipse fill="#e98576" stroke="#e98576" cx="1434" cy="-90" rx="79.4447" ry="18"/> 
<a xlink:href="http://pir.georgetown.edu/cgi-bin/pt_graphvizView.pl?togoid=0005515" ><text id="GO:0005515" onmousemove="changeToText('GO:0005515')" onmouseout="changeBackText('GO:0005515')"  text-anchor="middle" x="1434" y="-90.8" font-family="Times,serif" font-size="14.00">GO:0005515</text></a>
<a xlink:href="http://pir.georgetown.edu/cgi-bin/pt_graphvizView.pl?tofile=246342" ><text id="r246342" onmousemove="changeToText2('r246342', 11)" onmouseout="changeBackText2('r246342', 11)"  text-anchor="middle" x="1434" y="-77.8" font-family="Times,serif" font-size="14.00">(11)</text>
 
</a> 
</g> 
<!-- b0&#45;&gt;g0 --> 
<g id="edge10" class="edge"><title>b0&#45;&gt;g0</title> 
<path fill="none" stroke="black" d="M1971.89,-149.357C1963.04,-147.326 1953.76,-145.414 1945,-144 1759.17,-114 1709.48,-133.693 1523,-108 1515.82,-107.011 1508.35,-105.827 1500.91,-104.552"/> 
<polygon fill="black" stroke="black" points="1501.29,-101.064 1490.83,-102.764 1500.06,-107.956 1501.29,-101.064"/> 
</g> 
<!-- e0 --> 
<g id="node14" class="node"><title>e0</title> 
<ellipse fill="#e98576" stroke="#e98576" cx="1612" cy="-90" rx="79.4447" ry="18"/> 
<a xlink:href="http://pir.georgetown.edu/cgi-bin/pt_graphvizView.pl?togoid=0001882" ><text id="GO:0001882" onmousemove="changeToText('GO:0001882')" onmouseout="changeBackText('GO:0001882')"  text-anchor="middle" x="1612" y="-90.8" font-family="Times,serif" font-size="14.00">GO:0001882</text></a>
<a xlink:href="http://pir.georgetown.edu/cgi-bin/pt_graphvizView.pl?tofile=246338" ><text id="r246338" onmousemove="changeToText2('r246338', 13)" onmouseout="changeBackText2('r246338', 13)"  text-anchor="middle" x="1612" y="-77.8" font-family="Times,serif" font-size="14.00">(13)</text>
 
</a> 
</g> 
<!-- b0&#45;&gt;e0 --> 
<g id="edge12" class="edge"><title>b0&#45;&gt;e0</title> 
<path fill="none" stroke="black" d="M1971.06,-149.605C1962.44,-147.6 1953.46,-145.634 1945,-144 1837.37,-123.217 1809.08,-126.287 1701,-108 1694.23,-106.854 1687.17,-105.604 1680.13,-104.319"/> 
<polygon fill="black" stroke="black" points="1680.33,-100.797 1669.86,-102.42 1679.06,-107.68 1680.33,-100.797"/> 
</g> 
<!-- x0 --> 
<g id="node15" class="node"><title>x0</title> 
<a xlink:href="http://pir.georgetown.edu/cgi-bin/pt_graphvizView.pl?togoid=0043176" > 
<ellipse fill="#dddddd" stroke="#dddddd" cx="1771" cy="-90" rx="61.1934" ry="18"/> 
<a xlink:href="http://pir.georgetown.edu/cgi-bin/pt_graphvizView.pl?togoid=0043176" ><text id="GO:0043176" onmousemove="changeToText('GO:0043176')" onmouseout="changeBackText('GO:0043176')"  text-anchor="middle" x="1771" y="-85.8" font-family="Times,serif" font-size="14.00">GO:0043176</text></a>
 
</a> 
</g> 
<!-- b0&#45;&gt;x0 --> 
<g id="edge24" class="edge"><title>b0&#45;&gt;x0</title> 
<path fill="none" stroke="black" d="M1973.6,-148.887C1931.84,-136.954 1867.96,-118.702 1823.12,-105.89"/> 
<polygon fill="black" stroke="black" points="1823.86,-102.464 1813.29,-103.082 1821.94,-109.195 1823.86,-102.464"/> 
</g> 
<!-- a0 --> 
<g id="node24" class="node"><title>a0</title> 
<ellipse fill="#e98576" stroke="#e98576" cx="1930" cy="-90" rx="79.4447" ry="18"/> 
<a xlink:href="http://pir.georgetown.edu/cgi-bin/pt_graphvizView.pl?togoid=0043167" ><text id="GO:0043167" onmousemove="changeToText('GO:0043167')" onmouseout="changeBackText('GO:0043167')"  text-anchor="middle" x="1930" y="-90.8" font-family="Times,serif" font-size="14.00">GO:0043167</text></a>
<a xlink:href="http://pir.georgetown.edu/cgi-bin/pt_graphvizView.pl?tofile=246334" ><text id="r246334" onmousemove="changeToText2('r246334', 25)" onmouseout="changeBackText2('r246334', 25)"  text-anchor="middle" x="1930" y="-77.8" font-family="Times,serif" font-size="14.00">(25)</text>
 
</a> 
</g> 
<!-- b0&#45;&gt;a0 --> 
<g id="edge22" class="edge"><title>b0&#45;&gt;a0</title> 
<path fill="none" stroke="black" d="M1996.05,-144.765C1984.82,-135.621 1970.6,-124.05 1958.24,-113.988"/> 
<polygon fill="black" stroke="black" points="1960.4,-111.232 1950.44,-107.633 1955.98,-116.661 1960.4,-111.232"/> 
</g> 
<!-- a1 --> 
<g id="node32" class="node"><title>a1</title> 
<ellipse fill="#e98576" stroke="#e98576" cx="2103" cy="-90" rx="75.2018" ry="18"/> 
<a xlink:href="http://pir.georgetown.edu/cgi-bin/pt_graphvizView.pl?togoid=0030246" ><text id="GO:0030246" onmousemove="changeToText('GO:0030246')" onmouseout="changeBackText('GO:0030246')"  text-anchor="middle" x="2103" y="-90.8" font-family="Times,serif" font-size="14.00">GO:0030246</text></a>
<a xlink:href="http://pir.georgetown.edu/cgi-bin/pt_graphvizView.pl?tofile=246382" ><text id="r246382" onmousemove="changeToText2('r246382', 1)" onmouseout="changeBackText2('r246382', 1)"  text-anchor="middle" x="2103" y="-77.8" font-family="Times,serif" font-size="14.00">(1)</text>
 
</a> 
</g> 
<!-- b0&#45;&gt;a1 --> 
<g id="edge30" class="edge"><title>b0&#45;&gt;a1</title> 
<path fill="none" stroke="black" d="M2036.18,-144.765C2047.63,-135.554 2062.13,-123.882 2074.7,-113.769"/> 
<polygon fill="black" stroke="black" points="2077.03,-116.386 2082.63,-107.39 2072.64,-110.932 2077.03,-116.386"/> 
</g> 
<!-- f0 --> 
<g id="node38" class="node"><title>f0</title> 
<ellipse fill="#e98576" stroke="#e98576" cx="2276" cy="-90" rx="79.4447" ry="18"/> 
<a xlink:href="http://pir.georgetown.edu/cgi-bin/pt_graphvizView.pl?togoid=0003676" ><text id="GO:0003676" onmousemove="changeToText('GO:0003676')" onmouseout="changeBackText('GO:0003676')"  text-anchor="middle" x="2276" y="-90.8" font-family="Times,serif" font-size="14.00">GO:0003676</text></a>
<a xlink:href="http://pir.georgetown.edu/cgi-bin/pt_graphvizView.pl?tofile=246340" ><text id="r246340" onmousemove="changeToText2('r246340', 12)" onmouseout="changeBackText2('r246340', 12)"  text-anchor="middle" x="2276" y="-77.8" font-family="Times,serif" font-size="14.00">(12)</text>
 
</a> 
</g> 
<!-- b0&#45;&gt;f0 --> 
<g id="edge36" class="edge"><title>b0&#45;&gt;f0</title> 
<path fill="none" stroke="black" d="M2059.52,-149.284C2102.71,-137.656 2169.2,-119.754 2217.1,-106.859"/> 
<polygon fill="black" stroke="black" points="2218.27,-110.166 2227.02,-104.187 2216.45,-103.407 2218.27,-110.166"/> 
</g> 
<!-- y0 --> 
<g id="node40" class="node"><title>y0</title> 
<ellipse fill="#e98576" stroke="#e98576" cx="2449" cy="-90" rx="75.2018" ry="18"/> 
<a xlink:href="http://pir.georgetown.edu/cgi-bin/pt_graphvizView.pl?togoid=0046906" ><text id="GO:0046906" onmousemove="changeToText('GO:0046906')" onmouseout="changeBackText('GO:0046906')"  text-anchor="middle" x="2449" y="-90.8" font-family="Times,serif" font-size="14.00">GO:0046906</text></a>
<a xlink:href="http://pir.georgetown.edu/cgi-bin/pt_graphvizView.pl?tofile=246378" ><text id="r246378" onmousemove="changeToText2('r246378', 1)" onmouseout="changeBackText2('r246378', 1)"  text-anchor="middle" x="2449" y="-77.8" font-family="Times,serif" font-size="14.00">(1)</text>
 
</a> 
</g> 
<!-- b0&#45;&gt;y0 --> 
<g id="edge38" class="edge"><title>b0&#45;&gt;y0</title> 
<path fill="none" stroke="black" d="M2060.54,-149.575C2069.28,-147.549 2078.4,-145.584 2087,-144 2209.09,-121.515 2241.51,-128.185 2364,-108 2370.68,-106.899 2377.65,-105.659 2384.58,-104.363"/> 
<polygon fill="black" stroke="black" points="2385.52,-107.747 2394.69,-102.435 2384.21,-100.871 2385.52,-107.747"/> 
</g> 
<!-- d0 --> 
<g id="node43" class="node"><title>d0</title> 
<ellipse fill="#e98576" stroke="#e98576" cx="2622" cy="-90" rx="79.4447" ry="18"/> 
<a xlink:href="http://pir.georgetown.edu/cgi-bin/pt_graphvizView.pl?togoid=0000166" ><text id="GO:0000166" onmousemove="changeToText('GO:0000166')" onmouseout="changeBackText('GO:0000166')"  text-anchor="middle" x="2622" y="-90.8" font-family="Times,serif" font-size="14.00">GO:0000166</text></a>
<a xlink:href="http://pir.georgetown.edu/cgi-bin/pt_graphvizView.pl?tofile=246336" ><text id="r246336" onmousemove="changeToText2('r246336', 16)" onmouseout="changeBackText2('r246336', 16)"  text-anchor="middle" x="2622" y="-77.8" font-family="Times,serif" font-size="14.00">(16)</text>
 
</a> 
</g> 
<!-- b0&#45;&gt;d0 --> 
<g id="edge42" class="edge"><title>b0&#45;&gt;d0</title> 
<path fill="none" stroke="black" d="M2060.1,-149.326C2068.96,-147.297 2078.24,-145.394 2087,-144 2283.4,-112.753 2335.93,-134.695 2533,-108 2540.37,-107.002 2548.05,-105.792 2555.68,-104.484"/> 
<polygon fill="black" stroke="black" points="2556.42,-107.908 2565.65,-102.716 2555.2,-101.016 2556.42,-107.908"/> 
</g> 
<!-- z0 --> 
<g id="node51" class="node"><title>z0</title> 
<ellipse fill="#e98576" stroke="#e98576" cx="2795" cy="-90" rx="75.2018" ry="18"/> 
<a xlink:href="http://pir.georgetown.edu/cgi-bin/pt_graphvizView.pl?togoid=0003682" ><text id="GO:0003682" onmousemove="changeToText('GO:0003682')" onmouseout="changeBackText('GO:0003682')"  text-anchor="middle" x="2795" y="-90.8" font-family="Times,serif" font-size="14.00">GO:0003682</text></a>
<a xlink:href="http://pir.georgetown.edu/cgi-bin/pt_graphvizView.pl?tofile=246380" ><text id="r246380" onmousemove="changeToText2('r246380', 1)" onmouseout="changeBackText2('r246380', 1)"  text-anchor="middle" x="2795" y="-77.8" font-family="Times,serif" font-size="14.00">(1)</text>
 
</a> 
</g> 
<!-- b0&#45;&gt;z0 --> 
<g id="edge50" class="edge"><title>b0&#45;&gt;z0</title> 
<path fill="none" stroke="black" d="M2059.7,-149.254C2068.67,-147.205 2078.1,-145.312 2087,-144 2361.39,-103.55 2434.9,-143.282 2710,-108 2717.08,-107.092 2724.46,-105.937 2731.77,-104.657"/> 
<polygon fill="black" stroke="black" points="2732.48,-108.087 2741.68,-102.846 2731.22,-101.201 2732.48,-108.087"/> 
</g> 
<!-- o0 --> 
<g id="node53" class="node"><title>o0</title> 
<ellipse fill="#e98576" stroke="#e98576" cx="2963" cy="-90" rx="75.2018" ry="18"/> 
<a xlink:href="http://pir.georgetown.edu/cgi-bin/pt_graphvizView.pl?togoid=0048037" ><text id="GO:0048037" onmousemove="changeToText('GO:0048037')" onmouseout="changeBackText('GO:0048037')"  text-anchor="middle" x="2963" y="-90.8" font-family="Times,serif" font-size="14.00">GO:0048037</text></a>
<a xlink:href="http://pir.georgetown.edu/cgi-bin/pt_graphvizView.pl?tofile=246358" ><text id="r246358" onmousemove="changeToText2('r246358', 3)" onmouseout="changeBackText2('r246358', 3)"  text-anchor="middle" x="2963" y="-77.8" font-family="Times,serif" font-size="14.00">(3)</text>
 
</a> 
</g> 
<!-- b0&#45;&gt;o0 --> 
<g id="edge52" class="edge"><title>b0&#45;&gt;o0</title> 
<path fill="none" stroke="black" d="M2059.31,-149.254C2068.39,-147.178 2077.96,-145.275 2087,-144 2435.91,-94.7541 2529.28,-151.075 2879,-108 2885.85,-107.157 2892.97,-106.061 2900.04,-104.833"/> 
<polygon fill="black" stroke="black" points="2901.12,-108.193 2910.33,-102.952 2899.86,-101.307 2901.12,-108.193"/> 
</g> 
<!-- w0 --> 
<g id="node17" class="node"><title>w0</title> 
<ellipse fill="#e98576" stroke="#e98576" cx="1771" cy="-18" rx="75.2018" ry="18"/> 
<a xlink:href="http://pir.georgetown.edu/cgi-bin/pt_graphvizView.pl?togoid=0016597" ><text id="GO:0016597" onmousemove="changeToText('GO:0016597')" onmouseout="changeBackText('GO:0016597')"  text-anchor="middle" x="1771" y="-18.8" font-family="Times,serif" font-size="14.00">GO:0016597</text></a>
<a xlink:href="http://pir.georgetown.edu/cgi-bin/pt_graphvizView.pl?tofile=246376" ><text id="r246376" onmousemove="changeToText2('r246376', 1)" onmouseout="changeBackText2('r246376', 1)"  text-anchor="middle" x="1771" y="-5.8" font-family="Times,serif" font-size="14.00">(1)</text>
 
</a> 
</g> 
<!-- x0&#45;&gt;w0 --> 
<g id="edge14" class="edge"><title>x0&#45;&gt;w0</title> 
<path fill="none" stroke="black" d="M1771,-71.6966C1771,-63.9827 1771,-54.7125 1771,-46.1124"/> 
<polygon fill="black" stroke="black" points="1774.5,-46.1043 1771,-36.1043 1767.5,-46.1044 1774.5,-46.1043"/> 
</g> 
<!-- u0 --> 
<g id="node30" class="node"><title>u0</title> 
<ellipse fill="#e98576" stroke="#e98576" cx="421" cy="-18" rx="75.2018" ry="18"/> 
<a xlink:href="http://pir.georgetown.edu/cgi-bin/pt_graphvizView.pl?togoid=0009055" ><text id="GO:0009055" onmousemove="changeToText('GO:0009055')" onmouseout="changeBackText('GO:0009055')"  text-anchor="middle" x="421" y="-18.8" font-family="Times,serif" font-size="14.00">GO:0009055</text></a>
<a xlink:href="http://pir.georgetown.edu/cgi-bin/pt_graphvizView.pl?tofile=246372" ><text id="r246372" onmousemove="changeToText2('r246372', 1)" onmouseout="changeBackText2('r246372', 1)"  text-anchor="middle" x="421" y="-5.8" font-family="Times,serif" font-size="14.00">(1)</text>
 
</a> 
</g> 
<!-- l0&#45;&gt;u0 --> 
<g id="edge28" class="edge"><title>l0&#45;&gt;u0</title> 
<path fill="none" stroke="black" d="M421,-71.6966C421,-63.9827 421,-54.7125 421,-46.1124"/> 
<polygon fill="black" stroke="black" points="424.5,-46.1043 421,-36.1043 417.5,-46.1044 424.5,-46.1043"/> 
</g> 
</g> 
<text text-anchor="left" x="4" y="-20" style="font-family:Arial Narrow;font-size:20.00;font-weight:bold;">GO Hierarchical View:</text> 

<text text-anchor="left" x="4" y="0" style="font-family:Arial Narrow;font-size:20.00;font-style:italic;">molecular function</text> 

<script type="text/ecmascript"> 
<![CDATA[ 
var targetText; 
function changeToText(z) { 
		targetText = svgDocument.getElementById(z).firstChild; 
		targetText.nodeValue="link to "+z; 
} 
function changeBackText(z) { 
		targetText = svgDocument.getElementById(z).firstChild; 
		targetText.nodeValue=z; 
} 
function changeToText2(z,n) { 
		targetText = svgDocument.getElementById(z).firstChild; 
		if (n<=1) { 
			targetText.nodeValue="link to " + n + " protein record"; 
		} else { 
			targetText.nodeValue="link to " + n + " protein records"; 
		} 
} 
function changeBackText2(z,n) { 
		targetText = svgDocument.getElementById(z).firstChild; 
		targetText.nodeValue="(" + n + ")"; 
} 
// ]]> 
</script> 
</svg> 
