<?xml version="1.0" encoding="UTF-8" standalone="no"?>
<!DOCTYPE svg PUBLIC "-//W3C//DTD SVG 1.1//EN"
 "http://www.w3.org/Graphics/SVG/1.1/DTD/svg11.dtd">
<!-- Generated by graphviz version 2.28.0 (20110622.2320)
 -->
<!-- Title: G Pages: 1 -->
<svg width="7139pt" height="404pt"
 viewBox="0.00 0.00 7139.00 404.00" xmlns="http://www.w3.org/2000/svg" xmlns:xlink="http://www.w3.org/1999/xlink">
<g id="graph1" class="graph" transform="scale(1 1) rotate(0) translate(4 400)">
<title>G</title>
<polygon fill="white" stroke="white" points="-4,5 -4,-400 7136,-400 7136,5 -4,5"/>
<!-- c0 -->
<g id="node1" class="node"><title>c0</title>
<a xlink:href="0003674" xlink:title="GO:0003674 (104)">
<ellipse fill="#e98576" stroke="#e98576" cx="4833" cy="-378" rx="84.1886" ry="18"/>
<text text-anchor="middle" x="4833" y="-373.8" font-family="Times,serif" font-size="14.00">GO:0003674 (104)</text>
</a>
</g>
<!-- w1 -->
<g id="node3" class="node"><title>w1</title>
<a xlink:href="0045182" xlink:title="GO:0045182 (8)">
<ellipse fill="#e98576" stroke="#e98576" cx="990" cy="-306" rx="75.2018" ry="18"/>
<text text-anchor="middle" x="990" y="-301.8" font-family="Times,serif" font-size="14.00">GO:0045182 (8)</text>
</a>
</g>
<!-- c0&#45;&gt;w1 -->
<g id="edge2" class="edge"><title>c0&#45;&gt;w1</title>
<path fill="none" stroke="black" d="M4748.74,-376.751C4227.3,-375.083 1450.08,-364.354 1074,-324 1066.88,-323.236 1059.47,-322.159 1052.13,-320.912"/>
<polygon fill="black" stroke="black" points="1052.65,-317.451 1042.19,-319.122 1051.41,-324.34 1052.65,-317.451"/>
</g>
<!-- h0 -->
<g id="node4" class="node"><title>h0</title>
<a xlink:href="0003824" xlink:title="GO:0003824 (12)">
<ellipse fill="#e98576" stroke="#e98576" cx="1163" cy="-306" rx="79.4447" ry="18"/>
<text text-anchor="middle" x="1163" y="-301.8" font-family="Times,serif" font-size="14.00">GO:0003824 (12)</text>
</a>
</g>
<!-- c0&#45;&gt;h0 -->
<g id="edge82" class="edge"><title>c0&#45;&gt;h0</title>
<path fill="none" stroke="black" d="M4749.45,-375.406C4258.96,-366.051 1757.96,-318.348 1252.23,-308.702"/>
<polygon fill="black" stroke="black" points="1252.14,-305.2 1242.07,-308.508 1252.01,-312.198 1252.14,-305.2"/>
</g>
<!-- j0 -->
<g id="node8" class="node"><title>j0</title>
<a xlink:href="0030234" xlink:title="GO:0030234 (170)">
<ellipse fill="#e98576" stroke="#e98576" cx="4121" cy="-306" rx="84.1886" ry="18"/>
<text text-anchor="middle" x="4121" y="-301.8" font-family="Times,serif" font-size="14.00">GO:0030234 (170)</text>
</a>
</g>
<!-- c0&#45;&gt;j0 -->
<g id="edge6" class="edge"><title>c0&#45;&gt;j0</title>
<path fill="none" stroke="black" d="M4752.25,-372.488C4633.98,-365.333 4406.87,-349.521 4215,-324 4207.26,-322.97 4199.18,-321.743 4191.15,-320.427"/>
<polygon fill="black" stroke="black" points="4191.49,-316.934 4181.04,-318.721 4190.32,-323.837 4191.49,-316.934"/>
</g>
<!-- b0 -->
<g id="node9" class="node"><title>b0</title>
<a xlink:href="0005488" xlink:title="GO:0005488 (34)">
<ellipse fill="#e98576" stroke="#e98576" cx="4304" cy="-306" rx="79.4447" ry="18"/>
<text text-anchor="middle" x="4304" y="-301.8" font-family="Times,serif" font-size="14.00">GO:0005488 (34)</text>
</a>
</g>
<!-- c0&#45;&gt;b0 -->
<g id="edge20" class="edge"><title>c0&#45;&gt;b0</title>
<path fill="none" stroke="black" d="M4758.05,-369.56C4670.3,-360.484 4520.73,-343.867 4393,-324 4385.95,-322.903 4378.6,-321.661 4371.28,-320.359"/>
<polygon fill="black" stroke="black" points="4371.81,-316.899 4361.35,-318.556 4370.56,-323.787 4371.81,-316.899"/>
</g>
<!-- j2 -->
<g id="node13" class="node"><title>j2</title>
<a xlink:href="0031386" xlink:title="GO:0031386 (2)">
<ellipse fill="#e98576" stroke="#e98576" cx="4477" cy="-306" rx="75.2018" ry="18"/>
<text text-anchor="middle" x="4477" y="-301.8" font-family="Times,serif" font-size="14.00">GO:0031386 (2)</text>
</a>
</g>
<!-- c0&#45;&gt;j2 -->
<g id="edge10" class="edge"><title>c0&#45;&gt;j2</title>
<path fill="none" stroke="black" d="M4772.75,-365.389C4717.61,-354.734 4633.79,-338.457 4561,-324 4554.97,-322.802 4548.69,-321.547 4542.41,-320.285"/>
<polygon fill="black" stroke="black" points="4543.06,-316.846 4532.57,-318.304 4541.68,-323.709 4543.06,-316.846"/>
</g>
<!-- n0 -->
<g id="node36" class="node"><title>n0</title>
<a xlink:href="0005215" xlink:title="GO:0005215 (109)">
<ellipse fill="#e98576" stroke="#e98576" cx="4655" cy="-306" rx="84.1886" ry="18"/>
<text text-anchor="middle" x="4655" y="-301.8" font-family="Times,serif" font-size="14.00">GO:0005215 (109)</text>
</a>
</g>
<!-- c0&#45;&gt;n0 -->
<g id="edge32" class="edge"><title>c0&#45;&gt;n0</title>
<path fill="none" stroke="black" d="M4794.38,-361.811C4767.55,-351.262 4731.62,-337.133 4702.97,-325.863"/>
<polygon fill="black" stroke="black" points="4704.14,-322.562 4693.55,-322.159 4701.57,-329.076 4704.14,-322.562"/>
</g>
<!-- l2 -->
<g id="node42" class="node"><title>l2</title>
<a xlink:href="0045499" xlink:title="GO:0045499 (1)">
<ellipse fill="#e98576" stroke="#e98576" cx="4833" cy="-306" rx="75.2018" ry="18"/>
<text text-anchor="middle" x="4833" y="-301.8" font-family="Times,serif" font-size="14.00">GO:0045499 (1)</text>
</a>
</g>
<!-- c0&#45;&gt;l2 -->
<g id="edge38" class="edge"><title>c0&#45;&gt;l2</title>
<path fill="none" stroke="black" d="M4833,-359.697C4833,-351.983 4833,-342.712 4833,-334.112"/>
<polygon fill="black" stroke="black" points="4836.5,-334.104 4833,-324.104 4829.5,-334.104 4836.5,-334.104"/>
</g>
<!-- i0 -->
<g id="node60" class="node"><title>i0</title>
<a xlink:href="0005198" xlink:title="GO:0005198 (187)">
<ellipse fill="#e98576" stroke="#e98576" cx="5011" cy="-306" rx="84.1886" ry="18"/>
<text text-anchor="middle" x="5011" y="-301.8" font-family="Times,serif" font-size="14.00">GO:0005198 (187)</text>
</a>
</g>
<!-- c0&#45;&gt;i0 -->
<g id="edge58" class="edge"><title>c0&#45;&gt;i0</title>
<path fill="none" stroke="black" d="M4871.62,-361.811C4898.45,-351.262 4934.38,-337.133 4963.03,-325.863"/>
<polygon fill="black" stroke="black" points="4964.43,-329.076 4972.45,-322.159 4961.86,-322.562 4964.43,-329.076"/>
</g>
<!-- c2 -->
<g id="node64" class="node"><title>c2</title>
<a xlink:href="0042056" xlink:title="GO:0042056 (4)">
<ellipse fill="#e98576" stroke="#e98576" cx="5189" cy="-306" rx="75.2018" ry="18"/>
<text text-anchor="middle" x="5189" y="-301.8" font-family="Times,serif" font-size="14.00">GO:0042056 (4)</text>
</a>
</g>
<!-- c0&#45;&gt;c2 -->
<g id="edge62" class="edge"><title>c0&#45;&gt;c2</title>
<path fill="none" stroke="black" d="M4893.02,-365.337C4947.95,-354.647 5031.46,-338.348 5104,-324 5110.2,-322.774 5116.65,-321.492 5123.11,-320.206"/>
<polygon fill="black" stroke="black" points="5124.1,-323.578 5133.23,-318.19 5122.73,-316.713 5124.1,-323.578"/>
</g>
<!-- k2 -->
<g id="node91" class="node"><title>k2</title>
<a xlink:href="0016530" xlink:title="GO:0016530 (1)">
<ellipse fill="#e98576" stroke="#e98576" cx="5357" cy="-306" rx="75.2018" ry="18"/>
<text text-anchor="middle" x="5357" y="-301.8" font-family="Times,serif" font-size="14.00">GO:0016530 (1)</text>
</a>
</g>
<!-- c0&#45;&gt;k2 -->
<g id="edge88" class="edge"><title>c0&#45;&gt;k2</title>
<path fill="none" stroke="black" d="M4908.39,-369.768C4996.22,-360.915 5145.58,-344.535 5273,-324 5279.51,-322.95 5286.29,-321.754 5293.05,-320.494"/>
<polygon fill="black" stroke="black" points="5293.73,-323.927 5302.89,-318.611 5292.41,-317.052 5293.73,-323.927"/>
</g>
<!-- o1 -->
<g id="node97" class="node"><title>o1</title>
<a xlink:href="0003774" xlink:title="GO:0003774 (18)">
<ellipse fill="#e98576" stroke="#e98576" cx="5530" cy="-306" rx="79.4447" ry="18"/>
<text text-anchor="middle" x="5530" y="-301.8" font-family="Times,serif" font-size="14.00">GO:0003774 (18)</text>
</a>
</g>
<!-- c0&#45;&gt;o1 -->
<g id="edge94" class="edge"><title>c0&#45;&gt;o1</title>
<path fill="none" stroke="black" d="M4913.94,-372.573C5030.73,-365.589 5253.14,-350.061 5441,-324 5448.18,-323.004 5455.65,-321.817 5463.09,-320.538"/>
<polygon fill="black" stroke="black" points="5463.93,-323.943 5473.17,-318.748 5462.71,-317.05 5463.93,-323.943"/>
</g>
<!-- s0 -->
<g id="node98" class="node"><title>s0</title>
<a xlink:href="0060089" xlink:title="GO:0060089">
<ellipse fill="#dddddd" stroke="#dddddd" cx="5689" cy="-306" rx="61.1934" ry="18"/>
<text text-anchor="middle" x="5689" y="-301.8" font-family="Times,serif" font-size="14.00">GO:0060089</text>
</a>
</g>
<!-- c0&#45;&gt;s0 -->
<g id="edge126" class="edge"><title>c0&#45;&gt;s0</title>
<path fill="none" stroke="black" d="M4916.86,-375.939C5060.99,-373.092 5364.64,-362.606 5618,-324 5623.7,-323.132 5629.61,-322.035 5635.49,-320.819"/>
<polygon fill="black" stroke="black" points="5636.27,-324.231 5645.29,-318.679 5634.78,-317.392 5636.27,-324.231"/>
</g>
<!-- c1 -->
<g id="node103" class="node"><title>c1</title>
<a xlink:href="0016209" xlink:title="GO:0016209 (35)">
<ellipse fill="#e98576" stroke="#e98576" cx="5848" cy="-306" rx="79.4447" ry="18"/>
<text text-anchor="middle" x="5848" y="-301.8" font-family="Times,serif" font-size="14.00">GO:0016209 (35)</text>
</a>
</g>
<!-- c0&#45;&gt;c1 -->
<g id="edge100" class="edge"><title>c0&#45;&gt;c1</title>
<path fill="none" stroke="black" d="M4916.97,-375.887C5079.92,-372.912 5450.16,-362.166 5759,-324 5766.57,-323.064 5774.47,-321.872 5782.3,-320.555"/>
<polygon fill="black" stroke="black" points="5782.91,-324.003 5792.16,-318.83 5781.7,-317.108 5782.91,-324.003"/>
</g>
<!-- v0 -->
<g id="node6" class="node"><title>v0</title>
<a xlink:href="0016853" xlink:title="GO:0016853 (45)">
<ellipse fill="#e98576" stroke="#e98576" cx="112" cy="-234" rx="79.4447" ry="18"/>
<text text-anchor="middle" x="112" y="-229.8" font-family="Times,serif" font-size="14.00">GO:0016853 (45)</text>
</a>
</g>
<!-- h0&#45;&gt;v0 -->
<g id="edge4" class="edge"><title>h0&#45;&gt;v0</title>
<path fill="none" stroke="black" d="M1107.17,-293.033C1096.22,-291.054 1084.78,-289.245 1074,-288 688.234,-243.45 586.766,-296.55 201,-252 193.503,-251.134 185.69,-249.996 177.943,-248.717"/>
<polygon fill="black" stroke="black" points="178.279,-245.224 167.828,-246.967 177.085,-252.121 178.279,-245.224"/>
</g>
<!-- g0 -->
<g id="node25" class="node"><title>g0</title>
<a xlink:href="0016787" xlink:title="GO:0016787 (276)">
<ellipse fill="#e98576" stroke="#e98576" cx="295" cy="-234" rx="84.1886" ry="18"/>
<text text-anchor="middle" x="295" y="-229.8" font-family="Times,serif" font-size="14.00">GO:0016787 (276)</text>
</a>
</g>
<!-- h0&#45;&gt;g0 -->
<g id="edge42" class="edge"><title>h0&#45;&gt;g0</title>
<path fill="none" stroke="black" d="M1107.15,-293.177C1096.2,-291.186 1084.77,-289.335 1074,-288 799.636,-253.992 728.522,-274.795 453,-252 428.23,-249.951 401.328,-247.239 376.86,-244.584"/>
<polygon fill="black" stroke="black" points="377.22,-241.102 366.898,-243.492 376.457,-248.061 377.22,-241.102"/>
</g>
<!-- l0 -->
<g id="node28" class="node"><title>l0</title>
<a xlink:href="0016491" xlink:title="GO:0016491 (157)">
<ellipse fill="#e98576" stroke="#e98576" cx="547" cy="-234" rx="84.1886" ry="18"/>
<text text-anchor="middle" x="547" y="-229.8" font-family="Times,serif" font-size="14.00">GO:0016491 (157)</text>
</a>
</g>
<!-- h0&#45;&gt;l0 -->
<g id="edge52" class="edge"><title>h0&#45;&gt;l0</title>
<path fill="none" stroke="black" d="M1106.65,-293.305C1095.85,-291.327 1084.6,-289.449 1074,-288 882.671,-261.848 832.456,-277.212 641,-252 633.254,-250.98 625.176,-249.76 617.15,-248.447"/>
<polygon fill="black" stroke="black" points="617.483,-244.954 607.041,-246.744 616.32,-251.857 617.483,-244.954"/>
</g>
<!-- f2 -->
<g id="node34" class="node"><title>f2</title>
<a xlink:href="0019239" xlink:title="GO:0019239 (3)">
<ellipse fill="#e98576" stroke="#e98576" cx="725" cy="-234" rx="75.2018" ry="18"/>
<text text-anchor="middle" x="725" y="-229.8" font-family="Times,serif" font-size="14.00">GO:0019239 (3)</text>
</a>
</g>
<!-- h0&#45;&gt;f2 -->
<g id="edge30" class="edge"><title>h0&#45;&gt;f2</title>
<path fill="none" stroke="black" d="M1105.15,-293.483C1094.8,-291.555 1084.09,-289.648 1074,-288 956.694,-268.843 926.199,-271.799 809,-252 802.494,-250.901 795.722,-249.673 788.971,-248.393"/>
<polygon fill="black" stroke="black" points="789.61,-244.952 779.128,-246.49 788.282,-251.824 789.61,-244.952"/>
</g>
<!-- u0 -->
<g id="node51" class="node"><title>u0</title>
<a xlink:href="0016874" xlink:title="GO:0016874 (47)">
<ellipse fill="#e98576" stroke="#e98576" cx="898" cy="-234" rx="79.4447" ry="18"/>
<text text-anchor="middle" x="898" y="-229.8" font-family="Times,serif" font-size="14.00">GO:0016874 (47)</text>
</a>
</g>
<!-- h0&#45;&gt;u0 -->
<g id="edge48" class="edge"><title>h0&#45;&gt;u0</title>
<path fill="none" stroke="black" d="M1113.47,-291.916C1069.27,-280.241 1004.47,-263.124 957.482,-250.712"/>
<polygon fill="black" stroke="black" points="958.302,-247.309 947.74,-248.139 956.514,-254.077 958.302,-247.309"/>
</g>
<!-- j1 -->
<g id="node58" class="node"><title>j1</title>
<a xlink:href="0004386" xlink:title="GO:0004386 (23)">
<ellipse fill="#e98576" stroke="#e98576" cx="1076" cy="-234" rx="79.4447" ry="18"/>
<text text-anchor="middle" x="1076" y="-229.8" font-family="Times,serif" font-size="14.00">GO:0004386 (23)</text>
</a>
</g>
<!-- h0&#45;&gt;j1 -->
<g id="edge56" class="edge"><title>h0&#45;&gt;j1</title>
<path fill="none" stroke="black" d="M1142.38,-288.411C1131.01,-279.257 1116.71,-267.755 1104.3,-257.772"/>
<polygon fill="black" stroke="black" points="1106.46,-255.012 1096.47,-251.47 1102.07,-260.466 1106.46,-255.012"/>
</g>
<!-- b2 -->
<g id="node84" class="node"><title>b2</title>
<a xlink:href="0008641" xlink:title="GO:0008641 (4)">
<ellipse fill="#e98576" stroke="#e98576" cx="1249" cy="-234" rx="75.2018" ry="18"/>
<text text-anchor="middle" x="1249" y="-229.8" font-family="Times,serif" font-size="14.00">GO:0008641 (4)</text>
</a>
</g>
<!-- h0&#45;&gt;b2 -->
<g id="edge80" class="edge"><title>h0&#45;&gt;b2</title>
<path fill="none" stroke="black" d="M1183.38,-288.411C1194.52,-279.345 1208.49,-267.974 1220.67,-258.057"/>
<polygon fill="black" stroke="black" points="1223.22,-260.497 1228.77,-251.47 1218.8,-255.068 1223.22,-260.497"/>
</g>
<!-- h2 -->
<g id="node109" class="node"><title>h2</title>
<a xlink:href="0009975" xlink:title="GO:0009975 (2)">
<ellipse fill="#e98576" stroke="#e98576" cx="1417" cy="-234" rx="75.2018" ry="18"/>
<text text-anchor="middle" x="1417" y="-229.8" font-family="Times,serif" font-size="14.00">GO:0009975 (2)</text>
</a>
</g>
<!-- h0&#45;&gt;h2 -->
<g id="edge106" class="edge"><title>h0&#45;&gt;h2</title>
<path fill="none" stroke="black" d="M1211.37,-291.669C1253.66,-280.015 1315.12,-263.078 1359.83,-250.757"/>
<polygon fill="black" stroke="black" points="1360.96,-254.076 1369.67,-248.045 1359.1,-247.327 1360.96,-254.076"/>
</g>
<!-- k0 -->
<g id="node114" class="node"><title>k0</title>
<a xlink:href="0016740" xlink:title="GO:0016740 (170)">
<ellipse fill="#e98576" stroke="#e98576" cx="1595" cy="-234" rx="84.1886" ry="18"/>
<text text-anchor="middle" x="1595" y="-229.8" font-family="Times,serif" font-size="14.00">GO:0016740 (170)</text>
</a>
</g>
<!-- h0&#45;&gt;k0 -->
<g id="edge112" class="edge"><title>h0&#45;&gt;k0</title>
<path fill="none" stroke="black" d="M1227.24,-295.384C1295.29,-285.091 1405.83,-268.066 1501,-252 1508.28,-250.772 1515.86,-249.457 1523.43,-248.122"/>
<polygon fill="black" stroke="black" points="1524.11,-251.556 1533.35,-246.362 1522.89,-244.664 1524.11,-251.556"/>
</g>
<!-- w0 -->
<g id="node124" class="node"><title>w0</title>
<a xlink:href="0016829" xlink:title="GO:0016829 (41)">
<ellipse fill="#e98576" stroke="#e98576" cx="1778" cy="-234" rx="79.4447" ry="18"/>
<text text-anchor="middle" x="1778" y="-229.8" font-family="Times,serif" font-size="14.00">GO:0016829 (41)</text>
</a>
</g>
<!-- h0&#45;&gt;w0 -->
<g id="edge122" class="edge"><title>h0&#45;&gt;w0</title>
<path fill="none" stroke="black" d="M1237.58,-299.504C1339.59,-291.523 1528.2,-275.114 1688,-252 1695.33,-250.94 1702.98,-249.702 1710.57,-248.387"/>
<polygon fill="black" stroke="black" points="1711.28,-251.817 1720.51,-246.622 1710.05,-244.925 1711.28,-251.817"/>
</g>
<!-- x0 -->
<g id="node11" class="node"><title>x0</title>
<a xlink:href="0042277" xlink:title="GO:0042277 (41)">
<ellipse fill="#e98576" stroke="#e98576" cx="1956" cy="-234" rx="79.4447" ry="18"/>
<text text-anchor="middle" x="1956" y="-229.8" font-family="Times,serif" font-size="14.00">GO:0042277 (41)</text>
</a>
</g>
<!-- b0&#45;&gt;x0 -->
<g id="edge8" class="edge"><title>b0&#45;&gt;x0</title>
<path fill="none" stroke="black" d="M4248.52,-292.992C4237.16,-290.963 4225.23,-289.146 4214,-288 3254.84,-190.172 3004.06,-350.811 2045,-252 2037.3,-251.207 2029.27,-250.09 2021.32,-248.803"/>
<polygon fill="black" stroke="black" points="2021.78,-245.33 2011.33,-247.095 2020.6,-252.23 2021.78,-245.33"/>
</g>
<!-- a2 -->
<g id="node15" class="node"><title>a2</title>
<a xlink:href="0019825" xlink:title="GO:0019825 (5)">
<ellipse fill="#e98576" stroke="#e98576" cx="2129" cy="-234" rx="75.2018" ry="18"/>
<text text-anchor="middle" x="2129" y="-229.8" font-family="Times,serif" font-size="14.00">GO:0019825 (5)</text>
</a>
</g>
<!-- b0&#45;&gt;a2 -->
<g id="edge12" class="edge"><title>b0&#45;&gt;a2</title>
<path fill="none" stroke="black" d="M4248.52,-293.005C4237.15,-290.975 4225.23,-289.153 4214,-288 3329.18,-197.13 3097.21,-348.617 2213,-252 2205.88,-251.222 2198.47,-250.136 2191.13,-248.885"/>
<polygon fill="black" stroke="black" points="2191.66,-245.424 2181.2,-247.09 2190.41,-252.312 2191.66,-245.424"/>
</g>
<!-- y1 -->
<g id="node17" class="node"><title>y1</title>
<a xlink:href="0033218" xlink:title="GO:0033218 (6)">
<ellipse fill="#e98576" stroke="#e98576" cx="2297" cy="-234" rx="75.2018" ry="18"/>
<text text-anchor="middle" x="2297" y="-229.8" font-family="Times,serif" font-size="14.00">GO:0033218 (6)</text>
</a>
</g>
<!-- b0&#45;&gt;y1 -->
<g id="edge14" class="edge"><title>b0&#45;&gt;y1</title>
<path fill="none" stroke="black" d="M4248.52,-293.019C4237.15,-290.988 4225.23,-289.163 4214,-288 3403.51,-204.089 3190.93,-341.175 2381,-252 2373.88,-251.216 2366.47,-250.127 2359.13,-248.873"/>
<polygon fill="black" stroke="black" points="2359.66,-245.412 2349.2,-247.077 2358.42,-252.301 2359.66,-245.412"/>
</g>
<!-- a0 -->
<g id="node19" class="node"><title>a0</title>
<a xlink:href="0005515" xlink:title="GO:0005515 (997)">
<ellipse fill="#e98576" stroke="#e98576" cx="2475" cy="-234" rx="84.1886" ry="18"/>
<text text-anchor="middle" x="2475" y="-229.8" font-family="Times,serif" font-size="14.00">GO:0005515 (997)</text>
</a>
</g>
<!-- b0&#45;&gt;a0 -->
<g id="edge16" class="edge"><title>b0&#45;&gt;a0</title>
<path fill="none" stroke="black" d="M4248.52,-293.039C4237.15,-291.006 4225.23,-289.175 4214,-288 3486.69,-211.876 3296.6,-325.297 2569,-252 2560.7,-251.164 2552.03,-249.999 2543.46,-248.669"/>
<polygon fill="black" stroke="black" points="2543.9,-245.195 2533.47,-247.039 2542.77,-252.103 2543.9,-245.195"/>
</g>
<!-- d1 -->
<g id="node21" class="node"><title>d1</title>
<a xlink:href="0043021" xlink:title="GO:0043021 (34)">
<ellipse fill="#e98576" stroke="#e98576" cx="2658" cy="-234" rx="79.4447" ry="18"/>
<text text-anchor="middle" x="2658" y="-229.8" font-family="Times,serif" font-size="14.00">GO:0043021 (34)</text>
</a>
</g>
<!-- b0&#45;&gt;d1 -->
<g id="edge18" class="edge"><title>b0&#45;&gt;d1</title>
<path fill="none" stroke="black" d="M4248.52,-293.062C4237.15,-291.028 4225.23,-289.19 4214,-288 3565.44,-219.248 3395.49,-321.416 2747,-252 2739.3,-251.176 2731.27,-250.04 2723.33,-248.743"/>
<polygon fill="black" stroke="black" points="2723.78,-245.271 2713.34,-247.026 2722.6,-252.17 2723.78,-245.271"/>
</g>
<!-- v1 -->
<g id="node24" class="node"><title>v1</title>
<a xlink:href="0042562" xlink:title="GO:0042562 (9)">
<ellipse fill="#e98576" stroke="#e98576" cx="2831" cy="-234" rx="75.2018" ry="18"/>
<text text-anchor="middle" x="2831" y="-229.8" font-family="Times,serif" font-size="14.00">GO:0042562 (9)</text>
</a>
</g>
<!-- b0&#45;&gt;v1 -->
<g id="edge22" class="edge"><title>b0&#45;&gt;v1</title>
<path fill="none" stroke="black" d="M4248.51,-293.09C4237.15,-291.053 4225.23,-289.208 4214,-288 3639.76,-226.206 3488.83,-317.524 2915,-252 2907.89,-251.188 2900.48,-250.08 2893.14,-248.817"/>
<polygon fill="black" stroke="black" points="2893.67,-245.356 2883.21,-247.011 2892.42,-252.243 2893.67,-245.356"/>
</g>
<!-- n1 -->
<g id="node32" class="node"><title>n1</title>
<a xlink:href="0005496" xlink:title="GO:0005496 (18)">
<ellipse fill="#e98576" stroke="#e98576" cx="3004" cy="-234" rx="79.4447" ry="18"/>
<text text-anchor="middle" x="3004" y="-229.8" font-family="Times,serif" font-size="14.00">GO:0005496 (18)</text>
</a>
</g>
<!-- b0&#45;&gt;n1 -->
<g id="edge28" class="edge"><title>b0&#45;&gt;n1</title>
<path fill="none" stroke="black" d="M4248.03,-293.043C4236.81,-291.037 4225.06,-289.215 4214,-288 3718.5,-233.577 3588.44,-306.931 3093,-252 3085.3,-251.147 3077.28,-249.993 3069.33,-248.686"/>
<polygon fill="black" stroke="black" points="3069.79,-245.214 3059.34,-246.96 3068.6,-252.112 3069.79,-245.214"/>
</g>
<!-- d0 -->
<g id="node38" class="node"><title>d0</title>
<a xlink:href="0043167" xlink:title="GO:0043167 (714)">
<ellipse fill="#e98576" stroke="#e98576" cx="3187" cy="-234" rx="84.1886" ry="18"/>
<text text-anchor="middle" x="3187" y="-229.8" font-family="Times,serif" font-size="14.00">GO:0043167 (714)</text>
</a>
</g>
<!-- b0&#45;&gt;d0 -->
<g id="edge34" class="edge"><title>b0&#45;&gt;d0</title>
<path fill="none" stroke="black" d="M4248.02,-293.099C4236.8,-291.089 4225.06,-289.251 4214,-288 3801.65,-241.361 3693.52,-297.036 3281,-252 3272.76,-251.101 3264.16,-249.905 3255.65,-248.563"/>
<polygon fill="black" stroke="black" points="3256.17,-245.101 3245.73,-246.93 3255.03,-252.008 3256.17,-245.101"/>
</g>
<!-- q1 -->
<g id="node40" class="node"><title>q1</title>
<a xlink:href="0043176" xlink:title="GO:0043176">
<ellipse fill="#dddddd" stroke="#dddddd" cx="3351" cy="-234" rx="61.1934" ry="18"/>
<text text-anchor="middle" x="3351" y="-229.8" font-family="Times,serif" font-size="14.00">GO:0043176</text>
</a>
</g>
<!-- b0&#45;&gt;q1 -->
<g id="edge36" class="edge"><title>b0&#45;&gt;q1</title>
<path fill="none" stroke="black" d="M4248.02,-293.159C4236.79,-291.144 4225.06,-289.289 4214,-288 3864.01,-247.198 3770.91,-301.246 3422,-252 3416.21,-251.183 3410.2,-250.108 3404.24,-248.896"/>
<polygon fill="black" stroke="black" points="3404.82,-245.44 3394.31,-246.746 3403.34,-252.281 3404.82,-245.44"/>
</g>
<!-- e2 -->
<g id="node44" class="node"><title>e2</title>
<a xlink:href="0002054" xlink:title="GO:0002054 (3)">
<ellipse fill="#e98576" stroke="#e98576" cx="3506" cy="-234" rx="75.2018" ry="18"/>
<text text-anchor="middle" x="3506" y="-229.8" font-family="Times,serif" font-size="14.00">GO:0002054 (3)</text>
</a>
</g>
<!-- b0&#45;&gt;e2 -->
<g id="edge40" class="edge"><title>b0&#45;&gt;e2</title>
<path fill="none" stroke="black" d="M4247.52,-293.179C4236.45,-291.188 4224.89,-289.337 4214,-288 3938.28,-254.149 3865.5,-287.641 3590,-252 3583.16,-251.115 3576.04,-249.993 3568.97,-248.749"/>
<polygon fill="black" stroke="black" points="3569.15,-245.224 3558.68,-246.852 3567.88,-252.108 3569.15,-245.224"/>
</g>
<!-- r1 -->
<g id="node47" class="node"><title>r1</title>
<a xlink:href="0043178" xlink:title="GO:0043178 (15)">
<ellipse fill="#e98576" stroke="#e98576" cx="3679" cy="-234" rx="79.4447" ry="18"/>
<text text-anchor="middle" x="3679" y="-229.8" font-family="Times,serif" font-size="14.00">GO:0043178 (15)</text>
</a>
</g>
<!-- b0&#45;&gt;r1 -->
<g id="edge44" class="edge"><title>b0&#45;&gt;r1</title>
<path fill="none" stroke="black" d="M4247.02,-293.292C4236.09,-291.315 4224.72,-289.44 4214,-288 4016.91,-261.507 3965.07,-278.695 3768,-252 3760.63,-251.002 3752.95,-249.792 3745.32,-248.484"/>
<polygon fill="black" stroke="black" points="3745.8,-245.016 3735.35,-246.716 3744.58,-251.908 3745.8,-245.016"/>
</g>
<!-- z0 -->
<g id="node49" class="node"><title>z0</title>
<a xlink:href="0030246" xlink:title="GO:0030246 (38)">
<ellipse fill="#e98576" stroke="#e98576" cx="3857" cy="-234" rx="79.4447" ry="18"/>
<text text-anchor="middle" x="3857" y="-229.8" font-family="Times,serif" font-size="14.00">GO:0030246 (38)</text>
</a>
</g>
<!-- b0&#45;&gt;z0 -->
<g id="edge46" class="edge"><title>b0&#45;&gt;z0</title>
<path fill="none" stroke="black" d="M4245.98,-293.572C4235.36,-291.614 4224.36,-289.673 4214,-288 4095.36,-268.84 4064.62,-271.281 3946,-252 3939.22,-250.898 3932.16,-249.677 3925.12,-248.41"/>
<polygon fill="black" stroke="black" points="3925.31,-244.887 3914.85,-246.529 3924.05,-251.773 3925.31,-244.887"/>
</g>
<!-- e0 -->
<g id="node53" class="node"><title>e0</title>
<a xlink:href="0003676" xlink:title="GO:0003676 (502)">
<ellipse fill="#e98576" stroke="#e98576" cx="4040" cy="-234" rx="84.1886" ry="18"/>
<text text-anchor="middle" x="4040" y="-229.8" font-family="Times,serif" font-size="14.00">GO:0003676 (502)</text>
</a>
</g>
<!-- b0&#45;&gt;e0 -->
<g id="edge50" class="edge"><title>b0&#45;&gt;e0</title>
<path fill="none" stroke="black" d="M4254.34,-291.834C4210.7,-280.261 4147.05,-263.385 4100.45,-251.029"/>
<polygon fill="black" stroke="black" points="4101.35,-247.645 4090.78,-248.465 4099.55,-254.411 4101.35,-247.645"/>
</g>
<!-- i2 -->
<g id="node56" class="node"><title>i2</title>
<a xlink:href="0001871" xlink:title="GO:0001871 (2)">
<ellipse fill="#e98576" stroke="#e98576" cx="4218" cy="-234" rx="75.2018" ry="18"/>
<text text-anchor="middle" x="4218" y="-229.8" font-family="Times,serif" font-size="14.00">GO:0001871 (2)</text>
</a>
</g>
<!-- b0&#45;&gt;i2 -->
<g id="edge54" class="edge"><title>b0&#45;&gt;i2</title>
<path fill="none" stroke="black" d="M4283.62,-288.411C4272.48,-279.345 4258.51,-267.974 4246.33,-258.057"/>
<polygon fill="black" stroke="black" points="4248.2,-255.068 4238.23,-251.47 4243.78,-260.497 4248.2,-255.068"/>
</g>
<!-- y0 -->
<g id="node62" class="node"><title>y0</title>
<a xlink:href="0003682" xlink:title="GO:0003682 (40)">
<ellipse fill="#e98576" stroke="#e98576" cx="4391" cy="-234" rx="79.4447" ry="18"/>
<text text-anchor="middle" x="4391" y="-229.8" font-family="Times,serif" font-size="14.00">GO:0003682 (40)</text>
</a>
</g>
<!-- b0&#45;&gt;y0 -->
<g id="edge60" class="edge"><title>b0&#45;&gt;y0</title>
<path fill="none" stroke="black" d="M4324.62,-288.411C4335.99,-279.257 4350.29,-267.755 4362.7,-257.772"/>
<polygon fill="black" stroke="black" points="4364.93,-260.466 4370.53,-251.47 4360.54,-255.012 4364.93,-260.466"/>
</g>
<!-- o0 -->
<g id="node66" class="node"><title>o0</title>
<a xlink:href="0048037" xlink:title="GO:0048037 (88)">
<ellipse fill="#e98576" stroke="#e98576" cx="4569" cy="-234" rx="79.4447" ry="18"/>
<text text-anchor="middle" x="4569" y="-229.8" font-family="Times,serif" font-size="14.00">GO:0048037 (88)</text>
</a>
</g>
<!-- b0&#45;&gt;o0 -->
<g id="edge64" class="edge"><title>b0&#45;&gt;o0</title>
<path fill="none" stroke="black" d="M4353.53,-291.916C4397.73,-280.241 4462.53,-263.124 4509.52,-250.712"/>
<polygon fill="black" stroke="black" points="4510.49,-254.077 4519.26,-248.139 4508.7,-247.309 4510.49,-254.077"/>
</g>
<!-- m1 -->
<g id="node68" class="node"><title>m1</title>
<a xlink:href="0050840" xlink:title="GO:0050840 (18)">
<ellipse fill="#e98576" stroke="#e98576" cx="4747" cy="-234" rx="79.4447" ry="18"/>
<text text-anchor="middle" x="4747" y="-229.8" font-family="Times,serif" font-size="14.00">GO:0050840 (18)</text>
</a>
</g>
<!-- b0&#45;&gt;m1 -->
<g id="edge66" class="edge"><title>b0&#45;&gt;m1</title>
<path fill="none" stroke="black" d="M4361.85,-293.488C4372.2,-291.559 4382.91,-289.651 4393,-288 4509.87,-268.884 4540.11,-270.996 4657,-252 4664.12,-250.843 4671.55,-249.561 4678.94,-248.237"/>
<polygon fill="black" stroke="black" points="4679.77,-251.644 4688.98,-246.411 4678.52,-244.757 4679.77,-251.644"/>
</g>
<!-- e1 -->
<g id="node70" class="node"><title>e1</title>
<a xlink:href="0003823" xlink:title="GO:0003823 (28)">
<ellipse fill="#e98576" stroke="#e98576" cx="4925" cy="-234" rx="79.4447" ry="18"/>
<text text-anchor="middle" x="4925" y="-229.8" font-family="Times,serif" font-size="14.00">GO:0003823 (28)</text>
</a>
</g>
<!-- b0&#45;&gt;e1 -->
<g id="edge68" class="edge"><title>b0&#45;&gt;e1</title>
<path fill="none" stroke="black" d="M4360.35,-293.291C4371.15,-291.314 4382.4,-289.44 4393,-288 4588.3,-261.472 4639.67,-278.328 4835,-252 4842.45,-250.996 4850.22,-249.783 4857.93,-248.472"/>
<polygon fill="black" stroke="black" points="4858.77,-251.879 4868.01,-246.702 4857.56,-244.984 4858.77,-251.879"/>
</g>
<!-- p0 -->
<g id="node77" class="node"><title>p0</title>
<a xlink:href="0008289" xlink:title="GO:0008289 (85)">
<ellipse fill="#e98576" stroke="#e98576" cx="5103" cy="-234" rx="79.4447" ry="18"/>
<text text-anchor="middle" x="5103" y="-229.8" font-family="Times,serif" font-size="14.00">GO:0008289 (85)</text>
</a>
</g>
<!-- b0&#45;&gt;p0 -->
<g id="edge74" class="edge"><title>b0&#45;&gt;p0</title>
<path fill="none" stroke="black" d="M4359.85,-293.177C4370.8,-291.186 4382.23,-289.336 4393,-288 4666.92,-254.034 4739.04,-285.685 5013,-252 5020.66,-251.059 5028.64,-249.863 5036.56,-248.544"/>
<polygon fill="black" stroke="black" points="5037.27,-251.974 5046.52,-246.817 5036.07,-245.077 5037.27,-251.974"/>
</g>
<!-- q0 -->
<g id="node87" class="node"><title>q0</title>
<a xlink:href="0001882" xlink:title="GO:0001882 (79)">
<ellipse fill="#e98576" stroke="#e98576" cx="5281" cy="-234" rx="79.4447" ry="18"/>
<text text-anchor="middle" x="5281" y="-229.8" font-family="Times,serif" font-size="14.00">GO:0001882 (79)</text>
</a>
</g>
<!-- b0&#45;&gt;q0 -->
<g id="edge84" class="edge"><title>b0&#45;&gt;q0</title>
<path fill="none" stroke="black" d="M4359.83,-293.066C4370.79,-291.085 4382.22,-289.266 4393,-288 4745.6,-246.588 4838.35,-293.051 5191,-252 5198.77,-251.095 5206.89,-249.91 5214.92,-248.585"/>
<polygon fill="black" stroke="black" points="5215.76,-251.992 5225.02,-246.844 5214.57,-245.094 5215.76,-251.992"/>
</g>
<!-- k1 -->
<g id="node89" class="node"><title>k1</title>
<a xlink:href="0008144" xlink:title="GO:0008144 (22)">
<ellipse fill="#e98576" stroke="#e98576" cx="5459" cy="-234" rx="79.4447" ry="18"/>
<text text-anchor="middle" x="5459" y="-229.8" font-family="Times,serif" font-size="14.00">GO:0008144 (22)</text>
</a>
</g>
<!-- b0&#45;&gt;k1 -->
<g id="edge86" class="edge"><title>b0&#45;&gt;k1</title>
<path fill="none" stroke="black" d="M4359.35,-293.081C4370.45,-291.072 4382.06,-289.24 4393,-288 4824.31,-239.139 4937.64,-300.419 5369,-252 5376.78,-251.127 5384.89,-249.961 5392.92,-248.648"/>
<polygon fill="black" stroke="black" points="5393.76,-252.055 5403.03,-246.916 5392.58,-245.156 5393.76,-252.055"/>
</g>
<!-- f1 -->
<g id="node93" class="node"><title>f1</title>
<a xlink:href="0019842" xlink:title="GO:0019842 (24)">
<ellipse fill="#e98576" stroke="#e98576" cx="5637" cy="-234" rx="79.4447" ry="18"/>
<text text-anchor="middle" x="5637" y="-229.8" font-family="Times,serif" font-size="14.00">GO:0019842 (24)</text>
</a>
</g>
<!-- b0&#45;&gt;f1 -->
<g id="edge90" class="edge"><title>b0&#45;&gt;f1</title>
<path fill="none" stroke="black" d="M4359.34,-293.032C4370.44,-291.027 4382.05,-289.208 4393,-288 4903.04,-231.688 5036.9,-307.79 5547,-252 5554.78,-251.149 5562.9,-249.997 5570.93,-248.691"/>
<polygon fill="black" stroke="black" points="5571.76,-252.099 5581.03,-246.965 5570.58,-245.199 5571.76,-252.099"/>
</g>
<!-- b1 -->
<g id="node101" class="node"><title>b1</title>
<a xlink:href="0060090" xlink:title="GO:0060090 (36)">
<ellipse fill="#e98576" stroke="#e98576" cx="5815" cy="-234" rx="79.4447" ry="18"/>
<text text-anchor="middle" x="5815" y="-229.8" font-family="Times,serif" font-size="14.00">GO:0060090 (36)</text>
</a>
</g>
<!-- b0&#45;&gt;b1 -->
<g id="edge98" class="edge"><title>b0&#45;&gt;b1</title>
<path fill="none" stroke="black" d="M4359.34,-292.996C4370.44,-290.994 4382.05,-289.186 4393,-288 4981.77,-224.236 5136.16,-315.161 5725,-252 5732.98,-251.144 5741.31,-249.965 5749.55,-248.623"/>
<polygon fill="black" stroke="black" points="5750.25,-252.054 5759.52,-246.916 5749.07,-245.154 5750.25,-252.054"/>
</g>
<!-- l1 -->
<g id="node107" class="node"><title>l1</title>
<a xlink:href="0031406" xlink:title="GO:0031406 (22)">
<ellipse fill="#e98576" stroke="#e98576" cx="5993" cy="-234" rx="79.4447" ry="18"/>
<text text-anchor="middle" x="5993" y="-229.8" font-family="Times,serif" font-size="14.00">GO:0031406 (22)</text>
</a>
</g>
<!-- b0&#45;&gt;l1 -->
<g id="edge104" class="edge"><title>b0&#45;&gt;l1</title>
<path fill="none" stroke="black" d="M4359.34,-292.968C4370.43,-290.969 4382.05,-289.168 4393,-288 5060.51,-216.784 5235.41,-322.533 5903,-252 5910.98,-251.157 5919.32,-249.985 5927.55,-248.647"/>
<polygon fill="black" stroke="black" points="5928.25,-252.078 5937.52,-246.944 5927.07,-245.179 5928.25,-252.078"/>
</g>
<!-- s1 -->
<g id="node116" class="node"><title>s1</title>
<a xlink:href="0046906" xlink:title="GO:0046906 (15)">
<ellipse fill="#e98576" stroke="#e98576" cx="6171" cy="-234" rx="79.4447" ry="18"/>
<text text-anchor="middle" x="6171" y="-229.8" font-family="Times,serif" font-size="14.00">GO:0046906 (15)</text>
</a>
</g>
<!-- b0&#45;&gt;s1 -->
<g id="edge114" class="edge"><title>b0&#45;&gt;s1</title>
<path fill="none" stroke="black" d="M4359.33,-292.946C4370.43,-290.949 4382.05,-289.154 4393,-288 5139.26,-209.33 5334.66,-329.905 6081,-252 6088.98,-251.167 6097.32,-250.001 6105.55,-248.667"/>
<polygon fill="black" stroke="black" points="6106.25,-252.098 6115.52,-246.966 6105.07,-245.198 6106.25,-252.098"/>
</g>
<!-- f0 -->
<g id="node118" class="node"><title>f0</title>
<a xlink:href="0000166" xlink:title="GO:0000166 (344)">
<ellipse fill="#e98576" stroke="#e98576" cx="6354" cy="-234" rx="84.1886" ry="18"/>
<text text-anchor="middle" x="6354" y="-229.8" font-family="Times,serif" font-size="14.00">GO:0000166 (344)</text>
</a>
</g>
<!-- b0&#45;&gt;f0 -->
<g id="edge116" class="edge"><title>b0&#45;&gt;f0</title>
<path fill="none" stroke="black" d="M4359.33,-292.929C4370.43,-290.932 4382.05,-289.143 4393,-288 5218,-201.877 5433.51,-333.31 6259,-252 6267.6,-251.153 6276.59,-249.957 6285.47,-248.587"/>
<polygon fill="black" stroke="black" points="6286.1,-252.03 6295.42,-246.976 6284.99,-245.12 6286.1,-252.03"/>
</g>
<!-- g2 -->
<g id="node120" class="node"><title>g2</title>
<a xlink:href="0042165" xlink:title="GO:0042165 (2)">
<ellipse fill="#e98576" stroke="#e98576" cx="6532" cy="-234" rx="75.2018" ry="18"/>
<text text-anchor="middle" x="6532" y="-229.8" font-family="Times,serif" font-size="14.00">GO:0042165 (2)</text>
</a>
</g>
<!-- b0&#45;&gt;g2 -->
<g id="edge118" class="edge"><title>b0&#45;&gt;g2</title>
<path fill="none" stroke="black" d="M4359.33,-292.913C4370.43,-290.918 4382.05,-289.134 4393,-288 5301.18,-194.005 5539.24,-349.926 6447,-252 6454.39,-251.203 6462.09,-250.081 6469.7,-248.79"/>
<polygon fill="black" stroke="black" points="6470.41,-252.219 6479.63,-247.007 6469.17,-245.329 6470.41,-252.219"/>
</g>
<!-- x1 -->
<g id="node122" class="node"><title>x1</title>
<a xlink:href="0019840" xlink:title="GO:0019840 (8)">
<ellipse fill="#e98576" stroke="#e98576" cx="6700" cy="-234" rx="75.2018" ry="18"/>
<text text-anchor="middle" x="6700" y="-229.8" font-family="Times,serif" font-size="14.00">GO:0019840 (8)</text>
</a>
</g>
<!-- b0&#45;&gt;x1 -->
<g id="edge120" class="edge"><title>b0&#45;&gt;x1</title>
<path fill="none" stroke="black" d="M4359.33,-292.902C4370.43,-290.908 4382.05,-289.126 4393,-288 4884.47,-237.464 6124.81,-305.225 6616,-252 6623.12,-251.229 6630.53,-250.146 6637.87,-248.898"/>
<polygon fill="black" stroke="black" points="6638.59,-252.325 6647.81,-247.105 6637.34,-245.437 6638.59,-252.325"/>
</g>
<!-- t1 -->
<g id="node126" class="node"><title>t1</title>
<a xlink:href="0051540" xlink:title="GO:0051540 (11)">
<ellipse fill="#e98576" stroke="#e98576" cx="6873" cy="-234" rx="79.4447" ry="18"/>
<text text-anchor="middle" x="6873" y="-229.8" font-family="Times,serif" font-size="14.00">GO:0051540 (11)</text>
</a>
</g>
<!-- b0&#45;&gt;t1 -->
<g id="edge124" class="edge"><title>b0&#45;&gt;t1</title>
<path fill="none" stroke="black" d="M4359.33,-292.892C4370.43,-290.899 4382.05,-289.12 4393,-288 4921.64,-233.946 6255.36,-306.054 6784,-252 6791.7,-251.212 6799.73,-250.099 6807.68,-248.815"/>
<polygon fill="black" stroke="black" points="6808.4,-252.242 6817.67,-247.108 6807.23,-245.342 6808.4,-252.242"/>
</g>
<!-- m0 -->
<g id="node27" class="node"><title>m0</title>
<a xlink:href="0008233" xlink:title="GO:0008233 (128)">
<ellipse fill="#e98576" stroke="#e98576" cx="84" cy="-162" rx="84.1886" ry="18"/>
<text text-anchor="middle" x="84" y="-157.8" font-family="Times,serif" font-size="14.00">GO:0008233 (128)</text>
</a>
</g>
<!-- g0&#45;&gt;m0 -->
<g id="edge24" class="edge"><title>g0&#45;&gt;m0</title>
<path fill="none" stroke="black" d="M251.281,-218.496C218.18,-207.515 172.551,-192.377 137.309,-180.685"/>
<polygon fill="black" stroke="black" points="138.257,-177.312 127.663,-177.485 136.053,-183.956 138.257,-177.312"/>
</g>
<!-- z1 -->
<g id="node105" class="node"><title>z1</title>
<a xlink:href="0019213" xlink:title="GO:0019213 (5)">
<ellipse fill="#e98576" stroke="#e98576" cx="262" cy="-162" rx="75.2018" ry="18"/>
<text text-anchor="middle" x="262" y="-157.8" font-family="Times,serif" font-size="14.00">GO:0019213 (5)</text>
</a>
</g>
<!-- g0&#45;&gt;z1 -->
<g id="edge102" class="edge"><title>g0&#45;&gt;z1</title>
<path fill="none" stroke="black" d="M287.012,-216.055C283.257,-208.091 278.694,-198.411 274.497,-189.51"/>
<polygon fill="black" stroke="black" points="277.574,-187.828 270.144,-180.275 271.242,-190.813 277.574,-187.828"/>
</g>
<!-- d2 -->
<g id="node30" class="node"><title>d2</title>
<a xlink:href="0004497" xlink:title="GO:0004497 (4)">
<ellipse fill="#e98576" stroke="#e98576" cx="430" cy="-162" rx="75.2018" ry="18"/>
<text text-anchor="middle" x="430" y="-157.8" font-family="Times,serif" font-size="14.00">GO:0004497 (4)</text>
</a>
</g>
<!-- l0&#45;&gt;d2 -->
<g id="edge26" class="edge"><title>l0&#45;&gt;d2</title>
<path fill="none" stroke="black" d="M519.864,-216.765C503.653,-207.066 482.88,-194.638 465.391,-184.174"/>
<polygon fill="black" stroke="black" points="466.964,-181.037 456.586,-178.906 463.37,-187.044 466.964,-181.037"/>
</g>
<!-- u1 -->
<g id="node75" class="node"><title>u1</title>
<a xlink:href="0051213" xlink:title="GO:0051213 (9)">
<ellipse fill="#e98576" stroke="#e98576" cx="598" cy="-162" rx="75.2018" ry="18"/>
<text text-anchor="middle" x="598" y="-157.8" font-family="Times,serif" font-size="14.00">GO:0051213 (9)</text>
</a>
</g>
<!-- l0&#45;&gt;u1 -->
<g id="edge72" class="edge"><title>l0&#45;&gt;u1</title>
<path fill="none" stroke="black" d="M559.346,-216.055C565.485,-207.629 573.025,-197.28 579.81,-187.966"/>
<polygon fill="black" stroke="black" points="582.708,-189.932 585.768,-179.789 577.051,-185.81 582.708,-189.932"/>
</g>
<!-- a1 -->
<g id="node111" class="node"><title>a1</title>
<a xlink:href="0009055" xlink:title="GO:0009055 (36)">
<ellipse fill="#e98576" stroke="#e98576" cx="771" cy="-162" rx="79.4447" ry="18"/>
<text text-anchor="middle" x="771" y="-157.8" font-family="Times,serif" font-size="14.00">GO:0009055 (36)</text>
</a>
</g>
<!-- l0&#45;&gt;a1 -->
<g id="edge108" class="edge"><title>l0&#45;&gt;a1</title>
<path fill="none" stroke="black" d="M592.6,-218.75C628.414,-207.558 678.407,-191.935 716.361,-180.075"/>
<polygon fill="black" stroke="black" points="717.728,-183.314 726.229,-176.991 715.64,-176.633 717.728,-183.314"/>
</g>
<!-- p1 -->
<g id="node95" class="node"><title>p1</title>
<a xlink:href="0016597" xlink:title="GO:0016597 (17)">
<ellipse fill="#e98576" stroke="#e98576" cx="3351" cy="-162" rx="79.4447" ry="18"/>
<text text-anchor="middle" x="3351" y="-157.8" font-family="Times,serif" font-size="14.00">GO:0016597 (17)</text>
</a>
</g>
<!-- q1&#45;&gt;p1 -->
<g id="edge92" class="edge"><title>q1&#45;&gt;p1</title>
<path fill="none" stroke="black" d="M3351,-215.697C3351,-207.983 3351,-198.712 3351,-190.112"/>
<polygon fill="black" stroke="black" points="3354.5,-190.104 3351,-180.104 3347.5,-190.104 3354.5,-190.104"/>
</g>
<!-- i1 -->
<g id="node79" class="node"><title>i1</title>
<a xlink:href="0016879" xlink:title="GO:0016879">
<ellipse fill="#dddddd" stroke="#dddddd" cx="930" cy="-162" rx="61.1934" ry="18"/>
<text text-anchor="middle" x="930" y="-157.8" font-family="Times,serif" font-size="14.00">GO:0016879</text>
</a>
</g>
<!-- u0&#45;&gt;i1 -->
<g id="edge76" class="edge"><title>u0&#45;&gt;i1</title>
<path fill="none" stroke="black" d="M905.746,-216.055C909.387,-208.091 913.812,-198.411 917.881,-189.51"/>
<polygon fill="black" stroke="black" points="921.128,-190.825 922.103,-180.275 914.762,-187.915 921.128,-190.825"/>
</g>
<!-- r0 -->
<g id="node71" class="node"><title>r0</title>
<a xlink:href="0004871" xlink:title="GO:0004871 (54)">
<ellipse fill="#e98576" stroke="#e98576" cx="7051" cy="-234" rx="79.4447" ry="18"/>
<text text-anchor="middle" x="7051" y="-229.8" font-family="Times,serif" font-size="14.00">GO:0004871 (54)</text>
</a>
</g>
<!-- t0 -->
<g id="node73" class="node"><title>t0</title>
<a xlink:href="0004872" xlink:title="GO:0004872 (50)">
<ellipse fill="#e98576" stroke="#e98576" cx="7051" cy="-162" rx="79.4447" ry="18"/>
<text text-anchor="middle" x="7051" y="-157.8" font-family="Times,serif" font-size="14.00">GO:0004872 (50)</text>
</a>
</g>
<!-- r0&#45;&gt;t0 -->
<g id="edge70" class="edge"><title>r0&#45;&gt;t0</title>
<path fill="none" stroke="black" d="M7051,-215.697C7051,-207.983 7051,-198.712 7051,-190.112"/>
<polygon fill="black" stroke="black" points="7054.5,-190.104 7051,-180.104 7047.5,-190.104 7054.5,-190.104"/>
</g>
<!-- h1 -->
<g id="node80" class="node"><title>h1</title>
<a xlink:href="0016881" xlink:title="GO:0016881">
<ellipse fill="#dddddd" stroke="#dddddd" cx="930" cy="-90" rx="61.1934" ry="18"/>
<text text-anchor="middle" x="930" y="-85.8" font-family="Times,serif" font-size="14.00">GO:0016881</text>
</a>
</g>
<!-- i1&#45;&gt;h1 -->
<g id="edge110" class="edge"><title>i1&#45;&gt;h1</title>
<path fill="none" stroke="black" d="M930,-143.697C930,-135.983 930,-126.712 930,-118.112"/>
<polygon fill="black" stroke="black" points="933.5,-118.104 930,-108.104 926.5,-118.104 933.5,-118.104"/>
</g>
<!-- g1 -->
<g id="node82" class="node"><title>g1</title>
<a xlink:href="0019787" xlink:title="GO:0019787 (24)">
<ellipse fill="#e98576" stroke="#e98576" cx="930" cy="-18" rx="79.4447" ry="18"/>
<text text-anchor="middle" x="930" y="-13.8" font-family="Times,serif" font-size="14.00">GO:0019787 (24)</text>
</a>
</g>
<!-- h1&#45;&gt;g1 -->
<g id="edge78" class="edge"><title>h1&#45;&gt;g1</title>
<path fill="none" stroke="black" d="M930,-71.6966C930,-63.9827 930,-54.7125 930,-46.1124"/>
<polygon fill="black" stroke="black" points="933.5,-46.1043 930,-36.1043 926.5,-46.1044 933.5,-46.1043"/>
</g>
<!-- s0&#45;&gt;r0 -->
<g id="edge96" class="edge"><title>s0&#45;&gt;r0</title>
<path fill="none" stroke="black" d="M5732.05,-293.057C5740.9,-291.023 5750.2,-289.187 5759,-288 6288.66,-216.547 6429.67,-309.777 6961,-252 6968.98,-251.132 6977.31,-249.946 6985.55,-248.6"/>
<polygon fill="black" stroke="black" points="6986.25,-252.031 6995.51,-246.89 6985.06,-245.132 6986.25,-252.031"/>
</g>
</g>
</svg>
