<?xml version="1.0" encoding="UTF-8" standalone="no"?>
<!DOCTYPE svg PUBLIC "-//W3C//DTD SVG 1.1//EN"
 "http://www.w3.org/Graphics/SVG/1.1/DTD/svg11.dtd">
<!-- Generated by graphviz version 2.28.0 (20110622.2320)
 -->
<!-- Title: G Pages: 1 -->
<svg width="1200pt" height="260pt"
 viewBox="0.00 0.00 1200.00 260.00" xmlns="http://www.w3.org/2000/svg" xmlns:xlink="http://www.w3.org/1999/xlink">
<g id="graph1" class="graph" transform="scale(1 1) rotate(0) translate(4 256)">
<title>G</title>
<polygon fill="white" stroke="white" points="-4,5 -4,-256 1197,-256 1197,5 -4,5"/>
<!-- b0 -->
<g id="node1" class="node"><title>b0</title>
<a xlink:href="0005488" xlink:title="GO:0005488">
<ellipse fill="#dddddd" stroke="#dddddd" cx="416" cy="-162" rx="61.1934" ry="18"/>
<text text-anchor="middle" x="416" y="-157.8" font-family="Times,serif" font-size="14.00">GO:0005488</text>
</a>
</g>
<!-- m0 -->
<g id="node3" class="node"><title>m0</title>
<a xlink:href="0003823" xlink:title="GO:0003823 (1)">
<ellipse fill="#e98576" stroke="#e98576" cx="75" cy="-90" rx="75.2018" ry="18"/>
<text text-anchor="middle" x="75" y="-85.8" font-family="Times,serif" font-size="14.00">GO:0003823 (1)</text>
</a>
</g>
<!-- b0&#45;&gt;m0 -->
<g id="edge2" class="edge"><title>b0&#45;&gt;m0</title>
<path fill="none" stroke="black" d="M367.143,-150.971C307.411,-138.709 206.117,-117.916 139.891,-104.321"/>
<polygon fill="black" stroke="black" points="140.479,-100.869 129.98,-102.286 139.072,-107.726 140.479,-100.869"/>
</g>
<!-- g0 -->
<g id="node8" class="node"><title>g0</title>
<a xlink:href="0043167" xlink:title="GO:0043167 (6)">
<ellipse fill="#e98576" stroke="#e98576" cx="243" cy="-90" rx="75.2018" ry="18"/>
<text text-anchor="middle" x="243" y="-85.8" font-family="Times,serif" font-size="14.00">GO:0043167 (6)</text>
</a>
</g>
<!-- b0&#45;&gt;g0 -->
<g id="edge6" class="edge"><title>b0&#45;&gt;g0</title>
<path fill="none" stroke="black" d="M381.407,-147.003C354.918,-136.285 318.124,-121.397 289.131,-109.666"/>
<polygon fill="black" stroke="black" points="290.206,-106.325 279.624,-105.819 287.581,-112.814 290.206,-106.325"/>
</g>
<!-- a0 -->
<g id="node19" class="node"><title>a0</title>
<a xlink:href="0005515" xlink:title="GO:0005515 (25)">
<ellipse fill="#e98576" stroke="#e98576" cx="416" cy="-90" rx="79.4447" ry="18"/>
<text text-anchor="middle" x="416" y="-85.8" font-family="Times,serif" font-size="14.00">GO:0005515 (25)</text>
</a>
</g>
<!-- b0&#45;&gt;a0 -->
<g id="edge16" class="edge"><title>b0&#45;&gt;a0</title>
<path fill="none" stroke="black" d="M416,-143.697C416,-135.983 416,-126.712 416,-118.112"/>
<polygon fill="black" stroke="black" points="419.5,-118.104 416,-108.104 412.5,-118.104 419.5,-118.104"/>
</g>
<!-- l0 -->
<g id="node21" class="node"><title>l0</title>
<a xlink:href="0003676" xlink:title="GO:0003676 (1)">
<ellipse fill="#e98576" stroke="#e98576" cx="589" cy="-90" rx="75.2018" ry="18"/>
<text text-anchor="middle" x="589" y="-85.8" font-family="Times,serif" font-size="14.00">GO:0003676 (1)</text>
</a>
</g>
<!-- b0&#45;&gt;l0 -->
<g id="edge18" class="edge"><title>b0&#45;&gt;l0</title>
<path fill="none" stroke="black" d="M450.593,-147.003C477.082,-136.285 513.876,-121.397 542.869,-109.666"/>
<polygon fill="black" stroke="black" points="544.419,-112.814 552.376,-105.819 541.794,-106.325 544.419,-112.814"/>
</g>
<!-- i0 -->
<g id="node4" class="node"><title>i0</title>
<a xlink:href="0004871" xlink:title="GO:0004871 (3)">
<ellipse fill="#e98576" stroke="#e98576" cx="1067" cy="-90" rx="75.2018" ry="18"/>
<text text-anchor="middle" x="1067" y="-85.8" font-family="Times,serif" font-size="14.00">GO:0004871 (3)</text>
</a>
</g>
<!-- k0 -->
<g id="node6" class="node"><title>k0</title>
<a xlink:href="0004872" xlink:title="GO:0004872 (2)">
<ellipse fill="#e98576" stroke="#e98576" cx="1067" cy="-18" rx="75.2018" ry="18"/>
<text text-anchor="middle" x="1067" y="-13.8" font-family="Times,serif" font-size="14.00">GO:0004872 (2)</text>
</a>
</g>
<!-- i0&#45;&gt;k0 -->
<g id="edge4" class="edge"><title>i0&#45;&gt;k0</title>
<path fill="none" stroke="black" d="M1067,-71.6966C1067,-63.9827 1067,-54.7125 1067,-46.1124"/>
<polygon fill="black" stroke="black" points="1070.5,-46.1043 1067,-36.1043 1063.5,-46.1044 1070.5,-46.1043"/>
</g>
<!-- c0 -->
<g id="node9" class="node"><title>c0</title>
<a xlink:href="0003674" xlink:title="GO:0003674 (4)">
<ellipse fill="#e98576" stroke="#e98576" cx="821" cy="-234" rx="75.2018" ry="18"/>
<text text-anchor="middle" x="821" y="-229.8" font-family="Times,serif" font-size="14.00">GO:0003674 (4)</text>
</a>
</g>
<!-- c0&#45;&gt;b0 -->
<g id="edge20" class="edge"><title>c0&#45;&gt;b0</title>
<path fill="none" stroke="black" d="M762.11,-222.821C686.104,-209.685 554.488,-186.936 477.32,-173.598"/>
<polygon fill="black" stroke="black" points="477.715,-170.115 467.265,-171.861 476.522,-177.013 477.715,-170.115"/>
</g>
<!-- d0 -->
<g id="node11" class="node"><title>d0</title>
<a xlink:href="0030234" xlink:title="GO:0030234 (7)">
<ellipse fill="#e98576" stroke="#e98576" cx="666" cy="-162" rx="75.2018" ry="18"/>
<text text-anchor="middle" x="666" y="-157.8" font-family="Times,serif" font-size="14.00">GO:0030234 (7)</text>
</a>
</g>
<!-- c0&#45;&gt;d0 -->
<g id="edge8" class="edge"><title>c0&#45;&gt;d0</title>
<path fill="none" stroke="black" d="M787.367,-217.811C764.314,-207.4 733.539,-193.501 708.747,-182.305"/>
<polygon fill="black" stroke="black" points="710.121,-179.085 699.567,-178.159 707.24,-185.465 710.121,-179.085"/>
</g>
<!-- f0 -->
<g id="node12" class="node"><title>f0</title>
<a xlink:href="0003824" xlink:title="GO:0003824">
<ellipse fill="#dddddd" stroke="#dddddd" cx="821" cy="-162" rx="61.1934" ry="18"/>
<text text-anchor="middle" x="821" y="-157.8" font-family="Times,serif" font-size="14.00">GO:0003824</text>
</a>
</g>
<!-- c0&#45;&gt;f0 -->
<g id="edge12" class="edge"><title>c0&#45;&gt;f0</title>
<path fill="none" stroke="black" d="M821,-215.697C821,-207.983 821,-198.712 821,-190.112"/>
<polygon fill="black" stroke="black" points="824.5,-190.104 821,-180.104 817.5,-190.104 824.5,-190.104"/>
</g>
<!-- j0 -->
<g id="node23" class="node"><title>j0</title>
<a xlink:href="0060089" xlink:title="GO:0060089">
<ellipse fill="#dddddd" stroke="#dddddd" cx="962" cy="-162" rx="61.1934" ry="18"/>
<text text-anchor="middle" x="962" y="-157.8" font-family="Times,serif" font-size="14.00">GO:0060089</text>
</a>
</g>
<!-- c0&#45;&gt;j0 -->
<g id="edge28" class="edge"><title>c0&#45;&gt;j0</title>
<path fill="none" stroke="black" d="M852.292,-217.465C873.164,-207.103 900.757,-193.404 923.049,-182.337"/>
<polygon fill="black" stroke="black" points="924.842,-185.355 932.243,-177.773 921.73,-179.085 924.842,-185.355"/>
</g>
<!-- h0 -->
<g id="node28" class="node"><title>h0</title>
<a xlink:href="0042056" xlink:title="GO:0042056 (6)">
<ellipse fill="#e98576" stroke="#e98576" cx="1117" cy="-162" rx="75.2018" ry="18"/>
<text text-anchor="middle" x="1117" y="-157.8" font-family="Times,serif" font-size="14.00">GO:0042056 (6)</text>
</a>
</g>
<!-- c0&#45;&gt;h0 -->
<g id="edge26" class="edge"><title>c0&#45;&gt;h0</title>
<path fill="none" stroke="black" d="M872.559,-220.807C923.549,-208.749 1001.59,-190.293 1055.72,-177.492"/>
<polygon fill="black" stroke="black" points="1056.61,-180.878 1065.54,-175.171 1055,-174.066 1056.61,-180.878"/>
</g>
<!-- o0 -->
<g id="node14" class="node"><title>o0</title>
<a xlink:href="0016787" xlink:title="GO:0016787">
<ellipse fill="#dddddd" stroke="#dddddd" cx="744" cy="-90" rx="61.1934" ry="18"/>
<text text-anchor="middle" x="744" y="-85.8" font-family="Times,serif" font-size="14.00">GO:0016787</text>
</a>
</g>
<!-- f0&#45;&gt;o0 -->
<g id="edge10" class="edge"><title>f0&#45;&gt;o0</title>
<path fill="none" stroke="black" d="M803.141,-144.765C793.203,-135.73 780.659,-124.326 769.684,-114.349"/>
<polygon fill="black" stroke="black" points="771.783,-111.527 762.029,-107.39 767.074,-116.706 771.783,-111.527"/>
</g>
<!-- e0 -->
<g id="node17" class="node"><title>e0</title>
<a xlink:href="0016740" xlink:title="GO:0016740 (7)">
<ellipse fill="#e98576" stroke="#e98576" cx="899" cy="-90" rx="75.2018" ry="18"/>
<text text-anchor="middle" x="899" y="-85.8" font-family="Times,serif" font-size="14.00">GO:0016740 (7)</text>
</a>
</g>
<!-- f0&#45;&gt;e0 -->
<g id="edge14" class="edge"><title>f0&#45;&gt;e0</title>
<path fill="none" stroke="black" d="M839.091,-144.765C849.086,-135.795 861.682,-124.49 872.743,-114.564"/>
<polygon fill="black" stroke="black" points="875.361,-116.917 880.466,-107.633 870.685,-111.708 875.361,-116.917"/>
</g>
<!-- n0 -->
<g id="node26" class="node"><title>n0</title>
<a xlink:href="0008233" xlink:title="GO:0008233 (1)">
<ellipse fill="#e98576" stroke="#e98576" cx="744" cy="-18" rx="75.2018" ry="18"/>
<text text-anchor="middle" x="744" y="-13.8" font-family="Times,serif" font-size="14.00">GO:0008233 (1)</text>
</a>
</g>
<!-- o0&#45;&gt;n0 -->
<g id="edge24" class="edge"><title>o0&#45;&gt;n0</title>
<path fill="none" stroke="black" d="M744,-71.6966C744,-63.9827 744,-54.7125 744,-46.1124"/>
<polygon fill="black" stroke="black" points="747.5,-46.1043 744,-36.1043 740.5,-46.1044 747.5,-46.1043"/>
</g>
<!-- j0&#45;&gt;i0 -->
<g id="edge22" class="edge"><title>j0&#45;&gt;i0</title>
<path fill="none" stroke="black" d="M985.564,-145.291C999.951,-135.7 1018.55,-123.298 1034.35,-112.769"/>
<polygon fill="black" stroke="black" points="1036.41,-115.602 1042.79,-107.142 1032.52,-109.777 1036.41,-115.602"/>
</g>
</g>
</svg>
