<?xml version="1.0" encoding="UTF-8" standalone="no"?>
<!DOCTYPE svg PUBLIC "-//W3C//DTD SVG 1.1//EN"
 "http://www.w3.org/Graphics/SVG/1.1/DTD/svg11.dtd">
<!-- Generated by graphviz version 2.28.0 (20110622.2320)
 -->
<!-- Title: G Pages: 1 -->
<svg width="698pt" height="404pt"
 viewBox="0.00 0.00 698.00 404.00" xmlns="http://www.w3.org/2000/svg" xmlns:xlink="http://www.w3.org/1999/xlink">
<g id="graph1" class="graph" transform="scale(1 1) rotate(0) translate(4 400)">
<title>G</title>
<polygon fill="white" stroke="white" points="-4,5 -4,-400 695,-400 695,5 -4,5"/>
<!-- b0 -->
<g id="node1" class="node"><title>b0</title>
<a xlink:href="0005575" xlink:title="GO:0005575">
<ellipse fill="#dddddd" stroke="#dddddd" cx="305" cy="-378" rx="61.1934" ry="18"/>
<text text-anchor="middle" x="305" y="-373.8" font-family="Times,serif" font-size="14.00">GO:0005575</text>
</a>
</g>
<!-- f0 -->
<g id="node3" class="node"><title>f0</title>
<a xlink:href="0044464" xlink:title="GO:0044464 (1)">
<ellipse fill="#e98576" stroke="#e98576" cx="150" cy="-234" rx="75.2018" ry="18"/>
<text text-anchor="middle" x="150" y="-229.8" font-family="Times,serif" font-size="14.00">GO:0044464 (1)</text>
</a>
</g>
<!-- b0&#45;&gt;f0 -->
<g id="edge2" class="edge"><title>b0&#45;&gt;f0</title>
<path fill="none" stroke="black" d="M247.712,-371.51C188.081,-364.471 100.553,-349.957 80,-324 70.0676,-311.456 72.8772,-302.327 80,-288 86.498,-274.93 97.929,-264.222 109.693,-255.938"/>
<polygon fill="black" stroke="black" points="111.803,-258.74 118.253,-250.335 107.969,-252.883 111.803,-258.74"/>
</g>
<!-- g0 -->
<g id="node4" class="node"><title>g0</title>
<a xlink:href="0005623" xlink:title="GO:0005623">
<ellipse fill="#dddddd" stroke="#dddddd" cx="150" cy="-306" rx="61.1934" ry="18"/>
<text text-anchor="middle" x="150" y="-301.8" font-family="Times,serif" font-size="14.00">GO:0005623</text>
</a>
</g>
<!-- b0&#45;&gt;g0 -->
<g id="edge32" class="edge"><title>b0&#45;&gt;g0</title>
<path fill="none" stroke="black" d="M272.884,-362.496C249.296,-351.843 217.047,-337.279 191.504,-325.744"/>
<polygon fill="black" stroke="black" points="192.629,-322.412 182.075,-321.485 189.748,-328.791 192.629,-322.412"/>
</g>
<!-- a0 -->
<g id="node16" class="node"><title>a0</title>
<a xlink:href="0005576" xlink:title="GO:0005576 (5)">
<ellipse fill="#e98576" stroke="#e98576" cx="305" cy="-306" rx="75.2018" ry="18"/>
<text text-anchor="middle" x="305" y="-301.8" font-family="Times,serif" font-size="14.00">GO:0005576 (5)</text>
</a>
</g>
<!-- b0&#45;&gt;a0 -->
<g id="edge16" class="edge"><title>b0&#45;&gt;a0</title>
<path fill="none" stroke="black" d="M305,-359.697C305,-351.983 305,-342.712 305,-334.112"/>
<polygon fill="black" stroke="black" points="308.5,-334.104 305,-324.104 301.5,-334.104 308.5,-334.104"/>
</g>
<!-- k0 -->
<g id="node18" class="node"><title>k0</title>
<a xlink:href="0032991" xlink:title="GO:0032991">
<ellipse fill="#dddddd" stroke="#dddddd" cx="460" cy="-306" rx="61.1934" ry="18"/>
<text text-anchor="middle" x="460" y="-301.8" font-family="Times,serif" font-size="14.00">GO:0032991</text>
</a>
</g>
<!-- b0&#45;&gt;k0 -->
<g id="edge18" class="edge"><title>b0&#45;&gt;k0</title>
<path fill="none" stroke="black" d="M337.116,-362.496C360.704,-351.843 392.953,-337.279 418.496,-325.744"/>
<polygon fill="black" stroke="black" points="420.252,-328.791 427.925,-321.485 417.371,-322.412 420.252,-328.791"/>
</g>
<!-- m0 -->
<g id="node22" class="node"><title>m0</title>
<a xlink:href="0019012" xlink:title="GO:0019012 (1)">
<ellipse fill="#e98576" stroke="#e98576" cx="615" cy="-306" rx="75.2018" ry="18"/>
<text text-anchor="middle" x="615" y="-301.8" font-family="Times,serif" font-size="14.00">GO:0019012 (1)</text>
</a>
</g>
<!-- b0&#45;&gt;m0 -->
<g id="edge22" class="edge"><title>b0&#45;&gt;m0</title>
<path fill="none" stroke="black" d="M352.082,-366.369C405.561,-354.293 493.065,-334.534 552.292,-321.16"/>
<polygon fill="black" stroke="black" points="553.292,-324.522 562.276,-318.906 551.75,-317.694 553.292,-324.522"/>
</g>
<!-- h0 -->
<g id="node6" class="node"><title>h0</title>
<a xlink:href="0016020" xlink:title="GO:0016020 (1)">
<ellipse fill="#e98576" stroke="#e98576" cx="291" cy="-162" rx="75.2018" ry="18"/>
<text text-anchor="middle" x="291" y="-157.8" font-family="Times,serif" font-size="14.00">GO:0016020 (1)</text>
</a>
</g>
<!-- f0&#45;&gt;h0 -->
<g id="edge24" class="edge"><title>f0&#45;&gt;h0</title>
<path fill="none" stroke="black" d="M181.292,-217.465C201.738,-207.315 228.634,-193.962 250.678,-183.018"/>
<polygon fill="black" stroke="black" points="252.394,-186.074 259.795,-178.492 249.282,-179.804 252.394,-186.074"/>
</g>
<!-- l0 -->
<g id="node8" class="node"><title>l0</title>
<a xlink:href="0044425" xlink:title="GO:0044425">
<ellipse fill="#dddddd" stroke="#dddddd" cx="291" cy="-90" rx="61.1934" ry="18"/>
<text text-anchor="middle" x="291" y="-85.8" font-family="Times,serif" font-size="14.00">GO:0044425</text>
</a>
</g>
<!-- f0&#45;&gt;l0 -->
<g id="edge8" class="edge"><title>f0&#45;&gt;l0</title>
<path fill="none" stroke="black" d="M157.995,-216.038C167.627,-196.889 185.26,-165.594 207,-144 219.968,-131.119 236.599,-119.819 251.635,-110.998"/>
<polygon fill="black" stroke="black" points="253.771,-113.811 260.745,-105.834 250.319,-107.721 253.771,-113.811"/>
</g>
<!-- e0 -->
<g id="node11" class="node"><title>e0</title>
<a xlink:href="0005622" xlink:title="GO:0005622">
<ellipse fill="#dddddd" stroke="#dddddd" cx="61" cy="-162" rx="61.1934" ry="18"/>
<text text-anchor="middle" x="61" y="-157.8" font-family="Times,serif" font-size="14.00">GO:0005622</text>
</a>
</g>
<!-- f0&#45;&gt;e0 -->
<g id="edge10" class="edge"><title>f0&#45;&gt;e0</title>
<path fill="none" stroke="black" d="M128.908,-216.411C117.102,-207.125 102.222,-195.421 89.4017,-185.338"/>
<polygon fill="black" stroke="black" points="91.3516,-182.419 81.3277,-178.988 87.0241,-187.921 91.3516,-182.419"/>
</g>
<!-- d0 -->
<g id="node13" class="node"><title>d0</title>
<a xlink:href="0044424" xlink:title="GO:0044424">
<ellipse fill="#dddddd" stroke="#dddddd" cx="137" cy="-90" rx="61.1934" ry="18"/>
<text text-anchor="middle" x="137" y="-85.8" font-family="Times,serif" font-size="14.00">GO:0044424</text>
</a>
</g>
<!-- f0&#45;&gt;d0 -->
<g id="edge14" class="edge"><title>f0&#45;&gt;d0</title>
<path fill="none" stroke="black" d="M148.432,-215.871C146.216,-191.67 142.146,-147.211 139.508,-118.393"/>
<polygon fill="black" stroke="black" points="142.971,-117.829 138.574,-108.189 136,-118.467 142.971,-117.829"/>
</g>
<!-- g0&#45;&gt;f0 -->
<g id="edge4" class="edge"><title>g0&#45;&gt;f0</title>
<path fill="none" stroke="black" d="M150,-287.697C150,-279.983 150,-270.712 150,-262.112"/>
<polygon fill="black" stroke="black" points="153.5,-262.104 150,-252.104 146.5,-262.104 153.5,-262.104"/>
</g>
<!-- h0&#45;&gt;l0 -->
<g id="edge6" class="edge"><title>h0&#45;&gt;l0</title>
<path fill="none" stroke="black" d="M291,-143.697C291,-135.983 291,-126.712 291,-118.112"/>
<polygon fill="black" stroke="black" points="294.5,-118.104 291,-108.104 287.5,-118.104 294.5,-118.104"/>
</g>
<!-- i0 -->
<g id="node26" class="node"><title>i0</title>
<a xlink:href="0043190" xlink:title="GO:0043190 (1)">
<ellipse fill="#e98576" stroke="#e98576" cx="357" cy="-18" rx="75.2018" ry="18"/>
<text text-anchor="middle" x="357" y="-13.8" font-family="Times,serif" font-size="14.00">GO:0043190 (1)</text>
</a>
</g>
<!-- l0&#45;&gt;i0 -->
<g id="edge28" class="edge"><title>l0&#45;&gt;i0</title>
<path fill="none" stroke="black" d="M306.641,-72.411C314.822,-63.7338 324.994,-52.946 334.049,-43.3418"/>
<polygon fill="black" stroke="black" points="336.699,-45.6332 341.013,-35.9562 331.606,-40.8311 336.699,-45.6332"/>
</g>
<!-- e0&#45;&gt;d0 -->
<g id="edge12" class="edge"><title>e0&#45;&gt;d0</title>
<path fill="none" stroke="black" d="M79.0109,-144.411C88.7597,-135.432 100.962,-124.193 111.655,-114.344"/>
<polygon fill="black" stroke="black" points="114.134,-116.819 119.118,-107.47 109.392,-111.67 114.134,-116.819"/>
</g>
<!-- c0 -->
<g id="node20" class="node"><title>c0</title>
<a xlink:href="0005737" xlink:title="GO:0005737 (4)">
<ellipse fill="#e98576" stroke="#e98576" cx="137" cy="-18" rx="75.2018" ry="18"/>
<text text-anchor="middle" x="137" y="-13.8" font-family="Times,serif" font-size="14.00">GO:0005737 (4)</text>
</a>
</g>
<!-- d0&#45;&gt;c0 -->
<g id="edge20" class="edge"><title>d0&#45;&gt;c0</title>
<path fill="none" stroke="black" d="M137,-71.6966C137,-63.9827 137,-54.7125 137,-46.1124"/>
<polygon fill="black" stroke="black" points="140.5,-46.1043 137,-36.1043 133.5,-46.1044 140.5,-46.1043"/>
</g>
<!-- j0 -->
<g id="node24" class="node"><title>j0</title>
<a xlink:href="0043234" xlink:title="GO:0043234">
<ellipse fill="#dddddd" stroke="#dddddd" cx="443" cy="-234" rx="61.1934" ry="18"/>
<text text-anchor="middle" x="443" y="-229.8" font-family="Times,serif" font-size="14.00">GO:0043234</text>
</a>
</g>
<!-- k0&#45;&gt;j0 -->
<g id="edge30" class="edge"><title>k0&#45;&gt;j0</title>
<path fill="none" stroke="black" d="M455.798,-287.697C453.904,-279.898 451.623,-270.509 449.516,-261.829"/>
<polygon fill="black" stroke="black" points="452.915,-260.996 447.154,-252.104 446.113,-262.648 452.915,-260.996"/>
</g>
<!-- j0&#45;&gt;i0 -->
<g id="edge26" class="edge"><title>j0&#45;&gt;i0</title>
<path fill="none" stroke="black" d="M436.108,-215.849C421.132,-178.583 385.533,-90.0016 367.645,-45.4898"/>
<polygon fill="black" stroke="black" points="370.782,-43.9091 363.806,-35.9354 364.287,-46.5193 370.782,-43.9091"/>
</g>
</g>
</svg>
