<?xml version="1.0" encoding="UTF-8" standalone="no"?>
<!DOCTYPE svg PUBLIC "-//W3C//DTD SVG 1.1//EN"
 "http://www.w3.org/Graphics/SVG/1.1/DTD/svg11.dtd">
<!-- Generated by graphviz version 2.28.0 (20110622.2320)
 -->
<!-- Title: G Pages: 1 -->
<svg width="6336pt" height="404pt"
 viewBox="0.00 0.00 6336.00 404.00" xmlns="http://www.w3.org/2000/svg" xmlns:xlink="http://www.w3.org/1999/xlink">
<g id="graph1" class="graph" transform="scale(1 1) rotate(0) translate(4 400)">
<title>G</title>
<polygon fill="white" stroke="white" points="-4,5 -4,-400 6333,-400 6333,5 -4,5"/>
<!-- c0 -->
<g id="node1" class="node"><title>c0</title>
<a xlink:href="0003674" xlink:title="GO:0003674 (99)">
<ellipse fill="#e98576" stroke="#e98576" cx="4178" cy="-378" rx="79.4447" ry="18"/>
<text text-anchor="middle" x="4178" y="-373.8" font-family="Times,serif" font-size="14.00">GO:0003674 (99)</text>
</a>
</g>
<!-- p1 -->
<g id="node3" class="node"><title>p1</title>
<a xlink:href="0045182" xlink:title="GO:0045182 (2)">
<ellipse fill="#e98576" stroke="#e98576" cx="1049" cy="-306" rx="75.2018" ry="18"/>
<text text-anchor="middle" x="1049" y="-301.8" font-family="Times,serif" font-size="14.00">GO:0045182 (2)</text>
</a>
</g>
<!-- c0&#45;&gt;p1 -->
<g id="edge2" class="edge"><title>c0&#45;&gt;p1</title>
<path fill="none" stroke="black" d="M4098.77,-376.485C3649.87,-373.453 1435.06,-356.917 1133,-324 1125.88,-323.224 1118.47,-322.139 1111.13,-320.889"/>
<polygon fill="black" stroke="black" points="1111.66,-317.428 1101.2,-319.095 1110.41,-324.317 1111.66,-317.428"/>
</g>
<!-- h0 -->
<g id="node4" class="node"><title>h0</title>
<a xlink:href="0003824" xlink:title="GO:0003824 (33)">
<ellipse fill="#e98576" stroke="#e98576" cx="1222" cy="-306" rx="79.4447" ry="18"/>
<text text-anchor="middle" x="1222" y="-301.8" font-family="Times,serif" font-size="14.00">GO:0003824 (33)</text>
</a>
</g>
<!-- c0&#45;&gt;h0 -->
<g id="edge72" class="edge"><title>c0&#45;&gt;h0</title>
<path fill="none" stroke="black" d="M4099.32,-375.137C3684.05,-365.303 1749.71,-319.496 1310.75,-309.102"/>
<polygon fill="black" stroke="black" points="1310.74,-305.601 1300.66,-308.863 1310.58,-312.599 1310.74,-305.601"/>
</g>
<!-- m0 -->
<g id="node8" class="node"><title>m0</title>
<a xlink:href="0030234" xlink:title="GO:0030234 (52)">
<ellipse fill="#e98576" stroke="#e98576" cx="3822" cy="-306" rx="79.4447" ry="18"/>
<text text-anchor="middle" x="3822" y="-301.8" font-family="Times,serif" font-size="14.00">GO:0030234 (52)</text>
</a>
</g>
<!-- c0&#45;&gt;m0 -->
<g id="edge6" class="edge"><title>c0&#45;&gt;m0</title>
<path fill="none" stroke="black" d="M4120.01,-365.597C4057.04,-353.216 3956.57,-333.46 3889.95,-320.361"/>
<polygon fill="black" stroke="black" points="3890.45,-316.893 3879.97,-318.398 3889.1,-323.761 3890.45,-316.893"/>
</g>
<!-- b0 -->
<g id="node9" class="node"><title>b0</title>
<a xlink:href="0005488" xlink:title="GO:0005488 (56)">
<ellipse fill="#e98576" stroke="#e98576" cx="4000" cy="-306" rx="79.4447" ry="18"/>
<text text-anchor="middle" x="4000" y="-301.8" font-family="Times,serif" font-size="14.00">GO:0005488 (56)</text>
</a>
</g>
<!-- c0&#45;&gt;b0 -->
<g id="edge16" class="edge"><title>c0&#45;&gt;b0</title>
<path fill="none" stroke="black" d="M4140.25,-362.155C4113.2,-351.518 4076.58,-337.114 4047.53,-325.693"/>
<polygon fill="black" stroke="black" points="4048.59,-322.347 4038,-321.944 4046.03,-328.861 4048.59,-322.347"/>
</g>
<!-- l0 -->
<g id="node32" class="node"><title>l0</title>
<a xlink:href="0005215" xlink:title="GO:0005215 (53)">
<ellipse fill="#e98576" stroke="#e98576" cx="4178" cy="-306" rx="79.4447" ry="18"/>
<text text-anchor="middle" x="4178" y="-301.8" font-family="Times,serif" font-size="14.00">GO:0005215 (53)</text>
</a>
</g>
<!-- c0&#45;&gt;l0 -->
<g id="edge28" class="edge"><title>c0&#45;&gt;l0</title>
<path fill="none" stroke="black" d="M4178,-359.697C4178,-351.983 4178,-342.712 4178,-334.112"/>
<polygon fill="black" stroke="black" points="4181.5,-334.104 4178,-324.104 4174.5,-334.104 4181.5,-334.104"/>
</g>
<!-- q0 -->
<g id="node54" class="node"><title>q0</title>
<a xlink:href="0005198" xlink:title="GO:0005198 (20)">
<ellipse fill="#e98576" stroke="#e98576" cx="4356" cy="-306" rx="79.4447" ry="18"/>
<text text-anchor="middle" x="4356" y="-301.8" font-family="Times,serif" font-size="14.00">GO:0005198 (20)</text>
</a>
</g>
<!-- c0&#45;&gt;q0 -->
<g id="edge52" class="edge"><title>c0&#45;&gt;q0</title>
<path fill="none" stroke="black" d="M4215.75,-362.155C4242.8,-351.518 4279.42,-337.114 4308.47,-325.693"/>
<polygon fill="black" stroke="black" points="4309.97,-328.861 4318,-321.944 4307.41,-322.347 4309.97,-328.861"/>
</g>
<!-- h1 -->
<g id="node84" class="node"><title>h1</title>
<a xlink:href="0003774" xlink:title="GO:0003774 (5)">
<ellipse fill="#e98576" stroke="#e98576" cx="4529" cy="-306" rx="75.2018" ry="18"/>
<text text-anchor="middle" x="4529" y="-301.8" font-family="Times,serif" font-size="14.00">GO:0003774 (5)</text>
</a>
</g>
<!-- c0&#45;&gt;h1 -->
<g id="edge82" class="edge"><title>c0&#45;&gt;h1</title>
<path fill="none" stroke="black" d="M4235.6,-365.536C4289.48,-354.809 4372.19,-338.334 4444,-324 4450.2,-322.763 4456.65,-321.474 4463.11,-320.183"/>
<polygon fill="black" stroke="black" points="4464.1,-323.554 4473.22,-318.162 4462.73,-316.69 4464.1,-323.554"/>
</g>
<!-- k0 -->
<g id="node85" class="node"><title>k0</title>
<a xlink:href="0060089" xlink:title="GO:0060089">
<ellipse fill="#dddddd" stroke="#dddddd" cx="4684" cy="-306" rx="61.1934" ry="18"/>
<text text-anchor="middle" x="4684" y="-301.8" font-family="Times,serif" font-size="14.00">GO:0060089</text>
</a>
</g>
<!-- c0&#45;&gt;k0 -->
<g id="edge108" class="edge"><title>c0&#45;&gt;k0</title>
<path fill="none" stroke="black" d="M4250.73,-370.69C4337.42,-362.582 4486.46,-346.782 4613,-324 4618.38,-323.031 4623.96,-321.907 4629.52,-320.706"/>
<polygon fill="black" stroke="black" points="4630.48,-324.08 4639.47,-318.48 4628.95,-317.249 4630.48,-324.08"/>
</g>
<!-- f1 -->
<g id="node91" class="node"><title>f1</title>
<a xlink:href="0016209" xlink:title="GO:0016209 (5)">
<ellipse fill="#e98576" stroke="#e98576" cx="4839" cy="-306" rx="75.2018" ry="18"/>
<text text-anchor="middle" x="4839" y="-301.8" font-family="Times,serif" font-size="14.00">GO:0016209 (5)</text>
</a>
</g>
<!-- c0&#45;&gt;f1 -->
<g id="edge88" class="edge"><title>c0&#45;&gt;f1</title>
<path fill="none" stroke="black" d="M4254.24,-372.558C4364.79,-365.535 4575.87,-349.934 4754,-324 4760.8,-323.009 4767.89,-321.831 4774.93,-320.563"/>
<polygon fill="black" stroke="black" points="4776,-323.925 4785.19,-318.653 4774.72,-317.043 4776,-323.925"/>
</g>
<!-- a1 -->
<g id="node6" class="node"><title>a1</title>
<a xlink:href="0016853" xlink:title="GO:0016853 (6)">
<ellipse fill="#e98576" stroke="#e98576" cx="114" cy="-234" rx="75.2018" ry="18"/>
<text text-anchor="middle" x="114" y="-229.8" font-family="Times,serif" font-size="14.00">GO:0016853 (6)</text>
</a>
</g>
<!-- h0&#45;&gt;a1 -->
<g id="edge4" class="edge"><title>h0&#45;&gt;a1</title>
<path fill="none" stroke="black" d="M1166.17,-293.009C1155.22,-291.033 1143.78,-289.231 1133,-288 719.818,-240.855 610.918,-301.406 198,-252 191.151,-251.181 184.028,-250.1 176.955,-248.881"/>
<polygon fill="black" stroke="black" points="177.13,-245.355 166.665,-247.008 175.877,-252.242 177.13,-245.355"/>
</g>
<!-- g0 -->
<g id="node21" class="node"><title>g0</title>
<a xlink:href="0016787" xlink:title="GO:0016787 (88)">
<ellipse fill="#e98576" stroke="#e98576" cx="287" cy="-234" rx="79.4447" ry="18"/>
<text text-anchor="middle" x="287" y="-229.8" font-family="Times,serif" font-size="14.00">GO:0016787 (88)</text>
</a>
</g>
<!-- h0&#45;&gt;g0 -->
<g id="edge34" class="edge"><title>h0&#45;&gt;g0</title>
<path fill="none" stroke="black" d="M1166.16,-293.129C1155.21,-291.142 1143.78,-289.305 1133,-288 829.467,-251.232 750.788,-276.262 446,-252 419.859,-249.919 391.361,-247.059 365.805,-244.279"/>
<polygon fill="black" stroke="black" points="366.118,-240.792 355.796,-243.178 365.353,-247.75 366.118,-240.792"/>
</g>
<!-- p0 -->
<g id="node24" class="node"><title>p0</title>
<a xlink:href="0016491" xlink:title="GO:0016491 (27)">
<ellipse fill="#e98576" stroke="#e98576" cx="535" cy="-234" rx="79.4447" ry="18"/>
<text text-anchor="middle" x="535" y="-229.8" font-family="Times,serif" font-size="14.00">GO:0016491 (27)</text>
</a>
</g>
<!-- h0&#45;&gt;p0 -->
<g id="edge44" class="edge"><title>h0&#45;&gt;p0</title>
<path fill="none" stroke="black" d="M1165.66,-293.199C1154.86,-291.231 1143.61,-289.383 1133,-288 908.117,-258.674 848.883,-281.326 624,-252 616.625,-251.038 608.938,-249.852 601.306,-248.557"/>
<polygon fill="black" stroke="black" points="601.791,-245.088 591.336,-246.801 600.577,-251.982 601.791,-245.088"/>
</g>
<!-- a2 -->
<g id="node30" class="node"><title>a2</title>
<a xlink:href="0019239" xlink:title="GO:0019239 (1)">
<ellipse fill="#e98576" stroke="#e98576" cx="708" cy="-234" rx="75.2018" ry="18"/>
<text text-anchor="middle" x="708" y="-229.8" font-family="Times,serif" font-size="14.00">GO:0019239 (1)</text>
</a>
</g>
<!-- h0&#45;&gt;a2 -->
<g id="edge26" class="edge"><title>h0&#45;&gt;a2</title>
<path fill="none" stroke="black" d="M1165.15,-293.407C1154.49,-291.443 1143.43,-289.543 1133,-288 982.245,-265.684 942.631,-275.141 792,-252 785.38,-250.983 778.49,-249.798 771.631,-248.536"/>
<polygon fill="black" stroke="black" points="772.116,-245.065 761.639,-246.641 770.812,-251.943 772.116,-245.065"/>
</g>
<!-- e1 -->
<g id="node41" class="node"><title>e1</title>
<a xlink:href="0016874" xlink:title="GO:0016874 (3)">
<ellipse fill="#e98576" stroke="#e98576" cx="876" cy="-234" rx="75.2018" ry="18"/>
<text text-anchor="middle" x="876" y="-229.8" font-family="Times,serif" font-size="14.00">GO:0016874 (3)</text>
</a>
</g>
<!-- h0&#45;&gt;e1 -->
<g id="edge38" class="edge"><title>h0&#45;&gt;e1</title>
<path fill="none" stroke="black" d="M1164.87,-293.441C1103.47,-281.019 1006.03,-261.307 941.555,-248.263"/>
<polygon fill="black" stroke="black" points="941.996,-244.781 931.501,-246.229 940.608,-251.642 941.996,-244.781"/>
</g>
<!-- u0 -->
<g id="node50" class="node"><title>u0</title>
<a xlink:href="0004386" xlink:title="GO:0004386 (10)">
<ellipse fill="#e98576" stroke="#e98576" cx="1049" cy="-234" rx="79.4447" ry="18"/>
<text text-anchor="middle" x="1049" y="-229.8" font-family="Times,serif" font-size="14.00">GO:0004386 (10)</text>
</a>
</g>
<!-- h0&#45;&gt;u0 -->
<g id="edge48" class="edge"><title>h0&#45;&gt;u0</title>
<path fill="none" stroke="black" d="M1184.89,-289.983C1158.78,-279.418 1123.64,-265.2 1095.63,-253.869"/>
<polygon fill="black" stroke="black" points="1096.63,-250.498 1086.05,-249.992 1094.01,-256.987 1096.63,-250.498"/>
</g>
<!-- c2 -->
<g id="node60" class="node"><title>c2</title>
<a xlink:href="0008907" xlink:title="GO:0008907 (1)">
<ellipse fill="#e98576" stroke="#e98576" cx="1222" cy="-234" rx="75.2018" ry="18"/>
<text text-anchor="middle" x="1222" y="-229.8" font-family="Times,serif" font-size="14.00">GO:0008907 (1)</text>
</a>
</g>
<!-- h0&#45;&gt;c2 -->
<g id="edge58" class="edge"><title>h0&#45;&gt;c2</title>
<path fill="none" stroke="black" d="M1222,-287.697C1222,-279.983 1222,-270.712 1222,-262.112"/>
<polygon fill="black" stroke="black" points="1225.5,-262.104 1222,-252.104 1218.5,-262.104 1225.5,-262.104"/>
</g>
<!-- m1 -->
<g id="node64" class="node"><title>m1</title>
<a xlink:href="0032451" xlink:title="GO:0032451 (3)">
<ellipse fill="#e98576" stroke="#e98576" cx="1390" cy="-234" rx="75.2018" ry="18"/>
<text text-anchor="middle" x="1390" y="-229.8" font-family="Times,serif" font-size="14.00">GO:0032451 (3)</text>
</a>
</g>
<!-- h0&#45;&gt;m1 -->
<g id="edge62" class="edge"><title>h0&#45;&gt;m1</title>
<path fill="none" stroke="black" d="M1258.45,-289.811C1283.83,-279.236 1317.85,-265.063 1344.93,-253.779"/>
<polygon fill="black" stroke="black" points="1346.31,-256.996 1354.19,-249.919 1343.62,-250.534 1346.31,-256.996"/>
</g>
<!-- l1 -->
<g id="node97" class="node"><title>l1</title>
<a xlink:href="0009975" xlink:title="GO:0009975 (3)">
<ellipse fill="#e98576" stroke="#e98576" cx="1558" cy="-234" rx="75.2018" ry="18"/>
<text text-anchor="middle" x="1558" y="-229.8" font-family="Times,serif" font-size="14.00">GO:0009975 (3)</text>
</a>
</g>
<!-- h0&#45;&gt;l1 -->
<g id="edge94" class="edge"><title>h0&#45;&gt;l1</title>
<path fill="none" stroke="black" d="M1278.62,-293.205C1337.97,-280.84 1431.07,-261.444 1493.29,-248.482"/>
<polygon fill="black" stroke="black" points="1494.31,-251.845 1503.38,-246.379 1492.88,-244.992 1494.31,-251.845"/>
</g>
<!-- i0 -->
<g id="node102" class="node"><title>i0</title>
<a xlink:href="0016740" xlink:title="GO:0016740 (69)">
<ellipse fill="#e98576" stroke="#e98576" cx="1731" cy="-234" rx="79.4447" ry="18"/>
<text text-anchor="middle" x="1731" y="-229.8" font-family="Times,serif" font-size="14.00">GO:0016740 (69)</text>
</a>
</g>
<!-- h0&#45;&gt;i0 -->
<g id="edge100" class="edge"><title>h0&#45;&gt;i0</title>
<path fill="none" stroke="black" d="M1292.42,-297.49C1376.01,-288.259 1519.51,-271.408 1642,-252 1649.05,-250.883 1656.4,-249.628 1663.71,-248.319"/>
<polygon fill="black" stroke="black" points="1664.43,-251.746 1673.64,-246.508 1663.18,-244.859 1664.43,-251.746"/>
</g>
<!-- t0 -->
<g id="node108" class="node"><title>t0</title>
<a xlink:href="0016829" xlink:title="GO:0016829 (11)">
<ellipse fill="#e98576" stroke="#e98576" cx="1909" cy="-234" rx="79.4447" ry="18"/>
<text text-anchor="middle" x="1909" y="-229.8" font-family="Times,serif" font-size="14.00">GO:0016829 (11)</text>
</a>
</g>
<!-- h0&#45;&gt;t0 -->
<g id="edge106" class="edge"><title>h0&#45;&gt;t0</title>
<path fill="none" stroke="black" d="M1298.13,-300.642C1411.86,-293.589 1632.7,-277.801 1819,-252 1826.45,-250.969 1834.21,-249.738 1841.93,-248.418"/>
<polygon fill="black" stroke="black" points="1842.77,-251.824 1852.01,-246.639 1841.55,-244.93 1842.77,-251.824"/>
</g>
<!-- x1 -->
<g id="node11" class="node"><title>x1</title>
<a xlink:href="0042277" xlink:title="GO:0042277 (2)">
<ellipse fill="#e98576" stroke="#e98576" cx="2082" cy="-234" rx="75.2018" ry="18"/>
<text text-anchor="middle" x="2082" y="-229.8" font-family="Times,serif" font-size="14.00">GO:0042277 (2)</text>
</a>
</g>
<!-- b0&#45;&gt;x1 -->
<g id="edge8" class="edge"><title>b0&#45;&gt;x1</title>
<path fill="none" stroke="black" d="M3944.52,-293.028C3933.15,-290.996 3921.23,-289.168 3910,-288 3138.89,-207.775 2936.58,-337.233 2166,-252 2158.88,-251.213 2151.47,-250.121 2144.13,-248.866"/>
<polygon fill="black" stroke="black" points="2144.66,-245.405 2134.2,-247.069 2143.42,-252.294 2144.66,-245.405"/>
</g>
<!-- w1 -->
<g id="node13" class="node"><title>w1</title>
<a xlink:href="0019825" xlink:title="GO:0019825 (2)">
<ellipse fill="#e98576" stroke="#e98576" cx="2250" cy="-234" rx="75.2018" ry="18"/>
<text text-anchor="middle" x="2250" y="-229.8" font-family="Times,serif" font-size="14.00">GO:0019825 (2)</text>
</a>
</g>
<!-- b0&#45;&gt;w1 -->
<g id="edge10" class="edge"><title>b0&#45;&gt;w1</title>
<path fill="none" stroke="black" d="M3944.52,-293.047C3933.15,-291.014 3921.23,-289.181 3910,-288 3213.21,-214.734 3030.3,-329.792 2334,-252 2326.88,-251.205 2319.47,-250.108 2312.13,-248.851"/>
<polygon fill="black" stroke="black" points="2312.66,-245.39 2302.2,-247.051 2311.42,-252.278 2312.66,-245.39"/>
</g>
<!-- d0 -->
<g id="node15" class="node"><title>d0</title>
<a xlink:href="0005515" xlink:title="GO:0005515 (146)">
<ellipse fill="#e98576" stroke="#e98576" cx="2428" cy="-234" rx="84.1886" ry="18"/>
<text text-anchor="middle" x="2428" y="-229.8" font-family="Times,serif" font-size="14.00">GO:0005515 (146)</text>
</a>
</g>
<!-- b0&#45;&gt;d0 -->
<g id="edge12" class="edge"><title>b0&#45;&gt;d0</title>
<path fill="none" stroke="black" d="M3944.52,-293.074C3933.15,-291.039 3921.23,-289.198 3910,-288 3296.39,-222.52 3135.86,-315.095 2522,-252 2513.7,-251.147 2505.03,-249.972 2496.46,-248.636"/>
<polygon fill="black" stroke="black" points="2496.9,-245.162 2486.47,-247.002 2495.77,-252.07 2496.9,-245.162"/>
</g>
<!-- t1 -->
<g id="node17" class="node"><title>t1</title>
<a xlink:href="0043021" xlink:title="GO:0043021 (2)">
<ellipse fill="#e98576" stroke="#e98576" cx="2606" cy="-234" rx="75.2018" ry="18"/>
<text text-anchor="middle" x="2606" y="-229.8" font-family="Times,serif" font-size="14.00">GO:0043021 (2)</text>
</a>
</g>
<!-- b0&#45;&gt;t1 -->
<g id="edge14" class="edge"><title>b0&#45;&gt;t1</title>
<path fill="none" stroke="black" d="M3944.51,-293.106C3933.14,-291.068 3921.22,-289.218 3910,-288 3370.71,-229.477 3228.9,-314.025 2690,-252 2682.89,-251.181 2675.48,-250.07 2668.14,-248.804"/>
<polygon fill="black" stroke="black" points="2668.67,-245.344 2658.21,-246.996 2667.42,-252.23 2668.67,-245.344"/>
</g>
<!-- n1 -->
<g id="node20" class="node"><title>n1</title>
<a xlink:href="0042562" xlink:title="GO:0042562 (3)">
<ellipse fill="#e98576" stroke="#e98576" cx="2774" cy="-234" rx="75.2018" ry="18"/>
<text text-anchor="middle" x="2774" y="-229.8" font-family="Times,serif" font-size="14.00">GO:0042562 (3)</text>
</a>
</g>
<!-- b0&#45;&gt;n1 -->
<g id="edge18" class="edge"><title>b0&#45;&gt;n1</title>
<path fill="none" stroke="black" d="M3944.03,-293.061C3932.81,-291.054 3921.06,-289.227 3910,-288 3445.02,-236.434 3322.63,-306.586 2858,-252 2850.89,-251.165 2843.48,-250.042 2836.14,-248.771"/>
<polygon fill="black" stroke="black" points="2836.68,-245.311 2826.21,-246.957 2835.42,-252.197 2836.68,-245.311"/>
</g>
<!-- k1 -->
<g id="node28" class="node"><title>k1</title>
<a xlink:href="0005496" xlink:title="GO:0005496 (3)">
<ellipse fill="#e98576" stroke="#e98576" cx="2942" cy="-234" rx="75.2018" ry="18"/>
<text text-anchor="middle" x="2942" y="-229.8" font-family="Times,serif" font-size="14.00">GO:0005496 (3)</text>
</a>
</g>
<!-- b0&#45;&gt;k1 -->
<g id="edge24" class="edge"><title>b0&#45;&gt;k1</title>
<path fill="none" stroke="black" d="M3944.02,-293.118C3932.8,-291.106 3921.06,-289.263 3910,-288 3519.32,-243.39 3416.38,-299.148 3026,-252 3019.15,-251.173 3012.03,-250.088 3004.96,-248.865"/>
<polygon fill="black" stroke="black" points="3005.13,-245.34 2994.67,-246.99 3003.88,-252.227 3005.13,-245.34"/>
</g>
<!-- a0 -->
<g id="node34" class="node"><title>a0</title>
<a xlink:href="0043167" xlink:title="GO:0043167 (199)">
<ellipse fill="#e98576" stroke="#e98576" cx="3120" cy="-234" rx="84.1886" ry="18"/>
<text text-anchor="middle" x="3120" y="-229.8" font-family="Times,serif" font-size="14.00">GO:0043167 (199)</text>
</a>
</g>
<!-- b0&#45;&gt;a0 -->
<g id="edge30" class="edge"><title>b0&#45;&gt;a0</title>
<path fill="none" stroke="black" d="M3944.01,-293.214C3932.79,-291.194 3921.05,-289.323 3910,-288 3602.45,-251.171 3521.69,-287.634 3214,-252 3205.98,-251.071 3197.61,-249.88 3189.31,-248.561"/>
<polygon fill="black" stroke="black" points="3189.69,-245.076 3179.25,-246.897 3188.54,-251.982 3189.69,-245.076"/>
</g>
<!-- o1 -->
<g id="node36" class="node"><title>o1</title>
<a xlink:href="0043176" xlink:title="GO:0043176 (2)">
<ellipse fill="#e98576" stroke="#e98576" cx="3298" cy="-234" rx="75.2018" ry="18"/>
<text text-anchor="middle" x="3298" y="-229.8" font-family="Times,serif" font-size="14.00">GO:0043176 (2)</text>
</a>
</g>
<!-- b0&#45;&gt;o1 -->
<g id="edge32" class="edge"><title>b0&#45;&gt;o1</title>
<path fill="none" stroke="black" d="M3943.51,-293.27C3932.44,-291.271 3920.88,-289.394 3910,-288 3676.69,-258.119 3615.11,-283.396 3382,-252 3375.26,-251.093 3368.26,-249.968 3361.29,-248.732"/>
<polygon fill="black" stroke="black" points="3361.62,-245.233 3351.15,-246.854 3360.34,-252.116 3361.62,-245.233"/>
</g>
<!-- s1 -->
<g id="node39" class="node"><title>s1</title>
<a xlink:href="0043178" xlink:title="GO:0043178 (2)">
<ellipse fill="#e98576" stroke="#e98576" cx="3466" cy="-234" rx="75.2018" ry="18"/>
<text text-anchor="middle" x="3466" y="-229.8" font-family="Times,serif" font-size="14.00">GO:0043178 (2)</text>
</a>
</g>
<!-- b0&#45;&gt;s1 -->
<g id="edge36" class="edge"><title>b0&#45;&gt;s1</title>
<path fill="none" stroke="black" d="M3942.51,-293.37C3931.73,-291.409 3920.54,-289.52 3910,-288 3750.85,-265.056 3709,-275.978 3550,-252 3543.38,-251.001 3536.49,-249.828 3529.63,-248.573"/>
<polygon fill="black" stroke="black" points="3530.11,-245.102 3519.63,-246.685 3528.81,-251.98 3530.11,-245.102"/>
</g>
<!-- r0 -->
<g id="node43" class="node"><title>r0</title>
<a xlink:href="0030246" xlink:title="GO:0030246 (18)">
<ellipse fill="#e98576" stroke="#e98576" cx="3639" cy="-234" rx="79.4447" ry="18"/>
<text text-anchor="middle" x="3639" y="-229.8" font-family="Times,serif" font-size="14.00">GO:0030246 (18)</text>
</a>
</g>
<!-- b0&#45;&gt;r0 -->
<g id="edge40" class="edge"><title>b0&#45;&gt;r0</title>
<path fill="none" stroke="black" d="M3941.6,-293.675C3877.63,-281.272 3775.15,-261.401 3707.46,-248.275"/>
<polygon fill="black" stroke="black" points="3707.8,-244.776 3697.32,-246.308 3706.47,-251.648 3707.8,-244.776"/>
</g>
<!-- f0 -->
<g id="node45" class="node"><title>f0</title>
<a xlink:href="0003676" xlink:title="GO:0003676 (107)">
<ellipse fill="#e98576" stroke="#e98576" cx="3822" cy="-234" rx="84.1886" ry="18"/>
<text text-anchor="middle" x="3822" y="-229.8" font-family="Times,serif" font-size="14.00">GO:0003676 (107)</text>
</a>
</g>
<!-- b0&#45;&gt;f0 -->
<g id="edge42" class="edge"><title>b0&#45;&gt;f0</title>
<path fill="none" stroke="black" d="M3962.25,-290.155C3935.29,-279.554 3898.82,-265.212 3869.83,-253.81"/>
<polygon fill="black" stroke="black" points="3870.9,-250.468 3860.31,-250.065 3868.33,-256.982 3870.9,-250.468"/>
</g>
<!-- r1 -->
<g id="node48" class="node"><title>r1</title>
<a xlink:href="0043498" xlink:title="GO:0043498 (2)">
<ellipse fill="#e98576" stroke="#e98576" cx="4000" cy="-234" rx="75.2018" ry="18"/>
<text text-anchor="middle" x="4000" y="-229.8" font-family="Times,serif" font-size="14.00">GO:0043498 (2)</text>
</a>
</g>
<!-- b0&#45;&gt;r1 -->
<g id="edge46" class="edge"><title>b0&#45;&gt;r1</title>
<path fill="none" stroke="black" d="M4000,-287.697C4000,-279.983 4000,-270.712 4000,-262.112"/>
<polygon fill="black" stroke="black" points="4003.5,-262.104 4000,-252.104 3996.5,-262.104 4003.5,-262.104"/>
</g>
<!-- s0 -->
<g id="node52" class="node"><title>s0</title>
<a xlink:href="0001871" xlink:title="GO:0001871 (12)">
<ellipse fill="#e98576" stroke="#e98576" cx="4173" cy="-234" rx="79.4447" ry="18"/>
<text text-anchor="middle" x="4173" y="-229.8" font-family="Times,serif" font-size="14.00">GO:0001871 (12)</text>
</a>
</g>
<!-- b0&#45;&gt;s0 -->
<g id="edge50" class="edge"><title>b0&#45;&gt;s0</title>
<path fill="none" stroke="black" d="M4037.11,-289.983C4063.22,-279.418 4098.36,-265.2 4126.37,-253.869"/>
<polygon fill="black" stroke="black" points="4127.99,-256.987 4135.95,-249.992 4125.37,-250.498 4127.99,-256.987"/>
</g>
<!-- w0 -->
<g id="node56" class="node"><title>w0</title>
<a xlink:href="0003682" xlink:title="GO:0003682 (10)">
<ellipse fill="#e98576" stroke="#e98576" cx="4351" cy="-234" rx="79.4447" ry="18"/>
<text text-anchor="middle" x="4351" y="-229.8" font-family="Times,serif" font-size="14.00">GO:0003682 (10)</text>
</a>
</g>
<!-- b0&#45;&gt;w0 -->
<g id="edge54" class="edge"><title>b0&#45;&gt;w0</title>
<path fill="none" stroke="black" d="M4057.57,-293.519C4119.54,-281.16 4218.03,-261.519 4283.58,-248.446"/>
<polygon fill="black" stroke="black" points="4284.28,-251.875 4293.4,-246.487 4282.91,-245.01 4284.28,-251.875"/>
</g>
<!-- v0 -->
<g id="node58" class="node"><title>v0</title>
<a xlink:href="0048037" xlink:title="GO:0048037 (10)">
<ellipse fill="#e98576" stroke="#e98576" cx="4529" cy="-234" rx="79.4447" ry="18"/>
<text text-anchor="middle" x="4529" y="-229.8" font-family="Times,serif" font-size="14.00">GO:0048037 (10)</text>
</a>
</g>
<!-- b0&#45;&gt;v0 -->
<g id="edge56" class="edge"><title>b0&#45;&gt;v0</title>
<path fill="none" stroke="black" d="M4056.85,-293.385C4067.51,-291.423 4078.57,-289.529 4089,-288 4243.72,-265.309 4284.26,-274.532 4439,-252 4446.33,-250.933 4453.97,-249.691 4461.57,-248.373"/>
<polygon fill="black" stroke="black" points="4462.27,-251.803 4471.51,-246.606 4461.05,-244.912 4462.27,-251.803"/>
</g>
<!-- j1 -->
<g id="node62" class="node"><title>j1</title>
<a xlink:href="0050840" xlink:title="GO:0050840 (3)">
<ellipse fill="#e98576" stroke="#e98576" cx="4702" cy="-234" rx="75.2018" ry="18"/>
<text text-anchor="middle" x="4702" y="-229.8" font-family="Times,serif" font-size="14.00">GO:0050840 (3)</text>
</a>
</g>
<!-- b0&#45;&gt;j1 -->
<g id="edge60" class="edge"><title>b0&#45;&gt;j1</title>
<path fill="none" stroke="black" d="M4056.33,-293.177C4067.14,-291.211 4078.39,-289.37 4089,-288 4322.28,-257.88 4383.86,-283.129 4617,-252 4624.08,-251.055 4631.45,-249.877 4638.76,-248.584"/>
<polygon fill="black" stroke="black" points="4639.47,-252.013 4648.67,-246.761 4638.2,-245.128 4639.47,-252.013"/>
</g>
<!-- n0 -->
<g id="node66" class="node"><title>n0</title>
<a xlink:href="0008289" xlink:title="GO:0008289 (42)">
<ellipse fill="#e98576" stroke="#e98576" cx="4875" cy="-234" rx="79.4447" ry="18"/>
<text text-anchor="middle" x="4875" y="-229.8" font-family="Times,serif" font-size="14.00">GO:0008289 (42)</text>
</a>
</g>
<!-- b0&#45;&gt;n0 -->
<g id="edge64" class="edge"><title>b0&#45;&gt;n0</title>
<path fill="none" stroke="black" d="M4055.84,-293.122C4066.79,-291.136 4078.22,-289.301 4089,-288 4396.95,-250.814 4478.05,-289.186 4786,-252 4793.58,-251.085 4801.48,-249.906 4809.31,-248.597"/>
<polygon fill="black" stroke="black" points="4809.91,-252.045 4819.16,-246.878 4808.71,-245.149 4809.91,-252.045"/>
</g>
<!-- y1 -->
<g id="node76" class="node"><title>y1</title>
<a xlink:href="0001882" xlink:title="GO:0001882 (1)">
<ellipse fill="#e98576" stroke="#e98576" cx="5048" cy="-234" rx="75.2018" ry="18"/>
<text text-anchor="middle" x="5048" y="-229.8" font-family="Times,serif" font-size="14.00">GO:0001882 (1)</text>
</a>
</g>
<!-- b0&#45;&gt;y1 -->
<g id="edge74" class="edge"><title>b0&#45;&gt;y1</title>
<path fill="none" stroke="black" d="M4055.83,-293.032C4066.78,-291.054 4078.22,-289.245 4089,-288 4475.21,-243.408 4576.99,-298.263 4963,-252 4970.19,-251.138 4977.68,-250 4985.11,-248.719"/>
<polygon fill="black" stroke="black" points="4985.94,-252.125 4995.15,-246.897 4984.69,-245.237 4985.94,-252.125"/>
</g>
<!-- q1 -->
<g id="node78" class="node"><title>q1</title>
<a xlink:href="0008144" xlink:title="GO:0008144 (2)">
<ellipse fill="#e98576" stroke="#e98576" cx="5216" cy="-234" rx="75.2018" ry="18"/>
<text text-anchor="middle" x="5216" y="-229.8" font-family="Times,serif" font-size="14.00">GO:0008144 (2)</text>
</a>
</g>
<!-- b0&#45;&gt;q1 -->
<g id="edge76" class="edge"><title>b0&#45;&gt;q1</title>
<path fill="none" stroke="black" d="M4055.35,-293.061C4066.44,-291.053 4078.06,-289.227 4089,-288 4549.95,-236.335 4671.34,-306.187 5132,-252 5139.11,-251.163 5146.52,-250.041 5153.86,-248.769"/>
<polygon fill="black" stroke="black" points="5154.58,-252.195 5163.79,-246.955 5153.32,-245.309 5154.58,-252.195"/>
</g>
<!-- x0 -->
<g id="node80" class="node"><title>x0</title>
<a xlink:href="0019842" xlink:title="GO:0019842 (7)">
<ellipse fill="#e98576" stroke="#e98576" cx="5384" cy="-234" rx="75.2018" ry="18"/>
<text text-anchor="middle" x="5384" y="-229.8" font-family="Times,serif" font-size="14.00">GO:0019842 (7)</text>
</a>
</g>
<!-- b0&#45;&gt;x0 -->
<g id="edge78" class="edge"><title>b0&#45;&gt;x0</title>
<path fill="none" stroke="black" d="M4055.34,-293.019C4066.44,-291.015 4078.05,-289.2 4089,-288 4624.25,-229.302 4765.08,-313.627 5300,-252 5307.11,-251.18 5314.52,-250.068 5321.86,-248.802"/>
<polygon fill="black" stroke="black" points="5322.58,-252.229 5331.79,-246.994 5321.33,-245.342 5322.58,-252.229"/>
</g>
<!-- z0 -->
<g id="node89" class="node"><title>z0</title>
<a xlink:href="0060090" xlink:title="GO:0060090 (6)">
<ellipse fill="#e98576" stroke="#e98576" cx="5552" cy="-234" rx="75.2018" ry="18"/>
<text text-anchor="middle" x="5552" y="-229.8" font-family="Times,serif" font-size="14.00">GO:0060090 (6)</text>
</a>
</g>
<!-- b0&#45;&gt;z0 -->
<g id="edge86" class="edge"><title>b0&#45;&gt;z0</title>
<path fill="none" stroke="black" d="M4055.34,-292.988C4066.44,-290.987 4078.05,-289.181 4089,-288 4698.56,-222.268 4858.8,-321.067 5468,-252 5475.11,-251.193 5482.52,-250.089 5489.86,-248.828"/>
<polygon fill="black" stroke="black" points="5490.58,-252.255 5499.8,-247.024 5489.33,-245.367 5490.58,-252.255"/>
</g>
<!-- u1 -->
<g id="node95" class="node"><title>u1</title>
<a xlink:href="0031406" xlink:title="GO:0031406 (2)">
<ellipse fill="#e98576" stroke="#e98576" cx="5720" cy="-234" rx="75.2018" ry="18"/>
<text text-anchor="middle" x="5720" y="-229.8" font-family="Times,serif" font-size="14.00">GO:0031406 (2)</text>
</a>
</g>
<!-- b0&#45;&gt;u1 -->
<g id="edge92" class="edge"><title>b0&#45;&gt;u1</title>
<path fill="none" stroke="black" d="M4055.34,-292.963C4066.43,-290.964 4078.05,-289.165 4089,-288 4772.88,-215.234 4952.53,-328.508 5636,-252 5643.12,-251.203 5650.53,-250.106 5657.87,-248.848"/>
<polygon fill="black" stroke="black" points="5658.58,-252.275 5667.8,-247.047 5657.34,-245.387 5658.58,-252.275"/>
</g>
<!-- y0 -->
<g id="node104" class="node"><title>y0</title>
<a xlink:href="0046906" xlink:title="GO:0046906 (7)">
<ellipse fill="#e98576" stroke="#e98576" cx="5888" cy="-234" rx="75.2018" ry="18"/>
<text text-anchor="middle" x="5888" y="-229.8" font-family="Times,serif" font-size="14.00">GO:0046906 (7)</text>
</a>
</g>
<!-- b0&#45;&gt;y0 -->
<g id="edge102" class="edge"><title>b0&#45;&gt;y0</title>
<path fill="none" stroke="black" d="M4055.33,-292.943C4066.43,-290.946 4078.05,-289.153 4089,-288 4847.2,-208.2 5046.25,-335.949 5804,-252 5811.12,-251.212 5818.53,-250.119 5825.87,-248.864"/>
<polygon fill="black" stroke="black" points="5826.58,-252.291 5835.8,-247.066 5825.34,-245.403 5826.58,-252.291"/>
</g>
<!-- e0 -->
<g id="node106" class="node"><title>e0</title>
<a xlink:href="0000166" xlink:title="GO:0000166 (116)">
<ellipse fill="#e98576" stroke="#e98576" cx="6066" cy="-234" rx="84.1886" ry="18"/>
<text text-anchor="middle" x="6066" y="-229.8" font-family="Times,serif" font-size="14.00">GO:0000166 (116)</text>
</a>
</g>
<!-- b0&#45;&gt;e0 -->
<g id="edge104" class="edge"><title>b0&#45;&gt;e0</title>
<path fill="none" stroke="black" d="M4055.33,-292.927C4066.43,-290.931 4078.05,-289.142 4089,-288 4921.53,-201.165 5139.06,-334.746 5972,-252 5980.3,-251.175 5988.97,-250.018 5997.55,-248.691"/>
<polygon fill="black" stroke="black" points="5998.23,-252.126 6007.54,-247.065 5997.1,-245.217 5998.23,-252.126"/>
</g>
<!-- o0 -->
<g id="node23" class="node"><title>o0</title>
<a xlink:href="0008233" xlink:title="GO:0008233 (37)">
<ellipse fill="#e98576" stroke="#e98576" cx="79" cy="-162" rx="79.4447" ry="18"/>
<text text-anchor="middle" x="79" y="-157.8" font-family="Times,serif" font-size="14.00">GO:0008233 (37)</text>
</a>
</g>
<!-- g0&#45;&gt;o0 -->
<g id="edge20" class="edge"><title>g0&#45;&gt;o0</title>
<path fill="none" stroke="black" d="M244.657,-218.75C211.868,-207.715 166.281,-192.374 131.228,-180.577"/>
<polygon fill="black" stroke="black" points="132.234,-177.222 121.64,-177.35 130.001,-183.857 132.234,-177.222"/>
</g>
<!-- b2 -->
<g id="node93" class="node"><title>b2</title>
<a xlink:href="0019213" xlink:title="GO:0019213 (1)">
<ellipse fill="#e98576" stroke="#e98576" cx="252" cy="-162" rx="75.2018" ry="18"/>
<text text-anchor="middle" x="252" y="-157.8" font-family="Times,serif" font-size="14.00">GO:0019213 (1)</text>
</a>
</g>
<!-- g0&#45;&gt;b2 -->
<g id="edge90" class="edge"><title>g0&#45;&gt;b2</title>
<path fill="none" stroke="black" d="M278.527,-216.055C274.503,-208.007 269.602,-198.205 265.113,-189.226"/>
<polygon fill="black" stroke="black" points="268.24,-187.654 260.638,-180.275 261.979,-190.785 268.24,-187.654"/>
</g>
<!-- v1 -->
<g id="node26" class="node"><title>v1</title>
<a xlink:href="0004497" xlink:title="GO:0004497 (2)">
<ellipse fill="#e98576" stroke="#e98576" cx="420" cy="-162" rx="75.2018" ry="18"/>
<text text-anchor="middle" x="420" y="-157.8" font-family="Times,serif" font-size="14.00">GO:0004497 (2)</text>
</a>
</g>
<!-- p0&#45;&gt;v1 -->
<g id="edge22" class="edge"><title>p0&#45;&gt;v1</title>
<path fill="none" stroke="black" d="M508.617,-216.941C492.692,-207.248 472.212,-194.781 454.952,-184.275"/>
<polygon fill="black" stroke="black" points="456.622,-181.195 446.261,-178.985 452.983,-187.174 456.622,-181.195"/>
</g>
<!-- g1 -->
<g id="node68" class="node"><title>g1</title>
<a xlink:href="0051213" xlink:title="GO:0051213 (5)">
<ellipse fill="#e98576" stroke="#e98576" cx="588" cy="-162" rx="75.2018" ry="18"/>
<text text-anchor="middle" x="588" y="-157.8" font-family="Times,serif" font-size="14.00">GO:0051213 (5)</text>
</a>
</g>
<!-- p0&#45;&gt;g1 -->
<g id="edge66" class="edge"><title>p0&#45;&gt;g1</title>
<path fill="none" stroke="black" d="M547.83,-216.055C554.21,-207.629 562.045,-197.28 569.097,-187.966"/>
<polygon fill="black" stroke="black" points="572.042,-189.874 575.288,-179.789 566.461,-185.649 572.042,-189.874"/>
</g>
<!-- i1 -->
<g id="node99" class="node"><title>i1</title>
<a xlink:href="0009055" xlink:title="GO:0009055 (3)">
<ellipse fill="#e98576" stroke="#e98576" cx="756" cy="-162" rx="75.2018" ry="18"/>
<text text-anchor="middle" x="756" y="-157.8" font-family="Times,serif" font-size="14.00">GO:0009055 (3)</text>
</a>
</g>
<!-- p0&#45;&gt;i1 -->
<g id="edge96" class="edge"><title>p0&#45;&gt;i1</title>
<path fill="none" stroke="black" d="M579.191,-219.003C614.806,-207.722 665.003,-191.823 702.817,-179.845"/>
<polygon fill="black" stroke="black" points="704.162,-183.091 712.638,-176.734 702.048,-176.418 704.162,-183.091"/>
</g>
<!-- z1 -->
<g id="node82" class="node"><title>z1</title>
<a xlink:href="0016597" xlink:title="GO:0016597 (1)">
<ellipse fill="#e98576" stroke="#e98576" cx="3298" cy="-162" rx="75.2018" ry="18"/>
<text text-anchor="middle" x="3298" y="-157.8" font-family="Times,serif" font-size="14.00">GO:0016597 (1)</text>
</a>
</g>
<!-- o1&#45;&gt;z1 -->
<g id="edge80" class="edge"><title>o1&#45;&gt;z1</title>
<path fill="none" stroke="black" d="M3298,-215.697C3298,-207.983 3298,-198.712 3298,-190.112"/>
<polygon fill="black" stroke="black" points="3301.5,-190.104 3298,-180.104 3294.5,-190.104 3301.5,-190.104"/>
</g>
<!-- d1 -->
<g id="node70" class="node"><title>d1</title>
<a xlink:href="0016879" xlink:title="GO:0016879">
<ellipse fill="#dddddd" stroke="#dddddd" cx="911" cy="-162" rx="61.1934" ry="18"/>
<text text-anchor="middle" x="911" y="-157.8" font-family="Times,serif" font-size="14.00">GO:0016879</text>
</a>
</g>
<!-- e1&#45;&gt;d1 -->
<g id="edge68" class="edge"><title>e1&#45;&gt;d1</title>
<path fill="none" stroke="black" d="M884.473,-216.055C888.497,-208.007 893.398,-198.205 897.887,-189.226"/>
<polygon fill="black" stroke="black" points="901.021,-190.785 902.362,-180.275 894.76,-187.654 901.021,-190.785"/>
</g>
<!-- c1 -->
<g id="node71" class="node"><title>c1</title>
<a xlink:href="0016881" xlink:title="GO:0016881">
<ellipse fill="#dddddd" stroke="#dddddd" cx="911" cy="-90" rx="61.1934" ry="18"/>
<text text-anchor="middle" x="911" y="-85.8" font-family="Times,serif" font-size="14.00">GO:0016881</text>
</a>
</g>
<!-- d1&#45;&gt;c1 -->
<g id="edge98" class="edge"><title>d1&#45;&gt;c1</title>
<path fill="none" stroke="black" d="M911,-143.697C911,-135.983 911,-126.712 911,-118.112"/>
<polygon fill="black" stroke="black" points="914.5,-118.104 911,-108.104 907.5,-118.104 914.5,-118.104"/>
</g>
<!-- b1 -->
<g id="node73" class="node"><title>b1</title>
<a xlink:href="0019787" xlink:title="GO:0019787 (6)">
<ellipse fill="#e98576" stroke="#e98576" cx="911" cy="-18" rx="75.2018" ry="18"/>
<text text-anchor="middle" x="911" y="-13.8" font-family="Times,serif" font-size="14.00">GO:0019787 (6)</text>
</a>
</g>
<!-- c1&#45;&gt;b1 -->
<g id="edge70" class="edge"><title>c1&#45;&gt;b1</title>
<path fill="none" stroke="black" d="M911,-71.6966C911,-63.9827 911,-54.7125 911,-46.1124"/>
<polygon fill="black" stroke="black" points="914.5,-46.1043 911,-36.1043 907.5,-46.1044 914.5,-46.1043"/>
</g>
<!-- j0 -->
<g id="node87" class="node"><title>j0</title>
<a xlink:href="0004871" xlink:title="GO:0004871 (56)">
<ellipse fill="#e98576" stroke="#e98576" cx="6249" cy="-234" rx="79.4447" ry="18"/>
<text text-anchor="middle" x="6249" y="-229.8" font-family="Times,serif" font-size="14.00">GO:0004871 (56)</text>
</a>
</g>
<!-- k0&#45;&gt;j0 -->
<g id="edge84" class="edge"><title>k0&#45;&gt;j0</title>
<path fill="none" stroke="black" d="M4727.29,-293.116C4736.38,-291.05 4745.95,-289.186 4755,-288 5373.91,-206.881 5538.31,-318.143 6159,-252 6166.98,-251.149 6175.31,-249.973 6183.55,-248.633"/>
<polygon fill="black" stroke="black" points="6184.25,-252.064 6193.52,-246.928 6183.07,-245.165 6184.25,-252.064"/>
</g>
</g>
</svg>
