<?xml version="1.0" encoding="UTF-8" standalone="no"?>
<!DOCTYPE svg PUBLIC "-//W3C//DTD SVG 1.1//EN"
 "http://www.w3.org/Graphics/SVG/1.1/DTD/svg11.dtd">
<!-- Generated by graphviz version 2.28.0 (20110622.2320)
 -->
<!-- Title: G Pages: 1 -->
<svg width="797pt" height="476pt"
 viewBox="0.00 0.00 797.00 476.00" xmlns="http://www.w3.org/2000/svg" xmlns:xlink="http://www.w3.org/1999/xlink">
<g id="graph1" class="graph" transform="scale(1 1) rotate(0) translate(4 472)">
<title>G</title>
<polygon fill="white" stroke="white" points="-4,5 -4,-472 794,-472 794,5 -4,5"/>
<!-- n0 -->
<g id="node1" class="node"><title>n0</title>
<a xlink:href="0006259" xlink:title="GO:0006259">
<ellipse fill="#dddddd" stroke="#dddddd" cx="233" cy="-162" rx="61.1934" ry="18"/>
<text text-anchor="middle" x="233" y="-157.8" font-family="Times,serif" font-size="14.00">GO:0006259</text>
</a>
</g>
<!-- r0 -->
<g id="node3" class="node"><title>r0</title>
<a xlink:href="0032392" xlink:title="GO:0032392 (1)">
<ellipse fill="#e98576" stroke="#e98576" cx="317" cy="-90" rx="75.2018" ry="18"/>
<text text-anchor="middle" x="317" y="-85.8" font-family="Times,serif" font-size="14.00">GO:0032392 (1)</text>
</a>
</g>
<!-- n0&#45;&gt;r0 -->
<g id="edge2" class="edge"><title>n0&#45;&gt;r0</title>
<path fill="none" stroke="black" d="M252.482,-144.765C263.43,-135.642 277.275,-124.105 289.33,-114.059"/>
<polygon fill="black" stroke="black" points="291.891,-116.48 297.332,-107.39 287.409,-111.103 291.891,-116.48"/>
</g>
<!-- m0 -->
<g id="node32" class="node"><title>m0</title>
<a xlink:href="0006260" xlink:title="GO:0006260 (3)">
<ellipse fill="#e98576" stroke="#e98576" cx="149" cy="-90" rx="75.2018" ry="18"/>
<text text-anchor="middle" x="149" y="-85.8" font-family="Times,serif" font-size="14.00">GO:0006260 (3)</text>
</a>
</g>
<!-- n0&#45;&gt;m0 -->
<g id="edge30" class="edge"><title>n0&#45;&gt;m0</title>
<path fill="none" stroke="black" d="M213.518,-144.765C202.57,-135.642 188.725,-124.105 176.67,-114.059"/>
<polygon fill="black" stroke="black" points="178.591,-111.103 168.668,-107.39 174.109,-116.48 178.591,-111.103"/>
</g>
<!-- c0 -->
<g id="node4" class="node"><title>c0</title>
<a xlink:href="0006139" xlink:title="GO:0006139">
<ellipse fill="#dddddd" stroke="#dddddd" cx="233" cy="-234" rx="61.1934" ry="18"/>
<text text-anchor="middle" x="233" y="-229.8" font-family="Times,serif" font-size="14.00">GO:0006139</text>
</a>
</g>
<!-- c0&#45;&gt;n0 -->
<g id="edge48" class="edge"><title>c0&#45;&gt;n0</title>
<path fill="none" stroke="black" d="M233,-215.697C233,-207.983 233,-198.712 233,-190.112"/>
<polygon fill="black" stroke="black" points="236.5,-190.104 233,-180.104 229.5,-190.104 236.5,-190.104"/>
</g>
<!-- j0 -->
<g id="node6" class="node"><title>j0</title>
<a xlink:href="0016070" xlink:title="GO:0016070 (2)">
<ellipse fill="#e98576" stroke="#e98576" cx="388" cy="-162" rx="75.2018" ry="18"/>
<text text-anchor="middle" x="388" y="-157.8" font-family="Times,serif" font-size="14.00">GO:0016070 (2)</text>
</a>
</g>
<!-- c0&#45;&gt;j0 -->
<g id="edge4" class="edge"><title>c0&#45;&gt;j0</title>
<path fill="none" stroke="black" d="M265.116,-218.496C288.233,-208.056 319.667,-193.86 344.956,-182.439"/>
<polygon fill="black" stroke="black" points="346.643,-185.518 354.317,-178.212 343.762,-179.138 346.643,-185.518"/>
</g>
<!-- b0 -->
<g id="node34" class="node"><title>b0</title>
<a xlink:href="0006350" xlink:title="GO:0006350">
<ellipse fill="#dddddd" stroke="#dddddd" cx="61" cy="-162" rx="61.1934" ry="18"/>
<text text-anchor="middle" x="61" y="-157.8" font-family="Times,serif" font-size="14.00">GO:0006350</text>
</a>
</g>
<!-- c0&#45;&gt;b0 -->
<g id="edge54" class="edge"><title>c0&#45;&gt;b0</title>
<path fill="none" stroke="black" d="M198.607,-219.003C171.655,-208.034 133.972,-192.698 104.853,-180.847"/>
<polygon fill="black" stroke="black" points="105.915,-177.501 95.3338,-176.973 103.277,-183.984 105.915,-177.501"/>
</g>
<!-- i0 -->
<g id="node37" class="node"><title>i0</title>
<a xlink:href="0032774" xlink:title="GO:0032774">
<ellipse fill="#dddddd" stroke="#dddddd" cx="472" cy="-90" rx="61.1934" ry="18"/>
<text text-anchor="middle" x="472" y="-85.8" font-family="Times,serif" font-size="14.00">GO:0032774</text>
</a>
</g>
<!-- j0&#45;&gt;i0 -->
<g id="edge46" class="edge"><title>j0&#45;&gt;i0</title>
<path fill="none" stroke="black" d="M407.907,-144.411C418.865,-135.279 432.629,-123.809 444.59,-113.842"/>
<polygon fill="black" stroke="black" points="447.084,-116.319 452.526,-107.228 442.603,-110.942 447.084,-116.319"/>
</g>
<!-- k0 -->
<g id="node7" class="node"><title>k0</title>
<a xlink:href="0043283" xlink:title="GO:0043283">
<ellipse fill="#dddddd" stroke="#dddddd" cx="381" cy="-234" rx="61.1934" ry="18"/>
<text text-anchor="middle" x="381" y="-229.8" font-family="Times,serif" font-size="14.00">GO:0043283</text>
</a>
</g>
<!-- k0&#45;&gt;n0 -->
<g id="edge50" class="edge"><title>k0&#45;&gt;n0</title>
<path fill="none" stroke="black" d="M349.974,-218.326C327.675,-207.779 297.409,-193.464 273.25,-182.037"/>
<polygon fill="black" stroke="black" points="274.521,-178.767 263.985,-177.655 271.528,-185.095 274.521,-178.767"/>
</g>
<!-- k0&#45;&gt;j0 -->
<g id="edge6" class="edge"><title>k0&#45;&gt;j0</title>
<path fill="none" stroke="black" d="M382.73,-215.697C383.502,-207.983 384.429,-198.712 385.289,-190.112"/>
<polygon fill="black" stroke="black" points="388.777,-190.403 386.29,-180.104 381.812,-189.706 388.777,-190.403"/>
</g>
<!-- q0 -->
<g id="node9" class="node"><title>q0</title>
<a xlink:href="0051179" xlink:title="GO:0051179">
<ellipse fill="#dddddd" stroke="#dddddd" cx="522" cy="-378" rx="61.1934" ry="18"/>
<text text-anchor="middle" x="522" y="-373.8" font-family="Times,serif" font-size="14.00">GO:0051179</text>
</a>
</g>
<!-- v0 -->
<g id="node11" class="node"><title>v0</title>
<a xlink:href="0033036" xlink:title="GO:0033036">
<ellipse fill="#dddddd" stroke="#dddddd" cx="522" cy="-306" rx="61.1934" ry="18"/>
<text text-anchor="middle" x="522" y="-301.8" font-family="Times,serif" font-size="14.00">GO:0033036</text>
</a>
</g>
<!-- q0&#45;&gt;v0 -->
<g id="edge8" class="edge"><title>q0&#45;&gt;v0</title>
<path fill="none" stroke="black" d="M522,-359.697C522,-351.983 522,-342.712 522,-334.112"/>
<polygon fill="black" stroke="black" points="525.5,-334.104 522,-324.104 518.5,-334.104 525.5,-334.104"/>
</g>
<!-- p0 -->
<g id="node17" class="node"><title>p0</title>
<a xlink:href="0051234" xlink:title="GO:0051234">
<ellipse fill="#dddddd" stroke="#dddddd" cx="663" cy="-306" rx="61.1934" ry="18"/>
<text text-anchor="middle" x="663" y="-301.8" font-family="Times,serif" font-size="14.00">GO:0051234</text>
</a>
</g>
<!-- q0&#45;&gt;p0 -->
<g id="edge16" class="edge"><title>q0&#45;&gt;p0</title>
<path fill="none" stroke="black" d="M551.902,-362.155C572.933,-351.714 601.275,-337.644 624.069,-326.328"/>
<polygon fill="black" stroke="black" points="625.74,-329.405 633.141,-321.824 622.627,-323.136 625.74,-329.405"/>
</g>
<!-- u0 -->
<g id="node23" class="node"><title>u0</title>
<a xlink:href="0008104" xlink:title="GO:0008104">
<ellipse fill="#dddddd" stroke="#dddddd" cx="522" cy="-234" rx="61.1934" ry="18"/>
<text text-anchor="middle" x="522" y="-229.8" font-family="Times,serif" font-size="14.00">GO:0008104</text>
</a>
</g>
<!-- v0&#45;&gt;u0 -->
<g id="edge32" class="edge"><title>v0&#45;&gt;u0</title>
<path fill="none" stroke="black" d="M522,-287.697C522,-279.983 522,-270.712 522,-262.112"/>
<polygon fill="black" stroke="black" points="525.5,-262.104 522,-252.104 518.5,-262.104 525.5,-262.104"/>
</g>
<!-- f0 -->
<g id="node12" class="node"><title>f0</title>
<a xlink:href="0008150" xlink:title="GO:0008150">
<ellipse fill="#dddddd" stroke="#dddddd" cx="430" cy="-450" rx="61.1934" ry="18"/>
<text text-anchor="middle" x="430" y="-445.8" font-family="Times,serif" font-size="14.00">GO:0008150</text>
</a>
</g>
<!-- f0&#45;&gt;q0 -->
<g id="edge10" class="edge"><title>f0&#45;&gt;q0</title>
<path fill="none" stroke="black" d="M451.338,-432.765C463.646,-423.4 479.299,-411.49 492.742,-401.261"/>
<polygon fill="black" stroke="black" points="494.939,-403.988 500.778,-395.147 490.7,-398.417 494.939,-403.988"/>
</g>
<!-- e0 -->
<g id="node15" class="node"><title>e0</title>
<a xlink:href="0008152" xlink:title="GO:0008152 (1)">
<ellipse fill="#e98576" stroke="#e98576" cx="339" cy="-378" rx="75.2018" ry="18"/>
<text text-anchor="middle" x="339" y="-373.8" font-family="Times,serif" font-size="14.00">GO:0008152 (1)</text>
</a>
</g>
<!-- f0&#45;&gt;e0 -->
<g id="edge12" class="edge"><title>f0&#45;&gt;e0</title>
<path fill="none" stroke="black" d="M408.894,-432.765C396.921,-423.554 381.747,-411.882 368.6,-401.769"/>
<polygon fill="black" stroke="black" points="370.367,-398.713 360.307,-395.39 366.099,-404.261 370.367,-398.713"/>
</g>
<!-- f0&#45;&gt;p0 -->
<g id="edge14" class="edge"><title>f0&#45;&gt;p0</title>
<path fill="none" stroke="black" d="M481.624,-440.109C515.285,-432.473 558.94,-418.95 592,-396 615.937,-379.384 635.85,-352.39 648.436,-332.482"/>
<polygon fill="black" stroke="black" points="651.456,-334.253 653.691,-323.896 645.485,-330.598 651.456,-334.253"/>
</g>
<!-- g0 -->
<g id="node21" class="node"><title>g0</title>
<a xlink:href="0009987" xlink:title="GO:0009987">
<ellipse fill="#dddddd" stroke="#dddddd" cx="128" cy="-378" rx="61.1934" ry="18"/>
<text text-anchor="middle" x="128" y="-373.8" font-family="Times,serif" font-size="14.00">GO:0009987</text>
</a>
</g>
<!-- f0&#45;&gt;g0 -->
<g id="edge44" class="edge"><title>f0&#45;&gt;g0</title>
<path fill="none" stroke="black" d="M383.474,-438.216C329.937,-425.807 242.034,-405.432 184.583,-392.115"/>
<polygon fill="black" stroke="black" points="185.111,-388.645 174.579,-389.796 183.53,-395.464 185.111,-388.645"/>
</g>
<!-- d0 -->
<g id="node20" class="node"><title>d0</title>
<a xlink:href="0044237" xlink:title="GO:0044237">
<ellipse fill="#dddddd" stroke="#dddddd" cx="99" cy="-306" rx="61.1934" ry="18"/>
<text text-anchor="middle" x="99" y="-301.8" font-family="Times,serif" font-size="14.00">GO:0044237</text>
</a>
</g>
<!-- e0&#45;&gt;d0 -->
<g id="edge18" class="edge"><title>e0&#45;&gt;d0</title>
<path fill="none" stroke="black" d="M293.293,-363.669C252.624,-351.807 193.186,-334.471 150.775,-322.101"/>
<polygon fill="black" stroke="black" points="151.502,-318.667 140.922,-319.227 149.542,-325.387 151.502,-318.667"/>
</g>
<!-- h0 -->
<g id="node40" class="node"><title>h0</title>
<a xlink:href="0044238" xlink:title="GO:0044238">
<ellipse fill="#dddddd" stroke="#dddddd" cx="240" cy="-306" rx="61.1934" ry="18"/>
<text text-anchor="middle" x="240" y="-301.8" font-family="Times,serif" font-size="14.00">GO:0044238</text>
</a>
</g>
<!-- e0&#45;&gt;h0 -->
<g id="edge58" class="edge"><title>e0&#45;&gt;h0</title>
<path fill="none" stroke="black" d="M316.039,-360.765C302.573,-351.244 285.388,-339.093 270.763,-328.752"/>
<polygon fill="black" stroke="black" points="272.681,-325.822 262.496,-322.906 268.64,-331.537 272.681,-325.822"/>
</g>
<!-- l0 -->
<g id="node42" class="node"><title>l0</title>
<a xlink:href="0043170" xlink:title="GO:0043170">
<ellipse fill="#dddddd" stroke="#dddddd" cx="381" cy="-306" rx="61.1934" ry="18"/>
<text text-anchor="middle" x="381" y="-301.8" font-family="Times,serif" font-size="14.00">GO:0043170</text>
</a>
</g>
<!-- e0&#45;&gt;l0 -->
<g id="edge56" class="edge"><title>e0&#45;&gt;l0</title>
<path fill="none" stroke="black" d="M349.167,-360.055C354.12,-351.801 360.179,-341.701 365.677,-332.538"/>
<polygon fill="black" stroke="black" points="368.783,-334.165 370.927,-323.789 362.78,-330.563 368.783,-334.165"/>
</g>
<!-- t0 -->
<g id="node25" class="node"><title>t0</title>
<a xlink:href="0045184" xlink:title="GO:0045184">
<ellipse fill="#dddddd" stroke="#dddddd" cx="611" cy="-162" rx="61.1934" ry="18"/>
<text text-anchor="middle" x="611" y="-157.8" font-family="Times,serif" font-size="14.00">GO:0045184</text>
</a>
</g>
<!-- p0&#45;&gt;t0 -->
<g id="edge24" class="edge"><title>p0&#45;&gt;t0</title>
<path fill="none" stroke="black" d="M650.395,-288.149C643.443,-278.116 635.193,-264.866 630,-252 621.98,-232.13 617.125,-208.335 614.333,-190.35"/>
<polygon fill="black" stroke="black" points="617.768,-189.65 612.884,-180.248 610.839,-190.643 617.768,-189.65"/>
</g>
<!-- o0 -->
<g id="node27" class="node"><title>o0</title>
<a xlink:href="0006810" xlink:title="GO:0006810 (1)">
<ellipse fill="#e98576" stroke="#e98576" cx="714" cy="-234" rx="75.2018" ry="18"/>
<text text-anchor="middle" x="714" y="-229.8" font-family="Times,serif" font-size="14.00">GO:0006810 (1)</text>
</a>
</g>
<!-- p0&#45;&gt;o0 -->
<g id="edge52" class="edge"><title>p0&#45;&gt;o0</title>
<path fill="none" stroke="black" d="M675.346,-288.055C681.485,-279.629 689.025,-269.28 695.81,-259.966"/>
<polygon fill="black" stroke="black" points="698.708,-261.932 701.768,-251.789 693.051,-257.81 698.708,-261.932"/>
</g>
<!-- d0&#45;&gt;c0 -->
<g id="edge38" class="edge"><title>d0&#45;&gt;c0</title>
<path fill="none" stroke="black" d="M127.746,-289.983C147.441,-279.695 173.767,-265.942 195.164,-254.765"/>
<polygon fill="black" stroke="black" points="197.058,-257.724 204.301,-249.992 193.817,-251.52 197.058,-257.724"/>
</g>
<!-- g0&#45;&gt;d0 -->
<g id="edge20" class="edge"><title>g0&#45;&gt;d0</title>
<path fill="none" stroke="black" d="M120.98,-360.055C117.716,-352.176 113.755,-342.617 110.1,-333.794"/>
<polygon fill="black" stroke="black" points="113.218,-332.174 106.157,-324.275 106.751,-334.853 113.218,-332.174"/>
</g>
<!-- u0&#45;&gt;t0 -->
<g id="edge22" class="edge"><title>u0&#45;&gt;t0</title>
<path fill="none" stroke="black" d="M542.642,-216.765C554.437,-207.488 569.406,-195.714 582.328,-185.551"/>
<polygon fill="black" stroke="black" points="584.773,-188.081 590.47,-179.147 580.446,-182.578 584.773,-188.081"/>
</g>
<!-- s0 -->
<g id="node29" class="node"><title>s0</title>
<a xlink:href="0015031" xlink:title="GO:0015031 (1)">
<ellipse fill="#e98576" stroke="#e98576" cx="667" cy="-90" rx="75.2018" ry="18"/>
<text text-anchor="middle" x="667" y="-85.8" font-family="Times,serif" font-size="14.00">GO:0015031 (1)</text>
</a>
</g>
<!-- t0&#45;&gt;s0 -->
<g id="edge28" class="edge"><title>t0&#45;&gt;s0</title>
<path fill="none" stroke="black" d="M624.271,-144.411C631.076,-135.906 639.502,-125.372 647.069,-115.914"/>
<polygon fill="black" stroke="black" points="649.921,-117.951 653.435,-107.956 644.455,-113.578 649.921,-117.951"/>
</g>
<!-- o0&#45;&gt;s0 -->
<g id="edge26" class="edge"><title>o0&#45;&gt;s0</title>
<path fill="none" stroke="black" d="M708.331,-215.871C700.285,-191.564 685.475,-146.819 675.941,-118.013"/>
<polygon fill="black" stroke="black" points="679.154,-116.583 672.689,-108.189 672.509,-118.783 679.154,-116.583"/>
</g>
<!-- a0 -->
<g id="node36" class="node"><title>a0</title>
<a xlink:href="0006351" xlink:title="GO:0006351 (4)">
<ellipse fill="#e98576" stroke="#e98576" cx="259" cy="-18" rx="75.2018" ry="18"/>
<text text-anchor="middle" x="259" y="-13.8" font-family="Times,serif" font-size="14.00">GO:0006351 (4)</text>
</a>
</g>
<!-- b0&#45;&gt;a0 -->
<g id="edge34" class="edge"><title>b0&#45;&gt;a0</title>
<path fill="none" stroke="black" d="M56.3404,-143.875C52.1208,-124.281 48.7723,-92.2942 65,-72 80.4016,-52.7389 137.881,-38.5962 186.308,-29.7882"/>
<polygon fill="black" stroke="black" points="186.934,-33.232 196.172,-28.0438 185.715,-26.3389 186.934,-33.232"/>
</g>
<!-- i0&#45;&gt;a0 -->
<g id="edge36" class="edge"><title>i0&#45;&gt;a0</title>
<path fill="none" stroke="black" d="M432.436,-75.9976C398.199,-64.7462 348.443,-48.3945 310.995,-36.0877"/>
<polygon fill="black" stroke="black" points="311.864,-32.689 301.271,-32.8918 309.678,-39.3391 311.864,-32.689"/>
</g>
<!-- h0&#45;&gt;c0 -->
<g id="edge40" class="edge"><title>h0&#45;&gt;c0</title>
<path fill="none" stroke="black" d="M238.27,-287.697C237.498,-279.983 236.571,-270.712 235.711,-262.112"/>
<polygon fill="black" stroke="black" points="239.188,-261.706 234.71,-252.104 232.223,-262.403 239.188,-261.706"/>
</g>
<!-- l0&#45;&gt;k0 -->
<g id="edge42" class="edge"><title>l0&#45;&gt;k0</title>
<path fill="none" stroke="black" d="M381,-287.697C381,-279.983 381,-270.712 381,-262.112"/>
<polygon fill="black" stroke="black" points="384.5,-262.104 381,-252.104 377.5,-262.104 384.5,-262.104"/>
</g>
</g>
</svg>
