<?xml version="1.0" encoding="UTF-8" standalone="no"?>
<!DOCTYPE svg PUBLIC "-//W3C//DTD SVG 1.1//EN"
 "http://www.w3.org/Graphics/SVG/1.1/DTD/svg11.dtd">
<!-- Generated by graphviz version 2.28.0 (20110622.2320)
 -->
<!-- Title: G Pages: 1 -->
<svg width="4076pt" height="260pt"
 viewBox="0.00 0.00 4076.00 260.00" xmlns="http://www.w3.org/2000/svg" xmlns:xlink="http://www.w3.org/1999/xlink">
<g id="graph1" class="graph" transform="scale(1 1) rotate(0) translate(4 256)">
<title>G</title>
<polygon fill="white" stroke="white" points="-4,5 -4,-256 4073,-256 4073,5 -4,5"/>
<!-- c0 -->
<g id="node1" class="node"><title>c0</title>
<a xlink:href="0003674" xlink:title="GO:0003674 (19)">
<ellipse fill="#e98576" stroke="#e98576" cx="2720" cy="-234" rx="79.4447" ry="18"/>
<text text-anchor="middle" x="2720" y="-229.8" font-family="Times,serif" font-size="14.00">GO:0003674 (19)</text>
</a>
</g>
<!-- i1 -->
<g id="node3" class="node"><title>i1</title>
<a xlink:href="0030234" xlink:title="GO:0030234 (1)">
<ellipse fill="#e98576" stroke="#e98576" cx="633" cy="-162" rx="75.2018" ry="18"/>
<text text-anchor="middle" x="633" y="-157.8" font-family="Times,serif" font-size="14.00">GO:0030234 (1)</text>
</a>
</g>
<!-- c0&#45;&gt;i1 -->
<g id="edge2" class="edge"><title>c0&#45;&gt;i1</title>
<path fill="none" stroke="black" d="M2640.71,-232.737C2317.62,-231.38 1099.48,-223.431 717,-180 709.885,-179.192 702.477,-178.087 695.137,-176.825"/>
<polygon fill="black" stroke="black" points="695.669,-173.365 685.204,-175.021 694.417,-180.252 695.669,-173.365"/>
</g>
<!-- g0 -->
<g id="node4" class="node"><title>g0</title>
<a xlink:href="0003824" xlink:title="GO:0003824 (244)">
<ellipse fill="#e98576" stroke="#e98576" cx="811" cy="-162" rx="84.1886" ry="18"/>
<text text-anchor="middle" x="811" y="-157.8" font-family="Times,serif" font-size="14.00">GO:0003824 (244)</text>
</a>
</g>
<!-- c0&#45;&gt;g0 -->
<g id="edge46" class="edge"><title>c0&#45;&gt;g0</title>
<path fill="none" stroke="black" d="M2642.2,-230.147C2338.39,-219.007 1232.49,-178.455 903.764,-166.402"/>
<polygon fill="black" stroke="black" points="903.454,-162.888 893.332,-166.019 903.197,-169.883 903.454,-162.888"/>
</g>
<!-- b0 -->
<g id="node7" class="node"><title>b0</title>
<a xlink:href="0005488" xlink:title="GO:0005488">
<ellipse fill="#dddddd" stroke="#dddddd" cx="2470" cy="-162" rx="61.1934" ry="18"/>
<text text-anchor="middle" x="2470" y="-157.8" font-family="Times,serif" font-size="14.00">GO:0005488</text>
</a>
</g>
<!-- c0&#45;&gt;b0 -->
<g id="edge12" class="edge"><title>c0&#45;&gt;b0</title>
<path fill="none" stroke="black" d="M2672.09,-219.586C2629.25,-207.591 2566.6,-190.047 2522.43,-177.68"/>
<polygon fill="black" stroke="black" points="2523.32,-174.294 2512.74,-174.968 2521.43,-181.035 2523.32,-174.294"/>
</g>
<!-- o0 -->
<g id="node22" class="node"><title>o0</title>
<a xlink:href="0005215" xlink:title="GO:0005215 (68)">
<ellipse fill="#e98576" stroke="#e98576" cx="2629" cy="-162" rx="79.4447" ry="18"/>
<text text-anchor="middle" x="2629" y="-157.8" font-family="Times,serif" font-size="14.00">GO:0005215 (68)</text>
</a>
</g>
<!-- c0&#45;&gt;o0 -->
<g id="edge18" class="edge"><title>c0&#45;&gt;o0</title>
<path fill="none" stroke="black" d="M2698.43,-216.411C2686.53,-207.257 2671.58,-195.755 2658.6,-185.772"/>
<polygon fill="black" stroke="black" points="2660.47,-182.793 2650.41,-179.47 2656.2,-188.341 2660.47,-182.793"/>
</g>
<!-- h0 -->
<g id="node40" class="node"><title>h0</title>
<a xlink:href="0005198" xlink:title="GO:0005198 (330)">
<ellipse fill="#e98576" stroke="#e98576" cx="2812" cy="-162" rx="84.1886" ry="18"/>
<text text-anchor="middle" x="2812" y="-157.8" font-family="Times,serif" font-size="14.00">GO:0005198 (330)</text>
</a>
</g>
<!-- c0&#45;&gt;h0 -->
<g id="edge38" class="edge"><title>c0&#45;&gt;h0</title>
<path fill="none" stroke="black" d="M2741.8,-216.411C2753.83,-207.257 2768.95,-195.755 2782.07,-185.772"/>
<polygon fill="black" stroke="black" points="2784.51,-188.311 2790.35,-179.47 2780.28,-182.74 2784.51,-188.311"/>
</g>
<!-- d1 -->
<g id="node55" class="node"><title>d1</title>
<a xlink:href="0060089" xlink:title="GO:0060089">
<ellipse fill="#dddddd" stroke="#dddddd" cx="2976" cy="-162" rx="61.1934" ry="18"/>
<text text-anchor="middle" x="2976" y="-157.8" font-family="Times,serif" font-size="14.00">GO:0060089</text>
</a>
</g>
<!-- c0&#45;&gt;d1 -->
<g id="edge72" class="edge"><title>c0&#45;&gt;d1</title>
<path fill="none" stroke="black" d="M2768.75,-219.669C2812.81,-207.621 2877.53,-189.926 2922.89,-177.523"/>
<polygon fill="black" stroke="black" points="2923.82,-180.896 2932.54,-174.883 2921.97,-174.144 2923.82,-180.896"/>
</g>
<!-- q0 -->
<g id="node58" class="node"><title>q0</title>
<a xlink:href="0016209" xlink:title="GO:0016209 (61)">
<ellipse fill="#e98576" stroke="#e98576" cx="3135" cy="-162" rx="79.4447" ry="18"/>
<text text-anchor="middle" x="3135" y="-157.8" font-family="Times,serif" font-size="14.00">GO:0016209 (61)</text>
</a>
</g>
<!-- c0&#45;&gt;q0 -->
<g id="edge56" class="edge"><title>c0&#45;&gt;q0</title>
<path fill="none" stroke="black" d="M2783.8,-223.16C2849.59,-212.889 2955.09,-196.069 3046,-180 3052.66,-178.823 3059.6,-177.561 3066.52,-176.277"/>
<polygon fill="black" stroke="black" points="3067.45,-179.665 3076.64,-174.387 3066.16,-172.784 3067.45,-179.665"/>
</g>
<!-- h1 -->
<g id="node60" class="node"><title>h1</title>
<a xlink:href="0008369" xlink:title="GO:0008369 (1)">
<ellipse fill="#e98576" stroke="#e98576" cx="3308" cy="-162" rx="75.2018" ry="18"/>
<text text-anchor="middle" x="3308" y="-157.8" font-family="Times,serif" font-size="14.00">GO:0008369 (1)</text>
</a>
</g>
<!-- c0&#45;&gt;h1 -->
<g id="edge58" class="edge"><title>c0&#45;&gt;h1</title>
<path fill="none" stroke="black" d="M2794,-227.357C2892.33,-219.366 3071.3,-203.111 3223,-180 3229.7,-178.98 3236.67,-177.793 3243.61,-176.529"/>
<polygon fill="black" stroke="black" points="3244.53,-179.916 3253.72,-174.633 3243.24,-173.036 3244.53,-179.916"/>
</g>
<!-- r0 -->
<g id="node6" class="node"><title>r0</title>
<a xlink:href="0016853" xlink:title="GO:0016853 (47)">
<ellipse fill="#e98576" stroke="#e98576" cx="79" cy="-90" rx="79.4447" ry="18"/>
<text text-anchor="middle" x="79" y="-85.8" font-family="Times,serif" font-size="14.00">GO:0016853 (47)</text>
</a>
</g>
<!-- g0&#45;&gt;r0 -->
<g id="edge4" class="edge"><title>g0&#45;&gt;r0</title>
<path fill="none" stroke="black" d="M751.483,-149.185C740.072,-147.218 728.193,-145.375 717,-144 474.299,-114.194 410.551,-138.998 168,-108 160.622,-107.057 152.934,-105.883 145.301,-104.594"/>
<polygon fill="black" stroke="black" points="145.785,-101.126 135.33,-102.845 144.575,-108.02 145.785,-101.126"/>
</g>
<!-- j0 -->
<g id="node15" class="node"><title>j0</title>
<a xlink:href="0016787" xlink:title="GO:0016787 (327)">
<ellipse fill="#e98576" stroke="#e98576" cx="262" cy="-90" rx="84.1886" ry="18"/>
<text text-anchor="middle" x="262" y="-85.8" font-family="Times,serif" font-size="14.00">GO:0016787 (327)</text>
</a>
</g>
<!-- g0&#45;&gt;j0 -->
<g id="edge24" class="edge"><title>g0&#45;&gt;j0</title>
<path fill="none" stroke="black" d="M750.687,-149.36C739.512,-147.412 727.922,-145.53 717,-144 557.318,-121.635 515.682,-130.365 356,-108 348.321,-106.924 340.311,-105.675 332.347,-104.35"/>
<polygon fill="black" stroke="black" points="332.759,-100.87 322.313,-102.64 331.582,-107.77 332.759,-100.87"/>
</g>
<!-- f0 -->
<g id="node18" class="node"><title>f0</title>
<a xlink:href="0016491" xlink:title="GO:0016491 (362)">
<ellipse fill="#e98576" stroke="#e98576" cx="450" cy="-90" rx="84.1886" ry="18"/>
<text text-anchor="middle" x="450" y="-85.8" font-family="Times,serif" font-size="14.00">GO:0016491 (362)</text>
</a>
</g>
<!-- g0&#45;&gt;f0 -->
<g id="edge32" class="edge"><title>g0&#45;&gt;f0</title>
<path fill="none" stroke="black" d="M750.577,-149.284C687.097,-136.974 587.353,-117.633 520.367,-104.645"/>
<polygon fill="black" stroke="black" points="520.803,-101.164 510.319,-102.696 519.47,-108.036 520.803,-101.164"/>
</g>
<!-- n0 -->
<g id="node31" class="node"><title>n0</title>
<a xlink:href="0016874" xlink:title="GO:0016874 (89)">
<ellipse fill="#e98576" stroke="#e98576" cx="633" cy="-90" rx="79.4447" ry="18"/>
<text text-anchor="middle" x="633" y="-85.8" font-family="Times,serif" font-size="14.00">GO:0016874 (89)</text>
</a>
</g>
<!-- g0&#45;&gt;n0 -->
<g id="edge28" class="edge"><title>g0&#45;&gt;n0</title>
<path fill="none" stroke="black" d="M772.377,-145.811C745.369,-135.19 709.132,-120.94 680.377,-109.631"/>
<polygon fill="black" stroke="black" points="681.524,-106.321 670.936,-105.919 678.962,-112.836 681.524,-106.321"/>
</g>
<!-- x0 -->
<g id="node38" class="node"><title>x0</title>
<a xlink:href="0004386" xlink:title="GO:0004386 (12)">
<ellipse fill="#e98576" stroke="#e98576" cx="811" cy="-90" rx="79.4447" ry="18"/>
<text text-anchor="middle" x="811" y="-85.8" font-family="Times,serif" font-size="14.00">GO:0004386 (12)</text>
</a>
</g>
<!-- g0&#45;&gt;x0 -->
<g id="edge36" class="edge"><title>g0&#45;&gt;x0</title>
<path fill="none" stroke="black" d="M811,-143.697C811,-135.983 811,-126.712 811,-118.112"/>
<polygon fill="black" stroke="black" points="814.5,-118.104 811,-108.104 807.5,-118.104 814.5,-118.104"/>
</g>
<!-- k0 -->
<g id="node64" class="node"><title>k0</title>
<a xlink:href="0016740" xlink:title="GO:0016740 (304)">
<ellipse fill="#e98576" stroke="#e98576" cx="994" cy="-90" rx="84.1886" ry="18"/>
<text text-anchor="middle" x="994" y="-85.8" font-family="Times,serif" font-size="14.00">GO:0016740 (304)</text>
</a>
</g>
<!-- g0&#45;&gt;k0 -->
<g id="edge62" class="edge"><title>g0&#45;&gt;k0</title>
<path fill="none" stroke="black" d="M850.258,-145.983C878.119,-135.326 915.699,-120.951 945.446,-109.573"/>
<polygon fill="black" stroke="black" points="946.717,-112.834 954.807,-105.992 944.216,-106.296 946.717,-112.834"/>
</g>
<!-- m0 -->
<g id="node70" class="node"><title>m0</title>
<a xlink:href="0016829" xlink:title="GO:0016829 (123)">
<ellipse fill="#e98576" stroke="#e98576" cx="1182" cy="-90" rx="84.1886" ry="18"/>
<text text-anchor="middle" x="1182" y="-85.8" font-family="Times,serif" font-size="14.00">GO:0016829 (123)</text>
</a>
</g>
<!-- g0&#45;&gt;m0 -->
<g id="edge68" class="edge"><title>g0&#45;&gt;m0</title>
<path fill="none" stroke="black" d="M871.848,-149.519C937.485,-137.135 1041.88,-117.438 1111.16,-104.366"/>
<polygon fill="black" stroke="black" points="1111.94,-107.78 1121.12,-102.487 1110.64,-100.902 1111.94,-107.78"/>
</g>
<!-- k1 -->
<g id="node9" class="node"><title>k1</title>
<a xlink:href="0019825" xlink:title="GO:0019825 (1)">
<ellipse fill="#e98576" stroke="#e98576" cx="1360" cy="-90" rx="75.2018" ry="18"/>
<text text-anchor="middle" x="1360" y="-85.8" font-family="Times,serif" font-size="14.00">GO:0019825 (1)</text>
</a>
</g>
<!-- b0&#45;&gt;k1 -->
<g id="edge6" class="edge"><title>b0&#45;&gt;k1</title>
<path fill="none" stroke="black" d="M2408.72,-160.99C2249.14,-160.282 1807.87,-153.961 1444,-108 1437.16,-107.136 1430.04,-106.027 1422.97,-104.79"/>
<polygon fill="black" stroke="black" points="1423.15,-101.265 1412.68,-102.901 1421.88,-108.15 1423.15,-101.265"/>
</g>
<!-- p0 -->
<g id="node11" class="node"><title>p0</title>
<a xlink:href="0005515" xlink:title="GO:0005515 (65)">
<ellipse fill="#e98576" stroke="#e98576" cx="1533" cy="-90" rx="79.4447" ry="18"/>
<text text-anchor="middle" x="1533" y="-85.8" font-family="Times,serif" font-size="14.00">GO:0005515 (65)</text>
</a>
</g>
<!-- b0&#45;&gt;p0 -->
<g id="edge8" class="edge"><title>b0&#45;&gt;p0</title>
<path fill="none" stroke="black" d="M2409.09,-159.83C2269.4,-156.572 1915.43,-145.043 1622,-108 1614.62,-107.068 1606.93,-105.901 1599.3,-104.617"/>
<polygon fill="black" stroke="black" points="1599.78,-101.148 1589.33,-102.871 1598.57,-108.043 1599.78,-101.148"/>
</g>
<!-- a1 -->
<g id="node13" class="node"><title>a1</title>
<a xlink:href="0043021" xlink:title="GO:0043021 (8)">
<ellipse fill="#e98576" stroke="#e98576" cx="1706" cy="-90" rx="75.2018" ry="18"/>
<text text-anchor="middle" x="1706" y="-85.8" font-family="Times,serif" font-size="14.00">GO:0043021 (8)</text>
</a>
</g>
<!-- b0&#45;&gt;a1 -->
<g id="edge10" class="edge"><title>b0&#45;&gt;a1</title>
<path fill="none" stroke="black" d="M2409.7,-158.77C2290.71,-153.825 2017.52,-139.768 1790,-108 1783.27,-107.06 1776.26,-105.914 1769.3,-104.665"/>
<polygon fill="black" stroke="black" points="1769.63,-101.167 1759.16,-102.775 1768.35,-108.048 1769.63,-101.167"/>
</g>
<!-- i0 -->
<g id="node24" class="node"><title>i0</title>
<a xlink:href="0043167" xlink:title="GO:0043167 (327)">
<ellipse fill="#e98576" stroke="#e98576" cx="1884" cy="-90" rx="84.1886" ry="18"/>
<text text-anchor="middle" x="1884" y="-85.8" font-family="Times,serif" font-size="14.00">GO:0043167 (327)</text>
</a>
</g>
<!-- b0&#45;&gt;i0 -->
<g id="edge20" class="edge"><title>b0&#45;&gt;i0</title>
<path fill="none" stroke="black" d="M2411.89,-156.098C2319.67,-148.014 2134.25,-130.515 1978,-108 1970.38,-106.902 1962.44,-105.644 1954.54,-104.319"/>
<polygon fill="black" stroke="black" points="1955.02,-100.852 1944.57,-102.613 1953.84,-107.751 1955.02,-100.852"/>
</g>
<!-- z0 -->
<g id="node26" class="node"><title>z0</title>
<a xlink:href="0043176" xlink:title="GO:0043176">
<ellipse fill="#dddddd" stroke="#dddddd" cx="2048" cy="-90" rx="61.1934" ry="18"/>
<text text-anchor="middle" x="2048" y="-85.8" font-family="Times,serif" font-size="14.00">GO:0043176</text>
</a>
</g>
<!-- b0&#45;&gt;z0 -->
<g id="edge22" class="edge"><title>b0&#45;&gt;z0</title>
<path fill="none" stroke="black" d="M2414.73,-154.135C2345.37,-145.18 2222.89,-128.243 2119,-108 2113.71,-106.97 2108.22,-105.813 2102.75,-104.6"/>
<polygon fill="black" stroke="black" points="2103.47,-101.176 2092.95,-102.372 2101.92,-108.002 2103.47,-101.176"/>
</g>
<!-- b1 -->
<g id="node29" class="node"><title>b1</title>
<a xlink:href="0030246" xlink:title="GO:0030246 (6)">
<ellipse fill="#e98576" stroke="#e98576" cx="2203" cy="-90" rx="75.2018" ry="18"/>
<text text-anchor="middle" x="2203" y="-85.8" font-family="Times,serif" font-size="14.00">GO:0030246 (6)</text>
</a>
</g>
<!-- b0&#45;&gt;b1 -->
<g id="edge26" class="edge"><title>b0&#45;&gt;b1</title>
<path fill="none" stroke="black" d="M2425.91,-149.441C2381.01,-137.67 2311.15,-119.353 2261.61,-106.367"/>
<polygon fill="black" stroke="black" points="2262.24,-102.913 2251.68,-103.763 2260.47,-109.684 2262.24,-102.913"/>
</g>
<!-- e0 -->
<g id="node33" class="node"><title>e0</title>
<a xlink:href="0003676" xlink:title="GO:0003676 (505)">
<ellipse fill="#e98576" stroke="#e98576" cx="2381" cy="-90" rx="84.1886" ry="18"/>
<text text-anchor="middle" x="2381" y="-85.8" font-family="Times,serif" font-size="14.00">GO:0003676 (505)</text>
</a>
</g>
<!-- b0&#45;&gt;e0 -->
<g id="edge30" class="edge"><title>b0&#45;&gt;e0</title>
<path fill="none" stroke="black" d="M2449.36,-144.765C2437.73,-135.621 2423.02,-124.05 2410.23,-113.988"/>
<polygon fill="black" stroke="black" points="2412.17,-111.065 2402.15,-107.633 2407.84,-116.567 2412.17,-111.065"/>
</g>
<!-- j1 -->
<g id="node36" class="node"><title>j1</title>
<a xlink:href="0001871" xlink:title="GO:0001871 (1)">
<ellipse fill="#e98576" stroke="#e98576" cx="2559" cy="-90" rx="75.2018" ry="18"/>
<text text-anchor="middle" x="2559" y="-85.8" font-family="Times,serif" font-size="14.00">GO:0001871 (1)</text>
</a>
</g>
<!-- b0&#45;&gt;j1 -->
<g id="edge34" class="edge"><title>b0&#45;&gt;j1</title>
<path fill="none" stroke="black" d="M2490.64,-144.765C2502.35,-135.554 2517.19,-123.882 2530.05,-113.769"/>
<polygon fill="black" stroke="black" points="2532.47,-116.323 2538.16,-107.39 2528.14,-110.821 2532.47,-116.323"/>
</g>
<!-- l0 -->
<g id="node42" class="node"><title>l0</title>
<a xlink:href="0048037" xlink:title="GO:0048037 (216)">
<ellipse fill="#e98576" stroke="#e98576" cx="2737" cy="-90" rx="84.1886" ry="18"/>
<text text-anchor="middle" x="2737" y="-85.8" font-family="Times,serif" font-size="14.00">GO:0048037 (216)</text>
</a>
</g>
<!-- b0&#45;&gt;l0 -->
<g id="edge40" class="edge"><title>b0&#45;&gt;l0</title>
<path fill="none" stroke="black" d="M2514.09,-149.441C2558.29,-137.852 2626.7,-119.917 2676.08,-106.972"/>
<polygon fill="black" stroke="black" points="2677.21,-110.293 2686,-104.371 2675.44,-103.522 2677.21,-110.293"/>
</g>
<!-- f1 -->
<g id="node47" class="node"><title>f1</title>
<a xlink:href="0008289" xlink:title="GO:0008289 (1)">
<ellipse fill="#e98576" stroke="#e98576" cx="2915" cy="-90" rx="75.2018" ry="18"/>
<text text-anchor="middle" x="2915" y="-85.8" font-family="Times,serif" font-size="14.00">GO:0008289 (1)</text>
</a>
</g>
<!-- b0&#45;&gt;f1 -->
<g id="edge44" class="edge"><title>b0&#45;&gt;f1</title>
<path fill="none" stroke="black" d="M2514.27,-149.436C2522.77,-147.446 2531.63,-145.53 2540,-144 2667.76,-120.636 2701.79,-128.75 2830,-108 2836.69,-106.918 2843.65,-105.69 2850.59,-104.402"/>
<polygon fill="black" stroke="black" points="2851.52,-107.787 2860.69,-102.482 2850.22,-100.91 2851.52,-107.787"/>
</g>
<!-- d0 -->
<g id="node50" class="node"><title>d0</title>
<a xlink:href="0001882" xlink:title="GO:0001882 (518)">
<ellipse fill="#e98576" stroke="#e98576" cx="3093" cy="-90" rx="84.1886" ry="18"/>
<text text-anchor="middle" x="3093" y="-85.8" font-family="Times,serif" font-size="14.00">GO:0001882 (518)</text>
</a>
</g>
<!-- b0&#45;&gt;d0 -->
<g id="edge48" class="edge"><title>b0&#45;&gt;d0</title>
<path fill="none" stroke="black" d="M2513.47,-149.303C2522.2,-147.276 2531.36,-145.38 2540,-144 2742.07,-111.751 2796.06,-134.241 2999,-108 3006.89,-106.979 3015.13,-105.744 3023.3,-104.41"/>
<polygon fill="black" stroke="black" points="3023.94,-107.853 3033.22,-102.743 3022.77,-100.95 3023.94,-107.853"/>
</g>
<!-- w0 -->
<g id="node52" class="node"><title>w0</title>
<a xlink:href="0019842" xlink:title="GO:0019842 (15)">
<ellipse fill="#e98576" stroke="#e98576" cx="3276" cy="-90" rx="79.4447" ry="18"/>
<text text-anchor="middle" x="3276" y="-85.8" font-family="Times,serif" font-size="14.00">GO:0019842 (15)</text>
</a>
</g>
<!-- b0&#45;&gt;w0 -->
<g id="edge50" class="edge"><title>b0&#45;&gt;w0</title>
<path fill="none" stroke="black" d="M2513.45,-149.148C2522.18,-147.134 2531.34,-145.282 2540,-144 2824.46,-101.893 2900.55,-142.761 3186,-108 3193.66,-107.067 3201.65,-105.878 3209.56,-104.562"/>
<polygon fill="black" stroke="black" points="3210.27,-107.992 3219.52,-102.838 3209.07,-101.095 3210.27,-107.992"/>
</g>
<!-- t0 -->
<g id="node66" class="node"><title>t0</title>
<a xlink:href="0046906" xlink:title="GO:0046906 (31)">
<ellipse fill="#e98576" stroke="#e98576" cx="3454" cy="-90" rx="79.4447" ry="18"/>
<text text-anchor="middle" x="3454" y="-85.8" font-family="Times,serif" font-size="14.00">GO:0046906 (31)</text>
</a>
</g>
<!-- b0&#45;&gt;t0 -->
<g id="edge64" class="edge"><title>b0&#45;&gt;t0</title>
<path fill="none" stroke="black" d="M2513.06,-149.152C2521.91,-147.111 2531.21,-145.247 2540,-144 2902.94,-92.5015 2999.86,-150.127 3364,-108 3371.77,-107.101 3379.89,-105.919 3387.92,-104.596"/>
<polygon fill="black" stroke="black" points="3388.76,-108.003 3398.02,-102.856 3387.57,-101.105 3388.76,-108.003"/>
</g>
<!-- a0 -->
<g id="node68" class="node"><title>a0</title>
<a xlink:href="0000166" xlink:title="GO:0000166 (661)">
<ellipse fill="#e98576" stroke="#e98576" cx="3637" cy="-90" rx="84.1886" ry="18"/>
<text text-anchor="middle" x="3637" y="-85.8" font-family="Times,serif" font-size="14.00">GO:0000166 (661)</text>
</a>
</g>
<!-- b0&#45;&gt;a0 -->
<g id="edge66" class="edge"><title>b0&#45;&gt;a0</title>
<path fill="none" stroke="black" d="M2513.05,-149.099C2521.9,-147.061 2531.2,-145.213 2540,-144 2981.44,-83.106 3098.9,-155.366 3542,-108 3550.38,-107.104 3559.14,-105.904 3567.8,-104.553"/>
<polygon fill="black" stroke="black" points="3568.59,-107.971 3577.89,-102.908 3567.46,-101.062 3568.59,-107.971"/>
</g>
<!-- s0 -->
<g id="node72" class="node"><title>s0</title>
<a xlink:href="0051540" xlink:title="GO:0051540 (33)">
<ellipse fill="#e98576" stroke="#e98576" cx="3820" cy="-90" rx="79.4447" ry="18"/>
<text text-anchor="middle" x="3820" y="-85.8" font-family="Times,serif" font-size="14.00">GO:0051540 (33)</text>
</a>
</g>
<!-- b0&#45;&gt;s0 -->
<g id="edge70" class="edge"><title>b0&#45;&gt;s0</title>
<path fill="none" stroke="black" d="M2513.05,-149.059C2521.9,-147.025 2531.2,-145.188 2540,-144 3064.37,-73.1806 3203.98,-165.28 3730,-108 3737.98,-107.131 3746.31,-105.944 3754.55,-104.598"/>
<polygon fill="black" stroke="black" points="3755.25,-108.028 3764.51,-102.888 3754.06,-101.129 3755.25,-108.028"/>
</g>
<!-- u0 -->
<g id="node17" class="node"><title>u0</title>
<a xlink:href="0008233" xlink:title="GO:0008233 (30)">
<ellipse fill="#e98576" stroke="#e98576" cx="262" cy="-18" rx="79.4447" ry="18"/>
<text text-anchor="middle" x="262" y="-13.8" font-family="Times,serif" font-size="14.00">GO:0008233 (30)</text>
</a>
</g>
<!-- j0&#45;&gt;u0 -->
<g id="edge14" class="edge"><title>j0&#45;&gt;u0</title>
<path fill="none" stroke="black" d="M262,-71.6966C262,-63.9827 262,-54.7125 262,-46.1124"/>
<polygon fill="black" stroke="black" points="265.5,-46.1043 262,-36.1043 258.5,-46.1044 265.5,-46.1043"/>
</g>
<!-- e1 -->
<g id="node20" class="node"><title>e1</title>
<a xlink:href="0004497" xlink:title="GO:0004497 (2)">
<ellipse fill="#e98576" stroke="#e98576" cx="442" cy="-18" rx="75.2018" ry="18"/>
<text text-anchor="middle" x="442" y="-13.8" font-family="Times,serif" font-size="14.00">GO:0004497 (2)</text>
</a>
</g>
<!-- f0&#45;&gt;e1 -->
<g id="edge16" class="edge"><title>f0&#45;&gt;e1</title>
<path fill="none" stroke="black" d="M448.022,-71.6966C447.141,-63.9827 446.081,-54.7125 445.099,-46.1124"/>
<polygon fill="black" stroke="black" points="448.568,-45.6422 443.955,-36.1043 441.613,-46.4371 448.568,-45.6422"/>
</g>
<!-- v0 -->
<g id="node62" class="node"><title>v0</title>
<a xlink:href="0009055" xlink:title="GO:0009055 (16)">
<ellipse fill="#e98576" stroke="#e98576" cx="615" cy="-18" rx="79.4447" ry="18"/>
<text text-anchor="middle" x="615" y="-13.8" font-family="Times,serif" font-size="14.00">GO:0009055 (16)</text>
</a>
</g>
<!-- f0&#45;&gt;v0 -->
<g id="edge60" class="edge"><title>f0&#45;&gt;v0</title>
<path fill="none" stroke="black" d="M486.21,-73.6382C510.796,-63.2077 543.492,-49.3368 569.787,-38.1812"/>
<polygon fill="black" stroke="black" points="571.32,-41.3331 579.159,-34.2055 568.586,-34.889 571.32,-41.3331"/>
</g>
<!-- y0 -->
<g id="node54" class="node"><title>y0</title>
<a xlink:href="0016597" xlink:title="GO:0016597 (8)">
<ellipse fill="#e98576" stroke="#e98576" cx="2048" cy="-18" rx="75.2018" ry="18"/>
<text text-anchor="middle" x="2048" y="-13.8" font-family="Times,serif" font-size="14.00">GO:0016597 (8)</text>
</a>
</g>
<!-- z0&#45;&gt;y0 -->
<g id="edge52" class="edge"><title>z0&#45;&gt;y0</title>
<path fill="none" stroke="black" d="M2048,-71.6966C2048,-63.9827 2048,-54.7125 2048,-46.1124"/>
<polygon fill="black" stroke="black" points="2051.5,-46.1043 2048,-36.1043 2044.5,-46.1044 2051.5,-46.1043"/>
</g>
<!-- c1 -->
<g id="node43" class="node"><title>c1</title>
<a xlink:href="0004871" xlink:title="GO:0004871 (5)">
<ellipse fill="#e98576" stroke="#e98576" cx="3993" cy="-90" rx="75.2018" ry="18"/>
<text text-anchor="middle" x="3993" y="-85.8" font-family="Times,serif" font-size="14.00">GO:0004871 (5)</text>
</a>
</g>
<!-- g1 -->
<g id="node45" class="node"><title>g1</title>
<a xlink:href="0004872" xlink:title="GO:0004872 (1)">
<ellipse fill="#e98576" stroke="#e98576" cx="3993" cy="-18" rx="75.2018" ry="18"/>
<text text-anchor="middle" x="3993" y="-13.8" font-family="Times,serif" font-size="14.00">GO:0004872 (1)</text>
</a>
</g>
<!-- c1&#45;&gt;g1 -->
<g id="edge42" class="edge"><title>c1&#45;&gt;g1</title>
<path fill="none" stroke="black" d="M3993,-71.6966C3993,-63.9827 3993,-54.7125 3993,-46.1124"/>
<polygon fill="black" stroke="black" points="3996.5,-46.1043 3993,-36.1043 3989.5,-46.1044 3996.5,-46.1043"/>
</g>
<!-- d1&#45;&gt;c1 -->
<g id="edge54" class="edge"><title>d1&#45;&gt;c1</title>
<path fill="none" stroke="black" d="M3019.06,-149.139C3027.91,-147.098 3037.21,-145.239 3046,-144 3425.69,-90.4959 3527.29,-153.738 3908,-108 3915.19,-107.136 3922.68,-105.996 3930.11,-104.715"/>
<polygon fill="black" stroke="black" points="3930.94,-108.121 3940.15,-102.892 3929.69,-101.233 3930.94,-108.121"/>
</g>
</g>
</svg>
