<?xml version="1.0" encoding="UTF-8" standalone="no"?>
<!DOCTYPE svg PUBLIC "-//W3C//DTD SVG 1.1//EN"
 "http://www.w3.org/Graphics/SVG/1.1/DTD/svg11.dtd">
<!-- Generated by graphviz version 2.28.0 (20110622.2320)
 -->
<!-- Title: G Pages: 1 -->
<svg width="486pt" height="188pt"
 viewBox="0.00 0.00 486.00 188.00" xmlns="http://www.w3.org/2000/svg" xmlns:xlink="http://www.w3.org/1999/xlink">
<g id="graph1" class="graph" transform="scale(1 1) rotate(0) translate(4 184)">
<title>G</title>
<polygon fill="white" stroke="white" points="-4,5 -4,-184 483,-184 483,5 -4,5"/>
<!-- f0 -->
<g id="node1" class="node"><title>f0</title>
<a xlink:href="0005488" xlink:title="GO:0005488">
<ellipse fill="#dddddd" stroke="#dddddd" cx="83" cy="-90" rx="61.1934" ry="18"/>
<text text-anchor="middle" x="83" y="-85.8" font-family="Times,serif" font-size="14.00">GO:0005488</text>
</a>
</g>
<!-- e0 -->
<g id="node3" class="node"><title>e0</title>
<a xlink:href="0043167" xlink:title="GO:0043167 (1)">
<ellipse fill="#e98576" stroke="#e98576" cx="75" cy="-18" rx="75.2018" ry="18"/>
<text text-anchor="middle" x="75" y="-13.8" font-family="Times,serif" font-size="14.00">GO:0043167 (1)</text>
</a>
</g>
<!-- f0&#45;&gt;e0 -->
<g id="edge2" class="edge"><title>f0&#45;&gt;e0</title>
<path fill="none" stroke="black" d="M81.0225,-71.6966C80.1409,-63.9827 79.0814,-54.7125 78.0986,-46.1124"/>
<polygon fill="black" stroke="black" points="81.5677,-45.6422 76.9548,-36.1043 74.613,-46.4371 81.5677,-45.6422"/>
</g>
<!-- b0 -->
<g id="node4" class="node"><title>b0</title>
<a xlink:href="0003674" xlink:title="GO:0003674">
<ellipse fill="#dddddd" stroke="#dddddd" cx="240" cy="-162" rx="61.1934" ry="18"/>
<text text-anchor="middle" x="240" y="-157.8" font-family="Times,serif" font-size="14.00">GO:0003674</text>
</a>
</g>
<!-- b0&#45;&gt;f0 -->
<g id="edge4" class="edge"><title>b0&#45;&gt;f0</title>
<path fill="none" stroke="black" d="M207.85,-146.666C183.8,-135.943 150.708,-121.188 124.635,-109.563"/>
<polygon fill="black" stroke="black" points="125.935,-106.311 115.377,-105.435 123.085,-112.704 125.935,-106.311"/>
</g>
<!-- d0 -->
<g id="node6" class="node"><title>d0</title>
<a xlink:href="0003824" xlink:title="GO:0003824">
<ellipse fill="#dddddd" stroke="#dddddd" cx="240" cy="-90" rx="61.1934" ry="18"/>
<text text-anchor="middle" x="240" y="-85.8" font-family="Times,serif" font-size="14.00">GO:0003824</text>
</a>
</g>
<!-- b0&#45;&gt;d0 -->
<g id="edge8" class="edge"><title>b0&#45;&gt;d0</title>
<path fill="none" stroke="black" d="M240,-143.697C240,-135.983 240,-126.712 240,-118.112"/>
<polygon fill="black" stroke="black" points="243.5,-118.104 240,-108.104 236.5,-118.104 243.5,-118.104"/>
</g>
<!-- a0 -->
<g id="node11" class="node"><title>a0</title>
<a xlink:href="0016209" xlink:title="GO:0016209 (23)">
<ellipse fill="#e98576" stroke="#e98576" cx="399" cy="-90" rx="79.4447" ry="18"/>
<text text-anchor="middle" x="399" y="-85.8" font-family="Times,serif" font-size="14.00">GO:0016209 (23)</text>
</a>
</g>
<!-- b0&#45;&gt;a0 -->
<g id="edge10" class="edge"><title>b0&#45;&gt;a0</title>
<path fill="none" stroke="black" d="M272.56,-146.666C296.349,-136.192 328.876,-121.872 354.981,-110.379"/>
<polygon fill="black" stroke="black" points="356.538,-113.518 364.28,-106.285 353.718,-107.111 356.538,-113.518"/>
</g>
<!-- c0 -->
<g id="node8" class="node"><title>c0</title>
<a xlink:href="0016491" xlink:title="GO:0016491 (23)">
<ellipse fill="#e98576" stroke="#e98576" cx="248" cy="-18" rx="79.4447" ry="18"/>
<text text-anchor="middle" x="248" y="-13.8" font-family="Times,serif" font-size="14.00">GO:0016491 (23)</text>
</a>
</g>
<!-- d0&#45;&gt;c0 -->
<g id="edge6" class="edge"><title>d0&#45;&gt;c0</title>
<path fill="none" stroke="black" d="M241.978,-71.6966C242.859,-63.9827 243.919,-54.7125 244.901,-46.1124"/>
<polygon fill="black" stroke="black" points="248.387,-46.4371 246.045,-36.1043 241.432,-45.6422 248.387,-46.4371"/>
</g>
</g>
</svg>
