<?xml version="1.0" encoding="UTF-8" standalone="no"?>
<!DOCTYPE svg PUBLIC "-//W3C//DTD SVG 1.1//EN"
 "http://www.w3.org/Graphics/SVG/1.1/DTD/svg11.dtd">
<!-- Generated by graphviz version 2.28.0 (20110622.2320)
 -->
<!-- Title: G Pages: 1 -->
<svg width="1166pt" height="260pt"
 viewBox="0.00 0.00 1166.00 260.00" xmlns="http://www.w3.org/2000/svg" xmlns:xlink="http://www.w3.org/1999/xlink">
<g id="graph1" class="graph" transform="scale(1 1) rotate(0) translate(4 256)">
<title>G</title>
<polygon fill="white" stroke="white" points="-4,5 -4,-256 1163,-256 1163,5 -4,5"/>
<!-- b0 -->
<g id="node1" class="node"><title>b0</title>
<a xlink:href="0003674" xlink:title="GO:0003674">
<ellipse fill="#dddddd" stroke="#dddddd" cx="411" cy="-234" rx="61.1934" ry="18"/>
<text text-anchor="middle" x="411" y="-229.8" font-family="Times,serif" font-size="14.00">GO:0003674</text>
</a>
</g>
<!-- k0 -->
<g id="node3" class="node"><title>k0</title>
<a xlink:href="0005215" xlink:title="GO:0005215 (1)">
<ellipse fill="#e98576" stroke="#e98576" cx="88" cy="-162" rx="75.2018" ry="18"/>
<text text-anchor="middle" x="88" y="-157.8" font-family="Times,serif" font-size="14.00">GO:0005215 (1)</text>
</a>
</g>
<!-- b0&#45;&gt;k0 -->
<g id="edge2" class="edge"><title>b0&#45;&gt;k0</title>
<path fill="none" stroke="black" d="M363.34,-222.671C307.321,-210.531 214.12,-190.333 151.88,-176.844"/>
<polygon fill="black" stroke="black" points="152.299,-173.354 141.785,-174.656 150.816,-180.195 152.299,-173.354"/>
</g>
<!-- e0 -->
<g id="node5" class="node"><title>e0</title>
<a xlink:href="0045735" xlink:title="GO:0045735 (3)">
<ellipse fill="#e98576" stroke="#e98576" cx="256" cy="-162" rx="75.2018" ry="18"/>
<text text-anchor="middle" x="256" y="-157.8" font-family="Times,serif" font-size="14.00">GO:0045735 (3)</text>
</a>
</g>
<!-- b0&#45;&gt;e0 -->
<g id="edge4" class="edge"><title>b0&#45;&gt;e0</title>
<path fill="none" stroke="black" d="M378.884,-218.496C355.767,-208.056 324.333,-193.86 299.044,-182.439"/>
<polygon fill="black" stroke="black" points="300.238,-179.138 289.683,-178.212 297.357,-185.518 300.238,-179.138"/>
</g>
<!-- d0 -->
<g id="node6" class="node"><title>d0</title>
<a xlink:href="0005488" xlink:title="GO:0005488">
<ellipse fill="#dddddd" stroke="#dddddd" cx="411" cy="-162" rx="61.1934" ry="18"/>
<text text-anchor="middle" x="411" y="-157.8" font-family="Times,serif" font-size="14.00">GO:0005488</text>
</a>
</g>
<!-- b0&#45;&gt;d0 -->
<g id="edge20" class="edge"><title>b0&#45;&gt;d0</title>
<path fill="none" stroke="black" d="M411,-215.697C411,-207.983 411,-198.712 411,-190.112"/>
<polygon fill="black" stroke="black" points="414.5,-190.104 411,-180.104 407.5,-190.104 414.5,-190.104"/>
</g>
<!-- a0 -->
<g id="node12" class="node"><title>a0</title>
<a xlink:href="0030234" xlink:title="GO:0030234 (5)">
<ellipse fill="#e98576" stroke="#e98576" cx="566" cy="-162" rx="75.2018" ry="18"/>
<text text-anchor="middle" x="566" y="-157.8" font-family="Times,serif" font-size="14.00">GO:0030234 (5)</text>
</a>
</g>
<!-- b0&#45;&gt;a0 -->
<g id="edge10" class="edge"><title>b0&#45;&gt;a0</title>
<path fill="none" stroke="black" d="M443.116,-218.496C466.233,-208.056 497.667,-193.86 522.956,-182.439"/>
<polygon fill="black" stroke="black" points="524.643,-185.518 532.317,-178.212 521.762,-179.138 524.643,-185.518"/>
</g>
<!-- h0 -->
<g id="node13" class="node"><title>h0</title>
<a xlink:href="0003824" xlink:title="GO:0003824">
<ellipse fill="#dddddd" stroke="#dddddd" cx="831" cy="-162" rx="61.1934" ry="18"/>
<text text-anchor="middle" x="831" y="-157.8" font-family="Times,serif" font-size="14.00">GO:0003824</text>
</a>
</g>
<!-- b0&#45;&gt;h0 -->
<g id="edge14" class="edge"><title>b0&#45;&gt;h0</title>
<path fill="none" stroke="black" d="M462.921,-224.346C540.455,-211.424 686.224,-187.129 769.157,-173.307"/>
<polygon fill="black" stroke="black" points="769.909,-176.73 779.197,-171.634 768.758,-169.826 769.909,-176.73"/>
</g>
<!-- c0 -->
<g id="node8" class="node"><title>c0</title>
<a xlink:href="0043167" xlink:title="GO:0043167 (4)">
<ellipse fill="#e98576" stroke="#e98576" cx="75" cy="-90" rx="75.2018" ry="18"/>
<text text-anchor="middle" x="75" y="-85.8" font-family="Times,serif" font-size="14.00">GO:0043167 (4)</text>
</a>
</g>
<!-- d0&#45;&gt;c0 -->
<g id="edge6" class="edge"><title>d0&#45;&gt;c0</title>
<path fill="none" stroke="black" d="M365.609,-149.856C357.112,-147.848 348.295,-145.817 340,-144 259.88,-126.447 239.418,-124.135 159,-108 152.969,-106.79 146.695,-105.527 140.413,-104.261"/>
<polygon fill="black" stroke="black" points="141.066,-100.822 130.571,-102.274 139.681,-107.683 141.066,-100.822"/>
</g>
<!-- l0 -->
<g id="node10" class="node"><title>l0</title>
<a xlink:href="0008289" xlink:title="GO:0008289 (1)">
<ellipse fill="#e98576" stroke="#e98576" cx="243" cy="-90" rx="75.2018" ry="18"/>
<text text-anchor="middle" x="243" y="-85.8" font-family="Times,serif" font-size="14.00">GO:0008289 (1)</text>
</a>
</g>
<!-- d0&#45;&gt;l0 -->
<g id="edge8" class="edge"><title>d0&#45;&gt;l0</title>
<path fill="none" stroke="black" d="M377.003,-146.834C351.444,-136.185 316.175,-121.49 288.235,-109.848"/>
<polygon fill="black" stroke="black" points="289.263,-106.485 278.686,-105.869 286.571,-112.946 289.263,-106.485"/>
</g>
<!-- m0 -->
<g id="node21" class="node"><title>m0</title>
<a xlink:href="0046906" xlink:title="GO:0046906 (1)">
<ellipse fill="#e98576" stroke="#e98576" cx="411" cy="-90" rx="75.2018" ry="18"/>
<text text-anchor="middle" x="411" y="-85.8" font-family="Times,serif" font-size="14.00">GO:0046906 (1)</text>
</a>
</g>
<!-- d0&#45;&gt;m0 -->
<g id="edge18" class="edge"><title>d0&#45;&gt;m0</title>
<path fill="none" stroke="black" d="M411,-143.697C411,-135.983 411,-126.712 411,-118.112"/>
<polygon fill="black" stroke="black" points="414.5,-118.104 411,-108.104 407.5,-118.104 414.5,-118.104"/>
</g>
<!-- n0 -->
<g id="node27" class="node"><title>n0</title>
<a xlink:href="0048037" xlink:title="GO:0048037 (1)">
<ellipse fill="#e98576" stroke="#e98576" cx="579" cy="-90" rx="75.2018" ry="18"/>
<text text-anchor="middle" x="579" y="-85.8" font-family="Times,serif" font-size="14.00">GO:0048037 (1)</text>
</a>
</g>
<!-- d0&#45;&gt;n0 -->
<g id="edge26" class="edge"><title>d0&#45;&gt;n0</title>
<path fill="none" stroke="black" d="M444.997,-146.834C470.556,-136.185 505.825,-121.49 533.765,-109.848"/>
<polygon fill="black" stroke="black" points="535.429,-112.946 543.314,-105.869 532.737,-106.485 535.429,-112.946"/>
</g>
<!-- i0 -->
<g id="node15" class="node"><title>i0</title>
<a xlink:href="0016787" xlink:title="GO:0016787 (1)">
<ellipse fill="#e98576" stroke="#e98576" cx="747" cy="-90" rx="75.2018" ry="18"/>
<text text-anchor="middle" x="747" y="-85.8" font-family="Times,serif" font-size="14.00">GO:0016787 (1)</text>
</a>
</g>
<!-- h0&#45;&gt;i0 -->
<g id="edge12" class="edge"><title>h0&#45;&gt;i0</title>
<path fill="none" stroke="black" d="M811.518,-144.765C800.57,-135.642 786.725,-124.105 774.67,-114.059"/>
<polygon fill="black" stroke="black" points="776.591,-111.103 766.668,-107.39 772.109,-116.48 776.591,-111.103"/>
</g>
<!-- g0 -->
<g id="node17" class="node"><title>g0</title>
<a xlink:href="0016491" xlink:title="GO:0016491 (2)">
<ellipse fill="#e98576" stroke="#e98576" cx="915" cy="-90" rx="75.2018" ry="18"/>
<text text-anchor="middle" x="915" y="-85.8" font-family="Times,serif" font-size="14.00">GO:0016491 (2)</text>
</a>
</g>
<!-- h0&#45;&gt;g0 -->
<g id="edge22" class="edge"><title>h0&#45;&gt;g0</title>
<path fill="none" stroke="black" d="M850.482,-144.765C861.43,-135.642 875.275,-124.105 887.33,-114.059"/>
<polygon fill="black" stroke="black" points="889.891,-116.48 895.332,-107.39 885.409,-111.103 889.891,-116.48"/>
</g>
<!-- j0 -->
<g id="node25" class="node"><title>j0</title>
<a xlink:href="0016829" xlink:title="GO:0016829 (1)">
<ellipse fill="#e98576" stroke="#e98576" cx="1083" cy="-90" rx="75.2018" ry="18"/>
<text text-anchor="middle" x="1083" y="-85.8" font-family="Times,serif" font-size="14.00">GO:0016829 (1)</text>
</a>
</g>
<!-- h0&#45;&gt;j0 -->
<g id="edge24" class="edge"><title>h0&#45;&gt;j0</title>
<path fill="none" stroke="black" d="M874.034,-149.046C915.943,-137.405 979.895,-119.64 1026.01,-106.83"/>
<polygon fill="black" stroke="black" points="1027.16,-110.143 1035.86,-104.095 1025.29,-103.399 1027.16,-110.143"/>
</g>
<!-- f0 -->
<g id="node19" class="node"><title>f0</title>
<a xlink:href="0009055" xlink:title="GO:0009055 (3)">
<ellipse fill="#e98576" stroke="#e98576" cx="915" cy="-18" rx="75.2018" ry="18"/>
<text text-anchor="middle" x="915" y="-13.8" font-family="Times,serif" font-size="14.00">GO:0009055 (3)</text>
</a>
</g>
<!-- g0&#45;&gt;f0 -->
<g id="edge16" class="edge"><title>g0&#45;&gt;f0</title>
<path fill="none" stroke="black" d="M915,-71.6966C915,-63.9827 915,-54.7125 915,-46.1124"/>
<polygon fill="black" stroke="black" points="918.5,-46.1043 915,-36.1043 911.5,-46.1044 918.5,-46.1043"/>
</g>
</g>
</svg>
