<?xml version="1.0" encoding="UTF-8" standalone="no"?>
<!DOCTYPE svg PUBLIC "-//W3C//DTD SVG 1.1//EN"
 "http://www.w3.org/Graphics/SVG/1.1/DTD/svg11.dtd">
<!-- Generated by graphviz version 2.28.0 (20110622.2320)
 -->
<!-- Title: G Pages: 1 -->
<svg width="1343pt" height="260pt"
 viewBox="0.00 0.00 1343.00 260.00" xmlns="http://www.w3.org/2000/svg" xmlns:xlink="http://www.w3.org/1999/xlink">
<g id="graph1" class="graph" transform="scale(1 1) rotate(0) translate(4 256)">
<title>G</title>
<polygon fill="white" stroke="white" points="-4,5 -4,-256 1340,-256 1340,5 -4,5"/>
<!-- e0 -->
<g id="node1" class="node"><title>e0</title>
<a xlink:href="0005488" xlink:title="GO:0005488 (1)">
<ellipse fill="#e98576" stroke="#e98576" cx="495" cy="-162" rx="75.2018" ry="18"/>
<text text-anchor="middle" x="495" y="-157.8" font-family="Times,serif" font-size="14.00">GO:0005488 (1)</text>
</a>
</g>
<!-- f0 -->
<g id="node3" class="node"><title>f0</title>
<a xlink:href="0043167" xlink:title="GO:0043167 (5)">
<ellipse fill="#e98576" stroke="#e98576" cx="75" cy="-90" rx="75.2018" ry="18"/>
<text text-anchor="middle" x="75" y="-85.8" font-family="Times,serif" font-size="14.00">GO:0043167 (5)</text>
</a>
</g>
<!-- e0&#45;&gt;f0 -->
<g id="edge2" class="edge"><title>e0&#45;&gt;f0</title>
<path fill="none" stroke="black" d="M432.318,-151.94C364.727,-141.978 254.028,-125.102 159,-108 152.754,-106.876 146.257,-105.654 139.766,-104.399"/>
<polygon fill="black" stroke="black" points="140.095,-100.897 129.608,-102.408 138.748,-107.766 140.095,-100.897"/>
</g>
<!-- d0 -->
<g id="node14" class="node"><title>d0</title>
<a xlink:href="0005515" xlink:title="GO:0005515 (7)">
<ellipse fill="#e98576" stroke="#e98576" cx="243" cy="-90" rx="75.2018" ry="18"/>
<text text-anchor="middle" x="243" y="-85.8" font-family="Times,serif" font-size="14.00">GO:0005515 (7)</text>
</a>
</g>
<!-- e0&#45;&gt;d0 -->
<g id="edge12" class="edge"><title>e0&#45;&gt;d0</title>
<path fill="none" stroke="black" d="M447.896,-147.916C406.045,-136.29 344.762,-119.267 300.126,-106.868"/>
<polygon fill="black" stroke="black" points="300.872,-103.443 290.3,-104.139 298.998,-110.188 300.872,-103.443"/>
</g>
<!-- g0 -->
<g id="node16" class="node"><title>g0</title>
<a xlink:href="0003676" xlink:title="GO:0003676 (3)">
<ellipse fill="#e98576" stroke="#e98576" cx="411" cy="-90" rx="75.2018" ry="18"/>
<text text-anchor="middle" x="411" y="-85.8" font-family="Times,serif" font-size="14.00">GO:0003676 (3)</text>
</a>
</g>
<!-- e0&#45;&gt;g0 -->
<g id="edge14" class="edge"><title>e0&#45;&gt;g0</title>
<path fill="none" stroke="black" d="M475.093,-144.411C464.214,-135.345 450.569,-123.974 438.669,-114.057"/>
<polygon fill="black" stroke="black" points="440.687,-111.183 430.764,-107.47 436.206,-116.561 440.687,-111.183"/>
</g>
<!-- m0 -->
<g id="node19" class="node"><title>m0</title>
<a xlink:href="0000166" xlink:title="GO:0000166 (1)">
<ellipse fill="#e98576" stroke="#e98576" cx="579" cy="-90" rx="75.2018" ry="18"/>
<text text-anchor="middle" x="579" y="-85.8" font-family="Times,serif" font-size="14.00">GO:0000166 (1)</text>
</a>
</g>
<!-- e0&#45;&gt;m0 -->
<g id="edge18" class="edge"><title>e0&#45;&gt;m0</title>
<path fill="none" stroke="black" d="M514.907,-144.411C525.786,-135.345 539.431,-123.974 551.331,-114.057"/>
<polygon fill="black" stroke="black" points="553.794,-116.561 559.236,-107.47 549.313,-111.183 553.794,-116.561"/>
</g>
<!-- l0 -->
<g id="node26" class="node"><title>l0</title>
<a xlink:href="0060090" xlink:title="GO:0060090 (1)">
<ellipse fill="#e98576" stroke="#e98576" cx="747" cy="-90" rx="75.2018" ry="18"/>
<text text-anchor="middle" x="747" y="-85.8" font-family="Times,serif" font-size="14.00">GO:0060090 (1)</text>
</a>
</g>
<!-- e0&#45;&gt;l0 -->
<g id="edge24" class="edge"><title>e0&#45;&gt;l0</title>
<path fill="none" stroke="black" d="M542.104,-147.916C583.955,-136.29 645.238,-119.267 689.874,-106.868"/>
<polygon fill="black" stroke="black" points="691.002,-110.188 699.7,-104.139 689.128,-103.443 691.002,-110.188"/>
</g>
<!-- a0 -->
<g id="node4" class="node"><title>a0</title>
<a xlink:href="0003674" xlink:title="GO:0003674 (27)">
<ellipse fill="#e98576" stroke="#e98576" cx="887" cy="-234" rx="79.4447" ry="18"/>
<text text-anchor="middle" x="887" y="-229.8" font-family="Times,serif" font-size="14.00">GO:0003674 (27)</text>
</a>
</g>
<!-- a0&#45;&gt;e0 -->
<g id="edge16" class="edge"><title>a0&#45;&gt;e0</title>
<path fill="none" stroke="black" d="M826.609,-222.216C755.536,-209.524 637.802,-188.5 563.418,-175.218"/>
<polygon fill="black" stroke="black" points="563.679,-171.709 553.219,-173.396 562.448,-178.6 563.679,-171.709"/>
</g>
<!-- j0 -->
<g id="node6" class="node"><title>j0</title>
<a xlink:href="0030234" xlink:title="GO:0030234 (1)">
<ellipse fill="#e98576" stroke="#e98576" cx="810" cy="-162" rx="75.2018" ry="18"/>
<text text-anchor="middle" x="810" y="-157.8" font-family="Times,serif" font-size="14.00">GO:0030234 (1)</text>
</a>
</g>
<!-- a0&#45;&gt;j0 -->
<g id="edge4" class="edge"><title>a0&#45;&gt;j0</title>
<path fill="none" stroke="black" d="M868.752,-216.411C858.875,-207.432 846.512,-196.193 835.678,-186.344"/>
<polygon fill="black" stroke="black" points="837.871,-183.607 828.117,-179.47 833.162,-188.787 837.871,-183.607"/>
</g>
<!-- i0 -->
<g id="node7" class="node"><title>i0</title>
<a xlink:href="0003824" xlink:title="GO:0003824">
<ellipse fill="#dddddd" stroke="#dddddd" cx="965" cy="-162" rx="61.1934" ry="18"/>
<text text-anchor="middle" x="965" y="-157.8" font-family="Times,serif" font-size="14.00">GO:0003824</text>
</a>
</g>
<!-- a0&#45;&gt;i0 -->
<g id="edge8" class="edge"><title>a0&#45;&gt;i0</title>
<path fill="none" stroke="black" d="M905.485,-216.411C915.563,-207.367 928.196,-196.03 939.227,-186.13"/>
<polygon fill="black" stroke="black" points="941.812,-188.512 946.917,-179.228 937.137,-183.303 941.812,-188.512"/>
</g>
<!-- c0 -->
<g id="node20" class="node"><title>c0</title>
<a xlink:href="0060089" xlink:title="GO:0060089">
<ellipse fill="#dddddd" stroke="#dddddd" cx="1206" cy="-162" rx="61.1934" ry="18"/>
<text text-anchor="middle" x="1206" y="-157.8" font-family="Times,serif" font-size="14.00">GO:0060089</text>
</a>
</g>
<!-- a0&#45;&gt;c0 -->
<g id="edge26" class="edge"><title>a0&#45;&gt;c0</title>
<path fill="none" stroke="black" d="M941.838,-220.967C999.514,-208.31 1089.88,-188.481 1148.53,-175.612"/>
<polygon fill="black" stroke="black" points="1149.36,-179.013 1158.38,-173.451 1147.86,-172.175 1149.36,-179.013"/>
</g>
<!-- h0 -->
<g id="node9" class="node"><title>h0</title>
<a xlink:href="0016787" xlink:title="GO:0016787 (2)">
<ellipse fill="#e98576" stroke="#e98576" cx="915" cy="-90" rx="75.2018" ry="18"/>
<text text-anchor="middle" x="915" y="-85.8" font-family="Times,serif" font-size="14.00">GO:0016787 (2)</text>
</a>
</g>
<!-- i0&#45;&gt;h0 -->
<g id="edge6" class="edge"><title>i0&#45;&gt;h0</title>
<path fill="none" stroke="black" d="M952.896,-144.055C946.878,-135.629 939.486,-125.28 932.833,-115.966"/>
<polygon fill="black" stroke="black" points="935.653,-113.892 926.992,-107.789 929.956,-117.961 935.653,-113.892"/>
</g>
<!-- k0 -->
<g id="node12" class="node"><title>k0</title>
<a xlink:href="0016740" xlink:title="GO:0016740 (1)">
<ellipse fill="#e98576" stroke="#e98576" cx="1083" cy="-90" rx="75.2018" ry="18"/>
<text text-anchor="middle" x="1083" y="-85.8" font-family="Times,serif" font-size="14.00">GO:0016740 (1)</text>
</a>
</g>
<!-- i0&#45;&gt;k0 -->
<g id="edge10" class="edge"><title>i0&#45;&gt;k0</title>
<path fill="none" stroke="black" d="M990.896,-145.638C1007.45,-135.816 1029.15,-122.942 1047.33,-112.159"/>
<polygon fill="black" stroke="black" points="1049.12,-115.168 1055.94,-107.055 1045.55,-109.147 1049.12,-115.168"/>
</g>
<!-- n0 -->
<g id="node24" class="node"><title>n0</title>
<a xlink:href="0008233" xlink:title="GO:0008233 (1)">
<ellipse fill="#e98576" stroke="#e98576" cx="915" cy="-18" rx="75.2018" ry="18"/>
<text text-anchor="middle" x="915" y="-13.8" font-family="Times,serif" font-size="14.00">GO:0008233 (1)</text>
</a>
</g>
<!-- h0&#45;&gt;n0 -->
<g id="edge22" class="edge"><title>h0&#45;&gt;n0</title>
<path fill="none" stroke="black" d="M915,-71.6966C915,-63.9827 915,-54.7125 915,-46.1124"/>
<polygon fill="black" stroke="black" points="918.5,-46.1043 915,-36.1043 911.5,-46.1044 918.5,-46.1043"/>
</g>
<!-- b0 -->
<g id="node22" class="node"><title>b0</title>
<a xlink:href="0004871" xlink:title="GO:0004871 (18)">
<ellipse fill="#e98576" stroke="#e98576" cx="1256" cy="-90" rx="79.4447" ry="18"/>
<text text-anchor="middle" x="1256" y="-85.8" font-family="Times,serif" font-size="14.00">GO:0004871 (18)</text>
</a>
</g>
<!-- c0&#45;&gt;b0 -->
<g id="edge20" class="edge"><title>c0&#45;&gt;b0</title>
<path fill="none" stroke="black" d="M1218.1,-144.055C1223.97,-135.837 1231.15,-125.791 1237.67,-116.66"/>
<polygon fill="black" stroke="black" points="1240.7,-118.447 1243.66,-108.275 1235,-114.378 1240.7,-118.447"/>
</g>
</g>
</svg>
