<?xml version="1.0" encoding="UTF-8" standalone="no"?>
<!DOCTYPE svg PUBLIC "-//W3C//DTD SVG 1.1//EN"
 "http://www.w3.org/Graphics/SVG/1.1/DTD/svg11.dtd">
<!-- Generated by graphviz version 2.28.0 (20110622.2320)
 -->
<!-- Title: G Pages: 1 -->
<svg width="2035pt" height="188pt"
 viewBox="0.00 0.00 2035.00 188.00" xmlns="http://www.w3.org/2000/svg" xmlns:xlink="http://www.w3.org/1999/xlink">
<g id="graph1" class="graph" transform="scale(1 1) rotate(0) translate(4 184)">
<title>G</title>
<polygon fill="white" stroke="white" points="-4,5 -4,-184 2032,-184 2032,5 -4,5"/>
<!-- c0 -->
<g id="node1" class="node"><title>c0</title>
<a xlink:href="0003674" xlink:title="GO:0003674 (4)">
<ellipse fill="#e98576" stroke="#e98576" cx="1365" cy="-162" rx="75.2018" ry="18"/>
<text text-anchor="middle" x="1365" y="-157.8" font-family="Times,serif" font-size="14.00">GO:0003674 (4)</text>
</a>
</g>
<!-- r0 -->
<g id="node3" class="node"><title>r0</title>
<a xlink:href="0005215" xlink:title="GO:0005215 (15)">
<ellipse fill="#e98576" stroke="#e98576" cx="597" cy="-90" rx="79.4447" ry="18"/>
<text text-anchor="middle" x="597" y="-85.8" font-family="Times,serif" font-size="14.00">GO:0005215 (15)</text>
</a>
</g>
<!-- c0&#45;&gt;r0 -->
<g id="edge2" class="edge"><title>c0&#45;&gt;r0</title>
<path fill="none" stroke="black" d="M1291.37,-157.93C1166.44,-152.123 905.148,-137.391 686,-108 678.628,-107.011 670.944,-105.808 663.313,-104.503"/>
<polygon fill="black" stroke="black" points="663.801,-101.035 653.344,-102.738 662.581,-107.928 663.801,-101.035"/>
</g>
<!-- f0 -->
<g id="node4" class="node"><title>f0</title>
<a xlink:href="0005488" xlink:title="GO:0005488">
<ellipse fill="#dddddd" stroke="#dddddd" cx="756" cy="-90" rx="61.1934" ry="18"/>
<text text-anchor="middle" x="756" y="-85.8" font-family="Times,serif" font-size="14.00">GO:0005488</text>
</a>
</g>
<!-- c0&#45;&gt;f0 -->
<g id="edge26" class="edge"><title>c0&#45;&gt;f0</title>
<path fill="none" stroke="black" d="M1298.96,-153.409C1181.94,-139.958 939.501,-112.092 822.298,-98.6205"/>
<polygon fill="black" stroke="black" points="822.37,-95.1057 812.035,-97.4408 821.57,-102.06 822.37,-95.1057"/>
</g>
<!-- i0 -->
<g id="node8" class="node"><title>i0</title>
<a xlink:href="0030234" xlink:title="GO:0030234 (2)">
<ellipse fill="#e98576" stroke="#e98576" cx="1288" cy="-90" rx="75.2018" ry="18"/>
<text text-anchor="middle" x="1288" y="-85.8" font-family="Times,serif" font-size="14.00">GO:0030234 (2)</text>
</a>
</g>
<!-- c0&#45;&gt;i0 -->
<g id="edge6" class="edge"><title>c0&#45;&gt;i0</title>
<path fill="none" stroke="black" d="M1346.75,-144.411C1336.88,-135.432 1324.51,-124.193 1313.68,-114.344"/>
<polygon fill="black" stroke="black" points="1315.87,-111.607 1306.12,-107.47 1311.16,-116.787 1315.87,-111.607"/>
</g>
<!-- b0 -->
<g id="node9" class="node"><title>b0</title>
<a xlink:href="0003824" xlink:title="GO:0003824">
<ellipse fill="#dddddd" stroke="#dddddd" cx="1443" cy="-90" rx="61.1934" ry="18"/>
<text text-anchor="middle" x="1443" y="-85.8" font-family="Times,serif" font-size="14.00">GO:0003824</text>
</a>
</g>
<!-- c0&#45;&gt;b0 -->
<g id="edge12" class="edge"><title>c0&#45;&gt;b0</title>
<path fill="none" stroke="black" d="M1383.48,-144.411C1393.56,-135.367 1406.2,-124.03 1417.23,-114.13"/>
<polygon fill="black" stroke="black" points="1419.81,-116.512 1424.92,-107.228 1415.14,-111.303 1419.81,-116.512"/>
</g>
<!-- d0 -->
<g id="node33" class="node"><title>d0</title>
<a xlink:href="0005198" xlink:title="GO:0005198 (1)">
<ellipse fill="#e98576" stroke="#e98576" cx="1598" cy="-90" rx="75.2018" ry="18"/>
<text text-anchor="middle" x="1598" y="-85.8" font-family="Times,serif" font-size="14.00">GO:0005198 (1)</text>
</a>
</g>
<!-- c0&#45;&gt;d0 -->
<g id="edge32" class="edge"><title>c0&#45;&gt;d0</title>
<path fill="none" stroke="black" d="M1409.92,-147.503C1448.04,-136.052 1502.85,-119.587 1543.47,-107.382"/>
<polygon fill="black" stroke="black" points="1544.64,-110.685 1553.21,-104.455 1542.63,-103.981 1544.64,-110.685"/>
</g>
<!-- g0 -->
<g id="node37" class="node"><title>g0</title>
<a xlink:href="0016209" xlink:title="GO:0016209 (1)">
<ellipse fill="#e98576" stroke="#e98576" cx="1766" cy="-90" rx="75.2018" ry="18"/>
<text text-anchor="middle" x="1766" y="-85.8" font-family="Times,serif" font-size="14.00">GO:0016209 (1)</text>
</a>
</g>
<!-- c0&#45;&gt;g0 -->
<g id="edge36" class="edge"><title>c0&#45;&gt;g0</title>
<path fill="none" stroke="black" d="M1425.88,-151.452C1489.78,-141.283 1593.11,-124.421 1682,-108 1688.15,-106.865 1694.53,-105.644 1700.92,-104.398"/>
<polygon fill="black" stroke="black" points="1701.79,-107.794 1710.93,-102.425 1700.44,-100.926 1701.79,-107.794"/>
</g>
<!-- s0 -->
<g id="node6" class="node"><title>s0</title>
<a xlink:href="0043167" xlink:title="GO:0043167 (19)">
<ellipse fill="#e98576" stroke="#e98576" cx="79" cy="-18" rx="79.4447" ry="18"/>
<text text-anchor="middle" x="79" y="-13.8" font-family="Times,serif" font-size="14.00">GO:0043167 (19)</text>
</a>
</g>
<!-- f0&#45;&gt;s0 -->
<g id="edge4" class="edge"><title>f0&#45;&gt;s0</title>
<path fill="none" stroke="black" d="M712.29,-77.3361C703.317,-75.2804 693.895,-73.365 685,-72 457.331,-37.0632 396.416,-65.6602 168,-36 160.624,-35.0422 152.937,-33.8584 145.305,-32.5646"/>
<polygon fill="black" stroke="black" points="145.79,-29.0962 135.335,-30.8102 144.577,-35.9903 145.79,-29.0962"/>
</g>
<!-- m0 -->
<g id="node18" class="node"><title>m0</title>
<a xlink:href="0001882" xlink:title="GO:0001882 (6)">
<ellipse fill="#e98576" stroke="#e98576" cx="252" cy="-18" rx="75.2018" ry="18"/>
<text text-anchor="middle" x="252" y="-13.8" font-family="Times,serif" font-size="14.00">GO:0001882 (6)</text>
</a>
</g>
<!-- f0&#45;&gt;m0 -->
<g id="edge16" class="edge"><title>f0&#45;&gt;m0</title>
<path fill="none" stroke="black" d="M711.874,-77.48C703.018,-75.4383 693.746,-73.4914 685,-72 531.285,-45.7877 490.154,-59.4931 336,-36 329.379,-34.9909 322.488,-33.811 315.629,-32.5517"/>
<polygon fill="black" stroke="black" points="316.112,-29.081 305.636,-30.6603 314.81,-35.9589 316.112,-29.081"/>
</g>
<!-- e0 -->
<g id="node20" class="node"><title>e0</title>
<a xlink:href="0005515" xlink:title="GO:0005515 (1)">
<ellipse fill="#e98576" stroke="#e98576" cx="420" cy="-18" rx="75.2018" ry="18"/>
<text text-anchor="middle" x="420" y="-13.8" font-family="Times,serif" font-size="14.00">GO:0005515 (1)</text>
</a>
</g>
<!-- f0&#45;&gt;e0 -->
<g id="edge18" class="edge"><title>f0&#45;&gt;e0</title>
<path fill="none" stroke="black" d="M710.609,-77.8555C702.112,-75.8479 693.295,-73.8174 685,-72 604.88,-54.4473 584.418,-52.1348 504,-36 497.969,-34.7899 491.695,-33.5272 485.413,-32.2606"/>
<polygon fill="black" stroke="black" points="486.066,-28.8218 475.571,-30.2739 484.681,-35.6834 486.066,-28.8218"/>
</g>
<!-- n0 -->
<g id="node22" class="node"><title>n0</title>
<a xlink:href="0008144" xlink:title="GO:0008144 (6)">
<ellipse fill="#e98576" stroke="#e98576" cx="588" cy="-18" rx="75.2018" ry="18"/>
<text text-anchor="middle" x="588" y="-13.8" font-family="Times,serif" font-size="14.00">GO:0008144 (6)</text>
</a>
</g>
<!-- f0&#45;&gt;n0 -->
<g id="edge20" class="edge"><title>f0&#45;&gt;n0</title>
<path fill="none" stroke="black" d="M722.003,-74.8345C696.444,-64.1851 661.175,-49.4897 633.235,-37.8481"/>
<polygon fill="black" stroke="black" points="634.263,-34.4847 623.686,-33.8693 631.571,-40.9463 634.263,-34.4847"/>
</g>
<!-- h0 -->
<g id="node24" class="node"><title>h0</title>
<a xlink:href="0019842" xlink:title="GO:0019842 (1)">
<ellipse fill="#e98576" stroke="#e98576" cx="756" cy="-18" rx="75.2018" ry="18"/>
<text text-anchor="middle" x="756" y="-13.8" font-family="Times,serif" font-size="14.00">GO:0019842 (1)</text>
</a>
</g>
<!-- f0&#45;&gt;h0 -->
<g id="edge22" class="edge"><title>f0&#45;&gt;h0</title>
<path fill="none" stroke="black" d="M756,-71.6966C756,-63.9827 756,-54.7125 756,-46.1124"/>
<polygon fill="black" stroke="black" points="759.5,-46.1043 756,-36.1043 752.5,-46.1044 759.5,-46.1043"/>
</g>
<!-- q0 -->
<g id="node29" class="node"><title>q0</title>
<a xlink:href="0000166" xlink:title="GO:0000166 (12)">
<ellipse fill="#e98576" stroke="#e98576" cx="929" cy="-18" rx="79.4447" ry="18"/>
<text text-anchor="middle" x="929" y="-13.8" font-family="Times,serif" font-size="14.00">GO:0000166 (12)</text>
</a>
</g>
<!-- f0&#45;&gt;q0 -->
<g id="edge28" class="edge"><title>f0&#45;&gt;q0</title>
<path fill="none" stroke="black" d="M790.593,-75.0027C816.993,-64.3206 853.63,-49.4967 882.578,-37.7835"/>
<polygon fill="black" stroke="black" points="884.117,-40.9363 892.075,-33.941 881.492,-34.4474 884.117,-40.9363"/>
</g>
<!-- j0 -->
<g id="node35" class="node"><title>j0</title>
<a xlink:href="0048037" xlink:title="GO:0048037 (2)">
<ellipse fill="#e98576" stroke="#e98576" cx="1102" cy="-18" rx="75.2018" ry="18"/>
<text text-anchor="middle" x="1102" y="-13.8" font-family="Times,serif" font-size="14.00">GO:0048037 (2)</text>
</a>
</g>
<!-- f0&#45;&gt;j0 -->
<g id="edge34" class="edge"><title>f0&#45;&gt;j0</title>
<path fill="none" stroke="black" d="M804.84,-79.1192C865.436,-66.8597 968.988,-45.9099 1036.45,-32.2614"/>
<polygon fill="black" stroke="black" points="1037.44,-35.6329 1046.54,-30.2194 1036.05,-28.7719 1037.44,-35.6329"/>
</g>
<!-- a0 -->
<g id="node11" class="node"><title>a0</title>
<a xlink:href="0016853" xlink:title="GO:0016853 (1)">
<ellipse fill="#e98576" stroke="#e98576" cx="1270" cy="-18" rx="75.2018" ry="18"/>
<text text-anchor="middle" x="1270" y="-13.8" font-family="Times,serif" font-size="14.00">GO:0016853 (1)</text>
</a>
</g>
<!-- b0&#45;&gt;a0 -->
<g id="edge8" class="edge"><title>b0&#45;&gt;a0</title>
<path fill="none" stroke="black" d="M1408.41,-75.0027C1381.92,-64.2848 1345.12,-49.3971 1316.13,-37.6657"/>
<polygon fill="black" stroke="black" points="1317.21,-34.3252 1306.62,-33.8188 1314.58,-40.8142 1317.21,-34.3252"/>
</g>
<!-- p0 -->
<g id="node13" class="node"><title>p0</title>
<a xlink:href="0016787" xlink:title="GO:0016787 (10)">
<ellipse fill="#e98576" stroke="#e98576" cx="1443" cy="-18" rx="79.4447" ry="18"/>
<text text-anchor="middle" x="1443" y="-13.8" font-family="Times,serif" font-size="14.00">GO:0016787 (10)</text>
</a>
</g>
<!-- b0&#45;&gt;p0 -->
<g id="edge10" class="edge"><title>b0&#45;&gt;p0</title>
<path fill="none" stroke="black" d="M1443,-71.6966C1443,-63.9827 1443,-54.7125 1443,-46.1124"/>
<polygon fill="black" stroke="black" points="1446.5,-46.1043 1443,-36.1043 1439.5,-46.1044 1446.5,-46.1043"/>
</g>
<!-- o0 -->
<g id="node16" class="node"><title>o0</title>
<a xlink:href="0016740" xlink:title="GO:0016740 (9)">
<ellipse fill="#e98576" stroke="#e98576" cx="1616" cy="-18" rx="75.2018" ry="18"/>
<text text-anchor="middle" x="1616" y="-13.8" font-family="Times,serif" font-size="14.00">GO:0016740 (9)</text>
</a>
</g>
<!-- b0&#45;&gt;o0 -->
<g id="edge14" class="edge"><title>b0&#45;&gt;o0</title>
<path fill="none" stroke="black" d="M1477.59,-75.0027C1504.08,-64.2848 1540.88,-49.3971 1569.87,-37.6657"/>
<polygon fill="black" stroke="black" points="1571.42,-40.8142 1579.38,-33.8188 1568.79,-34.3252 1571.42,-40.8142"/>
</g>
<!-- l0 -->
<g id="node26" class="node"><title>l0</title>
<a xlink:href="0016491" xlink:title="GO:0016491 (4)">
<ellipse fill="#e98576" stroke="#e98576" cx="1784" cy="-18" rx="75.2018" ry="18"/>
<text text-anchor="middle" x="1784" y="-13.8" font-family="Times,serif" font-size="14.00">GO:0016491 (4)</text>
</a>
</g>
<!-- b0&#45;&gt;l0 -->
<g id="edge24" class="edge"><title>b0&#45;&gt;l0</title>
<path fill="none" stroke="black" d="M1488.38,-77.8206C1496.88,-75.8163 1505.7,-73.796 1514,-72 1596.3,-54.1924 1617.4,-52.3512 1700,-36 1706.13,-34.7865 1712.51,-33.5135 1718.89,-32.2334"/>
<polygon fill="black" stroke="black" points="1719.77,-35.6261 1728.89,-30.2232 1718.39,-28.7634 1719.77,-35.6261"/>
</g>
<!-- k0 -->
<g id="node31" class="node"><title>k0</title>
<a xlink:href="0016829" xlink:title="GO:0016829 (4)">
<ellipse fill="#e98576" stroke="#e98576" cx="1952" cy="-18" rx="75.2018" ry="18"/>
<text text-anchor="middle" x="1952" y="-13.8" font-family="Times,serif" font-size="14.00">GO:0016829 (4)</text>
</a>
</g>
<!-- b0&#45;&gt;k0 -->
<g id="edge30" class="edge"><title>b0&#45;&gt;k0</title>
<path fill="none" stroke="black" d="M1487.12,-77.47C1495.98,-75.4291 1505.25,-73.4851 1514,-72 1669.91,-45.5285 1711.64,-59.7134 1868,-36 1874.62,-34.9957 1881.51,-33.8189 1888.37,-32.5614"/>
<polygon fill="black" stroke="black" points="1889.19,-35.9688 1898.37,-30.6719 1887.89,-29.0907 1889.19,-35.9688"/>
</g>
</g>
</svg>
