<?xml version="1.0" encoding="UTF-8" standalone="no"?>
<!DOCTYPE svg PUBLIC "-//W3C//DTD SVG 1.1//EN"
 "http://www.w3.org/Graphics/SVG/1.1/DTD/svg11.dtd">
<!-- Generated by graphviz version 2.28.0 (20110622.2320)
 -->
<!-- Title: G Pages: 1 -->
<svg width="1140pt" height="260pt"
 viewBox="0.00 0.00 1140.00 260.00" xmlns="http://www.w3.org/2000/svg" xmlns:xlink="http://www.w3.org/1999/xlink">
<g id="graph1" class="graph" transform="scale(1 1) rotate(0) translate(4 256)">
<title>G</title>
<polygon fill="white" stroke="white" points="-4,5 -4,-256 1137,-256 1137,5 -4,5"/>
<!-- j0 -->
<g id="node1" class="node"><title>j0</title>
<a xlink:href="0004871" xlink:title="GO:0004871 (1)">
<ellipse fill="#e98576" stroke="#e98576" cx="915" cy="-90" rx="75.2018" ry="18"/>
<text text-anchor="middle" x="915" y="-85.8" font-family="Times,serif" font-size="14.00">GO:0004871 (1)</text>
</a>
</g>
<!-- l0 -->
<g id="node3" class="node"><title>l0</title>
<a xlink:href="0004872" xlink:title="GO:0004872 (1)">
<ellipse fill="#e98576" stroke="#e98576" cx="915" cy="-18" rx="75.2018" ry="18"/>
<text text-anchor="middle" x="915" y="-13.8" font-family="Times,serif" font-size="14.00">GO:0004872 (1)</text>
</a>
</g>
<!-- j0&#45;&gt;l0 -->
<g id="edge2" class="edge"><title>j0&#45;&gt;l0</title>
<path fill="none" stroke="black" d="M915,-71.6966C915,-63.9827 915,-54.7125 915,-46.1124"/>
<polygon fill="black" stroke="black" points="918.5,-46.1043 915,-36.1043 911.5,-46.1044 918.5,-46.1043"/>
</g>
<!-- b0 -->
<g id="node4" class="node"><title>b0</title>
<a xlink:href="0005488" xlink:title="GO:0005488">
<ellipse fill="#dddddd" stroke="#dddddd" cx="411" cy="-162" rx="61.1934" ry="18"/>
<text text-anchor="middle" x="411" y="-157.8" font-family="Times,serif" font-size="14.00">GO:0005488</text>
</a>
</g>
<!-- d0 -->
<g id="node6" class="node"><title>d0</title>
<a xlink:href="0043167" xlink:title="GO:0043167 (2)">
<ellipse fill="#e98576" stroke="#e98576" cx="75" cy="-90" rx="75.2018" ry="18"/>
<text text-anchor="middle" x="75" y="-85.8" font-family="Times,serif" font-size="14.00">GO:0043167 (2)</text>
</a>
</g>
<!-- b0&#45;&gt;d0 -->
<g id="edge4" class="edge"><title>b0&#45;&gt;d0</title>
<path fill="none" stroke="black" d="M362.502,-150.896C303.849,-138.677 204.906,-118.064 139.77,-104.494"/>
<polygon fill="black" stroke="black" points="140.122,-100.992 129.618,-102.379 138.694,-107.845 140.122,-100.992"/>
</g>
<!-- g0 -->
<g id="node8" class="node"><title>g0</title>
<a xlink:href="0031406" xlink:title="GO:0031406 (1)">
<ellipse fill="#e98576" stroke="#e98576" cx="243" cy="-90" rx="75.2018" ry="18"/>
<text text-anchor="middle" x="243" y="-85.8" font-family="Times,serif" font-size="14.00">GO:0031406 (1)</text>
</a>
</g>
<!-- b0&#45;&gt;g0 -->
<g id="edge6" class="edge"><title>b0&#45;&gt;g0</title>
<path fill="none" stroke="black" d="M377.003,-146.834C351.444,-136.185 316.175,-121.49 288.235,-109.848"/>
<polygon fill="black" stroke="black" points="289.263,-106.485 278.686,-105.869 286.571,-112.946 289.263,-106.485"/>
</g>
<!-- f0 -->
<g id="node10" class="node"><title>f0</title>
<a xlink:href="0008289" xlink:title="GO:0008289 (1)">
<ellipse fill="#e98576" stroke="#e98576" cx="411" cy="-90" rx="75.2018" ry="18"/>
<text text-anchor="middle" x="411" y="-85.8" font-family="Times,serif" font-size="14.00">GO:0008289 (1)</text>
</a>
</g>
<!-- b0&#45;&gt;f0 -->
<g id="edge8" class="edge"><title>b0&#45;&gt;f0</title>
<path fill="none" stroke="black" d="M411,-143.697C411,-135.983 411,-126.712 411,-118.112"/>
<polygon fill="black" stroke="black" points="414.5,-118.104 411,-108.104 407.5,-118.104 414.5,-118.104"/>
</g>
<!-- a0 -->
<g id="node17" class="node"><title>a0</title>
<a xlink:href="0005515" xlink:title="GO:0005515 (3)">
<ellipse fill="#e98576" stroke="#e98576" cx="579" cy="-90" rx="75.2018" ry="18"/>
<text text-anchor="middle" x="579" y="-85.8" font-family="Times,serif" font-size="14.00">GO:0005515 (3)</text>
</a>
</g>
<!-- b0&#45;&gt;a0 -->
<g id="edge14" class="edge"><title>b0&#45;&gt;a0</title>
<path fill="none" stroke="black" d="M444.997,-146.834C470.556,-136.185 505.825,-121.49 533.765,-109.848"/>
<polygon fill="black" stroke="black" points="535.429,-112.946 543.314,-105.869 532.737,-106.485 535.429,-112.946"/>
</g>
<!-- i0 -->
<g id="node11" class="node"><title>i0</title>
<a xlink:href="0003824" xlink:title="GO:0003824 (1)">
<ellipse fill="#e98576" stroke="#e98576" cx="747" cy="-162" rx="75.2018" ry="18"/>
<text text-anchor="middle" x="747" y="-157.8" font-family="Times,serif" font-size="14.00">GO:0003824 (1)</text>
</a>
</g>
<!-- h0 -->
<g id="node13" class="node"><title>h0</title>
<a xlink:href="0016787" xlink:title="GO:0016787 (1)">
<ellipse fill="#e98576" stroke="#e98576" cx="747" cy="-90" rx="75.2018" ry="18"/>
<text text-anchor="middle" x="747" y="-85.8" font-family="Times,serif" font-size="14.00">GO:0016787 (1)</text>
</a>
</g>
<!-- i0&#45;&gt;h0 -->
<g id="edge10" class="edge"><title>i0&#45;&gt;h0</title>
<path fill="none" stroke="black" d="M747,-143.697C747,-135.983 747,-126.712 747,-118.112"/>
<polygon fill="black" stroke="black" points="750.5,-118.104 747,-108.104 743.5,-118.104 750.5,-118.104"/>
</g>
<!-- m0 -->
<g id="node24" class="node"><title>m0</title>
<a xlink:href="0008233" xlink:title="GO:0008233 (1)">
<ellipse fill="#e98576" stroke="#e98576" cx="747" cy="-18" rx="75.2018" ry="18"/>
<text text-anchor="middle" x="747" y="-13.8" font-family="Times,serif" font-size="14.00">GO:0008233 (1)</text>
</a>
</g>
<!-- h0&#45;&gt;m0 -->
<g id="edge22" class="edge"><title>h0&#45;&gt;m0</title>
<path fill="none" stroke="black" d="M747,-71.6966C747,-63.9827 747,-54.7125 747,-46.1124"/>
<polygon fill="black" stroke="black" points="750.5,-46.1043 747,-36.1043 743.5,-46.1044 750.5,-46.1043"/>
</g>
<!-- c0 -->
<g id="node14" class="node"><title>c0</title>
<a xlink:href="0003674" xlink:title="GO:0003674">
<ellipse fill="#dddddd" stroke="#dddddd" cx="824" cy="-234" rx="61.1934" ry="18"/>
<text text-anchor="middle" x="824" y="-229.8" font-family="Times,serif" font-size="14.00">GO:0003674</text>
</a>
</g>
<!-- c0&#45;&gt;b0 -->
<g id="edge16" class="edge"><title>c0&#45;&gt;b0</title>
<path fill="none" stroke="black" d="M772.111,-224.205C695.967,-211.299 554.197,-187.271 472.782,-173.471"/>
<polygon fill="black" stroke="black" points="473.121,-169.979 462.676,-171.759 471.951,-176.881 473.121,-169.979"/>
</g>
<!-- c0&#45;&gt;i0 -->
<g id="edge12" class="edge"><title>c0&#45;&gt;i0</title>
<path fill="none" stroke="black" d="M806.141,-216.765C796.274,-207.795 783.839,-196.49 772.921,-186.564"/>
<polygon fill="black" stroke="black" points="775.051,-183.77 765.297,-179.633 770.342,-188.95 775.051,-183.77"/>
</g>
<!-- k0 -->
<g id="node19" class="node"><title>k0</title>
<a xlink:href="0060089" xlink:title="GO:0060089">
<ellipse fill="#dddddd" stroke="#dddddd" cx="902" cy="-162" rx="61.1934" ry="18"/>
<text text-anchor="middle" x="902" y="-157.8" font-family="Times,serif" font-size="14.00">GO:0060089</text>
</a>
</g>
<!-- c0&#45;&gt;k0 -->
<g id="edge24" class="edge"><title>c0&#45;&gt;k0</title>
<path fill="none" stroke="black" d="M842.091,-216.765C852.158,-207.73 864.865,-196.326 875.983,-186.349"/>
<polygon fill="black" stroke="black" points="878.632,-188.674 883.737,-179.39 873.957,-183.464 878.632,-188.674"/>
</g>
<!-- e0 -->
<g id="node22" class="node"><title>e0</title>
<a xlink:href="0005198" xlink:title="GO:0005198 (2)">
<ellipse fill="#e98576" stroke="#e98576" cx="1057" cy="-162" rx="75.2018" ry="18"/>
<text text-anchor="middle" x="1057" y="-157.8" font-family="Times,serif" font-size="14.00">GO:0005198 (2)</text>
</a>
</g>
<!-- c0&#45;&gt;e0 -->
<g id="edge20" class="edge"><title>c0&#45;&gt;e0</title>
<path fill="none" stroke="black" d="M865.119,-220.647C903.218,-209.201 960.165,-192.092 1002.13,-179.485"/>
<polygon fill="black" stroke="black" points="1003.35,-182.774 1011.92,-176.544 1001.33,-176.07 1003.35,-182.774"/>
</g>
<!-- k0&#45;&gt;j0 -->
<g id="edge18" class="edge"><title>k0&#45;&gt;j0</title>
<path fill="none" stroke="black" d="M905.213,-143.697C906.646,-135.983 908.368,-126.712 909.965,-118.112"/>
<polygon fill="black" stroke="black" points="913.439,-118.575 911.823,-108.104 906.556,-117.297 913.439,-118.575"/>
</g>
</g>
</svg>
