<?xml version="1.0" encoding="UTF-8" standalone="no"?>
<!DOCTYPE svg PUBLIC "-//W3C//DTD SVG 1.1//EN"
 "http://www.w3.org/Graphics/SVG/1.1/DTD/svg11.dtd">
<!-- Generated by graphviz version 2.28.0 (20110622.2320)
 -->
<!-- Title: G Pages: 1 -->
<svg width="1113pt" height="404pt"
 viewBox="0.00 0.00 1113.00 404.00" xmlns="http://www.w3.org/2000/svg" xmlns:xlink="http://www.w3.org/1999/xlink">
<g id="graph1" class="graph" transform="scale(1 1) rotate(0) translate(4 400)">
<title>G</title>
<polygon fill="white" stroke="white" points="-4,5 -4,-400 1110,-400 1110,5 -4,5"/>
<!-- n0 -->
<g id="node1" class="node"><title>n0</title>
<a xlink:href="0004871" xlink:title="GO:0004871 (1)">
<ellipse fill="#e98576" stroke="#e98576" cx="1030" cy="-234" rx="75.2018" ry="18"/>
<text text-anchor="middle" x="1030" y="-229.8" font-family="Times,serif" font-size="14.00">GO:0004871 (1)</text>
</a>
</g>
<!-- p0 -->
<g id="node3" class="node"><title>p0</title>
<a xlink:href="0004872" xlink:title="GO:0004872 (1)">
<ellipse fill="#e98576" stroke="#e98576" cx="1030" cy="-162" rx="75.2018" ry="18"/>
<text text-anchor="middle" x="1030" y="-157.8" font-family="Times,serif" font-size="14.00">GO:0004872 (1)</text>
</a>
</g>
<!-- n0&#45;&gt;p0 -->
<g id="edge2" class="edge"><title>n0&#45;&gt;p0</title>
<path fill="none" stroke="black" d="M1030,-215.697C1030,-207.983 1030,-198.712 1030,-190.112"/>
<polygon fill="black" stroke="black" points="1033.5,-190.104 1030,-180.104 1026.5,-190.104 1033.5,-190.104"/>
</g>
<!-- b0 -->
<g id="node4" class="node"><title>b0</title>
<a xlink:href="0005488" xlink:title="GO:0005488">
<ellipse fill="#dddddd" stroke="#dddddd" cx="411" cy="-306" rx="61.1934" ry="18"/>
<text text-anchor="middle" x="411" y="-301.8" font-family="Times,serif" font-size="14.00">GO:0005488</text>
</a>
</g>
<!-- j0 -->
<g id="node6" class="node"><title>j0</title>
<a xlink:href="0043167" xlink:title="GO:0043167 (2)">
<ellipse fill="#e98576" stroke="#e98576" cx="75" cy="-234" rx="75.2018" ry="18"/>
<text text-anchor="middle" x="75" y="-229.8" font-family="Times,serif" font-size="14.00">GO:0043167 (2)</text>
</a>
</g>
<!-- b0&#45;&gt;j0 -->
<g id="edge4" class="edge"><title>b0&#45;&gt;j0</title>
<path fill="none" stroke="black" d="M362.502,-294.896C303.849,-282.677 204.906,-262.064 139.77,-248.494"/>
<polygon fill="black" stroke="black" points="140.122,-244.992 129.618,-246.379 138.694,-251.845 140.122,-244.992"/>
</g>
<!-- i0 -->
<g id="node21" class="node"><title>i0</title>
<a xlink:href="0005515" xlink:title="GO:0005515 (4)">
<ellipse fill="#e98576" stroke="#e98576" cx="243" cy="-234" rx="75.2018" ry="18"/>
<text text-anchor="middle" x="243" y="-229.8" font-family="Times,serif" font-size="14.00">GO:0005515 (4)</text>
</a>
</g>
<!-- b0&#45;&gt;i0 -->
<g id="edge16" class="edge"><title>b0&#45;&gt;i0</title>
<path fill="none" stroke="black" d="M377.003,-290.834C351.444,-280.185 316.175,-265.49 288.235,-253.848"/>
<polygon fill="black" stroke="black" points="289.263,-250.485 278.686,-249.869 286.571,-256.946 289.263,-250.485"/>
</g>
<!-- a0 -->
<g id="node24" class="node"><title>a0</title>
<a xlink:href="0003676" xlink:title="GO:0003676 (6)">
<ellipse fill="#e98576" stroke="#e98576" cx="411" cy="-234" rx="75.2018" ry="18"/>
<text text-anchor="middle" x="411" y="-229.8" font-family="Times,serif" font-size="14.00">GO:0003676 (6)</text>
</a>
</g>
<!-- b0&#45;&gt;a0 -->
<g id="edge20" class="edge"><title>b0&#45;&gt;a0</title>
<path fill="none" stroke="black" d="M411,-287.697C411,-279.983 411,-270.712 411,-262.112"/>
<polygon fill="black" stroke="black" points="414.5,-262.104 411,-252.104 407.5,-262.104 414.5,-262.104"/>
</g>
<!-- m0 -->
<g id="node30" class="node"><title>m0</title>
<a xlink:href="0003682" xlink:title="GO:0003682 (1)">
<ellipse fill="#e98576" stroke="#e98576" cx="579" cy="-234" rx="75.2018" ry="18"/>
<text text-anchor="middle" x="579" y="-229.8" font-family="Times,serif" font-size="14.00">GO:0003682 (1)</text>
</a>
</g>
<!-- b0&#45;&gt;m0 -->
<g id="edge28" class="edge"><title>b0&#45;&gt;m0</title>
<path fill="none" stroke="black" d="M444.997,-290.834C470.556,-280.185 505.825,-265.49 533.765,-253.848"/>
<polygon fill="black" stroke="black" points="535.429,-256.946 543.314,-249.869 532.737,-250.485 535.429,-256.946"/>
</g>
<!-- l0 -->
<g id="node7" class="node"><title>l0</title>
<a xlink:href="0016491" xlink:title="GO:0016491">
<ellipse fill="#dddddd" stroke="#dddddd" cx="734" cy="-234" rx="61.1934" ry="18"/>
<text text-anchor="middle" x="734" y="-229.8" font-family="Times,serif" font-size="14.00">GO:0016491</text>
</a>
</g>
<!-- k0 -->
<g id="node9" class="node"><title>k0</title>
<a xlink:href="0051213" xlink:title="GO:0051213 (1)">
<ellipse fill="#e98576" stroke="#e98576" cx="720" cy="-162" rx="75.2018" ry="18"/>
<text text-anchor="middle" x="720" y="-157.8" font-family="Times,serif" font-size="14.00">GO:0051213 (1)</text>
</a>
</g>
<!-- l0&#45;&gt;k0 -->
<g id="edge6" class="edge"><title>l0&#45;&gt;k0</title>
<path fill="none" stroke="black" d="M730.539,-215.697C728.997,-207.983 727.142,-198.712 725.422,-190.112"/>
<polygon fill="black" stroke="black" points="728.814,-189.224 723.421,-180.104 721.95,-190.597 728.814,-189.224"/>
</g>
<!-- g0 -->
<g id="node10" class="node"><title>g0</title>
<a xlink:href="0016874" xlink:title="GO:0016874">
<ellipse fill="#dddddd" stroke="#dddddd" cx="875" cy="-234" rx="61.1934" ry="18"/>
<text text-anchor="middle" x="875" y="-229.8" font-family="Times,serif" font-size="14.00">GO:0016874</text>
</a>
</g>
<!-- f0 -->
<g id="node12" class="node"><title>f0</title>
<a xlink:href="0016879" xlink:title="GO:0016879">
<ellipse fill="#dddddd" stroke="#dddddd" cx="875" cy="-162" rx="61.1934" ry="18"/>
<text text-anchor="middle" x="875" y="-157.8" font-family="Times,serif" font-size="14.00">GO:0016879</text>
</a>
</g>
<!-- g0&#45;&gt;f0 -->
<g id="edge8" class="edge"><title>g0&#45;&gt;f0</title>
<path fill="none" stroke="black" d="M875,-215.697C875,-207.983 875,-198.712 875,-190.112"/>
<polygon fill="black" stroke="black" points="878.5,-190.104 875,-180.104 871.5,-190.104 878.5,-190.104"/>
</g>
<!-- e0 -->
<g id="node13" class="node"><title>e0</title>
<a xlink:href="0016881" xlink:title="GO:0016881">
<ellipse fill="#dddddd" stroke="#dddddd" cx="875" cy="-90" rx="61.1934" ry="18"/>
<text text-anchor="middle" x="875" y="-85.8" font-family="Times,serif" font-size="14.00">GO:0016881</text>
</a>
</g>
<!-- f0&#45;&gt;e0 -->
<g id="edge14" class="edge"><title>f0&#45;&gt;e0</title>
<path fill="none" stroke="black" d="M875,-143.697C875,-135.983 875,-126.712 875,-118.112"/>
<polygon fill="black" stroke="black" points="878.5,-118.104 875,-108.104 871.5,-118.104 878.5,-118.104"/>
</g>
<!-- d0 -->
<g id="node15" class="node"><title>d0</title>
<a xlink:href="0019787" xlink:title="GO:0019787 (6)">
<ellipse fill="#e98576" stroke="#e98576" cx="875" cy="-18" rx="75.2018" ry="18"/>
<text text-anchor="middle" x="875" y="-13.8" font-family="Times,serif" font-size="14.00">GO:0019787 (6)</text>
</a>
</g>
<!-- e0&#45;&gt;d0 -->
<g id="edge10" class="edge"><title>e0&#45;&gt;d0</title>
<path fill="none" stroke="black" d="M875,-71.6966C875,-63.9827 875,-54.7125 875,-46.1124"/>
<polygon fill="black" stroke="black" points="878.5,-46.1043 875,-36.1043 871.5,-46.1044 878.5,-46.1043"/>
</g>
<!-- c0 -->
<g id="node16" class="node"><title>c0</title>
<a xlink:href="0003674" xlink:title="GO:0003674 (6)">
<ellipse fill="#e98576" stroke="#e98576" cx="773" cy="-378" rx="75.2018" ry="18"/>
<text text-anchor="middle" x="773" y="-373.8" font-family="Times,serif" font-size="14.00">GO:0003674 (6)</text>
</a>
</g>
<!-- c0&#45;&gt;b0 -->
<g id="edge24" class="edge"><title>c0&#45;&gt;b0</title>
<path fill="none" stroke="black" d="M716.438,-366.062C649.67,-353.152 539.117,-331.774 470.921,-318.587"/>
<polygon fill="black" stroke="black" points="471.248,-315.085 460.765,-316.623 469.918,-321.958 471.248,-315.085"/>
</g>
<!-- h0 -->
<g id="node18" class="node"><title>h0</title>
<a xlink:href="0003824" xlink:title="GO:0003824">
<ellipse fill="#dddddd" stroke="#dddddd" cx="773" cy="-306" rx="61.1934" ry="18"/>
<text text-anchor="middle" x="773" y="-301.8" font-family="Times,serif" font-size="14.00">GO:0003824</text>
</a>
</g>
<!-- c0&#45;&gt;h0 -->
<g id="edge12" class="edge"><title>c0&#45;&gt;h0</title>
<path fill="none" stroke="black" d="M773,-359.697C773,-351.983 773,-342.712 773,-334.112"/>
<polygon fill="black" stroke="black" points="776.5,-334.104 773,-324.104 769.5,-334.104 776.5,-334.104"/>
</g>
<!-- o0 -->
<g id="node27" class="node"><title>o0</title>
<a xlink:href="0060089" xlink:title="GO:0060089">
<ellipse fill="#dddddd" stroke="#dddddd" cx="991" cy="-306" rx="61.1934" ry="18"/>
<text text-anchor="middle" x="991" y="-301.8" font-family="Times,serif" font-size="14.00">GO:0060089</text>
</a>
</g>
<!-- c0&#45;&gt;o0 -->
<g id="edge30" class="edge"><title>c0&#45;&gt;o0</title>
<path fill="none" stroke="black" d="M816.07,-363.17C852.178,-351.576 903.749,-335.016 941.542,-322.881"/>
<polygon fill="black" stroke="black" points="942.871,-326.13 951.322,-319.741 940.731,-319.465 942.871,-326.13"/>
</g>
<!-- h0&#45;&gt;l0 -->
<g id="edge22" class="edge"><title>h0&#45;&gt;l0</title>
<path fill="none" stroke="black" d="M763.559,-288.055C758.96,-279.801 753.334,-269.701 748.228,-260.538"/>
<polygon fill="black" stroke="black" points="751.278,-258.821 743.354,-251.789 745.163,-262.228 751.278,-258.821"/>
</g>
<!-- h0&#45;&gt;g0 -->
<g id="edge18" class="edge"><title>h0&#45;&gt;g0</title>
<path fill="none" stroke="black" d="M795.891,-289.291C809.835,-279.721 827.857,-267.353 843.176,-256.84"/>
<polygon fill="black" stroke="black" points="845.568,-259.443 851.833,-250.899 841.607,-253.672 845.568,-259.443"/>
</g>
<!-- o0&#45;&gt;n0 -->
<g id="edge26" class="edge"><title>o0&#45;&gt;n0</title>
<path fill="none" stroke="black" d="M1000.44,-288.055C1004.92,-280.007 1010.39,-270.205 1015.39,-261.226"/>
<polygon fill="black" stroke="black" points="1018.57,-262.714 1020.38,-252.275 1012.45,-259.308 1018.57,-262.714"/>
</g>
</g>
</svg>
