<?xml version="1.0" encoding="UTF-8" standalone="no"?>
<!DOCTYPE svg PUBLIC "-//W3C//DTD SVG 1.1//EN"
 "http://www.w3.org/Graphics/SVG/1.1/DTD/svg11.dtd">
<!-- Generated by graphviz version 2.28.0 (20110622.2320)
 -->
<!-- Title: G Pages: 1 -->
<svg width="326pt" height="188pt"
 viewBox="0.00 0.00 326.00 188.00" xmlns="http://www.w3.org/2000/svg" xmlns:xlink="http://www.w3.org/1999/xlink">
<g id="graph1" class="graph" transform="scale(1 1) rotate(0) translate(4 184)">
<title>G</title>
<polygon fill="white" stroke="white" points="-4,5 -4,-184 323,-184 323,5 -4,5"/>
<!-- c0 -->
<g id="node1" class="node"><title>c0</title>
<a xlink:href="0005488" xlink:title="GO:0005488">
<ellipse fill="#dddddd" stroke="#dddddd" cx="159" cy="-90" rx="61.1934" ry="18"/>
<text text-anchor="middle" x="159" y="-85.8" font-family="Times,serif" font-size="14.00">GO:0005488</text>
</a>
</g>
<!-- b0 -->
<g id="node3" class="node"><title>b0</title>
<a xlink:href="0043167" xlink:title="GO:0043167 (3)">
<ellipse fill="#e98576" stroke="#e98576" cx="75" cy="-18" rx="75.2018" ry="18"/>
<text text-anchor="middle" x="75" y="-13.8" font-family="Times,serif" font-size="14.00">GO:0043167 (3)</text>
</a>
</g>
<!-- c0&#45;&gt;b0 -->
<g id="edge2" class="edge"><title>c0&#45;&gt;b0</title>
<path fill="none" stroke="black" d="M139.518,-72.7646C128.57,-63.642 114.725,-52.1046 102.67,-42.0585"/>
<polygon fill="black" stroke="black" points="104.591,-39.1029 94.6677,-35.3898 100.109,-44.4805 104.591,-39.1029"/>
</g>
<!-- d0 -->
<g id="node7" class="node"><title>d0</title>
<a xlink:href="0005515" xlink:title="GO:0005515 (3)">
<ellipse fill="#e98576" stroke="#e98576" cx="243" cy="-18" rx="75.2018" ry="18"/>
<text text-anchor="middle" x="243" y="-13.8" font-family="Times,serif" font-size="14.00">GO:0005515 (3)</text>
</a>
</g>
<!-- c0&#45;&gt;d0 -->
<g id="edge6" class="edge"><title>c0&#45;&gt;d0</title>
<path fill="none" stroke="black" d="M178.482,-72.7646C189.43,-63.642 203.275,-52.1046 215.33,-42.0585"/>
<polygon fill="black" stroke="black" points="217.891,-44.4805 223.332,-35.3898 213.409,-39.1029 217.891,-44.4805"/>
</g>
<!-- a0 -->
<g id="node4" class="node"><title>a0</title>
<a xlink:href="0003674" xlink:title="GO:0003674 (6)">
<ellipse fill="#e98576" stroke="#e98576" cx="159" cy="-162" rx="75.2018" ry="18"/>
<text text-anchor="middle" x="159" y="-157.8" font-family="Times,serif" font-size="14.00">GO:0003674 (6)</text>
</a>
</g>
<!-- a0&#45;&gt;c0 -->
<g id="edge4" class="edge"><title>a0&#45;&gt;c0</title>
<path fill="none" stroke="black" d="M159,-143.697C159,-135.983 159,-126.712 159,-118.112"/>
<polygon fill="black" stroke="black" points="162.5,-118.104 159,-108.104 155.5,-118.104 162.5,-118.104"/>
</g>
</g>
</svg>
