<?xml version="1.0" encoding="UTF-8" standalone="no"?>
<!DOCTYPE svg PUBLIC "-//W3C//DTD SVG 1.1//EN"
 "http://www.w3.org/Graphics/SVG/1.1/DTD/svg11.dtd">
<!-- Generated by graphviz version 2.28.0 (20110622.2320)
 -->
<!-- Title: G Pages: 1 -->
<svg width="4926pt" height="260pt"
 viewBox="0.00 0.00 4926.00 260.00" xmlns="http://www.w3.org/2000/svg" xmlns:xlink="http://www.w3.org/1999/xlink">
<g id="graph1" class="graph" transform="scale(1 1) rotate(0) translate(4 256)">
<title>G</title>
<polygon fill="white" stroke="white" points="-4,5 -4,-256 4923,-256 4923,5 -4,5"/>
<!-- c0 -->
<g id="node1" class="node"><title>c0</title>
<a xlink:href="0003674" xlink:title="GO:0003674 (12)">
<ellipse fill="#e98576" stroke="#e98576" cx="3315" cy="-234" rx="79.4447" ry="18"/>
<text text-anchor="middle" x="3315" y="-229.8" font-family="Times,serif" font-size="14.00">GO:0003674 (12)</text>
</a>
</g>
<!-- e1 -->
<g id="node3" class="node"><title>e1</title>
<a xlink:href="0030234" xlink:title="GO:0030234 (6)">
<ellipse fill="#e98576" stroke="#e98576" cx="806" cy="-162" rx="75.2018" ry="18"/>
<text text-anchor="middle" x="806" y="-157.8" font-family="Times,serif" font-size="14.00">GO:0030234 (6)</text>
</a>
</g>
<!-- c0&#45;&gt;e1 -->
<g id="edge2" class="edge"><title>c0&#45;&gt;e1</title>
<path fill="none" stroke="black" d="M3235.53,-233.163C2871.39,-233.619 1359.93,-232.267 890,-180 882.883,-179.208 875.474,-178.114 868.133,-176.858"/>
<polygon fill="black" stroke="black" points="868.663,-173.397 858.2,-175.059 867.416,-180.285 868.663,-173.397"/>
</g>
<!-- f0 -->
<g id="node4" class="node"><title>f0</title>
<a xlink:href="0003824" xlink:title="GO:0003824 (20)">
<ellipse fill="#e98576" stroke="#e98576" cx="979" cy="-162" rx="79.4447" ry="18"/>
<text text-anchor="middle" x="979" y="-157.8" font-family="Times,serif" font-size="14.00">GO:0003824 (20)</text>
</a>
</g>
<!-- c0&#45;&gt;f0 -->
<g id="edge54" class="edge"><title>c0&#45;&gt;f0</title>
<path fill="none" stroke="black" d="M3236.61,-230.651C2883.36,-220.066 1440.57,-176.831 1067.43,-165.65"/>
<polygon fill="black" stroke="black" points="1067.33,-162.145 1057.23,-165.344 1067.12,-169.142 1067.33,-162.145"/>
</g>
<!-- b0 -->
<g id="node7" class="node"><title>b0</title>
<a xlink:href="0005488" xlink:title="GO:0005488 (2)">
<ellipse fill="#e98576" stroke="#e98576" cx="3053" cy="-162" rx="75.2018" ry="18"/>
<text text-anchor="middle" x="3053" y="-157.8" font-family="Times,serif" font-size="14.00">GO:0005488 (2)</text>
</a>
</g>
<!-- c0&#45;&gt;b0 -->
<g id="edge14" class="edge"><title>c0&#45;&gt;b0</title>
<path fill="none" stroke="black" d="M3265.72,-219.834C3221.8,-208.1 3157.49,-190.917 3111.08,-178.519"/>
<polygon fill="black" stroke="black" points="3111.74,-175.071 3101.17,-175.871 3109.93,-181.834 3111.74,-175.071"/>
</g>
<!-- m0 -->
<g id="node26" class="node"><title>m0</title>
<a xlink:href="0005215" xlink:title="GO:0005215 (71)">
<ellipse fill="#e98576" stroke="#e98576" cx="3226" cy="-162" rx="79.4447" ry="18"/>
<text text-anchor="middle" x="3226" y="-157.8" font-family="Times,serif" font-size="14.00">GO:0005215 (71)</text>
</a>
</g>
<!-- c0&#45;&gt;m0 -->
<g id="edge22" class="edge"><title>c0&#45;&gt;m0</title>
<path fill="none" stroke="black" d="M3293.91,-216.411C3282.27,-207.257 3267.65,-195.755 3254.95,-185.772"/>
<polygon fill="black" stroke="black" points="3256.96,-182.901 3246.94,-179.47 3252.64,-188.403 3256.96,-182.901"/>
</g>
<!-- q0 -->
<g id="node44" class="node"><title>q0</title>
<a xlink:href="0005198" xlink:title="GO:0005198 (46)">
<ellipse fill="#e98576" stroke="#e98576" cx="3404" cy="-162" rx="79.4447" ry="18"/>
<text text-anchor="middle" x="3404" y="-157.8" font-family="Times,serif" font-size="14.00">GO:0005198 (46)</text>
</a>
</g>
<!-- c0&#45;&gt;q0 -->
<g id="edge42" class="edge"><title>c0&#45;&gt;q0</title>
<path fill="none" stroke="black" d="M3336.09,-216.411C3347.73,-207.257 3362.35,-195.755 3375.05,-185.772"/>
<polygon fill="black" stroke="black" points="3377.36,-188.403 3383.06,-179.47 3373.04,-182.901 3377.36,-188.403"/>
</g>
<!-- w0 -->
<g id="node61" class="node"><title>w0</title>
<a xlink:href="0060089" xlink:title="GO:0060089">
<ellipse fill="#dddddd" stroke="#dddddd" cx="3563" cy="-162" rx="61.1934" ry="18"/>
<text text-anchor="middle" x="3563" y="-157.8" font-family="Times,serif" font-size="14.00">GO:0060089</text>
</a>
</g>
<!-- c0&#45;&gt;w0 -->
<g id="edge86" class="edge"><title>c0&#45;&gt;w0</title>
<path fill="none" stroke="black" d="M3362.82,-219.503C3405.13,-207.561 3466.75,-190.166 3510.43,-177.837"/>
<polygon fill="black" stroke="black" points="3511.62,-181.138 3520.3,-175.053 3509.72,-174.401 3511.62,-181.138"/>
</g>
<!-- p1 -->
<g id="node67" class="node"><title>p1</title>
<a xlink:href="0003774" xlink:title="GO:0003774 (1)">
<ellipse fill="#e98576" stroke="#e98576" cx="3718" cy="-162" rx="75.2018" ry="18"/>
<text text-anchor="middle" x="3718" y="-157.8" font-family="Times,serif" font-size="14.00">GO:0003774 (1)</text>
</a>
</g>
<!-- c0&#45;&gt;p1 -->
<g id="edge64" class="edge"><title>c0&#45;&gt;p1</title>
<path fill="none" stroke="black" d="M3378.46,-223.041C3442.72,-212.811 3544.92,-196.144 3633,-180 3639.31,-178.843 3645.88,-177.599 3652.45,-176.33"/>
<polygon fill="black" stroke="black" points="3653.58,-179.675 3662.72,-174.324 3652.24,-172.805 3653.58,-179.675"/>
</g>
<!-- a1 -->
<g id="node72" class="node"><title>a1</title>
<a xlink:href="0016209" xlink:title="GO:0016209 (13)">
<ellipse fill="#e98576" stroke="#e98576" cx="3891" cy="-162" rx="79.4447" ry="18"/>
<text text-anchor="middle" x="3891" y="-157.8" font-family="Times,serif" font-size="14.00">GO:0016209 (13)</text>
</a>
</g>
<!-- c0&#45;&gt;a1 -->
<g id="edge70" class="edge"><title>c0&#45;&gt;a1</title>
<path fill="none" stroke="black" d="M3388.25,-226.876C3483.76,-218.47 3655.86,-201.874 3802,-180 3809.06,-178.943 3816.41,-177.727 3823.73,-176.441"/>
<polygon fill="black" stroke="black" points="3824.44,-179.87 3833.66,-174.653 3823.2,-172.981 3824.44,-179.87"/>
</g>
<!-- p0 -->
<g id="node6" class="node"><title>p0</title>
<a xlink:href="0016853" xlink:title="GO:0016853 (53)">
<ellipse fill="#e98576" stroke="#e98576" cx="79" cy="-90" rx="79.4447" ry="18"/>
<text text-anchor="middle" x="79" y="-85.8" font-family="Times,serif" font-size="14.00">GO:0016853 (53)</text>
</a>
</g>
<!-- f0&#45;&gt;p0 -->
<g id="edge4" class="edge"><title>f0&#45;&gt;p0</title>
<path fill="none" stroke="black" d="M923.163,-149.107C912.21,-147.122 900.777,-145.292 890,-144 570.995,-105.768 487.005,-146.232 168,-108 160.422,-107.092 152.52,-105.917 144.689,-104.61"/>
<polygon fill="black" stroke="black" points="145.29,-101.162 134.837,-102.893 144.088,-108.058 145.29,-101.162"/>
</g>
<!-- h0 -->
<g id="node17" class="node"><title>h0</title>
<a xlink:href="0016787" xlink:title="GO:0016787 (157)">
<ellipse fill="#e98576" stroke="#e98576" cx="262" cy="-90" rx="84.1886" ry="18"/>
<text text-anchor="middle" x="262" y="-85.8" font-family="Times,serif" font-size="14.00">GO:0016787 (157)</text>
</a>
</g>
<!-- f0&#45;&gt;h0 -->
<g id="edge28" class="edge"><title>f0&#45;&gt;h0</title>
<path fill="none" stroke="black" d="M922.668,-149.171C911.862,-147.205 900.609,-145.366 890,-144 654.075,-113.629 592.072,-137.212 356,-108 348.043,-107.015 339.739,-105.796 331.503,-104.467"/>
<polygon fill="black" stroke="black" points="331.959,-100.994 321.519,-102.798 330.805,-107.899 331.959,-100.994"/>
</g>
<!-- j0 -->
<g id="node20" class="node"><title>j0</title>
<a xlink:href="0016491" xlink:title="GO:0016491 (144)">
<ellipse fill="#e98576" stroke="#e98576" cx="450" cy="-90" rx="84.1886" ry="18"/>
<text text-anchor="middle" x="450" y="-85.8" font-family="Times,serif" font-size="14.00">GO:0016491 (144)</text>
</a>
</g>
<!-- f0&#45;&gt;j0 -->
<g id="edge36" class="edge"><title>f0&#45;&gt;j0</title>
<path fill="none" stroke="black" d="M922.148,-149.395C911.493,-147.432 900.427,-145.535 890,-144 737.042,-121.476 697.067,-129.773 544,-108 536.323,-106.908 528.314,-105.648 520.351,-104.317"/>
<polygon fill="black" stroke="black" points="520.765,-100.837 510.318,-102.602 519.585,-107.737 520.765,-100.837"/>
</g>
<!-- h1 -->
<g id="node24" class="node"><title>h1</title>
<a xlink:href="0019239" xlink:title="GO:0019239 (5)">
<ellipse fill="#e98576" stroke="#e98576" cx="628" cy="-90" rx="75.2018" ry="18"/>
<text text-anchor="middle" x="628" y="-85.8" font-family="Times,serif" font-size="14.00">GO:0019239 (5)</text>
</a>
</g>
<!-- f0&#45;&gt;h1 -->
<g id="edge20" class="edge"><title>f0&#45;&gt;h1</title>
<path fill="none" stroke="black" d="M921.175,-149.586C867.086,-138.895 784.054,-122.443 712,-108 705.968,-106.791 699.694,-105.529 693.413,-104.263"/>
<polygon fill="black" stroke="black" points="694.065,-100.824 683.57,-102.277 692.681,-107.686 694.065,-100.824"/>
</g>
<!-- n0 -->
<g id="node35" class="node"><title>n0</title>
<a xlink:href="0016874" xlink:title="GO:0016874 (65)">
<ellipse fill="#e98576" stroke="#e98576" cx="801" cy="-90" rx="79.4447" ry="18"/>
<text text-anchor="middle" x="801" y="-85.8" font-family="Times,serif" font-size="14.00">GO:0016874 (65)</text>
</a>
</g>
<!-- f0&#45;&gt;n0 -->
<g id="edge32" class="edge"><title>f0&#45;&gt;n0</title>
<path fill="none" stroke="black" d="M941.251,-146.155C914.203,-135.518 877.576,-121.114 848.534,-109.693"/>
<polygon fill="black" stroke="black" points="849.588,-106.347 839.001,-105.944 847.027,-112.861 849.588,-106.347"/>
</g>
<!-- b1 -->
<g id="node42" class="node"><title>b1</title>
<a xlink:href="0004386" xlink:title="GO:0004386 (10)">
<ellipse fill="#e98576" stroke="#e98576" cx="979" cy="-90" rx="79.4447" ry="18"/>
<text text-anchor="middle" x="979" y="-85.8" font-family="Times,serif" font-size="14.00">GO:0004386 (10)</text>
</a>
</g>
<!-- f0&#45;&gt;b1 -->
<g id="edge40" class="edge"><title>f0&#45;&gt;b1</title>
<path fill="none" stroke="black" d="M979,-143.697C979,-135.983 979,-126.712 979,-118.112"/>
<polygon fill="black" stroke="black" points="982.5,-118.104 979,-108.104 975.5,-118.104 982.5,-118.104"/>
</g>
<!-- k1 -->
<g id="node46" class="node"><title>k1</title>
<a xlink:href="0004133" xlink:title="GO:0004133 (1)">
<ellipse fill="#e98576" stroke="#e98576" cx="1152" cy="-90" rx="75.2018" ry="18"/>
<text text-anchor="middle" x="1152" y="-85.8" font-family="Times,serif" font-size="14.00">GO:0004133 (1)</text>
</a>
</g>
<!-- f0&#45;&gt;k1 -->
<g id="edge44" class="edge"><title>f0&#45;&gt;k1</title>
<path fill="none" stroke="black" d="M1016.11,-145.983C1042.4,-135.346 1077.84,-121.006 1105.94,-109.638"/>
<polygon fill="black" stroke="black" points="1107.59,-112.747 1115.54,-105.752 1104.96,-106.258 1107.59,-112.747"/>
</g>
<!-- e0 -->
<g id="node78" class="node"><title>e0</title>
<a xlink:href="0016740" xlink:title="GO:0016740 (222)">
<ellipse fill="#e98576" stroke="#e98576" cx="1330" cy="-90" rx="84.1886" ry="18"/>
<text text-anchor="middle" x="1330" y="-85.8" font-family="Times,serif" font-size="14.00">GO:0016740 (222)</text>
</a>
</g>
<!-- f0&#45;&gt;e0 -->
<g id="edge76" class="edge"><title>f0&#45;&gt;e0</title>
<path fill="none" stroke="black" d="M1036.57,-149.519C1097.98,-137.271 1195.27,-117.87 1260.81,-104.799"/>
<polygon fill="black" stroke="black" points="1261.52,-108.226 1270.64,-102.838 1260.15,-101.361 1261.52,-108.226"/>
</g>
<!-- o0 -->
<g id="node84" class="node"><title>o0</title>
<a xlink:href="0016829" xlink:title="GO:0016829 (54)">
<ellipse fill="#e98576" stroke="#e98576" cx="1513" cy="-90" rx="79.4447" ry="18"/>
<text text-anchor="middle" x="1513" y="-85.8" font-family="Times,serif" font-size="14.00">GO:0016829 (54)</text>
</a>
</g>
<!-- f0&#45;&gt;o0 -->
<g id="edge82" class="edge"><title>f0&#45;&gt;o0</title>
<path fill="none" stroke="black" d="M1050.33,-153.992C1138.22,-145.011 1291.99,-128.169 1423,-108 1430.32,-106.873 1437.96,-105.593 1445.55,-104.253"/>
<polygon fill="black" stroke="black" points="1446.26,-107.682 1455.49,-102.465 1445.02,-100.793 1446.26,-107.682"/>
</g>
<!-- r1 -->
<g id="node9" class="node"><title>r1</title>
<a xlink:href="0019825" xlink:title="GO:0019825 (1)">
<ellipse fill="#e98576" stroke="#e98576" cx="1686" cy="-90" rx="75.2018" ry="18"/>
<text text-anchor="middle" x="1686" y="-85.8" font-family="Times,serif" font-size="14.00">GO:0019825 (1)</text>
</a>
</g>
<!-- b0&#45;&gt;r1 -->
<g id="edge6" class="edge"><title>b0&#45;&gt;r1</title>
<path fill="none" stroke="black" d="M2978.61,-159.477C2741.67,-154.381 2006.39,-136.621 1770,-108 1763.15,-107.171 1756.03,-106.085 1748.96,-104.861"/>
<polygon fill="black" stroke="black" points="1749.13,-101.336 1738.67,-102.985 1747.88,-108.222 1749.13,-101.336"/>
</g>
<!-- d1 -->
<g id="node11" class="node"><title>d1</title>
<a xlink:href="0033218" xlink:title="GO:0033218 (7)">
<ellipse fill="#e98576" stroke="#e98576" cx="1854" cy="-90" rx="75.2018" ry="18"/>
<text text-anchor="middle" x="1854" y="-85.8" font-family="Times,serif" font-size="14.00">GO:0033218 (7)</text>
</a>
</g>
<!-- b0&#45;&gt;d1 -->
<g id="edge8" class="edge"><title>b0&#45;&gt;d1</title>
<path fill="none" stroke="black" d="M2977.96,-161.362C2797.85,-161.377 2327.2,-156.348 1938,-108 1931.15,-107.15 1924.03,-106.05 1916.96,-104.819"/>
<polygon fill="black" stroke="black" points="1917.14,-101.293 1906.67,-102.935 1915.88,-108.179 1917.14,-101.293"/>
</g>
<!-- t0 -->
<g id="node13" class="node"><title>t0</title>
<a xlink:href="0005515" xlink:title="GO:0005515 (23)">
<ellipse fill="#e98576" stroke="#e98576" cx="2027" cy="-90" rx="79.4447" ry="18"/>
<text text-anchor="middle" x="2027" y="-85.8" font-family="Times,serif" font-size="14.00">GO:0005515 (23)</text>
</a>
</g>
<!-- b0&#45;&gt;t0 -->
<g id="edge10" class="edge"><title>b0&#45;&gt;t0</title>
<path fill="none" stroke="black" d="M2978.3,-160.123C2819.17,-157.521 2435.18,-147.335 2116,-108 2108.43,-107.067 2100.53,-105.876 2092.7,-104.56"/>
<polygon fill="black" stroke="black" points="2093.3,-101.113 2082.84,-102.836 2092.09,-108.008 2093.3,-101.113"/>
</g>
<!-- n1 -->
<g id="node15" class="node"><title>n1</title>
<a xlink:href="0043021" xlink:title="GO:0043021 (1)">
<ellipse fill="#e98576" stroke="#e98576" cx="2200" cy="-90" rx="75.2018" ry="18"/>
<text text-anchor="middle" x="2200" y="-85.8" font-family="Times,serif" font-size="14.00">GO:0043021 (1)</text>
</a>
</g>
<!-- b0&#45;&gt;n1 -->
<g id="edge12" class="edge"><title>b0&#45;&gt;n1</title>
<path fill="none" stroke="black" d="M2978.71,-159.11C2841.1,-154.892 2537.47,-142.234 2284,-108 2277.26,-107.09 2270.26,-105.964 2263.29,-104.727"/>
<polygon fill="black" stroke="black" points="2263.62,-101.228 2253.15,-102.848 2262.34,-108.111 2263.62,-101.228"/>
</g>
<!-- a0 -->
<g id="node28" class="node"><title>a0</title>
<a xlink:href="0043167" xlink:title="GO:0043167 (368)">
<ellipse fill="#e98576" stroke="#e98576" cx="2378" cy="-90" rx="84.1886" ry="18"/>
<text text-anchor="middle" x="2378" y="-85.8" font-family="Times,serif" font-size="14.00">GO:0043167 (368)</text>
</a>
</g>
<!-- b0&#45;&gt;a0 -->
<g id="edge24" class="edge"><title>b0&#45;&gt;a0</title>
<path fill="none" stroke="black" d="M2981.22,-156.491C2871.26,-149.126 2654.67,-132.8 2472,-108 2464.26,-106.949 2456.18,-105.709 2448.16,-104.385"/>
<polygon fill="black" stroke="black" points="2448.49,-100.892 2438.05,-102.672 2447.32,-107.794 2448.49,-100.892"/>
</g>
<!-- m1 -->
<g id="node30" class="node"><title>m1</title>
<a xlink:href="0043176" xlink:title="GO:0043176">
<ellipse fill="#dddddd" stroke="#dddddd" cx="2542" cy="-90" rx="61.1934" ry="18"/>
<text text-anchor="middle" x="2542" y="-85.8" font-family="Times,serif" font-size="14.00">GO:0043176</text>
</a>
</g>
<!-- b0&#45;&gt;m1 -->
<g id="edge26" class="edge"><title>b0&#45;&gt;m1</title>
<path fill="none" stroke="black" d="M2983.28,-155.102C2896.21,-147.162 2742.88,-131.292 2613,-108 2607.62,-107.035 2602.04,-105.913 2596.47,-104.714"/>
<polygon fill="black" stroke="black" points="2597.05,-101.256 2586.53,-102.49 2595.52,-108.088 2597.05,-101.256"/>
</g>
<!-- g1 -->
<g id="node33" class="node"><title>g1</title>
<a xlink:href="0030246" xlink:title="GO:0030246 (6)">
<ellipse fill="#e98576" stroke="#e98576" cx="2697" cy="-90" rx="75.2018" ry="18"/>
<text text-anchor="middle" x="2697" y="-85.8" font-family="Times,serif" font-size="14.00">GO:0030246 (6)</text>
</a>
</g>
<!-- b0&#45;&gt;g1 -->
<g id="edge30" class="edge"><title>b0&#45;&gt;g1</title>
<path fill="none" stroke="black" d="M2996.45,-150.106C2941.42,-139.473 2855.44,-122.785 2781,-108 2774.97,-106.802 2768.69,-105.547 2762.41,-104.285"/>
<polygon fill="black" stroke="black" points="2763.06,-100.846 2752.57,-102.304 2761.68,-107.709 2763.06,-100.846"/>
</g>
<!-- i0 -->
<g id="node37" class="node"><title>i0</title>
<a xlink:href="0003676" xlink:title="GO:0003676 (152)">
<ellipse fill="#e98576" stroke="#e98576" cx="2875" cy="-90" rx="84.1886" ry="18"/>
<text text-anchor="middle" x="2875" y="-85.8" font-family="Times,serif" font-size="14.00">GO:0003676 (152)</text>
</a>
</g>
<!-- b0&#45;&gt;i0 -->
<g id="edge34" class="edge"><title>b0&#45;&gt;i0</title>
<path fill="none" stroke="black" d="M3015.69,-146.326C2988.76,-135.736 2952.17,-121.348 2923.06,-109.899"/>
<polygon fill="black" stroke="black" points="2924.08,-106.541 2913.49,-106.138 2921.52,-113.055 2924.08,-106.541"/>
</g>
<!-- q1 -->
<g id="node40" class="node"><title>q1</title>
<a xlink:href="0001871" xlink:title="GO:0001871 (1)">
<ellipse fill="#e98576" stroke="#e98576" cx="3053" cy="-90" rx="75.2018" ry="18"/>
<text text-anchor="middle" x="3053" y="-85.8" font-family="Times,serif" font-size="14.00">GO:0001871 (1)</text>
</a>
</g>
<!-- b0&#45;&gt;q1 -->
<g id="edge38" class="edge"><title>b0&#45;&gt;q1</title>
<path fill="none" stroke="black" d="M3053,-143.697C3053,-135.983 3053,-126.712 3053,-118.112"/>
<polygon fill="black" stroke="black" points="3056.5,-118.104 3053,-108.104 3049.5,-118.104 3056.5,-118.104"/>
</g>
<!-- k0 -->
<g id="node48" class="node"><title>k0</title>
<a xlink:href="0048037" xlink:title="GO:0048037 (118)">
<ellipse fill="#e98576" stroke="#e98576" cx="3231" cy="-90" rx="84.1886" ry="18"/>
<text text-anchor="middle" x="3231" y="-85.8" font-family="Times,serif" font-size="14.00">GO:0048037 (118)</text>
</a>
</g>
<!-- b0&#45;&gt;k0 -->
<g id="edge46" class="edge"><title>b0&#45;&gt;k0</title>
<path fill="none" stroke="black" d="M3090.31,-146.326C3117.24,-135.736 3153.83,-121.348 3182.94,-109.899"/>
<polygon fill="black" stroke="black" points="3184.48,-113.055 3192.51,-106.138 3181.92,-106.541 3184.48,-113.055"/>
</g>
<!-- j1 -->
<g id="node53" class="node"><title>j1</title>
<a xlink:href="0008289" xlink:title="GO:0008289 (1)">
<ellipse fill="#e98576" stroke="#e98576" cx="3409" cy="-90" rx="75.2018" ry="18"/>
<text text-anchor="middle" x="3409" y="-85.8" font-family="Times,serif" font-size="14.00">GO:0008289 (1)</text>
</a>
</g>
<!-- b0&#45;&gt;j1 -->
<g id="edge50" class="edge"><title>b0&#45;&gt;j1</title>
<path fill="none" stroke="black" d="M3108.11,-149.769C3117.74,-147.829 3127.66,-145.845 3137,-144 3220.03,-127.606 3240.95,-124.299 3324,-108 3330.2,-106.783 3336.66,-105.507 3343.12,-104.226"/>
<polygon fill="black" stroke="black" points="3344.11,-107.597 3353.23,-102.214 3342.74,-100.732 3344.11,-107.597"/>
</g>
<!-- x0 -->
<g id="node58" class="node"><title>x0</title>
<a xlink:href="0001882" xlink:title="GO:0001882 (20)">
<ellipse fill="#e98576" stroke="#e98576" cx="3582" cy="-90" rx="79.4447" ry="18"/>
<text text-anchor="middle" x="3582" y="-85.8" font-family="Times,serif" font-size="14.00">GO:0001882 (20)</text>
</a>
</g>
<!-- b0&#45;&gt;x0 -->
<g id="edge56" class="edge"><title>b0&#45;&gt;x0</title>
<path fill="none" stroke="black" d="M3106.63,-149.324C3116.69,-147.368 3127.14,-145.492 3137,-144 3294.24,-120.198 3335.63,-130.941 3493,-108 3500.17,-106.955 3507.64,-105.735 3515.07,-104.438"/>
<polygon fill="black" stroke="black" points="3515.93,-107.841 3525.15,-102.63 3514.69,-100.951 3515.93,-107.841"/>
</g>
<!-- g0 -->
<g id="node60" class="node"><title>g0</title>
<a xlink:href="0008144" xlink:title="GO:0008144 (197)">
<ellipse fill="#e98576" stroke="#e98576" cx="3765" cy="-90" rx="84.1886" ry="18"/>
<text text-anchor="middle" x="3765" y="-85.8" font-family="Times,serif" font-size="14.00">GO:0008144 (197)</text>
</a>
</g>
<!-- b0&#45;&gt;g0 -->
<g id="edge58" class="edge"><title>b0&#45;&gt;g0</title>
<path fill="none" stroke="black" d="M3106.14,-149.141C3116.35,-147.178 3126.97,-145.347 3137,-144 3372.31,-112.383 3434.34,-136.955 3670,-108 3678.19,-106.994 3686.74,-105.746 3695.21,-104.387"/>
<polygon fill="black" stroke="black" points="3695.81,-107.836 3705.1,-102.747 3694.66,-100.931 3695.81,-107.836"/>
</g>
<!-- r0 -->
<g id="node65" class="node"><title>r0</title>
<a xlink:href="0019842" xlink:title="GO:0019842 (35)">
<ellipse fill="#e98576" stroke="#e98576" cx="3948" cy="-90" rx="79.4447" ry="18"/>
<text text-anchor="middle" x="3948" y="-85.8" font-family="Times,serif" font-size="14.00">GO:0019842 (35)</text>
</a>
</g>
<!-- b0&#45;&gt;r0 -->
<g id="edge62" class="edge"><title>b0&#45;&gt;r0</title>
<path fill="none" stroke="black" d="M3105.68,-149.085C3116.02,-147.102 3126.81,-145.278 3137,-144 3455.35,-104.067 3539.4,-145.864 3858,-108 3865.77,-107.076 3873.88,-105.88 3881.91,-104.549"/>
<polygon fill="black" stroke="black" points="3882.75,-107.955 3892.01,-102.802 3881.56,-101.057 3882.75,-107.955"/>
</g>
<!-- z0 -->
<g id="node80" class="node"><title>z0</title>
<a xlink:href="0046906" xlink:title="GO:0046906 (16)">
<ellipse fill="#e98576" stroke="#e98576" cx="4126" cy="-90" rx="79.4447" ry="18"/>
<text text-anchor="middle" x="4126" y="-85.8" font-family="Times,serif" font-size="14.00">GO:0046906 (16)</text>
</a>
</g>
<!-- b0&#45;&gt;z0 -->
<g id="edge78" class="edge"><title>b0&#45;&gt;z0</title>
<path fill="none" stroke="black" d="M3105.67,-149.004C3116.01,-147.028 3126.81,-145.228 3137,-144 3534.01,-96.1881 3638.69,-153.231 4036,-108 4043.78,-107.115 4051.89,-105.941 4059.92,-104.624"/>
<polygon fill="black" stroke="black" points="4060.76,-108.031 4070.02,-102.888 4059.57,-101.132 4060.76,-108.031"/>
</g>
<!-- d0 -->
<g id="node82" class="node"><title>d0</title>
<a xlink:href="0000166" xlink:title="GO:0000166 (233)">
<ellipse fill="#e98576" stroke="#e98576" cx="4309" cy="-90" rx="84.1886" ry="18"/>
<text text-anchor="middle" x="4309" y="-85.8" font-family="Times,serif" font-size="14.00">GO:0000166 (233)</text>
</a>
</g>
<!-- b0&#45;&gt;d0 -->
<g id="edge80" class="edge"><title>b0&#45;&gt;d0</title>
<path fill="none" stroke="black" d="M3105.21,-149.036C3115.69,-147.031 3126.66,-145.211 3137,-144 3612.68,-88.3071 3737.72,-158.312 4214,-108 4222.38,-107.114 4231.14,-105.92 4239.8,-104.573"/>
<polygon fill="black" stroke="black" points="4240.59,-107.991 4249.9,-102.931 4239.46,-101.082 4240.59,-107.991"/>
</g>
<!-- s0 -->
<g id="node86" class="node"><title>s0</title>
<a xlink:href="0051540" xlink:title="GO:0051540 (24)">
<ellipse fill="#e98576" stroke="#e98576" cx="4492" cy="-90" rx="79.4447" ry="18"/>
<text text-anchor="middle" x="4492" y="-85.8" font-family="Times,serif" font-size="14.00">GO:0051540 (24)</text>
</a>
</g>
<!-- b0&#45;&gt;s0 -->
<g id="edge84" class="edge"><title>b0&#45;&gt;s0</title>
<path fill="none" stroke="black" d="M3105.21,-148.995C3115.68,-146.994 3126.65,-145.185 3137,-144 3695.79,-79.9819 3842.8,-168.386 4402,-108 4409.98,-107.138 4418.31,-105.955 4426.55,-104.612"/>
<polygon fill="black" stroke="black" points="4427.25,-108.042 4436.51,-102.903 4426.07,-101.143 4427.25,-108.042"/>
</g>
<!-- l0 -->
<g id="node19" class="node"><title>l0</title>
<a xlink:href="0008233" xlink:title="GO:0008233 (79)">
<ellipse fill="#e98576" stroke="#e98576" cx="89" cy="-18" rx="79.4447" ry="18"/>
<text text-anchor="middle" x="89" y="-13.8" font-family="Times,serif" font-size="14.00">GO:0008233 (79)</text>
</a>
</g>
<!-- h0&#45;&gt;l0 -->
<g id="edge16" class="edge"><title>h0&#45;&gt;l0</title>
<path fill="none" stroke="black" d="M224.462,-73.811C198.415,-63.2721 163.538,-49.1598 135.696,-37.8944"/>
<polygon fill="black" stroke="black" points="136.75,-34.5453 126.168,-34.0389 134.125,-41.0343 136.75,-34.5453"/>
</g>
<!-- i1 -->
<g id="node74" class="node"><title>i1</title>
<a xlink:href="0019213" xlink:title="GO:0019213 (3)">
<ellipse fill="#e98576" stroke="#e98576" cx="262" cy="-18" rx="75.2018" ry="18"/>
<text text-anchor="middle" x="262" y="-13.8" font-family="Times,serif" font-size="14.00">GO:0019213 (3)</text>
</a>
</g>
<!-- h0&#45;&gt;i1 -->
<g id="edge72" class="edge"><title>h0&#45;&gt;i1</title>
<path fill="none" stroke="black" d="M262,-71.6966C262,-63.9827 262,-54.7125 262,-46.1124"/>
<polygon fill="black" stroke="black" points="265.5,-46.1043 262,-36.1043 258.5,-46.1044 265.5,-46.1043"/>
</g>
<!-- f1 -->
<g id="node22" class="node"><title>f1</title>
<a xlink:href="0004497" xlink:title="GO:0004497 (6)">
<ellipse fill="#e98576" stroke="#e98576" cx="430" cy="-18" rx="75.2018" ry="18"/>
<text text-anchor="middle" x="430" y="-13.8" font-family="Times,serif" font-size="14.00">GO:0004497 (6)</text>
</a>
</g>
<!-- j0&#45;&gt;f1 -->
<g id="edge18" class="edge"><title>j0&#45;&gt;f1</title>
<path fill="none" stroke="black" d="M445.056,-71.6966C442.828,-63.8979 440.145,-54.5085 437.665,-45.8292"/>
<polygon fill="black" stroke="black" points="441,-44.758 434.887,-36.1043 434.269,-46.6811 441,-44.758"/>
</g>
<!-- c1 -->
<g id="node55" class="node"><title>c1</title>
<a xlink:href="0051213" xlink:title="GO:0051213 (7)">
<ellipse fill="#e98576" stroke="#e98576" cx="598" cy="-18" rx="75.2018" ry="18"/>
<text text-anchor="middle" x="598" y="-13.8" font-family="Times,serif" font-size="14.00">GO:0051213 (7)</text>
</a>
</g>
<!-- j0&#45;&gt;c1 -->
<g id="edge52" class="edge"><title>j0&#45;&gt;c1</title>
<path fill="none" stroke="black" d="M483.214,-73.2906C504.862,-63.0519 533.281,-49.6103 556.426,-38.6636"/>
<polygon fill="black" stroke="black" points="558.117,-41.7355 565.66,-34.2959 555.124,-35.4076 558.117,-41.7355"/>
</g>
<!-- y0 -->
<g id="node76" class="node"><title>y0</title>
<a xlink:href="0009055" xlink:title="GO:0009055 (19)">
<ellipse fill="#e98576" stroke="#e98576" cx="771" cy="-18" rx="79.4447" ry="18"/>
<text text-anchor="middle" x="771" y="-13.8" font-family="Times,serif" font-size="14.00">GO:0009055 (19)</text>
</a>
</g>
<!-- j0&#45;&gt;y0 -->
<g id="edge74" class="edge"><title>j0&#45;&gt;y0</title>
<path fill="none" stroke="black" d="M506.649,-76.6465C562.456,-64.4768 647.619,-45.9055 706.115,-33.1493"/>
<polygon fill="black" stroke="black" points="706.965,-36.5465 715.989,-30.9961 705.473,-29.7072 706.965,-36.5465"/>
</g>
<!-- l1 -->
<g id="node69" class="node"><title>l1</title>
<a xlink:href="0016597" xlink:title="GO:0016597 (1)">
<ellipse fill="#e98576" stroke="#e98576" cx="2542" cy="-18" rx="75.2018" ry="18"/>
<text text-anchor="middle" x="2542" y="-13.8" font-family="Times,serif" font-size="14.00">GO:0016597 (1)</text>
</a>
</g>
<!-- m1&#45;&gt;l1 -->
<g id="edge66" class="edge"><title>m1&#45;&gt;l1</title>
<path fill="none" stroke="black" d="M2542,-71.6966C2542,-63.9827 2542,-54.7125 2542,-46.1124"/>
<polygon fill="black" stroke="black" points="2545.5,-46.1043 2542,-36.1043 2538.5,-46.1044 2545.5,-46.1043"/>
</g>
<!-- v0 -->
<g id="node49" class="node"><title>v0</title>
<a xlink:href="0004871" xlink:title="GO:0004871 (20)">
<ellipse fill="#e98576" stroke="#e98576" cx="4670" cy="-90" rx="79.4447" ry="18"/>
<text text-anchor="middle" x="4670" y="-85.8" font-family="Times,serif" font-size="14.00">GO:0004871 (20)</text>
</a>
</g>
<!-- u0 -->
<g id="node51" class="node"><title>u0</title>
<a xlink:href="0004872" xlink:title="GO:0004872 (22)">
<ellipse fill="#e98576" stroke="#e98576" cx="4670" cy="-18" rx="79.4447" ry="18"/>
<text text-anchor="middle" x="4670" y="-13.8" font-family="Times,serif" font-size="14.00">GO:0004872 (22)</text>
</a>
</g>
<!-- v0&#45;&gt;u0 -->
<g id="edge48" class="edge"><title>v0&#45;&gt;u0</title>
<path fill="none" stroke="black" d="M4670,-71.6966C4670,-63.9827 4670,-54.7125 4670,-46.1124"/>
<polygon fill="black" stroke="black" points="4673.5,-46.1043 4670,-36.1043 4666.5,-46.1044 4673.5,-46.1043"/>
</g>
<!-- w0&#45;&gt;v0 -->
<g id="edge68" class="edge"><title>w0&#45;&gt;v0</title>
<path fill="none" stroke="black" d="M3606.3,-149.203C3615.39,-147.13 3624.96,-145.242 3634,-144 4050.83,-86.7358 4161.9,-155.177 4580,-108 4587.78,-107.122 4595.89,-105.954 4603.92,-104.639"/>
<polygon fill="black" stroke="black" points="4604.76,-108.046 4614.02,-102.905 4603.58,-101.147 4604.76,-108.046"/>
</g>
<!-- o1 -->
<g id="node63" class="node"><title>o1</title>
<a xlink:href="0031992" xlink:title="GO:0031992 (1)">
<ellipse fill="#e98576" stroke="#e98576" cx="4843" cy="-90" rx="75.2018" ry="18"/>
<text text-anchor="middle" x="4843" y="-85.8" font-family="Times,serif" font-size="14.00">GO:0031992 (1)</text>
</a>
</g>
<!-- w0&#45;&gt;o1 -->
<g id="edge60" class="edge"><title>w0&#45;&gt;o1</title>
<path fill="none" stroke="black" d="M3606.29,-149.161C3615.38,-147.091 3624.96,-145.215 3634,-144 4129.36,-77.4658 4261.47,-165.206 4758,-108 4765.19,-107.171 4772.69,-106.053 4780.11,-104.784"/>
<polygon fill="black" stroke="black" points="4780.94,-108.191 4790.16,-102.972 4779.7,-101.302 4780.94,-108.191"/>
</g>
</g>
</svg>
