<?xml version="1.0" encoding="UTF-8" standalone="no"?>
<!DOCTYPE svg PUBLIC "-//W3C//DTD SVG 1.1//EN"
 "http://www.w3.org/Graphics/SVG/1.1/DTD/svg11.dtd">
<!-- Generated by graphviz version 2.28.0 (20110622.2320)
 -->
<!-- Title: G Pages: 1 -->
<svg width="3087pt" height="404pt"
 viewBox="0.00 0.00 3087.00 404.00" xmlns="http://www.w3.org/2000/svg" xmlns:xlink="http://www.w3.org/1999/xlink">
<g id="graph1" class="graph" transform="scale(1 1) rotate(0) translate(4 400)">
<title>G</title>
<polygon fill="white" stroke="white" points="-4,5 -4,-400 3084,-400 3084,5 -4,5"/>
<!-- c0 -->
<g id="node1" class="node"><title>c0</title>
<a xlink:href="0003674" xlink:title="GO:0003674">
<ellipse fill="#dddddd" stroke="#dddddd" cx="2120" cy="-378" rx="61.1934" ry="18"/>
<text text-anchor="middle" x="2120" y="-373.8" font-family="Times,serif" font-size="14.00">GO:0003674</text>
</a>
</g>
<!-- t0 -->
<g id="node3" class="node"><title>t0</title>
<a xlink:href="0030234" xlink:title="GO:0030234 (4)">
<ellipse fill="#e98576" stroke="#e98576" cx="594" cy="-306" rx="75.2018" ry="18"/>
<text text-anchor="middle" x="594" y="-301.8" font-family="Times,serif" font-size="14.00">GO:0030234 (4)</text>
</a>
</g>
<!-- c0&#45;&gt;t0 -->
<g id="edge2" class="edge"><title>c0&#45;&gt;t0</title>
<path fill="none" stroke="black" d="M2059.11,-376.085C1820.9,-372.3 951.8,-356.518 678,-324 670.889,-323.156 663.484,-322.028 656.145,-320.753"/>
<polygon fill="black" stroke="black" points="656.68,-317.293 646.214,-318.937 655.421,-324.179 656.68,-317.293"/>
</g>
<!-- g0 -->
<g id="node4" class="node"><title>g0</title>
<a xlink:href="0003824" xlink:title="GO:0003824 (23)">
<ellipse fill="#e98576" stroke="#e98576" cx="767" cy="-306" rx="79.4447" ry="18"/>
<text text-anchor="middle" x="767" y="-301.8" font-family="Times,serif" font-size="14.00">GO:0003824 (23)</text>
</a>
</g>
<!-- c0&#45;&gt;g0 -->
<g id="edge42" class="edge"><title>c0&#45;&gt;g0</title>
<path fill="none" stroke="black" d="M2060.12,-373.902C1844.6,-362.752 1107.85,-324.635 853.882,-311.495"/>
<polygon fill="black" stroke="black" points="853.769,-307.985 843.602,-310.963 853.407,-314.975 853.769,-307.985"/>
</g>
<!-- b0 -->
<g id="node7" class="node"><title>b0</title>
<a xlink:href="0005488" xlink:title="GO:0005488">
<ellipse fill="#dddddd" stroke="#dddddd" cx="1961" cy="-306" rx="61.1934" ry="18"/>
<text text-anchor="middle" x="1961" y="-301.8" font-family="Times,serif" font-size="14.00">GO:0005488</text>
</a>
</g>
<!-- c0&#45;&gt;b0 -->
<g id="edge8" class="edge"><title>c0&#45;&gt;b0</title>
<path fill="none" stroke="black" d="M2087.44,-362.666C2063,-351.907 2029.35,-337.09 2002.9,-325.448"/>
<polygon fill="black" stroke="black" points="2004.08,-322.141 1993.52,-321.315 2001.26,-328.548 2004.08,-322.141"/>
</g>
<!-- l0 -->
<g id="node18" class="node"><title>l0</title>
<a xlink:href="0005215" xlink:title="GO:0005215 (21)">
<ellipse fill="#e98576" stroke="#e98576" cx="2120" cy="-306" rx="79.4447" ry="18"/>
<text text-anchor="middle" x="2120" y="-301.8" font-family="Times,serif" font-size="14.00">GO:0005215 (21)</text>
</a>
</g>
<!-- c0&#45;&gt;l0 -->
<g id="edge14" class="edge"><title>c0&#45;&gt;l0</title>
<path fill="none" stroke="black" d="M2120,-359.697C2120,-351.983 2120,-342.712 2120,-334.112"/>
<polygon fill="black" stroke="black" points="2123.5,-334.104 2120,-324.104 2116.5,-334.104 2123.5,-334.104"/>
</g>
<!-- h0 -->
<g id="node34" class="node"><title>h0</title>
<a xlink:href="0005198" xlink:title="GO:0005198 (40)">
<ellipse fill="#e98576" stroke="#e98576" cx="2298" cy="-306" rx="79.4447" ry="18"/>
<text text-anchor="middle" x="2298" y="-301.8" font-family="Times,serif" font-size="14.00">GO:0005198 (40)</text>
</a>
</g>
<!-- c0&#45;&gt;h0 -->
<g id="edge32" class="edge"><title>c0&#45;&gt;h0</title>
<path fill="none" stroke="black" d="M2155.17,-363.17C2182.5,-352.42 2220.69,-337.402 2250.7,-325.6"/>
<polygon fill="black" stroke="black" points="2252.11,-328.807 2260.14,-321.89 2249.55,-322.293 2252.11,-328.807"/>
</g>
<!-- g1 -->
<g id="node49" class="node"><title>g1</title>
<a xlink:href="0060089" xlink:title="GO:0060089">
<ellipse fill="#dddddd" stroke="#dddddd" cx="2457" cy="-306" rx="61.1934" ry="18"/>
<text text-anchor="middle" x="2457" y="-301.8" font-family="Times,serif" font-size="14.00">GO:0060089</text>
</a>
</g>
<!-- c0&#45;&gt;g1 -->
<g id="edge64" class="edge"><title>c0&#45;&gt;g1</title>
<path fill="none" stroke="black" d="M2170.13,-367.607C2223.69,-357.43 2311.03,-340.438 2386,-324 2391.05,-322.892 2396.3,-321.705 2401.55,-320.492"/>
<polygon fill="black" stroke="black" points="2402.67,-323.826 2411.61,-318.142 2401.07,-317.01 2402.67,-323.826"/>
</g>
<!-- u0 -->
<g id="node53" class="node"><title>u0</title>
<a xlink:href="0016209" xlink:title="GO:0016209 (3)">
<ellipse fill="#e98576" stroke="#e98576" cx="2612" cy="-306" rx="75.2018" ry="18"/>
<text text-anchor="middle" x="2612" y="-301.8" font-family="Times,serif" font-size="14.00">GO:0016209 (3)</text>
</a>
</g>
<!-- c0&#45;&gt;u0 -->
<g id="edge50" class="edge"><title>c0&#45;&gt;u0</title>
<path fill="none" stroke="black" d="M2176.47,-370.874C2255.22,-362.052 2402.38,-344.551 2527,-324 2533.68,-322.898 2540.65,-321.657 2547.58,-320.362"/>
<polygon fill="black" stroke="black" points="2548.52,-323.746 2557.69,-318.433 2547.21,-316.87 2548.52,-323.746"/>
</g>
<!-- s0 -->
<g id="node6" class="node"><title>s0</title>
<a xlink:href="0016853" xlink:title="GO:0016853 (4)">
<ellipse fill="#e98576" stroke="#e98576" cx="75" cy="-234" rx="75.2018" ry="18"/>
<text text-anchor="middle" x="75" y="-229.8" font-family="Times,serif" font-size="14.00">GO:0016853 (4)</text>
</a>
</g>
<!-- g0&#45;&gt;s0 -->
<g id="edge4" class="edge"><title>g0&#45;&gt;s0</title>
<path fill="none" stroke="black" d="M710.666,-293.187C699.86,-291.221 688.608,-289.376 678,-288 448.7,-258.256 388.134,-282.998 159,-252 152.264,-251.089 145.256,-249.961 138.289,-248.724"/>
<polygon fill="black" stroke="black" points="138.617,-245.225 128.146,-246.844 137.341,-252.108 138.617,-245.225"/>
</g>
<!-- f0 -->
<g id="node11" class="node"><title>f0</title>
<a xlink:href="0016787" xlink:title="GO:0016787 (43)">
<ellipse fill="#e98576" stroke="#e98576" cx="248" cy="-234" rx="79.4447" ry="18"/>
<text text-anchor="middle" x="248" y="-229.8" font-family="Times,serif" font-size="14.00">GO:0016787 (43)</text>
</a>
</g>
<!-- g0&#45;&gt;f0 -->
<g id="edge20" class="edge"><title>g0&#45;&gt;f0</title>
<path fill="none" stroke="black" d="M710.146,-293.407C699.491,-291.443 688.426,-289.543 678,-288 527.245,-265.684 487.755,-274.316 337,-252 329.832,-250.939 322.362,-249.709 314.931,-248.406"/>
<polygon fill="black" stroke="black" points="315.316,-244.919 304.854,-246.593 314.076,-251.809 315.316,-244.919"/>
</g>
<!-- i0 -->
<g id="node14" class="node"><title>i0</title>
<a xlink:href="0016491" xlink:title="GO:0016491 (31)">
<ellipse fill="#e98576" stroke="#e98576" cx="426" cy="-234" rx="79.4447" ry="18"/>
<text text-anchor="middle" x="426" y="-229.8" font-family="Times,serif" font-size="14.00">GO:0016491 (31)</text>
</a>
</g>
<!-- g0&#45;&gt;i0 -->
<g id="edge28" class="edge"><title>g0&#45;&gt;i0</title>
<path fill="none" stroke="black" d="M710.308,-293.362C650.446,-281.074 556.137,-261.714 492.729,-248.698"/>
<polygon fill="black" stroke="black" points="493.327,-245.248 482.828,-246.665 491.919,-252.105 493.327,-245.248"/>
</g>
<!-- o0 -->
<g id="node27" class="node"><title>o0</title>
<a xlink:href="0016874" xlink:title="GO:0016874 (8)">
<ellipse fill="#e98576" stroke="#e98576" cx="599" cy="-234" rx="75.2018" ry="18"/>
<text text-anchor="middle" x="599" y="-229.8" font-family="Times,serif" font-size="14.00">GO:0016874 (8)</text>
</a>
</g>
<!-- g0&#45;&gt;o0 -->
<g id="edge24" class="edge"><title>g0&#45;&gt;o0</title>
<path fill="none" stroke="black" d="M730.547,-289.811C705.167,-279.236 671.152,-265.063 644.07,-253.779"/>
<polygon fill="black" stroke="black" points="645.382,-250.534 634.805,-249.919 642.69,-256.996 645.382,-250.534"/>
</g>
<!-- c1 -->
<g id="node32" class="node"><title>c1</title>
<a xlink:href="0004386" xlink:title="GO:0004386 (1)">
<ellipse fill="#e98576" stroke="#e98576" cx="767" cy="-234" rx="75.2018" ry="18"/>
<text text-anchor="middle" x="767" y="-229.8" font-family="Times,serif" font-size="14.00">GO:0004386 (1)</text>
</a>
</g>
<!-- g0&#45;&gt;c1 -->
<g id="edge30" class="edge"><title>g0&#45;&gt;c1</title>
<path fill="none" stroke="black" d="M767,-287.697C767,-279.983 767,-270.712 767,-262.112"/>
<polygon fill="black" stroke="black" points="770.5,-262.104 767,-252.104 763.5,-262.104 770.5,-262.104"/>
</g>
<!-- j0 -->
<g id="node58" class="node"><title>j0</title>
<a xlink:href="0016740" xlink:title="GO:0016740 (30)">
<ellipse fill="#e98576" stroke="#e98576" cx="940" cy="-234" rx="79.4447" ry="18"/>
<text text-anchor="middle" x="940" y="-229.8" font-family="Times,serif" font-size="14.00">GO:0016740 (30)</text>
</a>
</g>
<!-- g0&#45;&gt;j0 -->
<g id="edge56" class="edge"><title>g0&#45;&gt;j0</title>
<path fill="none" stroke="black" d="M804.113,-289.983C830.224,-279.418 865.363,-265.2 893.367,-253.869"/>
<polygon fill="black" stroke="black" points="894.991,-256.987 902.949,-249.992 892.366,-250.498 894.991,-256.987"/>
</g>
<!-- v0 -->
<g id="node64" class="node"><title>v0</title>
<a xlink:href="0016829" xlink:title="GO:0016829 (2)">
<ellipse fill="#e98576" stroke="#e98576" cx="1113" cy="-234" rx="75.2018" ry="18"/>
<text text-anchor="middle" x="1113" y="-229.8" font-family="Times,serif" font-size="14.00">GO:0016829 (2)</text>
</a>
</g>
<!-- g0&#45;&gt;v0 -->
<g id="edge62" class="edge"><title>g0&#45;&gt;v0</title>
<path fill="none" stroke="black" d="M824.135,-293.441C885.534,-281.019 982.97,-261.307 1047.44,-248.263"/>
<polygon fill="black" stroke="black" points="1048.39,-251.642 1057.5,-246.229 1047,-244.781 1048.39,-251.642"/>
</g>
<!-- k0 -->
<g id="node9" class="node"><title>k0</title>
<a xlink:href="0005515" xlink:title="GO:0005515 (23)">
<ellipse fill="#e98576" stroke="#e98576" cx="1286" cy="-234" rx="79.4447" ry="18"/>
<text text-anchor="middle" x="1286" y="-229.8" font-family="Times,serif" font-size="14.00">GO:0005515 (23)</text>
</a>
</g>
<!-- b0&#45;&gt;k0 -->
<g id="edge6" class="edge"><title>b0&#45;&gt;k0</title>
<path fill="none" stroke="black" d="M1901.3,-301.551C1795.09,-294.979 1566.44,-278.875 1375,-252 1367.82,-250.993 1360.35,-249.797 1352.92,-248.515"/>
<polygon fill="black" stroke="black" points="1353.29,-245.027 1342.84,-246.72 1352.07,-251.919 1353.29,-245.027"/>
</g>
<!-- a0 -->
<g id="node20" class="node"><title>a0</title>
<a xlink:href="0043167" xlink:title="GO:0043167 (106)">
<ellipse fill="#e98576" stroke="#e98576" cx="1469" cy="-234" rx="84.1886" ry="18"/>
<text text-anchor="middle" x="1469" y="-229.8" font-family="Times,serif" font-size="14.00">GO:0043167 (106)</text>
</a>
</g>
<!-- b0&#45;&gt;a0 -->
<g id="edge16" class="edge"><title>b0&#45;&gt;a0</title>
<path fill="none" stroke="black" d="M1905.18,-298.398C1828.08,-289.09 1684.72,-271.1 1563,-252 1555.6,-250.838 1547.88,-249.557 1540.18,-248.234"/>
<polygon fill="black" stroke="black" points="1540.57,-244.748 1530.11,-246.478 1539.36,-251.644 1540.57,-244.748"/>
</g>
<!-- e1 -->
<g id="node22" class="node"><title>e1</title>
<a xlink:href="0043176" xlink:title="GO:0043176">
<ellipse fill="#dddddd" stroke="#dddddd" cx="1633" cy="-234" rx="61.1934" ry="18"/>
<text text-anchor="middle" x="1633" y="-229.8" font-family="Times,serif" font-size="14.00">GO:0043176</text>
</a>
</g>
<!-- b0&#45;&gt;e1 -->
<g id="edge18" class="edge"><title>b0&#45;&gt;e1</title>
<path fill="none" stroke="black" d="M1911.63,-295.301C1859.82,-285.009 1776.04,-268.048 1704,-252 1698.95,-250.875 1693.7,-249.676 1688.45,-248.456"/>
<polygon fill="black" stroke="black" points="1688.94,-244.974 1678.4,-246.097 1687.34,-251.789 1688.94,-244.974"/>
</g>
<!-- a1 -->
<g id="node25" class="node"><title>a1</title>
<a xlink:href="0030246" xlink:title="GO:0030246 (2)">
<ellipse fill="#e98576" stroke="#e98576" cx="1788" cy="-234" rx="75.2018" ry="18"/>
<text text-anchor="middle" x="1788" y="-229.8" font-family="Times,serif" font-size="14.00">GO:0030246 (2)</text>
</a>
</g>
<!-- b0&#45;&gt;a1 -->
<g id="edge22" class="edge"><title>b0&#45;&gt;a1</title>
<path fill="none" stroke="black" d="M1926.41,-291.003C1899.92,-280.285 1863.12,-265.397 1834.13,-253.666"/>
<polygon fill="black" stroke="black" points="1835.21,-250.325 1824.62,-249.819 1832.58,-256.814 1835.21,-250.325"/>
</g>
<!-- m0 -->
<g id="node29" class="node"><title>m0</title>
<a xlink:href="0003676" xlink:title="GO:0003676 (21)">
<ellipse fill="#e98576" stroke="#e98576" cx="1961" cy="-234" rx="79.4447" ry="18"/>
<text text-anchor="middle" x="1961" y="-229.8" font-family="Times,serif" font-size="14.00">GO:0003676 (21)</text>
</a>
</g>
<!-- b0&#45;&gt;m0 -->
<g id="edge26" class="edge"><title>b0&#45;&gt;m0</title>
<path fill="none" stroke="black" d="M1961,-287.697C1961,-279.983 1961,-270.712 1961,-262.112"/>
<polygon fill="black" stroke="black" points="1964.5,-262.104 1961,-252.104 1957.5,-262.104 1964.5,-262.104"/>
</g>
<!-- n0 -->
<g id="node36" class="node"><title>n0</title>
<a xlink:href="0048037" xlink:title="GO:0048037 (16)">
<ellipse fill="#e98576" stroke="#e98576" cx="2139" cy="-234" rx="79.4447" ry="18"/>
<text text-anchor="middle" x="2139" y="-229.8" font-family="Times,serif" font-size="14.00">GO:0048037 (16)</text>
</a>
</g>
<!-- b0&#45;&gt;n0 -->
<g id="edge34" class="edge"><title>b0&#45;&gt;n0</title>
<path fill="none" stroke="black" d="M1996.17,-291.17C2023.5,-280.42 2061.69,-265.402 2091.7,-253.6"/>
<polygon fill="black" stroke="black" points="2093.11,-256.807 2101.14,-249.89 2090.55,-250.293 2093.11,-256.807"/>
</g>
<!-- w0 -->
<g id="node38" class="node"><title>w0</title>
<a xlink:href="0008289" xlink:title="GO:0008289 (2)">
<ellipse fill="#e98576" stroke="#e98576" cx="2312" cy="-234" rx="75.2018" ry="18"/>
<text text-anchor="middle" x="2312" y="-229.8" font-family="Times,serif" font-size="14.00">GO:0008289 (2)</text>
</a>
</g>
<!-- b0&#45;&gt;w0 -->
<g id="edge36" class="edge"><title>b0&#45;&gt;w0</title>
<path fill="none" stroke="black" d="M2006.1,-293.65C2014.36,-291.683 2022.93,-289.72 2031,-288 2117.62,-269.542 2140.02,-268.685 2227,-252 2233.3,-250.791 2239.87,-249.512 2246.43,-248.222"/>
<polygon fill="black" stroke="black" points="2247.57,-251.564 2256.7,-246.191 2246.21,-244.697 2247.57,-251.564"/>
</g>
<!-- e0 -->
<g id="node46" class="node"><title>e0</title>
<a xlink:href="0001882" xlink:title="GO:0001882 (79)">
<ellipse fill="#e98576" stroke="#e98576" cx="2485" cy="-234" rx="79.4447" ry="18"/>
<text text-anchor="middle" x="2485" y="-229.8" font-family="Times,serif" font-size="14.00">GO:0001882 (79)</text>
</a>
</g>
<!-- b0&#45;&gt;e0 -->
<g id="edge44" class="edge"><title>b0&#45;&gt;e0</title>
<path fill="none" stroke="black" d="M2004.87,-293.353C2013.49,-291.346 2022.49,-289.445 2031,-288 2191.71,-260.698 2234.67,-275.316 2396,-252 2403.17,-250.964 2410.64,-249.75 2418.08,-248.456"/>
<polygon fill="black" stroke="black" points="2418.93,-251.859 2428.15,-246.651 2417.69,-244.969 2418.93,-251.859"/>
</g>
<!-- q0 -->
<g id="node60" class="node"><title>q0</title>
<a xlink:href="0046906" xlink:title="GO:0046906 (8)">
<ellipse fill="#e98576" stroke="#e98576" cx="2658" cy="-234" rx="75.2018" ry="18"/>
<text text-anchor="middle" x="2658" y="-229.8" font-family="Times,serif" font-size="14.00">GO:0046906 (8)</text>
</a>
</g>
<!-- b0&#45;&gt;q0 -->
<g id="edge58" class="edge"><title>b0&#45;&gt;q0</title>
<path fill="none" stroke="black" d="M2004.46,-293.221C2013.19,-291.201 2022.35,-289.328 2031,-288 2269.63,-251.378 2333.68,-283.741 2573,-252 2580.08,-251.061 2587.45,-249.887 2594.77,-248.596"/>
<polygon fill="black" stroke="black" points="2595.47,-252.025 2604.67,-246.775 2594.21,-245.141 2595.47,-252.025"/>
</g>
<!-- d0 -->
<g id="node62" class="node"><title>d0</title>
<a xlink:href="0000166" xlink:title="GO:0000166 (94)">
<ellipse fill="#e98576" stroke="#e98576" cx="2831" cy="-234" rx="79.4447" ry="18"/>
<text text-anchor="middle" x="2831" y="-229.8" font-family="Times,serif" font-size="14.00">GO:0000166 (94)</text>
</a>
</g>
<!-- b0&#45;&gt;d0 -->
<g id="edge60" class="edge"><title>b0&#45;&gt;d0</title>
<path fill="none" stroke="black" d="M2004.07,-293.2C2012.92,-291.155 2022.21,-289.278 2031,-288 2344.11,-242.464 2427.86,-289.772 2742,-252 2749.58,-251.089 2757.48,-249.913 2765.31,-248.604"/>
<polygon fill="black" stroke="black" points="2765.91,-252.052 2775.16,-246.887 2764.71,-245.156 2765.91,-252.052"/>
</g>
<!-- p0 -->
<g id="node13" class="node"><title>p0</title>
<a xlink:href="0008233" xlink:title="GO:0008233 (8)">
<ellipse fill="#e98576" stroke="#e98576" cx="178" cy="-162" rx="75.2018" ry="18"/>
<text text-anchor="middle" x="178" y="-157.8" font-family="Times,serif" font-size="14.00">GO:0008233 (8)</text>
</a>
</g>
<!-- f0&#45;&gt;p0 -->
<g id="edge10" class="edge"><title>f0&#45;&gt;p0</title>
<path fill="none" stroke="black" d="M231.055,-216.055C222.371,-207.371 211.644,-196.644 202.114,-187.114"/>
<polygon fill="black" stroke="black" points="204.335,-184.385 194.789,-179.789 199.385,-189.335 204.335,-184.385"/>
</g>
<!-- r0 -->
<g id="node16" class="node"><title>r0</title>
<a xlink:href="0004497" xlink:title="GO:0004497 (5)">
<ellipse fill="#e98576" stroke="#e98576" cx="346" cy="-162" rx="75.2018" ry="18"/>
<text text-anchor="middle" x="346" y="-157.8" font-family="Times,serif" font-size="14.00">GO:0004497 (5)</text>
</a>
</g>
<!-- i0&#45;&gt;r0 -->
<g id="edge12" class="edge"><title>i0&#45;&gt;r0</title>
<path fill="none" stroke="black" d="M407.041,-216.411C396.68,-207.345 383.685,-195.974 372.351,-186.057"/>
<polygon fill="black" stroke="black" points="374.653,-183.421 364.823,-179.47 370.044,-188.689 374.653,-183.421"/>
</g>
<!-- b1 -->
<g id="node56" class="node"><title>b1</title>
<a xlink:href="0009055" xlink:title="GO:0009055 (1)">
<ellipse fill="#e98576" stroke="#e98576" cx="514" cy="-162" rx="75.2018" ry="18"/>
<text text-anchor="middle" x="514" y="-157.8" font-family="Times,serif" font-size="14.00">GO:0009055 (1)</text>
</a>
</g>
<!-- i0&#45;&gt;b1 -->
<g id="edge54" class="edge"><title>i0&#45;&gt;b1</title>
<path fill="none" stroke="black" d="M446.855,-216.411C458.362,-207.257 472.822,-195.755 485.373,-185.772"/>
<polygon fill="black" stroke="black" points="487.648,-188.434 493.295,-179.47 483.29,-182.956 487.648,-188.434"/>
</g>
<!-- d1 -->
<g id="node48" class="node"><title>d1</title>
<a xlink:href="0016597" xlink:title="GO:0016597 (1)">
<ellipse fill="#e98576" stroke="#e98576" cx="1633" cy="-162" rx="75.2018" ry="18"/>
<text text-anchor="middle" x="1633" y="-157.8" font-family="Times,serif" font-size="14.00">GO:0016597 (1)</text>
</a>
</g>
<!-- e1&#45;&gt;d1 -->
<g id="edge46" class="edge"><title>e1&#45;&gt;d1</title>
<path fill="none" stroke="black" d="M1633,-215.697C1633,-207.983 1633,-198.712 1633,-190.112"/>
<polygon fill="black" stroke="black" points="1636.5,-190.104 1633,-180.104 1629.5,-190.104 1636.5,-190.104"/>
</g>
<!-- z0 -->
<g id="node40" class="node"><title>z0</title>
<a xlink:href="0016879" xlink:title="GO:0016879">
<ellipse fill="#dddddd" stroke="#dddddd" cx="669" cy="-162" rx="61.1934" ry="18"/>
<text text-anchor="middle" x="669" y="-157.8" font-family="Times,serif" font-size="14.00">GO:0016879</text>
</a>
</g>
<!-- o0&#45;&gt;z0 -->
<g id="edge38" class="edge"><title>o0&#45;&gt;z0</title>
<path fill="none" stroke="black" d="M615.589,-216.411C624.481,-207.519 635.589,-196.411 645.369,-186.631"/>
<polygon fill="black" stroke="black" points="647.934,-189.016 652.53,-179.47 642.984,-184.066 647.934,-189.016"/>
</g>
<!-- y0 -->
<g id="node41" class="node"><title>y0</title>
<a xlink:href="0016881" xlink:title="GO:0016881">
<ellipse fill="#dddddd" stroke="#dddddd" cx="669" cy="-90" rx="61.1934" ry="18"/>
<text text-anchor="middle" x="669" y="-85.8" font-family="Times,serif" font-size="14.00">GO:0016881</text>
</a>
</g>
<!-- z0&#45;&gt;y0 -->
<g id="edge52" class="edge"><title>z0&#45;&gt;y0</title>
<path fill="none" stroke="black" d="M669,-143.697C669,-135.983 669,-126.712 669,-118.112"/>
<polygon fill="black" stroke="black" points="672.5,-118.104 669,-108.104 665.5,-118.104 672.5,-118.104"/>
</g>
<!-- x0 -->
<g id="node43" class="node"><title>x0</title>
<a xlink:href="0019787" xlink:title="GO:0019787 (2)">
<ellipse fill="#e98576" stroke="#e98576" cx="669" cy="-18" rx="75.2018" ry="18"/>
<text text-anchor="middle" x="669" y="-13.8" font-family="Times,serif" font-size="14.00">GO:0019787 (2)</text>
</a>
</g>
<!-- y0&#45;&gt;x0 -->
<g id="edge40" class="edge"><title>y0&#45;&gt;x0</title>
<path fill="none" stroke="black" d="M669,-71.6966C669,-63.9827 669,-54.7125 669,-46.1124"/>
<polygon fill="black" stroke="black" points="672.5,-46.1043 669,-36.1043 665.5,-46.1044 672.5,-46.1043"/>
</g>
<!-- f1 -->
<g id="node51" class="node"><title>f1</title>
<a xlink:href="0004871" xlink:title="GO:0004871 (1)">
<ellipse fill="#e98576" stroke="#e98576" cx="3004" cy="-234" rx="75.2018" ry="18"/>
<text text-anchor="middle" x="3004" y="-229.8" font-family="Times,serif" font-size="14.00">GO:0004871 (1)</text>
</a>
</g>
<!-- g1&#45;&gt;f1 -->
<g id="edge48" class="edge"><title>g1&#45;&gt;f1</title>
<path fill="none" stroke="black" d="M2501.11,-293.404C2509.97,-291.369 2519.25,-289.443 2528,-288 2700.19,-259.609 2746.31,-277.147 2919,-252 2925.8,-251.009 2932.89,-249.831 2939.93,-248.563"/>
<polygon fill="black" stroke="black" points="2941,-251.924 2950.19,-246.653 2939.72,-245.042 2941,-251.924"/>
</g>
</g>
</svg>
