<?xml version="1.0" encoding="UTF-8" standalone="no"?>
<!DOCTYPE svg PUBLIC "-//W3C//DTD SVG 1.1//EN"
 "http://www.w3.org/Graphics/SVG/1.1/DTD/svg11.dtd">
<!-- Generated by graphviz version 2.28.0 (20110622.2320)
 -->
<!-- Title: G Pages: 1 -->
<svg width="1615pt" height="476pt"
 viewBox="0.00 0.00 1615.00 476.00" xmlns="http://www.w3.org/2000/svg" xmlns:xlink="http://www.w3.org/1999/xlink">
<g id="graph1" class="graph" transform="scale(1 1) rotate(0) translate(4 472)">
<title>G</title>
<polygon fill="white" stroke="white" points="-4,5 -4,-472 1612,-472 1612,5 -4,5"/>
<!-- x0 -->
<g id="node1" class="node"><title>x0</title>
<a xlink:href="0051179" xlink:title="GO:0051179 (1)">
<ellipse fill="#e98576" stroke="#e98576" cx="217" cy="-378" rx="75.2018" ry="18"/>
<text text-anchor="middle" x="217" y="-373.8" font-family="Times,serif" font-size="14.00">GO:0051179 (1)</text>
</a>
</g>
<!-- g1 -->
<g id="node3" class="node"><title>g1</title>
<a xlink:href="0051674" xlink:title="GO:0051674">
<ellipse fill="#dddddd" stroke="#dddddd" cx="217" cy="-306" rx="61.1934" ry="18"/>
<text text-anchor="middle" x="217" y="-301.8" font-family="Times,serif" font-size="14.00">GO:0051674</text>
</a>
</g>
<!-- x0&#45;&gt;g1 -->
<g id="edge2" class="edge"><title>x0&#45;&gt;g1</title>
<path fill="none" stroke="black" d="M217,-359.697C217,-351.983 217,-342.712 217,-334.112"/>
<polygon fill="black" stroke="black" points="220.5,-334.104 217,-324.104 213.5,-334.104 220.5,-334.104"/>
</g>
<!-- w0 -->
<g id="node17" class="node"><title>w0</title>
<a xlink:href="0051234" xlink:title="GO:0051234">
<ellipse fill="#dddddd" stroke="#dddddd" cx="76" cy="-306" rx="61.1934" ry="18"/>
<text text-anchor="middle" x="76" y="-301.8" font-family="Times,serif" font-size="14.00">GO:0051234</text>
</a>
</g>
<!-- x0&#45;&gt;w0 -->
<g id="edge16" class="edge"><title>x0&#45;&gt;w0</title>
<path fill="none" stroke="black" d="M185.708,-361.465C164.836,-351.103 137.243,-337.404 114.951,-326.337"/>
<polygon fill="black" stroke="black" points="116.27,-323.085 105.757,-321.773 113.158,-329.355 116.27,-323.085"/>
</g>
<!-- f1 -->
<g id="node11" class="node"><title>f1</title>
<a xlink:href="0006928" xlink:title="GO:0006928 (1)">
<ellipse fill="#e98576" stroke="#e98576" cx="243" cy="-234" rx="75.2018" ry="18"/>
<text text-anchor="middle" x="243" y="-229.8" font-family="Times,serif" font-size="14.00">GO:0006928 (1)</text>
</a>
</g>
<!-- g1&#45;&gt;f1 -->
<g id="edge10" class="edge"><title>g1&#45;&gt;f1</title>
<path fill="none" stroke="black" d="M223.294,-288.055C226.22,-280.176 229.771,-270.617 233.048,-261.794"/>
<polygon fill="black" stroke="black" points="236.383,-262.868 236.583,-252.275 229.821,-260.431 236.383,-262.868"/>
</g>
<!-- l0 -->
<g id="node4" class="node"><title>l0</title>
<a xlink:href="0006139" xlink:title="GO:0006139">
<ellipse fill="#dddddd" stroke="#dddddd" cx="734" cy="-234" rx="61.1934" ry="18"/>
<text text-anchor="middle" x="734" y="-229.8" font-family="Times,serif" font-size="14.00">GO:0006139</text>
</a>
</g>
<!-- r0 -->
<g id="node6" class="node"><title>r0</title>
<a xlink:href="0016070" xlink:title="GO:0016070">
<ellipse fill="#dddddd" stroke="#dddddd" cx="875" cy="-162" rx="61.1934" ry="18"/>
<text text-anchor="middle" x="875" y="-157.8" font-family="Times,serif" font-size="14.00">GO:0016070</text>
</a>
</g>
<!-- l0&#45;&gt;r0 -->
<g id="edge4" class="edge"><title>l0&#45;&gt;r0</title>
<path fill="none" stroke="black" d="M763.902,-218.155C784.933,-207.714 813.275,-193.644 836.069,-182.328"/>
<polygon fill="black" stroke="black" points="837.74,-185.405 845.141,-177.824 834.627,-179.136 837.74,-185.405"/>
</g>
<!-- p0 -->
<g id="node43" class="node"><title>p0</title>
<a xlink:href="0006350" xlink:title="GO:0006350">
<ellipse fill="#dddddd" stroke="#dddddd" cx="663" cy="-90" rx="61.1934" ry="18"/>
<text text-anchor="middle" x="663" y="-85.8" font-family="Times,serif" font-size="14.00">GO:0006350</text>
</a>
</g>
<!-- l0&#45;&gt;p0 -->
<g id="edge40" class="edge"><title>l0&#45;&gt;p0</title>
<path fill="none" stroke="black" d="M690.982,-221.101C670.532,-213.044 647.983,-200.104 636,-180 624.206,-160.214 633.941,-134.842 644.873,-116.255"/>
<polygon fill="black" stroke="black" points="647.875,-118.055 650.247,-107.729 641.953,-114.322 647.875,-118.055"/>
</g>
<!-- k0 -->
<g id="node71" class="node"><title>k0</title>
<a xlink:href="0009117" xlink:title="GO:0009117 (1)">
<ellipse fill="#e98576" stroke="#e98576" cx="720" cy="-162" rx="75.2018" ry="18"/>
<text text-anchor="middle" x="720" y="-157.8" font-family="Times,serif" font-size="14.00">GO:0009117 (1)</text>
</a>
</g>
<!-- l0&#45;&gt;k0 -->
<g id="edge76" class="edge"><title>l0&#45;&gt;k0</title>
<path fill="none" stroke="black" d="M730.539,-215.697C728.997,-207.983 727.142,-198.712 725.422,-190.112"/>
<polygon fill="black" stroke="black" points="728.814,-189.224 723.421,-180.104 721.95,-190.597 728.814,-189.224"/>
</g>
<!-- q0 -->
<g id="node56" class="node"><title>q0</title>
<a xlink:href="0032774" xlink:title="GO:0032774">
<ellipse fill="#dddddd" stroke="#dddddd" cx="855" cy="-90" rx="61.1934" ry="18"/>
<text text-anchor="middle" x="855" y="-85.8" font-family="Times,serif" font-size="14.00">GO:0032774</text>
</a>
</g>
<!-- r0&#45;&gt;q0 -->
<g id="edge72" class="edge"><title>r0&#45;&gt;q0</title>
<path fill="none" stroke="black" d="M870.159,-144.055C867.932,-136.261 865.235,-126.822 862.737,-118.079"/>
<polygon fill="black" stroke="black" points="866.048,-116.929 859.936,-108.275 859.318,-118.852 866.048,-116.929"/>
</g>
<!-- s0 -->
<g id="node7" class="node"><title>s0</title>
<a xlink:href="0043283" xlink:title="GO:0043283">
<ellipse fill="#dddddd" stroke="#dddddd" cx="1157" cy="-234" rx="61.1934" ry="18"/>
<text text-anchor="middle" x="1157" y="-229.8" font-family="Times,serif" font-size="14.00">GO:0043283</text>
</a>
</g>
<!-- s0&#45;&gt;r0 -->
<g id="edge6" class="edge"><title>s0&#45;&gt;r0</title>
<path fill="none" stroke="black" d="M1111.69,-221.753C1062.25,-209.481 983.098,-189.833 930.102,-176.678"/>
<polygon fill="black" stroke="black" points="930.744,-173.231 920.196,-174.219 929.058,-180.025 930.744,-173.231"/>
</g>
<!-- a1 -->
<g id="node23" class="node"><title>a1</title>
<a xlink:href="0043412" xlink:title="GO:0043412">
<ellipse fill="#dddddd" stroke="#dddddd" cx="1157" cy="-162" rx="61.1934" ry="18"/>
<text text-anchor="middle" x="1157" y="-157.8" font-family="Times,serif" font-size="14.00">GO:0043412</text>
</a>
</g>
<!-- s0&#45;&gt;a1 -->
<g id="edge20" class="edge"><title>s0&#45;&gt;a1</title>
<path fill="none" stroke="black" d="M1157,-215.697C1157,-207.983 1157,-198.712 1157,-190.112"/>
<polygon fill="black" stroke="black" points="1160.5,-190.104 1157,-180.104 1153.5,-190.104 1160.5,-190.104"/>
</g>
<!-- b0 -->
<g id="node9" class="node"><title>b0</title>
<a xlink:href="0009987" xlink:title="GO:0009987">
<ellipse fill="#dddddd" stroke="#dddddd" cx="577" cy="-378" rx="61.1934" ry="18"/>
<text text-anchor="middle" x="577" y="-373.8" font-family="Times,serif" font-size="14.00">GO:0009987</text>
</a>
</g>
<!-- b0&#45;&gt;f1 -->
<g id="edge8" class="edge"><title>b0&#45;&gt;f1</title>
<path fill="none" stroke="black" d="M516.849,-374.622C463.379,-370.208 384.663,-357.908 325,-324 310.376,-315.689 281.966,-282.956 262.737,-259.604"/>
<polygon fill="black" stroke="black" points="265.392,-257.321 256.356,-251.79 259.97,-261.749 265.392,-257.321"/>
</g>
<!-- h0 -->
<g id="node27" class="node"><title>h0</title>
<a xlink:href="0044237" xlink:title="GO:0044237">
<ellipse fill="#dddddd" stroke="#dddddd" cx="732" cy="-306" rx="61.1934" ry="18"/>
<text text-anchor="middle" x="732" y="-301.8" font-family="Times,serif" font-size="14.00">GO:0044237</text>
</a>
</g>
<!-- b0&#45;&gt;h0 -->
<g id="edge54" class="edge"><title>b0&#45;&gt;h0</title>
<path fill="none" stroke="black" d="M609.116,-362.496C632.704,-351.843 664.953,-337.279 690.496,-325.744"/>
<polygon fill="black" stroke="black" points="692.252,-328.791 699.925,-321.485 689.371,-322.412 692.252,-328.791"/>
</g>
<!-- j0 -->
<g id="node34" class="node"><title>j0</title>
<a xlink:href="0008283" xlink:title="GO:0008283 (1)">
<ellipse fill="#e98576" stroke="#e98576" cx="409" cy="-306" rx="75.2018" ry="18"/>
<text text-anchor="middle" x="409" y="-301.8" font-family="Times,serif" font-size="14.00">GO:0008283 (1)</text>
</a>
</g>
<!-- b0&#45;&gt;j0 -->
<g id="edge30" class="edge"><title>b0&#45;&gt;j0</title>
<path fill="none" stroke="black" d="M543.003,-362.834C517.444,-352.185 482.175,-337.49 454.235,-325.848"/>
<polygon fill="black" stroke="black" points="455.263,-322.485 444.686,-321.869 452.571,-328.946 455.263,-322.485"/>
</g>
<!-- a0 -->
<g id="node69" class="node"><title>a0</title>
<a xlink:href="0007154" xlink:title="GO:0007154 (5)">
<ellipse fill="#e98576" stroke="#e98576" cx="577" cy="-306" rx="75.2018" ry="18"/>
<text text-anchor="middle" x="577" y="-301.8" font-family="Times,serif" font-size="14.00">GO:0007154 (5)</text>
</a>
</g>
<!-- b0&#45;&gt;a0 -->
<g id="edge74" class="edge"><title>b0&#45;&gt;a0</title>
<path fill="none" stroke="black" d="M577,-359.697C577,-351.983 577,-342.712 577,-334.112"/>
<polygon fill="black" stroke="black" points="580.5,-334.104 577,-324.104 573.5,-334.104 580.5,-334.104"/>
</g>
<!-- c0 -->
<g id="node13" class="node"><title>c0</title>
<a xlink:href="0008150" xlink:title="GO:0008150">
<ellipse fill="#dddddd" stroke="#dddddd" cx="873" cy="-450" rx="61.1934" ry="18"/>
<text text-anchor="middle" x="873" y="-445.8" font-family="Times,serif" font-size="14.00">GO:0008150</text>
</a>
</g>
<!-- c0&#45;&gt;x0 -->
<g id="edge46" class="edge"><title>c0&#45;&gt;x0</title>
<path fill="none" stroke="black" d="M816.502,-442.971C698.979,-430.431 428.034,-401.519 294.4,-387.259"/>
<polygon fill="black" stroke="black" points="294.555,-383.756 284.24,-386.175 293.812,-390.716 294.555,-383.756"/>
</g>
<!-- c0&#45;&gt;b0 -->
<g id="edge70" class="edge"><title>c0&#45;&gt;b0</title>
<path fill="none" stroke="black" d="M826.75,-438.062C774.445,-425.693 689.276,-405.552 633.188,-392.288"/>
<polygon fill="black" stroke="black" points="633.95,-388.871 623.413,-389.976 632.339,-395.683 633.95,-388.871"/>
</g>
<!-- i0 -->
<g id="node15" class="node"><title>i0</title>
<a xlink:href="0008152" xlink:title="GO:0008152">
<ellipse fill="#dddddd" stroke="#dddddd" cx="732" cy="-378" rx="61.1934" ry="18"/>
<text text-anchor="middle" x="732" y="-373.8" font-family="Times,serif" font-size="14.00">GO:0008152</text>
</a>
</g>
<!-- c0&#45;&gt;i0 -->
<g id="edge12" class="edge"><title>c0&#45;&gt;i0</title>
<path fill="none" stroke="black" d="M843.098,-434.155C822.067,-423.714 793.725,-409.644 770.931,-398.328"/>
<polygon fill="black" stroke="black" points="772.373,-395.136 761.859,-393.824 769.26,-401.405 772.373,-395.136"/>
</g>
<!-- c0&#45;&gt;w0 -->
<g id="edge14" class="edge"><title>c0&#45;&gt;w0</title>
<path fill="none" stroke="black" d="M811.985,-447.746C645.283,-443.888 190.711,-430.306 133,-396 109.581,-382.078 94.1526,-354.365 85.3244,-333.542"/>
<polygon fill="black" stroke="black" points="88.5746,-332.243 81.6211,-324.25 82.0719,-334.835 88.5746,-332.243"/>
</g>
<!-- e0 -->
<g id="node30" class="node"><title>e0</title>
<a xlink:href="0065007" xlink:title="GO:0065007">
<ellipse fill="#dddddd" stroke="#dddddd" cx="873" cy="-378" rx="61.1934" ry="18"/>
<text text-anchor="middle" x="873" y="-373.8" font-family="Times,serif" font-size="14.00">GO:0065007</text>
</a>
</g>
<!-- c0&#45;&gt;e0 -->
<g id="edge50" class="edge"><title>c0&#45;&gt;e0</title>
<path fill="none" stroke="black" d="M873,-431.697C873,-423.983 873,-414.712 873,-406.112"/>
<polygon fill="black" stroke="black" points="876.5,-406.104 873,-396.104 869.5,-406.104 876.5,-406.104"/>
</g>
<!-- h1 -->
<g id="node38" class="node"><title>h1</title>
<a xlink:href="0040011" xlink:title="GO:0040011 (1)">
<ellipse fill="#e98576" stroke="#e98576" cx="1028" cy="-378" rx="75.2018" ry="18"/>
<text text-anchor="middle" x="1028" y="-373.8" font-family="Times,serif" font-size="14.00">GO:0040011 (1)</text>
</a>
</g>
<!-- c0&#45;&gt;h1 -->
<g id="edge34" class="edge"><title>c0&#45;&gt;h1</title>
<path fill="none" stroke="black" d="M905.116,-434.496C928.233,-424.056 959.667,-409.86 984.956,-398.439"/>
<polygon fill="black" stroke="black" points="986.643,-401.518 994.317,-394.212 983.762,-395.138 986.643,-401.518"/>
</g>
<!-- f0 -->
<g id="node50" class="node"><title>f0</title>
<a xlink:href="0050896" xlink:title="GO:0050896 (5)">
<ellipse fill="#e98576" stroke="#e98576" cx="1196" cy="-378" rx="75.2018" ry="18"/>
<text text-anchor="middle" x="1196" y="-373.8" font-family="Times,serif" font-size="14.00">GO:0050896 (5)</text>
</a>
</g>
<!-- c0&#45;&gt;f0 -->
<g id="edge48" class="edge"><title>c0&#45;&gt;f0</title>
<path fill="none" stroke="black" d="M920.66,-438.671C976.679,-426.531 1069.88,-406.333 1132.12,-392.844"/>
<polygon fill="black" stroke="black" points="1133.18,-396.195 1142.22,-390.656 1131.7,-389.354 1133.18,-396.195"/>
</g>
<!-- u0 -->
<g id="node65" class="node"><title>u0</title>
<a xlink:href="0032501" xlink:title="GO:0032501 (1)">
<ellipse fill="#e98576" stroke="#e98576" cx="1364" cy="-378" rx="75.2018" ry="18"/>
<text text-anchor="middle" x="1364" y="-373.8" font-family="Times,serif" font-size="14.00">GO:0032501 (1)</text>
</a>
</g>
<!-- c0&#45;&gt;u0 -->
<g id="edge68" class="edge"><title>c0&#45;&gt;u0</title>
<path fill="none" stroke="black" d="M929.476,-442.914C1008.23,-434.14 1155.41,-416.694 1280,-396 1286.51,-394.919 1293.28,-393.702 1300.04,-392.43"/>
<polygon fill="black" stroke="black" points="1300.72,-395.862 1309.88,-390.534 1299.4,-388.988 1300.72,-395.862"/>
</g>
<!-- n0 -->
<g id="node76" class="node"><title>n0</title>
<a xlink:href="0032502" xlink:title="GO:0032502 (1)">
<ellipse fill="#e98576" stroke="#e98576" cx="1532" cy="-378" rx="75.2018" ry="18"/>
<text text-anchor="middle" x="1532" y="-373.8" font-family="Times,serif" font-size="14.00">GO:0032502 (1)</text>
</a>
</g>
<!-- c0&#45;&gt;n0 -->
<g id="edge84" class="edge"><title>c0&#45;&gt;n0</title>
<path fill="none" stroke="black" d="M932.435,-445.64C1037.06,-439.255 1260.79,-423.491 1448,-396 1454.63,-395.027 1461.52,-393.87 1468.38,-392.625"/>
<polygon fill="black" stroke="black" points="1469.2,-396.034 1478.38,-390.748 1467.9,-389.154 1469.2,-396.034"/>
</g>
<!-- t0 -->
<g id="node24" class="node"><title>t0</title>
<a xlink:href="0043170" xlink:title="GO:0043170">
<ellipse fill="#dddddd" stroke="#dddddd" cx="1014" cy="-306" rx="61.1934" ry="18"/>
<text text-anchor="middle" x="1014" y="-301.8" font-family="Times,serif" font-size="14.00">GO:0043170</text>
</a>
</g>
<!-- i0&#45;&gt;t0 -->
<g id="edge78" class="edge"><title>i0&#45;&gt;t0</title>
<path fill="none" stroke="black" d="M777.308,-365.753C826.746,-353.481 905.902,-333.833 958.898,-320.678"/>
<polygon fill="black" stroke="black" points="959.942,-324.025 968.804,-318.219 958.256,-317.231 959.942,-324.025"/>
</g>
<!-- i0&#45;&gt;h0 -->
<g id="edge52" class="edge"><title>i0&#45;&gt;h0</title>
<path fill="none" stroke="black" d="M732,-359.697C732,-351.983 732,-342.712 732,-334.112"/>
<polygon fill="black" stroke="black" points="735.5,-334.104 732,-324.104 728.5,-334.104 735.5,-334.104"/>
</g>
<!-- m0 -->
<g id="node46" class="node"><title>m0</title>
<a xlink:href="0044238" xlink:title="GO:0044238">
<ellipse fill="#dddddd" stroke="#dddddd" cx="873" cy="-306" rx="61.1934" ry="18"/>
<text text-anchor="middle" x="873" y="-301.8" font-family="Times,serif" font-size="14.00">GO:0044238</text>
</a>
</g>
<!-- i0&#45;&gt;m0 -->
<g id="edge86" class="edge"><title>i0&#45;&gt;m0</title>
<path fill="none" stroke="black" d="M761.902,-362.155C782.933,-351.714 811.275,-337.644 834.069,-326.328"/>
<polygon fill="black" stroke="black" points="835.74,-329.405 843.141,-321.824 832.627,-323.136 835.74,-329.405"/>
</g>
<!-- v0 -->
<g id="node19" class="node"><title>v0</title>
<a xlink:href="0006810" xlink:title="GO:0006810 (1)">
<ellipse fill="#e98576" stroke="#e98576" cx="75" cy="-234" rx="75.2018" ry="18"/>
<text text-anchor="middle" x="75" y="-229.8" font-family="Times,serif" font-size="14.00">GO:0006810 (1)</text>
</a>
</g>
<!-- w0&#45;&gt;v0 -->
<g id="edge38" class="edge"><title>w0&#45;&gt;v0</title>
<path fill="none" stroke="black" d="M75.7528,-287.697C75.6426,-279.983 75.5102,-270.712 75.3873,-262.112"/>
<polygon fill="black" stroke="black" points="78.8869,-262.053 75.2443,-252.104 71.8876,-262.153 78.8869,-262.053"/>
</g>
<!-- y0 -->
<g id="node21" class="node"><title>y0</title>
<a xlink:href="0006811" xlink:title="GO:0006811 (1)">
<ellipse fill="#e98576" stroke="#e98576" cx="75" cy="-162" rx="75.2018" ry="18"/>
<text text-anchor="middle" x="75" y="-157.8" font-family="Times,serif" font-size="14.00">GO:0006811 (1)</text>
</a>
</g>
<!-- v0&#45;&gt;y0 -->
<g id="edge18" class="edge"><title>v0&#45;&gt;y0</title>
<path fill="none" stroke="black" d="M75,-215.697C75,-207.983 75,-198.712 75,-190.112"/>
<polygon fill="black" stroke="black" points="78.5001,-190.104 75,-180.104 71.5001,-190.104 78.5001,-190.104"/>
</g>
<!-- z0 -->
<g id="node61" class="node"><title>z0</title>
<a xlink:href="0006464" xlink:title="GO:0006464 (1)">
<ellipse fill="#e98576" stroke="#e98576" cx="1036" cy="-90" rx="75.2018" ry="18"/>
<text text-anchor="middle" x="1036" y="-85.8" font-family="Times,serif" font-size="14.00">GO:0006464 (1)</text>
</a>
</g>
<!-- a1&#45;&gt;z0 -->
<g id="edge64" class="edge"><title>a1&#45;&gt;z0</title>
<path fill="none" stroke="black" d="M1130.45,-145.638C1113.35,-135.747 1090.9,-122.761 1072.18,-111.931"/>
<polygon fill="black" stroke="black" points="1073.74,-108.789 1063.33,-106.811 1070.23,-114.848 1073.74,-108.789"/>
</g>
<!-- t0&#45;&gt;s0 -->
<g id="edge26" class="edge"><title>t0&#45;&gt;s0</title>
<path fill="none" stroke="black" d="M1044.33,-290.155C1065.66,-279.714 1094.4,-265.644 1117.52,-254.328"/>
<polygon fill="black" stroke="black" points="1119.27,-257.364 1126.72,-249.824 1116.2,-251.077 1119.27,-257.364"/>
</g>
<!-- d1 -->
<g id="node26" class="node"><title>d1</title>
<a xlink:href="0044260" xlink:title="GO:0044260">
<ellipse fill="#dddddd" stroke="#dddddd" cx="875" cy="-234" rx="61.1934" ry="18"/>
<text text-anchor="middle" x="875" y="-229.8" font-family="Times,serif" font-size="14.00">GO:0044260</text>
</a>
</g>
<!-- t0&#45;&gt;d1 -->
<g id="edge22" class="edge"><title>t0&#45;&gt;d1</title>
<path fill="none" stroke="black" d="M984.522,-290.155C963.789,-279.714 935.849,-265.644 913.379,-254.328"/>
<polygon fill="black" stroke="black" points="914.941,-251.196 904.436,-249.824 911.793,-257.448 914.941,-251.196"/>
</g>
<!-- c1 -->
<g id="node45" class="node"><title>c1</title>
<a xlink:href="0019538" xlink:title="GO:0019538">
<ellipse fill="#dddddd" stroke="#dddddd" cx="1016" cy="-234" rx="61.1934" ry="18"/>
<text text-anchor="middle" x="1016" y="-229.8" font-family="Times,serif" font-size="14.00">GO:0019538</text>
</a>
</g>
<!-- t0&#45;&gt;c1 -->
<g id="edge42" class="edge"><title>t0&#45;&gt;c1</title>
<path fill="none" stroke="black" d="M1014.49,-287.697C1014.71,-279.983 1014.98,-270.712 1015.23,-262.112"/>
<polygon fill="black" stroke="black" points="1018.72,-262.2 1015.51,-252.104 1011.73,-262 1018.72,-262.2"/>
</g>
<!-- b1 -->
<g id="node62" class="node"><title>b1</title>
<a xlink:href="0044267" xlink:title="GO:0044267">
<ellipse fill="#dddddd" stroke="#dddddd" cx="1016" cy="-162" rx="61.1934" ry="18"/>
<text text-anchor="middle" x="1016" y="-157.8" font-family="Times,serif" font-size="14.00">GO:0044267</text>
</a>
</g>
<!-- d1&#45;&gt;b1 -->
<g id="edge82" class="edge"><title>d1&#45;&gt;b1</title>
<path fill="none" stroke="black" d="M904.902,-218.155C925.933,-207.714 954.275,-193.644 977.069,-182.328"/>
<polygon fill="black" stroke="black" points="978.74,-185.405 986.141,-177.824 975.627,-179.136 978.74,-185.405"/>
</g>
<!-- h0&#45;&gt;l0 -->
<g id="edge60" class="edge"><title>h0&#45;&gt;l0</title>
<path fill="none" stroke="black" d="M732.494,-287.697C732.715,-279.983 732.98,-270.712 733.225,-262.112"/>
<polygon fill="black" stroke="black" points="736.724,-262.2 733.511,-252.104 729.727,-262 736.724,-262.2"/>
</g>
<!-- h0&#45;&gt;d1 -->
<g id="edge24" class="edge"><title>h0&#45;&gt;d1</title>
<path fill="none" stroke="black" d="M762.327,-290.155C783.656,-279.714 812.4,-265.644 835.517,-254.328"/>
<polygon fill="black" stroke="black" points="837.274,-257.364 844.717,-249.824 834.197,-251.077 837.274,-257.364"/>
</g>
<!-- g0 -->
<g id="node36" class="node"><title>g0</title>
<a xlink:href="0006793" xlink:title="GO:0006793 (2)">
<ellipse fill="#e98576" stroke="#e98576" cx="411" cy="-234" rx="75.2018" ry="18"/>
<text text-anchor="middle" x="411" y="-229.8" font-family="Times,serif" font-size="14.00">GO:0006793 (2)</text>
</a>
</g>
<!-- h0&#45;&gt;g0 -->
<g id="edge32" class="edge"><title>h0&#45;&gt;g0</title>
<path fill="none" stroke="black" d="M686.209,-293.85C677.832,-291.864 669.16,-289.842 661,-288 598.313,-273.853 526.531,-258.748 476.013,-248.298"/>
<polygon fill="black" stroke="black" points="476.704,-244.867 466.202,-246.272 475.288,-251.722 476.704,-244.867"/>
</g>
<!-- e1 -->
<g id="node40" class="node"><title>e1</title>
<a xlink:href="0046483" xlink:title="GO:0046483 (1)">
<ellipse fill="#e98576" stroke="#e98576" cx="579" cy="-234" rx="75.2018" ry="18"/>
<text text-anchor="middle" x="579" y="-229.8" font-family="Times,serif" font-size="14.00">GO:0046483 (1)</text>
</a>
</g>
<!-- h0&#45;&gt;e1 -->
<g id="edge36" class="edge"><title>h0&#45;&gt;e1</title>
<path fill="none" stroke="black" d="M700.298,-290.496C677.48,-280.056 646.451,-265.86 621.489,-254.439"/>
<polygon fill="black" stroke="black" points="622.798,-251.19 612.249,-250.212 619.886,-257.555 622.798,-251.19"/>
</g>
<!-- d0 -->
<g id="node32" class="node"><title>d0</title>
<a xlink:href="0050789" xlink:title="GO:0050789 (5)">
<ellipse fill="#e98576" stroke="#e98576" cx="1169" cy="-306" rx="75.2018" ry="18"/>
<text text-anchor="middle" x="1169" y="-301.8" font-family="Times,serif" font-size="14.00">GO:0050789 (5)</text>
</a>
</g>
<!-- e0&#45;&gt;d0 -->
<g id="edge28" class="edge"><title>e0&#45;&gt;d0</title>
<path fill="none" stroke="black" d="M918.826,-366.001C927.2,-363.999 935.861,-361.933 944,-360 999.176,-346.896 1062,-332.109 1107.21,-321.491"/>
<polygon fill="black" stroke="black" points="1108.22,-324.849 1117.15,-319.155 1106.62,-318.034 1108.22,-324.849"/>
</g>
<!-- o0 -->
<g id="node55" class="node"><title>o0</title>
<a xlink:href="0006351" xlink:title="GO:0006351 (1)">
<ellipse fill="#e98576" stroke="#e98576" cx="759" cy="-18" rx="75.2018" ry="18"/>
<text text-anchor="middle" x="759" y="-13.8" font-family="Times,serif" font-size="14.00">GO:0006351 (1)</text>
</a>
</g>
<!-- p0&#45;&gt;o0 -->
<g id="edge56" class="edge"><title>p0&#45;&gt;o0</title>
<path fill="none" stroke="black" d="M684.784,-73.1159C697.611,-63.7626 714.042,-51.7819 728.181,-41.472"/>
<polygon fill="black" stroke="black" points="730.618,-44.0268 736.636,-35.307 726.494,-38.3707 730.618,-44.0268"/>
</g>
<!-- c1&#45;&gt;b1 -->
<g id="edge80" class="edge"><title>c1&#45;&gt;b1</title>
<path fill="none" stroke="black" d="M1016,-215.697C1016,-207.983 1016,-198.712 1016,-190.112"/>
<polygon fill="black" stroke="black" points="1019.5,-190.104 1016,-180.104 1012.5,-190.104 1019.5,-190.104"/>
</g>
<!-- m0&#45;&gt;l0 -->
<g id="edge62" class="edge"><title>m0&#45;&gt;l0</title>
<path fill="none" stroke="black" d="M843.522,-290.155C822.789,-279.714 794.849,-265.644 772.379,-254.328"/>
<polygon fill="black" stroke="black" points="773.941,-251.196 763.436,-249.824 770.793,-257.448 773.941,-251.196"/>
</g>
<!-- m0&#45;&gt;c1 -->
<g id="edge44" class="edge"><title>m0&#45;&gt;c1</title>
<path fill="none" stroke="black" d="M903.327,-290.155C924.656,-279.714 953.4,-265.644 976.517,-254.328"/>
<polygon fill="black" stroke="black" points="978.274,-257.364 985.717,-249.824 975.197,-251.077 978.274,-257.364"/>
</g>
<!-- q0&#45;&gt;o0 -->
<g id="edge58" class="edge"><title>q0&#45;&gt;o0</title>
<path fill="none" stroke="black" d="M833.216,-73.1159C820.389,-63.7626 803.958,-51.7819 789.819,-41.472"/>
<polygon fill="black" stroke="black" points="791.506,-38.3707 781.364,-35.307 787.382,-44.0268 791.506,-38.3707"/>
</g>
<!-- b1&#45;&gt;z0 -->
<g id="edge66" class="edge"><title>b1&#45;&gt;z0</title>
<path fill="none" stroke="black" d="M1020.84,-144.055C1023.07,-136.261 1025.77,-126.822 1028.26,-118.079"/>
<polygon fill="black" stroke="black" points="1031.68,-118.852 1031.06,-108.275 1024.95,-116.929 1031.68,-118.852"/>
</g>
</g>
</svg>
