<?xml version="1.0" encoding="UTF-8" standalone="no"?>
<!DOCTYPE svg PUBLIC "-//W3C//DTD SVG 1.1//EN"
 "http://www.w3.org/Graphics/SVG/1.1/DTD/svg11.dtd">
<!-- Generated by graphviz version 2.28.0 (20110622.2320)
 -->
<!-- Title: G Pages: 1 -->
<svg width="1334pt" height="188pt"
 viewBox="0.00 0.00 1334.00 188.00" xmlns="http://www.w3.org/2000/svg" xmlns:xlink="http://www.w3.org/1999/xlink">
<g id="graph1" class="graph" transform="scale(1 1) rotate(0) translate(4 184)">
<title>G</title>
<polygon fill="white" stroke="white" points="-4,5 -4,-184 1331,-184 1331,5 -4,5"/>
<!-- b0 -->
<g id="node1" class="node"><title>b0</title>
<a xlink:href="0005488" xlink:title="GO:0005488">
<ellipse fill="#dddddd" stroke="#dddddd" cx="495" cy="-90" rx="61.1934" ry="18"/>
<text text-anchor="middle" x="495" y="-85.8" font-family="Times,serif" font-size="14.00">GO:0005488</text>
</a>
</g>
<!-- a0 -->
<g id="node3" class="node"><title>a0</title>
<a xlink:href="0043167" xlink:title="GO:0043167 (3)">
<ellipse fill="#e98576" stroke="#e98576" cx="75" cy="-18" rx="75.2018" ry="18"/>
<text text-anchor="middle" x="75" y="-13.8" font-family="Times,serif" font-size="14.00">GO:0043167 (3)</text>
</a>
</g>
<!-- b0&#45;&gt;a0 -->
<g id="edge2" class="edge"><title>b0&#45;&gt;a0</title>
<path fill="none" stroke="black" d="M441.342,-81.267C374.916,-71.5257 258.387,-53.8869 159,-36 152.754,-34.8758 146.257,-33.6543 139.766,-32.399"/>
<polygon fill="black" stroke="black" points="140.095,-28.897 129.608,-30.4079 138.748,-35.7663 140.095,-28.897"/>
</g>
<!-- k0 -->
<g id="node10" class="node"><title>k0</title>
<a xlink:href="0001882" xlink:title="GO:0001882 (1)">
<ellipse fill="#e98576" stroke="#e98576" cx="243" cy="-18" rx="75.2018" ry="18"/>
<text text-anchor="middle" x="243" y="-13.8" font-family="Times,serif" font-size="14.00">GO:0001882 (1)</text>
</a>
</g>
<!-- b0&#45;&gt;k0 -->
<g id="edge8" class="edge"><title>b0&#45;&gt;k0</title>
<path fill="none" stroke="black" d="M451.966,-77.0461C410.057,-65.4048 346.105,-47.6401 299.988,-34.83"/>
<polygon fill="black" stroke="black" points="300.713,-31.3988 290.141,-32.0946 298.839,-38.1434 300.713,-31.3988"/>
</g>
<!-- f0 -->
<g id="node14" class="node"><title>f0</title>
<a xlink:href="0005515" xlink:title="GO:0005515 (2)">
<ellipse fill="#e98576" stroke="#e98576" cx="411" cy="-18" rx="75.2018" ry="18"/>
<text text-anchor="middle" x="411" y="-13.8" font-family="Times,serif" font-size="14.00">GO:0005515 (2)</text>
</a>
</g>
<!-- b0&#45;&gt;f0 -->
<g id="edge12" class="edge"><title>b0&#45;&gt;f0</title>
<path fill="none" stroke="black" d="M475.518,-72.7646C464.57,-63.642 450.725,-52.1046 438.67,-42.0585"/>
<polygon fill="black" stroke="black" points="440.591,-39.1029 430.668,-35.3898 436.109,-44.4805 440.591,-39.1029"/>
</g>
<!-- g0 -->
<g id="node16" class="node"><title>g0</title>
<a xlink:href="0003676" xlink:title="GO:0003676 (1)">
<ellipse fill="#e98576" stroke="#e98576" cx="579" cy="-18" rx="75.2018" ry="18"/>
<text text-anchor="middle" x="579" y="-13.8" font-family="Times,serif" font-size="14.00">GO:0003676 (1)</text>
</a>
</g>
<!-- b0&#45;&gt;g0 -->
<g id="edge14" class="edge"><title>b0&#45;&gt;g0</title>
<path fill="none" stroke="black" d="M514.482,-72.7646C525.43,-63.642 539.275,-52.1046 551.33,-42.0585"/>
<polygon fill="black" stroke="black" points="553.891,-44.4805 559.332,-35.3898 549.409,-39.1029 553.891,-44.4805"/>
</g>
<!-- l0 -->
<g id="node19" class="node"><title>l0</title>
<a xlink:href="0000166" xlink:title="GO:0000166 (1)">
<ellipse fill="#e98576" stroke="#e98576" cx="747" cy="-18" rx="75.2018" ry="18"/>
<text text-anchor="middle" x="747" y="-13.8" font-family="Times,serif" font-size="14.00">GO:0000166 (1)</text>
</a>
</g>
<!-- b0&#45;&gt;l0 -->
<g id="edge18" class="edge"><title>b0&#45;&gt;l0</title>
<path fill="none" stroke="black" d="M538.034,-77.0461C579.943,-65.4048 643.895,-47.6401 690.012,-34.83"/>
<polygon fill="black" stroke="black" points="691.161,-38.1434 699.859,-32.0946 689.287,-31.3988 691.161,-38.1434"/>
</g>
<!-- i0 -->
<g id="node4" class="node"><title>i0</title>
<a xlink:href="0003824" xlink:title="GO:0003824">
<ellipse fill="#dddddd" stroke="#dddddd" cx="964" cy="-90" rx="61.1934" ry="18"/>
<text text-anchor="middle" x="964" y="-85.8" font-family="Times,serif" font-size="14.00">GO:0003824</text>
</a>
</g>
<!-- h0 -->
<g id="node6" class="node"><title>h0</title>
<a xlink:href="0016787" xlink:title="GO:0016787 (1)">
<ellipse fill="#e98576" stroke="#e98576" cx="915" cy="-18" rx="75.2018" ry="18"/>
<text text-anchor="middle" x="915" y="-13.8" font-family="Times,serif" font-size="14.00">GO:0016787 (1)</text>
</a>
</g>
<!-- i0&#45;&gt;h0 -->
<g id="edge4" class="edge"><title>i0&#45;&gt;h0</title>
<path fill="none" stroke="black" d="M952.138,-72.055C946.3,-63.7147 939.144,-53.4908 932.676,-44.2517"/>
<polygon fill="black" stroke="black" points="935.354,-41.9742 926.752,-35.789 929.62,-45.9885 935.354,-41.9742"/>
</g>
<!-- j0 -->
<g id="node12" class="node"><title>j0</title>
<a xlink:href="0016740" xlink:title="GO:0016740 (1)">
<ellipse fill="#e98576" stroke="#e98576" cx="1083" cy="-18" rx="75.2018" ry="18"/>
<text text-anchor="middle" x="1083" y="-13.8" font-family="Times,serif" font-size="14.00">GO:0016740 (1)</text>
</a>
</g>
<!-- i0&#45;&gt;j0 -->
<g id="edge10" class="edge"><title>i0&#45;&gt;j0</title>
<path fill="none" stroke="black" d="M990.115,-73.6382C1006.93,-63.7466 1029.01,-50.761 1047.42,-39.9312"/>
<polygon fill="black" stroke="black" points="1049.28,-42.898 1056.12,-34.811 1045.73,-36.8645 1049.28,-42.898"/>
</g>
<!-- c0 -->
<g id="node7" class="node"><title>c0</title>
<a xlink:href="0003674" xlink:title="GO:0003674">
<ellipse fill="#dddddd" stroke="#dddddd" cx="964" cy="-162" rx="61.1934" ry="18"/>
<text text-anchor="middle" x="964" y="-157.8" font-family="Times,serif" font-size="14.00">GO:0003674</text>
</a>
</g>
<!-- c0&#45;&gt;b0 -->
<g id="edge16" class="edge"><title>c0&#45;&gt;b0</title>
<path fill="none" stroke="black" d="M910.656,-153.038C823.645,-140.052 651.555,-114.366 558.426,-100.467"/>
<polygon fill="black" stroke="black" points="558.701,-96.9689 548.294,-98.9543 557.668,-103.892 558.701,-96.9689"/>
</g>
<!-- c0&#45;&gt;i0 -->
<g id="edge6" class="edge"><title>c0&#45;&gt;i0</title>
<path fill="none" stroke="black" d="M964,-143.697C964,-135.983 964,-126.712 964,-118.112"/>
<polygon fill="black" stroke="black" points="967.5,-118.104 964,-108.104 960.5,-118.104 967.5,-118.104"/>
</g>
<!-- e0 -->
<g id="node20" class="node"><title>e0</title>
<a xlink:href="0060089" xlink:title="GO:0060089">
<ellipse fill="#dddddd" stroke="#dddddd" cx="1202" cy="-90" rx="61.1934" ry="18"/>
<text text-anchor="middle" x="1202" y="-85.8" font-family="Times,serif" font-size="14.00">GO:0060089</text>
</a>
</g>
<!-- c0&#45;&gt;e0 -->
<g id="edge22" class="edge"><title>c0&#45;&gt;e0</title>
<path fill="none" stroke="black" d="M1005.73,-148.727C1046.05,-136.868 1107.22,-118.877 1150.54,-106.135"/>
<polygon fill="black" stroke="black" points="1151.71,-109.439 1160.32,-103.259 1149.74,-102.723 1151.71,-109.439"/>
</g>
<!-- d0 -->
<g id="node22" class="node"><title>d0</title>
<a xlink:href="0004871" xlink:title="GO:0004871 (3)">
<ellipse fill="#e98576" stroke="#e98576" cx="1251" cy="-18" rx="75.2018" ry="18"/>
<text text-anchor="middle" x="1251" y="-13.8" font-family="Times,serif" font-size="14.00">GO:0004871 (3)</text>
</a>
</g>
<!-- e0&#45;&gt;d0 -->
<g id="edge20" class="edge"><title>e0&#45;&gt;d0</title>
<path fill="none" stroke="black" d="M1213.86,-72.055C1219.7,-63.7147 1226.86,-53.4908 1233.32,-44.2517"/>
<polygon fill="black" stroke="black" points="1236.38,-45.9885 1239.25,-35.789 1230.65,-41.9742 1236.38,-45.9885"/>
</g>
</g>
</svg>
