<?xml version="1.0" encoding="UTF-8" standalone="no"?>
<!DOCTYPE svg PUBLIC "-//W3C//DTD SVG 1.1//EN"
 "http://www.w3.org/Graphics/SVG/1.1/DTD/svg11.dtd">
<!-- Generated by graphviz version 2.28.0 (20110622.2320)
 -->
<!-- Title: G Pages: 1 -->
<svg width="6707pt" height="404pt"
 viewBox="0.00 0.00 6707.00 404.00" xmlns="http://www.w3.org/2000/svg" xmlns:xlink="http://www.w3.org/1999/xlink">
<g id="graph1" class="graph" transform="scale(1 1) rotate(0) translate(4 400)">
<title>G</title>
<polygon fill="white" stroke="white" points="-4,5 -4,-400 6704,-400 6704,5 -4,5"/>
<!-- c0 -->
<g id="node1" class="node"><title>c0</title>
<a xlink:href="0003674" xlink:title="GO:0003674 (124)">
<ellipse fill="#e98576" stroke="#e98576" cx="4376" cy="-378" rx="84.1886" ry="18"/>
<text text-anchor="middle" x="4376" y="-373.8" font-family="Times,serif" font-size="14.00">GO:0003674 (124)</text>
</a>
</g>
<!-- w1 -->
<g id="node3" class="node"><title>w1</title>
<a xlink:href="0045182" xlink:title="GO:0045182 (2)">
<ellipse fill="#e98576" stroke="#e98576" cx="1064" cy="-306" rx="75.2018" ry="18"/>
<text text-anchor="middle" x="1064" y="-301.8" font-family="Times,serif" font-size="14.00">GO:0045182 (2)</text>
</a>
</g>
<!-- c0&#45;&gt;w1 -->
<g id="edge2" class="edge"><title>c0&#45;&gt;w1</title>
<path fill="none" stroke="black" d="M4291.63,-376.54C3814.86,-373.816 1468.14,-358.727 1148,-324 1140.88,-323.228 1133.47,-322.145 1126.13,-320.896"/>
<polygon fill="black" stroke="black" points="1126.66,-317.435 1116.19,-319.103 1125.41,-324.324 1126.66,-317.435"/>
</g>
<!-- g0 -->
<g id="node4" class="node"><title>g0</title>
<a xlink:href="0003824" xlink:title="GO:0003824 (57)">
<ellipse fill="#e98576" stroke="#e98576" cx="1237" cy="-306" rx="79.4447" ry="18"/>
<text text-anchor="middle" x="1237" y="-301.8" font-family="Times,serif" font-size="14.00">GO:0003824 (57)</text>
</a>
</g>
<!-- c0&#45;&gt;g0 -->
<g id="edge74" class="edge"><title>c0&#45;&gt;g0</title>
<path fill="none" stroke="black" d="M4292.44,-375.137C3849.79,-365.265 1781.72,-319.147 1326,-308.985"/>
<polygon fill="black" stroke="black" points="1325.93,-305.482 1315.85,-308.758 1325.77,-312.481 1325.93,-305.482"/>
</g>
<!-- m0 -->
<g id="node8" class="node"><title>m0</title>
<a xlink:href="0030234" xlink:title="GO:0030234 (72)">
<ellipse fill="#e98576" stroke="#e98576" cx="4020" cy="-306" rx="79.4447" ry="18"/>
<text text-anchor="middle" x="4020" y="-301.8" font-family="Times,serif" font-size="14.00">GO:0030234 (72)</text>
</a>
</g>
<!-- c0&#45;&gt;m0 -->
<g id="edge6" class="edge"><title>c0&#45;&gt;m0</title>
<path fill="none" stroke="black" d="M4316.01,-365.205C4252.87,-352.789 4153.67,-333.283 4087.75,-320.321"/>
<polygon fill="black" stroke="black" points="4088.36,-316.874 4077.87,-318.379 4087.01,-323.743 4088.36,-316.874"/>
</g>
<!-- b0 -->
<g id="node9" class="node"><title>b0</title>
<a xlink:href="0005488" xlink:title="GO:0005488 (84)">
<ellipse fill="#e98576" stroke="#e98576" cx="4198" cy="-306" rx="79.4447" ry="18"/>
<text text-anchor="middle" x="4198" y="-301.8" font-family="Times,serif" font-size="14.00">GO:0005488 (84)</text>
</a>
</g>
<!-- c0&#45;&gt;b0 -->
<g id="edge16" class="edge"><title>c0&#45;&gt;b0</title>
<path fill="none" stroke="black" d="M4337.38,-361.811C4310.37,-351.19 4274.13,-336.94 4245.38,-325.631"/>
<polygon fill="black" stroke="black" points="4246.52,-322.321 4235.94,-321.919 4243.96,-328.836 4246.52,-322.321"/>
</g>
<!-- j0 -->
<g id="node32" class="node"><title>j0</title>
<a xlink:href="0005215" xlink:title="GO:0005215 (77)">
<ellipse fill="#e98576" stroke="#e98576" cx="4376" cy="-306" rx="79.4447" ry="18"/>
<text text-anchor="middle" x="4376" y="-301.8" font-family="Times,serif" font-size="14.00">GO:0005215 (77)</text>
</a>
</g>
<!-- c0&#45;&gt;j0 -->
<g id="edge28" class="edge"><title>c0&#45;&gt;j0</title>
<path fill="none" stroke="black" d="M4376,-359.697C4376,-351.983 4376,-342.712 4376,-334.112"/>
<polygon fill="black" stroke="black" points="4379.5,-334.104 4376,-324.104 4372.5,-334.104 4379.5,-334.104"/>
</g>
<!-- q0 -->
<g id="node54" class="node"><title>q0</title>
<a xlink:href="0005198" xlink:title="GO:0005198 (27)">
<ellipse fill="#e98576" stroke="#e98576" cx="4554" cy="-306" rx="79.4447" ry="18"/>
<text text-anchor="middle" x="4554" y="-301.8" font-family="Times,serif" font-size="14.00">GO:0005198 (27)</text>
</a>
</g>
<!-- c0&#45;&gt;q0 -->
<g id="edge52" class="edge"><title>c0&#45;&gt;q0</title>
<path fill="none" stroke="black" d="M4414.62,-361.811C4441.63,-351.19 4477.87,-336.94 4506.62,-325.631"/>
<polygon fill="black" stroke="black" points="4508.04,-328.836 4516.06,-321.919 4505.48,-322.321 4508.04,-328.836"/>
</g>
<!-- k1 -->
<g id="node86" class="node"><title>k1</title>
<a xlink:href="0003774" xlink:title="GO:0003774 (6)">
<ellipse fill="#e98576" stroke="#e98576" cx="4727" cy="-306" rx="75.2018" ry="18"/>
<text text-anchor="middle" x="4727" y="-301.8" font-family="Times,serif" font-size="14.00">GO:0003774 (6)</text>
</a>
</g>
<!-- c0&#45;&gt;k1 -->
<g id="edge84" class="edge"><title>c0&#45;&gt;k1</title>
<path fill="none" stroke="black" d="M4435.43,-365.172C4489.34,-354.439 4571,-338.173 4642,-324 4648.2,-322.763 4654.65,-321.474 4661.11,-320.183"/>
<polygon fill="black" stroke="black" points="4662.1,-323.554 4671.22,-318.162 4660.73,-316.69 4662.1,-323.554"/>
</g>
<!-- l0 -->
<g id="node87" class="node"><title>l0</title>
<a xlink:href="0060089" xlink:title="GO:0060089">
<ellipse fill="#dddddd" stroke="#dddddd" cx="4882" cy="-306" rx="61.1934" ry="18"/>
<text text-anchor="middle" x="4882" y="-301.8" font-family="Times,serif" font-size="14.00">GO:0060089</text>
</a>
</g>
<!-- c0&#45;&gt;l0 -->
<g id="edge112" class="edge"><title>c0&#45;&gt;l0</title>
<path fill="none" stroke="black" d="M4452.62,-370.325C4539.82,-362.113 4686.33,-346.445 4811,-324 4816.38,-323.031 4821.96,-321.907 4827.52,-320.706"/>
<polygon fill="black" stroke="black" points="4828.48,-324.08 4837.47,-318.48 4826.95,-317.249 4828.48,-324.08"/>
</g>
<!-- g1 -->
<g id="node91" class="node"><title>g1</title>
<a xlink:href="0016209" xlink:title="GO:0016209 (8)">
<ellipse fill="#e98576" stroke="#e98576" cx="5037" cy="-306" rx="75.2018" ry="18"/>
<text text-anchor="middle" x="5037" y="-301.8" font-family="Times,serif" font-size="14.00">GO:0016209 (8)</text>
</a>
</g>
<!-- c0&#45;&gt;g1 -->
<g id="edge88" class="edge"><title>c0&#45;&gt;g1</title>
<path fill="none" stroke="black" d="M4456.45,-372.29C4568.09,-365.142 4776.11,-349.609 4952,-324 4958.8,-323.009 4965.89,-321.831 4972.93,-320.563"/>
<polygon fill="black" stroke="black" points="4974,-323.925 4983.19,-318.653 4972.72,-317.043 4974,-323.925"/>
</g>
<!-- y0 -->
<g id="node6" class="node"><title>y0</title>
<a xlink:href="0016853" xlink:title="GO:0016853 (11)">
<ellipse fill="#e98576" stroke="#e98576" cx="104" cy="-234" rx="79.4447" ry="18"/>
<text text-anchor="middle" x="104" y="-229.8" font-family="Times,serif" font-size="14.00">GO:0016853 (11)</text>
</a>
</g>
<!-- g0&#45;&gt;y0 -->
<g id="edge4" class="edge"><title>g0&#45;&gt;y0</title>
<path fill="none" stroke="black" d="M1181.18,-293.002C1170.22,-291.026 1158.78,-289.226 1148,-288 725.973,-240.018 615.027,-299.982 193,-252 185.501,-251.147 177.687,-250.017 169.94,-248.744"/>
<polygon fill="black" stroke="black" points="170.274,-245.25 159.825,-246.998 169.084,-252.148 170.274,-245.25"/>
</g>
<!-- f0 -->
<g id="node21" class="node"><title>f0</title>
<a xlink:href="0016787" xlink:title="GO:0016787 (153)">
<ellipse fill="#e98576" stroke="#e98576" cx="287" cy="-234" rx="84.1886" ry="18"/>
<text text-anchor="middle" x="287" y="-229.8" font-family="Times,serif" font-size="14.00">GO:0016787 (153)</text>
</a>
</g>
<!-- g0&#45;&gt;f0 -->
<g id="edge34" class="edge"><title>g0&#45;&gt;f0</title>
<path fill="none" stroke="black" d="M1181.16,-293.122C1170.21,-291.136 1158.78,-289.301 1148,-288 840.046,-250.814 760.261,-275.999 451,-252 424.546,-249.947 395.747,-247.152 369.77,-244.421"/>
<polygon fill="black" stroke="black" points="369.901,-240.916 359.587,-243.339 369.161,-247.876 369.901,-240.916"/>
</g>
<!-- n0 -->
<g id="node26" class="node"><title>n0</title>
<a xlink:href="0016491" xlink:title="GO:0016491 (64)">
<ellipse fill="#e98576" stroke="#e98576" cx="540" cy="-234" rx="79.4447" ry="18"/>
<text text-anchor="middle" x="540" y="-229.8" font-family="Times,serif" font-size="14.00">GO:0016491 (64)</text>
</a>
</g>
<!-- g0&#45;&gt;n0 -->
<g id="edge44" class="edge"><title>g0&#45;&gt;n0</title>
<path fill="none" stroke="black" d="M1180.67,-293.187C1169.86,-291.221 1158.61,-289.376 1148,-288 918.7,-258.256 858.3,-281.744 629,-252 621.624,-251.043 613.937,-249.86 606.305,-248.567"/>
<polygon fill="black" stroke="black" points="606.79,-245.098 596.334,-246.813 605.577,-251.992 606.79,-245.098"/>
</g>
<!-- y1 -->
<g id="node30" class="node"><title>y1</title>
<a xlink:href="0019239" xlink:title="GO:0019239 (2)">
<ellipse fill="#e98576" stroke="#e98576" cx="713" cy="-234" rx="75.2018" ry="18"/>
<text text-anchor="middle" x="713" y="-229.8" font-family="Times,serif" font-size="14.00">GO:0019239 (2)</text>
</a>
</g>
<!-- g0&#45;&gt;y1 -->
<g id="edge26" class="edge"><title>g0&#45;&gt;y1</title>
<path fill="none" stroke="black" d="M1180.15,-293.382C1169.49,-291.42 1158.43,-289.528 1148,-288 992.838,-265.268 952.035,-275.581 797,-252 790.378,-250.993 783.488,-249.814 776.628,-248.556"/>
<polygon fill="black" stroke="black" points="777.111,-245.085 766.635,-246.665 775.81,-251.963 777.111,-245.085"/>
</g>
<!-- w0 -->
<g id="node41" class="node"><title>w0</title>
<a xlink:href="0016874" xlink:title="GO:0016874 (12)">
<ellipse fill="#e98576" stroke="#e98576" cx="886" cy="-234" rx="79.4447" ry="18"/>
<text text-anchor="middle" x="886" y="-229.8" font-family="Times,serif" font-size="14.00">GO:0016874 (12)</text>
</a>
</g>
<!-- g0&#45;&gt;w0 -->
<g id="edge38" class="edge"><title>g0&#45;&gt;w0</title>
<path fill="none" stroke="black" d="M1179.43,-293.519C1117.46,-281.16 1018.97,-261.519 953.424,-248.446"/>
<polygon fill="black" stroke="black" points="954.09,-245.01 943.599,-246.487 952.721,-251.875 954.09,-245.01"/>
</g>
<!-- x0 -->
<g id="node50" class="node"><title>x0</title>
<a xlink:href="0004386" xlink:title="GO:0004386 (11)">
<ellipse fill="#e98576" stroke="#e98576" cx="1064" cy="-234" rx="79.4447" ry="18"/>
<text text-anchor="middle" x="1064" y="-229.8" font-family="Times,serif" font-size="14.00">GO:0004386 (11)</text>
</a>
</g>
<!-- g0&#45;&gt;x0 -->
<g id="edge48" class="edge"><title>g0&#45;&gt;x0</title>
<path fill="none" stroke="black" d="M1199.89,-289.983C1173.78,-279.418 1138.64,-265.2 1110.63,-253.869"/>
<polygon fill="black" stroke="black" points="1111.63,-250.498 1101.05,-249.992 1109.01,-256.987 1111.63,-250.498"/>
</g>
<!-- e2 -->
<g id="node60" class="node"><title>e2</title>
<a xlink:href="0008907" xlink:title="GO:0008907 (1)">
<ellipse fill="#e98576" stroke="#e98576" cx="1237" cy="-234" rx="75.2018" ry="18"/>
<text text-anchor="middle" x="1237" y="-229.8" font-family="Times,serif" font-size="14.00">GO:0008907 (1)</text>
</a>
</g>
<!-- g0&#45;&gt;e2 -->
<g id="edge58" class="edge"><title>g0&#45;&gt;e2</title>
<path fill="none" stroke="black" d="M1237,-287.697C1237,-279.983 1237,-270.712 1237,-262.112"/>
<polygon fill="black" stroke="black" points="1240.5,-262.104 1237,-252.104 1233.5,-262.104 1240.5,-262.104"/>
</g>
<!-- s1 -->
<g id="node66" class="node"><title>s1</title>
<a xlink:href="0032451" xlink:title="GO:0032451 (3)">
<ellipse fill="#e98576" stroke="#e98576" cx="1405" cy="-234" rx="75.2018" ry="18"/>
<text text-anchor="middle" x="1405" y="-229.8" font-family="Times,serif" font-size="14.00">GO:0032451 (3)</text>
</a>
</g>
<!-- g0&#45;&gt;s1 -->
<g id="edge64" class="edge"><title>g0&#45;&gt;s1</title>
<path fill="none" stroke="black" d="M1273.45,-289.811C1298.83,-279.236 1332.85,-265.063 1359.93,-253.779"/>
<polygon fill="black" stroke="black" points="1361.31,-256.996 1369.19,-249.919 1358.62,-250.534 1361.31,-256.996"/>
</g>
<!-- o1 -->
<g id="node99" class="node"><title>o1</title>
<a xlink:href="0009975" xlink:title="GO:0009975 (4)">
<ellipse fill="#e98576" stroke="#e98576" cx="1573" cy="-234" rx="75.2018" ry="18"/>
<text text-anchor="middle" x="1573" y="-229.8" font-family="Times,serif" font-size="14.00">GO:0009975 (4)</text>
</a>
</g>
<!-- g0&#45;&gt;o1 -->
<g id="edge96" class="edge"><title>g0&#45;&gt;o1</title>
<path fill="none" stroke="black" d="M1293.62,-293.205C1352.97,-280.84 1446.07,-261.444 1508.29,-248.482"/>
<polygon fill="black" stroke="black" points="1509.31,-251.845 1518.38,-246.379 1507.88,-244.992 1509.31,-251.845"/>
</g>
<!-- i0 -->
<g id="node104" class="node"><title>i0</title>
<a xlink:href="0016740" xlink:title="GO:0016740 (114)">
<ellipse fill="#e98576" stroke="#e98576" cx="1751" cy="-234" rx="84.1886" ry="18"/>
<text text-anchor="middle" x="1751" y="-229.8" font-family="Times,serif" font-size="14.00">GO:0016740 (114)</text>
</a>
</g>
<!-- g0&#45;&gt;i0 -->
<g id="edge102" class="edge"><title>g0&#45;&gt;i0</title>
<path fill="none" stroke="black" d="M1307.01,-297.323C1390.52,-287.899 1534.23,-270.834 1657,-252 1664.55,-250.842 1672.42,-249.55 1680.26,-248.211"/>
<polygon fill="black" stroke="black" points="1680.89,-251.654 1690.15,-246.495 1679.7,-244.757 1680.89,-251.654"/>
</g>
<!-- t0 -->
<g id="node110" class="node"><title>t0</title>
<a xlink:href="0016829" xlink:title="GO:0016829 (17)">
<ellipse fill="#e98576" stroke="#e98576" cx="1934" cy="-234" rx="79.4447" ry="18"/>
<text text-anchor="middle" x="1934" y="-229.8" font-family="Times,serif" font-size="14.00">GO:0016829 (17)</text>
</a>
</g>
<!-- g0&#45;&gt;t0 -->
<g id="edge108" class="edge"><title>g0&#45;&gt;t0</title>
<path fill="none" stroke="black" d="M1313.45,-300.775C1428.81,-293.847 1654.06,-278.165 1844,-252 1851.45,-250.974 1859.21,-249.747 1866.93,-248.429"/>
<polygon fill="black" stroke="black" points="1867.77,-251.835 1877.01,-246.651 1866.55,-244.941 1867.77,-251.835"/>
</g>
<!-- v1 -->
<g id="node11" class="node"><title>v1</title>
<a xlink:href="0042277" xlink:title="GO:0042277 (3)">
<ellipse fill="#e98576" stroke="#e98576" cx="2107" cy="-234" rx="75.2018" ry="18"/>
<text text-anchor="middle" x="2107" y="-229.8" font-family="Times,serif" font-size="14.00">GO:0042277 (3)</text>
</a>
</g>
<!-- b0&#45;&gt;v1 -->
<g id="edge8" class="edge"><title>b0&#45;&gt;v1</title>
<path fill="none" stroke="black" d="M4142.52,-293.012C4131.15,-290.981 4119.23,-289.158 4108,-288 3260.34,-200.61 3038.07,-344.896 2191,-252 2183.88,-251.219 2176.47,-250.132 2169.13,-248.879"/>
<polygon fill="black" stroke="black" points="2169.66,-245.419 2159.2,-247.084 2168.41,-252.307 2169.66,-245.419"/>
</g>
<!-- z1 -->
<g id="node13" class="node"><title>z1</title>
<a xlink:href="0019825" xlink:title="GO:0019825 (2)">
<ellipse fill="#e98576" stroke="#e98576" cx="2275" cy="-234" rx="75.2018" ry="18"/>
<text text-anchor="middle" x="2275" y="-229.8" font-family="Times,serif" font-size="14.00">GO:0019825 (2)</text>
</a>
</g>
<!-- b0&#45;&gt;z1 -->
<g id="edge10" class="edge"><title>b0&#45;&gt;z1</title>
<path fill="none" stroke="black" d="M4142.52,-293.027C4131.15,-290.996 4119.23,-289.168 4108,-288 3334.67,-207.568 3131.79,-337.454 2359,-252 2351.88,-251.213 2344.47,-250.121 2337.13,-248.867"/>
<polygon fill="black" stroke="black" points="2337.66,-245.406 2327.2,-247.069 2336.42,-252.294 2337.66,-245.406"/>
</g>
<!-- d0 -->
<g id="node15" class="node"><title>d0</title>
<a xlink:href="0005515" xlink:title="GO:0005515 (231)">
<ellipse fill="#e98576" stroke="#e98576" cx="2453" cy="-234" rx="84.1886" ry="18"/>
<text text-anchor="middle" x="2453" y="-229.8" font-family="Times,serif" font-size="14.00">GO:0005515 (231)</text>
</a>
</g>
<!-- b0&#45;&gt;d0 -->
<g id="edge12" class="edge"><title>b0&#45;&gt;d0</title>
<path fill="none" stroke="black" d="M4142.52,-293.049C4131.15,-291.016 4119.23,-289.182 4108,-288 3417.85,-215.355 3237.43,-321.963 2547,-252 2538.7,-251.159 2530.03,-249.992 2521.46,-248.659"/>
<polygon fill="black" stroke="black" points="2521.9,-245.185 2511.47,-247.028 2520.77,-252.094 2521.9,-245.185"/>
</g>
<!-- r1 -->
<g id="node17" class="node"><title>r1</title>
<a xlink:href="0043021" xlink:title="GO:0043021 (3)">
<ellipse fill="#e98576" stroke="#e98576" cx="2631" cy="-234" rx="75.2018" ry="18"/>
<text text-anchor="middle" x="2631" y="-229.8" font-family="Times,serif" font-size="14.00">GO:0043021 (3)</text>
</a>
</g>
<!-- b0&#45;&gt;r1 -->
<g id="edge14" class="edge"><title>b0&#45;&gt;r1</title>
<path fill="none" stroke="black" d="M4142.52,-293.074C4131.15,-291.038 4119.23,-289.197 4108,-288 3492.18,-222.313 3330.38,-321.687 2715,-252 2707.88,-251.194 2700.48,-250.091 2693.14,-248.83"/>
<polygon fill="black" stroke="black" points="2693.67,-245.369 2683.2,-247.026 2692.42,-252.256 2693.67,-245.369"/>
</g>
<!-- t1 -->
<g id="node20" class="node"><title>t1</title>
<a xlink:href="0042562" xlink:title="GO:0042562 (3)">
<ellipse fill="#e98576" stroke="#e98576" cx="2799" cy="-234" rx="75.2018" ry="18"/>
<text text-anchor="middle" x="2799" y="-229.8" font-family="Times,serif" font-size="14.00">GO:0042562 (3)</text>
</a>
</g>
<!-- b0&#45;&gt;t1 -->
<g id="edge18" class="edge"><title>b0&#45;&gt;t1</title>
<path fill="none" stroke="black" d="M4142.51,-293.105C4131.15,-291.067 4119.22,-289.217 4108,-288 3566.5,-229.27 3424.11,-314.247 2883,-252 2875.89,-251.182 2868.48,-250.07 2861.14,-248.805"/>
<polygon fill="black" stroke="black" points="2861.67,-245.344 2851.21,-246.997 2860.42,-252.231 2861.67,-245.344"/>
</g>
<!-- q1 -->
<g id="node25" class="node"><title>q1</title>
<a xlink:href="0005496" xlink:title="GO:0005496 (3)">
<ellipse fill="#e98576" stroke="#e98576" cx="2967" cy="-234" rx="75.2018" ry="18"/>
<text text-anchor="middle" x="2967" y="-229.8" font-family="Times,serif" font-size="14.00">GO:0005496 (3)</text>
</a>
</g>
<!-- b0&#45;&gt;q1 -->
<g id="edge22" class="edge"><title>b0&#45;&gt;q1</title>
<path fill="none" stroke="black" d="M4142.03,-293.06C4130.81,-291.053 4119.06,-289.226 4108,-288 3640.81,-236.227 3517.84,-306.807 3051,-252 3043.89,-251.165 3036.48,-250.043 3029.14,-248.772"/>
<polygon fill="black" stroke="black" points="3029.68,-245.312 3019.21,-246.959 3028.42,-252.198 3029.68,-245.312"/>
</g>
<!-- a0 -->
<g id="node34" class="node"><title>a0</title>
<a xlink:href="0043167" xlink:title="GO:0043167 (283)">
<ellipse fill="#e98576" stroke="#e98576" cx="3145" cy="-234" rx="84.1886" ry="18"/>
<text text-anchor="middle" x="3145" y="-229.8" font-family="Times,serif" font-size="14.00">GO:0043167 (283)</text>
</a>
</g>
<!-- b0&#45;&gt;a0 -->
<g id="edge30" class="edge"><title>b0&#45;&gt;a0</title>
<path fill="none" stroke="black" d="M4142.02,-293.124C4130.8,-291.112 4119.06,-289.267 4108,-288 3723.96,-244.011 3623.21,-294.497 3239,-252 3230.91,-251.106 3222.48,-249.93 3214.12,-248.613"/>
<polygon fill="black" stroke="black" points="3214.42,-245.117 3203.99,-246.947 3213.29,-252.024 3214.42,-245.117"/>
</g>
<!-- p1 -->
<g id="node36" class="node"><title>p1</title>
<a xlink:href="0043176" xlink:title="GO:0043176 (3)">
<ellipse fill="#e98576" stroke="#e98576" cx="3323" cy="-234" rx="75.2018" ry="18"/>
<text text-anchor="middle" x="3323" y="-229.8" font-family="Times,serif" font-size="14.00">GO:0043176 (3)</text>
</a>
</g>
<!-- b0&#45;&gt;p1 -->
<g id="edge32" class="edge"><title>b0&#45;&gt;p1</title>
<path fill="none" stroke="black" d="M4142.01,-293.211C4130.79,-291.191 4119.05,-289.321 4108,-288 3798.24,-250.964 3716.51,-291.048 3407,-252 3400.16,-251.137 3393.04,-250.028 3385.97,-248.792"/>
<polygon fill="black" stroke="black" points="3386.15,-245.267 3375.68,-246.904 3384.88,-252.152 3386.15,-245.267"/>
</g>
<!-- x1 -->
<g id="node39" class="node"><title>x1</title>
<a xlink:href="0043178" xlink:title="GO:0043178 (2)">
<ellipse fill="#e98576" stroke="#e98576" cx="3491" cy="-234" rx="75.2018" ry="18"/>
<text text-anchor="middle" x="3491" y="-229.8" font-family="Times,serif" font-size="14.00">GO:0043178 (2)</text>
</a>
</g>
<!-- b0&#45;&gt;x1 -->
<g id="edge36" class="edge"><title>b0&#45;&gt;x1</title>
<path fill="none" stroke="black" d="M4141.51,-293.265C4130.44,-291.266 4118.88,-289.39 4108,-288 3872.49,-257.912 3810.31,-283.617 3575,-252 3568.26,-251.095 3561.25,-249.971 3554.29,-248.736"/>
<polygon fill="black" stroke="black" points="3554.61,-245.237 3544.14,-246.859 3553.34,-252.12 3554.61,-245.237"/>
</g>
<!-- r0 -->
<g id="node43" class="node"><title>r0</title>
<a xlink:href="0030246" xlink:title="GO:0030246 (27)">
<ellipse fill="#e98576" stroke="#e98576" cx="3664" cy="-234" rx="79.4447" ry="18"/>
<text text-anchor="middle" x="3664" y="-229.8" font-family="Times,serif" font-size="14.00">GO:0030246 (27)</text>
</a>
</g>
<!-- b0&#45;&gt;r0 -->
<g id="edge40" class="edge"><title>b0&#45;&gt;r0</title>
<path fill="none" stroke="black" d="M4140.51,-293.382C4129.73,-291.42 4118.54,-289.528 4108,-288 3951.05,-265.262 3909.93,-274.899 3753,-252 3745.83,-250.954 3738.36,-249.734 3730.93,-248.436"/>
<polygon fill="black" stroke="black" points="3731.31,-244.949 3720.85,-246.628 3730.07,-251.839 3731.31,-244.949"/>
</g>
<!-- h0 -->
<g id="node45" class="node"><title>h0</title>
<a xlink:href="0003676" xlink:title="GO:0003676 (141)">
<ellipse fill="#e98576" stroke="#e98576" cx="3847" cy="-234" rx="84.1886" ry="18"/>
<text text-anchor="middle" x="3847" y="-229.8" font-family="Times,serif" font-size="14.00">GO:0003676 (141)</text>
</a>
</g>
<!-- b0&#45;&gt;h0 -->
<g id="edge42" class="edge"><title>b0&#45;&gt;h0</title>
<path fill="none" stroke="black" d="M4140.43,-293.519C4079.02,-281.271 3981.73,-261.87 3916.19,-248.799"/>
<polygon fill="black" stroke="black" points="3916.85,-245.361 3906.36,-246.838 3915.48,-252.226 3916.85,-245.361"/>
</g>
<!-- m1 -->
<g id="node48" class="node"><title>m1</title>
<a xlink:href="0043498" xlink:title="GO:0043498 (4)">
<ellipse fill="#e98576" stroke="#e98576" cx="4025" cy="-234" rx="75.2018" ry="18"/>
<text text-anchor="middle" x="4025" y="-229.8" font-family="Times,serif" font-size="14.00">GO:0043498 (4)</text>
</a>
</g>
<!-- b0&#45;&gt;m1 -->
<g id="edge46" class="edge"><title>b0&#45;&gt;m1</title>
<path fill="none" stroke="black" d="M4160.89,-289.983C4134.6,-279.346 4099.16,-265.006 4071.06,-253.638"/>
<polygon fill="black" stroke="black" points="4072.04,-250.258 4061.46,-249.752 4069.41,-256.747 4072.04,-250.258"/>
</g>
<!-- u0 -->
<g id="node52" class="node"><title>u0</title>
<a xlink:href="0001871" xlink:title="GO:0001871 (17)">
<ellipse fill="#e98576" stroke="#e98576" cx="4198" cy="-234" rx="79.4447" ry="18"/>
<text text-anchor="middle" x="4198" y="-229.8" font-family="Times,serif" font-size="14.00">GO:0001871 (17)</text>
</a>
</g>
<!-- b0&#45;&gt;u0 -->
<g id="edge50" class="edge"><title>b0&#45;&gt;u0</title>
<path fill="none" stroke="black" d="M4198,-287.697C4198,-279.983 4198,-270.712 4198,-262.112"/>
<polygon fill="black" stroke="black" points="4201.5,-262.104 4198,-252.104 4194.5,-262.104 4201.5,-262.104"/>
</g>
<!-- z0 -->
<g id="node56" class="node"><title>z0</title>
<a xlink:href="0003682" xlink:title="GO:0003682 (11)">
<ellipse fill="#e98576" stroke="#e98576" cx="4376" cy="-234" rx="79.4447" ry="18"/>
<text text-anchor="middle" x="4376" y="-229.8" font-family="Times,serif" font-size="14.00">GO:0003682 (11)</text>
</a>
</g>
<!-- b0&#45;&gt;z0 -->
<g id="edge54" class="edge"><title>b0&#45;&gt;z0</title>
<path fill="none" stroke="black" d="M4235.75,-290.155C4262.8,-279.518 4299.42,-265.114 4328.47,-253.693"/>
<polygon fill="black" stroke="black" points="4329.97,-256.861 4338,-249.944 4327.41,-250.347 4329.97,-256.861"/>
</g>
<!-- s0 -->
<g id="node58" class="node"><title>s0</title>
<a xlink:href="0048037" xlink:title="GO:0048037 (19)">
<ellipse fill="#e98576" stroke="#e98576" cx="4554" cy="-234" rx="79.4447" ry="18"/>
<text text-anchor="middle" x="4554" y="-229.8" font-family="Times,serif" font-size="14.00">GO:0048037 (19)</text>
</a>
</g>
<!-- b0&#45;&gt;s0 -->
<g id="edge56" class="edge"><title>b0&#45;&gt;s0</title>
<path fill="none" stroke="black" d="M4255.99,-293.597C4318.96,-281.216 4419.43,-261.46 4486.05,-248.361"/>
<polygon fill="black" stroke="black" points="4486.9,-251.761 4496.03,-246.398 4485.55,-244.893 4486.9,-251.761"/>
</g>
<!-- d2 -->
<g id="node62" class="node"><title>d2</title>
<a xlink:href="0003823" xlink:title="GO:0003823 (1)">
<ellipse fill="#e98576" stroke="#e98576" cx="4727" cy="-234" rx="75.2018" ry="18"/>
<text text-anchor="middle" x="4727" y="-229.8" font-family="Times,serif" font-size="14.00">GO:0003823 (1)</text>
</a>
</g>
<!-- b0&#45;&gt;d2 -->
<g id="edge60" class="edge"><title>b0&#45;&gt;d2</title>
<path fill="none" stroke="black" d="M4254.85,-293.372C4265.5,-291.412 4276.57,-289.522 4287,-288 4443.93,-265.101 4485.18,-275.578 4642,-252 4648.8,-250.978 4655.88,-249.779 4662.92,-248.499"/>
<polygon fill="black" stroke="black" points="4663.99,-251.859 4673.18,-246.577 4662.71,-244.979 4663.99,-251.859"/>
</g>
<!-- n1 -->
<g id="node64" class="node"><title>n1</title>
<a xlink:href="0050840" xlink:title="GO:0050840 (4)">
<ellipse fill="#e98576" stroke="#e98576" cx="4895" cy="-234" rx="75.2018" ry="18"/>
<text text-anchor="middle" x="4895" y="-229.8" font-family="Times,serif" font-size="14.00">GO:0050840 (4)</text>
</a>
</g>
<!-- b0&#45;&gt;n1 -->
<g id="edge62" class="edge"><title>b0&#45;&gt;n1</title>
<path fill="none" stroke="black" d="M4254.33,-293.182C4265.14,-291.215 4276.39,-289.373 4287,-288 4518.51,-258.047 4579.66,-283.219 4811,-252 4817.74,-251.091 4824.74,-249.965 4831.71,-248.728"/>
<polygon fill="black" stroke="black" points="4832.66,-252.112 4841.85,-246.85 4831.38,-245.229 4832.66,-252.112"/>
</g>
<!-- o0 -->
<g id="node68" class="node"><title>o0</title>
<a xlink:href="0008289" xlink:title="GO:0008289 (58)">
<ellipse fill="#e98576" stroke="#e98576" cx="5068" cy="-234" rx="79.4447" ry="18"/>
<text text-anchor="middle" x="5068" y="-229.8" font-family="Times,serif" font-size="14.00">GO:0008289 (58)</text>
</a>
</g>
<!-- b0&#45;&gt;o0 -->
<g id="edge66" class="edge"><title>b0&#45;&gt;o0</title>
<path fill="none" stroke="black" d="M4253.84,-293.125C4264.79,-291.139 4276.22,-289.303 4287,-288 4592.74,-251.023 4673.26,-288.977 4979,-252 4986.58,-251.084 4994.48,-249.904 5002.31,-248.594"/>
<polygon fill="black" stroke="black" points="5002.91,-252.042 5012.16,-246.875 5001.71,-245.146 5002.91,-252.042"/>
</g>
<!-- a2 -->
<g id="node78" class="node"><title>a2</title>
<a xlink:href="0001882" xlink:title="GO:0001882 (1)">
<ellipse fill="#e98576" stroke="#e98576" cx="5241" cy="-234" rx="75.2018" ry="18"/>
<text text-anchor="middle" x="5241" y="-229.8" font-family="Times,serif" font-size="14.00">GO:0001882 (1)</text>
</a>
</g>
<!-- b0&#45;&gt;a2 -->
<g id="edge76" class="edge"><title>b0&#45;&gt;a2</title>
<path fill="none" stroke="black" d="M4253.83,-293.034C4264.78,-291.056 4276.22,-289.246 4287,-288 4671,-243.617 4772.2,-298.045 5156,-252 5163.19,-251.137 5170.68,-249.998 5178.11,-248.717"/>
<polygon fill="black" stroke="black" points="5178.94,-252.123 5188.15,-246.895 5177.69,-245.235 5178.94,-252.123"/>
</g>
<!-- l1 -->
<g id="node80" class="node"><title>l1</title>
<a xlink:href="0008144" xlink:title="GO:0008144 (5)">
<ellipse fill="#e98576" stroke="#e98576" cx="5409" cy="-234" rx="75.2018" ry="18"/>
<text text-anchor="middle" x="5409" y="-229.8" font-family="Times,serif" font-size="14.00">GO:0008144 (5)</text>
</a>
</g>
<!-- b0&#45;&gt;l1 -->
<g id="edge78" class="edge"><title>b0&#45;&gt;l1</title>
<path fill="none" stroke="black" d="M4253.35,-293.062C4264.44,-291.055 4276.06,-289.227 4287,-288 4745.73,-236.544 4866.55,-305.966 5325,-252 5332.11,-251.163 5339.52,-250.04 5346.86,-248.768"/>
<polygon fill="black" stroke="black" points="5347.58,-252.194 5356.79,-246.954 5346.32,-245.307 5347.58,-252.194"/>
</g>
<!-- f1 -->
<g id="node82" class="node"><title>f1</title>
<a xlink:href="0019842" xlink:title="GO:0019842 (9)">
<ellipse fill="#e98576" stroke="#e98576" cx="5577" cy="-234" rx="75.2018" ry="18"/>
<text text-anchor="middle" x="5577" y="-229.8" font-family="Times,serif" font-size="14.00">GO:0019842 (9)</text>
</a>
</g>
<!-- b0&#45;&gt;f1 -->
<g id="edge80" class="edge"><title>b0&#45;&gt;f1</title>
<path fill="none" stroke="black" d="M4253.34,-293.02C4264.44,-291.016 4276.05,-289.201 4287,-288 4820.04,-229.511 4960.29,-313.405 5493,-252 5500.11,-251.18 5507.52,-250.068 5514.86,-248.802"/>
<polygon fill="black" stroke="black" points="5515.58,-252.228 5524.79,-246.993 5514.33,-245.341 5515.58,-252.228"/>
</g>
<!-- h1 -->
<g id="node93" class="node"><title>h1</title>
<a xlink:href="0060090" xlink:title="GO:0060090 (8)">
<ellipse fill="#e98576" stroke="#e98576" cx="5745" cy="-234" rx="75.2018" ry="18"/>
<text text-anchor="middle" x="5745" y="-229.8" font-family="Times,serif" font-size="14.00">GO:0060090 (8)</text>
</a>
</g>
<!-- b0&#45;&gt;h1 -->
<g id="edge90" class="edge"><title>b0&#45;&gt;h1</title>
<path fill="none" stroke="black" d="M4253.34,-292.989C4264.44,-290.987 4276.05,-289.181 4287,-288 4894.35,-222.478 5054.02,-320.845 5661,-252 5668.11,-251.193 5675.52,-250.089 5682.86,-248.827"/>
<polygon fill="black" stroke="black" points="5683.58,-252.254 5692.8,-247.023 5682.33,-245.367 5683.58,-252.254"/>
</g>
<!-- j1 -->
<g id="node97" class="node"><title>j1</title>
<a xlink:href="0031406" xlink:title="GO:0031406 (6)">
<ellipse fill="#e98576" stroke="#e98576" cx="5913" cy="-234" rx="75.2018" ry="18"/>
<text text-anchor="middle" x="5913" y="-229.8" font-family="Times,serif" font-size="14.00">GO:0031406 (6)</text>
</a>
</g>
<!-- b0&#45;&gt;j1 -->
<g id="edge94" class="edge"><title>b0&#45;&gt;j1</title>
<path fill="none" stroke="black" d="M4253.34,-292.964C4264.43,-290.965 4276.05,-289.165 4287,-288 4968.67,-215.444 5147.74,-328.286 5829,-252 5836.12,-251.203 5843.53,-250.105 5850.87,-248.847"/>
<polygon fill="black" stroke="black" points="5851.58,-252.274 5860.8,-247.046 5850.33,-245.387 5851.58,-252.274"/>
</g>
<!-- v0 -->
<g id="node106" class="node"><title>v0</title>
<a xlink:href="0046906" xlink:title="GO:0046906 (15)">
<ellipse fill="#e98576" stroke="#e98576" cx="6086" cy="-234" rx="79.4447" ry="18"/>
<text text-anchor="middle" x="6086" y="-229.8" font-family="Times,serif" font-size="14.00">GO:0046906 (15)</text>
</a>
</g>
<!-- b0&#45;&gt;v0 -->
<g id="edge104" class="edge"><title>b0&#45;&gt;v0</title>
<path fill="none" stroke="black" d="M4253.33,-292.944C4264.43,-290.946 4276.05,-289.153 4287,-288 5042.99,-208.409 5241.01,-331.591 5997,-252 6004.7,-251.189 6012.73,-250.062 6020.68,-248.77"/>
<polygon fill="black" stroke="black" points="6021.4,-252.196 6030.67,-247.056 6020.22,-245.297 6021.4,-252.196"/>
</g>
<!-- e0 -->
<g id="node108" class="node"><title>e0</title>
<a xlink:href="0000166" xlink:title="GO:0000166 (185)">
<ellipse fill="#e98576" stroke="#e98576" cx="6269" cy="-234" rx="84.1886" ry="18"/>
<text text-anchor="middle" x="6269" y="-229.8" font-family="Times,serif" font-size="14.00">GO:0000166 (185)</text>
</a>
</g>
<!-- b0&#45;&gt;e0 -->
<g id="edge106" class="edge"><title>b0&#45;&gt;e0</title>
<path fill="none" stroke="black" d="M4253.33,-292.927C4264.43,-290.931 4276.05,-289.142 4287,-288 5121.3,-200.998 5339.21,-334.135 6174,-252 6182.6,-251.154 6191.59,-249.958 6200.47,-248.589"/>
<polygon fill="black" stroke="black" points="6201.11,-252.032 6210.42,-246.977 6199.99,-245.122 6201.11,-252.032"/>
</g>
<!-- b2 -->
<g id="node112" class="node"><title>b2</title>
<a xlink:href="0051540" xlink:title="GO:0051540 (1)">
<ellipse fill="#e98576" stroke="#e98576" cx="6447" cy="-234" rx="75.2018" ry="18"/>
<text text-anchor="middle" x="6447" y="-229.8" font-family="Times,serif" font-size="14.00">GO:0051540 (1)</text>
</a>
</g>
<!-- b0&#45;&gt;b2 -->
<g id="edge110" class="edge"><title>b0&#45;&gt;b2</title>
<path fill="none" stroke="black" d="M4253.33,-292.912C4264.43,-290.917 4276.05,-289.133 4287,-288 5204.47,-193.126 5444.95,-350.845 6362,-252 6369.39,-251.204 6377.09,-250.083 6384.7,-248.791"/>
<polygon fill="black" stroke="black" points="6385.41,-252.22 6394.63,-247.008 6384.17,-245.33 6385.41,-252.22"/>
</g>
<!-- p0 -->
<g id="node23" class="node"><title>p0</title>
<a xlink:href="0008233" xlink:title="GO:0008233 (55)">
<ellipse fill="#e98576" stroke="#e98576" cx="79" cy="-162" rx="79.4447" ry="18"/>
<text text-anchor="middle" x="79" y="-157.8" font-family="Times,serif" font-size="14.00">GO:0008233 (55)</text>
</a>
</g>
<!-- f0&#45;&gt;p0 -->
<g id="edge20" class="edge"><title>f0&#45;&gt;p0</title>
<path fill="none" stroke="black" d="M243.902,-218.496C211.055,-207.441 165.692,-192.175 130.858,-180.452"/>
<polygon fill="black" stroke="black" points="131.925,-177.118 121.331,-177.246 129.692,-183.753 131.925,-177.118"/>
</g>
<!-- u1 -->
<g id="node95" class="node"><title>u1</title>
<a xlink:href="0019213" xlink:title="GO:0019213 (3)">
<ellipse fill="#e98576" stroke="#e98576" cx="252" cy="-162" rx="75.2018" ry="18"/>
<text text-anchor="middle" x="252" y="-157.8" font-family="Times,serif" font-size="14.00">GO:0019213 (3)</text>
</a>
</g>
<!-- f0&#45;&gt;u1 -->
<g id="edge92" class="edge"><title>f0&#45;&gt;u1</title>
<path fill="none" stroke="black" d="M278.527,-216.055C274.503,-208.007 269.602,-198.205 265.113,-189.226"/>
<polygon fill="black" stroke="black" points="268.24,-187.654 260.638,-180.275 261.979,-190.785 268.24,-187.654"/>
</g>
<!-- i1 -->
<g id="node28" class="node"><title>i1</title>
<a xlink:href="0004497" xlink:title="GO:0004497 (7)">
<ellipse fill="#e98576" stroke="#e98576" cx="420" cy="-162" rx="75.2018" ry="18"/>
<text text-anchor="middle" x="420" y="-157.8" font-family="Times,serif" font-size="14.00">GO:0004497 (7)</text>
</a>
</g>
<!-- n0&#45;&gt;i1 -->
<g id="edge24" class="edge"><title>n0&#45;&gt;i1</title>
<path fill="none" stroke="black" d="M512.47,-216.941C495.853,-207.248 474.482,-194.781 456.471,-184.275"/>
<polygon fill="black" stroke="black" points="457.804,-181 447.402,-178.985 454.277,-187.047 457.804,-181"/>
</g>
<!-- a1 -->
<g id="node70" class="node"><title>a1</title>
<a xlink:href="0051213" xlink:title="GO:0051213 (10)">
<ellipse fill="#e98576" stroke="#e98576" cx="593" cy="-162" rx="79.4447" ry="18"/>
<text text-anchor="middle" x="593" y="-157.8" font-family="Times,serif" font-size="14.00">GO:0051213 (10)</text>
</a>
</g>
<!-- n0&#45;&gt;a1 -->
<g id="edge68" class="edge"><title>n0&#45;&gt;a1</title>
<path fill="none" stroke="black" d="M552.83,-216.055C559.21,-207.629 567.045,-197.28 574.097,-187.966"/>
<polygon fill="black" stroke="black" points="577.042,-189.874 580.288,-179.789 571.461,-185.649 577.042,-189.874"/>
</g>
<!-- e1 -->
<g id="node102" class="node"><title>e1</title>
<a xlink:href="0009055" xlink:title="GO:0009055 (9)">
<ellipse fill="#e98576" stroke="#e98576" cx="766" cy="-162" rx="75.2018" ry="18"/>
<text text-anchor="middle" x="766" y="-157.8" font-family="Times,serif" font-size="14.00">GO:0009055 (9)</text>
</a>
</g>
<!-- n0&#45;&gt;e1 -->
<g id="edge100" class="edge"><title>n0&#45;&gt;e1</title>
<path fill="none" stroke="black" d="M584.921,-219.087C621.59,-207.729 673.508,-191.648 712.356,-179.615"/>
<polygon fill="black" stroke="black" points="713.417,-182.951 721.934,-176.649 711.346,-176.264 713.417,-182.951"/>
</g>
<!-- c2 -->
<g id="node84" class="node"><title>c2</title>
<a xlink:href="0016597" xlink:title="GO:0016597 (1)">
<ellipse fill="#e98576" stroke="#e98576" cx="3323" cy="-162" rx="75.2018" ry="18"/>
<text text-anchor="middle" x="3323" y="-157.8" font-family="Times,serif" font-size="14.00">GO:0016597 (1)</text>
</a>
</g>
<!-- p1&#45;&gt;c2 -->
<g id="edge82" class="edge"><title>p1&#45;&gt;c2</title>
<path fill="none" stroke="black" d="M3323,-215.697C3323,-207.983 3323,-198.712 3323,-190.112"/>
<polygon fill="black" stroke="black" points="3326.5,-190.104 3323,-180.104 3319.5,-190.104 3326.5,-190.104"/>
</g>
<!-- d1 -->
<g id="node72" class="node"><title>d1</title>
<a xlink:href="0016879" xlink:title="GO:0016879">
<ellipse fill="#dddddd" stroke="#dddddd" cx="921" cy="-162" rx="61.1934" ry="18"/>
<text text-anchor="middle" x="921" y="-157.8" font-family="Times,serif" font-size="14.00">GO:0016879</text>
</a>
</g>
<!-- w0&#45;&gt;d1 -->
<g id="edge70" class="edge"><title>w0&#45;&gt;d1</title>
<path fill="none" stroke="black" d="M894.473,-216.055C898.497,-208.007 903.398,-198.205 907.887,-189.226"/>
<polygon fill="black" stroke="black" points="911.021,-190.785 912.362,-180.275 904.76,-187.654 911.021,-190.785"/>
</g>
<!-- c1 -->
<g id="node73" class="node"><title>c1</title>
<a xlink:href="0016881" xlink:title="GO:0016881">
<ellipse fill="#dddddd" stroke="#dddddd" cx="921" cy="-90" rx="61.1934" ry="18"/>
<text text-anchor="middle" x="921" y="-85.8" font-family="Times,serif" font-size="14.00">GO:0016881</text>
</a>
</g>
<!-- d1&#45;&gt;c1 -->
<g id="edge98" class="edge"><title>d1&#45;&gt;c1</title>
<path fill="none" stroke="black" d="M921,-143.697C921,-135.983 921,-126.712 921,-118.112"/>
<polygon fill="black" stroke="black" points="924.5,-118.104 921,-108.104 917.5,-118.104 924.5,-118.104"/>
</g>
<!-- b1 -->
<g id="node75" class="node"><title>b1</title>
<a xlink:href="0019787" xlink:title="GO:0019787 (10)">
<ellipse fill="#e98576" stroke="#e98576" cx="921" cy="-18" rx="79.4447" ry="18"/>
<text text-anchor="middle" x="921" y="-13.8" font-family="Times,serif" font-size="14.00">GO:0019787 (10)</text>
</a>
</g>
<!-- c1&#45;&gt;b1 -->
<g id="edge72" class="edge"><title>c1&#45;&gt;b1</title>
<path fill="none" stroke="black" d="M921,-71.6966C921,-63.9827 921,-54.7125 921,-46.1124"/>
<polygon fill="black" stroke="black" points="924.5,-46.1043 921,-36.1043 917.5,-46.1044 924.5,-46.1043"/>
</g>
<!-- k0 -->
<g id="node89" class="node"><title>k0</title>
<a xlink:href="0004871" xlink:title="GO:0004871 (76)">
<ellipse fill="#e98576" stroke="#e98576" cx="6620" cy="-234" rx="79.4447" ry="18"/>
<text text-anchor="middle" x="6620" y="-229.8" font-family="Times,serif" font-size="14.00">GO:0004871 (76)</text>
</a>
</g>
<!-- l0&#45;&gt;k0 -->
<g id="edge86" class="edge"><title>l0&#45;&gt;k0</title>
<path fill="none" stroke="black" d="M4925.28,-293.096C4934.37,-291.031 4943.95,-289.173 4953,-288 5648.69,-197.817 5833.4,-326.064 6531,-252 6538.7,-251.183 6546.73,-250.051 6554.67,-248.756"/>
<polygon fill="black" stroke="black" points="6555.4,-252.183 6564.67,-247.041 6554.22,-245.284 6555.4,-252.183"/>
</g>
</g>
</svg>
