<?xml version="1.0" encoding="UTF-8" standalone="no"?>
<!DOCTYPE svg PUBLIC "-//W3C//DTD SVG 1.1//EN"
 "http://www.w3.org/Graphics/SVG/1.1/DTD/svg11.dtd">
<!-- Generated by graphviz version 2.28.0 (20110622.2320)
 -->
<!-- Title: G Pages: 1 -->
<svg width="3067pt" height="260pt"
 viewBox="0.00 0.00 3067.00 260.00" xmlns="http://www.w3.org/2000/svg" xmlns:xlink="http://www.w3.org/1999/xlink">
<g id="graph1" class="graph" transform="scale(1 1) rotate(0) translate(4 256)">
<title>G</title>
<polygon fill="white" stroke="white" points="-4,5 -4,-256 3064,-256 3064,5 -4,5"/>
<!-- f0 -->
<g id="node1" class="node"><title>f0</title>
<a xlink:href="0016491" xlink:title="GO:0016491 (68)">
<ellipse fill="#e98576" stroke="#e98576" cx="161" cy="-90" rx="79.4447" ry="18"/>
<text text-anchor="middle" x="161" y="-85.8" font-family="Times,serif" font-size="14.00">GO:0016491 (68)</text>
</a>
</g>
<!-- y0 -->
<g id="node3" class="node"><title>y0</title>
<a xlink:href="0051213" xlink:title="GO:0051213 (1)">
<ellipse fill="#e98576" stroke="#e98576" cx="75" cy="-18" rx="75.2018" ry="18"/>
<text text-anchor="middle" x="75" y="-13.8" font-family="Times,serif" font-size="14.00">GO:0051213 (1)</text>
</a>
</g>
<!-- f0&#45;&gt;y0 -->
<g id="edge2" class="edge"><title>f0&#45;&gt;y0</title>
<path fill="none" stroke="black" d="M140.619,-72.411C129.481,-63.3446 115.511,-51.9742 103.327,-42.0572"/>
<polygon fill="black" stroke="black" points="105.2,-39.0682 95.2345,-35.4699 100.781,-44.4972 105.2,-39.0682"/>
</g>
<!-- s0 -->
<g id="node31" class="node"><title>s0</title>
<a xlink:href="0009055" xlink:title="GO:0009055 (10)">
<ellipse fill="#e98576" stroke="#e98576" cx="248" cy="-18" rx="79.4447" ry="18"/>
<text text-anchor="middle" x="248" y="-13.8" font-family="Times,serif" font-size="14.00">GO:0009055 (10)</text>
</a>
</g>
<!-- f0&#45;&gt;s0 -->
<g id="edge28" class="edge"><title>f0&#45;&gt;s0</title>
<path fill="none" stroke="black" d="M181.618,-72.411C192.994,-63.2575 207.29,-51.7553 219.698,-41.7715"/>
<polygon fill="black" stroke="black" points="221.933,-44.4657 227.53,-35.4699 217.545,-39.0118 221.933,-44.4657"/>
</g>
<!-- c0 -->
<g id="node4" class="node"><title>c0</title>
<a xlink:href="0003674" xlink:title="GO:0003674">
<ellipse fill="#dddddd" stroke="#dddddd" cx="2175" cy="-234" rx="61.1934" ry="18"/>
<text text-anchor="middle" x="2175" y="-229.8" font-family="Times,serif" font-size="14.00">GO:0003674</text>
</a>
</g>
<!-- x0 -->
<g id="node6" class="node"><title>x0</title>
<a xlink:href="0030234" xlink:title="GO:0030234 (1)">
<ellipse fill="#e98576" stroke="#e98576" cx="690" cy="-162" rx="75.2018" ry="18"/>
<text text-anchor="middle" x="690" y="-157.8" font-family="Times,serif" font-size="14.00">GO:0030234 (1)</text>
</a>
</g>
<!-- c0&#45;&gt;x0 -->
<g id="edge4" class="edge"><title>c0&#45;&gt;x0</title>
<path fill="none" stroke="black" d="M2113.86,-232.005C1879.62,-227.989 1039.25,-211.647 774,-180 767.151,-179.183 760.028,-178.104 752.954,-176.885"/>
<polygon fill="black" stroke="black" points="753.129,-173.36 742.664,-175.014 751.876,-180.247 753.129,-173.36"/>
</g>
<!-- g0 -->
<g id="node7" class="node"><title>g0</title>
<a xlink:href="0003824" xlink:title="GO:0003824 (47)">
<ellipse fill="#e98576" stroke="#e98576" cx="863" cy="-162" rx="79.4447" ry="18"/>
<text text-anchor="middle" x="863" y="-157.8" font-family="Times,serif" font-size="14.00">GO:0003824 (47)</text>
</a>
</g>
<!-- c0&#45;&gt;g0 -->
<g id="edge8" class="edge"><title>c0&#45;&gt;g0</title>
<path fill="none" stroke="black" d="M2115.22,-229.81C1904.71,-218.579 1197.16,-180.829 949.494,-167.615"/>
<polygon fill="black" stroke="black" points="949.636,-164.117 939.463,-167.08 949.263,-171.107 949.636,-164.117"/>
</g>
<!-- b0 -->
<g id="node11" class="node"><title>b0</title>
<a xlink:href="0005488" xlink:title="GO:0005488 (1)">
<ellipse fill="#e98576" stroke="#e98576" cx="2020" cy="-162" rx="75.2018" ry="18"/>
<text text-anchor="middle" x="2020" y="-157.8" font-family="Times,serif" font-size="14.00">GO:0005488 (1)</text>
</a>
</g>
<!-- c0&#45;&gt;b0 -->
<g id="edge14" class="edge"><title>c0&#45;&gt;b0</title>
<path fill="none" stroke="black" d="M2142.88,-218.496C2119.77,-208.056 2088.33,-193.86 2063.04,-182.439"/>
<polygon fill="black" stroke="black" points="2064.24,-179.138 2053.68,-178.212 2061.36,-185.518 2064.24,-179.138"/>
</g>
<!-- b1 -->
<g id="node17" class="node"><title>b1</title>
<a xlink:href="0060089" xlink:title="GO:0060089">
<ellipse fill="#dddddd" stroke="#dddddd" cx="2175" cy="-162" rx="61.1934" ry="18"/>
<text text-anchor="middle" x="2175" y="-157.8" font-family="Times,serif" font-size="14.00">GO:0060089</text>
</a>
</g>
<!-- c0&#45;&gt;b1 -->
<g id="edge50" class="edge"><title>c0&#45;&gt;b1</title>
<path fill="none" stroke="black" d="M2175,-215.697C2175,-207.983 2175,-198.712 2175,-190.112"/>
<polygon fill="black" stroke="black" points="2178.5,-190.104 2175,-180.104 2171.5,-190.104 2178.5,-190.104"/>
</g>
<!-- m0 -->
<g id="node24" class="node"><title>m0</title>
<a xlink:href="0016209" xlink:title="GO:0016209 (28)">
<ellipse fill="#e98576" stroke="#e98576" cx="2334" cy="-162" rx="79.4447" ry="18"/>
<text text-anchor="middle" x="2334" y="-157.8" font-family="Times,serif" font-size="14.00">GO:0016209 (28)</text>
</a>
</g>
<!-- c0&#45;&gt;m0 -->
<g id="edge20" class="edge"><title>c0&#45;&gt;m0</title>
<path fill="none" stroke="black" d="M2207.56,-218.666C2231.35,-208.192 2263.88,-193.872 2289.98,-182.379"/>
<polygon fill="black" stroke="black" points="2291.54,-185.518 2299.28,-178.285 2288.72,-179.111 2291.54,-185.518"/>
</g>
<!-- r0 -->
<g id="node26" class="node"><title>r0</title>
<a xlink:href="0005215" xlink:title="GO:0005215 (11)">
<ellipse fill="#e98576" stroke="#e98576" cx="2512" cy="-162" rx="79.4447" ry="18"/>
<text text-anchor="middle" x="2512" y="-157.8" font-family="Times,serif" font-size="14.00">GO:0005215 (11)</text>
</a>
</g>
<!-- c0&#45;&gt;r0 -->
<g id="edge22" class="edge"><title>c0&#45;&gt;r0</title>
<path fill="none" stroke="black" d="M2223.64,-222.896C2282.07,-210.76 2380.36,-190.343 2445.7,-176.771"/>
<polygon fill="black" stroke="black" points="2446.42,-180.198 2455.5,-174.737 2444.99,-173.344 2446.42,-180.198"/>
</g>
<!-- j0 -->
<g id="node46" class="node"><title>j0</title>
<a xlink:href="0005198" xlink:title="GO:0005198 (45)">
<ellipse fill="#e98576" stroke="#e98576" cx="2690" cy="-162" rx="79.4447" ry="18"/>
<text text-anchor="middle" x="2690" y="-157.8" font-family="Times,serif" font-size="14.00">GO:0005198 (45)</text>
</a>
</g>
<!-- c0&#45;&gt;j0 -->
<g id="edge44" class="edge"><title>c0&#45;&gt;j0</title>
<path fill="none" stroke="black" d="M2231.87,-227.053C2313.55,-218.253 2468.69,-200.568 2600,-180 2607.13,-178.883 2614.56,-177.629 2621.96,-176.32"/>
<polygon fill="black" stroke="black" points="2622.78,-179.728 2632,-174.509 2621.53,-172.839 2622.78,-179.728"/>
</g>
<!-- g0&#45;&gt;f0 -->
<g id="edge36" class="edge"><title>g0&#45;&gt;f0</title>
<path fill="none" stroke="black" d="M806.666,-149.182C795.861,-147.215 784.608,-145.373 774,-144 542.492,-114.047 481.508,-137.953 250,-108 242.624,-107.046 234.936,-105.864 227.304,-104.571"/>
<polygon fill="black" stroke="black" points="227.789,-101.103 217.334,-102.818 226.576,-107.997 227.789,-101.103"/>
</g>
<!-- q0 -->
<g id="node9" class="node"><title>q0</title>
<a xlink:href="0016853" xlink:title="GO:0016853 (21)">
<ellipse fill="#e98576" stroke="#e98576" cx="339" cy="-90" rx="79.4447" ry="18"/>
<text text-anchor="middle" x="339" y="-85.8" font-family="Times,serif" font-size="14.00">GO:0016853 (21)</text>
</a>
</g>
<!-- g0&#45;&gt;q0 -->
<g id="edge6" class="edge"><title>g0&#45;&gt;q0</title>
<path fill="none" stroke="black" d="M806.148,-149.395C795.493,-147.432 784.427,-145.535 774,-144 621.042,-121.476 580.958,-130.524 428,-108 420.831,-106.944 413.361,-105.718 405.93,-104.417"/>
<polygon fill="black" stroke="black" points="406.314,-100.93 395.852,-102.605 405.075,-107.82 406.314,-100.93"/>
</g>
<!-- i0 -->
<g id="node20" class="node"><title>i0</title>
<a xlink:href="0016787" xlink:title="GO:0016787 (47)">
<ellipse fill="#e98576" stroke="#e98576" cx="517" cy="-90" rx="79.4447" ry="18"/>
<text text-anchor="middle" x="517" y="-85.8" font-family="Times,serif" font-size="14.00">GO:0016787 (47)</text>
</a>
</g>
<!-- g0&#45;&gt;i0 -->
<g id="edge26" class="edge"><title>g0&#45;&gt;i0</title>
<path fill="none" stroke="black" d="M805.865,-149.441C745.012,-137.13 648.762,-117.657 584.285,-104.613"/>
<polygon fill="black" stroke="black" points="584.715,-101.129 574.22,-102.576 583.327,-107.99 584.715,-101.129"/>
</g>
<!-- v0 -->
<g id="node33" class="node"><title>v0</title>
<a xlink:href="0016874" xlink:title="GO:0016874 (4)">
<ellipse fill="#e98576" stroke="#e98576" cx="690" cy="-90" rx="75.2018" ry="18"/>
<text text-anchor="middle" x="690" y="-85.8" font-family="Times,serif" font-size="14.00">GO:0016874 (4)</text>
</a>
</g>
<!-- g0&#45;&gt;v0 -->
<g id="edge30" class="edge"><title>g0&#45;&gt;v0</title>
<path fill="none" stroke="black" d="M825.887,-145.983C799.599,-135.346 764.158,-121.006 736.062,-109.638"/>
<polygon fill="black" stroke="black" points="737.04,-106.258 726.458,-105.752 734.415,-112.747 737.04,-106.258"/>
</g>
<!-- h0 -->
<g id="node35" class="node"><title>h0</title>
<a xlink:href="0016740" xlink:title="GO:0016740 (55)">
<ellipse fill="#e98576" stroke="#e98576" cx="863" cy="-90" rx="79.4447" ry="18"/>
<text text-anchor="middle" x="863" y="-85.8" font-family="Times,serif" font-size="14.00">GO:0016740 (55)</text>
</a>
</g>
<!-- g0&#45;&gt;h0 -->
<g id="edge32" class="edge"><title>g0&#45;&gt;h0</title>
<path fill="none" stroke="black" d="M863,-143.697C863,-135.983 863,-126.712 863,-118.112"/>
<polygon fill="black" stroke="black" points="866.5,-118.104 863,-108.104 859.5,-118.104 866.5,-118.104"/>
</g>
<!-- t0 -->
<g id="node44" class="node"><title>t0</title>
<a xlink:href="0004386" xlink:title="GO:0004386 (9)">
<ellipse fill="#e98576" stroke="#e98576" cx="1036" cy="-90" rx="75.2018" ry="18"/>
<text text-anchor="middle" x="1036" y="-85.8" font-family="Times,serif" font-size="14.00">GO:0004386 (9)</text>
</a>
</g>
<!-- g0&#45;&gt;t0 -->
<g id="edge42" class="edge"><title>g0&#45;&gt;t0</title>
<path fill="none" stroke="black" d="M900.113,-145.983C926.401,-135.346 961.842,-121.006 989.938,-109.638"/>
<polygon fill="black" stroke="black" points="991.585,-112.747 999.542,-105.752 988.96,-106.258 991.585,-112.747"/>
</g>
<!-- l0 -->
<g id="node48" class="node"><title>l0</title>
<a xlink:href="0016829" xlink:title="GO:0016829 (34)">
<ellipse fill="#e98576" stroke="#e98576" cx="1209" cy="-90" rx="79.4447" ry="18"/>
<text text-anchor="middle" x="1209" y="-85.8" font-family="Times,serif" font-size="14.00">GO:0016829 (34)</text>
</a>
</g>
<!-- g0&#45;&gt;l0 -->
<g id="edge46" class="edge"><title>g0&#45;&gt;l0</title>
<path fill="none" stroke="black" d="M920.135,-149.441C980.988,-137.13 1077.24,-117.657 1141.72,-104.613"/>
<polygon fill="black" stroke="black" points="1142.67,-107.99 1151.78,-102.576 1141.28,-101.129 1142.67,-107.99"/>
</g>
<!-- o0 -->
<g id="node13" class="node"><title>o0</title>
<a xlink:href="0005515" xlink:title="GO:0005515 (23)">
<ellipse fill="#e98576" stroke="#e98576" cx="1387" cy="-90" rx="79.4447" ry="18"/>
<text text-anchor="middle" x="1387" y="-85.8" font-family="Times,serif" font-size="14.00">GO:0005515 (23)</text>
</a>
</g>
<!-- b0&#45;&gt;o0 -->
<g id="edge10" class="edge"><title>b0&#45;&gt;o0</title>
<path fill="none" stroke="black" d="M1948.9,-156.162C1844.77,-148.603 1644.83,-132.296 1476,-108 1468.83,-106.968 1461.36,-105.757 1453.92,-104.465"/>
<polygon fill="black" stroke="black" points="1454.3,-100.977 1443.84,-102.661 1453.07,-107.868 1454.3,-100.977"/>
</g>
<!-- e0 -->
<g id="node15" class="node"><title>e0</title>
<a xlink:href="0001882" xlink:title="GO:0001882 (83)">
<ellipse fill="#e98576" stroke="#e98576" cx="1565" cy="-90" rx="79.4447" ry="18"/>
<text text-anchor="middle" x="1565" y="-85.8" font-family="Times,serif" font-size="14.00">GO:0001882 (83)</text>
</a>
</g>
<!-- b0&#45;&gt;e0 -->
<g id="edge12" class="edge"><title>b0&#45;&gt;e0</title>
<path fill="none" stroke="black" d="M1955.73,-152.583C1882.54,-142.791 1759.43,-125.693 1654,-108 1647.22,-106.863 1640.17,-105.619 1633.13,-104.338"/>
<polygon fill="black" stroke="black" points="1633.33,-100.816 1622.86,-102.443 1632.06,-107.699 1633.33,-100.816"/>
</g>
<!-- a0 -->
<g id="node28" class="node"><title>a0</title>
<a xlink:href="0043167" xlink:title="GO:0043167 (152)">
<ellipse fill="#e98576" stroke="#e98576" cx="1748" cy="-90" rx="84.1886" ry="18"/>
<text text-anchor="middle" x="1748" y="-85.8" font-family="Times,serif" font-size="14.00">GO:0043167 (152)</text>
</a>
</g>
<!-- b0&#45;&gt;a0 -->
<g id="edge24" class="edge"><title>b0&#45;&gt;a0</title>
<path fill="none" stroke="black" d="M1970.74,-148.324C1925.48,-136.676 1858.23,-119.368 1809.47,-106.819"/>
<polygon fill="black" stroke="black" points="1810.22,-103.399 1799.67,-104.296 1808.48,-110.178 1810.22,-103.399"/>
</g>
<!-- k0 -->
<g id="node37" class="node"><title>k0</title>
<a xlink:href="0003676" xlink:title="GO:0003676 (45)">
<ellipse fill="#e98576" stroke="#e98576" cx="1931" cy="-90" rx="79.4447" ry="18"/>
<text text-anchor="middle" x="1931" y="-85.8" font-family="Times,serif" font-size="14.00">GO:0003676 (45)</text>
</a>
</g>
<!-- b0&#45;&gt;k0 -->
<g id="edge34" class="edge"><title>b0&#45;&gt;k0</title>
<path fill="none" stroke="black" d="M1998.91,-144.411C1987.27,-135.257 1972.65,-123.755 1959.95,-113.772"/>
<polygon fill="black" stroke="black" points="1961.96,-110.901 1951.94,-107.47 1957.64,-116.403 1961.96,-110.901"/>
</g>
<!-- p0 -->
<g id="node40" class="node"><title>p0</title>
<a xlink:href="0046906" xlink:title="GO:0046906 (23)">
<ellipse fill="#e98576" stroke="#e98576" cx="2109" cy="-90" rx="79.4447" ry="18"/>
<text text-anchor="middle" x="2109" y="-85.8" font-family="Times,serif" font-size="14.00">GO:0046906 (23)</text>
</a>
</g>
<!-- b0&#45;&gt;p0 -->
<g id="edge38" class="edge"><title>b0&#45;&gt;p0</title>
<path fill="none" stroke="black" d="M2041.09,-144.411C2052.73,-135.257 2067.35,-123.755 2080.05,-113.772"/>
<polygon fill="black" stroke="black" points="2082.36,-116.403 2088.06,-107.47 2078.04,-110.901 2082.36,-116.403"/>
</g>
<!-- d0 -->
<g id="node42" class="node"><title>d0</title>
<a xlink:href="0000166" xlink:title="GO:0000166 (108)">
<ellipse fill="#e98576" stroke="#e98576" cx="2292" cy="-90" rx="84.1886" ry="18"/>
<text text-anchor="middle" x="2292" y="-85.8" font-family="Times,serif" font-size="14.00">GO:0000166 (108)</text>
</a>
</g>
<!-- b0&#45;&gt;d0 -->
<g id="edge40" class="edge"><title>b0&#45;&gt;d0</title>
<path fill="none" stroke="black" d="M2069.26,-148.324C2114.52,-136.676 2181.77,-119.368 2230.53,-106.819"/>
<polygon fill="black" stroke="black" points="2231.52,-110.178 2240.33,-104.296 2229.78,-103.399 2231.52,-110.178"/>
</g>
<!-- z0 -->
<g id="node50" class="node"><title>z0</title>
<a xlink:href="0003682" xlink:title="GO:0003682 (1)">
<ellipse fill="#e98576" stroke="#e98576" cx="2470" cy="-90" rx="75.2018" ry="18"/>
<text text-anchor="middle" x="2470" y="-85.8" font-family="Times,serif" font-size="14.00">GO:0003682 (1)</text>
</a>
</g>
<!-- b0&#45;&gt;z0 -->
<g id="edge48" class="edge"><title>b0&#45;&gt;z0</title>
<path fill="none" stroke="black" d="M2074.31,-149.553C2084.49,-147.575 2095.05,-145.633 2105,-144 2228.81,-123.684 2261.19,-128.316 2385,-108 2391.69,-106.903 2398.65,-105.666 2405.58,-104.373"/>
<polygon fill="black" stroke="black" points="2406.52,-107.757 2415.69,-102.447 2405.21,-100.881 2406.52,-107.757"/>
</g>
<!-- w0 -->
<g id="node53" class="node"><title>w0</title>
<a xlink:href="0051540" xlink:title="GO:0051540 (4)">
<ellipse fill="#e98576" stroke="#e98576" cx="2638" cy="-90" rx="75.2018" ry="18"/>
<text text-anchor="middle" x="2638" y="-85.8" font-family="Times,serif" font-size="14.00">GO:0051540 (4)</text>
</a>
</g>
<!-- b0&#45;&gt;w0 -->
<g id="edge52" class="edge"><title>b0&#45;&gt;w0</title>
<path fill="none" stroke="black" d="M2073.8,-149.25C2084.12,-147.278 2094.86,-145.415 2105,-144 2303.27,-116.322 2355.76,-135.905 2554,-108 2560.73,-107.052 2567.74,-105.902 2574.7,-104.65"/>
<polygon fill="black" stroke="black" points="2575.65,-108.033 2584.84,-102.757 2574.37,-101.152 2575.65,-108.033"/>
</g>
<!-- n0 -->
<g id="node55" class="node"><title>n0</title>
<a xlink:href="0048037" xlink:title="GO:0048037 (26)">
<ellipse fill="#e98576" stroke="#e98576" cx="2811" cy="-90" rx="79.4447" ry="18"/>
<text text-anchor="middle" x="2811" y="-85.8" font-family="Times,serif" font-size="14.00">GO:0048037 (26)</text>
</a>
</g>
<!-- b0&#45;&gt;n0 -->
<g id="edge54" class="edge"><title>b0&#45;&gt;n0</title>
<path fill="none" stroke="black" d="M2073.32,-149.158C2083.78,-147.169 2094.7,-145.324 2105,-144 2377.45,-108.98 2449.4,-141.84 2722,-108 2729.57,-107.06 2737.47,-105.865 2745.3,-104.547"/>
<polygon fill="black" stroke="black" points="2745.91,-107.994 2755.15,-102.82 2744.7,-101.099 2745.91,-107.994"/>
</g>
<!-- a1 -->
<g id="node19" class="node"><title>a1</title>
<a xlink:href="0004871" xlink:title="GO:0004871 (1)">
<ellipse fill="#e98576" stroke="#e98576" cx="2984" cy="-90" rx="75.2018" ry="18"/>
<text text-anchor="middle" x="2984" y="-85.8" font-family="Times,serif" font-size="14.00">GO:0004871 (1)</text>
</a>
</g>
<!-- b1&#45;&gt;a1 -->
<g id="edge16" class="edge"><title>b1&#45;&gt;a1</title>
<path fill="none" stroke="black" d="M2218.45,-149.143C2227.18,-147.13 2236.34,-145.279 2245,-144 2532.98,-101.471 2610.21,-144.638 2899,-108 2906.18,-107.088 2913.67,-105.919 2921.09,-104.62"/>
<polygon fill="black" stroke="black" points="2921.93,-108.025 2931.14,-102.782 2920.67,-101.139 2921.93,-108.025"/>
</g>
<!-- u0 -->
<g id="node22" class="node"><title>u0</title>
<a xlink:href="0008233" xlink:title="GO:0008233 (7)">
<ellipse fill="#e98576" stroke="#e98576" cx="517" cy="-18" rx="75.2018" ry="18"/>
<text text-anchor="middle" x="517" y="-13.8" font-family="Times,serif" font-size="14.00">GO:0008233 (7)</text>
</a>
</g>
<!-- i0&#45;&gt;u0 -->
<g id="edge18" class="edge"><title>i0&#45;&gt;u0</title>
<path fill="none" stroke="black" d="M517,-71.6966C517,-63.9827 517,-54.7125 517,-46.1124"/>
<polygon fill="black" stroke="black" points="520.5,-46.1043 517,-36.1043 513.5,-46.1044 520.5,-46.1043"/>
</g>
</g>
</svg>
