<?xml version="1.0" encoding="UTF-8" standalone="no"?>
<!DOCTYPE svg PUBLIC "-//W3C//DTD SVG 1.1//EN"
 "http://www.w3.org/Graphics/SVG/1.1/DTD/svg11.dtd">
<!-- Generated by graphviz version 2.28.0 (20110622.2320)
 -->
<!-- Title: G Pages: 1 -->
<svg width="2728pt" height="404pt"
 viewBox="0.00 0.00 2728.00 404.00" xmlns="http://www.w3.org/2000/svg" xmlns:xlink="http://www.w3.org/1999/xlink">
<g id="graph1" class="graph" transform="scale(1 1) rotate(0) translate(4 400)">
<title>G</title>
<polygon fill="white" stroke="white" points="-4,5 -4,-400 2725,-400 2725,5 -4,5"/>
<!-- b0 -->
<g id="node1" class="node"><title>b0</title>
<a xlink:href="0005488" xlink:title="GO:0005488">
<ellipse fill="#dddddd" stroke="#dddddd" cx="859" cy="-306" rx="61.1934" ry="18"/>
<text text-anchor="middle" x="859" y="-301.8" font-family="Times,serif" font-size="14.00">GO:0005488</text>
</a>
</g>
<!-- u0 -->
<g id="node3" class="node"><title>u0</title>
<a xlink:href="0008289" xlink:title="GO:0008289 (1)">
<ellipse fill="#e98576" stroke="#e98576" cx="75" cy="-234" rx="75.2018" ry="18"/>
<text text-anchor="middle" x="75" y="-229.8" font-family="Times,serif" font-size="14.00">GO:0008289 (1)</text>
</a>
</g>
<!-- b0&#45;&gt;u0 -->
<g id="edge2" class="edge"><title>b0&#45;&gt;u0</title>
<path fill="none" stroke="black" d="M798.337,-302.942C676.613,-298.255 394.108,-284.563 159,-252 152.266,-251.067 145.261,-249.926 138.295,-248.681"/>
<polygon fill="black" stroke="black" points="138.625,-245.182 128.153,-246.793 137.344,-252.064 138.625,-245.182"/>
</g>
<!-- z0 -->
<g id="node11" class="node"><title>z0</title>
<a xlink:href="0042277" xlink:title="GO:0042277 (1)">
<ellipse fill="#e98576" stroke="#e98576" cx="243" cy="-234" rx="75.2018" ry="18"/>
<text text-anchor="middle" x="243" y="-229.8" font-family="Times,serif" font-size="14.00">GO:0042277 (1)</text>
</a>
</g>
<!-- b0&#45;&gt;z0 -->
<g id="edge8" class="edge"><title>b0&#45;&gt;z0</title>
<path fill="none" stroke="black" d="M799.715,-301.046C701.2,-294.04 497.717,-277.712 327,-252 320.377,-251.002 313.486,-249.83 306.625,-248.575"/>
<polygon fill="black" stroke="black" points="307.107,-245.104 296.631,-246.688 305.808,-251.983 307.107,-245.104"/>
</g>
<!-- f0 -->
<g id="node20" class="node"><title>f0</title>
<a xlink:href="0001882" xlink:title="GO:0001882 (11)">
<ellipse fill="#e98576" stroke="#e98576" cx="416" cy="-234" rx="79.4447" ry="18"/>
<text text-anchor="middle" x="416" y="-229.8" font-family="Times,serif" font-size="14.00">GO:0001882 (11)</text>
</a>
</g>
<!-- b0&#45;&gt;f0 -->
<g id="edge16" class="edge"><title>b0&#45;&gt;f0</title>
<path fill="none" stroke="black" d="M804.614,-297.548C735.028,-287.856 610.829,-270.022 505,-252 498.228,-250.847 491.176,-249.592 484.137,-248.304"/>
<polygon fill="black" stroke="black" points="484.338,-244.782 473.868,-246.402 483.063,-251.665 484.338,-244.782"/>
</g>
<!-- e0 -->
<g id="node22" class="node"><title>e0</title>
<a xlink:href="0005515" xlink:title="GO:0005515 (13)">
<ellipse fill="#e98576" stroke="#e98576" cx="594" cy="-234" rx="79.4447" ry="18"/>
<text text-anchor="middle" x="594" y="-229.8" font-family="Times,serif" font-size="14.00">GO:0005515 (13)</text>
</a>
</g>
<!-- b0&#45;&gt;e0 -->
<g id="edge18" class="edge"><title>b0&#45;&gt;e0</title>
<path fill="none" stroke="black" d="M814.943,-293.362C770.745,-281.687 702.383,-263.629 653.409,-250.693"/>
<polygon fill="black" stroke="black" points="654.14,-247.266 643.578,-248.096 652.352,-254.034 654.14,-247.266"/>
</g>
<!-- a0 -->
<g id="node29" class="node"><title>a0</title>
<a xlink:href="0043167" xlink:title="GO:0043167 (16)">
<ellipse fill="#e98576" stroke="#e98576" cx="772" cy="-234" rx="79.4447" ry="18"/>
<text text-anchor="middle" x="772" y="-229.8" font-family="Times,serif" font-size="14.00">GO:0043167 (16)</text>
</a>
</g>
<!-- b0&#45;&gt;a0 -->
<g id="edge26" class="edge"><title>b0&#45;&gt;a0</title>
<path fill="none" stroke="black" d="M838.822,-288.765C827.457,-279.621 813.077,-268.05 800.57,-257.988"/>
<polygon fill="black" stroke="black" points="802.658,-255.175 792.673,-251.633 798.27,-260.629 802.658,-255.175"/>
</g>
<!-- i0 -->
<g id="node37" class="node"><title>i0</title>
<a xlink:href="0003676" xlink:title="GO:0003676 (7)">
<ellipse fill="#e98576" stroke="#e98576" cx="945" cy="-234" rx="75.2018" ry="18"/>
<text text-anchor="middle" x="945" y="-229.8" font-family="Times,serif" font-size="14.00">GO:0003676 (7)</text>
</a>
</g>
<!-- b0&#45;&gt;i0 -->
<g id="edge36" class="edge"><title>b0&#45;&gt;i0</title>
<path fill="none" stroke="black" d="M878.946,-288.765C890.262,-279.554 904.602,-267.882 917.027,-257.769"/>
<polygon fill="black" stroke="black" points="919.318,-260.417 924.864,-251.39 914.899,-254.988 919.318,-260.417"/>
</g>
<!-- d0 -->
<g id="node41" class="node"><title>d0</title>
<a xlink:href="0000166" xlink:title="GO:0000166 (15)">
<ellipse fill="#e98576" stroke="#e98576" cx="1118" cy="-234" rx="79.4447" ry="18"/>
<text text-anchor="middle" x="1118" y="-229.8" font-family="Times,serif" font-size="14.00">GO:0000166 (15)</text>
</a>
</g>
<!-- b0&#45;&gt;d0 -->
<g id="edge40" class="edge"><title>b0&#45;&gt;d0</title>
<path fill="none" stroke="black" d="M902.351,-293.284C945.238,-281.692 1011.2,-263.866 1058.87,-250.98"/>
<polygon fill="black" stroke="black" points="1060.02,-254.297 1068.76,-248.309 1058.19,-247.539 1060.02,-254.297"/>
</g>
<!-- r0 -->
<g id="node49" class="node"><title>r0</title>
<a xlink:href="0003682" xlink:title="GO:0003682 (2)">
<ellipse fill="#e98576" stroke="#e98576" cx="1291" cy="-234" rx="75.2018" ry="18"/>
<text text-anchor="middle" x="1291" y="-229.8" font-family="Times,serif" font-size="14.00">GO:0003682 (2)</text>
</a>
</g>
<!-- b0&#45;&gt;r0 -->
<g id="edge48" class="edge"><title>b0&#45;&gt;r0</title>
<path fill="none" stroke="black" d="M913.22,-297.503C981.615,-287.866 1102.77,-270.196 1206,-252 1212.57,-250.842 1219.42,-249.574 1226.24,-248.271"/>
<polygon fill="black" stroke="black" points="1227.05,-251.68 1236.2,-246.343 1225.72,-244.808 1227.05,-251.68"/>
</g>
<!-- l0 -->
<g id="node51" class="node"><title>l0</title>
<a xlink:href="0048037" xlink:title="GO:0048037 (4)">
<ellipse fill="#e98576" stroke="#e98576" cx="1459" cy="-234" rx="75.2018" ry="18"/>
<text text-anchor="middle" x="1459" y="-229.8" font-family="Times,serif" font-size="14.00">GO:0048037 (4)</text>
</a>
</g>
<!-- b0&#45;&gt;l0 -->
<g id="edge50" class="edge"><title>b0&#45;&gt;l0</title>
<path fill="none" stroke="black" d="M918.049,-300.815C1014.17,-293.581 1210.3,-277.064 1375,-252 1381.62,-250.992 1388.51,-249.813 1395.37,-248.555"/>
<polygon fill="black" stroke="black" points="1396.19,-251.962 1405.36,-246.664 1394.89,-245.084 1396.19,-251.962"/>
</g>
<!-- c0 -->
<g id="node4" class="node"><title>c0</title>
<a xlink:href="0003674" xlink:title="GO:0003674 (4)">
<ellipse fill="#e98576" stroke="#e98576" cx="2138" cy="-378" rx="75.2018" ry="18"/>
<text text-anchor="middle" x="2138" y="-373.8" font-family="Times,serif" font-size="14.00">GO:0003674 (4)</text>
</a>
</g>
<!-- c0&#45;&gt;b0 -->
<g id="edge22" class="edge"><title>c0&#45;&gt;b0</title>
<path fill="none" stroke="black" d="M2065.57,-373.036C1839.81,-360.68 1150.74,-322.967 928.723,-310.816"/>
<polygon fill="black" stroke="black" points="928.684,-307.309 918.508,-310.257 928.302,-314.298 928.684,-307.309"/>
</g>
<!-- p0 -->
<g id="node6" class="node"><title>p0</title>
<a xlink:href="0030234" xlink:title="GO:0030234 (2)">
<ellipse fill="#e98576" stroke="#e98576" cx="1886" cy="-306" rx="75.2018" ry="18"/>
<text text-anchor="middle" x="1886" y="-301.8" font-family="Times,serif" font-size="14.00">GO:0030234 (2)</text>
</a>
</g>
<!-- c0&#45;&gt;p0 -->
<g id="edge4" class="edge"><title>c0&#45;&gt;p0</title>
<path fill="none" stroke="black" d="M2090.9,-363.916C2049.05,-352.29 1987.76,-335.267 1943.13,-322.868"/>
<polygon fill="black" stroke="black" points="1943.87,-319.443 1933.3,-320.139 1942,-326.188 1943.87,-319.443"/>
</g>
<!-- h0 -->
<g id="node7" class="node"><title>h0</title>
<a xlink:href="0003824" xlink:title="GO:0003824 (2)">
<ellipse fill="#e98576" stroke="#e98576" cx="2054" cy="-306" rx="75.2018" ry="18"/>
<text text-anchor="middle" x="2054" y="-301.8" font-family="Times,serif" font-size="14.00">GO:0003824 (2)</text>
</a>
</g>
<!-- c0&#45;&gt;h0 -->
<g id="edge14" class="edge"><title>c0&#45;&gt;h0</title>
<path fill="none" stroke="black" d="M2118.09,-360.411C2107.21,-351.345 2093.57,-339.974 2081.67,-330.057"/>
<polygon fill="black" stroke="black" points="2083.69,-327.183 2073.76,-323.47 2079.21,-332.561 2083.69,-327.183"/>
</g>
<!-- y0 -->
<g id="node24" class="node"><title>y0</title>
<a xlink:href="0003774" xlink:title="GO:0003774 (1)">
<ellipse fill="#e98576" stroke="#e98576" cx="2222" cy="-306" rx="75.2018" ry="18"/>
<text text-anchor="middle" x="2222" y="-301.8" font-family="Times,serif" font-size="14.00">GO:0003774 (1)</text>
</a>
</g>
<!-- c0&#45;&gt;y0 -->
<g id="edge20" class="edge"><title>c0&#45;&gt;y0</title>
<path fill="none" stroke="black" d="M2157.91,-360.411C2168.79,-351.345 2182.43,-339.974 2194.33,-330.057"/>
<polygon fill="black" stroke="black" points="2196.79,-332.561 2202.24,-323.47 2192.31,-327.183 2196.79,-332.561"/>
</g>
<!-- s0 -->
<g id="node27" class="node"><title>s0</title>
<a xlink:href="0005215" xlink:title="GO:0005215 (1)">
<ellipse fill="#e98576" stroke="#e98576" cx="2390" cy="-306" rx="75.2018" ry="18"/>
<text text-anchor="middle" x="2390" y="-301.8" font-family="Times,serif" font-size="14.00">GO:0005215 (1)</text>
</a>
</g>
<!-- c0&#45;&gt;s0 -->
<g id="edge24" class="edge"><title>c0&#45;&gt;s0</title>
<path fill="none" stroke="black" d="M2185.1,-363.916C2226.95,-352.29 2288.24,-335.267 2332.87,-322.868"/>
<polygon fill="black" stroke="black" points="2334,-326.188 2342.7,-320.139 2332.13,-319.443 2334,-326.188"/>
</g>
<!-- k0 -->
<g id="node45" class="node"><title>k0</title>
<a xlink:href="0005198" xlink:title="GO:0005198 (4)">
<ellipse fill="#e98576" stroke="#e98576" cx="2558" cy="-306" rx="75.2018" ry="18"/>
<text text-anchor="middle" x="2558" y="-301.8" font-family="Times,serif" font-size="14.00">GO:0005198 (4)</text>
</a>
</g>
<!-- c0&#45;&gt;k0 -->
<g id="edge44" class="edge"><title>c0&#45;&gt;k0</title>
<path fill="none" stroke="black" d="M2200.68,-367.94C2268.27,-357.978 2378.97,-341.102 2474,-324 2480.25,-322.876 2486.74,-321.654 2493.23,-320.399"/>
<polygon fill="black" stroke="black" points="2494.25,-323.766 2503.39,-318.408 2492.9,-316.897 2494.25,-323.766"/>
</g>
<!-- o0 -->
<g id="node9" class="node"><title>o0</title>
<a xlink:href="0016853" xlink:title="GO:0016853 (2)">
<ellipse fill="#e98576" stroke="#e98576" cx="1627" cy="-234" rx="75.2018" ry="18"/>
<text text-anchor="middle" x="1627" y="-229.8" font-family="Times,serif" font-size="14.00">GO:0016853 (2)</text>
</a>
</g>
<!-- h0&#45;&gt;o0 -->
<g id="edge6" class="edge"><title>h0&#45;&gt;o0</title>
<path fill="none" stroke="black" d="M1999.42,-293.446C1989.64,-291.522 1979.53,-289.626 1970,-288 1855.44,-268.464 1825.56,-271.536 1711,-252 1704.74,-250.933 1698.24,-249.75 1691.74,-248.518"/>
<polygon fill="black" stroke="black" points="1692.07,-245.016 1681.58,-246.554 1690.74,-251.888 1692.07,-245.016"/>
</g>
<!-- n0 -->
<g id="node12" class="node"><title>n0</title>
<a xlink:href="0016874" xlink:title="GO:0016874 (2)">
<ellipse fill="#e98576" stroke="#e98576" cx="1795" cy="-234" rx="75.2018" ry="18"/>
<text text-anchor="middle" x="1795" y="-229.8" font-family="Times,serif" font-size="14.00">GO:0016874 (2)</text>
</a>
</g>
<!-- h0&#45;&gt;n0 -->
<g id="edge34" class="edge"><title>h0&#45;&gt;n0</title>
<path fill="none" stroke="black" d="M2006.19,-292.079C1962.89,-280.376 1898.99,-263.105 1852.83,-250.629"/>
<polygon fill="black" stroke="black" points="1853.53,-247.194 1842.97,-247.964 1851.71,-253.952 1853.53,-247.194"/>
</g>
<!-- g0 -->
<g id="node31" class="node"><title>g0</title>
<a xlink:href="0016787" xlink:title="GO:0016787 (10)">
<ellipse fill="#e98576" stroke="#e98576" cx="1968" cy="-234" rx="79.4447" ry="18"/>
<text text-anchor="middle" x="1968" y="-229.8" font-family="Times,serif" font-size="14.00">GO:0016787 (10)</text>
</a>
</g>
<!-- h0&#45;&gt;g0 -->
<g id="edge28" class="edge"><title>h0&#45;&gt;g0</title>
<path fill="none" stroke="black" d="M2033.62,-288.411C2022.48,-279.345 2008.51,-267.974 1996.33,-258.057"/>
<polygon fill="black" stroke="black" points="1998.2,-255.068 1988.23,-251.47 1993.78,-260.497 1998.2,-255.068"/>
</g>
<!-- j0 -->
<g id="node34" class="node"><title>j0</title>
<a xlink:href="0016740" xlink:title="GO:0016740 (6)">
<ellipse fill="#e98576" stroke="#e98576" cx="2141" cy="-234" rx="75.2018" ry="18"/>
<text text-anchor="middle" x="2141" y="-229.8" font-family="Times,serif" font-size="14.00">GO:0016740 (6)</text>
</a>
</g>
<!-- h0&#45;&gt;j0 -->
<g id="edge32" class="edge"><title>h0&#45;&gt;j0</title>
<path fill="none" stroke="black" d="M2074.62,-288.411C2085.99,-279.257 2100.29,-267.755 2112.7,-257.772"/>
<polygon fill="black" stroke="black" points="2114.93,-260.466 2120.53,-251.47 2110.54,-255.012 2114.93,-260.466"/>
</g>
<!-- m0 -->
<g id="node39" class="node"><title>m0</title>
<a xlink:href="0016491" xlink:title="GO:0016491 (4)">
<ellipse fill="#e98576" stroke="#e98576" cx="2309" cy="-234" rx="75.2018" ry="18"/>
<text text-anchor="middle" x="2309" y="-229.8" font-family="Times,serif" font-size="14.00">GO:0016491 (4)</text>
</a>
</g>
<!-- h0&#45;&gt;m0 -->
<g id="edge38" class="edge"><title>h0&#45;&gt;m0</title>
<path fill="none" stroke="black" d="M2101.37,-291.998C2143.9,-280.321 2206.45,-263.151 2251.77,-250.71"/>
<polygon fill="black" stroke="black" points="2252.74,-254.074 2261.46,-248.051 2250.89,-247.323 2252.74,-254.074"/>
</g>
<!-- t0 -->
<g id="node43" class="node"><title>t0</title>
<a xlink:href="0004386" xlink:title="GO:0004386 (1)">
<ellipse fill="#e98576" stroke="#e98576" cx="2477" cy="-234" rx="75.2018" ry="18"/>
<text text-anchor="middle" x="2477" y="-229.8" font-family="Times,serif" font-size="14.00">GO:0004386 (1)</text>
</a>
</g>
<!-- h0&#45;&gt;t0 -->
<g id="edge42" class="edge"><title>h0&#45;&gt;t0</title>
<path fill="none" stroke="black" d="M2108.59,-293.463C2118.36,-291.537 2128.47,-289.636 2138,-288 2250.81,-268.64 2280.19,-271.36 2393,-252 2399.26,-250.926 2405.76,-249.739 2412.25,-248.505"/>
<polygon fill="black" stroke="black" points="2413.26,-251.874 2422.41,-246.537 2411.93,-245.002 2413.26,-251.874"/>
</g>
<!-- q0 -->
<g id="node47" class="node"><title>q0</title>
<a xlink:href="0016829" xlink:title="GO:0016829 (2)">
<ellipse fill="#e98576" stroke="#e98576" cx="2645" cy="-234" rx="75.2018" ry="18"/>
<text text-anchor="middle" x="2645" y="-229.8" font-family="Times,serif" font-size="14.00">GO:0016829 (2)</text>
</a>
</g>
<!-- h0&#45;&gt;q0 -->
<g id="edge46" class="edge"><title>h0&#45;&gt;q0</title>
<path fill="none" stroke="black" d="M2107.16,-293.283C2117.36,-291.307 2127.98,-289.435 2138,-288 2324.77,-261.243 2374.23,-278.757 2561,-252 2567.73,-251.036 2574.73,-249.875 2581.7,-248.617"/>
<polygon fill="black" stroke="black" points="2582.65,-251.999 2591.84,-246.717 2581.36,-245.119 2582.65,-251.999"/>
</g>
<!-- x0 -->
<g id="node14" class="node"><title>x0</title>
<a xlink:href="0016879" xlink:title="GO:0016879">
<ellipse fill="#dddddd" stroke="#dddddd" cx="1795" cy="-162" rx="61.1934" ry="18"/>
<text text-anchor="middle" x="1795" y="-157.8" font-family="Times,serif" font-size="14.00">GO:0016879</text>
</a>
</g>
<!-- n0&#45;&gt;x0 -->
<g id="edge10" class="edge"><title>n0&#45;&gt;x0</title>
<path fill="none" stroke="black" d="M1795,-215.697C1795,-207.983 1795,-198.712 1795,-190.112"/>
<polygon fill="black" stroke="black" points="1798.5,-190.104 1795,-180.104 1791.5,-190.104 1798.5,-190.104"/>
</g>
<!-- w0 -->
<g id="node15" class="node"><title>w0</title>
<a xlink:href="0016881" xlink:title="GO:0016881">
<ellipse fill="#dddddd" stroke="#dddddd" cx="1795" cy="-90" rx="61.1934" ry="18"/>
<text text-anchor="middle" x="1795" y="-85.8" font-family="Times,serif" font-size="14.00">GO:0016881</text>
</a>
</g>
<!-- x0&#45;&gt;w0 -->
<g id="edge30" class="edge"><title>x0&#45;&gt;w0</title>
<path fill="none" stroke="black" d="M1795,-143.697C1795,-135.983 1795,-126.712 1795,-118.112"/>
<polygon fill="black" stroke="black" points="1798.5,-118.104 1795,-108.104 1791.5,-118.104 1798.5,-118.104"/>
</g>
<!-- v0 -->
<g id="node17" class="node"><title>v0</title>
<a xlink:href="0019787" xlink:title="GO:0019787 (1)">
<ellipse fill="#e98576" stroke="#e98576" cx="1795" cy="-18" rx="75.2018" ry="18"/>
<text text-anchor="middle" x="1795" y="-13.8" font-family="Times,serif" font-size="14.00">GO:0019787 (1)</text>
</a>
</g>
<!-- w0&#45;&gt;v0 -->
<g id="edge12" class="edge"><title>w0&#45;&gt;v0</title>
<path fill="none" stroke="black" d="M1795,-71.6966C1795,-63.9827 1795,-54.7125 1795,-46.1124"/>
<polygon fill="black" stroke="black" points="1798.5,-46.1043 1795,-36.1043 1791.5,-46.1044 1798.5,-46.1043"/>
</g>
</g>
</svg>
