<?xml version="1.0" encoding="UTF-8" standalone="no"?>
<!DOCTYPE svg PUBLIC "-//W3C//DTD SVG 1.1//EN"
 "http://www.w3.org/Graphics/SVG/1.1/DTD/svg11.dtd">
<!-- Generated by graphviz version 2.28.0 (20110622.2320)
 -->
<!-- Title: G Pages: 1 -->
<svg width="998pt" height="188pt"
 viewBox="0.00 0.00 998.00 188.00" xmlns="http://www.w3.org/2000/svg" xmlns:xlink="http://www.w3.org/1999/xlink">
<g id="graph1" class="graph" transform="scale(1 1) rotate(0) translate(4 184)">
<title>G</title>
<polygon fill="white" stroke="white" points="-4,5 -4,-184 995,-184 995,5 -4,5"/>
<!-- b0 -->
<g id="node1" class="node"><title>b0</title>
<a xlink:href="0005488" xlink:title="GO:0005488">
<ellipse fill="#dddddd" stroke="#dddddd" cx="495" cy="-90" rx="61.1934" ry="18"/>
<text text-anchor="middle" x="495" y="-85.8" font-family="Times,serif" font-size="14.00">GO:0005488</text>
</a>
</g>
<!-- a0 -->
<g id="node3" class="node"><title>a0</title>
<a xlink:href="0043167" xlink:title="GO:0043167 (2)">
<ellipse fill="#e98576" stroke="#e98576" cx="75" cy="-18" rx="75.2018" ry="18"/>
<text text-anchor="middle" x="75" y="-13.8" font-family="Times,serif" font-size="14.00">GO:0043167 (2)</text>
</a>
</g>
<!-- b0&#45;&gt;a0 -->
<g id="edge2" class="edge"><title>b0&#45;&gt;a0</title>
<path fill="none" stroke="black" d="M441.342,-81.267C374.916,-71.5257 258.387,-53.8869 159,-36 152.754,-34.8758 146.257,-33.6543 139.766,-32.399"/>
<polygon fill="black" stroke="black" points="140.095,-28.897 129.608,-30.4079 138.748,-35.7663 140.095,-28.897"/>
</g>
<!-- g0 -->
<g id="node10" class="node"><title>g0</title>
<a xlink:href="0005515" xlink:title="GO:0005515 (1)">
<ellipse fill="#e98576" stroke="#e98576" cx="243" cy="-18" rx="75.2018" ry="18"/>
<text text-anchor="middle" x="243" y="-13.8" font-family="Times,serif" font-size="14.00">GO:0005515 (1)</text>
</a>
</g>
<!-- b0&#45;&gt;g0 -->
<g id="edge8" class="edge"><title>b0&#45;&gt;g0</title>
<path fill="none" stroke="black" d="M451.966,-77.0461C410.057,-65.4048 346.105,-47.6401 299.988,-34.83"/>
<polygon fill="black" stroke="black" points="300.713,-31.3988 290.141,-32.0946 298.839,-38.1434 300.713,-31.3988"/>
</g>
<!-- d0 -->
<g id="node12" class="node"><title>d0</title>
<a xlink:href="0003676" xlink:title="GO:0003676 (2)">
<ellipse fill="#e98576" stroke="#e98576" cx="411" cy="-18" rx="75.2018" ry="18"/>
<text text-anchor="middle" x="411" y="-13.8" font-family="Times,serif" font-size="14.00">GO:0003676 (2)</text>
</a>
</g>
<!-- b0&#45;&gt;d0 -->
<g id="edge10" class="edge"><title>b0&#45;&gt;d0</title>
<path fill="none" stroke="black" d="M475.518,-72.7646C464.57,-63.642 450.725,-52.1046 438.67,-42.0585"/>
<polygon fill="black" stroke="black" points="440.591,-39.1029 430.668,-35.3898 436.109,-44.4805 440.591,-39.1029"/>
</g>
<!-- f0 -->
<g id="node15" class="node"><title>f0</title>
<a xlink:href="0000166" xlink:title="GO:0000166 (1)">
<ellipse fill="#e98576" stroke="#e98576" cx="579" cy="-18" rx="75.2018" ry="18"/>
<text text-anchor="middle" x="579" y="-13.8" font-family="Times,serif" font-size="14.00">GO:0000166 (1)</text>
</a>
</g>
<!-- b0&#45;&gt;f0 -->
<g id="edge14" class="edge"><title>b0&#45;&gt;f0</title>
<path fill="none" stroke="black" d="M514.482,-72.7646C525.43,-63.642 539.275,-52.1046 551.33,-42.0585"/>
<polygon fill="black" stroke="black" points="553.891,-44.4805 559.332,-35.3898 549.409,-39.1029 553.891,-44.4805"/>
</g>
<!-- e0 -->
<g id="node17" class="node"><title>e0</title>
<a xlink:href="0003682" xlink:title="GO:0003682 (2)">
<ellipse fill="#e98576" stroke="#e98576" cx="747" cy="-18" rx="75.2018" ry="18"/>
<text text-anchor="middle" x="747" y="-13.8" font-family="Times,serif" font-size="14.00">GO:0003682 (2)</text>
</a>
</g>
<!-- b0&#45;&gt;e0 -->
<g id="edge16" class="edge"><title>b0&#45;&gt;e0</title>
<path fill="none" stroke="black" d="M538.034,-77.0461C579.943,-65.4048 643.895,-47.6401 690.012,-34.83"/>
<polygon fill="black" stroke="black" points="691.161,-38.1434 699.859,-32.0946 689.287,-31.3988 691.161,-38.1434"/>
</g>
<!-- c0 -->
<g id="node4" class="node"><title>c0</title>
<a xlink:href="0003674" xlink:title="GO:0003674 (2)">
<ellipse fill="#e98576" stroke="#e98576" cx="656" cy="-162" rx="75.2018" ry="18"/>
<text text-anchor="middle" x="656" y="-157.8" font-family="Times,serif" font-size="14.00">GO:0003674 (2)</text>
</a>
</g>
<!-- c0&#45;&gt;b0 -->
<g id="edge12" class="edge"><title>c0&#45;&gt;b0</title>
<path fill="none" stroke="black" d="M621.461,-145.983C596.774,-135.25 563.414,-120.745 537.156,-109.329"/>
<polygon fill="black" stroke="black" points="538.399,-106.053 527.832,-105.275 535.608,-112.472 538.399,-106.053"/>
</g>
<!-- i0 -->
<g id="node6" class="node"><title>i0</title>
<a xlink:href="0003824" xlink:title="GO:0003824">
<ellipse fill="#dddddd" stroke="#dddddd" cx="817" cy="-90" rx="61.1934" ry="18"/>
<text text-anchor="middle" x="817" y="-85.8" font-family="Times,serif" font-size="14.00">GO:0003824</text>
</a>
</g>
<!-- c0&#45;&gt;i0 -->
<g id="edge4" class="edge"><title>c0&#45;&gt;i0</title>
<path fill="none" stroke="black" d="M690.539,-145.983C715.226,-135.25 748.586,-120.745 774.844,-109.329"/>
<polygon fill="black" stroke="black" points="776.392,-112.472 784.168,-105.275 773.601,-106.053 776.392,-112.472"/>
</g>
<!-- h0 -->
<g id="node8" class="node"><title>h0</title>
<a xlink:href="0016740" xlink:title="GO:0016740 (1)">
<ellipse fill="#e98576" stroke="#e98576" cx="915" cy="-18" rx="75.2018" ry="18"/>
<text text-anchor="middle" x="915" y="-13.8" font-family="Times,serif" font-size="14.00">GO:0016740 (1)</text>
</a>
</g>
<!-- i0&#45;&gt;h0 -->
<g id="edge6" class="edge"><title>i0&#45;&gt;h0</title>
<path fill="none" stroke="black" d="M839.238,-73.1159C852.456,-63.6744 869.422,-51.5556 883.947,-41.1807"/>
<polygon fill="black" stroke="black" points="886.067,-43.9675 892.17,-35.307 881.999,-38.2713 886.067,-43.9675"/>
</g>
</g>
</svg>
