<?xml version="1.0" encoding="UTF-8" standalone="no"?>
<!DOCTYPE svg PUBLIC "-//W3C//DTD SVG 1.1//EN"
 "http://www.w3.org/Graphics/SVG/1.1/DTD/svg11.dtd">
<!-- Generated by graphviz version 2.28.0 (20110622.2320)
 -->
<!-- Title: G Pages: 1 -->
<svg width="3054pt" height="404pt"
 viewBox="0.00 0.00 3054.00 404.00" xmlns="http://www.w3.org/2000/svg" xmlns:xlink="http://www.w3.org/1999/xlink">
<g id="graph1" class="graph" transform="scale(1 1) rotate(0) translate(4 400)">
<title>G</title>
<polygon fill="white" stroke="white" points="-4,5 -4,-400 3051,-400 3051,5 -4,5"/>
<!-- b0 -->
<g id="node1" class="node"><title>b0</title>
<a xlink:href="0005488" xlink:title="GO:0005488">
<ellipse fill="#dddddd" stroke="#dddddd" cx="1017" cy="-306" rx="61.1934" ry="18"/>
<text text-anchor="middle" x="1017" y="-301.8" font-family="Times,serif" font-size="14.00">GO:0005488</text>
</a>
</g>
<!-- w0 -->
<g id="node3" class="node"><title>w0</title>
<a xlink:href="0008289" xlink:title="GO:0008289 (1)">
<ellipse fill="#e98576" stroke="#e98576" cx="75" cy="-234" rx="75.2018" ry="18"/>
<text text-anchor="middle" x="75" y="-229.8" font-family="Times,serif" font-size="14.00">GO:0008289 (1)</text>
</a>
</g>
<!-- b0&#45;&gt;w0 -->
<g id="edge2" class="edge"><title>b0&#45;&gt;w0</title>
<path fill="none" stroke="black" d="M955.866,-304.115C814.835,-301.444 456.049,-291.043 159,-252 152.26,-251.114 145.251,-250.003 138.282,-248.775"/>
<polygon fill="black" stroke="black" points="138.607,-245.276 128.138,-246.906 137.338,-252.16 138.607,-245.276"/>
</g>
<!-- d1 -->
<g id="node11" class="node"><title>d1</title>
<a xlink:href="0042277" xlink:title="GO:0042277 (1)">
<ellipse fill="#e98576" stroke="#e98576" cx="243" cy="-234" rx="75.2018" ry="18"/>
<text text-anchor="middle" x="243" y="-229.8" font-family="Times,serif" font-size="14.00">GO:0042277 (1)</text>
</a>
</g>
<!-- b0&#45;&gt;d1 -->
<g id="edge8" class="edge"><title>b0&#45;&gt;d1</title>
<path fill="none" stroke="black" d="M956.277,-302.847C835.79,-298.022 558.156,-284.144 327,-252 320.267,-251.064 313.262,-249.92 306.296,-248.673"/>
<polygon fill="black" stroke="black" points="306.627,-245.175 296.155,-246.784 305.345,-252.056 306.627,-245.175"/>
</g>
<!-- g0 -->
<g id="node20" class="node"><title>g0</title>
<a xlink:href="0001882" xlink:title="GO:0001882 (8)">
<ellipse fill="#e98576" stroke="#e98576" cx="411" cy="-234" rx="75.2018" ry="18"/>
<text text-anchor="middle" x="411" y="-229.8" font-family="Times,serif" font-size="14.00">GO:0001882 (8)</text>
</a>
</g>
<!-- b0&#45;&gt;g0 -->
<g id="edge16" class="edge"><title>b0&#45;&gt;g0</title>
<path fill="none" stroke="black" d="M958.05,-300.917C861.097,-293.776 662.065,-277.324 495,-252 488.378,-250.996 481.487,-249.82 474.627,-248.562"/>
<polygon fill="black" stroke="black" points="475.11,-245.092 464.634,-246.673 473.809,-251.97 475.11,-245.092"/>
</g>
<!-- a0 -->
<g id="node22" class="node"><title>a0</title>
<a xlink:href="0005515" xlink:title="GO:0005515 (23)">
<ellipse fill="#e98576" stroke="#e98576" cx="584" cy="-234" rx="79.4447" ry="18"/>
<text text-anchor="middle" x="584" y="-229.8" font-family="Times,serif" font-size="14.00">GO:0005515 (23)</text>
</a>
</g>
<!-- b0&#45;&gt;a0 -->
<g id="edge18" class="edge"><title>b0&#45;&gt;a0</title>
<path fill="none" stroke="black" d="M963.276,-297.332C895.501,-287.518 775.422,-269.666 673,-252 666.23,-250.832 659.18,-249.568 652.142,-248.275"/>
<polygon fill="black" stroke="black" points="652.345,-244.753 641.874,-246.366 651.066,-251.635 652.345,-244.753"/>
</g>
<!-- p0 -->
<g id="node24" class="node"><title>p0</title>
<a xlink:href="0008144" xlink:title="GO:0008144 (2)">
<ellipse fill="#e98576" stroke="#e98576" cx="757" cy="-234" rx="75.2018" ry="18"/>
<text text-anchor="middle" x="757" y="-229.8" font-family="Times,serif" font-size="14.00">GO:0008144 (2)</text>
</a>
</g>
<!-- b0&#45;&gt;p0 -->
<g id="edge20" class="edge"><title>b0&#45;&gt;p0</title>
<path fill="none" stroke="black" d="M973.482,-293.284C930.024,-281.583 862.969,-263.53 815.008,-250.618"/>
<polygon fill="black" stroke="black" points="815.645,-247.164 805.079,-247.944 813.825,-253.924 815.645,-247.164"/>
</g>
<!-- e0 -->
<g id="node34" class="node"><title>e0</title>
<a xlink:href="0043167" xlink:title="GO:0043167 (14)">
<ellipse fill="#e98576" stroke="#e98576" cx="930" cy="-234" rx="79.4447" ry="18"/>
<text text-anchor="middle" x="930" y="-229.8" font-family="Times,serif" font-size="14.00">GO:0043167 (14)</text>
</a>
</g>
<!-- b0&#45;&gt;e0 -->
<g id="edge30" class="edge"><title>b0&#45;&gt;e0</title>
<path fill="none" stroke="black" d="M996.822,-288.765C985.457,-279.621 971.077,-268.05 958.57,-257.988"/>
<polygon fill="black" stroke="black" points="960.658,-255.175 950.673,-251.633 956.27,-260.629 960.658,-255.175"/>
</g>
<!-- s0 -->
<g id="node41" class="node"><title>s0</title>
<a xlink:href="0030246" xlink:title="GO:0030246 (2)">
<ellipse fill="#e98576" stroke="#e98576" cx="1103" cy="-234" rx="75.2018" ry="18"/>
<text text-anchor="middle" x="1103" y="-229.8" font-family="Times,serif" font-size="14.00">GO:0030246 (2)</text>
</a>
</g>
<!-- b0&#45;&gt;s0 -->
<g id="edge38" class="edge"><title>b0&#45;&gt;s0</title>
<path fill="none" stroke="black" d="M1036.95,-288.765C1048.26,-279.554 1062.6,-267.882 1075.03,-257.769"/>
<polygon fill="black" stroke="black" points="1077.32,-260.417 1082.86,-251.39 1072.9,-254.988 1077.32,-260.417"/>
</g>
<!-- d0 -->
<g id="node46" class="node"><title>d0</title>
<a xlink:href="0003676" xlink:title="GO:0003676 (17)">
<ellipse fill="#e98576" stroke="#e98576" cx="1276" cy="-234" rx="79.4447" ry="18"/>
<text text-anchor="middle" x="1276" y="-229.8" font-family="Times,serif" font-size="14.00">GO:0003676 (17)</text>
</a>
</g>
<!-- b0&#45;&gt;d0 -->
<g id="edge44" class="edge"><title>b0&#45;&gt;d0</title>
<path fill="none" stroke="black" d="M1060.35,-293.284C1103.24,-281.692 1169.2,-263.866 1216.87,-250.98"/>
<polygon fill="black" stroke="black" points="1218.02,-254.297 1226.76,-248.309 1216.19,-247.539 1218.02,-254.297"/>
</g>
<!-- f0 -->
<g id="node49" class="node"><title>f0</title>
<a xlink:href="0000166" xlink:title="GO:0000166 (11)">
<ellipse fill="#e98576" stroke="#e98576" cx="1454" cy="-234" rx="79.4447" ry="18"/>
<text text-anchor="middle" x="1454" y="-229.8" font-family="Times,serif" font-size="14.00">GO:0000166 (11)</text>
</a>
</g>
<!-- b0&#45;&gt;f0 -->
<g id="edge48" class="edge"><title>b0&#45;&gt;f0</title>
<path fill="none" stroke="black" d="M1070.89,-297.367C1139.2,-287.556 1260.53,-269.669 1364,-252 1371,-250.804 1378.31,-249.507 1385.59,-248.182"/>
<polygon fill="black" stroke="black" points="1386.27,-251.615 1395.47,-246.363 1385.01,-244.73 1386.27,-251.615"/>
</g>
<!-- c1 -->
<g id="node57" class="node"><title>c1</title>
<a xlink:href="0003682" xlink:title="GO:0003682 (1)">
<ellipse fill="#e98576" stroke="#e98576" cx="1627" cy="-234" rx="75.2018" ry="18"/>
<text text-anchor="middle" x="1627" y="-229.8" font-family="Times,serif" font-size="14.00">GO:0003682 (1)</text>
</a>
</g>
<!-- b0&#45;&gt;c1 -->
<g id="edge56" class="edge"><title>b0&#45;&gt;c1</title>
<path fill="none" stroke="black" d="M1075.89,-300.924C1173.24,-293.767 1373.72,-277.261 1542,-252 1548.8,-250.979 1555.88,-249.781 1562.92,-248.502"/>
<polygon fill="black" stroke="black" points="1563.99,-251.862 1573.18,-246.581 1562.71,-244.982 1563.99,-251.862"/>
</g>
<!-- a1 -->
<g id="node59" class="node"><title>a1</title>
<a xlink:href="0048037" xlink:title="GO:0048037 (1)">
<ellipse fill="#e98576" stroke="#e98576" cx="1795" cy="-234" rx="75.2018" ry="18"/>
<text text-anchor="middle" x="1795" y="-229.8" font-family="Times,serif" font-size="14.00">GO:0048037 (1)</text>
</a>
</g>
<!-- b0&#45;&gt;a1 -->
<g id="edge58" class="edge"><title>b0&#45;&gt;a1</title>
<path fill="none" stroke="black" d="M1077.61,-302.889C1198.54,-298.123 1478.2,-284.32 1711,-252 1717.73,-251.065 1724.74,-249.923 1731.7,-248.676"/>
<polygon fill="black" stroke="black" points="1732.66,-252.059 1741.85,-246.788 1731.37,-245.178 1732.66,-252.059"/>
</g>
<!-- c0 -->
<g id="node4" class="node"><title>c0</title>
<a xlink:href="0003674" xlink:title="GO:0003674 (2)">
<ellipse fill="#e98576" stroke="#e98576" cx="2467" cy="-378" rx="75.2018" ry="18"/>
<text text-anchor="middle" x="2467" y="-373.8" font-family="Times,serif" font-size="14.00">GO:0003674 (2)</text>
</a>
</g>
<!-- c0&#45;&gt;b0 -->
<g id="edge24" class="edge"><title>c0&#45;&gt;b0</title>
<path fill="none" stroke="black" d="M2394.1,-373.481C2145.28,-361.468 1331.4,-322.178 1087.01,-310.38"/>
<polygon fill="black" stroke="black" points="1086.99,-306.875 1076.83,-309.889 1086.65,-313.867 1086.99,-306.875"/>
</g>
<!-- n0 -->
<g id="node6" class="node"><title>n0</title>
<a xlink:href="0030234" xlink:title="GO:0030234 (2)">
<ellipse fill="#e98576" stroke="#e98576" cx="2215" cy="-306" rx="75.2018" ry="18"/>
<text text-anchor="middle" x="2215" y="-301.8" font-family="Times,serif" font-size="14.00">GO:0030234 (2)</text>
</a>
</g>
<!-- c0&#45;&gt;n0 -->
<g id="edge4" class="edge"><title>c0&#45;&gt;n0</title>
<path fill="none" stroke="black" d="M2419.9,-363.916C2378.05,-352.29 2316.76,-335.267 2272.13,-322.868"/>
<polygon fill="black" stroke="black" points="2272.87,-319.443 2262.3,-320.139 2271,-326.188 2272.87,-319.443"/>
</g>
<!-- i0 -->
<g id="node7" class="node"><title>i0</title>
<a xlink:href="0003824" xlink:title="GO:0003824 (3)">
<ellipse fill="#e98576" stroke="#e98576" cx="2383" cy="-306" rx="75.2018" ry="18"/>
<text text-anchor="middle" x="2383" y="-301.8" font-family="Times,serif" font-size="14.00">GO:0003824 (3)</text>
</a>
</g>
<!-- c0&#45;&gt;i0 -->
<g id="edge14" class="edge"><title>c0&#45;&gt;i0</title>
<path fill="none" stroke="black" d="M2447.09,-360.411C2436.21,-351.345 2422.57,-339.974 2410.67,-330.057"/>
<polygon fill="black" stroke="black" points="2412.69,-327.183 2402.76,-323.47 2408.21,-332.561 2412.69,-327.183"/>
</g>
<!-- q0 -->
<g id="node26" class="node"><title>q0</title>
<a xlink:href="0003774" xlink:title="GO:0003774 (2)">
<ellipse fill="#e98576" stroke="#e98576" cx="2551" cy="-306" rx="75.2018" ry="18"/>
<text text-anchor="middle" x="2551" y="-301.8" font-family="Times,serif" font-size="14.00">GO:0003774 (2)</text>
</a>
</g>
<!-- c0&#45;&gt;q0 -->
<g id="edge22" class="edge"><title>c0&#45;&gt;q0</title>
<path fill="none" stroke="black" d="M2486.91,-360.411C2497.79,-351.345 2511.43,-339.974 2523.33,-330.057"/>
<polygon fill="black" stroke="black" points="2525.79,-332.561 2531.24,-323.47 2521.31,-327.183 2525.79,-332.561"/>
</g>
<!-- b1 -->
<g id="node32" class="node"><title>b1</title>
<a xlink:href="0016209" xlink:title="GO:0016209 (1)">
<ellipse fill="#e98576" stroke="#e98576" cx="2719" cy="-306" rx="75.2018" ry="18"/>
<text text-anchor="middle" x="2719" y="-301.8" font-family="Times,serif" font-size="14.00">GO:0016209 (1)</text>
</a>
</g>
<!-- c0&#45;&gt;b1 -->
<g id="edge28" class="edge"><title>c0&#45;&gt;b1</title>
<path fill="none" stroke="black" d="M2514.1,-363.916C2555.95,-352.29 2617.24,-335.267 2661.87,-322.868"/>
<polygon fill="black" stroke="black" points="2663,-326.188 2671.7,-320.139 2661.13,-319.443 2663,-326.188"/>
</g>
<!-- k0 -->
<g id="node55" class="node"><title>k0</title>
<a xlink:href="0005198" xlink:title="GO:0005198 (4)">
<ellipse fill="#e98576" stroke="#e98576" cx="2887" cy="-306" rx="75.2018" ry="18"/>
<text text-anchor="middle" x="2887" y="-301.8" font-family="Times,serif" font-size="14.00">GO:0005198 (4)</text>
</a>
</g>
<!-- c0&#45;&gt;k0 -->
<g id="edge54" class="edge"><title>c0&#45;&gt;k0</title>
<path fill="none" stroke="black" d="M2529.68,-367.94C2597.27,-357.978 2707.97,-341.102 2803,-324 2809.25,-322.876 2815.74,-321.654 2822.23,-320.399"/>
<polygon fill="black" stroke="black" points="2823.25,-323.766 2832.39,-318.408 2821.9,-316.897 2823.25,-323.766"/>
</g>
<!-- m0 -->
<g id="node9" class="node"><title>m0</title>
<a xlink:href="0016853" xlink:title="GO:0016853 (2)">
<ellipse fill="#e98576" stroke="#e98576" cx="1963" cy="-234" rx="75.2018" ry="18"/>
<text text-anchor="middle" x="1963" y="-229.8" font-family="Times,serif" font-size="14.00">GO:0016853 (2)</text>
</a>
</g>
<!-- i0&#45;&gt;m0 -->
<g id="edge6" class="edge"><title>i0&#45;&gt;m0</title>
<path fill="none" stroke="black" d="M2328.41,-293.476C2318.64,-291.549 2308.53,-289.644 2299,-288 2187.51,-268.771 2158.49,-271.229 2047,-252 2040.75,-250.921 2034.24,-249.73 2027.75,-248.494"/>
<polygon fill="black" stroke="black" points="2028.07,-244.991 2017.59,-246.524 2026.74,-251.863 2028.07,-244.991"/>
</g>
<!-- o0 -->
<g id="node12" class="node"><title>o0</title>
<a xlink:href="0016874" xlink:title="GO:0016874 (2)">
<ellipse fill="#e98576" stroke="#e98576" cx="2131" cy="-234" rx="75.2018" ry="18"/>
<text text-anchor="middle" x="2131" y="-229.8" font-family="Times,serif" font-size="14.00">GO:0016874 (2)</text>
</a>
</g>
<!-- i0&#45;&gt;o0 -->
<g id="edge42" class="edge"><title>i0&#45;&gt;o0</title>
<path fill="none" stroke="black" d="M2335.9,-291.916C2294.05,-280.29 2232.76,-263.267 2188.13,-250.868"/>
<polygon fill="black" stroke="black" points="2188.87,-247.443 2178.3,-248.139 2187,-254.188 2188.87,-247.443"/>
</g>
<!-- h0 -->
<g id="node28" class="node"><title>h0</title>
<a xlink:href="0016787" xlink:title="GO:0016787 (6)">
<ellipse fill="#e98576" stroke="#e98576" cx="2299" cy="-234" rx="75.2018" ry="18"/>
<text text-anchor="middle" x="2299" y="-229.8" font-family="Times,serif" font-size="14.00">GO:0016787 (6)</text>
</a>
</g>
<!-- i0&#45;&gt;h0 -->
<g id="edge32" class="edge"><title>i0&#45;&gt;h0</title>
<path fill="none" stroke="black" d="M2363.09,-288.411C2352.21,-279.345 2338.57,-267.974 2326.67,-258.057"/>
<polygon fill="black" stroke="black" points="2328.69,-255.183 2318.76,-251.47 2324.21,-260.561 2328.69,-255.183"/>
</g>
<!-- r0 -->
<g id="node37" class="node"><title>r0</title>
<a xlink:href="0016491" xlink:title="GO:0016491 (2)">
<ellipse fill="#e98576" stroke="#e98576" cx="2467" cy="-234" rx="75.2018" ry="18"/>
<text text-anchor="middle" x="2467" y="-229.8" font-family="Times,serif" font-size="14.00">GO:0016491 (2)</text>
</a>
</g>
<!-- i0&#45;&gt;r0 -->
<g id="edge46" class="edge"><title>i0&#45;&gt;r0</title>
<path fill="none" stroke="black" d="M2402.91,-288.411C2413.79,-279.345 2427.43,-267.974 2439.33,-258.057"/>
<polygon fill="black" stroke="black" points="2441.79,-260.561 2447.24,-251.47 2437.31,-255.183 2441.79,-260.561"/>
</g>
<!-- j0 -->
<g id="node43" class="node"><title>j0</title>
<a xlink:href="0016740" xlink:title="GO:0016740 (6)">
<ellipse fill="#e98576" stroke="#e98576" cx="2635" cy="-234" rx="75.2018" ry="18"/>
<text text-anchor="middle" x="2635" y="-229.8" font-family="Times,serif" font-size="14.00">GO:0016740 (6)</text>
</a>
</g>
<!-- i0&#45;&gt;j0 -->
<g id="edge40" class="edge"><title>i0&#45;&gt;j0</title>
<path fill="none" stroke="black" d="M2430.1,-291.916C2471.95,-280.29 2533.24,-263.267 2577.87,-250.868"/>
<polygon fill="black" stroke="black" points="2579,-254.188 2587.7,-248.139 2577.13,-247.443 2579,-254.188"/>
</g>
<!-- v0 -->
<g id="node51" class="node"><title>v0</title>
<a xlink:href="0004386" xlink:title="GO:0004386 (1)">
<ellipse fill="#e98576" stroke="#e98576" cx="2803" cy="-234" rx="75.2018" ry="18"/>
<text text-anchor="middle" x="2803" y="-229.8" font-family="Times,serif" font-size="14.00">GO:0004386 (1)</text>
</a>
</g>
<!-- i0&#45;&gt;v0 -->
<g id="edge50" class="edge"><title>i0&#45;&gt;v0</title>
<path fill="none" stroke="black" d="M2437.59,-293.476C2447.36,-291.549 2457.47,-289.644 2467,-288 2578.49,-268.771 2607.51,-271.229 2719,-252 2725.25,-250.921 2731.76,-249.73 2738.25,-248.494"/>
<polygon fill="black" stroke="black" points="2739.26,-251.863 2748.41,-246.524 2737.93,-244.991 2739.26,-251.863"/>
</g>
<!-- u0 -->
<g id="node53" class="node"><title>u0</title>
<a xlink:href="0016829" xlink:title="GO:0016829 (1)">
<ellipse fill="#e98576" stroke="#e98576" cx="2971" cy="-234" rx="75.2018" ry="18"/>
<text text-anchor="middle" x="2971" y="-229.8" font-family="Times,serif" font-size="14.00">GO:0016829 (1)</text>
</a>
</g>
<!-- i0&#45;&gt;u0 -->
<g id="edge52" class="edge"><title>i0&#45;&gt;u0</title>
<path fill="none" stroke="black" d="M2436.16,-293.287C2446.36,-291.311 2456.98,-289.438 2467,-288 2652.45,-261.375 2701.55,-278.625 2887,-252 2893.73,-251.034 2900.73,-249.871 2907.7,-248.613"/>
<polygon fill="black" stroke="black" points="2908.65,-251.995 2917.84,-246.713 2907.36,-245.115 2908.65,-251.995"/>
</g>
<!-- z0 -->
<g id="node14" class="node"><title>z0</title>
<a xlink:href="0016879" xlink:title="GO:0016879">
<ellipse fill="#dddddd" stroke="#dddddd" cx="2131" cy="-162" rx="61.1934" ry="18"/>
<text text-anchor="middle" x="2131" y="-157.8" font-family="Times,serif" font-size="14.00">GO:0016879</text>
</a>
</g>
<!-- o0&#45;&gt;z0 -->
<g id="edge10" class="edge"><title>o0&#45;&gt;z0</title>
<path fill="none" stroke="black" d="M2131,-215.697C2131,-207.983 2131,-198.712 2131,-190.112"/>
<polygon fill="black" stroke="black" points="2134.5,-190.104 2131,-180.104 2127.5,-190.104 2134.5,-190.104"/>
</g>
<!-- y0 -->
<g id="node15" class="node"><title>y0</title>
<a xlink:href="0016881" xlink:title="GO:0016881">
<ellipse fill="#dddddd" stroke="#dddddd" cx="2131" cy="-90" rx="61.1934" ry="18"/>
<text text-anchor="middle" x="2131" y="-85.8" font-family="Times,serif" font-size="14.00">GO:0016881</text>
</a>
</g>
<!-- z0&#45;&gt;y0 -->
<g id="edge34" class="edge"><title>z0&#45;&gt;y0</title>
<path fill="none" stroke="black" d="M2131,-143.697C2131,-135.983 2131,-126.712 2131,-118.112"/>
<polygon fill="black" stroke="black" points="2134.5,-118.104 2131,-108.104 2127.5,-118.104 2134.5,-118.104"/>
</g>
<!-- x0 -->
<g id="node17" class="node"><title>x0</title>
<a xlink:href="0019787" xlink:title="GO:0019787 (1)">
<ellipse fill="#e98576" stroke="#e98576" cx="2131" cy="-18" rx="75.2018" ry="18"/>
<text text-anchor="middle" x="2131" y="-13.8" font-family="Times,serif" font-size="14.00">GO:0019787 (1)</text>
</a>
</g>
<!-- y0&#45;&gt;x0 -->
<g id="edge12" class="edge"><title>y0&#45;&gt;x0</title>
<path fill="none" stroke="black" d="M2131,-71.6966C2131,-63.9827 2131,-54.7125 2131,-46.1124"/>
<polygon fill="black" stroke="black" points="2134.5,-46.1043 2131,-36.1043 2127.5,-46.1044 2134.5,-46.1043"/>
</g>
<!-- l0 -->
<g id="node30" class="node"><title>l0</title>
<a xlink:href="0008233" xlink:title="GO:0008233 (3)">
<ellipse fill="#e98576" stroke="#e98576" cx="2299" cy="-162" rx="75.2018" ry="18"/>
<text text-anchor="middle" x="2299" y="-157.8" font-family="Times,serif" font-size="14.00">GO:0008233 (3)</text>
</a>
</g>
<!-- h0&#45;&gt;l0 -->
<g id="edge26" class="edge"><title>h0&#45;&gt;l0</title>
<path fill="none" stroke="black" d="M2299,-215.697C2299,-207.983 2299,-198.712 2299,-190.112"/>
<polygon fill="black" stroke="black" points="2302.5,-190.104 2299,-180.104 2295.5,-190.104 2302.5,-190.104"/>
</g>
<!-- t0 -->
<g id="node39" class="node"><title>t0</title>
<a xlink:href="0009055" xlink:title="GO:0009055 (1)">
<ellipse fill="#e98576" stroke="#e98576" cx="2467" cy="-162" rx="75.2018" ry="18"/>
<text text-anchor="middle" x="2467" y="-157.8" font-family="Times,serif" font-size="14.00">GO:0009055 (1)</text>
</a>
</g>
<!-- r0&#45;&gt;t0 -->
<g id="edge36" class="edge"><title>r0&#45;&gt;t0</title>
<path fill="none" stroke="black" d="M2467,-215.697C2467,-207.983 2467,-198.712 2467,-190.112"/>
<polygon fill="black" stroke="black" points="2470.5,-190.104 2467,-180.104 2463.5,-190.104 2470.5,-190.104"/>
</g>
</g>
</svg>
