<?xml version="1.0" encoding="UTF-8" standalone="no"?>
<!DOCTYPE svg PUBLIC "-//W3C//DTD SVG 1.1//EN"
 "http://www.w3.org/Graphics/SVG/1.1/DTD/svg11.dtd">
<!-- Generated by graphviz version 2.28.0 (20110622.2320)
 -->
<!-- Title: G Pages: 1 -->
<svg width="6474pt" height="404pt"
 viewBox="0.00 0.00 6474.00 404.00" xmlns="http://www.w3.org/2000/svg" xmlns:xlink="http://www.w3.org/1999/xlink">
<g id="graph1" class="graph" transform="scale(1 1) rotate(0) translate(4 400)">
<title>G</title>
<polygon fill="white" stroke="white" points="-4,5 -4,-400 6471,-400 6471,5 -4,5"/>
<!-- c0 -->
<g id="node1" class="node"><title>c0</title>
<a xlink:href="0003674" xlink:title="GO:0003674 (14)">
<ellipse fill="#e98576" stroke="#e98576" cx="4276" cy="-378" rx="79.4447" ry="18"/>
<text text-anchor="middle" x="4276" y="-373.8" font-family="Times,serif" font-size="14.00">GO:0003674 (14)</text>
</a>
</g>
<!-- z1 -->
<g id="node3" class="node"><title>z1</title>
<a xlink:href="0045182" xlink:title="GO:0045182 (1)">
<ellipse fill="#e98576" stroke="#e98576" cx="885" cy="-306" rx="75.2018" ry="18"/>
<text text-anchor="middle" x="885" y="-301.8" font-family="Times,serif" font-size="14.00">GO:0045182 (1)</text>
</a>
</g>
<!-- c0&#45;&gt;z1 -->
<g id="edge2" class="edge"><title>c0&#45;&gt;z1</title>
<path fill="none" stroke="black" d="M4196.6,-376.602C3724.72,-374.118 1298.59,-359.686 969,-324 961.881,-323.229 954.47,-322.147 947.129,-320.899"/>
<polygon fill="black" stroke="black" points="947.657,-317.438 937.194,-319.106 946.414,-324.327 947.657,-317.438"/>
</g>
<!-- h0 -->
<g id="node4" class="node"><title>h0</title>
<a xlink:href="0003824" xlink:title="GO:0003824 (72)">
<ellipse fill="#e98576" stroke="#e98576" cx="1058" cy="-306" rx="79.4447" ry="18"/>
<text text-anchor="middle" x="1058" y="-301.8" font-family="Times,serif" font-size="14.00">GO:0003824 (72)</text>
</a>
</g>
<!-- c0&#45;&gt;h0 -->
<g id="edge76" class="edge"><title>c0&#45;&gt;h0</title>
<path fill="none" stroke="black" d="M4197.25,-375.287C3757.72,-365.726 1610.91,-319.027 1146.64,-308.928"/>
<polygon fill="black" stroke="black" points="1146.72,-305.429 1136.64,-308.711 1146.56,-312.427 1146.72,-305.429"/>
</g>
<!-- o0 -->
<g id="node8" class="node"><title>o0</title>
<a xlink:href="0030234" xlink:title="GO:0030234 (50)">
<ellipse fill="#e98576" stroke="#e98576" cx="3742" cy="-306" rx="79.4447" ry="18"/>
<text text-anchor="middle" x="3742" y="-301.8" font-family="Times,serif" font-size="14.00">GO:0030234 (50)</text>
</a>
</g>
<!-- c0&#45;&gt;o0 -->
<g id="edge6" class="edge"><title>c0&#45;&gt;o0</title>
<path fill="none" stroke="black" d="M4204.5,-370.046C4116.41,-361.119 3962.28,-344.331 3831,-324 3823.95,-322.908 3816.6,-321.668 3809.28,-320.369"/>
<polygon fill="black" stroke="black" points="3809.81,-316.909 3799.35,-318.567 3808.56,-323.796 3809.81,-316.909"/>
</g>
<!-- b0 -->
<g id="node9" class="node"><title>b0</title>
<a xlink:href="0005488" xlink:title="GO:0005488 (12)">
<ellipse fill="#e98576" stroke="#e98576" cx="3920" cy="-306" rx="79.4447" ry="18"/>
<text text-anchor="middle" x="3920" y="-301.8" font-family="Times,serif" font-size="14.00">GO:0005488 (12)</text>
</a>
</g>
<!-- c0&#45;&gt;b0 -->
<g id="edge18" class="edge"><title>c0&#45;&gt;b0</title>
<path fill="none" stroke="black" d="M4218.01,-365.597C4155.04,-353.216 4054.57,-333.46 3987.95,-320.361"/>
<polygon fill="black" stroke="black" points="3988.45,-316.893 3977.97,-318.398 3987.1,-323.761 3988.45,-316.893"/>
</g>
<!-- l0 -->
<g id="node34" class="node"><title>l0</title>
<a xlink:href="0005215" xlink:title="GO:0005215 (93)">
<ellipse fill="#e98576" stroke="#e98576" cx="4098" cy="-306" rx="79.4447" ry="18"/>
<text text-anchor="middle" x="4098" y="-301.8" font-family="Times,serif" font-size="14.00">GO:0005215 (93)</text>
</a>
</g>
<!-- c0&#45;&gt;l0 -->
<g id="edge30" class="edge"><title>c0&#45;&gt;l0</title>
<path fill="none" stroke="black" d="M4238.25,-362.155C4211.2,-351.518 4174.58,-337.114 4145.53,-325.693"/>
<polygon fill="black" stroke="black" points="4146.59,-322.347 4136,-321.944 4144.03,-328.861 4146.59,-322.347"/>
</g>
<!-- m0 -->
<g id="node54" class="node"><title>m0</title>
<a xlink:href="0005198" xlink:title="GO:0005198 (91)">
<ellipse fill="#e98576" stroke="#e98576" cx="4276" cy="-306" rx="79.4447" ry="18"/>
<text text-anchor="middle" x="4276" y="-301.8" font-family="Times,serif" font-size="14.00">GO:0005198 (91)</text>
</a>
</g>
<!-- c0&#45;&gt;m0 -->
<g id="edge52" class="edge"><title>c0&#45;&gt;m0</title>
<path fill="none" stroke="black" d="M4276,-359.697C4276,-351.983 4276,-342.712 4276,-334.112"/>
<polygon fill="black" stroke="black" points="4279.5,-334.104 4276,-324.104 4272.5,-334.104 4279.5,-334.104"/>
</g>
<!-- b2 -->
<g id="node58" class="node"><title>b2</title>
<a xlink:href="0042056" xlink:title="GO:0042056 (1)">
<ellipse fill="#e98576" stroke="#e98576" cx="4449" cy="-306" rx="75.2018" ry="18"/>
<text text-anchor="middle" x="4449" y="-301.8" font-family="Times,serif" font-size="14.00">GO:0042056 (1)</text>
</a>
</g>
<!-- c0&#45;&gt;b2 -->
<g id="edge56" class="edge"><title>c0&#45;&gt;b2</title>
<path fill="none" stroke="black" d="M4313.11,-361.983C4339.4,-351.346 4374.84,-337.006 4402.94,-325.638"/>
<polygon fill="black" stroke="black" points="4404.59,-328.747 4412.54,-321.752 4401.96,-322.258 4404.59,-328.747"/>
</g>
<!-- e2 -->
<g id="node84" class="node"><title>e2</title>
<a xlink:href="0016530" xlink:title="GO:0016530 (1)">
<ellipse fill="#e98576" stroke="#e98576" cx="4617" cy="-306" rx="75.2018" ry="18"/>
<text text-anchor="middle" x="4617" y="-301.8" font-family="Times,serif" font-size="14.00">GO:0016530 (1)</text>
</a>
</g>
<!-- c0&#45;&gt;e2 -->
<g id="edge82" class="edge"><title>c0&#45;&gt;e2</title>
<path fill="none" stroke="black" d="M4332.69,-365.362C4393.09,-352.963 4488.57,-333.365 4551.98,-320.348"/>
<polygon fill="black" stroke="black" points="4552.78,-323.757 4561.87,-318.317 4551.37,-316.9 4552.78,-323.757"/>
</g>
<!-- e1 -->
<g id="node90" class="node"><title>e1</title>
<a xlink:href="0003774" xlink:title="GO:0003774 (9)">
<ellipse fill="#e98576" stroke="#e98576" cx="4785" cy="-306" rx="75.2018" ry="18"/>
<text text-anchor="middle" x="4785" y="-301.8" font-family="Times,serif" font-size="14.00">GO:0003774 (9)</text>
</a>
</g>
<!-- c0&#45;&gt;e1 -->
<g id="edge88" class="edge"><title>c0&#45;&gt;e1</title>
<path fill="none" stroke="black" d="M4346.92,-369.814C4431.49,-360.863 4576.98,-344.253 4701,-324 4707.51,-322.937 4714.29,-321.732 4721.04,-320.466"/>
<polygon fill="black" stroke="black" points="4721.73,-323.899 4730.89,-318.577 4720.41,-317.024 4721.73,-323.899"/>
</g>
<!-- t0 -->
<g id="node91" class="node"><title>t0</title>
<a xlink:href="0060089" xlink:title="GO:0060089 (9)">
<ellipse fill="#e98576" stroke="#e98576" cx="4953" cy="-306" rx="75.2018" ry="18"/>
<text text-anchor="middle" x="4953" y="-301.8" font-family="Times,serif" font-size="14.00">GO:0060089 (9)</text>
</a>
</g>
<!-- c0&#45;&gt;t0 -->
<g id="edge110" class="edge"><title>c0&#45;&gt;t0</title>
<path fill="none" stroke="black" d="M4352.61,-372.867C4465.91,-366.142 4684.63,-350.812 4869,-324 4875.63,-323.036 4882.52,-321.886 4889.38,-320.644"/>
<polygon fill="black" stroke="black" points="4890.2,-324.053 4899.38,-318.77 4888.91,-317.172 4890.2,-324.053"/>
</g>
<!-- z0 -->
<g id="node97" class="node"><title>z0</title>
<a xlink:href="0016209" xlink:title="GO:0016209 (17)">
<ellipse fill="#e98576" stroke="#e98576" cx="5126" cy="-306" rx="79.4447" ry="18"/>
<text text-anchor="middle" x="5126" y="-301.8" font-family="Times,serif" font-size="14.00">GO:0016209 (17)</text>
</a>
</g>
<!-- c0&#45;&gt;z0 -->
<g id="edge94" class="edge"><title>c0&#45;&gt;z0</title>
<path fill="none" stroke="black" d="M4354.09,-374.633C4492.28,-369.761 4788.78,-356.234 5037,-324 5044.38,-323.042 5052.06,-321.858 5059.69,-320.565"/>
<polygon fill="black" stroke="black" points="5060.42,-323.99 5069.67,-318.81 5059.21,-317.096 5060.42,-323.99"/>
</g>
<!-- w0 -->
<g id="node6" class="node"><title>w0</title>
<a xlink:href="0016853" xlink:title="GO:0016853 (22)">
<ellipse fill="#e98576" stroke="#e98576" cx="79" cy="-234" rx="79.4447" ry="18"/>
<text text-anchor="middle" x="79" y="-229.8" font-family="Times,serif" font-size="14.00">GO:0016853 (22)</text>
</a>
</g>
<!-- h0&#45;&gt;w0 -->
<g id="edge4" class="edge"><title>h0&#45;&gt;w0</title>
<path fill="none" stroke="black" d="M1002.17,-293.064C991.215,-291.083 979.78,-289.265 969,-288 615.07,-246.463 521.93,-293.537 168,-252 160.42,-251.11 152.517,-249.947 144.685,-248.647"/>
<polygon fill="black" stroke="black" points="145.284,-245.198 134.832,-246.936 144.086,-252.095 145.284,-245.198"/>
</g>
<!-- g0 -->
<g id="node23" class="node"><title>g0</title>
<a xlink:href="0016787" xlink:title="GO:0016787 (151)">
<ellipse fill="#e98576" stroke="#e98576" cx="262" cy="-234" rx="84.1886" ry="18"/>
<text text-anchor="middle" x="262" y="-229.8" font-family="Times,serif" font-size="14.00">GO:0016787 (151)</text>
</a>
</g>
<!-- h0&#45;&gt;g0 -->
<g id="edge38" class="edge"><title>h0&#45;&gt;g0</title>
<path fill="none" stroke="black" d="M1002.15,-293.183C991.202,-291.192 979.771,-289.339 969,-288 698.171,-254.327 626.991,-284.343 356,-252 347.981,-251.043 339.611,-249.835 331.314,-248.506"/>
<polygon fill="black" stroke="black" points="331.696,-245.021 321.258,-246.833 330.548,-251.926 331.696,-245.021"/>
</g>
<!-- j0 -->
<g id="node26" class="node"><title>j0</title>
<a xlink:href="0016491" xlink:title="GO:0016491 (129)">
<ellipse fill="#e98576" stroke="#e98576" cx="450" cy="-234" rx="84.1886" ry="18"/>
<text text-anchor="middle" x="450" y="-229.8" font-family="Times,serif" font-size="14.00">GO:0016491 (129)</text>
</a>
</g>
<!-- h0&#45;&gt;j0 -->
<g id="edge48" class="edge"><title>h0&#45;&gt;j0</title>
<path fill="none" stroke="black" d="M1001.17,-293.231C990.514,-291.284 979.441,-289.435 969,-288 781.201,-262.182 731.923,-276.896 544,-252 536.255,-250.974 528.177,-249.75 520.152,-248.435"/>
<polygon fill="black" stroke="black" points="520.485,-244.942 510.042,-246.73 519.321,-251.845 520.485,-244.942"/>
</g>
<!-- d2 -->
<g id="node32" class="node"><title>d2</title>
<a xlink:href="0019239" xlink:title="GO:0019239 (1)">
<ellipse fill="#e98576" stroke="#e98576" cx="628" cy="-234" rx="75.2018" ry="18"/>
<text text-anchor="middle" x="628" y="-229.8" font-family="Times,serif" font-size="14.00">GO:0019239 (1)</text>
</a>
</g>
<!-- h0&#45;&gt;d2 -->
<g id="edge28" class="edge"><title>h0&#45;&gt;d2</title>
<path fill="none" stroke="black" d="M1000.15,-293.518C989.791,-291.586 979.088,-289.669 969,-288 855.209,-269.174 825.686,-271.448 712,-252 705.744,-250.93 699.241,-249.744 692.746,-248.512"/>
<polygon fill="black" stroke="black" points="693.067,-245.009 682.584,-246.545 691.737,-251.881 693.067,-245.009"/>
</g>
<!-- y0 -->
<g id="node45" class="node"><title>y0</title>
<a xlink:href="0016874" xlink:title="GO:0016874 (19)">
<ellipse fill="#e98576" stroke="#e98576" cx="801" cy="-234" rx="79.4447" ry="18"/>
<text text-anchor="middle" x="801" y="-229.8" font-family="Times,serif" font-size="14.00">GO:0016874 (19)</text>
</a>
</g>
<!-- h0&#45;&gt;y0 -->
<g id="edge42" class="edge"><title>h0&#45;&gt;y0</title>
<path fill="none" stroke="black" d="M1009.36,-291.751C966.788,-280.156 904.845,-263.285 859.564,-250.951"/>
<polygon fill="black" stroke="black" points="860.448,-247.565 849.88,-248.313 858.608,-254.319 860.448,-247.565"/>
</g>
<!-- l1 -->
<g id="node52" class="node"><title>l1</title>
<a xlink:href="0004386" xlink:title="GO:0004386 (6)">
<ellipse fill="#e98576" stroke="#e98576" cx="974" cy="-234" rx="75.2018" ry="18"/>
<text text-anchor="middle" x="974" y="-229.8" font-family="Times,serif" font-size="14.00">GO:0004386 (6)</text>
</a>
</g>
<!-- h0&#45;&gt;l1 -->
<g id="edge50" class="edge"><title>h0&#45;&gt;l1</title>
<path fill="none" stroke="black" d="M1038.09,-288.411C1027.21,-279.345 1013.57,-267.974 1001.67,-258.057"/>
<polygon fill="black" stroke="black" points="1003.69,-255.183 993.764,-251.47 999.206,-260.561 1003.69,-255.183"/>
</g>
<!-- c2 -->
<g id="node66" class="node"><title>c2</title>
<a xlink:href="0032451" xlink:title="GO:0032451 (1)">
<ellipse fill="#e98576" stroke="#e98576" cx="1142" cy="-234" rx="75.2018" ry="18"/>
<text text-anchor="middle" x="1142" y="-229.8" font-family="Times,serif" font-size="14.00">GO:0032451 (1)</text>
</a>
</g>
<!-- h0&#45;&gt;c2 -->
<g id="edge64" class="edge"><title>h0&#45;&gt;c2</title>
<path fill="none" stroke="black" d="M1077.91,-288.411C1088.79,-279.345 1102.43,-267.974 1114.33,-258.057"/>
<polygon fill="black" stroke="black" points="1116.79,-260.561 1122.24,-251.47 1112.31,-255.183 1116.79,-260.561"/>
</g>
<!-- a2 -->
<g id="node77" class="node"><title>a2</title>
<a xlink:href="0008641" xlink:title="GO:0008641 (1)">
<ellipse fill="#e98576" stroke="#e98576" cx="1310" cy="-234" rx="75.2018" ry="18"/>
<text text-anchor="middle" x="1310" y="-229.8" font-family="Times,serif" font-size="14.00">GO:0008641 (1)</text>
</a>
</g>
<!-- h0&#45;&gt;a2 -->
<g id="edge74" class="edge"><title>h0&#45;&gt;a2</title>
<path fill="none" stroke="black" d="M1106.29,-291.586C1148.14,-279.96 1208.76,-263.121 1252.99,-250.836"/>
<polygon fill="black" stroke="black" points="1254.03,-254.18 1262.73,-248.131 1252.16,-247.436 1254.03,-254.18"/>
</g>
<!-- k0 -->
<g id="node104" class="node"><title>k0</title>
<a xlink:href="0016740" xlink:title="GO:0016740 (94)">
<ellipse fill="#e98576" stroke="#e98576" cx="1483" cy="-234" rx="79.4447" ry="18"/>
<text text-anchor="middle" x="1483" y="-229.8" font-family="Times,serif" font-size="14.00">GO:0016740 (94)</text>
</a>
</g>
<!-- h0&#45;&gt;k0 -->
<g id="edge102" class="edge"><title>h0&#45;&gt;k0</title>
<path fill="none" stroke="black" d="M1122.52,-295.456C1190.24,-285.29 1299.75,-268.43 1394,-252 1400.66,-250.838 1407.6,-249.587 1414.53,-248.31"/>
<polygon fill="black" stroke="black" points="1415.45,-251.698 1424.64,-246.426 1414.17,-244.816 1415.45,-251.698"/>
</g>
<!-- v0 -->
<g id="node110" class="node"><title>v0</title>
<a xlink:href="0016829" xlink:title="GO:0016829 (24)">
<ellipse fill="#e98576" stroke="#e98576" cx="1661" cy="-234" rx="79.4447" ry="18"/>
<text text-anchor="middle" x="1661" y="-229.8" font-family="Times,serif" font-size="14.00">GO:0016829 (24)</text>
</a>
</g>
<!-- h0&#45;&gt;v0 -->
<g id="edge108" class="edge"><title>h0&#45;&gt;v0</title>
<path fill="none" stroke="black" d="M1132.15,-299.301C1232.11,-291.17 1415.51,-274.677 1571,-252 1578.33,-250.931 1585.97,-249.688 1593.57,-248.37"/>
<polygon fill="black" stroke="black" points="1594.27,-251.8 1603.51,-246.602 1593.05,-244.908 1594.27,-251.8"/>
</g>
<!-- x0 -->
<g id="node11" class="node"><title>x0</title>
<a xlink:href="0042277" xlink:title="GO:0042277 (20)">
<ellipse fill="#e98576" stroke="#e98576" cx="1839" cy="-234" rx="79.4447" ry="18"/>
<text text-anchor="middle" x="1839" y="-229.8" font-family="Times,serif" font-size="14.00">GO:0042277 (20)</text>
</a>
</g>
<!-- b0&#45;&gt;x0 -->
<g id="edge8" class="edge"><title>b0&#45;&gt;x0</title>
<path fill="none" stroke="black" d="M3864.52,-293.013C3853.15,-290.982 3841.23,-289.159 3830,-288 2988.98,-201.231 2768.93,-339.63 1928,-252 1920.3,-251.198 1912.27,-250.075 1904.32,-248.786"/>
<polygon fill="black" stroke="black" points="1904.78,-245.313 1894.33,-247.075 1903.6,-252.213 1904.78,-245.313"/>
</g>
<!-- o1 -->
<g id="node13" class="node"><title>o1</title>
<a xlink:href="0019825" xlink:title="GO:0019825 (6)">
<ellipse fill="#e98576" stroke="#e98576" cx="2012" cy="-234" rx="75.2018" ry="18"/>
<text text-anchor="middle" x="2012" y="-229.8" font-family="Times,serif" font-size="14.00">GO:0019825 (6)</text>
</a>
</g>
<!-- b0&#45;&gt;o1 -->
<g id="edge10" class="edge"><title>b0&#45;&gt;o1</title>
<path fill="none" stroke="black" d="M3864.52,-293.029C3853.15,-290.997 3841.23,-289.169 3830,-288 3063.31,-208.19 2862.16,-336.79 2096,-252 2088.88,-251.212 2081.47,-250.12 2074.13,-248.866"/>
<polygon fill="black" stroke="black" points="2074.66,-245.405 2064.2,-247.068 2073.42,-252.293 2074.66,-245.405"/>
</g>
<!-- x1 -->
<g id="node15" class="node"><title>x1</title>
<a xlink:href="0033218" xlink:title="GO:0033218 (2)">
<ellipse fill="#e98576" stroke="#e98576" cx="2180" cy="-234" rx="75.2018" ry="18"/>
<text text-anchor="middle" x="2180" y="-229.8" font-family="Times,serif" font-size="14.00">GO:0033218 (2)</text>
</a>
</g>
<!-- b0&#45;&gt;x1 -->
<g id="edge12" class="edge"><title>b0&#45;&gt;x1</title>
<path fill="none" stroke="black" d="M3864.52,-293.049C3853.15,-291.015 3841.23,-289.181 3830,-288 3137.64,-215.148 2955.87,-329.349 2264,-252 2256.88,-251.204 2249.47,-250.107 2242.13,-248.85"/>
<polygon fill="black" stroke="black" points="2242.66,-245.389 2232.2,-247.049 2241.42,-252.277 2242.66,-245.389"/>
</g>
<!-- a0 -->
<g id="node17" class="node"><title>a0</title>
<a xlink:href="0005515" xlink:title="GO:0005515 (387)">
<ellipse fill="#e98576" stroke="#e98576" cx="2358" cy="-234" rx="84.1886" ry="18"/>
<text text-anchor="middle" x="2358" y="-229.8" font-family="Times,serif" font-size="14.00">GO:0005515 (387)</text>
</a>
</g>
<!-- b0&#45;&gt;a0 -->
<g id="edge14" class="edge"><title>b0&#45;&gt;a0</title>
<path fill="none" stroke="black" d="M3864.52,-293.076C3853.15,-291.041 3841.23,-289.199 3830,-288 3220.81,-222.934 3061.44,-314.698 2452,-252 2443.7,-251.146 2435.03,-249.971 2426.46,-248.634"/>
<polygon fill="black" stroke="black" points="2426.9,-245.161 2416.47,-247 2425.77,-252.069 2426.9,-245.161"/>
</g>
<!-- k1 -->
<g id="node19" class="node"><title>k1</title>
<a xlink:href="0043021" xlink:title="GO:0043021 (7)">
<ellipse fill="#e98576" stroke="#e98576" cx="2536" cy="-234" rx="75.2018" ry="18"/>
<text text-anchor="middle" x="2536" y="-229.8" font-family="Times,serif" font-size="14.00">GO:0043021 (7)</text>
</a>
</g>
<!-- b0&#45;&gt;k1 -->
<g id="edge16" class="edge"><title>b0&#45;&gt;k1</title>
<path fill="none" stroke="black" d="M3864.51,-293.108C3853.14,-291.07 3841.22,-289.219 3830,-288 3295.13,-229.891 3154.48,-313.582 2620,-252 2612.89,-251.18 2605.48,-250.068 2598.14,-248.802"/>
<polygon fill="black" stroke="black" points="2598.67,-245.342 2588.21,-246.994 2597.42,-252.229 2598.67,-245.342"/>
</g>
<!-- t1 -->
<g id="node22" class="node"><title>t1</title>
<a xlink:href="0042562" xlink:title="GO:0042562 (4)">
<ellipse fill="#e98576" stroke="#e98576" cx="2704" cy="-234" rx="75.2018" ry="18"/>
<text text-anchor="middle" x="2704" y="-229.8" font-family="Times,serif" font-size="14.00">GO:0042562 (4)</text>
</a>
</g>
<!-- b0&#45;&gt;t1 -->
<g id="edge20" class="edge"><title>b0&#45;&gt;t1</title>
<path fill="none" stroke="black" d="M3864.03,-293.064C3852.8,-291.057 3841.06,-289.229 3830,-288 3369.44,-236.848 3248.21,-306.143 2788,-252 2780.89,-251.163 2773.48,-250.04 2766.14,-248.769"/>
<polygon fill="black" stroke="black" points="2766.68,-245.308 2756.21,-246.955 2765.42,-252.194 2766.68,-245.308"/>
</g>
<!-- h1 -->
<g id="node30" class="node"><title>h1</title>
<a xlink:href="0005496" xlink:title="GO:0005496 (8)">
<ellipse fill="#e98576" stroke="#e98576" cx="2872" cy="-234" rx="75.2018" ry="18"/>
<text text-anchor="middle" x="2872" y="-229.8" font-family="Times,serif" font-size="14.00">GO:0005496 (8)</text>
</a>
</g>
<!-- b0&#45;&gt;h1 -->
<g id="edge26" class="edge"><title>b0&#45;&gt;h1</title>
<path fill="none" stroke="black" d="M3864.02,-293.122C3852.8,-291.11 3841.06,-289.265 3830,-288 3443.75,-243.804 3341.96,-298.705 2956,-252 2949.15,-251.171 2942.03,-250.085 2934.96,-248.862"/>
<polygon fill="black" stroke="black" points="2935.13,-245.337 2924.67,-246.986 2933.88,-252.223 2935.13,-245.337"/>
</g>
<!-- d0 -->
<g id="node36" class="node"><title>d0</title>
<a xlink:href="0043167" xlink:title="GO:0043167 (360)">
<ellipse fill="#e98576" stroke="#e98576" cx="3050" cy="-234" rx="84.1886" ry="18"/>
<text text-anchor="middle" x="3050" y="-229.8" font-family="Times,serif" font-size="14.00">GO:0043167 (360)</text>
</a>
</g>
<!-- b0&#45;&gt;d0 -->
<g id="edge32" class="edge"><title>b0&#45;&gt;d0</title>
<path fill="none" stroke="black" d="M3864.01,-293.221C3852.79,-291.2 3841.05,-289.328 3830,-288 3526.87,-251.584 3447.27,-287.237 3144,-252 3135.98,-251.068 3127.61,-249.875 3119.31,-248.555"/>
<polygon fill="black" stroke="black" points="3119.69,-245.07 3109.25,-246.89 3118.55,-251.976 3119.69,-245.07"/>
</g>
<!-- j1 -->
<g id="node38" class="node"><title>j1</title>
<a xlink:href="0043176" xlink:title="GO:0043176 (1)">
<ellipse fill="#e98576" stroke="#e98576" cx="3228" cy="-234" rx="75.2018" ry="18"/>
<text text-anchor="middle" x="3228" y="-229.8" font-family="Times,serif" font-size="14.00">GO:0043176 (1)</text>
</a>
</g>
<!-- b0&#45;&gt;j1 -->
<g id="edge34" class="edge"><title>b0&#45;&gt;j1</title>
<path fill="none" stroke="black" d="M3863.51,-293.282C3852.44,-291.282 3840.88,-289.401 3830,-288 3601.11,-258.532 3540.69,-282.954 3312,-252 3305.26,-251.088 3298.26,-249.96 3291.29,-248.723"/>
<polygon fill="black" stroke="black" points="3291.62,-245.224 3281.15,-246.843 3290.34,-252.107 3291.62,-245.224"/>
</g>
<!-- y1 -->
<g id="node40" class="node"><title>y1</title>
<a xlink:href="0002054" xlink:title="GO:0002054 (1)">
<ellipse fill="#e98576" stroke="#e98576" cx="3396" cy="-234" rx="75.2018" ry="18"/>
<text text-anchor="middle" x="3396" y="-229.8" font-family="Times,serif" font-size="14.00">GO:0002054 (1)</text>
</a>
</g>
<!-- b0&#45;&gt;y1 -->
<g id="edge36" class="edge"><title>b0&#45;&gt;y1</title>
<path fill="none" stroke="black" d="M3862.51,-293.394C3851.73,-291.431 3840.54,-289.535 3830,-288 3675.26,-265.468 3634.59,-275.537 3480,-252 3473.38,-250.992 3466.49,-249.813 3459.63,-248.554"/>
<polygon fill="black" stroke="black" points="3460.11,-245.083 3449.64,-246.663 3458.81,-251.961 3460.11,-245.083"/>
</g>
<!-- m1 -->
<g id="node43" class="node"><title>m1</title>
<a xlink:href="0043178" xlink:title="GO:0043178 (6)">
<ellipse fill="#e98576" stroke="#e98576" cx="3564" cy="-234" rx="75.2018" ry="18"/>
<text text-anchor="middle" x="3564" y="-229.8" font-family="Times,serif" font-size="14.00">GO:0043178 (6)</text>
</a>
</g>
<!-- b0&#45;&gt;m1 -->
<g id="edge40" class="edge"><title>b0&#45;&gt;m1</title>
<path fill="none" stroke="black" d="M3861.61,-293.75C3806.52,-283.103 3721.61,-266.621 3648,-252 3641.97,-250.802 3635.69,-249.547 3629.41,-248.285"/>
<polygon fill="black" stroke="black" points="3630.06,-244.846 3619.57,-246.304 3628.68,-251.709 3630.06,-244.846"/>
</g>
<!-- u0 -->
<g id="node47" class="node"><title>u0</title>
<a xlink:href="0030246" xlink:title="GO:0030246 (25)">
<ellipse fill="#e98576" stroke="#e98576" cx="3737" cy="-234" rx="79.4447" ry="18"/>
<text text-anchor="middle" x="3737" y="-229.8" font-family="Times,serif" font-size="14.00">GO:0030246 (25)</text>
</a>
</g>
<!-- b0&#45;&gt;u0 -->
<g id="edge44" class="edge"><title>b0&#45;&gt;u0</title>
<path fill="none" stroke="black" d="M3881.19,-290.155C3853.17,-279.436 3815.14,-264.891 3785.18,-253.428"/>
<polygon fill="black" stroke="black" points="3786.34,-250.128 3775.75,-249.824 3783.84,-256.666 3786.34,-250.128"/>
</g>
<!-- i0 -->
<g id="node49" class="node"><title>i0</title>
<a xlink:href="0003676" xlink:title="GO:0003676 (149)">
<ellipse fill="#e98576" stroke="#e98576" cx="3920" cy="-234" rx="84.1886" ry="18"/>
<text text-anchor="middle" x="3920" y="-229.8" font-family="Times,serif" font-size="14.00">GO:0003676 (149)</text>
</a>
</g>
<!-- b0&#45;&gt;i0 -->
<g id="edge46" class="edge"><title>b0&#45;&gt;i0</title>
<path fill="none" stroke="black" d="M3920,-287.697C3920,-279.983 3920,-270.712 3920,-262.112"/>
<polygon fill="black" stroke="black" points="3923.5,-262.104 3920,-252.104 3916.5,-262.104 3923.5,-262.104"/>
</g>
<!-- n1 -->
<g id="node56" class="node"><title>n1</title>
<a xlink:href="0003682" xlink:title="GO:0003682 (6)">
<ellipse fill="#e98576" stroke="#e98576" cx="4098" cy="-234" rx="75.2018" ry="18"/>
<text text-anchor="middle" x="4098" y="-229.8" font-family="Times,serif" font-size="14.00">GO:0003682 (6)</text>
</a>
</g>
<!-- b0&#45;&gt;n1 -->
<g id="edge54" class="edge"><title>b0&#45;&gt;n1</title>
<path fill="none" stroke="black" d="M3957.75,-290.155C3984.98,-279.446 4021.92,-264.919 4051.06,-253.461"/>
<polygon fill="black" stroke="black" points="4052.59,-256.621 4060.61,-249.704 4050.02,-250.106 4052.59,-256.621"/>
</g>
<!-- n0 -->
<g id="node60" class="node"><title>n0</title>
<a xlink:href="0048037" xlink:title="GO:0048037 (67)">
<ellipse fill="#e98576" stroke="#e98576" cx="4271" cy="-234" rx="79.4447" ry="18"/>
<text text-anchor="middle" x="4271" y="-229.8" font-family="Times,serif" font-size="14.00">GO:0048037 (67)</text>
</a>
</g>
<!-- b0&#45;&gt;n0 -->
<g id="edge58" class="edge"><title>b0&#45;&gt;n0</title>
<path fill="none" stroke="black" d="M3977.57,-293.519C4039.54,-281.16 4138.03,-261.519 4203.58,-248.446"/>
<polygon fill="black" stroke="black" points="4204.28,-251.875 4213.4,-246.487 4202.91,-245.01 4204.28,-251.875"/>
</g>
<!-- b1 -->
<g id="node62" class="node"><title>b1</title>
<a xlink:href="0003823" xlink:title="GO:0003823 (14)">
<ellipse fill="#e98576" stroke="#e98576" cx="4449" cy="-234" rx="79.4447" ry="18"/>
<text text-anchor="middle" x="4449" y="-229.8" font-family="Times,serif" font-size="14.00">GO:0003823 (14)</text>
</a>
</g>
<!-- b0&#45;&gt;b1 -->
<g id="edge60" class="edge"><title>b0&#45;&gt;b1</title>
<path fill="none" stroke="black" d="M3976.85,-293.385C3987.51,-291.423 3998.57,-289.529 4009,-288 4163.72,-265.309 4204.26,-274.532 4359,-252 4366.33,-250.933 4373.97,-249.691 4381.57,-248.373"/>
<polygon fill="black" stroke="black" points="4382.27,-251.803 4391.51,-246.606 4381.05,-244.912 4382.27,-251.803"/>
</g>
<!-- g1 -->
<g id="node64" class="node"><title>g1</title>
<a xlink:href="0050840" xlink:title="GO:0050840 (8)">
<ellipse fill="#e98576" stroke="#e98576" cx="4622" cy="-234" rx="75.2018" ry="18"/>
<text text-anchor="middle" x="4622" y="-229.8" font-family="Times,serif" font-size="14.00">GO:0050840 (8)</text>
</a>
</g>
<!-- b0&#45;&gt;g1 -->
<g id="edge62" class="edge"><title>b0&#45;&gt;g1</title>
<path fill="none" stroke="black" d="M3976.33,-293.177C3987.14,-291.211 3998.39,-289.37 4009,-288 4242.28,-257.88 4303.86,-283.129 4537,-252 4544.08,-251.055 4551.45,-249.877 4558.76,-248.584"/>
<polygon fill="black" stroke="black" points="4559.47,-252.013 4568.67,-246.761 4558.2,-245.128 4559.47,-252.013"/>
</g>
<!-- q0 -->
<g id="node70" class="node"><title>q0</title>
<a xlink:href="0008289" xlink:title="GO:0008289 (40)">
<ellipse fill="#e98576" stroke="#e98576" cx="4795" cy="-234" rx="79.4447" ry="18"/>
<text text-anchor="middle" x="4795" y="-229.8" font-family="Times,serif" font-size="14.00">GO:0008289 (40)</text>
</a>
</g>
<!-- b0&#45;&gt;q0 -->
<g id="edge68" class="edge"><title>b0&#45;&gt;q0</title>
<path fill="none" stroke="black" d="M3975.84,-293.122C3986.79,-291.136 3998.22,-289.301 4009,-288 4316.95,-250.814 4398.05,-289.186 4706,-252 4713.58,-251.085 4721.48,-249.906 4729.31,-248.597"/>
<polygon fill="black" stroke="black" points="4729.91,-252.045 4739.16,-246.878 4728.71,-245.149 4729.91,-252.045"/>
</g>
<!-- f0 -->
<g id="node80" class="node"><title>f0</title>
<a xlink:href="0001882" xlink:title="GO:0001882 (159)">
<ellipse fill="#e98576" stroke="#e98576" cx="4978" cy="-234" rx="84.1886" ry="18"/>
<text text-anchor="middle" x="4978" y="-229.8" font-family="Times,serif" font-size="14.00">GO:0001882 (159)</text>
</a>
</g>
<!-- b0&#45;&gt;f0 -->
<g id="edge78" class="edge"><title>b0&#45;&gt;f0</title>
<path fill="none" stroke="black" d="M3975.83,-293.032C3986.78,-291.054 3998.22,-289.245 4009,-288 4395.21,-243.408 4496.54,-294.339 4883,-252 4891.38,-251.082 4900.14,-249.868 4908.79,-248.51"/>
<polygon fill="black" stroke="black" points="4909.58,-251.928 4918.89,-246.859 4908.45,-245.019 4909.58,-251.928"/>
</g>
<!-- f1 -->
<g id="node82" class="node"><title>f1</title>
<a xlink:href="0008144" xlink:title="GO:0008144 (8)">
<ellipse fill="#e98576" stroke="#e98576" cx="5156" cy="-234" rx="75.2018" ry="18"/>
<text text-anchor="middle" x="5156" y="-229.8" font-family="Times,serif" font-size="14.00">GO:0008144 (8)</text>
</a>
</g>
<!-- b0&#45;&gt;f1 -->
<g id="edge80" class="edge"><title>b0&#45;&gt;f1</title>
<path fill="none" stroke="black" d="M3975.35,-293.055C3986.44,-291.048 3998.06,-289.223 4009,-288 4478.35,-235.539 4601.88,-306.492 5071,-252 5078.19,-251.164 5085.69,-250.042 5093.11,-248.771"/>
<polygon fill="black" stroke="black" points="5093.94,-252.177 5103.16,-246.957 5092.7,-245.289 5093.94,-252.177"/>
</g>
<!-- s1 -->
<g id="node86" class="node"><title>s1</title>
<a xlink:href="0019842" xlink:title="GO:0019842 (4)">
<ellipse fill="#e98576" stroke="#e98576" cx="5324" cy="-234" rx="75.2018" ry="18"/>
<text text-anchor="middle" x="5324" y="-229.8" font-family="Times,serif" font-size="14.00">GO:0019842 (4)</text>
</a>
</g>
<!-- b0&#45;&gt;s1 -->
<g id="edge84" class="edge"><title>b0&#45;&gt;s1</title>
<path fill="none" stroke="black" d="M3975.34,-293.015C3986.44,-291.012 3998.05,-289.198 4009,-288 4553.1,-228.465 4696.24,-314.512 5240,-252 5247.11,-251.182 5254.52,-250.071 5261.86,-248.806"/>
<polygon fill="black" stroke="black" points="5262.58,-252.232 5271.79,-246.998 5261.33,-245.345 5262.58,-252.232"/>
</g>
<!-- v1 -->
<g id="node95" class="node"><title>v1</title>
<a xlink:href="0060090" xlink:title="GO:0060090 (3)">
<ellipse fill="#e98576" stroke="#e98576" cx="5492" cy="-234" rx="75.2018" ry="18"/>
<text text-anchor="middle" x="5492" y="-229.8" font-family="Times,serif" font-size="14.00">GO:0060090 (3)</text>
</a>
</g>
<!-- b0&#45;&gt;v1 -->
<g id="edge92" class="edge"><title>b0&#45;&gt;v1</title>
<path fill="none" stroke="black" d="M3975.34,-292.984C3986.44,-290.984 3998.05,-289.179 4009,-288 4627.41,-221.431 4789.96,-321.953 5408,-252 5415.12,-251.195 5422.52,-250.091 5429.86,-248.831"/>
<polygon fill="black" stroke="black" points="5430.58,-252.257 5439.8,-247.027 5429.33,-245.37 5430.58,-252.257"/>
</g>
<!-- d1 -->
<g id="node99" class="node"><title>d1</title>
<a xlink:href="0031406" xlink:title="GO:0031406 (12)">
<ellipse fill="#e98576" stroke="#e98576" cx="5665" cy="-234" rx="79.4447" ry="18"/>
<text text-anchor="middle" x="5665" y="-229.8" font-family="Times,serif" font-size="14.00">GO:0031406 (12)</text>
</a>
</g>
<!-- b0&#45;&gt;d1 -->
<g id="edge96" class="edge"><title>b0&#45;&gt;d1</title>
<path fill="none" stroke="black" d="M3975.33,-292.961C3986.43,-290.962 3998.05,-289.163 4009,-288 4701.73,-214.397 4883.27,-325.603 5576,-252 5583.7,-251.182 5591.73,-250.05 5599.67,-248.755"/>
<polygon fill="black" stroke="black" points="5600.4,-252.182 5609.67,-247.039 5599.22,-245.283 5600.4,-252.182"/>
</g>
<!-- a1 -->
<g id="node106" class="node"><title>a1</title>
<a xlink:href="0046906" xlink:title="GO:0046906 (17)">
<ellipse fill="#e98576" stroke="#e98576" cx="5843" cy="-234" rx="79.4447" ry="18"/>
<text text-anchor="middle" x="5843" y="-229.8" font-family="Times,serif" font-size="14.00">GO:0046906 (17)</text>
</a>
</g>
<!-- b0&#45;&gt;a1 -->
<g id="edge104" class="edge"><title>b0&#45;&gt;a1</title>
<path fill="none" stroke="black" d="M3975.33,-292.94C3986.43,-290.943 3998.05,-289.151 4009,-288 4780.03,-206.986 4981.89,-332.225 5753,-252 5760.98,-251.169 5769.32,-250.005 5777.55,-248.672"/>
<polygon fill="black" stroke="black" points="5778.25,-252.103 5787.52,-246.972 5777.08,-245.203 5778.25,-252.103"/>
</g>
<!-- e0 -->
<g id="node108" class="node"><title>e0</title>
<a xlink:href="0000166" xlink:title="GO:0000166 (226)">
<ellipse fill="#e98576" stroke="#e98576" cx="6026" cy="-234" rx="84.1886" ry="18"/>
<text text-anchor="middle" x="6026" y="-229.8" font-family="Times,serif" font-size="14.00">GO:0000166 (226)</text>
</a>
</g>
<!-- b0&#45;&gt;e0 -->
<g id="edge106" class="edge"><title>b0&#45;&gt;e0</title>
<path fill="none" stroke="black" d="M3975.33,-292.924C3986.43,-290.928 3998.05,-289.14 4009,-288 4858.78,-199.532 5080.72,-335.51 5931,-252 5939.6,-251.155 5948.59,-249.961 5957.47,-248.591"/>
<polygon fill="black" stroke="black" points="5958.11,-252.034 5967.42,-246.981 5956.99,-245.124 5958.11,-252.034"/>
</g>
<!-- c1 -->
<g id="node113" class="node"><title>c1</title>
<a xlink:href="0051540" xlink:title="GO:0051540 (13)">
<ellipse fill="#e98576" stroke="#e98576" cx="6209" cy="-234" rx="79.4447" ry="18"/>
<text text-anchor="middle" x="6209" y="-229.8" font-family="Times,serif" font-size="14.00">GO:0051540 (13)</text>
</a>
</g>
<!-- b0&#45;&gt;c1 -->
<g id="edge112" class="edge"><title>b0&#45;&gt;c1</title>
<path fill="none" stroke="black" d="M3975.33,-292.909C3986.43,-290.915 3998.05,-289.131 4009,-288 4941.95,-191.66 5185.95,-347.384 6119,-252 6126.98,-251.184 6135.32,-250.028 6143.56,-248.7"/>
<polygon fill="black" stroke="black" points="6144.25,-252.131 6153.52,-247.004 6143.08,-245.231 6144.25,-252.131"/>
</g>
<!-- p0 -->
<g id="node25" class="node"><title>p0</title>
<a xlink:href="0008233" xlink:title="GO:0008233 (41)">
<ellipse fill="#e98576" stroke="#e98576" cx="118" cy="-162" rx="79.4447" ry="18"/>
<text text-anchor="middle" x="118" y="-157.8" font-family="Times,serif" font-size="14.00">GO:0008233 (41)</text>
</a>
</g>
<!-- g0&#45;&gt;p0 -->
<g id="edge22" class="edge"><title>g0&#45;&gt;p0</title>
<path fill="none" stroke="black" d="M229.684,-217.291C208.932,-207.203 181.786,-194.007 159.452,-183.151"/>
<polygon fill="black" stroke="black" points="160.732,-179.881 150.209,-178.657 157.672,-186.177 160.732,-179.881"/>
</g>
<!-- w1 -->
<g id="node28" class="node"><title>w1</title>
<a xlink:href="0004497" xlink:title="GO:0004497 (3)">
<ellipse fill="#e98576" stroke="#e98576" cx="291" cy="-162" rx="75.2018" ry="18"/>
<text text-anchor="middle" x="291" y="-157.8" font-family="Times,serif" font-size="14.00">GO:0004497 (3)</text>
</a>
</g>
<!-- j0&#45;&gt;w1 -->
<g id="edge24" class="edge"><title>j0&#45;&gt;w1</title>
<path fill="none" stroke="black" d="M414.713,-217.465C391.105,-207.071 359.871,-193.321 334.694,-182.236"/>
<polygon fill="black" stroke="black" points="335.932,-178.957 325.369,-178.131 333.111,-185.364 335.932,-178.957"/>
</g>
<!-- u1 -->
<g id="node68" class="node"><title>u1</title>
<a xlink:href="0051213" xlink:title="GO:0051213 (3)">
<ellipse fill="#e98576" stroke="#e98576" cx="459" cy="-162" rx="75.2018" ry="18"/>
<text text-anchor="middle" x="459" y="-157.8" font-family="Times,serif" font-size="14.00">GO:0051213 (3)</text>
</a>
</g>
<!-- j0&#45;&gt;u1 -->
<g id="edge66" class="edge"><title>j0&#45;&gt;u1</title>
<path fill="none" stroke="black" d="M452.225,-215.697C453.217,-207.983 454.408,-198.712 455.514,-190.112"/>
<polygon fill="black" stroke="black" points="458.997,-190.469 456.801,-180.104 452.054,-189.576 458.997,-190.469"/>
</g>
<!-- r0 -->
<g id="node102" class="node"><title>r0</title>
<a xlink:href="0009055" xlink:title="GO:0009055 (27)">
<ellipse fill="#e98576" stroke="#e98576" cx="632" cy="-162" rx="79.4447" ry="18"/>
<text text-anchor="middle" x="632" y="-157.8" font-family="Times,serif" font-size="14.00">GO:0009055 (27)</text>
</a>
</g>
<!-- j0&#45;&gt;r0 -->
<g id="edge100" class="edge"><title>j0&#45;&gt;r0</title>
<path fill="none" stroke="black" d="M489.044,-217.983C516.726,-207.336 554.057,-192.978 583.628,-181.605"/>
<polygon fill="black" stroke="black" points="585.257,-184.728 593.334,-177.872 582.744,-178.195 585.257,-184.728"/>
</g>
<!-- i1 -->
<g id="node88" class="node"><title>i1</title>
<a xlink:href="0016597" xlink:title="GO:0016597 (7)">
<ellipse fill="#e98576" stroke="#e98576" cx="3228" cy="-162" rx="75.2018" ry="18"/>
<text text-anchor="middle" x="3228" y="-157.8" font-family="Times,serif" font-size="14.00">GO:0016597 (7)</text>
</a>
</g>
<!-- j1&#45;&gt;i1 -->
<g id="edge86" class="edge"><title>j1&#45;&gt;i1</title>
<path fill="none" stroke="black" d="M3228,-215.697C3228,-207.983 3228,-198.712 3228,-190.112"/>
<polygon fill="black" stroke="black" points="3231.5,-190.104 3228,-180.104 3224.5,-190.104 3231.5,-190.104"/>
</g>
<!-- r1 -->
<g id="node72" class="node"><title>r1</title>
<a xlink:href="0016879" xlink:title="GO:0016879">
<ellipse fill="#dddddd" stroke="#dddddd" cx="801" cy="-162" rx="61.1934" ry="18"/>
<text text-anchor="middle" x="801" y="-157.8" font-family="Times,serif" font-size="14.00">GO:0016879</text>
</a>
</g>
<!-- y0&#45;&gt;r1 -->
<g id="edge70" class="edge"><title>y0&#45;&gt;r1</title>
<path fill="none" stroke="black" d="M801,-215.697C801,-207.983 801,-198.712 801,-190.112"/>
<polygon fill="black" stroke="black" points="804.5,-190.104 801,-180.104 797.5,-190.104 804.5,-190.104"/>
</g>
<!-- q1 -->
<g id="node73" class="node"><title>q1</title>
<a xlink:href="0016881" xlink:title="GO:0016881">
<ellipse fill="#dddddd" stroke="#dddddd" cx="801" cy="-90" rx="61.1934" ry="18"/>
<text text-anchor="middle" x="801" y="-85.8" font-family="Times,serif" font-size="14.00">GO:0016881</text>
</a>
</g>
<!-- r1&#45;&gt;q1 -->
<g id="edge98" class="edge"><title>r1&#45;&gt;q1</title>
<path fill="none" stroke="black" d="M801,-143.697C801,-135.983 801,-126.712 801,-118.112"/>
<polygon fill="black" stroke="black" points="804.5,-118.104 801,-108.104 797.5,-118.104 804.5,-118.104"/>
</g>
<!-- p1 -->
<g id="node75" class="node"><title>p1</title>
<a xlink:href="0019787" xlink:title="GO:0019787 (5)">
<ellipse fill="#e98576" stroke="#e98576" cx="801" cy="-18" rx="75.2018" ry="18"/>
<text text-anchor="middle" x="801" y="-13.8" font-family="Times,serif" font-size="14.00">GO:0019787 (5)</text>
</a>
</g>
<!-- q1&#45;&gt;p1 -->
<g id="edge72" class="edge"><title>q1&#45;&gt;p1</title>
<path fill="none" stroke="black" d="M801,-71.6966C801,-63.9827 801,-54.7125 801,-46.1124"/>
<polygon fill="black" stroke="black" points="804.5,-46.1043 801,-36.1043 797.5,-46.1044 804.5,-46.1043"/>
</g>
<!-- s0 -->
<g id="node93" class="node"><title>s0</title>
<a xlink:href="0004871" xlink:title="GO:0004871 (25)">
<ellipse fill="#e98576" stroke="#e98576" cx="6387" cy="-234" rx="79.4447" ry="18"/>
<text text-anchor="middle" x="6387" y="-229.8" font-family="Times,serif" font-size="14.00">GO:0004871 (25)</text>
</a>
</g>
<!-- t0&#45;&gt;s0 -->
<g id="edge90" class="edge"><title>t0&#45;&gt;s0</title>
<path fill="none" stroke="black" d="M5005.21,-292.996C5015.68,-290.995 5026.65,-289.186 5037,-288 5593.58,-224.203 5740.01,-312.179 6297,-252 6304.98,-251.138 6313.31,-249.955 6321.55,-248.611"/>
<polygon fill="black" stroke="black" points="6322.25,-252.042 6331.51,-246.902 6321.07,-245.142 6322.25,-252.042"/>
</g>
</g>
</svg>
