<?xml version="1.0" encoding="UTF-8" standalone="no"?>
<!DOCTYPE svg PUBLIC "-//W3C//DTD SVG 1.1//EN"
 "http://www.w3.org/Graphics/SVG/1.1/DTD/svg11.dtd">
<!-- Generated by graphviz version 2.28.0 (20110622.2320)
 -->
<!-- Title: G Pages: 1 -->
<svg width="2327pt" height="764pt"
 viewBox="0.00 0.00 2327.00 764.00" xmlns="http://www.w3.org/2000/svg" xmlns:xlink="http://www.w3.org/1999/xlink">
<g id="graph1" class="graph" transform="scale(1 1) rotate(0) translate(4 760)">
<title>G</title>
<polygon fill="white" stroke="white" points="-4,5 -4,-760 2324,-760 2324,5 -4,5"/>
<!-- l0 -->
<g id="node1" class="node"><title>l0</title>
<a xlink:href="0016020" xlink:title="GO:0016020 (17)">
<ellipse fill="#e98576" stroke="#e98576" cx="564" cy="-522" rx="79.4447" ry="18"/>
<text text-anchor="middle" x="564" y="-517.8" font-family="Times,serif" font-size="14.00">GO:0016020 (17)</text>
</a>
</g>
<!-- p1 -->
<g id="node3" class="node"><title>p1</title>
<a xlink:href="0044425" xlink:title="GO:0044425">
<ellipse fill="#dddddd" stroke="#dddddd" cx="456" cy="-450" rx="61.1934" ry="18"/>
<text text-anchor="middle" x="456" y="-445.8" font-family="Times,serif" font-size="14.00">GO:0044425</text>
</a>
</g>
<!-- l0&#45;&gt;p1 -->
<g id="edge2" class="edge"><title>l0&#45;&gt;p1</title>
<path fill="none" stroke="black" d="M538.951,-504.765C524.019,-495.087 504.895,-482.691 488.772,-472.241"/>
<polygon fill="black" stroke="black" points="490.465,-469.168 480.17,-466.666 486.658,-475.042 490.465,-469.168"/>
</g>
<!-- o1 -->
<g id="node36" class="node"><title>o1</title>
<a xlink:href="0005886" xlink:title="GO:0005886">
<ellipse fill="#dddddd" stroke="#dddddd" cx="597" cy="-450" rx="61.1934" ry="18"/>
<text text-anchor="middle" x="597" y="-445.8" font-family="Times,serif" font-size="14.00">GO:0005886</text>
</a>
</g>
<!-- l0&#45;&gt;o1 -->
<g id="edge146" class="edge"><title>l0&#45;&gt;o1</title>
<path fill="none" stroke="black" d="M571.988,-504.055C575.743,-496.091 580.306,-486.411 584.503,-477.51"/>
<polygon fill="black" stroke="black" points="587.758,-478.813 588.856,-468.275 581.426,-475.828 587.758,-478.813"/>
</g>
<!-- n1 -->
<g id="node38" class="node"><title>n1</title>
<a xlink:href="0044459" xlink:title="GO:0044459">
<ellipse fill="#dddddd" stroke="#dddddd" cx="456" cy="-378" rx="61.1934" ry="18"/>
<text text-anchor="middle" x="456" y="-373.8" font-family="Times,serif" font-size="14.00">GO:0044459</text>
</a>
</g>
<!-- p1&#45;&gt;n1 -->
<g id="edge34" class="edge"><title>p1&#45;&gt;n1</title>
<path fill="none" stroke="black" d="M456,-431.697C456,-423.983 456,-414.712 456,-406.112"/>
<polygon fill="black" stroke="black" points="459.5,-406.104 456,-396.104 452.5,-406.104 459.5,-406.104"/>
</g>
<!-- j0 -->
<g id="node4" class="node"><title>j0</title>
<a xlink:href="0044464" xlink:title="GO:0044464 (5)">
<ellipse fill="#e98576" stroke="#e98576" cx="1059" cy="-594" rx="75.2018" ry="18"/>
<text text-anchor="middle" x="1059" y="-589.8" font-family="Times,serif" font-size="14.00">GO:0044464 (5)</text>
</a>
</g>
<!-- j0&#45;&gt;l0 -->
<g id="edge74" class="edge"><title>j0&#45;&gt;l0</title>
<path fill="none" stroke="black" d="M992.368,-585.523C911.79,-576.199 772.138,-559.138 653,-540 645.953,-538.868 638.607,-537.603 631.291,-536.288"/>
<polygon fill="black" stroke="black" points="631.83,-532.829 621.364,-534.472 630.57,-539.714 631.83,-532.829"/>
</g>
<!-- j0&#45;&gt;p1 -->
<g id="edge4" class="edge"><title>j0&#45;&gt;p1</title>
<path fill="none" stroke="black" d="M988.47,-587.691C835.172,-576.008 484.515,-548.438 475,-540 457.966,-524.894 454.089,-498.594 453.953,-478.489"/>
<polygon fill="black" stroke="black" points="457.456,-478.429 454.188,-468.35 450.457,-478.266 457.456,-478.429"/>
</g>
<!-- b2 -->
<g id="node7" class="node"><title>b2</title>
<a xlink:href="0045177" xlink:title="GO:0045177 (1)">
<ellipse fill="#e98576" stroke="#e98576" cx="905" cy="-522" rx="75.2018" ry="18"/>
<text text-anchor="middle" x="905" y="-517.8" font-family="Times,serif" font-size="14.00">GO:0045177 (1)</text>
</a>
</g>
<!-- j0&#45;&gt;b2 -->
<g id="edge6" class="edge"><title>j0&#45;&gt;b2</title>
<path fill="none" stroke="black" d="M1025.58,-577.811C1002.68,-567.4 972.103,-553.501 947.471,-542.305"/>
<polygon fill="black" stroke="black" points="948.902,-539.111 938.35,-538.159 946.006,-545.484 948.902,-539.111"/>
</g>
<!-- h0 -->
<g id="node16" class="node"><title>h0</title>
<a xlink:href="0044424" xlink:title="GO:0044424">
<ellipse fill="#dddddd" stroke="#dddddd" cx="1265" cy="-450" rx="61.1934" ry="18"/>
<text text-anchor="middle" x="1265" y="-445.8" font-family="Times,serif" font-size="14.00">GO:0044424</text>
</a>
</g>
<!-- j0&#45;&gt;h0 -->
<g id="edge60" class="edge"><title>j0&#45;&gt;h0</title>
<path fill="none" stroke="black" d="M1044.14,-576.31C1028.92,-557.125 1009.74,-525.521 1027,-504 1047.95,-477.877 1133.89,-463.801 1196.5,-456.858"/>
<polygon fill="black" stroke="black" points="1197.15,-460.308 1206.72,-455.764 1196.41,-453.348 1197.15,-460.308"/>
</g>
<!-- f1 -->
<g id="node18" class="node"><title>f1</title>
<a xlink:href="0042995" xlink:title="GO:0042995 (1)">
<ellipse fill="#e98576" stroke="#e98576" cx="1757" cy="-522" rx="75.2018" ry="18"/>
<text text-anchor="middle" x="1757" y="-517.8" font-family="Times,serif" font-size="14.00">GO:0042995 (1)</text>
</a>
</g>
<!-- j0&#45;&gt;f1 -->
<g id="edge96" class="edge"><title>j0&#45;&gt;f1</title>
<path fill="none" stroke="black" d="M1131.96,-589.322C1247.13,-582.924 1477.95,-567.706 1672,-540 1678.81,-539.028 1685.89,-537.862 1692.94,-536.601"/>
<polygon fill="black" stroke="black" points="1694,-539.963 1703.2,-534.699 1692.73,-533.081 1694,-539.963"/>
</g>
<!-- i0 -->
<g id="node58" class="node"><title>i0</title>
<a xlink:href="0005622" xlink:title="GO:0005622">
<ellipse fill="#dddddd" stroke="#dddddd" cx="1602" cy="-522" rx="61.1934" ry="18"/>
<text text-anchor="middle" x="1602" y="-517.8" font-family="Times,serif" font-size="14.00">GO:0005622</text>
</a>
</g>
<!-- j0&#45;&gt;i0 -->
<g id="edge148" class="edge"><title>j0&#45;&gt;i0</title>
<path fill="none" stroke="black" d="M1129.76,-587.79C1222.41,-580.345 1389.67,-564.757 1531,-540 1536.38,-539.057 1541.97,-537.949 1547.53,-536.759"/>
<polygon fill="black" stroke="black" points="1548.48,-540.134 1557.48,-534.545 1546.96,-533.301 1548.48,-540.134"/>
</g>
<!-- h1 -->
<g id="node62" class="node"><title>h1</title>
<a xlink:href="0030496" xlink:title="GO:0030496 (1)">
<ellipse fill="#e98576" stroke="#e98576" cx="1111" cy="-522" rx="75.2018" ry="18"/>
<text text-anchor="middle" x="1111" y="-517.8" font-family="Times,serif" font-size="14.00">GO:0030496 (1)</text>
</a>
</g>
<!-- j0&#45;&gt;h1 -->
<g id="edge62" class="edge"><title>j0&#45;&gt;h1</title>
<path fill="none" stroke="black" d="M1071.59,-576.055C1077.85,-567.629 1085.54,-557.28 1092.45,-547.966"/>
<polygon fill="black" stroke="black" points="1095.37,-549.904 1098.53,-539.789 1089.76,-545.729 1095.37,-549.904"/>
</g>
<!-- d1 -->
<g id="node85" class="node"><title>d1</title>
<a xlink:href="0031252" xlink:title="GO:0031252 (2)">
<ellipse fill="#e98576" stroke="#e98576" cx="1279" cy="-522" rx="75.2018" ry="18"/>
<text text-anchor="middle" x="1279" y="-517.8" font-family="Times,serif" font-size="14.00">GO:0031252 (2)</text>
</a>
</g>
<!-- j0&#45;&gt;d1 -->
<g id="edge88" class="edge"><title>j0&#45;&gt;d1</title>
<path fill="none" stroke="black" d="M1102.2,-579.254C1137.58,-567.996 1187.8,-552.018 1225.68,-539.965"/>
<polygon fill="black" stroke="black" points="1227.05,-543.202 1235.52,-536.834 1224.93,-536.531 1227.05,-543.202"/>
</g>
<!-- g1 -->
<g id="node91" class="node"><title>g1</title>
<a xlink:href="0009986" xlink:title="GO:0009986 (2)">
<ellipse fill="#e98576" stroke="#e98576" cx="1447" cy="-522" rx="75.2018" ry="18"/>
<text text-anchor="middle" x="1447" y="-517.8" font-family="Times,serif" font-size="14.00">GO:0009986 (2)</text>
</a>
</g>
<!-- j0&#45;&gt;g1 -->
<g id="edge94" class="edge"><title>j0&#45;&gt;g1</title>
<path fill="none" stroke="black" d="M1118.79,-583.068C1180.16,-572.758 1278.37,-555.938 1363,-540 1369.14,-538.843 1375.53,-537.609 1381.92,-536.353"/>
<polygon fill="black" stroke="black" points="1382.79,-539.748 1391.92,-534.37 1381.43,-532.882 1382.79,-539.748"/>
</g>
<!-- u1 -->
<g id="node8" class="node"><title>u1</title>
<a xlink:href="0043233" xlink:title="GO:0043233">
<ellipse fill="#dddddd" stroke="#dddddd" cx="2258" cy="-306" rx="61.1934" ry="18"/>
<text text-anchor="middle" x="2258" y="-301.8" font-family="Times,serif" font-size="14.00">GO:0043233</text>
</a>
</g>
<!-- t1 -->
<g id="node10" class="node"><title>t1</title>
<a xlink:href="0031981" xlink:title="GO:0031981">
<ellipse fill="#dddddd" stroke="#dddddd" cx="2124" cy="-90" rx="61.1934" ry="18"/>
<text text-anchor="middle" x="2124" y="-85.8" font-family="Times,serif" font-size="14.00">GO:0031981</text>
</a>
</g>
<!-- u1&#45;&gt;t1 -->
<g id="edge8" class="edge"><title>u1&#45;&gt;t1</title>
<path fill="none" stroke="black" d="M2252.19,-287.994C2245.59,-269.62 2233.91,-239.784 2220,-216 2198.16,-178.652 2166.67,-139.751 2145.79,-115.465"/>
<polygon fill="black" stroke="black" points="2148.34,-113.068 2139.14,-107.813 2143.06,-117.658 2148.34,-113.068"/>
</g>
<!-- s1 -->
<g id="node50" class="node"><title>s1</title>
<a xlink:href="0005730" xlink:title="GO:0005730 (1)">
<ellipse fill="#e98576" stroke="#e98576" cx="2124" cy="-18" rx="75.2018" ry="18"/>
<text text-anchor="middle" x="2124" y="-13.8" font-family="Times,serif" font-size="14.00">GO:0005730 (1)</text>
</a>
</g>
<!-- t1&#45;&gt;s1 -->
<g id="edge48" class="edge"><title>t1&#45;&gt;s1</title>
<path fill="none" stroke="black" d="M2124,-71.6966C2124,-63.9827 2124,-54.7125 2124,-46.1124"/>
<polygon fill="black" stroke="black" points="2127.5,-46.1043 2124,-36.1043 2120.5,-46.1044 2127.5,-46.1043"/>
</g>
<!-- x1 -->
<g id="node11" class="node"><title>x1</title>
<a xlink:href="0044428" xlink:title="GO:0044428">
<ellipse fill="#dddddd" stroke="#dddddd" cx="1881" cy="-162" rx="61.1934" ry="18"/>
<text text-anchor="middle" x="1881" y="-157.8" font-family="Times,serif" font-size="14.00">GO:0044428</text>
</a>
</g>
<!-- x1&#45;&gt;t1 -->
<g id="edge10" class="edge"><title>x1&#45;&gt;t1</title>
<path fill="none" stroke="black" d="M1923.05,-148.887C1964.35,-136.991 2027.45,-118.813 2071.9,-106.008"/>
<polygon fill="black" stroke="black" points="2073.01,-109.331 2081.65,-103.199 2071.07,-102.604 2073.01,-109.331"/>
</g>
<!-- x1&#45;&gt;s1 -->
<g id="edge52" class="edge"><title>x1&#45;&gt;s1</title>
<path fill="none" stroke="black" d="M1907.47,-145.533C1951.24,-119.954 2038.76,-68.8084 2088.08,-39.991"/>
<polygon fill="black" stroke="black" points="2089.95,-42.9485 2096.82,-34.8812 2086.42,-36.9047 2089.95,-42.9485"/>
</g>
<!-- q0 -->
<g id="node13" class="node"><title>q0</title>
<a xlink:href="0043234" xlink:title="GO:0043234 (11)">
<ellipse fill="#e98576" stroke="#e98576" cx="756" cy="-450" rx="79.4447" ry="18"/>
<text text-anchor="middle" x="756" y="-445.8" font-family="Times,serif" font-size="14.00">GO:0043234 (11)</text>
</a>
</g>
<!-- c2 -->
<g id="node15" class="node"><title>c2</title>
<a xlink:href="0031248" xlink:title="GO:0031248 (1)">
<ellipse fill="#e98576" stroke="#e98576" cx="816" cy="-378" rx="75.2018" ry="18"/>
<text text-anchor="middle" x="816" y="-373.8" font-family="Times,serif" font-size="14.00">GO:0031248 (1)</text>
</a>
</g>
<!-- q0&#45;&gt;c2 -->
<g id="edge12" class="edge"><title>q0&#45;&gt;c2</title>
<path fill="none" stroke="black" d="M770.524,-432.055C777.894,-423.457 786.98,-412.857 795.088,-403.397"/>
<polygon fill="black" stroke="black" points="797.759,-405.659 801.609,-395.789 792.444,-401.104 797.759,-405.659"/>
</g>
<!-- a2 -->
<g id="node44" class="node"><title>a2</title>
<a xlink:href="0000502" xlink:title="GO:0000502 (1)">
<ellipse fill="#e98576" stroke="#e98576" cx="648" cy="-378" rx="75.2018" ry="18"/>
<text text-anchor="middle" x="648" y="-373.8" font-family="Times,serif" font-size="14.00">GO:0000502 (1)</text>
</a>
</g>
<!-- q0&#45;&gt;a2 -->
<g id="edge40" class="edge"><title>q0&#45;&gt;a2</title>
<path fill="none" stroke="black" d="M730.951,-432.765C716.23,-423.223 697.433,-411.04 681.455,-400.684"/>
<polygon fill="black" stroke="black" points="683.208,-397.649 672.913,-395.147 679.401,-403.523 683.208,-397.649"/>
</g>
<!-- i1 -->
<g id="node116" class="node"><title>i1</title>
<a xlink:href="0016010" xlink:title="GO:0016010 (1)">
<ellipse fill="#e98576" stroke="#e98576" cx="399" cy="-234" rx="75.2018" ry="18"/>
<text text-anchor="middle" x="399" y="-229.8" font-family="Times,serif" font-size="14.00">GO:0016010 (1)</text>
</a>
</g>
<!-- q0&#45;&gt;i1 -->
<g id="edge134" class="edge"><title>q0&#45;&gt;i1</title>
<path fill="none" stroke="black" d="M700.777,-436.992C652.724,-425.959 587.241,-409.345 564,-396 559.806,-393.592 467.857,-303.012 423.079,-258.798"/>
<polygon fill="black" stroke="black" points="425.382,-256.153 415.807,-251.616 420.463,-261.134 425.382,-256.153"/>
</g>
<!-- h0&#45;&gt;c2 -->
<g id="edge14" class="edge"><title>h0&#45;&gt;c2</title>
<path fill="none" stroke="black" d="M1210.12,-441.997C1138.57,-432.646 1009.62,-415.035 900,-396 893.747,-394.914 887.245,-393.718 880.752,-392.479"/>
<polygon fill="black" stroke="black" points="881.075,-388.976 870.591,-390.505 879.74,-395.848 881.075,-388.976"/>
</g>
<!-- w0 -->
<g id="node24" class="node"><title>w0</title>
<a xlink:href="0044444" xlink:title="GO:0044444">
<ellipse fill="#dddddd" stroke="#dddddd" cx="1255" cy="-306" rx="61.1934" ry="18"/>
<text text-anchor="middle" x="1255" y="-301.8" font-family="Times,serif" font-size="14.00">GO:0044444</text>
</a>
</g>
<!-- h0&#45;&gt;w0 -->
<g id="edge72" class="edge"><title>h0&#45;&gt;w0</title>
<path fill="none" stroke="black" d="M1263.79,-431.871C1262.09,-407.67 1258.96,-363.211 1256.93,-334.393"/>
<polygon fill="black" stroke="black" points="1260.4,-333.919 1256.21,-324.189 1253.42,-334.41 1260.4,-333.919"/>
</g>
<!-- g0 -->
<g id="node27" class="node"><title>g0</title>
<a xlink:href="0005737" xlink:title="GO:0005737 (26)">
<ellipse fill="#e98576" stroke="#e98576" cx="1373" cy="-378" rx="79.4447" ry="18"/>
<text text-anchor="middle" x="1373" y="-373.8" font-family="Times,serif" font-size="14.00">GO:0005737 (26)</text>
</a>
</g>
<!-- h0&#45;&gt;g0 -->
<g id="edge22" class="edge"><title>h0&#45;&gt;g0</title>
<path fill="none" stroke="black" d="M1289.24,-433.291C1304.03,-423.7 1323.17,-411.298 1339.41,-400.769"/>
<polygon fill="black" stroke="black" points="1341.61,-403.519 1348.09,-395.142 1337.8,-397.644 1341.61,-403.519"/>
</g>
<!-- h0&#45;&gt;a2 -->
<g id="edge42" class="edge"><title>h0&#45;&gt;a2</title>
<path fill="none" stroke="black" d="M1206,-445.082C1107.45,-438.101 903.267,-421.779 732,-396 725.377,-395.003 718.485,-393.831 711.625,-392.576"/>
<polygon fill="black" stroke="black" points="712.107,-389.106 701.631,-390.69 710.808,-395.984 712.107,-389.106"/>
</g>
<!-- y1 -->
<g id="node75" class="node"><title>y1</title>
<a xlink:href="0044446" xlink:title="GO:0044446">
<ellipse fill="#dddddd" stroke="#dddddd" cx="1782" cy="-306" rx="61.1934" ry="18"/>
<text text-anchor="middle" x="1782" y="-301.8" font-family="Times,serif" font-size="14.00">GO:0044446</text>
</a>
</g>
<!-- h0&#45;&gt;y1 -->
<g id="edge170" class="edge"><title>h0&#45;&gt;y1</title>
<path fill="none" stroke="black" d="M1323.13,-444.046C1406.18,-436.265 1554.04,-419.595 1602,-396 1622.88,-385.731 1620.26,-372.314 1640,-360 1667.04,-343.129 1700.28,-330.358 1727.8,-321.584"/>
<polygon fill="black" stroke="black" points="1729.14,-324.833 1737.66,-318.532 1727.07,-318.146 1729.14,-324.833"/>
</g>
<!-- p0 -->
<g id="node88" class="node"><title>p0</title>
<a xlink:href="0043229" xlink:title="GO:0043229">
<ellipse fill="#dddddd" stroke="#dddddd" cx="1710" cy="-378" rx="61.1934" ry="18"/>
<text text-anchor="middle" x="1710" y="-373.8" font-family="Times,serif" font-size="14.00">GO:0043229</text>
</a>
</g>
<!-- h0&#45;&gt;p0 -->
<g id="edge110" class="edge"><title>h0&#45;&gt;p0</title>
<path fill="none" stroke="black" d="M1320.7,-442.442C1393.31,-433.57 1524.12,-416.472 1635,-396 1641.2,-394.855 1647.67,-393.553 1654.1,-392.191"/>
<polygon fill="black" stroke="black" points="1655.08,-395.559 1664.11,-390.017 1653.6,-388.719 1655.08,-395.559"/>
</g>
<!-- a1 -->
<g id="node142" class="node"><title>a1</title>
<a xlink:href="0030529" xlink:title="GO:0030529 (2)">
<ellipse fill="#e98576" stroke="#e98576" cx="1162" cy="-378" rx="75.2018" ry="18"/>
<text text-anchor="middle" x="1162" y="-373.8" font-family="Times,serif" font-size="14.00">GO:0030529 (2)</text>
</a>
</g>
<!-- h0&#45;&gt;a1 -->
<g id="edge178" class="edge"><title>h0&#45;&gt;a1</title>
<path fill="none" stroke="black" d="M1241.88,-433.291C1227.77,-423.7 1209.52,-411.298 1194.03,-400.769"/>
<polygon fill="black" stroke="black" points="1195.99,-397.869 1185.75,-395.142 1192.06,-403.658 1195.99,-397.869"/>
</g>
<!-- e1 -->
<g id="node20" class="node"><title>e1</title>
<a xlink:href="0043005" xlink:title="GO:0043005 (2)">
<ellipse fill="#e98576" stroke="#e98576" cx="1542" cy="-450" rx="75.2018" ry="18"/>
<text text-anchor="middle" x="1542" y="-445.8" font-family="Times,serif" font-size="14.00">GO:0043005 (2)</text>
</a>
</g>
<!-- f1&#45;&gt;e1 -->
<g id="edge16" class="edge"><title>f1&#45;&gt;e1</title>
<path fill="none" stroke="black" d="M1714.27,-507.087C1679.75,-495.85 1631.04,-479.991 1594.22,-468.002"/>
<polygon fill="black" stroke="black" points="1595.25,-464.655 1584.65,-464.887 1593.08,-471.311 1595.25,-464.655"/>
</g>
<!-- z1 -->
<g id="node145" class="node"><title>z1</title>
<a xlink:href="0005902" xlink:title="GO:0005902 (1)">
<ellipse fill="#e98576" stroke="#e98576" cx="1710" cy="-450" rx="75.2018" ry="18"/>
<text text-anchor="middle" x="1710" y="-445.8" font-family="Times,serif" font-size="14.00">GO:0005902 (1)</text>
</a>
</g>
<!-- f1&#45;&gt;z1 -->
<g id="edge180" class="edge"><title>f1&#45;&gt;z1</title>
<path fill="none" stroke="black" d="M1745.62,-504.055C1740.11,-495.837 1733.36,-485.791 1727.23,-476.66"/>
<polygon fill="black" stroke="black" points="1730.08,-474.626 1721.6,-468.275 1724.27,-478.529 1730.08,-474.626"/>
</g>
<!-- n0 -->
<g id="node21" class="node"><title>n0</title>
<a xlink:href="0043231" xlink:title="GO:0043231 (6)">
<ellipse fill="#e98576" stroke="#e98576" cx="1416" cy="-306" rx="75.2018" ry="18"/>
<text text-anchor="middle" x="1416" y="-301.8" font-family="Times,serif" font-size="14.00">GO:0043231 (6)</text>
</a>
</g>
<!-- b1 -->
<g id="node23" class="node"><title>b1</title>
<a xlink:href="0005773" xlink:title="GO:0005773 (2)">
<ellipse fill="#e98576" stroke="#e98576" cx="1406" cy="-234" rx="75.2018" ry="18"/>
<text text-anchor="middle" x="1406" y="-229.8" font-family="Times,serif" font-size="14.00">GO:0005773 (2)</text>
</a>
</g>
<!-- n0&#45;&gt;b1 -->
<g id="edge18" class="edge"><title>n0&#45;&gt;b1</title>
<path fill="none" stroke="black" d="M1413.53,-287.697C1412.43,-279.983 1411.1,-270.712 1409.87,-262.112"/>
<polygon fill="black" stroke="black" points="1413.32,-261.509 1408.44,-252.104 1406.39,-262.499 1413.32,-261.509"/>
</g>
<!-- x0 -->
<g id="node29" class="node"><title>x0</title>
<a xlink:href="0042579" xlink:title="GO:0042579 (2)">
<ellipse fill="#e98576" stroke="#e98576" cx="1574" cy="-234" rx="75.2018" ry="18"/>
<text text-anchor="middle" x="1574" y="-229.8" font-family="Times,serif" font-size="14.00">GO:0042579 (2)</text>
</a>
</g>
<!-- n0&#45;&gt;x0 -->
<g id="edge24" class="edge"><title>n0&#45;&gt;x0</title>
<path fill="none" stroke="black" d="M1450.28,-289.811C1473.78,-279.4 1505.15,-265.501 1530.43,-254.305"/>
<polygon fill="black" stroke="black" points="1532.06,-257.41 1539.78,-250.159 1529.22,-251.01 1532.06,-257.41"/>
</g>
<!-- q1 -->
<g id="node41" class="node"><title>q1</title>
<a xlink:href="0005783" xlink:title="GO:0005783 (1)">
<ellipse fill="#e98576" stroke="#e98576" cx="902" cy="-234" rx="75.2018" ry="18"/>
<text text-anchor="middle" x="902" y="-229.8" font-family="Times,serif" font-size="14.00">GO:0005783 (1)</text>
</a>
</g>
<!-- n0&#45;&gt;q1 -->
<g id="edge36" class="edge"><title>n0&#45;&gt;q1</title>
<path fill="none" stroke="black" d="M1360.29,-293.873C1348.66,-291.752 1336.45,-289.675 1325,-288 1175.08,-266.071 1135.75,-275.053 986,-252 979.38,-250.981 972.491,-249.795 965.632,-248.531"/>
<polygon fill="black" stroke="black" points="966.116,-245.061 955.639,-246.636 964.812,-251.938 966.116,-245.061"/>
</g>
<!-- v0 -->
<g id="node47" class="node"><title>v0</title>
<a xlink:href="0005739" xlink:title="GO:0005739 (3)">
<ellipse fill="#e98576" stroke="#e98576" cx="1070" cy="-234" rx="75.2018" ry="18"/>
<text text-anchor="middle" x="1070" y="-229.8" font-family="Times,serif" font-size="14.00">GO:0005739 (3)</text>
</a>
</g>
<!-- n0&#45;&gt;v0 -->
<g id="edge44" class="edge"><title>n0&#45;&gt;v0</title>
<path fill="none" stroke="black" d="M1360.41,-293.753C1299.12,-281.354 1200.61,-261.424 1135.59,-248.27"/>
<polygon fill="black" stroke="black" points="1135.95,-244.771 1125.45,-246.219 1134.56,-251.632 1135.95,-244.771"/>
</g>
<!-- m0 -->
<g id="node73" class="node"><title>m0</title>
<a xlink:href="0005634" xlink:title="GO:0005634 (16)">
<ellipse fill="#e98576" stroke="#e98576" cx="1747" cy="-234" rx="79.4447" ry="18"/>
<text text-anchor="middle" x="1747" y="-229.8" font-family="Times,serif" font-size="14.00">GO:0005634 (16)</text>
</a>
</g>
<!-- n0&#45;&gt;m0 -->
<g id="edge164" class="edge"><title>n0&#45;&gt;m0</title>
<path fill="none" stroke="black" d="M1470.29,-293.519C1527.97,-281.321 1619.19,-262.029 1680.99,-248.961"/>
<polygon fill="black" stroke="black" points="1681.96,-252.331 1691.02,-246.838 1680.52,-245.483 1681.96,-252.331"/>
</g>
<!-- c1 -->
<g id="node94" class="node"><title>c1</title>
<a xlink:href="0005768" xlink:title="GO:0005768 (2)">
<ellipse fill="#e98576" stroke="#e98576" cx="1238" cy="-234" rx="75.2018" ry="18"/>
<text text-anchor="middle" x="1238" y="-229.8" font-family="Times,serif" font-size="14.00">GO:0005768 (2)</text>
</a>
</g>
<!-- n0&#45;&gt;c1 -->
<g id="edge98" class="edge"><title>n0&#45;&gt;c1</title>
<path fill="none" stroke="black" d="M1378.69,-290.326C1351.39,-279.592 1314.17,-264.956 1284.87,-253.433"/>
<polygon fill="black" stroke="black" points="1285.85,-250.058 1275.27,-249.655 1283.29,-256.572 1285.85,-250.058"/>
</g>
<!-- w0&#45;&gt;b1 -->
<g id="edge20" class="edge"><title>w0&#45;&gt;b1</title>
<path fill="none" stroke="black" d="M1286.29,-290.496C1308.81,-280.056 1339.43,-265.86 1364.07,-254.439"/>
<polygon fill="black" stroke="black" points="1365.59,-257.593 1373.19,-250.212 1362.64,-251.242 1365.59,-257.593"/>
</g>
<!-- w0&#45;&gt;x0 -->
<g id="edge26" class="edge"><title>w0&#45;&gt;x0</title>
<path fill="none" stroke="black" d="M1302.64,-294.468C1312.36,-292.325 1322.51,-290.087 1332,-288 1392.52,-274.692 1461.57,-259.576 1510.38,-248.903"/>
<polygon fill="black" stroke="black" points="1511.15,-252.318 1520.17,-246.762 1509.65,-245.479 1511.15,-252.318"/>
</g>
<!-- w0&#45;&gt;q1 -->
<g id="edge38" class="edge"><title>w0&#45;&gt;q1</title>
<path fill="none" stroke="black" d="M1205.41,-295.308C1151.42,-284.739 1062.55,-267.287 986,-252 979.968,-250.795 973.693,-249.536 967.411,-248.272"/>
<polygon fill="black" stroke="black" points="968.063,-244.833 957.568,-246.288 966.679,-251.695 968.063,-244.833"/>
</g>
<!-- w0&#45;&gt;v0 -->
<g id="edge46" class="edge"><title>w0&#45;&gt;v0</title>
<path fill="none" stroke="black" d="M1218.89,-291.337C1190.11,-280.448 1149.56,-265.102 1118.04,-253.176"/>
<polygon fill="black" stroke="black" points="1119.16,-249.859 1108.57,-249.594 1116.68,-256.406 1119.16,-249.859"/>
</g>
<!-- w0&#45;&gt;c1 -->
<g id="edge100" class="edge"><title>w0&#45;&gt;c1</title>
<path fill="none" stroke="black" d="M1250.8,-287.697C1248.9,-279.898 1246.62,-270.509 1244.52,-261.829"/>
<polygon fill="black" stroke="black" points="1247.92,-260.996 1242.15,-252.104 1241.11,-262.648 1247.92,-260.996"/>
</g>
<!-- w0&#45;&gt;i1 -->
<g id="edge140" class="edge"><title>w0&#45;&gt;i1</title>
<path fill="none" stroke="black" d="M1196.84,-300.244C1047.4,-288.023 649.77,-255.507 478.883,-241.532"/>
<polygon fill="black" stroke="black" points="478.95,-238.026 468.698,-240.7 478.38,-245.003 478.95,-238.026"/>
</g>
<!-- g0&#45;&gt;w0 -->
<g id="edge70" class="edge"><title>g0&#45;&gt;w0</title>
<path fill="none" stroke="black" d="M1345.93,-360.941C1329.36,-351.11 1307.98,-338.427 1290.11,-327.829"/>
<polygon fill="black" stroke="black" points="1291.52,-324.595 1281.13,-322.503 1287.95,-330.616 1291.52,-324.595"/>
</g>
<!-- c0 -->
<g id="node31" class="node"><title>c0</title>
<a xlink:href="0005575" xlink:title="GO:0005575 (4)">
<ellipse fill="#e98576" stroke="#e98576" cx="970" cy="-738" rx="75.2018" ry="18"/>
<text text-anchor="middle" x="970" y="-733.8" font-family="Times,serif" font-size="14.00">GO:0005575 (4)</text>
</a>
</g>
<!-- c0&#45;&gt;j0 -->
<g id="edge128" class="edge"><title>c0&#45;&gt;j0</title>
<path fill="none" stroke="black" d="M970.174,-719.94C971.114,-700.982 974.924,-670.13 989,-648 996.966,-635.477 1009,-624.813 1020.85,-616.406"/>
<polygon fill="black" stroke="black" points="1023.03,-619.16 1029.39,-610.688 1019.13,-613.344 1023.03,-619.16"/>
</g>
<!-- w1 -->
<g id="node33" class="node"><title>w1</title>
<a xlink:href="0044422" xlink:title="GO:0044422">
<ellipse fill="#dddddd" stroke="#dddddd" cx="2169" cy="-378" rx="61.1934" ry="18"/>
<text text-anchor="middle" x="2169" y="-373.8" font-family="Times,serif" font-size="14.00">GO:0044422</text>
</a>
</g>
<!-- c0&#45;&gt;w1 -->
<g id="edge28" class="edge"><title>c0&#45;&gt;w1</title>
<path fill="none" stroke="black" d="M1043.56,-734.124C1272,-724.223 1954,-686.965 1954,-595 1954,-595 1954,-595 1954,-521 1954,-480.153 2063.42,-425.32 2126.14,-397.243"/>
<polygon fill="black" stroke="black" points="2127.68,-400.387 2135.41,-393.136 2124.85,-393.987 2127.68,-400.387"/>
</g>
<!-- b0 -->
<g id="node34" class="node"><title>b0</title>
<a xlink:href="0043226" xlink:title="GO:0043226">
<ellipse fill="#dddddd" stroke="#dddddd" cx="1865" cy="-450" rx="61.1934" ry="18"/>
<text text-anchor="middle" x="1865" y="-445.8" font-family="Times,serif" font-size="14.00">GO:0043226</text>
</a>
</g>
<!-- c0&#45;&gt;b0 -->
<g id="edge106" class="edge"><title>c0&#45;&gt;b0</title>
<path fill="none" stroke="black" d="M1038.44,-730.562C1222.99,-711.848 1724.75,-651.585 1841,-540 1857.64,-524.031 1863.15,-497.84 1864.79,-477.994"/>
<polygon fill="black" stroke="black" points="1868.28,-478.183 1865.34,-468.005 1861.29,-477.797 1868.28,-478.183"/>
</g>
<!-- k0 -->
<g id="node55" class="node"><title>k0</title>
<a xlink:href="0005623" xlink:title="GO:0005623">
<ellipse fill="#dddddd" stroke="#dddddd" cx="1059" cy="-666" rx="61.1934" ry="18"/>
<text text-anchor="middle" x="1059" y="-661.8" font-family="Times,serif" font-size="14.00">GO:0005623</text>
</a>
</g>
<!-- c0&#45;&gt;k0 -->
<g id="edge54" class="edge"><title>c0&#45;&gt;k0</title>
<path fill="none" stroke="black" d="M991.092,-720.411C1002.9,-711.125 1017.78,-699.421 1030.6,-689.338"/>
<polygon fill="black" stroke="black" points="1032.98,-691.921 1038.67,-682.988 1028.65,-686.419 1032.98,-691.921"/>
</g>
<!-- f0 -->
<g id="node64" class="node"><title>f0</title>
<a xlink:href="0005576" xlink:title="GO:0005576 (16)">
<ellipse fill="#e98576" stroke="#e98576" cx="603" cy="-666" rx="79.4447" ry="18"/>
<text text-anchor="middle" x="603" y="-661.8" font-family="Times,serif" font-size="14.00">GO:0005576 (16)</text>
</a>
</g>
<!-- c0&#45;&gt;f0 -->
<g id="edge64" class="edge"><title>c0&#45;&gt;f0</title>
<path fill="none" stroke="black" d="M913.059,-726.139C847.91,-713.713 741.263,-693.372 671.595,-680.083"/>
<polygon fill="black" stroke="black" points="672.072,-676.611 661.593,-678.176 670.761,-683.488 672.072,-676.611"/>
</g>
<!-- z0 -->
<g id="node65" class="node"><title>z0</title>
<a xlink:href="0031012" xlink:title="GO:0031012 (2)">
<ellipse fill="#e98576" stroke="#e98576" cx="202" cy="-522" rx="75.2018" ry="18"/>
<text text-anchor="middle" x="202" y="-517.8" font-family="Times,serif" font-size="14.00">GO:0031012 (2)</text>
</a>
</g>
<!-- c0&#45;&gt;z0 -->
<g id="edge104" class="edge"><title>c0&#45;&gt;z0</title>
<path fill="none" stroke="black" d="M894.877,-736.48C803.091,-733.991 643.976,-723.644 514,-684 405.202,-650.816 289.234,-580.46 234.361,-544.759"/>
<polygon fill="black" stroke="black" points="236.058,-541.687 225.776,-539.131 232.22,-547.541 236.058,-541.687"/>
</g>
<!-- e0 -->
<g id="node68" class="node"><title>e0</title>
<a xlink:href="0044421" xlink:title="GO:0044421">
<ellipse fill="#dddddd" stroke="#dddddd" cx="367" cy="-522" rx="61.1934" ry="18"/>
<text text-anchor="middle" x="367" y="-517.8" font-family="Times,serif" font-size="14.00">GO:0044421</text>
</a>
</g>
<!-- c0&#45;&gt;e0 -->
<g id="edge158" class="edge"><title>c0&#45;&gt;e0</title>
<path fill="none" stroke="black" d="M929.499,-722.627C821.862,-684.427 529.085,-580.523 414.183,-539.745"/>
<polygon fill="black" stroke="black" points="415.193,-536.39 404.598,-536.343 412.852,-542.986 415.193,-536.39"/>
</g>
<!-- m1 -->
<g id="node81" class="node"><title>m1</title>
<a xlink:href="0044420" xlink:title="GO:0044420">
<ellipse fill="#dddddd" stroke="#dddddd" cx="61" cy="-450" rx="61.1934" ry="18"/>
<text text-anchor="middle" x="61" y="-445.8" font-family="Times,serif" font-size="14.00">GO:0044420</text>
</a>
</g>
<!-- c0&#45;&gt;m1 -->
<g id="edge172" class="edge"><title>c0&#45;&gt;m1</title>
<path fill="none" stroke="black" d="M894.812,-737.901C787.654,-737.366 585.734,-729.582 421,-684 277.299,-644.238 229.858,-638.584 118,-540 98.2165,-522.564 82.6812,-496.655 72.8594,-477.282"/>
<polygon fill="black" stroke="black" points="75.9077,-475.547 68.3775,-468.094 69.6164,-478.617 75.9077,-475.547"/>
</g>
<!-- v1 -->
<g id="node97" class="node"><title>v1</title>
<a xlink:href="0031974" xlink:title="GO:0031974">
<ellipse fill="#dddddd" stroke="#dddddd" cx="2150" cy="-594" rx="61.1934" ry="18"/>
<text text-anchor="middle" x="2150" y="-589.8" font-family="Times,serif" font-size="14.00">GO:0031974</text>
</a>
</g>
<!-- c0&#45;&gt;v1 -->
<g id="edge102" class="edge"><title>c0&#45;&gt;v1</title>
<path fill="none" stroke="black" d="M1044.55,-735.756C1261.56,-731.758 1882.94,-717.487 1968,-684 1991.19,-674.87 1989.5,-660.614 2011,-648 2038.18,-632.052 2071.03,-619.266 2097.96,-610.251"/>
<polygon fill="black" stroke="black" points="2099.18,-613.535 2107.6,-607.102 2097.01,-606.882 2099.18,-613.535"/>
</g>
<!-- r0 -->
<g id="node129" class="node"><title>r0</title>
<a xlink:href="0032991" xlink:title="GO:0032991 (2)">
<ellipse fill="#e98576" stroke="#e98576" cx="737" cy="-522" rx="75.2018" ry="18"/>
<text text-anchor="middle" x="737" y="-517.8" font-family="Times,serif" font-size="14.00">GO:0032991 (2)</text>
</a>
</g>
<!-- c0&#45;&gt;r0 -->
<g id="edge154" class="edge"><title>c0&#45;&gt;r0</title>
<path fill="none" stroke="black" d="M958.09,-719.806C935.72,-688.394 884.721,-620.844 830,-576 814.598,-563.378 795.795,-552.036 779.138,-543.115"/>
<polygon fill="black" stroke="black" points="780.623,-539.942 770.139,-538.415 777.382,-546.147 780.623,-539.942"/>
</g>
<!-- y0 -->
<g id="node134" class="node"><title>y0</title>
<a xlink:href="0045202" xlink:title="GO:0045202 (2)">
<ellipse fill="#e98576" stroke="#e98576" cx="2095" cy="-666" rx="75.2018" ry="18"/>
<text text-anchor="middle" x="2095" y="-661.8" font-family="Times,serif" font-size="14.00">GO:0045202 (2)</text>
</a>
</g>
<!-- c0&#45;&gt;y0 -->
<g id="edge162" class="edge"><title>c0&#45;&gt;y0</title>
<path fill="none" stroke="black" d="M1045.06,-736.693C1216.15,-735.222 1647.95,-727.147 2006,-684 2014.11,-683.023 2022.58,-681.744 2030.95,-680.325"/>
<polygon fill="black" stroke="black" points="2031.82,-683.724 2041.06,-678.535 2030.6,-676.831 2031.82,-683.724"/>
</g>
<!-- w1&#45;&gt;u1 -->
<g id="edge122" class="edge"><title>w1&#45;&gt;u1</title>
<path fill="none" stroke="black" d="M2189.64,-360.765C2201.44,-351.488 2216.41,-339.714 2229.33,-329.551"/>
<polygon fill="black" stroke="black" points="2231.77,-332.081 2237.47,-323.147 2227.45,-326.578 2231.77,-332.081"/>
</g>
<!-- w1&#45;&gt;y1 -->
<g id="edge168" class="edge"><title>w1&#45;&gt;y1</title>
<path fill="none" stroke="black" d="M2124.03,-365.74C2115.41,-363.722 2106.45,-361.717 2098,-360 2010.94,-342.298 1909.52,-326.056 1845.54,-316.342"/>
<polygon fill="black" stroke="black" points="1846.01,-312.873 1835.6,-314.839 1844.97,-319.795 1846.01,-312.873"/>
</g>
<!-- b0&#45;&gt;w1 -->
<g id="edge30" class="edge"><title>b0&#45;&gt;w1</title>
<path fill="none" stroke="black" d="M1911.97,-438.346C1974.7,-424.113 2080.05,-400.191 2098,-396 2102.96,-394.841 2108.12,-393.627 2113.29,-392.403"/>
<polygon fill="black" stroke="black" points="2114.27,-395.768 2123.19,-390.05 2112.65,-388.958 2114.27,-395.768"/>
</g>
<!-- a0 -->
<g id="node57" class="node"><title>a0</title>
<a xlink:href="0031982" xlink:title="GO:0031982 (28)">
<ellipse fill="#e98576" stroke="#e98576" cx="1869" cy="-378" rx="79.4447" ry="18"/>
<text text-anchor="middle" x="1869" y="-373.8" font-family="Times,serif" font-size="14.00">GO:0031982 (28)</text>
</a>
</g>
<!-- b0&#45;&gt;a0 -->
<g id="edge56" class="edge"><title>b0&#45;&gt;a0</title>
<path fill="none" stroke="black" d="M1865.99,-431.697C1866.43,-423.983 1866.96,-414.712 1867.45,-406.112"/>
<polygon fill="black" stroke="black" points="1870.95,-406.288 1868.02,-396.104 1863.96,-405.888 1870.95,-406.288"/>
</g>
<!-- u0 -->
<g id="node86" class="node"><title>u0</title>
<a xlink:href="0043228" xlink:title="GO:0043228">
<ellipse fill="#dddddd" stroke="#dddddd" cx="2028" cy="-378" rx="61.1934" ry="18"/>
<text text-anchor="middle" x="2028" y="-373.8" font-family="Times,serif" font-size="14.00">GO:0043228</text>
</a>
</g>
<!-- b0&#45;&gt;u0 -->
<g id="edge156" class="edge"><title>b0&#45;&gt;u0</title>
<path fill="none" stroke="black" d="M1897.99,-434.834C1923.2,-424.006 1958.15,-408.995 1985.47,-397.265"/>
<polygon fill="black" stroke="black" points="1986.98,-400.426 1994.78,-393.264 1984.21,-393.995 1986.98,-400.426"/>
</g>
<!-- b0&#45;&gt;p0 -->
<g id="edge108" class="edge"><title>b0&#45;&gt;p0</title>
<path fill="none" stroke="black" d="M1832.88,-434.496C1809.3,-423.843 1777.05,-409.279 1751.5,-397.744"/>
<polygon fill="black" stroke="black" points="1752.63,-394.412 1742.07,-393.485 1749.75,-400.791 1752.63,-394.412"/>
</g>
<!-- d0 -->
<g id="node111" class="node"><title>d0</title>
<a xlink:href="0043230" xlink:title="GO:0043230 (28)">
<ellipse fill="#e98576" stroke="#e98576" cx="989" cy="-378" rx="79.4447" ry="18"/>
<text text-anchor="middle" x="989" y="-373.8" font-family="Times,serif" font-size="14.00">GO:0043230 (28)</text>
</a>
</g>
<!-- b0&#45;&gt;d0 -->
<g id="edge124" class="edge"><title>b0&#45;&gt;d0</title>
<path fill="none" stroke="black" d="M1821.31,-437.202C1812.34,-435.156 1802.91,-433.279 1794,-432 1478.61,-386.71 1394.35,-433.981 1078,-396 1070.42,-395.09 1062.52,-393.915 1054.69,-392.607"/>
<polygon fill="black" stroke="black" points="1055.29,-389.159 1044.84,-390.89 1054.09,-396.055 1055.29,-389.159"/>
</g>
<!-- o0 -->
<g id="node123" class="node"><title>o0</title>
<a xlink:href="0043227" xlink:title="GO:0043227">
<ellipse fill="#dddddd" stroke="#dddddd" cx="1532" cy="-378" rx="61.1934" ry="18"/>
<text text-anchor="middle" x="1532" y="-373.8" font-family="Times,serif" font-size="14.00">GO:0043227</text>
</a>
</g>
<!-- b0&#45;&gt;o0 -->
<g id="edge144" class="edge"><title>b0&#45;&gt;o0</title>
<path fill="none" stroke="black" d="M1819.6,-437.878C1811.11,-435.868 1802.29,-433.831 1794,-432 1724.82,-416.726 1644.98,-400.821 1591.79,-390.47"/>
<polygon fill="black" stroke="black" points="1592.33,-387.01 1581.85,-388.539 1591,-393.881 1592.33,-387.01"/>
</g>
<!-- o1&#45;&gt;n1 -->
<g id="edge32" class="edge"><title>o1&#45;&gt;n1</title>
<path fill="none" stroke="black" d="M567.098,-434.155C546.067,-423.714 517.725,-409.644 494.931,-398.328"/>
<polygon fill="black" stroke="black" points="496.373,-395.136 485.859,-393.824 493.26,-401.405 496.373,-395.136"/>
</g>
<!-- n1&#45;&gt;i1 -->
<g id="edge142" class="edge"><title>n1&#45;&gt;i1</title>
<path fill="none" stroke="black" d="M449.124,-359.871C439.324,-335.457 421.248,-290.426 409.692,-261.635"/>
<polygon fill="black" stroke="black" points="412.873,-260.166 405.9,-252.189 406.377,-262.773 412.873,-260.166"/>
</g>
<!-- t0 -->
<g id="node51" class="node"><title>t0</title>
<a xlink:href="0043232" xlink:title="GO:0043232 (3)">
<ellipse fill="#e98576" stroke="#e98576" cx="2028" cy="-306" rx="75.2018" ry="18"/>
<text text-anchor="middle" x="2028" y="-301.8" font-family="Times,serif" font-size="14.00">GO:0043232 (3)</text>
</a>
</g>
<!-- t0&#45;&gt;s1 -->
<g id="edge50" class="edge"><title>t0&#45;&gt;s1</title>
<path fill="none" stroke="black" d="M2090.92,-295.964C2140.65,-287.382 2204.24,-272.704 2220,-252 2246.16,-217.644 2262.81,-184.06 2194,-72 2186.23,-59.3522 2174.25,-48.6585 2162.38,-40.2619"/>
<polygon fill="black" stroke="black" points="2164.08,-37.1898 2153.82,-34.5589 2160.2,-43.0156 2164.08,-37.1898"/>
</g>
<!-- r1 -->
<g id="node78" class="node"><title>r1</title>
<a xlink:href="0005694" xlink:title="GO:0005694 (1)">
<ellipse fill="#e98576" stroke="#e98576" cx="2136" cy="-234" rx="75.2018" ry="18"/>
<text text-anchor="middle" x="2136" y="-229.8" font-family="Times,serif" font-size="14.00">GO:0005694 (1)</text>
</a>
</g>
<!-- t0&#45;&gt;r1 -->
<g id="edge80" class="edge"><title>t0&#45;&gt;r1</title>
<path fill="none" stroke="black" d="M2052.78,-288.941C2067.49,-279.405 2086.34,-267.184 2102.39,-256.787"/>
<polygon fill="black" stroke="black" points="2104.48,-259.603 2110.96,-251.227 2100.67,-253.729 2104.48,-259.603"/>
</g>
<!-- s0 -->
<g id="node103" class="node"><title>s0</title>
<a xlink:href="0005856" xlink:title="GO:0005856 (10)">
<ellipse fill="#e98576" stroke="#e98576" cx="1963" cy="-234" rx="79.4447" ry="18"/>
<text text-anchor="middle" x="1963" y="-229.8" font-family="Times,serif" font-size="14.00">GO:0005856 (10)</text>
</a>
</g>
<!-- t0&#45;&gt;s0 -->
<g id="edge112" class="edge"><title>t0&#45;&gt;s0</title>
<path fill="none" stroke="black" d="M2012.27,-288.055C2004.28,-279.457 1994.44,-268.857 1985.65,-259.397"/>
<polygon fill="black" stroke="black" points="1987.96,-256.735 1978.59,-251.789 1982.83,-261.499 1987.96,-256.735"/>
</g>
<!-- k0&#45;&gt;j0 -->
<g id="edge130" class="edge"><title>k0&#45;&gt;j0</title>
<path fill="none" stroke="black" d="M1059,-647.697C1059,-639.983 1059,-630.712 1059,-622.112"/>
<polygon fill="black" stroke="black" points="1062.5,-622.104 1059,-612.104 1055.5,-622.104 1062.5,-622.104"/>
</g>
<!-- i0&#45;&gt;h0 -->
<g id="edge58" class="edge"><title>i0&#45;&gt;h0</title>
<path fill="none" stroke="black" d="M1556.61,-509.858C1548.11,-507.85 1539.3,-505.819 1531,-504 1460.57,-488.557 1379.22,-472.625 1325.22,-462.315"/>
<polygon fill="black" stroke="black" points="1325.6,-458.826 1315.13,-460.393 1324.29,-465.703 1325.6,-458.826"/>
</g>
<!-- f0&#45;&gt;e0 -->
<g id="edge160" class="edge"><title>f0&#45;&gt;e0</title>
<path fill="none" stroke="black" d="M576.387,-648.987C533.466,-623.161 448.98,-572.327 401.497,-543.756"/>
<polygon fill="black" stroke="black" points="403.171,-540.679 392.798,-538.522 399.562,-546.677 403.171,-540.679"/>
</g>
<!-- l1 -->
<g id="node67" class="node"><title>l1</title>
<a xlink:href="0005578" xlink:title="GO:0005578">
<ellipse fill="#dddddd" stroke="#dddddd" cx="202" cy="-450" rx="61.1934" ry="18"/>
<text text-anchor="middle" x="202" y="-445.8" font-family="Times,serif" font-size="14.00">GO:0005578</text>
</a>
</g>
<!-- z0&#45;&gt;l1 -->
<g id="edge66" class="edge"><title>z0&#45;&gt;l1</title>
<path fill="none" stroke="black" d="M202,-503.697C202,-495.983 202,-486.712 202,-478.112"/>
<polygon fill="black" stroke="black" points="205.5,-478.104 202,-468.104 198.5,-478.104 205.5,-478.104"/>
</g>
<!-- z0&#45;&gt;m1 -->
<g id="edge174" class="edge"><title>z0&#45;&gt;m1</title>
<path fill="none" stroke="black" d="M170.708,-505.465C149.836,-495.103 122.243,-481.404 99.951,-470.337"/>
<polygon fill="black" stroke="black" points="101.27,-467.085 90.7571,-465.773 98.1577,-473.355 101.27,-467.085"/>
</g>
<!-- k1 -->
<g id="node80" class="node"><title>k1</title>
<a xlink:href="0005604" xlink:title="GO:0005604">
<ellipse fill="#dddddd" stroke="#dddddd" cx="221" cy="-378" rx="61.1934" ry="18"/>
<text text-anchor="middle" x="221" y="-373.8" font-family="Times,serif" font-size="14.00">GO:0005604</text>
</a>
</g>
<!-- l1&#45;&gt;k1 -->
<g id="edge82" class="edge"><title>l1&#45;&gt;k1</title>
<path fill="none" stroke="black" d="M206.697,-431.697C208.813,-423.898 211.362,-414.509 213.718,-405.829"/>
<polygon fill="black" stroke="black" points="217.116,-406.672 216.357,-396.104 210.36,-404.838 217.116,-406.672"/>
</g>
<!-- e0&#45;&gt;l1 -->
<g id="edge68" class="edge"><title>e0&#45;&gt;l1</title>
<path fill="none" stroke="black" d="M333.61,-506.834C308.002,-495.971 272.47,-480.896 244.779,-469.149"/>
<polygon fill="black" stroke="black" points="245.913,-465.828 235.341,-465.144 243.179,-472.272 245.913,-465.828"/>
</g>
<!-- e0&#45;&gt;k1 -->
<g id="edge86" class="edge"><title>e0&#45;&gt;k1</title>
<path fill="none" stroke="black" d="M349.966,-504.433C324.141,-479.315 274.962,-431.484 245.361,-402.694"/>
<polygon fill="black" stroke="black" points="247.534,-399.925 237.925,-395.462 242.654,-404.943 247.534,-399.925"/>
</g>
<!-- j1 -->
<g id="node105" class="node"><title>j1</title>
<a xlink:href="0005605" xlink:title="GO:0005605">
<ellipse fill="#dddddd" stroke="#dddddd" cx="240" cy="-306" rx="61.1934" ry="18"/>
<text text-anchor="middle" x="240" y="-301.8" font-family="Times,serif" font-size="14.00">GO:0005605</text>
</a>
</g>
<!-- e0&#45;&gt;j1 -->
<g id="edge118" class="edge"><title>e0&#45;&gt;j1</title>
<path fill="none" stroke="black" d="M361.097,-504.055C350.052,-473.616 324.334,-408.35 291,-360 283.824,-349.592 274.571,-339.308 265.921,-330.608"/>
<polygon fill="black" stroke="black" points="268.143,-327.886 258.542,-323.407 263.255,-332.896 268.143,-327.886"/>
</g>
<!-- e0&#45;&gt;d0 -->
<g id="edge126" class="edge"><title>e0&#45;&gt;d0</title>
<path fill="none" stroke="black" d="M418.55,-512.252C436.396,-509.392 456.548,-506.35 475,-504 638.458,-483.18 687.788,-520.44 844,-468 888.155,-453.177 932.929,-422.847 960.807,-401.738"/>
<polygon fill="black" stroke="black" points="963.108,-404.384 968.896,-395.51 958.837,-398.837 963.108,-404.384"/>
</g>
<!-- e0&#45;&gt;i1 -->
<g id="edge138" class="edge"><title>e0&#45;&gt;i1</title>
<path fill="none" stroke="black" d="M368.906,-503.966C374.251,-456.192 389.42,-320.623 395.949,-262.266"/>
<polygon fill="black" stroke="black" points="399.43,-262.634 397.064,-252.306 392.473,-261.855 399.43,-262.634"/>
</g>
<!-- m0&#45;&gt;x1 -->
<g id="edge76" class="edge"><title>m0&#45;&gt;x1</title>
<path fill="none" stroke="black" d="M1777.07,-217.291C1796.7,-207.038 1822.48,-193.573 1843.45,-182.618"/>
<polygon fill="black" stroke="black" points="1845.16,-185.67 1852.41,-177.938 1841.92,-179.466 1845.16,-185.67"/>
</g>
<!-- y1&#45;&gt;x1 -->
<g id="edge78" class="edge"><title>y1&#45;&gt;x1</title>
<path fill="none" stroke="black" d="M1800.88,-288.816C1811.71,-278.904 1825.09,-265.552 1835,-252 1849.36,-232.361 1861.76,-207.616 1870.05,-189.206"/>
<polygon fill="black" stroke="black" points="1873.3,-190.523 1874.11,-179.96 1866.89,-187.707 1873.3,-190.523"/>
</g>
<!-- k1&#45;&gt;j1 -->
<g id="edge114" class="edge"><title>k1&#45;&gt;j1</title>
<path fill="none" stroke="black" d="M225.697,-359.697C227.813,-351.898 230.362,-342.509 232.718,-333.829"/>
<polygon fill="black" stroke="black" points="236.116,-334.672 235.357,-324.104 229.36,-332.838 236.116,-334.672"/>
</g>
<!-- m1&#45;&gt;k1 -->
<g id="edge84" class="edge"><title>m1&#45;&gt;k1</title>
<path fill="none" stroke="black" d="M93.7645,-434.666C118.355,-423.907 152.223,-409.09 178.834,-397.448"/>
<polygon fill="black" stroke="black" points="180.521,-400.53 188.279,-393.315 177.715,-394.117 180.521,-400.53"/>
</g>
<!-- m1&#45;&gt;j1 -->
<g id="edge116" class="edge"><title>m1&#45;&gt;j1</title>
<path fill="none" stroke="black" d="M75.5455,-432.351C92.5185,-413.488 121.974,-382.455 151,-360 166.842,-347.744 185.745,-336.121 202.047,-326.899"/>
<polygon fill="black" stroke="black" points="203.76,-329.951 210.801,-322.034 200.359,-323.833 203.76,-329.951"/>
</g>
<!-- m1&#45;&gt;i1 -->
<g id="edge136" class="edge"><title>m1&#45;&gt;i1</title>
<path fill="none" stroke="black" d="M66.9231,-431.994C79.738,-398.029 113.524,-322.135 170,-288 214.657,-261.009 271.835,-247.758 317.884,-241.256"/>
<polygon fill="black" stroke="black" points="318.382,-244.72 327.832,-239.931 317.457,-237.782 318.382,-244.72"/>
</g>
<!-- u0&#45;&gt;t0 -->
<g id="edge90" class="edge"><title>u0&#45;&gt;t0</title>
<path fill="none" stroke="black" d="M2028,-359.697C2028,-351.983 2028,-342.712 2028,-334.112"/>
<polygon fill="black" stroke="black" points="2031.5,-334.104 2028,-324.104 2024.5,-334.104 2031.5,-334.104"/>
</g>
<!-- p0&#45;&gt;n0 -->
<g id="edge152" class="edge"><title>p0&#45;&gt;n0</title>
<path fill="none" stroke="black" d="M1664.06,-366.062C1613.71,-354.074 1532.7,-334.785 1477.03,-321.532"/>
<polygon fill="black" stroke="black" points="1477.83,-318.125 1467.29,-319.213 1476.21,-324.934 1477.83,-318.125"/>
</g>
<!-- p0&#45;&gt;t0 -->
<g id="edge92" class="edge"><title>p0&#45;&gt;t0</title>
<path fill="none" stroke="black" d="M1755.52,-365.752C1763.66,-363.795 1772.07,-361.809 1780,-360 1841.84,-345.885 1912.63,-330.871 1962.7,-320.44"/>
<polygon fill="black" stroke="black" points="1963.67,-323.814 1972.74,-318.351 1962.24,-316.961 1963.67,-323.814"/>
</g>
<!-- p0&#45;&gt;y1 -->
<g id="edge166" class="edge"><title>p0&#45;&gt;y1</title>
<path fill="none" stroke="black" d="M1727.06,-360.411C1736.21,-351.519 1747.63,-340.411 1757.69,-330.631"/>
<polygon fill="black" stroke="black" points="1760.33,-332.95 1765.06,-323.47 1755.45,-327.931 1760.33,-332.95"/>
</g>
<!-- v1&#45;&gt;u1 -->
<g id="edge120" class="edge"><title>v1&#45;&gt;u1</title>
<path fill="none" stroke="black" d="M2159.13,-576.104C2176.89,-542.639 2216.28,-465.173 2239,-396 2245.69,-375.642 2250.62,-351.876 2253.78,-334.026"/>
<polygon fill="black" stroke="black" points="2257.26,-334.46 2255.48,-324.016 2250.36,-333.289 2257.26,-334.46"/>
</g>
<!-- j1&#45;&gt;i1 -->
<g id="edge132" class="edge"><title>j1&#45;&gt;i1</title>
<path fill="none" stroke="black" d="M272.56,-290.666C296.511,-280.121 329.319,-265.677 355.513,-254.145"/>
<polygon fill="black" stroke="black" points="357.094,-257.274 364.836,-250.041 354.273,-250.867 357.094,-257.274"/>
</g>
<!-- o0&#45;&gt;n0 -->
<g id="edge150" class="edge"><title>o0&#45;&gt;n0</title>
<path fill="none" stroke="black" d="M1506.26,-361.465C1490.11,-351.724 1469.08,-339.033 1451.38,-328.353"/>
<polygon fill="black" stroke="black" points="1452.85,-325.147 1442.48,-322.977 1449.23,-331.141 1452.85,-325.147"/>
</g>
<!-- r0&#45;&gt;q0 -->
<g id="edge182" class="edge"><title>r0&#45;&gt;q0</title>
<path fill="none" stroke="black" d="M741.697,-503.697C743.813,-495.898 746.362,-486.509 748.718,-477.829"/>
<polygon fill="black" stroke="black" points="752.116,-478.672 751.357,-468.104 745.36,-476.838 752.116,-478.672"/>
</g>
<!-- r0&#45;&gt;a1 -->
<g id="edge176" class="edge"><title>r0&#45;&gt;a1</title>
<path fill="none" stroke="black" d="M789.95,-509.22C831.45,-499.514 890.436,-484.673 941,-468 1003.95,-447.244 1074.68,-417.601 1118.79,-398.329"/>
<polygon fill="black" stroke="black" points="1120.31,-401.486 1128.06,-394.262 1117.49,-395.077 1120.31,-401.486"/>
</g>
</g>
</svg>
