<?xml version="1.0" encoding="UTF-8" standalone="no"?>
<!DOCTYPE svg PUBLIC "-//W3C//DTD SVG 1.1//EN"
 "http://www.w3.org/Graphics/SVG/1.1/DTD/svg11.dtd">
<!-- Generated by graphviz version 2.28.0 (20110622.2320)
 -->
<!-- Title: G Pages: 1 -->
<svg width="3370pt" height="260pt"
 viewBox="0.00 0.00 3370.00 260.00" xmlns="http://www.w3.org/2000/svg" xmlns:xlink="http://www.w3.org/1999/xlink">
<g id="graph1" class="graph" transform="scale(1 1) rotate(0) translate(4 256)">
<title>G</title>
<polygon fill="white" stroke="white" points="-4,5 -4,-256 3367,-256 3367,5 -4,5"/>
<!-- b0 -->
<g id="node1" class="node"><title>b0</title>
<a xlink:href="0005488" xlink:title="GO:0005488">
<ellipse fill="#dddddd" stroke="#dddddd" cx="1261" cy="-162" rx="61.1934" ry="18"/>
<text text-anchor="middle" x="1261" y="-157.8" font-family="Times,serif" font-size="14.00">GO:0005488</text>
</a>
</g>
<!-- s0 -->
<g id="node3" class="node"><title>s0</title>
<a xlink:href="0003823" xlink:title="GO:0003823 (1)">
<ellipse fill="#e98576" stroke="#e98576" cx="75" cy="-90" rx="75.2018" ry="18"/>
<text text-anchor="middle" x="75" y="-85.8" font-family="Times,serif" font-size="14.00">GO:0003823 (1)</text>
</a>
</g>
<!-- b0&#45;&gt;s0 -->
<g id="edge2" class="edge"><title>b0&#45;&gt;s0</title>
<path fill="none" stroke="black" d="M1199.79,-161.302C1032.44,-161.427 553.401,-157.106 159,-108 152.155,-107.148 145.035,-106.047 137.963,-104.815"/>
<polygon fill="black" stroke="black" points="138.141,-101.289 127.674,-102.93 136.88,-108.175 138.141,-101.289"/>
</g>
<!-- z0 -->
<g id="node8" class="node"><title>z0</title>
<a xlink:href="0042277" xlink:title="GO:0042277 (1)">
<ellipse fill="#e98576" stroke="#e98576" cx="243" cy="-90" rx="75.2018" ry="18"/>
<text text-anchor="middle" x="243" y="-85.8" font-family="Times,serif" font-size="14.00">GO:0042277 (1)</text>
</a>
</g>
<!-- b0&#45;&gt;z0 -->
<g id="edge6" class="edge"><title>b0&#45;&gt;z0</title>
<path fill="none" stroke="black" d="M1199.8,-160.548C1050.18,-158.788 654.196,-150.173 327,-108 320.159,-107.118 313.041,-105.998 305.97,-104.755"/>
<polygon fill="black" stroke="black" points="306.152,-101.23 295.683,-102.86 304.883,-108.114 306.152,-101.23"/>
</g>
<!-- y0 -->
<g id="node10" class="node"><title>y0</title>
<a xlink:href="0019825" xlink:title="GO:0019825 (1)">
<ellipse fill="#e98576" stroke="#e98576" cx="411" cy="-90" rx="75.2018" ry="18"/>
<text text-anchor="middle" x="411" y="-85.8" font-family="Times,serif" font-size="14.00">GO:0019825 (1)</text>
</a>
</g>
<!-- b0&#45;&gt;y0 -->
<g id="edge8" class="edge"><title>b0&#45;&gt;y0</title>
<path fill="none" stroke="black" d="M1200.15,-159.488C1070.15,-155.666 755.902,-143.273 495,-108 488.263,-107.089 481.256,-105.962 474.289,-104.725"/>
<polygon fill="black" stroke="black" points="474.617,-101.226 464.146,-102.846 473.341,-108.109 474.617,-101.226"/>
</g>
<!-- g0 -->
<g id="node14" class="node"><title>g0</title>
<a xlink:href="0001882" xlink:title="GO:0001882 (5)">
<ellipse fill="#e98576" stroke="#e98576" cx="579" cy="-90" rx="75.2018" ry="18"/>
<text text-anchor="middle" x="579" y="-85.8" font-family="Times,serif" font-size="14.00">GO:0001882 (5)</text>
</a>
</g>
<!-- b0&#45;&gt;g0 -->
<g id="edge12" class="edge"><title>b0&#45;&gt;g0</title>
<path fill="none" stroke="black" d="M1201.33,-157.916C1093.46,-151.852 858.979,-136.426 663,-108 656.371,-107.039 649.477,-105.89 642.615,-104.649"/>
<polygon fill="black" stroke="black" points="643.092,-101.177 632.618,-102.776 641.803,-108.058 643.092,-101.177"/>
</g>
<!-- a0 -->
<g id="node16" class="node"><title>a0</title>
<a xlink:href="0005515" xlink:title="GO:0005515 (14)">
<ellipse fill="#e98576" stroke="#e98576" cx="752" cy="-90" rx="79.4447" ry="18"/>
<text text-anchor="middle" x="752" y="-85.8" font-family="Times,serif" font-size="14.00">GO:0005515 (14)</text>
</a>
</g>
<!-- b0&#45;&gt;a0 -->
<g id="edge14" class="edge"><title>b0&#45;&gt;a0</title>
<path fill="none" stroke="black" d="M1204.45,-155.013C1123.65,-146.197 970.572,-128.529 841,-108 833.95,-106.883 826.603,-105.628 819.286,-104.319"/>
<polygon fill="black" stroke="black" points="819.824,-100.859 809.358,-102.508 818.568,-107.746 819.824,-100.859"/>
</g>
<!-- p0 -->
<g id="node18" class="node"><title>p0</title>
<a xlink:href="0043021" xlink:title="GO:0043021 (1)">
<ellipse fill="#e98576" stroke="#e98576" cx="925" cy="-90" rx="75.2018" ry="18"/>
<text text-anchor="middle" x="925" y="-85.8" font-family="Times,serif" font-size="14.00">GO:0043021 (1)</text>
</a>
</g>
<!-- b0&#45;&gt;p0 -->
<g id="edge16" class="edge"><title>b0&#45;&gt;p0</title>
<path fill="none" stroke="black" d="M1212.5,-150.896C1153.85,-138.677 1054.91,-118.064 989.77,-104.494"/>
<polygon fill="black" stroke="black" points="990.122,-100.992 979.618,-102.379 988.694,-107.845 990.122,-100.992"/>
</g>
<!-- u0 -->
<g id="node24" class="node"><title>u0</title>
<a xlink:href="0042562" xlink:title="GO:0042562 (1)">
<ellipse fill="#e98576" stroke="#e98576" cx="1093" cy="-90" rx="75.2018" ry="18"/>
<text text-anchor="middle" x="1093" y="-85.8" font-family="Times,serif" font-size="14.00">GO:0042562 (1)</text>
</a>
</g>
<!-- b0&#45;&gt;u0 -->
<g id="edge22" class="edge"><title>b0&#45;&gt;u0</title>
<path fill="none" stroke="black" d="M1227,-146.834C1201.44,-136.185 1166.18,-121.49 1138.24,-109.848"/>
<polygon fill="black" stroke="black" points="1139.26,-106.485 1128.69,-105.869 1136.57,-112.946 1139.26,-106.485"/>
</g>
<!-- x0 -->
<g id="node29" class="node"><title>x0</title>
<a xlink:href="0005496" xlink:title="GO:0005496 (1)">
<ellipse fill="#e98576" stroke="#e98576" cx="1261" cy="-90" rx="75.2018" ry="18"/>
<text text-anchor="middle" x="1261" y="-85.8" font-family="Times,serif" font-size="14.00">GO:0005496 (1)</text>
</a>
</g>
<!-- b0&#45;&gt;x0 -->
<g id="edge26" class="edge"><title>b0&#45;&gt;x0</title>
<path fill="none" stroke="black" d="M1261,-143.697C1261,-135.983 1261,-126.712 1261,-118.112"/>
<polygon fill="black" stroke="black" points="1264.5,-118.104 1261,-108.104 1257.5,-118.104 1264.5,-118.104"/>
</g>
<!-- d0 -->
<g id="node35" class="node"><title>d0</title>
<a xlink:href="0043167" xlink:title="GO:0043167 (10)">
<ellipse fill="#e98576" stroke="#e98576" cx="1434" cy="-90" rx="79.4447" ry="18"/>
<text text-anchor="middle" x="1434" y="-85.8" font-family="Times,serif" font-size="14.00">GO:0043167 (10)</text>
</a>
</g>
<!-- b0&#45;&gt;d0 -->
<g id="edge32" class="edge"><title>b0&#45;&gt;d0</title>
<path fill="none" stroke="black" d="M1295.59,-147.003C1321.99,-136.321 1358.63,-121.497 1387.58,-109.784"/>
<polygon fill="black" stroke="black" points="1389.12,-112.936 1397.07,-105.941 1386.49,-106.447 1389.12,-112.936"/>
</g>
<!-- a1 -->
<g id="node38" class="node"><title>a1</title>
<a xlink:href="0030246" xlink:title="GO:0030246 (1)">
<ellipse fill="#e98576" stroke="#e98576" cx="1607" cy="-90" rx="75.2018" ry="18"/>
<text text-anchor="middle" x="1607" y="-85.8" font-family="Times,serif" font-size="14.00">GO:0030246 (1)</text>
</a>
</g>
<!-- b0&#45;&gt;a1 -->
<g id="edge36" class="edge"><title>b0&#45;&gt;a1</title>
<path fill="none" stroke="black" d="M1309.84,-151.119C1370.44,-138.86 1473.99,-117.91 1541.45,-104.261"/>
<polygon fill="black" stroke="black" points="1542.44,-107.633 1551.54,-102.219 1541.05,-100.772 1542.44,-107.633"/>
</g>
<!-- e0 -->
<g id="node44" class="node"><title>e0</title>
<a xlink:href="0003676" xlink:title="GO:0003676 (7)">
<ellipse fill="#e98576" stroke="#e98576" cx="1775" cy="-90" rx="75.2018" ry="18"/>
<text text-anchor="middle" x="1775" y="-85.8" font-family="Times,serif" font-size="14.00">GO:0003676 (7)</text>
</a>
</g>
<!-- b0&#45;&gt;e0 -->
<g id="edge42" class="edge"><title>b0&#45;&gt;e0</title>
<path fill="none" stroke="black" d="M1318.23,-155.364C1400.83,-146.909 1558.11,-129.605 1691,-108 1697.51,-106.941 1704.29,-105.739 1711.04,-104.475"/>
<polygon fill="black" stroke="black" points="1711.73,-107.908 1720.89,-102.589 1710.41,-101.033 1711.73,-107.908"/>
</g>
<!-- w0 -->
<g id="node46" class="node"><title>w0</title>
<a xlink:href="0046906" xlink:title="GO:0046906 (1)">
<ellipse fill="#e98576" stroke="#e98576" cx="1943" cy="-90" rx="75.2018" ry="18"/>
<text text-anchor="middle" x="1943" y="-85.8" font-family="Times,serif" font-size="14.00">GO:0046906 (1)</text>
</a>
</g>
<!-- b0&#45;&gt;w0 -->
<g id="edge44" class="edge"><title>b0&#45;&gt;w0</title>
<path fill="none" stroke="black" d="M1320.67,-157.916C1428.54,-151.852 1663.02,-136.426 1859,-108 1865.63,-107.039 1872.52,-105.89 1879.39,-104.649"/>
<polygon fill="black" stroke="black" points="1880.2,-108.058 1889.38,-102.776 1878.91,-101.177 1880.2,-108.058"/>
</g>
<!-- f0 -->
<g id="node50" class="node"><title>f0</title>
<a xlink:href="0000166" xlink:title="GO:0000166 (6)">
<ellipse fill="#e98576" stroke="#e98576" cx="2111" cy="-90" rx="75.2018" ry="18"/>
<text text-anchor="middle" x="2111" y="-85.8" font-family="Times,serif" font-size="14.00">GO:0000166 (6)</text>
</a>
</g>
<!-- b0&#45;&gt;f0 -->
<g id="edge48" class="edge"><title>b0&#45;&gt;f0</title>
<path fill="none" stroke="black" d="M1321.85,-159.488C1451.85,-155.666 1766.1,-143.273 2027,-108 2033.74,-107.089 2040.74,-105.962 2047.71,-104.725"/>
<polygon fill="black" stroke="black" points="2048.66,-108.109 2057.85,-102.846 2047.38,-101.226 2048.66,-108.109"/>
</g>
<!-- t0 -->
<g id="node52" class="node"><title>t0</title>
<a xlink:href="0048037" xlink:title="GO:0048037 (1)">
<ellipse fill="#e98576" stroke="#e98576" cx="2279" cy="-90" rx="75.2018" ry="18"/>
<text text-anchor="middle" x="2279" y="-85.8" font-family="Times,serif" font-size="14.00">GO:0048037 (1)</text>
</a>
</g>
<!-- b0&#45;&gt;t0 -->
<g id="edge50" class="edge"><title>b0&#45;&gt;t0</title>
<path fill="none" stroke="black" d="M1322.2,-160.548C1471.82,-158.788 1867.8,-150.173 2195,-108 2201.84,-107.118 2208.96,-105.998 2216.03,-104.755"/>
<polygon fill="black" stroke="black" points="2217.12,-108.114 2226.32,-102.86 2215.85,-101.23 2217.12,-108.114"/>
</g>
<!-- i0 -->
<g id="node4" class="node"><title>i0</title>
<a xlink:href="0003824" xlink:title="GO:0003824 (1)">
<ellipse fill="#e98576" stroke="#e98576" cx="2783" cy="-162" rx="75.2018" ry="18"/>
<text text-anchor="middle" x="2783" y="-157.8" font-family="Times,serif" font-size="14.00">GO:0003824 (1)</text>
</a>
</g>
<!-- q0 -->
<g id="node6" class="node"><title>q0</title>
<a xlink:href="0016853" xlink:title="GO:0016853 (1)">
<ellipse fill="#e98576" stroke="#e98576" cx="2447" cy="-90" rx="75.2018" ry="18"/>
<text text-anchor="middle" x="2447" y="-85.8" font-family="Times,serif" font-size="14.00">GO:0016853 (1)</text>
</a>
</g>
<!-- i0&#45;&gt;q0 -->
<g id="edge4" class="edge"><title>i0&#45;&gt;q0</title>
<path fill="none" stroke="black" d="M2728.27,-149.597C2668.96,-137.242 2574.4,-117.541 2511.52,-104.441"/>
<polygon fill="black" stroke="black" points="2512.21,-101.011 2501.71,-102.398 2510.78,-107.864 2512.21,-101.011"/>
</g>
<!-- j0 -->
<g id="node25" class="node"><title>j0</title>
<a xlink:href="0016787" xlink:title="GO:0016787 (2)">
<ellipse fill="#e98576" stroke="#e98576" cx="2615" cy="-90" rx="75.2018" ry="18"/>
<text text-anchor="middle" x="2615" y="-85.8" font-family="Times,serif" font-size="14.00">GO:0016787 (2)</text>
</a>
</g>
<!-- i0&#45;&gt;j0 -->
<g id="edge34" class="edge"><title>i0&#45;&gt;j0</title>
<path fill="none" stroke="black" d="M2747.37,-146.155C2721.95,-135.564 2687.57,-121.239 2660.22,-109.842"/>
<polygon fill="black" stroke="black" points="2661.44,-106.56 2650.87,-105.944 2658.75,-113.021 2661.44,-106.56"/>
</g>
<!-- l0 -->
<g id="node40" class="node"><title>l0</title>
<a xlink:href="0016740" xlink:title="GO:0016740 (2)">
<ellipse fill="#e98576" stroke="#e98576" cx="2783" cy="-90" rx="75.2018" ry="18"/>
<text text-anchor="middle" x="2783" y="-85.8" font-family="Times,serif" font-size="14.00">GO:0016740 (2)</text>
</a>
</g>
<!-- i0&#45;&gt;l0 -->
<g id="edge38" class="edge"><title>i0&#45;&gt;l0</title>
<path fill="none" stroke="black" d="M2783,-143.697C2783,-135.983 2783,-126.712 2783,-118.112"/>
<polygon fill="black" stroke="black" points="2786.5,-118.104 2783,-108.104 2779.5,-118.104 2786.5,-118.104"/>
</g>
<!-- r0 -->
<g id="node42" class="node"><title>r0</title>
<a xlink:href="0016874" xlink:title="GO:0016874 (1)">
<ellipse fill="#e98576" stroke="#e98576" cx="2951" cy="-90" rx="75.2018" ry="18"/>
<text text-anchor="middle" x="2951" y="-85.8" font-family="Times,serif" font-size="14.00">GO:0016874 (1)</text>
</a>
</g>
<!-- i0&#45;&gt;r0 -->
<g id="edge40" class="edge"><title>i0&#45;&gt;r0</title>
<path fill="none" stroke="black" d="M2818.63,-146.155C2844.05,-135.564 2878.43,-121.239 2905.78,-109.842"/>
<polygon fill="black" stroke="black" points="2907.25,-113.021 2915.13,-105.944 2904.56,-106.56 2907.25,-113.021"/>
</g>
<!-- h0 -->
<g id="node48" class="node"><title>h0</title>
<a xlink:href="0016491" xlink:title="GO:0016491 (3)">
<ellipse fill="#e98576" stroke="#e98576" cx="3119" cy="-90" rx="75.2018" ry="18"/>
<text text-anchor="middle" x="3119" y="-85.8" font-family="Times,serif" font-size="14.00">GO:0016491 (3)</text>
</a>
</g>
<!-- i0&#45;&gt;h0 -->
<g id="edge46" class="edge"><title>i0&#45;&gt;h0</title>
<path fill="none" stroke="black" d="M2837.73,-149.597C2897.04,-137.242 2991.6,-117.541 3054.48,-104.441"/>
<polygon fill="black" stroke="black" points="3055.22,-107.864 3064.29,-102.398 3053.79,-101.011 3055.22,-107.864"/>
</g>
<!-- c0 -->
<g id="node11" class="node"><title>c0</title>
<a xlink:href="0003674" xlink:title="GO:0003674 (4)">
<ellipse fill="#e98576" stroke="#e98576" cx="2938" cy="-234" rx="75.2018" ry="18"/>
<text text-anchor="middle" x="2938" y="-229.8" font-family="Times,serif" font-size="14.00">GO:0003674 (4)</text>
</a>
</g>
<!-- c0&#45;&gt;b0 -->
<g id="edge18" class="edge"><title>c0&#45;&gt;b0</title>
<path fill="none" stroke="black" d="M2864.59,-229.936C2587.08,-218.352 1603.98,-177.316 1331.48,-165.942"/>
<polygon fill="black" stroke="black" points="1331.47,-162.438 1321.33,-165.518 1331.17,-169.432 1331.47,-162.438"/>
</g>
<!-- c0&#45;&gt;i0 -->
<g id="edge10" class="edge"><title>c0&#45;&gt;i0</title>
<path fill="none" stroke="black" d="M2904.37,-217.811C2881.31,-207.4 2850.54,-193.501 2825.75,-182.305"/>
<polygon fill="black" stroke="black" points="2827.12,-179.085 2816.57,-178.159 2824.24,-185.465 2827.12,-179.085"/>
</g>
<!-- o0 -->
<g id="node20" class="node"><title>o0</title>
<a xlink:href="0060089" xlink:title="GO:0060089">
<ellipse fill="#dddddd" stroke="#dddddd" cx="2938" cy="-162" rx="61.1934" ry="18"/>
<text text-anchor="middle" x="2938" y="-157.8" font-family="Times,serif" font-size="14.00">GO:0060089</text>
</a>
</g>
<!-- c0&#45;&gt;o0 -->
<g id="edge52" class="edge"><title>c0&#45;&gt;o0</title>
<path fill="none" stroke="black" d="M2938,-215.697C2938,-207.983 2938,-198.712 2938,-190.112"/>
<polygon fill="black" stroke="black" points="2941.5,-190.104 2938,-180.104 2934.5,-190.104 2941.5,-190.104"/>
</g>
<!-- m0 -->
<g id="node31" class="node"><title>m0</title>
<a xlink:href="0016209" xlink:title="GO:0016209 (2)">
<ellipse fill="#e98576" stroke="#e98576" cx="3093" cy="-162" rx="75.2018" ry="18"/>
<text text-anchor="middle" x="3093" y="-157.8" font-family="Times,serif" font-size="14.00">GO:0016209 (2)</text>
</a>
</g>
<!-- c0&#45;&gt;m0 -->
<g id="edge28" class="edge"><title>c0&#45;&gt;m0</title>
<path fill="none" stroke="black" d="M2971.63,-217.811C2994.69,-207.4 3025.46,-193.501 3050.25,-182.305"/>
<polygon fill="black" stroke="black" points="3051.76,-185.465 3059.43,-178.159 3048.88,-179.085 3051.76,-185.465"/>
</g>
<!-- k0 -->
<g id="node33" class="node"><title>k0</title>
<a xlink:href="0005215" xlink:title="GO:0005215 (2)">
<ellipse fill="#e98576" stroke="#e98576" cx="3261" cy="-162" rx="75.2018" ry="18"/>
<text text-anchor="middle" x="3261" y="-157.8" font-family="Times,serif" font-size="14.00">GO:0005215 (2)</text>
</a>
</g>
<!-- c0&#45;&gt;k0 -->
<g id="edge30" class="edge"><title>c0&#45;&gt;k0</title>
<path fill="none" stroke="black" d="M2991.7,-221.362C3048.17,-209.124 3137,-189.873 3197.05,-176.859"/>
<polygon fill="black" stroke="black" points="3198.14,-180.204 3207.17,-174.665 3196.66,-173.363 3198.14,-180.204"/>
</g>
<!-- n0 -->
<g id="node22" class="node"><title>n0</title>
<a xlink:href="0004871" xlink:title="GO:0004871 (2)">
<ellipse fill="#e98576" stroke="#e98576" cx="3287" cy="-90" rx="75.2018" ry="18"/>
<text text-anchor="middle" x="3287" y="-85.8" font-family="Times,serif" font-size="14.00">GO:0004871 (2)</text>
</a>
</g>
<!-- o0&#45;&gt;n0 -->
<g id="edge20" class="edge"><title>o0&#45;&gt;n0</title>
<path fill="none" stroke="black" d="M2983.37,-149.768C2991.87,-147.769 3000.69,-145.764 3009,-144 3094.78,-125.784 3116.91,-124.698 3203,-108 3209.13,-106.81 3215.52,-105.553 3221.9,-104.283"/>
<polygon fill="black" stroke="black" points="3222.78,-107.677 3231.9,-102.284 3221.41,-100.812 3222.78,-107.677"/>
</g>
<!-- v0 -->
<g id="node27" class="node"><title>v0</title>
<a xlink:href="0008233" xlink:title="GO:0008233 (1)">
<ellipse fill="#e98576" stroke="#e98576" cx="2615" cy="-18" rx="75.2018" ry="18"/>
<text text-anchor="middle" x="2615" y="-13.8" font-family="Times,serif" font-size="14.00">GO:0008233 (1)</text>
</a>
</g>
<!-- j0&#45;&gt;v0 -->
<g id="edge24" class="edge"><title>j0&#45;&gt;v0</title>
<path fill="none" stroke="black" d="M2615,-71.6966C2615,-63.9827 2615,-54.7125 2615,-46.1124"/>
<polygon fill="black" stroke="black" points="2618.5,-46.1043 2615,-36.1043 2611.5,-46.1044 2618.5,-46.1043"/>
</g>
</g>
</svg>
