<?xml version="1.0" encoding="UTF-8" standalone="no"?>
<!DOCTYPE svg PUBLIC "-//W3C//DTD SVG 1.1//EN"
 "http://www.w3.org/Graphics/SVG/1.1/DTD/svg11.dtd">
<!-- Generated by graphviz version 2.28.0 (20110622.2320)
 -->
<!-- Title: G Pages: 1 -->
<svg width="449pt" height="548pt"
 viewBox="0.00 0.00 449.00 548.00" xmlns="http://www.w3.org/2000/svg" xmlns:xlink="http://www.w3.org/1999/xlink">
<g id="graph1" class="graph" transform="scale(1 1) rotate(0) translate(4 544)">
<title>G</title>
<polygon fill="white" stroke="white" points="-4,5 -4,-544 446,-544 446,5 -4,5"/>
<!-- e0 -->
<g id="node1" class="node"><title>e0</title>
<a xlink:href="0005575" xlink:title="GO:0005575">
<ellipse fill="#dddddd" stroke="#dddddd" cx="231" cy="-522" rx="61.1934" ry="18"/>
<text text-anchor="middle" x="231" y="-517.8" font-family="Times,serif" font-size="14.00">GO:0005575</text>
</a>
</g>
<!-- i0 -->
<g id="node3" class="node"><title>i0</title>
<a xlink:href="0044464" xlink:title="GO:0044464">
<ellipse fill="#dddddd" stroke="#dddddd" cx="164" cy="-378" rx="61.1934" ry="18"/>
<text text-anchor="middle" x="164" y="-373.8" font-family="Times,serif" font-size="14.00">GO:0044464</text>
</a>
</g>
<!-- e0&#45;&gt;i0 -->
<g id="edge2" class="edge"><title>e0&#45;&gt;i0</title>
<path fill="none" stroke="black" d="M200.346,-506.326C185.565,-497.47 169.279,-484.652 161,-468 151.463,-448.816 153.13,-424.323 156.665,-405.889"/>
<polygon fill="black" stroke="black" points="160.092,-406.603 158.827,-396.084 153.256,-405.095 160.092,-406.603"/>
</g>
<!-- j0 -->
<g id="node4" class="node"><title>j0</title>
<a xlink:href="0005623" xlink:title="GO:0005623">
<ellipse fill="#dddddd" stroke="#dddddd" cx="231" cy="-450" rx="61.1934" ry="18"/>
<text text-anchor="middle" x="231" y="-445.8" font-family="Times,serif" font-size="14.00">GO:0005623</text>
</a>
</g>
<!-- e0&#45;&gt;j0 -->
<g id="edge32" class="edge"><title>e0&#45;&gt;j0</title>
<path fill="none" stroke="black" d="M231,-503.697C231,-495.983 231,-486.712 231,-478.112"/>
<polygon fill="black" stroke="black" points="234.5,-478.104 231,-468.104 227.5,-478.104 234.5,-478.104"/>
</g>
<!-- d0 -->
<g id="node6" class="node"><title>d0</title>
<a xlink:href="0043226" xlink:title="GO:0043226">
<ellipse fill="#dddddd" stroke="#dddddd" cx="320" cy="-234" rx="61.1934" ry="18"/>
<text text-anchor="middle" x="320" y="-229.8" font-family="Times,serif" font-size="14.00">GO:0043226</text>
</a>
</g>
<!-- e0&#45;&gt;d0 -->
<g id="edge18" class="edge"><title>e0&#45;&gt;d0</title>
<path fill="none" stroke="black" d="M260.744,-506.256C275.465,-497.313 291.977,-484.435 301,-468 337.524,-401.468 330.826,-307.803 324.562,-262.15"/>
<polygon fill="black" stroke="black" points="328.007,-261.518 323.087,-252.135 321.082,-262.538 328.007,-261.518"/>
</g>
<!-- h0 -->
<g id="node10" class="node"><title>h0</title>
<a xlink:href="0005622" xlink:title="GO:0005622">
<ellipse fill="#dddddd" stroke="#dddddd" cx="209" cy="-306" rx="61.1934" ry="18"/>
<text text-anchor="middle" x="209" y="-301.8" font-family="Times,serif" font-size="14.00">GO:0005622</text>
</a>
</g>
<!-- i0&#45;&gt;h0 -->
<g id="edge8" class="edge"><title>i0&#45;&gt;h0</title>
<path fill="none" stroke="black" d="M174.893,-360.055C180.255,-351.715 186.827,-341.491 192.767,-332.252"/>
<polygon fill="black" stroke="black" points="195.744,-334.093 198.207,-323.789 189.855,-330.308 195.744,-334.093"/>
</g>
<!-- g0 -->
<g id="node12" class="node"><title>g0</title>
<a xlink:href="0044424" xlink:title="GO:0044424">
<ellipse fill="#dddddd" stroke="#dddddd" cx="150" cy="-234" rx="61.1934" ry="18"/>
<text text-anchor="middle" x="150" y="-229.8" font-family="Times,serif" font-size="14.00">GO:0044424</text>
</a>
</g>
<!-- i0&#45;&gt;g0 -->
<g id="edge12" class="edge"><title>i0&#45;&gt;g0</title>
<path fill="none" stroke="black" d="M153.635,-360.031C148.097,-349.957 141.847,-336.707 139,-324 134.391,-303.426 137.737,-279.714 141.91,-261.941"/>
<polygon fill="black" stroke="black" points="145.306,-262.788 144.41,-252.232 138.527,-261.043 145.306,-262.788"/>
</g>
<!-- j0&#45;&gt;i0 -->
<g id="edge4" class="edge"><title>j0&#45;&gt;i0</title>
<path fill="none" stroke="black" d="M215.122,-432.411C206.694,-423.606 196.187,-412.628 186.894,-402.919"/>
<polygon fill="black" stroke="black" points="189.207,-400.274 179.764,-395.47 184.15,-405.114 189.207,-400.274"/>
</g>
<!-- c0 -->
<g id="node8" class="node"><title>c0</title>
<a xlink:href="0043227" xlink:title="GO:0043227">
<ellipse fill="#dddddd" stroke="#dddddd" cx="380" cy="-162" rx="61.1934" ry="18"/>
<text text-anchor="middle" x="380" y="-157.8" font-family="Times,serif" font-size="14.00">GO:0043227</text>
</a>
</g>
<!-- d0&#45;&gt;c0 -->
<g id="edge6" class="edge"><title>d0&#45;&gt;c0</title>
<path fill="none" stroke="black" d="M334.219,-216.411C341.583,-207.82 350.721,-197.159 358.891,-187.627"/>
<polygon fill="black" stroke="black" points="361.616,-189.827 365.466,-179.956 356.301,-185.271 361.616,-189.827"/>
</g>
<!-- f0 -->
<g id="node15" class="node"><title>f0</title>
<a xlink:href="0043229" xlink:title="GO:0043229">
<ellipse fill="#dddddd" stroke="#dddddd" cx="239" cy="-162" rx="61.1934" ry="18"/>
<text text-anchor="middle" x="239" y="-157.8" font-family="Times,serif" font-size="14.00">GO:0043229</text>
</a>
</g>
<!-- d0&#45;&gt;f0 -->
<g id="edge14" class="edge"><title>d0&#45;&gt;f0</title>
<path fill="none" stroke="black" d="M301.213,-216.765C290.581,-207.576 277.114,-195.938 265.431,-185.842"/>
<polygon fill="black" stroke="black" points="267.539,-183.038 257.685,-179.147 262.962,-188.334 267.539,-183.038"/>
</g>
<!-- b0 -->
<g id="node19" class="node"><title>b0</title>
<a xlink:href="0043231" xlink:title="GO:0043231">
<ellipse fill="#dddddd" stroke="#dddddd" cx="265" cy="-90" rx="61.1934" ry="18"/>
<text text-anchor="middle" x="265" y="-85.8" font-family="Times,serif" font-size="14.00">GO:0043231</text>
</a>
</g>
<!-- c0&#45;&gt;b0 -->
<g id="edge20" class="edge"><title>c0&#45;&gt;b0</title>
<path fill="none" stroke="black" d="M354.478,-145.465C338.249,-135.586 317.037,-122.675 299.34,-111.903"/>
<polygon fill="black" stroke="black" points="300.813,-108.702 290.451,-106.492 297.173,-114.681 300.813,-108.702"/>
</g>
<!-- h0&#45;&gt;g0 -->
<g id="edge10" class="edge"><title>h0&#45;&gt;g0</title>
<path fill="none" stroke="black" d="M195.018,-288.411C187.777,-279.82 178.791,-269.159 170.757,-259.627"/>
<polygon fill="black" stroke="black" points="173.413,-257.347 164.292,-251.956 168.06,-261.858 173.413,-257.347"/>
</g>
<!-- g0&#45;&gt;f0 -->
<g id="edge16" class="edge"><title>g0&#45;&gt;f0</title>
<path fill="none" stroke="black" d="M170.642,-216.765C182.437,-207.488 197.406,-195.714 210.328,-185.551"/>
<polygon fill="black" stroke="black" points="212.773,-188.081 218.47,-179.147 208.446,-182.578 212.773,-188.081"/>
</g>
<!-- k0 -->
<g id="node23" class="node"><title>k0</title>
<a xlink:href="0044444" xlink:title="GO:0044444">
<ellipse fill="#dddddd" stroke="#dddddd" cx="124" cy="-90" rx="61.1934" ry="18"/>
<text text-anchor="middle" x="124" y="-85.8" font-family="Times,serif" font-size="14.00">GO:0044444</text>
</a>
</g>
<!-- g0&#45;&gt;k0 -->
<g id="edge30" class="edge"><title>g0&#45;&gt;k0</title>
<path fill="none" stroke="black" d="M146.864,-215.871C142.433,-191.67 134.292,-147.211 129.016,-118.393"/>
<polygon fill="black" stroke="black" points="132.391,-117.395 127.147,-108.189 125.506,-118.656 132.391,-117.395"/>
</g>
<!-- l0 -->
<g id="node25" class="node"><title>l0</title>
<a xlink:href="0005737" xlink:title="GO:0005737">
<ellipse fill="#dddddd" stroke="#dddddd" cx="61" cy="-162" rx="61.1934" ry="18"/>
<text text-anchor="middle" x="61" y="-157.8" font-family="Times,serif" font-size="14.00">GO:0005737</text>
</a>
</g>
<!-- g0&#45;&gt;l0 -->
<g id="edge34" class="edge"><title>g0&#45;&gt;l0</title>
<path fill="none" stroke="black" d="M129.358,-216.765C117.563,-207.488 102.594,-195.714 89.6721,-185.551"/>
<polygon fill="black" stroke="black" points="91.554,-182.578 81.5301,-179.147 87.2265,-188.081 91.554,-182.578"/>
</g>
<!-- f0&#45;&gt;b0 -->
<g id="edge22" class="edge"><title>f0&#45;&gt;b0</title>
<path fill="none" stroke="black" d="M245.294,-144.055C248.22,-136.176 251.771,-126.617 255.048,-117.794"/>
<polygon fill="black" stroke="black" points="258.383,-118.868 258.583,-108.275 251.821,-116.431 258.383,-118.868"/>
</g>
<!-- a0 -->
<g id="node22" class="node"><title>a0</title>
<a xlink:href="0005739" xlink:title="GO:0005739 (1)">
<ellipse fill="#e98576" stroke="#e98576" cx="194" cy="-18" rx="75.2018" ry="18"/>
<text text-anchor="middle" x="194" y="-13.8" font-family="Times,serif" font-size="14.00">GO:0005739 (1)</text>
</a>
</g>
<!-- b0&#45;&gt;a0 -->
<g id="edge24" class="edge"><title>b0&#45;&gt;a0</title>
<path fill="none" stroke="black" d="M248.174,-72.411C239.286,-63.6479 228.214,-52.7322 218.401,-43.0569"/>
<polygon fill="black" stroke="black" points="220.777,-40.4846 211.198,-35.9562 215.862,-45.4694 220.777,-40.4846"/>
</g>
<!-- k0&#45;&gt;a0 -->
<g id="edge26" class="edge"><title>k0&#45;&gt;a0</title>
<path fill="none" stroke="black" d="M140.589,-72.411C149.352,-63.6479 160.268,-52.7322 169.943,-43.0569"/>
<polygon fill="black" stroke="black" points="172.448,-45.5022 177.044,-35.9562 167.498,-40.5524 172.448,-45.5022"/>
</g>
<!-- l0&#45;&gt;k0 -->
<g id="edge28" class="edge"><title>l0&#45;&gt;k0</title>
<path fill="none" stroke="black" d="M75.9301,-144.411C83.8544,-135.606 93.7346,-124.628 102.473,-114.919"/>
<polygon fill="black" stroke="black" points="105.089,-117.244 109.177,-107.47 99.8858,-112.562 105.089,-117.244"/>
</g>
</g>
</svg>
