<?xml version="1.0" encoding="UTF-8" standalone="no"?>
<!DOCTYPE svg PUBLIC "-//W3C//DTD SVG 1.1//EN"
 "http://www.w3.org/Graphics/SVG/1.1/DTD/svg11.dtd">
<!-- Generated by graphviz version 2.28.0 (20110622.2320)
 -->
<!-- Title: G Pages: 1 -->
<svg width="1334pt" height="260pt"
 viewBox="0.00 0.00 1334.00 260.00" xmlns="http://www.w3.org/2000/svg" xmlns:xlink="http://www.w3.org/1999/xlink">
<g id="graph1" class="graph" transform="scale(1 1) rotate(0) translate(4 256)">
<title>G</title>
<polygon fill="white" stroke="white" points="-4,5 -4,-256 1331,-256 1331,5 -4,5"/>
<!-- c0 -->
<g id="node1" class="node"><title>c0</title>
<a xlink:href="0003674" xlink:title="GO:0003674">
<ellipse fill="#dddddd" stroke="#dddddd" cx="579" cy="-234" rx="61.1934" ry="18"/>
<text text-anchor="middle" x="579" y="-229.8" font-family="Times,serif" font-size="14.00">GO:0003674</text>
</a>
</g>
<!-- k0 -->
<g id="node3" class="node"><title>k0</title>
<a xlink:href="0005215" xlink:title="GO:0005215 (2)">
<ellipse fill="#e98576" stroke="#e98576" cx="256" cy="-162" rx="75.2018" ry="18"/>
<text text-anchor="middle" x="256" y="-157.8" font-family="Times,serif" font-size="14.00">GO:0005215 (2)</text>
</a>
</g>
<!-- c0&#45;&gt;k0 -->
<g id="edge2" class="edge"><title>c0&#45;&gt;k0</title>
<path fill="none" stroke="black" d="M531.34,-222.671C475.321,-210.531 382.12,-190.333 319.88,-176.844"/>
<polygon fill="black" stroke="black" points="320.299,-173.354 309.785,-174.656 318.816,-180.195 320.299,-173.354"/>
</g>
<!-- b0 -->
<g id="node4" class="node"><title>b0</title>
<a xlink:href="0005488" xlink:title="GO:0005488">
<ellipse fill="#dddddd" stroke="#dddddd" cx="411" cy="-162" rx="61.1934" ry="18"/>
<text text-anchor="middle" x="411" y="-157.8" font-family="Times,serif" font-size="14.00">GO:0005488</text>
</a>
</g>
<!-- c0&#45;&gt;b0 -->
<g id="edge18" class="edge"><title>c0&#45;&gt;b0</title>
<path fill="none" stroke="black" d="M545.003,-218.834C518.816,-207.923 482.435,-192.765 454.188,-180.995"/>
<polygon fill="black" stroke="black" points="455.524,-177.76 444.947,-177.144 452.831,-184.221 455.524,-177.76"/>
</g>
<!-- g0 -->
<g id="node7" class="node"><title>g0</title>
<a xlink:href="0003824" xlink:title="GO:0003824">
<ellipse fill="#dddddd" stroke="#dddddd" cx="747" cy="-162" rx="61.1934" ry="18"/>
<text text-anchor="middle" x="747" y="-157.8" font-family="Times,serif" font-size="14.00">GO:0003824</text>
</a>
</g>
<!-- c0&#45;&gt;g0 -->
<g id="edge10" class="edge"><title>c0&#45;&gt;g0</title>
<path fill="none" stroke="black" d="M612.997,-218.834C639.184,-207.923 675.565,-192.765 703.812,-180.995"/>
<polygon fill="black" stroke="black" points="705.169,-184.221 713.053,-177.144 702.476,-177.76 705.169,-184.221"/>
</g>
<!-- e0 -->
<g id="node25" class="node"><title>e0</title>
<a xlink:href="0005198" xlink:title="GO:0005198 (5)">
<ellipse fill="#e98576" stroke="#e98576" cx="902" cy="-162" rx="75.2018" ry="18"/>
<text text-anchor="middle" x="902" y="-157.8" font-family="Times,serif" font-size="14.00">GO:0005198 (5)</text>
</a>
</g>
<!-- c0&#45;&gt;e0 -->
<g id="edge24" class="edge"><title>c0&#45;&gt;e0</title>
<path fill="none" stroke="black" d="M626.66,-222.671C682.679,-210.531 775.88,-190.333 838.12,-176.844"/>
<polygon fill="black" stroke="black" points="839.184,-180.195 848.215,-174.656 837.701,-173.354 839.184,-180.195"/>
</g>
<!-- a0 -->
<g id="node6" class="node"><title>a0</title>
<a xlink:href="0043167" xlink:title="GO:0043167 (6)">
<ellipse fill="#e98576" stroke="#e98576" cx="75" cy="-90" rx="75.2018" ry="18"/>
<text text-anchor="middle" x="75" y="-85.8" font-family="Times,serif" font-size="14.00">GO:0043167 (6)</text>
</a>
</g>
<!-- b0&#45;&gt;a0 -->
<g id="edge4" class="edge"><title>b0&#45;&gt;a0</title>
<path fill="none" stroke="black" d="M365.609,-149.856C357.112,-147.848 348.295,-145.817 340,-144 259.88,-126.447 239.418,-124.135 159,-108 152.969,-106.79 146.695,-105.527 140.413,-104.261"/>
<polygon fill="black" stroke="black" points="141.066,-100.822 130.571,-102.274 139.681,-107.683 141.066,-100.822"/>
</g>
<!-- d0 -->
<g id="node18" class="node"><title>d0</title>
<a xlink:href="0003676" xlink:title="GO:0003676 (6)">
<ellipse fill="#e98576" stroke="#e98576" cx="243" cy="-90" rx="75.2018" ry="18"/>
<text text-anchor="middle" x="243" y="-85.8" font-family="Times,serif" font-size="14.00">GO:0003676 (6)</text>
</a>
</g>
<!-- b0&#45;&gt;d0 -->
<g id="edge16" class="edge"><title>b0&#45;&gt;d0</title>
<path fill="none" stroke="black" d="M377.003,-146.834C351.444,-136.185 316.175,-121.49 288.235,-109.848"/>
<polygon fill="black" stroke="black" points="289.263,-106.485 278.686,-105.869 286.571,-112.946 289.263,-106.485"/>
</g>
<!-- i0 -->
<g id="node21" class="node"><title>i0</title>
<a xlink:href="0000166" xlink:title="GO:0000166 (4)">
<ellipse fill="#e98576" stroke="#e98576" cx="411" cy="-90" rx="75.2018" ry="18"/>
<text text-anchor="middle" x="411" y="-85.8" font-family="Times,serif" font-size="14.00">GO:0000166 (4)</text>
</a>
</g>
<!-- b0&#45;&gt;i0 -->
<g id="edge20" class="edge"><title>b0&#45;&gt;i0</title>
<path fill="none" stroke="black" d="M411,-143.697C411,-135.983 411,-126.712 411,-118.112"/>
<polygon fill="black" stroke="black" points="414.5,-118.104 411,-108.104 407.5,-118.104 414.5,-118.104"/>
</g>
<!-- j0 -->
<g id="node9" class="node"><title>j0</title>
<a xlink:href="0016853" xlink:title="GO:0016853 (2)">
<ellipse fill="#e98576" stroke="#e98576" cx="579" cy="-90" rx="75.2018" ry="18"/>
<text text-anchor="middle" x="579" y="-85.8" font-family="Times,serif" font-size="14.00">GO:0016853 (2)</text>
</a>
</g>
<!-- g0&#45;&gt;j0 -->
<g id="edge6" class="edge"><title>g0&#45;&gt;j0</title>
<path fill="none" stroke="black" d="M713.003,-146.834C687.444,-136.185 652.175,-121.49 624.235,-109.848"/>
<polygon fill="black" stroke="black" points="625.263,-106.485 614.686,-105.869 622.571,-112.946 625.263,-106.485"/>
</g>
<!-- f0 -->
<g id="node11" class="node"><title>f0</title>
<a xlink:href="0016787" xlink:title="GO:0016787 (4)">
<ellipse fill="#e98576" stroke="#e98576" cx="747" cy="-90" rx="75.2018" ry="18"/>
<text text-anchor="middle" x="747" y="-85.8" font-family="Times,serif" font-size="14.00">GO:0016787 (4)</text>
</a>
</g>
<!-- g0&#45;&gt;f0 -->
<g id="edge8" class="edge"><title>g0&#45;&gt;f0</title>
<path fill="none" stroke="black" d="M747,-143.697C747,-135.983 747,-126.712 747,-118.112"/>
<polygon fill="black" stroke="black" points="750.5,-118.104 747,-108.104 743.5,-118.104 750.5,-118.104"/>
</g>
<!-- l0 -->
<g id="node14" class="node"><title>l0</title>
<a xlink:href="0016874" xlink:title="GO:0016874 (1)">
<ellipse fill="#e98576" stroke="#e98576" cx="915" cy="-90" rx="75.2018" ry="18"/>
<text text-anchor="middle" x="915" y="-85.8" font-family="Times,serif" font-size="14.00">GO:0016874 (1)</text>
</a>
</g>
<!-- g0&#45;&gt;l0 -->
<g id="edge12" class="edge"><title>g0&#45;&gt;l0</title>
<path fill="none" stroke="black" d="M780.997,-146.834C806.556,-136.185 841.825,-121.49 869.765,-109.848"/>
<polygon fill="black" stroke="black" points="871.429,-112.946 879.314,-105.869 868.737,-106.485 871.429,-112.946"/>
</g>
<!-- h0 -->
<g id="node16" class="node"><title>h0</title>
<a xlink:href="0016740" xlink:title="GO:0016740 (4)">
<ellipse fill="#e98576" stroke="#e98576" cx="1083" cy="-90" rx="75.2018" ry="18"/>
<text text-anchor="middle" x="1083" y="-85.8" font-family="Times,serif" font-size="14.00">GO:0016740 (4)</text>
</a>
</g>
<!-- g0&#45;&gt;h0 -->
<g id="edge14" class="edge"><title>g0&#45;&gt;h0</title>
<path fill="none" stroke="black" d="M792.391,-149.856C800.888,-147.848 809.705,-145.817 818,-144 898.12,-126.447 918.582,-124.135 999,-108 1005.03,-106.79 1011.31,-105.527 1017.59,-104.261"/>
<polygon fill="black" stroke="black" points="1018.32,-107.683 1027.43,-102.274 1016.93,-100.822 1018.32,-107.683"/>
</g>
<!-- m0 -->
<g id="node23" class="node"><title>m0</title>
<a xlink:href="0016829" xlink:title="GO:0016829 (1)">
<ellipse fill="#e98576" stroke="#e98576" cx="1251" cy="-90" rx="75.2018" ry="18"/>
<text text-anchor="middle" x="1251" y="-85.8" font-family="Times,serif" font-size="14.00">GO:0016829 (1)</text>
</a>
</g>
<!-- g0&#45;&gt;m0 -->
<g id="edge22" class="edge"><title>g0&#45;&gt;m0</title>
<path fill="none" stroke="black" d="M791.126,-149.48C799.982,-147.438 809.254,-145.491 818,-144 971.715,-117.788 1012.85,-131.493 1167,-108 1173.62,-106.991 1180.51,-105.811 1187.37,-104.552"/>
<polygon fill="black" stroke="black" points="1188.19,-107.959 1197.36,-102.66 1186.89,-101.081 1188.19,-107.959"/>
</g>
<!-- n0 -->
<g id="node27" class="node"><title>n0</title>
<a xlink:href="0008233" xlink:title="GO:0008233 (1)">
<ellipse fill="#e98576" stroke="#e98576" cx="747" cy="-18" rx="75.2018" ry="18"/>
<text text-anchor="middle" x="747" y="-13.8" font-family="Times,serif" font-size="14.00">GO:0008233 (1)</text>
</a>
</g>
<!-- f0&#45;&gt;n0 -->
<g id="edge26" class="edge"><title>f0&#45;&gt;n0</title>
<path fill="none" stroke="black" d="M747,-71.6966C747,-63.9827 747,-54.7125 747,-46.1124"/>
<polygon fill="black" stroke="black" points="750.5,-46.1043 747,-36.1043 743.5,-46.1044 750.5,-46.1043"/>
</g>
</g>
</svg>
