<?xml version="1.0" encoding="UTF-8" standalone="no"?>
<!DOCTYPE svg PUBLIC "-//W3C//DTD SVG 1.1//EN"
 "http://www.w3.org/Graphics/SVG/1.1/DTD/svg11.dtd">
<!-- Generated by graphviz version 2.28.0 (20110622.2320)
 -->
<!-- Title: G Pages: 1 -->
<svg width="2036pt" height="188pt"
 viewBox="0.00 0.00 2036.00 188.00" xmlns="http://www.w3.org/2000/svg" xmlns:xlink="http://www.w3.org/1999/xlink">
<g id="graph1" class="graph" transform="scale(1 1) rotate(0) translate(4 184)">
<title>G</title>
<polygon fill="white" stroke="white" points="-4,5 -4,-184 2033,-184 2033,5 -4,5"/>
<!-- g0 -->
<g id="node1" class="node"><title>g0</title>
<a xlink:href="0003824" xlink:title="GO:0003824">
<ellipse fill="#dddddd" stroke="#dddddd" cx="505" cy="-90" rx="61.1934" ry="18"/>
<text text-anchor="middle" x="505" y="-85.8" font-family="Times,serif" font-size="14.00">GO:0003824</text>
</a>
</g>
<!-- o0 -->
<g id="node3" class="node"><title>o0</title>
<a xlink:href="0016853" xlink:title="GO:0016853 (1)">
<ellipse fill="#e98576" stroke="#e98576" cx="75" cy="-18" rx="75.2018" ry="18"/>
<text text-anchor="middle" x="75" y="-13.8" font-family="Times,serif" font-size="14.00">GO:0016853 (1)</text>
</a>
</g>
<!-- g0&#45;&gt;o0 -->
<g id="edge2" class="edge"><title>g0&#45;&gt;o0</title>
<path fill="none" stroke="black" d="M450.93,-81.5319C382.726,-71.9247 261.913,-54.2851 159,-36 152.751,-34.8897 146.252,-33.6774 139.761,-32.428"/>
<polygon fill="black" stroke="black" points="140.088,-28.9258 129.602,-30.4433 138.745,-35.7959 140.088,-28.9258"/>
</g>
<!-- f0 -->
<g id="node25" class="node"><title>f0</title>
<a xlink:href="0016787" xlink:title="GO:0016787 (10)">
<ellipse fill="#e98576" stroke="#e98576" cx="248" cy="-18" rx="79.4447" ry="18"/>
<text text-anchor="middle" x="248" y="-13.8" font-family="Times,serif" font-size="14.00">GO:0016787 (10)</text>
</a>
</g>
<!-- g0&#45;&gt;f0 -->
<g id="edge24" class="edge"><title>g0&#45;&gt;f0</title>
<path fill="none" stroke="black" d="M461.694,-77.2046C419.091,-65.6006 353.748,-47.8029 306.534,-34.9431"/>
<polygon fill="black" stroke="black" points="307.317,-31.529 296.749,-32.2779 305.478,-38.2829 307.317,-31.529"/>
</g>
<!-- h0 -->
<g id="node27" class="node"><title>h0</title>
<a xlink:href="0016740" xlink:title="GO:0016740 (9)">
<ellipse fill="#e98576" stroke="#e98576" cx="421" cy="-18" rx="75.2018" ry="18"/>
<text text-anchor="middle" x="421" y="-13.8" font-family="Times,serif" font-size="14.00">GO:0016740 (9)</text>
</a>
</g>
<!-- g0&#45;&gt;h0 -->
<g id="edge26" class="edge"><title>g0&#45;&gt;h0</title>
<path fill="none" stroke="black" d="M485.518,-72.7646C474.57,-63.642 460.725,-52.1046 448.67,-42.0585"/>
<polygon fill="black" stroke="black" points="450.591,-39.1029 440.668,-35.3898 446.109,-44.4805 450.591,-39.1029"/>
</g>
<!-- l0 -->
<g id="node29" class="node"><title>l0</title>
<a xlink:href="0016491" xlink:title="GO:0016491 (4)">
<ellipse fill="#e98576" stroke="#e98576" cx="589" cy="-18" rx="75.2018" ry="18"/>
<text text-anchor="middle" x="589" y="-13.8" font-family="Times,serif" font-size="14.00">GO:0016491 (4)</text>
</a>
</g>
<!-- g0&#45;&gt;l0 -->
<g id="edge28" class="edge"><title>g0&#45;&gt;l0</title>
<path fill="none" stroke="black" d="M524.482,-72.7646C535.43,-63.642 549.275,-52.1046 561.33,-42.0585"/>
<polygon fill="black" stroke="black" points="563.891,-44.4805 569.332,-35.3898 559.409,-39.1029 563.891,-44.4805"/>
</g>
<!-- k0 -->
<g id="node33" class="node"><title>k0</title>
<a xlink:href="0016829" xlink:title="GO:0016829 (4)">
<ellipse fill="#e98576" stroke="#e98576" cx="757" cy="-18" rx="75.2018" ry="18"/>
<text text-anchor="middle" x="757" y="-13.8" font-family="Times,serif" font-size="14.00">GO:0016829 (4)</text>
</a>
</g>
<!-- g0&#45;&gt;k0 -->
<g id="edge32" class="edge"><title>g0&#45;&gt;k0</title>
<path fill="none" stroke="black" d="M548.034,-77.0461C589.943,-65.4048 653.895,-47.6401 700.012,-34.83"/>
<polygon fill="black" stroke="black" points="701.161,-38.1434 709.859,-32.0946 699.287,-31.3988 701.161,-38.1434"/>
</g>
<!-- c0 -->
<g id="node4" class="node"><title>c0</title>
<a xlink:href="0003674" xlink:title="GO:0003674 (4)">
<ellipse fill="#e98576" stroke="#e98576" cx="1422" cy="-162" rx="75.2018" ry="18"/>
<text text-anchor="middle" x="1422" y="-157.8" font-family="Times,serif" font-size="14.00">GO:0003674 (4)</text>
</a>
</g>
<!-- c0&#45;&gt;g0 -->
<g id="edge6" class="edge"><title>c0&#45;&gt;g0</title>
<path fill="none" stroke="black" d="M1351.57,-155.623C1180.18,-142.541 743.081,-109.174 573.605,-96.237"/>
<polygon fill="black" stroke="black" points="573.795,-92.7414 563.558,-95.4701 573.262,-99.7211 573.795,-92.7414"/>
</g>
<!-- m0 -->
<g id="node6" class="node"><title>m0</title>
<a xlink:href="0030234" xlink:title="GO:0030234 (2)">
<ellipse fill="#e98576" stroke="#e98576" cx="1190" cy="-90" rx="75.2018" ry="18"/>
<text text-anchor="middle" x="1190" y="-85.8" font-family="Times,serif" font-size="14.00">GO:0030234 (2)</text>
</a>
</g>
<!-- c0&#45;&gt;m0 -->
<g id="edge4" class="edge"><title>c0&#45;&gt;m0</title>
<path fill="none" stroke="black" d="M1377.27,-147.503C1339.44,-136.089 1285.09,-119.692 1244.68,-107.5"/>
<polygon fill="black" stroke="black" points="1245.57,-104.112 1234.99,-104.575 1243.55,-110.814 1245.57,-104.112"/>
</g>
<!-- b0 -->
<g id="node8" class="node"><title>b0</title>
<a xlink:href="0005488" xlink:title="GO:0005488">
<ellipse fill="#dddddd" stroke="#dddddd" cx="1345" cy="-90" rx="61.1934" ry="18"/>
<text text-anchor="middle" x="1345" y="-85.8" font-family="Times,serif" font-size="14.00">GO:0005488</text>
</a>
</g>
<!-- c0&#45;&gt;b0 -->
<g id="edge16" class="edge"><title>c0&#45;&gt;b0</title>
<path fill="none" stroke="black" d="M1403.75,-144.411C1393.8,-135.367 1381.33,-124.03 1370.44,-114.13"/>
<polygon fill="black" stroke="black" points="1372.61,-111.365 1362.85,-107.228 1367.9,-116.545 1372.61,-111.365"/>
</g>
<!-- r0 -->
<g id="node19" class="node"><title>r0</title>
<a xlink:href="0016209" xlink:title="GO:0016209 (1)">
<ellipse fill="#e98576" stroke="#e98576" cx="1500" cy="-90" rx="75.2018" ry="18"/>
<text text-anchor="middle" x="1500" y="-85.8" font-family="Times,serif" font-size="14.00">GO:0016209 (1)</text>
</a>
</g>
<!-- c0&#45;&gt;r0 -->
<g id="edge18" class="edge"><title>c0&#45;&gt;r0</title>
<path fill="none" stroke="black" d="M1440.48,-144.411C1450.49,-135.432 1463.01,-124.193 1473.99,-114.344"/>
<polygon fill="black" stroke="black" points="1476.54,-116.754 1481.65,-107.47 1471.87,-111.544 1476.54,-116.754"/>
</g>
<!-- d0 -->
<g id="node21" class="node"><title>d0</title>
<a xlink:href="0005215" xlink:title="GO:0005215 (15)">
<ellipse fill="#e98576" stroke="#e98576" cx="1673" cy="-90" rx="79.4447" ry="18"/>
<text text-anchor="middle" x="1673" y="-85.8" font-family="Times,serif" font-size="14.00">GO:0005215 (15)</text>
</a>
</g>
<!-- c0&#45;&gt;d0 -->
<g id="edge20" class="edge"><title>c0&#45;&gt;d0</title>
<path fill="none" stroke="black" d="M1468.92,-147.916C1510.34,-136.364 1570.87,-119.483 1615.25,-107.104"/>
<polygon fill="black" stroke="black" points="1616.34,-110.435 1625.03,-104.377 1614.46,-103.692 1616.34,-110.435"/>
</g>
<!-- p0 -->
<g id="node35" class="node"><title>p0</title>
<a xlink:href="0005198" xlink:title="GO:0005198 (1)">
<ellipse fill="#e98576" stroke="#e98576" cx="1846" cy="-90" rx="75.2018" ry="18"/>
<text text-anchor="middle" x="1846" y="-85.8" font-family="Times,serif" font-size="14.00">GO:0005198 (1)</text>
</a>
</g>
<!-- c0&#45;&gt;p0 -->
<g id="edge34" class="edge"><title>c0&#45;&gt;p0</title>
<path fill="none" stroke="black" d="M1484.61,-152.021C1552.74,-142.062 1664.82,-125.129 1761,-108 1767.57,-106.83 1774.41,-105.555 1781.24,-104.247"/>
<polygon fill="black" stroke="black" points="1782.05,-107.656 1791.2,-102.315 1780.71,-100.784 1782.05,-107.656"/>
</g>
<!-- q0 -->
<g id="node10" class="node"><title>q0</title>
<a xlink:href="0005515" xlink:title="GO:0005515 (1)">
<ellipse fill="#e98576" stroke="#e98576" cx="925" cy="-18" rx="75.2018" ry="18"/>
<text text-anchor="middle" x="925" y="-13.8" font-family="Times,serif" font-size="14.00">GO:0005515 (1)</text>
</a>
</g>
<!-- b0&#45;&gt;q0 -->
<g id="edge8" class="edge"><title>b0&#45;&gt;q0</title>
<path fill="none" stroke="black" d="M1300.45,-77.6147C1291.72,-75.5855 1282.6,-73.6089 1274,-72 1157.17,-50.1342 1126.2,-55.7988 1009,-36 1002.49,-34.901 995.722,-33.6726 988.971,-32.3927"/>
<polygon fill="black" stroke="black" points="989.61,-28.9516 979.128,-30.4896 988.282,-35.8244 989.61,-28.9516"/>
</g>
<!-- i0 -->
<g id="node12" class="node"><title>i0</title>
<a xlink:href="0001882" xlink:title="GO:0001882 (6)">
<ellipse fill="#e98576" stroke="#e98576" cx="1093" cy="-18" rx="75.2018" ry="18"/>
<text text-anchor="middle" x="1093" y="-13.8" font-family="Times,serif" font-size="14.00">GO:0001882 (6)</text>
</a>
</g>
<!-- b0&#45;&gt;i0 -->
<g id="edge10" class="edge"><title>b0&#45;&gt;i0</title>
<path fill="none" stroke="black" d="M1301.97,-77.0461C1260.06,-65.4048 1196.1,-47.6401 1149.99,-34.83"/>
<polygon fill="black" stroke="black" points="1150.71,-31.3988 1140.14,-32.0946 1148.84,-38.1434 1150.71,-31.3988"/>
</g>
<!-- j0 -->
<g id="node14" class="node"><title>j0</title>
<a xlink:href="0008144" xlink:title="GO:0008144 (6)">
<ellipse fill="#e98576" stroke="#e98576" cx="1261" cy="-18" rx="75.2018" ry="18"/>
<text text-anchor="middle" x="1261" y="-13.8" font-family="Times,serif" font-size="14.00">GO:0008144 (6)</text>
</a>
</g>
<!-- b0&#45;&gt;j0 -->
<g id="edge12" class="edge"><title>b0&#45;&gt;j0</title>
<path fill="none" stroke="black" d="M1325.52,-72.7646C1314.57,-63.642 1300.73,-52.1046 1288.67,-42.0585"/>
<polygon fill="black" stroke="black" points="1290.59,-39.1029 1280.67,-35.3898 1286.11,-44.4805 1290.59,-39.1029"/>
</g>
<!-- s0 -->
<g id="node16" class="node"><title>s0</title>
<a xlink:href="0019842" xlink:title="GO:0019842 (1)">
<ellipse fill="#e98576" stroke="#e98576" cx="1429" cy="-18" rx="75.2018" ry="18"/>
<text text-anchor="middle" x="1429" y="-13.8" font-family="Times,serif" font-size="14.00">GO:0019842 (1)</text>
</a>
</g>
<!-- b0&#45;&gt;s0 -->
<g id="edge14" class="edge"><title>b0&#45;&gt;s0</title>
<path fill="none" stroke="black" d="M1364.48,-72.7646C1375.43,-63.642 1389.27,-52.1046 1401.33,-42.0585"/>
<polygon fill="black" stroke="black" points="1403.89,-44.4805 1409.33,-35.3898 1399.41,-39.1029 1403.89,-44.4805"/>
</g>
<!-- a0 -->
<g id="node23" class="node"><title>a0</title>
<a xlink:href="0043167" xlink:title="GO:0043167 (19)">
<ellipse fill="#e98576" stroke="#e98576" cx="1602" cy="-18" rx="79.4447" ry="18"/>
<text text-anchor="middle" x="1602" y="-13.8" font-family="Times,serif" font-size="14.00">GO:0043167 (19)</text>
</a>
</g>
<!-- b0&#45;&gt;a0 -->
<g id="edge22" class="edge"><title>b0&#45;&gt;a0</title>
<path fill="none" stroke="black" d="M1388.31,-77.2046C1430.91,-65.6006 1496.25,-47.8029 1543.47,-34.9431"/>
<polygon fill="black" stroke="black" points="1544.52,-38.2829 1553.25,-32.2779 1542.68,-31.529 1544.52,-38.2829"/>
</g>
<!-- e0 -->
<g id="node31" class="node"><title>e0</title>
<a xlink:href="0000166" xlink:title="GO:0000166 (12)">
<ellipse fill="#e98576" stroke="#e98576" cx="1780" cy="-18" rx="79.4447" ry="18"/>
<text text-anchor="middle" x="1780" y="-13.8" font-family="Times,serif" font-size="14.00">GO:0000166 (12)</text>
</a>
</g>
<!-- b0&#45;&gt;e0 -->
<g id="edge30" class="edge"><title>b0&#45;&gt;e0</title>
<path fill="none" stroke="black" d="M1389.54,-77.5845C1398.28,-75.5579 1407.4,-73.59 1416,-72 1536.78,-49.6695 1568.72,-55.4061 1690,-36 1697.12,-34.86 1704.55,-33.5901 1711.95,-32.272"/>
<polygon fill="black" stroke="black" points="1712.77,-35.68 1721.99,-30.4526 1711.52,-28.7922 1712.77,-35.68"/>
</g>
<!-- n0 -->
<g id="node37" class="node"><title>n0</title>
<a xlink:href="0048037" xlink:title="GO:0048037 (2)">
<ellipse fill="#e98576" stroke="#e98576" cx="1953" cy="-18" rx="75.2018" ry="18"/>
<text text-anchor="middle" x="1953" y="-13.8" font-family="Times,serif" font-size="14.00">GO:0048037 (2)</text>
</a>
</g>
<!-- b0&#45;&gt;n0 -->
<g id="edge36" class="edge"><title>b0&#45;&gt;n0</title>
<path fill="none" stroke="black" d="M1389.1,-77.3184C1397.96,-75.29 1407.24,-73.3894 1416,-72 1615.04,-40.4416 1668.4,-63.8095 1868,-36 1875.07,-35.0149 1882.44,-33.8111 1889.75,-32.5035"/>
<polygon fill="black" stroke="black" points="1890.47,-35.9313 1899.66,-30.667 1889.19,-29.0486 1890.47,-35.9313"/>
</g>
</g>
</svg>
