<?xml version="1.0" encoding="UTF-8" standalone="no"?> 
<!DOCTYPE svg PUBLIC "-//W3C//DTD SVG 1.1//EN" 
 "http://www.w3.org/Graphics/SVG/1.1/DTD/svg11.dtd"> 
<!-- Generated by graphviz version 2.28.0 (20110622.2320) 
 --> 
<!-- Title: G Pages: 1 --> 
<svg width="2000" height="1000"  
 viewBox="-30 -50 2000 1000" xmlns="http://www.w3.org/2000/svg" xmlns:xlink="http://www.w3.org/1999/xlink"> 
<g id="graph1" class="graph" transform="scale(1 1) rotate(0) translate(4 256)"> 
<title>G</title> 
<polygon fill="white" stroke="white" points="-4,5 -4,-256 4990,-256 4990,5 -4,5"/> 
<!-- c0 --> 
<g id="node1" class="node"><title>c0</title> 
<ellipse fill="#e98576" stroke="#e98576" cx="3449" cy="-234" rx="75.2018" ry="18"/> 
<a xlink:href="http://pir.georgetown.edu/cgi-bin/pt_graphvizView.pl?togoid=0003674" ><text id="GO:0003674" onmousemove="changeToText('GO:0003674')" onmouseout="changeBackText('GO:0003674')"  text-anchor="middle" x="3449" y="-234.8" font-family="Times,serif" font-size="14.00">GO:0003674</text></a>
<a xlink:href="http://pir.georgetown.edu/cgi-bin/pt_graphvizView.pl?tofile=811499" ><text id="r811499" onmousemove="changeToText2('r811499', 1)" onmouseout="changeBackText2('r811499', 1)"  text-anchor="middle" x="3449" y="-221.8" font-family="Times,serif" font-size="14.00">(1)</text>
 
</a> 
</g> 
<!-- x0 --> 
<g id="node3" class="node"><title>x0</title> 
<ellipse fill="#e98576" stroke="#e98576" cx="781" cy="-162" rx="75.2018" ry="18"/> 
<a xlink:href="http://pir.georgetown.edu/cgi-bin/pt_graphvizView.pl?togoid=0030234" ><text id="GO:0030234" onmousemove="changeToText('GO:0030234')" onmouseout="changeBackText('GO:0030234')"  text-anchor="middle" x="781" y="-162.8" font-family="Times,serif" font-size="14.00">GO:0030234</text></a>
<a xlink:href="http://pir.georgetown.edu/cgi-bin/pt_graphvizView.pl?tofile=811461" ><text id="r811461" onmousemove="changeToText2('r811461', 8)" onmouseout="changeBackText2('r811461', 8)"  text-anchor="middle" x="781" y="-149.8" font-family="Times,serif" font-size="14.00">(8)</text>
 
</a> 
</g> 
<!-- c0&#45;&gt;x0 --> 
<g id="edge2" class="edge"><title>c0&#45;&gt;x0</title> 
<path fill="none" stroke="black" d="M3373.78,-233.276C3003.29,-234.358 1369.94,-235.818 865,-180 857.883,-179.213 850.473,-178.122 843.132,-176.867"/> 
<polygon fill="black" stroke="black" points="843.662,-173.406 833.198,-175.07 842.415,-180.295 843.662,-173.406"/> 
</g> 
<!-- f0 --> 
<g id="node4" class="node"><title>f0</title> 
<ellipse fill="#e98576" stroke="#e98576" cx="954" cy="-162" rx="79.4447" ry="18"/> 
<a xlink:href="http://pir.georgetown.edu/cgi-bin/pt_graphvizView.pl?togoid=0003824" ><text id="GO:0003824" onmousemove="changeToText('GO:0003824')" onmouseout="changeBackText('GO:0003824')"  text-anchor="middle" x="954" y="-162.8" font-family="Times,serif" font-size="14.00">GO:0003824</text></a>
<a xlink:href="http://pir.georgetown.edu/cgi-bin/pt_graphvizView.pl?tofile=811431" ><text id="r811431" onmousemove="changeToText2('r811431', 55)" onmouseout="changeBackText2('r811431', 55)"  text-anchor="middle" x="954" y="-149.8" font-family="Times,serif" font-size="14.00">(55)</text>
 
</a> 
</g> 
<!-- c0&#45;&gt;f0 --> 
<g id="edge50" class="edge"><title>c0&#45;&gt;f0</title> 
<path fill="none" stroke="black" d="M3375.01,-230.924C3013.56,-220.783 1435.12,-176.498 1042.61,-165.486"/> 
<polygon fill="black" stroke="black" points="1042.55,-161.983 1032.45,-165.201 1042.35,-168.98 1042.55,-161.983"/> 
</g> 
<!-- b0 --> 
<g id="node7" class="node"><title>b0</title> 
<ellipse fill="#e98576" stroke="#e98576" cx="3098" cy="-162" rx="75.2018" ry="18"/> 
<a xlink:href="http://pir.georgetown.edu/cgi-bin/pt_graphvizView.pl?togoid=0005488" ><text id="GO:0005488" onmousemove="changeToText('GO:0005488')" onmouseout="changeBackText('GO:0005488')"  text-anchor="middle" x="3098" y="-162.8" font-family="Times,serif" font-size="14.00">GO:0005488</text></a>
<a xlink:href="http://pir.georgetown.edu/cgi-bin/pt_graphvizView.pl?tofile=811473" ><text id="r811473" onmousemove="changeToText2('r811473', 3)" onmouseout="changeBackText2('r811473', 3)"  text-anchor="middle" x="3098" y="-149.8" font-family="Times,serif" font-size="14.00">(3)</text>
 
</a> 
</g> 
<!-- c0&#45;&gt;b0 --> 
<g id="edge12" class="edge"><title>c0&#45;&gt;b0</title> 
<path fill="none" stroke="black" d="M3392.99,-221.945C3338.96,-211.265 3254.86,-194.605 3182,-180 3175.97,-178.791 3169.69,-177.529 3163.41,-176.263"/> 
<polygon fill="black" stroke="black" points="3164.07,-172.824 3153.57,-174.277 3162.68,-179.686 3164.07,-172.824"/> 
</g> 
<!-- p0 --> 
<g id="node26" class="node"><title>p0</title> 
<ellipse fill="#e98576" stroke="#e98576" cx="3271" cy="-162" rx="79.4447" ry="18"/> 
<a xlink:href="http://pir.georgetown.edu/cgi-bin/pt_graphvizView.pl?togoid=0005215" ><text id="GO:0005215" onmousemove="changeToText('GO:0005215')" onmouseout="changeBackText('GO:0005215')"  text-anchor="middle" x="3271" y="-162.8" font-family="Times,serif" font-size="14.00">GO:0005215</text></a>
<a xlink:href="http://pir.georgetown.edu/cgi-bin/pt_graphvizView.pl?tofile=811445" ><text id="r811445" onmousemove="changeToText2('r811445', 23)" onmouseout="changeBackText2('r811445', 23)"  text-anchor="middle" x="3271" y="-149.8" font-family="Times,serif" font-size="14.00">(23)</text>
 
</a> 
</g> 
<!-- c0&#45;&gt;p0 --> 
<g id="edge22" class="edge"><title>c0&#45;&gt;p0</title> 
<path fill="none" stroke="black" d="M3411.69,-218.326C3384.57,-207.664 3347.67,-193.152 3318.46,-181.666"/> 
<polygon fill="black" stroke="black" points="3319.47,-178.299 3308.88,-177.896 3316.9,-184.813 3319.47,-178.299"/> 
</g> 
<!-- n0 --> 
<g id="node44" class="node"><title>n0</title> 
<ellipse fill="#e98576" stroke="#e98576" cx="3449" cy="-162" rx="79.4447" ry="18"/> 
<a xlink:href="http://pir.georgetown.edu/cgi-bin/pt_graphvizView.pl?togoid=0005198" ><text id="GO:0005198" onmousemove="changeToText('GO:0005198')" onmouseout="changeBackText('GO:0005198')"  text-anchor="middle" x="3449" y="-162.8" font-family="Times,serif" font-size="14.00">GO:0005198</text></a>
<a xlink:href="http://pir.georgetown.edu/cgi-bin/pt_graphvizView.pl?tofile=811441" ><text id="r811441" onmousemove="changeToText2('r811441', 27)" onmouseout="changeBackText2('r811441', 27)"  text-anchor="middle" x="3449" y="-149.8" font-family="Times,serif" font-size="14.00">(27)</text>
 
</a> 
</g> 
<!-- c0&#45;&gt;n0 --> 
<g id="edge42" class="edge"><title>c0&#45;&gt;n0</title> 
<path fill="none" stroke="black" d="M3449,-215.697C3449,-207.983 3449,-198.712 3449,-190.112"/> 
<polygon fill="black" stroke="black" points="3452.5,-190.104 3449,-180.104 3445.5,-190.104 3452.5,-190.104"/> 
</g> 
<!-- q1 --> 
<g id="node55" class="node"><title>q1</title> 
<ellipse fill="#e98576" stroke="#e98576" cx="3622" cy="-162" rx="75.2018" ry="18"/> 
<a xlink:href="http://pir.georgetown.edu/cgi-bin/pt_graphvizView.pl?togoid=0016530" ><text id="GO:0016530" onmousemove="changeToText('GO:0016530')" onmouseout="changeBackText('GO:0016530')"  text-anchor="middle" x="3622" y="-162.8" font-family="Times,serif" font-size="14.00">GO:0016530</text></a>
<a xlink:href="http://pir.georgetown.edu/cgi-bin/pt_graphvizView.pl?tofile=811497" ><text id="r811497" onmousemove="changeToText2('r811497', 1)" onmouseout="changeBackText2('r811497', 1)"  text-anchor="middle" x="3622" y="-149.8" font-family="Times,serif" font-size="14.00">(1)</text>
 
</a> 
</g> 
<!-- c0&#45;&gt;q1 --> 
<g id="edge54" class="edge"><title>c0&#45;&gt;q1</title> 
<path fill="none" stroke="black" d="M3485.69,-218.155C3512.07,-207.482 3547.82,-193.016 3576.09,-181.577"/> 
<polygon fill="black" stroke="black" points="3577.41,-184.819 3585.36,-177.824 3574.78,-178.33 3577.41,-184.819"/> 
</g> 
<!-- i1 --> 
<g id="node60" class="node"><title>i1</title> 
<a xlink:href="http://pir.georgetown.edu/cgi-bin/pt_graphvizView.pl?togoid=0060089" > 
<ellipse fill="#dddddd" stroke="#dddddd" cx="3777" cy="-162" rx="61.1934" ry="18"/> 
<a xlink:href="http://pir.georgetown.edu/cgi-bin/pt_graphvizView.pl?togoid=0060089" ><text id="GO:0060089" onmousemove="changeToText('GO:0060089')" onmouseout="changeBackText('GO:0060089')"  text-anchor="middle" x="3777" y="-157.8" font-family="Times,serif" font-size="14.00">GO:0060089</text></a>
 
</a> 
</g> 
<!-- c0&#45;&gt;i1 --> 
<g id="edge84" class="edge"><title>c0&#45;&gt;i1</title> 
<path fill="none" stroke="black" d="M3505.01,-221.981C3557.14,-211.597 3636.97,-195.379 3706,-180 3711.05,-178.875 3716.3,-177.676 3721.55,-176.456"/> 
<polygon fill="black" stroke="black" points="3722.66,-179.789 3731.6,-174.097 3721.06,-172.974 3722.66,-179.789"/> 
</g> 
<!-- r0 --> 
<g id="node66" class="node"><title>r0</title> 
<ellipse fill="#e98576" stroke="#e98576" cx="3936" cy="-162" rx="79.4447" ry="18"/> 
<a xlink:href="http://pir.georgetown.edu/cgi-bin/pt_graphvizView.pl?togoid=0016209" ><text id="GO:0016209" onmousemove="changeToText('GO:0016209')" onmouseout="changeBackText('GO:0016209')"  text-anchor="middle" x="3936" y="-162.8" font-family="Times,serif" font-size="14.00">GO:0016209</text></a>
<a xlink:href="http://pir.georgetown.edu/cgi-bin/pt_graphvizView.pl?tofile=811449" ><text id="r811449" onmousemove="changeToText2('r811449', 15)" onmouseout="changeBackText2('r811449', 15)"  text-anchor="middle" x="3936" y="-149.8" font-family="Times,serif" font-size="14.00">(15)</text>
 
</a> 
</g> 
<!-- c0&#45;&gt;r0 --> 
<g id="edge64" class="edge"><title>c0&#45;&gt;r0</title> 
<path fill="none" stroke="black" d="M3515.01,-225.364C3594.11,-215.949 3730.54,-198.862 3847,-180 3853.78,-178.902 3860.84,-177.683 3867.88,-176.418"/> 
<polygon fill="black" stroke="black" points="3868.95,-179.781 3878.16,-174.539 3867.69,-172.895 3868.95,-179.781"/> 
</g> 
<!-- k1 --> 
<g id="node68" class="node"><title>k1</title> 
<ellipse fill="#e98576" stroke="#e98576" cx="4109" cy="-162" rx="75.2018" ry="18"/> 
<a xlink:href="http://pir.georgetown.edu/cgi-bin/pt_graphvizView.pl?togoid=0045735" ><text id="GO:0045735" onmousemove="changeToText('GO:0045735')" onmouseout="changeBackText('GO:0045735')"  text-anchor="middle" x="4109" y="-162.8" font-family="Times,serif" font-size="14.00">GO:0045735</text></a>
<a xlink:href="http://pir.georgetown.edu/cgi-bin/pt_graphvizView.pl?tofile=811485" ><text id="r811485" onmousemove="changeToText2('r811485', 2)" onmouseout="changeBackText2('r811485', 2)"  text-anchor="middle" x="4109" y="-149.8" font-family="Times,serif" font-size="14.00">(2)</text>
 
</a> 
</g> 
<!-- c0&#45;&gt;k1 --> 
<g id="edge66" class="edge"><title>c0&#45;&gt;k1</title> 
<path fill="none" stroke="black" d="M3521,-228.811C3630.17,-221.907 3843.95,-206.229 4024,-180 4030.8,-179.009 4037.89,-177.83 4044.93,-176.562"/> 
<polygon fill="black" stroke="black" points="4046,-179.924 4055.19,-174.652 4044.72,-173.042 4046,-179.924"/> 
</g> 
<!-- v0 --> 
<g id="node6" class="node"><title>v0</title> 
<ellipse fill="#e98576" stroke="#e98576" cx="79" cy="-90" rx="79.4447" ry="18"/> 
<a xlink:href="http://pir.georgetown.edu/cgi-bin/pt_graphvizView.pl?togoid=0016853" ><text id="GO:0016853" onmousemove="changeToText('GO:0016853')" onmouseout="changeBackText('GO:0016853')"  text-anchor="middle" x="79" y="-90.8" font-family="Times,serif" font-size="14.00">GO:0016853</text></a>
<a xlink:href="http://pir.georgetown.edu/cgi-bin/pt_graphvizView.pl?tofile=811457" ><text id="r811457" onmousemove="changeToText2('r811457', 10)" onmouseout="changeBackText2('r811457', 10)"  text-anchor="middle" x="79" y="-77.8" font-family="Times,serif" font-size="14.00">(10)</text>
 
</a> 
</g> 
<!-- f0&#45;&gt;v0 --> 
<g id="edge4" class="edge"><title>f0&#45;&gt;v0</title> 
<path fill="none" stroke="black" d="M898.161,-149.122C887.209,-147.136 875.776,-145.301 865,-144 557.046,-106.814 475.954,-145.186 168,-108 160.423,-107.085 152.522,-105.906 144.691,-104.597"/> 
<polygon fill="black" stroke="black" points="145.292,-101.149 134.839,-102.878 144.089,-108.045 145.292,-101.149"/> 
</g> 
<!-- j0 --> 
<g id="node15" class="node"><title>j0</title> 
<ellipse fill="#e98576" stroke="#e98576" cx="257" cy="-90" rx="79.4447" ry="18"/> 
<a xlink:href="http://pir.georgetown.edu/cgi-bin/pt_graphvizView.pl?togoid=0016787" ><text id="GO:0016787" onmousemove="changeToText('GO:0016787')" onmouseout="changeBackText('GO:0016787')"  text-anchor="middle" x="257" y="-90.8" font-family="Times,serif" font-size="14.00">GO:0016787</text></a>
<a xlink:href="http://pir.georgetown.edu/cgi-bin/pt_graphvizView.pl?tofile=811433" ><text id="r811433" onmousemove="changeToText2('r811433', 54)" onmouseout="changeBackText2('r811433', 54)"  text-anchor="middle" x="257" y="-77.8" font-family="Times,serif" font-size="14.00">(54)</text>
 
</a> 
</g> 
<!-- f0&#45;&gt;j0 --> 
<g id="edge28" class="edge"><title>f0&#45;&gt;j0</title> 
<path fill="none" stroke="black" d="M897.666,-149.187C886.86,-147.221 875.608,-145.376 865,-144 635.7,-114.256 575.3,-137.744 346,-108 338.624,-107.043 330.937,-105.86 323.305,-104.567"/> 
<polygon fill="black" stroke="black" points="323.79,-101.098 313.334,-102.813 322.577,-107.992 323.79,-101.098"/> 
</g> 
<!-- e0 --> 
<g id="node20" class="node"><title>e0</title> 
<ellipse fill="#e98576" stroke="#e98576" cx="435" cy="-90" rx="79.4447" ry="18"/> 
<a xlink:href="http://pir.georgetown.edu/cgi-bin/pt_graphvizView.pl?togoid=0016491" ><text id="GO:0016491" onmousemove="changeToText('GO:0016491')" onmouseout="changeBackText('GO:0016491')"  text-anchor="middle" x="435" y="-90.8" font-family="Times,serif" font-size="14.00">GO:0016491</text></a>
<a xlink:href="http://pir.georgetown.edu/cgi-bin/pt_graphvizView.pl?tofile=811423" ><text id="r811423" onmousemove="changeToText2('r811423', 82)" onmouseout="changeBackText2('r811423', 82)"  text-anchor="middle" x="435" y="-77.8" font-family="Times,serif" font-size="14.00">(82)</text>
 
</a> 
</g> 
<!-- f0&#45;&gt;e0 --> 
<g id="edge36" class="edge"><title>f0&#45;&gt;e0</title> 
<path fill="none" stroke="black" d="M897.146,-149.407C886.491,-147.443 875.426,-145.543 865,-144 714.245,-121.684 674.755,-130.316 524,-108 516.832,-106.939 509.362,-105.709 501.931,-104.406"/> 
<polygon fill="black" stroke="black" points="502.316,-100.919 491.854,-102.593 501.076,-107.809 502.316,-100.919"/> 
</g> 
<!-- o1 --> 
<g id="node24" class="node"><title>o1</title> 
<ellipse fill="#e98576" stroke="#e98576" cx="608" cy="-90" rx="75.2018" ry="18"/> 
<a xlink:href="http://pir.georgetown.edu/cgi-bin/pt_graphvizView.pl?togoid=0019239" ><text id="GO:0019239" onmousemove="changeToText('GO:0019239')" onmouseout="changeBackText('GO:0019239')"  text-anchor="middle" x="608" y="-90.8" font-family="Times,serif" font-size="14.00">GO:0019239</text></a>
<a xlink:href="http://pir.georgetown.edu/cgi-bin/pt_graphvizView.pl?tofile=811493" ><text id="r811493" onmousemove="changeToText2('r811493', 1)" onmouseout="changeBackText2('r811493', 1)"  text-anchor="middle" x="608" y="-77.8" font-family="Times,serif" font-size="14.00">(1)</text>
 
</a> 
</g> 
<!-- f0&#45;&gt;o1 --> 
<g id="edge20" class="edge"><title>f0&#45;&gt;o1</title> 
<path fill="none" stroke="black" d="M896.865,-149.441C835.466,-137.019 738.03,-117.307 673.555,-104.263"/> 
<polygon fill="black" stroke="black" points="673.996,-100.781 663.501,-102.229 672.608,-107.642 673.996,-100.781"/> 
</g> 
<!-- q0 --> 
<g id="node35" class="node"><title>q0</title> 
<ellipse fill="#e98576" stroke="#e98576" cx="781" cy="-90" rx="79.4447" ry="18"/> 
<a xlink:href="http://pir.georgetown.edu/cgi-bin/pt_graphvizView.pl?togoid=0016874" ><text id="GO:0016874" onmousemove="changeToText('GO:0016874')" onmouseout="changeBackText('GO:0016874')"  text-anchor="middle" x="781" y="-90.8" font-family="Times,serif" font-size="14.00">GO:0016874</text></a>
<a xlink:href="http://pir.georgetown.edu/cgi-bin/pt_graphvizView.pl?tofile=811447" ><text id="r811447" onmousemove="changeToText2('r811447', 15)" onmouseout="changeBackText2('r811447', 15)"  text-anchor="middle" x="781" y="-77.8" font-family="Times,serif" font-size="14.00">(15)</text>
 
</a> 
</g> 
<!-- f0&#45;&gt;q0 --> 
<g id="edge32" class="edge"><title>f0&#45;&gt;q0</title> 
<path fill="none" stroke="black" d="M916.887,-145.983C890.776,-135.418 855.637,-121.2 827.633,-109.869"/> 
<polygon fill="black" stroke="black" points="828.634,-106.498 818.051,-105.992 826.009,-112.987 828.634,-106.498"/> 
</g> 
<!-- g1 --> 
<g id="node42" class="node"><title>g1</title> 
<ellipse fill="#e98576" stroke="#e98576" cx="954" cy="-90" rx="75.2018" ry="18"/> 
<a xlink:href="http://pir.georgetown.edu/cgi-bin/pt_graphvizView.pl?togoid=0004386" ><text id="GO:0004386" onmousemove="changeToText('GO:0004386')" onmouseout="changeBackText('GO:0004386')"  text-anchor="middle" x="954" y="-90.8" font-family="Times,serif" font-size="14.00">GO:0004386</text></a>
<a xlink:href="http://pir.georgetown.edu/cgi-bin/pt_graphvizView.pl?tofile=811479" ><text id="r811479" onmousemove="changeToText2('r811479', 2)" onmouseout="changeBackText2('r811479', 2)"  text-anchor="middle" x="954" y="-77.8" font-family="Times,serif" font-size="14.00">(2)</text>
 
</a> 
</g> 
<!-- f0&#45;&gt;g1 --> 
<g id="edge40" class="edge"><title>f0&#45;&gt;g1</title> 
<path fill="none" stroke="black" d="M954,-143.697C954,-135.983 954,-126.712 954,-118.112"/> 
<polygon fill="black" stroke="black" points="957.5,-118.104 954,-108.104 950.5,-118.104 957.5,-118.104"/> 
</g> 
<!-- n1 --> 
<g id="node72" class="node"><title>n1</title> 
<ellipse fill="#e98576" stroke="#e98576" cx="1122" cy="-90" rx="75.2018" ry="18"/> 
<a xlink:href="http://pir.georgetown.edu/cgi-bin/pt_graphvizView.pl?togoid=0009975" ><text id="GO:0009975" onmousemove="changeToText('GO:0009975')" onmouseout="changeBackText('GO:0009975')"  text-anchor="middle" x="1122" y="-90.8" font-family="Times,serif" font-size="14.00">GO:0009975</text></a>
<a xlink:href="http://pir.georgetown.edu/cgi-bin/pt_graphvizView.pl?tofile=811491" ><text id="r811491" onmousemove="changeToText2('r811491', 1)" onmouseout="changeBackText2('r811491', 1)"  text-anchor="middle" x="1122" y="-77.8" font-family="Times,serif" font-size="14.00">(1)</text>
 
</a> 
</g> 
<!-- f0&#45;&gt;n1 --> 
<g id="edge70" class="edge"><title>f0&#45;&gt;n1</title> 
<path fill="none" stroke="black" d="M990.453,-145.811C1015.83,-135.236 1049.85,-121.063 1076.93,-109.779"/> 
<polygon fill="black" stroke="black" points="1078.31,-112.996 1086.19,-105.919 1075.62,-106.534 1078.31,-112.996"/> 
</g> 
<!-- i0 --> 
<g id="node76" class="node"><title>i0</title> 
<ellipse fill="#e98576" stroke="#e98576" cx="1295" cy="-90" rx="79.4447" ry="18"/> 
<a xlink:href="http://pir.georgetown.edu/cgi-bin/pt_graphvizView.pl?togoid=0016740" ><text id="GO:0016740" onmousemove="changeToText('GO:0016740')" onmouseout="changeBackText('GO:0016740')"  text-anchor="middle" x="1295" y="-90.8" font-family="Times,serif" font-size="14.00">GO:0016740</text></a>
<a xlink:href="http://pir.georgetown.edu/cgi-bin/pt_graphvizView.pl?tofile=811429" ><text id="r811429" onmousemove="changeToText2('r811429', 56)" onmouseout="changeBackText2('r811429', 56)"  text-anchor="middle" x="1295" y="-77.8" font-family="Times,serif" font-size="14.00">(56)</text>
 
</a> 
</g> 
<!-- f0&#45;&gt;i0 --> 
<g id="edge74" class="edge"><title>f0&#45;&gt;i0</title> 
<path fill="none" stroke="black" d="M1010.69,-149.362C1070.55,-137.074 1164.86,-117.714 1228.27,-104.698"/> 
<polygon fill="black" stroke="black" points="1229.08,-108.105 1238.17,-102.665 1227.67,-101.248 1229.08,-108.105"/> 
</g> 
<!-- m0 --> 
<g id="node84" class="node"><title>m0</title> 
<ellipse fill="#e98576" stroke="#e98576" cx="1473" cy="-90" rx="79.4447" ry="18"/> 
<a xlink:href="http://pir.georgetown.edu/cgi-bin/pt_graphvizView.pl?togoid=0016829" ><text id="GO:0016829" onmousemove="changeToText('GO:0016829')" onmouseout="changeBackText('GO:0016829')"  text-anchor="middle" x="1473" y="-90.8" font-family="Times,serif" font-size="14.00">GO:0016829</text></a>
<a xlink:href="http://pir.georgetown.edu/cgi-bin/pt_graphvizView.pl?tofile=811439" ><text id="r811439" onmousemove="changeToText2('r811439', 28)" onmouseout="changeBackText2('r811439', 28)"  text-anchor="middle" x="1473" y="-77.8" font-family="Times,serif" font-size="14.00">(28)</text>
 
</a> 
</g> 
<!-- f0&#45;&gt;m0 --> 
<g id="edge82" class="edge"><title>f0&#45;&gt;m0</title> 
<path fill="none" stroke="black" d="M1024.79,-153.654C1110,-144.489 1257.32,-127.613 1383,-108 1390.32,-106.858 1397.95,-105.568 1405.55,-104.223"/> 
<polygon fill="black" stroke="black" points="1406.26,-107.651 1415.48,-102.43 1405.02,-100.763 1406.26,-107.651"/> 
</g> 
<!-- f1 --> 
<g id="node9" class="node"><title>f1</title> 
<ellipse fill="#e98576" stroke="#e98576" cx="1646" cy="-90" rx="75.2018" ry="18"/> 
<a xlink:href="http://pir.georgetown.edu/cgi-bin/pt_graphvizView.pl?togoid=0042277" ><text id="GO:0042277" onmousemove="changeToText('GO:0042277')" onmouseout="changeBackText('GO:0042277')"  text-anchor="middle" x="1646" y="-90.8" font-family="Times,serif" font-size="14.00">GO:0042277</text></a>
<a xlink:href="http://pir.georgetown.edu/cgi-bin/pt_graphvizView.pl?tofile=811477" ><text id="r811477" onmousemove="changeToText2('r811477', 3)" onmouseout="changeBackText2('r811477', 3)"  text-anchor="middle" x="1646" y="-77.8" font-family="Times,serif" font-size="14.00">(3)</text>
 
</a> 
</g> 
<!-- b0&#45;&gt;f1 --> 
<g id="edge6" class="edge"><title>b0&#45;&gt;f1</title> 
<path fill="none" stroke="black" d="M3023.49,-159.695C2776.16,-155.116 1983.69,-138.385 1730,-108 1723.15,-107.18 1716.03,-106.099 1708.95,-104.879"/> 
<polygon fill="black" stroke="black" points="1709.13,-101.354 1698.66,-103.006 1707.88,-108.24 1709.13,-101.354"/> 
</g> 
<!-- r1 --> 
<g id="node11" class="node"><title>r1</title> 
<ellipse fill="#e98576" stroke="#e98576" cx="1814" cy="-90" rx="75.2018" ry="18"/> 
<a xlink:href="http://pir.georgetown.edu/cgi-bin/pt_graphvizView.pl?togoid=0019825" ><text id="GO:0019825" onmousemove="changeToText('GO:0019825')" onmouseout="changeBackText('GO:0019825')"  text-anchor="middle" x="1814" y="-90.8" font-family="Times,serif" font-size="14.00">GO:0019825</text></a>
<a xlink:href="http://pir.georgetown.edu/cgi-bin/pt_graphvizView.pl?tofile=811501" ><text id="r811501" onmousemove="changeToText2('r811501', 1)" onmouseout="changeBackText2('r811501', 1)"  text-anchor="middle" x="1814" y="-77.8" font-family="Times,serif" font-size="14.00">(1)</text>
 
</a> 
</g> 
<!-- b0&#45;&gt;r1 --> 
<g id="edge8" class="edge"><title>b0&#45;&gt;r1</title> 
<path fill="none" stroke="black" d="M3022.89,-161.726C2833.43,-162.683 2321.03,-159.829 1898,-108 1891.15,-107.161 1884.03,-106.069 1876.96,-104.842"/> 
<polygon fill="black" stroke="black" points="1877.14,-101.316 1866.67,-102.962 1875.88,-108.202 1877.14,-101.316"/> 
</g> 
<!-- h0 --> 
<g id="node13" class="node"><title>h0</title> 
<ellipse fill="#e98576" stroke="#e98576" cx="1987" cy="-90" rx="79.4447" ry="18"/> 
<a xlink:href="http://pir.georgetown.edu/cgi-bin/pt_graphvizView.pl?togoid=0005515" ><text id="GO:0005515" onmousemove="changeToText('GO:0005515')" onmouseout="changeBackText('GO:0005515')"  text-anchor="middle" x="1987" y="-90.8" font-family="Times,serif" font-size="14.00">GO:0005515</text></a>
<a xlink:href="http://pir.georgetown.edu/cgi-bin/pt_graphvizView.pl?tofile=811427" ><text id="r811427" onmousemove="changeToText2('r811427', 64)" onmouseout="changeBackText2('r811427', 64)"  text-anchor="middle" x="1987" y="-77.8" font-family="Times,serif" font-size="14.00">(64)</text>
 
</a> 
</g> 
<!-- b0&#45;&gt;h0 --> 
<g id="edge10" class="edge"><title>b0&#45;&gt;h0</title> 
<path fill="none" stroke="black" d="M3023.01,-160.619C2853.58,-158.991 2428.55,-150.609 2076,-108 2068.42,-107.084 2060.52,-105.905 2052.69,-104.595"/> 
<polygon fill="black" stroke="black" points="2053.29,-101.147 2042.84,-102.876 2052.09,-108.043 2053.29,-101.147"/> 
</g> 
<!-- m1 --> 
<g id="node19" class="node"><title>m1</title> 
<ellipse fill="#e98576" stroke="#e98576" cx="2160" cy="-90" rx="75.2018" ry="18"/> 
<a xlink:href="http://pir.georgetown.edu/cgi-bin/pt_graphvizView.pl?togoid=0005496" ><text id="GO:0005496" onmousemove="changeToText('GO:0005496')" onmouseout="changeBackText('GO:0005496')"  text-anchor="middle" x="2160" y="-90.8" font-family="Times,serif" font-size="14.00">GO:0005496</text></a>
<a xlink:href="http://pir.georgetown.edu/cgi-bin/pt_graphvizView.pl?tofile=811489" ><text id="r811489" onmousemove="changeToText2('r811489', 1)" onmouseout="changeBackText2('r811489', 1)"  text-anchor="middle" x="2160" y="-77.8" font-family="Times,serif" font-size="14.00">(1)</text>
 
</a> 
</g> 
<!-- b0&#45;&gt;m1 --> 
<g id="edge16" class="edge"><title>b0&#45;&gt;m1</title> 
<path fill="none" stroke="black" d="M3023.42,-159.82C2874.6,-156.704 2530.46,-145.693 2244,-108 2237.26,-107.113 2230.25,-106.001 2223.28,-104.773"/> 
<polygon fill="black" stroke="black" points="2223.61,-101.274 2213.14,-102.903 2222.34,-108.158 2223.61,-101.274"/> 
</g> 
<!-- a0 --> 
<g id="node28" class="node"><title>a0</title> 
<ellipse fill="#e98576" stroke="#e98576" cx="2338" cy="-90" rx="84.1886" ry="18"/> 
<a xlink:href="http://pir.georgetown.edu/cgi-bin/pt_graphvizView.pl?togoid=0043167" ><text id="GO:0043167" onmousemove="changeToText('GO:0043167')" onmouseout="changeBackText('GO:0043167')"  text-anchor="middle" x="2338" y="-90.8" font-family="Times,serif" font-size="14.00">GO:0043167</text></a>
<a xlink:href="http://pir.georgetown.edu/cgi-bin/pt_graphvizView.pl?tofile=811419" ><text id="r811419" onmousemove="changeToText2('r811419', 171)" onmouseout="changeBackText2('r811419', 171)"  text-anchor="middle" x="2338" y="-77.8" font-family="Times,serif" font-size="14.00">(171)</text>
 
</a> 
</g> 
<!-- b0&#45;&gt;a0 --> 
<g id="edge24" class="edge"><title>b0&#45;&gt;a0</title> 
<path fill="none" stroke="black" d="M3024.83,-157.563C2901.95,-151.258 2646.52,-135.864 2432,-108 2424.11,-106.975 2415.87,-105.737 2407.7,-104.401"/> 
<polygon fill="black" stroke="black" points="2408.23,-100.941 2397.78,-102.732 2407.06,-107.844 2408.23,-100.941"/> 
</g> 
<!-- d1 --> 
<g id="node30" class="node"><title>d1</title> 
<a xlink:href="http://pir.georgetown.edu/cgi-bin/pt_graphvizView.pl?togoid=0043176" > 
<ellipse fill="#dddddd" stroke="#dddddd" cx="2502" cy="-90" rx="61.1934" ry="18"/> 
<a xlink:href="http://pir.georgetown.edu/cgi-bin/pt_graphvizView.pl?togoid=0043176" ><text id="GO:0043176" onmousemove="changeToText('GO:0043176')" onmouseout="changeBackText('GO:0043176')"  text-anchor="middle" x="2502" y="-85.8" font-family="Times,serif" font-size="14.00">GO:0043176</text></a>
 
</a> 
</g> 
<!-- b0&#45;&gt;d1 --> 
<g id="edge26" class="edge"><title>b0&#45;&gt;d1</title> 
<path fill="none" stroke="black" d="M3025.68,-156.878C2923.89,-150.359 2732.81,-135.494 2572,-108 2566.68,-107.091 2561.17,-106.006 2555.68,-104.83"/> 
<polygon fill="black" stroke="black" points="2556.39,-101.402 2545.87,-102.633 2554.86,-108.233 2556.39,-101.402"/> 
</g> 
<!-- w0 --> 
<g id="node33" class="node"><title>w0</title> 
<ellipse fill="#e98576" stroke="#e98576" cx="2661" cy="-90" rx="79.4447" ry="18"/> 
<a xlink:href="http://pir.georgetown.edu/cgi-bin/pt_graphvizView.pl?togoid=0030246" ><text id="GO:0030246" onmousemove="changeToText('GO:0030246')" onmouseout="changeBackText('GO:0030246')"  text-anchor="middle" x="2661" y="-90.8" font-family="Times,serif" font-size="14.00">GO:0030246</text></a>
<a xlink:href="http://pir.georgetown.edu/cgi-bin/pt_graphvizView.pl?tofile=811459" ><text id="r811459" onmousemove="changeToText2('r811459', 10)" onmouseout="changeBackText2('r811459', 10)"  text-anchor="middle" x="2661" y="-77.8" font-family="Times,serif" font-size="14.00">(10)</text>
 
</a> 
</g> 
<!-- b0&#45;&gt;w0 --> 
<g id="edge30" class="edge"><title>b0&#45;&gt;w0</title> 
<path fill="none" stroke="black" d="M3035.02,-152.135C2965.22,-142.141 2849.38,-125.054 2750,-108 2743.23,-106.838 2736.18,-105.578 2729.14,-104.287"/> 
<polygon fill="black" stroke="black" points="2729.34,-100.765 2718.87,-102.381 2728.06,-107.647 2729.34,-100.765"/> 
</g> 
<!-- l0 --> 
<g id="node37" class="node"><title>l0</title> 
<ellipse fill="#e98576" stroke="#e98576" cx="2839" cy="-90" rx="79.4447" ry="18"/> 
<a xlink:href="http://pir.georgetown.edu/cgi-bin/pt_graphvizView.pl?togoid=0003676" ><text id="GO:0003676" onmousemove="changeToText('GO:0003676')" onmouseout="changeBackText('GO:0003676')"  text-anchor="middle" x="2839" y="-90.8" font-family="Times,serif" font-size="14.00">GO:0003676</text></a>
<a xlink:href="http://pir.georgetown.edu/cgi-bin/pt_graphvizView.pl?tofile=811437" ><text id="r811437" onmousemove="changeToText2('r811437', 39)" onmouseout="changeBackText2('r811437', 39)"  text-anchor="middle" x="2839" y="-77.8" font-family="Times,serif" font-size="14.00">(39)</text>
 
</a> 
</g> 
<!-- b0&#45;&gt;l0 --> 
<g id="edge34" class="edge"><title>b0&#45;&gt;l0</title> 
<path fill="none" stroke="black" d="M3050.19,-148.079C3007.16,-136.449 2943.79,-119.322 2897.7,-106.865"/> 
<polygon fill="black" stroke="black" points="2898.41,-103.432 2887.85,-104.202 2896.59,-110.19 2898.41,-103.432"/> 
</g> 
<!-- p1 --> 
<g id="node40" class="node"><title>p1</title> 
<ellipse fill="#e98576" stroke="#e98576" cx="3012" cy="-90" rx="75.2018" ry="18"/> 
<a xlink:href="http://pir.georgetown.edu/cgi-bin/pt_graphvizView.pl?togoid=0001871" ><text id="GO:0001871" onmousemove="changeToText('GO:0001871')" onmouseout="changeBackText('GO:0001871')"  text-anchor="middle" x="3012" y="-90.8" font-family="Times,serif" font-size="14.00">GO:0001871</text></a>
<a xlink:href="http://pir.georgetown.edu/cgi-bin/pt_graphvizView.pl?tofile=811495" ><text id="r811495" onmousemove="changeToText2('r811495', 1)" onmouseout="changeBackText2('r811495', 1)"  text-anchor="middle" x="3012" y="-77.8" font-family="Times,serif" font-size="14.00">(1)</text>
 
</a> 
</g> 
<!-- b0&#45;&gt;p1 --> 
<g id="edge38" class="edge"><title>b0&#45;&gt;p1</title> 
<path fill="none" stroke="black" d="M3077.62,-144.411C3066.48,-135.345 3052.51,-123.974 3040.33,-114.057"/> 
<polygon fill="black" stroke="black" points="3042.2,-111.068 3032.23,-107.47 3037.78,-116.497 3042.2,-111.068"/> 
</g> 
<!-- k0 --> 
<g id="node46" class="node"><title>k0</title> 
<ellipse fill="#e98576" stroke="#e98576" cx="3185" cy="-90" rx="79.4447" ry="18"/> 
<a xlink:href="http://pir.georgetown.edu/cgi-bin/pt_graphvizView.pl?togoid=0048037" ><text id="GO:0048037" onmousemove="changeToText('GO:0048037')" onmouseout="changeBackText('GO:0048037')"  text-anchor="middle" x="3185" y="-90.8" font-family="Times,serif" font-size="14.00">GO:0048037</text></a>
<a xlink:href="http://pir.georgetown.edu/cgi-bin/pt_graphvizView.pl?tofile=811435" ><text id="r811435" onmousemove="changeToText2('r811435', 41)" onmouseout="changeBackText2('r811435', 41)"  text-anchor="middle" x="3185" y="-77.8" font-family="Times,serif" font-size="14.00">(41)</text>
 
</a> 
</g> 
<!-- b0&#45;&gt;k0 --> 
<g id="edge44" class="edge"><title>b0&#45;&gt;k0</title> 
<path fill="none" stroke="black" d="M3118.62,-144.411C3129.99,-135.257 3144.29,-123.755 3156.7,-113.772"/> 
<polygon fill="black" stroke="black" points="3158.93,-116.466 3164.53,-107.47 3154.54,-111.012 3158.93,-116.466"/> 
</g> 
<!-- b1 --> 
<g id="node50" class="node"><title>b1</title> 
<ellipse fill="#e98576" stroke="#e98576" cx="3358" cy="-90" rx="75.2018" ry="18"/> 
<a xlink:href="http://pir.georgetown.edu/cgi-bin/pt_graphvizView.pl?togoid=0008289" ><text id="GO:0008289" onmousemove="changeToText('GO:0008289')" onmouseout="changeBackText('GO:0008289')"  text-anchor="middle" x="3358" y="-90.8" font-family="Times,serif" font-size="14.00">GO:0008289</text></a>
<a xlink:href="http://pir.georgetown.edu/cgi-bin/pt_graphvizView.pl?tofile=811469" ><text id="r811469" onmousemove="changeToText2('r811469', 4)" onmouseout="changeBackText2('r811469', 4)"  text-anchor="middle" x="3358" y="-77.8" font-family="Times,serif" font-size="14.00">(4)</text>
 
</a> 
</g> 
<!-- b0&#45;&gt;b1 --> 
<g id="edge48" class="edge"><title>b0&#45;&gt;b1</title> 
<path fill="none" stroke="black" d="M3145.99,-148.079C3189.46,-136.376 3253.61,-119.105 3299.95,-106.629"/> 
<polygon fill="black" stroke="black" points="3301.1,-109.943 3309.85,-103.964 3299.28,-103.184 3301.1,-109.943"/> 
</g> 
<!-- g0 --> 
<g id="node53" class="node"><title>g0</title> 
<ellipse fill="#e98576" stroke="#e98576" cx="3531" cy="-90" rx="79.4447" ry="18"/> 
<a xlink:href="http://pir.georgetown.edu/cgi-bin/pt_graphvizView.pl?togoid=0001882" ><text id="GO:0001882" onmousemove="changeToText('GO:0001882')" onmouseout="changeBackText('GO:0001882')"  text-anchor="middle" x="3531" y="-90.8" font-family="Times,serif" font-size="14.00">GO:0001882</text></a>
<a xlink:href="http://pir.georgetown.edu/cgi-bin/pt_graphvizView.pl?tofile=811425" ><text id="r811425" onmousemove="changeToText2('r811425', 64)" onmouseout="changeBackText2('r811425', 64)"  text-anchor="middle" x="3531" y="-77.8" font-family="Times,serif" font-size="14.00">(64)</text>
 
</a> 
</g> 
<!-- b0&#45;&gt;g0 --> 
<g id="edge52" class="edge"><title>b0&#45;&gt;g0</title> 
<path fill="none" stroke="black" d="M3152.58,-149.442C3162.36,-147.518 3172.47,-145.623 3182,-144 3297,-124.42 3326.89,-126.95 3442,-108 3448.78,-106.884 3455.83,-105.654 3462.88,-104.382"/> 
<polygon fill="black" stroke="black" points="3463.94,-107.744 3473.15,-102.495 3462.68,-100.859 3463.94,-107.744"/> 
</g> 
<!-- z0 --> 
<g id="node57" class="node"><title>z0</title> 
<ellipse fill="#e98576" stroke="#e98576" cx="3704" cy="-90" rx="75.2018" ry="18"/> 
<a xlink:href="http://pir.georgetown.edu/cgi-bin/pt_graphvizView.pl?togoid=0019842" ><text id="GO:0019842" onmousemove="changeToText('GO:0019842')" onmouseout="changeBackText('GO:0019842')"  text-anchor="middle" x="3704" y="-90.8" font-family="Times,serif" font-size="14.00">GO:0019842</text></a>
<a xlink:href="http://pir.georgetown.edu/cgi-bin/pt_graphvizView.pl?tofile=811465" ><text id="r811465" onmousemove="changeToText2('r811465', 6)" onmouseout="changeBackText2('r811465', 6)"  text-anchor="middle" x="3704" y="-77.8" font-family="Times,serif" font-size="14.00">(6)</text>
 
</a> 
</g> 
<!-- b0&#45;&gt;z0 --> 
<g id="edge56" class="edge"><title>b0&#45;&gt;z0</title> 
<path fill="none" stroke="black" d="M3151.16,-149.261C3161.36,-147.287 3171.98,-145.421 3182,-144 3374.95,-116.625 3426.02,-135.155 3619,-108 3625.81,-107.042 3632.89,-105.884 3639.94,-104.629"/> 
<polygon fill="black" stroke="black" points="3641,-107.992 3650.2,-102.732 3639.73,-101.109 3641,-107.992"/> 
</g> 
<!-- l1 --> 
<g id="node64" class="node"><title>l1</title> 
<ellipse fill="#e98576" stroke="#e98576" cx="3872" cy="-90" rx="75.2018" ry="18"/> 
<a xlink:href="http://pir.georgetown.edu/cgi-bin/pt_graphvizView.pl?togoid=0060090" ><text id="GO:0060090" onmousemove="changeToText('GO:0060090')" onmouseout="changeBackText('GO:0060090')"  text-anchor="middle" x="3872" y="-90.8" font-family="Times,serif" font-size="14.00">GO:0060090</text></a>
<a xlink:href="http://pir.georgetown.edu/cgi-bin/pt_graphvizView.pl?tofile=811487" ><text id="r811487" onmousemove="changeToText2('r811487', 1)" onmouseout="changeBackText2('r811487', 1)"  text-anchor="middle" x="3872" y="-77.8" font-family="Times,serif" font-size="14.00">(1)</text>
 
</a> 
</g> 
<!-- b0&#45;&gt;l1 --> 
<g id="edge62" class="edge"><title>b0&#45;&gt;l1</title> 
<path fill="none" stroke="black" d="M3150.69,-149.162C3161.02,-147.172 3171.82,-145.326 3182,-144 3449.55,-109.155 3520.45,-142.845 3788,-108 3794.84,-107.109 3801.96,-105.983 3809.03,-104.737"/> 
<polygon fill="black" stroke="black" points="3810.12,-108.096 3819.31,-102.838 3808.84,-101.212 3810.12,-108.096"/> 
</g> 
<!-- j1 --> 
<g id="node70" class="node"><title>j1</title> 
<ellipse fill="#e98576" stroke="#e98576" cx="4040" cy="-90" rx="75.2018" ry="18"/> 
<a xlink:href="http://pir.georgetown.edu/cgi-bin/pt_graphvizView.pl?togoid=0031406" ><text id="GO:0031406" onmousemove="changeToText('GO:0031406')" onmouseout="changeBackText('GO:0031406')"  text-anchor="middle" x="4040" y="-90.8" font-family="Times,serif" font-size="14.00">GO:0031406</text></a>
<a xlink:href="http://pir.georgetown.edu/cgi-bin/pt_graphvizView.pl?tofile=811483" ><text id="r811483" onmousemove="changeToText2('r811483', 2)" onmouseout="changeBackText2('r811483', 2)"  text-anchor="middle" x="4040" y="-77.8" font-family="Times,serif" font-size="14.00">(2)</text>
 
</a> 
</g> 
<!-- b0&#45;&gt;j1 --> 
<g id="edge68" class="edge"><title>b0&#45;&gt;j1</title> 
<path fill="none" stroke="black" d="M3150.67,-149.057C3161.01,-147.076 3171.81,-145.26 3182,-144 3523.77,-101.721 3614.23,-150.279 3956,-108 3962.85,-107.153 3969.97,-106.056 3977.04,-104.826"/> 
<polygon fill="black" stroke="black" points="3978.12,-108.186 3987.33,-102.943 3976.86,-101.3 3978.12,-108.186"/> 
</g> 
<!-- o0 --> 
<g id="node78" class="node"><title>o0</title> 
<ellipse fill="#e98576" stroke="#e98576" cx="4213" cy="-90" rx="79.4447" ry="18"/> 
<a xlink:href="http://pir.georgetown.edu/cgi-bin/pt_graphvizView.pl?togoid=0046906" ><text id="GO:0046906" onmousemove="changeToText('GO:0046906')" onmouseout="changeBackText('GO:0046906')"  text-anchor="middle" x="4213" y="-90.8" font-family="Times,serif" font-size="14.00">GO:0046906</text></a>
<a xlink:href="http://pir.georgetown.edu/cgi-bin/pt_graphvizView.pl?tofile=811443" ><text id="r811443" onmousemove="changeToText2('r811443', 27)" onmouseout="changeBackText2('r811443', 27)"  text-anchor="middle" x="4213" y="-77.8" font-family="Times,serif" font-size="14.00">(27)</text>
 
</a> 
</g> 
<!-- b0&#45;&gt;o0 --> 
<g id="edge76" class="edge"><title>b0&#45;&gt;o0</title> 
<path fill="none" stroke="black" d="M3150.66,-148.989C3161,-147.015 3171.81,-145.218 3182,-144 3598.01,-94.2845 3707.72,-155.438 4124,-108 4131.5,-107.145 4139.31,-106.014 4147.06,-104.74"/> 
<polygon fill="black" stroke="black" points="4147.92,-108.144 4157.17,-102.993 4146.72,-101.246 4147.92,-108.144"/> 
</g> 
<!-- d0 --> 
<g id="node80" class="node"><title>d0</title> 
<ellipse fill="#e98576" stroke="#e98576" cx="4391" cy="-90" rx="79.4447" ry="18"/> 
<a xlink:href="http://pir.georgetown.edu/cgi-bin/pt_graphvizView.pl?togoid=0000166" ><text id="GO:0000166" onmousemove="changeToText('GO:0000166')" onmouseout="changeBackText('GO:0000166')"  text-anchor="middle" x="4391" y="-90.8" font-family="Times,serif" font-size="14.00">GO:0000166</text></a>
<a xlink:href="http://pir.georgetown.edu/cgi-bin/pt_graphvizView.pl?tofile=811421" ><text id="r811421" onmousemove="changeToText2('r811421', 87)" onmouseout="changeBackText2('r811421', 87)"  text-anchor="middle" x="4391" y="-77.8" font-family="Times,serif" font-size="14.00">(87)</text>
 
</a> 
</g> 
<!-- b0&#45;&gt;d0 --> 
<g id="edge78" class="edge"><title>b0&#45;&gt;d0</title> 
<path fill="none" stroke="black" d="M3150.21,-149.026C3160.69,-147.022 3171.65,-145.205 3182,-144 3676.25,-86.4473 3806.39,-162.34 4301,-108 4308.78,-107.145 4316.89,-105.991 4324.93,-104.684"/> 
<polygon fill="black" stroke="black" points="4325.76,-108.092 4335.03,-102.957 4324.58,-101.192 4325.76,-108.092"/> 
</g> 
<!-- e1 --> 
<g id="node82" class="node"><title>e1</title> 
<ellipse fill="#e98576" stroke="#e98576" cx="4564" cy="-90" rx="75.2018" ry="18"/> 
<a xlink:href="http://pir.georgetown.edu/cgi-bin/pt_graphvizView.pl?togoid=0031409" ><text id="GO:0031409" onmousemove="changeToText('GO:0031409')" onmouseout="changeBackText('GO:0031409')"  text-anchor="middle" x="4564" y="-90.8" font-family="Times,serif" font-size="14.00">GO:0031409</text></a>
<a xlink:href="http://pir.georgetown.edu/cgi-bin/pt_graphvizView.pl?tofile=811475" ><text id="r811475" onmousemove="changeToText2('r811475', 3)" onmouseout="changeBackText2('r811475', 3)"  text-anchor="middle" x="4564" y="-77.8" font-family="Times,serif" font-size="14.00">(3)</text>
 
</a> 
</g> 
<!-- b0&#45;&gt;e1 --> 
<g id="edge80" class="edge"><title>b0&#45;&gt;e1</title> 
<path fill="none" stroke="black" d="M3150.21,-148.99C3160.68,-146.988 3171.65,-145.182 3182,-144 3754.94,-78.5647 3905.98,-172.78 4479,-108 4486.38,-107.165 4494.08,-106.021 4501.69,-104.716"/> 
<polygon fill="black" stroke="black" points="4502.4,-108.144 4511.62,-102.922 4501.16,-101.256 4502.4,-108.144"/> 
</g> 
<!-- u0 --> 
<g id="node87" class="node"><title>u0</title> 
<ellipse fill="#e98576" stroke="#e98576" cx="4737" cy="-90" rx="79.4447" ry="18"/> 
<a xlink:href="http://pir.georgetown.edu/cgi-bin/pt_graphvizView.pl?togoid=0051540" ><text id="GO:0051540" onmousemove="changeToText('GO:0051540')" onmouseout="changeBackText('GO:0051540')"  text-anchor="middle" x="4737" y="-90.8" font-family="Times,serif" font-size="14.00">GO:0051540</text></a>
<a xlink:href="http://pir.georgetown.edu/cgi-bin/pt_graphvizView.pl?tofile=811455" ><text id="r811455" onmousemove="changeToText2('r811455', 10)" onmouseout="changeBackText2('r811455', 10)"  text-anchor="middle" x="4737" y="-77.8" font-family="Times,serif" font-size="14.00">(10)</text>
 
</a> 
</g> 
<!-- b0&#45;&gt;u0 --> 
<g id="edge86" class="edge"><title>b0&#45;&gt;u0</title> 
<path fill="none" stroke="black" d="M3150.2,-148.964C3160.68,-146.964 3171.65,-145.165 3182,-144 3829.66,-71.08 3999.95,-177.374 4648,-108 4655.7,-107.176 4663.73,-106.04 4671.67,-104.743"/> 
<polygon fill="black" stroke="black" points="4672.4,-108.17 4681.66,-103.026 4671.22,-101.271 4672.4,-108.17"/> 
</g> 
<!-- t0 --> 
<g id="node17" class="node"><title>t0</title> 
<ellipse fill="#e98576" stroke="#e98576" cx="175" cy="-18" rx="79.4447" ry="18"/> 
<a xlink:href="http://pir.georgetown.edu/cgi-bin/pt_graphvizView.pl?togoid=0008233" ><text id="GO:0008233" onmousemove="changeToText('GO:0008233')" onmouseout="changeBackText('GO:0008233')"  text-anchor="middle" x="175" y="-18.8" font-family="Times,serif" font-size="14.00">GO:0008233</text></a>
<a xlink:href="http://pir.georgetown.edu/cgi-bin/pt_graphvizView.pl?tofile=811453" ><text id="r811453" onmousemove="changeToText2('r811453', 14)" onmouseout="changeBackText2('r811453', 14)"  text-anchor="middle" x="175" y="-5.8" font-family="Times,serif" font-size="14.00">(14)</text>
 
</a> 
</g> 
<!-- j0&#45;&gt;t0 --> 
<g id="edge14" class="edge"><title>j0&#45;&gt;t0</title> 
<path fill="none" stroke="black" d="M237.567,-72.411C226.947,-63.3446 213.627,-51.9742 202.01,-42.0572"/> 
<polygon fill="black" stroke="black" points="204.171,-39.3006 194.293,-35.4699 199.627,-44.6246 204.171,-39.3006"/> 
</g> 
<!-- a1 --> 
<g id="node22" class="node"><title>a1</title> 
<ellipse fill="#e98576" stroke="#e98576" cx="348" cy="-18" rx="75.2018" ry="18"/> 
<a xlink:href="http://pir.georgetown.edu/cgi-bin/pt_graphvizView.pl?togoid=0004497" ><text id="GO:0004497" onmousemove="changeToText('GO:0004497')" onmouseout="changeBackText('GO:0004497')"  text-anchor="middle" x="348" y="-18.8" font-family="Times,serif" font-size="14.00">GO:0004497</text></a>
<a xlink:href="http://pir.georgetown.edu/cgi-bin/pt_graphvizView.pl?tofile=811467" ><text id="r811467" onmousemove="changeToText2('r811467', 5)" onmouseout="changeBackText2('r811467', 5)"  text-anchor="middle" x="348" y="-5.8" font-family="Times,serif" font-size="14.00">(5)</text>
 
</a> 
</g> 
<!-- e0&#45;&gt;a1 --> 
<g id="edge18" class="edge"><title>e0&#45;&gt;a1</title> 
<path fill="none" stroke="black" d="M414.382,-72.411C403.006,-63.2575 388.71,-51.7553 376.302,-41.7715"/> 
<polygon fill="black" stroke="black" points="378.455,-39.0118 368.47,-35.4699 374.067,-44.4657 378.455,-39.0118"/> 
</g> 
<!-- y0 --> 
<g id="node48" class="node"><title>y0</title> 
<ellipse fill="#e98576" stroke="#e98576" cx="516" cy="-18" rx="75.2018" ry="18"/> 
<a xlink:href="http://pir.georgetown.edu/cgi-bin/pt_graphvizView.pl?togoid=0051213" ><text id="GO:0051213" onmousemove="changeToText('GO:0051213')" onmouseout="changeBackText('GO:0051213')"  text-anchor="middle" x="516" y="-18.8" font-family="Times,serif" font-size="14.00">GO:0051213</text></a>
<a xlink:href="http://pir.georgetown.edu/cgi-bin/pt_graphvizView.pl?tofile=811463" ><text id="r811463" onmousemove="changeToText2('r811463', 6)" onmouseout="changeBackText2('r811463', 6)"  text-anchor="middle" x="516" y="-5.8" font-family="Times,serif" font-size="14.00">(6)</text>
 
</a> 
</g> 
<!-- e0&#45;&gt;y0 --> 
<g id="edge46" class="edge"><title>e0&#45;&gt;y0</title> 
<path fill="none" stroke="black" d="M454.196,-72.411C464.687,-63.3446 477.844,-51.9742 489.32,-42.0572"/> 
<polygon fill="black" stroke="black" points="491.664,-44.6568 496.942,-35.4699 487.087,-39.3605 491.664,-44.6568"/> 
</g> 
<!-- s0 --> 
<g id="node74" class="node"><title>s0</title> 
<ellipse fill="#e98576" stroke="#e98576" cx="689" cy="-18" rx="79.4447" ry="18"/> 
<a xlink:href="http://pir.georgetown.edu/cgi-bin/pt_graphvizView.pl?togoid=0009055" ><text id="GO:0009055" onmousemove="changeToText('GO:0009055')" onmouseout="changeBackText('GO:0009055')"  text-anchor="middle" x="689" y="-18.8" font-family="Times,serif" font-size="14.00">GO:0009055</text></a>
<a xlink:href="http://pir.georgetown.edu/cgi-bin/pt_graphvizView.pl?tofile=811451" ><text id="r811451" onmousemove="changeToText2('r811451', 14)" onmouseout="changeBackText2('r811451', 14)"  text-anchor="middle" x="689" y="-5.8" font-family="Times,serif" font-size="14.00">(14)</text>
 
</a> 
</g> 
<!-- e0&#45;&gt;s0 --> 
<g id="edge72" class="edge"><title>e0&#45;&gt;s0</title> 
<path fill="none" stroke="black" d="M483.373,-75.6688C525.258,-64.1258 585.953,-47.3987 630.548,-35.1088"/> 
<polygon fill="black" stroke="black" points="631.664,-38.4318 640.375,-32.4006 629.804,-31.6834 631.664,-38.4318"/> 
</g> 
<!-- c1 --> 
<g id="node59" class="node"><title>c1</title> 
<ellipse fill="#e98576" stroke="#e98576" cx="2502" cy="-18" rx="75.2018" ry="18"/> 
<a xlink:href="http://pir.georgetown.edu/cgi-bin/pt_graphvizView.pl?togoid=0016597" ><text id="GO:0016597" onmousemove="changeToText('GO:0016597')" onmouseout="changeBackText('GO:0016597')"  text-anchor="middle" x="2502" y="-18.8" font-family="Times,serif" font-size="14.00">GO:0016597</text></a>
<a xlink:href="http://pir.georgetown.edu/cgi-bin/pt_graphvizView.pl?tofile=811471" ><text id="r811471" onmousemove="changeToText2('r811471', 4)" onmouseout="changeBackText2('r811471', 4)"  text-anchor="middle" x="2502" y="-5.8" font-family="Times,serif" font-size="14.00">(4)</text>
 
</a> 
</g> 
<!-- d1&#45;&gt;c1 --> 
<g id="edge58" class="edge"><title>d1&#45;&gt;c1</title> 
<path fill="none" stroke="black" d="M2502,-71.6966C2502,-63.9827 2502,-54.7125 2502,-46.1124"/> 
<polygon fill="black" stroke="black" points="2505.5,-46.1043 2502,-36.1043 2498.5,-46.1044 2505.5,-46.1043"/> 
</g> 
<!-- h1 --> 
<g id="node62" class="node"><title>h1</title> 
<ellipse fill="#e98576" stroke="#e98576" cx="4910" cy="-90" rx="75.2018" ry="18"/> 
<a xlink:href="http://pir.georgetown.edu/cgi-bin/pt_graphvizView.pl?togoid=0004871" ><text id="GO:0004871" onmousemove="changeToText('GO:0004871')" onmouseout="changeBackText('GO:0004871')"  text-anchor="middle" x="4910" y="-90.8" font-family="Times,serif" font-size="14.00">GO:0004871</text></a>
<a xlink:href="http://pir.georgetown.edu/cgi-bin/pt_graphvizView.pl?tofile=811481" ><text id="r811481" onmousemove="changeToText2('r811481', 2)" onmouseout="changeBackText2('r811481', 2)"  text-anchor="middle" x="4910" y="-77.8" font-family="Times,serif" font-size="14.00">(2)</text>
 
</a> 
</g> 
<!-- i1&#45;&gt;h1 --> 
<g id="edge60" class="edge"><title>i1&#45;&gt;h1</title> 
<path fill="none" stroke="black" d="M3820.05,-149.105C3828.9,-147.067 3838.2,-145.217 3847,-144 4277.85,-84.373 4393.02,-158.815 4825,-108 4832.19,-107.154 4839.69,-106.025 4847.11,-104.75"/> 
<polygon fill="black" stroke="black" points="4847.94,-108.156 4857.16,-102.933 4846.7,-101.268 4847.94,-108.156"/> 
</g> 
</g> 
<text text-anchor="left" x="4" y="-20" style="font-family:Arial Narrow;font-size:20.00;font-weight:bold;">GO Hierarchical View:</text> 

<text text-anchor="left" x="4" y="0" style="font-family:Arial Narrow;font-size:20.00;font-style:italic;">molecular function</text> 

<script type="text/ecmascript"> 
<![CDATA[ 
var targetText; 
function changeToText(z) { 
		targetText = svgDocument.getElementById(z).firstChild; 
		targetText.nodeValue="link to "+z; 
} 
function changeBackText(z) { 
		targetText = svgDocument.getElementById(z).firstChild; 
		targetText.nodeValue=z; 
} 
function changeToText2(z,n) { 
		targetText = svgDocument.getElementById(z).firstChild; 
		if (n<=1) { 
			targetText.nodeValue="link to " + n + " protein record"; 
		} else { 
			targetText.nodeValue="link to " + n + " protein records"; 
		} 
} 
function changeBackText2(z,n) { 
		targetText = svgDocument.getElementById(z).firstChild; 
		targetText.nodeValue="(" + n + ")"; 
} 
// ]]> 
</script> 
</svg> 
