<?xml version="1.0" encoding="UTF-8" standalone="no"?> 
<!DOCTYPE svg PUBLIC "-//W3C//DTD SVG 1.1//EN" 
 "http://www.w3.org/Graphics/SVG/1.1/DTD/svg11.dtd"> 
<!-- Generated by graphviz version 2.28.0 (20110622.2320) 
 --> 
<!-- Title: G Pages: 1 --> 
<svg width="2000" height="1000"  
 viewBox="-30 -50 2000 1000" xmlns="http://www.w3.org/2000/svg" xmlns:xlink="http://www.w3.org/1999/xlink"> 
<g id="graph1" class="graph" transform="scale(1 1) rotate(0) translate(4 472)"> 
<title>G</title> 
<polygon fill="white" stroke="white" points="-4,5 -4,-472 2244,-472 2244,5 -4,5"/> 
<!-- w0 --> 
<g id="node1" class="node"><title>w0</title> 
<ellipse fill="#e98576" stroke="#e98576" cx="712" cy="-378" rx="75.2018" ry="18"/> 
<a xlink:href="http://pir.georgetown.edu/cgi-bin/pt_graphvizView.pl?togoid=0051179" ><text id="GO:0051179" onmousemove="changeToText('GO:0051179')" onmouseout="changeBackText('GO:0051179')"  text-anchor="middle" x="712" y="-378.8" font-family="Times,serif" font-size="14.00">GO:0051179</text></a>
<a xlink:href="http://pir.georgetown.edu/cgi-bin/pt_graphvizView.pl?tofile=860539" ><text id="r860539" onmousemove="changeToText2('r860539', 2)" onmouseout="changeBackText2('r860539', 2)"  text-anchor="middle" x="712" y="-365.8" font-family="Times,serif" font-size="14.00">(2)</text>
 
</a> 
</g> 
<!-- e1 --> 
<g id="node3" class="node"><title>e1</title> 
<a xlink:href="http://pir.georgetown.edu/cgi-bin/pt_graphvizView.pl?togoid=0051674" > 
<ellipse fill="#dddddd" stroke="#dddddd" cx="694" cy="-306" rx="61.1934" ry="18"/> 
<a xlink:href="http://pir.georgetown.edu/cgi-bin/pt_graphvizView.pl?togoid=0051674" ><text id="GO:0051674" onmousemove="changeToText('GO:0051674')" onmouseout="changeBackText('GO:0051674')"  text-anchor="middle" x="694" y="-301.8" font-family="Times,serif" font-size="14.00">GO:0051674</text></a>
 
</a> 
</g> 
<!-- w0&#45;&gt;e1 --> 
<g id="edge2" class="edge"><title>w0&#45;&gt;e1</title> 
<path fill="none" stroke="black" d="M707.551,-359.697C705.545,-351.898 703.131,-342.509 700.899,-333.829"/> 
<polygon fill="black" stroke="black" points="704.278,-332.918 698.398,-324.104 697.499,-334.661 704.278,-332.918"/> 
</g> 
<!-- d1 --> 
<g id="node21" class="node"><title>d1</title> 
<ellipse fill="#e98576" stroke="#e98576" cx="807" cy="-234" rx="75.2018" ry="18"/> 
<a xlink:href="http://pir.georgetown.edu/cgi-bin/pt_graphvizView.pl?togoid=0006928" ><text id="GO:0006928" onmousemove="changeToText('GO:0006928')" onmouseout="changeBackText('GO:0006928')"  text-anchor="middle" x="807" y="-234.8" font-family="Times,serif" font-size="14.00">GO:0006928</text></a>
<a xlink:href="http://pir.georgetown.edu/cgi-bin/pt_graphvizView.pl?tofile=860545" ><text id="r860545" onmousemove="changeToText2('r860545', 2)" onmouseout="changeBackText2('r860545', 2)"  text-anchor="middle" x="807" y="-221.8" font-family="Times,serif" font-size="14.00">(2)</text>
 
</a> 
</g> 
<!-- e1&#45;&gt;d1 --> 
<g id="edge18" class="edge"><title>e1&#45;&gt;d1</title> 
<path fill="none" stroke="black" d="M719.078,-289.465C734.803,-279.724 755.29,-267.033 772.531,-256.353"/> 
<polygon fill="black" stroke="black" points="774.55,-259.219 781.208,-250.977 770.864,-253.268 774.55,-259.219"/> 
</g> 
<!-- o0 --> 
<g id="node4" class="node"><title>o0</title> 
<a xlink:href="http://pir.georgetown.edu/cgi-bin/pt_graphvizView.pl?togoid=0043170" > 
<ellipse fill="#dddddd" stroke="#dddddd" cx="213" cy="-306" rx="61.1934" ry="18"/> 
<a xlink:href="http://pir.georgetown.edu/cgi-bin/pt_graphvizView.pl?togoid=0043170" ><text id="GO:0043170" onmousemove="changeToText('GO:0043170')" onmouseout="changeBackText('GO:0043170')"  text-anchor="middle" x="213" y="-301.8" font-family="Times,serif" font-size="14.00">GO:0043170</text></a>
 
</a> 
</g> 
<!-- a1 --> 
<g id="node6" class="node"><title>a1</title> 
<a xlink:href="http://pir.georgetown.edu/cgi-bin/pt_graphvizView.pl?togoid=0019538" > 
<ellipse fill="#dddddd" stroke="#dddddd" cx="202" cy="-234" rx="61.1934" ry="18"/> 
<a xlink:href="http://pir.georgetown.edu/cgi-bin/pt_graphvizView.pl?togoid=0019538" ><text id="GO:0019538" onmousemove="changeToText('GO:0019538')" onmouseout="changeBackText('GO:0019538')"  text-anchor="middle" x="202" y="-229.8" font-family="Times,serif" font-size="14.00">GO:0019538</text></a>
 
</a> 
</g> 
<!-- o0&#45;&gt;a1 --> 
<g id="edge4" class="edge"><title>o0&#45;&gt;a1</title> 
<path fill="none" stroke="black" d="M210.281,-287.697C209.069,-279.983 207.612,-270.712 206.261,-262.112"/> 
<polygon fill="black" stroke="black" points="209.698,-261.44 204.688,-252.104 202.783,-262.526 209.698,-261.44"/> 
</g> 
<!-- n0 --> 
<g id="node18" class="node"><title>n0</title> 
<a xlink:href="http://pir.georgetown.edu/cgi-bin/pt_graphvizView.pl?togoid=0043283" > 
<ellipse fill="#dddddd" stroke="#dddddd" cx="61" cy="-234" rx="61.1934" ry="18"/> 
<a xlink:href="http://pir.georgetown.edu/cgi-bin/pt_graphvizView.pl?togoid=0043283" ><text id="GO:0043283" onmousemove="changeToText('GO:0043283')" onmouseout="changeBackText('GO:0043283')"  text-anchor="middle" x="61" y="-229.8" font-family="Times,serif" font-size="14.00">GO:0043283</text></a>
 
</a> 
</g> 
<!-- o0&#45;&gt;n0 --> 
<g id="edge58" class="edge"><title>o0&#45;&gt;n0</title> 
<path fill="none" stroke="black" d="M181.506,-290.496C158.374,-279.843 126.749,-265.279 101.701,-253.744"/> 
<polygon fill="black" stroke="black" points="103.001,-250.489 92.4542,-249.485 100.073,-256.848 103.001,-250.489"/> 
</g> 
<!-- b1 --> 
<g id="node45" class="node"><title>b1</title> 
<a xlink:href="http://pir.georgetown.edu/cgi-bin/pt_graphvizView.pl?togoid=0044260" > 
<ellipse fill="#dddddd" stroke="#dddddd" cx="343" cy="-234" rx="61.1934" ry="18"/> 
<a xlink:href="http://pir.georgetown.edu/cgi-bin/pt_graphvizView.pl?togoid=0044260" ><text id="GO:0044260" onmousemove="changeToText('GO:0044260')" onmouseout="changeBackText('GO:0044260')"  text-anchor="middle" x="343" y="-229.8" font-family="Times,serif" font-size="14.00">GO:0044260</text></a>
 
</a> 
</g> 
<!-- o0&#45;&gt;b1 --> 
<g id="edge42" class="edge"><title>o0&#45;&gt;b1</title> 
<path fill="none" stroke="black" d="M241.208,-289.811C260.117,-279.629 285.221,-266.112 305.766,-255.049"/> 
<polygon fill="black" stroke="black" points="307.702,-257.982 314.847,-250.159 304.383,-251.819 307.702,-257.982"/> 
</g> 
<!-- z0 --> 
<g id="node49" class="node"><title>z0</title> 
<a xlink:href="http://pir.georgetown.edu/cgi-bin/pt_graphvizView.pl?togoid=0044267" > 
<ellipse fill="#dddddd" stroke="#dddddd" cx="202" cy="-162" rx="61.1934" ry="18"/> 
<a xlink:href="http://pir.georgetown.edu/cgi-bin/pt_graphvizView.pl?togoid=0044267" ><text id="GO:0044267" onmousemove="changeToText('GO:0044267')" onmouseout="changeBackText('GO:0044267')"  text-anchor="middle" x="202" y="-157.8" font-family="Times,serif" font-size="14.00">GO:0044267</text></a>
 
</a> 
</g> 
<!-- a1&#45;&gt;z0 --> 
<g id="edge78" class="edge"><title>a1&#45;&gt;z0</title> 
<path fill="none" stroke="black" d="M202,-215.697C202,-207.983 202,-198.712 202,-190.112"/> 
<polygon fill="black" stroke="black" points="205.5,-190.104 202,-180.104 198.5,-190.104 205.5,-190.104"/> 
</g> 
<!-- k0 --> 
<g id="node7" class="node"><title>k0</title> 
<a xlink:href="http://pir.georgetown.edu/cgi-bin/pt_graphvizView.pl?togoid=0044238" > 
<ellipse fill="#dddddd" stroke="#dddddd" cx="366" cy="-306" rx="61.1934" ry="18"/> 
<a xlink:href="http://pir.georgetown.edu/cgi-bin/pt_graphvizView.pl?togoid=0044238" ><text id="GO:0044238" onmousemove="changeToText('GO:0044238')" onmouseout="changeBackText('GO:0044238')"  text-anchor="middle" x="366" y="-301.8" font-family="Times,serif" font-size="14.00">GO:0044238</text></a>
 
</a> 
</g> 
<!-- k0&#45;&gt;a1 --> 
<g id="edge6" class="edge"><title>k0&#45;&gt;a1</title> 
<path fill="none" stroke="black" d="M332.812,-290.834C307.36,-279.971 272.043,-264.896 244.52,-253.149"/> 
<polygon fill="black" stroke="black" points="245.71,-249.851 235.138,-249.144 242.962,-256.289 245.71,-249.851"/> 
</g> 
<!-- h0 --> 
<g id="node15" class="node"><title>h0</title> 
<a xlink:href="http://pir.georgetown.edu/cgi-bin/pt_graphvizView.pl?togoid=0006139" > 
<ellipse fill="#dddddd" stroke="#dddddd" cx="484" cy="-234" rx="61.1934" ry="18"/> 
<a xlink:href="http://pir.georgetown.edu/cgi-bin/pt_graphvizView.pl?togoid=0006139" ><text id="GO:0006139" onmousemove="changeToText('GO:0006139')" onmouseout="changeBackText('GO:0006139')"  text-anchor="middle" x="484" y="-229.8" font-family="Times,serif" font-size="14.00">GO:0006139</text></a>
 
</a> 
</g> 
<!-- k0&#45;&gt;h0 --> 
<g id="edge52" class="edge"><title>k0&#45;&gt;h0</title> 
<path fill="none" stroke="black" d="M391.896,-289.638C408.803,-279.608 431.073,-266.397 449.48,-255.478"/> 
<polygon fill="black" stroke="black" points="451.35,-258.438 458.165,-250.326 447.779,-252.418 451.35,-258.438"/> 
</g> 
<!-- b0 --> 
<g id="node9" class="node"><title>b0</title> 
<a xlink:href="http://pir.georgetown.edu/cgi-bin/pt_graphvizView.pl?togoid=0009987" > 
<ellipse fill="#dddddd" stroke="#dddddd" cx="886" cy="-378" rx="61.1934" ry="18"/> 
<a xlink:href="http://pir.georgetown.edu/cgi-bin/pt_graphvizView.pl?togoid=0009987" ><text id="GO:0009987" onmousemove="changeToText('GO:0009987')" onmouseout="changeBackText('GO:0009987')"  text-anchor="middle" x="886" y="-373.8" font-family="Times,serif" font-size="14.00">GO:0009987</text></a>
 
</a> 
</g> 
<!-- f1 --> 
<g id="node11" class="node"><title>f1</title> 
<ellipse fill="#e98576" stroke="#e98576" cx="886" cy="-306" rx="75.2018" ry="18"/> 
<a xlink:href="http://pir.georgetown.edu/cgi-bin/pt_graphvizView.pl?togoid=0007049" ><text id="GO:0007049" onmousemove="changeToText('GO:0007049')" onmouseout="changeBackText('GO:0007049')"  text-anchor="middle" x="886" y="-306.8" font-family="Times,serif" font-size="14.00">GO:0007049</text></a>
<a xlink:href="http://pir.georgetown.edu/cgi-bin/pt_graphvizView.pl?tofile=860547" ><text id="r860547" onmousemove="changeToText2('r860547', 2)" onmouseout="changeBackText2('r860547', 2)"  text-anchor="middle" x="886" y="-293.8" font-family="Times,serif" font-size="14.00">(2)</text>
 
</a> 
</g> 
<!-- b0&#45;&gt;f1 --> 
<g id="edge8" class="edge"><title>b0&#45;&gt;f1</title> 
<path fill="none" stroke="black" d="M886,-359.697C886,-351.983 886,-342.712 886,-334.112"/> 
<polygon fill="black" stroke="black" points="889.5,-334.104 886,-324.104 882.5,-334.104 889.5,-334.104"/> 
</g> 
<!-- b0&#45;&gt;d1 --> 
<g id="edge16" class="edge"><title>b0&#45;&gt;d1</title> 
<path fill="none" stroke="black" d="M848.964,-363.571C831.392,-355.11 812.076,-342.271 802,-324 791.644,-305.221 793.965,-280.694 798.272,-262.145"/> 
<polygon fill="black" stroke="black" points="801.712,-262.828 800.879,-252.266 794.943,-261.042 801.712,-262.828"/> 
</g> 
<!-- i0 --> 
<g id="node31" class="node"><title>i0</title> 
<a xlink:href="http://pir.georgetown.edu/cgi-bin/pt_graphvizView.pl?togoid=0044237" > 
<ellipse fill="#dddddd" stroke="#dddddd" cx="507" cy="-306" rx="61.1934" ry="18"/> 
<a xlink:href="http://pir.georgetown.edu/cgi-bin/pt_graphvizView.pl?togoid=0044237" ><text id="GO:0044237" onmousemove="changeToText('GO:0044237')" onmouseout="changeBackText('GO:0044237')"  text-anchor="middle" x="507" y="-301.8" font-family="Times,serif" font-size="14.00">GO:0044237</text></a>
 
</a> 
</g> 
<!-- b0&#45;&gt;i0 --> 
<g id="edge30" class="edge"><title>b0&#45;&gt;i0</title> 
<path fill="none" stroke="black" d="M836.024,-367.511C822.997,-365.051 808.975,-362.415 796,-360 717.231,-345.338 626.327,-328.716 567.831,-318.059"/> 
<polygon fill="black" stroke="black" points="568.12,-314.554 557.655,-316.205 566.866,-321.441 568.12,-314.554"/> 
</g> 
<!-- a0 --> 
<g id="node62" class="node"><title>a0</title> 
<ellipse fill="#e98576" stroke="#e98576" cx="1054" cy="-306" rx="75.2018" ry="18"/> 
<a xlink:href="http://pir.georgetown.edu/cgi-bin/pt_graphvizView.pl?togoid=0007154" ><text id="GO:0007154" onmousemove="changeToText('GO:0007154')" onmouseout="changeBackText('GO:0007154')"  text-anchor="middle" x="1054" y="-306.8" font-family="Times,serif" font-size="14.00">GO:0007154</text></a>
<a xlink:href="http://pir.georgetown.edu/cgi-bin/pt_graphvizView.pl?tofile=860521" ><text id="r860521" onmousemove="changeToText2('r860521', 2)" onmouseout="changeBackText2('r860521', 2)"  text-anchor="middle" x="1054" y="-293.8" font-family="Times,serif" font-size="14.00">(2)</text>
 
</a> 
</g> 
<!-- b0&#45;&gt;a0 --> 
<g id="edge64" class="edge"><title>b0&#45;&gt;a0</title> 
<path fill="none" stroke="black" d="M919.997,-362.834C945.556,-352.185 980.825,-337.49 1008.76,-325.848"/> 
<polygon fill="black" stroke="black" points="1010.43,-328.946 1018.31,-321.869 1007.74,-322.485 1010.43,-328.946"/> 
</g> 
<!-- r0 --> 
<g id="node67" class="node"><title>r0</title> 
<ellipse fill="#e98576" stroke="#e98576" cx="1222" cy="-306" rx="75.2018" ry="18"/> 
<a xlink:href="http://pir.georgetown.edu/cgi-bin/pt_graphvizView.pl?togoid=0007155" ><text id="GO:0007155" onmousemove="changeToText('GO:0007155')" onmouseout="changeBackText('GO:0007155')"  text-anchor="middle" x="1222" y="-306.8" font-family="Times,serif" font-size="14.00">GO:0007155</text></a>
<a xlink:href="http://pir.georgetown.edu/cgi-bin/pt_graphvizView.pl?tofile=860533" ><text id="r860533" onmousemove="changeToText2('r860533', 2)" onmouseout="changeBackText2('r860533', 2)"  text-anchor="middle" x="1222" y="-293.8" font-family="Times,serif" font-size="14.00">(2)</text>
 
</a> 
</g> 
<!-- b0&#45;&gt;r0 --> 
<g id="edge70" class="edge"><title>b0&#45;&gt;r0</title> 
<path fill="none" stroke="black" d="M931.391,-365.856C939.888,-363.848 948.705,-361.817 957,-360 1037.12,-342.447 1057.58,-340.135 1138,-324 1144.03,-322.79 1150.31,-321.527 1156.59,-320.261"/> 
<polygon fill="black" stroke="black" points="1157.32,-323.683 1166.43,-318.274 1155.93,-316.822 1157.32,-323.683"/> 
</g> 
<!-- c0 --> 
<g id="node12" class="node"><title>c0</title> 
<a xlink:href="http://pir.georgetown.edu/cgi-bin/pt_graphvizView.pl?togoid=0008150" > 
<ellipse fill="#dddddd" stroke="#dddddd" cx="1337" cy="-450" rx="61.1934" ry="18"/> 
<a xlink:href="http://pir.georgetown.edu/cgi-bin/pt_graphvizView.pl?togoid=0008150" ><text id="GO:0008150" onmousemove="changeToText('GO:0008150')" onmouseout="changeBackText('GO:0008150')"  text-anchor="middle" x="1337" y="-445.8" font-family="Times,serif" font-size="14.00">GO:0008150</text></a>
 
</a> 
</g> 
<!-- c0&#45;&gt;w0 --> 
<g id="edge20" class="edge"><title>c0&#45;&gt;w0</title> 
<path fill="none" stroke="black" d="M1278.65,-444.227C1182.18,-436.075 983.418,-418.178 816,-396 804.638,-394.495 792.608,-392.708 780.918,-390.868"/> 
<polygon fill="black" stroke="black" points="781.186,-387.366 770.758,-389.243 780.08,-394.279 781.186,-387.366"/> 
</g> 
<!-- c0&#45;&gt;b0 --> 
<g id="edge60" class="edge"><title>c0&#45;&gt;b0</title> 
<path fill="none" stroke="black" d="M1280.71,-442.869C1206.28,-434.37 1071.21,-417.586 957,-396 951.629,-394.985 946.053,-393.829 940.493,-392.61"/> 
<polygon fill="black" stroke="black" points="941.076,-389.153 930.551,-390.361 939.532,-395.981 941.076,-389.153"/> 
</g> 
<!-- s0 --> 
<g id="node14" class="node"><title>s0</title> 
<a xlink:href="http://pir.georgetown.edu/cgi-bin/pt_graphvizView.pl?togoid=0022610" > 
<ellipse fill="#dddddd" stroke="#dddddd" cx="1027" cy="-378" rx="61.1934" ry="18"/> 
<a xlink:href="http://pir.georgetown.edu/cgi-bin/pt_graphvizView.pl?togoid=0022610" ><text id="GO:0022610" onmousemove="changeToText('GO:0022610')" onmouseout="changeBackText('GO:0022610')"  text-anchor="middle" x="1027" y="-373.8" font-family="Times,serif" font-size="14.00">GO:0022610</text></a>
 
</a> 
</g> 
<!-- c0&#45;&gt;s0 --> 
<g id="edge10" class="edge"><title>c0&#45;&gt;s0</title> 
<path fill="none" stroke="black" d="M1289.33,-438.676C1241.06,-428.162 1164.26,-411.279 1098,-396 1093.03,-394.855 1087.87,-393.65 1082.71,-392.432"/> 
<polygon fill="black" stroke="black" points="1083.34,-388.986 1072.81,-390.087 1081.73,-395.797 1083.34,-388.986"/> 
</g> 
<!-- j0 --> 
<g id="node25" class="node"><title>j0</title> 
<a xlink:href="http://pir.georgetown.edu/cgi-bin/pt_graphvizView.pl?togoid=0008152" > 
<ellipse fill="#dddddd" stroke="#dddddd" cx="436" cy="-378" rx="61.1934" ry="18"/> 
<a xlink:href="http://pir.georgetown.edu/cgi-bin/pt_graphvizView.pl?togoid=0008152" ><text id="GO:0008152" onmousemove="changeToText('GO:0008152')" onmouseout="changeBackText('GO:0008152')"  text-anchor="middle" x="436" y="-373.8" font-family="Times,serif" font-size="14.00">GO:0008152</text></a>
 
</a> 
</g> 
<!-- c0&#45;&gt;j0 --> 
<g id="edge22" class="edge"><title>c0&#45;&gt;j0</title> 
<path fill="none" stroke="black" d="M1278.15,-444.875C1156.63,-436.296 869.128,-415.687 628,-396 586.691,-392.627 540.411,-388.539 503.64,-385.217"/> 
<polygon fill="black" stroke="black" points="503.808,-381.718 493.533,-384.301 503.177,-388.689 503.808,-381.718"/> 
</g> 
<!-- v0 --> 
<g id="node27" class="node"><title>v0</title> 
<ellipse fill="#e98576" stroke="#e98576" cx="1182" cy="-378" rx="75.2018" ry="18"/> 
<a xlink:href="http://pir.georgetown.edu/cgi-bin/pt_graphvizView.pl?togoid=0050896" ><text id="GO:0050896" onmousemove="changeToText('GO:0050896')" onmouseout="changeBackText('GO:0050896')"  text-anchor="middle" x="1182" y="-378.8" font-family="Times,serif" font-size="14.00">GO:0050896</text></a>
<a xlink:href="http://pir.georgetown.edu/cgi-bin/pt_graphvizView.pl?tofile=860537" ><text id="r860537" onmousemove="changeToText2('r860537', 2)" onmouseout="changeBackText2('r860537', 2)"  text-anchor="middle" x="1182" y="-365.8" font-family="Times,serif" font-size="14.00">(2)</text>
 
</a> 
</g> 
<!-- c0&#45;&gt;v0 --> 
<g id="edge24" class="edge"><title>c0&#45;&gt;v0</title> 
<path fill="none" stroke="black" d="M1304.88,-434.496C1281.77,-424.056 1250.33,-409.86 1225.04,-398.439"/> 
<polygon fill="black" stroke="black" points="1226.24,-395.138 1215.68,-394.212 1223.36,-401.518 1226.24,-395.138"/> 
</g> 
<!-- u0 --> 
<g id="node29" class="node"><title>u0</title> 
<a xlink:href="http://pir.georgetown.edu/cgi-bin/pt_graphvizView.pl?togoid=0065007" > 
<ellipse fill="#dddddd" stroke="#dddddd" cx="1337" cy="-378" rx="61.1934" ry="18"/> 
<a xlink:href="http://pir.georgetown.edu/cgi-bin/pt_graphvizView.pl?togoid=0065007" ><text id="GO:0065007" onmousemove="changeToText('GO:0065007')" onmouseout="changeBackText('GO:0065007')"  text-anchor="middle" x="1337" y="-373.8" font-family="Times,serif" font-size="14.00">GO:0065007</text></a>
 
</a> 
</g> 
<!-- c0&#45;&gt;u0 --> 
<g id="edge26" class="edge"><title>c0&#45;&gt;u0</title> 
<path fill="none" stroke="black" d="M1337,-431.697C1337,-423.983 1337,-414.712 1337,-406.112"/> 
<polygon fill="black" stroke="black" points="1340.5,-406.104 1337,-396.104 1333.5,-406.104 1340.5,-406.104"/> 
</g> 
<!-- d0 --> 
<g id="node36" class="node"><title>d0</title> 
<ellipse fill="#e98576" stroke="#e98576" cx="1492" cy="-378" rx="75.2018" ry="18"/> 
<a xlink:href="http://pir.georgetown.edu/cgi-bin/pt_graphvizView.pl?togoid=0000003" ><text id="GO:0000003" onmousemove="changeToText('GO:0000003')" onmouseout="changeBackText('GO:0000003')"  text-anchor="middle" x="1492" y="-378.8" font-family="Times,serif" font-size="14.00">GO:0000003</text></a>
<a xlink:href="http://pir.georgetown.edu/cgi-bin/pt_graphvizView.pl?tofile=860523" ><text id="r860523" onmousemove="changeToText2('r860523', 2)" onmouseout="changeBackText2('r860523', 2)"  text-anchor="middle" x="1492" y="-365.8" font-family="Times,serif" font-size="14.00">(2)</text>
 
</a> 
</g> 
<!-- c0&#45;&gt;d0 --> 
<g id="edge34" class="edge"><title>c0&#45;&gt;d0</title> 
<path fill="none" stroke="black" d="M1369.12,-434.496C1392.23,-424.056 1423.67,-409.86 1448.96,-398.439"/> 
<polygon fill="black" stroke="black" points="1450.64,-401.518 1458.32,-394.212 1447.76,-395.138 1450.64,-401.518"/> 
</g> 
<!-- c1 --> 
<g id="node43" class="node"><title>c1</title> 
<ellipse fill="#e98576" stroke="#e98576" cx="1660" cy="-378" rx="75.2018" ry="18"/> 
<a xlink:href="http://pir.georgetown.edu/cgi-bin/pt_graphvizView.pl?togoid=0051704" ><text id="GO:0051704" onmousemove="changeToText('GO:0051704')" onmouseout="changeBackText('GO:0051704')"  text-anchor="middle" x="1660" y="-378.8" font-family="Times,serif" font-size="14.00">GO:0051704</text></a>
<a xlink:href="http://pir.georgetown.edu/cgi-bin/pt_graphvizView.pl?tofile=860543" ><text id="r860543" onmousemove="changeToText2('r860543', 2)" onmouseout="changeBackText2('r860543', 2)"  text-anchor="middle" x="1660" y="-365.8" font-family="Times,serif" font-size="14.00">(2)</text>
 
</a> 
</g> 
<!-- c0&#45;&gt;c1 --> 
<g id="edge40" class="edge"><title>c0&#45;&gt;c1</title> 
<path fill="none" stroke="black" d="M1384.66,-438.671C1440.68,-426.531 1533.88,-406.333 1596.12,-392.844"/> 
<polygon fill="black" stroke="black" points="1597.18,-396.195 1606.22,-390.656 1595.7,-389.354 1597.18,-396.195"/> 
</g> 
<!-- q0 --> 
<g id="node54" class="node"><title>q0</title> 
<ellipse fill="#e98576" stroke="#e98576" cx="1828" cy="-378" rx="75.2018" ry="18"/> 
<a xlink:href="http://pir.georgetown.edu/cgi-bin/pt_graphvizView.pl?togoid=0032501" ><text id="GO:0032501" onmousemove="changeToText('GO:0032501')" onmouseout="changeBackText('GO:0032501')"  text-anchor="middle" x="1828" y="-378.8" font-family="Times,serif" font-size="14.00">GO:0032501</text></a>
<a xlink:href="http://pir.georgetown.edu/cgi-bin/pt_graphvizView.pl?tofile=860531" ><text id="r860531" onmousemove="changeToText2('r860531', 2)" onmouseout="changeBackText2('r860531', 2)"  text-anchor="middle" x="1828" y="-365.8" font-family="Times,serif" font-size="14.00">(2)</text>
 
</a> 
</g> 
<!-- c0&#45;&gt;q0 --> 
<g id="edge54" class="edge"><title>c0&#45;&gt;q0</title> 
<path fill="none" stroke="black" d="M1393.48,-442.914C1472.23,-434.14 1619.41,-416.694 1744,-396 1750.51,-394.919 1757.28,-393.702 1764.04,-392.43"/> 
<polygon fill="black" stroke="black" points="1764.72,-395.862 1773.88,-390.534 1763.4,-388.988 1764.72,-395.862"/> 
</g> 
<!-- g1 --> 
<g id="node65" class="node"><title>g1</title> 
<ellipse fill="#e98576" stroke="#e98576" cx="1996" cy="-378" rx="75.2018" ry="18"/> 
<a xlink:href="http://pir.georgetown.edu/cgi-bin/pt_graphvizView.pl?togoid=0040011" ><text id="GO:0040011" onmousemove="changeToText('GO:0040011')" onmouseout="changeBackText('GO:0040011')"  text-anchor="middle" x="1996" y="-378.8" font-family="Times,serif" font-size="14.00">GO:0040011</text></a>
<a xlink:href="http://pir.georgetown.edu/cgi-bin/pt_graphvizView.pl?tofile=860549" ><text id="r860549" onmousemove="changeToText2('r860549', 2)" onmouseout="changeBackText2('r860549', 2)"  text-anchor="middle" x="1996" y="-365.8" font-family="Times,serif" font-size="14.00">(2)</text>
 
</a> 
</g> 
<!-- c0&#45;&gt;g1 --> 
<g id="edge68" class="edge"><title>c0&#45;&gt;g1</title> 
<path fill="none" stroke="black" d="M1396.43,-445.64C1501.06,-439.255 1724.79,-423.491 1912,-396 1918.63,-395.027 1925.52,-393.87 1932.38,-392.625"/> 
<polygon fill="black" stroke="black" points="1933.2,-396.034 1942.38,-390.748 1931.9,-389.154 1933.2,-396.034"/> 
</g> 
<!-- e0 --> 
<g id="node74" class="node"><title>e0</title> 
<ellipse fill="#e98576" stroke="#e98576" cx="2164" cy="-378" rx="75.2018" ry="18"/> 
<a xlink:href="http://pir.georgetown.edu/cgi-bin/pt_graphvizView.pl?togoid=0032502" ><text id="GO:0032502" onmousemove="changeToText('GO:0032502')" onmouseout="changeBackText('GO:0032502')"  text-anchor="middle" x="2164" y="-378.8" font-family="Times,serif" font-size="14.00">GO:0032502</text></a>
<a xlink:href="http://pir.georgetown.edu/cgi-bin/pt_graphvizView.pl?tofile=860525" ><text id="r860525" onmousemove="changeToText2('r860525', 2)" onmouseout="changeBackText2('r860525', 2)"  text-anchor="middle" x="2164" y="-365.8" font-family="Times,serif" font-size="14.00">(2)</text>
 
</a> 
</g> 
<!-- c0&#45;&gt;e0 --> 
<g id="edge82" class="edge"><title>c0&#45;&gt;e0</title> 
<path fill="none" stroke="black" d="M1397.95,-447.303C1525.2,-443.177 1828.21,-430.314 2080,-396 2086.74,-395.082 2093.74,-393.95 2100.71,-392.71"/> 
<polygon fill="black" stroke="black" points="2101.66,-396.094 2110.85,-390.828 2100.38,-389.212 2101.66,-396.094"/> 
</g> 
<!-- s0&#45;&gt;r0 --> 
<g id="edge72" class="edge"><title>s0&#45;&gt;r0</title> 
<path fill="none" stroke="black" d="M1064.14,-363.669C1094.81,-352.657 1138.63,-336.928 1172.32,-324.833"/> 
<polygon fill="black" stroke="black" points="1173.75,-328.039 1181.98,-321.366 1171.39,-321.45 1173.75,-328.039"/> 
</g> 
<!-- m0 --> 
<g id="node17" class="node"><title>m0</title> 
<a xlink:href="http://pir.georgetown.edu/cgi-bin/pt_graphvizView.pl?togoid=0016070" > 
<ellipse fill="#dddddd" stroke="#dddddd" cx="343" cy="-162" rx="61.1934" ry="18"/> 
<a xlink:href="http://pir.georgetown.edu/cgi-bin/pt_graphvizView.pl?togoid=0016070" ><text id="GO:0016070" onmousemove="changeToText('GO:0016070')" onmouseout="changeBackText('GO:0016070')"  text-anchor="middle" x="343" y="-157.8" font-family="Times,serif" font-size="14.00">GO:0016070</text></a>
 
</a> 
</g> 
<!-- h0&#45;&gt;m0 --> 
<g id="edge12" class="edge"><title>h0&#45;&gt;m0</title> 
<path fill="none" stroke="black" d="M454.098,-218.155C433.067,-207.714 404.725,-193.644 381.931,-182.328"/> 
<polygon fill="black" stroke="black" points="383.373,-179.136 372.859,-177.824 380.26,-185.405 383.373,-179.136"/> 
</g> 
<!-- g0 --> 
<g id="node37" class="node"><title>g0</title> 
<a xlink:href="http://pir.georgetown.edu/cgi-bin/pt_graphvizView.pl?togoid=0006350" > 
<ellipse fill="#dddddd" stroke="#dddddd" cx="484" cy="-90" rx="61.1934" ry="18"/> 
<a xlink:href="http://pir.georgetown.edu/cgi-bin/pt_graphvizView.pl?togoid=0006350" ><text id="GO:0006350" onmousemove="changeToText('GO:0006350')" onmouseout="changeBackText('GO:0006350')"  text-anchor="middle" x="484" y="-85.8" font-family="Times,serif" font-size="14.00">GO:0006350</text></a>
 
</a> 
</g> 
<!-- h0&#45;&gt;g0 --> 
<g id="edge74" class="edge"><title>h0&#45;&gt;g0</title> 
<path fill="none" stroke="black" d="M484,-215.871C484,-191.67 484,-147.211 484,-118.393"/> 
<polygon fill="black" stroke="black" points="487.5,-118.189 484,-108.189 480.5,-118.189 487.5,-118.189"/> 
</g> 
<!-- l0 --> 
<g id="node40" class="node"><title>l0</title> 
<a xlink:href="http://pir.georgetown.edu/cgi-bin/pt_graphvizView.pl?togoid=0032774" > 
<ellipse fill="#dddddd" stroke="#dddddd" cx="343" cy="-90" rx="61.1934" ry="18"/> 
<a xlink:href="http://pir.georgetown.edu/cgi-bin/pt_graphvizView.pl?togoid=0032774" ><text id="GO:0032774" onmousemove="changeToText('GO:0032774')" onmouseout="changeBackText('GO:0032774')"  text-anchor="middle" x="343" y="-85.8" font-family="Times,serif" font-size="14.00">GO:0032774</text></a>
 
</a> 
</g> 
<!-- m0&#45;&gt;l0 --> 
<g id="edge66" class="edge"><title>m0&#45;&gt;l0</title> 
<path fill="none" stroke="black" d="M343,-143.697C343,-135.983 343,-126.712 343,-118.112"/> 
<polygon fill="black" stroke="black" points="346.5,-118.104 343,-108.104 339.5,-118.104 346.5,-118.104"/> 
</g> 
<!-- n0&#45;&gt;m0 --> 
<g id="edge14" class="edge"><title>n0&#45;&gt;m0</title> 
<path fill="none" stroke="black" d="M106.308,-221.753C155.746,-209.481 234.902,-189.833 287.898,-176.678"/> 
<polygon fill="black" stroke="black" points="288.942,-180.025 297.804,-174.219 287.256,-173.231 288.942,-180.025"/> 
</g> 
<!-- y0 --> 
<g id="node34" class="node"><title>y0</title> 
<a xlink:href="http://pir.georgetown.edu/cgi-bin/pt_graphvizView.pl?togoid=0043412" > 
<ellipse fill="#dddddd" stroke="#dddddd" cx="61" cy="-162" rx="61.1934" ry="18"/> 
<a xlink:href="http://pir.georgetown.edu/cgi-bin/pt_graphvizView.pl?togoid=0043412" ><text id="GO:0043412" onmousemove="changeToText('GO:0043412')" onmouseout="changeBackText('GO:0043412')"  text-anchor="middle" x="61" y="-157.8" font-family="Times,serif" font-size="14.00">GO:0043412</text></a>
 
</a> 
</g> 
<!-- n0&#45;&gt;y0 --> 
<g id="edge32" class="edge"><title>n0&#45;&gt;y0</title> 
<path fill="none" stroke="black" d="M61,-215.697C61,-207.983 61,-198.712 61,-190.112"/> 
<polygon fill="black" stroke="black" points="64.5001,-190.104 61,-180.104 57.5001,-190.104 64.5001,-190.104"/> 
</g> 
<!-- j0&#45;&gt;o0 --> 
<g id="edge76" class="edge"><title>j0&#45;&gt;o0</title> 
<path fill="none" stroke="black" d="M395.616,-364.324C358.396,-352.64 303.029,-335.26 263.023,-322.702"/> 
<polygon fill="black" stroke="black" points="264.049,-319.356 253.459,-319.7 261.952,-326.035 264.049,-319.356"/> 
</g> 
<!-- j0&#45;&gt;k0 --> 
<g id="edge84" class="edge"><title>j0&#45;&gt;k0</title> 
<path fill="none" stroke="black" d="M419.411,-360.411C410.519,-351.519 399.411,-340.411 389.631,-330.631"/> 
<polygon fill="black" stroke="black" points="392.016,-328.066 382.47,-323.47 387.066,-333.016 392.016,-328.066"/> 
</g> 
<!-- j0&#45;&gt;i0 --> 
<g id="edge28" class="edge"><title>j0&#45;&gt;i0</title> 
<path fill="none" stroke="black" d="M452.826,-360.411C461.845,-351.519 473.112,-340.411 483.032,-330.631"/> 
<polygon fill="black" stroke="black" points="485.631,-332.983 490.295,-323.47 480.716,-327.998 485.631,-332.983"/> 
</g> 
<!-- t0 --> 
<g id="node56" class="node"><title>t0</title> 
<ellipse fill="#e98576" stroke="#e98576" cx="1390" cy="-306" rx="75.2018" ry="18"/> 
<a xlink:href="http://pir.georgetown.edu/cgi-bin/pt_graphvizView.pl?togoid=0050789" ><text id="GO:0050789" onmousemove="changeToText('GO:0050789')" onmouseout="changeBackText('GO:0050789')"  text-anchor="middle" x="1390" y="-306.8" font-family="Times,serif" font-size="14.00">GO:0050789</text></a>
<a xlink:href="http://pir.georgetown.edu/cgi-bin/pt_graphvizView.pl?tofile=860535" ><text id="r860535" onmousemove="changeToText2('r860535', 2)" onmouseout="changeBackText2('r860535', 2)"  text-anchor="middle" x="1390" y="-293.8" font-family="Times,serif" font-size="14.00">(2)</text>
 
</a> 
</g> 
<!-- u0&#45;&gt;t0 --> 
<g id="edge56" class="edge"><title>u0&#45;&gt;t0</title> 
<path fill="none" stroke="black" d="M1349.83,-360.055C1356.21,-351.629 1364.05,-341.28 1371.1,-331.966"/> 
<polygon fill="black" stroke="black" points="1374.04,-333.874 1377.29,-323.789 1368.46,-329.649 1374.04,-333.874"/> 
</g> 
<!-- i0&#45;&gt;h0 --> 
<g id="edge50" class="edge"><title>i0&#45;&gt;h0</title> 
<path fill="none" stroke="black" d="M501.432,-288.055C498.844,-280.176 495.703,-270.617 492.804,-261.794"/> 
<polygon fill="black" stroke="black" points="496.123,-260.683 489.676,-252.275 489.473,-262.868 496.123,-260.683"/> 
</g> 
<!-- i0&#45;&gt;b1 --> 
<g id="edge44" class="edge"><title>i0&#45;&gt;b1</title> 
<path fill="none" stroke="black" d="M473.812,-290.834C448.36,-279.971 413.043,-264.896 385.52,-253.149"/> 
<polygon fill="black" stroke="black" points="386.71,-249.851 376.138,-249.144 383.962,-256.289 386.71,-249.851"/> 
</g> 
<!-- p0 --> 
<g id="node60" class="node"><title>p0</title> 
<ellipse fill="#e98576" stroke="#e98576" cx="639" cy="-234" rx="75.2018" ry="18"/> 
<a xlink:href="http://pir.georgetown.edu/cgi-bin/pt_graphvizView.pl?togoid=0006793" ><text id="GO:0006793" onmousemove="changeToText('GO:0006793')" onmouseout="changeBackText('GO:0006793')"  text-anchor="middle" x="639" y="-234.8" font-family="Times,serif" font-size="14.00">GO:0006793</text></a>
<a xlink:href="http://pir.georgetown.edu/cgi-bin/pt_graphvizView.pl?tofile=860529" ><text id="r860529" onmousemove="changeToText2('r860529', 2)" onmouseout="changeBackText2('r860529', 2)"  text-anchor="middle" x="639" y="-221.8" font-family="Times,serif" font-size="14.00">(2)</text>
 
</a> 
</g> 
<!-- i0&#45;&gt;p0 --> 
<g id="edge62" class="edge"><title>i0&#45;&gt;p0</title> 
<path fill="none" stroke="black" d="M535.317,-289.983C554.322,-279.905 579.596,-266.502 600.432,-255.453"/> 
<polygon fill="black" stroke="black" points="602.161,-258.497 609.356,-250.72 598.882,-252.313 602.161,-258.497"/> 
</g> 
<!-- x0 --> 
<g id="node48" class="node"><title>x0</title> 
<ellipse fill="#e98576" stroke="#e98576" cx="125" cy="-90" rx="75.2018" ry="18"/> 
<a xlink:href="http://pir.georgetown.edu/cgi-bin/pt_graphvizView.pl?togoid=0006464" ><text id="GO:0006464" onmousemove="changeToText('GO:0006464')" onmouseout="changeBackText('GO:0006464')"  text-anchor="middle" x="125" y="-90.8" font-family="Times,serif" font-size="14.00">GO:0006464</text></a>
<a xlink:href="http://pir.georgetown.edu/cgi-bin/pt_graphvizView.pl?tofile=860541" ><text id="r860541" onmousemove="changeToText2('r860541', 2)" onmouseout="changeBackText2('r860541', 2)"  text-anchor="middle" x="125" y="-77.8" font-family="Times,serif" font-size="14.00">(2)</text>
 
</a> 
</g> 
<!-- y0&#45;&gt;x0 --> 
<g id="edge46" class="edge"><title>y0&#45;&gt;x0</title> 
<path fill="none" stroke="black" d="M76.1671,-144.411C84.1005,-135.734 93.9637,-124.946 102.745,-115.342"/> 
<polygon fill="black" stroke="black" points="105.333,-117.698 109.497,-107.956 100.166,-112.975 105.333,-117.698"/> 
</g> 
<!-- f0 --> 
<g id="node39" class="node"><title>f0</title> 
<ellipse fill="#e98576" stroke="#e98576" cx="413" cy="-18" rx="75.2018" ry="18"/> 
<a xlink:href="http://pir.georgetown.edu/cgi-bin/pt_graphvizView.pl?togoid=0006351" ><text id="GO:0006351" onmousemove="changeToText('GO:0006351')" onmouseout="changeBackText('GO:0006351')"  text-anchor="middle" x="413" y="-18.8" font-family="Times,serif" font-size="14.00">GO:0006351</text></a>
<a xlink:href="http://pir.georgetown.edu/cgi-bin/pt_graphvizView.pl?tofile=860527" ><text id="r860527" onmousemove="changeToText2('r860527', 2)" onmouseout="changeBackText2('r860527', 2)"  text-anchor="middle" x="413" y="-5.8" font-family="Times,serif" font-size="14.00">(2)</text>
 
</a> 
</g> 
<!-- g0&#45;&gt;f0 --> 
<g id="edge36" class="edge"><title>g0&#45;&gt;f0</title> 
<path fill="none" stroke="black" d="M467.174,-72.411C458.286,-63.6479 447.214,-52.7322 437.401,-43.0569"/> 
<polygon fill="black" stroke="black" points="439.777,-40.4846 430.198,-35.9562 434.862,-45.4694 439.777,-40.4846"/> 
</g> 
<!-- l0&#45;&gt;f0 --> 
<g id="edge38" class="edge"><title>l0&#45;&gt;f0</title> 
<path fill="none" stroke="black" d="M359.589,-72.411C368.352,-63.6479 379.268,-52.7322 388.943,-43.0569"/> 
<polygon fill="black" stroke="black" points="391.448,-45.5022 396.044,-35.9562 386.498,-40.5524 391.448,-45.5022"/> 
</g> 
<!-- b1&#45;&gt;z0 --> 
<g id="edge80" class="edge"><title>b1&#45;&gt;z0</title> 
<path fill="none" stroke="black" d="M313.098,-218.155C292.067,-207.714 263.725,-193.644 240.931,-182.328"/> 
<polygon fill="black" stroke="black" points="242.373,-179.136 231.859,-177.824 239.26,-185.405 242.373,-179.136"/> 
</g> 
<!-- z0&#45;&gt;x0 --> 
<g id="edge48" class="edge"><title>z0&#45;&gt;x0</title> 
<path fill="none" stroke="black" d="M184.141,-144.765C174.274,-135.795 161.839,-124.49 150.921,-114.564"/> 
<polygon fill="black" stroke="black" points="153.051,-111.77 143.297,-107.633 148.342,-116.95 153.051,-111.77"/> 
</g> 
</g> 
<text text-anchor="left" x="4" y="-20" style="font-family:Arial Narrow;font-size:20.00;font-weight:bold;">GO Hierarchical View:</text> 

<text text-anchor="left" x="4" y="0" style="font-family:Arial Narrow;font-size:20.00;font-style:italic;">biological process</text> 

<script type="text/ecmascript"> 
<![CDATA[ 
var targetText; 
function changeToText(z) { 
		targetText = svgDocument.getElementById(z).firstChild; 
		targetText.nodeValue="link to "+z; 
} 
function changeBackText(z) { 
		targetText = svgDocument.getElementById(z).firstChild; 
		targetText.nodeValue=z; 
} 
function changeToText2(z,n) { 
		targetText = svgDocument.getElementById(z).firstChild; 
		if (n<=1) { 
			targetText.nodeValue="link to " + n + " protein record"; 
		} else { 
			targetText.nodeValue="link to " + n + " protein records"; 
		} 
} 
function changeBackText2(z,n) { 
		targetText = svgDocument.getElementById(z).firstChild; 
		targetText.nodeValue="(" + n + ")"; 
} 
// ]]> 
</script> 
</svg> 
