<?xml version="1.0" encoding="UTF-8" standalone="no"?>
<!DOCTYPE svg PUBLIC "-//W3C//DTD SVG 1.1//EN"
 "http://www.w3.org/Graphics/SVG/1.1/DTD/svg11.dtd">
<!-- Generated by graphviz version 2.28.0 (20110622.2320)
 -->
<!-- Title: G Pages: 1 -->
<svg width="1334pt" height="188pt"
 viewBox="0.00 0.00 1334.00 188.00" xmlns="http://www.w3.org/2000/svg" xmlns:xlink="http://www.w3.org/1999/xlink">
<g id="graph1" class="graph" transform="scale(1 1) rotate(0) translate(4 184)">
<title>G</title>
<polygon fill="white" stroke="white" points="-4,5 -4,-184 1331,-184 1331,5 -4,5"/>
<!-- b0 -->
<g id="node1" class="node"><title>b0</title>
<a xlink:href="0005488" xlink:title="GO:0005488">
<ellipse fill="#dddddd" stroke="#dddddd" cx="495" cy="-90" rx="61.1934" ry="18"/>
<text text-anchor="middle" x="495" y="-85.8" font-family="Times,serif" font-size="14.00">GO:0005488</text>
</a>
</g>
<!-- a0 -->
<g id="node3" class="node"><title>a0</title>
<a xlink:href="0043167" xlink:title="GO:0043167 (5)">
<ellipse fill="#e98576" stroke="#e98576" cx="75" cy="-18" rx="75.2018" ry="18"/>
<text text-anchor="middle" x="75" y="-13.8" font-family="Times,serif" font-size="14.00">GO:0043167 (5)</text>
</a>
</g>
<!-- b0&#45;&gt;a0 -->
<g id="edge2" class="edge"><title>b0&#45;&gt;a0</title>
<path fill="none" stroke="black" d="M441.342,-81.267C374.916,-71.5257 258.387,-53.8869 159,-36 152.754,-34.8758 146.257,-33.6543 139.766,-32.399"/>
<polygon fill="black" stroke="black" points="140.095,-28.897 129.608,-30.4079 138.748,-35.7663 140.095,-28.897"/>
</g>
<!-- j0 -->
<g id="node10" class="node"><title>j0</title>
<a xlink:href="0005515" xlink:title="GO:0005515 (2)">
<ellipse fill="#e98576" stroke="#e98576" cx="243" cy="-18" rx="75.2018" ry="18"/>
<text text-anchor="middle" x="243" y="-13.8" font-family="Times,serif" font-size="14.00">GO:0005515 (2)</text>
</a>
</g>
<!-- b0&#45;&gt;j0 -->
<g id="edge8" class="edge"><title>b0&#45;&gt;j0</title>
<path fill="none" stroke="black" d="M451.966,-77.0461C410.057,-65.4048 346.105,-47.6401 299.988,-34.83"/>
<polygon fill="black" stroke="black" points="300.713,-31.3988 290.141,-32.0946 298.839,-38.1434 300.713,-31.3988"/>
</g>
<!-- d0 -->
<g id="node14" class="node"><title>d0</title>
<a xlink:href="0001882" xlink:title="GO:0001882 (4)">
<ellipse fill="#e98576" stroke="#e98576" cx="411" cy="-18" rx="75.2018" ry="18"/>
<text text-anchor="middle" x="411" y="-13.8" font-family="Times,serif" font-size="14.00">GO:0001882 (4)</text>
</a>
</g>
<!-- b0&#45;&gt;d0 -->
<g id="edge12" class="edge"><title>b0&#45;&gt;d0</title>
<path fill="none" stroke="black" d="M475.518,-72.7646C464.57,-63.642 450.725,-52.1046 438.67,-42.0585"/>
<polygon fill="black" stroke="black" points="440.591,-39.1029 430.668,-35.3898 436.109,-44.4805 440.591,-39.1029"/>
</g>
<!-- h0 -->
<g id="node16" class="node"><title>h0</title>
<a xlink:href="0003676" xlink:title="GO:0003676 (2)">
<ellipse fill="#e98576" stroke="#e98576" cx="579" cy="-18" rx="75.2018" ry="18"/>
<text text-anchor="middle" x="579" y="-13.8" font-family="Times,serif" font-size="14.00">GO:0003676 (2)</text>
</a>
</g>
<!-- b0&#45;&gt;h0 -->
<g id="edge14" class="edge"><title>b0&#45;&gt;h0</title>
<path fill="none" stroke="black" d="M514.482,-72.7646C525.43,-63.642 539.275,-52.1046 551.33,-42.0585"/>
<polygon fill="black" stroke="black" points="553.891,-44.4805 559.332,-35.3898 549.409,-39.1029 553.891,-44.4805"/>
</g>
<!-- e0 -->
<g id="node19" class="node"><title>e0</title>
<a xlink:href="0000166" xlink:title="GO:0000166 (4)">
<ellipse fill="#e98576" stroke="#e98576" cx="747" cy="-18" rx="75.2018" ry="18"/>
<text text-anchor="middle" x="747" y="-13.8" font-family="Times,serif" font-size="14.00">GO:0000166 (4)</text>
</a>
</g>
<!-- b0&#45;&gt;e0 -->
<g id="edge18" class="edge"><title>b0&#45;&gt;e0</title>
<path fill="none" stroke="black" d="M538.034,-77.0461C579.943,-65.4048 643.895,-47.6401 690.012,-34.83"/>
<polygon fill="black" stroke="black" points="691.161,-38.1434 699.859,-32.0946 689.287,-31.3988 691.161,-38.1434"/>
</g>
<!-- g0 -->
<g id="node4" class="node"><title>g0</title>
<a xlink:href="0003824" xlink:title="GO:0003824 (2)">
<ellipse fill="#e98576" stroke="#e98576" cx="999" cy="-90" rx="75.2018" ry="18"/>
<text text-anchor="middle" x="999" y="-85.8" font-family="Times,serif" font-size="14.00">GO:0003824 (2)</text>
</a>
</g>
<!-- k0 -->
<g id="node6" class="node"><title>k0</title>
<a xlink:href="0016787" xlink:title="GO:0016787 (1)">
<ellipse fill="#e98576" stroke="#e98576" cx="915" cy="-18" rx="75.2018" ry="18"/>
<text text-anchor="middle" x="915" y="-13.8" font-family="Times,serif" font-size="14.00">GO:0016787 (1)</text>
</a>
</g>
<!-- g0&#45;&gt;k0 -->
<g id="edge4" class="edge"><title>g0&#45;&gt;k0</title>
<path fill="none" stroke="black" d="M979.093,-72.411C968.214,-63.3446 954.569,-51.9742 942.669,-42.0572"/>
<polygon fill="black" stroke="black" points="944.687,-39.183 934.764,-35.4699 940.206,-44.5606 944.687,-39.183"/>
</g>
<!-- f0 -->
<g id="node12" class="node"><title>f0</title>
<a xlink:href="0016740" xlink:title="GO:0016740 (3)">
<ellipse fill="#e98576" stroke="#e98576" cx="1083" cy="-18" rx="75.2018" ry="18"/>
<text text-anchor="middle" x="1083" y="-13.8" font-family="Times,serif" font-size="14.00">GO:0016740 (3)</text>
</a>
</g>
<!-- g0&#45;&gt;f0 -->
<g id="edge10" class="edge"><title>g0&#45;&gt;f0</title>
<path fill="none" stroke="black" d="M1018.91,-72.411C1029.79,-63.3446 1043.43,-51.9742 1055.33,-42.0572"/>
<polygon fill="black" stroke="black" points="1057.79,-44.5606 1063.24,-35.4699 1053.31,-39.183 1057.79,-44.5606"/>
</g>
<!-- i0 -->
<g id="node21" class="node"><title>i0</title>
<a xlink:href="0016829" xlink:title="GO:0016829 (2)">
<ellipse fill="#e98576" stroke="#e98576" cx="1251" cy="-18" rx="75.2018" ry="18"/>
<text text-anchor="middle" x="1251" y="-13.8" font-family="Times,serif" font-size="14.00">GO:0016829 (2)</text>
</a>
</g>
<!-- g0&#45;&gt;i0 -->
<g id="edge20" class="edge"><title>g0&#45;&gt;i0</title>
<path fill="none" stroke="black" d="M1046.1,-75.9157C1087.95,-64.2903 1149.24,-47.2673 1193.87,-34.8684"/>
<polygon fill="black" stroke="black" points="1195,-38.1877 1203.7,-32.1389 1193.13,-31.4431 1195,-38.1877"/>
</g>
<!-- c0 -->
<g id="node7" class="node"><title>c0</title>
<a xlink:href="0003674" xlink:title="GO:0003674">
<ellipse fill="#dddddd" stroke="#dddddd" cx="705" cy="-162" rx="61.1934" ry="18"/>
<text text-anchor="middle" x="705" y="-157.8" font-family="Times,serif" font-size="14.00">GO:0003674</text>
</a>
</g>
<!-- c0&#45;&gt;b0 -->
<g id="edge16" class="edge"><title>c0&#45;&gt;b0</title>
<path fill="none" stroke="black" d="M665.993,-147.998C631.368,-136.456 580.641,-119.547 543.429,-107.143"/>
<polygon fill="black" stroke="black" points="544.392,-103.775 533.798,-103.933 542.178,-110.416 544.392,-103.775"/>
</g>
<!-- c0&#45;&gt;g0 -->
<g id="edge6" class="edge"><title>c0&#45;&gt;g0</title>
<path fill="none" stroke="black" d="M750.938,-150.062C801.29,-138.074 882.304,-118.785 937.965,-105.532"/>
<polygon fill="black" stroke="black" points="938.788,-108.934 947.705,-103.213 937.166,-102.125 938.788,-108.934"/>
</g>
</g>
</svg>
