<?xml version="1.0" encoding="UTF-8" standalone="no"?> 
<!DOCTYPE svg PUBLIC "-//W3C//DTD SVG 1.1//EN" 
 "http://www.w3.org/Graphics/SVG/1.1/DTD/svg11.dtd"> 
<!-- Generated by graphviz version 2.28.0 (20110622.2320) 
 --> 
<!-- Title: G Pages: 1 --> 
<svg width="2000" height="1000"  
 viewBox="-30 -50 2000 1000" xmlns="http://www.w3.org/2000/svg" xmlns:xlink="http://www.w3.org/1999/xlink"> 
<g id="graph1" class="graph" transform="scale(1 1) rotate(0) translate(4 400)"> 
<title>G</title> 
<polygon fill="white" stroke="white" points="-4,5 -4,-400 3762,-400 3762,5 -4,5"/> 
<!-- c0 --> 
<g id="node1" class="node"><title>c0</title> 
<ellipse fill="#e98576" stroke="#e98576" cx="2386" cy="-378" rx="75.2018" ry="18"/> 
<a xlink:href="http://pir.georgetown.edu/cgi-bin/pt_graphvizView.pl?togoid=0003674" ><text id="GO:0003674" onmousemove="changeToText('GO:0003674')" onmouseout="changeBackText('GO:0003674')"  text-anchor="middle" x="2386" y="-378.8" font-family="Times,serif" font-size="14.00">GO:0003674</text></a>
<a xlink:href="http://pir.georgetown.edu/cgi-bin/pt_graphvizView.pl?tofile=769100" ><text id="r769100" onmousemove="changeToText2('r769100', 7)" onmouseout="changeBackText2('r769100', 7)"  text-anchor="middle" x="2386" y="-365.8" font-family="Times,serif" font-size="14.00">(7)</text>
 
</a> 
</g> 
<!-- c1 --> 
<g id="node3" class="node"><title>c1</title> 
<ellipse fill="#e98576" stroke="#e98576" cx="589" cy="-306" rx="75.2018" ry="18"/> 
<a xlink:href="http://pir.georgetown.edu/cgi-bin/pt_graphvizView.pl?togoid=0045182" ><text id="GO:0045182" onmousemove="changeToText('GO:0045182')" onmouseout="changeBackText('GO:0045182')"  text-anchor="middle" x="589" y="-306.8" font-family="Times,serif" font-size="14.00">GO:0045182</text></a>
<a xlink:href="http://pir.georgetown.edu/cgi-bin/pt_graphvizView.pl?tofile=769122" ><text id="r769122" onmousemove="changeToText2('r769122', 1)" onmouseout="changeBackText2('r769122', 1)"  text-anchor="middle" x="589" y="-293.8" font-family="Times,serif" font-size="14.00">(1)</text>
 
</a> 
</g> 
<!-- c0&#45;&gt;c1 --> 
<g id="edge2" class="edge"><title>c0&#45;&gt;c1</title> 
<path fill="none" stroke="black" d="M2310.75,-376.362C2023.68,-373.664 997.195,-361.548 673,-324 665.887,-323.176 658.48,-322.061 651.14,-320.794"/> 
<polygon fill="black" stroke="black" points="651.674,-317.334 641.208,-318.984 650.419,-324.22 651.674,-317.334"/> 
</g> 
<!-- j0 --> 
<g id="node4" class="node"><title>j0</title> 
<ellipse fill="#e98576" stroke="#e98576" cx="757" cy="-306" rx="75.2018" ry="18"/> 
<a xlink:href="http://pir.georgetown.edu/cgi-bin/pt_graphvizView.pl?togoid=0003824" ><text id="GO:0003824" onmousemove="changeToText('GO:0003824')" onmouseout="changeBackText('GO:0003824')"  text-anchor="middle" x="757" y="-306.8" font-family="Times,serif" font-size="14.00">GO:0003824</text></a>
<a xlink:href="http://pir.georgetown.edu/cgi-bin/pt_graphvizView.pl?tofile=769096" ><text id="r769096" onmousemove="changeToText2('r769096', 8)" onmouseout="changeBackText2('r769096', 8)"  text-anchor="middle" x="757" y="-293.8" font-family="Times,serif" font-size="14.00">(8)</text>
 
</a> 
</g> 
<!-- c0&#45;&gt;j0 --> 
<g id="edge50" class="edge"><title>c0&#45;&gt;j0</title> 
<path fill="none" stroke="black" d="M2312.84,-373.856C2045.75,-362.379 1124.12,-322.776 840.637,-310.594"/> 
<polygon fill="black" stroke="black" points="840.563,-307.088 830.422,-310.155 840.263,-314.081 840.563,-307.088"/> 
</g> 
<!-- q0 --> 
<g id="node8" class="node"><title>q0</title> 
<ellipse fill="#e98576" stroke="#e98576" cx="2154" cy="-306" rx="75.2018" ry="18"/> 
<a xlink:href="http://pir.georgetown.edu/cgi-bin/pt_graphvizView.pl?togoid=0030234" ><text id="GO:0030234" onmousemove="changeToText('GO:0030234')" onmouseout="changeBackText('GO:0030234')"  text-anchor="middle" x="2154" y="-306.8" font-family="Times,serif" font-size="14.00">GO:0030234</text></a>
<a xlink:href="http://pir.georgetown.edu/cgi-bin/pt_graphvizView.pl?tofile=769102" ><text id="r769102" onmousemove="changeToText2('r769102', 6)" onmouseout="changeBackText2('r769102', 6)"  text-anchor="middle" x="2154" y="-293.8" font-family="Times,serif" font-size="14.00">(6)</text>
 
</a> 
</g> 
<!-- c0&#45;&gt;q0 --> 
<g id="edge6" class="edge"><title>c0&#45;&gt;q0</title> 
<path fill="none" stroke="black" d="M2341.27,-363.503C2303.44,-352.089 2249.09,-335.692 2208.68,-323.5"/> 
<polygon fill="black" stroke="black" points="2209.57,-320.112 2198.99,-320.575 2207.55,-326.814 2209.57,-320.112"/> 
</g> 
<!-- b0 --> 
<g id="node9" class="node"><title>b0</title> 
<a xlink:href="http://pir.georgetown.edu/cgi-bin/pt_graphvizView.pl?togoid=0005488" > 
<ellipse fill="#dddddd" stroke="#dddddd" cx="2309" cy="-306" rx="61.1934" ry="18"/> 
<a xlink:href="http://pir.georgetown.edu/cgi-bin/pt_graphvizView.pl?togoid=0005488" ><text id="GO:0005488" onmousemove="changeToText('GO:0005488')" onmouseout="changeBackText('GO:0005488')"  text-anchor="middle" x="2309" y="-301.8" font-family="Times,serif" font-size="14.00">GO:0005488</text></a>
 
</a> 
</g> 
<!-- c0&#45;&gt;b0 --> 
<g id="edge12" class="edge"><title>c0&#45;&gt;b0</title> 
<path fill="none" stroke="black" d="M2367.75,-360.411C2357.8,-351.367 2345.33,-340.03 2334.44,-330.13"/> 
<polygon fill="black" stroke="black" points="2336.61,-327.365 2326.85,-323.228 2331.9,-332.545 2336.61,-327.365"/> 
</g> 
<!-- p0 --> 
<g id="node24" class="node"><title>p0</title> 
<ellipse fill="#e98576" stroke="#e98576" cx="2464" cy="-306" rx="75.2018" ry="18"/> 
<a xlink:href="http://pir.georgetown.edu/cgi-bin/pt_graphvizView.pl?togoid=0005215" ><text id="GO:0005215" onmousemove="changeToText('GO:0005215')" onmouseout="changeBackText('GO:0005215')"  text-anchor="middle" x="2464" y="-306.8" font-family="Times,serif" font-size="14.00">GO:0005215</text></a>
<a xlink:href="http://pir.georgetown.edu/cgi-bin/pt_graphvizView.pl?tofile=769098" ><text id="r769098" onmousemove="changeToText2('r769098', 7)" onmouseout="changeBackText2('r769098', 7)"  text-anchor="middle" x="2464" y="-293.8" font-family="Times,serif" font-size="14.00">(7)</text>
 
</a> 
</g> 
<!-- c0&#45;&gt;p0 --> 
<g id="edge20" class="edge"><title>c0&#45;&gt;p0</title> 
<path fill="none" stroke="black" d="M2404.48,-360.411C2414.49,-351.432 2427.01,-340.193 2437.99,-330.344"/> 
<polygon fill="black" stroke="black" points="2440.54,-332.754 2445.65,-323.47 2435.87,-327.544 2440.54,-332.754"/> 
</g> 
<!-- n0 --> 
<g id="node38" class="node"><title>n0</title> 
<ellipse fill="#e98576" stroke="#e98576" cx="2632" cy="-306" rx="75.2018" ry="18"/> 
<a xlink:href="http://pir.georgetown.edu/cgi-bin/pt_graphvizView.pl?togoid=0005198" ><text id="GO:0005198" onmousemove="changeToText('GO:0005198')" onmouseout="changeBackText('GO:0005198')"  text-anchor="middle" x="2632" y="-306.8" font-family="Times,serif" font-size="14.00">GO:0005198</text></a>
<a xlink:href="http://pir.georgetown.edu/cgi-bin/pt_graphvizView.pl?tofile=769092" ><text id="r769092" onmousemove="changeToText2('r769092', 8)" onmouseout="changeBackText2('r769092', 8)"  text-anchor="middle" x="2632" y="-293.8" font-family="Times,serif" font-size="14.00">(8)</text>
 
</a> 
</g> 
<!-- c0&#45;&gt;n0 --> 
<g id="edge36" class="edge"><title>c0&#45;&gt;n0</title> 
<path fill="none" stroke="black" d="M2432.56,-363.751C2473.27,-352.168 2532.48,-335.319 2575.81,-322.989"/> 
<polygon fill="black" stroke="black" points="2576.97,-326.298 2585.63,-320.195 2575.05,-319.565 2576.97,-326.298"/> 
</g> 
<!-- g0 --> 
<g id="node57" class="node"><title>g0</title> 
<a xlink:href="http://pir.georgetown.edu/cgi-bin/pt_graphvizView.pl?togoid=0060089" > 
<ellipse fill="#dddddd" stroke="#dddddd" cx="2787" cy="-306" rx="61.1934" ry="18"/> 
<a xlink:href="http://pir.georgetown.edu/cgi-bin/pt_graphvizView.pl?togoid=0060089" ><text id="GO:0060089" onmousemove="changeToText('GO:0060089')" onmouseout="changeBackText('GO:0060089')"  text-anchor="middle" x="2787" y="-301.8" font-family="Times,serif" font-size="14.00">GO:0060089</text></a>
 
</a> 
</g> 
<!-- c0&#45;&gt;g0 --> 
<g id="edge74" class="edge"><title>c0&#45;&gt;g0</title> 
<path fill="none" stroke="black" d="M2449.52,-368.257C2516.16,-358.744 2623.82,-342.411 2716,-324 2721.28,-322.945 2726.77,-321.772 2732.24,-320.549"/> 
<polygon fill="black" stroke="black" points="2733.07,-323.949 2742.04,-318.308 2731.51,-317.125 2733.07,-323.949"/> 
</g> 
<!-- e1 --> 
<g id="node63" class="node"><title>e1</title> 
<ellipse fill="#e98576" stroke="#e98576" cx="2942" cy="-306" rx="75.2018" ry="18"/> 
<a xlink:href="http://pir.georgetown.edu/cgi-bin/pt_graphvizView.pl?togoid=0016209" ><text id="GO:0016209" onmousemove="changeToText('GO:0016209')" onmouseout="changeBackText('GO:0016209')"  text-anchor="middle" x="2942" y="-306.8" font-family="Times,serif" font-size="14.00">GO:0016209</text></a>
<a xlink:href="http://pir.georgetown.edu/cgi-bin/pt_graphvizView.pl?tofile=769126" ><text id="r769126" onmousemove="changeToText2('r769126', 1)" onmouseout="changeBackText2('r769126', 1)"  text-anchor="middle" x="2942" y="-293.8" font-family="Times,serif" font-size="14.00">(1)</text>
 
</a> 
</g> 
<!-- c0&#45;&gt;e1 --> 
<g id="edge60" class="edge"><title>c0&#45;&gt;e1</title> 
<path fill="none" stroke="black" d="M2455.28,-371.069C2547.34,-362.763 2714.92,-346.16 2857,-324 2863.69,-322.956 2870.66,-321.753 2877.6,-320.481"/> 
<polygon fill="black" stroke="black" points="2878.53,-323.867 2887.71,-318.575 2877.23,-316.988 2878.53,-323.867"/> 
</g> 
<!-- g1 --> 
<g id="node6" class="node"><title>g1</title> 
<ellipse fill="#e98576" stroke="#e98576" cx="75" cy="-234" rx="75.2018" ry="18"/> 
<a xlink:href="http://pir.georgetown.edu/cgi-bin/pt_graphvizView.pl?togoid=0016853" ><text id="GO:0016853" onmousemove="changeToText('GO:0016853')" onmouseout="changeBackText('GO:0016853')"  text-anchor="middle" x="75" y="-234.8" font-family="Times,serif" font-size="14.00">GO:0016853</text></a>
<a xlink:href="http://pir.georgetown.edu/cgi-bin/pt_graphvizView.pl?tofile=769130" ><text id="r769130" onmousemove="changeToText2('r769130', 1)" onmouseout="changeBackText2('r769130', 1)"  text-anchor="middle" x="75" y="-221.8" font-family="Times,serif" font-size="14.00">(1)</text>
 
</a> 
</g> 
<!-- j0&#45;&gt;g1 --> 
<g id="edge4" class="edge"><title>j0&#45;&gt;g1</title> 
<path fill="none" stroke="black" d="M703.853,-293.161C693.652,-291.197 683.026,-289.36 673,-288 446.074,-257.223 385.926,-282.777 159,-252 152.264,-251.086 145.257,-249.957 138.29,-248.719"/> 
<polygon fill="black" stroke="black" points="138.618,-245.22 128.147,-246.839 137.342,-252.103 138.618,-245.22"/> 
</g> 
<!-- i0 --> 
<g id="node17" class="node"><title>i0</title> 
<ellipse fill="#e98576" stroke="#e98576" cx="248" cy="-234" rx="79.4447" ry="18"/> 
<a xlink:href="http://pir.georgetown.edu/cgi-bin/pt_graphvizView.pl?togoid=0016787" ><text id="GO:0016787" onmousemove="changeToText('GO:0016787')" onmouseout="changeBackText('GO:0016787')"  text-anchor="middle" x="248" y="-234.8" font-family="Times,serif" font-size="14.00">GO:0016787</text></a>
<a xlink:href="http://pir.georgetown.edu/cgi-bin/pt_graphvizView.pl?tofile=769084" ><text id="r769084" onmousemove="changeToText2('r769084', 19)" onmouseout="changeBackText2('r769084', 19)"  text-anchor="middle" x="248" y="-221.8" font-family="Times,serif" font-size="14.00">(19)</text>
 
</a> 
</g> 
<!-- j0&#45;&gt;i0 --> 
<g id="edge24" class="edge"><title>j0&#45;&gt;i0</title> 
<path fill="none" stroke="black" d="M703.359,-293.372C693.301,-291.411 682.852,-289.521 673,-288 524.571,-265.08 485.552,-274.108 337,-252 329.833,-250.933 322.364,-249.7 314.933,-248.395"/> 
<polygon fill="black" stroke="black" points="315.318,-244.908 304.856,-246.579 314.077,-251.797 315.318,-244.908"/> 
</g> 
<!-- o0 --> 
<g id="node20" class="node"><title>o0</title> 
<ellipse fill="#e98576" stroke="#e98576" cx="421" cy="-234" rx="75.2018" ry="18"/> 
<a xlink:href="http://pir.georgetown.edu/cgi-bin/pt_graphvizView.pl?togoid=0016491" ><text id="GO:0016491" onmousemove="changeToText('GO:0016491')" onmouseout="changeBackText('GO:0016491')"  text-anchor="middle" x="421" y="-234.8" font-family="Times,serif" font-size="14.00">GO:0016491</text></a>
<a xlink:href="http://pir.georgetown.edu/cgi-bin/pt_graphvizView.pl?tofile=769094" ><text id="r769094" onmousemove="changeToText2('r769094', 8)" onmouseout="changeBackText2('r769094', 8)"  text-anchor="middle" x="421" y="-221.8" font-family="Times,serif" font-size="14.00">(8)</text>
 
</a> 
</g> 
<!-- j0&#45;&gt;o0 --> 
<g id="edge32" class="edge"><title>j0&#45;&gt;o0</title> 
<path fill="none" stroke="black" d="M702.268,-293.597C642.96,-281.242 548.399,-261.541 485.518,-248.441"/> 
<polygon fill="black" stroke="black" points="486.212,-245.011 475.709,-246.398 484.785,-251.864 486.212,-245.011"/> 
</g> 
<!-- r0 --> 
<g id="node31" class="node"><title>r0</title> 
<ellipse fill="#e98576" stroke="#e98576" cx="589" cy="-234" rx="75.2018" ry="18"/> 
<a xlink:href="http://pir.georgetown.edu/cgi-bin/pt_graphvizView.pl?togoid=0016874" ><text id="GO:0016874" onmousemove="changeToText('GO:0016874')" onmouseout="changeBackText('GO:0016874')"  text-anchor="middle" x="589" y="-234.8" font-family="Times,serif" font-size="14.00">GO:0016874</text></a>
<a xlink:href="http://pir.georgetown.edu/cgi-bin/pt_graphvizView.pl?tofile=769104" ><text id="r769104" onmousemove="changeToText2('r769104', 4)" onmouseout="changeBackText2('r769104', 4)"  text-anchor="middle" x="589" y="-221.8" font-family="Times,serif" font-size="14.00">(4)</text>
 
</a> 
</g> 
<!-- j0&#45;&gt;r0 --> 
<g id="edge28" class="edge"><title>j0&#45;&gt;r0</title> 
<path fill="none" stroke="black" d="M721.372,-290.155C695.954,-279.564 661.574,-265.239 634.222,-253.842"/> 
<polygon fill="black" stroke="black" points="635.443,-250.56 624.866,-249.944 632.751,-257.021 635.443,-250.56"/> 
</g> 
<!-- b1 --> 
<g id="node36" class="node"><title>b1</title> 
<ellipse fill="#e98576" stroke="#e98576" cx="757" cy="-234" rx="75.2018" ry="18"/> 
<a xlink:href="http://pir.georgetown.edu/cgi-bin/pt_graphvizView.pl?togoid=0004386" ><text id="GO:0004386" onmousemove="changeToText('GO:0004386')" onmouseout="changeBackText('GO:0004386')"  text-anchor="middle" x="757" y="-234.8" font-family="Times,serif" font-size="14.00">GO:0004386</text></a>
<a xlink:href="http://pir.georgetown.edu/cgi-bin/pt_graphvizView.pl?tofile=769120" ><text id="r769120" onmousemove="changeToText2('r769120', 1)" onmouseout="changeBackText2('r769120', 1)"  text-anchor="middle" x="757" y="-221.8" font-family="Times,serif" font-size="14.00">(1)</text>
 
</a> 
</g> 
<!-- j0&#45;&gt;b1 --> 
<g id="edge34" class="edge"><title>j0&#45;&gt;b1</title> 
<path fill="none" stroke="black" d="M757,-287.697C757,-279.983 757,-270.712 757,-262.112"/> 
<polygon fill="black" stroke="black" points="760.5,-262.104 757,-252.104 753.5,-262.104 760.5,-262.104"/> 
</g> 
<!-- l0 --> 
<g id="node68" class="node"><title>l0</title> 
<ellipse fill="#e98576" stroke="#e98576" cx="930" cy="-234" rx="79.4447" ry="18"/> 
<a xlink:href="http://pir.georgetown.edu/cgi-bin/pt_graphvizView.pl?togoid=0016740" ><text id="GO:0016740" onmousemove="changeToText('GO:0016740')" onmouseout="changeBackText('GO:0016740')"  text-anchor="middle" x="930" y="-234.8" font-family="Times,serif" font-size="14.00">GO:0016740</text></a>
<a xlink:href="http://pir.georgetown.edu/cgi-bin/pt_graphvizView.pl?tofile=769088" ><text id="r769088" onmousemove="changeToText2('r769088', 11)" onmouseout="changeBackText2('r769088', 11)"  text-anchor="middle" x="930" y="-221.8" font-family="Times,serif" font-size="14.00">(11)</text>
 
</a> 
</g> 
<!-- j0&#45;&gt;l0 --> 
<g id="edge66" class="edge"><title>j0&#45;&gt;l0</title> 
<path fill="none" stroke="black" d="M793.689,-290.155C819.862,-279.564 855.266,-265.239 883.432,-253.842"/> 
<polygon fill="black" stroke="black" points="885.109,-256.94 893.066,-249.944 882.483,-250.451 885.109,-256.94"/> 
</g> 
<!-- h1 --> 
<g id="node74" class="node"><title>h1</title> 
<ellipse fill="#e98576" stroke="#e98576" cx="1103" cy="-234" rx="75.2018" ry="18"/> 
<a xlink:href="http://pir.georgetown.edu/cgi-bin/pt_graphvizView.pl?togoid=0016829" ><text id="GO:0016829" onmousemove="changeToText('GO:0016829')" onmouseout="changeBackText('GO:0016829')"  text-anchor="middle" x="1103" y="-234.8" font-family="Times,serif" font-size="14.00">GO:0016829</text></a>
<a xlink:href="http://pir.georgetown.edu/cgi-bin/pt_graphvizView.pl?tofile=769132" ><text id="r769132" onmousemove="changeToText2('r769132', 1)" onmouseout="changeBackText2('r769132', 1)"  text-anchor="middle" x="1103" y="-221.8" font-family="Times,serif" font-size="14.00">(1)</text>
 
</a> 
</g> 
<!-- j0&#45;&gt;h1 --> 
<g id="edge72" class="edge"><title>j0&#45;&gt;h1</title> 
<path fill="none" stroke="black" d="M812.591,-293.753C873.879,-281.354 972.392,-261.424 1037.41,-248.27"/> 
<polygon fill="black" stroke="black" points="1038.44,-251.632 1047.55,-246.219 1037.05,-244.771 1038.44,-251.632"/> 
</g> 
<!-- l1 --> 
<g id="node11" class="node"><title>l1</title> 
<ellipse fill="#e98576" stroke="#e98576" cx="1271" cy="-234" rx="75.2018" ry="18"/> 
<a xlink:href="http://pir.georgetown.edu/cgi-bin/pt_graphvizView.pl?togoid=0042277" ><text id="GO:0042277" onmousemove="changeToText('GO:0042277')" onmouseout="changeBackText('GO:0042277')"  text-anchor="middle" x="1271" y="-234.8" font-family="Times,serif" font-size="14.00">GO:0042277</text></a>
<a xlink:href="http://pir.georgetown.edu/cgi-bin/pt_graphvizView.pl?tofile=769140" ><text id="r769140" onmousemove="changeToText2('r769140', 1)" onmouseout="changeBackText2('r769140', 1)"  text-anchor="middle" x="1271" y="-221.8" font-family="Times,serif" font-size="14.00">(1)</text>
 
</a> 
</g> 
<!-- b0&#45;&gt;l1 --> 
<g id="edge8" class="edge"><title>b0&#45;&gt;l1</title> 
<path fill="none" stroke="black" d="M2265.7,-293.222C2256.61,-291.148 2247.04,-289.254 2238,-288 1848.96,-234.016 1744.94,-299.104 1355,-252 1348.15,-251.173 1341.03,-250.088 1333.96,-248.865"/> 
<polygon fill="black" stroke="black" points="1334.13,-245.34 1323.67,-246.99 1332.88,-252.226 1334.13,-245.34"/> 
</g> 
<!-- a0 --> 
<g id="node13" class="node"><title>a0</title> 
<ellipse fill="#e98576" stroke="#e98576" cx="1444" cy="-234" rx="79.4447" ry="18"/> 
<a xlink:href="http://pir.georgetown.edu/cgi-bin/pt_graphvizView.pl?togoid=0005515" ><text id="GO:0005515" onmousemove="changeToText('GO:0005515')" onmouseout="changeBackText('GO:0005515')"  text-anchor="middle" x="1444" y="-234.8" font-family="Times,serif" font-size="14.00">GO:0005515</text></a>
<a xlink:href="http://pir.georgetown.edu/cgi-bin/pt_graphvizView.pl?tofile=769074" ><text id="r769074" onmousemove="changeToText2('r769074', 62)" onmouseout="changeBackText2('r769074', 62)"  text-anchor="middle" x="1444" y="-221.8" font-family="Times,serif" font-size="14.00">(62)</text>
 
</a> 
</g> 
<!-- b0&#45;&gt;a0 --> 
<g id="edge10" class="edge"><title>b0&#45;&gt;a0</title> 
<path fill="none" stroke="black" d="M2265.31,-293.207C2256.34,-291.161 2246.91,-289.283 2238,-288 1927.46,-243.283 1844.49,-289.521 1533,-252 1525.42,-251.087 1517.52,-249.91 1509.69,-248.601"/> 
<polygon fill="black" stroke="black" points="1510.29,-245.153 1499.84,-246.883 1509.09,-252.049 1510.29,-245.153"/> 
</g> 
<!-- i1 --> 
<g id="node16" class="node"><title>i1</title> 
<ellipse fill="#e98576" stroke="#e98576" cx="1617" cy="-234" rx="75.2018" ry="18"/> 
<a xlink:href="http://pir.georgetown.edu/cgi-bin/pt_graphvizView.pl?togoid=0042562" ><text id="GO:0042562" onmousemove="changeToText('GO:0042562')" onmouseout="changeBackText('GO:0042562')"  text-anchor="middle" x="1617" y="-234.8" font-family="Times,serif" font-size="14.00">GO:0042562</text></a>
<a xlink:href="http://pir.georgetown.edu/cgi-bin/pt_graphvizView.pl?tofile=769134" ><text id="r769134" onmousemove="changeToText2('r769134', 1)" onmouseout="changeBackText2('r769134', 1)"  text-anchor="middle" x="1617" y="-221.8" font-family="Times,serif" font-size="14.00">(1)</text>
 
</a> 
</g> 
<!-- b0&#45;&gt;i1 --> 
<g id="edge14" class="edge"><title>b0&#45;&gt;i1</title> 
<path fill="none" stroke="black" d="M2265.29,-293.318C2256.32,-291.264 2246.9,-289.353 2238,-288 2001.52,-252.023 1938.08,-283.794 1701,-252 1694.26,-251.096 1687.25,-249.974 1680.29,-248.739"/> 
<polygon fill="black" stroke="black" points="1680.61,-245.241 1670.14,-246.863 1679.34,-252.124 1680.61,-245.241"/> 
</g> 
<!-- d0 --> 
<g id="node26" class="node"><title>d0</title> 
<ellipse fill="#e98576" stroke="#e98576" cx="1790" cy="-234" rx="79.4447" ry="18"/> 
<a xlink:href="http://pir.georgetown.edu/cgi-bin/pt_graphvizView.pl?togoid=0043167" ><text id="GO:0043167" onmousemove="changeToText('GO:0043167')" onmouseout="changeBackText('GO:0043167')"  text-anchor="middle" x="1790" y="-234.8" font-family="Times,serif" font-size="14.00">GO:0043167</text></a>
<a xlink:href="http://pir.georgetown.edu/cgi-bin/pt_graphvizView.pl?tofile=769076" ><text id="r769076" onmousemove="changeToText2('r769076', 56)" onmouseout="changeBackText2('r769076', 56)"  text-anchor="middle" x="1790" y="-221.8" font-family="Times,serif" font-size="14.00">(56)</text>
 
</a> 
</g> 
<!-- b0&#45;&gt;d0 --> 
<g id="edge22" class="edge"><title>b0&#45;&gt;d0</title> 
<path fill="none" stroke="black" d="M2264.88,-293.46C2256.02,-291.42 2246.75,-289.479 2238,-288 2079.89,-261.269 2037.69,-275.066 1879,-252 1871.83,-250.958 1864.36,-249.74 1856.93,-248.444"/> 
<polygon fill="black" stroke="black" points="1857.31,-244.957 1846.85,-246.637 1856.07,-251.847 1857.31,-244.957"/> 
</g> 
<!-- u0 --> 
<g id="node29" class="node"><title>u0</title> 
<ellipse fill="#e98576" stroke="#e98576" cx="1963" cy="-234" rx="75.2018" ry="18"/> 
<a xlink:href="http://pir.georgetown.edu/cgi-bin/pt_graphvizView.pl?togoid=0030246" ><text id="GO:0030246" onmousemove="changeToText('GO:0030246')" onmouseout="changeBackText('GO:0030246')"  text-anchor="middle" x="1963" y="-234.8" font-family="Times,serif" font-size="14.00">GO:0030246</text></a>
<a xlink:href="http://pir.georgetown.edu/cgi-bin/pt_graphvizView.pl?tofile=769110" ><text id="r769110" onmousemove="changeToText2('r769110', 3)" onmouseout="changeBackText2('r769110', 3)"  text-anchor="middle" x="1963" y="-221.8" font-family="Times,serif" font-size="14.00">(3)</text>
 
</a> 
</g> 
<!-- b0&#45;&gt;u0 --> 
<g id="edge26" class="edge"><title>b0&#45;&gt;u0</title> 
<path fill="none" stroke="black" d="M2263.62,-293.787C2255.13,-291.786 2246.3,-289.776 2238,-288 2153.53,-269.937 2131.78,-268.568 2047,-252 2040.87,-250.801 2034.49,-249.539 2028.1,-248.265"/> 
<polygon fill="black" stroke="black" points="2028.6,-244.795 2018.1,-246.262 2027.22,-251.658 2028.6,-244.795"/> 
</g> 
<!-- e0 --> 
<g id="node33" class="node"><title>e0</title> 
<ellipse fill="#e98576" stroke="#e98576" cx="2136" cy="-234" rx="79.4447" ry="18"/> 
<a xlink:href="http://pir.georgetown.edu/cgi-bin/pt_graphvizView.pl?togoid=0003676" ><text id="GO:0003676" onmousemove="changeToText('GO:0003676')" onmouseout="changeBackText('GO:0003676')"  text-anchor="middle" x="2136" y="-234.8" font-family="Times,serif" font-size="14.00">GO:0003676</text></a>
<a xlink:href="http://pir.georgetown.edu/cgi-bin/pt_graphvizView.pl?tofile=769078" ><text id="r769078" onmousemove="changeToText2('r769078', 32)" onmouseout="changeBackText2('r769078', 32)"  text-anchor="middle" x="2136" y="-221.8" font-family="Times,serif" font-size="14.00">(32)</text>
 
</a> 
</g> 
<!-- b0&#45;&gt;e0 --> 
<g id="edge30" class="edge"><title>b0&#45;&gt;e0</title> 
<path fill="none" stroke="black" d="M2274.41,-291.003C2248.01,-280.321 2211.37,-265.497 2182.42,-253.784"/> 
<polygon fill="black" stroke="black" points="2183.51,-250.447 2172.93,-249.941 2180.88,-256.936 2183.51,-250.447"/> 
</g> 
<!-- t0 --> 
<g id="node40" class="node"><title>t0</title> 
<ellipse fill="#e98576" stroke="#e98576" cx="2309" cy="-234" rx="75.2018" ry="18"/> 
<a xlink:href="http://pir.georgetown.edu/cgi-bin/pt_graphvizView.pl?togoid=0003682" ><text id="GO:0003682" onmousemove="changeToText('GO:0003682')" onmouseout="changeBackText('GO:0003682')"  text-anchor="middle" x="2309" y="-234.8" font-family="Times,serif" font-size="14.00">GO:0003682</text></a>
<a xlink:href="http://pir.georgetown.edu/cgi-bin/pt_graphvizView.pl?tofile=769108" ><text id="r769108" onmousemove="changeToText2('r769108', 4)" onmouseout="changeBackText2('r769108', 4)"  text-anchor="middle" x="2309" y="-221.8" font-family="Times,serif" font-size="14.00">(4)</text>
 
</a> 
</g> 
<!-- b0&#45;&gt;t0 --> 
<g id="edge38" class="edge"><title>b0&#45;&gt;t0</title> 
<path fill="none" stroke="black" d="M2309,-287.697C2309,-279.983 2309,-270.712 2309,-262.112"/> 
<polygon fill="black" stroke="black" points="2312.5,-262.104 2309,-252.104 2305.5,-262.104 2312.5,-262.104"/> 
</g> 
<!-- z0 --> 
<g id="node42" class="node"><title>z0</title> 
<ellipse fill="#e98576" stroke="#e98576" cx="2477" cy="-234" rx="75.2018" ry="18"/> 
<a xlink:href="http://pir.georgetown.edu/cgi-bin/pt_graphvizView.pl?togoid=0048037" ><text id="GO:0048037" onmousemove="changeToText('GO:0048037')" onmouseout="changeBackText('GO:0048037')"  text-anchor="middle" x="2477" y="-234.8" font-family="Times,serif" font-size="14.00">GO:0048037</text></a>
<a xlink:href="http://pir.georgetown.edu/cgi-bin/pt_graphvizView.pl?tofile=769116" ><text id="r769116" onmousemove="changeToText2('r769116', 2)" onmouseout="changeBackText2('r769116', 2)"  text-anchor="middle" x="2477" y="-221.8" font-family="Times,serif" font-size="14.00">(2)</text>
 
</a> 
</g> 
<!-- b0&#45;&gt;z0 --> 
<g id="edge40" class="edge"><title>b0&#45;&gt;z0</title> 
<path fill="none" stroke="black" d="M2343,-290.834C2368.56,-280.185 2403.82,-265.49 2431.76,-253.848"/> 
<polygon fill="black" stroke="black" points="2433.43,-256.946 2441.31,-249.869 2430.74,-250.485 2433.43,-256.946"/> 
</g> 
<!-- s0 --> 
<g id="node44" class="node"><title>s0</title> 
<ellipse fill="#e98576" stroke="#e98576" cx="2645" cy="-234" rx="75.2018" ry="18"/> 
<a xlink:href="http://pir.georgetown.edu/cgi-bin/pt_graphvizView.pl?togoid=0008289" ><text id="GO:0008289" onmousemove="changeToText('GO:0008289')" onmouseout="changeBackText('GO:0008289')"  text-anchor="middle" x="2645" y="-234.8" font-family="Times,serif" font-size="14.00">GO:0008289</text></a>
<a xlink:href="http://pir.georgetown.edu/cgi-bin/pt_graphvizView.pl?tofile=769106" ><text id="r769106" onmousemove="changeToText2('r769106', 4)" onmouseout="changeBackText2('r769106', 4)"  text-anchor="middle" x="2645" y="-221.8" font-family="Times,serif" font-size="14.00">(4)</text>
 
</a> 
</g> 
<!-- b0&#45;&gt;s0 --> 
<g id="edge42" class="edge"><title>b0&#45;&gt;s0</title> 
<path fill="none" stroke="black" d="M2354.39,-293.856C2362.89,-291.848 2371.7,-289.817 2380,-288 2460.12,-270.447 2480.58,-268.135 2561,-252 2567.03,-250.79 2573.31,-249.527 2579.59,-248.261"/> 
<polygon fill="black" stroke="black" points="2580.32,-251.683 2589.43,-246.274 2578.93,-244.822 2580.32,-251.683"/> 
</g> 
<!-- k0 --> 
<g id="node54" class="node"><title>k0</title> 
<ellipse fill="#e98576" stroke="#e98576" cx="2818" cy="-234" rx="79.4447" ry="18"/> 
<a xlink:href="http://pir.georgetown.edu/cgi-bin/pt_graphvizView.pl?togoid=0001882" ><text id="GO:0001882" onmousemove="changeToText('GO:0001882')" onmouseout="changeBackText('GO:0001882')"  text-anchor="middle" x="2818" y="-234.8" font-family="Times,serif" font-size="14.00">GO:0001882</text></a>
<a xlink:href="http://pir.georgetown.edu/cgi-bin/pt_graphvizView.pl?tofile=769086" ><text id="r769086" onmousemove="changeToText2('r769086', 13)" onmouseout="changeBackText2('r769086', 13)"  text-anchor="middle" x="2818" y="-221.8" font-family="Times,serif" font-size="14.00">(13)</text>
 
</a> 
</g> 
<!-- b0&#45;&gt;k0 --> 
<g id="edge52" class="edge"><title>b0&#45;&gt;k0</title> 
<path fill="none" stroke="black" d="M2353.13,-293.48C2361.98,-291.438 2371.25,-289.491 2380,-288 2533.72,-261.788 2574.72,-274.649 2729,-252 2736.17,-250.948 2743.64,-249.723 2751.07,-248.424"/> 
<polygon fill="black" stroke="black" points="2751.93,-251.826 2761.15,-246.613 2750.69,-244.937 2751.93,-251.826"/> 
</g> 
<!-- d1 --> 
<g id="node56" class="node"><title>d1</title> 
<ellipse fill="#e98576" stroke="#e98576" cx="2991" cy="-234" rx="75.2018" ry="18"/> 
<a xlink:href="http://pir.georgetown.edu/cgi-bin/pt_graphvizView.pl?togoid=0008144" ><text id="GO:0008144" onmousemove="changeToText('GO:0008144')" onmouseout="changeBackText('GO:0008144')"  text-anchor="middle" x="2991" y="-234.8" font-family="Times,serif" font-size="14.00">GO:0008144</text></a>
<a xlink:href="http://pir.georgetown.edu/cgi-bin/pt_graphvizView.pl?tofile=769124" ><text id="r769124" onmousemove="changeToText2('r769124', 1)" onmouseout="changeBackText2('r769124', 1)"  text-anchor="middle" x="2991" y="-221.8" font-family="Times,serif" font-size="14.00">(1)</text>
 
</a> 
</g> 
<!-- b0&#45;&gt;d1 --> 
<g id="edge54" class="edge"><title>b0&#45;&gt;d1</title> 
<path fill="none" stroke="black" d="M2352.71,-293.328C2361.68,-291.273 2371.1,-289.36 2380,-288 2611.63,-252.595 2673.74,-283.042 2906,-252 2913.08,-251.054 2920.45,-249.875 2927.76,-248.582"/> 
<polygon fill="black" stroke="black" points="2928.47,-252.011 2937.67,-246.759 2927.2,-245.126 2928.47,-252.011"/> 
</g> 
<!-- v0 --> 
<g id="node61" class="node"><title>v0</title> 
<ellipse fill="#e98576" stroke="#e98576" cx="3159" cy="-234" rx="75.2018" ry="18"/> 
<a xlink:href="http://pir.georgetown.edu/cgi-bin/pt_graphvizView.pl?togoid=0060090" ><text id="GO:0060090" onmousemove="changeToText('GO:0060090')" onmouseout="changeBackText('GO:0060090')"  text-anchor="middle" x="3159" y="-234.8" font-family="Times,serif" font-size="14.00">GO:0060090</text></a>
<a xlink:href="http://pir.georgetown.edu/cgi-bin/pt_graphvizView.pl?tofile=769112" ><text id="r769112" onmousemove="changeToText2('r769112', 2)" onmouseout="changeBackText2('r769112', 2)"  text-anchor="middle" x="3159" y="-221.8" font-family="Times,serif" font-size="14.00">(2)</text>
 
</a> 
</g> 
<!-- b0&#45;&gt;v0 --> 
<g id="edge58" class="edge"><title>b0&#45;&gt;v0</title> 
<path fill="none" stroke="black" d="M2352.69,-293.212C2361.67,-291.166 2371.09,-289.286 2380,-288 2686.13,-243.803 2768.14,-290.783 3075,-252 3081.84,-251.135 3088.96,-250.026 3096.03,-248.789"/> 
<polygon fill="black" stroke="black" points="3097.12,-252.149 3106.32,-246.9 3095.85,-245.264 3097.12,-252.149"/> 
</g> 
<!-- k1 --> 
<g id="node70" class="node"><title>k1</title> 
<ellipse fill="#e98576" stroke="#e98576" cx="3327" cy="-234" rx="75.2018" ry="18"/> 
<a xlink:href="http://pir.georgetown.edu/cgi-bin/pt_graphvizView.pl?togoid=0046906" ><text id="GO:0046906" onmousemove="changeToText('GO:0046906')" onmouseout="changeBackText('GO:0046906')"  text-anchor="middle" x="3327" y="-234.8" font-family="Times,serif" font-size="14.00">GO:0046906</text></a>
<a xlink:href="http://pir.georgetown.edu/cgi-bin/pt_graphvizView.pl?tofile=769138" ><text id="r769138" onmousemove="changeToText2('r769138', 1)" onmouseout="changeBackText2('r769138', 1)"  text-anchor="middle" x="3327" y="-221.8" font-family="Times,serif" font-size="14.00">(1)</text>
 
</a> 
</g> 
<!-- b0&#45;&gt;k1 --> 
<g id="edge68" class="edge"><title>b0&#45;&gt;k1</title> 
<path fill="none" stroke="black" d="M2352.3,-293.228C2361.39,-291.154 2370.96,-289.259 2380,-288 2760.22,-235.058 2861.9,-298.218 3243,-252 3249.85,-251.17 3256.97,-250.082 3264.04,-248.859"/> 
<polygon fill="black" stroke="black" points="3265.12,-252.22 3274.33,-246.982 3263.87,-245.333 3265.12,-252.22"/> 
</g> 
<!-- h0 --> 
<g id="node72" class="node"><title>h0</title> 
<ellipse fill="#e98576" stroke="#e98576" cx="3500" cy="-234" rx="79.4447" ry="18"/> 
<a xlink:href="http://pir.georgetown.edu/cgi-bin/pt_graphvizView.pl?togoid=0000166" ><text id="GO:0000166" onmousemove="changeToText('GO:0000166')" onmouseout="changeBackText('GO:0000166')"  text-anchor="middle" x="3500" y="-234.8" font-family="Times,serif" font-size="14.00">GO:0000166</text></a>
<a xlink:href="http://pir.georgetown.edu/cgi-bin/pt_graphvizView.pl?tofile=769082" ><text id="r769082" onmousemove="changeToText2('r769082', 20)" onmouseout="changeBackText2('r769082', 20)"  text-anchor="middle" x="3500" y="-221.8" font-family="Times,serif" font-size="14.00">(20)</text>
 
</a> 
</g> 
<!-- b0&#45;&gt;h0 --> 
<g id="edge70" class="edge"><title>b0&#45;&gt;h0</title> 
<path fill="none" stroke="black" d="M2352.3,-293.181C2361.38,-291.11 2370.96,-289.228 2380,-288 2834.33,-226.309 2955.36,-303.163 3411,-252 3418.69,-251.136 3426.72,-249.976 3434.66,-248.665"/> 
<polygon fill="black" stroke="black" points="3435.4,-252.091 3444.65,-246.936 3434.2,-245.193 3435.4,-252.091"/> 
</g> 
<!-- m0 --> 
<g id="node19" class="node"><title>m0</title> 
<ellipse fill="#e98576" stroke="#e98576" cx="85" cy="-162" rx="75.2018" ry="18"/> 
<a xlink:href="http://pir.georgetown.edu/cgi-bin/pt_graphvizView.pl?togoid=0008233" ><text id="GO:0008233" onmousemove="changeToText('GO:0008233')" onmouseout="changeBackText('GO:0008233')"  text-anchor="middle" x="85" y="-162.8" font-family="Times,serif" font-size="14.00">GO:0008233</text></a>
<a xlink:href="http://pir.georgetown.edu/cgi-bin/pt_graphvizView.pl?tofile=769090" ><text id="r769090" onmousemove="changeToText2('r769090', 9)" onmouseout="changeBackText2('r769090', 9)"  text-anchor="middle" x="85" y="-149.8" font-family="Times,serif" font-size="14.00">(9)</text>
 
</a> 
</g> 
<!-- i0&#45;&gt;m0 --> 
<g id="edge16" class="edge"><title>i0&#45;&gt;m0</title> 
<path fill="none" stroke="black" d="M212.631,-217.811C188.198,-207.318 155.516,-193.283 129.341,-182.042"/> 
<polygon fill="black" stroke="black" points="130.589,-178.769 120.019,-178.039 127.827,-185.201 130.589,-178.769"/> 
</g> 
<!-- j1 --> 
<g id="node22" class="node"><title>j1</title> 
<ellipse fill="#e98576" stroke="#e98576" cx="253" cy="-162" rx="75.2018" ry="18"/> 
<a xlink:href="http://pir.georgetown.edu/cgi-bin/pt_graphvizView.pl?togoid=0004497" ><text id="GO:0004497" onmousemove="changeToText('GO:0004497')" onmouseout="changeBackText('GO:0004497')"  text-anchor="middle" x="253" y="-162.8" font-family="Times,serif" font-size="14.00">GO:0004497</text></a>
<a xlink:href="http://pir.georgetown.edu/cgi-bin/pt_graphvizView.pl?tofile=769136" ><text id="r769136" onmousemove="changeToText2('r769136', 1)" onmouseout="changeBackText2('r769136', 1)"  text-anchor="middle" x="253" y="-149.8" font-family="Times,serif" font-size="14.00">(1)</text>
 
</a> 
</g> 
<!-- o0&#45;&gt;j1 --> 
<g id="edge18" class="edge"><title>o0&#45;&gt;j1</title> 
<path fill="none" stroke="black" d="M385.372,-218.155C359.954,-207.564 325.574,-193.239 298.222,-181.842"/> 
<polygon fill="black" stroke="black" points="299.443,-178.56 288.866,-177.944 296.751,-185.021 299.443,-178.56"/> 
</g> 
<!-- f1 --> 
<g id="node46" class="node"><title>f1</title> 
<ellipse fill="#e98576" stroke="#e98576" cx="421" cy="-162" rx="75.2018" ry="18"/> 
<a xlink:href="http://pir.georgetown.edu/cgi-bin/pt_graphvizView.pl?togoid=0051213" ><text id="GO:0051213" onmousemove="changeToText('GO:0051213')" onmouseout="changeBackText('GO:0051213')"  text-anchor="middle" x="421" y="-162.8" font-family="Times,serif" font-size="14.00">GO:0051213</text></a>
<a xlink:href="http://pir.georgetown.edu/cgi-bin/pt_graphvizView.pl?tofile=769128" ><text id="r769128" onmousemove="changeToText2('r769128', 1)" onmouseout="changeBackText2('r769128', 1)"  text-anchor="middle" x="421" y="-149.8" font-family="Times,serif" font-size="14.00">(1)</text>
 
</a> 
</g> 
<!-- o0&#45;&gt;f1 --> 
<g id="edge44" class="edge"><title>o0&#45;&gt;f1</title> 
<path fill="none" stroke="black" d="M421,-215.697C421,-207.983 421,-198.712 421,-190.112"/> 
<polygon fill="black" stroke="black" points="424.5,-190.104 421,-180.104 417.5,-190.104 424.5,-190.104"/> 
</g> 
<!-- a1 --> 
<g id="node66" class="node"><title>a1</title> 
<ellipse fill="#e98576" stroke="#e98576" cx="589" cy="-162" rx="75.2018" ry="18"/> 
<a xlink:href="http://pir.georgetown.edu/cgi-bin/pt_graphvizView.pl?togoid=0009055" ><text id="GO:0009055" onmousemove="changeToText('GO:0009055')" onmouseout="changeBackText('GO:0009055')"  text-anchor="middle" x="589" y="-162.8" font-family="Times,serif" font-size="14.00">GO:0009055</text></a>
<a xlink:href="http://pir.georgetown.edu/cgi-bin/pt_graphvizView.pl?tofile=769118" ><text id="r769118" onmousemove="changeToText2('r769118', 1)" onmouseout="changeBackText2('r769118', 1)"  text-anchor="middle" x="589" y="-149.8" font-family="Times,serif" font-size="14.00">(1)</text>
 
</a> 
</g> 
<!-- o0&#45;&gt;a1 --> 
<g id="edge64" class="edge"><title>o0&#45;&gt;a1</title> 
<path fill="none" stroke="black" d="M456.628,-218.155C482.046,-207.564 516.426,-193.239 543.778,-181.842"/> 
<polygon fill="black" stroke="black" points="545.249,-185.021 553.134,-177.944 542.557,-178.56 545.249,-185.021"/> 
</g> 
<!-- y0 --> 
<g id="node48" class="node"><title>y0</title> 
<a xlink:href="http://pir.georgetown.edu/cgi-bin/pt_graphvizView.pl?togoid=0016879" > 
<ellipse fill="#dddddd" stroke="#dddddd" cx="744" cy="-162" rx="61.1934" ry="18"/> 
<a xlink:href="http://pir.georgetown.edu/cgi-bin/pt_graphvizView.pl?togoid=0016879" ><text id="GO:0016879" onmousemove="changeToText('GO:0016879')" onmouseout="changeBackText('GO:0016879')"  text-anchor="middle" x="744" y="-157.8" font-family="Times,serif" font-size="14.00">GO:0016879</text></a>
 
</a> 
</g> 
<!-- r0&#45;&gt;y0 --> 
<g id="edge46" class="edge"><title>r0&#45;&gt;y0</title> 
<path fill="none" stroke="black" d="M622.633,-217.811C646.16,-207.186 677.729,-192.929 702.773,-181.618"/> 
<polygon fill="black" stroke="black" points="704.349,-184.747 712.022,-177.442 701.468,-178.368 704.349,-184.747"/> 
</g> 
<!-- x0 --> 
<g id="node49" class="node"><title>x0</title> 
<a xlink:href="http://pir.georgetown.edu/cgi-bin/pt_graphvizView.pl?togoid=0016881" > 
<ellipse fill="#dddddd" stroke="#dddddd" cx="744" cy="-90" rx="61.1934" ry="18"/> 
<a xlink:href="http://pir.georgetown.edu/cgi-bin/pt_graphvizView.pl?togoid=0016881" ><text id="GO:0016881" onmousemove="changeToText('GO:0016881')" onmouseout="changeBackText('GO:0016881')"  text-anchor="middle" x="744" y="-85.8" font-family="Times,serif" font-size="14.00">GO:0016881</text></a>
 
</a> 
</g> 
<!-- y0&#45;&gt;x0 --> 
<g id="edge62" class="edge"><title>y0&#45;&gt;x0</title> 
<path fill="none" stroke="black" d="M744,-143.697C744,-135.983 744,-126.712 744,-118.112"/> 
<polygon fill="black" stroke="black" points="747.5,-118.104 744,-108.104 740.5,-118.104 747.5,-118.104"/> 
</g> 
<!-- w0 --> 
<g id="node51" class="node"><title>w0</title> 
<ellipse fill="#e98576" stroke="#e98576" cx="744" cy="-18" rx="75.2018" ry="18"/> 
<a xlink:href="http://pir.georgetown.edu/cgi-bin/pt_graphvizView.pl?togoid=0019787" ><text id="GO:0019787" onmousemove="changeToText('GO:0019787')" onmouseout="changeBackText('GO:0019787')"  text-anchor="middle" x="744" y="-18.8" font-family="Times,serif" font-size="14.00">GO:0019787</text></a>
<a xlink:href="http://pir.georgetown.edu/cgi-bin/pt_graphvizView.pl?tofile=769114" ><text id="r769114" onmousemove="changeToText2('r769114', 2)" onmouseout="changeBackText2('r769114', 2)"  text-anchor="middle" x="744" y="-5.8" font-family="Times,serif" font-size="14.00">(2)</text>
 
</a> 
</g> 
<!-- x0&#45;&gt;w0 --> 
<g id="edge48" class="edge"><title>x0&#45;&gt;w0</title> 
<path fill="none" stroke="black" d="M744,-71.6966C744,-63.9827 744,-54.7125 744,-46.1124"/> 
<polygon fill="black" stroke="black" points="747.5,-46.1043 744,-36.1043 740.5,-46.1044 747.5,-46.1043"/> 
</g> 
<!-- f0 --> 
<g id="node59" class="node"><title>f0</title> 
<ellipse fill="#e98576" stroke="#e98576" cx="3678" cy="-234" rx="79.4447" ry="18"/> 
<a xlink:href="http://pir.georgetown.edu/cgi-bin/pt_graphvizView.pl?togoid=0004871" ><text id="GO:0004871" onmousemove="changeToText('GO:0004871')" onmouseout="changeBackText('GO:0004871')"  text-anchor="middle" x="3678" y="-234.8" font-family="Times,serif" font-size="14.00">GO:0004871</text></a>
<a xlink:href="http://pir.georgetown.edu/cgi-bin/pt_graphvizView.pl?tofile=769080" ><text id="r769080" onmousemove="changeToText2('r769080', 20)" onmouseout="changeBackText2('r769080', 20)"  text-anchor="middle" x="3678" y="-221.8" font-family="Times,serif" font-size="14.00">(20)</text>
 
</a> 
</g> 
<!-- g0&#45;&gt;f0 --> 
<g id="edge56" class="edge"><title>g0&#45;&gt;f0</title> 
<path fill="none" stroke="black" d="M2830.69,-293.195C2839.66,-291.15 2849.09,-289.275 2858,-288 3179.56,-241.982 3265.42,-290.236 3588,-252 3595.77,-251.079 3603.88,-249.883 3611.91,-248.553"/> 
<polygon fill="black" stroke="black" points="3612.76,-251.96 3622.01,-246.807 3611.56,-245.062 3612.76,-251.96"/> 
</g> 
</g> 
<text text-anchor="left" x="4" y="-20" style="font-family:Arial Narrow;font-size:20.00;font-weight:bold;">GO Hierarchical View:</text> 

<text text-anchor="left" x="4" y="0" style="font-family:Arial Narrow;font-size:20.00;font-style:italic;">molecular function</text> 

<script type="text/ecmascript"> 
<![CDATA[ 
var targetText; 
function changeToText(z) { 
		targetText = svgDocument.getElementById(z).firstChild; 
		targetText.nodeValue="link to "+z; 
} 
function changeBackText(z) { 
		targetText = svgDocument.getElementById(z).firstChild; 
		targetText.nodeValue=z; 
} 
function changeToText2(z,n) { 
		targetText = svgDocument.getElementById(z).firstChild; 
		if (n<=1) { 
			targetText.nodeValue="link to " + n + " protein record"; 
		} else { 
			targetText.nodeValue="link to " + n + " protein records"; 
		} 
} 
function changeBackText2(z,n) { 
		targetText = svgDocument.getElementById(z).firstChild; 
		targetText.nodeValue="(" + n + ")"; 
} 
// ]]> 
</script> 
</svg> 
