<?xml version="1.0" encoding="UTF-8" standalone="no"?> 
<!DOCTYPE svg PUBLIC "-//W3C//DTD SVG 1.1//EN" 
 "http://www.w3.org/Graphics/SVG/1.1/DTD/svg11.dtd"> 
<!-- Generated by graphviz version 2.28.0 (20110622.2320) 
 --> 
<!-- Title: G Pages: 1 --> 
<svg width="2000" height="1000"  
 viewBox="-30 -50 2000 1000" xmlns="http://www.w3.org/2000/svg" xmlns:xlink="http://www.w3.org/1999/xlink"> 
<g id="graph1" class="graph" transform="scale(1 1) rotate(0) translate(4 400)"> 
<title>G</title> 
<polygon fill="white" stroke="white" points="-4,5 -4,-400 3259,-400 3259,5 -4,5"/> 
<!-- c0 --> 
<g id="node1" class="node"><title>c0</title> 
<a xlink:href="http://pir.georgetown.edu/cgi-bin/pt_graphvizView.pl?togoid=0003674" > 
<ellipse fill="#dddddd" stroke="#dddddd" cx="2400" cy="-378" rx="61.1934" ry="18"/> 
<a xlink:href="http://pir.georgetown.edu/cgi-bin/pt_graphvizView.pl?togoid=0003674" ><text id="GO:0003674" onmousemove="changeToText('GO:0003674')" onmouseout="changeBackText('GO:0003674')"  text-anchor="middle" x="2400" y="-373.8" font-family="Times,serif" font-size="14.00">GO:0003674</text></a>
 
</a> 
</g> 
<!-- t0 --> 
<g id="node3" class="node"><title>t0</title> 
<ellipse fill="#e98576" stroke="#e98576" cx="594" cy="-306" rx="75.2018" ry="18"/> 
<a xlink:href="http://pir.georgetown.edu/cgi-bin/pt_graphvizView.pl?togoid=0030234" ><text id="GO:0030234" onmousemove="changeToText('GO:0030234')" onmouseout="changeBackText('GO:0030234')"  text-anchor="middle" x="594" y="-306.8" font-family="Times,serif" font-size="14.00">GO:0030234</text></a>
<a xlink:href="http://pir.georgetown.edu/cgi-bin/pt_graphvizView.pl?tofile=302839" ><text id="r302839" onmousemove="changeToText2('r302839', 3)" onmouseout="changeBackText2('r302839', 3)"  text-anchor="middle" x="594" y="-293.8" font-family="Times,serif" font-size="14.00">(3)</text>
 
</a> 
</g> 
<!-- c0&#45;&gt;t0 --> 
<g id="edge2" class="edge"><title>c0&#45;&gt;t0</title> 
<path fill="none" stroke="black" d="M2338.95,-376.504C2072.45,-374.128 1009.66,-362.386 678,-324 670.887,-323.177 663.48,-322.062 656.14,-320.795"/> 
<polygon fill="black" stroke="black" points="656.673,-317.335 646.208,-318.986 655.419,-324.221 656.673,-317.335"/> 
</g> 
<!-- g0 --> 
<g id="node4" class="node"><title>g0</title> 
<ellipse fill="#e98576" stroke="#e98576" cx="767" cy="-306" rx="79.4447" ry="18"/> 
<a xlink:href="http://pir.georgetown.edu/cgi-bin/pt_graphvizView.pl?togoid=0003824" ><text id="GO:0003824" onmousemove="changeToText('GO:0003824')" onmouseout="changeBackText('GO:0003824')"  text-anchor="middle" x="767" y="-306.8" font-family="Times,serif" font-size="14.00">GO:0003824</text></a>
<a xlink:href="http://pir.georgetown.edu/cgi-bin/pt_graphvizView.pl?tofile=302823" ><text id="r302823" onmousemove="changeToText2('r302823', 12)" onmouseout="changeBackText2('r302823', 12)"  text-anchor="middle" x="767" y="-293.8" font-family="Times,serif" font-size="14.00">(12)</text>
 
</a> 
</g> 
<!-- c0&#45;&gt;g0 --> 
<g id="edge44" class="edge"><title>c0&#45;&gt;g0</title> 
<path fill="none" stroke="black" d="M2339.94,-374.426C2092.14,-363.803 1148.41,-323.35 854.754,-310.762"/> 
<polygon fill="black" stroke="black" points="854.725,-307.257 844.584,-310.326 854.425,-314.251 854.725,-307.257"/> 
</g> 
<!-- b0 --> 
<g id="node7" class="node"><title>b0</title> 
<ellipse fill="#e98576" stroke="#e98576" cx="2059" cy="-306" rx="75.2018" ry="18"/> 
<a xlink:href="http://pir.georgetown.edu/cgi-bin/pt_graphvizView.pl?togoid=0005488" ><text id="GO:0005488" onmousemove="changeToText('GO:0005488')" onmouseout="changeBackText('GO:0005488')"  text-anchor="middle" x="2059" y="-306.8" font-family="Times,serif" font-size="14.00">GO:0005488</text></a>
<a xlink:href="http://pir.georgetown.edu/cgi-bin/pt_graphvizView.pl?tofile=302857" ><text id="r302857" onmousemove="changeToText2('r302857', 1)" onmouseout="changeBackText2('r302857', 1)"  text-anchor="middle" x="2059" y="-293.8" font-family="Times,serif" font-size="14.00">(1)</text>
 
</a> 
</g> 
<!-- c0&#45;&gt;b0 --> 
<g id="edge12" class="edge"><title>c0&#45;&gt;b0</title> 
<path fill="none" stroke="black" d="M2351.14,-366.971C2291.41,-354.709 2190.12,-333.916 2123.89,-320.321"/> 
<polygon fill="black" stroke="black" points="2124.48,-316.869 2113.98,-318.286 2123.07,-323.726 2124.48,-316.869"/> 
</g> 
<!-- v0 --> 
<g id="node22" class="node"><title>v0</title> 
<ellipse fill="#e98576" stroke="#e98576" cx="2227" cy="-306" rx="75.2018" ry="18"/> 
<a xlink:href="http://pir.georgetown.edu/cgi-bin/pt_graphvizView.pl?togoid=0005215" ><text id="GO:0005215" onmousemove="changeToText('GO:0005215')" onmouseout="changeBackText('GO:0005215')"  text-anchor="middle" x="2227" y="-306.8" font-family="Times,serif" font-size="14.00">GO:0005215</text></a>
<a xlink:href="http://pir.georgetown.edu/cgi-bin/pt_graphvizView.pl?tofile=302843" ><text id="r302843" onmousemove="changeToText2('r302843', 2)" onmouseout="changeBackText2('r302843', 2)"  text-anchor="middle" x="2227" y="-293.8" font-family="Times,serif" font-size="14.00">(2)</text>
 
</a> 
</g> 
<!-- c0&#45;&gt;v0 --> 
<g id="edge18" class="edge"><title>c0&#45;&gt;v0</title> 
<path fill="none" stroke="black" d="M2365.41,-363.003C2338.92,-352.285 2302.12,-337.397 2273.13,-325.666"/> 
<polygon fill="black" stroke="black" points="2274.21,-322.325 2263.62,-321.819 2271.58,-328.814 2274.21,-322.325"/> 
</g> 
<!-- l0 --> 
<g id="node36" class="node"><title>l0</title> 
<ellipse fill="#e98576" stroke="#e98576" cx="2400" cy="-306" rx="79.4447" ry="18"/> 
<a xlink:href="http://pir.georgetown.edu/cgi-bin/pt_graphvizView.pl?togoid=0005198" ><text id="GO:0005198" onmousemove="changeToText('GO:0005198')" onmouseout="changeBackText('GO:0005198')"  text-anchor="middle" x="2400" y="-306.8" font-family="Times,serif" font-size="14.00">GO:0005198</text></a>
<a xlink:href="http://pir.georgetown.edu/cgi-bin/pt_graphvizView.pl?tofile=302821" ><text id="r302821" onmousemove="changeToText2('r302821', 12)" onmouseout="changeBackText2('r302821', 12)"  text-anchor="middle" x="2400" y="-293.8" font-family="Times,serif" font-size="14.00">(12)</text>
 
</a> 
</g> 
<!-- c0&#45;&gt;l0 --> 
<g id="edge34" class="edge"><title>c0&#45;&gt;l0</title> 
<path fill="none" stroke="black" d="M2400,-359.697C2400,-351.983 2400,-342.712 2400,-334.112"/> 
<polygon fill="black" stroke="black" points="2403.5,-334.104 2400,-324.104 2396.5,-334.104 2403.5,-334.104"/> 
</g> 
<!-- g1 --> 
<g id="node50" class="node"><title>g1</title> 
<ellipse fill="#e98576" stroke="#e98576" cx="2573" cy="-306" rx="75.2018" ry="18"/> 
<a xlink:href="http://pir.georgetown.edu/cgi-bin/pt_graphvizView.pl?togoid=0016530" ><text id="GO:0016530" onmousemove="changeToText('GO:0016530')" onmouseout="changeBackText('GO:0016530')"  text-anchor="middle" x="2573" y="-306.8" font-family="Times,serif" font-size="14.00">GO:0016530</text></a>
<a xlink:href="http://pir.georgetown.edu/cgi-bin/pt_graphvizView.pl?tofile=302863" ><text id="r302863" onmousemove="changeToText2('r302863', 1)" onmouseout="changeBackText2('r302863', 1)"  text-anchor="middle" x="2573" y="-293.8" font-family="Times,serif" font-size="14.00">(1)</text>
 
</a> 
</g> 
<!-- c0&#45;&gt;g1 --> 
<g id="edge48" class="edge"><title>c0&#45;&gt;g1</title> 
<path fill="none" stroke="black" d="M2434.59,-363.003C2461.08,-352.285 2497.88,-337.397 2526.87,-325.666"/> 
<polygon fill="black" stroke="black" points="2528.42,-328.814 2536.38,-321.819 2525.79,-322.325 2528.42,-328.814"/> 
</g> 
<!-- i1 --> 
<g id="node51" class="node"><title>i1</title> 
<a xlink:href="http://pir.georgetown.edu/cgi-bin/pt_graphvizView.pl?togoid=0060089" > 
<ellipse fill="#dddddd" stroke="#dddddd" cx="2728" cy="-306" rx="61.1934" ry="18"/> 
<a xlink:href="http://pir.georgetown.edu/cgi-bin/pt_graphvizView.pl?togoid=0060089" ><text id="GO:0060089" onmousemove="changeToText('GO:0060089')" onmouseout="changeBackText('GO:0060089')"  text-anchor="middle" x="2728" y="-301.8" font-family="Times,serif" font-size="14.00">GO:0060089</text></a>
 
</a> 
</g> 
<!-- c0&#45;&gt;i1 --> 
<g id="edge68" class="edge"><title>c0&#45;&gt;i1</title> 
<path fill="none" stroke="black" d="M2449.37,-367.301C2501.18,-357.009 2584.96,-340.048 2657,-324 2662.05,-322.875 2667.3,-321.676 2672.55,-320.456"/> 
<polygon fill="black" stroke="black" points="2673.66,-323.789 2682.6,-318.097 2672.06,-316.974 2673.66,-323.789"/> 
</g> 
<!-- q0 --> 
<g id="node55" class="node"><title>q0</title> 
<ellipse fill="#e98576" stroke="#e98576" cx="2883" cy="-306" rx="75.2018" ry="18"/> 
<a xlink:href="http://pir.georgetown.edu/cgi-bin/pt_graphvizView.pl?togoid=0016209" ><text id="GO:0016209" onmousemove="changeToText('GO:0016209')" onmouseout="changeBackText('GO:0016209')"  text-anchor="middle" x="2883" y="-306.8" font-family="Times,serif" font-size="14.00">GO:0016209</text></a>
<a xlink:href="http://pir.georgetown.edu/cgi-bin/pt_graphvizView.pl?tofile=302833" ><text id="r302833" onmousemove="changeToText2('r302833', 7)" onmouseout="changeBackText2('r302833', 7)"  text-anchor="middle" x="2883" y="-293.8" font-family="Times,serif" font-size="14.00">(7)</text>
 
</a> 
</g> 
<!-- c0&#45;&gt;q0 --> 
<g id="edge52" class="edge"><title>c0&#45;&gt;q0</title> 
<path fill="none" stroke="black" d="M2456.2,-370.684C2533.43,-361.736 2676.64,-344.195 2798,-324 2804.58,-322.905 2811.44,-321.679 2818.27,-320.4"/> 
<polygon fill="black" stroke="black" points="2819.06,-323.812 2828.23,-318.499 2817.75,-316.936 2819.06,-323.812"/> 
</g> 
<!-- r0 --> 
<g id="node57" class="node"><title>r0</title> 
<ellipse fill="#e98576" stroke="#e98576" cx="3051" cy="-306" rx="75.2018" ry="18"/> 
<a xlink:href="http://pir.georgetown.edu/cgi-bin/pt_graphvizView.pl?togoid=0045735" ><text id="GO:0045735" onmousemove="changeToText('GO:0045735')" onmouseout="changeBackText('GO:0045735')"  text-anchor="middle" x="3051" y="-306.8" font-family="Times,serif" font-size="14.00">GO:0045735</text></a>
<a xlink:href="http://pir.georgetown.edu/cgi-bin/pt_graphvizView.pl?tofile=302835" ><text id="r302835" onmousemove="changeToText2('r302835', 4)" onmouseout="changeBackText2('r302835', 4)"  text-anchor="middle" x="3051" y="-293.8" font-family="Times,serif" font-size="14.00">(4)</text>
 
</a> 
</g> 
<!-- c0&#45;&gt;r0 --> 
<g id="edge54" class="edge"><title>c0&#45;&gt;r0</title> 
<path fill="none" stroke="black" d="M2459.43,-373.535C2562.94,-367.034 2782.88,-351.158 2967,-324 2973.63,-323.023 2980.52,-321.863 2987.38,-320.616"/> 
<polygon fill="black" stroke="black" points="2988.19,-324.025 2997.38,-318.738 2986.9,-317.145 2988.19,-324.025"/> 
</g> 
<!-- s0 --> 
<g id="node6" class="node"><title>s0</title> 
<ellipse fill="#e98576" stroke="#e98576" cx="75" cy="-234" rx="75.2018" ry="18"/> 
<a xlink:href="http://pir.georgetown.edu/cgi-bin/pt_graphvizView.pl?togoid=0016853" ><text id="GO:0016853" onmousemove="changeToText('GO:0016853')" onmouseout="changeBackText('GO:0016853')"  text-anchor="middle" x="75" y="-234.8" font-family="Times,serif" font-size="14.00">GO:0016853</text></a>
<a xlink:href="http://pir.georgetown.edu/cgi-bin/pt_graphvizView.pl?tofile=302837" ><text id="r302837" onmousemove="changeToText2('r302837', 3)" onmouseout="changeBackText2('r302837', 3)"  text-anchor="middle" x="75" y="-221.8" font-family="Times,serif" font-size="14.00">(3)</text>
 
</a> 
</g> 
<!-- g0&#45;&gt;s0 --> 
<g id="edge4" class="edge"><title>g0&#45;&gt;s0</title> 
<path fill="none" stroke="black" d="M710.666,-293.187C699.86,-291.221 688.608,-289.376 678,-288 448.7,-258.256 388.134,-282.998 159,-252 152.264,-251.089 145.256,-249.961 138.289,-248.724"/> 
<polygon fill="black" stroke="black" points="138.617,-245.225 128.146,-246.844 137.341,-252.108 138.617,-245.225"/> 
</g> 
<!-- f0 --> 
<g id="node15" class="node"><title>f0</title> 
<ellipse fill="#e98576" stroke="#e98576" cx="248" cy="-234" rx="79.4447" ry="18"/> 
<a xlink:href="http://pir.georgetown.edu/cgi-bin/pt_graphvizView.pl?togoid=0016787" ><text id="GO:0016787" onmousemove="changeToText('GO:0016787')" onmouseout="changeBackText('GO:0016787')"  text-anchor="middle" x="248" y="-234.8" font-family="Times,serif" font-size="14.00">GO:0016787</text></a>
<a xlink:href="http://pir.georgetown.edu/cgi-bin/pt_graphvizView.pl?tofile=302811" ><text id="r302811" onmousemove="changeToText2('r302811', 26)" onmouseout="changeBackText2('r302811', 26)"  text-anchor="middle" x="248" y="-221.8" font-family="Times,serif" font-size="14.00">(26)</text>
 
</a> 
</g> 
<!-- g0&#45;&gt;f0 --> 
<g id="edge22" class="edge"><title>g0&#45;&gt;f0</title> 
<path fill="none" stroke="black" d="M710.146,-293.407C699.491,-291.443 688.426,-289.543 678,-288 527.245,-265.684 487.755,-274.316 337,-252 329.832,-250.939 322.362,-249.709 314.931,-248.406"/> 
<polygon fill="black" stroke="black" points="315.316,-244.919 304.854,-246.593 314.076,-251.809 315.316,-244.919"/> 
</g> 
<!-- h0 --> 
<g id="node18" class="node"><title>h0</title> 
<ellipse fill="#e98576" stroke="#e98576" cx="426" cy="-234" rx="79.4447" ry="18"/> 
<a xlink:href="http://pir.georgetown.edu/cgi-bin/pt_graphvizView.pl?togoid=0016491" ><text id="GO:0016491" onmousemove="changeToText('GO:0016491')" onmouseout="changeBackText('GO:0016491')"  text-anchor="middle" x="426" y="-234.8" font-family="Times,serif" font-size="14.00">GO:0016491</text></a>
<a xlink:href="http://pir.georgetown.edu/cgi-bin/pt_graphvizView.pl?tofile=302813" ><text id="r302813" onmousemove="changeToText2('r302813', 24)" onmouseout="changeBackText2('r302813', 24)"  text-anchor="middle" x="426" y="-221.8" font-family="Times,serif" font-size="14.00">(24)</text>
 
</a> 
</g> 
<!-- g0&#45;&gt;h0 --> 
<g id="edge30" class="edge"><title>g0&#45;&gt;h0</title> 
<path fill="none" stroke="black" d="M710.308,-293.362C650.446,-281.074 556.137,-261.714 492.729,-248.698"/> 
<polygon fill="black" stroke="black" points="493.327,-245.248 482.828,-246.665 491.919,-252.105 493.327,-245.248"/> 
</g> 
<!-- n0 --> 
<g id="node29" class="node"><title>n0</title> 
<ellipse fill="#e98576" stroke="#e98576" cx="599" cy="-234" rx="75.2018" ry="18"/> 
<a xlink:href="http://pir.georgetown.edu/cgi-bin/pt_graphvizView.pl?togoid=0016874" ><text id="GO:0016874" onmousemove="changeToText('GO:0016874')" onmouseout="changeBackText('GO:0016874')"  text-anchor="middle" x="599" y="-234.8" font-family="Times,serif" font-size="14.00">GO:0016874</text></a>
<a xlink:href="http://pir.georgetown.edu/cgi-bin/pt_graphvizView.pl?tofile=302827" ><text id="r302827" onmousemove="changeToText2('r302827', 8)" onmouseout="changeBackText2('r302827', 8)"  text-anchor="middle" x="599" y="-221.8" font-family="Times,serif" font-size="14.00">(8)</text>
 
</a> 
</g> 
<!-- g0&#45;&gt;n0 --> 
<g id="edge26" class="edge"><title>g0&#45;&gt;n0</title> 
<path fill="none" stroke="black" d="M730.547,-289.811C705.167,-279.236 671.152,-265.063 644.07,-253.779"/> 
<polygon fill="black" stroke="black" points="645.382,-250.534 634.805,-249.919 642.69,-256.996 645.382,-250.534"/> 
</g> 
<!-- w0 --> 
<g id="node34" class="node"><title>w0</title> 
<ellipse fill="#e98576" stroke="#e98576" cx="767" cy="-234" rx="75.2018" ry="18"/> 
<a xlink:href="http://pir.georgetown.edu/cgi-bin/pt_graphvizView.pl?togoid=0004386" ><text id="GO:0004386" onmousemove="changeToText('GO:0004386')" onmouseout="changeBackText('GO:0004386')"  text-anchor="middle" x="767" y="-234.8" font-family="Times,serif" font-size="14.00">GO:0004386</text></a>
<a xlink:href="http://pir.georgetown.edu/cgi-bin/pt_graphvizView.pl?tofile=302845" ><text id="r302845" onmousemove="changeToText2('r302845', 2)" onmouseout="changeBackText2('r302845', 2)"  text-anchor="middle" x="767" y="-221.8" font-family="Times,serif" font-size="14.00">(2)</text>
 
</a> 
</g> 
<!-- g0&#45;&gt;w0 --> 
<g id="edge32" class="edge"><title>g0&#45;&gt;w0</title> 
<path fill="none" stroke="black" d="M767,-287.697C767,-279.983 767,-270.712 767,-262.112"/> 
<polygon fill="black" stroke="black" points="770.5,-262.104 767,-252.104 763.5,-262.104 770.5,-262.104"/> 
</g> 
<!-- i0 --> 
<g id="node62" class="node"><title>i0</title> 
<ellipse fill="#e98576" stroke="#e98576" cx="940" cy="-234" rx="79.4447" ry="18"/> 
<a xlink:href="http://pir.georgetown.edu/cgi-bin/pt_graphvizView.pl?togoid=0016740" ><text id="GO:0016740" onmousemove="changeToText('GO:0016740')" onmouseout="changeBackText('GO:0016740')"  text-anchor="middle" x="940" y="-234.8" font-family="Times,serif" font-size="14.00">GO:0016740</text></a>
<a xlink:href="http://pir.georgetown.edu/cgi-bin/pt_graphvizView.pl?tofile=302815" ><text id="r302815" onmousemove="changeToText2('r302815', 21)" onmouseout="changeBackText2('r302815', 21)"  text-anchor="middle" x="940" y="-221.8" font-family="Times,serif" font-size="14.00">(21)</text>
 
</a> 
</g> 
<!-- g0&#45;&gt;i0 --> 
<g id="edge60" class="edge"><title>g0&#45;&gt;i0</title> 
<path fill="none" stroke="black" d="M804.113,-289.983C830.224,-279.418 865.363,-265.2 893.367,-253.869"/> 
<polygon fill="black" stroke="black" points="894.991,-256.987 902.949,-249.992 892.366,-250.498 894.991,-256.987"/> 
</g> 
<!-- p0 --> 
<g id="node68" class="node"><title>p0</title> 
<ellipse fill="#e98576" stroke="#e98576" cx="1113" cy="-234" rx="75.2018" ry="18"/> 
<a xlink:href="http://pir.georgetown.edu/cgi-bin/pt_graphvizView.pl?togoid=0016829" ><text id="GO:0016829" onmousemove="changeToText('GO:0016829')" onmouseout="changeBackText('GO:0016829')"  text-anchor="middle" x="1113" y="-234.8" font-family="Times,serif" font-size="14.00">GO:0016829</text></a>
<a xlink:href="http://pir.georgetown.edu/cgi-bin/pt_graphvizView.pl?tofile=302831" ><text id="r302831" onmousemove="changeToText2('r302831', 7)" onmouseout="changeBackText2('r302831', 7)"  text-anchor="middle" x="1113" y="-221.8" font-family="Times,serif" font-size="14.00">(7)</text>
 
</a> 
</g> 
<!-- g0&#45;&gt;p0 --> 
<g id="edge66" class="edge"><title>g0&#45;&gt;p0</title> 
<path fill="none" stroke="black" d="M824.135,-293.441C885.534,-281.019 982.97,-261.307 1047.44,-248.263"/> 
<polygon fill="black" stroke="black" points="1048.39,-251.642 1057.5,-246.229 1047,-244.781 1048.39,-251.642"/> 
</g> 
<!-- j1 --> 
<g id="node9" class="node"><title>j1</title> 
<ellipse fill="#e98576" stroke="#e98576" cx="1281" cy="-234" rx="75.2018" ry="18"/> 
<a xlink:href="http://pir.georgetown.edu/cgi-bin/pt_graphvizView.pl?togoid=0042277" ><text id="GO:0042277" onmousemove="changeToText('GO:0042277')" onmouseout="changeBackText('GO:0042277')"  text-anchor="middle" x="1281" y="-234.8" font-family="Times,serif" font-size="14.00">GO:0042277</text></a>
<a xlink:href="http://pir.georgetown.edu/cgi-bin/pt_graphvizView.pl?tofile=302867" ><text id="r302867" onmousemove="changeToText2('r302867', 1)" onmouseout="changeBackText2('r302867', 1)"  text-anchor="middle" x="1281" y="-221.8" font-family="Times,serif" font-size="14.00">(1)</text>
 
</a> 
</g> 
<!-- b0&#45;&gt;j1 --> 
<g id="edge6" class="edge"><title>b0&#45;&gt;j1</title> 
<path fill="none" stroke="black" d="M1985.24,-302.36C1858.1,-297.142 1589.72,-283.198 1365,-252 1358.27,-251.065 1351.26,-249.923 1344.3,-248.676"/> 
<polygon fill="black" stroke="black" points="1344.63,-245.178 1334.15,-246.788 1343.34,-252.059 1344.63,-245.178"/> 
</g> 
<!-- j0 --> 
<g id="node11" class="node"><title>j0</title> 
<ellipse fill="#e98576" stroke="#e98576" cx="1454" cy="-234" rx="79.4447" ry="18"/> 
<a xlink:href="http://pir.georgetown.edu/cgi-bin/pt_graphvizView.pl?togoid=0005515" ><text id="GO:0005515" onmousemove="changeToText('GO:0005515')" onmouseout="changeBackText('GO:0005515')"  text-anchor="middle" x="1454" y="-234.8" font-family="Times,serif" font-size="14.00">GO:0005515</text></a>
<a xlink:href="http://pir.georgetown.edu/cgi-bin/pt_graphvizView.pl?tofile=302817" ><text id="r302817" onmousemove="changeToText2('r302817', 18)" onmouseout="changeBackText2('r302817', 18)"  text-anchor="middle" x="1454" y="-221.8" font-family="Times,serif" font-size="14.00">(18)</text>
 
</a> 
</g> 
<!-- b0&#45;&gt;j0 --> 
<g id="edge8" class="edge"><title>b0&#45;&gt;j0</title> 
<path fill="none" stroke="black" d="M1988.65,-299.712C1889.11,-291.79 1701.6,-275.248 1543,-252 1535.83,-250.949 1528.36,-249.726 1520.93,-248.427"/> 
<polygon fill="black" stroke="black" points="1521.31,-244.94 1510.85,-246.617 1520.07,-251.829 1521.31,-244.94"/> 
</g> 
<!-- z0 --> 
<g id="node13" class="node"><title>z0</title> 
<ellipse fill="#e98576" stroke="#e98576" cx="1627" cy="-234" rx="75.2018" ry="18"/> 
<a xlink:href="http://pir.georgetown.edu/cgi-bin/pt_graphvizView.pl?togoid=0043021" ><text id="GO:0043021" onmousemove="changeToText('GO:0043021')" onmouseout="changeBackText('GO:0043021')"  text-anchor="middle" x="1627" y="-234.8" font-family="Times,serif" font-size="14.00">GO:0043021</text></a>
<a xlink:href="http://pir.georgetown.edu/cgi-bin/pt_graphvizView.pl?tofile=302851" ><text id="r302851" onmousemove="changeToText2('r302851', 1)" onmouseout="changeBackText2('r302851', 1)"  text-anchor="middle" x="1627" y="-221.8" font-family="Times,serif" font-size="14.00">(1)</text>
 
</a> 
</g> 
<!-- b0&#45;&gt;z0 --> 
<g id="edge10" class="edge"><title>b0&#45;&gt;z0</title> 
<path fill="none" stroke="black" d="M1995.66,-296.296C1925.8,-286.477 1810.14,-269.571 1711,-252 1704.75,-250.892 1698.25,-249.682 1691.76,-248.434"/> 
<polygon fill="black" stroke="black" points="1692.09,-244.931 1681.6,-246.45 1690.74,-251.802 1692.09,-244.931"/> 
</g> 
<!-- a0 --> 
<g id="node24" class="node"><title>a0</title> 
<ellipse fill="#e98576" stroke="#e98576" cx="1800" cy="-234" rx="79.4447" ry="18"/> 
<a xlink:href="http://pir.georgetown.edu/cgi-bin/pt_graphvizView.pl?togoid=0043167" ><text id="GO:0043167" onmousemove="changeToText('GO:0043167')" onmouseout="changeBackText('GO:0043167')"  text-anchor="middle" x="1800" y="-234.8" font-family="Times,serif" font-size="14.00">GO:0043167</text></a>
<a xlink:href="http://pir.georgetown.edu/cgi-bin/pt_graphvizView.pl?tofile=302805" ><text id="r302805" onmousemove="changeToText2('r302805', 53)" onmouseout="changeBackText2('r302805', 53)"  text-anchor="middle" x="1800" y="-221.8" font-family="Times,serif" font-size="14.00">(53)</text>
 
</a> 
</g> 
<!-- b0&#45;&gt;a0 --> 
<g id="edge20" class="edge"><title>b0&#45;&gt;a0</title> 
<path fill="none" stroke="black" d="M2011.19,-292.079C1968.16,-280.449 1904.79,-263.322 1858.7,-250.865"/> 
<polygon fill="black" stroke="black" points="1859.41,-247.432 1848.85,-248.202 1857.59,-254.19 1859.41,-247.432"/> 
</g> 
<!-- y0 --> 
<g id="node27" class="node"><title>y0</title> 
<ellipse fill="#e98576" stroke="#e98576" cx="1973" cy="-234" rx="75.2018" ry="18"/> 
<a xlink:href="http://pir.georgetown.edu/cgi-bin/pt_graphvizView.pl?togoid=0030246" ><text id="GO:0030246" onmousemove="changeToText('GO:0030246')" onmouseout="changeBackText('GO:0030246')"  text-anchor="middle" x="1973" y="-234.8" font-family="Times,serif" font-size="14.00">GO:0030246</text></a>
<a xlink:href="http://pir.georgetown.edu/cgi-bin/pt_graphvizView.pl?tofile=302849" ><text id="r302849" onmousemove="changeToText2('r302849', 2)" onmouseout="changeBackText2('r302849', 2)"  text-anchor="middle" x="1973" y="-221.8" font-family="Times,serif" font-size="14.00">(2)</text>
 
</a> 
</g> 
<!-- b0&#45;&gt;y0 --> 
<g id="edge24" class="edge"><title>b0&#45;&gt;y0</title> 
<path fill="none" stroke="black" d="M2038.62,-288.411C2027.48,-279.345 2013.51,-267.974 2001.33,-258.057"/> 
<polygon fill="black" stroke="black" points="2003.2,-255.068 1993.23,-251.47 1998.78,-260.497 2003.2,-255.068"/> 
</g> 
<!-- k0 --> 
<g id="node31" class="node"><title>k0</title> 
<ellipse fill="#e98576" stroke="#e98576" cx="2146" cy="-234" rx="79.4447" ry="18"/> 
<a xlink:href="http://pir.georgetown.edu/cgi-bin/pt_graphvizView.pl?togoid=0003676" ><text id="GO:0003676" onmousemove="changeToText('GO:0003676')" onmouseout="changeBackText('GO:0003676')"  text-anchor="middle" x="2146" y="-234.8" font-family="Times,serif" font-size="14.00">GO:0003676</text></a>
<a xlink:href="http://pir.georgetown.edu/cgi-bin/pt_graphvizView.pl?tofile=302819" ><text id="r302819" onmousemove="changeToText2('r302819', 15)" onmouseout="changeBackText2('r302819', 15)"  text-anchor="middle" x="2146" y="-221.8" font-family="Times,serif" font-size="14.00">(15)</text>
 
</a> 
</g> 
<!-- b0&#45;&gt;k0 --> 
<g id="edge28" class="edge"><title>b0&#45;&gt;k0</title> 
<path fill="none" stroke="black" d="M2079.62,-288.411C2090.99,-279.257 2105.29,-267.755 2117.7,-257.772"/> 
<polygon fill="black" stroke="black" points="2119.93,-260.466 2125.53,-251.47 2115.54,-255.012 2119.93,-260.466"/> 
</g> 
<!-- o0 --> 
<g id="node38" class="node"><title>o0</title> 
<ellipse fill="#e98576" stroke="#e98576" cx="2319" cy="-234" rx="75.2018" ry="18"/> 
<a xlink:href="http://pir.georgetown.edu/cgi-bin/pt_graphvizView.pl?togoid=0048037" ><text id="GO:0048037" onmousemove="changeToText('GO:0048037')" onmouseout="changeBackText('GO:0048037')"  text-anchor="middle" x="2319" y="-234.8" font-family="Times,serif" font-size="14.00">GO:0048037</text></a>
<a xlink:href="http://pir.georgetown.edu/cgi-bin/pt_graphvizView.pl?tofile=302829" ><text id="r302829" onmousemove="changeToText2('r302829', 8)" onmouseout="changeBackText2('r302829', 8)"  text-anchor="middle" x="2319" y="-221.8" font-family="Times,serif" font-size="14.00">(8)</text>
 
</a> 
</g> 
<!-- b0&#45;&gt;o0 --> 
<g id="edge36" class="edge"><title>b0&#45;&gt;o0</title> 
<path fill="none" stroke="black" d="M2106.99,-292.079C2150.46,-280.376 2214.61,-263.105 2260.95,-250.629"/> 
<polygon fill="black" stroke="black" points="2262.1,-253.943 2270.85,-247.964 2260.28,-247.184 2262.1,-253.943"/> 
</g> 
<!-- e0 --> 
<g id="node48" class="node"><title>e0</title> 
<ellipse fill="#e98576" stroke="#e98576" cx="2492" cy="-234" rx="79.4447" ry="18"/> 
<a xlink:href="http://pir.georgetown.edu/cgi-bin/pt_graphvizView.pl?togoid=0001882" ><text id="GO:0001882" onmousemove="changeToText('GO:0001882')" onmouseout="changeBackText('GO:0001882')"  text-anchor="middle" x="2492" y="-234.8" font-family="Times,serif" font-size="14.00">GO:0001882</text></a>
<a xlink:href="http://pir.georgetown.edu/cgi-bin/pt_graphvizView.pl?tofile=302809" ><text id="r302809" onmousemove="changeToText2('r302809', 28)" onmouseout="changeBackText2('r302809', 28)"  text-anchor="middle" x="2492" y="-221.8" font-family="Times,serif" font-size="14.00">(28)</text>
 
</a> 
</g> 
<!-- b0&#45;&gt;e0 --> 
<g id="edge46" class="edge"><title>b0&#45;&gt;e0</title> 
<path fill="none" stroke="black" d="M2113.58,-293.442C2123.36,-291.518 2133.47,-289.623 2143,-288 2258,-268.42 2287.89,-270.95 2403,-252 2409.78,-250.884 2416.83,-249.654 2423.88,-248.382"/> 
<polygon fill="black" stroke="black" points="2424.94,-251.744 2434.15,-246.495 2423.68,-244.859 2424.94,-251.744"/> 
</g> 
<!-- x0 --> 
<g id="node64" class="node"><title>x0</title> 
<ellipse fill="#e98576" stroke="#e98576" cx="2665" cy="-234" rx="75.2018" ry="18"/> 
<a xlink:href="http://pir.georgetown.edu/cgi-bin/pt_graphvizView.pl?togoid=0046906" ><text id="GO:0046906" onmousemove="changeToText('GO:0046906')" onmouseout="changeBackText('GO:0046906')"  text-anchor="middle" x="2665" y="-234.8" font-family="Times,serif" font-size="14.00">GO:0046906</text></a>
<a xlink:href="http://pir.georgetown.edu/cgi-bin/pt_graphvizView.pl?tofile=302847" ><text id="r302847" onmousemove="changeToText2('r302847', 2)" onmouseout="changeBackText2('r302847', 2)"  text-anchor="middle" x="2665" y="-221.8" font-family="Times,serif" font-size="14.00">(2)</text>
 
</a> 
</g> 
<!-- b0&#45;&gt;x0 --> 
<g id="edge62" class="edge"><title>b0&#45;&gt;x0</title> 
<path fill="none" stroke="black" d="M2112.16,-293.261C2122.36,-291.287 2132.98,-289.421 2143,-288 2335.95,-260.625 2387.02,-279.155 2580,-252 2586.81,-251.042 2593.89,-249.884 2600.94,-248.629"/> 
<polygon fill="black" stroke="black" points="2602,-251.992 2611.2,-246.732 2600.73,-245.109 2602,-251.992"/> 
</g> 
<!-- d0 --> 
<g id="node66" class="node"><title>d0</title> 
<ellipse fill="#e98576" stroke="#e98576" cx="2838" cy="-234" rx="79.4447" ry="18"/> 
<a xlink:href="http://pir.georgetown.edu/cgi-bin/pt_graphvizView.pl?togoid=0000166" ><text id="GO:0000166" onmousemove="changeToText('GO:0000166')" onmouseout="changeBackText('GO:0000166')"  text-anchor="middle" x="2838" y="-234.8" font-family="Times,serif" font-size="14.00">GO:0000166</text></a>
<a xlink:href="http://pir.georgetown.edu/cgi-bin/pt_graphvizView.pl?tofile=302807" ><text id="r302807" onmousemove="changeToText2('r302807', 36)" onmouseout="changeBackText2('r302807', 36)"  text-anchor="middle" x="2838" y="-221.8" font-family="Times,serif" font-size="14.00">(36)</text>
 
</a> 
</g> 
<!-- b0&#45;&gt;d0 --> 
<g id="edge64" class="edge"><title>b0&#45;&gt;d0</title> 
<path fill="none" stroke="black" d="M2111.69,-293.162C2122.02,-291.172 2132.82,-289.326 2143,-288 2410.55,-253.155 2481.26,-285.38 2749,-252 2756.57,-251.056 2764.47,-249.859 2772.3,-248.539"/> 
<polygon fill="black" stroke="black" points="2772.91,-251.986 2782.15,-246.811 2771.7,-245.092 2772.91,-251.986"/> 
</g> 
<!-- b1 --> 
<g id="node71" class="node"><title>b1</title> 
<ellipse fill="#e98576" stroke="#e98576" cx="3011" cy="-234" rx="75.2018" ry="18"/> 
<a xlink:href="http://pir.georgetown.edu/cgi-bin/pt_graphvizView.pl?togoid=0051540" ><text id="GO:0051540" onmousemove="changeToText('GO:0051540')" onmouseout="changeBackText('GO:0051540')"  text-anchor="middle" x="3011" y="-234.8" font-family="Times,serif" font-size="14.00">GO:0051540</text></a>
<a xlink:href="http://pir.georgetown.edu/cgi-bin/pt_graphvizView.pl?tofile=302855" ><text id="r302855" onmousemove="changeToText2('r302855', 1)" onmouseout="changeBackText2('r302855', 1)"  text-anchor="middle" x="3011" y="-221.8" font-family="Times,serif" font-size="14.00">(1)</text>
 
</a> 
</g> 
<!-- b0&#45;&gt;b1 --> 
<g id="edge70" class="edge"><title>b0&#45;&gt;b1</title> 
<path fill="none" stroke="black" d="M2111.67,-293.053C2122.01,-291.072 2132.81,-289.258 2143,-288 2488.74,-245.323 2580.21,-294.281 2926,-252 2933.19,-251.121 2940.68,-249.972 2948.1,-248.685"/> 
<polygon fill="black" stroke="black" points="2948.94,-252.09 2958.15,-246.857 2947.69,-245.203 2948.94,-252.09"/> 
</g> 
<!-- m0 --> 
<g id="node17" class="node"><title>m0</title> 
<ellipse fill="#e98576" stroke="#e98576" cx="90" cy="-162" rx="75.2018" ry="18"/> 
<a xlink:href="http://pir.georgetown.edu/cgi-bin/pt_graphvizView.pl?togoid=0008233" ><text id="GO:0008233" onmousemove="changeToText('GO:0008233')" onmouseout="changeBackText('GO:0008233')"  text-anchor="middle" x="90" y="-162.8" font-family="Times,serif" font-size="14.00">GO:0008233</text></a>
<a xlink:href="http://pir.georgetown.edu/cgi-bin/pt_graphvizView.pl?tofile=302825" ><text id="r302825" onmousemove="changeToText2('r302825', 9)" onmouseout="changeBackText2('r302825', 9)"  text-anchor="middle" x="90" y="-149.8" font-family="Times,serif" font-size="14.00">(9)</text>
 
</a> 
</g> 
<!-- f0&#45;&gt;m0 --> 
<g id="edge14" class="edge"><title>f0&#45;&gt;m0</title> 
<path fill="none" stroke="black" d="M213.326,-217.638C189.806,-207.218 158.535,-193.364 133.368,-182.213"/> 
<polygon fill="black" stroke="black" points="134.61,-178.936 124.05,-178.085 131.775,-185.336 134.61,-178.936"/> 
</g> 
<!-- f1 --> 
<g id="node20" class="node"><title>f1</title> 
<ellipse fill="#e98576" stroke="#e98576" cx="258" cy="-162" rx="75.2018" ry="18"/> 
<a xlink:href="http://pir.georgetown.edu/cgi-bin/pt_graphvizView.pl?togoid=0004497" ><text id="GO:0004497" onmousemove="changeToText('GO:0004497')" onmouseout="changeBackText('GO:0004497')"  text-anchor="middle" x="258" y="-162.8" font-family="Times,serif" font-size="14.00">GO:0004497</text></a>
<a xlink:href="http://pir.georgetown.edu/cgi-bin/pt_graphvizView.pl?tofile=302861" ><text id="r302861" onmousemove="changeToText2('r302861', 1)" onmouseout="changeBackText2('r302861', 1)"  text-anchor="middle" x="258" y="-149.8" font-family="Times,serif" font-size="14.00">(1)</text>
 
</a> 
</g> 
<!-- h0&#45;&gt;f1 --> 
<g id="edge16" class="edge"><title>h0&#45;&gt;f1</title> 
<path fill="none" stroke="black" d="M389.547,-217.811C364.167,-207.236 330.152,-193.063 303.07,-181.779"/> 
<polygon fill="black" stroke="black" points="304.382,-178.534 293.805,-177.919 301.69,-184.996 304.382,-178.534"/> 
</g> 
<!-- u0 --> 
<g id="node40" class="node"><title>u0</title> 
<ellipse fill="#e98576" stroke="#e98576" cx="426" cy="-162" rx="75.2018" ry="18"/> 
<a xlink:href="http://pir.georgetown.edu/cgi-bin/pt_graphvizView.pl?togoid=0051213" ><text id="GO:0051213" onmousemove="changeToText('GO:0051213')" onmouseout="changeBackText('GO:0051213')"  text-anchor="middle" x="426" y="-162.8" font-family="Times,serif" font-size="14.00">GO:0051213</text></a>
<a xlink:href="http://pir.georgetown.edu/cgi-bin/pt_graphvizView.pl?tofile=302841" ><text id="r302841" onmousemove="changeToText2('r302841', 3)" onmouseout="changeBackText2('r302841', 3)"  text-anchor="middle" x="426" y="-149.8" font-family="Times,serif" font-size="14.00">(3)</text>
 
</a> 
</g> 
<!-- h0&#45;&gt;u0 --> 
<g id="edge38" class="edge"><title>h0&#45;&gt;u0</title> 
<path fill="none" stroke="black" d="M426,-215.697C426,-207.983 426,-198.712 426,-190.112"/> 
<polygon fill="black" stroke="black" points="429.5,-190.104 426,-180.104 422.5,-190.104 429.5,-190.104"/> 
</g> 
<!-- a1 --> 
<g id="node59" class="node"><title>a1</title> 
<ellipse fill="#e98576" stroke="#e98576" cx="594" cy="-162" rx="75.2018" ry="18"/> 
<a xlink:href="http://pir.georgetown.edu/cgi-bin/pt_graphvizView.pl?togoid=0009055" ><text id="GO:0009055" onmousemove="changeToText('GO:0009055')" onmouseout="changeBackText('GO:0009055')"  text-anchor="middle" x="594" y="-162.8" font-family="Times,serif" font-size="14.00">GO:0009055</text></a>
<a xlink:href="http://pir.georgetown.edu/cgi-bin/pt_graphvizView.pl?tofile=302853" ><text id="r302853" onmousemove="changeToText2('r302853', 1)" onmouseout="changeBackText2('r302853', 1)"  text-anchor="middle" x="594" y="-149.8" font-family="Times,serif" font-size="14.00">(1)</text>
 
</a> 
</g> 
<!-- h0&#45;&gt;a1 --> 
<g id="edge56" class="edge"><title>h0&#45;&gt;a1</title> 
<path fill="none" stroke="black" d="M462.453,-217.811C487.833,-207.236 521.848,-193.063 548.93,-181.779"/> 
<polygon fill="black" stroke="black" points="550.31,-184.996 558.195,-177.919 547.618,-178.534 550.31,-184.996"/> 
</g> 
<!-- e1 --> 
<g id="node42" class="node"><title>e1</title> 
<a xlink:href="http://pir.georgetown.edu/cgi-bin/pt_graphvizView.pl?togoid=0016879" > 
<ellipse fill="#dddddd" stroke="#dddddd" cx="749" cy="-162" rx="61.1934" ry="18"/> 
<a xlink:href="http://pir.georgetown.edu/cgi-bin/pt_graphvizView.pl?togoid=0016879" ><text id="GO:0016879" onmousemove="changeToText('GO:0016879')" onmouseout="changeBackText('GO:0016879')"  text-anchor="middle" x="749" y="-157.8" font-family="Times,serif" font-size="14.00">GO:0016879</text></a>
 
</a> 
</g> 
<!-- n0&#45;&gt;e1 --> 
<g id="edge40" class="edge"><title>n0&#45;&gt;e1</title> 
<path fill="none" stroke="black" d="M631.918,-217.638C654.454,-207.122 684.484,-193.107 708.489,-181.905"/> 
<polygon fill="black" stroke="black" points="710.116,-185.008 717.698,-177.608 707.156,-178.665 710.116,-185.008"/> 
</g> 
<!-- d1 --> 
<g id="node43" class="node"><title>d1</title> 
<a xlink:href="http://pir.georgetown.edu/cgi-bin/pt_graphvizView.pl?togoid=0016881" > 
<ellipse fill="#dddddd" stroke="#dddddd" cx="749" cy="-90" rx="61.1934" ry="18"/> 
<a xlink:href="http://pir.georgetown.edu/cgi-bin/pt_graphvizView.pl?togoid=0016881" ><text id="GO:0016881" onmousemove="changeToText('GO:0016881')" onmouseout="changeBackText('GO:0016881')"  text-anchor="middle" x="749" y="-85.8" font-family="Times,serif" font-size="14.00">GO:0016881</text></a>
 
</a> 
</g> 
<!-- e1&#45;&gt;d1 --> 
<g id="edge58" class="edge"><title>e1&#45;&gt;d1</title> 
<path fill="none" stroke="black" d="M749,-143.697C749,-135.983 749,-126.712 749,-118.112"/> 
<polygon fill="black" stroke="black" points="752.5,-118.104 749,-108.104 745.5,-118.104 752.5,-118.104"/> 
</g> 
<!-- c1 --> 
<g id="node45" class="node"><title>c1</title> 
<ellipse fill="#e98576" stroke="#e98576" cx="749" cy="-18" rx="75.2018" ry="18"/> 
<a xlink:href="http://pir.georgetown.edu/cgi-bin/pt_graphvizView.pl?togoid=0019787" ><text id="GO:0019787" onmousemove="changeToText('GO:0019787')" onmouseout="changeBackText('GO:0019787')"  text-anchor="middle" x="749" y="-18.8" font-family="Times,serif" font-size="14.00">GO:0019787</text></a>
<a xlink:href="http://pir.georgetown.edu/cgi-bin/pt_graphvizView.pl?tofile=302859" ><text id="r302859" onmousemove="changeToText2('r302859', 1)" onmouseout="changeBackText2('r302859', 1)"  text-anchor="middle" x="749" y="-5.8" font-family="Times,serif" font-size="14.00">(1)</text>
 
</a> 
</g> 
<!-- d1&#45;&gt;c1 --> 
<g id="edge42" class="edge"><title>d1&#45;&gt;c1</title> 
<path fill="none" stroke="black" d="M749,-71.6966C749,-63.9827 749,-54.7125 749,-46.1124"/> 
<polygon fill="black" stroke="black" points="752.5,-46.1043 749,-36.1043 745.5,-46.1044 752.5,-46.1043"/> 
</g> 
<!-- h1 --> 
<g id="node53" class="node"><title>h1</title> 
<ellipse fill="#e98576" stroke="#e98576" cx="3179" cy="-234" rx="75.2018" ry="18"/> 
<a xlink:href="http://pir.georgetown.edu/cgi-bin/pt_graphvizView.pl?togoid=0004871" ><text id="GO:0004871" onmousemove="changeToText('GO:0004871')" onmouseout="changeBackText('GO:0004871')"  text-anchor="middle" x="3179" y="-234.8" font-family="Times,serif" font-size="14.00">GO:0004871</text></a>
<a xlink:href="http://pir.georgetown.edu/cgi-bin/pt_graphvizView.pl?tofile=302865" ><text id="r302865" onmousemove="changeToText2('r302865', 1)" onmouseout="changeBackText2('r302865', 1)"  text-anchor="middle" x="3179" y="-221.8" font-family="Times,serif" font-size="14.00">(1)</text>
 
</a> 
</g> 
<!-- i1&#45;&gt;h1 --> 
<g id="edge50" class="edge"><title>i1&#45;&gt;h1</title> 
<path fill="none" stroke="black" d="M2772.53,-293.518C2781.27,-291.498 2790.39,-289.549 2799,-288 2929.43,-264.532 2964.18,-273.16 3095,-252 3101.51,-250.947 3108.29,-249.748 3115.04,-248.486"/> 
<polygon fill="black" stroke="black" points="3115.73,-251.919 3124.89,-246.602 3114.41,-245.044 3115.73,-251.919"/> 
</g> 
</g> 
<text text-anchor="left" x="4" y="-20" style="font-family:Arial Narrow;font-size:20.00;font-weight:bold;">GO Hierarchical View:</text> 

<text text-anchor="left" x="4" y="0" style="font-family:Arial Narrow;font-size:20.00;font-style:italic;">molecular function</text> 

<script type="text/ecmascript"> 
<![CDATA[ 
var targetText; 
function changeToText(z) { 
		targetText = svgDocument.getElementById(z).firstChild; 
		targetText.nodeValue="link to "+z; 
} 
function changeBackText(z) { 
		targetText = svgDocument.getElementById(z).firstChild; 
		targetText.nodeValue=z; 
} 
function changeToText2(z,n) { 
		targetText = svgDocument.getElementById(z).firstChild; 
		if (n<=1) { 
			targetText.nodeValue="link to " + n + " protein record"; 
		} else { 
			targetText.nodeValue="link to " + n + " protein records"; 
		} 
} 
function changeBackText2(z,n) { 
		targetText = svgDocument.getElementById(z).firstChild; 
		targetText.nodeValue="(" + n + ")"; 
} 
// ]]> 
</script> 
</svg> 
