<?xml version="1.0" encoding="UTF-8" standalone="no"?> 
<!DOCTYPE svg PUBLIC "-//W3C//DTD SVG 1.1//EN" 
 "http://www.w3.org/Graphics/SVG/1.1/DTD/svg11.dtd"> 
<!-- Generated by graphviz version 2.28.0 (20110622.2320) 
 --> 
<!-- Title: G Pages: 1 --> 
<svg width="2000" height="1000"  
 viewBox="-30 -50 2000 1000" xmlns="http://www.w3.org/2000/svg" xmlns:xlink="http://www.w3.org/1999/xlink"> 
<g id="graph1" class="graph" transform="scale(1 1) rotate(0) translate(4 400)"> 
<title>G</title> 
<polygon fill="white" stroke="white" points="-4,5 -4,-400 4548,-400 4548,5 -4,5"/> 
<!-- g0 --> 
<g id="node1" class="node"><title>g0</title> 
<ellipse fill="#e98576" stroke="#e98576" cx="654" cy="-306" rx="75.2018" ry="18"/> 
<a xlink:href="http://pir.georgetown.edu/cgi-bin/pt_graphvizView.pl?togoid=0003824" ><text id="GO:0003824" onmousemove="changeToText('GO:0003824')" onmouseout="changeBackText('GO:0003824')"  text-anchor="middle" x="654" y="-306.8" font-family="Times,serif" font-size="14.00">GO:0003824</text></a>
<a xlink:href="http://pir.georgetown.edu/cgi-bin/pt_graphvizView.pl?tofile=325103" ><text id="r325103" onmousemove="changeToText2('r325103', 3)" onmouseout="changeBackText2('r325103', 3)"  text-anchor="middle" x="654" y="-293.8" font-family="Times,serif" font-size="14.00">(3)</text>
 
</a> 
</g> 
<!-- z0 --> 
<g id="node3" class="node"><title>z0</title> 
<ellipse fill="#e98576" stroke="#e98576" cx="75" cy="-234" rx="75.2018" ry="18"/> 
<a xlink:href="http://pir.georgetown.edu/cgi-bin/pt_graphvizView.pl?togoid=0016853" ><text id="GO:0016853" onmousemove="changeToText('GO:0016853')" onmouseout="changeBackText('GO:0016853')"  text-anchor="middle" x="75" y="-234.8" font-family="Times,serif" font-size="14.00">GO:0016853</text></a>
<a xlink:href="http://pir.georgetown.edu/cgi-bin/pt_graphvizView.pl?tofile=325107" ><text id="r325107" onmousemove="changeToText2('r325107', 2)" onmouseout="changeBackText2('r325107', 2)"  text-anchor="middle" x="75" y="-221.8" font-family="Times,serif" font-size="14.00">(2)</text>
 
</a> 
</g> 
<!-- g0&#45;&gt;z0 --> 
<g id="edge2" class="edge"><title>g0&#45;&gt;z0</title> 
<path fill="none" stroke="black" d="M583.646,-299.541C487.428,-291.603 309.547,-275.242 159,-252 152.381,-250.978 145.492,-249.79 138.633,-248.526"/> 
<polygon fill="black" stroke="black" points="139.118,-245.055 128.64,-246.629 137.812,-251.932 139.118,-245.055"/> 
</g> 
<!-- f0 --> 
<g id="node17" class="node"><title>f0</title> 
<ellipse fill="#e98576" stroke="#e98576" cx="248" cy="-234" rx="79.4447" ry="18"/> 
<a xlink:href="http://pir.georgetown.edu/cgi-bin/pt_graphvizView.pl?togoid=0016787" ><text id="GO:0016787" onmousemove="changeToText('GO:0016787')" onmouseout="changeBackText('GO:0016787')"  text-anchor="middle" x="248" y="-234.8" font-family="Times,serif" font-size="14.00">GO:0016787</text></a>
<a xlink:href="http://pir.georgetown.edu/cgi-bin/pt_graphvizView.pl?tofile=325065" ><text id="r325065" onmousemove="changeToText2('r325065', 13)" onmouseout="changeBackText2('r325065', 13)"  text-anchor="middle" x="248" y="-221.8" font-family="Times,serif" font-size="14.00">(13)</text>
 
</a> 
</g> 
<!-- g0&#45;&gt;f0 --> 
<g id="edge26" class="edge"><title>g0&#45;&gt;f0</title> 
<path fill="none" stroke="black" d="M593.452,-295.303C529.606,-284.978 426.116,-267.959 337,-252 330.342,-250.808 323.409,-249.536 316.482,-248.246"/> 
<polygon fill="black" stroke="black" points="316.844,-244.753 306.371,-246.349 315.554,-251.633 316.844,-244.753"/> 
</g> 
<!-- r0 --> 
<g id="node20" class="node"><title>r0</title> 
<ellipse fill="#e98576" stroke="#e98576" cx="421" cy="-234" rx="75.2018" ry="18"/> 
<a xlink:href="http://pir.georgetown.edu/cgi-bin/pt_graphvizView.pl?togoid=0016491" ><text id="GO:0016491" onmousemove="changeToText('GO:0016491')" onmouseout="changeBackText('GO:0016491')"  text-anchor="middle" x="421" y="-234.8" font-family="Times,serif" font-size="14.00">GO:0016491</text></a>
<a xlink:href="http://pir.georgetown.edu/cgi-bin/pt_graphvizView.pl?tofile=325085" ><text id="r325085" onmousemove="changeToText2('r325085', 4)" onmouseout="changeBackText2('r325085', 4)"  text-anchor="middle" x="421" y="-221.8" font-family="Times,serif" font-size="14.00">(4)</text>
 
</a> 
</g> 
<!-- g0&#45;&gt;r0 --> 
<g id="edge36" class="edge"><title>g0&#45;&gt;r0</title> 
<path fill="none" stroke="black" d="M609.075,-291.503C570.959,-280.052 516.153,-263.587 475.529,-251.382"/> 
<polygon fill="black" stroke="black" points="476.371,-247.981 465.787,-248.455 474.357,-254.685 476.371,-247.981"/> 
</g> 
<!-- o1 --> 
<g id="node33" class="node"><title>o1</title> 
<a xlink:href="http://pir.georgetown.edu/cgi-bin/pt_graphvizView.pl?togoid=0016874" > 
<ellipse fill="#dddddd" stroke="#dddddd" cx="576" cy="-234" rx="61.1934" ry="18"/> 
<a xlink:href="http://pir.georgetown.edu/cgi-bin/pt_graphvizView.pl?togoid=0016874" ><text id="GO:0016874" onmousemove="changeToText('GO:0016874')" onmouseout="changeBackText('GO:0016874')"  text-anchor="middle" x="576" y="-229.8" font-family="Times,serif" font-size="14.00">GO:0016874</text></a>
 
</a> 
</g> 
<!-- g0&#45;&gt;o1 --> 
<g id="edge30" class="edge"><title>g0&#45;&gt;o1</title> 
<path fill="none" stroke="black" d="M635.515,-288.411C625.437,-279.367 612.804,-268.03 601.773,-258.13"/> 
<polygon fill="black" stroke="black" points="603.863,-255.303 594.083,-251.228 599.188,-260.512 603.863,-255.303"/> 
</g> 
<!-- f1 --> 
<g id="node40" class="node"><title>f1</title> 
<ellipse fill="#e98576" stroke="#e98576" cx="731" cy="-234" rx="75.2018" ry="18"/> 
<a xlink:href="http://pir.georgetown.edu/cgi-bin/pt_graphvizView.pl?togoid=0004386" ><text id="GO:0004386" onmousemove="changeToText('GO:0004386')" onmouseout="changeBackText('GO:0004386')"  text-anchor="middle" x="731" y="-234.8" font-family="Times,serif" font-size="14.00">GO:0004386</text></a>
<a xlink:href="http://pir.georgetown.edu/cgi-bin/pt_graphvizView.pl?tofile=325119" ><text id="r325119" onmousemove="changeToText2('r325119', 1)" onmouseout="changeBackText2('r325119', 1)"  text-anchor="middle" x="731" y="-221.8" font-family="Times,serif" font-size="14.00">(1)</text>
 
</a> 
</g> 
<!-- g0&#45;&gt;f1 --> 
<g id="edge38" class="edge"><title>g0&#45;&gt;f1</title> 
<path fill="none" stroke="black" d="M672.248,-288.411C682.125,-279.432 694.488,-268.193 705.322,-258.344"/> 
<polygon fill="black" stroke="black" points="707.838,-260.787 712.883,-251.47 703.129,-255.607 707.838,-260.787"/> 
</g> 
<!-- b1 --> 
<g id="node78" class="node"><title>b1</title> 
<ellipse fill="#e98576" stroke="#e98576" cx="899" cy="-234" rx="75.2018" ry="18"/> 
<a xlink:href="http://pir.georgetown.edu/cgi-bin/pt_graphvizView.pl?togoid=0016740" ><text id="GO:0016740" onmousemove="changeToText('GO:0016740')" onmouseout="changeBackText('GO:0016740')"  text-anchor="middle" x="899" y="-234.8" font-family="Times,serif" font-size="14.00">GO:0016740</text></a>
<a xlink:href="http://pir.georgetown.edu/cgi-bin/pt_graphvizView.pl?tofile=325111" ><text id="r325111" onmousemove="changeToText2('r325111', 2)" onmouseout="changeBackText2('r325111', 2)"  text-anchor="middle" x="899" y="-221.8" font-family="Times,serif" font-size="14.00">(2)</text>
 
</a> 
</g> 
<!-- g0&#45;&gt;b1 --> 
<g id="edge76" class="edge"><title>g0&#45;&gt;b1</title> 
<path fill="none" stroke="black" d="M700.371,-291.751C740.912,-280.168 799.883,-263.319 843.038,-250.989"/> 
<polygon fill="black" stroke="black" points="844.165,-254.307 852.819,-248.195 842.242,-247.577 844.165,-254.307"/> 
</g> 
<!-- a1 --> 
<g id="node84" class="node"><title>a1</title> 
<ellipse fill="#e98576" stroke="#e98576" cx="1067" cy="-234" rx="75.2018" ry="18"/> 
<a xlink:href="http://pir.georgetown.edu/cgi-bin/pt_graphvizView.pl?togoid=0016829" ><text id="GO:0016829" onmousemove="changeToText('GO:0016829')" onmouseout="changeBackText('GO:0016829')"  text-anchor="middle" x="1067" y="-234.8" font-family="Times,serif" font-size="14.00">GO:0016829</text></a>
<a xlink:href="http://pir.georgetown.edu/cgi-bin/pt_graphvizView.pl?tofile=325109" ><text id="r325109" onmousemove="changeToText2('r325109', 2)" onmouseout="changeBackText2('r325109', 2)"  text-anchor="middle" x="1067" y="-221.8" font-family="Times,serif" font-size="14.00">(2)</text>
 
</a> 
</g> 
<!-- g0&#45;&gt;a1 --> 
<g id="edge82" class="edge"><title>g0&#45;&gt;a1</title> 
<path fill="none" stroke="black" d="M715.976,-295.772C782.206,-285.733 890.216,-268.855 983,-252 989.245,-250.866 995.74,-249.637 1002.23,-248.378"/> 
<polygon fill="black" stroke="black" points="1003.25,-251.744 1012.39,-246.382 1001.9,-244.876 1003.25,-251.744"/> 
</g> 
<!-- c0 --> 
<g id="node4" class="node"><title>c0</title> 
<ellipse fill="#e98576" stroke="#e98576" cx="3113" cy="-378" rx="75.2018" ry="18"/> 
<a xlink:href="http://pir.georgetown.edu/cgi-bin/pt_graphvizView.pl?togoid=0003674" ><text id="GO:0003674" onmousemove="changeToText('GO:0003674')" onmouseout="changeBackText('GO:0003674')"  text-anchor="middle" x="3113" y="-378.8" font-family="Times,serif" font-size="14.00">GO:0003674</text></a>
<a xlink:href="http://pir.georgetown.edu/cgi-bin/pt_graphvizView.pl?tofile=325087" ><text id="r325087" onmousemove="changeToText2('r325087', 4)" onmouseout="changeBackText2('r325087', 4)"  text-anchor="middle" x="3113" y="-365.8" font-family="Times,serif" font-size="14.00">(4)</text>
 
</a> 
</g> 
<!-- c0&#45;&gt;g0 --> 
<g id="edge58" class="edge"><title>c0&#45;&gt;g0</title> 
<path fill="none" stroke="black" d="M3038.74,-374.886C2679.01,-364.646 1119.37,-320.248 738.255,-309.398"/> 
<polygon fill="black" stroke="black" points="738.224,-305.896 728.128,-309.11 738.024,-312.893 738.224,-305.896"/> 
</g> 
<!-- j0 --> 
<g id="node6" class="node"><title>j0</title> 
<ellipse fill="#e98576" stroke="#e98576" cx="2609" cy="-306" rx="75.2018" ry="18"/> 
<a xlink:href="http://pir.georgetown.edu/cgi-bin/pt_graphvizView.pl?togoid=0030234" ><text id="GO:0030234" onmousemove="changeToText('GO:0030234')" onmouseout="changeBackText('GO:0030234')"  text-anchor="middle" x="2609" y="-306.8" font-family="Times,serif" font-size="14.00">GO:0030234</text></a>
<a xlink:href="http://pir.georgetown.edu/cgi-bin/pt_graphvizView.pl?tofile=325071" ><text id="r325071" onmousemove="changeToText2('r325071', 9)" onmouseout="changeBackText2('r325071', 9)"  text-anchor="middle" x="2609" y="-293.8" font-family="Times,serif" font-size="14.00">(9)</text>
 
</a> 
</g> 
<!-- c0&#45;&gt;j0 --> 
<g id="edge4" class="edge"><title>c0&#45;&gt;j0</title> 
<path fill="none" stroke="black" d="M3045.49,-370.041C2962.33,-361.109 2816.84,-344.316 2693,-324 2686.49,-322.932 2679.71,-321.724 2672.96,-320.456"/> 
<polygon fill="black" stroke="black" points="2673.6,-317.014 2663.12,-318.566 2672.28,-323.889 2673.6,-317.014"/> 
</g> 
<!-- b0 --> 
<g id="node7" class="node"><title>b0</title> 
<ellipse fill="#e98576" stroke="#e98576" cx="2777" cy="-306" rx="75.2018" ry="18"/> 
<a xlink:href="http://pir.georgetown.edu/cgi-bin/pt_graphvizView.pl?togoid=0005488" ><text id="GO:0005488" onmousemove="changeToText('GO:0005488')" onmouseout="changeBackText('GO:0005488')"  text-anchor="middle" x="2777" y="-306.8" font-family="Times,serif" font-size="14.00">GO:0005488</text></a>
<a xlink:href="http://pir.georgetown.edu/cgi-bin/pt_graphvizView.pl?tofile=325081" ><text id="r325081" onmousemove="changeToText2('r325081', 5)" onmouseout="changeBackText2('r325081', 5)"  text-anchor="middle" x="2777" y="-293.8" font-family="Times,serif" font-size="14.00">(5)</text>
 
</a> 
</g> 
<!-- c0&#45;&gt;b0 --> 
<g id="edge14" class="edge"><title>c0&#45;&gt;b0</title> 
<path fill="none" stroke="black" d="M3058.27,-365.597C2998.96,-353.242 2904.4,-333.541 2841.52,-320.441"/> 
<polygon fill="black" stroke="black" points="2842.21,-317.011 2831.71,-318.398 2840.78,-323.864 2842.21,-317.011"/> 
</g> 
<!-- m0 --> 
<g id="node26" class="node"><title>m0</title> 
<ellipse fill="#e98576" stroke="#e98576" cx="2945" cy="-306" rx="75.2018" ry="18"/> 
<a xlink:href="http://pir.georgetown.edu/cgi-bin/pt_graphvizView.pl?togoid=0005215" ><text id="GO:0005215" onmousemove="changeToText('GO:0005215')" onmouseout="changeBackText('GO:0005215')"  text-anchor="middle" x="2945" y="-306.8" font-family="Times,serif" font-size="14.00">GO:0005215</text></a>
<a xlink:href="http://pir.georgetown.edu/cgi-bin/pt_graphvizView.pl?tofile=325077" ><text id="r325077" onmousemove="changeToText2('r325077', 7)" onmouseout="changeBackText2('r325077', 7)"  text-anchor="middle" x="2945" y="-293.8" font-family="Times,serif" font-size="14.00">(7)</text>
 
</a> 
</g> 
<!-- c0&#45;&gt;m0 --> 
<g id="edge22" class="edge"><title>c0&#45;&gt;m0</title> 
<path fill="none" stroke="black" d="M3077.37,-362.155C3051.95,-351.564 3017.57,-337.239 2990.22,-325.842"/> 
<polygon fill="black" stroke="black" points="2991.44,-322.56 2980.87,-321.944 2988.75,-329.021 2991.44,-322.56"/> 
</g> 
<!-- t0 --> 
<g id="node42" class="node"><title>t0</title> 
<ellipse fill="#e98576" stroke="#e98576" cx="3113" cy="-306" rx="75.2018" ry="18"/> 
<a xlink:href="http://pir.georgetown.edu/cgi-bin/pt_graphvizView.pl?togoid=0005198" ><text id="GO:0005198" onmousemove="changeToText('GO:0005198')" onmouseout="changeBackText('GO:0005198')"  text-anchor="middle" x="3113" y="-306.8" font-family="Times,serif" font-size="14.00">GO:0005198</text></a>
<a xlink:href="http://pir.georgetown.edu/cgi-bin/pt_graphvizView.pl?tofile=325091" ><text id="r325091" onmousemove="changeToText2('r325091', 3)" onmouseout="changeBackText2('r325091', 3)"  text-anchor="middle" x="3113" y="-293.8" font-family="Times,serif" font-size="14.00">(3)</text>
 
</a> 
</g> 
<!-- c0&#45;&gt;t0 --> 
<g id="edge40" class="edge"><title>c0&#45;&gt;t0</title> 
<path fill="none" stroke="black" d="M3113,-359.697C3113,-351.983 3113,-342.712 3113,-334.112"/> 
<polygon fill="black" stroke="black" points="3116.5,-334.104 3113,-324.104 3109.5,-334.104 3116.5,-334.104"/> 
</g> 
<!-- h1 --> 
<g id="node44" class="node"><title>h1</title> 
<ellipse fill="#e98576" stroke="#e98576" cx="3281" cy="-306" rx="75.2018" ry="18"/> 
<a xlink:href="http://pir.georgetown.edu/cgi-bin/pt_graphvizView.pl?togoid=0042056" ><text id="GO:0042056" onmousemove="changeToText('GO:0042056')" onmouseout="changeBackText('GO:0042056')"  text-anchor="middle" x="3281" y="-306.8" font-family="Times,serif" font-size="14.00">GO:0042056</text></a>
<a xlink:href="http://pir.georgetown.edu/cgi-bin/pt_graphvizView.pl?tofile=325123" ><text id="r325123" onmousemove="changeToText2('r325123', 1)" onmouseout="changeBackText2('r325123', 1)"  text-anchor="middle" x="3281" y="-293.8" font-family="Times,serif" font-size="14.00">(1)</text>
 
</a> 
</g> 
<!-- c0&#45;&gt;h1 --> 
<g id="edge42" class="edge"><title>c0&#45;&gt;h1</title> 
<path fill="none" stroke="black" d="M3148.63,-362.155C3174.05,-351.564 3208.43,-337.239 3235.78,-325.842"/> 
<polygon fill="black" stroke="black" points="3237.25,-329.021 3245.13,-321.944 3234.56,-322.56 3237.25,-329.021"/> 
</g> 
<!-- x0 --> 
<g id="node69" class="node"><title>x0</title> 
<ellipse fill="#e98576" stroke="#e98576" cx="3449" cy="-306" rx="75.2018" ry="18"/> 
<a xlink:href="http://pir.georgetown.edu/cgi-bin/pt_graphvizView.pl?togoid=0003774" ><text id="GO:0003774" onmousemove="changeToText('GO:0003774')" onmouseout="changeBackText('GO:0003774')"  text-anchor="middle" x="3449" y="-306.8" font-family="Times,serif" font-size="14.00">GO:0003774</text></a>
<a xlink:href="http://pir.georgetown.edu/cgi-bin/pt_graphvizView.pl?tofile=325101" ><text id="r325101" onmousemove="changeToText2('r325101', 3)" onmouseout="changeBackText2('r325101', 3)"  text-anchor="middle" x="3449" y="-293.8" font-family="Times,serif" font-size="14.00">(3)</text>
 
</a> 
</g> 
<!-- c0&#45;&gt;x0 --> 
<g id="edge66" class="edge"><title>c0&#45;&gt;x0</title> 
<path fill="none" stroke="black" d="M3167.73,-365.597C3227.04,-353.242 3321.6,-333.541 3384.48,-320.441"/> 
<polygon fill="black" stroke="black" points="3385.22,-323.864 3394.29,-318.398 3383.79,-317.011 3385.22,-323.864"/> 
</g> 
<!-- q0 --> 
<g id="node70" class="node"><title>q0</title> 
<a xlink:href="http://pir.georgetown.edu/cgi-bin/pt_graphvizView.pl?togoid=0060089" > 
<ellipse fill="#dddddd" stroke="#dddddd" cx="3604" cy="-306" rx="61.1934" ry="18"/> 
<a xlink:href="http://pir.georgetown.edu/cgi-bin/pt_graphvizView.pl?togoid=0060089" ><text id="GO:0060089" onmousemove="changeToText('GO:0060089')" onmouseout="changeBackText('GO:0060089')"  text-anchor="middle" x="3604" y="-301.8" font-family="Times,serif" font-size="14.00">GO:0060089</text></a>
 
</a> 
</g> 
<!-- c0&#45;&gt;q0 --> 
<g id="edge84" class="edge"><title>c0&#45;&gt;q0</title> 
<path fill="none" stroke="black" d="M3181.74,-370.659C3265.2,-362.423 3410.08,-346.401 3533,-324 3538.38,-323.02 3543.96,-321.888 3549.52,-320.682"/> 
<polygon fill="black" stroke="black" points="3550.48,-324.055 3559.47,-318.451 3548.94,-317.225 3550.48,-324.055"/> 
</g> 
<!-- u0 --> 
<g id="node73" class="node"><title>u0</title> 
<ellipse fill="#e98576" stroke="#e98576" cx="3759" cy="-306" rx="75.2018" ry="18"/> 
<a xlink:href="http://pir.georgetown.edu/cgi-bin/pt_graphvizView.pl?togoid=0016209" ><text id="GO:0016209" onmousemove="changeToText('GO:0016209')" onmouseout="changeBackText('GO:0016209')"  text-anchor="middle" x="3759" y="-306.8" font-family="Times,serif" font-size="14.00">GO:0016209</text></a>
<a xlink:href="http://pir.georgetown.edu/cgi-bin/pt_graphvizView.pl?tofile=325093" ><text id="r325093" onmousemove="changeToText2('r325093', 3)" onmouseout="changeBackText2('r325093', 3)"  text-anchor="middle" x="3759" y="-293.8" font-family="Times,serif" font-size="14.00">(3)</text>
 
</a> 
</g> 
<!-- c0&#45;&gt;u0 --> 
<g id="edge70" class="edge"><title>c0&#45;&gt;u0</title> 
<path fill="none" stroke="black" d="M3185.02,-372.583C3292.06,-365.48 3499.29,-349.654 3674,-324 3680.8,-323.001 3687.88,-321.817 3694.93,-320.546"/> 
<polygon fill="black" stroke="black" points="3696,-323.907 3705.19,-318.633 3694.71,-317.026 3696,-323.907"/> 
</g> 
<!-- e1 --> 
<g id="node9" class="node"><title>e1</title> 
<ellipse fill="#e98576" stroke="#e98576" cx="1235" cy="-234" rx="75.2018" ry="18"/> 
<a xlink:href="http://pir.georgetown.edu/cgi-bin/pt_graphvizView.pl?togoid=0042277" ><text id="GO:0042277" onmousemove="changeToText('GO:0042277')" onmouseout="changeBackText('GO:0042277')"  text-anchor="middle" x="1235" y="-234.8" font-family="Times,serif" font-size="14.00">GO:0042277</text></a>
<a xlink:href="http://pir.georgetown.edu/cgi-bin/pt_graphvizView.pl?tofile=325117" ><text id="r325117" onmousemove="changeToText2('r325117', 2)" onmouseout="changeBackText2('r325117', 2)"  text-anchor="middle" x="1235" y="-221.8" font-family="Times,serif" font-size="14.00">(2)</text>
 
</a> 
</g> 
<!-- b0&#45;&gt;e1 --> 
<g id="edge6" class="edge"><title>b0&#45;&gt;e1</title> 
<path fill="none" stroke="black" d="M2724.8,-292.977C2714.32,-290.977 2703.35,-289.174 2693,-288 2086.02,-219.155 1925.98,-320.845 1319,-252 1311.89,-251.193 1304.48,-250.089 1297.14,-248.827"/> 
<polygon fill="black" stroke="black" points="1297.67,-245.367 1287.2,-247.023 1296.42,-252.254 1297.67,-245.367"/> 
</g> 
<!-- d1 --> 
<g id="node11" class="node"><title>d1</title> 
<ellipse fill="#e98576" stroke="#e98576" cx="1403" cy="-234" rx="75.2018" ry="18"/> 
<a xlink:href="http://pir.georgetown.edu/cgi-bin/pt_graphvizView.pl?togoid=0019825" ><text id="GO:0019825" onmousemove="changeToText('GO:0019825')" onmouseout="changeBackText('GO:0019825')"  text-anchor="middle" x="1403" y="-234.8" font-family="Times,serif" font-size="14.00">GO:0019825</text></a>
<a xlink:href="http://pir.georgetown.edu/cgi-bin/pt_graphvizView.pl?tofile=325115" ><text id="r325115" onmousemove="changeToText2('r325115', 2)" onmouseout="changeBackText2('r325115', 2)"  text-anchor="middle" x="1403" y="-221.8" font-family="Times,serif" font-size="14.00">(2)</text>
 
</a> 
</g> 
<!-- b0&#45;&gt;d1 --> 
<g id="edge8" class="edge"><title>b0&#45;&gt;d1</title> 
<path fill="none" stroke="black" d="M2724.79,-293.007C2714.32,-291.004 2703.35,-289.193 2693,-288 2160.29,-226.595 2019.71,-313.405 1487,-252 1479.89,-251.18 1472.48,-250.068 1465.14,-248.802"/> 
<polygon fill="black" stroke="black" points="1465.67,-245.341 1455.21,-246.993 1464.42,-252.228 1465.67,-245.341"/> 
</g> 
<!-- a0 --> 
<g id="node13" class="node"><title>a0</title> 
<ellipse fill="#e98576" stroke="#e98576" cx="1576" cy="-234" rx="79.4447" ry="18"/> 
<a xlink:href="http://pir.georgetown.edu/cgi-bin/pt_graphvizView.pl?togoid=0005515" ><text id="GO:0005515" onmousemove="changeToText('GO:0005515')" onmouseout="changeBackText('GO:0005515')"  text-anchor="middle" x="1576" y="-234.8" font-family="Times,serif" font-size="14.00">GO:0005515</text></a>
<a xlink:href="http://pir.georgetown.edu/cgi-bin/pt_graphvizView.pl?tofile=325059" ><text id="r325059" onmousemove="changeToText2('r325059', 42)" onmouseout="changeBackText2('r325059', 42)"  text-anchor="middle" x="1576" y="-221.8" font-family="Times,serif" font-size="14.00">(42)</text>
 
</a> 
</g> 
<!-- b0&#45;&gt;a0 --> 
<g id="edge10" class="edge"><title>b0&#45;&gt;a0</title> 
<path fill="none" stroke="black" d="M2724.79,-293.049C2714.31,-291.043 2703.34,-289.219 2693,-288 2238.97,-234.477 2119.31,-303.038 1665,-252 1657.31,-251.136 1649.28,-249.975 1641.34,-248.665"/> 
<polygon fill="black" stroke="black" points="1641.8,-245.192 1631.35,-246.935 1640.6,-252.09 1641.8,-245.192"/> 
</g> 
<!-- k1 --> 
<g id="node15" class="node"><title>k1</title> 
<ellipse fill="#e98576" stroke="#e98576" cx="1749" cy="-234" rx="75.2018" ry="18"/> 
<a xlink:href="http://pir.georgetown.edu/cgi-bin/pt_graphvizView.pl?togoid=0043021" ><text id="GO:0043021" onmousemove="changeToText('GO:0043021')" onmouseout="changeBackText('GO:0043021')"  text-anchor="middle" x="1749" y="-234.8" font-family="Times,serif" font-size="14.00">GO:0043021</text></a>
<a xlink:href="http://pir.georgetown.edu/cgi-bin/pt_graphvizView.pl?tofile=325129" ><text id="r325129" onmousemove="changeToText2('r325129', 1)" onmouseout="changeBackText2('r325129', 1)"  text-anchor="middle" x="1749" y="-221.8" font-family="Times,serif" font-size="14.00">(1)</text>
 
</a> 
</g> 
<!-- b0&#45;&gt;k1 --> 
<g id="edge12" class="edge"><title>b0&#45;&gt;k1</title> 
<path fill="none" stroke="black" d="M2724.33,-293.019C2713.99,-291.042 2703.19,-289.237 2693,-288 2313.23,-241.915 2212.77,-298.085 1833,-252 1826.15,-251.169 1819.03,-250.082 1811.96,-248.858"/> 
<polygon fill="black" stroke="black" points="1812.13,-245.332 1801.67,-246.981 1810.88,-252.219 1812.13,-245.332"/> 
</g> 
<!-- j1 --> 
<g id="node24" class="node"><title>j1</title> 
<ellipse fill="#e98576" stroke="#e98576" cx="1917" cy="-234" rx="75.2018" ry="18"/> 
<a xlink:href="http://pir.georgetown.edu/cgi-bin/pt_graphvizView.pl?togoid=0005496" ><text id="GO:0005496" onmousemove="changeToText('GO:0005496')" onmouseout="changeBackText('GO:0005496')"  text-anchor="middle" x="1917" y="-234.8" font-family="Times,serif" font-size="14.00">GO:0005496</text></a>
<a xlink:href="http://pir.georgetown.edu/cgi-bin/pt_graphvizView.pl?tofile=325127" ><text id="r325127" onmousemove="changeToText2('r325127', 1)" onmouseout="changeBackText2('r325127', 1)"  text-anchor="middle" x="1917" y="-221.8" font-family="Times,serif" font-size="14.00">(1)</text>
 
</a> 
</g> 
<!-- b0&#45;&gt;j1 --> 
<g id="edge20" class="edge"><title>b0&#45;&gt;j1</title> 
<path fill="none" stroke="black" d="M2724.32,-293.102C2713.98,-291.117 2703.19,-289.288 2693,-288 2387.46,-249.35 2306.54,-290.65 2001,-252 1994.16,-251.134 1987.04,-250.025 1979.97,-248.788"/> 
<polygon fill="black" stroke="black" points="1980.15,-245.262 1969.68,-246.898 1978.88,-252.147 1980.15,-245.262"/> 
</g> 
<!-- d0 --> 
<g id="node28" class="node"><title>d0</title> 
<ellipse fill="#e98576" stroke="#e98576" cx="2090" cy="-234" rx="79.4447" ry="18"/> 
<a xlink:href="http://pir.georgetown.edu/cgi-bin/pt_graphvizView.pl?togoid=0043167" ><text id="GO:0043167" onmousemove="changeToText('GO:0043167')" onmouseout="changeBackText('GO:0043167')"  text-anchor="middle" x="2090" y="-234.8" font-family="Times,serif" font-size="14.00">GO:0043167</text></a>
<a xlink:href="http://pir.georgetown.edu/cgi-bin/pt_graphvizView.pl?tofile=325061" ><text id="r325061" onmousemove="changeToText2('r325061', 38)" onmouseout="changeBackText2('r325061', 38)"  text-anchor="middle" x="2090" y="-221.8" font-family="Times,serif" font-size="14.00">(38)</text>
 
</a> 
</g> 
<!-- b0&#45;&gt;d0 --> 
<g id="edge24" class="edge"><title>b0&#45;&gt;d0</title> 
<path fill="none" stroke="black" d="M2723.85,-293.161C2713.65,-291.197 2703.03,-289.36 2693,-288 2466.07,-257.223 2406.09,-281.535 2179,-252 2171.62,-251.041 2163.94,-249.856 2156.31,-248.562"/> 
<polygon fill="black" stroke="black" points="2156.79,-245.093 2146.34,-246.807 2155.58,-251.987 2156.79,-245.093"/> 
</g> 
<!-- q1 --> 
<g id="node31" class="node"><title>q1</title> 
<ellipse fill="#e98576" stroke="#e98576" cx="2263" cy="-234" rx="75.2018" ry="18"/> 
<a xlink:href="http://pir.georgetown.edu/cgi-bin/pt_graphvizView.pl?togoid=0030246" ><text id="GO:0030246" onmousemove="changeToText('GO:0030246')" onmouseout="changeBackText('GO:0030246')"  text-anchor="middle" x="2263" y="-234.8" font-family="Times,serif" font-size="14.00">GO:0030246</text></a>
<a xlink:href="http://pir.georgetown.edu/cgi-bin/pt_graphvizView.pl?tofile=325135" ><text id="r325135" onmousemove="changeToText2('r325135', 1)" onmouseout="changeBackText2('r325135', 1)"  text-anchor="middle" x="2263" y="-221.8" font-family="Times,serif" font-size="14.00">(1)</text>
 
</a> 
</g> 
<!-- b0&#45;&gt;q1 --> 
<g id="edge28" class="edge"><title>b0&#45;&gt;q1</title> 
<path fill="none" stroke="black" d="M2723.36,-293.347C2713.3,-291.389 2702.85,-289.506 2693,-288 2540.17,-264.639 2499.83,-275.361 2347,-252 2340.38,-250.988 2333.49,-249.806 2326.63,-248.546"/> 
<polygon fill="black" stroke="black" points="2327.11,-245.075 2316.64,-246.653 2325.81,-251.953 2327.11,-245.075"/> 
</g> 
<!-- v0 --> 
<g id="node35" class="node"><title>v0</title> 
<ellipse fill="#e98576" stroke="#e98576" cx="2431" cy="-234" rx="75.2018" ry="18"/> 
<a xlink:href="http://pir.georgetown.edu/cgi-bin/pt_graphvizView.pl?togoid=0043178" ><text id="GO:0043178" onmousemove="changeToText('GO:0043178')" onmouseout="changeBackText('GO:0043178')"  text-anchor="middle" x="2431" y="-234.8" font-family="Times,serif" font-size="14.00">GO:0043178</text></a>
<a xlink:href="http://pir.georgetown.edu/cgi-bin/pt_graphvizView.pl?tofile=325097" ><text id="r325097" onmousemove="changeToText2('r325097', 3)" onmouseout="changeBackText2('r325097', 3)"  text-anchor="middle" x="2431" y="-221.8" font-family="Times,serif" font-size="14.00">(3)</text>
 
</a> 
</g> 
<!-- b0&#45;&gt;v0 --> 
<g id="edge32" class="edge"><title>b0&#45;&gt;v0</title> 
<path fill="none" stroke="black" d="M2721.41,-293.753C2660.12,-281.354 2561.61,-261.424 2496.59,-248.27"/> 
<polygon fill="black" stroke="black" points="2496.95,-244.771 2486.45,-246.219 2495.56,-251.632 2496.95,-244.771"/> 
</g> 
<!-- e0 --> 
<g id="node37" class="node"><title>e0</title> 
<ellipse fill="#e98576" stroke="#e98576" cx="2604" cy="-234" rx="79.4447" ry="18"/> 
<a xlink:href="http://pir.georgetown.edu/cgi-bin/pt_graphvizView.pl?togoid=0003676" ><text id="GO:0003676" onmousemove="changeToText('GO:0003676')" onmouseout="changeBackText('GO:0003676')"  text-anchor="middle" x="2604" y="-234.8" font-family="Times,serif" font-size="14.00">GO:0003676</text></a>
<a xlink:href="http://pir.georgetown.edu/cgi-bin/pt_graphvizView.pl?tofile=325063" ><text id="r325063" onmousemove="changeToText2('r325063', 17)" onmouseout="changeBackText2('r325063', 17)"  text-anchor="middle" x="2604" y="-221.8" font-family="Times,serif" font-size="14.00">(17)</text>
 
</a> 
</g> 
<!-- b0&#45;&gt;e0 --> 
<g id="edge34" class="edge"><title>b0&#45;&gt;e0</title> 
<path fill="none" stroke="black" d="M2740.31,-290.155C2714.14,-279.564 2678.73,-265.239 2650.57,-253.842"/> 
<polygon fill="black" stroke="black" points="2651.52,-250.451 2640.93,-249.944 2648.89,-256.94 2651.52,-250.451"/> 
</g> 
<!-- c1 --> 
<g id="node46" class="node"><title>c1</title> 
<ellipse fill="#e98576" stroke="#e98576" cx="2777" cy="-234" rx="75.2018" ry="18"/> 
<a xlink:href="http://pir.georgetown.edu/cgi-bin/pt_graphvizView.pl?togoid=0048037" ><text id="GO:0048037" onmousemove="changeToText('GO:0048037')" onmouseout="changeBackText('GO:0048037')"  text-anchor="middle" x="2777" y="-234.8" font-family="Times,serif" font-size="14.00">GO:0048037</text></a>
<a xlink:href="http://pir.georgetown.edu/cgi-bin/pt_graphvizView.pl?tofile=325113" ><text id="r325113" onmousemove="changeToText2('r325113', 2)" onmouseout="changeBackText2('r325113', 2)"  text-anchor="middle" x="2777" y="-221.8" font-family="Times,serif" font-size="14.00">(2)</text>
 
</a> 
</g> 
<!-- b0&#45;&gt;c1 --> 
<g id="edge44" class="edge"><title>b0&#45;&gt;c1</title> 
<path fill="none" stroke="black" d="M2777,-287.697C2777,-279.983 2777,-270.712 2777,-262.112"/> 
<polygon fill="black" stroke="black" points="2780.5,-262.104 2777,-252.104 2773.5,-262.104 2780.5,-262.104"/> 
</g> 
<!-- i1 --> 
<g id="node48" class="node"><title>i1</title> 
<ellipse fill="#e98576" stroke="#e98576" cx="2945" cy="-234" rx="75.2018" ry="18"/> 
<a xlink:href="http://pir.georgetown.edu/cgi-bin/pt_graphvizView.pl?togoid=0050840" ><text id="GO:0050840" onmousemove="changeToText('GO:0050840')" onmouseout="changeBackText('GO:0050840')"  text-anchor="middle" x="2945" y="-234.8" font-family="Times,serif" font-size="14.00">GO:0050840</text></a>
<a xlink:href="http://pir.georgetown.edu/cgi-bin/pt_graphvizView.pl?tofile=325125" ><text id="r325125" onmousemove="changeToText2('r325125', 1)" onmouseout="changeBackText2('r325125', 1)"  text-anchor="middle" x="2945" y="-221.8" font-family="Times,serif" font-size="14.00">(1)</text>
 
</a> 
</g> 
<!-- b0&#45;&gt;i1 --> 
<g id="edge46" class="edge"><title>b0&#45;&gt;i1</title> 
<path fill="none" stroke="black" d="M2812.63,-290.155C2838.05,-279.564 2872.43,-265.239 2899.78,-253.842"/> 
<polygon fill="black" stroke="black" points="2901.25,-257.021 2909.13,-249.944 2898.56,-250.56 2901.25,-257.021"/> 
</g> 
<!-- k0 --> 
<g id="node50" class="node"><title>k0</title> 
<ellipse fill="#e98576" stroke="#e98576" cx="3113" cy="-234" rx="75.2018" ry="18"/> 
<a xlink:href="http://pir.georgetown.edu/cgi-bin/pt_graphvizView.pl?togoid=0003823" ><text id="GO:0003823" onmousemove="changeToText('GO:0003823')" onmouseout="changeBackText('GO:0003823')"  text-anchor="middle" x="3113" y="-234.8" font-family="Times,serif" font-size="14.00">GO:0003823</text></a>
<a xlink:href="http://pir.georgetown.edu/cgi-bin/pt_graphvizView.pl?tofile=325073" ><text id="r325073" onmousemove="changeToText2('r325073', 8)" onmouseout="changeBackText2('r325073', 8)"  text-anchor="middle" x="3113" y="-221.8" font-family="Times,serif" font-size="14.00">(8)</text>
 
</a> 
</g> 
<!-- b0&#45;&gt;k0 --> 
<g id="edge48" class="edge"><title>b0&#45;&gt;k0</title> 
<path fill="none" stroke="black" d="M2831.73,-293.597C2891.04,-281.242 2985.6,-261.541 3048.48,-248.441"/> 
<polygon fill="black" stroke="black" points="3049.22,-251.864 3058.29,-246.398 3047.79,-245.011 3049.22,-251.864"/> 
</g> 
<!-- h0 --> 
<g id="node55" class="node"><title>h0</title> 
<ellipse fill="#e98576" stroke="#e98576" cx="3286" cy="-234" rx="79.4447" ry="18"/> 
<a xlink:href="http://pir.georgetown.edu/cgi-bin/pt_graphvizView.pl?togoid=0008289" ><text id="GO:0008289" onmousemove="changeToText('GO:0008289')" onmouseout="changeBackText('GO:0008289')"  text-anchor="middle" x="3286" y="-234.8" font-family="Times,serif" font-size="14.00">GO:0008289</text></a>
<a xlink:href="http://pir.georgetown.edu/cgi-bin/pt_graphvizView.pl?tofile=325067" ><text id="r325067" onmousemove="changeToText2('r325067', 11)" onmouseout="changeBackText2('r325067', 11)"  text-anchor="middle" x="3286" y="-221.8" font-family="Times,serif" font-size="14.00">(11)</text>
 
</a> 
</g> 
<!-- b0&#45;&gt;h0 --> 
<g id="edge52" class="edge"><title>b0&#45;&gt;h0</title> 
<path fill="none" stroke="black" d="M2830.64,-293.372C2840.7,-291.411 2851.15,-289.521 2861,-288 3009.43,-265.08 3048.45,-274.108 3197,-252 3204.17,-250.933 3211.64,-249.7 3219.07,-248.395"/> 
<polygon fill="black" stroke="black" points="3219.92,-251.797 3229.14,-246.579 3218.68,-244.908 3219.92,-251.797"/> 
</g> 
<!-- n0 --> 
<g id="node63" class="node"><title>n0</title> 
<ellipse fill="#e98576" stroke="#e98576" cx="3459" cy="-234" rx="75.2018" ry="18"/> 
<a xlink:href="http://pir.georgetown.edu/cgi-bin/pt_graphvizView.pl?togoid=0001882" ><text id="GO:0001882" onmousemove="changeToText('GO:0001882')" onmouseout="changeBackText('GO:0001882')"  text-anchor="middle" x="3459" y="-234.8" font-family="Times,serif" font-size="14.00">GO:0001882</text></a>
<a xlink:href="http://pir.georgetown.edu/cgi-bin/pt_graphvizView.pl?tofile=325079" ><text id="r325079" onmousemove="changeToText2('r325079', 6)" onmouseout="changeBackText2('r325079', 6)"  text-anchor="middle" x="3459" y="-221.8" font-family="Times,serif" font-size="14.00">(6)</text>
 
</a> 
</g> 
<!-- b0&#45;&gt;n0 --> 
<g id="edge60" class="edge"><title>b0&#45;&gt;n0</title> 
<path fill="none" stroke="black" d="M2830.15,-293.162C2840.35,-291.198 2850.97,-289.36 2861,-288 3087.49,-257.267 3147.48,-282.474 3374,-252 3381.08,-251.048 3388.45,-249.865 3395.76,-248.57"/> 
<polygon fill="black" stroke="black" points="3396.47,-251.999 3405.67,-246.745 3395.2,-245.114 3396.47,-251.999"/> 
</g> 
<!-- g1 --> 
<g id="node65" class="node"><title>g1</title> 
<ellipse fill="#e98576" stroke="#e98576" cx="3627" cy="-234" rx="75.2018" ry="18"/> 
<a xlink:href="http://pir.georgetown.edu/cgi-bin/pt_graphvizView.pl?togoid=0008144" ><text id="GO:0008144" onmousemove="changeToText('GO:0008144')" onmouseout="changeBackText('GO:0008144')"  text-anchor="middle" x="3627" y="-234.8" font-family="Times,serif" font-size="14.00">GO:0008144</text></a>
<a xlink:href="http://pir.georgetown.edu/cgi-bin/pt_graphvizView.pl?tofile=325121" ><text id="r325121" onmousemove="changeToText2('r325121', 1)" onmouseout="changeBackText2('r325121', 1)"  text-anchor="middle" x="3627" y="-221.8" font-family="Times,serif" font-size="14.00">(1)</text>
 
</a> 
</g> 
<!-- b0&#45;&gt;g1 --> 
<g id="edge62" class="edge"><title>b0&#45;&gt;g1</title> 
<path fill="none" stroke="black" d="M2829.68,-293.108C2840.02,-291.123 2850.82,-289.292 2861,-288 3162.12,-249.793 3241.88,-290.207 3543,-252 3549.84,-251.132 3556.96,-250.02 3564.03,-248.783"/> 
<polygon fill="black" stroke="black" points="3565.12,-252.142 3574.32,-246.892 3563.85,-245.257 3565.12,-252.142"/> 
</g> 
<!-- y0 --> 
<g id="node67" class="node"><title>y0</title> 
<ellipse fill="#e98576" stroke="#e98576" cx="3795" cy="-234" rx="75.2018" ry="18"/> 
<a xlink:href="http://pir.georgetown.edu/cgi-bin/pt_graphvizView.pl?togoid=0019842" ><text id="GO:0019842" onmousemove="changeToText('GO:0019842')" onmouseout="changeBackText('GO:0019842')"  text-anchor="middle" x="3795" y="-234.8" font-family="Times,serif" font-size="14.00">GO:0019842</text></a>
<a xlink:href="http://pir.georgetown.edu/cgi-bin/pt_graphvizView.pl?tofile=325105" ><text id="r325105" onmousemove="changeToText2('r325105', 2)" onmouseout="changeBackText2('r325105', 2)"  text-anchor="middle" x="3795" y="-221.8" font-family="Times,serif" font-size="14.00">(2)</text>
 
</a> 
</g> 
<!-- b0&#45;&gt;y0 --> 
<g id="edge64" class="edge"><title>b0&#45;&gt;y0</title> 
<path fill="none" stroke="black" d="M2829.67,-293.023C2840.01,-291.046 2850.81,-289.239 2861,-288 3236.35,-242.357 3335.65,-297.643 3711,-252 3717.85,-251.167 3724.97,-250.079 3732.04,-248.854"/> 
<polygon fill="black" stroke="black" points="3733.12,-252.215 3742.33,-246.977 3731.87,-245.329 3733.12,-252.215"/> 
</g> 
<!-- w0 --> 
<g id="node75" class="node"><title>w0</title> 
<ellipse fill="#e98576" stroke="#e98576" cx="3963" cy="-234" rx="75.2018" ry="18"/> 
<a xlink:href="http://pir.georgetown.edu/cgi-bin/pt_graphvizView.pl?togoid=0031406" ><text id="GO:0031406" onmousemove="changeToText('GO:0031406')" onmouseout="changeBackText('GO:0031406')"  text-anchor="middle" x="3963" y="-234.8" font-family="Times,serif" font-size="14.00">GO:0031406</text></a>
<a xlink:href="http://pir.georgetown.edu/cgi-bin/pt_graphvizView.pl?tofile=325099" ><text id="r325099" onmousemove="changeToText2('r325099', 3)" onmouseout="changeBackText2('r325099', 3)"  text-anchor="middle" x="3963" y="-221.8" font-family="Times,serif" font-size="14.00">(3)</text>
 
</a> 
</g> 
<!-- b0&#45;&gt;w0 --> 
<g id="edge72" class="edge"><title>b0&#45;&gt;w0</title> 
<path fill="none" stroke="black" d="M2829.21,-293.052C2839.69,-291.046 2850.66,-289.221 2861,-288 3310.6,-234.92 3429.4,-305.08 3879,-252 3886.11,-251.16 3893.52,-250.036 3900.86,-248.763"/> 
<polygon fill="black" stroke="black" points="3901.58,-252.189 3910.79,-246.948 3900.32,-245.303 3901.58,-252.189"/> 
</g> 
<!-- s0 --> 
<g id="node80" class="node"><title>s0</title> 
<ellipse fill="#e98576" stroke="#e98576" cx="4131" cy="-234" rx="75.2018" ry="18"/> 
<a xlink:href="http://pir.georgetown.edu/cgi-bin/pt_graphvizView.pl?togoid=0046906" ><text id="GO:0046906" onmousemove="changeToText('GO:0046906')" onmouseout="changeBackText('GO:0046906')"  text-anchor="middle" x="4131" y="-234.8" font-family="Times,serif" font-size="14.00">GO:0046906</text></a>
<a xlink:href="http://pir.georgetown.edu/cgi-bin/pt_graphvizView.pl?tofile=325089" ><text id="r325089" onmousemove="changeToText2('r325089', 4)" onmouseout="changeBackText2('r325089', 4)"  text-anchor="middle" x="4131" y="-221.8" font-family="Times,serif" font-size="14.00">(4)</text>
 
</a> 
</g> 
<!-- b0&#45;&gt;s0 --> 
<g id="edge78" class="edge"><title>b0&#45;&gt;s0</title> 
<path fill="none" stroke="black" d="M2829.21,-293.011C2839.68,-291.008 2850.65,-289.195 2861,-288 3384.87,-227.48 3523.13,-312.52 4047,-252 4054.11,-251.178 4061.52,-250.065 4068.86,-248.798"/> 
<polygon fill="black" stroke="black" points="4069.58,-252.224 4078.79,-246.989 4068.33,-245.338 4069.58,-252.224"/> 
</g> 
<!-- l0 --> 
<g id="node82" class="node"><title>l0</title> 
<ellipse fill="#e98576" stroke="#e98576" cx="4299" cy="-234" rx="75.2018" ry="18"/> 
<a xlink:href="http://pir.georgetown.edu/cgi-bin/pt_graphvizView.pl?togoid=0000166" ><text id="GO:0000166" onmousemove="changeToText('GO:0000166')" onmouseout="changeBackText('GO:0000166')"  text-anchor="middle" x="4299" y="-234.8" font-family="Times,serif" font-size="14.00">GO:0000166</text></a>
<a xlink:href="http://pir.georgetown.edu/cgi-bin/pt_graphvizView.pl?tofile=325075" ><text id="r325075" onmousemove="changeToText2('r325075', 8)" onmouseout="changeBackText2('r325075', 8)"  text-anchor="middle" x="4299" y="-221.8" font-family="Times,serif" font-size="14.00">(8)</text>
 
</a> 
</g> 
<!-- b0&#45;&gt;l0 --> 
<g id="edge80" class="edge"><title>b0&#45;&gt;l0</title> 
<path fill="none" stroke="black" d="M2829.2,-292.98C2839.68,-290.98 2850.65,-289.176 2861,-288 3459.14,-220.04 3616.86,-319.96 4215,-252 4222.11,-251.192 4229.52,-250.086 4236.86,-248.825"/> 
<polygon fill="black" stroke="black" points="4237.58,-252.251 4246.8,-247.02 4236.33,-245.364 4237.58,-252.251"/> 
</g> 
<!-- i0 --> 
<g id="node19" class="node"><title>i0</title> 
<ellipse fill="#e98576" stroke="#e98576" cx="248" cy="-162" rx="79.4447" ry="18"/> 
<a xlink:href="http://pir.georgetown.edu/cgi-bin/pt_graphvizView.pl?togoid=0008233" ><text id="GO:0008233" onmousemove="changeToText('GO:0008233')" onmouseout="changeBackText('GO:0008233')"  text-anchor="middle" x="248" y="-162.8" font-family="Times,serif" font-size="14.00">GO:0008233</text></a>
<a xlink:href="http://pir.georgetown.edu/cgi-bin/pt_graphvizView.pl?tofile=325069" ><text id="r325069" onmousemove="changeToText2('r325069', 11)" onmouseout="changeBackText2('r325069', 11)"  text-anchor="middle" x="248" y="-149.8" font-family="Times,serif" font-size="14.00">(11)</text>
 
</a> 
</g> 
<!-- f0&#45;&gt;i0 --> 
<g id="edge16" class="edge"><title>f0&#45;&gt;i0</title> 
<path fill="none" stroke="black" d="M248,-215.697C248,-207.983 248,-198.712 248,-190.112"/> 
<polygon fill="black" stroke="black" points="251.5,-190.104 248,-180.104 244.5,-190.104 251.5,-190.104"/> 
</g> 
<!-- p1 --> 
<g id="node22" class="node"><title>p1</title> 
<ellipse fill="#e98576" stroke="#e98576" cx="421" cy="-162" rx="75.2018" ry="18"/> 
<a xlink:href="http://pir.georgetown.edu/cgi-bin/pt_graphvizView.pl?togoid=0004497" ><text id="GO:0004497" onmousemove="changeToText('GO:0004497')" onmouseout="changeBackText('GO:0004497')"  text-anchor="middle" x="421" y="-162.8" font-family="Times,serif" font-size="14.00">GO:0004497</text></a>
<a xlink:href="http://pir.georgetown.edu/cgi-bin/pt_graphvizView.pl?tofile=325133" ><text id="r325133" onmousemove="changeToText2('r325133', 1)" onmouseout="changeBackText2('r325133', 1)"  text-anchor="middle" x="421" y="-149.8" font-family="Times,serif" font-size="14.00">(1)</text>
 
</a> 
</g> 
<!-- r0&#45;&gt;p1 --> 
<g id="edge18" class="edge"><title>r0&#45;&gt;p1</title> 
<path fill="none" stroke="black" d="M421,-215.697C421,-207.983 421,-198.712 421,-190.112"/> 
<polygon fill="black" stroke="black" points="424.5,-190.104 421,-180.104 417.5,-190.104 424.5,-190.104"/> 
</g> 
<!-- n1 --> 
<g id="node57" class="node"><title>n1</title> 
<a xlink:href="http://pir.georgetown.edu/cgi-bin/pt_graphvizView.pl?togoid=0016879" > 
<ellipse fill="#dddddd" stroke="#dddddd" cx="576" cy="-162" rx="61.1934" ry="18"/> 
<a xlink:href="http://pir.georgetown.edu/cgi-bin/pt_graphvizView.pl?togoid=0016879" ><text id="GO:0016879" onmousemove="changeToText('GO:0016879')" onmouseout="changeBackText('GO:0016879')"  text-anchor="middle" x="576" y="-157.8" font-family="Times,serif" font-size="14.00">GO:0016879</text></a>
 
</a> 
</g> 
<!-- o1&#45;&gt;n1 --> 
<g id="edge54" class="edge"><title>o1&#45;&gt;n1</title> 
<path fill="none" stroke="black" d="M576,-215.697C576,-207.983 576,-198.712 576,-190.112"/> 
<polygon fill="black" stroke="black" points="579.5,-190.104 576,-180.104 572.5,-190.104 579.5,-190.104"/> 
</g> 
<!-- p0 --> 
<g id="node51" class="node"><title>p0</title> 
<ellipse fill="#e98576" stroke="#e98576" cx="4467" cy="-234" rx="75.2018" ry="18"/> 
<a xlink:href="http://pir.georgetown.edu/cgi-bin/pt_graphvizView.pl?togoid=0004871" ><text id="GO:0004871" onmousemove="changeToText('GO:0004871')" onmouseout="changeBackText('GO:0004871')"  text-anchor="middle" x="4467" y="-234.8" font-family="Times,serif" font-size="14.00">GO:0004871</text></a>
<a xlink:href="http://pir.georgetown.edu/cgi-bin/pt_graphvizView.pl?tofile=325095" ><text id="r325095" onmousemove="changeToText2('r325095', 3)" onmouseout="changeBackText2('r325095', 3)"  text-anchor="middle" x="4467" y="-221.8" font-family="Times,serif" font-size="14.00">(3)</text>
 
</a> 
</g> 
<!-- o0 --> 
<g id="node53" class="node"><title>o0</title> 
<ellipse fill="#e98576" stroke="#e98576" cx="4467" cy="-162" rx="75.2018" ry="18"/> 
<a xlink:href="http://pir.georgetown.edu/cgi-bin/pt_graphvizView.pl?togoid=0004872" ><text id="GO:0004872" onmousemove="changeToText('GO:0004872')" onmouseout="changeBackText('GO:0004872')"  text-anchor="middle" x="4467" y="-162.8" font-family="Times,serif" font-size="14.00">GO:0004872</text></a>
<a xlink:href="http://pir.georgetown.edu/cgi-bin/pt_graphvizView.pl?tofile=325083" ><text id="r325083" onmousemove="changeToText2('r325083', 5)" onmouseout="changeBackText2('r325083', 5)"  text-anchor="middle" x="4467" y="-149.8" font-family="Times,serif" font-size="14.00">(5)</text>
 
</a> 
</g> 
<!-- p0&#45;&gt;o0 --> 
<g id="edge50" class="edge"><title>p0&#45;&gt;o0</title> 
<path fill="none" stroke="black" d="M4467,-215.697C4467,-207.983 4467,-198.712 4467,-190.112"/> 
<polygon fill="black" stroke="black" points="4470.5,-190.104 4467,-180.104 4463.5,-190.104 4470.5,-190.104"/> 
</g> 
<!-- m1 --> 
<g id="node58" class="node"><title>m1</title> 
<a xlink:href="http://pir.georgetown.edu/cgi-bin/pt_graphvizView.pl?togoid=0016881" > 
<ellipse fill="#dddddd" stroke="#dddddd" cx="576" cy="-90" rx="61.1934" ry="18"/> 
<a xlink:href="http://pir.georgetown.edu/cgi-bin/pt_graphvizView.pl?togoid=0016881" ><text id="GO:0016881" onmousemove="changeToText('GO:0016881')" onmouseout="changeBackText('GO:0016881')"  text-anchor="middle" x="576" y="-85.8" font-family="Times,serif" font-size="14.00">GO:0016881</text></a>
 
</a> 
</g> 
<!-- n1&#45;&gt;m1 --> 
<g id="edge74" class="edge"><title>n1&#45;&gt;m1</title> 
<path fill="none" stroke="black" d="M576,-143.697C576,-135.983 576,-126.712 576,-118.112"/> 
<polygon fill="black" stroke="black" points="579.5,-118.104 576,-108.104 572.5,-118.104 579.5,-118.104"/> 
</g> 
<!-- l1 --> 
<g id="node60" class="node"><title>l1</title> 
<ellipse fill="#e98576" stroke="#e98576" cx="576" cy="-18" rx="75.2018" ry="18"/> 
<a xlink:href="http://pir.georgetown.edu/cgi-bin/pt_graphvizView.pl?togoid=0019787" ><text id="GO:0019787" onmousemove="changeToText('GO:0019787')" onmouseout="changeBackText('GO:0019787')"  text-anchor="middle" x="576" y="-18.8" font-family="Times,serif" font-size="14.00">GO:0019787</text></a>
<a xlink:href="http://pir.georgetown.edu/cgi-bin/pt_graphvizView.pl?tofile=325131" ><text id="r325131" onmousemove="changeToText2('r325131', 1)" onmouseout="changeBackText2('r325131', 1)"  text-anchor="middle" x="576" y="-5.8" font-family="Times,serif" font-size="14.00">(1)</text>
 
</a> 
</g> 
<!-- m1&#45;&gt;l1 --> 
<g id="edge56" class="edge"><title>m1&#45;&gt;l1</title> 
<path fill="none" stroke="black" d="M576,-71.6966C576,-63.9827 576,-54.7125 576,-46.1124"/> 
<polygon fill="black" stroke="black" points="579.5,-46.1043 576,-36.1043 572.5,-46.1044 579.5,-46.1043"/> 
</g> 
<!-- q0&#45;&gt;p0 --> 
<g id="edge68" class="edge"><title>q0&#45;&gt;p0</title> 
<path fill="none" stroke="black" d="M3647.69,-293.206C3656.66,-291.16 3666.09,-289.282 3675,-288 3986.86,-243.127 4070.39,-291.358 4383,-252 4389.84,-251.138 4396.96,-250.031 4404.03,-248.796"/> 
<polygon fill="black" stroke="black" points="4405.12,-252.156 4414.32,-246.908 4403.86,-245.27 4405.12,-252.156"/> 
</g> 
</g> 
<text text-anchor="left" x="4" y="-20" style="font-family:Arial Narrow;font-size:20.00;font-weight:bold;">GO Hierarchical View:</text> 

<text text-anchor="left" x="4" y="0" style="font-family:Arial Narrow;font-size:20.00;font-style:italic;">molecular function</text> 

<script type="text/ecmascript"> 
<![CDATA[ 
var targetText; 
function changeToText(z) { 
		targetText = svgDocument.getElementById(z).firstChild; 
		targetText.nodeValue="link to "+z; 
} 
function changeBackText(z) { 
		targetText = svgDocument.getElementById(z).firstChild; 
		targetText.nodeValue=z; 
} 
function changeToText2(z,n) { 
		targetText = svgDocument.getElementById(z).firstChild; 
		if (n<=1) { 
			targetText.nodeValue="link to " + n + " protein record"; 
		} else { 
			targetText.nodeValue="link to " + n + " protein records"; 
		} 
} 
function changeBackText2(z,n) { 
		targetText = svgDocument.getElementById(z).firstChild; 
		targetText.nodeValue="(" + n + ")"; 
} 
// ]]> 
</script> 
</svg> 
