<?xml version="1.0" encoding="UTF-8" standalone="no"?>
<!DOCTYPE svg PUBLIC "-//W3C//DTD SVG 1.1//EN"
 "http://www.w3.org/Graphics/SVG/1.1/DTD/svg11.dtd">
<!-- Generated by graphviz version 2.28.0 (20110622.2320)
 -->
<!-- Title: G Pages: 1 -->
<svg width="2015pt" height="404pt"
 viewBox="0.00 0.00 2015.00 404.00" xmlns="http://www.w3.org/2000/svg" xmlns:xlink="http://www.w3.org/1999/xlink">
<g id="graph1" class="graph" transform="scale(1 1) rotate(0) translate(4 400)">
<title>G</title>
<polygon fill="white" stroke="white" points="-4,5 -4,-400 2012,-400 2012,5 -4,5"/>
<!-- b0 -->
<g id="node1" class="node"><title>b0</title>
<a xlink:href="0008150" xlink:title="GO:0008150">
<ellipse fill="#dddddd" stroke="#dddddd" cx="1105" cy="-378" rx="61.1934" ry="18"/>
<text text-anchor="middle" x="1105" y="-373.8" font-family="Times,serif" font-size="14.00">GO:0008150</text>
</a>
</g>
<!-- i0 -->
<g id="node3" class="node"><title>i0</title>
<a xlink:href="0008152" xlink:title="GO:0008152 (1)">
<ellipse fill="#e98576" stroke="#e98576" cx="397" cy="-306" rx="75.2018" ry="18"/>
<text text-anchor="middle" x="397" y="-301.8" font-family="Times,serif" font-size="14.00">GO:0008152 (1)</text>
</a>
</g>
<!-- b0&#45;&gt;i0 -->
<g id="edge2" class="edge"><title>b0&#45;&gt;i0</title>
<path fill="none" stroke="black" d="M1047.53,-371.492C948.414,-361.972 738.946,-341.751 562,-324 533.418,-321.133 502.059,-317.919 474.426,-315.064"/>
<polygon fill="black" stroke="black" points="474.733,-311.577 464.426,-314.03 474.013,-318.54 474.733,-311.577"/>
</g>
<!-- p0 -->
<g id="node5" class="node"><title>p0</title>
<a xlink:href="0051234" xlink:title="GO:0051234">
<ellipse fill="#dddddd" stroke="#dddddd" cx="946" cy="-234" rx="61.1934" ry="18"/>
<text text-anchor="middle" x="946" y="-229.8" font-family="Times,serif" font-size="14.00">GO:0051234</text>
</a>
</g>
<!-- b0&#45;&gt;p0 -->
<g id="edge4" class="edge"><title>b0&#45;&gt;p0</title>
<path fill="none" stroke="black" d="M1082.32,-361.045C1068.31,-350.896 1050.17,-337.218 1035,-324 1021.96,-312.636 991.003,-281.284 969.283,-259.016"/>
<polygon fill="black" stroke="black" points="971.514,-256.29 962.03,-251.566 966.498,-261.173 971.514,-256.29"/>
</g>
<!-- q0 -->
<g id="node6" class="node"><title>q0</title>
<a xlink:href="0051179" xlink:title="GO:0051179">
<ellipse fill="#dddddd" stroke="#dddddd" cx="927" cy="-306" rx="61.1934" ry="18"/>
<text text-anchor="middle" x="927" y="-301.8" font-family="Times,serif" font-size="14.00">GO:0051179</text>
</a>
</g>
<!-- b0&#45;&gt;q0 -->
<g id="edge36" class="edge"><title>b0&#45;&gt;q0</title>
<path fill="none" stroke="black" d="M1069.83,-363.17C1041.67,-352.097 1002,-336.494 971.609,-324.543"/>
<polygon fill="black" stroke="black" points="972.681,-321.204 962.094,-320.801 970.119,-327.718 972.681,-321.204"/>
</g>
<!-- d0 -->
<g id="node16" class="node"><title>d0</title>
<a xlink:href="0065007" xlink:title="GO:0065007">
<ellipse fill="#dddddd" stroke="#dddddd" cx="1105" cy="-306" rx="61.1934" ry="18"/>
<text text-anchor="middle" x="1105" y="-301.8" font-family="Times,serif" font-size="14.00">GO:0065007</text>
</a>
</g>
<!-- b0&#45;&gt;d0 -->
<g id="edge38" class="edge"><title>b0&#45;&gt;d0</title>
<path fill="none" stroke="black" d="M1105,-359.697C1105,-351.983 1105,-342.712 1105,-334.112"/>
<polygon fill="black" stroke="black" points="1108.5,-334.104 1105,-324.104 1101.5,-334.104 1108.5,-334.104"/>
</g>
<!-- d1 -->
<g id="node24" class="node"><title>d1</title>
<a xlink:href="0001906" xlink:title="GO:0001906 (1)">
<ellipse fill="#e98576" stroke="#e98576" cx="1260" cy="-306" rx="75.2018" ry="18"/>
<text text-anchor="middle" x="1260" y="-301.8" font-family="Times,serif" font-size="14.00">GO:0001906 (1)</text>
</a>
</g>
<!-- b0&#45;&gt;d1 -->
<g id="edge20" class="edge"><title>b0&#45;&gt;d1</title>
<path fill="none" stroke="black" d="M1137.12,-362.496C1160.23,-352.056 1191.67,-337.86 1216.96,-326.439"/>
<polygon fill="black" stroke="black" points="1218.64,-329.518 1226.32,-322.212 1215.76,-323.138 1218.64,-329.518"/>
</g>
<!-- s0 -->
<g id="node26" class="node"><title>s0</title>
<a xlink:href="0002376" xlink:title="GO:0002376 (2)">
<ellipse fill="#e98576" stroke="#e98576" cx="1428" cy="-306" rx="75.2018" ry="18"/>
<text text-anchor="middle" x="1428" y="-301.8" font-family="Times,serif" font-size="14.00">GO:0002376 (2)</text>
</a>
</g>
<!-- b0&#45;&gt;s0 -->
<g id="edge22" class="edge"><title>b0&#45;&gt;s0</title>
<path fill="none" stroke="black" d="M1152.66,-366.671C1208.68,-354.531 1301.88,-334.333 1364.12,-320.844"/>
<polygon fill="black" stroke="black" points="1365.18,-324.195 1374.22,-318.656 1363.7,-317.354 1365.18,-324.195"/>
</g>
<!-- w0 -->
<g id="node35" class="node"><title>w0</title>
<a xlink:href="0022610" xlink:title="GO:0022610">
<ellipse fill="#dddddd" stroke="#dddddd" cx="786" cy="-306" rx="61.1934" ry="18"/>
<text text-anchor="middle" x="786" y="-301.8" font-family="Times,serif" font-size="14.00">GO:0022610</text>
</a>
</g>
<!-- b0&#45;&gt;w0 -->
<g id="edge32" class="edge"><title>b0&#45;&gt;w0</title>
<path fill="none" stroke="black" d="M1056.45,-366.991C1006.4,-356.586 926.133,-339.661 857,-324 852.028,-322.874 846.866,-321.682 841.697,-320.473"/>
<polygon fill="black" stroke="black" points="842.33,-317.026 831.793,-318.139 840.724,-323.839 842.33,-317.026"/>
</g>
<!-- a0 -->
<g id="node42" class="node"><title>a0</title>
<a xlink:href="0050896" xlink:title="GO:0050896 (3)">
<ellipse fill="#e98576" stroke="#e98576" cx="1596" cy="-306" rx="75.2018" ry="18"/>
<text text-anchor="middle" x="1596" y="-301.8" font-family="Times,serif" font-size="14.00">GO:0050896 (3)</text>
</a>
</g>
<!-- b0&#45;&gt;a0 -->
<g id="edge40" class="edge"><title>b0&#45;&gt;a0</title>
<path fill="none" stroke="black" d="M1161.48,-370.914C1240.23,-362.14 1387.41,-344.694 1512,-324 1518.51,-322.919 1525.28,-321.702 1532.04,-320.43"/>
<polygon fill="black" stroke="black" points="1532.72,-323.862 1541.88,-318.534 1531.4,-316.988 1532.72,-323.862"/>
</g>
<!-- m0 -->
<g id="node46" class="node"><title>m0</title>
<a xlink:href="0009987" xlink:title="GO:0009987">
<ellipse fill="#dddddd" stroke="#dddddd" cx="632" cy="-306" rx="61.1934" ry="18"/>
<text text-anchor="middle" x="632" y="-301.8" font-family="Times,serif" font-size="14.00">GO:0009987</text>
</a>
</g>
<!-- b0&#45;&gt;m0 -->
<g id="edge58" class="edge"><title>b0&#45;&gt;m0</title>
<path fill="none" stroke="black" d="M1049.11,-370.53C973.392,-361.504 834.111,-343.977 716,-324 707.473,-322.558 698.487,-320.894 689.691,-319.184"/>
<polygon fill="black" stroke="black" points="690.365,-315.749 679.876,-317.242 689.006,-322.616 690.365,-315.749"/>
</g>
<!-- a1 -->
<g id="node54" class="node"><title>a1</title>
<a xlink:href="0032501" xlink:title="GO:0032501 (1)">
<ellipse fill="#e98576" stroke="#e98576" cx="1764" cy="-306" rx="75.2018" ry="18"/>
<text text-anchor="middle" x="1764" y="-301.8" font-family="Times,serif" font-size="14.00">GO:0032501 (1)</text>
</a>
</g>
<!-- b0&#45;&gt;a1 -->
<g id="edge54" class="edge"><title>b0&#45;&gt;a1</title>
<path fill="none" stroke="black" d="M1164.43,-373.64C1269.06,-367.255 1492.79,-351.491 1680,-324 1686.63,-323.027 1693.52,-321.87 1700.38,-320.625"/>
<polygon fill="black" stroke="black" points="1701.2,-324.034 1710.38,-318.748 1699.9,-317.154 1701.2,-324.034"/>
</g>
<!-- z0 -->
<g id="node71" class="node"><title>z0</title>
<a xlink:href="0032502" xlink:title="GO:0032502 (1)">
<ellipse fill="#e98576" stroke="#e98576" cx="1932" cy="-306" rx="75.2018" ry="18"/>
<text text-anchor="middle" x="1932" y="-301.8" font-family="Times,serif" font-size="14.00">GO:0032502 (1)</text>
</a>
</g>
<!-- b0&#45;&gt;z0 -->
<g id="edge76" class="edge"><title>b0&#45;&gt;z0</title>
<path fill="none" stroke="black" d="M1165.95,-375.303C1293.2,-371.177 1596.21,-358.314 1848,-324 1854.74,-323.082 1861.74,-321.95 1868.71,-320.71"/>
<polygon fill="black" stroke="black" points="1869.66,-324.094 1878.85,-318.828 1868.38,-317.212 1869.66,-324.094"/>
</g>
<!-- h0 -->
<g id="node11" class="node"><title>h0</title>
<a xlink:href="0043170" xlink:title="GO:0043170">
<ellipse fill="#dddddd" stroke="#dddddd" cx="186" cy="-234" rx="61.1934" ry="18"/>
<text text-anchor="middle" x="186" y="-229.8" font-family="Times,serif" font-size="14.00">GO:0043170</text>
</a>
</g>
<!-- i0&#45;&gt;h0 -->
<g id="edge68" class="edge"><title>i0&#45;&gt;h0</title>
<path fill="none" stroke="black" d="M354.808,-291.003C320.181,-279.515 271.114,-263.237 234.799,-251.189"/>
<polygon fill="black" stroke="black" points="235.51,-247.738 224.917,-247.911 233.306,-254.382 235.51,-247.738"/>
</g>
<!-- l0 -->
<g id="node14" class="node"><title>l0</title>
<a xlink:href="0044237" xlink:title="GO:0044237">
<ellipse fill="#dddddd" stroke="#dddddd" cx="468" cy="-234" rx="61.1934" ry="18"/>
<text text-anchor="middle" x="468" y="-229.8" font-family="Times,serif" font-size="14.00">GO:0044237</text>
</a>
</g>
<!-- i0&#45;&gt;l0 -->
<g id="edge44" class="edge"><title>i0&#45;&gt;l0</title>
<path fill="none" stroke="black" d="M413.826,-288.411C422.845,-279.519 434.112,-268.411 444.032,-258.631"/>
<polygon fill="black" stroke="black" points="446.631,-260.983 451.295,-251.47 441.716,-255.998 446.631,-260.983"/>
</g>
<!-- j0 -->
<g id="node32" class="node"><title>j0</title>
<a xlink:href="0044238" xlink:title="GO:0044238">
<ellipse fill="#dddddd" stroke="#dddddd" cx="327" cy="-234" rx="61.1934" ry="18"/>
<text text-anchor="middle" x="327" y="-229.8" font-family="Times,serif" font-size="14.00">GO:0044238</text>
</a>
</g>
<!-- i0&#45;&gt;j0 -->
<g id="edge78" class="edge"><title>i0&#45;&gt;j0</title>
<path fill="none" stroke="black" d="M380.411,-288.411C371.519,-279.519 360.411,-268.411 350.631,-258.631"/>
<polygon fill="black" stroke="black" points="353.016,-256.066 343.47,-251.47 348.066,-261.016 353.016,-256.066"/>
</g>
<!-- o0 -->
<g id="node8" class="node"><title>o0</title>
<a xlink:href="0006810" xlink:title="GO:0006810 (2)">
<ellipse fill="#e98576" stroke="#e98576" cx="946" cy="-162" rx="75.2018" ry="18"/>
<text text-anchor="middle" x="946" y="-157.8" font-family="Times,serif" font-size="14.00">GO:0006810 (2)</text>
</a>
</g>
<!-- p0&#45;&gt;o0 -->
<g id="edge24" class="edge"><title>p0&#45;&gt;o0</title>
<path fill="none" stroke="black" d="M946,-215.697C946,-207.983 946,-198.712 946,-190.112"/>
<polygon fill="black" stroke="black" points="949.5,-190.104 946,-180.104 942.5,-190.104 949.5,-190.104"/>
</g>
<!-- q0&#45;&gt;p0 -->
<g id="edge6" class="edge"><title>q0&#45;&gt;p0</title>
<path fill="none" stroke="black" d="M931.697,-287.697C933.813,-279.898 936.362,-270.509 938.718,-261.829"/>
<polygon fill="black" stroke="black" points="942.116,-262.672 941.357,-252.104 935.36,-260.838 942.116,-262.672"/>
</g>
<!-- c1 -->
<g id="node10" class="node"><title>c1</title>
<a xlink:href="0006811" xlink:title="GO:0006811 (1)">
<ellipse fill="#e98576" stroke="#e98576" cx="1030" cy="-90" rx="75.2018" ry="18"/>
<text text-anchor="middle" x="1030" y="-85.8" font-family="Times,serif" font-size="14.00">GO:0006811 (1)</text>
</a>
</g>
<!-- o0&#45;&gt;c1 -->
<g id="edge8" class="edge"><title>o0&#45;&gt;c1</title>
<path fill="none" stroke="black" d="M965.907,-144.411C976.786,-135.345 990.431,-123.974 1002.33,-114.057"/>
<polygon fill="black" stroke="black" points="1004.79,-116.561 1010.24,-107.47 1000.31,-111.183 1004.79,-116.561"/>
</g>
<!-- r0 -->
<g id="node29" class="node"><title>r0</title>
<a xlink:href="0006869" xlink:title="GO:0006869 (2)">
<ellipse fill="#e98576" stroke="#e98576" cx="862" cy="-90" rx="75.2018" ry="18"/>
<text text-anchor="middle" x="862" y="-85.8" font-family="Times,serif" font-size="14.00">GO:0006869 (2)</text>
</a>
</g>
<!-- o0&#45;&gt;r0 -->
<g id="edge26" class="edge"><title>o0&#45;&gt;r0</title>
<path fill="none" stroke="black" d="M926.093,-144.411C915.214,-135.345 901.569,-123.974 889.669,-114.057"/>
<polygon fill="black" stroke="black" points="891.687,-111.183 881.764,-107.47 887.206,-116.561 891.687,-111.183"/>
</g>
<!-- k0 -->
<g id="node13" class="node"><title>k0</title>
<a xlink:href="0044260" xlink:title="GO:0044260">
<ellipse fill="#dddddd" stroke="#dddddd" cx="398" cy="-162" rx="61.1934" ry="18"/>
<text text-anchor="middle" x="398" y="-157.8" font-family="Times,serif" font-size="14.00">GO:0044260</text>
</a>
</g>
<!-- h0&#45;&gt;k0 -->
<g id="edge10" class="edge"><title>h0&#45;&gt;k0</title>
<path fill="none" stroke="black" d="M225.379,-219.998C260.334,-208.456 311.543,-191.547 349.109,-179.143"/>
<polygon fill="black" stroke="black" points="350.434,-182.392 358.832,-175.933 348.239,-175.745 350.434,-182.392"/>
</g>
<!-- g0 -->
<g id="node31" class="node"><title>g0</title>
<a xlink:href="0019538" xlink:title="GO:0019538 (2)">
<ellipse fill="#e98576" stroke="#e98576" cx="75" cy="-162" rx="75.2018" ry="18"/>
<text text-anchor="middle" x="75" y="-157.8" font-family="Times,serif" font-size="14.00">GO:0019538 (2)</text>
</a>
</g>
<!-- h0&#45;&gt;g0 -->
<g id="edge28" class="edge"><title>h0&#45;&gt;g0</title>
<path fill="none" stroke="black" d="M161.366,-217.465C145.919,-207.724 125.795,-195.033 108.859,-184.353"/>
<polygon fill="black" stroke="black" points="110.661,-181.351 100.335,-178.977 106.927,-187.272 110.661,-181.351"/>
</g>
<!-- f0 -->
<g id="node36" class="node"><title>f0</title>
<a xlink:href="0044267" xlink:title="GO:0044267">
<ellipse fill="#dddddd" stroke="#dddddd" cx="223" cy="-90" rx="61.1934" ry="18"/>
<text text-anchor="middle" x="223" y="-85.8" font-family="Times,serif" font-size="14.00">GO:0044267</text>
</a>
</g>
<!-- k0&#45;&gt;f0 -->
<g id="edge72" class="edge"><title>k0&#45;&gt;f0</title>
<path fill="none" stroke="black" d="M363.007,-147.003C335.375,-135.95 296.659,-120.463 266.941,-108.576"/>
<polygon fill="black" stroke="black" points="268.219,-105.318 257.634,-104.854 265.619,-111.817 268.219,-105.318"/>
</g>
<!-- l0&#45;&gt;k0 -->
<g id="edge12" class="edge"><title>l0&#45;&gt;k0</title>
<path fill="none" stroke="black" d="M451.411,-216.411C442.519,-207.519 431.411,-196.411 421.631,-186.631"/>
<polygon fill="black" stroke="black" points="424.016,-184.066 414.47,-179.47 419.066,-189.016 424.016,-184.066"/>
</g>
<!-- b1 -->
<g id="node22" class="node"><title>b1</title>
<a xlink:href="0006066" xlink:title="GO:0006066 (1)">
<ellipse fill="#e98576" stroke="#e98576" cx="694" cy="-162" rx="75.2018" ry="18"/>
<text text-anchor="middle" x="694" y="-157.8" font-family="Times,serif" font-size="14.00">GO:0006066 (1)</text>
</a>
</g>
<!-- l0&#45;&gt;b1 -->
<g id="edge18" class="edge"><title>l0&#45;&gt;b1</title>
<path fill="none" stroke="black" d="M508.665,-220.405C545.413,-209.023 599.767,-192.187 640.119,-179.689"/>
<polygon fill="black" stroke="black" points="641.281,-182.993 649.798,-176.691 639.21,-176.306 641.281,-182.993"/>
</g>
<!-- u0 -->
<g id="node51" class="node"><title>u0</title>
<a xlink:href="0006139" xlink:title="GO:0006139">
<ellipse fill="#dddddd" stroke="#dddddd" cx="539" cy="-162" rx="61.1934" ry="18"/>
<text text-anchor="middle" x="539" y="-157.8" font-family="Times,serif" font-size="14.00">GO:0006139</text>
</a>
</g>
<!-- l0&#45;&gt;u0 -->
<g id="edge50" class="edge"><title>l0&#45;&gt;u0</title>
<path fill="none" stroke="black" d="M484.826,-216.411C493.845,-207.519 505.112,-196.411 515.032,-186.631"/>
<polygon fill="black" stroke="black" points="517.631,-188.983 522.295,-179.47 512.716,-183.998 517.631,-188.983"/>
</g>
<!-- n0 -->
<g id="node18" class="node"><title>n0</title>
<a xlink:href="0065009" xlink:title="GO:0065009 (2)">
<ellipse fill="#e98576" stroke="#e98576" cx="1101" cy="-234" rx="75.2018" ry="18"/>
<text text-anchor="middle" x="1101" y="-229.8" font-family="Times,serif" font-size="14.00">GO:0065009 (2)</text>
</a>
</g>
<!-- d0&#45;&gt;n0 -->
<g id="edge14" class="edge"><title>d0&#45;&gt;n0</title>
<path fill="none" stroke="black" d="M1104.01,-287.697C1103.57,-279.983 1103.04,-270.712 1102.55,-262.112"/>
<polygon fill="black" stroke="black" points="1106.04,-261.888 1101.98,-252.104 1099.05,-262.288 1106.04,-261.888"/>
</g>
<!-- c0 -->
<g id="node20" class="node"><title>c0</title>
<a xlink:href="0050789" xlink:title="GO:0050789 (3)">
<ellipse fill="#e98576" stroke="#e98576" cx="1269" cy="-234" rx="75.2018" ry="18"/>
<text text-anchor="middle" x="1269" y="-229.8" font-family="Times,serif" font-size="14.00">GO:0050789 (3)</text>
</a>
</g>
<!-- d0&#45;&gt;c0 -->
<g id="edge16" class="edge"><title>d0&#45;&gt;c0</title>
<path fill="none" stroke="black" d="M1138.19,-290.834C1163.05,-280.221 1197.34,-265.588 1224.57,-253.965"/>
<polygon fill="black" stroke="black" points="1226.05,-257.136 1233.88,-249.991 1223.31,-250.698 1226.05,-257.136"/>
</g>
<!-- f1 -->
<g id="node49" class="node"><title>f1</title>
<a xlink:href="0065008" xlink:title="GO:0065008 (1)">
<ellipse fill="#e98576" stroke="#e98576" cx="1437" cy="-234" rx="75.2018" ry="18"/>
<text text-anchor="middle" x="1437" y="-229.8" font-family="Times,serif" font-size="14.00">GO:0065008 (1)</text>
</a>
</g>
<!-- d0&#45;&gt;f1 -->
<g id="edge48" class="edge"><title>d0&#45;&gt;f1</title>
<path fill="none" stroke="black" d="M1150.4,-293.883C1158.89,-291.872 1167.71,-289.834 1176,-288 1180.83,-286.931 1296.07,-263.56 1371.79,-248.213"/>
<polygon fill="black" stroke="black" points="1372.63,-251.614 1381.74,-246.197 1371.24,-244.753 1372.63,-251.614"/>
</g>
<!-- g0&#45;&gt;f0 -->
<g id="edge70" class="edge"><title>g0&#45;&gt;f0</title>
<path fill="none" stroke="black" d="M107.479,-145.638C129.714,-135.122 159.344,-121.107 183.029,-109.905"/>
<polygon fill="black" stroke="black" points="184.572,-113.047 192.115,-105.608 181.579,-106.719 184.572,-113.047"/>
</g>
<!-- j0&#45;&gt;g0 -->
<g id="edge30" class="edge"><title>j0&#45;&gt;g0</title>
<path fill="none" stroke="black" d="M283.966,-221.046C242.057,-209.405 178.105,-191.64 131.988,-178.83"/>
<polygon fill="black" stroke="black" points="132.713,-175.399 122.141,-176.095 130.839,-182.143 132.713,-175.399"/>
</g>
<!-- j0&#45;&gt;u0 -->
<g id="edge52" class="edge"><title>j0&#45;&gt;u0</title>
<path fill="none" stroke="black" d="M366.379,-219.998C401.334,-208.456 452.543,-191.547 490.109,-179.143"/>
<polygon fill="black" stroke="black" points="491.434,-182.392 499.832,-175.933 489.239,-175.745 491.434,-182.392"/>
</g>
<!-- g1 -->
<g id="node56" class="node"><title>g1</title>
<a xlink:href="0006629" xlink:title="GO:0006629 (1)">
<ellipse fill="#e98576" stroke="#e98576" cx="243" cy="-162" rx="75.2018" ry="18"/>
<text text-anchor="middle" x="243" y="-157.8" font-family="Times,serif" font-size="14.00">GO:0006629 (1)</text>
</a>
</g>
<!-- j0&#45;&gt;g1 -->
<g id="edge56" class="edge"><title>j0&#45;&gt;g1</title>
<path fill="none" stroke="black" d="M307.518,-216.765C296.57,-207.642 282.725,-196.105 270.67,-186.059"/>
<polygon fill="black" stroke="black" points="272.591,-183.103 262.668,-179.39 268.109,-188.48 272.591,-183.103"/>
</g>
<!-- v0 -->
<g id="node63" class="node"><title>v0</title>
<a xlink:href="0007155" xlink:title="GO:0007155 (2)">
<ellipse fill="#e98576" stroke="#e98576" cx="791" cy="-234" rx="75.2018" ry="18"/>
<text text-anchor="middle" x="791" y="-229.8" font-family="Times,serif" font-size="14.00">GO:0007155 (2)</text>
</a>
</g>
<!-- w0&#45;&gt;v0 -->
<g id="edge66" class="edge"><title>w0&#45;&gt;v0</title>
<path fill="none" stroke="black" d="M787.236,-287.697C787.787,-279.983 788.449,-270.712 789.063,-262.112"/>
<polygon fill="black" stroke="black" points="792.557,-262.328 789.778,-252.104 785.575,-261.83 792.557,-262.328"/>
</g>
<!-- y0 -->
<g id="node38" class="node"><title>y0</title>
<a xlink:href="0051604" xlink:title="GO:0051604 (1)">
<ellipse fill="#e98576" stroke="#e98576" cx="139" cy="-18" rx="75.2018" ry="18"/>
<text text-anchor="middle" x="139" y="-13.8" font-family="Times,serif" font-size="14.00">GO:0051604 (1)</text>
</a>
</g>
<!-- f0&#45;&gt;y0 -->
<g id="edge34" class="edge"><title>f0&#45;&gt;y0</title>
<path fill="none" stroke="black" d="M203.518,-72.7646C192.57,-63.642 178.725,-52.1046 166.67,-42.0585"/>
<polygon fill="black" stroke="black" points="168.591,-39.1029 158.668,-35.3898 164.109,-44.4805 168.591,-39.1029"/>
</g>
<!-- e0 -->
<g id="node44" class="node"><title>e0</title>
<a xlink:href="0006508" xlink:title="GO:0006508 (2)">
<ellipse fill="#e98576" stroke="#e98576" cx="307" cy="-18" rx="75.2018" ry="18"/>
<text text-anchor="middle" x="307" y="-13.8" font-family="Times,serif" font-size="14.00">GO:0006508 (2)</text>
</a>
</g>
<!-- f0&#45;&gt;e0 -->
<g id="edge42" class="edge"><title>f0&#45;&gt;e0</title>
<path fill="none" stroke="black" d="M242.482,-72.7646C253.43,-63.642 267.275,-52.1046 279.33,-42.0585"/>
<polygon fill="black" stroke="black" points="281.891,-44.4805 287.332,-35.3898 277.409,-39.1029 281.891,-44.4805"/>
</g>
<!-- m0&#45;&gt;l0 -->
<g id="edge46" class="edge"><title>m0&#45;&gt;l0</title>
<path fill="none" stroke="black" d="M598.812,-290.834C573.36,-279.971 538.043,-264.896 510.52,-253.149"/>
<polygon fill="black" stroke="black" points="511.71,-249.851 501.138,-249.144 508.962,-256.289 511.71,-249.851"/>
</g>
<!-- e1 -->
<g id="node59" class="node"><title>e1</title>
<a xlink:href="0007154" xlink:title="GO:0007154 (1)">
<ellipse fill="#e98576" stroke="#e98576" cx="623" cy="-234" rx="75.2018" ry="18"/>
<text text-anchor="middle" x="623" y="-229.8" font-family="Times,serif" font-size="14.00">GO:0007154 (1)</text>
</a>
</g>
<!-- m0&#45;&gt;e1 -->
<g id="edge60" class="edge"><title>m0&#45;&gt;e1</title>
<path fill="none" stroke="black" d="M629.775,-287.697C628.783,-279.983 627.592,-270.712 626.486,-262.112"/>
<polygon fill="black" stroke="black" points="629.946,-261.576 625.199,-252.104 623.003,-262.469 629.946,-261.576"/>
</g>
<!-- m0&#45;&gt;v0 -->
<g id="edge64" class="edge"><title>m0&#45;&gt;v0</title>
<path fill="none" stroke="black" d="M664.56,-290.666C688.511,-280.121 721.319,-265.677 747.513,-254.145"/>
<polygon fill="black" stroke="black" points="749.094,-257.274 756.836,-250.041 746.273,-250.867 749.094,-257.274"/>
</g>
<!-- t0 -->
<g id="node61" class="node"><title>t0</title>
<a xlink:href="0009117" xlink:title="GO:0009117 (2)">
<ellipse fill="#e98576" stroke="#e98576" cx="616" cy="-90" rx="75.2018" ry="18"/>
<text text-anchor="middle" x="616" y="-85.8" font-family="Times,serif" font-size="14.00">GO:0009117 (2)</text>
</a>
</g>
<!-- u0&#45;&gt;t0 -->
<g id="edge62" class="edge"><title>u0&#45;&gt;t0</title>
<path fill="none" stroke="black" d="M556.859,-144.765C566.726,-135.795 579.161,-124.49 590.079,-114.564"/>
<polygon fill="black" stroke="black" points="592.658,-116.95 597.703,-107.633 587.949,-111.77 592.658,-116.95"/>
</g>
<!-- x0 -->
<g id="node69" class="node"><title>x0</title>
<a xlink:href="0009116" xlink:title="GO:0009116 (2)">
<ellipse fill="#e98576" stroke="#e98576" cx="448" cy="-90" rx="75.2018" ry="18"/>
<text text-anchor="middle" x="448" y="-85.8" font-family="Times,serif" font-size="14.00">GO:0009116 (2)</text>
</a>
</g>
<!-- u0&#45;&gt;x0 -->
<g id="edge74" class="edge"><title>u0&#45;&gt;x0</title>
<path fill="none" stroke="black" d="M517.894,-144.765C505.921,-135.554 490.747,-123.882 477.6,-113.769"/>
<polygon fill="black" stroke="black" points="479.367,-110.713 469.307,-107.39 475.099,-116.261 479.367,-110.713"/>
</g>
</g>
</svg>
