<?xml version="1.0" encoding="UTF-8" standalone="no"?>
<!DOCTYPE svg PUBLIC "-//W3C//DTD SVG 1.1//EN"
 "http://www.w3.org/Graphics/SVG/1.1/DTD/svg11.dtd">
<!-- Generated by graphviz version 2.28.0 (20110622.2320)
 -->
<!-- Title: G Pages: 1 -->
<svg width="6388pt" height="404pt"
 viewBox="0.00 0.00 6388.00 404.00" xmlns="http://www.w3.org/2000/svg" xmlns:xlink="http://www.w3.org/1999/xlink">
<g id="graph1" class="graph" transform="scale(1 1) rotate(0) translate(4 400)">
<title>G</title>
<polygon fill="white" stroke="white" points="-4,5 -4,-400 6385,-400 6385,5 -4,5"/>
<!-- c0 -->
<g id="node1" class="node"><title>c0</title>
<a xlink:href="0003674" xlink:title="GO:0003674 (10)">
<ellipse fill="#e98576" stroke="#e98576" cx="4066" cy="-378" rx="79.4447" ry="18"/>
<text text-anchor="middle" x="4066" y="-373.8" font-family="Times,serif" font-size="14.00">GO:0003674 (10)</text>
</a>
</g>
<!-- n1 -->
<g id="node3" class="node"><title>n1</title>
<a xlink:href="0045182" xlink:title="GO:0045182 (3)">
<ellipse fill="#e98576" stroke="#e98576" cx="875" cy="-306" rx="75.2018" ry="18"/>
<text text-anchor="middle" x="875" y="-301.8" font-family="Times,serif" font-size="14.00">GO:0045182 (3)</text>
</a>
</g>
<!-- c0&#45;&gt;n1 -->
<g id="edge2" class="edge"><title>c0&#45;&gt;n1</title>
<path fill="none" stroke="black" d="M3986.65,-376.514C3532.04,-373.614 1267.55,-357.57 959,-324 951.881,-323.226 944.471,-322.141 937.129,-320.892"/>
<polygon fill="black" stroke="black" points="937.658,-317.431 927.195,-319.098 936.414,-324.319 937.658,-317.431"/>
</g>
<!-- i0 -->
<g id="node4" class="node"><title>i0</title>
<a xlink:href="0003824" xlink:title="GO:0003824 (66)">
<ellipse fill="#e98576" stroke="#e98576" cx="1048" cy="-306" rx="79.4447" ry="18"/>
<text text-anchor="middle" x="1048" y="-301.8" font-family="Times,serif" font-size="14.00">GO:0003824 (66)</text>
</a>
</g>
<!-- c0&#45;&gt;i0 -->
<g id="edge68" class="edge"><title>c0&#45;&gt;i0</title>
<path fill="none" stroke="black" d="M3987.21,-375.173C3566,-365.403 1582.46,-319.396 1136.97,-309.064"/>
<polygon fill="black" stroke="black" points="1136.81,-305.559 1126.73,-308.826 1136.65,-312.557 1136.81,-305.559"/>
</g>
<!-- s0 -->
<g id="node8" class="node"><title>s0</title>
<a xlink:href="0030234" xlink:title="GO:0030234 (16)">
<ellipse fill="#e98576" stroke="#e98576" cx="3710" cy="-306" rx="79.4447" ry="18"/>
<text text-anchor="middle" x="3710" y="-301.8" font-family="Times,serif" font-size="14.00">GO:0030234 (16)</text>
</a>
</g>
<!-- c0&#45;&gt;s0 -->
<g id="edge6" class="edge"><title>c0&#45;&gt;s0</title>
<path fill="none" stroke="black" d="M4008.01,-365.597C3945.04,-353.216 3844.57,-333.46 3777.95,-320.361"/>
<polygon fill="black" stroke="black" points="3778.45,-316.893 3767.97,-318.398 3777.1,-323.761 3778.45,-316.893"/>
</g>
<!-- b0 -->
<g id="node9" class="node"><title>b0</title>
<a xlink:href="0005488" xlink:title="GO:0005488 (11)">
<ellipse fill="#e98576" stroke="#e98576" cx="3888" cy="-306" rx="79.4447" ry="18"/>
<text text-anchor="middle" x="3888" y="-301.8" font-family="Times,serif" font-size="14.00">GO:0005488 (11)</text>
</a>
</g>
<!-- c0&#45;&gt;b0 -->
<g id="edge18" class="edge"><title>c0&#45;&gt;b0</title>
<path fill="none" stroke="black" d="M4028.25,-362.155C4001.2,-351.518 3964.58,-337.114 3935.53,-325.693"/>
<polygon fill="black" stroke="black" points="3936.59,-322.347 3926,-321.944 3934.03,-328.861 3936.59,-322.347"/>
</g>
<!-- o0 -->
<g id="node32" class="node"><title>o0</title>
<a xlink:href="0005215" xlink:title="GO:0005215 (30)">
<ellipse fill="#e98576" stroke="#e98576" cx="4066" cy="-306" rx="79.4447" ry="18"/>
<text text-anchor="middle" x="4066" y="-301.8" font-family="Times,serif" font-size="14.00">GO:0005215 (30)</text>
</a>
</g>
<!-- c0&#45;&gt;o0 -->
<g id="edge28" class="edge"><title>c0&#45;&gt;o0</title>
<path fill="none" stroke="black" d="M4066,-359.697C4066,-351.983 4066,-342.712 4066,-334.112"/>
<polygon fill="black" stroke="black" points="4069.5,-334.104 4066,-324.104 4062.5,-334.104 4069.5,-334.104"/>
</g>
<!-- g0 -->
<g id="node50" class="node"><title>g0</title>
<a xlink:href="0005198" xlink:title="GO:0005198 (119)">
<ellipse fill="#e98576" stroke="#e98576" cx="4249" cy="-306" rx="84.1886" ry="18"/>
<text text-anchor="middle" x="4249" y="-301.8" font-family="Times,serif" font-size="14.00">GO:0005198 (119)</text>
</a>
</g>
<!-- c0&#45;&gt;g0 -->
<g id="edge48" class="edge"><title>c0&#45;&gt;g0</title>
<path fill="none" stroke="black" d="M4104.81,-362.155C4132.64,-351.508 4170.34,-337.087 4200.21,-325.661"/>
<polygon fill="black" stroke="black" points="4201.53,-328.907 4209.62,-322.065 4199.02,-322.369 4201.53,-328.907"/>
</g>
<!-- g1 -->
<g id="node80" class="node"><title>g1</title>
<a xlink:href="0003774" xlink:title="GO:0003774 (7)">
<ellipse fill="#e98576" stroke="#e98576" cx="4427" cy="-306" rx="75.2018" ry="18"/>
<text text-anchor="middle" x="4427" y="-301.8" font-family="Times,serif" font-size="14.00">GO:0003774 (7)</text>
</a>
</g>
<!-- c0&#45;&gt;g1 -->
<g id="edge78" class="edge"><title>c0&#45;&gt;g1</title>
<path fill="none" stroke="black" d="M4124.71,-365.861C4180.6,-355.225 4267.07,-338.688 4342,-324 4348.2,-322.784 4354.66,-321.51 4361.12,-320.229"/>
<polygon fill="black" stroke="black" points="4362.11,-323.601 4371.23,-318.217 4360.74,-316.735 4362.11,-323.601"/>
</g>
<!-- z0 -->
<g id="node81" class="node"><title>z0</title>
<a xlink:href="0060089" xlink:title="GO:0060089 (5)">
<ellipse fill="#e98576" stroke="#e98576" cx="4595" cy="-306" rx="75.2018" ry="18"/>
<text text-anchor="middle" x="4595" y="-301.8" font-family="Times,serif" font-size="14.00">GO:0060089 (5)</text>
</a>
</g>
<!-- c0&#45;&gt;z0 -->
<g id="edge108" class="edge"><title>c0&#45;&gt;z0</title>
<path fill="none" stroke="black" d="M4137.93,-370.247C4226.12,-361.549 4380.02,-345.018 4511,-324 4517.51,-322.955 4524.29,-321.761 4531.05,-320.503"/>
<polygon fill="black" stroke="black" points="4531.73,-323.936 4540.89,-318.622 4530.41,-317.06 4531.73,-323.936"/>
</g>
<!-- t0 -->
<g id="node87" class="node"><title>t0</title>
<a xlink:href="0016209" xlink:title="GO:0016209 (15)">
<ellipse fill="#e98576" stroke="#e98576" cx="4768" cy="-306" rx="79.4447" ry="18"/>
<text text-anchor="middle" x="4768" y="-301.8" font-family="Times,serif" font-size="14.00">GO:0016209 (15)</text>
</a>
</g>
<!-- c0&#45;&gt;t0 -->
<g id="edge84" class="edge"><title>c0&#45;&gt;t0</title>
<path fill="none" stroke="black" d="M4142.73,-372.898C4259.09,-366.107 4486.95,-350.573 4679,-324 4686.18,-323.007 4693.65,-321.821 4701.09,-320.543"/>
<polygon fill="black" stroke="black" points="4701.93,-323.948 4711.17,-318.754 4700.71,-317.056 4701.93,-323.948"/>
</g>
<!-- x0 -->
<g id="node6" class="node"><title>x0</title>
<a xlink:href="0016853" xlink:title="GO:0016853 (13)">
<ellipse fill="#e98576" stroke="#e98576" cx="79" cy="-234" rx="79.4447" ry="18"/>
<text text-anchor="middle" x="79" y="-229.8" font-family="Times,serif" font-size="14.00">GO:0016853 (13)</text>
</a>
</g>
<!-- i0&#45;&gt;x0 -->
<g id="edge4" class="edge"><title>i0&#45;&gt;x0</title>
<path fill="none" stroke="black" d="M992.167,-293.069C981.214,-291.088 969.78,-289.268 959,-288 609.491,-246.881 517.509,-293.119 168,-252 160.42,-251.108 152.517,-249.944 144.685,-248.642"/>
<polygon fill="black" stroke="black" points="145.284,-245.194 134.833,-246.931 144.086,-252.091 145.284,-245.194"/>
</g>
<!-- m0 -->
<g id="node21" class="node"><title>m0</title>
<a xlink:href="0016787" xlink:title="GO:0016787 (72)">
<ellipse fill="#e98576" stroke="#e98576" cx="257" cy="-234" rx="79.4447" ry="18"/>
<text text-anchor="middle" x="257" y="-229.8" font-family="Times,serif" font-size="14.00">GO:0016787 (72)</text>
</a>
</g>
<!-- i0&#45;&gt;m0 -->
<g id="edge34" class="edge"><title>i0&#45;&gt;m0</title>
<path fill="none" stroke="black" d="M992.154,-293.183C981.202,-291.192 969.771,-289.339 959,-288 688.171,-254.327 616.829,-285.673 346,-252 338.426,-251.058 330.527,-249.863 322.697,-248.544"/>
<polygon fill="black" stroke="black" points="323.301,-245.097 312.846,-246.817 322.092,-251.991 323.301,-245.097"/>
</g>
<!-- h0 -->
<g id="node26" class="node"><title>h0</title>
<a xlink:href="0016491" xlink:title="GO:0016491 (108)">
<ellipse fill="#e98576" stroke="#e98576" cx="440" cy="-234" rx="84.1886" ry="18"/>
<text text-anchor="middle" x="440" y="-229.8" font-family="Times,serif" font-size="14.00">GO:0016491 (108)</text>
</a>
</g>
<!-- i0&#45;&gt;h0 -->
<g id="edge44" class="edge"><title>i0&#45;&gt;h0</title>
<path fill="none" stroke="black" d="M991.171,-293.231C980.514,-291.284 969.441,-289.435 959,-288 771.201,-262.182 721.923,-276.896 534,-252 526.255,-250.974 518.177,-249.75 510.152,-248.435"/>
<polygon fill="black" stroke="black" points="510.485,-244.942 500.042,-246.73 509.321,-251.845 510.485,-244.942"/>
</g>
<!-- c2 -->
<g id="node30" class="node"><title>c2</title>
<a xlink:href="0019239" xlink:title="GO:0019239 (1)">
<ellipse fill="#e98576" stroke="#e98576" cx="618" cy="-234" rx="75.2018" ry="18"/>
<text text-anchor="middle" x="618" y="-229.8" font-family="Times,serif" font-size="14.00">GO:0019239 (1)</text>
</a>
</g>
<!-- i0&#45;&gt;c2 -->
<g id="edge26" class="edge"><title>i0&#45;&gt;c2</title>
<path fill="none" stroke="black" d="M990.146,-293.518C979.791,-291.586 969.088,-289.669 959,-288 845.209,-269.174 815.686,-271.448 702,-252 695.744,-250.93 689.241,-249.744 682.746,-248.512"/>
<polygon fill="black" stroke="black" points="683.067,-245.009 672.584,-246.545 681.737,-251.881 683.067,-245.009"/>
</g>
<!-- v0 -->
<g id="node43" class="node"><title>v0</title>
<a xlink:href="0016874" xlink:title="GO:0016874 (14)">
<ellipse fill="#e98576" stroke="#e98576" cx="791" cy="-234" rx="79.4447" ry="18"/>
<text text-anchor="middle" x="791" y="-229.8" font-family="Times,serif" font-size="14.00">GO:0016874 (14)</text>
</a>
</g>
<!-- i0&#45;&gt;v0 -->
<g id="edge40" class="edge"><title>i0&#45;&gt;v0</title>
<path fill="none" stroke="black" d="M999.358,-291.751C956.788,-280.156 894.845,-263.285 849.564,-250.951"/>
<polygon fill="black" stroke="black" points="850.448,-247.565 839.88,-248.313 848.608,-254.319 850.448,-247.565"/>
</g>
<!-- j1 -->
<g id="node48" class="node"><title>j1</title>
<a xlink:href="0004386" xlink:title="GO:0004386 (5)">
<ellipse fill="#e98576" stroke="#e98576" cx="964" cy="-234" rx="75.2018" ry="18"/>
<text text-anchor="middle" x="964" y="-229.8" font-family="Times,serif" font-size="14.00">GO:0004386 (5)</text>
</a>
</g>
<!-- i0&#45;&gt;j1 -->
<g id="edge46" class="edge"><title>i0&#45;&gt;j1</title>
<path fill="none" stroke="black" d="M1028.09,-288.411C1017.21,-279.345 1003.57,-267.974 991.669,-258.057"/>
<polygon fill="black" stroke="black" points="993.687,-255.183 983.764,-251.47 989.206,-260.561 993.687,-255.183"/>
</g>
<!-- b2 -->
<g id="node60" class="node"><title>b2</title>
<a xlink:href="0032451" xlink:title="GO:0032451 (1)">
<ellipse fill="#e98576" stroke="#e98576" cx="1132" cy="-234" rx="75.2018" ry="18"/>
<text text-anchor="middle" x="1132" y="-229.8" font-family="Times,serif" font-size="14.00">GO:0032451 (1)</text>
</a>
</g>
<!-- i0&#45;&gt;b2 -->
<g id="edge58" class="edge"><title>i0&#45;&gt;b2</title>
<path fill="none" stroke="black" d="M1067.91,-288.411C1078.79,-279.345 1092.43,-267.974 1104.33,-258.057"/>
<polygon fill="black" stroke="black" points="1106.79,-260.561 1112.24,-251.47 1102.31,-255.183 1106.79,-260.561"/>
</g>
<!-- a2 -->
<g id="node91" class="node"><title>a2</title>
<a xlink:href="0009975" xlink:title="GO:0009975 (1)">
<ellipse fill="#e98576" stroke="#e98576" cx="1300" cy="-234" rx="75.2018" ry="18"/>
<text text-anchor="middle" x="1300" y="-229.8" font-family="Times,serif" font-size="14.00">GO:0009975 (1)</text>
</a>
</g>
<!-- i0&#45;&gt;a2 -->
<g id="edge88" class="edge"><title>i0&#45;&gt;a2</title>
<path fill="none" stroke="black" d="M1096.29,-291.586C1138.14,-279.96 1198.76,-263.121 1242.99,-250.836"/>
<polygon fill="black" stroke="black" points="1244.03,-254.18 1252.73,-248.131 1242.16,-247.436 1244.03,-254.18"/>
</g>
<!-- l0 -->
<g id="node96" class="node"><title>l0</title>
<a xlink:href="0016740" xlink:title="GO:0016740 (76)">
<ellipse fill="#e98576" stroke="#e98576" cx="1473" cy="-234" rx="79.4447" ry="18"/>
<text text-anchor="middle" x="1473" y="-229.8" font-family="Times,serif" font-size="14.00">GO:0016740 (76)</text>
</a>
</g>
<!-- i0&#45;&gt;l0 -->
<g id="edge94" class="edge"><title>i0&#45;&gt;l0</title>
<path fill="none" stroke="black" d="M1112.52,-295.456C1180.24,-285.29 1289.75,-268.43 1384,-252 1390.66,-250.838 1397.6,-249.587 1404.53,-248.31"/>
<polygon fill="black" stroke="black" points="1405.45,-251.698 1414.64,-246.426 1404.17,-244.816 1405.45,-251.698"/>
</g>
<!-- q0 -->
<g id="node106" class="node"><title>q0</title>
<a xlink:href="0016829" xlink:title="GO:0016829 (21)">
<ellipse fill="#e98576" stroke="#e98576" cx="1651" cy="-234" rx="79.4447" ry="18"/>
<text text-anchor="middle" x="1651" y="-229.8" font-family="Times,serif" font-size="14.00">GO:0016829 (21)</text>
</a>
</g>
<!-- i0&#45;&gt;q0 -->
<g id="edge104" class="edge"><title>i0&#45;&gt;q0</title>
<path fill="none" stroke="black" d="M1122.15,-299.301C1222.11,-291.17 1405.51,-274.677 1561,-252 1568.33,-250.931 1575.97,-249.688 1583.57,-248.37"/>
<polygon fill="black" stroke="black" points="1584.27,-251.8 1593.51,-246.602 1583.05,-244.908 1584.27,-251.8"/>
</g>
<!-- e1 -->
<g id="node11" class="node"><title>e1</title>
<a xlink:href="0042277" xlink:title="GO:0042277 (8)">
<ellipse fill="#e98576" stroke="#e98576" cx="1824" cy="-234" rx="75.2018" ry="18"/>
<text text-anchor="middle" x="1824" y="-229.8" font-family="Times,serif" font-size="14.00">GO:0042277 (8)</text>
</a>
</g>
<!-- b0&#45;&gt;e1 -->
<g id="edge8" class="edge"><title>b0&#45;&gt;e1</title>
<path fill="none" stroke="black" d="M3832.52,-293.014C3821.15,-290.983 3809.23,-289.159 3798,-288 2962.29,-201.728 2743.13,-343.7 1908,-252 1900.88,-251.218 1893.47,-250.13 1886.13,-248.878"/>
<polygon fill="black" stroke="black" points="1886.66,-245.417 1876.2,-247.082 1885.41,-252.305 1886.66,-245.417"/>
</g>
<!-- u0 -->
<g id="node13" class="node"><title>u0</title>
<a xlink:href="0019825" xlink:title="GO:0019825 (15)">
<ellipse fill="#e98576" stroke="#e98576" cx="1997" cy="-234" rx="79.4447" ry="18"/>
<text text-anchor="middle" x="1997" y="-229.8" font-family="Times,serif" font-size="14.00">GO:0019825 (15)</text>
</a>
</g>
<!-- b0&#45;&gt;u0 -->
<g id="edge10" class="edge"><title>b0&#45;&gt;u0</title>
<path fill="none" stroke="black" d="M3832.52,-293.031C3821.15,-290.999 3809.23,-289.17 3798,-288 3041.04,-209.101 2842.88,-331.674 2086,-252 2078.3,-251.189 2070.27,-250.062 2062.32,-248.77"/>
<polygon fill="black" stroke="black" points="2062.78,-245.297 2052.33,-247.056 2061.6,-252.196 2062.78,-245.297"/>
</g>
<!-- x1 -->
<g id="node15" class="node"><title>x1</title>
<a xlink:href="0033218" xlink:title="GO:0033218 (1)">
<ellipse fill="#e98576" stroke="#e98576" cx="2170" cy="-234" rx="75.2018" ry="18"/>
<text text-anchor="middle" x="2170" y="-229.8" font-family="Times,serif" font-size="14.00">GO:0033218 (1)</text>
</a>
</g>
<!-- b0&#45;&gt;x1 -->
<g id="edge12" class="edge"><title>b0&#45;&gt;x1</title>
<path fill="none" stroke="black" d="M3832.52,-293.051C3821.15,-291.018 3809.23,-289.183 3798,-288 3115.37,-216.059 2936.15,-328.375 2254,-252 2246.88,-251.203 2239.47,-250.105 2232.13,-248.848"/>
<polygon fill="black" stroke="black" points="2232.67,-245.387 2222.2,-247.047 2231.42,-252.275 2232.67,-245.387"/>
</g>
<!-- a0 -->
<g id="node17" class="node"><title>a0</title>
<a xlink:href="0005515" xlink:title="GO:0005515 (233)">
<ellipse fill="#e98576" stroke="#e98576" cx="2348" cy="-234" rx="84.1886" ry="18"/>
<text text-anchor="middle" x="2348" y="-229.8" font-family="Times,serif" font-size="14.00">GO:0005515 (233)</text>
</a>
</g>
<!-- b0&#45;&gt;a0 -->
<g id="edge14" class="edge"><title>b0&#45;&gt;a0</title>
<path fill="none" stroke="black" d="M3832.52,-293.08C3821.15,-291.044 3809.23,-289.201 3798,-288 3198.54,-223.845 3041.7,-313.825 2442,-252 2433.7,-251.144 2425.03,-249.968 2416.46,-248.631"/>
<polygon fill="black" stroke="black" points="2416.91,-245.157 2406.47,-246.997 2415.77,-252.065 2416.91,-245.157"/>
</g>
<!-- r1 -->
<g id="node19" class="node"><title>r1</title>
<a xlink:href="0043021" xlink:title="GO:0043021 (3)">
<ellipse fill="#e98576" stroke="#e98576" cx="2526" cy="-234" rx="75.2018" ry="18"/>
<text text-anchor="middle" x="2526" y="-229.8" font-family="Times,serif" font-size="14.00">GO:0043021 (3)</text>
</a>
</g>
<!-- b0&#45;&gt;r1 -->
<g id="edge16" class="edge"><title>b0&#45;&gt;r1</title>
<path fill="none" stroke="black" d="M3832.03,-293.027C3820.81,-291.022 3809.07,-289.205 3798,-288 3272.86,-230.803 3134.75,-312.608 2610,-252 2602.89,-251.178 2595.48,-250.065 2588.14,-248.798"/>
<polygon fill="black" stroke="black" points="2588.67,-245.338 2578.21,-246.989 2587.42,-252.225 2588.67,-245.338"/>
</g>
<!-- p1 -->
<g id="node25" class="node"><title>p1</title>
<a xlink:href="0005496" xlink:title="GO:0005496 (3)">
<ellipse fill="#e98576" stroke="#e98576" cx="2694" cy="-234" rx="75.2018" ry="18"/>
<text text-anchor="middle" x="2694" y="-229.8" font-family="Times,serif" font-size="14.00">GO:0005496 (3)</text>
</a>
</g>
<!-- b0&#45;&gt;p1 -->
<g id="edge22" class="edge"><title>b0&#45;&gt;p1</title>
<path fill="none" stroke="black" d="M3832.03,-293.07C3820.8,-291.063 3809.06,-289.233 3798,-288 3347.18,-237.759 3228.49,-305.169 2778,-252 2770.89,-251.161 2763.48,-250.036 2756.14,-248.763"/>
<polygon fill="black" stroke="black" points="2756.68,-245.303 2746.21,-246.949 2755.42,-252.189 2756.68,-245.303"/>
</g>
<!-- d0 -->
<g id="node34" class="node"><title>d0</title>
<a xlink:href="0043167" xlink:title="GO:0043167 (215)">
<ellipse fill="#e98576" stroke="#e98576" cx="2872" cy="-234" rx="84.1886" ry="18"/>
<text text-anchor="middle" x="2872" y="-229.8" font-family="Times,serif" font-size="14.00">GO:0043167 (215)</text>
</a>
</g>
<!-- b0&#45;&gt;d0 -->
<g id="edge30" class="edge"><title>b0&#45;&gt;d0</title>
<path fill="none" stroke="black" d="M3832.02,-293.14C3820.8,-291.126 3809.06,-289.277 3798,-288 3430.32,-245.542 3333.84,-293.029 2966,-252 2957.91,-251.098 2949.48,-249.918 2941.12,-248.599"/>
<polygon fill="black" stroke="black" points="2941.43,-245.102 2930.99,-246.93 2940.29,-252.009 2941.43,-245.102"/>
</g>
<!-- c1 -->
<g id="node36" class="node"><title>c1</title>
<a xlink:href="0043176" xlink:title="GO:0043176">
<ellipse fill="#dddddd" stroke="#dddddd" cx="3036" cy="-234" rx="61.1934" ry="18"/>
<text text-anchor="middle" x="3036" y="-229.8" font-family="Times,serif" font-size="14.00">GO:0043176</text>
</a>
</g>
<!-- b0&#45;&gt;c1 -->
<g id="edge32" class="edge"><title>b0&#45;&gt;c1</title>
<path fill="none" stroke="black" d="M3832.01,-293.217C3820.79,-291.197 3809.05,-289.326 3798,-288 3492.66,-251.377 3411.37,-295.989 3107,-252 3101.29,-251.175 3095.37,-250.107 3089.5,-248.908"/>
<polygon fill="black" stroke="black" points="3090.21,-245.48 3079.69,-246.786 3088.72,-252.322 3090.21,-245.48"/>
</g>
<!-- q1 -->
<g id="node39" class="node"><title>q1</title>
<a xlink:href="0043178" xlink:title="GO:0043178 (3)">
<ellipse fill="#e98576" stroke="#e98576" cx="3191" cy="-234" rx="75.2018" ry="18"/>
<text text-anchor="middle" x="3191" y="-229.8" font-family="Times,serif" font-size="14.00">GO:0043178 (3)</text>
</a>
</g>
<!-- b0&#45;&gt;q1 -->
<g id="edge36" class="edge"><title>b0&#45;&gt;q1</title>
<path fill="none" stroke="black" d="M3831.51,-293.276C3820.44,-291.276 3808.88,-289.397 3798,-288 3566.9,-258.326 3505.9,-283.175 3275,-252 3268.26,-251.09 3261.26,-249.964 3254.29,-248.727"/>
<polygon fill="black" stroke="black" points="3254.62,-245.228 3244.15,-246.849 3253.34,-252.111 3254.62,-245.228"/>
</g>
<!-- i1 -->
<g id="node41" class="node"><title>i1</title>
<a xlink:href="0030246" xlink:title="GO:0030246 (7)">
<ellipse fill="#e98576" stroke="#e98576" cx="3359" cy="-234" rx="75.2018" ry="18"/>
<text text-anchor="middle" x="3359" y="-229.8" font-family="Times,serif" font-size="14.00">GO:0030246 (7)</text>
</a>
</g>
<!-- b0&#45;&gt;i1 -->
<g id="edge38" class="edge"><title>b0&#45;&gt;i1</title>
<path fill="none" stroke="black" d="M3830.51,-293.382C3819.73,-291.42 3808.54,-289.528 3798,-288 3641.05,-265.262 3599.8,-275.757 3443,-252 3436.38,-250.997 3429.49,-249.82 3422.63,-248.563"/>
<polygon fill="black" stroke="black" points="3423.11,-245.093 3412.63,-246.674 3421.81,-251.971 3423.11,-245.093"/>
</g>
<!-- e0 -->
<g id="node45" class="node"><title>e0</title>
<a xlink:href="0003676" xlink:title="GO:0003676 (140)">
<ellipse fill="#e98576" stroke="#e98576" cx="3537" cy="-234" rx="84.1886" ry="18"/>
<text text-anchor="middle" x="3537" y="-229.8" font-family="Times,serif" font-size="14.00">GO:0003676 (140)</text>
</a>
</g>
<!-- b0&#45;&gt;e0 -->
<g id="edge42" class="edge"><title>b0&#45;&gt;e0</title>
<path fill="none" stroke="black" d="M3830.43,-293.519C3769.02,-281.271 3671.73,-261.87 3606.19,-248.799"/>
<polygon fill="black" stroke="black" points="3606.85,-245.361 3596.36,-246.838 3605.48,-252.226 3606.85,-245.361"/>
</g>
<!-- h1 -->
<g id="node52" class="node"><title>h1</title>
<a xlink:href="0003682" xlink:title="GO:0003682 (7)">
<ellipse fill="#e98576" stroke="#e98576" cx="3715" cy="-234" rx="75.2018" ry="18"/>
<text text-anchor="middle" x="3715" y="-229.8" font-family="Times,serif" font-size="14.00">GO:0003682 (7)</text>
</a>
</g>
<!-- b0&#45;&gt;h1 -->
<g id="edge50" class="edge"><title>b0&#45;&gt;h1</title>
<path fill="none" stroke="black" d="M3850.89,-289.983C3824.6,-279.346 3789.16,-265.006 3761.06,-253.638"/>
<polygon fill="black" stroke="black" points="3762.04,-250.258 3751.46,-249.752 3759.41,-256.747 3762.04,-250.258"/>
</g>
<!-- n0 -->
<g id="node54" class="node"><title>n0</title>
<a xlink:href="0048037" xlink:title="GO:0048037 (52)">
<ellipse fill="#e98576" stroke="#e98576" cx="3888" cy="-234" rx="79.4447" ry="18"/>
<text text-anchor="middle" x="3888" y="-229.8" font-family="Times,serif" font-size="14.00">GO:0048037 (52)</text>
</a>
</g>
<!-- b0&#45;&gt;n0 -->
<g id="edge52" class="edge"><title>b0&#45;&gt;n0</title>
<path fill="none" stroke="black" d="M3888,-287.697C3888,-279.983 3888,-270.712 3888,-262.112"/>
<polygon fill="black" stroke="black" points="3891.5,-262.104 3888,-252.104 3884.5,-262.104 3891.5,-262.104"/>
</g>
<!-- y1 -->
<g id="node56" class="node"><title>y1</title>
<a xlink:href="0050840" xlink:title="GO:0050840 (1)">
<ellipse fill="#e98576" stroke="#e98576" cx="4061" cy="-234" rx="75.2018" ry="18"/>
<text text-anchor="middle" x="4061" y="-229.8" font-family="Times,serif" font-size="14.00">GO:0050840 (1)</text>
</a>
</g>
<!-- b0&#45;&gt;y1 -->
<g id="edge54" class="edge"><title>b0&#45;&gt;y1</title>
<path fill="none" stroke="black" d="M3925.11,-289.983C3951.4,-279.346 3986.84,-265.006 4014.94,-253.638"/>
<polygon fill="black" stroke="black" points="4016.59,-256.747 4024.54,-249.752 4013.96,-250.258 4016.59,-256.747"/>
</g>
<!-- j0 -->
<g id="node58" class="node"><title>j0</title>
<a xlink:href="0003823" xlink:title="GO:0003823 (95)">
<ellipse fill="#e98576" stroke="#e98576" cx="4234" cy="-234" rx="79.4447" ry="18"/>
<text text-anchor="middle" x="4234" y="-229.8" font-family="Times,serif" font-size="14.00">GO:0003823 (95)</text>
</a>
</g>
<!-- b0&#45;&gt;j0 -->
<g id="edge56" class="edge"><title>b0&#45;&gt;j0</title>
<path fill="none" stroke="black" d="M3945.13,-293.441C4005.99,-281.13 4102.24,-261.657 4166.72,-248.613"/>
<polygon fill="black" stroke="black" points="4167.67,-251.99 4176.78,-246.576 4166.28,-245.129 4167.67,-251.99"/>
</g>
<!-- w0 -->
<g id="node64" class="node"><title>w0</title>
<a xlink:href="0008289" xlink:title="GO:0008289 (14)">
<ellipse fill="#e98576" stroke="#e98576" cx="4412" cy="-234" rx="79.4447" ry="18"/>
<text text-anchor="middle" x="4412" y="-229.8" font-family="Times,serif" font-size="14.00">GO:0008289 (14)</text>
</a>
</g>
<!-- b0&#45;&gt;w0 -->
<g id="edge62" class="edge"><title>b0&#45;&gt;w0</title>
<path fill="none" stroke="black" d="M3944.85,-293.397C3955.51,-291.434 3966.57,-289.537 3977,-288 4129.52,-265.518 4169.46,-274.326 4322,-252 4329.33,-250.927 4336.97,-249.682 4344.57,-248.362"/>
<polygon fill="black" stroke="black" points="4345.27,-251.792 4354.5,-246.593 4344.05,-244.901 4345.27,-251.792"/>
</g>
<!-- k0 -->
<g id="node72" class="node"><title>k0</title>
<a xlink:href="0001882" xlink:title="GO:0001882 (85)">
<ellipse fill="#e98576" stroke="#e98576" cx="4590" cy="-234" rx="79.4447" ry="18"/>
<text text-anchor="middle" x="4590" y="-229.8" font-family="Times,serif" font-size="14.00">GO:0001882 (85)</text>
</a>
</g>
<!-- b0&#45;&gt;k0 -->
<g id="edge70" class="edge"><title>b0&#45;&gt;k0</title>
<path fill="none" stroke="black" d="M3944.33,-293.183C3955.14,-291.216 3966.39,-289.373 3977,-288 4208.07,-258.089 4268.9,-281.674 4500,-252 4507.65,-251.017 4515.64,-249.797 4523.55,-248.463"/>
<polygon fill="black" stroke="black" points="4524.26,-251.892 4533.51,-246.724 4523.06,-244.997 4524.26,-251.892"/>
</g>
<!-- f1 -->
<g id="node74" class="node"><title>f1</title>
<a xlink:href="0008144" xlink:title="GO:0008144 (7)">
<ellipse fill="#e98576" stroke="#e98576" cx="4763" cy="-234" rx="75.2018" ry="18"/>
<text text-anchor="middle" x="4763" y="-229.8" font-family="Times,serif" font-size="14.00">GO:0008144 (7)</text>
</a>
</g>
<!-- b0&#45;&gt;f1 -->
<g id="edge72" class="edge"><title>b0&#45;&gt;f1</title>
<path fill="none" stroke="black" d="M3943.84,-293.12C3954.79,-291.134 3966.22,-289.3 3977,-288 4286.72,-250.646 4368.44,-290.694 4678,-252 4685.19,-251.102 4692.67,-249.94 4700.1,-248.647"/>
<polygon fill="black" stroke="black" points="4700.94,-252.052 4710.14,-246.813 4699.68,-245.165 4700.94,-252.052"/>
</g>
<!-- m1 -->
<g id="node76" class="node"><title>m1</title>
<a xlink:href="0019842" xlink:title="GO:0019842 (5)">
<ellipse fill="#e98576" stroke="#e98576" cx="4931" cy="-234" rx="75.2018" ry="18"/>
<text text-anchor="middle" x="4931" y="-229.8" font-family="Times,serif" font-size="14.00">GO:0019842 (5)</text>
</a>
</g>
<!-- b0&#45;&gt;m1 -->
<g id="edge74" class="edge"><title>b0&#45;&gt;m1</title>
<path fill="none" stroke="black" d="M3943.83,-293.034C3954.78,-291.055 3966.22,-289.246 3977,-288 4361.44,-243.575 4462.81,-298.528 4847,-252 4853.85,-251.171 4860.97,-250.084 4868.04,-248.861"/>
<polygon fill="black" stroke="black" points="4869.12,-252.222 4878.33,-246.985 4867.87,-245.335 4869.12,-252.222"/>
</g>
<!-- w1 -->
<g id="node85" class="node"><title>w1</title>
<a xlink:href="0060090" xlink:title="GO:0060090 (1)">
<ellipse fill="#e98576" stroke="#e98576" cx="5099" cy="-234" rx="75.2018" ry="18"/>
<text text-anchor="middle" x="5099" y="-229.8" font-family="Times,serif" font-size="14.00">GO:0060090 (1)</text>
</a>
</g>
<!-- b0&#45;&gt;w1 -->
<g id="edge82" class="edge"><title>b0&#45;&gt;w1</title>
<path fill="none" stroke="black" d="M3943.35,-293.062C3954.44,-291.055 3966.06,-289.227 3977,-288 4435.73,-236.544 4556.55,-305.966 5015,-252 5022.11,-251.163 5029.52,-250.04 5036.86,-248.768"/>
<polygon fill="black" stroke="black" points="5037.58,-252.194 5046.79,-246.954 5036.32,-245.307 5037.58,-252.194"/>
</g>
<!-- d1 -->
<g id="node89" class="node"><title>d1</title>
<a xlink:href="0031406" xlink:title="GO:0031406 (8)">
<ellipse fill="#e98576" stroke="#e98576" cx="5267" cy="-234" rx="75.2018" ry="18"/>
<text text-anchor="middle" x="5267" y="-229.8" font-family="Times,serif" font-size="14.00">GO:0031406 (8)</text>
</a>
</g>
<!-- b0&#45;&gt;d1 -->
<g id="edge86" class="edge"><title>b0&#45;&gt;d1</title>
<path fill="none" stroke="black" d="M3943.34,-293.02C3954.44,-291.016 3966.05,-289.201 3977,-288 4510.04,-229.511 4650.29,-313.405 5183,-252 5190.11,-251.18 5197.52,-250.068 5204.86,-248.802"/>
<polygon fill="black" stroke="black" points="5205.58,-252.228 5214.79,-246.993 5204.33,-245.341 5205.58,-252.228"/>
</g>
<!-- p0 -->
<g id="node98" class="node"><title>p0</title>
<a xlink:href="0046906" xlink:title="GO:0046906 (23)">
<ellipse fill="#e98576" stroke="#e98576" cx="5440" cy="-234" rx="79.4447" ry="18"/>
<text text-anchor="middle" x="5440" y="-229.8" font-family="Times,serif" font-size="14.00">GO:0046906 (23)</text>
</a>
</g>
<!-- b0&#45;&gt;p0 -->
<g id="edge96" class="edge"><title>b0&#45;&gt;p0</title>
<path fill="none" stroke="black" d="M3943.34,-292.989C3954.44,-290.987 3966.05,-289.181 3977,-288 4584.35,-222.478 4743.65,-317.522 5351,-252 5358.7,-251.17 5366.73,-250.03 5374.67,-248.731"/>
<polygon fill="black" stroke="black" points="5375.4,-252.157 5384.66,-247.011 5374.21,-245.258 5375.4,-252.157"/>
</g>
<!-- f0 -->
<g id="node100" class="node"><title>f0</title>
<a xlink:href="0000166" xlink:title="GO:0000166 (121)">
<ellipse fill="#e98576" stroke="#e98576" cx="5623" cy="-234" rx="84.1886" ry="18"/>
<text text-anchor="middle" x="5623" y="-229.8" font-family="Times,serif" font-size="14.00">GO:0000166 (121)</text>
</a>
</g>
<!-- b0&#45;&gt;f0 -->
<g id="edge98" class="edge"><title>b0&#45;&gt;f0</title>
<path fill="none" stroke="black" d="M3943.34,-292.963C3954.43,-290.964 3966.05,-289.165 3977,-288 4662.65,-215.067 4841.94,-320.933 5528,-252 5536.54,-251.142 5545.46,-249.947 5554.28,-248.584"/>
<polygon fill="black" stroke="black" points="5554.85,-252.037 5564.16,-246.982 5553.73,-245.127 5554.85,-252.037"/>
</g>
<!-- z1 -->
<g id="node102" class="node"><title>z1</title>
<a xlink:href="0042165" xlink:title="GO:0042165 (1)">
<ellipse fill="#e98576" stroke="#e98576" cx="5801" cy="-234" rx="75.2018" ry="18"/>
<text text-anchor="middle" x="5801" y="-229.8" font-family="Times,serif" font-size="14.00">GO:0042165 (1)</text>
</a>
</g>
<!-- b0&#45;&gt;z1 -->
<g id="edge100" class="edge"><title>b0&#45;&gt;z1</title>
<path fill="none" stroke="black" d="M3943.33,-292.941C3954.43,-290.944 3966.05,-289.151 3977,-288 4745.82,-207.195 4947.54,-336.132 5716,-252 5723.39,-251.191 5731.08,-250.063 5738.7,-248.767"/>
<polygon fill="black" stroke="black" points="5739.41,-252.196 5748.63,-246.981 5738.17,-245.306 5739.41,-252.196"/>
</g>
<!-- v1 -->
<g id="node104" class="node"><title>v1</title>
<a xlink:href="0019840" xlink:title="GO:0019840 (2)">
<ellipse fill="#e98576" stroke="#e98576" cx="5969" cy="-234" rx="75.2018" ry="18"/>
<text text-anchor="middle" x="5969" y="-229.8" font-family="Times,serif" font-size="14.00">GO:0019840 (2)</text>
</a>
</g>
<!-- b0&#45;&gt;v1 -->
<g id="edge102" class="edge"><title>b0&#45;&gt;v1</title>
<path fill="none" stroke="black" d="M3943.33,-292.925C3954.43,-290.929 3966.05,-289.141 3977,-288 4820.59,-200.118 5041.91,-344.497 5885,-252 5892.12,-251.219 5899.53,-250.131 5906.87,-248.879"/>
<polygon fill="black" stroke="black" points="5907.59,-252.306 5916.8,-247.083 5906.34,-245.418 5907.59,-252.306"/>
</g>
<!-- k1 -->
<g id="node108" class="node"><title>k1</title>
<a xlink:href="0051540" xlink:title="GO:0051540 (5)">
<ellipse fill="#e98576" stroke="#e98576" cx="6137" cy="-234" rx="75.2018" ry="18"/>
<text text-anchor="middle" x="6137" y="-229.8" font-family="Times,serif" font-size="14.00">GO:0051540 (5)</text>
</a>
</g>
<!-- b0&#45;&gt;k1 -->
<g id="edge106" class="edge"><title>b0&#45;&gt;k1</title>
<path fill="none" stroke="black" d="M3943.33,-292.912C3954.43,-290.917 3966.05,-289.133 3977,-288 4894.91,-193.084 5135.62,-351.939 6053,-252 6060.12,-251.225 6067.53,-250.14 6074.87,-248.89"/>
<polygon fill="black" stroke="black" points="6075.59,-252.317 6084.8,-247.096 6074.34,-245.429 6075.59,-252.317"/>
</g>
<!-- l1 -->
<g id="node23" class="node"><title>l1</title>
<a xlink:href="0008233" xlink:title="GO:0008233 (5)">
<ellipse fill="#e98576" stroke="#e98576" cx="108" cy="-162" rx="75.2018" ry="18"/>
<text text-anchor="middle" x="108" y="-157.8" font-family="Times,serif" font-size="14.00">GO:0008233 (5)</text>
</a>
</g>
<!-- m0&#45;&gt;l1 -->
<g id="edge20" class="edge"><title>m0&#45;&gt;l1</title>
<path fill="none" stroke="black" d="M223.932,-217.465C202.08,-207.198 173.254,-193.656 149.813,-182.644"/>
<polygon fill="black" stroke="black" points="151.002,-179.335 140.463,-178.251 148.026,-185.671 151.002,-179.335"/>
</g>
<!-- r0 -->
<g id="node28" class="node"><title>r0</title>
<a xlink:href="0004497" xlink:title="GO:0004497 (19)">
<ellipse fill="#e98576" stroke="#e98576" cx="281" cy="-162" rx="79.4447" ry="18"/>
<text text-anchor="middle" x="281" y="-157.8" font-family="Times,serif" font-size="14.00">GO:0004497 (19)</text>
</a>
</g>
<!-- h0&#45;&gt;r0 -->
<g id="edge24" class="edge"><title>h0&#45;&gt;r0</title>
<path fill="none" stroke="black" d="M404.713,-217.465C381.186,-207.107 350.086,-193.415 324.953,-182.351"/>
<polygon fill="black" stroke="black" points="326.204,-179.077 315.642,-178.251 323.384,-185.484 326.204,-179.077"/>
</g>
<!-- o1 -->
<g id="node62" class="node"><title>o1</title>
<a xlink:href="0051213" xlink:title="GO:0051213 (3)">
<ellipse fill="#e98576" stroke="#e98576" cx="454" cy="-162" rx="75.2018" ry="18"/>
<text text-anchor="middle" x="454" y="-157.8" font-family="Times,serif" font-size="14.00">GO:0051213 (3)</text>
</a>
</g>
<!-- h0&#45;&gt;o1 -->
<g id="edge60" class="edge"><title>h0&#45;&gt;o1</title>
<path fill="none" stroke="black" d="M443.461,-215.697C445.003,-207.983 446.858,-198.712 448.578,-190.112"/>
<polygon fill="black" stroke="black" points="452.05,-190.597 450.579,-180.104 445.186,-189.224 452.05,-190.597"/>
</g>
<!-- a1 -->
<g id="node94" class="node"><title>a1</title>
<a xlink:href="0009055" xlink:title="GO:0009055 (8)">
<ellipse fill="#e98576" stroke="#e98576" cx="622" cy="-162" rx="75.2018" ry="18"/>
<text text-anchor="middle" x="622" y="-157.8" font-family="Times,serif" font-size="14.00">GO:0009055 (8)</text>
</a>
</g>
<!-- h0&#45;&gt;a1 -->
<g id="edge92" class="edge"><title>h0&#45;&gt;a1</title>
<path fill="none" stroke="black" d="M479.044,-217.983C507.035,-207.217 544.891,-192.657 574.615,-181.225"/>
<polygon fill="black" stroke="black" points="575.88,-184.489 583.957,-177.632 573.367,-177.955 575.88,-184.489"/>
</g>
<!-- b1 -->
<g id="node78" class="node"><title>b1</title>
<a xlink:href="0016597" xlink:title="GO:0016597 (8)">
<ellipse fill="#e98576" stroke="#e98576" cx="3036" cy="-162" rx="75.2018" ry="18"/>
<text text-anchor="middle" x="3036" y="-157.8" font-family="Times,serif" font-size="14.00">GO:0016597 (8)</text>
</a>
</g>
<!-- c1&#45;&gt;b1 -->
<g id="edge76" class="edge"><title>c1&#45;&gt;b1</title>
<path fill="none" stroke="black" d="M3036,-215.697C3036,-207.983 3036,-198.712 3036,-190.112"/>
<polygon fill="black" stroke="black" points="3039.5,-190.104 3036,-180.104 3032.5,-190.104 3039.5,-190.104"/>
</g>
<!-- u1 -->
<g id="node66" class="node"><title>u1</title>
<a xlink:href="0016879" xlink:title="GO:0016879">
<ellipse fill="#dddddd" stroke="#dddddd" cx="791" cy="-162" rx="61.1934" ry="18"/>
<text text-anchor="middle" x="791" y="-157.8" font-family="Times,serif" font-size="14.00">GO:0016879</text>
</a>
</g>
<!-- v0&#45;&gt;u1 -->
<g id="edge64" class="edge"><title>v0&#45;&gt;u1</title>
<path fill="none" stroke="black" d="M791,-215.697C791,-207.983 791,-198.712 791,-190.112"/>
<polygon fill="black" stroke="black" points="794.5,-190.104 791,-180.104 787.5,-190.104 794.5,-190.104"/>
</g>
<!-- t1 -->
<g id="node67" class="node"><title>t1</title>
<a xlink:href="0016881" xlink:title="GO:0016881">
<ellipse fill="#dddddd" stroke="#dddddd" cx="791" cy="-90" rx="61.1934" ry="18"/>
<text text-anchor="middle" x="791" y="-85.8" font-family="Times,serif" font-size="14.00">GO:0016881</text>
</a>
</g>
<!-- u1&#45;&gt;t1 -->
<g id="edge90" class="edge"><title>u1&#45;&gt;t1</title>
<path fill="none" stroke="black" d="M791,-143.697C791,-135.983 791,-126.712 791,-118.112"/>
<polygon fill="black" stroke="black" points="794.5,-118.104 791,-108.104 787.5,-118.104 794.5,-118.104"/>
</g>
<!-- s1 -->
<g id="node69" class="node"><title>s1</title>
<a xlink:href="0019787" xlink:title="GO:0019787 (3)">
<ellipse fill="#e98576" stroke="#e98576" cx="791" cy="-18" rx="75.2018" ry="18"/>
<text text-anchor="middle" x="791" y="-13.8" font-family="Times,serif" font-size="14.00">GO:0019787 (3)</text>
</a>
</g>
<!-- t1&#45;&gt;s1 -->
<g id="edge66" class="edge"><title>t1&#45;&gt;s1</title>
<path fill="none" stroke="black" d="M791,-71.6966C791,-63.9827 791,-54.7125 791,-46.1124"/>
<polygon fill="black" stroke="black" points="794.5,-46.1043 791,-36.1043 787.5,-46.1044 794.5,-46.1043"/>
</g>
<!-- y0 -->
<g id="node83" class="node"><title>y0</title>
<a xlink:href="0004871" xlink:title="GO:0004871 (9)">
<ellipse fill="#e98576" stroke="#e98576" cx="6305" cy="-234" rx="75.2018" ry="18"/>
<text text-anchor="middle" x="6305" y="-229.8" font-family="Times,serif" font-size="14.00">GO:0004871 (9)</text>
</a>
</g>
<!-- z0&#45;&gt;y0 -->
<g id="edge80" class="edge"><title>z0&#45;&gt;y0</title>
<path fill="none" stroke="black" d="M4647.2,-292.954C4657.68,-290.955 4668.65,-289.159 4679,-288 5360.26,-211.714 5539.74,-328.286 6221,-252 6228.12,-251.203 6235.53,-250.105 6242.87,-248.847"/>
<polygon fill="black" stroke="black" points="6243.58,-252.274 6252.8,-247.046 6242.33,-245.387 6243.58,-252.274"/>
</g>
</g>
</svg>
