<?xml version="1.0" encoding="UTF-8" standalone="no"?>
<!DOCTYPE svg PUBLIC "-//W3C//DTD SVG 1.1//EN"
 "http://www.w3.org/Graphics/SVG/1.1/DTD/svg11.dtd">
<!-- Generated by graphviz version 2.28.0 (20110622.2320)
 -->
<!-- Title: G Pages: 1 -->
<svg width="4254pt" height="260pt"
 viewBox="0.00 0.00 4254.00 260.00" xmlns="http://www.w3.org/2000/svg" xmlns:xlink="http://www.w3.org/1999/xlink">
<g id="graph1" class="graph" transform="scale(1 1) rotate(0) translate(4 256)">
<title>G</title>
<polygon fill="white" stroke="white" points="-4,5 -4,-256 4251,-256 4251,5 -4,5"/>
<!-- c0 -->
<g id="node1" class="node"><title>c0</title>
<a xlink:href="0003674" xlink:title="GO:0003674 (5)">
<ellipse fill="#e98576" stroke="#e98576" cx="2648" cy="-234" rx="75.2018" ry="18"/>
<text text-anchor="middle" x="2648" y="-229.8" font-family="Times,serif" font-size="14.00">GO:0003674 (5)</text>
</a>
</g>
<!-- u0 -->
<g id="node3" class="node"><title>u0</title>
<a xlink:href="0030234" xlink:title="GO:0030234 (6)">
<ellipse fill="#e98576" stroke="#e98576" cx="528" cy="-162" rx="75.2018" ry="18"/>
<text text-anchor="middle" x="528" y="-157.8" font-family="Times,serif" font-size="14.00">GO:0030234 (6)</text>
</a>
</g>
<!-- c0&#45;&gt;u0 -->
<g id="edge2" class="edge"><title>c0&#45;&gt;u0</title>
<path fill="none" stroke="black" d="M2572.92,-232.768C2253.21,-231.513 1003.84,-223.846 613,-180 605.617,-179.172 597.92,-178.031 590.306,-176.728"/>
<polygon fill="black" stroke="black" points="590.839,-173.268 580.376,-174.936 589.596,-180.157 590.839,-173.268"/>
</g>
<!-- g0 -->
<g id="node4" class="node"><title>g0</title>
<a xlink:href="0003824" xlink:title="GO:0003824">
<ellipse fill="#dddddd" stroke="#dddddd" cx="683" cy="-162" rx="61.1934" ry="18"/>
<text text-anchor="middle" x="683" y="-157.8" font-family="Times,serif" font-size="14.00">GO:0003824</text>
</a>
</g>
<!-- c0&#45;&gt;g0 -->
<g id="edge42" class="edge"><title>c0&#45;&gt;g0</title>
<path fill="none" stroke="black" d="M2574.26,-230.373C2263.08,-219.288 1059.28,-176.404 753.797,-165.522"/>
<polygon fill="black" stroke="black" points="753.856,-162.022 743.738,-165.164 753.607,-169.018 753.856,-162.022"/>
</g>
<!-- b0 -->
<g id="node7" class="node"><title>b0</title>
<a xlink:href="0005488" xlink:title="GO:0005488 (7)">
<ellipse fill="#e98576" stroke="#e98576" cx="2475" cy="-162" rx="75.2018" ry="18"/>
<text text-anchor="middle" x="2475" y="-157.8" font-family="Times,serif" font-size="14.00">GO:0005488 (7)</text>
</a>
</g>
<!-- c0&#45;&gt;b0 -->
<g id="edge14" class="edge"><title>c0&#45;&gt;b0</title>
<path fill="none" stroke="black" d="M2611.31,-218.155C2584.93,-207.482 2549.18,-193.016 2520.91,-181.577"/>
<polygon fill="black" stroke="black" points="2522.22,-178.33 2511.64,-177.824 2519.59,-184.819 2522.22,-178.33"/>
</g>
<!-- h0 -->
<g id="node21" class="node"><title>h0</title>
<a xlink:href="0005215" xlink:title="GO:0005215 (26)">
<ellipse fill="#e98576" stroke="#e98576" cx="2648" cy="-162" rx="79.4447" ry="18"/>
<text text-anchor="middle" x="2648" y="-157.8" font-family="Times,serif" font-size="14.00">GO:0005215 (26)</text>
</a>
</g>
<!-- c0&#45;&gt;h0 -->
<g id="edge18" class="edge"><title>c0&#45;&gt;h0</title>
<path fill="none" stroke="black" d="M2648,-215.697C2648,-207.983 2648,-198.712 2648,-190.112"/>
<polygon fill="black" stroke="black" points="2651.5,-190.104 2648,-180.104 2644.5,-190.104 2651.5,-190.104"/>
</g>
<!-- m0 -->
<g id="node36" class="node"><title>m0</title>
<a xlink:href="0005198" xlink:title="GO:0005198 (16)">
<ellipse fill="#e98576" stroke="#e98576" cx="2826" cy="-162" rx="79.4447" ry="18"/>
<text text-anchor="middle" x="2826" y="-157.8" font-family="Times,serif" font-size="14.00">GO:0005198 (16)</text>
</a>
</g>
<!-- c0&#45;&gt;m0 -->
<g id="edge34" class="edge"><title>c0&#45;&gt;m0</title>
<path fill="none" stroke="black" d="M2685.31,-218.326C2712.43,-207.664 2749.33,-193.152 2778.54,-181.666"/>
<polygon fill="black" stroke="black" points="2780.1,-184.813 2788.12,-177.896 2777.53,-178.299 2780.1,-184.813"/>
</g>
<!-- r0 -->
<g id="node53" class="node"><title>r0</title>
<a xlink:href="0060089" xlink:title="GO:0060089">
<ellipse fill="#dddddd" stroke="#dddddd" cx="2985" cy="-162" rx="61.1934" ry="18"/>
<text text-anchor="middle" x="2985" y="-157.8" font-family="Times,serif" font-size="14.00">GO:0060089</text>
</a>
</g>
<!-- c0&#45;&gt;r0 -->
<g id="edge68" class="edge"><title>c0&#45;&gt;r0</title>
<path fill="none" stroke="black" d="M2705.21,-222.258C2759.17,-211.972 2842.25,-195.732 2914,-180 2919.05,-178.892 2924.3,-177.705 2929.55,-176.492"/>
<polygon fill="black" stroke="black" points="2930.67,-179.826 2939.61,-174.142 2929.07,-173.01 2930.67,-179.826"/>
</g>
<!-- x0 -->
<g id="node58" class="node"><title>x0</title>
<a xlink:href="0016209" xlink:title="GO:0016209 (4)">
<ellipse fill="#e98576" stroke="#e98576" cx="3140" cy="-162" rx="75.2018" ry="18"/>
<text text-anchor="middle" x="3140" y="-157.8" font-family="Times,serif" font-size="14.00">GO:0016209 (4)</text>
</a>
</g>
<!-- c0&#45;&gt;x0 -->
<g id="edge56" class="edge"><title>c0&#45;&gt;x0</title>
<path fill="none" stroke="black" d="M2714.83,-225.708C2795.63,-216.565 2935.65,-199.682 3055,-180 3061.68,-178.898 3068.65,-177.657 3075.58,-176.362"/>
<polygon fill="black" stroke="black" points="3076.52,-179.746 3085.69,-174.433 3075.21,-172.87 3076.52,-179.746"/>
</g>
<!-- t0 -->
<g id="node6" class="node"><title>t0</title>
<a xlink:href="0016853" xlink:title="GO:0016853 (8)">
<ellipse fill="#e98576" stroke="#e98576" cx="75" cy="-90" rx="75.2018" ry="18"/>
<text text-anchor="middle" x="75" y="-85.8" font-family="Times,serif" font-size="14.00">GO:0016853 (8)</text>
</a>
</g>
<!-- g0&#45;&gt;t0 -->
<g id="edge4" class="edge"><title>g0&#45;&gt;t0</title>
<path fill="none" stroke="black" d="M638.9,-149.317C630.042,-147.289 620.763,-145.389 612,-144 412.521,-112.39 359.006,-136.082 159,-108 152.268,-107.055 145.264,-105.906 138.298,-104.655"/>
<polygon fill="black" stroke="black" points="138.63,-101.157 128.158,-102.763 137.346,-108.038 138.63,-101.157"/>
</g>
<!-- i0 -->
<g id="node17" class="node"><title>i0</title>
<a xlink:href="0016787" xlink:title="GO:0016787 (21)">
<ellipse fill="#e98576" stroke="#e98576" cx="248" cy="-90" rx="79.4447" ry="18"/>
<text text-anchor="middle" x="248" y="-85.8" font-family="Times,serif" font-size="14.00">GO:0016787 (21)</text>
</a>
</g>
<!-- g0&#45;&gt;i0 -->
<g id="edge24" class="edge"><title>g0&#45;&gt;i0</title>
<path fill="none" stroke="black" d="M638.46,-149.581C629.722,-147.555 620.6,-145.588 612,-144 490.784,-121.618 458.701,-127.572 337,-108 329.953,-106.867 322.608,-105.601 315.292,-104.286"/>
<polygon fill="black" stroke="black" points="315.831,-100.826 305.364,-102.469 314.571,-107.712 315.831,-100.826"/>
</g>
<!-- e1 -->
<g id="node28" class="node"><title>e1</title>
<a xlink:href="0016874" xlink:title="GO:0016874 (2)">
<ellipse fill="#e98576" stroke="#e98576" cx="421" cy="-90" rx="75.2018" ry="18"/>
<text text-anchor="middle" x="421" y="-85.8" font-family="Times,serif" font-size="14.00">GO:0016874 (2)</text>
</a>
</g>
<!-- g0&#45;&gt;e1 -->
<g id="edge26" class="edge"><title>g0&#45;&gt;e1</title>
<path fill="none" stroke="black" d="M639.147,-149.284C595.263,-137.559 527.501,-119.455 479.151,-106.537"/>
<polygon fill="black" stroke="black" points="480.013,-103.144 469.449,-103.944 478.206,-109.907 480.013,-103.144"/>
</g>
<!-- j0 -->
<g id="node34" class="node"><title>j0</title>
<a xlink:href="0016491" xlink:title="GO:0016491 (20)">
<ellipse fill="#e98576" stroke="#e98576" cx="594" cy="-90" rx="79.4447" ry="18"/>
<text text-anchor="middle" x="594" y="-85.8" font-family="Times,serif" font-size="14.00">GO:0016491 (20)</text>
</a>
</g>
<!-- g0&#45;&gt;j0 -->
<g id="edge32" class="edge"><title>g0&#45;&gt;j0</title>
<path fill="none" stroke="black" d="M662.358,-144.765C650.648,-135.554 635.808,-123.882 622.949,-113.769"/>
<polygon fill="black" stroke="black" points="624.862,-110.821 614.838,-107.39 620.535,-116.323 624.862,-110.821"/>
</g>
<!-- f0 -->
<g id="node62" class="node"><title>f0</title>
<a xlink:href="0016740" xlink:title="GO:0016740 (27)">
<ellipse fill="#e98576" stroke="#e98576" cx="772" cy="-90" rx="79.4447" ry="18"/>
<text text-anchor="middle" x="772" y="-85.8" font-family="Times,serif" font-size="14.00">GO:0016740 (27)</text>
</a>
</g>
<!-- g0&#45;&gt;f0 -->
<g id="edge60" class="edge"><title>g0&#45;&gt;f0</title>
<path fill="none" stroke="black" d="M703.642,-144.765C715.352,-135.554 730.192,-123.882 743.051,-113.769"/>
<polygon fill="black" stroke="black" points="745.465,-116.323 751.162,-107.39 741.138,-110.821 745.465,-116.323"/>
</g>
<!-- n0 -->
<g id="node68" class="node"><title>n0</title>
<a xlink:href="0016829" xlink:title="GO:0016829 (13)">
<ellipse fill="#e98576" stroke="#e98576" cx="950" cy="-90" rx="79.4447" ry="18"/>
<text text-anchor="middle" x="950" y="-85.8" font-family="Times,serif" font-size="14.00">GO:0016829 (13)</text>
</a>
</g>
<!-- g0&#45;&gt;n0 -->
<g id="edge66" class="edge"><title>g0&#45;&gt;n0</title>
<path fill="none" stroke="black" d="M727.09,-149.441C771.57,-137.779 840.56,-119.692 890.005,-106.729"/>
<polygon fill="black" stroke="black" points="891.146,-110.048 899.931,-104.127 889.37,-103.277 891.146,-110.048"/>
</g>
<!-- y0 -->
<g id="node9" class="node"><title>y0</title>
<a xlink:href="0042277" xlink:title="GO:0042277 (4)">
<ellipse fill="#e98576" stroke="#e98576" cx="1123" cy="-90" rx="75.2018" ry="18"/>
<text text-anchor="middle" x="1123" y="-85.8" font-family="Times,serif" font-size="14.00">GO:0042277 (4)</text>
</a>
</g>
<!-- b0&#45;&gt;y0 -->
<g id="edge6" class="edge"><title>b0&#45;&gt;y0</title>
<path fill="none" stroke="black" d="M2400.65,-159.436C2165.61,-154.247 1440.35,-136.31 1207,-108 1200.15,-107.169 1193.03,-106.082 1185.96,-104.858"/>
<polygon fill="black" stroke="black" points="1186.13,-101.333 1175.67,-102.981 1184.88,-108.219 1186.13,-101.333"/>
</g>
<!-- i1 -->
<g id="node11" class="node"><title>i1</title>
<a xlink:href="0033218" xlink:title="GO:0033218 (1)">
<ellipse fill="#e98576" stroke="#e98576" cx="1291" cy="-90" rx="75.2018" ry="18"/>
<text text-anchor="middle" x="1291" y="-85.8" font-family="Times,serif" font-size="14.00">GO:0033218 (1)</text>
</a>
</g>
<!-- b0&#45;&gt;i1 -->
<g id="edge8" class="edge"><title>b0&#45;&gt;i1</title>
<path fill="none" stroke="black" d="M2399.97,-161.292C2221.57,-161.137 1758.25,-155.735 1375,-108 1368.16,-107.147 1361.03,-106.046 1353.96,-104.814"/>
<polygon fill="black" stroke="black" points="1354.14,-101.289 1343.67,-102.93 1352.88,-108.174 1354.14,-101.289"/>
</g>
<!-- d0 -->
<g id="node13" class="node"><title>d0</title>
<a xlink:href="0005515" xlink:title="GO:0005515 (54)">
<ellipse fill="#e98576" stroke="#e98576" cx="1464" cy="-90" rx="79.4447" ry="18"/>
<text text-anchor="middle" x="1464" y="-85.8" font-family="Times,serif" font-size="14.00">GO:0005515 (54)</text>
</a>
</g>
<!-- b0&#45;&gt;d0 -->
<g id="edge10" class="edge"><title>b0&#45;&gt;d0</title>
<path fill="none" stroke="black" d="M2400.31,-160.026C2243,-157.246 1866.27,-146.753 1553,-108 1545.43,-107.063 1537.53,-105.871 1529.7,-104.553"/>
<polygon fill="black" stroke="black" points="1530.3,-101.106 1519.85,-102.828 1529.09,-108.001 1530.3,-101.106"/>
</g>
<!-- z0 -->
<g id="node15" class="node"><title>z0</title>
<a xlink:href="0043021" xlink:title="GO:0043021 (3)">
<ellipse fill="#e98576" stroke="#e98576" cx="1637" cy="-90" rx="75.2018" ry="18"/>
<text text-anchor="middle" x="1637" y="-85.8" font-family="Times,serif" font-size="14.00">GO:0043021 (3)</text>
</a>
</g>
<!-- b0&#45;&gt;z0 -->
<g id="edge12" class="edge"><title>b0&#45;&gt;z0</title>
<path fill="none" stroke="black" d="M2400.83,-158.971C2265.28,-154.557 1968.71,-141.628 1721,-108 1714.26,-107.086 1707.26,-105.956 1700.29,-104.717"/>
<polygon fill="black" stroke="black" points="1700.62,-101.219 1690.15,-102.837 1699.34,-108.101 1700.62,-101.219"/>
</g>
<!-- a0 -->
<g id="node23" class="node"><title>a0</title>
<a xlink:href="0043167" xlink:title="GO:0043167 (69)">
<ellipse fill="#e98576" stroke="#e98576" cx="1810" cy="-90" rx="79.4447" ry="18"/>
<text text-anchor="middle" x="1810" y="-85.8" font-family="Times,serif" font-size="14.00">GO:0043167 (69)</text>
</a>
</g>
<!-- b0&#45;&gt;a0 -->
<g id="edge20" class="edge"><title>b0&#45;&gt;a0</title>
<path fill="none" stroke="black" d="M2402.9,-156.62C2293.57,-149.47 2079.48,-133.479 1899,-108 1891.83,-106.987 1884.35,-105.788 1876.92,-104.503"/>
<polygon fill="black" stroke="black" points="1877.3,-101.016 1866.84,-102.707 1876.07,-107.907 1877.3,-101.016"/>
</g>
<!-- c1 -->
<g id="node25" class="node"><title>c1</title>
<a xlink:href="0043176" xlink:title="GO:0043176">
<ellipse fill="#dddddd" stroke="#dddddd" cx="1969" cy="-90" rx="61.1934" ry="18"/>
<text text-anchor="middle" x="1969" y="-85.8" font-family="Times,serif" font-size="14.00">GO:0043176</text>
</a>
</g>
<!-- b0&#45;&gt;c1 -->
<g id="edge22" class="edge"><title>b0&#45;&gt;c1</title>
<path fill="none" stroke="black" d="M2405.7,-155.01C2319.56,-147.002 2168.22,-131.085 2040,-108 2034.62,-107.031 2029.04,-105.907 2023.48,-104.706"/>
<polygon fill="black" stroke="black" points="2024.05,-101.249 2013.53,-102.48 2022.52,-108.08 2024.05,-101.249"/>
</g>
<!-- v0 -->
<g id="node30" class="node"><title>v0</title>
<a xlink:href="0030246" xlink:title="GO:0030246 (6)">
<ellipse fill="#e98576" stroke="#e98576" cx="2124" cy="-90" rx="75.2018" ry="18"/>
<text text-anchor="middle" x="2124" y="-85.8" font-family="Times,serif" font-size="14.00">GO:0030246 (6)</text>
</a>
</g>
<!-- b0&#45;&gt;v0 -->
<g id="edge28" class="edge"><title>b0&#45;&gt;v0</title>
<path fill="none" stroke="black" d="M2418.99,-149.945C2364.96,-139.265 2280.86,-122.605 2208,-108 2201.97,-106.791 2195.69,-105.529 2189.41,-104.263"/>
<polygon fill="black" stroke="black" points="2190.07,-100.824 2179.57,-102.277 2188.68,-107.686 2190.07,-100.824"/>
</g>
<!-- e0 -->
<g id="node32" class="node"><title>e0</title>
<a xlink:href="0003676" xlink:title="GO:0003676 (32)">
<ellipse fill="#e98576" stroke="#e98576" cx="2297" cy="-90" rx="79.4447" ry="18"/>
<text text-anchor="middle" x="2297" y="-85.8" font-family="Times,serif" font-size="14.00">GO:0003676 (32)</text>
</a>
</g>
<!-- b0&#45;&gt;e0 -->
<g id="edge30" class="edge"><title>b0&#45;&gt;e0</title>
<path fill="none" stroke="black" d="M2437.69,-146.326C2410.57,-135.664 2373.67,-121.152 2344.46,-109.666"/>
<polygon fill="black" stroke="black" points="2345.47,-106.299 2334.88,-105.896 2342.9,-112.813 2345.47,-106.299"/>
</g>
<!-- l0 -->
<g id="node38" class="node"><title>l0</title>
<a xlink:href="0048037" xlink:title="GO:0048037 (17)">
<ellipse fill="#e98576" stroke="#e98576" cx="2475" cy="-90" rx="79.4447" ry="18"/>
<text text-anchor="middle" x="2475" y="-85.8" font-family="Times,serif" font-size="14.00">GO:0048037 (17)</text>
</a>
</g>
<!-- b0&#45;&gt;l0 -->
<g id="edge36" class="edge"><title>b0&#45;&gt;l0</title>
<path fill="none" stroke="black" d="M2475,-143.697C2475,-135.983 2475,-126.712 2475,-118.112"/>
<polygon fill="black" stroke="black" points="2478.5,-118.104 2475,-108.104 2471.5,-118.104 2478.5,-118.104"/>
</g>
<!-- w0 -->
<g id="node43" class="node"><title>w0</title>
<a xlink:href="0008289" xlink:title="GO:0008289 (5)">
<ellipse fill="#e98576" stroke="#e98576" cx="2648" cy="-90" rx="75.2018" ry="18"/>
<text text-anchor="middle" x="2648" y="-85.8" font-family="Times,serif" font-size="14.00">GO:0008289 (5)</text>
</a>
</g>
<!-- b0&#45;&gt;w0 -->
<g id="edge40" class="edge"><title>b0&#45;&gt;w0</title>
<path fill="none" stroke="black" d="M2511.69,-146.155C2538.07,-135.482 2573.82,-121.016 2602.09,-109.577"/>
<polygon fill="black" stroke="black" points="2603.41,-112.819 2611.36,-105.824 2600.78,-106.33 2603.41,-112.819"/>
</g>
<!-- a1 -->
<g id="node46" class="node"><title>a1</title>
<a xlink:href="0001882" xlink:title="GO:0001882 (3)">
<ellipse fill="#e98576" stroke="#e98576" cx="2816" cy="-90" rx="75.2018" ry="18"/>
<text text-anchor="middle" x="2816" y="-85.8" font-family="Times,serif" font-size="14.00">GO:0001882 (3)</text>
</a>
</g>
<!-- b0&#45;&gt;a1 -->
<g id="edge44" class="edge"><title>b0&#45;&gt;a1</title>
<path fill="none" stroke="black" d="M2530.17,-149.675C2590.46,-137.298 2686.99,-117.483 2750.94,-104.355"/>
<polygon fill="black" stroke="black" points="2751.82,-107.748 2760.91,-102.308 2750.41,-100.891 2751.82,-107.748"/>
</g>
<!-- h1 -->
<g id="node48" class="node"><title>h1</title>
<a xlink:href="0008144" xlink:title="GO:0008144 (1)">
<ellipse fill="#e98576" stroke="#e98576" cx="2984" cy="-90" rx="75.2018" ry="18"/>
<text text-anchor="middle" x="2984" y="-85.8" font-family="Times,serif" font-size="14.00">GO:0008144 (1)</text>
</a>
</g>
<!-- b0&#45;&gt;h1 -->
<g id="edge46" class="edge"><title>b0&#45;&gt;h1</title>
<path fill="none" stroke="black" d="M2528.64,-149.359C2538.7,-147.4 2549.15,-145.514 2559,-144 2709.63,-120.859 2749.37,-131.141 2900,-108 2906.62,-106.983 2913.51,-105.798 2920.37,-104.536"/>
<polygon fill="black" stroke="black" points="2921.19,-107.943 2930.36,-102.641 2919.88,-101.065 2921.19,-107.943"/>
</g>
<!-- s0 -->
<g id="node50" class="node"><title>s0</title>
<a xlink:href="0019842" xlink:title="GO:0019842 (9)">
<ellipse fill="#e98576" stroke="#e98576" cx="3152" cy="-90" rx="75.2018" ry="18"/>
<text text-anchor="middle" x="3152" y="-85.8" font-family="Times,serif" font-size="14.00">GO:0019842 (9)</text>
</a>
</g>
<!-- b0&#45;&gt;s0 -->
<g id="edge48" class="edge"><title>b0&#45;&gt;s0</title>
<path fill="none" stroke="black" d="M2528.15,-149.167C2538.35,-147.202 2548.97,-145.363 2559,-144 2783.72,-113.444 2843.28,-138.556 3068,-108 3074.74,-107.084 3081.74,-105.954 3088.71,-104.714"/>
<polygon fill="black" stroke="black" points="3089.66,-108.098 3098.85,-102.833 3088.38,-101.216 3089.66,-108.098"/>
</g>
<!-- j1 -->
<g id="node56" class="node"><title>j1</title>
<a xlink:href="0060090" xlink:title="GO:0060090 (1)">
<ellipse fill="#e98576" stroke="#e98576" cx="3320" cy="-90" rx="75.2018" ry="18"/>
<text text-anchor="middle" x="3320" y="-85.8" font-family="Times,serif" font-size="14.00">GO:0060090 (1)</text>
</a>
</g>
<!-- b0&#45;&gt;j1 -->
<g id="edge54" class="edge"><title>b0&#45;&gt;j1</title>
<path fill="none" stroke="black" d="M2527.68,-149.111C2538.02,-147.126 2548.82,-145.294 2559,-144 2857.91,-106.014 2937.09,-145.986 3236,-108 3242.84,-107.13 3249.96,-106.018 3257.03,-104.78"/>
<polygon fill="black" stroke="black" points="3258.12,-108.139 3267.32,-102.889 3256.85,-101.255 3258.12,-108.139"/>
</g>
<!-- g1 -->
<g id="node60" class="node"><title>g1</title>
<a xlink:href="0031406" xlink:title="GO:0031406 (1)">
<ellipse fill="#e98576" stroke="#e98576" cx="3488" cy="-90" rx="75.2018" ry="18"/>
<text text-anchor="middle" x="3488" y="-85.8" font-family="Times,serif" font-size="14.00">GO:0031406 (1)</text>
</a>
</g>
<!-- b0&#45;&gt;g1 -->
<g id="edge58" class="edge"><title>b0&#45;&gt;g1</title>
<path fill="none" stroke="black" d="M2527.67,-149.025C2538.01,-147.047 2548.81,-145.241 2559,-144 2932.14,-98.5786 3030.86,-153.421 3404,-108 3410.85,-107.167 3417.97,-106.077 3425.04,-104.853"/>
<polygon fill="black" stroke="black" points="3426.12,-108.213 3435.33,-102.975 3424.87,-101.327 3426.12,-108.213"/>
</g>
<!-- d1 -->
<g id="node64" class="node"><title>d1</title>
<a xlink:href="0046906" xlink:title="GO:0046906 (3)">
<ellipse fill="#e98576" stroke="#e98576" cx="3656" cy="-90" rx="75.2018" ry="18"/>
<text text-anchor="middle" x="3656" y="-85.8" font-family="Times,serif" font-size="14.00">GO:0046906 (3)</text>
</a>
</g>
<!-- b0&#45;&gt;d1 -->
<g id="edge62" class="edge"><title>b0&#45;&gt;d1</title>
<path fill="none" stroke="black" d="M2527.21,-149.053C2537.69,-147.047 2548.66,-145.222 2559,-144 3006.39,-91.1409 3124.61,-160.859 3572,-108 3579.11,-107.16 3586.52,-106.035 3593.86,-104.762"/>
<polygon fill="black" stroke="black" points="3594.58,-108.187 3603.79,-102.947 3593.32,-101.301 3594.58,-108.187"/>
</g>
<!-- k0 -->
<g id="node66" class="node"><title>k0</title>
<a xlink:href="0000166" xlink:title="GO:0000166 (19)">
<ellipse fill="#e98576" stroke="#e98576" cx="3829" cy="-90" rx="79.4447" ry="18"/>
<text text-anchor="middle" x="3829" y="-85.8" font-family="Times,serif" font-size="14.00">GO:0000166 (19)</text>
</a>
</g>
<!-- b0&#45;&gt;k0 -->
<g id="edge64" class="edge"><title>b0&#45;&gt;k0</title>
<path fill="none" stroke="black" d="M2527.21,-149.012C2537.68,-147.009 2548.65,-145.196 2559,-144 3080.66,-83.7018 3218.02,-165.442 3740,-108 3747.7,-107.153 3755.72,-106.003 3763.67,-104.699"/>
<polygon fill="black" stroke="black" points="3764.4,-108.124 3773.66,-102.974 3763.21,-101.226 3764.4,-108.124"/>
</g>
<!-- f1 -->
<g id="node71" class="node"><title>f1</title>
<a xlink:href="0051540" xlink:title="GO:0051540 (2)">
<ellipse fill="#e98576" stroke="#e98576" cx="4002" cy="-90" rx="75.2018" ry="18"/>
<text text-anchor="middle" x="4002" y="-85.8" font-family="Times,serif" font-size="14.00">GO:0051540 (2)</text>
</a>
</g>
<!-- b0&#45;&gt;f1 -->
<g id="edge70" class="edge"><title>b0&#45;&gt;f1</title>
<path fill="none" stroke="black" d="M2527.2,-148.98C2537.68,-146.979 2548.65,-145.175 2559,-144 3158.91,-75.8632 3317.01,-175.45 3917,-108 3924.38,-107.17 3932.08,-106.028 3939.69,-104.725"/>
<polygon fill="black" stroke="black" points="3940.4,-108.153 3949.62,-102.932 3939.16,-101.265 3940.4,-108.153"/>
</g>
<!-- o0 -->
<g id="node19" class="node"><title>o0</title>
<a xlink:href="0008233" xlink:title="GO:0008233 (10)">
<ellipse fill="#e98576" stroke="#e98576" cx="248" cy="-18" rx="79.4447" ry="18"/>
<text text-anchor="middle" x="248" y="-13.8" font-family="Times,serif" font-size="14.00">GO:0008233 (10)</text>
</a>
</g>
<!-- i0&#45;&gt;o0 -->
<g id="edge16" class="edge"><title>i0&#45;&gt;o0</title>
<path fill="none" stroke="black" d="M248,-71.6966C248,-63.9827 248,-54.7125 248,-46.1124"/>
<polygon fill="black" stroke="black" points="251.5,-46.1043 248,-36.1043 244.5,-46.1044 251.5,-46.1043"/>
</g>
<!-- b1 -->
<g id="node52" class="node"><title>b1</title>
<a xlink:href="0016597" xlink:title="GO:0016597 (3)">
<ellipse fill="#e98576" stroke="#e98576" cx="1969" cy="-18" rx="75.2018" ry="18"/>
<text text-anchor="middle" x="1969" y="-13.8" font-family="Times,serif" font-size="14.00">GO:0016597 (3)</text>
</a>
</g>
<!-- c1&#45;&gt;b1 -->
<g id="edge50" class="edge"><title>c1&#45;&gt;b1</title>
<path fill="none" stroke="black" d="M1969,-71.6966C1969,-63.9827 1969,-54.7125 1969,-46.1124"/>
<polygon fill="black" stroke="black" points="1972.5,-46.1043 1969,-36.1043 1965.5,-46.1044 1972.5,-46.1043"/>
</g>
<!-- q0 -->
<g id="node39" class="node"><title>q0</title>
<a xlink:href="0004871" xlink:title="GO:0004871 (3)">
<ellipse fill="#e98576" stroke="#e98576" cx="4170" cy="-90" rx="75.2018" ry="18"/>
<text text-anchor="middle" x="4170" y="-85.8" font-family="Times,serif" font-size="14.00">GO:0004871 (3)</text>
</a>
</g>
<!-- p0 -->
<g id="node41" class="node"><title>p0</title>
<a xlink:href="0004872" xlink:title="GO:0004872 (9)">
<ellipse fill="#e98576" stroke="#e98576" cx="4170" cy="-18" rx="75.2018" ry="18"/>
<text text-anchor="middle" x="4170" y="-13.8" font-family="Times,serif" font-size="14.00">GO:0004872 (9)</text>
</a>
</g>
<!-- q0&#45;&gt;p0 -->
<g id="edge38" class="edge"><title>q0&#45;&gt;p0</title>
<path fill="none" stroke="black" d="M4170,-71.6966C4170,-63.9827 4170,-54.7125 4170,-46.1124"/>
<polygon fill="black" stroke="black" points="4173.5,-46.1043 4170,-36.1043 4166.5,-46.1044 4173.5,-46.1043"/>
</g>
<!-- r0&#45;&gt;q0 -->
<g id="edge52" class="edge"><title>r0&#45;&gt;q0</title>
<path fill="none" stroke="black" d="M3028.3,-149.181C3037.38,-147.11 3046.96,-145.228 3056,-144 3509.89,-82.3614 3631.09,-161.612 4086,-108 4093.11,-107.162 4100.52,-106.038 4107.86,-104.766"/>
<polygon fill="black" stroke="black" points="4108.58,-108.192 4117.79,-102.951 4107.32,-101.306 4108.58,-108.192"/>
</g>
</g>
</svg>
