<?xml version="1.0" encoding="UTF-8" standalone="no"?>
<!DOCTYPE svg PUBLIC "-//W3C//DTD SVG 1.1//EN"
 "http://www.w3.org/Graphics/SVG/1.1/DTD/svg11.dtd">
<!-- Generated by graphviz version 2.28.0 (20110622.2320)
 -->
<!-- Title: G Pages: 1 -->
<svg width="509pt" height="260pt"
 viewBox="0.00 0.00 509.00 260.00" xmlns="http://www.w3.org/2000/svg" xmlns:xlink="http://www.w3.org/1999/xlink">
<g id="graph1" class="graph" transform="scale(1 1) rotate(0) translate(4 256)">
<title>G</title>
<polygon fill="white" stroke="white" points="-4,5 -4,-256 506,-256 506,5 -4,5"/>
<!-- c0 -->
<g id="node1" class="node"><title>c0</title>
<a xlink:href="0005575" xlink:title="GO:0005575">
<ellipse fill="#dddddd" stroke="#dddddd" cx="285" cy="-234" rx="61.1934" ry="18"/>
<text text-anchor="middle" x="285" y="-229.8" font-family="Times,serif" font-size="14.00">GO:0005575</text>
</a>
</g>
<!-- b0 -->
<g id="node3" class="node"><title>b0</title>
<a xlink:href="0044464" xlink:title="GO:0044464">
<ellipse fill="#dddddd" stroke="#dddddd" cx="227" cy="-90" rx="61.1934" ry="18"/>
<text text-anchor="middle" x="227" y="-85.8" font-family="Times,serif" font-size="14.00">GO:0044464</text>
</a>
</g>
<!-- c0&#45;&gt;b0 -->
<g id="edge2" class="edge"><title>c0&#45;&gt;b0</title>
<path fill="none" stroke="black" d="M254.346,-218.326C239.565,-209.47 223.279,-196.652 215,-180 205.337,-160.564 209.733,-135.946 215.754,-117.531"/>
<polygon fill="black" stroke="black" points="219.088,-118.605 219.188,-108.01 212.503,-116.23 219.088,-118.605"/>
</g>
<!-- d0 -->
<g id="node4" class="node"><title>d0</title>
<a xlink:href="0005623" xlink:title="GO:0005623">
<ellipse fill="#dddddd" stroke="#dddddd" cx="285" cy="-162" rx="61.1934" ry="18"/>
<text text-anchor="middle" x="285" y="-157.8" font-family="Times,serif" font-size="14.00">GO:0005623</text>
</a>
</g>
<!-- c0&#45;&gt;d0 -->
<g id="edge16" class="edge"><title>c0&#45;&gt;d0</title>
<path fill="none" stroke="black" d="M285,-215.697C285,-207.983 285,-198.712 285,-190.112"/>
<polygon fill="black" stroke="black" points="288.5,-190.104 285,-180.104 281.5,-190.104 288.5,-190.104"/>
</g>
<!-- h0 -->
<g id="node14" class="node"><title>h0</title>
<a xlink:href="0032991" xlink:title="GO:0032991">
<ellipse fill="#dddddd" stroke="#dddddd" cx="426" cy="-162" rx="61.1934" ry="18"/>
<text text-anchor="middle" x="426" y="-157.8" font-family="Times,serif" font-size="14.00">GO:0032991</text>
</a>
</g>
<!-- c0&#45;&gt;h0 -->
<g id="edge12" class="edge"><title>c0&#45;&gt;h0</title>
<path fill="none" stroke="black" d="M314.902,-218.155C335.933,-207.714 364.275,-193.644 387.069,-182.328"/>
<polygon fill="black" stroke="black" points="388.74,-185.405 396.141,-177.824 385.627,-179.136 388.74,-185.405"/>
</g>
<!-- a0 -->
<g id="node7" class="node"><title>a0</title>
<a xlink:href="0016020" xlink:title="GO:0016020 (2)">
<ellipse fill="#e98576" stroke="#e98576" cx="75" cy="-18" rx="75.2018" ry="18"/>
<text text-anchor="middle" x="75" y="-13.8" font-family="Times,serif" font-size="14.00">GO:0016020 (2)</text>
</a>
</g>
<!-- b0&#45;&gt;a0 -->
<g id="edge6" class="edge"><title>b0&#45;&gt;a0</title>
<path fill="none" stroke="black" d="M195.506,-74.496C172.836,-64.0562 142.011,-49.8601 117.211,-38.4394"/>
<polygon fill="black" stroke="black" points="118.579,-35.2159 108.032,-34.2119 115.651,-41.574 118.579,-35.2159"/>
</g>
<!-- e0 -->
<g id="node12" class="node"><title>e0</title>
<a xlink:href="0045177" xlink:title="GO:0045177 (2)">
<ellipse fill="#e98576" stroke="#e98576" cx="243" cy="-18" rx="75.2018" ry="18"/>
<text text-anchor="middle" x="243" y="-13.8" font-family="Times,serif" font-size="14.00">GO:0045177 (2)</text>
</a>
</g>
<!-- b0&#45;&gt;e0 -->
<g id="edge10" class="edge"><title>b0&#45;&gt;e0</title>
<path fill="none" stroke="black" d="M230.955,-71.6966C232.718,-63.9827 234.837,-54.7125 236.803,-46.1124"/>
<polygon fill="black" stroke="black" points="240.274,-46.6328 239.09,-36.1043 233.45,-45.073 240.274,-46.6328"/>
</g>
<!-- d0&#45;&gt;b0 -->
<g id="edge4" class="edge"><title>d0&#45;&gt;b0</title>
<path fill="none" stroke="black" d="M271.255,-144.411C264.207,-135.906 255.48,-125.372 247.643,-115.914"/>
<polygon fill="black" stroke="black" points="250.125,-113.423 241.049,-107.956 244.735,-117.89 250.125,-113.423"/>
</g>
<!-- g0 -->
<g id="node8" class="node"><title>g0</title>
<a xlink:href="0043234" xlink:title="GO:0043234">
<ellipse fill="#dddddd" stroke="#dddddd" cx="426" cy="-90" rx="61.1934" ry="18"/>
<text text-anchor="middle" x="426" y="-85.8" font-family="Times,serif" font-size="14.00">GO:0043234</text>
</a>
</g>
<!-- f0 -->
<g id="node10" class="node"><title>f0</title>
<a xlink:href="0043235" xlink:title="GO:0043235 (2)">
<ellipse fill="#e98576" stroke="#e98576" cx="426" cy="-18" rx="75.2018" ry="18"/>
<text text-anchor="middle" x="426" y="-13.8" font-family="Times,serif" font-size="14.00">GO:0043235 (2)</text>
</a>
</g>
<!-- g0&#45;&gt;f0 -->
<g id="edge8" class="edge"><title>g0&#45;&gt;f0</title>
<path fill="none" stroke="black" d="M426,-71.6966C426,-63.9827 426,-54.7125 426,-46.1124"/>
<polygon fill="black" stroke="black" points="429.5,-46.1043 426,-36.1043 422.5,-46.1044 429.5,-46.1043"/>
</g>
<!-- h0&#45;&gt;g0 -->
<g id="edge14" class="edge"><title>h0&#45;&gt;g0</title>
<path fill="none" stroke="black" d="M426,-143.697C426,-135.983 426,-126.712 426,-118.112"/>
<polygon fill="black" stroke="black" points="429.5,-118.104 426,-108.104 422.5,-118.104 429.5,-118.104"/>
</g>
</g>
</svg>
