<?xml version="1.0" encoding="UTF-8" standalone="no"?>
<!DOCTYPE svg PUBLIC "-//W3C//DTD SVG 1.1//EN"
 "http://www.w3.org/Graphics/SVG/1.1/DTD/svg11.dtd">
<!-- Generated by graphviz version 2.28.0 (20110622.2320)
 -->
<!-- Title: G Pages: 1 -->
<svg width="735pt" height="548pt"
 viewBox="0.00 0.00 735.00 548.00" xmlns="http://www.w3.org/2000/svg" xmlns:xlink="http://www.w3.org/1999/xlink">
<g id="graph1" class="graph" transform="scale(1 1) rotate(0) translate(4 544)">
<title>G</title>
<polygon fill="white" stroke="white" points="-4,5 -4,-544 732,-544 732,5 -4,5"/>
<!-- e0 -->
<g id="node1" class="node"><title>e0</title>
<a xlink:href="0005575" xlink:title="GO:0005575">
<ellipse fill="#dddddd" stroke="#dddddd" cx="398" cy="-522" rx="61.1934" ry="18"/>
<text text-anchor="middle" x="398" y="-517.8" font-family="Times,serif" font-size="14.00">GO:0005575</text>
</a>
</g>
<!-- i0 -->
<g id="node3" class="node"><title>i0</title>
<a xlink:href="0044464" xlink:title="GO:0044464">
<ellipse fill="#dddddd" stroke="#dddddd" cx="153" cy="-378" rx="61.1934" ry="18"/>
<text text-anchor="middle" x="153" y="-373.8" font-family="Times,serif" font-size="14.00">GO:0044464</text>
</a>
</g>
<!-- e0&#45;&gt;i0 -->
<g id="edge2" class="edge"><title>e0&#45;&gt;i0</title>
<path fill="none" stroke="black" d="M336.88,-520.064C290.865,-516.239 228.93,-504.019 188,-468 170.039,-452.194 161.208,-425.982 156.92,-406.088"/>
<polygon fill="black" stroke="black" points="160.323,-405.244 155.022,-396.071 153.445,-406.547 160.323,-405.244"/>
</g>
<!-- j0 -->
<g id="node4" class="node"><title>j0</title>
<a xlink:href="0005623" xlink:title="GO:0005623">
<ellipse fill="#dddddd" stroke="#dddddd" cx="258" cy="-450" rx="61.1934" ry="18"/>
<text text-anchor="middle" x="258" y="-445.8" font-family="Times,serif" font-size="14.00">GO:0005623</text>
</a>
</g>
<!-- e0&#45;&gt;j0 -->
<g id="edge40" class="edge"><title>e0&#45;&gt;j0</title>
<path fill="none" stroke="black" d="M368.31,-506.155C347.428,-495.714 319.287,-481.644 296.655,-470.328"/>
<polygon fill="black" stroke="black" points="298.157,-467.165 287.648,-465.824 295.027,-473.426 298.157,-467.165"/>
</g>
<!-- d0 -->
<g id="node6" class="node"><title>d0</title>
<a xlink:href="0043226" xlink:title="GO:0043226">
<ellipse fill="#dddddd" stroke="#dddddd" cx="356" cy="-378" rx="61.1934" ry="18"/>
<text text-anchor="middle" x="356" y="-373.8" font-family="Times,serif" font-size="14.00">GO:0043226</text>
</a>
</g>
<!-- e0&#45;&gt;d0 -->
<g id="edge28" class="edge"><title>e0&#45;&gt;d0</title>
<path fill="none" stroke="black" d="M388.524,-503.787C383.281,-493.633 377.031,-480.383 373,-468 366.396,-447.714 362.018,-423.943 359.361,-406.074"/>
<polygon fill="black" stroke="black" points="362.81,-405.468 357.958,-396.05 355.878,-406.438 362.81,-405.468"/>
</g>
<!-- q0 -->
<g id="node15" class="node"><title>q0</title>
<a xlink:href="0005576" xlink:title="GO:0005576">
<ellipse fill="#dddddd" stroke="#dddddd" cx="443" cy="-450" rx="61.1934" ry="18"/>
<text text-anchor="middle" x="443" y="-445.8" font-family="Times,serif" font-size="14.00">GO:0005576</text>
</a>
</g>
<!-- e0&#45;&gt;q0 -->
<g id="edge14" class="edge"><title>e0&#45;&gt;q0</title>
<path fill="none" stroke="black" d="M408.893,-504.055C414.255,-495.715 420.827,-485.491 426.767,-476.252"/>
<polygon fill="black" stroke="black" points="429.744,-478.093 432.207,-467.789 423.855,-474.308 429.744,-478.093"/>
</g>
<!-- l0 -->
<g id="node17" class="node"><title>l0</title>
<a xlink:href="0032991" xlink:title="GO:0032991">
<ellipse fill="#dddddd" stroke="#dddddd" cx="635" cy="-450" rx="61.1934" ry="18"/>
<text text-anchor="middle" x="635" y="-445.8" font-family="Times,serif" font-size="14.00">GO:0032991</text>
</a>
</g>
<!-- e0&#45;&gt;l0 -->
<g id="edge16" class="edge"><title>e0&#45;&gt;l0</title>
<path fill="none" stroke="black" d="M439.553,-508.727C479.704,-496.868 540.618,-478.877 583.756,-466.135"/>
<polygon fill="black" stroke="black" points="584.895,-469.448 593.494,-463.259 582.912,-462.735 584.895,-469.448"/>
</g>
<!-- p0 -->
<g id="node21" class="node"><title>p0</title>
<a xlink:href="0044421" xlink:title="GO:0044421">
<ellipse fill="#dddddd" stroke="#dddddd" cx="497" cy="-378" rx="61.1934" ry="18"/>
<text text-anchor="middle" x="497" y="-373.8" font-family="Times,serif" font-size="14.00">GO:0044421</text>
</a>
</g>
<!-- e0&#45;&gt;p0 -->
<g id="edge20" class="edge"><title>e0&#45;&gt;p0</title>
<path fill="none" stroke="black" d="M447.358,-511.296C471.523,-503.79 498.48,-490.68 513,-468 525.038,-449.197 518.764,-423.82 510.808,-404.975"/>
<polygon fill="black" stroke="black" points="513.94,-403.409 506.583,-395.785 507.58,-406.333 513.94,-403.409"/>
</g>
<!-- h0 -->
<g id="node10" class="node"><title>h0</title>
<a xlink:href="0005622" xlink:title="GO:0005622">
<ellipse fill="#dddddd" stroke="#dddddd" cx="61" cy="-306" rx="61.1934" ry="18"/>
<text text-anchor="middle" x="61" y="-301.8" font-family="Times,serif" font-size="14.00">GO:0005622</text>
</a>
</g>
<!-- i0&#45;&gt;h0 -->
<g id="edge8" class="edge"><title>i0&#45;&gt;h0</title>
<path fill="none" stroke="black" d="M131.662,-360.765C119.354,-351.4 103.701,-339.49 90.2575,-329.261"/>
<polygon fill="black" stroke="black" points="92.2998,-326.417 82.2222,-323.147 88.0611,-331.988 92.2998,-326.417"/>
</g>
<!-- g0 -->
<g id="node12" class="node"><title>g0</title>
<a xlink:href="0044424" xlink:title="GO:0044424">
<ellipse fill="#dddddd" stroke="#dddddd" cx="150" cy="-234" rx="61.1934" ry="18"/>
<text text-anchor="middle" x="150" y="-229.8" font-family="Times,serif" font-size="14.00">GO:0044424</text>
</a>
</g>
<!-- i0&#45;&gt;g0 -->
<g id="edge12" class="edge"><title>i0&#45;&gt;g0</title>
<path fill="none" stroke="black" d="M152.638,-359.871C152.127,-335.67 151.188,-291.211 150.579,-262.393"/>
<polygon fill="black" stroke="black" points="154.074,-262.113 150.363,-252.189 147.075,-262.261 154.074,-262.113"/>
</g>
<!-- j0&#45;&gt;i0 -->
<g id="edge4" class="edge"><title>j0&#45;&gt;i0</title>
<path fill="none" stroke="black" d="M234.436,-433.291C219.845,-423.564 200.918,-410.946 184.984,-400.322"/>
<polygon fill="black" stroke="black" points="186.747,-397.292 176.485,-394.657 182.864,-403.116 186.747,-397.292"/>
</g>
<!-- n0 -->
<g id="node8" class="node"><title>n0</title>
<a xlink:href="0031982" xlink:title="GO:0031982 (1)">
<ellipse fill="#e98576" stroke="#e98576" cx="253" cy="-306" rx="75.2018" ry="18"/>
<text text-anchor="middle" x="253" y="-301.8" font-family="Times,serif" font-size="14.00">GO:0031982 (1)</text>
</a>
</g>
<!-- d0&#45;&gt;n0 -->
<g id="edge6" class="edge"><title>d0&#45;&gt;n0</title>
<path fill="none" stroke="black" d="M332.885,-361.291C318.772,-351.7 300.524,-339.298 285.032,-328.769"/>
<polygon fill="black" stroke="black" points="286.991,-325.869 276.753,-323.142 283.056,-331.658 286.991,-325.869"/>
</g>
<!-- c0 -->
<g id="node19" class="node"><title>c0</title>
<a xlink:href="0043228" xlink:title="GO:0043228">
<ellipse fill="#dddddd" stroke="#dddddd" cx="445" cy="-234" rx="61.1934" ry="18"/>
<text text-anchor="middle" x="445" y="-229.8" font-family="Times,serif" font-size="14.00">GO:0043228</text>
</a>
</g>
<!-- d0&#45;&gt;c0 -->
<g id="edge18" class="edge"><title>d0&#45;&gt;c0</title>
<path fill="none" stroke="black" d="M366.559,-360.153C382.015,-335.493 410.921,-289.374 428.997,-260.533"/>
<polygon fill="black" stroke="black" points="432.11,-262.157 434.455,-251.825 426.178,-258.439 432.11,-262.157"/>
</g>
<!-- f0 -->
<g id="node30" class="node"><title>f0</title>
<a xlink:href="0043229" xlink:title="GO:0043229">
<ellipse fill="#dddddd" stroke="#dddddd" cx="356" cy="-162" rx="61.1934" ry="18"/>
<text text-anchor="middle" x="356" y="-157.8" font-family="Times,serif" font-size="14.00">GO:0043229</text>
</a>
</g>
<!-- d0&#45;&gt;f0 -->
<g id="edge30" class="edge"><title>d0&#45;&gt;f0</title>
<path fill="none" stroke="black" d="M356,-359.849C356,-322.832 356,-235.181 356,-190.386"/>
<polygon fill="black" stroke="black" points="359.5,-190.232 356,-180.232 352.5,-190.232 359.5,-190.232"/>
</g>
<!-- o0 -->
<g id="node33" class="node"><title>o0</title>
<a xlink:href="0043230" xlink:title="GO:0043230 (1)">
<ellipse fill="#e98576" stroke="#e98576" cx="497" cy="-306" rx="75.2018" ry="18"/>
<text text-anchor="middle" x="497" y="-301.8" font-family="Times,serif" font-size="14.00">GO:0043230 (1)</text>
</a>
</g>
<!-- d0&#45;&gt;o0 -->
<g id="edge34" class="edge"><title>d0&#45;&gt;o0</title>
<path fill="none" stroke="black" d="M385.902,-362.155C406.507,-351.926 434.129,-338.212 456.676,-327.019"/>
<polygon fill="black" stroke="black" points="458.274,-330.133 465.675,-322.552 455.161,-323.863 458.274,-330.133"/>
</g>
<!-- h0&#45;&gt;g0 -->
<g id="edge10" class="edge"><title>h0&#45;&gt;g0</title>
<path fill="none" stroke="black" d="M81.6421,-288.765C93.4367,-279.488 108.406,-267.714 121.328,-257.551"/>
<polygon fill="black" stroke="black" points="123.773,-260.081 129.47,-251.147 119.446,-254.578 123.773,-260.081"/>
</g>
<!-- m0 -->
<g id="node24" class="node"><title>m0</title>
<a xlink:href="0005737" xlink:title="GO:0005737 (2)">
<ellipse fill="#e98576" stroke="#e98576" cx="150" cy="-162" rx="75.2018" ry="18"/>
<text text-anchor="middle" x="150" y="-157.8" font-family="Times,serif" font-size="14.00">GO:0005737 (2)</text>
</a>
</g>
<!-- g0&#45;&gt;m0 -->
<g id="edge24" class="edge"><title>g0&#45;&gt;m0</title>
<path fill="none" stroke="black" d="M150,-215.697C150,-207.983 150,-198.712 150,-190.112"/>
<polygon fill="black" stroke="black" points="153.5,-190.104 150,-180.104 146.5,-190.104 153.5,-190.104"/>
</g>
<!-- g0&#45;&gt;f0 -->
<g id="edge32" class="edge"><title>g0&#45;&gt;f0</title>
<path fill="none" stroke="black" d="M188.747,-219.834C222.412,-208.394 271.323,-191.774 307.564,-179.459"/>
<polygon fill="black" stroke="black" points="309.085,-182.639 317.427,-176.107 306.832,-176.011 309.085,-182.639"/>
</g>
<!-- q0&#45;&gt;p0 -->
<g id="edge22" class="edge"><title>q0&#45;&gt;p0</title>
<path fill="none" stroke="black" d="M456.072,-432.055C462.572,-423.629 470.556,-413.28 477.74,-403.966"/>
<polygon fill="black" stroke="black" points="480.712,-405.845 484.048,-395.789 475.169,-401.569 480.712,-405.845"/>
</g>
<!-- k0 -->
<g id="node36" class="node"><title>k0</title>
<a xlink:href="0043234" xlink:title="GO:0043234 (7)">
<ellipse fill="#e98576" stroke="#e98576" cx="652" cy="-378" rx="75.2018" ry="18"/>
<text text-anchor="middle" x="652" y="-373.8" font-family="Times,serif" font-size="14.00">GO:0043234 (7)</text>
</a>
</g>
<!-- l0&#45;&gt;k0 -->
<g id="edge38" class="edge"><title>l0&#45;&gt;k0</title>
<path fill="none" stroke="black" d="M639.202,-431.697C641.096,-423.898 643.377,-414.509 645.484,-405.829"/>
<polygon fill="black" stroke="black" points="648.887,-406.648 647.846,-396.104 642.085,-404.996 648.887,-406.648"/>
</g>
<!-- b0 -->
<g id="node25" class="node"><title>b0</title>
<a xlink:href="0043232" xlink:title="GO:0043232">
<ellipse fill="#dddddd" stroke="#dddddd" cx="400" cy="-90" rx="61.1934" ry="18"/>
<text text-anchor="middle" x="400" y="-85.8" font-family="Times,serif" font-size="14.00">GO:0043232</text>
</a>
</g>
<!-- c0&#45;&gt;b0 -->
<g id="edge42" class="edge"><title>c0&#45;&gt;b0</title>
<path fill="none" stroke="black" d="M442.634,-215.933C439.823,-197.764 434.423,-168.337 426,-144 422.883,-134.993 418.599,-125.535 414.408,-117.143"/>
<polygon fill="black" stroke="black" points="417.486,-115.476 409.782,-108.202 411.268,-118.692 417.486,-115.476"/>
</g>
<!-- p0&#45;&gt;o0 -->
<g id="edge36" class="edge"><title>p0&#45;&gt;o0</title>
<path fill="none" stroke="black" d="M497,-359.697C497,-351.983 497,-342.712 497,-334.112"/>
<polygon fill="black" stroke="black" points="500.5,-334.104 497,-324.104 493.5,-334.104 500.5,-334.104"/>
</g>
<!-- a0 -->
<g id="node27" class="node"><title>a0</title>
<a xlink:href="0005856" xlink:title="GO:0005856 (7)">
<ellipse fill="#e98576" stroke="#e98576" cx="400" cy="-18" rx="75.2018" ry="18"/>
<text text-anchor="middle" x="400" y="-13.8" font-family="Times,serif" font-size="14.00">GO:0005856 (7)</text>
</a>
</g>
<!-- b0&#45;&gt;a0 -->
<g id="edge26" class="edge"><title>b0&#45;&gt;a0</title>
<path fill="none" stroke="black" d="M400,-71.6966C400,-63.9827 400,-54.7125 400,-46.1124"/>
<polygon fill="black" stroke="black" points="403.5,-46.1043 400,-36.1043 396.5,-46.1044 403.5,-46.1043"/>
</g>
<!-- f0&#45;&gt;b0 -->
<g id="edge44" class="edge"><title>f0&#45;&gt;b0</title>
<path fill="none" stroke="black" d="M366.651,-144.055C371.84,-135.801 378.188,-125.701 383.948,-116.538"/>
<polygon fill="black" stroke="black" points="387.088,-118.118 389.447,-107.789 381.162,-114.393 387.088,-118.118"/>
</g>
</g>
</svg>
