<?xml version="1.0" encoding="UTF-8" standalone="no"?>
<!DOCTYPE svg PUBLIC "-//W3C//DTD SVG 1.1//EN"
 "http://www.w3.org/Graphics/SVG/1.1/DTD/svg11.dtd">
<!-- Generated by graphviz version 2.28.0 (20110622.2320)
 -->
<!-- Title: G Pages: 1 -->
<svg width="3347pt" height="260pt"
 viewBox="0.00 0.00 3347.00 260.00" xmlns="http://www.w3.org/2000/svg" xmlns:xlink="http://www.w3.org/1999/xlink">
<g id="graph1" class="graph" transform="scale(1 1) rotate(0) translate(4 256)">
<title>G</title>
<polygon fill="white" stroke="white" points="-4,5 -4,-256 3344,-256 3344,5 -4,5"/>
<!-- b0 -->
<g id="node1" class="node"><title>b0</title>
<a xlink:href="0005488" xlink:title="GO:0005488">
<ellipse fill="#dddddd" stroke="#dddddd" cx="1163" cy="-162" rx="61.1934" ry="18"/>
<text text-anchor="middle" x="1163" y="-157.8" font-family="Times,serif" font-size="14.00">GO:0005488</text>
</a>
</g>
<!-- w0 -->
<g id="node3" class="node"><title>w0</title>
<a xlink:href="0008289" xlink:title="GO:0008289 (1)">
<ellipse fill="#e98576" stroke="#e98576" cx="75" cy="-90" rx="75.2018" ry="18"/>
<text text-anchor="middle" x="75" y="-85.8" font-family="Times,serif" font-size="14.00">GO:0008289 (1)</text>
</a>
</g>
<!-- b0&#45;&gt;w0 -->
<g id="edge2" class="edge"><title>b0&#45;&gt;w0</title>
<path fill="none" stroke="black" d="M1101.6,-160.891C944.252,-159.933 513.978,-153.042 159,-108 152.157,-107.132 145.038,-106.02 137.967,-104.783"/>
<polygon fill="black" stroke="black" points="138.147,-101.257 127.679,-102.892 136.882,-108.142 138.147,-101.257"/>
</g>
<!-- s0 -->
<g id="node8" class="node"><title>s0</title>
<a xlink:href="0042277" xlink:title="GO:0042277 (2)">
<ellipse fill="#e98576" stroke="#e98576" cx="243" cy="-90" rx="75.2018" ry="18"/>
<text text-anchor="middle" x="243" y="-85.8" font-family="Times,serif" font-size="14.00">GO:0042277 (2)</text>
</a>
</g>
<!-- b0&#45;&gt;s0 -->
<g id="edge6" class="edge"><title>b0&#45;&gt;s0</title>
<path fill="none" stroke="black" d="M1102.14,-159.981C963.842,-157.047 615.53,-146.161 327,-108 320.261,-107.109 313.252,-105.994 306.284,-104.764"/>
<polygon fill="black" stroke="black" points="306.609,-101.265 296.14,-102.892 305.339,-108.149 306.609,-101.265"/>
</g>
<!-- g0 -->
<g id="node12" class="node"><title>g0</title>
<a xlink:href="0001882" xlink:title="GO:0001882 (11)">
<ellipse fill="#e98576" stroke="#e98576" cx="416" cy="-90" rx="79.4447" ry="18"/>
<text text-anchor="middle" x="416" y="-85.8" font-family="Times,serif" font-size="14.00">GO:0001882 (11)</text>
</a>
</g>
<!-- b0&#45;&gt;g0 -->
<g id="edge10" class="edge"><title>b0&#45;&gt;g0</title>
<path fill="none" stroke="black" d="M1102.89,-158.342C986.873,-152.728 724.19,-137.673 505,-108 497.63,-107.002 489.946,-105.793 482.316,-104.485"/>
<polygon fill="black" stroke="black" points="482.805,-101.017 472.347,-102.717 481.582,-107.909 482.805,-101.017"/>
</g>
<!-- a0 -->
<g id="node14" class="node"><title>a0</title>
<a xlink:href="0005515" xlink:title="GO:0005515 (39)">
<ellipse fill="#e98576" stroke="#e98576" cx="594" cy="-90" rx="79.4447" ry="18"/>
<text text-anchor="middle" x="594" y="-85.8" font-family="Times,serif" font-size="14.00">GO:0005515 (39)</text>
</a>
</g>
<!-- b0&#45;&gt;a0 -->
<g id="edge12" class="edge"><title>b0&#45;&gt;a0</title>
<path fill="none" stroke="black" d="M1104.81,-156.065C1014.32,-148.056 834.511,-130.799 683,-108 675.942,-106.938 668.589,-105.718 661.269,-104.43"/>
<polygon fill="black" stroke="black" points="661.8,-100.97 651.337,-102.64 660.558,-107.858 661.8,-100.97"/>
</g>
<!-- z0 -->
<g id="node15" class="node"><title>z0</title>
<a xlink:href="0043176" xlink:title="GO:0043176">
<ellipse fill="#dddddd" stroke="#dddddd" cx="753" cy="-90" rx="61.1934" ry="18"/>
<text text-anchor="middle" x="753" y="-85.8" font-family="Times,serif" font-size="14.00">GO:0043176</text>
</a>
</g>
<!-- b0&#45;&gt;z0 -->
<g id="edge32" class="edge"><title>b0&#45;&gt;z0</title>
<path fill="none" stroke="black" d="M1108.16,-153.801C1040.93,-144.658 923.639,-127.685 824,-108 818.715,-106.956 813.229,-105.79 807.752,-104.571"/>
<polygon fill="black" stroke="black" points="808.48,-101.148 797.953,-102.336 806.924,-107.972 808.48,-101.148"/>
</g>
<!-- x0 -->
<g id="node25" class="node"><title>x0</title>
<a xlink:href="0042562" xlink:title="GO:0042562 (1)">
<ellipse fill="#e98576" stroke="#e98576" cx="908" cy="-90" rx="75.2018" ry="18"/>
<text text-anchor="middle" x="908" y="-85.8" font-family="Times,serif" font-size="14.00">GO:0042562 (1)</text>
</a>
</g>
<!-- b0&#45;&gt;x0 -->
<g id="edge22" class="edge"><title>b0&#45;&gt;x0</title>
<path fill="none" stroke="black" d="M1119.74,-149.125C1077.16,-137.436 1011.88,-119.517 965.068,-106.666"/>
<polygon fill="black" stroke="black" points="965.943,-103.276 955.373,-104.004 964.09,-110.027 965.943,-103.276"/>
</g>
<!-- c1 -->
<g id="node30" class="node"><title>c1</title>
<a xlink:href="0005496" xlink:title="GO:0005496 (1)">
<ellipse fill="#e98576" stroke="#e98576" cx="1076" cy="-90" rx="75.2018" ry="18"/>
<text text-anchor="middle" x="1076" y="-85.8" font-family="Times,serif" font-size="14.00">GO:0005496 (1)</text>
</a>
</g>
<!-- b0&#45;&gt;c1 -->
<g id="edge26" class="edge"><title>b0&#45;&gt;c1</title>
<path fill="none" stroke="black" d="M1142.82,-144.765C1131.37,-135.554 1116.87,-123.882 1104.3,-113.769"/>
<polygon fill="black" stroke="black" points="1106.36,-110.932 1096.37,-107.39 1101.97,-116.386 1106.36,-110.932"/>
</g>
<!-- d0 -->
<g id="node34" class="node"><title>d0</title>
<a xlink:href="0043167" xlink:title="GO:0043167 (23)">
<ellipse fill="#e98576" stroke="#e98576" cx="1249" cy="-90" rx="79.4447" ry="18"/>
<text text-anchor="middle" x="1249" y="-85.8" font-family="Times,serif" font-size="14.00">GO:0043167 (23)</text>
</a>
</g>
<!-- b0&#45;&gt;d0 -->
<g id="edge30" class="edge"><title>b0&#45;&gt;d0</title>
<path fill="none" stroke="black" d="M1182.95,-144.765C1194.18,-135.621 1208.4,-124.05 1220.76,-113.988"/>
<polygon fill="black" stroke="black" points="1223.02,-116.661 1228.56,-107.633 1218.6,-111.232 1223.02,-116.661"/>
</g>
<!-- u0 -->
<g id="node37" class="node"><title>u0</title>
<a xlink:href="0031406" xlink:title="GO:0031406 (1)">
<ellipse fill="#e98576" stroke="#e98576" cx="1422" cy="-90" rx="75.2018" ry="18"/>
<text text-anchor="middle" x="1422" y="-85.8" font-family="Times,serif" font-size="14.00">GO:0031406 (1)</text>
</a>
</g>
<!-- b0&#45;&gt;u0 -->
<g id="edge34" class="edge"><title>b0&#45;&gt;u0</title>
<path fill="none" stroke="black" d="M1206.35,-149.284C1249.64,-137.583 1316.44,-119.53 1364.22,-106.618"/>
<polygon fill="black" stroke="black" points="1365.37,-109.932 1374.11,-103.944 1363.54,-103.175 1365.37,-109.932"/>
</g>
<!-- j0 -->
<g id="node44" class="node"><title>j0</title>
<a xlink:href="0003676" xlink:title="GO:0003676 (8)">
<ellipse fill="#e98576" stroke="#e98576" cx="1590" cy="-90" rx="75.2018" ry="18"/>
<text text-anchor="middle" x="1590" y="-85.8" font-family="Times,serif" font-size="14.00">GO:0003676 (8)</text>
</a>
</g>
<!-- b0&#45;&gt;j0 -->
<g id="edge42" class="edge"><title>b0&#45;&gt;j0</title>
<path fill="none" stroke="black" d="M1217.19,-153.419C1284.9,-143.764 1404.27,-126.144 1506,-108 1512.25,-106.886 1518.75,-105.671 1525.24,-104.419"/>
<polygon fill="black" stroke="black" points="1526.25,-107.787 1535.4,-102.433 1524.91,-100.917 1526.25,-107.787"/>
</g>
<!-- h0 -->
<g id="node48" class="node"><title>h0</title>
<a xlink:href="0000166" xlink:title="GO:0000166 (11)">
<ellipse fill="#e98576" stroke="#e98576" cx="1763" cy="-90" rx="79.4447" ry="18"/>
<text text-anchor="middle" x="1763" y="-85.8" font-family="Times,serif" font-size="14.00">GO:0000166 (11)</text>
</a>
</g>
<!-- b0&#45;&gt;h0 -->
<g id="edge46" class="edge"><title>b0&#45;&gt;h0</title>
<path fill="none" stroke="black" d="M1221.44,-156.572C1316.59,-148.998 1510.75,-132.012 1674,-108 1681.17,-106.946 1688.64,-105.72 1696.07,-104.419"/>
<polygon fill="black" stroke="black" points="1696.93,-107.822 1706.15,-102.608 1695.69,-100.932 1696.93,-107.822"/>
</g>
<!-- b1 -->
<g id="node50" class="node"><title>b1</title>
<a xlink:href="0019840" xlink:title="GO:0019840 (1)">
<ellipse fill="#e98576" stroke="#e98576" cx="1936" cy="-90" rx="75.2018" ry="18"/>
<text text-anchor="middle" x="1936" y="-85.8" font-family="Times,serif" font-size="14.00">GO:0019840 (1)</text>
</a>
</g>
<!-- b0&#45;&gt;b1 -->
<g id="edge48" class="edge"><title>b0&#45;&gt;b1</title>
<path fill="none" stroke="black" d="M1223.54,-158.79C1343.67,-153.863 1620.48,-139.814 1851,-108 1858.07,-107.024 1865.44,-105.826 1872.76,-104.522"/>
<polygon fill="black" stroke="black" points="1873.47,-107.95 1882.66,-102.688 1872.19,-101.067 1873.47,-107.95"/>
</g>
<!-- r0 -->
<g id="node56" class="node"><title>r0</title>
<a xlink:href="0003682" xlink:title="GO:0003682 (2)">
<ellipse fill="#e98576" stroke="#e98576" cx="2104" cy="-90" rx="75.2018" ry="18"/>
<text text-anchor="middle" x="2104" y="-85.8" font-family="Times,serif" font-size="14.00">GO:0003682 (2)</text>
</a>
</g>
<!-- b0&#45;&gt;r0 -->
<g id="edge54" class="edge"><title>b0&#45;&gt;r0</title>
<path fill="none" stroke="black" d="M1224.06,-160.111C1364.93,-157.429 1723.3,-147.009 2020,-108 2026.74,-107.114 2033.75,-106.003 2040.72,-104.775"/>
<polygon fill="black" stroke="black" points="2041.66,-108.16 2050.86,-102.905 2040.39,-101.276 2041.66,-108.16"/>
</g>
<!-- c0 -->
<g id="node4" class="node"><title>c0</title>
<a xlink:href="0003674" xlink:title="GO:0003674 (5)">
<ellipse fill="#e98576" stroke="#e98576" cx="2786" cy="-234" rx="75.2018" ry="18"/>
<text text-anchor="middle" x="2786" y="-229.8" font-family="Times,serif" font-size="14.00">GO:0003674 (5)</text>
</a>
</g>
<!-- c0&#45;&gt;b0 -->
<g id="edge18" class="edge"><title>c0&#45;&gt;b0</title>
<path fill="none" stroke="black" d="M2712.84,-229.845C2442.23,-218.173 1499.8,-177.526 1233.55,-166.043"/>
<polygon fill="black" stroke="black" points="1233.38,-162.532 1223.24,-165.598 1233.08,-169.526 1233.38,-162.532"/>
</g>
<!-- n0 -->
<g id="node6" class="node"><title>n0</title>
<a xlink:href="0030234" xlink:title="GO:0030234 (5)">
<ellipse fill="#e98576" stroke="#e98576" cx="2450" cy="-162" rx="75.2018" ry="18"/>
<text text-anchor="middle" x="2450" y="-157.8" font-family="Times,serif" font-size="14.00">GO:0030234 (5)</text>
</a>
</g>
<!-- c0&#45;&gt;n0 -->
<g id="edge4" class="edge"><title>c0&#45;&gt;n0</title>
<path fill="none" stroke="black" d="M2731.27,-221.597C2671.96,-209.242 2577.4,-189.541 2514.52,-176.441"/>
<polygon fill="black" stroke="black" points="2515.21,-173.011 2504.71,-174.398 2513.78,-179.864 2515.21,-173.011"/>
</g>
<!-- f0 -->
<g id="node10" class="node"><title>f0</title>
<a xlink:href="0003824" xlink:title="GO:0003824 (6)">
<ellipse fill="#e98576" stroke="#e98576" cx="2618" cy="-162" rx="75.2018" ry="18"/>
<text text-anchor="middle" x="2618" y="-157.8" font-family="Times,serif" font-size="14.00">GO:0003824 (6)</text>
</a>
</g>
<!-- c0&#45;&gt;f0 -->
<g id="edge8" class="edge"><title>c0&#45;&gt;f0</title>
<path fill="none" stroke="black" d="M2750.37,-218.155C2724.95,-207.564 2690.57,-193.239 2663.22,-181.842"/>
<polygon fill="black" stroke="black" points="2664.44,-178.56 2653.87,-177.944 2661.75,-185.021 2664.44,-178.56"/>
</g>
<!-- q0 -->
<g id="node19" class="node"><title>q0</title>
<a xlink:href="0003774" xlink:title="GO:0003774 (3)">
<ellipse fill="#e98576" stroke="#e98576" cx="2786" cy="-162" rx="75.2018" ry="18"/>
<text text-anchor="middle" x="2786" y="-157.8" font-family="Times,serif" font-size="14.00">GO:0003774 (3)</text>
</a>
</g>
<!-- c0&#45;&gt;q0 -->
<g id="edge16" class="edge"><title>c0&#45;&gt;q0</title>
<path fill="none" stroke="black" d="M2786,-215.697C2786,-207.983 2786,-198.712 2786,-190.112"/>
<polygon fill="black" stroke="black" points="2789.5,-190.104 2786,-180.104 2782.5,-190.104 2789.5,-190.104"/>
</g>
<!-- m0 -->
<g id="node21" class="node"><title>m0</title>
<a xlink:href="0060089" xlink:title="GO:0060089">
<ellipse fill="#dddddd" stroke="#dddddd" cx="2941" cy="-162" rx="61.1934" ry="18"/>
<text text-anchor="middle" x="2941" y="-157.8" font-family="Times,serif" font-size="14.00">GO:0060089</text>
</a>
</g>
<!-- c0&#45;&gt;m0 -->
<g id="edge56" class="edge"><title>c0&#45;&gt;m0</title>
<path fill="none" stroke="black" d="M2819.63,-217.811C2843.16,-207.186 2874.73,-192.929 2899.77,-181.618"/>
<polygon fill="black" stroke="black" points="2901.35,-184.747 2909.02,-177.442 2898.47,-178.368 2901.35,-184.747"/>
</g>
<!-- o0 -->
<g id="node32" class="node"><title>o0</title>
<a xlink:href="0005215" xlink:title="GO:0005215 (5)">
<ellipse fill="#e98576" stroke="#e98576" cx="3096" cy="-162" rx="75.2018" ry="18"/>
<text text-anchor="middle" x="3096" y="-157.8" font-family="Times,serif" font-size="14.00">GO:0005215 (5)</text>
</a>
</g>
<!-- c0&#45;&gt;o0 -->
<g id="edge28" class="edge"><title>c0&#45;&gt;o0</title>
<path fill="none" stroke="black" d="M2838.59,-221.125C2892.45,-208.964 2976.16,-190.06 3033.4,-177.135"/>
<polygon fill="black" stroke="black" points="3034.43,-180.491 3043.41,-174.874 3032.89,-173.663 3034.43,-180.491"/>
</g>
<!-- p0 -->
<g id="node54" class="node"><title>p0</title>
<a xlink:href="0005198" xlink:title="GO:0005198 (5)">
<ellipse fill="#e98576" stroke="#e98576" cx="3264" cy="-162" rx="75.2018" ry="18"/>
<text text-anchor="middle" x="3264" y="-157.8" font-family="Times,serif" font-size="14.00">GO:0005198 (5)</text>
</a>
</g>
<!-- c0&#45;&gt;p0 -->
<g id="edge52" class="edge"><title>c0&#45;&gt;p0</title>
<path fill="none" stroke="black" d="M2852.43,-225.421C2930.91,-216.153 3065.32,-199.297 3180,-180 3186.51,-178.905 3193.28,-177.68 3200.03,-176.401"/>
<polygon fill="black" stroke="black" points="3200.72,-179.833 3209.87,-174.5 3199.39,-172.96 3200.72,-179.833"/>
</g>
<!-- e0 -->
<g id="node26" class="node"><title>e0</title>
<a xlink:href="0016787" xlink:title="GO:0016787 (15)">
<ellipse fill="#e98576" stroke="#e98576" cx="2277" cy="-90" rx="79.4447" ry="18"/>
<text text-anchor="middle" x="2277" y="-85.8" font-family="Times,serif" font-size="14.00">GO:0016787 (15)</text>
</a>
</g>
<!-- f0&#45;&gt;e0 -->
<g id="edge36" class="edge"><title>f0&#45;&gt;e0</title>
<path fill="none" stroke="black" d="M2562.83,-149.675C2503.07,-137.408 2407.72,-117.835 2343.78,-104.708"/>
<polygon fill="black" stroke="black" points="2344.29,-101.241 2333.79,-102.658 2342.88,-108.098 2344.29,-101.241"/>
</g>
<!-- t0 -->
<g id="node40" class="node"><title>t0</title>
<a xlink:href="0016874" xlink:title="GO:0016874 (1)">
<ellipse fill="#e98576" stroke="#e98576" cx="2450" cy="-90" rx="75.2018" ry="18"/>
<text text-anchor="middle" x="2450" y="-85.8" font-family="Times,serif" font-size="14.00">GO:0016874 (1)</text>
</a>
</g>
<!-- f0&#45;&gt;t0 -->
<g id="edge38" class="edge"><title>f0&#45;&gt;t0</title>
<path fill="none" stroke="black" d="M2582.37,-146.155C2556.95,-135.564 2522.57,-121.239 2495.22,-109.842"/>
<polygon fill="black" stroke="black" points="2496.44,-106.56 2485.87,-105.944 2493.75,-113.021 2496.44,-106.56"/>
</g>
<!-- i0 -->
<g id="node42" class="node"><title>i0</title>
<a xlink:href="0016740" xlink:title="GO:0016740 (8)">
<ellipse fill="#e98576" stroke="#e98576" cx="2618" cy="-90" rx="75.2018" ry="18"/>
<text text-anchor="middle" x="2618" y="-85.8" font-family="Times,serif" font-size="14.00">GO:0016740 (8)</text>
</a>
</g>
<!-- f0&#45;&gt;i0 -->
<g id="edge40" class="edge"><title>f0&#45;&gt;i0</title>
<path fill="none" stroke="black" d="M2618,-143.697C2618,-135.983 2618,-126.712 2618,-118.112"/>
<polygon fill="black" stroke="black" points="2621.5,-118.104 2618,-108.104 2614.5,-118.104 2621.5,-118.104"/>
</g>
<!-- a1 -->
<g id="node46" class="node"><title>a1</title>
<a xlink:href="0016491" xlink:title="GO:0016491 (1)">
<ellipse fill="#e98576" stroke="#e98576" cx="2786" cy="-90" rx="75.2018" ry="18"/>
<text text-anchor="middle" x="2786" y="-85.8" font-family="Times,serif" font-size="14.00">GO:0016491 (1)</text>
</a>
</g>
<!-- f0&#45;&gt;a1 -->
<g id="edge44" class="edge"><title>f0&#45;&gt;a1</title>
<path fill="none" stroke="black" d="M2653.63,-146.155C2679.05,-135.564 2713.43,-121.239 2740.78,-109.842"/>
<polygon fill="black" stroke="black" points="2742.25,-113.021 2750.13,-105.944 2739.56,-106.56 2742.25,-113.021"/>
</g>
<!-- v0 -->
<g id="node52" class="node"><title>v0</title>
<a xlink:href="0004386" xlink:title="GO:0004386 (1)">
<ellipse fill="#e98576" stroke="#e98576" cx="2954" cy="-90" rx="75.2018" ry="18"/>
<text text-anchor="middle" x="2954" y="-85.8" font-family="Times,serif" font-size="14.00">GO:0004386 (1)</text>
</a>
</g>
<!-- f0&#45;&gt;v0 -->
<g id="edge50" class="edge"><title>f0&#45;&gt;v0</title>
<path fill="none" stroke="black" d="M2672.73,-149.597C2732.04,-137.242 2826.6,-117.541 2889.48,-104.441"/>
<polygon fill="black" stroke="black" points="2890.22,-107.864 2899.29,-102.398 2888.79,-101.011 2890.22,-107.864"/>
</g>
<!-- y0 -->
<g id="node17" class="node"><title>y0</title>
<a xlink:href="0016597" xlink:title="GO:0016597 (1)">
<ellipse fill="#e98576" stroke="#e98576" cx="753" cy="-18" rx="75.2018" ry="18"/>
<text text-anchor="middle" x="753" y="-13.8" font-family="Times,serif" font-size="14.00">GO:0016597 (1)</text>
</a>
</g>
<!-- z0&#45;&gt;y0 -->
<g id="edge14" class="edge"><title>z0&#45;&gt;y0</title>
<path fill="none" stroke="black" d="M753,-71.6966C753,-63.9827 753,-54.7125 753,-46.1124"/>
<polygon fill="black" stroke="black" points="756.5,-46.1043 753,-36.1043 749.5,-46.1044 756.5,-46.1043"/>
</g>
<!-- l0 -->
<g id="node23" class="node"><title>l0</title>
<a xlink:href="0004871" xlink:title="GO:0004871 (6)">
<ellipse fill="#e98576" stroke="#e98576" cx="3122" cy="-90" rx="75.2018" ry="18"/>
<text text-anchor="middle" x="3122" y="-85.8" font-family="Times,serif" font-size="14.00">GO:0004871 (6)</text>
</a>
</g>
<!-- m0&#45;&gt;l0 -->
<g id="edge20" class="edge"><title>m0&#45;&gt;l0</title>
<path fill="none" stroke="black" d="M2976.76,-147.17C3004.74,-136.348 3043.91,-121.201 3074.52,-109.363"/>
<polygon fill="black" stroke="black" points="3076.07,-112.517 3084.13,-105.646 3073.54,-105.988 3076.07,-112.517"/>
</g>
<!-- k0 -->
<g id="node28" class="node"><title>k0</title>
<a xlink:href="0008233" xlink:title="GO:0008233 (6)">
<ellipse fill="#e98576" stroke="#e98576" cx="2277" cy="-18" rx="75.2018" ry="18"/>
<text text-anchor="middle" x="2277" y="-13.8" font-family="Times,serif" font-size="14.00">GO:0008233 (6)</text>
</a>
</g>
<!-- e0&#45;&gt;k0 -->
<g id="edge24" class="edge"><title>e0&#45;&gt;k0</title>
<path fill="none" stroke="black" d="M2277,-71.6966C2277,-63.9827 2277,-54.7125 2277,-46.1124"/>
<polygon fill="black" stroke="black" points="2280.5,-46.1043 2277,-36.1043 2273.5,-46.1044 2280.5,-46.1043"/>
</g>
</g>
</svg>
