<?xml version="1.0" encoding="UTF-8" standalone="no"?>
<!DOCTYPE svg PUBLIC "-//W3C//DTD SVG 1.1//EN"
 "http://www.w3.org/Graphics/SVG/1.1/DTD/svg11.dtd">
<!-- Generated by graphviz version 2.28.0 (20110622.2320)
 -->
<!-- Title: G Pages: 1 -->
<svg width="830pt" height="188pt"
 viewBox="0.00 0.00 830.00 188.00" xmlns="http://www.w3.org/2000/svg" xmlns:xlink="http://www.w3.org/1999/xlink">
<g id="graph1" class="graph" transform="scale(1 1) rotate(0) translate(4 184)">
<title>G</title>
<polygon fill="white" stroke="white" points="-4,5 -4,-184 827,-184 827,5 -4,5"/>
<!-- b0 -->
<g id="node1" class="node"><title>b0</title>
<a xlink:href="0005488" xlink:title="GO:0005488">
<ellipse fill="#dddddd" stroke="#dddddd" cx="411" cy="-90" rx="61.1934" ry="18"/>
<text text-anchor="middle" x="411" y="-85.8" font-family="Times,serif" font-size="14.00">GO:0005488</text>
</a>
</g>
<!-- d0 -->
<g id="node3" class="node"><title>d0</title>
<a xlink:href="0043167" xlink:title="GO:0043167 (1)">
<ellipse fill="#e98576" stroke="#e98576" cx="75" cy="-18" rx="75.2018" ry="18"/>
<text text-anchor="middle" x="75" y="-13.8" font-family="Times,serif" font-size="14.00">GO:0043167 (1)</text>
</a>
</g>
<!-- b0&#45;&gt;d0 -->
<g id="edge2" class="edge"><title>b0&#45;&gt;d0</title>
<path fill="none" stroke="black" d="M362.502,-78.8962C303.849,-66.6769 204.906,-46.0637 139.77,-32.4938"/>
<polygon fill="black" stroke="black" points="140.122,-28.9919 129.618,-30.3787 138.694,-35.8448 140.122,-28.9919"/>
</g>
<!-- a0 -->
<g id="node5" class="node"><title>a0</title>
<a xlink:href="0003676" xlink:title="GO:0003676 (2)">
<ellipse fill="#e98576" stroke="#e98576" cx="243" cy="-18" rx="75.2018" ry="18"/>
<text text-anchor="middle" x="243" y="-13.8" font-family="Times,serif" font-size="14.00">GO:0003676 (2)</text>
</a>
</g>
<!-- b0&#45;&gt;a0 -->
<g id="edge4" class="edge"><title>b0&#45;&gt;a0</title>
<path fill="none" stroke="black" d="M377.003,-74.8345C351.444,-64.1851 316.175,-49.4897 288.235,-37.8481"/>
<polygon fill="black" stroke="black" points="289.263,-34.4847 278.686,-33.8693 286.571,-40.9463 289.263,-34.4847"/>
</g>
<!-- e0 -->
<g id="node9" class="node"><title>e0</title>
<a xlink:href="0000166" xlink:title="GO:0000166 (1)">
<ellipse fill="#e98576" stroke="#e98576" cx="411" cy="-18" rx="75.2018" ry="18"/>
<text text-anchor="middle" x="411" y="-13.8" font-family="Times,serif" font-size="14.00">GO:0000166 (1)</text>
</a>
</g>
<!-- b0&#45;&gt;e0 -->
<g id="edge8" class="edge"><title>b0&#45;&gt;e0</title>
<path fill="none" stroke="black" d="M411,-71.6966C411,-63.9827 411,-54.7125 411,-46.1124"/>
<polygon fill="black" stroke="black" points="414.5,-46.1043 411,-36.1043 407.5,-46.1044 414.5,-46.1043"/>
</g>
<!-- f0 -->
<g id="node15" class="node"><title>f0</title>
<a xlink:href="0005515" xlink:title="GO:0005515 (1)">
<ellipse fill="#e98576" stroke="#e98576" cx="579" cy="-18" rx="75.2018" ry="18"/>
<text text-anchor="middle" x="579" y="-13.8" font-family="Times,serif" font-size="14.00">GO:0005515 (1)</text>
</a>
</g>
<!-- b0&#45;&gt;f0 -->
<g id="edge14" class="edge"><title>b0&#45;&gt;f0</title>
<path fill="none" stroke="black" d="M444.997,-74.8345C470.556,-64.1851 505.825,-49.4897 533.765,-37.8481"/>
<polygon fill="black" stroke="black" points="535.429,-40.9463 543.314,-33.8693 532.737,-34.4847 535.429,-40.9463"/>
</g>
<!-- c0 -->
<g id="node6" class="node"><title>c0</title>
<a xlink:href="0003674" xlink:title="GO:0003674 (1)">
<ellipse fill="#e98576" stroke="#e98576" cx="530" cy="-162" rx="75.2018" ry="18"/>
<text text-anchor="middle" x="530" y="-157.8" font-family="Times,serif" font-size="14.00">GO:0003674 (1)</text>
</a>
</g>
<!-- c0&#45;&gt;b0 -->
<g id="edge6" class="edge"><title>c0&#45;&gt;b0</title>
<path fill="none" stroke="black" d="M502.997,-145.116C486.025,-135.132 463.964,-122.155 445.7,-111.412"/>
<polygon fill="black" stroke="black" points="447.472,-108.394 437.078,-106.34 443.923,-114.427 447.472,-108.394"/>
</g>
<!-- h0 -->
<g id="node10" class="node"><title>h0</title>
<a xlink:href="0003824" xlink:title="GO:0003824">
<ellipse fill="#dddddd" stroke="#dddddd" cx="649" cy="-90" rx="61.1934" ry="18"/>
<text text-anchor="middle" x="649" y="-85.8" font-family="Times,serif" font-size="14.00">GO:0003824</text>
</a>
</g>
<!-- c0&#45;&gt;h0 -->
<g id="edge12" class="edge"><title>c0&#45;&gt;h0</title>
<path fill="none" stroke="black" d="M557.003,-145.116C573.975,-135.132 596.036,-122.155 614.3,-111.412"/>
<polygon fill="black" stroke="black" points="616.077,-114.427 622.922,-106.34 612.528,-108.394 616.077,-114.427"/>
</g>
<!-- g0 -->
<g id="node12" class="node"><title>g0</title>
<a xlink:href="0004386" xlink:title="GO:0004386 (1)">
<ellipse fill="#e98576" stroke="#e98576" cx="747" cy="-18" rx="75.2018" ry="18"/>
<text text-anchor="middle" x="747" y="-13.8" font-family="Times,serif" font-size="14.00">GO:0004386 (1)</text>
</a>
</g>
<!-- h0&#45;&gt;g0 -->
<g id="edge10" class="edge"><title>h0&#45;&gt;g0</title>
<path fill="none" stroke="black" d="M671.238,-73.1159C684.456,-63.6744 701.422,-51.5556 715.947,-41.1807"/>
<polygon fill="black" stroke="black" points="718.067,-43.9675 724.17,-35.307 713.999,-38.2713 718.067,-43.9675"/>
</g>
</g>
</svg>
