<?xml version="1.0" encoding="UTF-8" standalone="no"?>
<!DOCTYPE svg PUBLIC "-//W3C//DTD SVG 1.1//EN"
 "http://www.w3.org/Graphics/SVG/1.1/DTD/svg11.dtd">
<!-- Generated by graphviz version 2.28.0 (20110622.2320)
 -->
<!-- Title: G Pages: 1 -->
<svg width="3432pt" height="260pt"
 viewBox="0.00 0.00 3432.00 260.00" xmlns="http://www.w3.org/2000/svg" xmlns:xlink="http://www.w3.org/1999/xlink">
<g id="graph1" class="graph" transform="scale(1 1) rotate(0) translate(4 256)">
<title>G</title>
<polygon fill="white" stroke="white" points="-4,5 -4,-256 3429,-256 3429,5 -4,5"/>
<!-- l0 -->
<g id="node1" class="node"><title>l0</title>
<a xlink:href="0016491" xlink:title="GO:0016491 (14)">
<ellipse fill="#e98576" stroke="#e98576" cx="2139" cy="-90" rx="79.4447" ry="18"/>
<text text-anchor="middle" x="2139" y="-85.8" font-family="Times,serif" font-size="14.00">GO:0016491 (14)</text>
</a>
</g>
<!-- e1 -->
<g id="node3" class="node"><title>e1</title>
<a xlink:href="0051213" xlink:title="GO:0051213 (1)">
<ellipse fill="#e98576" stroke="#e98576" cx="1971" cy="-18" rx="75.2018" ry="18"/>
<text text-anchor="middle" x="1971" y="-13.8" font-family="Times,serif" font-size="14.00">GO:0051213 (1)</text>
</a>
</g>
<!-- l0&#45;&gt;e1 -->
<g id="edge2" class="edge"><title>l0&#45;&gt;e1</title>
<path fill="none" stroke="black" d="M2102.55,-73.811C2077.17,-63.2361 2043.15,-49.0634 2016.07,-37.7791"/>
<polygon fill="black" stroke="black" points="2017.38,-34.5343 2006.81,-33.9188 2014.69,-40.9958 2017.38,-34.5343"/>
</g>
<!-- a1 -->
<g id="node28" class="node"><title>a1</title>
<a xlink:href="0004497" xlink:title="GO:0004497 (2)">
<ellipse fill="#e98576" stroke="#e98576" cx="2139" cy="-18" rx="75.2018" ry="18"/>
<text text-anchor="middle" x="2139" y="-13.8" font-family="Times,serif" font-size="14.00">GO:0004497 (2)</text>
</a>
</g>
<!-- l0&#45;&gt;a1 -->
<g id="edge24" class="edge"><title>l0&#45;&gt;a1</title>
<path fill="none" stroke="black" d="M2139,-71.6966C2139,-63.9827 2139,-54.7125 2139,-46.1124"/>
<polygon fill="black" stroke="black" points="2142.5,-46.1043 2139,-36.1043 2135.5,-46.1044 2142.5,-46.1043"/>
</g>
<!-- b1 -->
<g id="node40" class="node"><title>b1</title>
<a xlink:href="0009055" xlink:title="GO:0009055 (1)">
<ellipse fill="#e98576" stroke="#e98576" cx="2307" cy="-18" rx="75.2018" ry="18"/>
<text text-anchor="middle" x="2307" y="-13.8" font-family="Times,serif" font-size="14.00">GO:0009055 (1)</text>
</a>
</g>
<!-- l0&#45;&gt;b1 -->
<g id="edge38" class="edge"><title>l0&#45;&gt;b1</title>
<path fill="none" stroke="black" d="M2175.45,-73.811C2200.83,-63.2361 2234.85,-49.0634 2261.93,-37.7791"/>
<polygon fill="black" stroke="black" points="2263.31,-40.9958 2271.19,-33.9188 2260.62,-34.5343 2263.31,-40.9958"/>
</g>
<!-- b0 -->
<g id="node4" class="node"><title>b0</title>
<a xlink:href="0005488" xlink:title="GO:0005488 (3)">
<ellipse fill="#e98576" stroke="#e98576" cx="1091" cy="-162" rx="75.2018" ry="18"/>
<text text-anchor="middle" x="1091" y="-157.8" font-family="Times,serif" font-size="14.00">GO:0005488 (3)</text>
</a>
</g>
<!-- y0 -->
<g id="node6" class="node"><title>y0</title>
<a xlink:href="0008289" xlink:title="GO:0008289 (2)">
<ellipse fill="#e98576" stroke="#e98576" cx="75" cy="-90" rx="75.2018" ry="18"/>
<text text-anchor="middle" x="75" y="-85.8" font-family="Times,serif" font-size="14.00">GO:0008289 (2)</text>
</a>
</g>
<!-- b0&#45;&gt;y0 -->
<g id="edge4" class="edge"><title>b0&#45;&gt;y0</title>
<path fill="none" stroke="black" d="M1016.07,-160.363C857.35,-158.219 475.851,-148.859 159,-108 152.159,-107.118 145.041,-105.998 137.97,-104.755"/>
<polygon fill="black" stroke="black" points="138.152,-101.229 127.683,-102.859 136.883,-108.113 138.152,-101.229"/>
</g>
<!-- h0 -->
<g id="node15" class="node"><title>h0</title>
<a xlink:href="0001882" xlink:title="GO:0001882 (21)">
<ellipse fill="#e98576" stroke="#e98576" cx="248" cy="-90" rx="79.4447" ry="18"/>
<text text-anchor="middle" x="248" y="-85.8" font-family="Times,serif" font-size="14.00">GO:0001882 (21)</text>
</a>
</g>
<!-- b0&#45;&gt;h0 -->
<g id="edge12" class="edge"><title>b0&#45;&gt;h0</title>
<path fill="none" stroke="black" d="M1017.13,-158.714C881.765,-153.881 585.056,-140.293 337,-108 329.625,-107.04 321.938,-105.854 314.306,-104.56"/>
<polygon fill="black" stroke="black" points="314.791,-101.091 304.335,-102.805 313.577,-107.985 314.791,-101.091"/>
</g>
<!-- d0 -->
<g id="node17" class="node"><title>d0</title>
<a xlink:href="0005515" xlink:title="GO:0005515 (27)">
<ellipse fill="#e98576" stroke="#e98576" cx="426" cy="-90" rx="79.4447" ry="18"/>
<text text-anchor="middle" x="426" y="-85.8" font-family="Times,serif" font-size="14.00">GO:0005515 (27)</text>
</a>
</g>
<!-- b0&#45;&gt;d0 -->
<g id="edge14" class="edge"><title>b0&#45;&gt;d0</title>
<path fill="none" stroke="black" d="M1018.9,-156.62C909.575,-149.47 695.477,-133.479 515,-108 507.825,-106.987 500.351,-105.788 492.917,-104.503"/>
<polygon fill="black" stroke="black" points="493.296,-101.016 482.837,-102.707 492.068,-107.907 493.296,-101.016"/>
</g>
<!-- w0 -->
<g id="node19" class="node"><title>w0</title>
<a xlink:href="0043021" xlink:title="GO:0043021 (3)">
<ellipse fill="#e98576" stroke="#e98576" cx="599" cy="-90" rx="75.2018" ry="18"/>
<text text-anchor="middle" x="599" y="-85.8" font-family="Times,serif" font-size="14.00">GO:0043021 (3)</text>
</a>
</g>
<!-- b0&#45;&gt;w0 -->
<g id="edge16" class="edge"><title>b0&#45;&gt;w0</title>
<path fill="none" stroke="black" d="M1024.17,-153.708C943.369,-144.565 803.346,-127.682 684,-108 677.316,-106.898 670.354,-105.657 663.419,-104.362"/>
<polygon fill="black" stroke="black" points="663.792,-100.87 653.313,-102.433 662.48,-107.746 663.792,-100.87"/>
</g>
<!-- d1 -->
<g id="node20" class="node"><title>d1</title>
<a xlink:href="0043176" xlink:title="GO:0043176">
<ellipse fill="#dddddd" stroke="#dddddd" cx="754" cy="-90" rx="61.1934" ry="18"/>
<text text-anchor="middle" x="754" y="-85.8" font-family="Times,serif" font-size="14.00">GO:0043176</text>
</a>
</g>
<!-- b0&#45;&gt;d1 -->
<g id="edge34" class="edge"><title>b0&#45;&gt;d1</title>
<path fill="none" stroke="black" d="M1033.56,-150.326C979.392,-140.087 895.993,-123.88 824,-108 819.088,-106.917 813.992,-105.754 808.891,-104.564"/>
<polygon fill="black" stroke="black" points="809.658,-101.149 799.121,-102.255 808.048,-107.961 809.658,-101.149"/>
</g>
<!-- a0 -->
<g id="node36" class="node"><title>a0</title>
<a xlink:href="0043167" xlink:title="GO:0043167 (46)">
<ellipse fill="#e98576" stroke="#e98576" cx="913" cy="-90" rx="79.4447" ry="18"/>
<text text-anchor="middle" x="913" y="-85.8" font-family="Times,serif" font-size="14.00">GO:0043167 (46)</text>
</a>
</g>
<!-- b0&#45;&gt;a0 -->
<g id="edge32" class="edge"><title>b0&#45;&gt;a0</title>
<path fill="none" stroke="black" d="M1053.69,-146.326C1026.57,-135.664 989.672,-121.152 960.464,-109.666"/>
<polygon fill="black" stroke="black" points="961.466,-106.299 950.879,-105.896 958.904,-112.813 961.466,-106.299"/>
</g>
<!-- p0 -->
<g id="node44" class="node"><title>p0</title>
<a xlink:href="0030246" xlink:title="GO:0030246 (10)">
<ellipse fill="#e98576" stroke="#e98576" cx="1091" cy="-90" rx="79.4447" ry="18"/>
<text text-anchor="middle" x="1091" y="-85.8" font-family="Times,serif" font-size="14.00">GO:0030246 (10)</text>
</a>
</g>
<!-- b0&#45;&gt;p0 -->
<g id="edge42" class="edge"><title>b0&#45;&gt;p0</title>
<path fill="none" stroke="black" d="M1091,-143.697C1091,-135.983 1091,-126.712 1091,-118.112"/>
<polygon fill="black" stroke="black" points="1094.5,-118.104 1091,-108.104 1087.5,-118.104 1094.5,-118.104"/>
</g>
<!-- j0 -->
<g id="node48" class="node"><title>j0</title>
<a xlink:href="0003676" xlink:title="GO:0003676 (16)">
<ellipse fill="#e98576" stroke="#e98576" cx="1269" cy="-90" rx="79.4447" ry="18"/>
<text text-anchor="middle" x="1269" y="-85.8" font-family="Times,serif" font-size="14.00">GO:0003676 (16)</text>
</a>
</g>
<!-- b0&#45;&gt;j0 -->
<g id="edge46" class="edge"><title>b0&#45;&gt;j0</title>
<path fill="none" stroke="black" d="M1128.31,-146.326C1155.43,-135.664 1192.33,-121.152 1221.54,-109.666"/>
<polygon fill="black" stroke="black" points="1223.1,-112.813 1231.12,-105.896 1220.53,-106.299 1223.1,-112.813"/>
</g>
<!-- v0 -->
<g id="node50" class="node"><title>v0</title>
<a xlink:href="0046906" xlink:title="GO:0046906 (4)">
<ellipse fill="#e98576" stroke="#e98576" cx="1442" cy="-90" rx="75.2018" ry="18"/>
<text text-anchor="middle" x="1442" y="-85.8" font-family="Times,serif" font-size="14.00">GO:0046906 (4)</text>
</a>
</g>
<!-- b0&#45;&gt;v0 -->
<g id="edge48" class="edge"><title>b0&#45;&gt;v0</title>
<path fill="none" stroke="black" d="M1146.79,-149.896C1200.61,-139.181 1284.39,-122.495 1357,-108 1363.2,-106.763 1369.65,-105.474 1376.11,-104.183"/>
<polygon fill="black" stroke="black" points="1377.1,-107.554 1386.22,-102.162 1375.73,-100.69 1377.1,-107.554"/>
</g>
<!-- e0 -->
<g id="node53" class="node"><title>e0</title>
<a xlink:href="0000166" xlink:title="GO:0000166 (27)">
<ellipse fill="#e98576" stroke="#e98576" cx="1615" cy="-90" rx="79.4447" ry="18"/>
<text text-anchor="middle" x="1615" y="-85.8" font-family="Times,serif" font-size="14.00">GO:0000166 (27)</text>
</a>
</g>
<!-- b0&#45;&gt;e0 -->
<g id="edge52" class="edge"><title>b0&#45;&gt;e0</title>
<path fill="none" stroke="black" d="M1158.64,-154.19C1244.35,-145.231 1396.52,-128.23 1526,-108 1533.05,-106.898 1540.4,-105.653 1547.72,-104.349"/>
<polygon fill="black" stroke="black" points="1548.44,-107.777 1557.65,-102.544 1547.18,-100.89 1548.44,-107.777"/>
</g>
<!-- z0 -->
<g id="node59" class="node"><title>z0</title>
<a xlink:href="0051540" xlink:title="GO:0051540 (2)">
<ellipse fill="#e98576" stroke="#e98576" cx="1788" cy="-90" rx="75.2018" ry="18"/>
<text text-anchor="middle" x="1788" y="-85.8" font-family="Times,serif" font-size="14.00">GO:0051540 (2)</text>
</a>
</g>
<!-- b0&#45;&gt;z0 -->
<g id="edge58" class="edge"><title>b0&#45;&gt;z0</title>
<path fill="none" stroke="black" d="M1163.84,-157.314C1278.82,-150.906 1509.27,-135.675 1703,-108 1709.81,-107.028 1716.89,-105.861 1723.94,-104.6"/>
<polygon fill="black" stroke="black" points="1725,-107.962 1734.2,-102.697 1723.73,-101.08 1725,-107.962"/>
</g>
<!-- n0 -->
<g id="node61" class="node"><title>n0</title>
<a xlink:href="0048037" xlink:title="GO:0048037 (13)">
<ellipse fill="#e98576" stroke="#e98576" cx="1961" cy="-90" rx="79.4447" ry="18"/>
<text text-anchor="middle" x="1961" y="-85.8" font-family="Times,serif" font-size="14.00">GO:0048037 (13)</text>
</a>
</g>
<!-- b0&#45;&gt;n0 -->
<g id="edge60" class="edge"><title>b0&#45;&gt;n0</title>
<path fill="none" stroke="black" d="M1165.05,-158.959C1304.1,-154.464 1613.55,-141.329 1872,-108 1879.38,-107.049 1887.06,-105.869 1894.7,-104.578"/>
<polygon fill="black" stroke="black" points="1895.42,-108.003 1904.67,-102.825 1894.21,-101.109 1895.42,-108.003"/>
</g>
<!-- g0 -->
<g id="node7" class="node"><title>g0</title>
<a xlink:href="0003824" xlink:title="GO:0003824 (17)">
<ellipse fill="#e98576" stroke="#e98576" cx="2485" cy="-162" rx="79.4447" ry="18"/>
<text text-anchor="middle" x="2485" y="-157.8" font-family="Times,serif" font-size="14.00">GO:0003824 (17)</text>
</a>
</g>
<!-- g0&#45;&gt;l0 -->
<g id="edge50" class="edge"><title>g0&#45;&gt;l0</title>
<path fill="none" stroke="black" d="M2427.87,-149.441C2367.01,-137.13 2270.76,-117.657 2206.28,-104.613"/>
<polygon fill="black" stroke="black" points="2206.72,-101.129 2196.22,-102.576 2205.33,-107.99 2206.72,-101.129"/>
</g>
<!-- x0 -->
<g id="node9" class="node"><title>x0</title>
<a xlink:href="0016853" xlink:title="GO:0016853 (2)">
<ellipse fill="#e98576" stroke="#e98576" cx="2312" cy="-90" rx="75.2018" ry="18"/>
<text text-anchor="middle" x="2312" y="-85.8" font-family="Times,serif" font-size="14.00">GO:0016853 (2)</text>
</a>
</g>
<!-- g0&#45;&gt;x0 -->
<g id="edge6" class="edge"><title>g0&#45;&gt;x0</title>
<path fill="none" stroke="black" d="M2447.89,-145.983C2421.6,-135.346 2386.16,-121.006 2358.06,-109.638"/>
<polygon fill="black" stroke="black" points="2359.04,-106.258 2348.46,-105.752 2356.41,-112.747 2359.04,-106.258"/>
</g>
<!-- f0 -->
<g id="node24" class="node"><title>f0</title>
<a xlink:href="0016787" xlink:title="GO:0016787 (21)">
<ellipse fill="#e98576" stroke="#e98576" cx="2485" cy="-90" rx="79.4447" ry="18"/>
<text text-anchor="middle" x="2485" y="-85.8" font-family="Times,serif" font-size="14.00">GO:0016787 (21)</text>
</a>
</g>
<!-- g0&#45;&gt;f0 -->
<g id="edge36" class="edge"><title>g0&#45;&gt;f0</title>
<path fill="none" stroke="black" d="M2485,-143.697C2485,-135.983 2485,-126.712 2485,-118.112"/>
<polygon fill="black" stroke="black" points="2488.5,-118.104 2485,-108.104 2481.5,-118.104 2488.5,-118.104"/>
</g>
<!-- i0 -->
<g id="node42" class="node"><title>i0</title>
<a xlink:href="0016740" xlink:title="GO:0016740 (16)">
<ellipse fill="#e98576" stroke="#e98576" cx="2663" cy="-90" rx="79.4447" ry="18"/>
<text text-anchor="middle" x="2663" y="-85.8" font-family="Times,serif" font-size="14.00">GO:0016740 (16)</text>
</a>
</g>
<!-- g0&#45;&gt;i0 -->
<g id="edge40" class="edge"><title>g0&#45;&gt;i0</title>
<path fill="none" stroke="black" d="M2522.75,-146.155C2549.8,-135.518 2586.42,-121.114 2615.47,-109.693"/>
<polygon fill="black" stroke="black" points="2616.97,-112.861 2625,-105.944 2614.41,-106.347 2616.97,-112.861"/>
</g>
<!-- r0 -->
<g id="node46" class="node"><title>r0</title>
<a xlink:href="0016874" xlink:title="GO:0016874 (5)">
<ellipse fill="#e98576" stroke="#e98576" cx="2836" cy="-90" rx="75.2018" ry="18"/>
<text text-anchor="middle" x="2836" y="-85.8" font-family="Times,serif" font-size="14.00">GO:0016874 (5)</text>
</a>
</g>
<!-- g0&#45;&gt;r0 -->
<g id="edge44" class="edge"><title>g0&#45;&gt;r0</title>
<path fill="none" stroke="black" d="M2542.6,-149.536C2596.48,-138.809 2679.19,-122.334 2751,-108 2757.2,-106.763 2763.65,-105.474 2770.11,-104.183"/>
<polygon fill="black" stroke="black" points="2771.1,-107.554 2780.22,-102.162 2769.73,-100.69 2771.1,-107.554"/>
</g>
<!-- t0 -->
<g id="node55" class="node"><title>t0</title>
<a xlink:href="0016829" xlink:title="GO:0016829 (4)">
<ellipse fill="#e98576" stroke="#e98576" cx="3004" cy="-90" rx="75.2018" ry="18"/>
<text text-anchor="middle" x="3004" y="-85.8" font-family="Times,serif" font-size="14.00">GO:0016829 (4)</text>
</a>
</g>
<!-- g0&#45;&gt;t0 -->
<g id="edge54" class="edge"><title>g0&#45;&gt;t0</title>
<path fill="none" stroke="black" d="M2541.85,-149.395C2552.51,-147.432 2563.57,-145.535 2574,-144 2726.96,-121.476 2767.17,-131.361 2920,-108 2926.62,-106.988 2933.51,-105.806 2940.37,-104.546"/>
<polygon fill="black" stroke="black" points="2941.19,-107.953 2950.36,-102.653 2939.89,-101.075 2941.19,-107.953"/>
</g>
<!-- c0 -->
<g id="node10" class="node"><title>c0</title>
<a xlink:href="0003674" xlink:title="GO:0003674 (1)">
<ellipse fill="#e98576" stroke="#e98576" cx="2826" cy="-234" rx="75.2018" ry="18"/>
<text text-anchor="middle" x="2826" y="-229.8" font-family="Times,serif" font-size="14.00">GO:0003674 (1)</text>
</a>
</g>
<!-- c0&#45;&gt;b0 -->
<g id="edge20" class="edge"><title>c0&#45;&gt;b0</title>
<path fill="none" stroke="black" d="M2752.56,-230.037C2472.41,-218.734 1471.79,-178.363 1174.73,-166.378"/>
<polygon fill="black" stroke="black" points="1174.59,-162.87 1164.46,-165.964 1174.31,-169.864 1174.59,-162.87"/>
</g>
<!-- c0&#45;&gt;g0 -->
<g id="edge10" class="edge"><title>c0&#45;&gt;g0</title>
<path fill="none" stroke="black" d="M2770.83,-221.675C2711.07,-209.408 2615.72,-189.835 2551.78,-176.708"/>
<polygon fill="black" stroke="black" points="2552.29,-173.241 2541.79,-174.658 2550.88,-180.098 2552.29,-173.241"/>
</g>
<!-- q0 -->
<g id="node12" class="node"><title>q0</title>
<a xlink:href="0030234" xlink:title="GO:0030234 (5)">
<ellipse fill="#e98576" stroke="#e98576" cx="2658" cy="-162" rx="75.2018" ry="18"/>
<text text-anchor="middle" x="2658" y="-157.8" font-family="Times,serif" font-size="14.00">GO:0030234 (5)</text>
</a>
</g>
<!-- c0&#45;&gt;q0 -->
<g id="edge8" class="edge"><title>c0&#45;&gt;q0</title>
<path fill="none" stroke="black" d="M2790.37,-218.155C2764.95,-207.564 2730.57,-193.239 2703.22,-181.842"/>
<polygon fill="black" stroke="black" points="2704.44,-178.56 2693.87,-177.944 2701.75,-185.021 2704.44,-178.56"/>
</g>
<!-- u0 -->
<g id="node30" class="node"><title>u0</title>
<a xlink:href="0016209" xlink:title="GO:0016209 (4)">
<ellipse fill="#e98576" stroke="#e98576" cx="2826" cy="-162" rx="75.2018" ry="18"/>
<text text-anchor="middle" x="2826" y="-157.8" font-family="Times,serif" font-size="14.00">GO:0016209 (4)</text>
</a>
</g>
<!-- c0&#45;&gt;u0 -->
<g id="edge26" class="edge"><title>c0&#45;&gt;u0</title>
<path fill="none" stroke="black" d="M2826,-215.697C2826,-207.983 2826,-198.712 2826,-190.112"/>
<polygon fill="black" stroke="black" points="2829.5,-190.104 2826,-180.104 2822.5,-190.104 2829.5,-190.104"/>
</g>
<!-- k0 -->
<g id="node32" class="node"><title>k0</title>
<a xlink:href="0005215" xlink:title="GO:0005215 (14)">
<ellipse fill="#e98576" stroke="#e98576" cx="2999" cy="-162" rx="79.4447" ry="18"/>
<text text-anchor="middle" x="2999" y="-157.8" font-family="Times,serif" font-size="14.00">GO:0005215 (14)</text>
</a>
</g>
<!-- c0&#45;&gt;k0 -->
<g id="edge28" class="edge"><title>c0&#45;&gt;k0</title>
<path fill="none" stroke="black" d="M2862.69,-218.155C2888.86,-207.564 2924.27,-193.239 2952.43,-181.842"/>
<polygon fill="black" stroke="black" points="2954.11,-184.94 2962.07,-177.944 2951.48,-178.451 2954.11,-184.94"/>
</g>
<!-- s0 -->
<g id="node34" class="node"><title>s0</title>
<a xlink:href="0045735" xlink:title="GO:0045735 (5)">
<ellipse fill="#e98576" stroke="#e98576" cx="3172" cy="-162" rx="75.2018" ry="18"/>
<text text-anchor="middle" x="3172" y="-157.8" font-family="Times,serif" font-size="14.00">GO:0045735 (5)</text>
</a>
</g>
<!-- c0&#45;&gt;s0 -->
<g id="edge30" class="edge"><title>c0&#45;&gt;s0</title>
<path fill="none" stroke="black" d="M2881.59,-221.753C2942.88,-209.354 3041.39,-189.424 3106.41,-176.27"/>
<polygon fill="black" stroke="black" points="3107.44,-179.632 3116.55,-174.219 3106.05,-172.771 3107.44,-179.632"/>
</g>
<!-- m0 -->
<g id="node57" class="node"><title>m0</title>
<a xlink:href="0005198" xlink:title="GO:0005198 (13)">
<ellipse fill="#e98576" stroke="#e98576" cx="3345" cy="-162" rx="79.4447" ry="18"/>
<text text-anchor="middle" x="3345" y="-157.8" font-family="Times,serif" font-size="14.00">GO:0005198 (13)</text>
</a>
</g>
<!-- c0&#45;&gt;m0 -->
<g id="edge56" class="edge"><title>c0&#45;&gt;m0</title>
<path fill="none" stroke="black" d="M2893.6,-226.066C2978.45,-217.04 3128.38,-200.032 3256,-180 3263.05,-178.893 3270.4,-177.645 3277.72,-176.339"/>
<polygon fill="black" stroke="black" points="3278.43,-179.766 3287.65,-174.532 3277.18,-172.88 3278.43,-179.766"/>
</g>
<!-- c1 -->
<g id="node22" class="node"><title>c1</title>
<a xlink:href="0016597" xlink:title="GO:0016597 (1)">
<ellipse fill="#e98576" stroke="#e98576" cx="754" cy="-18" rx="75.2018" ry="18"/>
<text text-anchor="middle" x="754" y="-13.8" font-family="Times,serif" font-size="14.00">GO:0016597 (1)</text>
</a>
</g>
<!-- d1&#45;&gt;c1 -->
<g id="edge18" class="edge"><title>d1&#45;&gt;c1</title>
<path fill="none" stroke="black" d="M754,-71.6966C754,-63.9827 754,-54.7125 754,-46.1124"/>
<polygon fill="black" stroke="black" points="757.5,-46.1043 754,-36.1043 750.5,-46.1044 757.5,-46.1043"/>
</g>
<!-- o0 -->
<g id="node26" class="node"><title>o0</title>
<a xlink:href="0008233" xlink:title="GO:0008233 (12)">
<ellipse fill="#e98576" stroke="#e98576" cx="2485" cy="-18" rx="79.4447" ry="18"/>
<text text-anchor="middle" x="2485" y="-13.8" font-family="Times,serif" font-size="14.00">GO:0008233 (12)</text>
</a>
</g>
<!-- f0&#45;&gt;o0 -->
<g id="edge22" class="edge"><title>f0&#45;&gt;o0</title>
<path fill="none" stroke="black" d="M2485,-71.6966C2485,-63.9827 2485,-54.7125 2485,-46.1124"/>
<polygon fill="black" stroke="black" points="2488.5,-46.1043 2485,-36.1043 2481.5,-46.1044 2488.5,-46.1043"/>
</g>
</g>
</svg>
