<?xml version="1.0" encoding="UTF-8" standalone="no"?>
<!DOCTYPE svg PUBLIC "-//W3C//DTD SVG 1.1//EN"
 "http://www.w3.org/Graphics/SVG/1.1/DTD/svg11.dtd">
<!-- Generated by graphviz version 2.28.0 (20110622.2320)
 -->
<!-- Title: G Pages: 1 -->
<svg width="4174pt" height="188pt"
 viewBox="0.00 0.00 4174.00 188.00" xmlns="http://www.w3.org/2000/svg" xmlns:xlink="http://www.w3.org/1999/xlink">
<g id="graph1" class="graph" transform="scale(1 1) rotate(0) translate(4 184)">
<title>G</title>
<polygon fill="white" stroke="white" points="-4,5 -4,-184 4171,-184 4171,5 -4,5"/>
<!-- b0 -->
<g id="node1" class="node"><title>b0</title>
<a xlink:href="0005488" xlink:title="GO:0005488 (3)">
<ellipse fill="#e98576" stroke="#e98576" cx="1429" cy="-90" rx="75.2018" ry="18"/>
<text text-anchor="middle" x="1429" y="-85.8" font-family="Times,serif" font-size="14.00">GO:0005488 (3)</text>
</a>
</g>
<!-- u0 -->
<g id="node3" class="node"><title>u0</title>
<a xlink:href="0003823" xlink:title="GO:0003823 (1)">
<ellipse fill="#e98576" stroke="#e98576" cx="75" cy="-18" rx="75.2018" ry="18"/>
<text text-anchor="middle" x="75" y="-13.8" font-family="Times,serif" font-size="14.00">GO:0003823 (1)</text>
</a>
</g>
<!-- b0&#45;&gt;u0 -->
<g id="edge2" class="edge"><title>b0&#45;&gt;u0</title>
<path fill="none" stroke="black" d="M1354.54,-87.4389C1119.12,-82.2598 392.723,-64.3472 159,-36 152.152,-35.1695 145.03,-34.0823 137.957,-32.8586"/>
<polygon fill="black" stroke="black" points="138.134,-29.3331 127.668,-30.982 136.878,-36.2195 138.134,-29.3331"/>
</g>
<!-- h0 -->
<g id="node8" class="node"><title>h0</title>
<a xlink:href="0008289" xlink:title="GO:0008289 (4)">
<ellipse fill="#e98576" stroke="#e98576" cx="243" cy="-18" rx="75.2018" ry="18"/>
<text text-anchor="middle" x="243" y="-13.8" font-family="Times,serif" font-size="14.00">GO:0008289 (4)</text>
</a>
</g>
<!-- b0&#45;&gt;h0 -->
<g id="edge6" class="edge"><title>b0&#45;&gt;h0</title>
<path fill="none" stroke="black" d="M1353.84,-89.3014C1175.1,-89.1664 710.947,-83.8046 327,-36 320.155,-35.1477 313.035,-34.0467 305.963,-32.8148"/>
<polygon fill="black" stroke="black" points="306.141,-29.2894 295.674,-30.9302 304.88,-36.1748 306.141,-29.2894"/>
</g>
<!-- d1 -->
<g id="node13" class="node"><title>d1</title>
<a xlink:href="0042277" xlink:title="GO:0042277 (1)">
<ellipse fill="#e98576" stroke="#e98576" cx="411" cy="-18" rx="75.2018" ry="18"/>
<text text-anchor="middle" x="411" y="-13.8" font-family="Times,serif" font-size="14.00">GO:0042277 (1)</text>
</a>
</g>
<!-- b0&#45;&gt;d1 -->
<g id="edge10" class="edge"><title>b0&#45;&gt;d1</title>
<path fill="none" stroke="black" d="M1354.21,-88.3777C1195.33,-86.2619 812.733,-76.9528 495,-36 488.159,-35.1182 481.041,-33.9983 473.97,-32.7554"/>
<polygon fill="black" stroke="black" points="474.152,-29.2301 463.683,-30.8599 472.883,-36.1142 474.152,-29.2301"/>
</g>
<!-- z0 -->
<g id="node15" class="node"><title>z0</title>
<a xlink:href="0019825" xlink:title="GO:0019825 (1)">
<ellipse fill="#e98576" stroke="#e98576" cx="579" cy="-18" rx="75.2018" ry="18"/>
<text text-anchor="middle" x="579" y="-13.8" font-family="Times,serif" font-size="14.00">GO:0019825 (1)</text>
</a>
</g>
<!-- b0&#45;&gt;z0 -->
<g id="edge12" class="edge"><title>b0&#45;&gt;z0</title>
<path fill="none" stroke="black" d="M1354.73,-87.0821C1217.53,-82.8254 915.315,-70.1123 663,-36 656.263,-35.0892 649.256,-33.9621 642.289,-32.7248"/>
<polygon fill="black" stroke="black" points="642.617,-29.2261 632.146,-30.8457 641.341,-36.1089 642.617,-29.2261"/>
</g>
<!-- s0 -->
<g id="node18" class="node"><title>s0</title>
<a xlink:href="0001882" xlink:title="GO:0001882 (2)">
<ellipse fill="#e98576" stroke="#e98576" cx="747" cy="-18" rx="75.2018" ry="18"/>
<text text-anchor="middle" x="747" y="-13.8" font-family="Times,serif" font-size="14.00">GO:0001882 (2)</text>
</a>
</g>
<!-- b0&#45;&gt;s0 -->
<g id="edge16" class="edge"><title>b0&#45;&gt;s0</title>
<path fill="none" stroke="black" d="M1356.44,-85.181C1243.62,-78.6556 1019.5,-63.3412 831,-36 824.371,-35.0386 817.477,-33.8896 810.615,-32.6488"/>
<polygon fill="black" stroke="black" points="811.092,-29.1774 800.618,-30.7763 809.803,-36.0577 811.092,-29.1774"/>
</g>
<!-- a0 -->
<g id="node20" class="node"><title>a0</title>
<a xlink:href="0005515" xlink:title="GO:0005515 (23)">
<ellipse fill="#e98576" stroke="#e98576" cx="920" cy="-18" rx="79.4447" ry="18"/>
<text text-anchor="middle" x="920" y="-13.8" font-family="Times,serif" font-size="14.00">GO:0005515 (23)</text>
</a>
</g>
<!-- b0&#45;&gt;a0 -->
<g id="edge18" class="edge"><title>b0&#45;&gt;a0</title>
<path fill="none" stroke="black" d="M1361.89,-81.8556C1278.83,-72.7075 1133.13,-55.6667 1009,-36 1001.95,-34.883 994.603,-33.6279 987.286,-32.3188"/>
<polygon fill="black" stroke="black" points="987.824,-28.8591 977.358,-30.508 986.568,-35.7455 987.824,-28.8591"/>
</g>
<!-- v0 -->
<g id="node22" class="node"><title>v0</title>
<a xlink:href="0008144" xlink:title="GO:0008144 (1)">
<ellipse fill="#e98576" stroke="#e98576" cx="1093" cy="-18" rx="75.2018" ry="18"/>
<text text-anchor="middle" x="1093" y="-13.8" font-family="Times,serif" font-size="14.00">GO:0008144 (1)</text>
</a>
</g>
<!-- b0&#45;&gt;v0 -->
<g id="edge20" class="edge"><title>b0&#45;&gt;v0</title>
<path fill="none" stroke="black" d="M1374.27,-77.5975C1314.96,-65.2416 1220.4,-45.5414 1157.52,-32.4413"/>
<polygon fill="black" stroke="black" points="1158.21,-29.0108 1147.71,-30.3976 1156.78,-35.8637 1158.21,-29.0108"/>
</g>
<!-- w0 -->
<g id="node28" class="node"><title>w0</title>
<a xlink:href="0060090" xlink:title="GO:0060090 (1)">
<ellipse fill="#e98576" stroke="#e98576" cx="1261" cy="-18" rx="75.2018" ry="18"/>
<text text-anchor="middle" x="1261" y="-13.8" font-family="Times,serif" font-size="14.00">GO:0060090 (1)</text>
</a>
</g>
<!-- b0&#45;&gt;w0 -->
<g id="edge26" class="edge"><title>b0&#45;&gt;w0</title>
<path fill="none" stroke="black" d="M1393.37,-74.1548C1367.95,-63.5644 1333.57,-49.2392 1306.22,-37.8424"/>
<polygon fill="black" stroke="black" points="1307.44,-34.5597 1296.87,-33.9443 1304.75,-41.0213 1307.44,-34.5597"/>
</g>
<!-- d0 -->
<g id="node34" class="node"><title>d0</title>
<a xlink:href="0043167" xlink:title="GO:0043167 (9)">
<ellipse fill="#e98576" stroke="#e98576" cx="1429" cy="-18" rx="75.2018" ry="18"/>
<text text-anchor="middle" x="1429" y="-13.8" font-family="Times,serif" font-size="14.00">GO:0043167 (9)</text>
</a>
</g>
<!-- b0&#45;&gt;d0 -->
<g id="edge32" class="edge"><title>b0&#45;&gt;d0</title>
<path fill="none" stroke="black" d="M1429,-71.6966C1429,-63.9827 1429,-54.7125 1429,-46.1124"/>
<polygon fill="black" stroke="black" points="1432.5,-46.1043 1429,-36.1043 1425.5,-46.1044 1432.5,-46.1043"/>
</g>
<!-- l0 -->
<g id="node36" class="node"><title>l0</title>
<a xlink:href="0031406" xlink:title="GO:0031406 (3)">
<ellipse fill="#e98576" stroke="#e98576" cx="1597" cy="-18" rx="75.2018" ry="18"/>
<text text-anchor="middle" x="1597" y="-13.8" font-family="Times,serif" font-size="14.00">GO:0031406 (3)</text>
</a>
</g>
<!-- b0&#45;&gt;l0 -->
<g id="edge34" class="edge"><title>b0&#45;&gt;l0</title>
<path fill="none" stroke="black" d="M1464.63,-74.1548C1490.05,-63.5644 1524.43,-49.2392 1551.78,-37.8424"/>
<polygon fill="black" stroke="black" points="1553.25,-41.0213 1561.13,-33.9443 1550.56,-34.5597 1553.25,-41.0213"/>
</g>
<!-- e1 -->
<g id="node42" class="node"><title>e1</title>
<a xlink:href="0030246" xlink:title="GO:0030246 (1)">
<ellipse fill="#e98576" stroke="#e98576" cx="1765" cy="-18" rx="75.2018" ry="18"/>
<text text-anchor="middle" x="1765" y="-13.8" font-family="Times,serif" font-size="14.00">GO:0030246 (1)</text>
</a>
</g>
<!-- b0&#45;&gt;e1 -->
<g id="edge40" class="edge"><title>b0&#45;&gt;e1</title>
<path fill="none" stroke="black" d="M1483.73,-77.5975C1543.04,-65.2416 1637.6,-45.5414 1700.48,-32.4413"/>
<polygon fill="black" stroke="black" points="1701.22,-35.8637 1710.29,-30.3976 1699.79,-29.0108 1701.22,-35.8637"/>
</g>
<!-- e0 -->
<g id="node46" class="node"><title>e0</title>
<a xlink:href="0003676" xlink:title="GO:0003676 (9)">
<ellipse fill="#e98576" stroke="#e98576" cx="1933" cy="-18" rx="75.2018" ry="18"/>
<text text-anchor="middle" x="1933" y="-13.8" font-family="Times,serif" font-size="14.00">GO:0003676 (9)</text>
</a>
</g>
<!-- b0&#45;&gt;e0 -->
<g id="edge44" class="edge"><title>b0&#45;&gt;e0</title>
<path fill="none" stroke="black" d="M1496.51,-82.041C1579.67,-73.1093 1725.16,-56.316 1849,-36 1855.51,-34.9319 1862.29,-33.7237 1869.04,-32.4561"/>
<polygon fill="black" stroke="black" points="1869.72,-35.8887 1878.88,-30.5656 1868.4,-29.0142 1869.72,-35.8887"/>
</g>
<!-- x0 -->
<g id="node48" class="node"><title>x0</title>
<a xlink:href="0046906" xlink:title="GO:0046906 (1)">
<ellipse fill="#e98576" stroke="#e98576" cx="2101" cy="-18" rx="75.2018" ry="18"/>
<text text-anchor="middle" x="2101" y="-13.8" font-family="Times,serif" font-size="14.00">GO:0046906 (1)</text>
</a>
</g>
<!-- b0&#45;&gt;x0 -->
<g id="edge46" class="edge"><title>b0&#45;&gt;x0</title>
<path fill="none" stroke="black" d="M1501.26,-85.049C1612.49,-78.3907 1832.15,-62.9523 2017,-36 2023.63,-35.0336 2030.52,-33.8814 2037.38,-32.6387"/>
<polygon fill="black" stroke="black" points="2038.2,-36.0475 2047.38,-30.7642 2036.91,-29.1674 2038.2,-36.0475"/>
</g>
<!-- n0 -->
<g id="node52" class="node"><title>n0</title>
<a xlink:href="0000166" xlink:title="GO:0000166 (3)">
<ellipse fill="#e98576" stroke="#e98576" cx="2269" cy="-18" rx="75.2018" ry="18"/>
<text text-anchor="middle" x="2269" y="-13.8" font-family="Times,serif" font-size="14.00">GO:0000166 (3)</text>
</a>
</g>
<!-- b0&#45;&gt;n0 -->
<g id="edge50" class="edge"><title>b0&#45;&gt;n0</title>
<path fill="none" stroke="black" d="M1503.1,-86.9926C1638.88,-82.6073 1936.47,-69.7162 2185,-36 2191.74,-35.0862 2198.74,-33.9571 2205.71,-32.7186"/>
<polygon fill="black" stroke="black" points="2206.66,-36.1026 2215.85,-30.8383 2205.38,-29.2199 2206.66,-36.1026"/>
</g>
<!-- y0 -->
<g id="node58" class="node"><title>y0</title>
<a xlink:href="0003682" xlink:title="GO:0003682 (1)">
<ellipse fill="#e98576" stroke="#e98576" cx="2437" cy="-18" rx="75.2018" ry="18"/>
<text text-anchor="middle" x="2437" y="-13.8" font-family="Times,serif" font-size="14.00">GO:0003682 (1)</text>
</a>
</g>
<!-- b0&#45;&gt;y0 -->
<g id="edge56" class="edge"><title>b0&#45;&gt;y0</title>
<path fill="none" stroke="black" d="M1503.89,-88.3111C1661.6,-86.0692 2039.27,-76.5348 2353,-36 2359.84,-35.1161 2366.96,-33.9949 2374.03,-32.7512"/>
<polygon fill="black" stroke="black" points="2375.12,-36.1099 2384.32,-30.8549 2373.85,-29.2259 2375.12,-36.1099"/>
</g>
<!-- t0 -->
<g id="node61" class="node"><title>t0</title>
<a xlink:href="0048037" xlink:title="GO:0048037 (2)">
<ellipse fill="#e98576" stroke="#e98576" cx="2605" cy="-18" rx="75.2018" ry="18"/>
<text text-anchor="middle" x="2605" y="-13.8" font-family="Times,serif" font-size="14.00">GO:0048037 (2)</text>
</a>
</g>
<!-- b0&#45;&gt;t0 -->
<g id="edge60" class="edge"><title>b0&#45;&gt;t0</title>
<path fill="none" stroke="black" d="M1504.14,-89.2539C1681.73,-89.0052 2141.01,-83.3966 2521,-36 2527.84,-35.1462 2534.97,-34.0442 2542.04,-32.8118"/>
<polygon fill="black" stroke="black" points="2543.12,-36.1717 2552.33,-30.9267 2541.86,-29.2864 2543.12,-36.1717"/>
</g>
<!-- k0 -->
<g id="node4" class="node"><title>k0</title>
<a xlink:href="0003824" xlink:title="GO:0003824 (1)">
<ellipse fill="#e98576" stroke="#e98576" cx="3109" cy="-90" rx="75.2018" ry="18"/>
<text text-anchor="middle" x="3109" y="-85.8" font-family="Times,serif" font-size="14.00">GO:0003824 (1)</text>
</a>
</g>
<!-- p0 -->
<g id="node6" class="node"><title>p0</title>
<a xlink:href="0016853" xlink:title="GO:0016853 (2)">
<ellipse fill="#e98576" stroke="#e98576" cx="2773" cy="-18" rx="75.2018" ry="18"/>
<text text-anchor="middle" x="2773" y="-13.8" font-family="Times,serif" font-size="14.00">GO:0016853 (2)</text>
</a>
</g>
<!-- k0&#45;&gt;p0 -->
<g id="edge4" class="edge"><title>k0&#45;&gt;p0</title>
<path fill="none" stroke="black" d="M3054.27,-77.5975C2994.96,-65.2416 2900.4,-45.5414 2837.52,-32.4413"/>
<polygon fill="black" stroke="black" points="2838.21,-29.0108 2827.71,-30.3976 2836.78,-35.8637 2838.21,-29.0108"/>
</g>
<!-- o0 -->
<g id="node40" class="node"><title>o0</title>
<a xlink:href="0016787" xlink:title="GO:0016787 (2)">
<ellipse fill="#e98576" stroke="#e98576" cx="2941" cy="-18" rx="75.2018" ry="18"/>
<text text-anchor="middle" x="2941" y="-13.8" font-family="Times,serif" font-size="14.00">GO:0016787 (2)</text>
</a>
</g>
<!-- k0&#45;&gt;o0 -->
<g id="edge38" class="edge"><title>k0&#45;&gt;o0</title>
<path fill="none" stroke="black" d="M3073.37,-74.1548C3047.95,-63.5644 3013.57,-49.2392 2986.22,-37.8424"/>
<polygon fill="black" stroke="black" points="2987.44,-34.5597 2976.87,-33.9443 2984.75,-41.0213 2987.44,-34.5597"/>
</g>
<!-- r0 -->
<g id="node44" class="node"><title>r0</title>
<a xlink:href="0016740" xlink:title="GO:0016740 (2)">
<ellipse fill="#e98576" stroke="#e98576" cx="3109" cy="-18" rx="75.2018" ry="18"/>
<text text-anchor="middle" x="3109" y="-13.8" font-family="Times,serif" font-size="14.00">GO:0016740 (2)</text>
</a>
</g>
<!-- k0&#45;&gt;r0 -->
<g id="edge42" class="edge"><title>k0&#45;&gt;r0</title>
<path fill="none" stroke="black" d="M3109,-71.6966C3109,-63.9827 3109,-54.7125 3109,-46.1124"/>
<polygon fill="black" stroke="black" points="3112.5,-46.1043 3109,-36.1043 3105.5,-46.1044 3112.5,-46.1043"/>
</g>
<!-- j0 -->
<g id="node50" class="node"><title>j0</title>
<a xlink:href="0016491" xlink:title="GO:0016491 (4)">
<ellipse fill="#e98576" stroke="#e98576" cx="3277" cy="-18" rx="75.2018" ry="18"/>
<text text-anchor="middle" x="3277" y="-13.8" font-family="Times,serif" font-size="14.00">GO:0016491 (4)</text>
</a>
</g>
<!-- k0&#45;&gt;j0 -->
<g id="edge48" class="edge"><title>k0&#45;&gt;j0</title>
<path fill="none" stroke="black" d="M3144.63,-74.1548C3170.05,-63.5644 3204.43,-49.2392 3231.78,-37.8424"/>
<polygon fill="black" stroke="black" points="3233.25,-41.0213 3241.13,-33.9443 3230.56,-34.5597 3233.25,-41.0213"/>
</g>
<!-- m0 -->
<g id="node56" class="node"><title>m0</title>
<a xlink:href="0016829" xlink:title="GO:0016829 (3)">
<ellipse fill="#e98576" stroke="#e98576" cx="3445" cy="-18" rx="75.2018" ry="18"/>
<text text-anchor="middle" x="3445" y="-13.8" font-family="Times,serif" font-size="14.00">GO:0016829 (3)</text>
</a>
</g>
<!-- k0&#45;&gt;m0 -->
<g id="edge54" class="edge"><title>k0&#45;&gt;m0</title>
<path fill="none" stroke="black" d="M3163.73,-77.5975C3223.04,-65.2416 3317.6,-45.5414 3380.48,-32.4413"/>
<polygon fill="black" stroke="black" points="3381.22,-35.8637 3390.29,-30.3976 3379.79,-29.0108 3381.22,-35.8637"/>
</g>
<!-- c0 -->
<g id="node9" class="node"><title>c0</title>
<a xlink:href="0003674" xlink:title="GO:0003674 (2)">
<ellipse fill="#e98576" stroke="#e98576" cx="3509" cy="-162" rx="75.2018" ry="18"/>
<text text-anchor="middle" x="3509" y="-157.8" font-family="Times,serif" font-size="14.00">GO:0003674 (2)</text>
</a>
</g>
<!-- c0&#45;&gt;b0 -->
<g id="edge22" class="edge"><title>c0&#45;&gt;b0</title>
<path fill="none" stroke="black" d="M3435.28,-158.519C3115.8,-147.767 1851.8,-105.229 1512.95,-93.8253"/>
<polygon fill="black" stroke="black" points="1512.83,-90.3194 1502.72,-93.481 1512.6,-97.3155 1512.83,-90.3194"/>
</g>
<!-- c0&#45;&gt;k0 -->
<g id="edge14" class="edge"><title>c0&#45;&gt;k0</title>
<path fill="none" stroke="black" d="M3448.02,-151.394C3384.3,-141.211 3281.48,-124.368 3193,-108 3186.86,-106.863 3180.47,-105.642 3174.08,-104.394"/>
<polygon fill="black" stroke="black" points="3174.56,-100.923 3164.07,-102.421 3173.21,-107.79 3174.56,-100.923"/>
</g>
<!-- f0 -->
<g id="node11" class="node"><title>f0</title>
<a xlink:href="0030234" xlink:title="GO:0030234 (6)">
<ellipse fill="#e98576" stroke="#e98576" cx="3277" cy="-90" rx="75.2018" ry="18"/>
<text text-anchor="middle" x="3277" y="-85.8" font-family="Times,serif" font-size="14.00">GO:0030234 (6)</text>
</a>
</g>
<!-- c0&#45;&gt;f0 -->
<g id="edge8" class="edge"><title>c0&#45;&gt;f0</title>
<path fill="none" stroke="black" d="M3464.27,-147.503C3426.44,-136.089 3372.09,-119.692 3331.68,-107.5"/>
<polygon fill="black" stroke="black" points="3332.57,-104.112 3321.99,-104.575 3330.55,-110.814 3332.57,-104.112"/>
</g>
<!-- b1 -->
<g id="node24" class="node"><title>b1</title>
<a xlink:href="0060089" xlink:title="GO:0060089">
<ellipse fill="#dddddd" stroke="#dddddd" cx="3432" cy="-90" rx="61.1934" ry="18"/>
<text text-anchor="middle" x="3432" y="-85.8" font-family="Times,serif" font-size="14.00">GO:0060089</text>
</a>
</g>
<!-- c0&#45;&gt;b1 -->
<g id="edge58" class="edge"><title>c0&#45;&gt;b1</title>
<path fill="none" stroke="black" d="M3490.75,-144.411C3480.8,-135.367 3468.33,-124.03 3457.44,-114.13"/>
<polygon fill="black" stroke="black" points="3459.61,-111.365 3449.85,-107.228 3454.9,-116.545 3459.61,-111.365"/>
</g>
<!-- i0 -->
<g id="node30" class="node"><title>i0</title>
<a xlink:href="0016209" xlink:title="GO:0016209 (4)">
<ellipse fill="#e98576" stroke="#e98576" cx="3587" cy="-90" rx="75.2018" ry="18"/>
<text text-anchor="middle" x="3587" y="-85.8" font-family="Times,serif" font-size="14.00">GO:0016209 (4)</text>
</a>
</g>
<!-- c0&#45;&gt;i0 -->
<g id="edge28" class="edge"><title>c0&#45;&gt;i0</title>
<path fill="none" stroke="black" d="M3527.48,-144.411C3537.49,-135.432 3550.01,-124.193 3560.99,-114.344"/>
<polygon fill="black" stroke="black" points="3563.54,-116.754 3568.65,-107.47 3558.87,-111.544 3563.54,-116.754"/>
</g>
<!-- q0 -->
<g id="node32" class="node"><title>q0</title>
<a xlink:href="0005215" xlink:title="GO:0005215 (2)">
<ellipse fill="#e98576" stroke="#e98576" cx="3755" cy="-90" rx="75.2018" ry="18"/>
<text text-anchor="middle" x="3755" y="-85.8" font-family="Times,serif" font-size="14.00">GO:0005215 (2)</text>
</a>
</g>
<!-- c0&#45;&gt;q0 -->
<g id="edge30" class="edge"><title>c0&#45;&gt;q0</title>
<path fill="none" stroke="black" d="M3555.56,-147.751C3596.27,-136.168 3655.48,-119.319 3698.81,-106.989"/>
<polygon fill="black" stroke="black" points="3699.97,-110.298 3708.63,-104.195 3698.05,-103.565 3699.97,-110.298"/>
</g>
<!-- c1 -->
<g id="node38" class="node"><title>c1</title>
<a xlink:href="0045499" xlink:title="GO:0045499 (1)">
<ellipse fill="#e98576" stroke="#e98576" cx="3923" cy="-90" rx="75.2018" ry="18"/>
<text text-anchor="middle" x="3923" y="-85.8" font-family="Times,serif" font-size="14.00">GO:0045499 (1)</text>
</a>
</g>
<!-- c0&#45;&gt;c1 -->
<g id="edge36" class="edge"><title>c0&#45;&gt;c1</title>
<path fill="none" stroke="black" d="M3571.17,-151.783C3637.6,-141.753 3745.94,-124.883 3839,-108 3845.24,-106.867 3851.74,-105.64 3858.23,-104.381"/>
<polygon fill="black" stroke="black" points="3859.25,-107.748 3868.39,-102.386 3857.9,-100.879 3859.25,-107.748"/>
</g>
<!-- g0 -->
<g id="node54" class="node"><title>g0</title>
<a xlink:href="0005198" xlink:title="GO:0005198 (6)">
<ellipse fill="#e98576" stroke="#e98576" cx="4091" cy="-90" rx="75.2018" ry="18"/>
<text text-anchor="middle" x="4091" y="-85.8" font-family="Times,serif" font-size="14.00">GO:0005198 (6)</text>
</a>
</g>
<!-- c0&#45;&gt;g0 -->
<g id="edge52" class="edge"><title>c0&#45;&gt;g0</title>
<path fill="none" stroke="black" d="M3579.37,-155.601C3676.08,-147.706 3855.33,-131.366 4007,-108 4013.62,-106.98 4020.51,-105.793 4027.37,-104.53"/>
<polygon fill="black" stroke="black" points="4028.19,-107.937 4037.36,-102.634 4026.88,-101.059 4028.19,-107.937"/>
</g>
<!-- a1 -->
<g id="node26" class="node"><title>a1</title>
<a xlink:href="0004871" xlink:title="GO:0004871 (1)">
<ellipse fill="#e98576" stroke="#e98576" cx="3613" cy="-18" rx="75.2018" ry="18"/>
<text text-anchor="middle" x="3613" y="-13.8" font-family="Times,serif" font-size="14.00">GO:0004871 (1)</text>
</a>
</g>
<!-- b1&#45;&gt;a1 -->
<g id="edge24" class="edge"><title>b1&#45;&gt;a1</title>
<path fill="none" stroke="black" d="M3467.76,-75.1703C3495.74,-64.3484 3534.91,-49.2013 3565.52,-37.3632"/>
<polygon fill="black" stroke="black" points="3567.07,-40.5171 3575.13,-33.6457 3564.54,-33.9884 3567.07,-40.5171"/>
</g>
</g>
</svg>
