<?xml version="1.0" encoding="UTF-8" standalone="no"?>
<!DOCTYPE svg PUBLIC "-//W3C//DTD SVG 1.1//EN"
 "http://www.w3.org/Graphics/SVG/1.1/DTD/svg11.dtd">
<!-- Generated by graphviz version 2.28.0 (20110622.2320)
 -->
<!-- Title: G Pages: 1 -->
<svg width="1334pt" height="260pt"
 viewBox="0.00 0.00 1334.00 260.00" xmlns="http://www.w3.org/2000/svg" xmlns:xlink="http://www.w3.org/1999/xlink">
<g id="graph1" class="graph" transform="scale(1 1) rotate(0) translate(4 256)">
<title>G</title>
<polygon fill="white" stroke="white" points="-4,5 -4,-256 1331,-256 1331,5 -4,5"/>
<!-- e0 -->
<g id="node1" class="node"><title>e0</title>
<a xlink:href="0005488" xlink:title="GO:0005488">
<ellipse fill="#dddddd" stroke="#dddddd" cx="495" cy="-162" rx="61.1934" ry="18"/>
<text text-anchor="middle" x="495" y="-157.8" font-family="Times,serif" font-size="14.00">GO:0005488</text>
</a>
</g>
<!-- f0 -->
<g id="node3" class="node"><title>f0</title>
<a xlink:href="0043167" xlink:title="GO:0043167 (1)">
<ellipse fill="#e98576" stroke="#e98576" cx="75" cy="-90" rx="75.2018" ry="18"/>
<text text-anchor="middle" x="75" y="-85.8" font-family="Times,serif" font-size="14.00">GO:0043167 (1)</text>
</a>
</g>
<!-- e0&#45;&gt;f0 -->
<g id="edge2" class="edge"><title>e0&#45;&gt;f0</title>
<path fill="none" stroke="black" d="M441.342,-153.267C374.916,-143.526 258.387,-125.887 159,-108 152.754,-106.876 146.257,-105.654 139.766,-104.399"/>
<polygon fill="black" stroke="black" points="140.095,-100.897 129.608,-102.408 138.748,-107.766 140.095,-100.897"/>
</g>
<!-- i0 -->
<g id="node13" class="node"><title>i0</title>
<a xlink:href="0001882" xlink:title="GO:0001882 (1)">
<ellipse fill="#e98576" stroke="#e98576" cx="243" cy="-90" rx="75.2018" ry="18"/>
<text text-anchor="middle" x="243" y="-85.8" font-family="Times,serif" font-size="14.00">GO:0001882 (1)</text>
</a>
</g>
<!-- e0&#45;&gt;i0 -->
<g id="edge10" class="edge"><title>e0&#45;&gt;i0</title>
<path fill="none" stroke="black" d="M451.966,-149.046C410.057,-137.405 346.105,-119.64 299.988,-106.83"/>
<polygon fill="black" stroke="black" points="300.713,-103.399 290.141,-104.095 298.839,-110.143 300.713,-103.399"/>
</g>
<!-- d0 -->
<g id="node15" class="node"><title>d0</title>
<a xlink:href="0003676" xlink:title="GO:0003676 (2)">
<ellipse fill="#e98576" stroke="#e98576" cx="411" cy="-90" rx="75.2018" ry="18"/>
<text text-anchor="middle" x="411" y="-85.8" font-family="Times,serif" font-size="14.00">GO:0003676 (2)</text>
</a>
</g>
<!-- e0&#45;&gt;d0 -->
<g id="edge12" class="edge"><title>e0&#45;&gt;d0</title>
<path fill="none" stroke="black" d="M475.518,-144.765C464.57,-135.642 450.725,-124.105 438.67,-114.059"/>
<polygon fill="black" stroke="black" points="440.591,-111.103 430.668,-107.39 436.109,-116.48 440.591,-111.103"/>
</g>
<!-- k0 -->
<g id="node17" class="node"><title>k0</title>
<a xlink:href="0046906" xlink:title="GO:0046906 (1)">
<ellipse fill="#e98576" stroke="#e98576" cx="579" cy="-90" rx="75.2018" ry="18"/>
<text text-anchor="middle" x="579" y="-85.8" font-family="Times,serif" font-size="14.00">GO:0046906 (1)</text>
</a>
</g>
<!-- e0&#45;&gt;k0 -->
<g id="edge14" class="edge"><title>e0&#45;&gt;k0</title>
<path fill="none" stroke="black" d="M514.482,-144.765C525.43,-135.642 539.275,-124.105 551.33,-114.059"/>
<polygon fill="black" stroke="black" points="553.891,-116.48 559.332,-107.39 549.409,-111.103 553.891,-116.48"/>
</g>
<!-- l0 -->
<g id="node21" class="node"><title>l0</title>
<a xlink:href="0000166" xlink:title="GO:0000166 (1)">
<ellipse fill="#e98576" stroke="#e98576" cx="747" cy="-90" rx="75.2018" ry="18"/>
<text text-anchor="middle" x="747" y="-85.8" font-family="Times,serif" font-size="14.00">GO:0000166 (1)</text>
</a>
</g>
<!-- e0&#45;&gt;l0 -->
<g id="edge20" class="edge"><title>e0&#45;&gt;l0</title>
<path fill="none" stroke="black" d="M538.034,-149.046C579.943,-137.405 643.895,-119.64 690.012,-106.83"/>
<polygon fill="black" stroke="black" points="691.161,-110.143 699.859,-104.095 689.287,-103.399 691.161,-110.143"/>
</g>
<!-- b0 -->
<g id="node4" class="node"><title>b0</title>
<a xlink:href="0003824" xlink:title="GO:0003824">
<ellipse fill="#dddddd" stroke="#dddddd" cx="999" cy="-162" rx="61.1934" ry="18"/>
<text text-anchor="middle" x="999" y="-157.8" font-family="Times,serif" font-size="14.00">GO:0003824</text>
</a>
</g>
<!-- a0 -->
<g id="node6" class="node"><title>a0</title>
<a xlink:href="0016787" xlink:title="GO:0016787 (4)">
<ellipse fill="#e98576" stroke="#e98576" cx="915" cy="-90" rx="75.2018" ry="18"/>
<text text-anchor="middle" x="915" y="-85.8" font-family="Times,serif" font-size="14.00">GO:0016787 (4)</text>
</a>
</g>
<!-- b0&#45;&gt;a0 -->
<g id="edge4" class="edge"><title>b0&#45;&gt;a0</title>
<path fill="none" stroke="black" d="M979.518,-144.765C968.57,-135.642 954.725,-124.105 942.67,-114.059"/>
<polygon fill="black" stroke="black" points="944.591,-111.103 934.668,-107.39 940.109,-116.48 944.591,-111.103"/>
</g>
<!-- h0 -->
<g id="node7" class="node"><title>h0</title>
<a xlink:href="0016491" xlink:title="GO:0016491 (1)">
<ellipse fill="#e98576" stroke="#e98576" cx="1083" cy="-90" rx="75.2018" ry="18"/>
<text text-anchor="middle" x="1083" y="-85.8" font-family="Times,serif" font-size="14.00">GO:0016491 (1)</text>
</a>
</g>
<!-- b0&#45;&gt;h0 -->
<g id="edge18" class="edge"><title>b0&#45;&gt;h0</title>
<path fill="none" stroke="black" d="M1018.48,-144.765C1029.43,-135.642 1043.27,-124.105 1055.33,-114.059"/>
<polygon fill="black" stroke="black" points="1057.89,-116.48 1063.33,-107.39 1053.41,-111.103 1057.89,-116.48"/>
</g>
<!-- j0 -->
<g id="node23" class="node"><title>j0</title>
<a xlink:href="0004386" xlink:title="GO:0004386 (1)">
<ellipse fill="#e98576" stroke="#e98576" cx="1251" cy="-90" rx="75.2018" ry="18"/>
<text text-anchor="middle" x="1251" y="-85.8" font-family="Times,serif" font-size="14.00">GO:0004386 (1)</text>
</a>
</g>
<!-- b0&#45;&gt;j0 -->
<g id="edge22" class="edge"><title>b0&#45;&gt;j0</title>
<path fill="none" stroke="black" d="M1042.03,-149.046C1083.94,-137.405 1147.9,-119.64 1194.01,-106.83"/>
<polygon fill="black" stroke="black" points="1195.16,-110.143 1203.86,-104.095 1193.29,-103.399 1195.16,-110.143"/>
</g>
<!-- m0 -->
<g id="node25" class="node"><title>m0</title>
<a xlink:href="0008233" xlink:title="GO:0008233 (1)">
<ellipse fill="#e98576" stroke="#e98576" cx="915" cy="-18" rx="75.2018" ry="18"/>
<text text-anchor="middle" x="915" y="-13.8" font-family="Times,serif" font-size="14.00">GO:0008233 (1)</text>
</a>
</g>
<!-- a0&#45;&gt;m0 -->
<g id="edge24" class="edge"><title>a0&#45;&gt;m0</title>
<path fill="none" stroke="black" d="M915,-71.6966C915,-63.9827 915,-54.7125 915,-46.1124"/>
<polygon fill="black" stroke="black" points="918.5,-46.1043 915,-36.1043 911.5,-46.1044 918.5,-46.1043"/>
</g>
<!-- g0 -->
<g id="node9" class="node"><title>g0</title>
<a xlink:href="0009055" xlink:title="GO:0009055 (1)">
<ellipse fill="#e98576" stroke="#e98576" cx="1083" cy="-18" rx="75.2018" ry="18"/>
<text text-anchor="middle" x="1083" y="-13.8" font-family="Times,serif" font-size="14.00">GO:0009055 (1)</text>
</a>
</g>
<!-- h0&#45;&gt;g0 -->
<g id="edge6" class="edge"><title>h0&#45;&gt;g0</title>
<path fill="none" stroke="black" d="M1083,-71.6966C1083,-63.9827 1083,-54.7125 1083,-46.1124"/>
<polygon fill="black" stroke="black" points="1086.5,-46.1043 1083,-36.1043 1079.5,-46.1044 1086.5,-46.1043"/>
</g>
<!-- c0 -->
<g id="node10" class="node"><title>c0</title>
<a xlink:href="0003674" xlink:title="GO:0003674">
<ellipse fill="#dddddd" stroke="#dddddd" cx="747" cy="-234" rx="61.1934" ry="18"/>
<text text-anchor="middle" x="747" y="-229.8" font-family="Times,serif" font-size="14.00">GO:0003674</text>
</a>
</g>
<!-- c0&#45;&gt;e0 -->
<g id="edge16" class="edge"><title>c0&#45;&gt;e0</title>
<path fill="none" stroke="black" d="M703.966,-221.046C660.748,-209.041 594.086,-190.524 547.718,-177.644"/>
<polygon fill="black" stroke="black" points="548.428,-174.209 537.857,-174.905 546.555,-180.953 548.428,-174.209"/>
</g>
<!-- c0&#45;&gt;b0 -->
<g id="edge8" class="edge"><title>c0&#45;&gt;b0</title>
<path fill="none" stroke="black" d="M790.034,-221.046C833.252,-209.041 899.914,-190.524 946.282,-177.644"/>
<polygon fill="black" stroke="black" points="947.445,-180.953 956.143,-174.905 945.572,-174.209 947.445,-180.953"/>
</g>
</g>
</svg>
