<?xml version="1.0" encoding="UTF-8" standalone="no"?>
<!DOCTYPE svg PUBLIC "-//W3C//DTD SVG 1.1//EN"
 "http://www.w3.org/Graphics/SVG/1.1/DTD/svg11.dtd">
<!-- Generated by graphviz version 2.28.0 (20110622.2320)
 -->
<!-- Title: G Pages: 1 -->
<svg width="1166pt" height="188pt"
 viewBox="0.00 0.00 1166.00 188.00" xmlns="http://www.w3.org/2000/svg" xmlns:xlink="http://www.w3.org/1999/xlink">
<g id="graph1" class="graph" transform="scale(1 1) rotate(0) translate(4 184)">
<title>G</title>
<polygon fill="white" stroke="white" points="-4,5 -4,-184 1163,-184 1163,5 -4,5"/>
<!-- c0 -->
<g id="node1" class="node"><title>c0</title>
<a xlink:href="0003674" xlink:title="GO:0003674">
<ellipse fill="#dddddd" stroke="#dddddd" cx="495" cy="-162" rx="61.1934" ry="18"/>
<text text-anchor="middle" x="495" y="-157.8" font-family="Times,serif" font-size="14.00">GO:0003674</text>
</a>
</g>
<!-- j0 -->
<g id="node3" class="node"><title>j0</title>
<a xlink:href="0005215" xlink:title="GO:0005215 (1)">
<ellipse fill="#e98576" stroke="#e98576" cx="340" cy="-90" rx="75.2018" ry="18"/>
<text text-anchor="middle" x="340" y="-85.8" font-family="Times,serif" font-size="14.00">GO:0005215 (1)</text>
</a>
</g>
<!-- c0&#45;&gt;j0 -->
<g id="edge2" class="edge"><title>c0&#45;&gt;j0</title>
<path fill="none" stroke="black" d="M462.884,-146.496C439.767,-136.056 408.333,-121.86 383.044,-110.439"/>
<polygon fill="black" stroke="black" points="384.238,-107.138 373.683,-106.212 381.357,-113.518 384.238,-107.138"/>
</g>
<!-- b0 -->
<g id="node4" class="node"><title>b0</title>
<a xlink:href="0005488" xlink:title="GO:0005488">
<ellipse fill="#dddddd" stroke="#dddddd" cx="495" cy="-90" rx="61.1934" ry="18"/>
<text text-anchor="middle" x="495" y="-85.8" font-family="Times,serif" font-size="14.00">GO:0005488</text>
</a>
</g>
<!-- c0&#45;&gt;b0 -->
<g id="edge18" class="edge"><title>c0&#45;&gt;b0</title>
<path fill="none" stroke="black" d="M495,-143.697C495,-135.983 495,-126.712 495,-118.112"/>
<polygon fill="black" stroke="black" points="498.5,-118.104 495,-108.104 491.5,-118.104 498.5,-118.104"/>
</g>
<!-- e0 -->
<g id="node7" class="node"><title>e0</title>
<a xlink:href="0003824" xlink:title="GO:0003824">
<ellipse fill="#dddddd" stroke="#dddddd" cx="915" cy="-90" rx="61.1934" ry="18"/>
<text text-anchor="middle" x="915" y="-85.8" font-family="Times,serif" font-size="14.00">GO:0003824</text>
</a>
</g>
<!-- c0&#45;&gt;e0 -->
<g id="edge8" class="edge"><title>c0&#45;&gt;e0</title>
<path fill="none" stroke="black" d="M539.947,-149.634C548.566,-147.626 557.541,-145.652 566,-144 664.32,-124.799 779.371,-108.51 849.701,-99.2427"/>
<polygon fill="black" stroke="black" points="850.286,-102.696 859.746,-97.9268 849.376,-95.7554 850.286,-102.696"/>
</g>
<!-- a0 -->
<g id="node6" class="node"><title>a0</title>
<a xlink:href="0043167" xlink:title="GO:0043167 (4)">
<ellipse fill="#e98576" stroke="#e98576" cx="75" cy="-18" rx="75.2018" ry="18"/>
<text text-anchor="middle" x="75" y="-13.8" font-family="Times,serif" font-size="14.00">GO:0043167 (4)</text>
</a>
</g>
<!-- b0&#45;&gt;a0 -->
<g id="edge4" class="edge"><title>b0&#45;&gt;a0</title>
<path fill="none" stroke="black" d="M450.454,-77.6147C441.717,-75.5855 432.596,-73.6089 424,-72 307.169,-50.1342 276.199,-55.7988 159,-36 152.494,-34.901 145.722,-33.6726 138.971,-32.3927"/>
<polygon fill="black" stroke="black" points="139.61,-28.9516 129.128,-30.4896 138.282,-35.8244 139.61,-28.9516"/>
</g>
<!-- l0 -->
<g id="node12" class="node"><title>l0</title>
<a xlink:href="0005515" xlink:title="GO:0005515 (1)">
<ellipse fill="#e98576" stroke="#e98576" cx="243" cy="-18" rx="75.2018" ry="18"/>
<text text-anchor="middle" x="243" y="-13.8" font-family="Times,serif" font-size="14.00">GO:0005515 (1)</text>
</a>
</g>
<!-- b0&#45;&gt;l0 -->
<g id="edge10" class="edge"><title>b0&#45;&gt;l0</title>
<path fill="none" stroke="black" d="M451.966,-77.0461C410.057,-65.4048 346.105,-47.6401 299.988,-34.83"/>
<polygon fill="black" stroke="black" points="300.713,-31.3988 290.141,-32.0946 298.839,-38.1434 300.713,-31.3988"/>
</g>
<!-- h0 -->
<g id="node16" class="node"><title>h0</title>
<a xlink:href="0008144" xlink:title="GO:0008144 (2)">
<ellipse fill="#e98576" stroke="#e98576" cx="411" cy="-18" rx="75.2018" ry="18"/>
<text text-anchor="middle" x="411" y="-13.8" font-family="Times,serif" font-size="14.00">GO:0008144 (2)</text>
</a>
</g>
<!-- b0&#45;&gt;h0 -->
<g id="edge14" class="edge"><title>b0&#45;&gt;h0</title>
<path fill="none" stroke="black" d="M475.518,-72.7646C464.57,-63.642 450.725,-52.1046 438.67,-42.0585"/>
<polygon fill="black" stroke="black" points="440.591,-39.1029 430.668,-35.3898 436.109,-44.4805 440.591,-39.1029"/>
</g>
<!-- i0 -->
<g id="node18" class="node"><title>i0</title>
<a xlink:href="0003676" xlink:title="GO:0003676 (1)">
<ellipse fill="#e98576" stroke="#e98576" cx="579" cy="-18" rx="75.2018" ry="18"/>
<text text-anchor="middle" x="579" y="-13.8" font-family="Times,serif" font-size="14.00">GO:0003676 (1)</text>
</a>
</g>
<!-- b0&#45;&gt;i0 -->
<g id="edge16" class="edge"><title>b0&#45;&gt;i0</title>
<path fill="none" stroke="black" d="M514.482,-72.7646C525.43,-63.642 539.275,-52.1046 551.33,-42.0585"/>
<polygon fill="black" stroke="black" points="553.891,-44.4805 559.332,-35.3898 549.409,-39.1029 553.891,-44.4805"/>
</g>
<!-- g0 -->
<g id="node21" class="node"><title>g0</title>
<a xlink:href="0000166" xlink:title="GO:0000166 (2)">
<ellipse fill="#e98576" stroke="#e98576" cx="747" cy="-18" rx="75.2018" ry="18"/>
<text text-anchor="middle" x="747" y="-13.8" font-family="Times,serif" font-size="14.00">GO:0000166 (2)</text>
</a>
</g>
<!-- b0&#45;&gt;g0 -->
<g id="edge20" class="edge"><title>b0&#45;&gt;g0</title>
<path fill="none" stroke="black" d="M538.034,-77.0461C579.943,-65.4048 643.895,-47.6401 690.012,-34.83"/>
<polygon fill="black" stroke="black" points="691.161,-38.1434 699.859,-32.0946 689.287,-31.3988 691.161,-38.1434"/>
</g>
<!-- d0 -->
<g id="node9" class="node"><title>d0</title>
<a xlink:href="0016787" xlink:title="GO:0016787 (2)">
<ellipse fill="#e98576" stroke="#e98576" cx="915" cy="-18" rx="75.2018" ry="18"/>
<text text-anchor="middle" x="915" y="-13.8" font-family="Times,serif" font-size="14.00">GO:0016787 (2)</text>
</a>
</g>
<!-- e0&#45;&gt;d0 -->
<g id="edge6" class="edge"><title>e0&#45;&gt;d0</title>
<path fill="none" stroke="black" d="M915,-71.6966C915,-63.9827 915,-54.7125 915,-46.1124"/>
<polygon fill="black" stroke="black" points="918.5,-46.1043 915,-36.1043 911.5,-46.1044 918.5,-46.1043"/>
</g>
<!-- k0 -->
<g id="node14" class="node"><title>k0</title>
<a xlink:href="0016740" xlink:title="GO:0016740 (1)">
<ellipse fill="#e98576" stroke="#e98576" cx="1083" cy="-18" rx="75.2018" ry="18"/>
<text text-anchor="middle" x="1083" y="-13.8" font-family="Times,serif" font-size="14.00">GO:0016740 (1)</text>
</a>
</g>
<!-- e0&#45;&gt;k0 -->
<g id="edge12" class="edge"><title>e0&#45;&gt;k0</title>
<path fill="none" stroke="black" d="M948.997,-74.8345C974.556,-64.1851 1009.82,-49.4897 1037.76,-37.8481"/>
<polygon fill="black" stroke="black" points="1039.43,-40.9463 1047.31,-33.8693 1036.74,-34.4847 1039.43,-40.9463"/>
</g>
<!-- f0 -->
<g id="node22" class="node"><title>f0</title>
<a xlink:href="0038023" xlink:title="GO:0038023 (2)">
<ellipse fill="#e98576" stroke="#e98576" cx="650" cy="-162" rx="75.2018" ry="18"/>
<text text-anchor="middle" x="650" y="-157.8" font-family="Times,serif" font-size="14.00">GO:0038023 (2)</text>
</a>
</g>
</g>
</svg>
