<?xml version="1.0" encoding="UTF-8" standalone="no"?>
<!DOCTYPE svg PUBLIC "-//W3C//DTD SVG 1.1//EN"
 "http://www.w3.org/Graphics/SVG/1.1/DTD/svg11.dtd">
<!-- Generated by graphviz version 2.28.0 (20110622.2320)
 -->
<!-- Title: G Pages: 1 -->
<svg width="2918pt" height="404pt"
 viewBox="0.00 0.00 2918.00 404.00" xmlns="http://www.w3.org/2000/svg" xmlns:xlink="http://www.w3.org/1999/xlink">
<g id="graph1" class="graph" transform="scale(1 1) rotate(0) translate(4 400)">
<title>G</title>
<polygon fill="white" stroke="white" points="-4,5 -4,-400 2915,-400 2915,5 -4,5"/>
<!-- c0 -->
<g id="node1" class="node"><title>c0</title>
<a xlink:href="0003674" xlink:title="GO:0003674">
<ellipse fill="#dddddd" stroke="#dddddd" cx="1948" cy="-378" rx="61.1934" ry="18"/>
<text text-anchor="middle" x="1948" y="-373.8" font-family="Times,serif" font-size="14.00">GO:0003674</text>
</a>
</g>
<!-- x0 -->
<g id="node3" class="node"><title>x0</title>
<a xlink:href="0030234" xlink:title="GO:0030234 (1)">
<ellipse fill="#e98576" stroke="#e98576" cx="604" cy="-306" rx="75.2018" ry="18"/>
<text text-anchor="middle" x="604" y="-301.8" font-family="Times,serif" font-size="14.00">GO:0030234 (1)</text>
</a>
</g>
<!-- c0&#45;&gt;x0 -->
<g id="edge2" class="edge"><title>c0&#45;&gt;x0</title>
<path fill="none" stroke="black" d="M1887.12,-375.712C1668.61,-370.892 924.364,-352.707 688,-324 681.153,-323.168 674.03,-322.08 666.958,-320.856"/>
<polygon fill="black" stroke="black" points="667.134,-317.331 656.668,-318.979 665.878,-324.217 667.134,-317.331"/>
</g>
<!-- f0 -->
<g id="node4" class="node"><title>f0</title>
<a xlink:href="0003824" xlink:title="GO:0003824 (2)">
<ellipse fill="#e98576" stroke="#e98576" cx="772" cy="-306" rx="75.2018" ry="18"/>
<text text-anchor="middle" x="772" y="-301.8" font-family="Times,serif" font-size="14.00">GO:0003824 (2)</text>
</a>
</g>
<!-- c0&#45;&gt;f0 -->
<g id="edge10" class="edge"><title>c0&#45;&gt;f0</title>
<path fill="none" stroke="black" d="M1888.47,-373.457C1694.07,-361.885 1077.55,-325.187 853.982,-311.88"/>
<polygon fill="black" stroke="black" points="854.145,-308.383 843.955,-311.283 853.729,-315.371 854.145,-308.383"/>
</g>
<!-- b0 -->
<g id="node14" class="node"><title>b0</title>
<a xlink:href="0005488" xlink:title="GO:0005488">
<ellipse fill="#dddddd" stroke="#dddddd" cx="1871" cy="-306" rx="61.1934" ry="18"/>
<text text-anchor="middle" x="1871" y="-301.8" font-family="Times,serif" font-size="14.00">GO:0005488</text>
</a>
</g>
<!-- c0&#45;&gt;b0 -->
<g id="edge20" class="edge"><title>c0&#45;&gt;b0</title>
<path fill="none" stroke="black" d="M1930.14,-360.765C1920.2,-351.73 1907.66,-340.326 1896.68,-330.349"/>
<polygon fill="black" stroke="black" points="1898.78,-327.527 1889.03,-323.39 1894.07,-332.706 1898.78,-327.527"/>
</g>
<!-- c1 -->
<g id="node29" class="node"><title>c1</title>
<a xlink:href="0016209" xlink:title="GO:0016209 (1)">
<ellipse fill="#e98576" stroke="#e98576" cx="2026" cy="-306" rx="75.2018" ry="18"/>
<text text-anchor="middle" x="2026" y="-301.8" font-family="Times,serif" font-size="14.00">GO:0016209 (1)</text>
</a>
</g>
<!-- c0&#45;&gt;c1 -->
<g id="edge24" class="edge"><title>c0&#45;&gt;c1</title>
<path fill="none" stroke="black" d="M1966.09,-360.765C1976.09,-351.795 1988.68,-340.49 1999.74,-330.564"/>
<polygon fill="black" stroke="black" points="2002.36,-332.917 2007.47,-323.633 1997.69,-327.708 2002.36,-332.917"/>
</g>
<!-- n0 -->
<g id="node34" class="node"><title>n0</title>
<a xlink:href="0005215" xlink:title="GO:0005215 (13)">
<ellipse fill="#e98576" stroke="#e98576" cx="2199" cy="-306" rx="79.4447" ry="18"/>
<text text-anchor="middle" x="2199" y="-301.8" font-family="Times,serif" font-size="14.00">GO:0005215 (13)</text>
</a>
</g>
<!-- c0&#45;&gt;n0 -->
<g id="edge28" class="edge"><title>c0&#45;&gt;n0</title>
<path fill="none" stroke="black" d="M1990.86,-365.046C2032.21,-353.514 2095.11,-335.973 2140.94,-323.192"/>
<polygon fill="black" stroke="black" points="2142.05,-326.517 2150.74,-320.459 2140.17,-319.774 2142.05,-326.517"/>
</g>
<!-- j0 -->
<g id="node55" class="node"><title>j0</title>
<a xlink:href="0005198" xlink:title="GO:0005198 (28)">
<ellipse fill="#e98576" stroke="#e98576" cx="2377" cy="-306" rx="79.4447" ry="18"/>
<text text-anchor="middle" x="2377" y="-301.8" font-family="Times,serif" font-size="14.00">GO:0005198 (28)</text>
</a>
</g>
<!-- c0&#45;&gt;j0 -->
<g id="edge54" class="edge"><title>c0&#45;&gt;j0</title>
<path fill="none" stroke="black" d="M2001.52,-369.167C2068.4,-359.255 2186.33,-341.373 2287,-324 2294,-322.792 2301.3,-321.487 2308.58,-320.157"/>
<polygon fill="black" stroke="black" points="2309.27,-323.589 2318.47,-318.333 2308,-316.705 2309.27,-323.589"/>
</g>
<!-- p0 -->
<g id="node6" class="node"><title>p0</title>
<a xlink:href="0016853" xlink:title="GO:0016853 (9)">
<ellipse fill="#e98576" stroke="#e98576" cx="75" cy="-234" rx="75.2018" ry="18"/>
<text text-anchor="middle" x="75" y="-229.8" font-family="Times,serif" font-size="14.00">GO:0016853 (9)</text>
</a>
</g>
<!-- f0&#45;&gt;p0 -->
<g id="edge4" class="edge"><title>f0&#45;&gt;p0</title>
<path fill="none" stroke="black" d="M718.855,-293.145C708.654,-291.182 698.027,-289.35 688,-288 454.452,-256.56 392.548,-283.44 159,-252 152.263,-251.093 145.255,-249.968 138.288,-248.733"/>
<polygon fill="black" stroke="black" points="138.615,-245.234 128.145,-246.855 137.341,-252.117 138.615,-245.234"/>
</g>
<!-- t0 -->
<g id="node7" class="node"><title>t0</title>
<a xlink:href="0016874" xlink:title="GO:0016874 (3)">
<ellipse fill="#e98576" stroke="#e98576" cx="243" cy="-234" rx="75.2018" ry="18"/>
<text text-anchor="middle" x="243" y="-229.8" font-family="Times,serif" font-size="14.00">GO:0016874 (3)</text>
</a>
</g>
<!-- f0&#45;&gt;t0 -->
<g id="edge40" class="edge"><title>f0&#45;&gt;t0</title>
<path fill="none" stroke="black" d="M718.368,-293.312C708.309,-291.357 697.858,-289.485 688,-288 528.559,-263.978 486.441,-276.022 327,-252 320.377,-251.002 313.486,-249.83 306.625,-248.575"/>
<polygon fill="black" stroke="black" points="307.107,-245.104 296.632,-246.688 305.809,-251.982 307.107,-245.104"/>
</g>
<!-- e0 -->
<g id="node25" class="node"><title>e0</title>
<a xlink:href="0016787" xlink:title="GO:0016787 (34)">
<ellipse fill="#e98576" stroke="#e98576" cx="416" cy="-234" rx="79.4447" ry="18"/>
<text text-anchor="middle" x="416" y="-229.8" font-family="Times,serif" font-size="14.00">GO:0016787 (34)</text>
</a>
</g>
<!-- f0&#45;&gt;e0 -->
<g id="edge34" class="edge"><title>f0&#45;&gt;e0</title>
<path fill="none" stroke="black" d="M716.435,-293.696C706.95,-291.783 697.194,-289.826 688,-288 618.699,-274.236 539.396,-258.822 484.372,-248.18"/>
<polygon fill="black" stroke="black" points="484.871,-244.712 474.389,-246.25 483.543,-251.585 484.871,-244.712"/>
</g>
<!-- h0 -->
<g id="node30" class="node"><title>h0</title>
<a xlink:href="0016491" xlink:title="GO:0016491 (30)">
<ellipse fill="#e98576" stroke="#e98576" cx="594" cy="-234" rx="79.4447" ry="18"/>
<text text-anchor="middle" x="594" y="-229.8" font-family="Times,serif" font-size="14.00">GO:0016491 (30)</text>
</a>
</g>
<!-- f0&#45;&gt;h0 -->
<g id="edge46" class="edge"><title>f0&#45;&gt;h0</title>
<path fill="none" stroke="black" d="M734.685,-290.326C707.575,-279.664 670.672,-265.152 641.464,-253.666"/>
<polygon fill="black" stroke="black" points="642.466,-250.299 631.879,-249.896 639.904,-256.813 642.466,-250.299"/>
</g>
<!-- g0 -->
<g id="node44" class="node"><title>g0</title>
<a xlink:href="0016740" xlink:title="GO:0016740 (31)">
<ellipse fill="#e98576" stroke="#e98576" cx="772" cy="-234" rx="79.4447" ry="18"/>
<text text-anchor="middle" x="772" y="-229.8" font-family="Times,serif" font-size="14.00">GO:0016740 (31)</text>
</a>
</g>
<!-- f0&#45;&gt;g0 -->
<g id="edge42" class="edge"><title>f0&#45;&gt;g0</title>
<path fill="none" stroke="black" d="M772,-287.697C772,-279.983 772,-270.712 772,-262.112"/>
<polygon fill="black" stroke="black" points="775.5,-262.104 772,-252.104 768.5,-262.104 775.5,-262.104"/>
</g>
<!-- u0 -->
<g id="node53" class="node"><title>u0</title>
<a xlink:href="0004386" xlink:title="GO:0004386 (3)">
<ellipse fill="#e98576" stroke="#e98576" cx="945" cy="-234" rx="75.2018" ry="18"/>
<text text-anchor="middle" x="945" y="-229.8" font-family="Times,serif" font-size="14.00">GO:0004386 (3)</text>
</a>
</g>
<!-- f0&#45;&gt;u0 -->
<g id="edge52" class="edge"><title>f0&#45;&gt;u0</title>
<path fill="none" stroke="black" d="M808.689,-290.155C835.066,-279.482 870.817,-265.016 899.088,-253.577"/>
<polygon fill="black" stroke="black" points="900.407,-256.819 908.364,-249.824 897.781,-250.33 900.407,-256.819"/>
</g>
<!-- q0 -->
<g id="node57" class="node"><title>q0</title>
<a xlink:href="0016829" xlink:title="GO:0016829 (9)">
<ellipse fill="#e98576" stroke="#e98576" cx="1113" cy="-234" rx="75.2018" ry="18"/>
<text text-anchor="middle" x="1113" y="-229.8" font-family="Times,serif" font-size="14.00">GO:0016829 (9)</text>
</a>
</g>
<!-- f0&#45;&gt;q0 -->
<g id="edge56" class="edge"><title>f0&#45;&gt;q0</title>
<path fill="none" stroke="black" d="M827.167,-293.675C887.464,-281.298 983.991,-261.483 1047.94,-248.355"/>
<polygon fill="black" stroke="black" points="1048.82,-251.748 1057.91,-246.308 1047.41,-244.891 1048.82,-251.748"/>
</g>
<!-- a1 -->
<g id="node9" class="node"><title>a1</title>
<a xlink:href="0016879" xlink:title="GO:0016879">
<ellipse fill="#dddddd" stroke="#dddddd" cx="243" cy="-162" rx="61.1934" ry="18"/>
<text text-anchor="middle" x="243" y="-157.8" font-family="Times,serif" font-size="14.00">GO:0016879</text>
</a>
</g>
<!-- t0&#45;&gt;a1 -->
<g id="edge6" class="edge"><title>t0&#45;&gt;a1</title>
<path fill="none" stroke="black" d="M243,-215.697C243,-207.983 243,-198.712 243,-190.112"/>
<polygon fill="black" stroke="black" points="246.5,-190.104 243,-180.104 239.5,-190.104 246.5,-190.104"/>
</g>
<!-- z0 -->
<g id="node10" class="node"><title>z0</title>
<a xlink:href="0016881" xlink:title="GO:0016881">
<ellipse fill="#dddddd" stroke="#dddddd" cx="243" cy="-90" rx="61.1934" ry="18"/>
<text text-anchor="middle" x="243" y="-85.8" font-family="Times,serif" font-size="14.00">GO:0016881</text>
</a>
</g>
<!-- a1&#45;&gt;z0 -->
<g id="edge36" class="edge"><title>a1&#45;&gt;z0</title>
<path fill="none" stroke="black" d="M243,-143.697C243,-135.983 243,-126.712 243,-118.112"/>
<polygon fill="black" stroke="black" points="246.5,-118.104 243,-108.104 239.5,-118.104 246.5,-118.104"/>
</g>
<!-- y0 -->
<g id="node12" class="node"><title>y0</title>
<a xlink:href="0019787" xlink:title="GO:0019787 (1)">
<ellipse fill="#e98576" stroke="#e98576" cx="243" cy="-18" rx="75.2018" ry="18"/>
<text text-anchor="middle" x="243" y="-13.8" font-family="Times,serif" font-size="14.00">GO:0019787 (1)</text>
</a>
</g>
<!-- z0&#45;&gt;y0 -->
<g id="edge8" class="edge"><title>z0&#45;&gt;y0</title>
<path fill="none" stroke="black" d="M243,-71.6966C243,-63.9827 243,-54.7125 243,-46.1124"/>
<polygon fill="black" stroke="black" points="246.5,-46.1043 243,-36.1043 239.5,-46.1044 246.5,-46.1043"/>
</g>
<!-- m0 -->
<g id="node16" class="node"><title>m0</title>
<a xlink:href="0001882" xlink:title="GO:0001882 (16)">
<ellipse fill="#e98576" stroke="#e98576" cx="1286" cy="-234" rx="79.4447" ry="18"/>
<text text-anchor="middle" x="1286" y="-229.8" font-family="Times,serif" font-size="14.00">GO:0001882 (16)</text>
</a>
</g>
<!-- b0&#45;&gt;m0 -->
<g id="edge12" class="edge"><title>b0&#45;&gt;m0</title>
<path fill="none" stroke="black" d="M1812.77,-300.342C1719.89,-292.561 1532.61,-275.433 1375,-252 1367.83,-250.934 1360.36,-249.702 1352.93,-248.397"/>
<polygon fill="black" stroke="black" points="1353.32,-244.91 1342.86,-246.582 1352.08,-251.799 1353.32,-244.91"/>
</g>
<!-- l0 -->
<g id="node18" class="node"><title>l0</title>
<a xlink:href="0005515" xlink:title="GO:0005515 (17)">
<ellipse fill="#e98576" stroke="#e98576" cx="1464" cy="-234" rx="79.4447" ry="18"/>
<text text-anchor="middle" x="1464" y="-229.8" font-family="Times,serif" font-size="14.00">GO:0005515 (17)</text>
</a>
</g>
<!-- b0&#45;&gt;l0 -->
<g id="edge14" class="edge"><title>b0&#45;&gt;l0</title>
<path fill="none" stroke="black" d="M1818.6,-296.656C1755.52,-286.519 1646.39,-268.699 1553,-252 1546.34,-250.809 1539.41,-249.539 1532.48,-248.249"/>
<polygon fill="black" stroke="black" points="1532.84,-244.756 1522.37,-246.353 1531.55,-251.636 1532.84,-244.756"/>
</g>
<!-- s0 -->
<g id="node20" class="node"><title>s0</title>
<a xlink:href="0019842" xlink:title="GO:0019842 (6)">
<ellipse fill="#e98576" stroke="#e98576" cx="1637" cy="-234" rx="75.2018" ry="18"/>
<text text-anchor="middle" x="1637" y="-229.8" font-family="Times,serif" font-size="14.00">GO:0019842 (6)</text>
</a>
</g>
<!-- b0&#45;&gt;s0 -->
<g id="edge16" class="edge"><title>b0&#45;&gt;s0</title>
<path fill="none" stroke="black" d="M1829.7,-292.647C1791.44,-281.201 1734.25,-264.092 1692.11,-251.485"/>
<polygon fill="black" stroke="black" points="1692.86,-248.057 1682.28,-248.544 1690.85,-254.764 1692.86,-248.057"/>
</g>
<!-- e1 -->
<g id="node21" class="node"><title>e1</title>
<a xlink:href="0043176" xlink:title="GO:0043176">
<ellipse fill="#dddddd" stroke="#dddddd" cx="1792" cy="-234" rx="61.1934" ry="18"/>
<text text-anchor="middle" x="1792" y="-229.8" font-family="Times,serif" font-size="14.00">GO:0043176</text>
</a>
</g>
<!-- b0&#45;&gt;e1 -->
<g id="edge32" class="edge"><title>b0&#45;&gt;e1</title>
<path fill="none" stroke="black" d="M1852.68,-288.765C1842.38,-279.642 1829.36,-268.105 1818.02,-258.059"/>
<polygon fill="black" stroke="black" points="1820.3,-255.402 1810.5,-251.39 1815.66,-260.641 1820.3,-255.402"/>
</g>
<!-- a0 -->
<g id="node36" class="node"><title>a0</title>
<a xlink:href="0043167" xlink:title="GO:0043167 (99)">
<ellipse fill="#e98576" stroke="#e98576" cx="1951" cy="-234" rx="79.4447" ry="18"/>
<text text-anchor="middle" x="1951" y="-229.8" font-family="Times,serif" font-size="14.00">GO:0043167 (99)</text>
</a>
</g>
<!-- b0&#45;&gt;a0 -->
<g id="edge30" class="edge"><title>b0&#45;&gt;a0</title>
<path fill="none" stroke="black" d="M1889.55,-288.765C1899.91,-279.708 1912.98,-268.27 1924.4,-258.276"/>
<polygon fill="black" stroke="black" points="1926.77,-260.853 1931.99,-251.633 1922.16,-255.584 1926.77,-260.853"/>
</g>
<!-- i0 -->
<g id="node46" class="node"><title>i0</title>
<a xlink:href="0003676" xlink:title="GO:0003676 (29)">
<ellipse fill="#e98576" stroke="#e98576" cx="2129" cy="-234" rx="79.4447" ry="18"/>
<text text-anchor="middle" x="2129" y="-229.8" font-family="Times,serif" font-size="14.00">GO:0003676 (29)</text>
</a>
</g>
<!-- b0&#45;&gt;i0 -->
<g id="edge44" class="edge"><title>b0&#45;&gt;i0</title>
<path fill="none" stroke="black" d="M1914.47,-293.205C1957.24,-281.601 2022.84,-263.803 2070.24,-250.943"/>
<polygon fill="black" stroke="black" points="2071.33,-254.274 2080.06,-248.278 2069.49,-247.519 2071.33,-254.274"/>
</g>
<!-- o0 -->
<g id="node49" class="node"><title>o0</title>
<a xlink:href="0046906" xlink:title="GO:0046906 (13)">
<ellipse fill="#e98576" stroke="#e98576" cx="2307" cy="-234" rx="79.4447" ry="18"/>
<text text-anchor="middle" x="2307" y="-229.8" font-family="Times,serif" font-size="14.00">GO:0046906 (13)</text>
</a>
</g>
<!-- b0&#45;&gt;o0 -->
<g id="edge48" class="edge"><title>b0&#45;&gt;o0</title>
<path fill="none" stroke="black" d="M1915.54,-293.581C1924.28,-291.555 1933.4,-289.588 1942,-288 2063.22,-265.618 2095.28,-271.447 2217,-252 2224.12,-250.862 2231.55,-249.593 2238.95,-248.275"/>
<polygon fill="black" stroke="black" points="2239.77,-251.683 2248.99,-246.457 2238.52,-244.796 2239.77,-251.683"/>
</g>
<!-- d0 -->
<g id="node51" class="node"><title>d0</title>
<a xlink:href="0000166" xlink:title="GO:0000166 (85)">
<ellipse fill="#e98576" stroke="#e98576" cx="2485" cy="-234" rx="79.4447" ry="18"/>
<text text-anchor="middle" x="2485" y="-229.8" font-family="Times,serif" font-size="14.00">GO:0000166 (85)</text>
</a>
</g>
<!-- b0&#45;&gt;d0 -->
<g id="edge50" class="edge"><title>b0&#45;&gt;d0</title>
<path fill="none" stroke="black" d="M1915.1,-293.317C1923.96,-291.289 1933.24,-289.389 1942,-288 2141.48,-256.39 2194.82,-278.782 2395,-252 2402.45,-251.003 2410.22,-249.794 2417.94,-248.486"/>
<polygon fill="black" stroke="black" points="2418.77,-251.893 2428.02,-246.719 2417.56,-244.999 2418.77,-251.893"/>
</g>
<!-- w0 -->
<g id="node59" class="node"><title>w0</title>
<a xlink:href="0051540" xlink:title="GO:0051540 (2)">
<ellipse fill="#e98576" stroke="#e98576" cx="2658" cy="-234" rx="75.2018" ry="18"/>
<text text-anchor="middle" x="2658" y="-229.8" font-family="Times,serif" font-size="14.00">GO:0051540 (2)</text>
</a>
</g>
<!-- b0&#45;&gt;w0 -->
<g id="edge58" class="edge"><title>b0&#45;&gt;w0</title>
<path fill="none" stroke="black" d="M1914.7,-293.249C1923.67,-291.2 1933.1,-289.309 1942,-288 2219.91,-247.134 2294.37,-287.632 2573,-252 2580.08,-251.094 2587.46,-249.941 2594.77,-248.662"/>
<polygon fill="black" stroke="black" points="2595.48,-252.092 2604.68,-246.852 2594.22,-245.206 2595.48,-252.092"/>
</g>
<!-- k0 -->
<g id="node61" class="node"><title>k0</title>
<a xlink:href="0048037" xlink:title="GO:0048037 (20)">
<ellipse fill="#e98576" stroke="#e98576" cx="2831" cy="-234" rx="79.4447" ry="18"/>
<text text-anchor="middle" x="2831" y="-229.8" font-family="Times,serif" font-size="14.00">GO:0048037 (20)</text>
</a>
</g>
<!-- b0&#45;&gt;k0 -->
<g id="edge60" class="edge"><title>b0&#45;&gt;k0</title>
<path fill="none" stroke="black" d="M1914.31,-293.251C1923.39,-291.175 1932.96,-289.273 1942,-288 2294.43,-238.338 2388.51,-293.495 2742,-252 2749.58,-251.11 2757.48,-249.947 2765.32,-248.646"/>
<polygon fill="black" stroke="black" points="2765.91,-252.095 2775.17,-246.935 2764.72,-245.198 2765.91,-252.095"/>
</g>
<!-- d1 -->
<g id="node23" class="node"><title>d1</title>
<a xlink:href="0016597" xlink:title="GO:0016597 (1)">
<ellipse fill="#e98576" stroke="#e98576" cx="1792" cy="-162" rx="75.2018" ry="18"/>
<text text-anchor="middle" x="1792" y="-157.8" font-family="Times,serif" font-size="14.00">GO:0016597 (1)</text>
</a>
</g>
<!-- e1&#45;&gt;d1 -->
<g id="edge18" class="edge"><title>e1&#45;&gt;d1</title>
<path fill="none" stroke="black" d="M1792,-215.697C1792,-207.983 1792,-198.712 1792,-190.112"/>
<polygon fill="black" stroke="black" points="1795.5,-190.104 1792,-180.104 1788.5,-190.104 1795.5,-190.104"/>
</g>
<!-- v0 -->
<g id="node27" class="node"><title>v0</title>
<a xlink:href="0008233" xlink:title="GO:0008233 (3)">
<ellipse fill="#e98576" stroke="#e98576" cx="416" cy="-162" rx="75.2018" ry="18"/>
<text text-anchor="middle" x="416" y="-157.8" font-family="Times,serif" font-size="14.00">GO:0008233 (3)</text>
</a>
</g>
<!-- e0&#45;&gt;v0 -->
<g id="edge22" class="edge"><title>e0&#45;&gt;v0</title>
<path fill="none" stroke="black" d="M416,-215.697C416,-207.983 416,-198.712 416,-190.112"/>
<polygon fill="black" stroke="black" points="419.5,-190.104 416,-180.104 412.5,-190.104 419.5,-190.104"/>
</g>
<!-- b1 -->
<g id="node32" class="node"><title>b1</title>
<a xlink:href="0004497" xlink:title="GO:0004497 (1)">
<ellipse fill="#e98576" stroke="#e98576" cx="589" cy="-162" rx="75.2018" ry="18"/>
<text text-anchor="middle" x="589" y="-157.8" font-family="Times,serif" font-size="14.00">GO:0004497 (1)</text>
</a>
</g>
<!-- h0&#45;&gt;b1 -->
<g id="edge26" class="edge"><title>h0&#45;&gt;b1</title>
<path fill="none" stroke="black" d="M592.764,-215.697C592.213,-207.983 591.551,-198.712 590.937,-190.112"/>
<polygon fill="black" stroke="black" points="594.425,-189.83 590.222,-180.104 587.443,-190.328 594.425,-189.83"/>
</g>
<!-- r0 -->
<g id="node41" class="node"><title>r0</title>
<a xlink:href="0009055" xlink:title="GO:0009055 (7)">
<ellipse fill="#e98576" stroke="#e98576" cx="757" cy="-162" rx="75.2018" ry="18"/>
<text text-anchor="middle" x="757" y="-157.8" font-family="Times,serif" font-size="14.00">GO:0009055 (7)</text>
</a>
</g>
<!-- h0&#45;&gt;r0 -->
<g id="edge38" class="edge"><title>h0&#45;&gt;r0</title>
<path fill="none" stroke="black" d="M629.369,-217.811C653.802,-207.318 686.484,-193.283 712.659,-182.042"/>
<polygon fill="black" stroke="black" points="714.173,-185.201 721.981,-178.039 711.411,-178.769 714.173,-185.201"/>
</g>
</g>
</svg>
