<?xml version="1.0" encoding="UTF-8" standalone="no"?>
<!DOCTYPE svg PUBLIC "-//W3C//DTD SVG 1.1//EN"
 "http://www.w3.org/Graphics/SVG/1.1/DTD/svg11.dtd">
<!-- Generated by graphviz version 2.28.0 (20110622.2320)
 -->
<!-- Title: G Pages: 1 -->
<svg width="2146pt" height="764pt"
 viewBox="0.00 0.00 2146.00 764.00" xmlns="http://www.w3.org/2000/svg" xmlns:xlink="http://www.w3.org/1999/xlink">
<g id="graph1" class="graph" transform="scale(1 1) rotate(0) translate(4 760)">
<title>G</title>
<polygon fill="white" stroke="white" points="-4,5 -4,-760 2143,-760 2143,5 -4,5"/>
<!-- o0 -->
<g id="node1" class="node"><title>o0</title>
<a xlink:href="0005856" xlink:title="GO:0005856 (14)">
<ellipse fill="#e98576" stroke="#e98576" cx="178" cy="-234" rx="79.4447" ry="18"/>
<text text-anchor="middle" x="178" y="-229.8" font-family="Times,serif" font-size="14.00">GO:0005856 (14)</text>
</a>
</g>
<!-- i1 -->
<g id="node3" class="node"><title>i1</title>
<a xlink:href="0015630" xlink:title="GO:0015630">
<ellipse fill="#dddddd" stroke="#dddddd" cx="529" cy="-162" rx="61.1934" ry="18"/>
<text text-anchor="middle" x="529" y="-157.8" font-family="Times,serif" font-size="14.00">GO:0015630</text>
</a>
</g>
<!-- o0&#45;&gt;i1 -->
<g id="edge2" class="edge"><title>o0&#45;&gt;i1</title>
<path fill="none" stroke="black" d="M235.567,-221.519C300.181,-208.633 404.49,-187.831 469.774,-174.811"/>
<polygon fill="black" stroke="black" points="470.783,-178.179 479.905,-172.791 469.413,-171.315 470.783,-178.179"/>
</g>
<!-- u1 -->
<g id="node12" class="node"><title>u1</title>
<a xlink:href="0015629" xlink:title="GO:0015629">
<ellipse fill="#dddddd" stroke="#dddddd" cx="846" cy="-162" rx="61.1934" ry="18"/>
<text text-anchor="middle" x="846" y="-157.8" font-family="Times,serif" font-size="14.00">GO:0015629</text>
</a>
</g>
<!-- o0&#45;&gt;u1 -->
<g id="edge26" class="edge"><title>o0&#45;&gt;u1</title>
<path fill="none" stroke="black" d="M234.837,-221.289C245.494,-219.336 256.564,-217.471 267,-216 450.008,-190.208 667.411,-174.199 776.396,-167.172"/>
<polygon fill="black" stroke="black" points="776.844,-170.65 786.6,-166.52 776.397,-163.665 776.844,-170.65"/>
</g>
<!-- j1 -->
<g id="node17" class="node"><title>j1</title>
<a xlink:href="0044430" xlink:title="GO:0044430">
<ellipse fill="#dddddd" stroke="#dddddd" cx="1200" cy="-162" rx="61.1934" ry="18"/>
<text text-anchor="middle" x="1200" y="-157.8" font-family="Times,serif" font-size="14.00">GO:0044430</text>
</a>
</g>
<!-- o0&#45;&gt;j1 -->
<g id="edge80" class="edge"><title>o0&#45;&gt;j1</title>
<path fill="none" stroke="black" d="M233.843,-221.155C244.795,-219.166 256.227,-217.322 267,-216 553.738,-180.821 627.591,-196.631 916,-180 989.267,-175.775 1073.15,-170.728 1130.65,-167.236"/>
<polygon fill="black" stroke="black" points="1130.95,-170.725 1140.71,-166.624 1130.52,-163.738 1130.95,-170.725"/>
</g>
<!-- h1 -->
<g id="node86" class="node"><title>h1</title>
<a xlink:href="0005815" xlink:title="GO:0005815">
<ellipse fill="#dddddd" stroke="#dddddd" cx="649" cy="-90" rx="61.1934" ry="18"/>
<text text-anchor="middle" x="649" y="-85.8" font-family="Times,serif" font-size="14.00">GO:0005815</text>
</a>
</g>
<!-- i1&#45;&gt;h1 -->
<g id="edge88" class="edge"><title>i1&#45;&gt;h1</title>
<path fill="none" stroke="black" d="M555.335,-145.638C572.529,-135.608 595.176,-122.397 613.895,-111.478"/>
<polygon fill="black" stroke="black" points="615.853,-114.388 622.727,-106.326 612.326,-108.341 615.853,-114.388"/>
</g>
<!-- n0 -->
<g id="node4" class="node"><title>n0</title>
<a xlink:href="0016020" xlink:title="GO:0016020 (17)">
<ellipse fill="#e98576" stroke="#e98576" cx="1918" cy="-522" rx="79.4447" ry="18"/>
<text text-anchor="middle" x="1918" y="-517.8" font-family="Times,serif" font-size="14.00">GO:0016020 (17)</text>
</a>
</g>
<!-- r1 -->
<g id="node6" class="node"><title>r1</title>
<a xlink:href="0044425" xlink:title="GO:0044425">
<ellipse fill="#dddddd" stroke="#dddddd" cx="1582" cy="-450" rx="61.1934" ry="18"/>
<text text-anchor="middle" x="1582" y="-445.8" font-family="Times,serif" font-size="14.00">GO:0044425</text>
</a>
</g>
<!-- n0&#45;&gt;r1 -->
<g id="edge4" class="edge"><title>n0&#45;&gt;r1</title>
<path fill="none" stroke="black" d="M1861.06,-509.404C1808.96,-498.759 1729.76,-482.488 1661,-468 1654.27,-466.581 1647.21,-465.082 1640.21,-463.586"/>
<polygon fill="black" stroke="black" points="1640.54,-460.077 1630.03,-461.404 1639.07,-466.922 1640.54,-460.077"/>
</g>
<!-- q1 -->
<g id="node57" class="node"><title>q1</title>
<a xlink:href="0016469" xlink:title="GO:0016469 (1)">
<ellipse fill="#e98576" stroke="#e98576" cx="1582" cy="-378" rx="75.2018" ry="18"/>
<text text-anchor="middle" x="1582" y="-373.8" font-family="Times,serif" font-size="14.00">GO:0016469 (1)</text>
</a>
</g>
<!-- r1&#45;&gt;q1 -->
<g id="edge60" class="edge"><title>r1&#45;&gt;q1</title>
<path fill="none" stroke="black" d="M1582,-431.697C1582,-423.983 1582,-414.712 1582,-406.112"/>
<polygon fill="black" stroke="black" points="1585.5,-406.104 1582,-396.104 1578.5,-406.104 1585.5,-406.104"/>
</g>
<!-- d0 -->
<g id="node7" class="node"><title>d0</title>
<a xlink:href="0044464" xlink:title="GO:0044464 (9)">
<ellipse fill="#e98576" stroke="#e98576" cx="1119" cy="-594" rx="75.2018" ry="18"/>
<text text-anchor="middle" x="1119" y="-589.8" font-family="Times,serif" font-size="14.00">GO:0044464 (9)</text>
</a>
</g>
<!-- d0&#45;&gt;n0 -->
<g id="edge56" class="edge"><title>d0&#45;&gt;n0</title>
<path fill="none" stroke="black" d="M1173.42,-581.437C1184.8,-579.347 1196.76,-577.393 1208,-576 1482.36,-541.992 1554.64,-574.008 1829,-540 1836.57,-539.061 1844.47,-537.868 1852.3,-536.55"/>
<polygon fill="black" stroke="black" points="1852.91,-539.997 1862.15,-534.823 1851.7,-533.102 1852.91,-539.997"/>
</g>
<!-- d0&#45;&gt;r1 -->
<g id="edge6" class="edge"><title>d0&#45;&gt;r1</title>
<path fill="none" stroke="black" d="M1175.35,-581.967C1209.29,-573.725 1252.47,-560.323 1287,-540 1307.05,-528.199 1304.33,-514.678 1325,-504 1398.26,-466.156 1426.34,-485.115 1507,-468 1512.86,-466.757 1518.96,-465.428 1525.05,-464.081"/>
<polygon fill="black" stroke="black" points="1526.24,-467.403 1535.23,-461.81 1524.71,-460.571 1526.24,-467.403"/>
</g>
<!-- e1 -->
<g id="node9" class="node"><title>e1</title>
<a xlink:href="0042995" xlink:title="GO:0042995 (1)">
<ellipse fill="#e98576" stroke="#e98576" cx="1203" cy="-522" rx="75.2018" ry="18"/>
<text text-anchor="middle" x="1203" y="-517.8" font-family="Times,serif" font-size="14.00">GO:0042995 (1)</text>
</a>
</g>
<!-- d0&#45;&gt;e1 -->
<g id="edge84" class="edge"><title>d0&#45;&gt;e1</title>
<path fill="none" stroke="black" d="M1138.91,-576.411C1149.79,-567.345 1163.43,-555.974 1175.33,-546.057"/>
<polygon fill="black" stroke="black" points="1177.79,-548.561 1183.24,-539.47 1173.31,-543.183 1177.79,-548.561"/>
</g>
<!-- b0 -->
<g id="node24" class="node"><title>b0</title>
<a xlink:href="0044424" xlink:title="GO:0044424">
<ellipse fill="#dddddd" stroke="#dddddd" cx="932" cy="-450" rx="61.1934" ry="18"/>
<text text-anchor="middle" x="932" y="-445.8" font-family="Times,serif" font-size="14.00">GO:0044424</text>
</a>
</g>
<!-- d0&#45;&gt;b0 -->
<g id="edge42" class="edge"><title>d0&#45;&gt;b0</title>
<path fill="none" stroke="black" d="M1049.31,-587.253C1015.11,-580.832 975.995,-567.497 951,-540 935.846,-523.329 931.679,-497.617 930.961,-478.108"/>
<polygon fill="black" stroke="black" points="934.46,-477.972 930.869,-468.005 927.46,-478.036 934.46,-477.972"/>
</g>
<!-- c0 -->
<g id="node43" class="node"><title>c0</title>
<a xlink:href="0005622" xlink:title="GO:0005622">
<ellipse fill="#dddddd" stroke="#dddddd" cx="843" cy="-522" rx="61.1934" ry="18"/>
<text text-anchor="middle" x="843" y="-517.8" font-family="Times,serif" font-size="14.00">GO:0005622</text>
</a>
</g>
<!-- d0&#45;&gt;c0 -->
<g id="edge118" class="edge"><title>d0&#45;&gt;c0</title>
<path fill="none" stroke="black" d="M1069.34,-580.405C1020.99,-568.142 947.678,-549.549 897.684,-536.869"/>
<polygon fill="black" stroke="black" points="898.253,-533.403 887.7,-534.337 896.532,-540.188 898.253,-533.403"/>
</g>
<!-- f1 -->
<g id="node63" class="node"><title>f1</title>
<a xlink:href="0031252" xlink:title="GO:0031252 (2)">
<ellipse fill="#e98576" stroke="#e98576" cx="1409" cy="-522" rx="75.2018" ry="18"/>
<text text-anchor="middle" x="1409" y="-517.8" font-family="Times,serif" font-size="14.00">GO:0031252 (2)</text>
</a>
</g>
<!-- d0&#45;&gt;f1 -->
<g id="edge64" class="edge"><title>d0&#45;&gt;f1</title>
<path fill="none" stroke="black" d="M1169.85,-580.727C1219.6,-568.718 1295.4,-550.421 1348.29,-537.655"/>
<polygon fill="black" stroke="black" points="1349.31,-541.008 1358.21,-535.259 1347.67,-534.203 1349.31,-541.008"/>
</g>
<!-- y1 -->
<g id="node68" class="node"><title>y1</title>
<a xlink:href="0043025" xlink:title="GO:0043025 (1)">
<ellipse fill="#e98576" stroke="#e98576" cx="1577" cy="-522" rx="75.2018" ry="18"/>
<text text-anchor="middle" x="1577" y="-517.8" font-family="Times,serif" font-size="14.00">GO:0043025 (1)</text>
</a>
</g>
<!-- d0&#45;&gt;y1 -->
<g id="edge68" class="edge"><title>d0&#45;&gt;y1</title>
<path fill="none" stroke="black" d="M1174.45,-581.848C1185.54,-579.776 1197.12,-577.724 1208,-576 1334.1,-556.013 1367.01,-560.677 1493,-540 1499.51,-538.931 1506.29,-537.723 1513.04,-536.455"/>
<polygon fill="black" stroke="black" points="1513.72,-539.888 1522.88,-534.565 1512.4,-533.013 1513.72,-539.888"/>
</g>
<!-- z0 -->
<g id="node74" class="node"><title>z0</title>
<a xlink:href="0009986" xlink:title="GO:0009986 (3)">
<ellipse fill="#e98576" stroke="#e98576" cx="1745" cy="-522" rx="75.2018" ry="18"/>
<text text-anchor="middle" x="1745" y="-517.8" font-family="Times,serif" font-size="14.00">GO:0009986 (3)</text>
</a>
</g>
<!-- d0&#45;&gt;z0 -->
<g id="edge74" class="edge"><title>d0&#45;&gt;z0</title>
<path fill="none" stroke="black" d="M1173.92,-581.536C1185.16,-579.465 1196.93,-577.492 1208,-576 1408.16,-549.013 1460.99,-568.082 1661,-540 1667.73,-539.055 1674.74,-537.906 1681.7,-536.655"/>
<polygon fill="black" stroke="black" points="1682.65,-540.038 1691.84,-534.763 1681.37,-533.157 1682.65,-540.038"/>
</g>
<!-- p1 -->
<g id="node84" class="node"><title>p1</title>
<a xlink:href="0030427" xlink:title="GO:0030427 (1)">
<ellipse fill="#e98576" stroke="#e98576" cx="1035" cy="-522" rx="75.2018" ry="18"/>
<text text-anchor="middle" x="1035" y="-517.8" font-family="Times,serif" font-size="14.00">GO:0030427 (1)</text>
</a>
</g>
<!-- d0&#45;&gt;p1 -->
<g id="edge86" class="edge"><title>d0&#45;&gt;p1</title>
<path fill="none" stroke="black" d="M1099.09,-576.411C1088.21,-567.345 1074.57,-555.974 1062.67,-546.057"/>
<polygon fill="black" stroke="black" points="1064.69,-543.183 1054.76,-539.47 1060.21,-548.561 1064.69,-543.183"/>
</g>
<!-- w1 -->
<g id="node11" class="node"><title>w1</title>
<a xlink:href="0043005" xlink:title="GO:0043005 (1)">
<ellipse fill="#e98576" stroke="#e98576" cx="1255" cy="-450" rx="75.2018" ry="18"/>
<text text-anchor="middle" x="1255" y="-445.8" font-family="Times,serif" font-size="14.00">GO:0043005 (1)</text>
</a>
</g>
<!-- e1&#45;&gt;w1 -->
<g id="edge8" class="edge"><title>e1&#45;&gt;w1</title>
<path fill="none" stroke="black" d="M1215.59,-504.055C1221.85,-495.629 1229.54,-485.28 1236.45,-475.966"/>
<polygon fill="black" stroke="black" points="1239.37,-477.904 1242.53,-467.789 1233.76,-473.729 1239.37,-477.904"/>
</g>
<!-- v1 -->
<g id="node52" class="node"><title>v1</title>
<a xlink:href="0005903" xlink:title="GO:0005903 (1)">
<ellipse fill="#e98576" stroke="#e98576" cx="1423" cy="-450" rx="75.2018" ry="18"/>
<text text-anchor="middle" x="1423" y="-445.8" font-family="Times,serif" font-size="14.00">GO:0005903 (1)</text>
</a>
</g>
<!-- e1&#45;&gt;v1 -->
<g id="edge50" class="edge"><title>e1&#45;&gt;v1</title>
<path fill="none" stroke="black" d="M1246.2,-507.254C1281.58,-495.996 1331.8,-480.018 1369.68,-467.965"/>
<polygon fill="black" stroke="black" points="1371.05,-471.202 1379.52,-464.834 1368.93,-464.531 1371.05,-471.202"/>
</g>
<!-- d1 -->
<g id="node76" class="node"><title>d1</title>
<a xlink:href="0005929" xlink:title="GO:0005929 (2)">
<ellipse fill="#e98576" stroke="#e98576" cx="1087" cy="-450" rx="75.2018" ry="18"/>
<text text-anchor="middle" x="1087" y="-445.8" font-family="Times,serif" font-size="14.00">GO:0005929 (2)</text>
</a>
</g>
<!-- e1&#45;&gt;d1 -->
<g id="edge76" class="edge"><title>e1&#45;&gt;d1</title>
<path fill="none" stroke="black" d="M1176.68,-505.116C1160.63,-495.429 1139.9,-482.924 1122.42,-472.376"/>
<polygon fill="black" stroke="black" points="1123.99,-469.234 1113.62,-467.064 1120.37,-475.227 1123.99,-469.234"/>
</g>
<!-- t1 -->
<g id="node14" class="node"><title>t1</title>
<a xlink:href="0008290" xlink:title="GO:0008290 (1)">
<ellipse fill="#e98576" stroke="#e98576" cx="1200" cy="-90" rx="75.2018" ry="18"/>
<text text-anchor="middle" x="1200" y="-85.8" font-family="Times,serif" font-size="14.00">GO:0008290 (1)</text>
</a>
</g>
<!-- u1&#45;&gt;t1 -->
<g id="edge10" class="edge"><title>u1&#45;&gt;t1</title>
<path fill="none" stroke="black" d="M895.222,-151.267C957.421,-138.968 1064.7,-117.755 1133.97,-104.057"/>
<polygon fill="black" stroke="black" points="1134.77,-107.466 1143.9,-102.093 1133.41,-100.599 1134.77,-107.466"/>
</g>
<!-- l0 -->
<g id="node15" class="node"><title>l0</title>
<a xlink:href="0043234" xlink:title="GO:0043234 (19)">
<ellipse fill="#e98576" stroke="#e98576" cx="1785" cy="-450" rx="79.4447" ry="18"/>
<text text-anchor="middle" x="1785" y="-445.8" font-family="Times,serif" font-size="14.00">GO:0043234 (19)</text>
</a>
</g>
<!-- l0&#45;&gt;t1 -->
<g id="edge12" class="edge"><title>l0&#45;&gt;t1</title>
<path fill="none" stroke="black" d="M1749.54,-433.66C1733.3,-424.895 1715.21,-412.357 1704,-396 1681.13,-362.637 1685,-347.447 1685,-307 1685,-307 1685,-307 1685,-233 1685,-149.599 1417.51,-111.757 1279.83,-97.8025"/>
<polygon fill="black" stroke="black" points="1280.04,-94.3064 1269.75,-96.7995 1279.35,-101.272 1280.04,-94.3064"/>
</g>
<!-- x1 -->
<g id="node47" class="node"><title>x1</title>
<a xlink:href="0000151" xlink:title="GO:0000151 (1)">
<ellipse fill="#e98576" stroke="#e98576" cx="1414" cy="-378" rx="75.2018" ry="18"/>
<text text-anchor="middle" x="1414" y="-373.8" font-family="Times,serif" font-size="14.00">GO:0000151 (1)</text>
</a>
</g>
<!-- l0&#45;&gt;x1 -->
<g id="edge44" class="edge"><title>l0&#45;&gt;x1</title>
<path fill="none" stroke="black" d="M1724.75,-438.183C1666.64,-427.676 1576.23,-411.137 1498,-396 1491.86,-394.813 1485.48,-393.557 1479.1,-392.288"/>
<polygon fill="black" stroke="black" points="1479.59,-388.818 1469.1,-390.291 1478.22,-395.682 1479.59,-388.818"/>
</g>
<!-- l0&#45;&gt;q1 -->
<g id="edge58" class="edge"><title>l0&#45;&gt;q1</title>
<path fill="none" stroke="black" d="M1742.94,-434.496C1710.91,-423.452 1666.69,-408.205 1632.71,-396.486"/>
<polygon fill="black" stroke="black" points="1633.56,-393.078 1622.97,-393.127 1631.28,-399.695 1633.56,-393.078"/>
</g>
<!-- s1 -->
<g id="node78" class="node"><title>s1</title>
<a xlink:href="0043235" xlink:title="GO:0043235 (1)">
<ellipse fill="#e98576" stroke="#e98576" cx="1788" cy="-378" rx="75.2018" ry="18"/>
<text text-anchor="middle" x="1788" y="-373.8" font-family="Times,serif" font-size="14.00">GO:0043235 (1)</text>
</a>
</g>
<!-- l0&#45;&gt;s1 -->
<g id="edge78" class="edge"><title>l0&#45;&gt;s1</title>
<path fill="none" stroke="black" d="M1785.74,-431.697C1786.07,-423.983 1786.47,-414.712 1786.84,-406.112"/>
<polygon fill="black" stroke="black" points="1790.34,-406.245 1787.27,-396.104 1783.34,-405.945 1790.34,-406.245"/>
</g>
<!-- m1 -->
<g id="node101" class="node"><title>m1</title>
<a xlink:href="0000786" xlink:title="GO:0000786 (2)">
<ellipse fill="#e98576" stroke="#e98576" cx="1802" cy="-18" rx="75.2018" ry="18"/>
<text text-anchor="middle" x="1802" y="-13.8" font-family="Times,serif" font-size="14.00">GO:0000786 (2)</text>
</a>
</g>
<!-- l0&#45;&gt;m1 -->
<g id="edge112" class="edge"><title>l0&#45;&gt;m1</title>
<path fill="none" stroke="black" d="M1823.5,-434.02C1840.83,-425.399 1860.03,-412.878 1872,-396 1895.4,-363.01 1891,-347.447 1891,-307 1891,-307 1891,-307 1891,-161 1891,-120.553 1893.71,-106.128 1872,-72 1864.03,-59.4769 1852,-48.813 1840.15,-40.4055"/>
<polygon fill="black" stroke="black" points="1841.87,-37.3437 1831.61,-34.6881 1837.97,-43.1602 1841.87,-37.3437"/>
</g>
<!-- j1&#45;&gt;t1 -->
<g id="edge14" class="edge"><title>j1&#45;&gt;t1</title>
<path fill="none" stroke="black" d="M1200,-143.697C1200,-135.983 1200,-126.712 1200,-118.112"/>
<polygon fill="black" stroke="black" points="1203.5,-118.104 1200,-108.104 1196.5,-118.104 1203.5,-118.104"/>
</g>
<!-- g1 -->
<g id="node117" class="node"><title>g1</title>
<a xlink:href="0005813" xlink:title="GO:0005813 (2)">
<ellipse fill="#e98576" stroke="#e98576" cx="649" cy="-18" rx="75.2018" ry="18"/>
<text text-anchor="middle" x="649" y="-13.8" font-family="Times,serif" font-size="14.00">GO:0005813 (2)</text>
</a>
</g>
<!-- j1&#45;&gt;g1 -->
<g id="edge138" class="edge"><title>j1&#45;&gt;g1</title>
<path fill="none" stroke="black" d="M1155.38,-149.5C1056.52,-124.023 819.07,-62.8293 708.066,-34.222"/>
<polygon fill="black" stroke="black" points="708.925,-30.8291 698.368,-31.7227 707.178,-37.6077 708.925,-30.8291"/>
</g>
<!-- t0 -->
<g id="node19" class="node"><title>t0</title>
<a xlink:href="0043231" xlink:title="GO:0043231 (5)">
<ellipse fill="#e98576" stroke="#e98576" cx="697" cy="-306" rx="75.2018" ry="18"/>
<text text-anchor="middle" x="697" y="-301.8" font-family="Times,serif" font-size="14.00">GO:0043231 (5)</text>
</a>
</g>
<!-- c1 -->
<g id="node21" class="node"><title>c1</title>
<a xlink:href="0005773" xlink:title="GO:0005773 (2)">
<ellipse fill="#e98576" stroke="#e98576" cx="697" cy="-234" rx="75.2018" ry="18"/>
<text text-anchor="middle" x="697" y="-229.8" font-family="Times,serif" font-size="14.00">GO:0005773 (2)</text>
</a>
</g>
<!-- t0&#45;&gt;c1 -->
<g id="edge16" class="edge"><title>t0&#45;&gt;c1</title>
<path fill="none" stroke="black" d="M697,-287.697C697,-279.983 697,-270.712 697,-262.112"/>
<polygon fill="black" stroke="black" points="700.5,-262.104 697,-252.104 693.5,-262.104 700.5,-262.104"/>
</g>
<!-- y0 -->
<g id="node34" class="node"><title>y0</title>
<a xlink:href="0005783" xlink:title="GO:0005783 (3)">
<ellipse fill="#e98576" stroke="#e98576" cx="865" cy="-234" rx="75.2018" ry="18"/>
<text text-anchor="middle" x="865" y="-229.8" font-family="Times,serif" font-size="14.00">GO:0005783 (3)</text>
</a>
</g>
<!-- t0&#45;&gt;y0 -->
<g id="edge28" class="edge"><title>t0&#45;&gt;y0</title>
<path fill="none" stroke="black" d="M732.628,-290.155C758.046,-279.564 792.426,-265.239 819.778,-253.842"/>
<polygon fill="black" stroke="black" points="821.249,-257.021 829.134,-249.944 818.557,-250.56 821.249,-257.021"/>
</g>
<!-- w0 -->
<g id="node37" class="node"><title>w0</title>
<a xlink:href="0005739" xlink:title="GO:0005739 (8)">
<ellipse fill="#e98576" stroke="#e98576" cx="1033" cy="-234" rx="75.2018" ry="18"/>
<text text-anchor="middle" x="1033" y="-229.8" font-family="Times,serif" font-size="14.00">GO:0005739 (8)</text>
</a>
</g>
<!-- t0&#45;&gt;w0 -->
<g id="edge32" class="edge"><title>t0&#45;&gt;w0</title>
<path fill="none" stroke="black" d="M751.732,-293.597C811.04,-281.242 905.601,-261.541 968.482,-248.441"/>
<polygon fill="black" stroke="black" points="969.215,-251.864 978.291,-246.398 967.788,-245.011 969.215,-251.864"/>
</g>
<!-- s0 -->
<g id="node115" class="node"><title>s0</title>
<a xlink:href="0005634" xlink:title="GO:0005634 (12)">
<ellipse fill="#e98576" stroke="#e98576" cx="524" cy="-234" rx="79.4447" ry="18"/>
<text text-anchor="middle" x="524" y="-229.8" font-family="Times,serif" font-size="14.00">GO:0005634 (12)</text>
</a>
</g>
<!-- t0&#45;&gt;s0 -->
<g id="edge132" class="edge"><title>t0&#45;&gt;s0</title>
<path fill="none" stroke="black" d="M660.311,-290.155C634.138,-279.564 598.734,-265.239 570.568,-253.842"/>
<polygon fill="black" stroke="black" points="571.517,-250.451 560.934,-249.944 568.891,-256.94 571.517,-250.451"/>
</g>
<!-- x0 -->
<g id="node22" class="node"><title>x0</title>
<a xlink:href="0044444" xlink:title="GO:0044444">
<ellipse fill="#dddddd" stroke="#dddddd" cx="964" cy="-306" rx="61.1934" ry="18"/>
<text text-anchor="middle" x="964" y="-301.8" font-family="Times,serif" font-size="14.00">GO:0044444</text>
</a>
</g>
<!-- x0&#45;&gt;c1 -->
<g id="edge18" class="edge"><title>x0&#45;&gt;c1</title>
<path fill="none" stroke="black" d="M919.91,-293.441C875.014,-281.67 805.148,-263.353 755.614,-250.367"/>
<polygon fill="black" stroke="black" points="756.242,-246.913 745.681,-247.763 754.466,-253.684 756.242,-246.913"/>
</g>
<!-- x0&#45;&gt;y0 -->
<g id="edge30" class="edge"><title>x0&#45;&gt;y0</title>
<path fill="none" stroke="black" d="M941.535,-289.116C928.182,-279.674 911.043,-267.556 896.37,-257.181"/>
<polygon fill="black" stroke="black" points="898.249,-254.223 888.063,-251.307 894.207,-259.938 898.249,-254.223"/>
</g>
<!-- x0&#45;&gt;w0 -->
<g id="edge34" class="edge"><title>x0&#45;&gt;w0</title>
<path fill="none" stroke="black" d="M980.352,-288.411C988.905,-279.734 999.539,-268.946 1009.01,-259.342"/>
<polygon fill="black" stroke="black" points="1011.76,-261.535 1016.29,-251.956 1006.77,-256.621 1011.76,-261.535"/>
</g>
<!-- x0&#45;&gt;h1 -->
<g id="edge90" class="edge"><title>x0&#45;&gt;h1</title>
<path fill="none" stroke="black" d="M1022.92,-300.823C1056.38,-295.074 1095.72,-281.886 1117,-252 1126.28,-238.966 1126.21,-229.083 1117,-216 1070.78,-150.351 833.169,-113.094 715.371,-98.3972"/>
<polygon fill="black" stroke="black" points="715.736,-94.9158 705.384,-97.1694 714.882,-101.864 715.736,-94.9158"/>
</g>
<!-- b0&#45;&gt;x0 -->
<g id="edge54" class="edge"><title>b0&#45;&gt;x0</title>
<path fill="none" stroke="black" d="M933.823,-431.765C935.939,-413.708 939.935,-384.602 946,-360 948.15,-351.28 951.093,-341.948 953.977,-333.583"/>
<polygon fill="black" stroke="black" points="957.345,-334.56 957.409,-323.965 950.752,-332.208 957.345,-334.56"/>
</g>
<!-- a0 -->
<g id="node26" class="node"><title>a0</title>
<a xlink:href="0005737" xlink:title="GO:0005737 (33)">
<ellipse fill="#e98576" stroke="#e98576" cx="1035" cy="-378" rx="79.4447" ry="18"/>
<text text-anchor="middle" x="1035" y="-373.8" font-family="Times,serif" font-size="14.00">GO:0005737 (33)</text>
</a>
</g>
<!-- b0&#45;&gt;a0 -->
<g id="edge20" class="edge"><title>b0&#45;&gt;a0</title>
<path fill="none" stroke="black" d="M955.115,-433.291C968.998,-423.856 986.883,-411.701 1002.21,-401.285"/>
<polygon fill="black" stroke="black" points="1004.58,-403.903 1010.89,-395.387 1000.65,-398.113 1004.58,-403.903"/>
</g>
<!-- b0&#45;&gt;x1 -->
<g id="edge46" class="edge"><title>b0&#45;&gt;x1</title>
<path fill="none" stroke="black" d="M976.514,-437.44C985.255,-435.426 994.384,-433.5 1003,-432 1147.05,-406.928 1185.53,-418.524 1330,-396 1336.62,-394.968 1343.51,-393.774 1350.36,-392.505"/>
<polygon fill="black" stroke="black" points="1351.19,-395.912 1360.36,-390.605 1349.88,-389.035 1351.19,-395.912"/>
</g>
<!-- r0 -->
<g id="node71" class="node"><title>r0</title>
<a xlink:href="0043229" xlink:title="GO:0043229">
<ellipse fill="#dddddd" stroke="#dddddd" cx="697" cy="-378" rx="61.1934" ry="18"/>
<text text-anchor="middle" x="697" y="-373.8" font-family="Times,serif" font-size="14.00">GO:0043229</text>
</a>
</g>
<!-- b0&#45;&gt;r0 -->
<g id="edge100" class="edge"><title>b0&#45;&gt;r0</title>
<path fill="none" stroke="black" d="M890.528,-436.647C850.799,-424.812 790.747,-406.925 748.087,-394.217"/>
<polygon fill="black" stroke="black" points="749.035,-390.848 738.452,-391.347 747.037,-397.557 749.035,-390.848"/>
</g>
<!-- k1 -->
<g id="node80" class="node"><title>k1</title>
<a xlink:href="0044446" xlink:title="GO:0044446">
<ellipse fill="#dddddd" stroke="#dddddd" cx="1143" cy="-306" rx="61.1934" ry="18"/>
<text text-anchor="middle" x="1143" y="-301.8" font-family="Times,serif" font-size="14.00">GO:0044446</text>
</a>
</g>
<!-- b0&#45;&gt;k1 -->
<g id="edge144" class="edge"><title>b0&#45;&gt;k1</title>
<path fill="none" stroke="black" d="M977.121,-437.719C1031.95,-423.829 1117.86,-401.407 1123,-396 1138.57,-379.641 1143,-353.893 1143.87,-334.291"/>
<polygon fill="black" stroke="black" points="1147.37,-334.188 1144.03,-324.133 1140.37,-334.074 1147.37,-334.188"/>
</g>
<!-- a1 -->
<g id="node126" class="node"><title>a1</title>
<a xlink:href="0030529" xlink:title="GO:0030529 (2)">
<ellipse fill="#e98576" stroke="#e98576" cx="1246" cy="-378" rx="75.2018" ry="18"/>
<text text-anchor="middle" x="1246" y="-373.8" font-family="Times,serif" font-size="14.00">GO:0030529 (2)</text>
</a>
</g>
<!-- b0&#45;&gt;a1 -->
<g id="edge152" class="edge"><title>b0&#45;&gt;a1</title>
<path fill="none" stroke="black" d="M977.8,-437.89C986.176,-435.899 994.845,-433.865 1003,-432 1063.64,-418.128 1132.99,-403.083 1182.04,-392.579"/>
<polygon fill="black" stroke="black" points="1182.84,-395.989 1191.88,-390.475 1181.37,-389.144 1182.84,-395.989"/>
</g>
<!-- a0&#45;&gt;x0 -->
<g id="edge52" class="edge"><title>a0&#45;&gt;x0</title>
<path fill="none" stroke="black" d="M1017.81,-360.055C1008.92,-351.285 997.909,-340.432 988.172,-330.831"/>
<polygon fill="black" stroke="black" points="990.607,-328.317 981.029,-323.789 985.693,-333.302 990.607,-328.317"/>
</g>
<!-- e0 -->
<g id="node27" class="node"><title>e0</title>
<a xlink:href="0005575" xlink:title="GO:0005575 (10)">
<ellipse fill="#e98576" stroke="#e98576" cx="845" cy="-738" rx="79.4447" ry="18"/>
<text text-anchor="middle" x="845" y="-733.8" font-family="Times,serif" font-size="14.00">GO:0005575 (10)</text>
</a>
</g>
<!-- e0&#45;&gt;d0 -->
<g id="edge106" class="edge"><title>e0&#45;&gt;d0</title>
<path fill="none" stroke="black" d="M898.006,-724.571C930.355,-715.784 971.904,-702.3 1006,-684 1039.31,-666.12 1072.75,-638.258 1094.51,-618.476"/>
<polygon fill="black" stroke="black" points="1097,-620.94 1101.97,-611.587 1092.25,-615.796 1097,-620.94"/>
</g>
<!-- l1 -->
<g id="node29" class="node"><title>l1</title>
<a xlink:href="0044422" xlink:title="GO:0044422">
<ellipse fill="#dddddd" stroke="#dddddd" cx="838" cy="-378" rx="61.1934" ry="18"/>
<text text-anchor="middle" x="838" y="-373.8" font-family="Times,serif" font-size="14.00">GO:0044422</text>
</a>
</g>
<!-- e0&#45;&gt;l1 -->
<g id="edge22" class="edge"><title>e0&#45;&gt;l1</title>
<path fill="none" stroke="black" d="M825.254,-720.413C798.491,-695.954 754,-647.412 754,-595 754,-595 754,-595 754,-521 754,-474.074 788.401,-429.054 813.174,-402.719"/>
<polygon fill="black" stroke="black" points="815.74,-405.1 820.186,-395.482 810.713,-400.228 815.74,-405.1"/>
</g>
<!-- h0 -->
<g id="node30" class="node"><title>h0</title>
<a xlink:href="0043226" xlink:title="GO:0043226">
<ellipse fill="#dddddd" stroke="#dddddd" cx="500" cy="-450" rx="61.1934" ry="18"/>
<text text-anchor="middle" x="500" y="-445.8" font-family="Times,serif" font-size="14.00">GO:0043226</text>
</a>
</g>
<!-- e0&#45;&gt;h0 -->
<g id="edge94" class="edge"><title>e0&#45;&gt;h0</title>
<path fill="none" stroke="black" d="M766.352,-735.01C680.699,-731.05 551.527,-719.232 519,-684 466.658,-627.305 481.581,-526.311 492.728,-478.085"/>
<polygon fill="black" stroke="black" points="496.197,-478.635 495.162,-468.091 489.395,-476.979 496.197,-478.635"/>
</g>
<!-- f0 -->
<g id="node40" class="node"><title>f0</title>
<a xlink:href="0005623" xlink:title="GO:0005623">
<ellipse fill="#dddddd" stroke="#dddddd" cx="936" cy="-666" rx="61.1934" ry="18"/>
<text text-anchor="middle" x="936" y="-661.8" font-family="Times,serif" font-size="14.00">GO:0005623</text>
</a>
</g>
<!-- e0&#45;&gt;f0 -->
<g id="edge36" class="edge"><title>e0&#45;&gt;f0</title>
<path fill="none" stroke="black" d="M866.566,-720.411C878.638,-711.125 893.852,-699.421 906.96,-689.338"/>
<polygon fill="black" stroke="black" points="909.423,-691.859 915.215,-682.988 905.155,-686.311 909.423,-691.859"/>
</g>
<!-- k0 -->
<g id="node50" class="node"><title>k0</title>
<a xlink:href="0005576" xlink:title="GO:0005576 (15)">
<ellipse fill="#e98576" stroke="#e98576" cx="608" cy="-666" rx="79.4447" ry="18"/>
<text text-anchor="middle" x="608" y="-661.8" font-family="Times,serif" font-size="14.00">GO:0005576 (15)</text>
</a>
</g>
<!-- e0&#45;&gt;k0 -->
<g id="edge48" class="edge"><title>e0&#45;&gt;k0</title>
<path fill="none" stroke="black" d="M798.741,-723.337C760.287,-711.979 705.419,-695.774 664.395,-683.657"/>
<polygon fill="black" stroke="black" points="665.128,-680.224 654.546,-680.748 663.145,-686.937 665.128,-680.224"/>
</g>
<!-- v0 -->
<g id="node89" class="node"><title>v0</title>
<a xlink:href="0031012" xlink:title="GO:0031012 (9)">
<ellipse fill="#e98576" stroke="#e98576" cx="1325" cy="-666" rx="75.2018" ry="18"/>
<text text-anchor="middle" x="1325" y="-661.8" font-family="Times,serif" font-size="14.00">GO:0031012 (9)</text>
</a>
</g>
<!-- e0&#45;&gt;v0 -->
<g id="edge92" class="edge"><title>e0&#45;&gt;v0</title>
<path fill="none" stroke="black" d="M913.679,-728.83C991.894,-719.262 1123.43,-702.366 1236,-684 1243.53,-682.771 1251.41,-681.397 1259.22,-679.978"/>
<polygon fill="black" stroke="black" points="1259.86,-683.419 1269.06,-678.163 1258.59,-676.535 1259.86,-683.419"/>
</g>
<!-- j0 -->
<g id="node96" class="node"><title>j0</title>
<a xlink:href="0044421" xlink:title="GO:0044421">
<ellipse fill="#dddddd" stroke="#dddddd" cx="608" cy="-594" rx="61.1934" ry="18"/>
<text text-anchor="middle" x="608" y="-589.8" font-family="Times,serif" font-size="14.00">GO:0044421</text>
</a>
</g>
<!-- e0&#45;&gt;j0 -->
<g id="edge128" class="edge"><title>e0&#45;&gt;j0</title>
<path fill="none" stroke="black" d="M809.903,-721.638C788.983,-711.913 762.254,-698.472 740,-684 718.818,-670.225 716.653,-662.555 696,-648 679.67,-636.492 660.783,-624.907 644.702,-615.516"/>
<polygon fill="black" stroke="black" points="646.009,-612.229 635.599,-610.258 642.507,-618.291 646.009,-612.229"/>
</g>
<!-- m0 -->
<g id="node110" class="node"><title>m0</title>
<a xlink:href="0032991" xlink:title="GO:0032991">
<ellipse fill="#dddddd" stroke="#dddddd" cx="2077" cy="-522" rx="61.1934" ry="18"/>
<text text-anchor="middle" x="2077" y="-517.8" font-family="Times,serif" font-size="14.00">GO:0032991</text>
</a>
</g>
<!-- e0&#45;&gt;m0 -->
<g id="edge124" class="edge"><title>e0&#45;&gt;m0</title>
<path fill="none" stroke="black" d="M895.991,-724.151C971.14,-705.532 1116.23,-670.79 1241,-648 1578.78,-586.303 1668.66,-604.05 2006,-540 2011.37,-538.98 2016.95,-537.822 2022.51,-536.6"/>
<polygon fill="black" stroke="black" points="2023.47,-539.971 2032.45,-534.349 2021.92,-533.144 2023.47,-539.971"/>
</g>
<!-- l1&#45;&gt;k1 -->
<g id="edge142" class="edge"><title>l1&#45;&gt;k1</title>
<path fill="none" stroke="black" d="M884.655,-366.292C938.92,-353.838 1028.47,-333.286 1086.59,-319.946"/>
<polygon fill="black" stroke="black" points="1087.39,-323.355 1096.35,-317.706 1085.82,-316.532 1087.39,-323.355"/>
</g>
<!-- h0&#45;&gt;l1 -->
<g id="edge24" class="edge"><title>h0&#45;&gt;l1</title>
<path fill="none" stroke="black" d="M550.316,-439.619C604.081,-429.454 691.75,-412.471 767,-396 772.055,-394.894 777.304,-393.708 782.556,-392.496"/>
<polygon fill="black" stroke="black" points="783.668,-395.83 792.609,-390.147 782.075,-389.014 783.668,-395.83"/>
</g>
<!-- g0 -->
<g id="node42" class="node"><title>g0</title>
<a xlink:href="0031982" xlink:title="GO:0031982 (24)">
<ellipse fill="#e98576" stroke="#e98576" cx="220" cy="-378" rx="79.4447" ry="18"/>
<text text-anchor="middle" x="220" y="-373.8" font-family="Times,serif" font-size="14.00">GO:0031982 (24)</text>
</a>
</g>
<!-- h0&#45;&gt;g0 -->
<g id="edge38" class="edge"><title>h0&#45;&gt;g0</title>
<path fill="none" stroke="black" d="M455.013,-437.753C407.959,-425.99 333.792,-407.448 281.379,-394.345"/>
<polygon fill="black" stroke="black" points="282.08,-390.912 271.53,-391.882 280.382,-397.703 282.08,-390.912"/>
</g>
<!-- q0 -->
<g id="node69" class="node"><title>q0</title>
<a xlink:href="0043228" xlink:title="GO:0043228">
<ellipse fill="#dddddd" stroke="#dddddd" cx="61" cy="-378" rx="61.1934" ry="18"/>
<text text-anchor="middle" x="61" y="-373.8" font-family="Times,serif" font-size="14.00">GO:0043228</text>
</a>
</g>
<!-- h0&#45;&gt;q0 -->
<g id="edge126" class="edge"><title>h0&#45;&gt;q0</title>
<path fill="none" stroke="black" d="M444.085,-442.658C371.556,-434.045 241.259,-417.256 131,-396 125.912,-395.019 120.636,-393.91 115.368,-392.741"/>
<polygon fill="black" stroke="black" points="115.826,-389.255 105.297,-390.434 114.263,-396.078 115.826,-389.255"/>
</g>
<!-- h0&#45;&gt;r0 -->
<g id="edge98" class="edge"><title>h0&#45;&gt;r0</title>
<path fill="none" stroke="black" d="M537.518,-435.669C569.422,-424.332 615.399,-407.995 649.798,-395.772"/>
<polygon fill="black" stroke="black" points="651.371,-398.928 659.622,-392.282 649.027,-392.332 651.371,-398.928"/>
</g>
<!-- i0 -->
<g id="node95" class="node"><title>i0</title>
<a xlink:href="0043230" xlink:title="GO:0043230 (21)">
<ellipse fill="#e98576" stroke="#e98576" cx="538" cy="-378" rx="79.4447" ry="18"/>
<text text-anchor="middle" x="538" y="-373.8" font-family="Times,serif" font-size="14.00">GO:0043230 (21)</text>
</a>
</g>
<!-- h0&#45;&gt;i0 -->
<g id="edge102" class="edge"><title>h0&#45;&gt;i0</title>
<path fill="none" stroke="black" d="M509.199,-432.055C513.568,-424.007 518.889,-414.205 523.763,-405.226"/>
<polygon fill="black" stroke="black" points="526.927,-406.734 528.622,-396.275 520.775,-403.394 526.927,-406.734"/>
</g>
<!-- u0 -->
<g id="node105" class="node"><title>u0</title>
<a xlink:href="0043227" xlink:title="GO:0043227">
<ellipse fill="#dddddd" stroke="#dddddd" cx="379" cy="-378" rx="61.1934" ry="18"/>
<text text-anchor="middle" x="379" y="-373.8" font-family="Times,serif" font-size="14.00">GO:0043227</text>
</a>
</g>
<!-- h0&#45;&gt;u0 -->
<g id="edge116" class="edge"><title>h0&#45;&gt;u0</title>
<path fill="none" stroke="black" d="M473.446,-433.638C456.109,-423.608 433.272,-410.397 414.398,-399.478"/>
<polygon fill="black" stroke="black" points="415.901,-396.304 405.492,-394.326 412.395,-402.363 415.901,-396.304"/>
</g>
<!-- f0&#45;&gt;d0 -->
<g id="edge108" class="edge"><title>f0&#45;&gt;d0</title>
<path fill="none" stroke="black" d="M971.719,-651.337C1000.19,-640.448 1040.3,-625.102 1071.48,-613.176"/>
<polygon fill="black" stroke="black" points="1072.76,-616.435 1080.85,-609.594 1070.26,-609.897 1072.76,-616.435"/>
</g>
<!-- c0&#45;&gt;b0 -->
<g id="edge40" class="edge"><title>c0&#45;&gt;b0</title>
<path fill="none" stroke="black" d="M863.642,-504.765C875.437,-495.488 890.406,-483.714 903.328,-473.551"/>
<polygon fill="black" stroke="black" points="905.773,-476.081 911.47,-467.147 901.446,-470.578 905.773,-476.081"/>
</g>
<!-- k0&#45;&gt;j0 -->
<g id="edge130" class="edge"><title>k0&#45;&gt;j0</title>
<path fill="none" stroke="black" d="M608,-647.697C608,-639.983 608,-630.712 608,-622.112"/>
<polygon fill="black" stroke="black" points="611.5,-622.104 608,-612.104 604.5,-622.104 611.5,-622.104"/>
</g>
<!-- o1 -->
<g id="node59" class="node"><title>o1</title>
<a xlink:href="0044427" xlink:title="GO:0044427">
<ellipse fill="#dddddd" stroke="#dddddd" cx="1774" cy="-162" rx="61.1934" ry="18"/>
<text text-anchor="middle" x="1774" y="-157.8" font-family="Times,serif" font-size="14.00">GO:0044427</text>
</a>
</g>
<!-- n1 -->
<g id="node61" class="node"><title>n1</title>
<a xlink:href="0000785" xlink:title="GO:0000785">
<ellipse fill="#dddddd" stroke="#dddddd" cx="1802" cy="-90" rx="61.1934" ry="18"/>
<text text-anchor="middle" x="1802" y="-85.8" font-family="Times,serif" font-size="14.00">GO:0000785</text>
</a>
</g>
<!-- o1&#45;&gt;n1 -->
<g id="edge62" class="edge"><title>o1&#45;&gt;n1</title>
<path fill="none" stroke="black" d="M1780.78,-144.055C1783.93,-136.176 1787.75,-126.617 1791.28,-117.794"/>
<polygon fill="black" stroke="black" points="1794.63,-118.86 1795.09,-108.275 1788.13,-116.26 1794.63,-118.86"/>
</g>
<!-- o1&#45;&gt;m1 -->
<g id="edge114" class="edge"><title>o1&#45;&gt;m1</title>
<path fill="none" stroke="black" d="M1756.27,-144.687C1747.11,-135.028 1736.86,-121.97 1732,-108 1726.74,-92.8898 1724.88,-86.3271 1732,-72 1738.5,-58.9296 1749.93,-48.2217 1761.69,-39.9377"/>
<polygon fill="black" stroke="black" points="1763.8,-42.7401 1770.25,-34.3349 1759.97,-36.8833 1763.8,-42.7401"/>
</g>
<!-- n1&#45;&gt;m1 -->
<g id="edge110" class="edge"><title>n1&#45;&gt;m1</title>
<path fill="none" stroke="black" d="M1802,-71.6966C1802,-63.9827 1802,-54.7125 1802,-46.1124"/>
<polygon fill="black" stroke="black" points="1805.5,-46.1043 1802,-36.1043 1798.5,-46.1044 1805.5,-46.1043"/>
</g>
<!-- p0 -->
<g id="node64" class="node"><title>p0</title>
<a xlink:href="0043232" xlink:title="GO:0043232 (6)">
<ellipse fill="#e98576" stroke="#e98576" cx="178" cy="-306" rx="75.2018" ry="18"/>
<text text-anchor="middle" x="178" y="-301.8" font-family="Times,serif" font-size="14.00">GO:0043232 (6)</text>
</a>
</g>
<!-- p0&#45;&gt;o0 -->
<g id="edge96" class="edge"><title>p0&#45;&gt;o0</title>
<path fill="none" stroke="black" d="M178,-287.697C178,-279.983 178,-270.712 178,-262.112"/>
<polygon fill="black" stroke="black" points="181.5,-262.104 178,-252.104 174.5,-262.104 181.5,-262.104"/>
</g>
<!-- b1 -->
<g id="node66" class="node"><title>b1</title>
<a xlink:href="0005694" xlink:title="GO:0005694 (2)">
<ellipse fill="#e98576" stroke="#e98576" cx="351" cy="-234" rx="75.2018" ry="18"/>
<text text-anchor="middle" x="351" y="-229.8" font-family="Times,serif" font-size="14.00">GO:0005694 (2)</text>
</a>
</g>
<!-- p0&#45;&gt;b1 -->
<g id="edge66" class="edge"><title>p0&#45;&gt;b1</title>
<path fill="none" stroke="black" d="M214.689,-290.155C241.066,-279.482 276.817,-265.016 305.088,-253.577"/>
<polygon fill="black" stroke="black" points="306.407,-256.819 314.364,-249.824 303.781,-250.33 306.407,-256.819"/>
</g>
<!-- p0&#45;&gt;g1 -->
<g id="edge136" class="edge"><title>p0&#45;&gt;g1</title>
<path fill="none" stroke="black" d="M136.044,-290.84C118.217,-282.501 99.2194,-269.98 89,-252 81.0938,-238.09 79.7521,-229.057 89,-216 197.747,-62.464 436.172,-27.7245 564.024,-20.4286"/>
<polygon fill="black" stroke="black" points="564.361,-23.9158 574.163,-19.8944 563.993,-16.9255 564.361,-23.9158"/>
</g>
<!-- b1&#45;&gt;o1 -->
<g id="edge146" class="edge"><title>b1&#45;&gt;o1</title>
<path fill="none" stroke="black" d="M403.666,-221C414.006,-219.025 424.807,-217.225 435,-216 498.324,-208.389 1435.93,-174.919 1703.31,-165.484"/>
<polygon fill="black" stroke="black" points="1703.79,-168.969 1713.66,-165.118 1703.55,-161.973 1703.79,-168.969"/>
</g>
<!-- q0&#45;&gt;p0 -->
<g id="edge70" class="edge"><title>q0&#45;&gt;p0</title>
<path fill="none" stroke="black" d="M86.6761,-361.638C102.944,-351.905 124.22,-339.176 142.142,-328.453"/>
<polygon fill="black" stroke="black" points="144.38,-331.193 151.165,-323.055 140.786,-325.186 144.38,-331.193"/>
</g>
<!-- r0&#45;&gt;t0 -->
<g id="edge122" class="edge"><title>r0&#45;&gt;t0</title>
<path fill="none" stroke="black" d="M697,-359.697C697,-351.983 697,-342.712 697,-334.112"/>
<polygon fill="black" stroke="black" points="700.5,-334.104 697,-324.104 693.5,-334.104 700.5,-334.104"/>
</g>
<!-- r0&#45;&gt;p0 -->
<g id="edge72" class="edge"><title>r0&#45;&gt;p0</title>
<path fill="none" stroke="black" d="M652.476,-365.496C643.736,-363.477 634.61,-361.535 626,-360 498.115,-337.206 347.89,-321.701 257.953,-313.608"/>
<polygon fill="black" stroke="black" points="258.099,-310.107 247.828,-312.705 257.477,-317.079 258.099,-310.107"/>
</g>
<!-- r0&#45;&gt;k1 -->
<g id="edge140" class="edge"><title>r0&#45;&gt;k1</title>
<path fill="none" stroke="black" d="M741.545,-365.611C750.283,-363.582 759.403,-361.607 768,-360 885.269,-338.083 915.945,-341.193 1034,-324 1049.01,-321.813 1065.17,-319.352 1080.33,-316.996"/>
<polygon fill="black" stroke="black" points="1081.3,-320.387 1090.64,-315.386 1080.22,-313.471 1081.3,-320.387"/>
</g>
<!-- k1&#45;&gt;j1 -->
<g id="edge82" class="edge"><title>k1&#45;&gt;j1</title>
<path fill="none" stroke="black" d="M1149.88,-287.871C1159.68,-263.457 1177.75,-218.426 1189.31,-189.635"/>
<polygon fill="black" stroke="black" points="1192.62,-190.773 1193.1,-180.189 1186.13,-188.166 1192.62,-190.773"/>
</g>
<!-- k1&#45;&gt;o1 -->
<g id="edge148" class="edge"><title>k1&#45;&gt;o1</title>
<path fill="none" stroke="black" d="M1190.17,-294.385C1303.99,-268.771 1593.4,-203.642 1716.82,-175.867"/>
<polygon fill="black" stroke="black" points="1717.84,-179.225 1726.83,-173.615 1716.31,-172.396 1717.84,-179.225"/>
</g>
<!-- h1&#45;&gt;g1 -->
<g id="edge134" class="edge"><title>h1&#45;&gt;g1</title>
<path fill="none" stroke="black" d="M649,-71.6966C649,-63.9827 649,-54.7125 649,-46.1124"/>
<polygon fill="black" stroke="black" points="652.5,-46.1043 649,-36.1043 645.5,-46.1044 652.5,-46.1043"/>
</g>
<!-- j0&#45;&gt;i0 -->
<g id="edge104" class="edge"><title>j0&#45;&gt;i0</title>
<path fill="none" stroke="black" d="M605.699,-575.537C601.332,-545.385 590.402,-481.99 570,-432 566.182,-422.645 560.854,-413.015 555.639,-404.572"/>
<polygon fill="black" stroke="black" points="558.449,-402.471 550.101,-395.946 552.558,-406.252 558.449,-402.471"/>
</g>
<!-- u0&#45;&gt;t0 -->
<g id="edge120" class="edge"><title>u0&#45;&gt;t0</title>
<path fill="none" stroke="black" d="M424.519,-365.752C432.661,-363.795 441.075,-361.809 449,-360 510.842,-345.885 581.626,-330.871 631.699,-320.44"/>
<polygon fill="black" stroke="black" points="632.666,-323.814 641.744,-318.351 631.24,-316.961 632.666,-323.814"/>
</g>
<!-- m0&#45;&gt;l0 -->
<g id="edge154" class="edge"><title>m0&#45;&gt;l0</title>
<path fill="none" stroke="black" d="M2031.05,-509.985C1981.61,-498.133 1902.68,-479.21 1847.58,-466.003"/>
<polygon fill="black" stroke="black" points="1848.13,-462.534 1837.59,-463.607 1846.5,-469.342 1848.13,-462.534"/>
</g>
<!-- m0&#45;&gt;a1 -->
<g id="edge150" class="edge"><title>m0&#45;&gt;a1</title>
<path fill="none" stroke="black" d="M2032.48,-509.481C2023.74,-507.463 2014.61,-505.525 2006,-504 1869.42,-479.808 1823.72,-522.099 1696,-468 1672.73,-458.145 1675.29,-441.805 1652,-432 1519.28,-376.117 1472.26,-418.304 1330,-396 1323.38,-394.963 1316.5,-393.764 1309.64,-392.494"/>
<polygon fill="black" stroke="black" points="1310.12,-389.024 1299.65,-390.591 1308.82,-395.9 1310.12,-389.024"/>
</g>
</g>
</svg>
