<?xml version="1.0" encoding="UTF-8" standalone="no"?>
<!DOCTYPE svg PUBLIC "-//W3C//DTD SVG 1.1//EN"
 "http://www.w3.org/Graphics/SVG/1.1/DTD/svg11.dtd">
<!-- Generated by graphviz version 2.28.0 (20110622.2320)
 -->
<!-- Title: G Pages: 1 -->
<svg width="1344pt" height="260pt"
 viewBox="0.00 0.00 1344.00 260.00" xmlns="http://www.w3.org/2000/svg" xmlns:xlink="http://www.w3.org/1999/xlink">
<g id="graph1" class="graph" transform="scale(1 1) rotate(0) translate(4 256)">
<title>G</title>
<polygon fill="white" stroke="white" points="-4,5 -4,-256 1341,-256 1341,5 -4,5"/>
<!-- c0 -->
<g id="node1" class="node"><title>c0</title>
<a xlink:href="0003674" xlink:title="GO:0003674">
<ellipse fill="#dddddd" stroke="#dddddd" cx="828" cy="-234" rx="61.1934" ry="18"/>
<text text-anchor="middle" x="828" y="-229.8" font-family="Times,serif" font-size="14.00">GO:0003674</text>
</a>
</g>
<!-- m0 -->
<g id="node3" class="node"><title>m0</title>
<a xlink:href="0005215" xlink:title="GO:0005215 (1)">
<ellipse fill="#e98576" stroke="#e98576" cx="518" cy="-162" rx="75.2018" ry="18"/>
<text text-anchor="middle" x="518" y="-157.8" font-family="Times,serif" font-size="14.00">GO:0005215 (1)</text>
</a>
</g>
<!-- c0&#45;&gt;m0 -->
<g id="edge2" class="edge"><title>c0&#45;&gt;m0</title>
<path fill="none" stroke="black" d="M780.918,-222.369C727.439,-210.293 639.935,-190.534 580.708,-177.16"/>
<polygon fill="black" stroke="black" points="581.25,-173.694 570.724,-174.906 579.708,-180.522 581.25,-173.694"/>
</g>
<!-- b0 -->
<g id="node7" class="node"><title>b0</title>
<a xlink:href="0005488" xlink:title="GO:0005488">
<ellipse fill="#dddddd" stroke="#dddddd" cx="673" cy="-162" rx="61.1934" ry="18"/>
<text text-anchor="middle" x="673" y="-157.8" font-family="Times,serif" font-size="14.00">GO:0005488</text>
</a>
</g>
<!-- c0&#45;&gt;b0 -->
<g id="edge20" class="edge"><title>c0&#45;&gt;b0</title>
<path fill="none" stroke="black" d="M795.884,-218.496C772.296,-207.843 740.047,-193.279 714.504,-181.744"/>
<polygon fill="black" stroke="black" points="715.629,-178.412 705.075,-177.485 712.748,-184.791 715.629,-178.412"/>
</g>
<!-- l0 -->
<g id="node11" class="node"><title>l0</title>
<a xlink:href="0030234" xlink:title="GO:0030234 (1)">
<ellipse fill="#e98576" stroke="#e98576" cx="828" cy="-162" rx="75.2018" ry="18"/>
<text text-anchor="middle" x="828" y="-157.8" font-family="Times,serif" font-size="14.00">GO:0030234 (1)</text>
</a>
</g>
<!-- c0&#45;&gt;l0 -->
<g id="edge8" class="edge"><title>c0&#45;&gt;l0</title>
<path fill="none" stroke="black" d="M828,-215.697C828,-207.983 828,-198.712 828,-190.112"/>
<polygon fill="black" stroke="black" points="831.5,-190.104 828,-180.104 824.5,-190.104 831.5,-190.104"/>
</g>
<!-- f0 -->
<g id="node12" class="node"><title>f0</title>
<a xlink:href="0003824" xlink:title="GO:0003824">
<ellipse fill="#dddddd" stroke="#dddddd" cx="983" cy="-162" rx="61.1934" ry="18"/>
<text text-anchor="middle" x="983" y="-157.8" font-family="Times,serif" font-size="14.00">GO:0003824</text>
</a>
</g>
<!-- c0&#45;&gt;f0 -->
<g id="edge12" class="edge"><title>c0&#45;&gt;f0</title>
<path fill="none" stroke="black" d="M860.116,-218.496C883.704,-207.843 915.953,-193.279 941.496,-181.744"/>
<polygon fill="black" stroke="black" points="943.252,-184.791 950.925,-177.485 940.371,-178.412 943.252,-184.791"/>
</g>
<!-- i0 -->
<g id="node25" class="node"><title>i0</title>
<a xlink:href="0005198" xlink:title="GO:0005198 (2)">
<ellipse fill="#e98576" stroke="#e98576" cx="1138" cy="-162" rx="75.2018" ry="18"/>
<text text-anchor="middle" x="1138" y="-157.8" font-family="Times,serif" font-size="14.00">GO:0005198 (2)</text>
</a>
</g>
<!-- c0&#45;&gt;i0 -->
<g id="edge24" class="edge"><title>c0&#45;&gt;i0</title>
<path fill="none" stroke="black" d="M875.082,-222.369C928.561,-210.293 1016.06,-190.534 1075.29,-177.16"/>
<polygon fill="black" stroke="black" points="1076.29,-180.522 1085.28,-174.906 1074.75,-173.694 1076.29,-180.522"/>
</g>
<!-- e0 -->
<g id="node4" class="node"><title>e0</title>
<a xlink:href="0016787" xlink:title="GO:0016787 (2)">
<ellipse fill="#e98576" stroke="#e98576" cx="1261" cy="-90" rx="75.2018" ry="18"/>
<text text-anchor="middle" x="1261" y="-85.8" font-family="Times,serif" font-size="14.00">GO:0016787 (2)</text>
</a>
</g>
<!-- h0 -->
<g id="node6" class="node"><title>h0</title>
<a xlink:href="0019213" xlink:title="GO:0019213 (2)">
<ellipse fill="#e98576" stroke="#e98576" cx="1261" cy="-18" rx="75.2018" ry="18"/>
<text text-anchor="middle" x="1261" y="-13.8" font-family="Times,serif" font-size="14.00">GO:0019213 (2)</text>
</a>
</g>
<!-- e0&#45;&gt;h0 -->
<g id="edge4" class="edge"><title>e0&#45;&gt;h0</title>
<path fill="none" stroke="black" d="M1261,-71.6966C1261,-63.9827 1261,-54.7125 1261,-46.1124"/>
<polygon fill="black" stroke="black" points="1264.5,-46.1043 1261,-36.1043 1257.5,-46.1044 1264.5,-46.1043"/>
</g>
<!-- k0 -->
<g id="node9" class="node"><title>k0</title>
<a xlink:href="0043167" xlink:title="GO:0043167 (1)">
<ellipse fill="#e98576" stroke="#e98576" cx="75" cy="-90" rx="75.2018" ry="18"/>
<text text-anchor="middle" x="75" y="-85.8" font-family="Times,serif" font-size="14.00">GO:0043167 (1)</text>
</a>
</g>
<!-- b0&#45;&gt;k0 -->
<g id="edge6" class="edge"><title>b0&#45;&gt;k0</title>
<path fill="none" stroke="black" d="M628.898,-149.33C620.04,-147.3 610.762,-145.396 602,-144 406.924,-112.909 354.595,-135.64 159,-108 152.269,-107.049 145.265,-105.896 138.3,-104.643"/>
<polygon fill="black" stroke="black" points="138.632,-101.145 128.16,-102.748 137.347,-108.026 138.632,-101.145"/>
</g>
<!-- n0 -->
<g id="node16" class="node"><title>n0</title>
<a xlink:href="0001882" xlink:title="GO:0001882 (1)">
<ellipse fill="#e98576" stroke="#e98576" cx="243" cy="-90" rx="75.2018" ry="18"/>
<text text-anchor="middle" x="243" y="-85.8" font-family="Times,serif" font-size="14.00">GO:0001882 (1)</text>
</a>
</g>
<!-- b0&#45;&gt;n0 -->
<g id="edge14" class="edge"><title>b0&#45;&gt;n0</title>
<path fill="none" stroke="black" d="M628.46,-149.581C619.722,-147.555 610.6,-145.588 602,-144 480.784,-121.618 448.592,-128.238 327,-108 320.492,-106.917 313.718,-105.699 306.965,-104.425"/>
<polygon fill="black" stroke="black" points="307.603,-100.984 297.121,-102.528 306.279,-107.857 307.603,-100.984"/>
</g>
<!-- a0 -->
<g id="node18" class="node"><title>a0</title>
<a xlink:href="0005515" xlink:title="GO:0005515 (11)">
<ellipse fill="#e98576" stroke="#e98576" cx="416" cy="-90" rx="79.4447" ry="18"/>
<text text-anchor="middle" x="416" y="-85.8" font-family="Times,serif" font-size="14.00">GO:0005515 (11)</text>
</a>
</g>
<!-- b0&#45;&gt;a0 -->
<g id="edge16" class="edge"><title>b0&#45;&gt;a0</title>
<path fill="none" stroke="black" d="M629.694,-149.205C587.091,-137.601 521.748,-119.803 474.534,-106.943"/>
<polygon fill="black" stroke="black" points="475.317,-103.529 464.749,-104.278 473.478,-110.283 475.317,-103.529"/>
</g>
<!-- d0 -->
<g id="node20" class="node"><title>d0</title>
<a xlink:href="0003676" xlink:title="GO:0003676 (7)">
<ellipse fill="#e98576" stroke="#e98576" cx="589" cy="-90" rx="75.2018" ry="18"/>
<text text-anchor="middle" x="589" y="-85.8" font-family="Times,serif" font-size="14.00">GO:0003676 (7)</text>
</a>
</g>
<!-- b0&#45;&gt;d0 -->
<g id="edge18" class="edge"><title>b0&#45;&gt;d0</title>
<path fill="none" stroke="black" d="M653.518,-144.765C642.57,-135.642 628.725,-124.105 616.67,-114.059"/>
<polygon fill="black" stroke="black" points="618.591,-111.103 608.668,-107.39 614.109,-116.48 618.591,-111.103"/>
</g>
<!-- o0 -->
<g id="node23" class="node"><title>o0</title>
<a xlink:href="0000166" xlink:title="GO:0000166 (1)">
<ellipse fill="#e98576" stroke="#e98576" cx="757" cy="-90" rx="75.2018" ry="18"/>
<text text-anchor="middle" x="757" y="-85.8" font-family="Times,serif" font-size="14.00">GO:0000166 (1)</text>
</a>
</g>
<!-- b0&#45;&gt;o0 -->
<g id="edge22" class="edge"><title>b0&#45;&gt;o0</title>
<path fill="none" stroke="black" d="M692.482,-144.765C703.43,-135.642 717.275,-124.105 729.33,-114.059"/>
<polygon fill="black" stroke="black" points="731.891,-116.48 737.332,-107.39 727.409,-111.103 731.891,-116.48"/>
</g>
<!-- j0 -->
<g id="node27" class="node"><title>j0</title>
<a xlink:href="0003682" xlink:title="GO:0003682 (2)">
<ellipse fill="#e98576" stroke="#e98576" cx="925" cy="-90" rx="75.2018" ry="18"/>
<text text-anchor="middle" x="925" y="-85.8" font-family="Times,serif" font-size="14.00">GO:0003682 (2)</text>
</a>
</g>
<!-- b0&#45;&gt;j0 -->
<g id="edge26" class="edge"><title>b0&#45;&gt;j0</title>
<path fill="none" stroke="black" d="M716.034,-149.046C757.943,-137.405 821.895,-119.64 868.012,-106.83"/>
<polygon fill="black" stroke="black" points="869.161,-110.143 877.859,-104.095 867.287,-103.399 869.161,-110.143"/>
</g>
<!-- g0 -->
<g id="node29" class="node"><title>g0</title>
<a xlink:href="0060090" xlink:title="GO:0060090 (2)">
<ellipse fill="#e98576" stroke="#e98576" cx="1093" cy="-90" rx="75.2018" ry="18"/>
<text text-anchor="middle" x="1093" y="-85.8" font-family="Times,serif" font-size="14.00">GO:0060090 (2)</text>
</a>
</g>
<!-- b0&#45;&gt;g0 -->
<g id="edge28" class="edge"><title>b0&#45;&gt;g0</title>
<path fill="none" stroke="black" d="M717.546,-149.615C726.283,-147.585 735.404,-145.609 744,-144 860.831,-122.134 891.801,-127.799 1009,-108 1015.51,-106.901 1022.28,-105.673 1029.03,-104.393"/>
<polygon fill="black" stroke="black" points="1029.72,-107.824 1038.87,-102.49 1028.39,-100.952 1029.72,-107.824"/>
</g>
<!-- f0&#45;&gt;e0 -->
<g id="edge10" class="edge"><title>f0&#45;&gt;e0</title>
<path fill="none" stroke="black" d="M1027.97,-149.675C1075.04,-137.825 1149.18,-119.157 1201.16,-106.068"/>
<polygon fill="black" stroke="black" points="1202.08,-109.446 1210.92,-103.61 1200.37,-102.658 1202.08,-109.446"/>
</g>
</g>
</svg>
